<?xml version="1.0" encoding="UTF-8" standalone="no"?>
<!DOCTYPE svg PUBLIC "-//W3C//DTD SVG 1.1//EN"
 "http://www.w3.org/Graphics/SVG/1.1/DTD/svg11.dtd">
<!-- Generated by graphviz version 2.43.0 (0)
 -->
<!-- Title: %3 Pages: 1 -->
<svg width="1137pt" height="476pt"
 viewBox="0.00 0.00 1137.16 476.00" xmlns="http://www.w3.org/2000/svg" xmlns:xlink="http://www.w3.org/1999/xlink">
<g id="graph0" class="graph" transform="scale(1 1) rotate(0) translate(4 472)">
<title>%3</title>
<polygon fill="transparent" stroke="transparent" points="-4,4 -4,-472 1133.16,-472 1133.16,4 -4,4"/>
<!-- 19 -->
<g id="node1" class="node">
<title>19</title>
<g id="a_node1"><a xlink:title="SpinLock">
<polygon fill="#ffffff" stroke="black" points="159.16,-324 77.16,-324 77.16,-288 159.16,-288 159.16,-324"/>
<text text-anchor="middle" x="118.16" y="-302.3" font-family="Times,serif" font-size="14.00">SpinLock</text>
</a>
</g>
</g>
<!-- 12 -->
<g id="node2" class="node">
<title>12</title>
<g id="a_node2"><a xlink:title="ResourceType">
<polygon fill="#ffffff" stroke="black" points="617.66,-180 500.66,-180 500.66,-144 617.66,-144 617.66,-180"/>
<text text-anchor="middle" x="559.16" y="-158.3" font-family="Times,serif" font-size="14.00">ResourceType</text>
</a>
</g>
</g>
<!-- 3 -->
<g id="node4" class="node">
<title>3</title>
<g id="a_node4"><a xlink:title="ListHead">
<polygon fill="#ffffff" stroke="black" points="503.66,-36 422.66,-36 422.66,0 503.66,0 503.66,-36"/>
<text text-anchor="middle" x="463.16" y="-14.3" font-family="Times,serif" font-size="14.00">ListHead</text>
</a>
</g>
</g>
<!-- 12&#45;&gt;3 -->
<g id="edge3" class="edge">
<title>12&#45;&gt;3</title>
<g id="a_edge3"><a xlink:title="usage">
<path fill="none" stroke="#1414ce" d="M545.87,-143.54C538.19,-133.3 528.44,-120.05 520.16,-108 505.83,-87.14 490.39,-62.91 479.2,-45.01"/>
<polygon fill="#1414ce" stroke="#1414ce" points="482.02,-42.92 473.76,-36.28 476.08,-46.62 482.02,-42.92"/>
</a>
</g>
</g>
<!-- 4 -->
<g id="node6" class="node">
<title>4</title>
<g id="a_node6"><a xlink:title="GlobalContext">
<polygon fill="#ffffff" stroke="black" points="727.66,-396 608.66,-396 608.66,-360 727.66,-360 727.66,-396"/>
<text text-anchor="middle" x="668.16" y="-374.3" font-family="Times,serif" font-size="14.00">GlobalContext</text>
</a>
</g>
</g>
<!-- 12&#45;&gt;4 -->
<g id="edge2" class="edge">
<title>12&#45;&gt;4</title>
<g id="a_edge2"><a xlink:title="usage">
<path fill="none" stroke="#1414ce" d="M615.48,-180.06C640.31,-188.87 669.22,-200.96 693.16,-216 713.13,-228.55 714.54,-236.32 732.16,-252 750.53,-268.34 763.89,-265.66 774.16,-288 780.85,-302.54 782.57,-310.39 774.16,-324 765.47,-338.06 751.8,-348.51 737.13,-356.24"/>
<polygon fill="#1414ce" stroke="#1414ce" points="735.37,-353.2 727.9,-360.71 738.42,-359.5 735.37,-353.2"/>
</a>
</g>
</g>
<!-- 13 -->
<g id="node18" class="node">
<title>13</title>
<g id="a_node18"><a xlink:title="SyncList">
<polygon fill="#ffffff" stroke="black" points="607.16,-108 529.16,-108 529.16,-72 607.16,-72 607.16,-108"/>
<text text-anchor="middle" x="568.16" y="-86.3" font-family="Times,serif" font-size="14.00">SyncList</text>
</a>
</g>
</g>
<!-- 12&#45;&gt;13 -->
<g id="edge1" class="edge">
<title>12&#45;&gt;13</title>
<g id="a_edge1"><a xlink:title="usage">
<path fill="none" stroke="#1414ce" d="M561.39,-143.7C562.38,-135.98 563.57,-126.71 564.67,-118.11"/>
<polygon fill="#1414ce" stroke="#1414ce" points="568.16,-118.47 565.96,-108.1 561.21,-117.58 568.16,-118.47"/>
</a>
</g>
</g>
<!-- 14 -->
<g id="node3" class="node">
<title>14</title>
<g id="a_node3"><a xlink:title="Module">
<polygon fill="#ffffff" stroke="black" points="247.16,-324 177.16,-324 177.16,-288 247.16,-288 247.16,-324"/>
<text text-anchor="middle" x="212.16" y="-302.3" font-family="Times,serif" font-size="14.00">Module</text>
</a>
</g>
</g>
<!-- 14&#45;&gt;3 -->
<g id="edge6" class="edge">
<title>14&#45;&gt;3</title>
<g id="a_edge6"><a xlink:title="usage">
<path fill="none" stroke="#1414ce" d="M176.78,-290.81C173.88,-289.81 170.98,-288.86 168.16,-288 93.55,-265.33 -32.97,-282.25 8.16,-216 96.53,-73.68 313.49,-33.9 412.46,-23"/>
<polygon fill="#1414ce" stroke="#1414ce" points="412.93,-26.47 422.52,-21.95 412.21,-19.51 412.93,-26.47"/>
</a>
</g>
</g>
<!-- 16 -->
<g id="node9" class="node">
<title>16</title>
<g id="a_node9"><a xlink:title="LiteralEntry">
<polygon fill="#ffffff" stroke="black" points="121.16,-252 17.16,-252 17.16,-216 121.16,-216 121.16,-252"/>
<text text-anchor="middle" x="69.16" y="-230.3" font-family="Times,serif" font-size="14.00">LiteralEntry</text>
</a>
</g>
</g>
<!-- 14&#45;&gt;16 -->
<g id="edge5" class="edge">
<title>14&#45;&gt;16</title>
<g id="a_edge5"><a xlink:title="usage">
<path fill="none" stroke="#1414ce" d="M177.18,-287.88C157.96,-278.47 133.93,-266.71 113.42,-256.67"/>
<polygon fill="#1414ce" stroke="#1414ce" points="114.8,-253.44 104.28,-252.19 111.72,-259.73 114.8,-253.44"/>
</a>
</g>
</g>
<!-- 15 -->
<g id="node17" class="node">
<title>15</title>
<g id="a_node17"><a xlink:title="ExportedFunction">
<polygon fill="#ffffff" stroke="black" points="285.16,-252 139.16,-252 139.16,-216 285.16,-216 285.16,-252"/>
<text text-anchor="middle" x="212.16" y="-230.3" font-family="Times,serif" font-size="14.00">ExportedFunction</text>
</a>
</g>
</g>
<!-- 14&#45;&gt;15 -->
<g id="edge4" class="edge">
<title>14&#45;&gt;15</title>
<g id="a_edge4"><a xlink:title="usage">
<path fill="none" stroke="#1414ce" d="M212.16,-287.7C212.16,-279.98 212.16,-270.71 212.16,-262.11"/>
<polygon fill="#1414ce" stroke="#1414ce" points="215.66,-262.1 212.16,-252.1 208.66,-262.1 215.66,-262.1"/>
</a>
</g>
</g>
<!-- 3&#45;&gt;3 -->
<g id="edge7" class="edge">
<title>3&#45;&gt;3</title>
<g id="a_edge7"><a xlink:title="usage">
<path fill="none" stroke="#1414ce" d="M503.9,-31.31C514.06,-30.38 521.66,-25.95 521.66,-18 521.66,-12.91 518.54,-9.26 513.63,-7.05"/>
<polygon fill="#1414ce" stroke="#1414ce" points="514.44,-3.64 503.9,-4.69 512.79,-10.45 514.44,-3.64"/>
</a>
</g>
</g>
<!-- 10 -->
<g id="node5" class="node">
<title>10</title>
<g id="a_node5"><a xlink:title="RefcBinaryQueueItem">
<polygon fill="#ffffff" stroke="black" points="553.16,-324 379.16,-324 379.16,-288 553.16,-288 553.16,-324"/>
<text text-anchor="middle" x="466.16" y="-302.3" font-family="Times,serif" font-size="14.00">RefcBinaryQueueItem</text>
</a>
</g>
</g>
<!-- 10&#45;&gt;10 -->
<g id="edge9" class="edge">
<title>10&#45;&gt;10</title>
<g id="a_edge9"><a xlink:title="usage">
<path fill="none" stroke="#1414ce" d="M553.46,-317.68C564.15,-315.59 571.16,-311.7 571.16,-306 571.16,-302.35 568.28,-299.44 563.41,-297.27"/>
<polygon fill="#1414ce" stroke="#1414ce" points="564.05,-293.81 553.46,-294.32 562.05,-300.52 564.05,-293.81"/>
</a>
</g>
</g>
<!-- 11 -->
<g id="node13" class="node">
<title>11</title>
<g id="a_node13"><a xlink:title="RefcBinary">
<polygon fill="#ffffff" stroke="black" points="511.66,-252 416.66,-252 416.66,-216 511.66,-216 511.66,-252"/>
<text text-anchor="middle" x="464.16" y="-230.3" font-family="Times,serif" font-size="14.00">RefcBinary</text>
</a>
</g>
</g>
<!-- 10&#45;&gt;11 -->
<g id="edge8" class="edge">
<title>10&#45;&gt;11</title>
<g id="a_edge8"><a xlink:title="usage">
<path fill="none" stroke="#1414ce" d="M465.67,-287.7C465.45,-279.98 465.18,-270.71 464.94,-262.11"/>
<polygon fill="#1414ce" stroke="#1414ce" points="468.43,-262 464.65,-252.1 461.44,-262.2 468.43,-262"/>
</a>
</g>
</g>
<!-- 4&#45;&gt;19 -->
<g id="edge17" class="edge">
<title>4&#45;&gt;19</title>
<g id="a_edge17"><a xlink:title="usage">
<path fill="none" stroke="#1414ce" d="M608.59,-374.96C516.12,-370.86 332.54,-358.98 169.63,-324.05"/>
<polygon fill="#1414ce" stroke="#1414ce" points="169.95,-320.53 159.43,-321.82 168.46,-327.37 169.95,-320.53"/>
</a>
</g>
</g>
<!-- 4&#45;&gt;14 -->
<g id="edge14" class="edge">
<title>4&#45;&gt;14</title>
<g id="a_edge14"><a xlink:title="usage">
<path fill="none" stroke="#1414ce" d="M608.58,-369.38C535.51,-359.82 407.96,-342.43 299.16,-324 285.5,-321.69 270.68,-318.9 257.22,-316.25"/>
<polygon fill="#1414ce" stroke="#1414ce" points="257.71,-312.78 247.22,-314.27 256.35,-319.65 257.71,-312.78"/>
</a>
</g>
</g>
<!-- 4&#45;&gt;3 -->
<g id="edge18" class="edge">
<title>4&#45;&gt;3</title>
<g id="a_edge18"><a xlink:title="usage">
<path fill="none" stroke="#1414ce" d="M608.34,-373.76C527.82,-368.29 390.14,-354.66 351.16,-324 317.35,-297.41 313.16,-278.01 313.16,-235 313.16,-235 313.16,-235 313.16,-161 313.16,-104.42 370.14,-63.65 413.86,-40.68"/>
<polygon fill="#1414ce" stroke="#1414ce" points="415.64,-43.71 422.96,-36.06 412.46,-37.47 415.64,-43.71"/>
</a>
</g>
</g>
<!-- 4&#45;&gt;10 -->
<g id="edge12" class="edge">
<title>4&#45;&gt;10</title>
<g id="a_edge12"><a xlink:title="usage">
<path fill="none" stroke="#1414ce" d="M619,-359.97C590.66,-350.14 554.84,-337.73 525,-327.39"/>
<polygon fill="#1414ce" stroke="#1414ce" points="526.13,-324.08 515.54,-324.11 523.84,-330.69 526.13,-324.08"/>
</a>
</g>
</g>
<!-- 18 -->
<g id="node8" class="node">
<title>18</title>
<g id="a_node8"><a xlink:title="TimerList">
<polygon fill="#ffffff" stroke="black" points="432.16,-180 346.16,-180 346.16,-144 432.16,-144 432.16,-180"/>
<text text-anchor="middle" x="389.16" y="-158.3" font-family="Times,serif" font-size="14.00">TimerList</text>
</a>
</g>
</g>
<!-- 4&#45;&gt;18 -->
<g id="edge16" class="edge">
<title>4&#45;&gt;18</title>
<g id="a_edge16"><a xlink:title="usage">
<path fill="none" stroke="#1414ce" d="M608.41,-375.12C530.31,-371.27 399.94,-359.55 370.16,-324 338.44,-286.14 359.14,-224.52 375.3,-189.52"/>
<polygon fill="#1414ce" stroke="#1414ce" points="378.5,-190.92 379.68,-180.39 372.2,-187.88 378.5,-190.92"/>
</a>
</g>
</g>
<!-- 5 -->
<g id="node11" class="node">
<title>5</title>
<g id="a_node11"><a xlink:title="MessageQueueItem">
<polygon fill="#ffffff" stroke="black" points="747.16,-324 589.16,-324 589.16,-288 747.16,-288 747.16,-324"/>
<text text-anchor="middle" x="668.16" y="-302.3" font-family="Times,serif" font-size="14.00">MessageQueueItem</text>
</a>
</g>
</g>
<!-- 4&#45;&gt;5 -->
<g id="edge10" class="edge">
<title>4&#45;&gt;5</title>
<g id="a_edge10"><a xlink:title="usage">
<path fill="none" stroke="#1414ce" d="M668.16,-359.7C668.16,-351.98 668.16,-342.71 668.16,-334.11"/>
<polygon fill="#1414ce" stroke="#1414ce" points="671.66,-334.1 668.16,-324.1 664.66,-334.1 671.66,-334.1"/>
</a>
</g>
</g>
<!-- 17 -->
<g id="node12" class="node">
<title>17</title>
<g id="a_node12"><a xlink:title="AtomsHashTable">
<polygon fill="#ffffff" stroke="black" points="1062.66,-252 925.66,-252 925.66,-216 1062.66,-216 1062.66,-252"/>
<text text-anchor="middle" x="994.16" y="-230.3" font-family="Times,serif" font-size="14.00">AtomsHashTable</text>
</a>
</g>
</g>
<!-- 4&#45;&gt;17 -->
<g id="edge15" class="edge">
<title>4&#45;&gt;17</title>
<g id="a_edge15"><a xlink:title="usage">
<path fill="none" stroke="#1414ce" d="M727.75,-375.75C782.02,-372.14 862.57,-360.39 922.16,-324 947.31,-308.64 967.49,-281.21 980.01,-260.85"/>
<polygon fill="#1414ce" stroke="#1414ce" points="983.13,-262.45 985.21,-252.06 977.1,-258.88 983.13,-262.45"/>
</a>
</g>
</g>
<!-- 7 -->
<g id="node16" class="node">
<title>7</title>
<g id="a_node16"><a xlink:title="AtomTable">
<polygon fill="#ffffff" stroke="black" points="913.16,-324 821.16,-324 821.16,-288 913.16,-288 913.16,-324"/>
<text text-anchor="middle" x="867.16" y="-302.3" font-family="Times,serif" font-size="14.00">AtomTable</text>
</a>
</g>
</g>
<!-- 4&#45;&gt;7 -->
<g id="edge11" class="edge">
<title>4&#45;&gt;7</title>
<g id="a_edge11"><a xlink:title="usage">
<path fill="none" stroke="#1414ce" d="M716.59,-359.97C745.24,-349.89 781.64,-337.08 811.48,-326.59"/>
<polygon fill="#1414ce" stroke="#1414ce" points="812.65,-329.89 820.92,-323.27 810.32,-323.28 812.65,-329.89"/>
</a>
</g>
</g>
<!-- 4&#45;&gt;13 -->
<g id="edge13" class="edge">
<title>4&#45;&gt;13</title>
<g id="a_edge13"><a xlink:title="usage">
<path fill="none" stroke="#1414ce" d="M728.02,-376.2C857.01,-372 1143.9,-347.97 1071.16,-216 1042.23,-163.52 1013.47,-164.51 957.16,-144 840.49,-101.5 692.87,-92.65 617.44,-91.08"/>
<polygon fill="#1414ce" stroke="#1414ce" points="617.34,-87.57 607.28,-90.9 617.22,-94.57 617.34,-87.57"/>
</a>
</g>
</g>
<!-- 9 -->
<g id="node7" class="node">
<title>9</title>
<g id="a_node7"><a xlink:title="HNodeGroup">
<polygon fill="#ffffff" stroke="black" points="851.16,-252 741.16,-252 741.16,-216 851.16,-216 851.16,-252"/>
<text text-anchor="middle" x="796.16" y="-230.3" font-family="Times,serif" font-size="14.00">HNodeGroup</text>
</a>
</g>
</g>
<!-- 9&#45;&gt;9 -->
<g id="edge20" class="edge">
<title>9&#45;&gt;9</title>
<g id="a_edge20"><a xlink:title="usage">
<path fill="none" stroke="#1414ce" d="M851.23,-246.85C861.73,-245.32 869.16,-241.03 869.16,-234 869.16,-229.5 866.11,-226.12 861.16,-223.87"/>
<polygon fill="#1414ce" stroke="#1414ce" points="861.8,-220.42 851.23,-221.15 859.95,-227.17 861.8,-220.42"/>
</a>
</g>
</g>
<!-- 8 -->
<g id="node19" class="node">
<title>8</title>
<g id="a_node19"><a xlink:title="HNode">
<polygon fill="#ffffff" stroke="black" points="930.16,-180 864.16,-180 864.16,-144 930.16,-144 930.16,-180"/>
<text text-anchor="middle" x="897.16" y="-158.3" font-family="Times,serif" font-size="14.00">HNode</text>
</a>
</g>
</g>
<!-- 9&#45;&gt;8 -->
<g id="edge19" class="edge">
<title>9&#45;&gt;8</title>
<g id="a_edge19"><a xlink:title="usage">
<path fill="none" stroke="#1414ce" d="M820.87,-215.88C833.83,-206.89 849.89,-195.76 863.93,-186.03"/>
<polygon fill="#1414ce" stroke="#1414ce" points="866.13,-188.76 872.36,-180.19 862.15,-183.01 866.13,-188.76"/>
</a>
</g>
</g>
<!-- 18&#45;&gt;3 -->
<g id="edge21" class="edge">
<title>18&#45;&gt;3</title>
<g id="a_edge21"><a xlink:title="usage">
<path fill="none" stroke="#1414ce" d="M398.09,-143.87C410.87,-119.35 434.48,-74.03 449.48,-45.26"/>
<polygon fill="#1414ce" stroke="#1414ce" points="452.69,-46.67 454.2,-36.19 446.48,-43.44 452.69,-46.67"/>
</a>
</g>
</g>
<!-- 6 -->
<g id="node10" class="node">
<title>6</title>
<g id="a_node10"><a xlink:title="MailboxMessage">
<polygon fill="#ffffff" stroke="black" points="666.66,-252 529.66,-252 529.66,-216 666.66,-216 666.66,-252"/>
<text text-anchor="middle" x="598.16" y="-230.3" font-family="Times,serif" font-size="14.00">MailboxMessage</text>
</a>
</g>
</g>
<!-- 6&#45;&gt;6 -->
<g id="edge22" class="edge">
<title>6&#45;&gt;6</title>
<g id="a_edge22"><a xlink:title="usage">
<path fill="none" stroke="#1414ce" d="M666.69,-246.37C677.37,-244.52 684.66,-240.4 684.66,-234 684.66,-229.8 681.52,-226.58 676.34,-224.34"/>
<polygon fill="#1414ce" stroke="#1414ce" points="677.26,-220.96 666.69,-221.63 675.37,-227.7 677.26,-220.96"/>
</a>
</g>
</g>
<!-- 5&#45;&gt;6 -->
<g id="edge23" class="edge">
<title>5&#45;&gt;6</title>
<g id="a_edge23"><a xlink:title="usage">
<path fill="none" stroke="#1414ce" d="M650.86,-287.7C642.3,-279.14 631.82,-268.66 622.47,-259.3"/>
<polygon fill="#1414ce" stroke="#1414ce" points="624.81,-256.7 615.26,-252.1 619.86,-261.65 624.81,-256.7"/>
</a>
</g>
</g>
<!-- 5&#45;&gt;5 -->
<g id="edge24" class="edge">
<title>5&#45;&gt;5</title>
<g id="a_edge24"><a xlink:title="usage">
<path fill="none" stroke="#1414ce" d="M747.32,-317.98C758.03,-315.97 765.16,-311.98 765.16,-306 765.16,-302.08 762.09,-299.01 756.95,-296.8"/>
<polygon fill="#1414ce" stroke="#1414ce" points="757.9,-293.43 747.32,-294.02 755.96,-300.15 757.9,-293.43"/>
</a>
</g>
</g>
<!-- 17&#45;&gt;8 -->
<g id="edge25" class="edge">
<title>17&#45;&gt;8</title>
<g id="a_edge25"><a xlink:title="usage">
<path fill="none" stroke="#1414ce" d="M970.18,-215.7C957.85,-206.8 942.64,-195.82 929.31,-186.2"/>
<polygon fill="#1414ce" stroke="#1414ce" points="931.02,-183.12 920.86,-180.1 926.92,-188.79 931.02,-183.12"/>
</a>
</g>
</g>
<!-- 11&#45;&gt;12 -->
<g id="edge26" class="edge">
<title>11&#45;&gt;12</title>
<g id="a_edge26"><a xlink:title="usage">
<path fill="none" stroke="#1414ce" d="M487.64,-215.7C499.72,-206.8 514.61,-195.82 527.68,-186.2"/>
<polygon fill="#1414ce" stroke="#1414ce" points="529.97,-188.85 535.95,-180.1 525.82,-183.22 529.97,-188.85"/>
</a>
</g>
</g>
<!-- 11&#45;&gt;3 -->
<g id="edge27" class="edge">
<title>11&#45;&gt;3</title>
<g id="a_edge27"><a xlink:title="usage">
<path fill="none" stroke="#1414ce" d="M464.08,-215.85C463.91,-178.83 463.5,-91.18 463.29,-46.39"/>
<polygon fill="#1414ce" stroke="#1414ce" points="466.79,-46.22 463.24,-36.23 459.79,-46.25 466.79,-46.22"/>
</a>
</g>
</g>
<!-- 1 -->
<g id="node14" class="node">
<title>1</title>
<g id="a_node14"><a xlink:title="LWIPEvent">
<polygon fill="#bfbfbf" stroke="black" points="946.16,-468 850.16,-468 850.16,-432 946.16,-432 946.16,-468"/>
<text text-anchor="middle" x="898.16" y="-446.3" font-family="Times,serif" font-size="14.00">LWIPEvent</text>
</a>
</g>
</g>
<!-- 1&#45;&gt;4 -->
<g id="edge29" class="edge">
<title>1&#45;&gt;4</title>
<g id="a_edge29"><a xlink:title="usage">
<path fill="none" stroke="#1414ce" d="M849.95,-434.33C816.33,-424.09 771.06,-410.32 734.11,-399.07"/>
<polygon fill="#1414ce" stroke="#1414ce" points="735,-395.69 724.42,-396.12 732.97,-402.38 735,-395.69"/>
</a>
</g>
</g>
<!-- 2 -->
<g id="node15" class="node">
<title>2</title>
<g id="a_node15"><a xlink:title="SocketResource">
<polygon fill="#ffffff" stroke="black" points="974.66,-108 843.66,-108 843.66,-72 974.66,-72 974.66,-108"/>
<text text-anchor="middle" x="909.16" y="-86.3" font-family="Times,serif" font-size="14.00">SocketResource</text>
</a>
</g>
</g>
<!-- 1&#45;&gt;2 -->
<g id="edge28" class="edge">
<title>1&#45;&gt;2</title>
<g id="a_edge28"><a xlink:title="usage">
<path fill="none" stroke="#1414ce" d="M946.3,-441.46C1014,-427.81 1129.16,-392.09 1129.16,-307 1129.16,-307 1129.16,-307 1129.16,-233 1129.16,-162.41 1048.22,-125.21 984.53,-106.87"/>
<polygon fill="#1414ce" stroke="#1414ce" points="985.44,-103.49 974.87,-104.19 983.57,-110.23 985.44,-103.49"/>
</a>
</g>
</g>
<!-- 2&#45;&gt;3 -->
<g id="edge30" class="edge">
<title>2&#45;&gt;3</title>
<g id="a_edge30"><a xlink:title="usage">
<path fill="none" stroke="#1414ce" d="M843.35,-78.67C753.66,-64.59 594.93,-39.68 513.87,-26.96"/>
<polygon fill="#1414ce" stroke="#1414ce" points="514.33,-23.49 503.91,-25.4 513.25,-30.4 514.33,-23.49"/>
</a>
</g>
</g>
<!-- 7&#45;&gt;9 -->
<g id="edge32" class="edge">
<title>7&#45;&gt;9</title>
<g id="a_edge32"><a xlink:title="usage">
<path fill="none" stroke="#1414ce" d="M849.61,-287.7C840.93,-279.14 830.3,-268.66 820.81,-259.3"/>
<polygon fill="#1414ce" stroke="#1414ce" points="823.09,-256.63 813.51,-252.1 818.17,-261.62 823.09,-256.63"/>
</a>
</g>
</g>
<!-- 7&#45;&gt;8 -->
<g id="edge31" class="edge">
<title>7&#45;&gt;8</title>
<g id="a_edge31"><a xlink:title="usage">
<path fill="none" stroke="#1414ce" d="M870.78,-287.87C875.91,-263.56 885.37,-218.82 891.45,-190.01"/>
<polygon fill="#1414ce" stroke="#1414ce" points="894.89,-190.7 893.53,-180.19 888.04,-189.25 894.89,-190.7"/>
</a>
</g>
</g>
<!-- 13&#45;&gt;3 -->
<g id="edge33" class="edge">
<title>13&#45;&gt;3</title>
<g id="a_edge33"><a xlink:title="usage">
<path fill="none" stroke="#1414ce" d="M542.47,-71.88C528.87,-62.81 511.99,-51.55 497.3,-41.76"/>
<polygon fill="#1414ce" stroke="#1414ce" points="499.21,-38.82 488.95,-36.19 495.32,-44.65 499.21,-38.82"/>
</a>
</g>
</g>
<!-- 8&#45;&gt;8 -->
<g id="edge34" class="edge">
<title>8&#45;&gt;8</title>
<g id="a_edge34"><a xlink:title="usage">
<path fill="none" stroke="#1414ce" d="M930.52,-175.47C940.44,-175.07 948.16,-170.58 948.16,-162 948.16,-156.64 945.14,-152.87 940.46,-150.71"/>
<polygon fill="#1414ce" stroke="#1414ce" points="941.03,-147.25 930.52,-148.53 939.54,-154.09 941.03,-147.25"/>
</a>
</g>
</g>
</g>
</svg>
