<?xml version="1.0" encoding="UTF-8" standalone="no"?>
<!DOCTYPE svg PUBLIC "-//W3C//DTD SVG 1.1//EN"
 "http://www.w3.org/Graphics/SVG/1.1/DTD/svg11.dtd">
<!-- Generated by graphviz version 2.43.0 (0)
 -->
<!-- Title: %3 Pages: 1 -->
<svg width="1340pt" height="476pt"
 viewBox="0.00 0.00 1339.70 476.00" xmlns="http://www.w3.org/2000/svg" xmlns:xlink="http://www.w3.org/1999/xlink">
<g id="graph0" class="graph" transform="scale(1 1) rotate(0) translate(4 472)">
<title>%3</title>
<polygon fill="transparent" stroke="transparent" points="-4,4 -4,-472 1335.7,-472 1335.7,4 -4,4"/>
<!-- 20 -->
<g id="node1" class="node">
<title>20</title>
<g id="a_node1"><a xlink:title="SpinLock">
<polygon fill="#ffffff" stroke="black" points="914.7,-324 832.7,-324 832.7,-288 914.7,-288 914.7,-324"/>
<text text-anchor="middle" x="873.7" y="-302.3" font-family="Times,serif" font-size="14.00">SpinLock</text>
</a>
</g>
</g>
<!-- 4 -->
<g id="node2" class="node">
<title>4</title>
<g id="a_node2"><a xlink:title="ResourceType">
<polygon fill="#ffffff" stroke="black" points="284.2,-180 167.2,-180 167.2,-144 284.2,-144 284.2,-180"/>
<text text-anchor="middle" x="225.7" y="-158.3" font-family="Times,serif" font-size="14.00">ResourceType</text>
</a>
</g>
</g>
<!-- 6 -->
<g id="node4" class="node">
<title>6</title>
<g id="a_node4"><a xlink:title="ListHead">
<polygon fill="#ffffff" stroke="black" points="420.2,-36 339.2,-36 339.2,0 420.2,0 420.2,-36"/>
<text text-anchor="middle" x="379.7" y="-14.3" font-family="Times,serif" font-size="14.00">ListHead</text>
</a>
</g>
</g>
<!-- 4&#45;&gt;6 -->
<g id="edge3" class="edge">
<title>4&#45;&gt;6</title>
<g id="a_edge3"><a xlink:title="usage">
<path fill="none" stroke="#1414ce" d="M237.27,-143.95C250.65,-125.01 274.02,-94.16 298.7,-72 311.22,-60.76 326.33,-50.21 340.09,-41.53"/>
<polygon fill="#1414ce" stroke="#1414ce" points="342.22,-44.33 348.9,-36.1 338.55,-38.37 342.22,-44.33"/>
</a>
</g>
</g>
<!-- 7 -->
<g id="node6" class="node">
<title>7</title>
<g id="a_node6"><a xlink:title="GlobalContext">
<polygon fill="#ffffff" stroke="black" points="544.2,-396 425.2,-396 425.2,-360 544.2,-360 544.2,-396"/>
<text text-anchor="middle" x="484.7" y="-374.3" font-family="Times,serif" font-size="14.00">GlobalContext</text>
</a>
</g>
</g>
<!-- 4&#45;&gt;7 -->
<g id="edge2" class="edge">
<title>4&#45;&gt;7</title>
<g id="a_edge2"><a xlink:title="usage">
<path fill="none" stroke="#1414ce" d="M211.78,-180.15C187.61,-212.08 143.77,-281.29 179.7,-324 209.15,-359 334.28,-370.89 414.84,-374.93"/>
<polygon fill="#1414ce" stroke="#1414ce" points="414.76,-378.43 424.92,-375.4 415.09,-371.43 414.76,-378.43"/>
</a>
</g>
</g>
<!-- 5 -->
<g id="node19" class="node">
<title>5</title>
<g id="a_node19"><a xlink:title="SyncList">
<polygon fill="#ffffff" stroke="black" points="418.7,-108 340.7,-108 340.7,-72 418.7,-72 418.7,-108"/>
<text text-anchor="middle" x="379.7" y="-86.3" font-family="Times,serif" font-size="14.00">SyncList</text>
</a>
</g>
</g>
<!-- 4&#45;&gt;5 -->
<g id="edge1" class="edge">
<title>4&#45;&gt;5</title>
<g id="a_edge1"><a xlink:title="usage">
<path fill="none" stroke="#1414ce" d="M263.38,-143.88C284.34,-134.35 310.61,-122.41 332.88,-112.28"/>
<polygon fill="#1414ce" stroke="#1414ce" points="334.5,-115.39 342.15,-108.07 331.6,-109.02 334.5,-115.39"/>
</a>
</g>
</g>
<!-- 15 -->
<g id="node3" class="node">
<title>15</title>
<g id="a_node3"><a xlink:title="Module">
<polygon fill="#ffffff" stroke="black" points="620.7,-324 550.7,-324 550.7,-288 620.7,-288 620.7,-324"/>
<text text-anchor="middle" x="585.7" y="-302.3" font-family="Times,serif" font-size="14.00">Module</text>
</a>
</g>
</g>
<!-- 15&#45;&gt;6 -->
<g id="edge6" class="edge">
<title>15&#45;&gt;6</title>
<g id="a_edge6"><a xlink:title="usage">
<path fill="none" stroke="#1414ce" d="M621.09,-290.81C623.99,-289.81 626.88,-288.86 629.7,-288 704.31,-265.33 826.79,-284.6 789.7,-216 717.67,-82.75 523.41,-38.59 430.52,-24.81"/>
<polygon fill="#1414ce" stroke="#1414ce" points="430.91,-21.33 420.52,-23.39 429.92,-28.26 430.91,-21.33"/>
</a>
</g>
</g>
<!-- 17 -->
<g id="node9" class="node">
<title>17</title>
<g id="a_node9"><a xlink:title="LiteralEntry">
<polygon fill="#ffffff" stroke="black" points="780.7,-252 676.7,-252 676.7,-216 780.7,-216 780.7,-252"/>
<text text-anchor="middle" x="728.7" y="-230.3" font-family="Times,serif" font-size="14.00">LiteralEntry</text>
</a>
</g>
</g>
<!-- 15&#45;&gt;17 -->
<g id="edge5" class="edge">
<title>15&#45;&gt;17</title>
<g id="a_edge5"><a xlink:title="usage">
<path fill="none" stroke="#1414ce" d="M620.69,-287.88C639.9,-278.47 663.93,-266.71 684.44,-256.67"/>
<polygon fill="#1414ce" stroke="#1414ce" points="686.14,-259.73 693.59,-252.19 683.07,-253.44 686.14,-259.73"/>
</a>
</g>
</g>
<!-- 16 -->
<g id="node18" class="node">
<title>16</title>
<g id="a_node18"><a xlink:title="ExportedFunction">
<polygon fill="#ffffff" stroke="black" points="658.7,-252 512.7,-252 512.7,-216 658.7,-216 658.7,-252"/>
<text text-anchor="middle" x="585.7" y="-230.3" font-family="Times,serif" font-size="14.00">ExportedFunction</text>
</a>
</g>
</g>
<!-- 15&#45;&gt;16 -->
<g id="edge4" class="edge">
<title>15&#45;&gt;16</title>
<g id="a_edge4"><a xlink:title="usage">
<path fill="none" stroke="#1414ce" d="M585.7,-287.7C585.7,-279.98 585.7,-270.71 585.7,-262.11"/>
<polygon fill="#1414ce" stroke="#1414ce" points="589.2,-262.1 585.7,-252.1 582.2,-262.1 589.2,-262.1"/>
</a>
</g>
</g>
<!-- 6&#45;&gt;6 -->
<g id="edge7" class="edge">
<title>6&#45;&gt;6</title>
<g id="a_edge7"><a xlink:title="usage">
<path fill="none" stroke="#1414ce" d="M420.44,-31.31C430.6,-30.38 438.2,-25.95 438.2,-18 438.2,-12.91 435.09,-9.26 430.17,-7.05"/>
<polygon fill="#1414ce" stroke="#1414ce" points="430.98,-3.64 420.44,-4.69 429.33,-10.45 430.98,-3.64"/>
</a>
</g>
</g>
<!-- 13 -->
<g id="node5" class="node">
<title>13</title>
<g id="a_node5"><a xlink:title="RefcBinaryQueueItem">
<polygon fill="#ffffff" stroke="black" points="362.7,-324 188.7,-324 188.7,-288 362.7,-288 362.7,-324"/>
<text text-anchor="middle" x="275.7" y="-302.3" font-family="Times,serif" font-size="14.00">RefcBinaryQueueItem</text>
</a>
</g>
</g>
<!-- 13&#45;&gt;13 -->
<g id="edge9" class="edge">
<title>13&#45;&gt;13</title>
<g id="a_edge9"><a xlink:title="usage">
<path fill="none" stroke="#1414ce" d="M363.01,-317.68C373.7,-315.59 380.7,-311.7 380.7,-306 380.7,-302.35 377.83,-299.44 372.95,-297.27"/>
<polygon fill="#1414ce" stroke="#1414ce" points="373.59,-293.81 363.01,-294.32 371.6,-300.52 373.59,-293.81"/>
</a>
</g>
</g>
<!-- 14 -->
<g id="node13" class="node">
<title>14</title>
<g id="a_node13"><a xlink:title="RefcBinary">
<polygon fill="#ffffff" stroke="black" points="323.2,-252 228.2,-252 228.2,-216 323.2,-216 323.2,-252"/>
<text text-anchor="middle" x="275.7" y="-230.3" font-family="Times,serif" font-size="14.00">RefcBinary</text>
</a>
</g>
</g>
<!-- 13&#45;&gt;14 -->
<g id="edge8" class="edge">
<title>13&#45;&gt;14</title>
<g id="a_edge8"><a xlink:title="usage">
<path fill="none" stroke="#1414ce" d="M275.7,-287.7C275.7,-279.98 275.7,-270.71 275.7,-262.11"/>
<polygon fill="#1414ce" stroke="#1414ce" points="279.2,-262.1 275.7,-252.1 272.2,-262.1 279.2,-262.1"/>
</a>
</g>
</g>
<!-- 7&#45;&gt;20 -->
<g id="edge17" class="edge">
<title>7&#45;&gt;20</title>
<g id="a_edge17"><a xlink:title="usage">
<path fill="none" stroke="#1414ce" d="M544.42,-370.83C610.49,-363.29 720.13,-348.7 822.76,-324"/>
<polygon fill="#1414ce" stroke="#1414ce" points="823.79,-327.35 832.67,-321.58 822.12,-320.55 823.79,-327.35"/>
</a>
</g>
</g>
<!-- 7&#45;&gt;15 -->
<g id="edge14" class="edge">
<title>7&#45;&gt;15</title>
<g id="a_edge14"><a xlink:title="usage">
<path fill="none" stroke="#1414ce" d="M509.41,-359.88C522.37,-350.89 538.43,-339.76 552.47,-330.03"/>
<polygon fill="#1414ce" stroke="#1414ce" points="554.68,-332.76 560.9,-324.19 550.69,-327.01 554.68,-332.76"/>
</a>
</g>
</g>
<!-- 7&#45;&gt;6 -->
<g id="edge18" class="edge">
<title>7&#45;&gt;6</title>
<g id="a_edge18"><a xlink:title="usage">
<path fill="none" stroke="#1414ce" d="M477.01,-359.91C465.91,-333.62 446.7,-281.45 446.7,-235 446.7,-235 446.7,-235 446.7,-161 446.7,-120.55 446.13,-108 427.7,-72 422.42,-61.68 414.6,-51.83 406.8,-43.49"/>
<polygon fill="#1414ce" stroke="#1414ce" points="409.22,-40.96 399.72,-36.28 404.23,-45.87 409.22,-40.96"/>
</a>
</g>
</g>
<!-- 7&#45;&gt;13 -->
<g id="edge12" class="edge">
<title>7&#45;&gt;13</title>
<g id="a_edge12"><a xlink:title="usage">
<path fill="none" stroke="#1414ce" d="M433.84,-359.97C404.51,-350.14 367.45,-337.73 336.58,-327.39"/>
<polygon fill="#1414ce" stroke="#1414ce" points="337.39,-323.97 326.79,-324.11 335.16,-330.61 337.39,-323.97"/>
</a>
</g>
</g>
<!-- 19 -->
<g id="node8" class="node">
<title>19</title>
<g id="a_node8"><a xlink:title="TimerList">
<polygon fill="#ffffff" stroke="black" points="560.7,-108 474.7,-108 474.7,-72 560.7,-72 560.7,-108"/>
<text text-anchor="middle" x="517.7" y="-86.3" font-family="Times,serif" font-size="14.00">TimerList</text>
</a>
</g>
</g>
<!-- 7&#45;&gt;19 -->
<g id="edge16" class="edge">
<title>7&#45;&gt;19</title>
<g id="a_edge16"><a xlink:title="usage">
<path fill="none" stroke="#1414ce" d="M486.67,-359.97C492.18,-312.19 507.82,-176.62 514.56,-118.27"/>
<polygon fill="#1414ce" stroke="#1414ce" points="518.04,-118.64 515.71,-108.31 511.08,-117.84 518.04,-118.64"/>
</a>
</g>
</g>
<!-- 8 -->
<g id="node11" class="node">
<title>8</title>
<g id="a_node11"><a xlink:title="MessageQueueItem">
<polygon fill="#ffffff" stroke="black" points="796.7,-324 638.7,-324 638.7,-288 796.7,-288 796.7,-324"/>
<text text-anchor="middle" x="717.7" y="-302.3" font-family="Times,serif" font-size="14.00">MessageQueueItem</text>
</a>
</g>
</g>
<!-- 7&#45;&gt;8 -->
<g id="edge10" class="edge">
<title>7&#45;&gt;8</title>
<g id="a_edge10"><a xlink:title="usage">
<path fill="none" stroke="#1414ce" d="M541.4,-359.97C574.38,-350.06 616.14,-337.51 650.73,-327.12"/>
<polygon fill="#1414ce" stroke="#1414ce" points="652.18,-330.34 660.75,-324.11 650.17,-323.64 652.18,-330.34"/>
</a>
</g>
</g>
<!-- 18 -->
<g id="node12" class="node">
<title>18</title>
<g id="a_node12"><a xlink:title="AtomsHashTable">
<polygon fill="#ffffff" stroke="black" points="1147.2,-252 1010.2,-252 1010.2,-216 1147.2,-216 1147.2,-252"/>
<text text-anchor="middle" x="1078.7" y="-230.3" font-family="Times,serif" font-size="14.00">AtomsHashTable</text>
</a>
</g>
</g>
<!-- 7&#45;&gt;18 -->
<g id="edge15" class="edge">
<title>7&#45;&gt;18</title>
<g id="a_edge15"><a xlink:title="usage">
<path fill="none" stroke="#1414ce" d="M544.21,-377.26C630.17,-375.99 793.11,-367.38 923.7,-324 969.8,-308.69 1017.48,-278.82 1047.57,-257.93"/>
<polygon fill="#1414ce" stroke="#1414ce" points="1049.79,-260.65 1055.95,-252.02 1045.76,-254.92 1049.79,-260.65"/>
</a>
</g>
</g>
<!-- 10 -->
<g id="node17" class="node">
<title>10</title>
<g id="a_node17"><a xlink:title="AtomTable">
<polygon fill="#ffffff" stroke="black" points="1221.7,-324 1129.7,-324 1129.7,-288 1221.7,-288 1221.7,-324"/>
<text text-anchor="middle" x="1175.7" y="-302.3" font-family="Times,serif" font-size="14.00">AtomTable</text>
</a>
</g>
</g>
<!-- 7&#45;&gt;10 -->
<g id="edge11" class="edge">
<title>7&#45;&gt;10</title>
<g id="a_edge11"><a xlink:title="usage">
<path fill="none" stroke="#1414ce" d="M544.26,-371.43C643.8,-362.07 850.22,-342.38 1024.7,-324 1056.01,-320.7 1090.95,-316.78 1119.32,-313.54"/>
<polygon fill="#1414ce" stroke="#1414ce" points="1119.92,-316.99 1129.46,-312.38 1119.13,-310.04 1119.92,-316.99"/>
</a>
</g>
</g>
<!-- 7&#45;&gt;5 -->
<g id="edge13" class="edge">
<title>7&#45;&gt;5</title>
<g id="a_edge13"><a xlink:title="usage">
<path fill="none" stroke="#1414ce" d="M463.07,-359.98C452.4,-350.49 440.24,-337.8 432.7,-324 395.7,-256.22 384.49,-163.81 381.12,-118.43"/>
<polygon fill="#1414ce" stroke="#1414ce" points="384.6,-117.95 380.44,-108.21 377.61,-118.42 384.6,-117.95"/>
</a>
</g>
</g>
<!-- 12 -->
<g id="node7" class="node">
<title>12</title>
<g id="a_node7"><a xlink:title="HNodeGroup">
<polygon fill="#ffffff" stroke="black" points="1313.7,-252 1203.7,-252 1203.7,-216 1313.7,-216 1313.7,-252"/>
<text text-anchor="middle" x="1258.7" y="-230.3" font-family="Times,serif" font-size="14.00">HNodeGroup</text>
</a>
</g>
</g>
<!-- 12&#45;&gt;12 -->
<g id="edge20" class="edge">
<title>12&#45;&gt;12</title>
<g id="a_edge20"><a xlink:title="usage">
<path fill="none" stroke="#1414ce" d="M1313.78,-246.85C1324.28,-245.32 1331.7,-241.03 1331.7,-234 1331.7,-229.5 1328.66,-226.12 1323.7,-223.87"/>
<polygon fill="#1414ce" stroke="#1414ce" points="1324.35,-220.42 1313.78,-221.15 1322.5,-227.17 1324.35,-220.42"/>
</a>
</g>
</g>
<!-- 11 -->
<g id="node20" class="node">
<title>11</title>
<g id="a_node20"><a xlink:title="HNode">
<polygon fill="#ffffff" stroke="black" points="1208.7,-180 1142.7,-180 1142.7,-144 1208.7,-144 1208.7,-180"/>
<text text-anchor="middle" x="1175.7" y="-158.3" font-family="Times,serif" font-size="14.00">HNode</text>
</a>
</g>
</g>
<!-- 12&#45;&gt;11 -->
<g id="edge19" class="edge">
<title>12&#45;&gt;11</title>
<g id="a_edge19"><a xlink:title="usage">
<path fill="none" stroke="#1414ce" d="M1238.19,-215.7C1227.83,-206.97 1215.12,-196.24 1203.86,-186.75"/>
<polygon fill="#1414ce" stroke="#1414ce" points="1205.89,-183.88 1195.98,-180.1 1201.37,-189.23 1205.89,-183.88"/>
</a>
</g>
</g>
<!-- 19&#45;&gt;6 -->
<g id="edge21" class="edge">
<title>19&#45;&gt;6</title>
<g id="a_edge21"><a xlink:title="usage">
<path fill="none" stroke="#1414ce" d="M483.95,-71.88C465.48,-62.51 442.42,-50.81 422.69,-40.8"/>
<polygon fill="#1414ce" stroke="#1414ce" points="424.09,-37.59 413.59,-36.19 420.93,-43.83 424.09,-37.59"/>
</a>
</g>
</g>
<!-- 9 -->
<g id="node10" class="node">
<title>9</title>
<g id="a_node10"><a xlink:title="MailboxMessage">
<polygon fill="#ffffff" stroke="black" points="974.2,-252 837.2,-252 837.2,-216 974.2,-216 974.2,-252"/>
<text text-anchor="middle" x="905.7" y="-230.3" font-family="Times,serif" font-size="14.00">MailboxMessage</text>
</a>
</g>
</g>
<!-- 9&#45;&gt;9 -->
<g id="edge22" class="edge">
<title>9&#45;&gt;9</title>
<g id="a_edge22"><a xlink:title="usage">
<path fill="none" stroke="#1414ce" d="M974.23,-246.37C984.92,-244.52 992.2,-240.4 992.2,-234 992.2,-229.8 989.07,-226.58 983.89,-224.34"/>
<polygon fill="#1414ce" stroke="#1414ce" points="984.8,-220.96 974.23,-221.63 982.91,-227.7 984.8,-220.96"/>
</a>
</g>
</g>
<!-- 8&#45;&gt;9 -->
<g id="edge23" class="edge">
<title>8&#45;&gt;9</title>
<g id="a_edge23"><a xlink:title="usage">
<path fill="none" stroke="#1414ce" d="M763.69,-287.88C789.85,-278.14 822.79,-265.87 850.36,-255.61"/>
<polygon fill="#1414ce" stroke="#1414ce" points="851.71,-258.84 859.86,-252.07 849.27,-252.28 851.71,-258.84"/>
</a>
</g>
</g>
<!-- 8&#45;&gt;8 -->
<g id="edge24" class="edge">
<title>8&#45;&gt;8</title>
<g id="a_edge24"><a xlink:title="usage">
<path fill="none" stroke="#1414ce" d="M796.87,-317.98C807.57,-315.97 814.7,-311.98 814.7,-306 814.7,-302.08 811.63,-299.01 806.5,-296.8"/>
<polygon fill="#1414ce" stroke="#1414ce" points="807.45,-293.43 796.87,-294.02 805.51,-300.15 807.45,-293.43"/>
</a>
</g>
</g>
<!-- 18&#45;&gt;11 -->
<g id="edge25" class="edge">
<title>18&#45;&gt;11</title>
<g id="a_edge25"><a xlink:title="usage">
<path fill="none" stroke="#1414ce" d="M1102.68,-215.7C1115.02,-206.8 1130.22,-195.82 1143.56,-186.2"/>
<polygon fill="#1414ce" stroke="#1414ce" points="1145.94,-188.79 1152,-180.1 1141.84,-183.12 1145.94,-188.79"/>
</a>
</g>
</g>
<!-- 14&#45;&gt;4 -->
<g id="edge26" class="edge">
<title>14&#45;&gt;4</title>
<g id="a_edge26"><a xlink:title="usage">
<path fill="none" stroke="#1414ce" d="M263.34,-215.7C257.47,-207.47 250.33,-197.48 243.86,-188.42"/>
<polygon fill="#1414ce" stroke="#1414ce" points="246.58,-186.21 237.92,-180.1 240.89,-190.28 246.58,-186.21"/>
</a>
</g>
</g>
<!-- 14&#45;&gt;6 -->
<g id="edge27" class="edge">
<title>14&#45;&gt;6</title>
<g id="a_edge27"><a xlink:title="usage">
<path fill="none" stroke="#1414ce" d="M281.2,-215.96C293.77,-177.21 324.1,-84.82 331.7,-72 337.72,-61.86 345.87,-51.96 353.75,-43.5"/>
<polygon fill="#1414ce" stroke="#1414ce" points="356.4,-45.8 360.84,-36.18 351.37,-40.93 356.4,-45.8"/>
</a>
</g>
</g>
<!-- 3 -->
<g id="node14" class="node">
<title>3</title>
<g id="a_node14"><a xlink:title="ErlNifMonitor">
<polygon fill="#ffffff" stroke="black" points="132.2,-252 15.2,-252 15.2,-216 132.2,-216 132.2,-252"/>
<text text-anchor="middle" x="73.7" y="-230.3" font-family="Times,serif" font-size="14.00">ErlNifMonitor</text>
</a>
</g>
</g>
<!-- 3&#45;&gt;4 -->
<g id="edge28" class="edge">
<title>3&#45;&gt;4</title>
<g id="a_edge28"><a xlink:title="usage">
<path fill="none" stroke="#1414ce" d="M110.89,-215.88C131.57,-206.35 157.51,-194.41 179.49,-184.28"/>
<polygon fill="#1414ce" stroke="#1414ce" points="181.02,-187.43 188.64,-180.07 178.09,-181.07 181.02,-187.43"/>
</a>
</g>
</g>
<!-- 1 -->
<g id="node15" class="node">
<title>1</title>
<g id="a_node15"><a xlink:title="LWIPEvent">
<polygon fill="#bfbfbf" stroke="black" points="323.7,-468 227.7,-468 227.7,-432 323.7,-432 323.7,-468"/>
<text text-anchor="middle" x="275.7" y="-446.3" font-family="Times,serif" font-size="14.00">LWIPEvent</text>
</a>
</g>
</g>
<!-- 1&#45;&gt;7 -->
<g id="edge30" class="edge">
<title>1&#45;&gt;7</title>
<g id="a_edge30"><a xlink:title="usage">
<path fill="none" stroke="#1414ce" d="M323.91,-432.85C353.74,-422.86 392.29,-409.95 424.16,-399.28"/>
<polygon fill="#1414ce" stroke="#1414ce" points="425.45,-402.54 433.82,-396.04 423.23,-395.9 425.45,-402.54"/>
</a>
</g>
</g>
<!-- 2 -->
<g id="node16" class="node">
<title>2</title>
<g id="a_node16"><a xlink:title="SocketResource">
<polygon fill="#ffffff" stroke="black" points="132.2,-324 1.2,-324 1.2,-288 132.2,-288 132.2,-324"/>
<text text-anchor="middle" x="66.7" y="-302.3" font-family="Times,serif" font-size="14.00">SocketResource</text>
</a>
</g>
</g>
<!-- 1&#45;&gt;2 -->
<g id="edge29" class="edge">
<title>1&#45;&gt;2</title>
<g id="a_edge29"><a xlink:title="usage">
<path fill="none" stroke="#1414ce" d="M250.49,-431.87C212.99,-406.39 142.43,-358.45 100.5,-329.96"/>
<polygon fill="#1414ce" stroke="#1414ce" points="102.24,-326.91 92,-324.19 98.31,-332.7 102.24,-326.91"/>
</a>
</g>
</g>
<!-- 2&#45;&gt;6 -->
<g id="edge32" class="edge">
<title>2&#45;&gt;6</title>
<g id="a_edge32"><a xlink:title="usage">
<path fill="none" stroke="#1414ce" d="M37.66,-287.84C25.39,-278.87 12.4,-266.68 5.7,-252 -0.93,-237.44 -2.39,-229.8 5.7,-216 75.4,-97.05 244.21,-46.59 329.14,-28.16"/>
<polygon fill="#1414ce" stroke="#1414ce" points="330,-31.55 339.07,-26.07 328.56,-24.7 330,-31.55"/>
</a>
</g>
</g>
<!-- 2&#45;&gt;3 -->
<g id="edge31" class="edge">
<title>2&#45;&gt;3</title>
<g id="a_edge31"><a xlink:title="usage">
<path fill="none" stroke="#1414ce" d="M68.43,-287.7C69.21,-279.98 70.13,-270.71 70.99,-262.11"/>
<polygon fill="#1414ce" stroke="#1414ce" points="74.48,-262.4 71.99,-252.1 67.52,-261.71 74.48,-262.4"/>
</a>
</g>
</g>
<!-- 10&#45;&gt;12 -->
<g id="edge34" class="edge">
<title>10&#45;&gt;12</title>
<g id="a_edge34"><a xlink:title="usage">
<path fill="none" stroke="#1414ce" d="M1196.22,-287.7C1206.57,-278.97 1219.29,-268.24 1230.54,-258.75"/>
<polygon fill="#1414ce" stroke="#1414ce" points="1233.03,-261.23 1238.42,-252.1 1228.52,-255.88 1233.03,-261.23"/>
</a>
</g>
</g>
<!-- 10&#45;&gt;11 -->
<g id="edge33" class="edge">
<title>10&#45;&gt;11</title>
<g id="a_edge33"><a xlink:title="usage">
<path fill="none" stroke="#1414ce" d="M1175.7,-287.87C1175.7,-263.67 1175.7,-219.21 1175.7,-190.39"/>
<polygon fill="#1414ce" stroke="#1414ce" points="1179.2,-190.19 1175.7,-180.19 1172.2,-190.19 1179.2,-190.19"/>
</a>
</g>
</g>
<!-- 5&#45;&gt;6 -->
<g id="edge35" class="edge">
<title>5&#45;&gt;6</title>
<g id="a_edge35"><a xlink:title="usage">
<path fill="none" stroke="#1414ce" d="M379.7,-71.7C379.7,-63.98 379.7,-54.71 379.7,-46.11"/>
<polygon fill="#1414ce" stroke="#1414ce" points="383.2,-46.1 379.7,-36.1 376.2,-46.1 383.2,-46.1"/>
</a>
</g>
</g>
<!-- 11&#45;&gt;11 -->
<g id="edge36" class="edge">
<title>11&#45;&gt;11</title>
<g id="a_edge36"><a xlink:title="usage">
<path fill="none" stroke="#1414ce" d="M1209.06,-175.47C1218.98,-175.07 1226.7,-170.58 1226.7,-162 1226.7,-156.64 1223.69,-152.87 1219,-150.71"/>
<polygon fill="#1414ce" stroke="#1414ce" points="1219.58,-147.25 1209.06,-148.53 1218.08,-154.09 1219.58,-147.25"/>
</a>
</g>
</g>
</g>
</svg>
