<?xml version="1.0" encoding="UTF-8" standalone="no"?>
<!DOCTYPE svg PUBLIC "-//W3C//DTD SVG 1.1//EN"
 "http://www.w3.org/Graphics/SVG/1.1/DTD/svg11.dtd">
<!-- Generated by graphviz version 2.43.0 (0)
 -->
<!-- Title: %3 Pages: 1 -->
<svg width="1263pt" height="548pt"
 viewBox="0.00 0.00 1263.34 548.00" xmlns="http://www.w3.org/2000/svg" xmlns:xlink="http://www.w3.org/1999/xlink">
<g id="graph0" class="graph" transform="scale(1 1) rotate(0) translate(4 544)">
<title>%3</title>
<polygon fill="transparent" stroke="transparent" points="-4,4 -4,-544 1259.34,-544 1259.34,4 -4,4"/>
<!-- 1 -->
<g id="node1" class="node">
<title>1</title>
<g id="a_node1"><a xlink:title="GCBif">
<polygon fill="#bfbfbf" stroke="black" points="1066.5,-540 1007.5,-540 1007.5,-504 1066.5,-504 1066.5,-540"/>
<text text-anchor="middle" x="1037" y="-518.3" font-family="Times,serif" font-size="14.00">GCBif</text>
</a>
</g>
</g>
<!-- 3 -->
<g id="node14" class="node">
<title>3</title>
<g id="a_node14"><a xlink:title="Context">
<polygon fill="#ffffff" stroke="black" points="942.5,-468 869.5,-468 869.5,-432 942.5,-432 942.5,-468"/>
<text text-anchor="middle" x="906" y="-446.3" font-family="Times,serif" font-size="14.00">Context</text>
</a>
</g>
</g>
<!-- 1&#45;&gt;3 -->
<g id="edge2" class="edge">
<title>1&#45;&gt;3</title>
<g id="a_edge2"><a xlink:title="usage">
<path fill="none" stroke="#1414ce" d="M1007.27,-505.12C989.42,-495.57 966.45,-483.3 946.89,-472.85"/>
<polygon fill="#1414ce" stroke="#1414ce" points="948.37,-469.67 937.9,-468.04 945.07,-475.84 948.37,-469.67"/>
</a>
</g>
</g>
<!-- 2 -->
<g id="node20" class="node">
<title>2</title>
<g id="a_node20"><a xlink:title="ExportedFunction">
<polygon fill="#ffffff" stroke="black" points="1122,-252 976,-252 976,-216 1122,-216 1122,-252"/>
<text text-anchor="middle" x="1049" y="-230.3" font-family="Times,serif" font-size="14.00">ExportedFunction</text>
</a>
</g>
</g>
<!-- 1&#45;&gt;2 -->
<g id="edge1" class="edge">
<title>1&#45;&gt;2</title>
<g id="a_edge1"><a xlink:title="usage">
<path fill="none" stroke="#1414ce" d="M1066.66,-506.98C1137.59,-471.59 1306.32,-375.23 1240,-288 1226.42,-270.13 1177.1,-256.72 1131.98,-247.85"/>
<polygon fill="#1414ce" stroke="#1414ce" points="1132.61,-244.41 1122.13,-245.97 1131.3,-251.28 1132.61,-244.41"/>
</a>
</g>
</g>
<!-- 23 -->
<g id="node2" class="node">
<title>23</title>
<g id="a_node2"><a xlink:title="SpinLock">
<polygon fill="#ffffff" stroke="black" points="149,-324 67,-324 67,-288 149,-288 149,-324"/>
<text text-anchor="middle" x="108" y="-302.3" font-family="Times,serif" font-size="14.00">SpinLock</text>
</a>
</g>
</g>
<!-- 19 -->
<g id="node3" class="node">
<title>19</title>
<g id="a_node3"><a xlink:title="ResourceType">
<polygon fill="#ffffff" stroke="black" points="474.5,-180 357.5,-180 357.5,-144 474.5,-144 474.5,-180"/>
<text text-anchor="middle" x="416" y="-158.3" font-family="Times,serif" font-size="14.00">ResourceType</text>
</a>
</g>
</g>
<!-- 7 -->
<g id="node5" class="node">
<title>7</title>
<g id="a_node5"><a xlink:title="ListHead">
<polygon fill="#ffffff" stroke="black" points="570.5,-36 489.5,-36 489.5,0 570.5,0 570.5,-36"/>
<text text-anchor="middle" x="530" y="-14.3" font-family="Times,serif" font-size="14.00">ListHead</text>
</a>
</g>
</g>
<!-- 19&#45;&gt;7 -->
<g id="edge5" class="edge">
<title>19&#45;&gt;7</title>
<g id="a_edge5"><a xlink:title="usage">
<path fill="none" stroke="#1414ce" d="M429.75,-143.87C449.69,-119.03 486.77,-72.85 509.82,-44.14"/>
<polygon fill="#1414ce" stroke="#1414ce" points="512.67,-46.18 516.2,-36.19 507.21,-41.8 512.67,-46.18"/>
</a>
</g>
</g>
<!-- 12 -->
<g id="node8" class="node">
<title>12</title>
<g id="a_node8"><a xlink:title="GlobalContext">
<polygon fill="#ffffff" stroke="black" points="384.5,-396 265.5,-396 265.5,-360 384.5,-360 384.5,-396"/>
<text text-anchor="middle" x="325" y="-374.3" font-family="Times,serif" font-size="14.00">GlobalContext</text>
</a>
</g>
</g>
<!-- 19&#45;&gt;12 -->
<g id="edge4" class="edge">
<title>19&#45;&gt;12</title>
<g id="a_edge4"><a xlink:title="usage">
<path fill="none" stroke="#1414ce" d="M416.03,-180.2C415.28,-199.28 411.64,-230.24 397,-252 381.1,-275.63 359.9,-264.37 344,-288 331.7,-306.28 327.17,-331.04 325.58,-349.81"/>
<polygon fill="#1414ce" stroke="#1414ce" points="322.09,-349.61 324.97,-359.8 329.07,-350.04 322.09,-349.61"/>
</a>
</g>
</g>
<!-- 20 -->
<g id="node22" class="node">
<title>20</title>
<g id="a_node22"><a xlink:title="SyncList">
<polygon fill="#ffffff" stroke="black" points="437,-108 359,-108 359,-72 437,-72 437,-108"/>
<text text-anchor="middle" x="398" y="-86.3" font-family="Times,serif" font-size="14.00">SyncList</text>
</a>
</g>
</g>
<!-- 19&#45;&gt;20 -->
<g id="edge3" class="edge">
<title>19&#45;&gt;20</title>
<g id="a_edge3"><a xlink:title="usage">
<path fill="none" stroke="#1414ce" d="M411.55,-143.7C409.55,-135.9 407.13,-126.51 404.9,-117.83"/>
<polygon fill="#1414ce" stroke="#1414ce" points="408.28,-116.92 402.4,-108.1 401.5,-118.66 408.28,-116.92"/>
</a>
</g>
</g>
<!-- 8 -->
<g id="node4" class="node">
<title>8</title>
<g id="a_node4"><a xlink:title="Module">
<polygon fill="#ffffff" stroke="black" points="941,-324 871,-324 871,-288 941,-288 941,-324"/>
<text text-anchor="middle" x="906" y="-302.3" font-family="Times,serif" font-size="14.00">Module</text>
</a>
</g>
</g>
<!-- 8&#45;&gt;7 -->
<g id="edge8" class="edge">
<title>8&#45;&gt;7</title>
<g id="a_edge8"><a xlink:title="usage">
<path fill="none" stroke="#1414ce" d="M879.72,-287.98C867.44,-278.73 853.65,-266.28 845,-252 802.36,-181.66 861.37,-128.92 802,-72 770.99,-42.27 650.88,-28.23 581.07,-22.45"/>
<polygon fill="#1414ce" stroke="#1414ce" points="580.99,-18.93 570.74,-21.63 580.43,-25.91 580.99,-18.93"/>
</a>
</g>
</g>
<!-- 9 -->
<g id="node11" class="node">
<title>9</title>
<g id="a_node11"><a xlink:title="LiteralEntry">
<polygon fill="#ffffff" stroke="black" points="958,-252 854,-252 854,-216 958,-216 958,-252"/>
<text text-anchor="middle" x="906" y="-230.3" font-family="Times,serif" font-size="14.00">LiteralEntry</text>
</a>
</g>
</g>
<!-- 8&#45;&gt;9 -->
<g id="edge7" class="edge">
<title>8&#45;&gt;9</title>
<g id="a_edge7"><a xlink:title="usage">
<path fill="none" stroke="#1414ce" d="M906,-287.7C906,-279.98 906,-270.71 906,-262.11"/>
<polygon fill="#1414ce" stroke="#1414ce" points="909.5,-262.1 906,-252.1 902.5,-262.1 909.5,-262.1"/>
</a>
</g>
</g>
<!-- 8&#45;&gt;2 -->
<g id="edge6" class="edge">
<title>8&#45;&gt;2</title>
<g id="a_edge6"><a xlink:title="usage">
<path fill="none" stroke="#1414ce" d="M940.98,-287.88C960.2,-278.47 984.23,-266.71 1004.74,-256.67"/>
<polygon fill="#1414ce" stroke="#1414ce" points="1006.44,-259.73 1013.88,-252.19 1003.36,-253.44 1006.44,-259.73"/>
</a>
</g>
</g>
<!-- 7&#45;&gt;7 -->
<g id="edge9" class="edge">
<title>7&#45;&gt;7</title>
<g id="a_edge9"><a xlink:title="usage">
<path fill="none" stroke="#1414ce" d="M570.73,-31.31C580.9,-30.38 588.5,-25.95 588.5,-18 588.5,-12.91 585.38,-9.26 580.47,-7.05"/>
<polygon fill="#1414ce" stroke="#1414ce" points="581.28,-3.64 570.73,-4.69 579.63,-10.45 581.28,-3.64"/>
</a>
</g>
</g>
<!-- 11 -->
<g id="node6" class="node">
<title>11</title>
<g id="a_node6"><a xlink:title="HeapFragment">
<polygon fill="#ffffff" stroke="black" points="1212.5,-324 1087.5,-324 1087.5,-288 1212.5,-288 1212.5,-324"/>
<text text-anchor="middle" x="1150" y="-302.3" font-family="Times,serif" font-size="14.00">HeapFragment</text>
</a>
</g>
</g>
<!-- 11&#45;&gt;11 -->
<g id="edge10" class="edge">
<title>11&#45;&gt;11</title>
<g id="a_edge10"><a xlink:title="usage">
<path fill="none" stroke="#1414ce" d="M1212.78,-318.55C1223.26,-316.79 1230.5,-312.61 1230.5,-306 1230.5,-301.77 1227.53,-298.53 1222.64,-296.29"/>
<polygon fill="#1414ce" stroke="#1414ce" points="1223.36,-292.85 1212.78,-293.45 1221.42,-299.58 1223.36,-292.85"/>
</a>
</g>
</g>
<!-- 17 -->
<g id="node7" class="node">
<title>17</title>
<g id="a_node7"><a xlink:title="RefcBinaryQueueItem">
<polygon fill="#ffffff" stroke="black" points="527,-324 353,-324 353,-288 527,-288 527,-324"/>
<text text-anchor="middle" x="440" y="-302.3" font-family="Times,serif" font-size="14.00">RefcBinaryQueueItem</text>
</a>
</g>
</g>
<!-- 17&#45;&gt;17 -->
<g id="edge12" class="edge">
<title>17&#45;&gt;17</title>
<g id="a_edge12"><a xlink:title="usage">
<path fill="none" stroke="#1414ce" d="M527.3,-317.68C537.99,-315.59 545,-311.7 545,-306 545,-302.35 542.12,-299.44 537.25,-297.27"/>
<polygon fill="#1414ce" stroke="#1414ce" points="537.88,-293.81 527.3,-294.32 535.89,-300.52 537.88,-293.81"/>
</a>
</g>
</g>
<!-- 18 -->
<g id="node17" class="node">
<title>18</title>
<g id="a_node17"><a xlink:title="RefcBinary">
<polygon fill="#ffffff" stroke="black" points="539.5,-252 444.5,-252 444.5,-216 539.5,-216 539.5,-252"/>
<text text-anchor="middle" x="492" y="-230.3" font-family="Times,serif" font-size="14.00">RefcBinary</text>
</a>
</g>
</g>
<!-- 17&#45;&gt;18 -->
<g id="edge11" class="edge">
<title>17&#45;&gt;18</title>
<g id="a_edge11"><a xlink:title="usage">
<path fill="none" stroke="#1414ce" d="M452.85,-287.7C459.03,-279.39 466.54,-269.28 473.32,-260.14"/>
<polygon fill="#1414ce" stroke="#1414ce" points="476.14,-262.22 479.29,-252.1 470.52,-258.04 476.14,-262.22"/>
</a>
</g>
</g>
<!-- 12&#45;&gt;23 -->
<g id="edge20" class="edge">
<title>12&#45;&gt;23</title>
<g id="a_edge20"><a xlink:title="usage">
<path fill="none" stroke="#1414ce" d="M272.19,-359.97C237.71,-348.84 192.93,-334.4 158.85,-323.4"/>
<polygon fill="#1414ce" stroke="#1414ce" points="159.68,-319.99 149.09,-320.25 157.53,-326.65 159.68,-319.99"/>
</a>
</g>
</g>
<!-- 12&#45;&gt;8 -->
<g id="edge17" class="edge">
<title>12&#45;&gt;8</title>
<g id="a_edge17"><a xlink:title="usage">
<path fill="none" stroke="#1414ce" d="M384.74,-370.64C472.69,-361.16 642.17,-342.45 786,-324 810.79,-320.82 838.42,-316.93 860.91,-313.67"/>
<polygon fill="#1414ce" stroke="#1414ce" points="861.46,-317.13 870.85,-312.23 860.45,-310.2 861.46,-317.13"/>
</a>
</g>
</g>
<!-- 12&#45;&gt;7 -->
<g id="edge21" class="edge">
<title>12&#45;&gt;7</title>
<g id="a_edge21"><a xlink:title="usage">
<path fill="none" stroke="#1414ce" d="M265.38,-372.88C191,-366.61 69.39,-352.29 35,-324 2.18,-297 0,-277.5 0,-235 0,-235 0,-235 0,-161 0,-62.46 346.18,-30.45 478.98,-21.79"/>
<polygon fill="#1414ce" stroke="#1414ce" points="479.53,-25.26 489.29,-21.14 479.09,-18.28 479.53,-25.26"/>
</a>
</g>
</g>
<!-- 12&#45;&gt;17 -->
<g id="edge15" class="edge">
<title>12&#45;&gt;17</title>
<g id="a_edge15"><a xlink:title="usage">
<path fill="none" stroke="#1414ce" d="M353.13,-359.88C368.17,-350.72 386.87,-339.34 403.06,-329.48"/>
<polygon fill="#1414ce" stroke="#1414ce" points="405.04,-332.38 411.76,-324.19 401.4,-326.4 405.04,-332.38"/>
</a>
</g>
</g>
<!-- 22 -->
<g id="node10" class="node">
<title>22</title>
<g id="a_node10"><a xlink:title="TimerList">
<polygon fill="#ffffff" stroke="black" points="617,-180 531,-180 531,-144 617,-144 617,-180"/>
<text text-anchor="middle" x="574" y="-158.3" font-family="Times,serif" font-size="14.00">TimerList</text>
</a>
</g>
</g>
<!-- 12&#45;&gt;22 -->
<g id="edge19" class="edge">
<title>12&#45;&gt;22</title>
<g id="a_edge19"><a xlink:title="usage">
<path fill="none" stroke="#1414ce" d="M384.62,-370.91C444.72,-363.48 531.7,-348.74 554,-324 586.98,-287.4 584.23,-225.66 579.18,-190.21"/>
<polygon fill="#1414ce" stroke="#1414ce" points="582.6,-189.44 577.57,-180.12 575.69,-190.54 582.6,-189.44"/>
</a>
</g>
</g>
<!-- 13 -->
<g id="node15" class="node">
<title>13</title>
<g id="a_node15"><a xlink:title="MessageQueueItem">
<polygon fill="#ffffff" stroke="black" points="759,-324 601,-324 601,-288 759,-288 759,-324"/>
<text text-anchor="middle" x="680" y="-302.3" font-family="Times,serif" font-size="14.00">MessageQueueItem</text>
</a>
</g>
</g>
<!-- 12&#45;&gt;13 -->
<g id="edge13" class="edge">
<title>12&#45;&gt;13</title>
<g id="a_edge13"><a xlink:title="usage">
<path fill="none" stroke="#1414ce" d="M384.82,-365.2C441.18,-354.09 526.36,-337.29 590.75,-324.6"/>
<polygon fill="#1414ce" stroke="#1414ce" points="591.77,-327.97 600.9,-322.6 590.41,-321.1 591.77,-327.97"/>
</a>
</g>
</g>
<!-- 21 -->
<g id="node16" class="node">
<title>21</title>
<g id="a_node16"><a xlink:title="AtomsHashTable">
<polygon fill="#ffffff" stroke="black" points="203.5,-252 66.5,-252 66.5,-216 203.5,-216 203.5,-252"/>
<text text-anchor="middle" x="135" y="-230.3" font-family="Times,serif" font-size="14.00">AtomsHashTable</text>
</a>
</g>
</g>
<!-- 12&#45;&gt;21 -->
<g id="edge18" class="edge">
<title>12&#45;&gt;21</title>
<g id="a_edge18"><a xlink:title="usage">
<path fill="none" stroke="#1414ce" d="M265.24,-360.59C241.99,-352.22 216.15,-340.29 196,-324 174.97,-307 158.26,-280.87 147.68,-261.31"/>
<polygon fill="#1414ce" stroke="#1414ce" points="150.72,-259.56 142.99,-252.31 144.51,-262.79 150.72,-259.56"/>
</a>
</g>
</g>
<!-- 14 -->
<g id="node19" class="node">
<title>14</title>
<g id="a_node19"><a xlink:title="AtomTable">
<polygon fill="#ffffff" stroke="black" points="297,-324 205,-324 205,-288 297,-288 297,-324"/>
<text text-anchor="middle" x="251" y="-302.3" font-family="Times,serif" font-size="14.00">AtomTable</text>
</a>
</g>
</g>
<!-- 12&#45;&gt;14 -->
<g id="edge14" class="edge">
<title>12&#45;&gt;14</title>
<g id="a_edge14"><a xlink:title="usage">
<path fill="none" stroke="#1414ce" d="M306.71,-359.7C297.57,-351.05 286.36,-340.45 276.4,-331.03"/>
<polygon fill="#1414ce" stroke="#1414ce" points="278.75,-328.43 269.08,-324.1 273.94,-333.52 278.75,-328.43"/>
</a>
</g>
</g>
<!-- 12&#45;&gt;20 -->
<g id="edge16" class="edge">
<title>12&#45;&gt;20</title>
<g id="a_edge16"><a xlink:title="usage">
<path fill="none" stroke="#1414ce" d="M265.41,-373.67C194.95,-368.34 83.93,-355.14 58,-324 27.28,-287.11 32.43,-257.24 57,-216 117,-115.3 269.68,-94.93 348.8,-91.33"/>
<polygon fill="#1414ce" stroke="#1414ce" points="349.13,-94.82 358.99,-90.94 348.87,-87.83 349.13,-94.82"/>
</a>
</g>
</g>
<!-- 16 -->
<g id="node9" class="node">
<title>16</title>
<g id="a_node9"><a xlink:title="HNodeGroup">
<polygon fill="#ffffff" stroke="black" points="370,-252 260,-252 260,-216 370,-216 370,-252"/>
<text text-anchor="middle" x="315" y="-230.3" font-family="Times,serif" font-size="14.00">HNodeGroup</text>
</a>
</g>
</g>
<!-- 16&#45;&gt;16 -->
<g id="edge23" class="edge">
<title>16&#45;&gt;16</title>
<g id="a_edge23"><a xlink:title="usage">
<path fill="none" stroke="#1414ce" d="M370.07,-246.85C380.57,-245.32 388,-241.03 388,-234 388,-229.5 384.95,-226.12 380,-223.87"/>
<polygon fill="#1414ce" stroke="#1414ce" points="380.64,-220.42 370.07,-221.15 378.79,-227.17 380.64,-220.42"/>
</a>
</g>
</g>
<!-- 15 -->
<g id="node23" class="node">
<title>15</title>
<g id="a_node23"><a xlink:title="HNode">
<polygon fill="#ffffff" stroke="black" points="265,-180 199,-180 199,-144 265,-144 265,-180"/>
<text text-anchor="middle" x="232" y="-158.3" font-family="Times,serif" font-size="14.00">HNode</text>
</a>
</g>
</g>
<!-- 16&#45;&gt;15 -->
<g id="edge22" class="edge">
<title>16&#45;&gt;15</title>
<g id="a_edge22"><a xlink:title="usage">
<path fill="none" stroke="#1414ce" d="M294.48,-215.7C284.13,-206.97 271.41,-196.24 260.16,-186.75"/>
<polygon fill="#1414ce" stroke="#1414ce" points="262.18,-183.88 252.28,-180.1 257.67,-189.23 262.18,-183.88"/>
</a>
</g>
</g>
<!-- 22&#45;&gt;7 -->
<g id="edge24" class="edge">
<title>22&#45;&gt;7</title>
<g id="a_edge24"><a xlink:title="usage">
<path fill="none" stroke="#1414ce" d="M568.69,-143.87C561.16,-119.56 547.3,-74.82 538.37,-46.01"/>
<polygon fill="#1414ce" stroke="#1414ce" points="541.63,-44.71 535.33,-36.19 534.94,-46.78 541.63,-44.71"/>
</a>
</g>
</g>
<!-- 5 -->
<g id="node12" class="node">
<title>5</title>
<g id="a_node12"><a xlink:title="MailboxMessage">
<polygon fill="#ffffff" stroke="black" points="741.5,-252 604.5,-252 604.5,-216 741.5,-216 741.5,-252"/>
<text text-anchor="middle" x="673" y="-230.3" font-family="Times,serif" font-size="14.00">MailboxMessage</text>
</a>
</g>
</g>
<!-- 5&#45;&gt;5 -->
<g id="edge25" class="edge">
<title>5&#45;&gt;5</title>
<g id="a_edge25"><a xlink:title="usage">
<path fill="none" stroke="#1414ce" d="M741.53,-246.37C752.21,-244.52 759.5,-240.4 759.5,-234 759.5,-229.8 756.36,-226.58 751.18,-224.34"/>
<polygon fill="#1414ce" stroke="#1414ce" points="752.1,-220.96 741.53,-221.63 750.21,-227.7 752.1,-220.96"/>
</a>
</g>
</g>
<!-- 10 -->
<g id="node13" class="node">
<title>10</title>
<g id="a_node13"><a xlink:title="Heap">
<polygon fill="#ffffff" stroke="black" points="1159,-396 1105,-396 1105,-360 1159,-360 1159,-396"/>
<text text-anchor="middle" x="1132" y="-374.3" font-family="Times,serif" font-size="14.00">Heap</text>
</a>
</g>
</g>
<!-- 10&#45;&gt;11 -->
<g id="edge26" class="edge">
<title>10&#45;&gt;11</title>
<g id="a_edge26"><a xlink:title="usage">
<path fill="none" stroke="#1414ce" d="M1136.45,-359.7C1138.45,-351.9 1140.87,-342.51 1143.1,-333.83"/>
<polygon fill="#1414ce" stroke="#1414ce" points="1146.5,-334.66 1145.6,-324.1 1139.72,-332.92 1146.5,-334.66"/>
</a>
</g>
</g>
<!-- 3&#45;&gt;8 -->
<g id="edge30" class="edge">
<title>3&#45;&gt;8</title>
<g id="a_edge30"><a xlink:title="usage">
<path fill="none" stroke="#1414ce" d="M906,-431.87C906,-407.67 906,-363.21 906,-334.39"/>
<polygon fill="#1414ce" stroke="#1414ce" points="909.5,-334.19 906,-324.19 902.5,-334.19 909.5,-334.19"/>
</a>
</g>
</g>
<!-- 3&#45;&gt;7 -->
<g id="edge33" class="edge">
<title>3&#45;&gt;7</title>
<g id="a_edge33"><a xlink:title="usage">
<path fill="none" stroke="#1414ce" d="M898.4,-431.91C879.95,-391.53 829.69,-288.2 768,-216 705.55,-142.91 613.88,-75.59 564.52,-41.8"/>
<polygon fill="#1414ce" stroke="#1414ce" points="566.34,-38.8 556.1,-36.08 562.41,-44.6 566.34,-38.8"/>
</a>
</g>
</g>
<!-- 3&#45;&gt;12 -->
<g id="edge32" class="edge">
<title>3&#45;&gt;12</title>
<g id="a_edge32"><a xlink:title="usage">
<path fill="none" stroke="#1414ce" d="M869.22,-444.57C774.11,-433.11 518.85,-402.36 394.71,-387.4"/>
<polygon fill="#1414ce" stroke="#1414ce" points="394.9,-383.9 384.56,-386.18 394.07,-390.85 394.9,-383.9"/>
</a>
</g>
</g>
<!-- 3&#45;&gt;10 -->
<g id="edge31" class="edge">
<title>3&#45;&gt;10</title>
<g id="a_edge31"><a xlink:title="usage">
<path fill="none" stroke="#1414ce" d="M942.56,-437.68C984.54,-424.67 1053.03,-403.46 1095.14,-390.42"/>
<polygon fill="#1414ce" stroke="#1414ce" points="1096.21,-393.75 1104.73,-387.45 1094.14,-387.06 1096.21,-393.75"/>
</a>
</g>
</g>
<!-- 3&#45;&gt;3 -->
<g id="edge27" class="edge">
<title>3&#45;&gt;3</title>
<g id="a_edge27"><a xlink:title="usage">
<path fill="none" stroke="#1414ce" d="M942.68,-463.42C952.78,-462.77 960.5,-458.3 960.5,-450 960.5,-444.81 957.48,-441.12 952.76,-438.93"/>
<polygon fill="#1414ce" stroke="#1414ce" points="953.21,-435.44 942.68,-436.58 951.63,-442.26 953.21,-435.44"/>
</a>
</g>
</g>
<!-- 4 -->
<g id="node18" class="node">
<title>4</title>
<g id="a_node18"><a xlink:title="Mailbox">
<polygon fill="#ffffff" stroke="black" points="815,-396 741,-396 741,-360 815,-360 815,-396"/>
<text text-anchor="middle" x="778" y="-374.3" font-family="Times,serif" font-size="14.00">Mailbox</text>
</a>
</g>
</g>
<!-- 3&#45;&gt;4 -->
<g id="edge28" class="edge">
<title>3&#45;&gt;4</title>
<g id="a_edge28"><a xlink:title="usage">
<path fill="none" stroke="#1414ce" d="M874.69,-431.88C857.8,-422.64 836.75,-411.13 818.62,-401.21"/>
<polygon fill="#1414ce" stroke="#1414ce" points="819.89,-397.92 809.43,-396.19 816.53,-404.06 819.89,-397.92"/>
</a>
</g>
</g>
<!-- 6 -->
<g id="node21" class="node">
<title>6</title>
<g id="a_node21"><a xlink:title="TimerListItem">
<polygon fill="#ffffff" stroke="black" points="1091.5,-108 972.5,-108 972.5,-72 1091.5,-72 1091.5,-108"/>
<text text-anchor="middle" x="1032" y="-86.3" font-family="Times,serif" font-size="14.00">TimerListItem</text>
</a>
</g>
</g>
<!-- 3&#45;&gt;6 -->
<g id="edge29" class="edge">
<title>3&#45;&gt;6</title>
<g id="a_edge29"><a xlink:title="usage">
<path fill="none" stroke="#1414ce" d="M922.93,-431.68C953.08,-401.2 1018.58,-336.61 1079,-288 1100.9,-270.38 1117.95,-276.9 1131,-252 1157.4,-201.61 1102.63,-145.62 1064.52,-114.73"/>
<polygon fill="#1414ce" stroke="#1414ce" points="1066.23,-111.62 1056.21,-108.17 1061.89,-117.11 1066.23,-111.62"/>
</a>
</g>
</g>
<!-- 13&#45;&gt;5 -->
<g id="edge34" class="edge">
<title>13&#45;&gt;5</title>
<g id="a_edge34"><a xlink:title="usage">
<path fill="none" stroke="#1414ce" d="M678.27,-287.7C677.5,-279.98 676.57,-270.71 675.71,-262.11"/>
<polygon fill="#1414ce" stroke="#1414ce" points="679.19,-261.71 674.71,-252.1 672.22,-262.4 679.19,-261.71"/>
</a>
</g>
</g>
<!-- 13&#45;&gt;13 -->
<g id="edge35" class="edge">
<title>13&#45;&gt;13</title>
<g id="a_edge35"><a xlink:title="usage">
<path fill="none" stroke="#1414ce" d="M759.16,-317.98C769.87,-315.97 777,-311.98 777,-306 777,-302.08 773.93,-299.01 768.79,-296.8"/>
<polygon fill="#1414ce" stroke="#1414ce" points="769.74,-293.43 759.16,-294.02 767.8,-300.15 769.74,-293.43"/>
</a>
</g>
</g>
<!-- 21&#45;&gt;15 -->
<g id="edge36" class="edge">
<title>21&#45;&gt;15</title>
<g id="a_edge36"><a xlink:title="usage">
<path fill="none" stroke="#1414ce" d="M158.98,-215.7C171.31,-206.8 186.52,-195.82 199.85,-186.2"/>
<polygon fill="#1414ce" stroke="#1414ce" points="202.24,-188.79 208.3,-180.1 198.14,-183.12 202.24,-188.79"/>
</a>
</g>
</g>
<!-- 18&#45;&gt;19 -->
<g id="edge37" class="edge">
<title>18&#45;&gt;19</title>
<g id="a_edge37"><a xlink:title="usage">
<path fill="none" stroke="#1414ce" d="M473.21,-215.7C463.83,-207.05 452.32,-196.45 442.09,-187.03"/>
<polygon fill="#1414ce" stroke="#1414ce" points="444.3,-184.3 434.57,-180.1 439.55,-189.45 444.3,-184.3"/>
</a>
</g>
</g>
<!-- 18&#45;&gt;7 -->
<g id="edge38" class="edge">
<title>18&#45;&gt;7</title>
<g id="a_edge38"><a xlink:title="usage">
<path fill="none" stroke="#1414ce" d="M495.05,-215.85C501.63,-178.75 517.25,-90.81 525.19,-46.1"/>
<polygon fill="#1414ce" stroke="#1414ce" points="528.64,-46.69 526.94,-36.23 521.75,-45.47 528.64,-46.69"/>
</a>
</g>
</g>
<!-- 4&#45;&gt;5 -->
<g id="edge39" class="edge">
<title>4&#45;&gt;5</title>
<g id="a_edge39"><a xlink:title="usage">
<path fill="none" stroke="#1414ce" d="M785.39,-359.79C792.35,-340.7 799.81,-309.74 786,-288 777.29,-274.29 763.99,-264.07 749.55,-256.47"/>
<polygon fill="#1414ce" stroke="#1414ce" points="750.96,-253.26 740.43,-252.06 747.91,-259.56 750.96,-253.26"/>
</a>
</g>
</g>
<!-- 14&#45;&gt;16 -->
<g id="edge41" class="edge">
<title>14&#45;&gt;16</title>
<g id="a_edge41"><a xlink:title="usage">
<path fill="none" stroke="#1414ce" d="M266.82,-287.7C274.57,-279.22 284.04,-268.86 292.52,-259.58"/>
<polygon fill="#1414ce" stroke="#1414ce" points="295.2,-261.85 299.36,-252.1 290.03,-257.12 295.2,-261.85"/>
</a>
</g>
</g>
<!-- 14&#45;&gt;15 -->
<g id="edge40" class="edge">
<title>14&#45;&gt;15</title>
<g id="a_edge40"><a xlink:title="usage">
<path fill="none" stroke="#1414ce" d="M248.71,-287.87C245.47,-263.67 239.52,-219.21 235.67,-190.39"/>
<polygon fill="#1414ce" stroke="#1414ce" points="239.1,-189.64 234.3,-180.19 232.16,-190.57 239.1,-189.64"/>
</a>
</g>
</g>
<!-- 6&#45;&gt;7 -->
<g id="edge42" class="edge">
<title>6&#45;&gt;7</title>
<g id="a_edge42"><a xlink:title="usage">
<path fill="none" stroke="#1414ce" d="M972.44,-80.7C872.81,-66.8 674.1,-39.09 580.71,-26.07"/>
<polygon fill="#1414ce" stroke="#1414ce" points="581.05,-22.58 570.66,-24.67 580.08,-29.52 581.05,-22.58"/>
</a>
</g>
</g>
<!-- 20&#45;&gt;7 -->
<g id="edge43" class="edge">
<title>20&#45;&gt;7</title>
<g id="a_edge43"><a xlink:title="usage">
<path fill="none" stroke="#1414ce" d="M430.29,-71.88C447.87,-62.55 469.81,-50.92 488.63,-40.94"/>
<polygon fill="#1414ce" stroke="#1414ce" points="490.39,-43.97 497.59,-36.19 487.11,-37.78 490.39,-43.97"/>
</a>
</g>
</g>
<!-- 15&#45;&gt;15 -->
<g id="edge44" class="edge">
<title>15&#45;&gt;15</title>
<g id="a_edge44"><a xlink:title="usage">
<path fill="none" stroke="#1414ce" d="M265.35,-175.47C275.28,-175.07 283,-170.58 283,-162 283,-156.64 279.98,-152.87 275.3,-150.71"/>
<polygon fill="#1414ce" stroke="#1414ce" points="275.87,-147.25 265.35,-148.53 274.37,-154.09 275.87,-147.25"/>
</a>
</g>
</g>
</g>
</svg>
