<?xml version="1.0" encoding="UTF-8" standalone="no"?>
<!DOCTYPE svg PUBLIC "-//W3C//DTD SVG 1.1//EN"
 "http://www.w3.org/Graphics/SVG/1.1/DTD/svg11.dtd">
<!-- Generated by graphviz version 2.43.0 (0)
 -->
<!-- Title: %3 Pages: 1 -->
<svg width="1228pt" height="404pt"
 viewBox="0.00 0.00 1227.50 404.00" xmlns="http://www.w3.org/2000/svg" xmlns:xlink="http://www.w3.org/1999/xlink">
<g id="graph0" class="graph" transform="scale(1 1) rotate(0) translate(4 400)">
<title>%3</title>
<polygon fill="transparent" stroke="transparent" points="-4,4 -4,-400 1223.5,-400 1223.5,4 -4,4"/>
<!-- 18 -->
<g id="node1" class="node">
<title>18</title>
<g id="a_node1"><a xlink:title="SpinLock">
<polygon fill="#ffffff" stroke="black" points="82,-324 0,-324 0,-288 82,-288 82,-324"/>
<text text-anchor="middle" x="41" y="-302.3" font-family="Times,serif" font-size="14.00">SpinLock</text>
</a>
</g>
</g>
<!-- 2 -->
<g id="node2" class="node">
<title>2</title>
<g id="a_node2"><a xlink:title="ResourceType">
<polygon fill="#ffffff" stroke="black" points="320.5,-180 203.5,-180 203.5,-144 320.5,-144 320.5,-180"/>
<text text-anchor="middle" x="262" y="-158.3" font-family="Times,serif" font-size="14.00">ResourceType</text>
</a>
</g>
</g>
<!-- 4 -->
<g id="node4" class="node">
<title>4</title>
<g id="a_node4"><a xlink:title="ListHead">
<polygon fill="#ffffff" stroke="black" points="402.5,-36 321.5,-36 321.5,0 402.5,0 402.5,-36"/>
<text text-anchor="middle" x="362" y="-14.3" font-family="Times,serif" font-size="14.00">ListHead</text>
</a>
</g>
</g>
<!-- 2&#45;&gt;4 -->
<g id="edge3" class="edge">
<title>2&#45;&gt;4</title>
<g id="a_edge3"><a xlink:title="usage">
<path fill="none" stroke="#1414ce" d="M261.9,-143.76C262.59,-124.63 266.17,-93.63 281,-72 289.49,-59.61 301.93,-49.41 314.52,-41.39"/>
<polygon fill="#1414ce" stroke="#1414ce" points="316.43,-44.32 323.21,-36.17 312.83,-38.31 316.43,-44.32"/>
</a>
</g>
</g>
<!-- 5 -->
<g id="node6" class="node">
<title>5</title>
<g id="a_node6"><a xlink:title="GlobalContext">
<polygon fill="#ffffff" stroke="black" points="474.5,-396 355.5,-396 355.5,-360 474.5,-360 474.5,-396"/>
<text text-anchor="middle" x="415" y="-374.3" font-family="Times,serif" font-size="14.00">GlobalContext</text>
</a>
</g>
</g>
<!-- 2&#45;&gt;5 -->
<g id="edge2" class="edge">
<title>2&#45;&gt;5</title>
<g id="a_edge2"><a xlink:title="usage">
<path fill="none" stroke="#1414ce" d="M276.11,-180.46C283.79,-190.48 293.1,-203.51 300,-216 325.05,-261.37 312.29,-283 344,-324 352.93,-335.55 365.01,-345.83 376.66,-354.18"/>
<polygon fill="#1414ce" stroke="#1414ce" points="374.8,-357.15 385.03,-359.92 378.76,-351.38 374.8,-357.15"/>
</a>
</g>
</g>
<!-- 3 -->
<g id="node17" class="node">
<title>3</title>
<g id="a_node17"><a xlink:title="SyncList">
<polygon fill="#ffffff" stroke="black" points="368,-108 290,-108 290,-72 368,-72 368,-108"/>
<text text-anchor="middle" x="329" y="-86.3" font-family="Times,serif" font-size="14.00">SyncList</text>
</a>
</g>
</g>
<!-- 2&#45;&gt;3 -->
<g id="edge1" class="edge">
<title>2&#45;&gt;3</title>
<g id="a_edge1"><a xlink:title="usage">
<path fill="none" stroke="#1414ce" d="M278.56,-143.7C286.68,-135.22 296.59,-124.86 305.47,-115.58"/>
<polygon fill="#1414ce" stroke="#1414ce" points="308.24,-117.75 312.63,-108.1 303.19,-112.91 308.24,-117.75"/>
</a>
</g>
</g>
<!-- 13 -->
<g id="node3" class="node">
<title>13</title>
<g id="a_node3"><a xlink:title="Module">
<polygon fill="#ffffff" stroke="black" points="601,-324 531,-324 531,-288 601,-288 601,-324"/>
<text text-anchor="middle" x="566" y="-302.3" font-family="Times,serif" font-size="14.00">Module</text>
</a>
</g>
</g>
<!-- 13&#45;&gt;4 -->
<g id="edge6" class="edge">
<title>13&#45;&gt;4</title>
<g id="a_edge6"><a xlink:title="usage">
<path fill="none" stroke="#1414ce" d="M601.31,-299.22C646.96,-290.94 722.56,-274.23 739,-252 748.51,-239.14 746.61,-230.07 739,-216 672.7,-93.37 499.18,-44.47 412.62,-27.25"/>
<polygon fill="#1414ce" stroke="#1414ce" points="413.24,-23.8 402.76,-25.35 411.92,-30.68 413.24,-23.8"/>
</a>
</g>
</g>
<!-- 15 -->
<g id="node9" class="node">
<title>15</title>
<g id="a_node9"><a xlink:title="LiteralEntry">
<polygon fill="#ffffff" stroke="black" points="566,-252 462,-252 462,-216 566,-216 566,-252"/>
<text text-anchor="middle" x="514" y="-230.3" font-family="Times,serif" font-size="14.00">LiteralEntry</text>
</a>
</g>
</g>
<!-- 13&#45;&gt;15 -->
<g id="edge5" class="edge">
<title>13&#45;&gt;15</title>
<g id="a_edge5"><a xlink:title="usage">
<path fill="none" stroke="#1414ce" d="M553.15,-287.7C546.97,-279.39 539.46,-269.28 532.68,-260.14"/>
<polygon fill="#1414ce" stroke="#1414ce" points="535.48,-258.04 526.71,-252.1 529.86,-262.22 535.48,-258.04"/>
</a>
</g>
</g>
<!-- 14 -->
<g id="node16" class="node">
<title>14</title>
<g id="a_node16"><a xlink:title="ExportedFunction">
<polygon fill="#ffffff" stroke="black" points="730,-252 584,-252 584,-216 730,-216 730,-252"/>
<text text-anchor="middle" x="657" y="-230.3" font-family="Times,serif" font-size="14.00">ExportedFunction</text>
</a>
</g>
</g>
<!-- 13&#45;&gt;14 -->
<g id="edge4" class="edge">
<title>13&#45;&gt;14</title>
<g id="a_edge4"><a xlink:title="usage">
<path fill="none" stroke="#1414ce" d="M588.49,-287.7C599.96,-278.88 614.06,-268.03 626.48,-258.47"/>
<polygon fill="#1414ce" stroke="#1414ce" points="628.97,-260.98 634.76,-252.1 624.7,-255.43 628.97,-260.98"/>
</a>
</g>
</g>
<!-- 4&#45;&gt;4 -->
<g id="edge7" class="edge">
<title>4&#45;&gt;4</title>
<g id="a_edge7"><a xlink:title="usage">
<path fill="none" stroke="#1414ce" d="M402.73,-31.31C412.9,-30.38 420.5,-25.95 420.5,-18 420.5,-12.91 417.38,-9.26 412.47,-7.05"/>
<polygon fill="#1414ce" stroke="#1414ce" points="413.28,-3.64 402.73,-4.69 411.63,-10.45 413.28,-3.64"/>
</a>
</g>
</g>
<!-- 11 -->
<g id="node5" class="node">
<title>11</title>
<g id="a_node5"><a xlink:title="RefcBinaryQueueItem">
<polygon fill="#ffffff" stroke="black" points="274,-324 100,-324 100,-288 274,-288 274,-324"/>
<text text-anchor="middle" x="187" y="-302.3" font-family="Times,serif" font-size="14.00">RefcBinaryQueueItem</text>
</a>
</g>
</g>
<!-- 11&#45;&gt;11 -->
<g id="edge9" class="edge">
<title>11&#45;&gt;11</title>
<g id="a_edge9"><a xlink:title="usage">
<path fill="none" stroke="#1414ce" d="M274.3,-317.68C284.99,-315.59 292,-311.7 292,-306 292,-302.35 289.12,-299.44 284.25,-297.27"/>
<polygon fill="#1414ce" stroke="#1414ce" points="284.88,-293.81 274.3,-294.32 282.89,-300.52 284.88,-293.81"/>
</a>
</g>
</g>
<!-- 12 -->
<g id="node13" class="node">
<title>12</title>
<g id="a_node13"><a xlink:title="RefcBinary">
<polygon fill="#ffffff" stroke="black" points="156.5,-252 61.5,-252 61.5,-216 156.5,-216 156.5,-252"/>
<text text-anchor="middle" x="109" y="-230.3" font-family="Times,serif" font-size="14.00">RefcBinary</text>
</a>
</g>
</g>
<!-- 11&#45;&gt;12 -->
<g id="edge8" class="edge">
<title>11&#45;&gt;12</title>
<g id="a_edge8"><a xlink:title="usage">
<path fill="none" stroke="#1414ce" d="M167.72,-287.7C158.08,-279.05 146.27,-268.45 135.77,-259.03"/>
<polygon fill="#1414ce" stroke="#1414ce" points="137.84,-256.18 128.06,-252.1 133.16,-261.39 137.84,-256.18"/>
</a>
</g>
</g>
<!-- 5&#45;&gt;18 -->
<g id="edge17" class="edge">
<title>5&#45;&gt;18</title>
<g id="a_edge17"><a xlink:title="usage">
<path fill="none" stroke="#1414ce" d="M355.28,-370.24C291.98,-362.41 189.08,-347.75 92.02,-324.03"/>
<polygon fill="#1414ce" stroke="#1414ce" points="92.59,-320.57 82.04,-321.56 90.9,-327.36 92.59,-320.57"/>
</a>
</g>
</g>
<!-- 5&#45;&gt;13 -->
<g id="edge14" class="edge">
<title>5&#45;&gt;13</title>
<g id="a_edge14"><a xlink:title="usage">
<path fill="none" stroke="#1414ce" d="M451.94,-359.88C473.02,-350.1 499.6,-337.78 521.79,-327.5"/>
<polygon fill="#1414ce" stroke="#1414ce" points="523.4,-330.61 531,-323.23 520.45,-324.26 523.4,-330.61"/>
</a>
</g>
</g>
<!-- 5&#45;&gt;4 -->
<g id="edge18" class="edge">
<title>5&#45;&gt;4</title>
<g id="a_edge18"><a xlink:title="usage">
<path fill="none" stroke="#1414ce" d="M411.16,-359.61C405.6,-332.94 396,-280.27 396,-235 396,-235 396,-235 396,-161 396,-119.91 382.37,-73.92 372.37,-45.72"/>
<polygon fill="#1414ce" stroke="#1414ce" points="375.6,-44.36 368.88,-36.17 369.03,-46.76 375.6,-44.36"/>
</a>
</g>
</g>
<!-- 5&#45;&gt;11 -->
<g id="edge12" class="edge">
<title>5&#45;&gt;11</title>
<g id="a_edge12"><a xlink:title="usage">
<path fill="none" stroke="#1414ce" d="M359.52,-359.97C327.24,-350.06 286.39,-337.51 252.54,-327.12"/>
<polygon fill="#1414ce" stroke="#1414ce" points="253.32,-323.7 242.73,-324.11 251.26,-330.39 253.32,-323.7"/>
</a>
</g>
</g>
<!-- 17 -->
<g id="node8" class="node">
<title>17</title>
<g id="a_node8"><a xlink:title="TimerList">
<polygon fill="#ffffff" stroke="black" points="510,-108 424,-108 424,-72 510,-72 510,-108"/>
<text text-anchor="middle" x="467" y="-86.3" font-family="Times,serif" font-size="14.00">TimerList</text>
</a>
</g>
</g>
<!-- 5&#45;&gt;17 -->
<g id="edge16" class="edge">
<title>5&#45;&gt;17</title>
<g id="a_edge16"><a xlink:title="usage">
<path fill="none" stroke="#1414ce" d="M418.1,-359.97C426.78,-312.19 451.43,-176.62 462.04,-118.27"/>
<polygon fill="#1414ce" stroke="#1414ce" points="465.51,-118.77 463.85,-108.31 458.62,-117.52 465.51,-118.77"/>
</a>
</g>
</g>
<!-- 6 -->
<g id="node11" class="node">
<title>6</title>
<g id="a_node11"><a xlink:title="MessageQueueItem">
<polygon fill="#ffffff" stroke="black" points="829,-324 671,-324 671,-288 829,-288 829,-324"/>
<text text-anchor="middle" x="750" y="-302.3" font-family="Times,serif" font-size="14.00">MessageQueueItem</text>
</a>
</g>
</g>
<!-- 5&#45;&gt;6 -->
<g id="edge10" class="edge">
<title>5&#45;&gt;6</title>
<g id="a_edge10"><a xlink:title="usage">
<path fill="none" stroke="#1414ce" d="M474.51,-364.57C526.23,-353.76 601.9,-337.95 660.85,-325.63"/>
<polygon fill="#1414ce" stroke="#1414ce" points="661.83,-329 670.91,-323.53 660.4,-322.15 661.83,-329"/>
</a>
</g>
</g>
<!-- 16 -->
<g id="node12" class="node">
<title>16</title>
<g id="a_node12"><a xlink:title="AtomsHashTable">
<polygon fill="#ffffff" stroke="black" points="1219.5,-324 1082.5,-324 1082.5,-288 1219.5,-288 1219.5,-324"/>
<text text-anchor="middle" x="1151" y="-302.3" font-family="Times,serif" font-size="14.00">AtomsHashTable</text>
</a>
</g>
</g>
<!-- 5&#45;&gt;16 -->
<g id="edge15" class="edge">
<title>5&#45;&gt;16</title>
<g id="a_edge15"><a xlink:title="usage">
<path fill="none" stroke="#1414ce" d="M474.89,-374.68C590.46,-369.66 852.09,-355.56 1070,-324 1070.75,-323.89 1071.5,-323.78 1072.25,-323.67"/>
<polygon fill="#1414ce" stroke="#1414ce" points="1072.86,-327.11 1082.17,-322.06 1071.74,-320.2 1072.86,-327.11"/>
</a>
</g>
</g>
<!-- 8 -->
<g id="node15" class="node">
<title>8</title>
<g id="a_node15"><a xlink:title="AtomTable">
<polygon fill="#ffffff" stroke="black" points="1061,-324 969,-324 969,-288 1061,-288 1061,-324"/>
<text text-anchor="middle" x="1015" y="-302.3" font-family="Times,serif" font-size="14.00">AtomTable</text>
</a>
</g>
</g>
<!-- 5&#45;&gt;8 -->
<g id="edge11" class="edge">
<title>5&#45;&gt;8</title>
<g id="a_edge11"><a xlink:title="usage">
<path fill="none" stroke="#1414ce" d="M474.72,-370.03C590.71,-356.5 844.96,-326.84 958.4,-313.6"/>
<polygon fill="#1414ce" stroke="#1414ce" points="959.08,-317.05 968.61,-312.41 958.27,-310.09 959.08,-317.05"/>
</a>
</g>
</g>
<!-- 5&#45;&gt;3 -->
<g id="edge13" class="edge">
<title>5&#45;&gt;3</title>
<g id="a_edge13"><a xlink:title="usage">
<path fill="none" stroke="#1414ce" d="M402.13,-359.65C395.27,-349.67 387.2,-336.63 382,-324 352.77,-252.94 338.09,-162.73 332.21,-118.28"/>
<polygon fill="#1414ce" stroke="#1414ce" points="335.67,-117.74 330.93,-108.26 328.72,-118.62 335.67,-117.74"/>
</a>
</g>
</g>
<!-- 10 -->
<g id="node7" class="node">
<title>10</title>
<g id="a_node7"><a xlink:title="HNodeGroup">
<polygon fill="#ffffff" stroke="black" points="1070,-252 960,-252 960,-216 1070,-216 1070,-252"/>
<text text-anchor="middle" x="1015" y="-230.3" font-family="Times,serif" font-size="14.00">HNodeGroup</text>
</a>
</g>
</g>
<!-- 10&#45;&gt;10 -->
<g id="edge20" class="edge">
<title>10&#45;&gt;10</title>
<g id="a_edge20"><a xlink:title="usage">
<path fill="none" stroke="#1414ce" d="M1070.07,-246.85C1080.57,-245.32 1088,-241.03 1088,-234 1088,-229.5 1084.95,-226.12 1080,-223.87"/>
<polygon fill="#1414ce" stroke="#1414ce" points="1080.64,-220.42 1070.07,-221.15 1078.79,-227.17 1080.64,-220.42"/>
</a>
</g>
</g>
<!-- 9 -->
<g id="node18" class="node">
<title>9</title>
<g id="a_node18"><a xlink:title="HNode">
<polygon fill="#ffffff" stroke="black" points="1149,-180 1083,-180 1083,-144 1149,-144 1149,-180"/>
<text text-anchor="middle" x="1116" y="-158.3" font-family="Times,serif" font-size="14.00">HNode</text>
</a>
</g>
</g>
<!-- 10&#45;&gt;9 -->
<g id="edge19" class="edge">
<title>10&#45;&gt;9</title>
<g id="a_edge19"><a xlink:title="usage">
<path fill="none" stroke="#1414ce" d="M1039.71,-215.88C1052.67,-206.89 1068.73,-195.76 1082.77,-186.03"/>
<polygon fill="#1414ce" stroke="#1414ce" points="1084.97,-188.76 1091.2,-180.19 1080.98,-183.01 1084.97,-188.76"/>
</a>
</g>
</g>
<!-- 17&#45;&gt;4 -->
<g id="edge21" class="edge">
<title>17&#45;&gt;4</title>
<g id="a_edge21"><a xlink:title="usage">
<path fill="none" stroke="#1414ce" d="M441.31,-71.88C427.71,-62.81 410.83,-51.55 396.14,-41.76"/>
<polygon fill="#1414ce" stroke="#1414ce" points="398.05,-38.82 387.78,-36.19 394.16,-44.65 398.05,-38.82"/>
</a>
</g>
</g>
<!-- 7 -->
<g id="node10" class="node">
<title>7</title>
<g id="a_node10"><a xlink:title="MailboxMessage">
<polygon fill="#ffffff" stroke="black" points="923.5,-252 786.5,-252 786.5,-216 923.5,-216 923.5,-252"/>
<text text-anchor="middle" x="855" y="-230.3" font-family="Times,serif" font-size="14.00">MailboxMessage</text>
</a>
</g>
</g>
<!-- 7&#45;&gt;7 -->
<g id="edge22" class="edge">
<title>7&#45;&gt;7</title>
<g id="a_edge22"><a xlink:title="usage">
<path fill="none" stroke="#1414ce" d="M923.53,-246.37C934.21,-244.52 941.5,-240.4 941.5,-234 941.5,-229.8 938.36,-226.58 933.18,-224.34"/>
<polygon fill="#1414ce" stroke="#1414ce" points="934.1,-220.96 923.53,-221.63 932.21,-227.7 934.1,-220.96"/>
</a>
</g>
</g>
<!-- 6&#45;&gt;7 -->
<g id="edge23" class="edge">
<title>6&#45;&gt;7</title>
<g id="a_edge23"><a xlink:title="usage">
<path fill="none" stroke="#1414ce" d="M775.69,-287.88C789.29,-278.81 806.17,-267.55 820.86,-257.76"/>
<polygon fill="#1414ce" stroke="#1414ce" points="822.84,-260.65 829.22,-252.19 818.95,-254.82 822.84,-260.65"/>
</a>
</g>
</g>
<!-- 6&#45;&gt;6 -->
<g id="edge24" class="edge">
<title>6&#45;&gt;6</title>
<g id="a_edge24"><a xlink:title="usage">
<path fill="none" stroke="#1414ce" d="M829.16,-317.98C839.87,-315.97 847,-311.98 847,-306 847,-302.08 843.93,-299.01 838.79,-296.8"/>
<polygon fill="#1414ce" stroke="#1414ce" points="839.74,-293.43 829.16,-294.02 837.8,-300.15 839.74,-293.43"/>
</a>
</g>
</g>
<!-- 16&#45;&gt;9 -->
<g id="edge25" class="edge">
<title>16&#45;&gt;9</title>
<g id="a_edge25"><a xlink:title="usage">
<path fill="none" stroke="#1414ce" d="M1147.11,-287.91C1142.99,-269.96 1136.24,-240.95 1130,-216 1127.89,-207.56 1125.5,-198.39 1123.3,-190.09"/>
<polygon fill="#1414ce" stroke="#1414ce" points="1126.61,-188.92 1120.66,-180.16 1119.85,-190.72 1126.61,-188.92"/>
</a>
</g>
</g>
<!-- 12&#45;&gt;2 -->
<g id="edge26" class="edge">
<title>12&#45;&gt;2</title>
<g id="a_edge26"><a xlink:title="usage">
<path fill="none" stroke="#1414ce" d="M146.43,-215.88C167.25,-206.35 193.35,-194.41 215.48,-184.28"/>
<polygon fill="#1414ce" stroke="#1414ce" points="217.06,-187.41 224.69,-180.07 214.14,-181.05 217.06,-187.41"/>
</a>
</g>
</g>
<!-- 12&#45;&gt;4 -->
<g id="edge27" class="edge">
<title>12&#45;&gt;4</title>
<g id="a_edge27"><a xlink:title="usage">
<path fill="none" stroke="#1414ce" d="M122.36,-215.77C147.39,-184.3 204.15,-116.66 263,-72 278.72,-60.07 297.5,-49.28 314.45,-40.61"/>
<polygon fill="#1414ce" stroke="#1414ce" points="316.27,-43.61 323.64,-36.01 313.14,-37.35 316.27,-43.61"/>
</a>
</g>
</g>
<!-- 1 -->
<g id="node14" class="node">
<title>1</title>
<g id="a_node14"><a xlink:title="ErlNifMonitor">
<polygon fill="#bfbfbf" stroke="black" points="291.5,-252 174.5,-252 174.5,-216 291.5,-216 291.5,-252"/>
<text text-anchor="middle" x="233" y="-230.3" font-family="Times,serif" font-size="14.00">ErlNifMonitor</text>
</a>
</g>
</g>
<!-- 1&#45;&gt;2 -->
<g id="edge28" class="edge">
<title>1&#45;&gt;2</title>
<g id="a_edge28"><a xlink:title="usage">
<path fill="none" stroke="#1414ce" d="M240.17,-215.7C243.43,-207.81 247.37,-198.3 251,-189.55"/>
<polygon fill="#1414ce" stroke="#1414ce" points="254.32,-190.68 254.91,-180.1 247.85,-188 254.32,-190.68"/>
</a>
</g>
</g>
<!-- 8&#45;&gt;10 -->
<g id="edge30" class="edge">
<title>8&#45;&gt;10</title>
<g id="a_edge30"><a xlink:title="usage">
<path fill="none" stroke="#1414ce" d="M1015,-287.7C1015,-279.98 1015,-270.71 1015,-262.11"/>
<polygon fill="#1414ce" stroke="#1414ce" points="1018.5,-262.1 1015,-252.1 1011.5,-262.1 1018.5,-262.1"/>
</a>
</g>
</g>
<!-- 8&#45;&gt;9 -->
<g id="edge29" class="edge">
<title>8&#45;&gt;9</title>
<g id="a_edge29"><a xlink:title="usage">
<path fill="none" stroke="#1414ce" d="M1054.26,-287.93C1069.79,-279.29 1086.42,-267.35 1097,-252 1109.5,-233.87 1114.02,-209.09 1115.55,-190.28"/>
<polygon fill="#1414ce" stroke="#1414ce" points="1119.04,-190.45 1116.13,-180.26 1112.06,-190.04 1119.04,-190.45"/>
</a>
</g>
</g>
<!-- 3&#45;&gt;4 -->
<g id="edge31" class="edge">
<title>3&#45;&gt;4</title>
<g id="a_edge31"><a xlink:title="usage">
<path fill="none" stroke="#1414ce" d="M337.16,-71.7C340.91,-63.73 345.45,-54.1 349.62,-45.26"/>
<polygon fill="#1414ce" stroke="#1414ce" points="352.84,-46.64 353.94,-36.1 346.51,-43.66 352.84,-46.64"/>
</a>
</g>
</g>
<!-- 9&#45;&gt;9 -->
<g id="edge32" class="edge">
<title>9&#45;&gt;9</title>
<g id="a_edge32"><a xlink:title="usage">
<path fill="none" stroke="#1414ce" d="M1149.35,-175.47C1159.28,-175.07 1167,-170.58 1167,-162 1167,-156.64 1163.98,-152.87 1159.3,-150.71"/>
<polygon fill="#1414ce" stroke="#1414ce" points="1159.87,-147.25 1149.35,-148.53 1158.37,-154.09 1159.87,-147.25"/>
</a>
</g>
</g>
</g>
</svg>
