<?xml version="1.0" encoding="UTF-8" standalone="no"?>
<!DOCTYPE svg PUBLIC "-//W3C//DTD SVG 1.1//EN"
 "http://www.w3.org/Graphics/SVG/1.1/DTD/svg11.dtd">
<!-- Generated by graphviz version 2.43.0 (0)
 -->
<!-- Title: %3 Pages: 1 -->
<svg width="1316pt" height="404pt"
 viewBox="0.00 0.00 1316.00 404.00" xmlns="http://www.w3.org/2000/svg" xmlns:xlink="http://www.w3.org/1999/xlink">
<g id="graph0" class="graph" transform="scale(1 1) rotate(0) translate(4 400)">
<title>%3</title>
<polygon fill="transparent" stroke="transparent" points="-4,4 -4,-400 1312,-400 1312,4 -4,4"/>
<!-- 20 -->
<g id="node1" class="node">
<title>20</title>
<g id="a_node1"><a xlink:title="SpinLock">
<polygon fill="#ffffff" stroke="black" points="1106,-324 1024,-324 1024,-288 1106,-288 1106,-324"/>
<text text-anchor="middle" x="1065" y="-302.3" font-family="Times,serif" font-size="14.00">SpinLock</text>
</a>
</g>
</g>
<!-- 6 -->
<g id="node2" class="node">
<title>6</title>
<g id="a_node2"><a xlink:title="ResourceType">
<polygon fill="#ffffff" stroke="black" points="453.5,-180 336.5,-180 336.5,-144 453.5,-144 453.5,-180"/>
<text text-anchor="middle" x="395" y="-158.3" font-family="Times,serif" font-size="14.00">ResourceType</text>
</a>
</g>
</g>
<!-- 4 -->
<g id="node5" class="node">
<title>4</title>
<g id="a_node5"><a xlink:title="ListHead">
<polygon fill="#ffffff" stroke="black" points="435.5,-36 354.5,-36 354.5,0 435.5,0 435.5,-36"/>
<text text-anchor="middle" x="395" y="-14.3" font-family="Times,serif" font-size="14.00">ListHead</text>
</a>
</g>
</g>
<!-- 6&#45;&gt;4 -->
<g id="edge3" class="edge">
<title>6&#45;&gt;4</title>
<g id="a_edge3"><a xlink:title="usage">
<path fill="none" stroke="#1414ce" d="M395,-143.87C395,-119.67 395,-75.21 395,-46.39"/>
<polygon fill="#1414ce" stroke="#1414ce" points="398.5,-46.19 395,-36.19 391.5,-46.19 398.5,-46.19"/>
</a>
</g>
</g>
<!-- 8 -->
<g id="node7" class="node">
<title>8</title>
<g id="a_node7"><a xlink:title="GlobalContext">
<polygon fill="#ffffff" stroke="black" points="864.5,-396 745.5,-396 745.5,-360 864.5,-360 864.5,-396"/>
<text text-anchor="middle" x="805" y="-374.3" font-family="Times,serif" font-size="14.00">GlobalContext</text>
</a>
</g>
</g>
<!-- 6&#45;&gt;8 -->
<g id="edge2" class="edge">
<title>6&#45;&gt;8</title>
<g id="a_edge2"><a xlink:title="usage">
<path fill="none" stroke="#1414ce" d="M372.63,-180.07C334.33,-211.29 264.09,-278.53 305,-324 333.21,-355.36 603.8,-369.57 734.72,-374.66"/>
<polygon fill="#1414ce" stroke="#1414ce" points="734.92,-378.17 745.04,-375.05 735.18,-371.18 734.92,-378.17"/>
</a>
</g>
</g>
<!-- 7 -->
<g id="node19" class="node">
<title>7</title>
<g id="a_node19"><a xlink:title="SyncList">
<polygon fill="#ffffff" stroke="black" points="182,-108 104,-108 104,-72 182,-72 182,-108"/>
<text text-anchor="middle" x="143" y="-86.3" font-family="Times,serif" font-size="14.00">SyncList</text>
</a>
</g>
</g>
<!-- 6&#45;&gt;7 -->
<g id="edge1" class="edge">
<title>6&#45;&gt;7</title>
<g id="a_edge1"><a xlink:title="usage">
<path fill="none" stroke="#1414ce" d="M336.24,-144.68C292.43,-132.51 233.3,-116.08 192.03,-104.62"/>
<polygon fill="#1414ce" stroke="#1414ce" points="192.78,-101.19 182.21,-101.89 190.9,-107.94 192.78,-101.19"/>
</a>
</g>
</g>
<!-- 15 -->
<g id="node3" class="node">
<title>15</title>
<g id="a_node3"><a xlink:title="Module">
<polygon fill="#ffffff" stroke="black" points="774,-324 704,-324 704,-288 774,-288 774,-324"/>
<text text-anchor="middle" x="739" y="-302.3" font-family="Times,serif" font-size="14.00">Module</text>
</a>
</g>
</g>
<!-- 15&#45;&gt;4 -->
<g id="edge6" class="edge">
<title>15&#45;&gt;4</title>
<g id="a_edge6"><a xlink:title="usage">
<path fill="none" stroke="#1414ce" d="M743.53,-287.94C747.54,-268.98 750.98,-238.13 738,-216 673.96,-106.79 524.26,-52.7 445.5,-30.99"/>
<polygon fill="#1414ce" stroke="#1414ce" points="446.36,-27.6 435.79,-28.38 444.54,-34.36 446.36,-27.6"/>
</a>
</g>
</g>
<!-- 17 -->
<g id="node11" class="node">
<title>17</title>
<g id="a_node11"><a xlink:title="LiteralEntry">
<polygon fill="#ffffff" stroke="black" points="565,-252 461,-252 461,-216 565,-216 565,-252"/>
<text text-anchor="middle" x="513" y="-230.3" font-family="Times,serif" font-size="14.00">LiteralEntry</text>
</a>
</g>
</g>
<!-- 15&#45;&gt;17 -->
<g id="edge5" class="edge">
<title>15&#45;&gt;17</title>
<g id="a_edge5"><a xlink:title="usage">
<path fill="none" stroke="#1414ce" d="M703.55,-291.01C700.67,-289.96 697.79,-288.94 695,-288 672.68,-280.45 618.4,-264.77 574.89,-252.41"/>
<polygon fill="#1414ce" stroke="#1414ce" points="575.8,-249.03 565.22,-249.67 573.89,-255.77 575.8,-249.03"/>
</a>
</g>
</g>
<!-- 16 -->
<g id="node18" class="node">
<title>16</title>
<g id="a_node18"><a xlink:title="ExportedFunction">
<polygon fill="#ffffff" stroke="black" points="729,-252 583,-252 583,-216 729,-216 729,-252"/>
<text text-anchor="middle" x="656" y="-230.3" font-family="Times,serif" font-size="14.00">ExportedFunction</text>
</a>
</g>
</g>
<!-- 15&#45;&gt;16 -->
<g id="edge4" class="edge">
<title>15&#45;&gt;16</title>
<g id="a_edge4"><a xlink:title="usage">
<path fill="none" stroke="#1414ce" d="M718.48,-287.7C708.13,-278.97 695.41,-268.24 684.16,-258.75"/>
<polygon fill="#1414ce" stroke="#1414ce" points="686.18,-255.88 676.28,-252.1 681.67,-261.23 686.18,-255.88"/>
</a>
</g>
</g>
<!-- 2 -->
<g id="node4" class="node">
<title>2</title>
<g id="a_node4"><a xlink:title="AVMPackData">
<polygon fill="#ffffff" stroke="black" points="272.5,-252 155.5,-252 155.5,-216 272.5,-216 272.5,-252"/>
<text text-anchor="middle" x="214" y="-230.3" font-family="Times,serif" font-size="14.00">AVMPackData</text>
</a>
</g>
</g>
<!-- 2&#45;&gt;4 -->
<g id="edge8" class="edge">
<title>2&#45;&gt;4</title>
<g id="a_edge8"><a xlink:title="usage">
<path fill="none" stroke="#1414ce" d="M204.64,-215.86C195.77,-197.11 185.52,-166.7 198,-144 229.04,-87.55 297.55,-52.99 344.99,-34.92"/>
<polygon fill="#1414ce" stroke="#1414ce" points="346.3,-38.16 354.47,-31.41 343.88,-31.59 346.3,-38.16"/>
</a>
</g>
</g>
<!-- 3 -->
<g id="node8" class="node">
<title>3</title>
<g id="a_node8"><a xlink:title="AVMPackInfo">
<polygon fill="#ffffff" stroke="black" points="318.5,-180 207.5,-180 207.5,-144 318.5,-144 318.5,-180"/>
<text text-anchor="middle" x="263" y="-158.3" font-family="Times,serif" font-size="14.00">AVMPackInfo</text>
</a>
</g>
</g>
<!-- 2&#45;&gt;3 -->
<g id="edge7" class="edge">
<title>2&#45;&gt;3</title>
<g id="a_edge7"><a xlink:title="usage">
<path fill="none" stroke="#1414ce" d="M226.11,-215.7C231.87,-207.47 238.86,-197.48 245.21,-188.42"/>
<polygon fill="#1414ce" stroke="#1414ce" points="248.16,-190.3 251.03,-180.1 242.42,-186.29 248.16,-190.3"/>
</a>
</g>
</g>
<!-- 4&#45;&gt;4 -->
<g id="edge9" class="edge">
<title>4&#45;&gt;4</title>
<g id="a_edge9"><a xlink:title="usage">
<path fill="none" stroke="#1414ce" d="M435.73,-31.31C445.9,-30.38 453.5,-25.95 453.5,-18 453.5,-12.91 450.38,-9.26 445.47,-7.05"/>
<polygon fill="#1414ce" stroke="#1414ce" points="446.28,-3.64 435.73,-4.69 444.63,-10.45 446.28,-3.64"/>
</a>
</g>
</g>
<!-- 14 -->
<g id="node6" class="node">
<title>14</title>
<g id="a_node6"><a xlink:title="RefcBinaryQueueItem">
<polygon fill="#ffffff" stroke="black" points="668,-324 494,-324 494,-288 668,-288 668,-324"/>
<text text-anchor="middle" x="581" y="-302.3" font-family="Times,serif" font-size="14.00">RefcBinaryQueueItem</text>
</a>
</g>
</g>
<!-- 14&#45;&gt;14 -->
<g id="edge11" class="edge">
<title>14&#45;&gt;14</title>
<g id="a_edge11"><a xlink:title="usage">
<path fill="none" stroke="#1414ce" d="M668.3,-317.68C678.99,-315.59 686,-311.7 686,-306 686,-302.35 683.12,-299.44 678.25,-297.27"/>
<polygon fill="#1414ce" stroke="#1414ce" points="678.88,-293.81 668.3,-294.32 676.89,-300.52 678.88,-293.81"/>
</a>
</g>
</g>
<!-- 5 -->
<g id="node16" class="node">
<title>5</title>
<g id="a_node16"><a xlink:title="RefcBinary">
<polygon fill="#ffffff" stroke="black" points="442.5,-252 347.5,-252 347.5,-216 442.5,-216 442.5,-252"/>
<text text-anchor="middle" x="395" y="-230.3" font-family="Times,serif" font-size="14.00">RefcBinary</text>
</a>
</g>
</g>
<!-- 14&#45;&gt;5 -->
<g id="edge10" class="edge">
<title>14&#45;&gt;5</title>
<g id="a_edge10"><a xlink:title="usage">
<path fill="none" stroke="#1414ce" d="M535.5,-287.88C509.62,-278.14 477.03,-265.87 449.76,-255.61"/>
<polygon fill="#1414ce" stroke="#1414ce" points="450.94,-252.31 440.35,-252.07 448.48,-258.87 450.94,-252.31"/>
</a>
</g>
</g>
<!-- 8&#45;&gt;20 -->
<g id="edge19" class="edge">
<title>8&#45;&gt;20</title>
<g id="a_edge19"><a xlink:title="usage">
<path fill="none" stroke="#1414ce" d="M864.85,-362.31C905.84,-352.06 961.37,-337.79 1010,-324 1011.41,-323.6 1012.84,-323.19 1014.29,-322.77"/>
<polygon fill="#1414ce" stroke="#1414ce" points="1015.32,-326.12 1023.92,-319.93 1013.34,-319.4 1015.32,-326.12"/>
</a>
</g>
</g>
<!-- 8&#45;&gt;15 -->
<g id="edge16" class="edge">
<title>8&#45;&gt;15</title>
<g id="a_edge16"><a xlink:title="usage">
<path fill="none" stroke="#1414ce" d="M788.69,-359.7C780.69,-351.22 770.93,-340.86 762.18,-331.58"/>
<polygon fill="#1414ce" stroke="#1414ce" points="764.53,-328.98 755.13,-324.1 759.44,-333.78 764.53,-328.98"/>
</a>
</g>
</g>
<!-- 8&#45;&gt;4 -->
<g id="edge20" class="edge">
<title>8&#45;&gt;4</title>
<g id="a_edge20"><a xlink:title="usage">
<path fill="none" stroke="#1414ce" d="M864.74,-374.45C965.29,-369.34 1163.41,-355.51 1225,-324 1273.15,-299.37 1308,-289.09 1308,-235 1308,-235 1308,-235 1308,-161 1308,-73.04 637.77,-31.56 445.81,-21.49"/>
<polygon fill="#1414ce" stroke="#1414ce" points="445.87,-17.99 435.71,-20.97 445.51,-24.98 445.87,-17.99"/>
</a>
</g>
</g>
<!-- 8&#45;&gt;14 -->
<g id="edge14" class="edge">
<title>8&#45;&gt;14</title>
<g id="a_edge14"><a xlink:title="usage">
<path fill="none" stroke="#1414ce" d="M750.49,-359.97C718.78,-350.06 678.64,-337.51 645.39,-327.12"/>
<polygon fill="#1414ce" stroke="#1414ce" points="646.34,-323.75 635.75,-324.11 644.26,-330.43 646.34,-323.75"/>
</a>
</g>
</g>
<!-- 19 -->
<g id="node10" class="node">
<title>19</title>
<g id="a_node10"><a xlink:title="TimerList">
<polygon fill="#ffffff" stroke="black" points="86,-108 0,-108 0,-72 86,-72 86,-108"/>
<text text-anchor="middle" x="43" y="-86.3" font-family="Times,serif" font-size="14.00">TimerList</text>
</a>
</g>
</g>
<!-- 8&#45;&gt;19 -->
<g id="edge18" class="edge">
<title>8&#45;&gt;19</title>
<g id="a_edge18"><a xlink:title="usage">
<path fill="none" stroke="#1414ce" d="M745.42,-374.98C597.72,-369.55 223.13,-353.05 175,-324 98.27,-277.68 62.25,-168.99 49.13,-118.13"/>
<polygon fill="#1414ce" stroke="#1414ce" points="52.48,-117.07 46.68,-108.2 45.68,-118.75 52.48,-117.07"/>
</a>
</g>
</g>
<!-- 9 -->
<g id="node14" class="node">
<title>9</title>
<g id="a_node14"><a xlink:title="MessageQueueItem">
<polygon fill="#ffffff" stroke="black" points="950,-324 792,-324 792,-288 950,-288 950,-324"/>
<text text-anchor="middle" x="871" y="-302.3" font-family="Times,serif" font-size="14.00">MessageQueueItem</text>
</a>
</g>
</g>
<!-- 8&#45;&gt;9 -->
<g id="edge12" class="edge">
<title>8&#45;&gt;9</title>
<g id="a_edge12"><a xlink:title="usage">
<path fill="none" stroke="#1414ce" d="M821.31,-359.7C829.31,-351.22 839.07,-340.86 847.82,-331.58"/>
<polygon fill="#1414ce" stroke="#1414ce" points="850.56,-333.78 854.87,-324.1 845.47,-328.98 850.56,-333.78"/>
</a>
</g>
</g>
<!-- 18 -->
<g id="node15" class="node">
<title>18</title>
<g id="a_node15"><a xlink:title="AtomsHashTable">
<polygon fill="#ffffff" stroke="black" points="1095.5,-252 958.5,-252 958.5,-216 1095.5,-216 1095.5,-252"/>
<text text-anchor="middle" x="1027" y="-230.3" font-family="Times,serif" font-size="14.00">AtomsHashTable</text>
</a>
</g>
</g>
<!-- 8&#45;&gt;18 -->
<g id="edge17" class="edge">
<title>8&#45;&gt;18</title>
<g id="a_edge17"><a xlink:title="usage">
<path fill="none" stroke="#1414ce" d="M864.78,-369.89C900.51,-363.08 945.02,-349.8 977,-324 996.94,-307.91 1010.31,-281.61 1018.16,-261.76"/>
<polygon fill="#1414ce" stroke="#1414ce" points="1021.46,-262.93 1021.68,-252.33 1014.9,-260.48 1021.46,-262.93"/>
</a>
</g>
</g>
<!-- 11 -->
<g id="node17" class="node">
<title>11</title>
<g id="a_node17"><a xlink:title="AtomTable">
<polygon fill="#ffffff" stroke="black" points="1216,-324 1124,-324 1124,-288 1216,-288 1216,-324"/>
<text text-anchor="middle" x="1170" y="-302.3" font-family="Times,serif" font-size="14.00">AtomTable</text>
</a>
</g>
</g>
<!-- 8&#45;&gt;11 -->
<g id="edge13" class="edge">
<title>8&#45;&gt;11</title>
<g id="a_edge13"><a xlink:title="usage">
<path fill="none" stroke="#1414ce" d="M864.61,-369.17C925.22,-360.67 1021.95,-345.66 1114.14,-324.04"/>
<polygon fill="#1414ce" stroke="#1414ce" points="1114.99,-327.44 1123.91,-321.73 1113.37,-320.63 1114.99,-327.44"/>
</a>
</g>
</g>
<!-- 8&#45;&gt;7 -->
<g id="edge15" class="edge">
<title>8&#45;&gt;7</title>
<g id="a_edge15"><a xlink:title="usage">
<path fill="none" stroke="#1414ce" d="M745.24,-377.82C647.71,-377.63 449.12,-370.81 289,-324 220.7,-304.03 183.89,-312.23 146,-252 120.35,-211.22 127.87,-152.37 135.53,-118.27"/>
<polygon fill="#1414ce" stroke="#1414ce" points="139.04,-118.67 137.98,-108.13 132.23,-117.03 139.04,-118.67"/>
</a>
</g>
</g>
<!-- 13 -->
<g id="node9" class="node">
<title>13</title>
<g id="a_node9"><a xlink:title="HNodeGroup">
<polygon fill="#ffffff" stroke="black" points="1262,-252 1152,-252 1152,-216 1262,-216 1262,-252"/>
<text text-anchor="middle" x="1207" y="-230.3" font-family="Times,serif" font-size="14.00">HNodeGroup</text>
</a>
</g>
</g>
<!-- 13&#45;&gt;13 -->
<g id="edge22" class="edge">
<title>13&#45;&gt;13</title>
<g id="a_edge22"><a xlink:title="usage">
<path fill="none" stroke="#1414ce" d="M1262.07,-246.85C1272.57,-245.32 1280,-241.03 1280,-234 1280,-229.5 1276.95,-226.12 1272,-223.87"/>
<polygon fill="#1414ce" stroke="#1414ce" points="1272.64,-220.42 1262.07,-221.15 1270.79,-227.17 1272.64,-220.42"/>
</a>
</g>
</g>
<!-- 12 -->
<g id="node20" class="node">
<title>12</title>
<g id="a_node20"><a xlink:title="HNode">
<polygon fill="#ffffff" stroke="black" points="1157,-180 1091,-180 1091,-144 1157,-144 1157,-180"/>
<text text-anchor="middle" x="1124" y="-158.3" font-family="Times,serif" font-size="14.00">HNode</text>
</a>
</g>
</g>
<!-- 13&#45;&gt;12 -->
<g id="edge21" class="edge">
<title>13&#45;&gt;12</title>
<g id="a_edge21"><a xlink:title="usage">
<path fill="none" stroke="#1414ce" d="M1186.48,-215.7C1176.13,-206.97 1163.41,-196.24 1152.16,-186.75"/>
<polygon fill="#1414ce" stroke="#1414ce" points="1154.18,-183.88 1144.28,-180.1 1149.67,-189.23 1154.18,-183.88"/>
</a>
</g>
</g>
<!-- 19&#45;&gt;4 -->
<g id="edge23" class="edge">
<title>19&#45;&gt;4</title>
<g id="a_edge23"><a xlink:title="usage">
<path fill="none" stroke="#1414ce" d="M86.28,-74.35C89.22,-73.51 92.14,-72.72 95,-72 181.57,-50.32 284.36,-34.19 344.37,-25.72"/>
<polygon fill="#1414ce" stroke="#1414ce" points="344.92,-29.17 354.34,-24.32 343.95,-22.24 344.92,-29.17"/>
</a>
</g>
</g>
<!-- 10 -->
<g id="node12" class="node">
<title>10</title>
<g id="a_node12"><a xlink:title="MailboxMessage">
<polygon fill="#ffffff" stroke="black" points="922.5,-252 785.5,-252 785.5,-216 922.5,-216 922.5,-252"/>
<text text-anchor="middle" x="854" y="-230.3" font-family="Times,serif" font-size="14.00">MailboxMessage</text>
</a>
</g>
</g>
<!-- 10&#45;&gt;10 -->
<g id="edge24" class="edge">
<title>10&#45;&gt;10</title>
<g id="a_edge24"><a xlink:title="usage">
<path fill="none" stroke="#1414ce" d="M922.53,-246.37C933.21,-244.52 940.5,-240.4 940.5,-234 940.5,-229.8 937.36,-226.58 932.18,-224.34"/>
<polygon fill="#1414ce" stroke="#1414ce" points="933.1,-220.96 922.53,-221.63 931.21,-227.7 933.1,-220.96"/>
</a>
</g>
</g>
<!-- 1 -->
<g id="node13" class="node">
<title>1</title>
<g id="a_node13"><a xlink:title="RefcBinaryAVMPack">
<polygon fill="#bfbfbf" stroke="black" points="476,-324 314,-324 314,-288 476,-288 476,-324"/>
<text text-anchor="middle" x="395" y="-302.3" font-family="Times,serif" font-size="14.00">RefcBinaryAVMPack</text>
</a>
</g>
</g>
<!-- 1&#45;&gt;2 -->
<g id="edge25" class="edge">
<title>1&#45;&gt;2</title>
<g id="a_edge25"><a xlink:title="usage">
<path fill="none" stroke="#1414ce" d="M350.72,-287.88C325.65,-278.18 294.1,-265.98 267.63,-255.74"/>
<polygon fill="#1414ce" stroke="#1414ce" points="268.72,-252.41 258.13,-252.07 266.2,-258.94 268.72,-252.41"/>
</a>
</g>
</g>
<!-- 1&#45;&gt;5 -->
<g id="edge26" class="edge">
<title>1&#45;&gt;5</title>
<g id="a_edge26"><a xlink:title="usage">
<path fill="none" stroke="#1414ce" d="M395,-287.7C395,-279.98 395,-270.71 395,-262.11"/>
<polygon fill="#1414ce" stroke="#1414ce" points="398.5,-262.1 395,-252.1 391.5,-262.1 398.5,-262.1"/>
</a>
</g>
</g>
<!-- 9&#45;&gt;10 -->
<g id="edge27" class="edge">
<title>9&#45;&gt;10</title>
<g id="a_edge27"><a xlink:title="usage">
<path fill="none" stroke="#1414ce" d="M866.8,-287.7C864.9,-279.9 862.62,-270.51 860.52,-261.83"/>
<polygon fill="#1414ce" stroke="#1414ce" points="863.92,-261 858.15,-252.1 857.11,-262.65 863.92,-261"/>
</a>
</g>
</g>
<!-- 9&#45;&gt;9 -->
<g id="edge28" class="edge">
<title>9&#45;&gt;9</title>
<g id="a_edge28"><a xlink:title="usage">
<path fill="none" stroke="#1414ce" d="M950.16,-317.98C960.87,-315.97 968,-311.98 968,-306 968,-302.08 964.93,-299.01 959.79,-296.8"/>
<polygon fill="#1414ce" stroke="#1414ce" points="960.74,-293.43 950.16,-294.02 958.8,-300.15 960.74,-293.43"/>
</a>
</g>
</g>
<!-- 18&#45;&gt;12 -->
<g id="edge29" class="edge">
<title>18&#45;&gt;12</title>
<g id="a_edge29"><a xlink:title="usage">
<path fill="none" stroke="#1414ce" d="M1050.98,-215.7C1063.31,-206.8 1078.52,-195.82 1091.85,-186.2"/>
<polygon fill="#1414ce" stroke="#1414ce" points="1094.24,-188.79 1100.3,-180.1 1090.14,-183.12 1094.24,-188.79"/>
</a>
</g>
</g>
<!-- 5&#45;&gt;6 -->
<g id="edge30" class="edge">
<title>5&#45;&gt;6</title>
<g id="a_edge30"><a xlink:title="usage">
<path fill="none" stroke="#1414ce" d="M395,-215.7C395,-207.98 395,-198.71 395,-190.11"/>
<polygon fill="#1414ce" stroke="#1414ce" points="398.5,-190.1 395,-180.1 391.5,-190.1 398.5,-190.1"/>
</a>
</g>
</g>
<!-- 5&#45;&gt;4 -->
<g id="edge31" class="edge">
<title>5&#45;&gt;4</title>
<g id="a_edge31"><a xlink:title="usage">
<path fill="none" stroke="#1414ce" d="M427.53,-215.98C440.79,-207.18 454.7,-195.09 462,-180 468.97,-165.6 465.9,-159.52 462,-144 452.65,-106.78 429.85,-68.55 413.45,-44.33"/>
<polygon fill="#1414ce" stroke="#1414ce" points="416.3,-42.3 407.73,-36.07 410.54,-46.29 416.3,-42.3"/>
</a>
</g>
</g>
<!-- 11&#45;&gt;13 -->
<g id="edge33" class="edge">
<title>11&#45;&gt;13</title>
<g id="a_edge33"><a xlink:title="usage">
<path fill="none" stroke="#1414ce" d="M1179.15,-287.7C1183.4,-279.64 1188.56,-269.89 1193.27,-260.98"/>
<polygon fill="#1414ce" stroke="#1414ce" points="1196.38,-262.58 1197.96,-252.1 1190.19,-259.31 1196.38,-262.58"/>
</a>
</g>
</g>
<!-- 11&#45;&gt;12 -->
<g id="edge32" class="edge">
<title>11&#45;&gt;12</title>
<g id="a_edge32"><a xlink:title="usage">
<path fill="none" stroke="#1414ce" d="M1159.81,-287.84C1154.17,-277.71 1147.42,-264.46 1143,-252 1135.84,-231.8 1130.93,-208.03 1127.9,-190.13"/>
<polygon fill="#1414ce" stroke="#1414ce" points="1131.33,-189.41 1126.29,-180.09 1124.42,-190.52 1131.33,-189.41"/>
</a>
</g>
</g>
<!-- 7&#45;&gt;4 -->
<g id="edge34" class="edge">
<title>7&#45;&gt;4</title>
<g id="a_edge34"><a xlink:title="usage">
<path fill="none" stroke="#1414ce" d="M182.01,-76.24C186.71,-74.78 191.46,-73.33 196,-72 246.29,-57.25 304.23,-42.01 344.57,-31.69"/>
<polygon fill="#1414ce" stroke="#1414ce" points="345.61,-35.03 354.43,-29.17 343.88,-28.25 345.61,-35.03"/>
</a>
</g>
</g>
<!-- 12&#45;&gt;12 -->
<g id="edge35" class="edge">
<title>12&#45;&gt;12</title>
<g id="a_edge35"><a xlink:title="usage">
<path fill="none" stroke="#1414ce" d="M1157.35,-175.47C1167.28,-175.07 1175,-170.58 1175,-162 1175,-156.64 1171.98,-152.87 1167.3,-150.71"/>
<polygon fill="#1414ce" stroke="#1414ce" points="1167.87,-147.25 1157.35,-148.53 1166.37,-154.09 1167.87,-147.25"/>
</a>
</g>
</g>
</g>
</svg>
