<?xml version="1.0" encoding="UTF-8" standalone="no"?>
<!DOCTYPE svg PUBLIC "-//W3C//DTD SVG 1.1//EN"
 "http://www.w3.org/Graphics/SVG/1.1/DTD/svg11.dtd">
<!-- Generated by graphviz version 2.43.0 (0)
 -->
<!-- Title: %3 Pages: 1 -->
<svg width="139pt" height="116pt"
 viewBox="0.00 0.00 139.00 116.00" xmlns="http://www.w3.org/2000/svg" xmlns:xlink="http://www.w3.org/1999/xlink">
<g id="graph0" class="graph" transform="scale(1 1) rotate(0) translate(4 112)">
<title>%3</title>
<polygon fill="transparent" stroke="transparent" points="-4,4 -4,-112 135,-112 135,4 -4,4"/>
<!-- 2 -->
<g id="node1" class="node">
<title>2</title>
<g id="a_node1"><a xlink:title="ListHead">
<polygon fill="#ffffff" stroke="black" points="106,-36 25,-36 25,0 106,0 106,-36"/>
<text text-anchor="middle" x="65.5" y="-14.3" font-family="Times,serif" font-size="14.00">ListHead</text>
</a>
</g>
</g>
<!-- 2&#45;&gt;2 -->
<g id="edge1" class="edge">
<title>2&#45;&gt;2</title>
<g id="a_edge1"><a xlink:title="usage">
<path fill="none" stroke="#1414ce" d="M106.23,-31.31C116.4,-30.38 124,-25.95 124,-18 124,-12.91 120.88,-9.26 115.97,-7.05"/>
<polygon fill="#1414ce" stroke="#1414ce" points="116.78,-3.64 106.23,-4.69 115.13,-10.45 116.78,-3.64"/>
</a>
</g>
</g>
<!-- 1 -->
<g id="node2" class="node">
<title>1</title>
<g id="a_node2"><a xlink:title="SocketResource">
<polygon fill="#bfbfbf" stroke="black" points="131,-108 0,-108 0,-72 131,-72 131,-108"/>
<text text-anchor="middle" x="65.5" y="-86.3" font-family="Times,serif" font-size="14.00">SocketResource</text>
</a>
</g>
</g>
<!-- 1&#45;&gt;2 -->
<g id="edge2" class="edge">
<title>1&#45;&gt;2</title>
<g id="a_edge2"><a xlink:title="usage">
<path fill="none" stroke="#1414ce" d="M65.5,-71.7C65.5,-63.98 65.5,-54.71 65.5,-46.11"/>
<polygon fill="#1414ce" stroke="#1414ce" points="69,-46.1 65.5,-36.1 62,-46.1 69,-46.1"/>
</a>
</g>
</g>
</g>
</svg>
