<?xml version="1.0" encoding="UTF-8" standalone="no"?>
<!DOCTYPE svg PUBLIC "-//W3C//DTD SVG 1.1//EN"
 "http://www.w3.org/Graphics/SVG/1.1/DTD/svg11.dtd">
<!-- Generated by graphviz version 2.43.0 (0)
 -->
<!-- Title: %3 Pages: 1 -->
<svg width="1206pt" height="476pt"
 viewBox="0.00 0.00 1205.50 476.00" xmlns="http://www.w3.org/2000/svg" xmlns:xlink="http://www.w3.org/1999/xlink">
<g id="graph0" class="graph" transform="scale(1 1) rotate(0) translate(4 472)">
<title>%3</title>
<polygon fill="transparent" stroke="transparent" points="-4,4 -4,-472 1201.5,-472 1201.5,4 -4,4"/>
<!-- 20 -->
<g id="node1" class="node">
<title>20</title>
<g id="a_node1"><a xlink:title="SpinLock">
<polygon fill="#ffffff" stroke="black" points="917,-324 835,-324 835,-288 917,-288 917,-324"/>
<text text-anchor="middle" x="876" y="-302.3" font-family="Times,serif" font-size="14.00">SpinLock</text>
</a>
</g>
</g>
<!-- 12 -->
<g id="node2" class="node">
<title>12</title>
<g id="a_node2"><a xlink:title="ResourceType">
<polygon fill="#ffffff" stroke="black" points="229.5,-180 112.5,-180 112.5,-144 229.5,-144 229.5,-180"/>
<text text-anchor="middle" x="171" y="-158.3" font-family="Times,serif" font-size="14.00">ResourceType</text>
</a>
</g>
</g>
<!-- 14 -->
<g id="node4" class="node">
<title>14</title>
<g id="a_node4"><a xlink:title="ListHead">
<polygon fill="#ffffff" stroke="black" points="285.5,-36 204.5,-36 204.5,0 285.5,0 285.5,-36"/>
<text text-anchor="middle" x="245" y="-14.3" font-family="Times,serif" font-size="14.00">ListHead</text>
</a>
</g>
</g>
<!-- 12&#45;&gt;14 -->
<g id="edge3" class="edge">
<title>12&#45;&gt;14</title>
<g id="a_edge3"><a xlink:title="usage">
<path fill="none" stroke="#1414ce" d="M164.36,-143.78C158.26,-124.97 151.84,-94.5 164,-72 171.08,-58.91 182.95,-48.53 195.46,-40.56"/>
<polygon fill="#1414ce" stroke="#1414ce" points="197.33,-43.52 204.17,-35.42 193.78,-37.49 197.33,-43.52"/>
</a>
</g>
</g>
<!-- 4 -->
<g id="node7" class="node">
<title>4</title>
<g id="a_node7"><a xlink:title="GlobalContext">
<polygon fill="#ffffff" stroke="black" points="499.5,-396 380.5,-396 380.5,-360 499.5,-360 499.5,-396"/>
<text text-anchor="middle" x="440" y="-374.3" font-family="Times,serif" font-size="14.00">GlobalContext</text>
</a>
</g>
</g>
<!-- 12&#45;&gt;4 -->
<g id="edge2" class="edge">
<title>12&#45;&gt;4</title>
<g id="a_edge2"><a xlink:title="usage">
<path fill="none" stroke="#1414ce" d="M173.84,-180.23C180.2,-213.23 198.76,-285.53 244,-324 279.03,-353.78 329.25,-366.98 370.09,-372.75"/>
<polygon fill="#1414ce" stroke="#1414ce" points="369.89,-376.25 380.25,-374.07 370.78,-369.31 369.89,-376.25"/>
</a>
</g>
</g>
<!-- 13 -->
<g id="node19" class="node">
<title>13</title>
<g id="a_node19"><a xlink:title="SyncList">
<polygon fill="#ffffff" stroke="black" points="251,-108 173,-108 173,-72 251,-72 251,-108"/>
<text text-anchor="middle" x="212" y="-86.3" font-family="Times,serif" font-size="14.00">SyncList</text>
</a>
</g>
</g>
<!-- 12&#45;&gt;13 -->
<g id="edge1" class="edge">
<title>12&#45;&gt;13</title>
<g id="a_edge1"><a xlink:title="usage">
<path fill="none" stroke="#1414ce" d="M181.13,-143.7C185.85,-135.64 191.56,-125.89 196.78,-116.98"/>
<polygon fill="#1414ce" stroke="#1414ce" points="199.95,-118.5 201.98,-108.1 193.91,-114.96 199.95,-118.5"/>
</a>
</g>
</g>
<!-- 15 -->
<g id="node3" class="node">
<title>15</title>
<g id="a_node3"><a xlink:title="Module">
<polygon fill="#ffffff" stroke="black" points="475,-324 405,-324 405,-288 475,-288 475,-324"/>
<text text-anchor="middle" x="440" y="-302.3" font-family="Times,serif" font-size="14.00">Module</text>
</a>
</g>
</g>
<!-- 15&#45;&gt;14 -->
<g id="edge6" class="edge">
<title>15&#45;&gt;14</title>
<g id="a_edge6"><a xlink:title="usage">
<path fill="none" stroke="#1414ce" d="M426.16,-288C418.99,-278.12 410.94,-265.08 407,-252 383.94,-175.36 449.57,-136.36 402,-72 377.64,-39.05 331.79,-26.36 295.89,-21.58"/>
<polygon fill="#1414ce" stroke="#1414ce" points="295.92,-18.06 285.59,-20.39 295.12,-25.02 295.92,-18.06"/>
</a>
</g>
</g>
<!-- 17 -->
<g id="node10" class="node">
<title>17</title>
<g id="a_node10"><a xlink:title="LiteralEntry">
<polygon fill="#ffffff" stroke="black" points="520,-252 416,-252 416,-216 520,-216 520,-252"/>
<text text-anchor="middle" x="468" y="-230.3" font-family="Times,serif" font-size="14.00">LiteralEntry</text>
</a>
</g>
</g>
<!-- 15&#45;&gt;17 -->
<g id="edge5" class="edge">
<title>15&#45;&gt;17</title>
<g id="a_edge5"><a xlink:title="usage">
<path fill="none" stroke="#1414ce" d="M446.92,-287.7C450.07,-279.81 453.88,-270.3 457.38,-261.55"/>
<polygon fill="#1414ce" stroke="#1414ce" points="460.69,-262.69 461.16,-252.1 454.19,-260.09 460.69,-262.69"/>
</a>
</g>
</g>
<!-- 16 -->
<g id="node18" class="node">
<title>16</title>
<g id="a_node18"><a xlink:title="ExportedFunction">
<polygon fill="#ffffff" stroke="black" points="684,-252 538,-252 538,-216 684,-216 684,-252"/>
<text text-anchor="middle" x="611" y="-230.3" font-family="Times,serif" font-size="14.00">ExportedFunction</text>
</a>
</g>
</g>
<!-- 15&#45;&gt;16 -->
<g id="edge4" class="edge">
<title>15&#45;&gt;16</title>
<g id="a_edge4"><a xlink:title="usage">
<path fill="none" stroke="#1414ce" d="M475.02,-290.67C499.49,-280.65 532.56,-267.11 559.96,-255.89"/>
<polygon fill="#1414ce" stroke="#1414ce" points="561.47,-259.06 569.39,-252.03 558.81,-252.58 561.47,-259.06"/>
</a>
</g>
</g>
<!-- 14&#45;&gt;14 -->
<g id="edge7" class="edge">
<title>14&#45;&gt;14</title>
<g id="a_edge7"><a xlink:title="usage">
<path fill="none" stroke="#1414ce" d="M285.73,-31.31C295.9,-30.38 303.5,-25.95 303.5,-18 303.5,-12.91 300.38,-9.26 295.47,-7.05"/>
<polygon fill="#1414ce" stroke="#1414ce" points="296.28,-3.64 285.73,-4.69 294.63,-10.45 296.28,-3.64"/>
</a>
</g>
</g>
<!-- 3 -->
<g id="node5" class="node">
<title>3</title>
<g id="a_node5"><a xlink:title="HeapFragment">
<polygon fill="#ffffff" stroke="black" points="1060.5,-324 935.5,-324 935.5,-288 1060.5,-288 1060.5,-324"/>
<text text-anchor="middle" x="998" y="-302.3" font-family="Times,serif" font-size="14.00">HeapFragment</text>
</a>
</g>
</g>
<!-- 3&#45;&gt;3 -->
<g id="edge8" class="edge">
<title>3&#45;&gt;3</title>
<g id="a_edge8"><a xlink:title="usage">
<path fill="none" stroke="#1414ce" d="M1060.78,-318.55C1071.26,-316.79 1078.5,-312.61 1078.5,-306 1078.5,-301.77 1075.53,-298.53 1070.64,-296.29"/>
<polygon fill="#1414ce" stroke="#1414ce" points="1071.36,-292.85 1060.78,-293.45 1069.42,-299.58 1071.36,-292.85"/>
</a>
</g>
</g>
<!-- 10 -->
<g id="node6" class="node">
<title>10</title>
<g id="a_node6"><a xlink:title="RefcBinaryQueueItem">
<polygon fill="#ffffff" stroke="black" points="174,-324 0,-324 0,-288 174,-288 174,-324"/>
<text text-anchor="middle" x="87" y="-302.3" font-family="Times,serif" font-size="14.00">RefcBinaryQueueItem</text>
</a>
</g>
</g>
<!-- 10&#45;&gt;10 -->
<g id="edge10" class="edge">
<title>10&#45;&gt;10</title>
<g id="a_edge10"><a xlink:title="usage">
<path fill="none" stroke="#1414ce" d="M174.3,-317.68C184.99,-315.59 192,-311.7 192,-306 192,-302.35 189.12,-299.44 184.25,-297.27"/>
<polygon fill="#1414ce" stroke="#1414ce" points="184.88,-293.81 174.3,-294.32 182.89,-300.52 184.88,-293.81"/>
</a>
</g>
</g>
<!-- 11 -->
<g id="node15" class="node">
<title>11</title>
<g id="a_node15"><a xlink:title="RefcBinary">
<polygon fill="#ffffff" stroke="black" points="134.5,-252 39.5,-252 39.5,-216 134.5,-216 134.5,-252"/>
<text text-anchor="middle" x="87" y="-230.3" font-family="Times,serif" font-size="14.00">RefcBinary</text>
</a>
</g>
</g>
<!-- 10&#45;&gt;11 -->
<g id="edge9" class="edge">
<title>10&#45;&gt;11</title>
<g id="a_edge9"><a xlink:title="usage">
<path fill="none" stroke="#1414ce" d="M87,-287.7C87,-279.98 87,-270.71 87,-262.11"/>
<polygon fill="#1414ce" stroke="#1414ce" points="90.5,-262.1 87,-252.1 83.5,-262.1 90.5,-262.1"/>
</a>
</g>
</g>
<!-- 4&#45;&gt;20 -->
<g id="edge18" class="edge">
<title>4&#45;&gt;20</title>
<g id="a_edge18"><a xlink:title="usage">
<path fill="none" stroke="#1414ce" d="M499.6,-371.72C575.04,-364.35 708.71,-348.99 821,-324 822.26,-323.72 823.54,-323.42 824.82,-323.11"/>
<polygon fill="#1414ce" stroke="#1414ce" points="825.95,-326.44 834.75,-320.53 824.19,-319.66 825.95,-326.44"/>
</a>
</g>
</g>
<!-- 4&#45;&gt;15 -->
<g id="edge15" class="edge">
<title>4&#45;&gt;15</title>
<g id="a_edge15"><a xlink:title="usage">
<path fill="none" stroke="#1414ce" d="M440,-359.7C440,-351.98 440,-342.71 440,-334.11"/>
<polygon fill="#1414ce" stroke="#1414ce" points="443.5,-334.1 440,-324.1 436.5,-334.1 443.5,-334.1"/>
</a>
</g>
</g>
<!-- 4&#45;&gt;14 -->
<g id="edge19" class="edge">
<title>4&#45;&gt;14</title>
<g id="a_edge19"><a xlink:title="usage">
<path fill="none" stroke="#1414ce" d="M414.1,-359.99C401.33,-350.58 386.46,-337.98 376,-324 340.77,-276.92 278.46,-111.07 254.63,-45.74"/>
<polygon fill="#1414ce" stroke="#1414ce" points="257.85,-44.35 251.15,-36.15 251.27,-46.74 257.85,-44.35"/>
</a>
</g>
</g>
<!-- 4&#45;&gt;10 -->
<g id="edge13" class="edge">
<title>4&#45;&gt;10</title>
<g id="a_edge13"><a xlink:title="usage">
<path fill="none" stroke="#1414ce" d="M380.12,-365.13C326.16,-354.43 245.87,-338.5 182.97,-326.03"/>
<polygon fill="#1414ce" stroke="#1414ce" points="183.52,-322.57 173.03,-324.06 182.15,-329.44 183.52,-322.57"/>
</a>
</g>
</g>
<!-- 19 -->
<g id="node9" class="node">
<title>19</title>
<g id="a_node9"><a xlink:title="TimerList">
<polygon fill="#ffffff" stroke="black" points="393,-108 307,-108 307,-72 393,-72 393,-108"/>
<text text-anchor="middle" x="350" y="-86.3" font-family="Times,serif" font-size="14.00">TimerList</text>
</a>
</g>
</g>
<!-- 4&#45;&gt;19 -->
<g id="edge17" class="edge">
<title>4&#45;&gt;19</title>
<g id="a_edge17"><a xlink:title="usage">
<path fill="none" stroke="#1414ce" d="M422.58,-359.67C413.58,-349.89 403.04,-337.05 396,-324 359.56,-256.45 351.79,-163.94 350.27,-118.48"/>
<polygon fill="#1414ce" stroke="#1414ce" points="353.76,-118.15 350,-108.24 346.76,-118.33 353.76,-118.15"/>
</a>
</g>
</g>
<!-- 5 -->
<g id="node13" class="node">
<title>5</title>
<g id="a_node13"><a xlink:title="MessageQueueItem">
<polygon fill="#ffffff" stroke="black" points="651,-324 493,-324 493,-288 651,-288 651,-324"/>
<text text-anchor="middle" x="572" y="-302.3" font-family="Times,serif" font-size="14.00">MessageQueueItem</text>
</a>
</g>
</g>
<!-- 4&#45;&gt;5 -->
<g id="edge11" class="edge">
<title>4&#45;&gt;5</title>
<g id="a_edge11"><a xlink:title="usage">
<path fill="none" stroke="#1414ce" d="M472.29,-359.88C489.87,-350.55 511.81,-338.92 530.63,-328.94"/>
<polygon fill="#1414ce" stroke="#1414ce" points="532.39,-331.97 539.59,-324.19 529.11,-325.78 532.39,-331.97"/>
</a>
</g>
</g>
<!-- 18 -->
<g id="node14" class="node">
<title>18</title>
<g id="a_node14"><a xlink:title="AtomsHashTable">
<polygon fill="#ffffff" stroke="black" points="1197.5,-252 1060.5,-252 1060.5,-216 1197.5,-216 1197.5,-252"/>
<text text-anchor="middle" x="1129" y="-230.3" font-family="Times,serif" font-size="14.00">AtomsHashTable</text>
</a>
</g>
</g>
<!-- 4&#45;&gt;18 -->
<g id="edge16" class="edge">
<title>4&#45;&gt;18</title>
<g id="a_edge16"><a xlink:title="usage">
<path fill="none" stroke="#1414ce" d="M499.67,-372.24C585.35,-364.68 738.38,-348.26 788,-324 808.9,-313.78 805.2,-298.42 826,-288 910.27,-245.78 942.18,-268.39 1035,-252 1040.03,-251.11 1045.2,-250.19 1050.42,-249.26"/>
<polygon fill="#1414ce" stroke="#1414ce" points="1051.25,-252.67 1060.47,-247.46 1050.01,-245.78 1051.25,-252.67"/>
</a>
</g>
</g>
<!-- 7 -->
<g id="node17" class="node">
<title>7</title>
<g id="a_node17"><a xlink:title="AtomTable">
<polygon fill="#ffffff" stroke="black" points="779,-324 687,-324 687,-288 779,-288 779,-324"/>
<text text-anchor="middle" x="733" y="-302.3" font-family="Times,serif" font-size="14.00">AtomTable</text>
</a>
</g>
</g>
<!-- 4&#45;&gt;7 -->
<g id="edge12" class="edge">
<title>4&#45;&gt;7</title>
<g id="a_edge12"><a xlink:title="usage">
<path fill="none" stroke="#1414ce" d="M499.99,-365.04C546.04,-355.54 611.38,-341.37 677.16,-324.12"/>
<polygon fill="#1414ce" stroke="#1414ce" points="678.09,-327.5 686.86,-321.56 676.3,-320.73 678.09,-327.5"/>
</a>
</g>
</g>
<!-- 4&#45;&gt;13 -->
<g id="edge14" class="edge">
<title>4&#45;&gt;13</title>
<g id="a_edge14"><a xlink:title="usage">
<path fill="none" stroke="#1414ce" d="M380.19,-371.02C346.87,-364.62 307.16,-351.37 282,-324 226.26,-263.37 266.08,-221.42 238,-144 234.75,-135.04 230.43,-125.59 226.25,-117.2"/>
<polygon fill="#1414ce" stroke="#1414ce" points="229.33,-115.54 221.65,-108.25 223.11,-118.74 229.33,-115.54"/>
</a>
</g>
</g>
<!-- 9 -->
<g id="node8" class="node">
<title>9</title>
<g id="a_node8"><a xlink:title="HNodeGroup">
<polygon fill="#ffffff" stroke="black" points="986,-252 876,-252 876,-216 986,-216 986,-252"/>
<text text-anchor="middle" x="931" y="-230.3" font-family="Times,serif" font-size="14.00">HNodeGroup</text>
</a>
</g>
</g>
<!-- 9&#45;&gt;9 -->
<g id="edge21" class="edge">
<title>9&#45;&gt;9</title>
<g id="a_edge21"><a xlink:title="usage">
<path fill="none" stroke="#1414ce" d="M986.07,-246.85C996.57,-245.32 1004,-241.03 1004,-234 1004,-229.5 1000.95,-226.12 996,-223.87"/>
<polygon fill="#1414ce" stroke="#1414ce" points="996.64,-220.42 986.07,-221.15 994.79,-227.17 996.64,-220.42"/>
</a>
</g>
</g>
<!-- 8 -->
<g id="node20" class="node">
<title>8</title>
<g id="a_node20"><a xlink:title="HNode">
<polygon fill="#ffffff" stroke="black" points="1065,-180 999,-180 999,-144 1065,-144 1065,-180"/>
<text text-anchor="middle" x="1032" y="-158.3" font-family="Times,serif" font-size="14.00">HNode</text>
</a>
</g>
</g>
<!-- 9&#45;&gt;8 -->
<g id="edge20" class="edge">
<title>9&#45;&gt;8</title>
<g id="a_edge20"><a xlink:title="usage">
<path fill="none" stroke="#1414ce" d="M955.71,-215.88C968.67,-206.89 984.73,-195.76 998.77,-186.03"/>
<polygon fill="#1414ce" stroke="#1414ce" points="1000.97,-188.76 1007.2,-180.19 996.98,-183.01 1000.97,-188.76"/>
</a>
</g>
</g>
<!-- 19&#45;&gt;14 -->
<g id="edge22" class="edge">
<title>19&#45;&gt;14</title>
<g id="a_edge22"><a xlink:title="usage">
<path fill="none" stroke="#1414ce" d="M324.31,-71.88C310.71,-62.81 293.83,-51.55 279.14,-41.76"/>
<polygon fill="#1414ce" stroke="#1414ce" points="281.05,-38.82 270.78,-36.19 277.16,-44.65 281.05,-38.82"/>
</a>
</g>
</g>
<!-- 6 -->
<g id="node11" class="node">
<title>6</title>
<g id="a_node11"><a xlink:title="MailboxMessage">
<polygon fill="#ffffff" stroke="black" points="839.5,-252 702.5,-252 702.5,-216 839.5,-216 839.5,-252"/>
<text text-anchor="middle" x="771" y="-230.3" font-family="Times,serif" font-size="14.00">MailboxMessage</text>
</a>
</g>
</g>
<!-- 6&#45;&gt;6 -->
<g id="edge23" class="edge">
<title>6&#45;&gt;6</title>
<g id="a_edge23"><a xlink:title="usage">
<path fill="none" stroke="#1414ce" d="M839.53,-246.37C850.21,-244.52 857.5,-240.4 857.5,-234 857.5,-229.8 854.36,-226.58 849.18,-224.34"/>
<polygon fill="#1414ce" stroke="#1414ce" points="850.1,-220.96 839.53,-221.63 848.21,-227.7 850.1,-220.96"/>
</a>
</g>
</g>
<!-- 2 -->
<g id="node12" class="node">
<title>2</title>
<g id="a_node12"><a xlink:title="Heap">
<polygon fill="#ffffff" stroke="black" points="798,-396 744,-396 744,-360 798,-360 798,-396"/>
<text text-anchor="middle" x="771" y="-374.3" font-family="Times,serif" font-size="14.00">Heap</text>
</a>
</g>
</g>
<!-- 2&#45;&gt;3 -->
<g id="edge24" class="edge">
<title>2&#45;&gt;3</title>
<g id="a_edge24"><a xlink:title="usage">
<path fill="none" stroke="#1414ce" d="M798.38,-368.56C831.56,-358.33 888.55,-340.75 933.17,-326.99"/>
<polygon fill="#1414ce" stroke="#1414ce" points="934.25,-330.32 942.78,-324.03 932.19,-323.63 934.25,-330.32"/>
</a>
</g>
</g>
<!-- 5&#45;&gt;6 -->
<g id="edge25" class="edge">
<title>5&#45;&gt;6</title>
<g id="a_edge25"><a xlink:title="usage">
<path fill="none" stroke="#1414ce" d="M620.43,-287.97C648.23,-278.19 683.34,-265.84 712.65,-255.52"/>
<polygon fill="#1414ce" stroke="#1414ce" points="714.08,-258.73 722.36,-252.11 711.76,-252.13 714.08,-258.73"/>
</a>
</g>
</g>
<!-- 5&#45;&gt;5 -->
<g id="edge26" class="edge">
<title>5&#45;&gt;5</title>
<g id="a_edge26"><a xlink:title="usage">
<path fill="none" stroke="#1414ce" d="M651.16,-317.98C661.87,-315.97 669,-311.98 669,-306 669,-302.08 665.93,-299.01 660.79,-296.8"/>
<polygon fill="#1414ce" stroke="#1414ce" points="661.74,-293.43 651.16,-294.02 659.8,-300.15 661.74,-293.43"/>
</a>
</g>
</g>
<!-- 18&#45;&gt;8 -->
<g id="edge27" class="edge">
<title>18&#45;&gt;8</title>
<g id="a_edge27"><a xlink:title="usage">
<path fill="none" stroke="#1414ce" d="M1105.02,-215.7C1092.69,-206.8 1077.48,-195.82 1064.15,-186.2"/>
<polygon fill="#1414ce" stroke="#1414ce" points="1065.86,-183.12 1055.7,-180.1 1061.76,-188.79 1065.86,-183.12"/>
</a>
</g>
</g>
<!-- 11&#45;&gt;12 -->
<g id="edge28" class="edge">
<title>11&#45;&gt;12</title>
<g id="a_edge28"><a xlink:title="usage">
<path fill="none" stroke="#1414ce" d="M107.76,-215.7C118.24,-206.97 131.11,-196.24 142.5,-186.75"/>
<polygon fill="#1414ce" stroke="#1414ce" points="145.03,-189.19 150.47,-180.1 140.55,-183.82 145.03,-189.19"/>
</a>
</g>
</g>
<!-- 11&#45;&gt;14 -->
<g id="edge29" class="edge">
<title>11&#45;&gt;14</title>
<g id="a_edge29"><a xlink:title="usage">
<path fill="none" stroke="#1414ce" d="M87.86,-215.98C89.28,-197.59 93.04,-167.74 103,-144 118.17,-107.84 125.07,-98.47 154,-72 167.07,-60.04 183.28,-49.54 198.39,-41.11"/>
<polygon fill="#1414ce" stroke="#1414ce" points="200.47,-43.97 207.61,-36.14 197.15,-37.81 200.47,-43.97"/>
</a>
</g>
</g>
<!-- 1 -->
<g id="node16" class="node">
<title>1</title>
<g id="a_node16"><a xlink:title="ErlNifEnv">
<polygon fill="#bfbfbf" stroke="black" points="536,-468 448,-468 448,-432 536,-432 536,-468"/>
<text text-anchor="middle" x="492" y="-446.3" font-family="Times,serif" font-size="14.00">ErlNifEnv</text>
</a>
</g>
</g>
<!-- 1&#45;&gt;4 -->
<g id="edge31" class="edge">
<title>1&#45;&gt;4</title>
<g id="a_edge31"><a xlink:title="usage">
<path fill="none" stroke="#1414ce" d="M479.15,-431.7C472.97,-423.39 465.46,-413.28 458.68,-404.14"/>
<polygon fill="#1414ce" stroke="#1414ce" points="461.48,-402.04 452.71,-396.1 455.86,-406.22 461.48,-402.04"/>
</a>
</g>
</g>
<!-- 1&#45;&gt;2 -->
<g id="edge30" class="edge">
<title>1&#45;&gt;2</title>
<g id="a_edge30"><a xlink:title="usage">
<path fill="none" stroke="#1414ce" d="M536.21,-437.91C590.83,-424.2 682.8,-401.13 733.91,-388.3"/>
<polygon fill="#1414ce" stroke="#1414ce" points="735.02,-391.63 743.87,-385.81 733.32,-384.85 735.02,-391.63"/>
</a>
</g>
</g>
<!-- 7&#45;&gt;9 -->
<g id="edge33" class="edge">
<title>7&#45;&gt;9</title>
<g id="a_edge33"><a xlink:title="usage">
<path fill="none" stroke="#1414ce" d="M779.17,-288.68C807.22,-278.76 843.27,-266.02 873.2,-255.44"/>
<polygon fill="#1414ce" stroke="#1414ce" points="874.42,-258.72 882.68,-252.08 872.09,-252.12 874.42,-258.72"/>
</a>
</g>
</g>
<!-- 7&#45;&gt;8 -->
<g id="edge32" class="edge">
<title>7&#45;&gt;8</title>
<g id="a_edge32"><a xlink:title="usage">
<path fill="none" stroke="#1414ce" d="M779.05,-291.38C783.75,-290.16 788.46,-289.01 793,-288 841.35,-277.23 977.14,-286.18 1013,-252 1029.48,-236.29 1033.43,-210.07 1033.73,-190.14"/>
<polygon fill="#1414ce" stroke="#1414ce" points="1037.23,-190.06 1033.59,-180.11 1030.23,-190.16 1037.23,-190.06"/>
</a>
</g>
</g>
<!-- 13&#45;&gt;14 -->
<g id="edge34" class="edge">
<title>13&#45;&gt;14</title>
<g id="a_edge34"><a xlink:title="usage">
<path fill="none" stroke="#1414ce" d="M220.16,-71.7C223.91,-63.73 228.45,-54.1 232.62,-45.26"/>
<polygon fill="#1414ce" stroke="#1414ce" points="235.84,-46.64 236.94,-36.1 229.51,-43.66 235.84,-46.64"/>
</a>
</g>
</g>
<!-- 8&#45;&gt;8 -->
<g id="edge35" class="edge">
<title>8&#45;&gt;8</title>
<g id="a_edge35"><a xlink:title="usage">
<path fill="none" stroke="#1414ce" d="M1065.35,-175.47C1075.28,-175.07 1083,-170.58 1083,-162 1083,-156.64 1079.98,-152.87 1075.3,-150.71"/>
<polygon fill="#1414ce" stroke="#1414ce" points="1075.87,-147.25 1065.35,-148.53 1074.37,-154.09 1075.87,-147.25"/>
</a>
</g>
</g>
</g>
</svg>
