<?xml version="1.0" encoding="UTF-8" standalone="no"?>
<!DOCTYPE svg PUBLIC "-//W3C//DTD SVG 1.1//EN"
 "http://www.w3.org/Graphics/SVG/1.1/DTD/svg11.dtd">
<!-- Generated by graphviz version 2.43.0 (0)
 -->
<!-- Title: %3 Pages: 1 -->
<svg width="1173pt" height="404pt"
 viewBox="0.00 0.00 1173.00 404.00" xmlns="http://www.w3.org/2000/svg" xmlns:xlink="http://www.w3.org/1999/xlink">
<g id="graph0" class="graph" transform="scale(1 1) rotate(0) translate(4 400)">
<title>%3</title>
<polygon fill="transparent" stroke="transparent" points="-4,4 -4,-400 1169,-400 1169,4 -4,4"/>
<!-- 18 -->
<g id="node1" class="node">
<title>18</title>
<g id="a_node1"><a xlink:title="SpinLock">
<polygon fill="#ffffff" stroke="black" points="985,-324 903,-324 903,-288 985,-288 985,-324"/>
<text text-anchor="middle" x="944" y="-302.3" font-family="Times,serif" font-size="14.00">SpinLock</text>
</a>
</g>
</g>
<!-- 3 -->
<g id="node2" class="node">
<title>3</title>
<g id="a_node2"><a xlink:title="ResourceType">
<polygon fill="#ffffff" stroke="black" points="222.5,-180 105.5,-180 105.5,-144 222.5,-144 222.5,-180"/>
<text text-anchor="middle" x="164" y="-158.3" font-family="Times,serif" font-size="14.00">ResourceType</text>
</a>
</g>
</g>
<!-- 5 -->
<g id="node4" class="node">
<title>5</title>
<g id="a_node4"><a xlink:title="ListHead">
<polygon fill="#ffffff" stroke="black" points="291.5,-36 210.5,-36 210.5,0 291.5,0 291.5,-36"/>
<text text-anchor="middle" x="251" y="-14.3" font-family="Times,serif" font-size="14.00">ListHead</text>
</a>
</g>
</g>
<!-- 3&#45;&gt;5 -->
<g id="edge3" class="edge">
<title>3&#45;&gt;5</title>
<g id="a_edge3"><a xlink:title="usage">
<path fill="none" stroke="#1414ce" d="M174.49,-143.87C189.58,-119.24 217.52,-73.64 235.14,-44.88"/>
<polygon fill="#1414ce" stroke="#1414ce" points="238.23,-46.54 240.47,-36.19 232.26,-42.89 238.23,-46.54"/>
</a>
</g>
</g>
<!-- 6 -->
<g id="node6" class="node">
<title>6</title>
<g id="a_node6"><a xlink:title="GlobalContext">
<polygon fill="#ffffff" stroke="black" points="671.5,-396 552.5,-396 552.5,-360 671.5,-360 671.5,-396"/>
<text text-anchor="middle" x="612" y="-374.3" font-family="Times,serif" font-size="14.00">GlobalContext</text>
</a>
</g>
</g>
<!-- 3&#45;&gt;6 -->
<g id="edge2" class="edge">
<title>3&#45;&gt;6</title>
<g id="a_edge2"><a xlink:title="usage">
<path fill="none" stroke="#1414ce" d="M152.79,-180.02C133.04,-212.37 97.4,-283.12 134,-324 160.71,-353.84 415.86,-368.72 542.04,-374.3"/>
<polygon fill="#1414ce" stroke="#1414ce" points="542.23,-377.82 552.37,-374.75 542.53,-370.82 542.23,-377.82"/>
</a>
</g>
</g>
<!-- 4 -->
<g id="node17" class="node">
<title>4</title>
<g id="a_node17"><a xlink:title="SyncList">
<polygon fill="#ffffff" stroke="black" points="185,-108 107,-108 107,-72 185,-72 185,-108"/>
<text text-anchor="middle" x="146" y="-86.3" font-family="Times,serif" font-size="14.00">SyncList</text>
</a>
</g>
</g>
<!-- 3&#45;&gt;4 -->
<g id="edge1" class="edge">
<title>3&#45;&gt;4</title>
<g id="a_edge1"><a xlink:title="usage">
<path fill="none" stroke="#1414ce" d="M159.55,-143.7C157.55,-135.9 155.13,-126.51 152.9,-117.83"/>
<polygon fill="#1414ce" stroke="#1414ce" points="156.28,-116.92 150.4,-108.1 149.5,-118.66 156.28,-116.92"/>
</a>
</g>
</g>
<!-- 13 -->
<g id="node3" class="node">
<title>13</title>
<g id="a_node3"><a xlink:title="Module">
<polygon fill="#ffffff" stroke="black" points="581,-324 511,-324 511,-288 581,-288 581,-324"/>
<text text-anchor="middle" x="546" y="-302.3" font-family="Times,serif" font-size="14.00">Module</text>
</a>
</g>
</g>
<!-- 13&#45;&gt;5 -->
<g id="edge6" class="edge">
<title>13&#45;&gt;5</title>
<g id="a_edge6"><a xlink:title="usage">
<path fill="none" stroke="#1414ce" d="M567.71,-287.79C577.76,-278.41 588.64,-265.9 594,-252 599.76,-237.07 602.02,-229.85 594,-216 530.49,-106.29 380.22,-52.36 301.33,-30.82"/>
<polygon fill="#1414ce" stroke="#1414ce" points="302.18,-27.42 291.62,-28.23 300.38,-34.19 302.18,-27.42"/>
</a>
</g>
</g>
<!-- 15 -->
<g id="node9" class="node">
<title>15</title>
<g id="a_node9"><a xlink:title="LiteralEntry">
<polygon fill="#ffffff" stroke="black" points="421,-252 317,-252 317,-216 421,-216 421,-252"/>
<text text-anchor="middle" x="369" y="-230.3" font-family="Times,serif" font-size="14.00">LiteralEntry</text>
</a>
</g>
</g>
<!-- 13&#45;&gt;15 -->
<g id="edge5" class="edge">
<title>13&#45;&gt;15</title>
<g id="a_edge5"><a xlink:title="usage">
<path fill="none" stroke="#1414ce" d="M510.61,-291C485.14,-280.93 450.36,-267.17 421.64,-255.82"/>
<polygon fill="#1414ce" stroke="#1414ce" points="422.74,-252.49 412.15,-252.07 420.17,-259 422.74,-252.49"/>
</a>
</g>
</g>
<!-- 14 -->
<g id="node16" class="node">
<title>14</title>
<g id="a_node16"><a xlink:title="ExportedFunction">
<polygon fill="#ffffff" stroke="black" points="585,-252 439,-252 439,-216 585,-216 585,-252"/>
<text text-anchor="middle" x="512" y="-230.3" font-family="Times,serif" font-size="14.00">ExportedFunction</text>
</a>
</g>
</g>
<!-- 13&#45;&gt;14 -->
<g id="edge4" class="edge">
<title>13&#45;&gt;14</title>
<g id="a_edge4"><a xlink:title="usage">
<path fill="none" stroke="#1414ce" d="M537.6,-287.7C533.73,-279.73 529.05,-270.1 524.76,-261.26"/>
<polygon fill="#1414ce" stroke="#1414ce" points="527.83,-259.57 520.31,-252.1 521.53,-262.63 527.83,-259.57"/>
</a>
</g>
</g>
<!-- 5&#45;&gt;5 -->
<g id="edge7" class="edge">
<title>5&#45;&gt;5</title>
<g id="a_edge7"><a xlink:title="usage">
<path fill="none" stroke="#1414ce" d="M291.73,-31.31C301.9,-30.38 309.5,-25.95 309.5,-18 309.5,-12.91 306.38,-9.26 301.47,-7.05"/>
<polygon fill="#1414ce" stroke="#1414ce" points="302.28,-3.64 291.73,-4.69 300.63,-10.45 302.28,-3.64"/>
</a>
</g>
</g>
<!-- 12 -->
<g id="node5" class="node">
<title>12</title>
<g id="a_node5"><a xlink:title="RefcBinaryQueueItem">
<polygon fill="#ffffff" stroke="black" points="317,-324 143,-324 143,-288 317,-288 317,-324"/>
<text text-anchor="middle" x="230" y="-302.3" font-family="Times,serif" font-size="14.00">RefcBinaryQueueItem</text>
</a>
</g>
</g>
<!-- 12&#45;&gt;12 -->
<g id="edge9" class="edge">
<title>12&#45;&gt;12</title>
<g id="a_edge9"><a xlink:title="usage">
<path fill="none" stroke="#1414ce" d="M317.3,-317.68C327.99,-315.59 335,-311.7 335,-306 335,-302.35 332.12,-299.44 327.25,-297.27"/>
<polygon fill="#1414ce" stroke="#1414ce" points="327.88,-293.81 317.3,-294.32 325.89,-300.52 327.88,-293.81"/>
</a>
</g>
</g>
<!-- 2 -->
<g id="node13" class="node">
<title>2</title>
<g id="a_node13"><a xlink:title="RefcBinary">
<polygon fill="#ffffff" stroke="black" points="260.5,-252 165.5,-252 165.5,-216 260.5,-216 260.5,-252"/>
<text text-anchor="middle" x="213" y="-230.3" font-family="Times,serif" font-size="14.00">RefcBinary</text>
</a>
</g>
</g>
<!-- 12&#45;&gt;2 -->
<g id="edge8" class="edge">
<title>12&#45;&gt;2</title>
<g id="a_edge8"><a xlink:title="usage">
<path fill="none" stroke="#1414ce" d="M225.8,-287.7C223.9,-279.9 221.62,-270.51 219.52,-261.83"/>
<polygon fill="#1414ce" stroke="#1414ce" points="222.92,-261 217.15,-252.1 216.11,-262.65 222.92,-261"/>
</a>
</g>
</g>
<!-- 6&#45;&gt;18 -->
<g id="edge17" class="edge">
<title>6&#45;&gt;18</title>
<g id="a_edge17"><a xlink:title="usage">
<path fill="none" stroke="#1414ce" d="M671.69,-368.31C726.9,-359.69 811.32,-345.09 893,-324.07"/>
<polygon fill="#1414ce" stroke="#1414ce" points="894.15,-327.39 902.94,-321.48 892.38,-320.61 894.15,-327.39"/>
</a>
</g>
</g>
<!-- 6&#45;&gt;13 -->
<g id="edge14" class="edge">
<title>6&#45;&gt;13</title>
<g id="a_edge14"><a xlink:title="usage">
<path fill="none" stroke="#1414ce" d="M595.69,-359.7C587.69,-351.22 577.93,-340.86 569.18,-331.58"/>
<polygon fill="#1414ce" stroke="#1414ce" points="571.53,-328.98 562.13,-324.1 566.44,-333.78 571.53,-328.98"/>
</a>
</g>
</g>
<!-- 6&#45;&gt;5 -->
<g id="edge18" class="edge">
<title>6&#45;&gt;5</title>
<g id="a_edge18"><a xlink:title="usage">
<path fill="none" stroke="#1414ce" d="M671.71,-374.29C814.7,-366.17 1165,-335.98 1165,-235 1165,-235 1165,-235 1165,-161 1165,-72.94 494.04,-31.54 301.86,-21.48"/>
<polygon fill="#1414ce" stroke="#1414ce" points="301.92,-17.98 291.75,-20.96 301.56,-24.97 301.92,-17.98"/>
</a>
</g>
</g>
<!-- 6&#45;&gt;12 -->
<g id="edge12" class="edge">
<title>6&#45;&gt;12</title>
<g id="a_edge12"><a xlink:title="usage">
<path fill="none" stroke="#1414ce" d="M552.31,-366.06C492.09,-355.03 398.11,-337.8 327.14,-324.8"/>
<polygon fill="#1414ce" stroke="#1414ce" points="327.75,-321.35 317.28,-322.99 326.48,-328.24 327.75,-321.35"/>
</a>
</g>
</g>
<!-- 17 -->
<g id="node8" class="node">
<title>17</title>
<g id="a_node8"><a xlink:title="TimerList">
<polygon fill="#ffffff" stroke="black" points="86,-108 0,-108 0,-72 86,-72 86,-108"/>
<text text-anchor="middle" x="43" y="-86.3" font-family="Times,serif" font-size="14.00">TimerList</text>
</a>
</g>
</g>
<!-- 6&#45;&gt;17 -->
<g id="edge16" class="edge">
<title>6&#45;&gt;17</title>
<g id="a_edge16"><a xlink:title="usage">
<path fill="none" stroke="#1414ce" d="M552.03,-374.96C420.8,-369.95 117.1,-355.09 83,-324 25.08,-271.19 31.32,-167.49 38.22,-118.23"/>
<polygon fill="#1414ce" stroke="#1414ce" points="41.69,-118.72 39.73,-108.31 34.77,-117.67 41.69,-118.72"/>
</a>
</g>
</g>
<!-- 7 -->
<g id="node11" class="node">
<title>7</title>
<g id="a_node11"><a xlink:title="MessageQueueItem">
<polygon fill="#ffffff" stroke="black" points="757,-324 599,-324 599,-288 757,-288 757,-324"/>
<text text-anchor="middle" x="678" y="-302.3" font-family="Times,serif" font-size="14.00">MessageQueueItem</text>
</a>
</g>
</g>
<!-- 6&#45;&gt;7 -->
<g id="edge10" class="edge">
<title>6&#45;&gt;7</title>
<g id="a_edge10"><a xlink:title="usage">
<path fill="none" stroke="#1414ce" d="M628.31,-359.7C636.31,-351.22 646.07,-340.86 654.82,-331.58"/>
<polygon fill="#1414ce" stroke="#1414ce" points="657.56,-333.78 661.87,-324.1 652.47,-328.98 657.56,-333.78"/>
</a>
</g>
</g>
<!-- 16 -->
<g id="node12" class="node">
<title>16</title>
<g id="a_node12"><a xlink:title="AtomsHashTable">
<polygon fill="#ffffff" stroke="black" points="1136.5,-252 999.5,-252 999.5,-216 1136.5,-216 1136.5,-252"/>
<text text-anchor="middle" x="1068" y="-230.3" font-family="Times,serif" font-size="14.00">AtomsHashTable</text>
</a>
</g>
</g>
<!-- 6&#45;&gt;16 -->
<g id="edge15" class="edge">
<title>6&#45;&gt;16</title>
<g id="a_edge15"><a xlink:title="usage">
<path fill="none" stroke="#1414ce" d="M671.74,-373.95C764.96,-368.34 939.95,-354.06 994,-324 1020.31,-309.37 1041.17,-281.38 1053.95,-260.68"/>
<polygon fill="#1414ce" stroke="#1414ce" points="1056.99,-262.42 1059.08,-252.03 1050.97,-258.84 1056.99,-262.42"/>
</a>
</g>
</g>
<!-- 9 -->
<g id="node14" class="node">
<title>9</title>
<g id="a_node14"><a xlink:title="AtomTable">
<polygon fill="#ffffff" stroke="black" points="885,-324 793,-324 793,-288 885,-288 885,-324"/>
<text text-anchor="middle" x="839" y="-302.3" font-family="Times,serif" font-size="14.00">AtomTable</text>
</a>
</g>
</g>
<!-- 6&#45;&gt;9 -->
<g id="edge11" class="edge">
<title>6&#45;&gt;9</title>
<g id="a_edge11"><a xlink:title="usage">
<path fill="none" stroke="#1414ce" d="M667.39,-359.95C698.8,-350.27 739.08,-337.86 783.05,-324.29"/>
<polygon fill="#1414ce" stroke="#1414ce" points="784.26,-327.58 792.79,-321.29 782.2,-320.89 784.26,-327.58"/>
</a>
</g>
</g>
<!-- 6&#45;&gt;4 -->
<g id="edge13" class="edge">
<title>6&#45;&gt;4</title>
<g id="a_edge13"><a xlink:title="usage">
<path fill="none" stroke="#1414ce" d="M552.24,-374.71C426.95,-369.33 145.79,-354.03 115,-324 57.41,-267.83 66.3,-218.76 96,-144 100.29,-133.2 107.94,-123.32 115.99,-115.1"/>
<polygon fill="#1414ce" stroke="#1414ce" points="118.58,-117.47 123.4,-108.04 113.75,-112.4 118.58,-117.47"/>
</a>
</g>
</g>
<!-- 11 -->
<g id="node7" class="node">
<title>11</title>
<g id="a_node7"><a xlink:title="HNodeGroup">
<polygon fill="#ffffff" stroke="black" points="963,-252 853,-252 853,-216 963,-216 963,-252"/>
<text text-anchor="middle" x="908" y="-230.3" font-family="Times,serif" font-size="14.00">HNodeGroup</text>
</a>
</g>
</g>
<!-- 11&#45;&gt;11 -->
<g id="edge20" class="edge">
<title>11&#45;&gt;11</title>
<g id="a_edge20"><a xlink:title="usage">
<path fill="none" stroke="#1414ce" d="M963.07,-246.85C973.57,-245.32 981,-241.03 981,-234 981,-229.5 977.95,-226.12 973,-223.87"/>
<polygon fill="#1414ce" stroke="#1414ce" points="973.64,-220.42 963.07,-221.15 971.79,-227.17 973.64,-220.42"/>
</a>
</g>
</g>
<!-- 10 -->
<g id="node18" class="node">
<title>10</title>
<g id="a_node18"><a xlink:title="HNode">
<polygon fill="#ffffff" stroke="black" points="941,-180 875,-180 875,-144 941,-144 941,-180"/>
<text text-anchor="middle" x="908" y="-158.3" font-family="Times,serif" font-size="14.00">HNode</text>
</a>
</g>
</g>
<!-- 11&#45;&gt;10 -->
<g id="edge19" class="edge">
<title>11&#45;&gt;10</title>
<g id="a_edge19"><a xlink:title="usage">
<path fill="none" stroke="#1414ce" d="M908,-215.7C908,-207.98 908,-198.71 908,-190.11"/>
<polygon fill="#1414ce" stroke="#1414ce" points="911.5,-190.1 908,-180.1 904.5,-190.1 911.5,-190.1"/>
</a>
</g>
</g>
<!-- 17&#45;&gt;5 -->
<g id="edge21" class="edge">
<title>17&#45;&gt;5</title>
<g id="a_edge21"><a xlink:title="usage">
<path fill="none" stroke="#1414ce" d="M86.1,-74.5C119.49,-63.26 165.81,-47.67 200.86,-35.87"/>
<polygon fill="#1414ce" stroke="#1414ce" points="202.07,-39.16 210.43,-32.65 199.84,-32.53 202.07,-39.16"/>
</a>
</g>
</g>
<!-- 8 -->
<g id="node10" class="node">
<title>8</title>
<g id="a_node10"><a xlink:title="MailboxMessage">
<polygon fill="#ffffff" stroke="black" points="778.5,-252 641.5,-252 641.5,-216 778.5,-216 778.5,-252"/>
<text text-anchor="middle" x="710" y="-230.3" font-family="Times,serif" font-size="14.00">MailboxMessage</text>
</a>
</g>
</g>
<!-- 8&#45;&gt;8 -->
<g id="edge22" class="edge">
<title>8&#45;&gt;8</title>
<g id="a_edge22"><a xlink:title="usage">
<path fill="none" stroke="#1414ce" d="M778.53,-246.37C789.21,-244.52 796.5,-240.4 796.5,-234 796.5,-229.8 793.36,-226.58 788.18,-224.34"/>
<polygon fill="#1414ce" stroke="#1414ce" points="789.1,-220.96 778.53,-221.63 787.21,-227.7 789.1,-220.96"/>
</a>
</g>
</g>
<!-- 7&#45;&gt;8 -->
<g id="edge23" class="edge">
<title>7&#45;&gt;8</title>
<g id="a_edge23"><a xlink:title="usage">
<path fill="none" stroke="#1414ce" d="M685.91,-287.7C689.55,-279.73 693.95,-270.1 697.99,-261.26"/>
<polygon fill="#1414ce" stroke="#1414ce" points="701.21,-262.65 702.18,-252.1 694.84,-259.74 701.21,-262.65"/>
</a>
</g>
</g>
<!-- 7&#45;&gt;7 -->
<g id="edge24" class="edge">
<title>7&#45;&gt;7</title>
<g id="a_edge24"><a xlink:title="usage">
<path fill="none" stroke="#1414ce" d="M757.16,-317.98C767.87,-315.97 775,-311.98 775,-306 775,-302.08 771.93,-299.01 766.79,-296.8"/>
<polygon fill="#1414ce" stroke="#1414ce" points="767.74,-293.43 757.16,-294.02 765.8,-300.15 767.74,-293.43"/>
</a>
</g>
</g>
<!-- 16&#45;&gt;10 -->
<g id="edge25" class="edge">
<title>16&#45;&gt;10</title>
<g id="a_edge25"><a xlink:title="usage">
<path fill="none" stroke="#1414ce" d="M1028.86,-215.88C1005.09,-205.48 974.75,-192.2 950.41,-181.55"/>
<polygon fill="#1414ce" stroke="#1414ce" points="951.63,-178.27 941.07,-177.47 948.83,-184.68 951.63,-178.27"/>
</a>
</g>
</g>
<!-- 2&#45;&gt;3 -->
<g id="edge26" class="edge">
<title>2&#45;&gt;3</title>
<g id="a_edge26"><a xlink:title="usage">
<path fill="none" stroke="#1414ce" d="M200.89,-215.7C195.13,-207.47 188.14,-197.48 181.79,-188.42"/>
<polygon fill="#1414ce" stroke="#1414ce" points="184.58,-186.29 175.97,-180.1 178.84,-190.3 184.58,-186.29"/>
</a>
</g>
</g>
<!-- 2&#45;&gt;5 -->
<g id="edge27" class="edge">
<title>2&#45;&gt;5</title>
<g id="a_edge27"><a xlink:title="usage">
<path fill="none" stroke="#1414ce" d="M219.91,-215.59C223.72,-205.37 228.22,-192.12 231,-180 241.64,-133.63 246.94,-78.36 249.32,-46.12"/>
<polygon fill="#1414ce" stroke="#1414ce" points="252.82,-46.34 250.02,-36.12 245.83,-45.85 252.82,-46.34"/>
</a>
</g>
</g>
<!-- 9&#45;&gt;11 -->
<g id="edge29" class="edge">
<title>9&#45;&gt;11</title>
<g id="a_edge29"><a xlink:title="usage">
<path fill="none" stroke="#1414ce" d="M856.06,-287.7C864.5,-279.14 874.82,-268.66 884.04,-259.3"/>
<polygon fill="#1414ce" stroke="#1414ce" points="886.61,-261.68 891.14,-252.1 881.63,-256.77 886.61,-261.68"/>
</a>
</g>
</g>
<!-- 9&#45;&gt;10 -->
<g id="edge28" class="edge">
<title>9&#45;&gt;10</title>
<g id="a_edge28"><a xlink:title="usage">
<path fill="none" stroke="#1414ce" d="M836.08,-287.9C833.74,-269.18 832.49,-238.79 844,-216 849.9,-204.31 859.66,-194.25 869.8,-186.13"/>
<polygon fill="#1414ce" stroke="#1414ce" points="872.03,-188.84 877.95,-180.05 867.84,-183.23 872.03,-188.84"/>
</a>
</g>
</g>
<!-- 1 -->
<g id="node15" class="node">
<title>1</title>
<g id="a_node15"><a xlink:title="ResourceMonitor">
<polygon fill="#bfbfbf" stroke="black" points="493,-324 353,-324 353,-288 493,-288 493,-324"/>
<text text-anchor="middle" x="423" y="-302.3" font-family="Times,serif" font-size="14.00">ResourceMonitor</text>
</a>
</g>
</g>
<!-- 1&#45;&gt;5 -->
<g id="edge31" class="edge">
<title>1&#45;&gt;5</title>
<g id="a_edge31"><a xlink:title="usage">
<path fill="none" stroke="#1414ce" d="M360.42,-287.98C341.16,-279.93 321.49,-268.37 308,-252 294.81,-236.01 267.66,-103.95 256.24,-46.04"/>
<polygon fill="#1414ce" stroke="#1414ce" points="259.66,-45.27 254.3,-36.13 252.79,-46.62 259.66,-45.27"/>
</a>
</g>
</g>
<!-- 1&#45;&gt;2 -->
<g id="edge30" class="edge">
<title>1&#45;&gt;2</title>
<g id="a_edge30"><a xlink:title="usage">
<path fill="none" stroke="#1414ce" d="M371.9,-287.97C341.2,-277.73 302.07,-264.69 270.32,-254.11"/>
<polygon fill="#1414ce" stroke="#1414ce" points="271.32,-250.75 260.73,-250.91 269.11,-257.39 271.32,-250.75"/>
</a>
</g>
</g>
<!-- 4&#45;&gt;5 -->
<g id="edge32" class="edge">
<title>4&#45;&gt;5</title>
<g id="a_edge32"><a xlink:title="usage">
<path fill="none" stroke="#1414ce" d="M171.69,-71.88C185.29,-62.81 202.17,-51.55 216.86,-41.76"/>
<polygon fill="#1414ce" stroke="#1414ce" points="218.84,-44.65 225.22,-36.19 214.95,-38.82 218.84,-44.65"/>
</a>
</g>
</g>
<!-- 10&#45;&gt;10 -->
<g id="edge33" class="edge">
<title>10&#45;&gt;10</title>
<g id="a_edge33"><a xlink:title="usage">
<path fill="none" stroke="#1414ce" d="M941.35,-175.47C951.28,-175.07 959,-170.58 959,-162 959,-156.64 955.98,-152.87 951.3,-150.71"/>
<polygon fill="#1414ce" stroke="#1414ce" points="951.87,-147.25 941.35,-148.53 950.37,-154.09 951.87,-147.25"/>
</a>
</g>
</g>
</g>
</svg>
