<?xml version="1.0" encoding="UTF-8" standalone="no"?>
<!DOCTYPE svg PUBLIC "-//W3C//DTD SVG 1.1//EN"
 "http://www.w3.org/Graphics/SVG/1.1/DTD/svg11.dtd">
<!-- Generated by graphviz version 2.43.0 (0)
 -->
<!-- Title: %3 Pages: 1 -->
<svg width="1434pt" height="548pt"
 viewBox="0.00 0.00 1434.10 548.00" xmlns="http://www.w3.org/2000/svg" xmlns:xlink="http://www.w3.org/1999/xlink">
<g id="graph0" class="graph" transform="scale(1 1) rotate(0) translate(4 544)">
<title>%3</title>
<polygon fill="transparent" stroke="transparent" points="-4,4 -4,-544 1430.1,-544 1430.1,4 -4,4"/>
<!-- 23 -->
<g id="node1" class="node">
<title>23</title>
<g id="a_node1"><a xlink:title="SpinLock">
<polygon fill="#ffffff" stroke="black" points="351.6,-324 269.6,-324 269.6,-288 351.6,-288 351.6,-324"/>
<text text-anchor="middle" x="310.6" y="-302.3" font-family="Times,serif" font-size="14.00">SpinLock</text>
</a>
</g>
</g>
<!-- 19 -->
<g id="node2" class="node">
<title>19</title>
<g id="a_node2"><a xlink:title="ResourceType">
<polygon fill="#ffffff" stroke="black" points="157.1,-180 40.1,-180 40.1,-144 157.1,-144 157.1,-180"/>
<text text-anchor="middle" x="98.6" y="-158.3" font-family="Times,serif" font-size="14.00">ResourceType</text>
</a>
</g>
</g>
<!-- 7 -->
<g id="node4" class="node">
<title>7</title>
<g id="a_node4"><a xlink:title="ListHead">
<polygon fill="#ffffff" stroke="black" points="432.1,-36 351.1,-36 351.1,0 432.1,0 432.1,-36"/>
<text text-anchor="middle" x="391.6" y="-14.3" font-family="Times,serif" font-size="14.00">ListHead</text>
</a>
</g>
</g>
<!-- 19&#45;&gt;7 -->
<g id="edge3" class="edge">
<title>19&#45;&gt;7</title>
<g id="a_edge3"><a xlink:title="usage">
<path fill="none" stroke="#1414ce" d="M92.7,-143.74C87.16,-124.03 81.96,-91.92 98.6,-72 128.87,-35.77 265.11,-24.26 340.69,-20.64"/>
<polygon fill="#1414ce" stroke="#1414ce" points="341.1,-24.12 350.93,-20.18 340.79,-17.13 341.1,-24.12"/>
</a>
</g>
</g>
<!-- 12 -->
<g id="node7" class="node">
<title>12</title>
<g id="a_node7"><a xlink:title="GlobalContext">
<polygon fill="#ffffff" stroke="black" points="477.1,-396 358.1,-396 358.1,-360 477.1,-360 477.1,-396"/>
<text text-anchor="middle" x="417.6" y="-374.3" font-family="Times,serif" font-size="14.00">GlobalContext</text>
</a>
</g>
</g>
<!-- 19&#45;&gt;12 -->
<g id="edge2" class="edge">
<title>19&#45;&gt;12</title>
<g id="a_edge2"><a xlink:title="usage">
<path fill="none" stroke="#1414ce" d="M77.06,-180.07C40.2,-211.28 -27.32,-278.51 12.6,-324 34.32,-348.74 237.64,-365.48 347.67,-372.8"/>
<polygon fill="#1414ce" stroke="#1414ce" points="347.48,-376.3 357.69,-373.46 347.94,-369.31 347.48,-376.3"/>
</a>
</g>
</g>
<!-- 20 -->
<g id="node22" class="node">
<title>20</title>
<g id="a_node22"><a xlink:title="SyncList">
<polygon fill="#ffffff" stroke="black" points="185.6,-108 107.6,-108 107.6,-72 185.6,-72 185.6,-108"/>
<text text-anchor="middle" x="146.6" y="-86.3" font-family="Times,serif" font-size="14.00">SyncList</text>
</a>
</g>
</g>
<!-- 19&#45;&gt;20 -->
<g id="edge1" class="edge">
<title>19&#45;&gt;20</title>
<g id="a_edge1"><a xlink:title="usage">
<path fill="none" stroke="#1414ce" d="M110.47,-143.7C116.1,-135.47 122.96,-125.48 129.17,-116.42"/>
<polygon fill="#1414ce" stroke="#1414ce" points="132.1,-118.33 134.87,-108.1 126.33,-114.37 132.1,-118.33"/>
</a>
</g>
</g>
<!-- 8 -->
<g id="node3" class="node">
<title>8</title>
<g id="a_node3"><a xlink:title="Module">
<polygon fill="#ffffff" stroke="black" points="1069.6,-324 999.6,-324 999.6,-288 1069.6,-288 1069.6,-324"/>
<text text-anchor="middle" x="1034.6" y="-302.3" font-family="Times,serif" font-size="14.00">Module</text>
</a>
</g>
</g>
<!-- 8&#45;&gt;7 -->
<g id="edge6" class="edge">
<title>8&#45;&gt;7</title>
<g id="a_edge6"><a xlink:title="usage">
<path fill="none" stroke="#1414ce" d="M1014.35,-287.79C1002.39,-277.52 987,-264.16 973.6,-252 956.37,-236.37 955.4,-228.22 935.6,-216 769.49,-113.49 542.11,-53.09 442.19,-29.94"/>
<polygon fill="#1414ce" stroke="#1414ce" points="442.88,-26.51 432.35,-27.69 441.32,-33.33 442.88,-26.51"/>
</a>
</g>
</g>
<!-- 9 -->
<g id="node10" class="node">
<title>9</title>
<g id="a_node10"><a xlink:title="LiteralEntry">
<polygon fill="#ffffff" stroke="black" points="1086.6,-252 982.6,-252 982.6,-216 1086.6,-216 1086.6,-252"/>
<text text-anchor="middle" x="1034.6" y="-230.3" font-family="Times,serif" font-size="14.00">LiteralEntry</text>
</a>
</g>
</g>
<!-- 8&#45;&gt;9 -->
<g id="edge5" class="edge">
<title>8&#45;&gt;9</title>
<g id="a_edge5"><a xlink:title="usage">
<path fill="none" stroke="#1414ce" d="M1034.6,-287.7C1034.6,-279.98 1034.6,-270.71 1034.6,-262.11"/>
<polygon fill="#1414ce" stroke="#1414ce" points="1038.1,-262.1 1034.6,-252.1 1031.1,-262.1 1038.1,-262.1"/>
</a>
</g>
</g>
<!-- 2 -->
<g id="node20" class="node">
<title>2</title>
<g id="a_node20"><a xlink:title="ExportedFunction">
<polygon fill="#ffffff" stroke="black" points="1250.6,-252 1104.6,-252 1104.6,-216 1250.6,-216 1250.6,-252"/>
<text text-anchor="middle" x="1177.6" y="-230.3" font-family="Times,serif" font-size="14.00">ExportedFunction</text>
</a>
</g>
</g>
<!-- 8&#45;&gt;2 -->
<g id="edge4" class="edge">
<title>8&#45;&gt;2</title>
<g id="a_edge4"><a xlink:title="usage">
<path fill="none" stroke="#1414ce" d="M1069.58,-287.88C1088.8,-278.47 1112.83,-266.71 1133.34,-256.67"/>
<polygon fill="#1414ce" stroke="#1414ce" points="1135.04,-259.73 1142.49,-252.19 1131.96,-253.44 1135.04,-259.73"/>
</a>
</g>
</g>
<!-- 7&#45;&gt;7 -->
<g id="edge7" class="edge">
<title>7&#45;&gt;7</title>
<g id="a_edge7"><a xlink:title="usage">
<path fill="none" stroke="#1414ce" d="M432.34,-31.31C442.5,-30.38 450.1,-25.95 450.1,-18 450.1,-12.91 446.98,-9.26 442.07,-7.05"/>
<polygon fill="#1414ce" stroke="#1414ce" points="442.88,-3.64 432.34,-4.69 441.23,-10.45 442.88,-3.64"/>
</a>
</g>
</g>
<!-- 11 -->
<g id="node5" class="node">
<title>11</title>
<g id="a_node5"><a xlink:title="HeapFragment">
<polygon fill="#ffffff" stroke="black" points="1320.1,-324 1195.1,-324 1195.1,-288 1320.1,-288 1320.1,-324"/>
<text text-anchor="middle" x="1257.6" y="-302.3" font-family="Times,serif" font-size="14.00">HeapFragment</text>
</a>
</g>
</g>
<!-- 11&#45;&gt;11 -->
<g id="edge8" class="edge">
<title>11&#45;&gt;11</title>
<g id="a_edge8"><a xlink:title="usage">
<path fill="none" stroke="#1414ce" d="M1320.38,-318.55C1330.87,-316.79 1338.1,-312.61 1338.1,-306 1338.1,-301.77 1335.13,-298.53 1330.24,-296.29"/>
<polygon fill="#1414ce" stroke="#1414ce" points="1330.96,-292.85 1320.38,-293.45 1329.02,-299.58 1330.96,-292.85"/>
</a>
</g>
</g>
<!-- 17 -->
<g id="node6" class="node">
<title>17</title>
<g id="a_node6"><a xlink:title="RefcBinaryQueueItem">
<polygon fill="#ffffff" stroke="black" points="195.6,-324 21.6,-324 21.6,-288 195.6,-288 195.6,-324"/>
<text text-anchor="middle" x="108.6" y="-302.3" font-family="Times,serif" font-size="14.00">RefcBinaryQueueItem</text>
</a>
</g>
</g>
<!-- 17&#45;&gt;17 -->
<g id="edge10" class="edge">
<title>17&#45;&gt;17</title>
<g id="a_edge10"><a xlink:title="usage">
<path fill="none" stroke="#1414ce" d="M195.9,-317.68C206.59,-315.59 213.6,-311.7 213.6,-306 213.6,-302.35 210.73,-299.44 205.85,-297.27"/>
<polygon fill="#1414ce" stroke="#1414ce" points="206.49,-293.81 195.9,-294.32 204.49,-300.52 206.49,-293.81"/>
</a>
</g>
</g>
<!-- 18 -->
<g id="node17" class="node">
<title>18</title>
<g id="a_node17"><a xlink:title="RefcBinary">
<polygon fill="#ffffff" stroke="black" points="156.1,-252 61.1,-252 61.1,-216 156.1,-216 156.1,-252"/>
<text text-anchor="middle" x="108.6" y="-230.3" font-family="Times,serif" font-size="14.00">RefcBinary</text>
</a>
</g>
</g>
<!-- 17&#45;&gt;18 -->
<g id="edge9" class="edge">
<title>17&#45;&gt;18</title>
<g id="a_edge9"><a xlink:title="usage">
<path fill="none" stroke="#1414ce" d="M108.6,-287.7C108.6,-279.98 108.6,-270.71 108.6,-262.11"/>
<polygon fill="#1414ce" stroke="#1414ce" points="112.1,-262.1 108.6,-252.1 105.1,-262.1 112.1,-262.1"/>
</a>
</g>
</g>
<!-- 12&#45;&gt;23 -->
<g id="edge18" class="edge">
<title>12&#45;&gt;23</title>
<g id="a_edge18"><a xlink:title="usage">
<path fill="none" stroke="#1414ce" d="M391.43,-359.88C377.57,-350.81 360.36,-339.55 345.39,-329.76"/>
<polygon fill="#1414ce" stroke="#1414ce" points="347.16,-326.74 336.88,-324.19 343.33,-332.59 347.16,-326.74"/>
</a>
</g>
</g>
<!-- 12&#45;&gt;8 -->
<g id="edge15" class="edge">
<title>12&#45;&gt;8</title>
<g id="a_edge15"><a xlink:title="usage">
<path fill="none" stroke="#1414ce" d="M477.34,-371.42C571.19,-362.49 758.89,-343.93 917.6,-324 941.42,-321.01 967.9,-317.2 989.64,-313.95"/>
<polygon fill="#1414ce" stroke="#1414ce" points="990.21,-317.4 999.58,-312.45 989.17,-310.48 990.21,-317.4"/>
</a>
</g>
</g>
<!-- 12&#45;&gt;7 -->
<g id="edge19" class="edge">
<title>12&#45;&gt;7</title>
<g id="a_edge19"><a xlink:title="usage">
<path fill="none" stroke="#1414ce" d="M413.65,-360C406,-326.03 389.36,-247.26 383.6,-180 382.24,-164.06 383.09,-159.99 383.6,-144 384.68,-110.34 387.38,-71.66 389.35,-46.35"/>
<polygon fill="#1414ce" stroke="#1414ce" points="392.84,-46.62 390.14,-36.37 385.86,-46.07 392.84,-46.62"/>
</a>
</g>
</g>
<!-- 12&#45;&gt;17 -->
<g id="edge13" class="edge">
<title>12&#45;&gt;17</title>
<g id="a_edge13"><a xlink:title="usage">
<path fill="none" stroke="#1414ce" d="M358.02,-363.5C311.4,-352.94 245.94,-338.11 193.78,-326.3"/>
<polygon fill="#1414ce" stroke="#1414ce" points="194.4,-322.85 183.87,-324.05 192.85,-329.67 194.4,-322.85"/>
</a>
</g>
</g>
<!-- 22 -->
<g id="node9" class="node">
<title>22</title>
<g id="a_node9"><a xlink:title="TimerList">
<polygon fill="#ffffff" stroke="black" points="478.6,-180 392.6,-180 392.6,-144 478.6,-144 478.6,-180"/>
<text text-anchor="middle" x="435.6" y="-158.3" font-family="Times,serif" font-size="14.00">TimerList</text>
</a>
</g>
</g>
<!-- 12&#45;&gt;22 -->
<g id="edge17" class="edge">
<title>12&#45;&gt;22</title>
<g id="a_edge17"><a xlink:title="usage">
<path fill="none" stroke="#1414ce" d="M416.73,-359.97C415.5,-330.47 414.19,-268.04 421.6,-216 422.81,-207.52 424.9,-198.45 427.1,-190.26"/>
<polygon fill="#1414ce" stroke="#1414ce" points="430.52,-191.03 429.89,-180.46 423.79,-189.11 430.52,-191.03"/>
</a>
</g>
</g>
<!-- 13 -->
<g id="node15" class="node">
<title>13</title>
<g id="a_node15"><a xlink:title="MessageQueueItem">
<polygon fill="#ffffff" stroke="black" points="890.6,-324 732.6,-324 732.6,-288 890.6,-288 890.6,-324"/>
<text text-anchor="middle" x="811.6" y="-302.3" font-family="Times,serif" font-size="14.00">MessageQueueItem</text>
</a>
</g>
</g>
<!-- 12&#45;&gt;13 -->
<g id="edge11" class="edge">
<title>12&#45;&gt;13</title>
<g id="a_edge11"><a xlink:title="usage">
<path fill="none" stroke="#1414ce" d="M477.44,-366.37C542.65,-354.78 647.66,-336.13 722.55,-322.82"/>
<polygon fill="#1414ce" stroke="#1414ce" points="723.22,-326.26 732.45,-321.06 721.99,-319.37 723.22,-326.26"/>
</a>
</g>
</g>
<!-- 21 -->
<g id="node16" class="node">
<title>21</title>
<g id="a_node16"><a xlink:title="AtomsHashTable">
<polygon fill="#ffffff" stroke="black" points="568.1,-252 431.1,-252 431.1,-216 568.1,-216 568.1,-252"/>
<text text-anchor="middle" x="499.6" y="-230.3" font-family="Times,serif" font-size="14.00">AtomsHashTable</text>
</a>
</g>
</g>
<!-- 12&#45;&gt;21 -->
<g id="edge16" class="edge">
<title>12&#45;&gt;21</title>
<g id="a_edge16"><a xlink:title="usage">
<path fill="none" stroke="#1414ce" d="M427.49,-359.87C441.71,-335.24 468.05,-289.64 484.65,-260.88"/>
<polygon fill="#1414ce" stroke="#1414ce" points="487.71,-262.6 489.68,-252.19 481.64,-259.1 487.71,-262.6"/>
</a>
</g>
</g>
<!-- 14 -->
<g id="node19" class="node">
<title>14</title>
<g id="a_node19"><a xlink:title="AtomTable">
<polygon fill="#ffffff" stroke="black" points="687.6,-324 595.6,-324 595.6,-288 687.6,-288 687.6,-324"/>
<text text-anchor="middle" x="641.6" y="-302.3" font-family="Times,serif" font-size="14.00">AtomTable</text>
</a>
</g>
</g>
<!-- 12&#45;&gt;14 -->
<g id="edge12" class="edge">
<title>12&#45;&gt;14</title>
<g id="a_edge12"><a xlink:title="usage">
<path fill="none" stroke="#1414ce" d="M472.11,-359.97C506.53,-349.21 550.88,-335.35 585.58,-324.51"/>
<polygon fill="#1414ce" stroke="#1414ce" points="587.06,-327.71 595.56,-321.39 584.97,-321.03 587.06,-327.71"/>
</a>
</g>
</g>
<!-- 12&#45;&gt;20 -->
<g id="edge14" class="edge">
<title>12&#45;&gt;20</title>
<g id="a_edge14"><a xlink:title="usage">
<path fill="none" stroke="#1414ce" d="M357.95,-368.3C325.99,-361.03 287.73,-347.82 260.6,-324 227.23,-294.7 177.62,-172.25 156.59,-117.57"/>
<polygon fill="#1414ce" stroke="#1414ce" points="159.85,-116.28 153.01,-108.19 153.31,-118.78 159.85,-116.28"/>
</a>
</g>
</g>
<!-- 16 -->
<g id="node8" class="node">
<title>16</title>
<g id="a_node8"><a xlink:title="HNodeGroup">
<polygon fill="#ffffff" stroke="black" points="696.6,-252 586.6,-252 586.6,-216 696.6,-216 696.6,-252"/>
<text text-anchor="middle" x="641.6" y="-230.3" font-family="Times,serif" font-size="14.00">HNodeGroup</text>
</a>
</g>
</g>
<!-- 16&#45;&gt;16 -->
<g id="edge21" class="edge">
<title>16&#45;&gt;16</title>
<g id="a_edge21"><a xlink:title="usage">
<path fill="none" stroke="#1414ce" d="M696.67,-246.85C707.18,-245.32 714.6,-241.03 714.6,-234 714.6,-229.5 711.55,-226.12 706.6,-223.87"/>
<polygon fill="#1414ce" stroke="#1414ce" points="707.24,-220.42 696.67,-221.15 705.39,-227.17 707.24,-220.42"/>
</a>
</g>
</g>
<!-- 15 -->
<g id="node23" class="node">
<title>15</title>
<g id="a_node23"><a xlink:title="HNode">
<polygon fill="#ffffff" stroke="black" points="674.6,-180 608.6,-180 608.6,-144 674.6,-144 674.6,-180"/>
<text text-anchor="middle" x="641.6" y="-158.3" font-family="Times,serif" font-size="14.00">HNode</text>
</a>
</g>
</g>
<!-- 16&#45;&gt;15 -->
<g id="edge20" class="edge">
<title>16&#45;&gt;15</title>
<g id="a_edge20"><a xlink:title="usage">
<path fill="none" stroke="#1414ce" d="M641.6,-215.7C641.6,-207.98 641.6,-198.71 641.6,-190.11"/>
<polygon fill="#1414ce" stroke="#1414ce" points="645.1,-190.1 641.6,-180.1 638.1,-190.1 645.1,-190.1"/>
</a>
</g>
</g>
<!-- 22&#45;&gt;7 -->
<g id="edge22" class="edge">
<title>22&#45;&gt;7</title>
<g id="a_edge22"><a xlink:title="usage">
<path fill="none" stroke="#1414ce" d="M430.29,-143.87C422.76,-119.56 408.9,-74.82 399.97,-46.01"/>
<polygon fill="#1414ce" stroke="#1414ce" points="403.23,-44.71 396.93,-36.19 396.54,-46.78 403.23,-44.71"/>
</a>
</g>
</g>
<!-- 5 -->
<g id="node11" class="node">
<title>5</title>
<g id="a_node11"><a xlink:title="MailboxMessage">
<polygon fill="#ffffff" stroke="black" points="908.1,-252 771.1,-252 771.1,-216 908.1,-216 908.1,-252"/>
<text text-anchor="middle" x="839.6" y="-230.3" font-family="Times,serif" font-size="14.00">MailboxMessage</text>
</a>
</g>
</g>
<!-- 5&#45;&gt;5 -->
<g id="edge23" class="edge">
<title>5&#45;&gt;5</title>
<g id="a_edge23"><a xlink:title="usage">
<path fill="none" stroke="#1414ce" d="M908.13,-246.37C918.81,-244.52 926.1,-240.4 926.1,-234 926.1,-229.8 922.96,-226.58 917.79,-224.34"/>
<polygon fill="#1414ce" stroke="#1414ce" points="918.7,-220.96 908.13,-221.63 916.81,-227.7 918.7,-220.96"/>
</a>
</g>
</g>
<!-- 1 -->
<g id="node12" class="node">
<title>1</title>
<g id="a_node12"><a xlink:title="Bif">
<polygon fill="#bfbfbf" stroke="black" points="1312.6,-540 1258.6,-540 1258.6,-504 1312.6,-504 1312.6,-540"/>
<text text-anchor="middle" x="1285.6" y="-518.3" font-family="Times,serif" font-size="14.00">Bif</text>
</a>
</g>
</g>
<!-- 3 -->
<g id="node14" class="node">
<title>3</title>
<g id="a_node14"><a xlink:title="Context">
<polygon fill="#ffffff" stroke="black" points="1203.1,-468 1130.1,-468 1130.1,-432 1203.1,-432 1203.1,-468"/>
<text text-anchor="middle" x="1166.6" y="-446.3" font-family="Times,serif" font-size="14.00">Context</text>
</a>
</g>
</g>
<!-- 1&#45;&gt;3 -->
<g id="edge25" class="edge">
<title>1&#45;&gt;3</title>
<g id="a_edge25"><a xlink:title="usage">
<path fill="none" stroke="#1414ce" d="M1258.6,-505.12C1242.6,-495.7 1222.08,-483.63 1204.47,-473.28"/>
<polygon fill="#1414ce" stroke="#1414ce" points="1205.97,-470.1 1195.58,-468.04 1202.42,-476.13 1205.97,-470.1"/>
</a>
</g>
</g>
<!-- 1&#45;&gt;2 -->
<g id="edge24" class="edge">
<title>1&#45;&gt;2</title>
<g id="a_edge24"><a xlink:title="usage">
<path fill="none" stroke="#1414ce" d="M1298.95,-503.98C1329.47,-462.85 1397.96,-356.45 1347.6,-288 1327.43,-260.58 1293.16,-246.94 1260.65,-240.3"/>
<polygon fill="#1414ce" stroke="#1414ce" points="1261.11,-236.83 1250.64,-238.46 1259.84,-243.71 1261.11,-236.83"/>
</a>
</g>
</g>
<!-- 10 -->
<g id="node13" class="node">
<title>10</title>
<g id="a_node13"><a xlink:title="Heap">
<polygon fill="#ffffff" stroke="black" points="1266.6,-396 1212.6,-396 1212.6,-360 1266.6,-360 1266.6,-396"/>
<text text-anchor="middle" x="1239.6" y="-374.3" font-family="Times,serif" font-size="14.00">Heap</text>
</a>
</g>
</g>
<!-- 10&#45;&gt;11 -->
<g id="edge26" class="edge">
<title>10&#45;&gt;11</title>
<g id="a_edge26"><a xlink:title="usage">
<path fill="none" stroke="#1414ce" d="M1244.05,-359.7C1246.06,-351.9 1248.47,-342.51 1250.7,-333.83"/>
<polygon fill="#1414ce" stroke="#1414ce" points="1254.1,-334.66 1253.2,-324.1 1247.32,-332.92 1254.1,-334.66"/>
</a>
</g>
</g>
<!-- 3&#45;&gt;8 -->
<g id="edge30" class="edge">
<title>3&#45;&gt;8</title>
<g id="a_edge30"><a xlink:title="usage">
<path fill="none" stroke="#1414ce" d="M1150.68,-431.87C1127.49,-406.92 1084.29,-360.45 1057.63,-331.77"/>
<polygon fill="#1414ce" stroke="#1414ce" points="1059.95,-329.13 1050.58,-324.19 1054.83,-333.9 1059.95,-329.13"/>
</a>
</g>
</g>
<!-- 3&#45;&gt;7 -->
<g id="edge33" class="edge">
<title>3&#45;&gt;7</title>
<g id="a_edge33"><a xlink:title="usage">
<path fill="none" stroke="#1414ce" d="M1163.82,-431.86C1159.66,-400.24 1155.34,-331.96 1186.6,-288 1207.56,-258.52 1240.5,-282.72 1259.6,-252 1268.05,-238.41 1269.49,-228.58 1259.6,-216 1156.81,-85.15 612.65,-35.04 442.5,-22.42"/>
<polygon fill="#1414ce" stroke="#1414ce" points="442.54,-18.92 432.31,-21.68 442.03,-25.9 442.54,-18.92"/>
</a>
</g>
</g>
<!-- 3&#45;&gt;12 -->
<g id="edge32" class="edge">
<title>3&#45;&gt;12</title>
<g id="a_edge32"><a xlink:title="usage">
<path fill="none" stroke="#1414ce" d="M1129.97,-445.58C1012.4,-434.59 643.22,-400.09 487.73,-385.55"/>
<polygon fill="#1414ce" stroke="#1414ce" points="487.64,-382.03 477.36,-384.58 486.99,-389 487.64,-382.03"/>
</a>
</g>
</g>
<!-- 3&#45;&gt;10 -->
<g id="edge31" class="edge">
<title>3&#45;&gt;10</title>
<g id="a_edge31"><a xlink:title="usage">
<path fill="none" stroke="#1414ce" d="M1184.65,-431.7C1193.66,-423.05 1204.72,-412.45 1214.54,-403.03"/>
<polygon fill="#1414ce" stroke="#1414ce" points="1216.97,-405.55 1221.76,-396.1 1212.12,-400.5 1216.97,-405.55"/>
</a>
</g>
</g>
<!-- 3&#45;&gt;3 -->
<g id="edge27" class="edge">
<title>3&#45;&gt;3</title>
<g id="a_edge27"><a xlink:title="usage">
<path fill="none" stroke="#1414ce" d="M1203.28,-463.42C1213.38,-462.77 1221.1,-458.3 1221.1,-450 1221.1,-444.81 1218.09,-441.12 1213.36,-438.93"/>
<polygon fill="#1414ce" stroke="#1414ce" points="1213.81,-435.44 1203.28,-436.58 1212.23,-442.26 1213.81,-435.44"/>
</a>
</g>
</g>
<!-- 4 -->
<g id="node18" class="node">
<title>4</title>
<g id="a_node18"><a xlink:title="Mailbox">
<polygon fill="#ffffff" stroke="black" points="1031.6,-396 957.6,-396 957.6,-360 1031.6,-360 1031.6,-396"/>
<text text-anchor="middle" x="994.6" y="-374.3" font-family="Times,serif" font-size="14.00">Mailbox</text>
</a>
</g>
</g>
<!-- 3&#45;&gt;4 -->
<g id="edge28" class="edge">
<title>3&#45;&gt;4</title>
<g id="a_edge28"><a xlink:title="usage">
<path fill="none" stroke="#1414ce" d="M1129.7,-433.98C1103.83,-423.45 1069.04,-409.3 1041.25,-397.98"/>
<polygon fill="#1414ce" stroke="#1414ce" points="1042.32,-394.64 1031.73,-394.11 1039.68,-401.12 1042.32,-394.64"/>
</a>
</g>
</g>
<!-- 6 -->
<g id="node21" class="node">
<title>6</title>
<g id="a_node21"><a xlink:title="TimerListItem">
<polygon fill="#ffffff" stroke="black" points="1426.1,-108 1307.1,-108 1307.1,-72 1426.1,-72 1426.1,-108"/>
<text text-anchor="middle" x="1366.6" y="-86.3" font-family="Times,serif" font-size="14.00">TimerListItem</text>
</a>
</g>
</g>
<!-- 3&#45;&gt;6 -->
<g id="edge29" class="edge">
<title>3&#45;&gt;6</title>
<g id="a_edge29"><a xlink:title="usage">
<path fill="none" stroke="#1414ce" d="M1203.28,-440.72C1261.02,-425.28 1366.6,-386.21 1366.6,-307 1366.6,-307 1366.6,-307 1366.6,-233 1366.6,-193 1366.6,-146.65 1366.6,-118.08"/>
<polygon fill="#1414ce" stroke="#1414ce" points="1370.1,-118.05 1366.6,-108.05 1363.1,-118.05 1370.1,-118.05"/>
</a>
</g>
</g>
<!-- 13&#45;&gt;5 -->
<g id="edge34" class="edge">
<title>13&#45;&gt;5</title>
<g id="a_edge34"><a xlink:title="usage">
<path fill="none" stroke="#1414ce" d="M818.52,-287.7C821.68,-279.81 825.48,-270.3 828.98,-261.55"/>
<polygon fill="#1414ce" stroke="#1414ce" points="832.3,-262.69 832.76,-252.1 825.8,-260.09 832.3,-262.69"/>
</a>
</g>
</g>
<!-- 13&#45;&gt;13 -->
<g id="edge35" class="edge">
<title>13&#45;&gt;13</title>
<g id="a_edge35"><a xlink:title="usage">
<path fill="none" stroke="#1414ce" d="M890.76,-317.98C901.47,-315.97 908.6,-311.98 908.6,-306 908.6,-302.08 905.53,-299.01 900.39,-296.8"/>
<polygon fill="#1414ce" stroke="#1414ce" points="901.34,-293.43 890.76,-294.02 899.4,-300.15 901.34,-293.43"/>
</a>
</g>
</g>
<!-- 21&#45;&gt;15 -->
<g id="edge36" class="edge">
<title>21&#45;&gt;15</title>
<g id="a_edge36"><a xlink:title="usage">
<path fill="none" stroke="#1414ce" d="M534.34,-215.88C553.85,-206.26 578.35,-194.18 599.01,-184"/>
<polygon fill="#1414ce" stroke="#1414ce" points="600.78,-187.03 608.2,-179.47 597.68,-180.75 600.78,-187.03"/>
</a>
</g>
</g>
<!-- 18&#45;&gt;19 -->
<g id="edge37" class="edge">
<title>18&#45;&gt;19</title>
<g id="a_edge37"><a xlink:title="usage">
<path fill="none" stroke="#1414ce" d="M106.13,-215.7C105.03,-207.98 103.7,-198.71 102.47,-190.11"/>
<polygon fill="#1414ce" stroke="#1414ce" points="105.92,-189.51 101.04,-180.1 98.99,-190.5 105.92,-189.51"/>
</a>
</g>
</g>
<!-- 18&#45;&gt;7 -->
<g id="edge38" class="edge">
<title>18&#45;&gt;7</title>
<g id="a_edge38"><a xlink:title="usage">
<path fill="none" stroke="#1414ce" d="M131.28,-215.85C181.68,-177.74 303.07,-85.95 360.49,-42.52"/>
<polygon fill="#1414ce" stroke="#1414ce" points="362.95,-45.06 368.81,-36.23 358.73,-39.47 362.95,-45.06"/>
</a>
</g>
</g>
<!-- 4&#45;&gt;5 -->
<g id="edge39" class="edge">
<title>4&#45;&gt;5</title>
<g id="a_edge39"><a xlink:title="usage">
<path fill="none" stroke="#1414ce" d="M981.88,-359.75C967.49,-340.91 942.79,-310.41 917.6,-288 905.26,-277.02 890.53,-266.46 877.21,-257.7"/>
<polygon fill="#1414ce" stroke="#1414ce" points="879.01,-254.69 868.7,-252.21 875.21,-260.57 879.01,-254.69"/>
</a>
</g>
</g>
<!-- 14&#45;&gt;16 -->
<g id="edge41" class="edge">
<title>14&#45;&gt;16</title>
<g id="a_edge41"><a xlink:title="usage">
<path fill="none" stroke="#1414ce" d="M641.6,-287.7C641.6,-279.98 641.6,-270.71 641.6,-262.11"/>
<polygon fill="#1414ce" stroke="#1414ce" points="645.1,-262.1 641.6,-252.1 638.1,-262.1 645.1,-262.1"/>
</a>
</g>
</g>
<!-- 14&#45;&gt;15 -->
<g id="edge40" class="edge">
<title>14&#45;&gt;15</title>
<g id="a_edge40"><a xlink:title="usage">
<path fill="none" stroke="#1414ce" d="M684.22,-287.99C699.48,-279.58 715.01,-267.78 723.6,-252 731.25,-237.95 731.25,-230.05 723.6,-216 714.93,-200.07 699.18,-188.2 683.79,-179.77"/>
<polygon fill="#1414ce" stroke="#1414ce" points="685.32,-176.63 674.82,-175.21 682.14,-182.86 685.32,-176.63"/>
</a>
</g>
</g>
<!-- 6&#45;&gt;7 -->
<g id="edge42" class="edge">
<title>6&#45;&gt;7</title>
<g id="a_edge42"><a xlink:title="usage">
<path fill="none" stroke="#1414ce" d="M1306.99,-74.4C1302.14,-73.49 1297.3,-72.67 1292.6,-72 971.36,-25.98 580.2,-19.73 442.49,-19.03"/>
<polygon fill="#1414ce" stroke="#1414ce" points="442.27,-15.52 432.25,-18.98 442.24,-22.52 442.27,-15.52"/>
</a>
</g>
</g>
<!-- 20&#45;&gt;7 -->
<g id="edge43" class="edge">
<title>20&#45;&gt;7</title>
<g id="a_edge43"><a xlink:title="usage">
<path fill="none" stroke="#1414ce" d="M185.62,-76.28C190.32,-74.81 195.06,-73.35 199.6,-72 247.36,-57.76 302.2,-42.75 341.01,-32.36"/>
<polygon fill="#1414ce" stroke="#1414ce" points="342.25,-35.65 351.01,-29.69 340.45,-28.89 342.25,-35.65"/>
</a>
</g>
</g>
<!-- 15&#45;&gt;15 -->
<g id="edge44" class="edge">
<title>15&#45;&gt;15</title>
<g id="a_edge44"><a xlink:title="usage">
<path fill="none" stroke="#1414ce" d="M674.96,-175.47C684.88,-175.07 692.6,-170.58 692.6,-162 692.6,-156.64 689.58,-152.87 684.9,-150.71"/>
<polygon fill="#1414ce" stroke="#1414ce" points="685.47,-147.25 674.96,-148.53 683.98,-154.09 685.47,-147.25"/>
</a>
</g>
</g>
</g>
</svg>
