<?xml version="1.0" encoding="UTF-8" standalone="no"?>
<!DOCTYPE svg PUBLIC "-//W3C//DTD SVG 1.1//EN"
 "http://www.w3.org/Graphics/SVG/1.1/DTD/svg11.dtd">
<!-- Generated by graphviz version 2.43.0 (0)
 -->
<!-- Title: %3 Pages: 1 -->
<svg width="1363pt" height="404pt"
 viewBox="0.00 0.00 1363.00 404.00" xmlns="http://www.w3.org/2000/svg" xmlns:xlink="http://www.w3.org/1999/xlink">
<g id="graph0" class="graph" transform="scale(1 1) rotate(0) translate(4 400)">
<title>%3</title>
<polygon fill="transparent" stroke="transparent" points="-4,4 -4,-400 1359,-400 1359,4 -4,4"/>
<!-- 19 -->
<g id="node1" class="node">
<title>19</title>
<g id="a_node1"><a xlink:title="SpinLock">
<polygon fill="#ffffff" stroke="black" points="1355,-324 1273,-324 1273,-288 1355,-288 1355,-324"/>
<text text-anchor="middle" x="1314" y="-302.3" font-family="Times,serif" font-size="14.00">SpinLock</text>
</a>
</g>
</g>
<!-- 3 -->
<g id="node2" class="node">
<title>3</title>
<g id="a_node2"><a xlink:title="ResourceType">
<polygon fill="#ffffff" stroke="black" points="255.5,-180 138.5,-180 138.5,-144 255.5,-144 255.5,-180"/>
<text text-anchor="middle" x="197" y="-158.3" font-family="Times,serif" font-size="14.00">ResourceType</text>
</a>
</g>
</g>
<!-- 5 -->
<g id="node4" class="node">
<title>5</title>
<g id="a_node4"><a xlink:title="ListHead">
<polygon fill="#ffffff" stroke="black" points="472.5,-36 391.5,-36 391.5,0 472.5,0 472.5,-36"/>
<text text-anchor="middle" x="432" y="-14.3" font-family="Times,serif" font-size="14.00">ListHead</text>
</a>
</g>
</g>
<!-- 3&#45;&gt;5 -->
<g id="edge3" class="edge">
<title>3&#45;&gt;5</title>
<g id="a_edge3"><a xlink:title="usage">
<path fill="none" stroke="#1414ce" d="M199.89,-143.95C204.2,-123.82 214.27,-90.71 236,-72 276.55,-37.08 337.95,-24.94 381.19,-20.84"/>
<polygon fill="#1414ce" stroke="#1414ce" points="381.55,-24.32 391.23,-20 380.97,-17.34 381.55,-24.32"/>
</a>
</g>
</g>
<!-- 6 -->
<g id="node6" class="node">
<title>6</title>
<g id="a_node6"><a xlink:title="GlobalContext">
<polygon fill="#ffffff" stroke="black" points="617.5,-396 498.5,-396 498.5,-360 617.5,-360 617.5,-396"/>
<text text-anchor="middle" x="558" y="-374.3" font-family="Times,serif" font-size="14.00">GlobalContext</text>
</a>
</g>
</g>
<!-- 3&#45;&gt;6 -->
<g id="edge2" class="edge">
<title>3&#45;&gt;6</title>
<g id="a_edge2"><a xlink:title="usage">
<path fill="none" stroke="#1414ce" d="M196.51,-180.15C196.56,-213.36 201.79,-286.46 244,-324 279.21,-355.32 406.74,-368.43 488.05,-373.69"/>
<polygon fill="#1414ce" stroke="#1414ce" points="488.01,-377.2 498.21,-374.32 488.45,-370.21 488.01,-377.2"/>
</a>
</g>
</g>
<!-- 4 -->
<g id="node18" class="node">
<title>4</title>
<g id="a_node18"><a xlink:title="SyncList">
<polygon fill="#ffffff" stroke="black" points="323,-108 245,-108 245,-72 323,-72 323,-108"/>
<text text-anchor="middle" x="284" y="-86.3" font-family="Times,serif" font-size="14.00">SyncList</text>
</a>
</g>
</g>
<!-- 3&#45;&gt;4 -->
<g id="edge1" class="edge">
<title>3&#45;&gt;4</title>
<g id="a_edge1"><a xlink:title="usage">
<path fill="none" stroke="#1414ce" d="M218.51,-143.7C229.46,-134.88 242.95,-124.03 254.82,-114.47"/>
<polygon fill="#1414ce" stroke="#1414ce" points="257.14,-117.1 262.74,-108.1 252.76,-111.65 257.14,-117.1"/>
</a>
</g>
</g>
<!-- 14 -->
<g id="node3" class="node">
<title>14</title>
<g id="a_node3"><a xlink:title="Module">
<polygon fill="#ffffff" stroke="black" points="679,-324 609,-324 609,-288 679,-288 679,-324"/>
<text text-anchor="middle" x="644" y="-302.3" font-family="Times,serif" font-size="14.00">Module</text>
</a>
</g>
</g>
<!-- 14&#45;&gt;5 -->
<g id="edge6" class="edge">
<title>14&#45;&gt;5</title>
<g id="a_edge6"><a xlink:title="usage">
<path fill="none" stroke="#1414ce" d="M665.27,-287.7C675.11,-278.31 685.76,-265.8 691,-252 696.68,-237.04 695.71,-231.29 691,-216 668.21,-142.01 654.83,-118.58 593,-72 560.73,-47.69 516.76,-34.21 482.93,-26.94"/>
<polygon fill="#1414ce" stroke="#1414ce" points="483.28,-23.44 472.78,-24.87 481.88,-30.3 483.28,-23.44"/>
</a>
</g>
</g>
<!-- 16 -->
<g id="node9" class="node">
<title>16</title>
<g id="a_node9"><a xlink:title="LiteralEntry">
<polygon fill="#ffffff" stroke="black" points="842,-252 738,-252 738,-216 842,-216 842,-252"/>
<text text-anchor="middle" x="790" y="-230.3" font-family="Times,serif" font-size="14.00">LiteralEntry</text>
</a>
</g>
</g>
<!-- 14&#45;&gt;16 -->
<g id="edge5" class="edge">
<title>14&#45;&gt;16</title>
<g id="a_edge5"><a xlink:title="usage">
<path fill="none" stroke="#1414ce" d="M679.34,-288.05C699.19,-278.54 724.15,-266.57 745.35,-256.41"/>
<polygon fill="#1414ce" stroke="#1414ce" points="746.97,-259.51 754.48,-252.03 743.95,-253.2 746.97,-259.51"/>
</a>
</g>
</g>
<!-- 15 -->
<g id="node17" class="node">
<title>15</title>
<g id="a_node17"><a xlink:title="ExportedFunction">
<polygon fill="#ffffff" stroke="black" points="682,-252 536,-252 536,-216 682,-216 682,-252"/>
<text text-anchor="middle" x="609" y="-230.3" font-family="Times,serif" font-size="14.00">ExportedFunction</text>
</a>
</g>
</g>
<!-- 14&#45;&gt;15 -->
<g id="edge4" class="edge">
<title>14&#45;&gt;15</title>
<g id="a_edge4"><a xlink:title="usage">
<path fill="none" stroke="#1414ce" d="M635.35,-287.7C631.36,-279.73 626.55,-270.1 622.13,-261.26"/>
<polygon fill="#1414ce" stroke="#1414ce" points="625.15,-259.48 617.55,-252.1 618.89,-262.61 625.15,-259.48"/>
</a>
</g>
</g>
<!-- 5&#45;&gt;5 -->
<g id="edge7" class="edge">
<title>5&#45;&gt;5</title>
<g id="a_edge7"><a xlink:title="usage">
<path fill="none" stroke="#1414ce" d="M472.73,-31.31C482.9,-30.38 490.5,-25.95 490.5,-18 490.5,-12.91 487.38,-9.26 482.47,-7.05"/>
<polygon fill="#1414ce" stroke="#1414ce" points="483.28,-3.64 472.73,-4.69 481.63,-10.45 483.28,-3.64"/>
</a>
</g>
</g>
<!-- 12 -->
<g id="node5" class="node">
<title>12</title>
<g id="a_node5"><a xlink:title="RefcBinaryQueueItem">
<polygon fill="#ffffff" stroke="black" points="174,-324 0,-324 0,-288 174,-288 174,-324"/>
<text text-anchor="middle" x="87" y="-302.3" font-family="Times,serif" font-size="14.00">RefcBinaryQueueItem</text>
</a>
</g>
</g>
<!-- 12&#45;&gt;12 -->
<g id="edge9" class="edge">
<title>12&#45;&gt;12</title>
<g id="a_edge9"><a xlink:title="usage">
<path fill="none" stroke="#1414ce" d="M174.3,-317.68C184.99,-315.59 192,-311.7 192,-306 192,-302.35 189.12,-299.44 184.25,-297.27"/>
<polygon fill="#1414ce" stroke="#1414ce" points="184.88,-293.81 174.3,-294.32 182.89,-300.52 184.88,-293.81"/>
</a>
</g>
</g>
<!-- 13 -->
<g id="node13" class="node">
<title>13</title>
<g id="a_node13"><a xlink:title="RefcBinary">
<polygon fill="#ffffff" stroke="black" points="157.5,-252 62.5,-252 62.5,-216 157.5,-216 157.5,-252"/>
<text text-anchor="middle" x="110" y="-230.3" font-family="Times,serif" font-size="14.00">RefcBinary</text>
</a>
</g>
</g>
<!-- 12&#45;&gt;13 -->
<g id="edge8" class="edge">
<title>12&#45;&gt;13</title>
<g id="a_edge8"><a xlink:title="usage">
<path fill="none" stroke="#1414ce" d="M92.69,-287.7C95.25,-279.9 98.33,-270.51 101.18,-261.83"/>
<polygon fill="#1414ce" stroke="#1414ce" points="104.58,-262.7 104.38,-252.1 97.93,-260.51 104.58,-262.7"/>
</a>
</g>
</g>
<!-- 6&#45;&gt;19 -->
<g id="edge17" class="edge">
<title>6&#45;&gt;19</title>
<g id="a_edge17"><a xlink:title="usage">
<path fill="none" stroke="#1414ce" d="M617.74,-377.57C738.57,-377.64 1020.41,-372.27 1262.7,-323.96"/>
<polygon fill="#1414ce" stroke="#1414ce" points="1263.64,-327.34 1272.75,-321.92 1262.26,-320.47 1263.64,-327.34"/>
</a>
</g>
</g>
<!-- 6&#45;&gt;14 -->
<g id="edge14" class="edge">
<title>6&#45;&gt;14</title>
<g id="a_edge14"><a xlink:title="usage">
<path fill="none" stroke="#1414ce" d="M579.26,-359.7C590.09,-350.88 603.42,-340.03 615.16,-330.47"/>
<polygon fill="#1414ce" stroke="#1414ce" points="617.44,-333.13 622.99,-324.1 613.02,-327.7 617.44,-333.13"/>
</a>
</g>
</g>
<!-- 6&#45;&gt;5 -->
<g id="edge18" class="edge">
<title>6&#45;&gt;5</title>
<g id="a_edge18"><a xlink:title="usage">
<path fill="none" stroke="#1414ce" d="M538.47,-359.86C512.54,-335.11 470,-286.63 470,-235 470,-235 470,-235 470,-161 470,-119.63 454.77,-73.72 443.59,-45.61"/>
<polygon fill="#1414ce" stroke="#1414ce" points="446.72,-44.02 439.69,-36.09 440.24,-46.67 446.72,-44.02"/>
</a>
</g>
</g>
<!-- 6&#45;&gt;12 -->
<g id="edge12" class="edge">
<title>6&#45;&gt;12</title>
<g id="a_edge12"><a xlink:title="usage">
<path fill="none" stroke="#1414ce" d="M498.35,-368.13C419.29,-356.39 278.82,-335.51 184.3,-321.46"/>
<polygon fill="#1414ce" stroke="#1414ce" points="184.56,-317.96 174.16,-319.95 183.53,-324.89 184.56,-317.96"/>
</a>
</g>
</g>
<!-- 18 -->
<g id="node8" class="node">
<title>18</title>
<g id="a_node8"><a xlink:title="TimerList">
<polygon fill="#ffffff" stroke="black" points="584,-108 498,-108 498,-72 584,-72 584,-108"/>
<text text-anchor="middle" x="541" y="-86.3" font-family="Times,serif" font-size="14.00">TimerList</text>
</a>
</g>
</g>
<!-- 6&#45;&gt;18 -->
<g id="edge16" class="edge">
<title>6&#45;&gt;18</title>
<g id="a_edge16"><a xlink:title="usage">
<path fill="none" stroke="#1414ce" d="M552.34,-359.86C544.78,-336 531.8,-291.28 527,-252 521.28,-205.21 529.1,-150.49 535.15,-118.4"/>
<polygon fill="#1414ce" stroke="#1414ce" points="538.61,-118.92 537.11,-108.43 531.75,-117.57 538.61,-118.92"/>
</a>
</g>
</g>
<!-- 7 -->
<g id="node11" class="node">
<title>7</title>
<g id="a_node11"><a xlink:title="MessageQueueItem">
<polygon fill="#ffffff" stroke="black" points="949,-324 791,-324 791,-288 949,-288 949,-324"/>
<text text-anchor="middle" x="870" y="-302.3" font-family="Times,serif" font-size="14.00">MessageQueueItem</text>
</a>
</g>
</g>
<!-- 6&#45;&gt;7 -->
<g id="edge10" class="edge">
<title>6&#45;&gt;7</title>
<g id="a_edge10"><a xlink:title="usage">
<path fill="none" stroke="#1414ce" d="M617.79,-363.59C664.91,-353.01 731.26,-338.13 784.07,-326.28"/>
<polygon fill="#1414ce" stroke="#1414ce" points="785.12,-329.63 794.11,-324.03 783.59,-322.8 785.12,-329.63"/>
</a>
</g>
</g>
<!-- 17 -->
<g id="node12" class="node">
<title>17</title>
<g id="a_node12"><a xlink:title="AtomsHashTable">
<polygon fill="#ffffff" stroke="black" points="1170.5,-252 1033.5,-252 1033.5,-216 1170.5,-216 1170.5,-252"/>
<text text-anchor="middle" x="1102" y="-230.3" font-family="Times,serif" font-size="14.00">AtomsHashTable</text>
</a>
</g>
</g>
<!-- 6&#45;&gt;17 -->
<g id="edge15" class="edge">
<title>6&#45;&gt;17</title>
<g id="a_edge15"><a xlink:title="usage">
<path fill="none" stroke="#1414ce" d="M617.64,-373.01C717.04,-365.77 911.99,-348.87 976,-324 1014.58,-309.01 1052.49,-279.69 1076.49,-258.8"/>
<polygon fill="#1414ce" stroke="#1414ce" points="1078.92,-261.32 1084.07,-252.07 1074.27,-256.09 1078.92,-261.32"/>
</a>
</g>
</g>
<!-- 9 -->
<g id="node16" class="node">
<title>9</title>
<g id="a_node16"><a xlink:title="AtomTable">
<polygon fill="#ffffff" stroke="black" points="1255,-324 1163,-324 1163,-288 1255,-288 1255,-324"/>
<text text-anchor="middle" x="1209" y="-302.3" font-family="Times,serif" font-size="14.00">AtomTable</text>
</a>
</g>
</g>
<!-- 6&#45;&gt;9 -->
<g id="edge11" class="edge">
<title>6&#45;&gt;9</title>
<g id="a_edge11"><a xlink:title="usage">
<path fill="none" stroke="#1414ce" d="M617.56,-371.54C714.55,-362.51 912.62,-343.52 1080,-324 1103.84,-321.22 1130.1,-317.82 1152.68,-314.79"/>
<polygon fill="#1414ce" stroke="#1414ce" points="1153.33,-318.24 1162.77,-313.43 1152.39,-311.3 1153.33,-318.24"/>
</a>
</g>
</g>
<!-- 6&#45;&gt;4 -->
<g id="edge13" class="edge">
<title>6&#45;&gt;4</title>
<g id="a_edge13"><a xlink:title="usage">
<path fill="none" stroke="#1414ce" d="M498.41,-373.03C428.17,-367.08 317.39,-353.24 289,-324 261.32,-295.49 273.17,-173.58 280.19,-118.37"/>
<polygon fill="#1414ce" stroke="#1414ce" points="283.68,-118.63 281.51,-108.26 276.74,-117.72 283.68,-118.63"/>
</a>
</g>
</g>
<!-- 11 -->
<g id="node7" class="node">
<title>11</title>
<g id="a_node7"><a xlink:title="HNodeGroup">
<polygon fill="#ffffff" stroke="black" points="1299,-252 1189,-252 1189,-216 1299,-216 1299,-252"/>
<text text-anchor="middle" x="1244" y="-230.3" font-family="Times,serif" font-size="14.00">HNodeGroup</text>
</a>
</g>
</g>
<!-- 11&#45;&gt;11 -->
<g id="edge20" class="edge">
<title>11&#45;&gt;11</title>
<g id="a_edge20"><a xlink:title="usage">
<path fill="none" stroke="#1414ce" d="M1299.07,-246.85C1309.57,-245.32 1317,-241.03 1317,-234 1317,-229.5 1313.95,-226.12 1309,-223.87"/>
<polygon fill="#1414ce" stroke="#1414ce" points="1309.64,-220.42 1299.07,-221.15 1307.79,-227.17 1309.64,-220.42"/>
</a>
</g>
</g>
<!-- 10 -->
<g id="node19" class="node">
<title>10</title>
<g id="a_node19"><a xlink:title="HNode">
<polygon fill="#ffffff" stroke="black" points="1277,-180 1211,-180 1211,-144 1277,-144 1277,-180"/>
<text text-anchor="middle" x="1244" y="-158.3" font-family="Times,serif" font-size="14.00">HNode</text>
</a>
</g>
</g>
<!-- 11&#45;&gt;10 -->
<g id="edge19" class="edge">
<title>11&#45;&gt;10</title>
<g id="a_edge19"><a xlink:title="usage">
<path fill="none" stroke="#1414ce" d="M1244,-215.7C1244,-207.98 1244,-198.71 1244,-190.11"/>
<polygon fill="#1414ce" stroke="#1414ce" points="1247.5,-190.1 1244,-180.1 1240.5,-190.1 1247.5,-190.1"/>
</a>
</g>
</g>
<!-- 18&#45;&gt;5 -->
<g id="edge21" class="edge">
<title>18&#45;&gt;5</title>
<g id="a_edge21"><a xlink:title="usage">
<path fill="none" stroke="#1414ce" d="M514.34,-71.88C500.22,-62.81 482.69,-51.55 467.44,-41.76"/>
<polygon fill="#1414ce" stroke="#1414ce" points="469.07,-38.65 458.77,-36.19 465.29,-44.54 469.07,-38.65"/>
</a>
</g>
</g>
<!-- 8 -->
<g id="node10" class="node">
<title>8</title>
<g id="a_node10"><a xlink:title="MailboxMessage">
<polygon fill="#ffffff" stroke="black" points="997.5,-252 860.5,-252 860.5,-216 997.5,-216 997.5,-252"/>
<text text-anchor="middle" x="929" y="-230.3" font-family="Times,serif" font-size="14.00">MailboxMessage</text>
</a>
</g>
</g>
<!-- 8&#45;&gt;8 -->
<g id="edge22" class="edge">
<title>8&#45;&gt;8</title>
<g id="a_edge22"><a xlink:title="usage">
<path fill="none" stroke="#1414ce" d="M997.53,-246.37C1008.21,-244.52 1015.5,-240.4 1015.5,-234 1015.5,-229.8 1012.36,-226.58 1007.18,-224.34"/>
<polygon fill="#1414ce" stroke="#1414ce" points="1008.1,-220.96 997.53,-221.63 1006.21,-227.7 1008.1,-220.96"/>
</a>
</g>
</g>
<!-- 7&#45;&gt;8 -->
<g id="edge23" class="edge">
<title>7&#45;&gt;8</title>
<g id="a_edge23"><a xlink:title="usage">
<path fill="none" stroke="#1414ce" d="M884.58,-287.7C891.66,-279.3 900.28,-269.07 908.05,-259.86"/>
<polygon fill="#1414ce" stroke="#1414ce" points="910.81,-262.01 914.58,-252.1 905.46,-257.49 910.81,-262.01"/>
</a>
</g>
</g>
<!-- 7&#45;&gt;7 -->
<g id="edge24" class="edge">
<title>7&#45;&gt;7</title>
<g id="a_edge24"><a xlink:title="usage">
<path fill="none" stroke="#1414ce" d="M949.16,-317.98C959.87,-315.97 967,-311.98 967,-306 967,-302.08 963.93,-299.01 958.79,-296.8"/>
<polygon fill="#1414ce" stroke="#1414ce" points="959.74,-293.43 949.16,-294.02 957.8,-300.15 959.74,-293.43"/>
</a>
</g>
</g>
<!-- 17&#45;&gt;10 -->
<g id="edge25" class="edge">
<title>17&#45;&gt;10</title>
<g id="a_edge25"><a xlink:title="usage">
<path fill="none" stroke="#1414ce" d="M1136.74,-215.88C1156.25,-206.26 1180.75,-194.18 1201.41,-184"/>
<polygon fill="#1414ce" stroke="#1414ce" points="1203.18,-187.03 1210.6,-179.47 1200.08,-180.75 1203.18,-187.03"/>
</a>
</g>
</g>
<!-- 13&#45;&gt;3 -->
<g id="edge26" class="edge">
<title>13&#45;&gt;3</title>
<g id="a_edge26"><a xlink:title="usage">
<path fill="none" stroke="#1414ce" d="M131.51,-215.7C142.46,-206.88 155.95,-196.03 167.82,-186.47"/>
<polygon fill="#1414ce" stroke="#1414ce" points="170.14,-189.1 175.74,-180.1 165.76,-183.65 170.14,-189.1"/>
</a>
</g>
</g>
<!-- 13&#45;&gt;5 -->
<g id="edge27" class="edge">
<title>13&#45;&gt;5</title>
<g id="a_edge27"><a xlink:title="usage">
<path fill="none" stroke="#1414ce" d="M110.55,-215.81C111.83,-197.02 115.95,-166.57 129,-144 152.94,-102.59 166.64,-94.22 209,-72 263.83,-43.24 334.38,-29.86 381.29,-23.79"/>
<polygon fill="#1414ce" stroke="#1414ce" points="381.72,-27.27 391.22,-22.57 380.87,-20.32 381.72,-27.27"/>
</a>
</g>
</g>
<!-- 2 -->
<g id="node14" class="node">
<title>2</title>
<g id="a_node14"><a xlink:title="ErlNifMonitor">
<polygon fill="#ffffff" stroke="black" points="403.5,-252 286.5,-252 286.5,-216 403.5,-216 403.5,-252"/>
<text text-anchor="middle" x="345" y="-230.3" font-family="Times,serif" font-size="14.00">ErlNifMonitor</text>
</a>
</g>
</g>
<!-- 2&#45;&gt;3 -->
<g id="edge28" class="edge">
<title>2&#45;&gt;3</title>
<g id="a_edge28"><a xlink:title="usage">
<path fill="none" stroke="#1414ce" d="M308.8,-215.88C288.74,-206.39 263.63,-194.51 242.29,-184.42"/>
<polygon fill="#1414ce" stroke="#1414ce" points="243.62,-181.18 233.09,-180.07 240.63,-187.51 243.62,-181.18"/>
</a>
</g>
</g>
<!-- 1 -->
<g id="node15" class="node">
<title>1</title>
<g id="a_node15"><a xlink:title="SocketResource">
<polygon fill="#bfbfbf" stroke="black" points="429.5,-324 298.5,-324 298.5,-288 429.5,-288 429.5,-324"/>
<text text-anchor="middle" x="364" y="-302.3" font-family="Times,serif" font-size="14.00">SocketResource</text>
</a>
</g>
</g>
<!-- 1&#45;&gt;5 -->
<g id="edge30" class="edge">
<title>1&#45;&gt;5</title>
<g id="a_edge30"><a xlink:title="usage">
<path fill="none" stroke="#1414ce" d="M385.21,-287.58C395.13,-278.16 406.05,-265.66 412,-252 442.11,-182.88 439.06,-91.44 435.12,-46.43"/>
<polygon fill="#1414ce" stroke="#1414ce" points="438.58,-45.9 434.14,-36.28 431.61,-46.57 438.58,-45.9"/>
</a>
</g>
</g>
<!-- 1&#45;&gt;2 -->
<g id="edge29" class="edge">
<title>1&#45;&gt;2</title>
<g id="a_edge29"><a xlink:title="usage">
<path fill="none" stroke="#1414ce" d="M359.3,-287.7C357.19,-279.9 354.64,-270.51 352.28,-261.83"/>
<polygon fill="#1414ce" stroke="#1414ce" points="355.64,-260.84 349.64,-252.1 348.88,-262.67 355.64,-260.84"/>
</a>
</g>
</g>
<!-- 9&#45;&gt;11 -->
<g id="edge32" class="edge">
<title>9&#45;&gt;11</title>
<g id="a_edge32"><a xlink:title="usage">
<path fill="none" stroke="#1414ce" d="M1217.65,-287.7C1221.64,-279.73 1226.45,-270.1 1230.87,-261.26"/>
<polygon fill="#1414ce" stroke="#1414ce" points="1234.11,-262.61 1235.45,-252.1 1227.85,-259.48 1234.11,-262.61"/>
</a>
</g>
</g>
<!-- 9&#45;&gt;10 -->
<g id="edge31" class="edge">
<title>9&#45;&gt;10</title>
<g id="a_edge31"><a xlink:title="usage">
<path fill="none" stroke="#1414ce" d="M1255.03,-289.96C1284.07,-279.43 1317.63,-264.98 1326,-252 1334.67,-238.55 1333.65,-230.05 1326,-216 1317.33,-200.07 1301.58,-188.2 1286.19,-179.77"/>
<polygon fill="#1414ce" stroke="#1414ce" points="1287.72,-176.63 1277.22,-175.21 1284.54,-182.86 1287.72,-176.63"/>
</a>
</g>
</g>
<!-- 4&#45;&gt;5 -->
<g id="edge33" class="edge">
<title>4&#45;&gt;5</title>
<g id="a_edge33"><a xlink:title="usage">
<path fill="none" stroke="#1414ce" d="M320.2,-71.88C340.26,-62.39 365.37,-50.51 386.71,-40.42"/>
<polygon fill="#1414ce" stroke="#1414ce" points="388.37,-43.51 395.91,-36.07 385.38,-37.18 388.37,-43.51"/>
</a>
</g>
</g>
<!-- 10&#45;&gt;10 -->
<g id="edge34" class="edge">
<title>10&#45;&gt;10</title>
<g id="a_edge34"><a xlink:title="usage">
<path fill="none" stroke="#1414ce" d="M1277.35,-175.47C1287.28,-175.07 1295,-170.58 1295,-162 1295,-156.64 1291.98,-152.87 1287.3,-150.71"/>
<polygon fill="#1414ce" stroke="#1414ce" points="1287.87,-147.25 1277.35,-148.53 1286.37,-154.09 1287.87,-147.25"/>
</a>
</g>
</g>
</g>
</svg>
