<?xml version="1.0" encoding="UTF-8" standalone="no"?>
<!DOCTYPE svg PUBLIC "-//W3C//DTD SVG 1.1//EN"
 "http://www.w3.org/Graphics/SVG/1.1/DTD/svg11.dtd">
<!-- Generated by graphviz version 2.43.0 (0)
 -->
<!-- Title: %3 Pages: 1 -->
<svg width="1580pt" height="548pt"
 viewBox="0.00 0.00 1579.50 548.00" xmlns="http://www.w3.org/2000/svg" xmlns:xlink="http://www.w3.org/1999/xlink">
<g id="graph0" class="graph" transform="scale(1 1) rotate(0) translate(4 544)">
<title>%3</title>
<polygon fill="transparent" stroke="transparent" points="-4,4 -4,-544 1575.5,-544 1575.5,4 -4,4"/>
<!-- 23 -->
<g id="node1" class="node">
<title>23</title>
<g id="a_node1"><a xlink:title="SpinLock">
<polygon fill="#ffffff" stroke="black" points="822,-324 740,-324 740,-288 822,-288 822,-324"/>
<text text-anchor="middle" x="781" y="-302.3" font-family="Times,serif" font-size="14.00">SpinLock</text>
</a>
</g>
</g>
<!-- 19 -->
<g id="node2" class="node">
<title>19</title>
<g id="a_node2"><a xlink:title="ResourceType">
<polygon fill="#ffffff" stroke="black" points="918.5,-180 801.5,-180 801.5,-144 918.5,-144 918.5,-180"/>
<text text-anchor="middle" x="860" y="-158.3" font-family="Times,serif" font-size="14.00">ResourceType</text>
</a>
</g>
</g>
<!-- 6 -->
<g id="node4" class="node">
<title>6</title>
<g id="a_node4"><a xlink:title="ListHead">
<polygon fill="#ffffff" stroke="black" points="977.5,-36 896.5,-36 896.5,0 977.5,0 977.5,-36"/>
<text text-anchor="middle" x="937" y="-14.3" font-family="Times,serif" font-size="14.00">ListHead</text>
</a>
</g>
</g>
<!-- 19&#45;&gt;6 -->
<g id="edge3" class="edge">
<title>19&#45;&gt;6</title>
<g id="a_edge3"><a xlink:title="usage">
<path fill="none" stroke="#1414ce" d="M874.43,-143.55C882.3,-133.53 891.86,-120.5 899,-108 910.41,-88.03 920.48,-63.97 927.38,-45.9"/>
<polygon fill="#1414ce" stroke="#1414ce" points="930.75,-46.88 930.98,-36.29 924.2,-44.43 930.75,-46.88"/>
</a>
</g>
</g>
<!-- 12 -->
<g id="node7" class="node">
<title>12</title>
<g id="a_node7"><a xlink:title="GlobalContext">
<polygon fill="#ffffff" stroke="black" points="840.5,-396 721.5,-396 721.5,-360 840.5,-360 840.5,-396"/>
<text text-anchor="middle" x="781" y="-374.3" font-family="Times,serif" font-size="14.00">GlobalContext</text>
</a>
</g>
</g>
<!-- 19&#45;&gt;12 -->
<g id="edge2" class="edge">
<title>19&#45;&gt;12</title>
<g id="a_edge2"><a xlink:title="usage">
<path fill="none" stroke="#1414ce" d="M860.05,-180.46C859.46,-211.16 855.18,-276.08 831,-324 825.68,-334.55 817.58,-344.46 809.45,-352.78"/>
<polygon fill="#1414ce" stroke="#1414ce" points="806.79,-350.49 802.04,-359.96 811.66,-355.52 806.79,-350.49"/>
</a>
</g>
</g>
<!-- 20 -->
<g id="node22" class="node">
<title>20</title>
<g id="a_node22"><a xlink:title="SyncList">
<polygon fill="#ffffff" stroke="black" points="890,-108 812,-108 812,-72 890,-72 890,-108"/>
<text text-anchor="middle" x="851" y="-86.3" font-family="Times,serif" font-size="14.00">SyncList</text>
</a>
</g>
</g>
<!-- 19&#45;&gt;20 -->
<g id="edge1" class="edge">
<title>19&#45;&gt;20</title>
<g id="a_edge1"><a xlink:title="usage">
<path fill="none" stroke="#1414ce" d="M857.78,-143.7C856.78,-135.98 855.59,-126.71 854.49,-118.11"/>
<polygon fill="#1414ce" stroke="#1414ce" points="857.95,-117.58 853.2,-108.1 851,-118.47 857.95,-117.58"/>
</a>
</g>
</g>
<!-- 7 -->
<g id="node3" class="node">
<title>7</title>
<g id="a_node3"><a xlink:title="Module">
<polygon fill="#ffffff" stroke="black" points="289,-324 219,-324 219,-288 289,-288 289,-324"/>
<text text-anchor="middle" x="254" y="-302.3" font-family="Times,serif" font-size="14.00">Module</text>
</a>
</g>
</g>
<!-- 7&#45;&gt;6 -->
<g id="edge6" class="edge">
<title>7&#45;&gt;6</title>
<g id="a_edge6"><a xlink:title="usage">
<path fill="none" stroke="#1414ce" d="M224.96,-287.84C212.68,-278.87 199.69,-266.68 193,-252 186.36,-237.44 183.35,-228.76 193,-216 278.42,-103.12 732.1,-42.14 885.94,-24.48"/>
<polygon fill="#1414ce" stroke="#1414ce" points="886.52,-27.94 896.06,-23.33 885.73,-20.98 886.52,-27.94"/>
</a>
</g>
</g>
<!-- 9 -->
<g id="node10" class="node">
<title>9</title>
<g id="a_node10"><a xlink:title="LiteralEntry">
<polygon fill="#ffffff" stroke="black" points="306,-252 202,-252 202,-216 306,-216 306,-252"/>
<text text-anchor="middle" x="254" y="-230.3" font-family="Times,serif" font-size="14.00">LiteralEntry</text>
</a>
</g>
</g>
<!-- 7&#45;&gt;9 -->
<g id="edge5" class="edge">
<title>7&#45;&gt;9</title>
<g id="a_edge5"><a xlink:title="usage">
<path fill="none" stroke="#1414ce" d="M254,-287.7C254,-279.98 254,-270.71 254,-262.11"/>
<polygon fill="#1414ce" stroke="#1414ce" points="257.5,-262.1 254,-252.1 250.5,-262.1 257.5,-262.1"/>
</a>
</g>
</g>
<!-- 8 -->
<g id="node20" class="node">
<title>8</title>
<g id="a_node20"><a xlink:title="ExportedFunction">
<polygon fill="#ffffff" stroke="black" points="146,-252 0,-252 0,-216 146,-216 146,-252"/>
<text text-anchor="middle" x="73" y="-230.3" font-family="Times,serif" font-size="14.00">ExportedFunction</text>
</a>
</g>
</g>
<!-- 7&#45;&gt;8 -->
<g id="edge4" class="edge">
<title>7&#45;&gt;8</title>
<g id="a_edge4"><a xlink:title="usage">
<path fill="none" stroke="#1414ce" d="M218.67,-291.34C192.49,-281.21 156.35,-267.24 126.62,-255.74"/>
<polygon fill="#1414ce" stroke="#1414ce" points="127.8,-252.44 117.21,-252.1 125.28,-258.97 127.8,-252.44"/>
</a>
</g>
</g>
<!-- 6&#45;&gt;6 -->
<g id="edge7" class="edge">
<title>6&#45;&gt;6</title>
<g id="a_edge7"><a xlink:title="usage">
<path fill="none" stroke="#1414ce" d="M977.73,-31.31C987.9,-30.38 995.5,-25.95 995.5,-18 995.5,-12.91 992.38,-9.26 987.47,-7.05"/>
<polygon fill="#1414ce" stroke="#1414ce" points="988.28,-3.64 977.73,-4.69 986.63,-10.45 988.28,-3.64"/>
</a>
</g>
</g>
<!-- 11 -->
<g id="node5" class="node">
<title>11</title>
<g id="a_node5"><a xlink:title="HeapFragment">
<polygon fill="#ffffff" stroke="black" points="1521.5,-324 1396.5,-324 1396.5,-288 1521.5,-288 1521.5,-324"/>
<text text-anchor="middle" x="1459" y="-302.3" font-family="Times,serif" font-size="14.00">HeapFragment</text>
</a>
</g>
</g>
<!-- 11&#45;&gt;11 -->
<g id="edge8" class="edge">
<title>11&#45;&gt;11</title>
<g id="a_edge8"><a xlink:title="usage">
<path fill="none" stroke="#1414ce" d="M1521.78,-318.55C1532.26,-316.79 1539.5,-312.61 1539.5,-306 1539.5,-301.77 1536.53,-298.53 1531.64,-296.29"/>
<polygon fill="#1414ce" stroke="#1414ce" points="1532.36,-292.85 1521.78,-293.45 1530.42,-299.58 1532.36,-292.85"/>
</a>
</g>
</g>
<!-- 17 -->
<g id="node6" class="node">
<title>17</title>
<g id="a_node6"><a xlink:title="RefcBinaryQueueItem">
<polygon fill="#ffffff" stroke="black" points="1052,-324 878,-324 878,-288 1052,-288 1052,-324"/>
<text text-anchor="middle" x="965" y="-302.3" font-family="Times,serif" font-size="14.00">RefcBinaryQueueItem</text>
</a>
</g>
</g>
<!-- 17&#45;&gt;17 -->
<g id="edge10" class="edge">
<title>17&#45;&gt;17</title>
<g id="a_edge10"><a xlink:title="usage">
<path fill="none" stroke="#1414ce" d="M1052.3,-317.68C1062.99,-315.59 1070,-311.7 1070,-306 1070,-302.35 1067.12,-299.44 1062.25,-297.27"/>
<polygon fill="#1414ce" stroke="#1414ce" points="1062.88,-293.81 1052.3,-294.32 1060.89,-300.52 1062.88,-293.81"/>
</a>
</g>
</g>
<!-- 18 -->
<g id="node16" class="node">
<title>18</title>
<g id="a_node16"><a xlink:title="RefcBinary">
<polygon fill="#ffffff" stroke="black" points="1003.5,-252 908.5,-252 908.5,-216 1003.5,-216 1003.5,-252"/>
<text text-anchor="middle" x="956" y="-230.3" font-family="Times,serif" font-size="14.00">RefcBinary</text>
</a>
</g>
</g>
<!-- 17&#45;&gt;18 -->
<g id="edge9" class="edge">
<title>17&#45;&gt;18</title>
<g id="a_edge9"><a xlink:title="usage">
<path fill="none" stroke="#1414ce" d="M962.78,-287.7C961.78,-279.98 960.59,-270.71 959.49,-262.11"/>
<polygon fill="#1414ce" stroke="#1414ce" points="962.95,-261.58 958.2,-252.1 956,-262.47 962.95,-261.58"/>
</a>
</g>
</g>
<!-- 12&#45;&gt;23 -->
<g id="edge18" class="edge">
<title>12&#45;&gt;23</title>
<g id="a_edge18"><a xlink:title="usage">
<path fill="none" stroke="#1414ce" d="M781,-359.7C781,-351.98 781,-342.71 781,-334.11"/>
<polygon fill="#1414ce" stroke="#1414ce" points="784.5,-334.1 781,-324.1 777.5,-334.1 784.5,-334.1"/>
</a>
</g>
</g>
<!-- 12&#45;&gt;7 -->
<g id="edge15" class="edge">
<title>12&#45;&gt;7</title>
<g id="a_edge15"><a xlink:title="usage">
<path fill="none" stroke="#1414ce" d="M721.32,-369.07C614.82,-354.93 394.32,-325.64 299.25,-313.01"/>
<polygon fill="#1414ce" stroke="#1414ce" points="299.47,-309.51 289.1,-311.66 298.55,-316.45 299.47,-309.51"/>
</a>
</g>
</g>
<!-- 12&#45;&gt;6 -->
<g id="edge19" class="edge">
<title>12&#45;&gt;6</title>
<g id="a_edge19"><a xlink:title="usage">
<path fill="none" stroke="#1414ce" d="M840.7,-374.1C917.73,-369.1 1045.79,-356.09 1079,-324 1108.09,-295.89 1098,-275.45 1098,-235 1098,-235 1098,-235 1098,-161 1098,-100.9 1034.12,-60.17 986.84,-38.26"/>
<polygon fill="#1414ce" stroke="#1414ce" points="988.18,-35.03 977.63,-34.13 985.32,-41.41 988.18,-35.03"/>
</a>
</g>
</g>
<!-- 12&#45;&gt;17 -->
<g id="edge13" class="edge">
<title>12&#45;&gt;17</title>
<g id="a_edge13"><a xlink:title="usage">
<path fill="none" stroke="#1414ce" d="M826.01,-359.88C851.5,-350.18 883.57,-337.98 910.48,-327.74"/>
<polygon fill="#1414ce" stroke="#1414ce" points="912.03,-330.9 920.13,-324.07 909.54,-324.35 912.03,-330.9"/>
</a>
</g>
</g>
<!-- 22 -->
<g id="node9" class="node">
<title>22</title>
<g id="a_node9"><a xlink:title="TimerList">
<polygon fill="#ffffff" stroke="black" points="684,-180 598,-180 598,-144 684,-144 684,-180"/>
<text text-anchor="middle" x="641" y="-158.3" font-family="Times,serif" font-size="14.00">TimerList</text>
</a>
</g>
</g>
<!-- 12&#45;&gt;22 -->
<g id="edge17" class="edge">
<title>12&#45;&gt;22</title>
<g id="a_edge17"><a xlink:title="usage">
<path fill="none" stroke="#1414ce" d="M743.07,-359.79C727.29,-351.01 709.91,-338.99 698,-324 681.16,-302.8 659.34,-229.93 648.22,-189.89"/>
<polygon fill="#1414ce" stroke="#1414ce" points="651.59,-188.95 645.56,-180.23 644.84,-190.8 651.59,-188.95"/>
</a>
</g>
</g>
<!-- 13 -->
<g id="node14" class="node">
<title>13</title>
<g id="a_node14"><a xlink:title="MessageQueueItem">
<polygon fill="#ffffff" stroke="black" points="1284,-324 1126,-324 1126,-288 1284,-288 1284,-324"/>
<text text-anchor="middle" x="1205" y="-302.3" font-family="Times,serif" font-size="14.00">MessageQueueItem</text>
</a>
</g>
</g>
<!-- 12&#45;&gt;13 -->
<g id="edge11" class="edge">
<title>12&#45;&gt;13</title>
<g id="a_edge11"><a xlink:title="usage">
<path fill="none" stroke="#1414ce" d="M840.56,-367.87C906.88,-357.61 1017.21,-340.25 1112,-324 1113.27,-323.78 1114.56,-323.56 1115.85,-323.34"/>
<polygon fill="#1414ce" stroke="#1414ce" points="1116.62,-326.75 1125.87,-321.59 1115.42,-319.86 1116.62,-326.75"/>
</a>
</g>
</g>
<!-- 21 -->
<g id="node15" class="node">
<title>21</title>
<g id="a_node15"><a xlink:title="AtomsHashTable">
<polygon fill="#ffffff" stroke="black" points="461.5,-252 324.5,-252 324.5,-216 461.5,-216 461.5,-252"/>
<text text-anchor="middle" x="393" y="-230.3" font-family="Times,serif" font-size="14.00">AtomsHashTable</text>
</a>
</g>
</g>
<!-- 12&#45;&gt;21 -->
<g id="edge16" class="edge">
<title>12&#45;&gt;21</title>
<g id="a_edge16"><a xlink:title="usage">
<path fill="none" stroke="#1414ce" d="M721.43,-372.16C666.69,-366.07 584.25,-352.7 518,-324 480.66,-307.83 443.38,-279.27 419.38,-258.87"/>
<polygon fill="#1414ce" stroke="#1414ce" points="421.63,-256.18 411.77,-252.29 417.05,-261.48 421.63,-256.18"/>
</a>
</g>
</g>
<!-- 14 -->
<g id="node19" class="node">
<title>14</title>
<g id="a_node19"><a xlink:title="AtomTable">
<polygon fill="#ffffff" stroke="black" points="619,-324 527,-324 527,-288 619,-288 619,-324"/>
<text text-anchor="middle" x="573" y="-302.3" font-family="Times,serif" font-size="14.00">AtomTable</text>
</a>
</g>
</g>
<!-- 12&#45;&gt;14 -->
<g id="edge12" class="edge">
<title>12&#45;&gt;14</title>
<g id="a_edge12"><a xlink:title="usage">
<path fill="none" stroke="#1414ce" d="M730.38,-359.97C699.65,-349.62 660.39,-336.41 628.77,-325.77"/>
<polygon fill="#1414ce" stroke="#1414ce" points="629.81,-322.43 619.22,-322.55 627.58,-329.06 629.81,-322.43"/>
</a>
</g>
</g>
<!-- 12&#45;&gt;20 -->
<g id="edge14" class="edge">
<title>12&#45;&gt;20</title>
<g id="a_edge14"><a xlink:title="usage">
<path fill="none" stroke="#1414ce" d="M758.4,-359.96C747.94,-350.63 736.6,-338.11 731,-324 725.09,-309.13 727.77,-303.67 731,-288 745.07,-219.75 752.6,-200.77 793,-144 800.54,-133.41 810.5,-123.36 820.04,-114.91"/>
<polygon fill="#1414ce" stroke="#1414ce" points="822.55,-117.37 827.89,-108.22 818.01,-112.04 822.55,-117.37"/>
</a>
</g>
</g>
<!-- 16 -->
<g id="node8" class="node">
<title>16</title>
<g id="a_node8"><a xlink:title="HNodeGroup">
<polygon fill="#ffffff" stroke="black" points="628,-252 518,-252 518,-216 628,-216 628,-252"/>
<text text-anchor="middle" x="573" y="-230.3" font-family="Times,serif" font-size="14.00">HNodeGroup</text>
</a>
</g>
</g>
<!-- 16&#45;&gt;16 -->
<g id="edge21" class="edge">
<title>16&#45;&gt;16</title>
<g id="a_edge21"><a xlink:title="usage">
<path fill="none" stroke="#1414ce" d="M628.07,-246.85C638.57,-245.32 646,-241.03 646,-234 646,-229.5 642.95,-226.12 638,-223.87"/>
<polygon fill="#1414ce" stroke="#1414ce" points="638.64,-220.42 628.07,-221.15 636.79,-227.17 638.64,-220.42"/>
</a>
</g>
</g>
<!-- 15 -->
<g id="node23" class="node">
<title>15</title>
<g id="a_node23"><a xlink:title="HNode">
<polygon fill="#ffffff" stroke="black" points="523,-180 457,-180 457,-144 523,-144 523,-180"/>
<text text-anchor="middle" x="490" y="-158.3" font-family="Times,serif" font-size="14.00">HNode</text>
</a>
</g>
</g>
<!-- 16&#45;&gt;15 -->
<g id="edge20" class="edge">
<title>16&#45;&gt;15</title>
<g id="a_edge20"><a xlink:title="usage">
<path fill="none" stroke="#1414ce" d="M552.48,-215.7C542.13,-206.97 529.41,-196.24 518.16,-186.75"/>
<polygon fill="#1414ce" stroke="#1414ce" points="520.18,-183.88 510.28,-180.1 515.67,-189.23 520.18,-183.88"/>
</a>
</g>
</g>
<!-- 22&#45;&gt;6 -->
<g id="edge22" class="edge">
<title>22&#45;&gt;6</title>
<g id="a_edge22"><a xlink:title="usage">
<path fill="none" stroke="#1414ce" d="M669.4,-143.97C701.31,-125.17 754.94,-94.6 803,-72 830.2,-59.21 861.39,-46.75 886.82,-37.13"/>
<polygon fill="#1414ce" stroke="#1414ce" points="888.14,-40.38 896.27,-33.59 885.68,-33.82 888.14,-40.38"/>
</a>
</g>
</g>
<!-- 4 -->
<g id="node11" class="node">
<title>4</title>
<g id="a_node11"><a xlink:title="MailboxMessage">
<polygon fill="#ffffff" stroke="black" points="1297.5,-252 1160.5,-252 1160.5,-216 1297.5,-216 1297.5,-252"/>
<text text-anchor="middle" x="1229" y="-230.3" font-family="Times,serif" font-size="14.00">MailboxMessage</text>
</a>
</g>
</g>
<!-- 4&#45;&gt;4 -->
<g id="edge23" class="edge">
<title>4&#45;&gt;4</title>
<g id="a_edge23"><a xlink:title="usage">
<path fill="none" stroke="#1414ce" d="M1297.53,-246.37C1308.21,-244.52 1315.5,-240.4 1315.5,-234 1315.5,-229.8 1312.36,-226.58 1307.18,-224.34"/>
<polygon fill="#1414ce" stroke="#1414ce" points="1308.1,-220.96 1297.53,-221.63 1306.21,-227.7 1308.1,-220.96"/>
</a>
</g>
</g>
<!-- 10 -->
<g id="node12" class="node">
<title>10</title>
<g id="a_node12"><a xlink:title="Heap">
<polygon fill="#ffffff" stroke="black" points="1468,-396 1414,-396 1414,-360 1468,-360 1468,-396"/>
<text text-anchor="middle" x="1441" y="-374.3" font-family="Times,serif" font-size="14.00">Heap</text>
</a>
</g>
</g>
<!-- 10&#45;&gt;11 -->
<g id="edge24" class="edge">
<title>10&#45;&gt;11</title>
<g id="a_edge24"><a xlink:title="usage">
<path fill="none" stroke="#1414ce" d="M1445.45,-359.7C1447.45,-351.9 1449.87,-342.51 1452.1,-333.83"/>
<polygon fill="#1414ce" stroke="#1414ce" points="1455.5,-334.66 1454.6,-324.1 1448.72,-332.92 1455.5,-334.66"/>
</a>
</g>
</g>
<!-- 2 -->
<g id="node13" class="node">
<title>2</title>
<g id="a_node13"><a xlink:title="Context">
<polygon fill="#ffffff" stroke="black" points="1371.5,-468 1298.5,-468 1298.5,-432 1371.5,-432 1371.5,-468"/>
<text text-anchor="middle" x="1335" y="-446.3" font-family="Times,serif" font-size="14.00">Context</text>
</a>
</g>
</g>
<!-- 2&#45;&gt;7 -->
<g id="edge28" class="edge">
<title>2&#45;&gt;7</title>
<g id="a_edge28"><a xlink:title="usage">
<path fill="none" stroke="#1414ce" d="M1298.39,-447.25C1202.14,-442.34 934.13,-426.77 713,-396 560.15,-374.73 381.18,-335.97 299.18,-317.42"/>
<polygon fill="#1414ce" stroke="#1414ce" points="299.73,-313.96 289.2,-315.16 298.18,-320.79 299.73,-313.96"/>
</a>
</g>
</g>
<!-- 2&#45;&gt;6 -->
<g id="edge31" class="edge">
<title>2&#45;&gt;6</title>
<g id="a_edge31"><a xlink:title="usage">
<path fill="none" stroke="#1414ce" d="M1341.68,-431.81C1351.32,-405.4 1368,-353.06 1368,-307 1368,-307 1368,-307 1368,-161 1368,-81.74 1101.72,-39.35 987.76,-24.84"/>
<polygon fill="#1414ce" stroke="#1414ce" points="987.9,-21.33 977.55,-23.56 987.04,-28.27 987.9,-21.33"/>
</a>
</g>
</g>
<!-- 2&#45;&gt;12 -->
<g id="edge30" class="edge">
<title>2&#45;&gt;12</title>
<g id="a_edge30"><a xlink:title="usage">
<path fill="none" stroke="#1414ce" d="M1298.22,-444.35C1207.11,-432.84 969.73,-402.85 850.9,-387.83"/>
<polygon fill="#1414ce" stroke="#1414ce" points="851.18,-384.34 840.82,-386.56 850.3,-391.28 851.18,-384.34"/>
</a>
</g>
</g>
<!-- 2&#45;&gt;10 -->
<g id="edge29" class="edge">
<title>2&#45;&gt;10</title>
<g id="a_edge29"><a xlink:title="usage">
<path fill="none" stroke="#1414ce" d="M1360.93,-431.88C1374.66,-422.81 1391.71,-411.55 1406.54,-401.76"/>
<polygon fill="#1414ce" stroke="#1414ce" points="1408.55,-404.62 1414.97,-396.19 1404.7,-398.78 1408.55,-404.62"/>
</a>
</g>
</g>
<!-- 2&#45;&gt;2 -->
<g id="edge25" class="edge">
<title>2&#45;&gt;2</title>
<g id="a_edge25"><a xlink:title="usage">
<path fill="none" stroke="#1414ce" d="M1371.68,-463.42C1381.78,-462.77 1389.5,-458.3 1389.5,-450 1389.5,-444.81 1386.48,-441.12 1381.76,-438.93"/>
<polygon fill="#1414ce" stroke="#1414ce" points="1382.21,-435.44 1371.68,-436.58 1380.63,-442.26 1382.21,-435.44"/>
</a>
</g>
</g>
<!-- 3 -->
<g id="node18" class="node">
<title>3</title>
<g id="a_node18"><a xlink:title="Mailbox">
<polygon fill="#ffffff" stroke="black" points="1340,-396 1266,-396 1266,-360 1340,-360 1340,-396"/>
<text text-anchor="middle" x="1303" y="-374.3" font-family="Times,serif" font-size="14.00">Mailbox</text>
</a>
</g>
</g>
<!-- 2&#45;&gt;3 -->
<g id="edge26" class="edge">
<title>2&#45;&gt;3</title>
<g id="a_edge26"><a xlink:title="usage">
<path fill="none" stroke="#1414ce" d="M1327.09,-431.7C1323.45,-423.73 1319.05,-414.1 1315.01,-405.26"/>
<polygon fill="#1414ce" stroke="#1414ce" points="1318.16,-403.74 1310.82,-396.1 1311.79,-406.65 1318.16,-403.74"/>
</a>
</g>
</g>
<!-- 5 -->
<g id="node21" class="node">
<title>5</title>
<g id="a_node21"><a xlink:title="TimerListItem">
<polygon fill="#ffffff" stroke="black" points="1571.5,-108 1452.5,-108 1452.5,-72 1571.5,-72 1571.5,-108"/>
<text text-anchor="middle" x="1512" y="-86.3" font-family="Times,serif" font-size="14.00">TimerListItem</text>
</a>
</g>
</g>
<!-- 2&#45;&gt;5 -->
<g id="edge27" class="edge">
<title>2&#45;&gt;5</title>
<g id="a_edge27"><a xlink:title="usage">
<path fill="none" stroke="#1414ce" d="M1371.66,-443.82C1437.28,-432.26 1568,-397.84 1568,-307 1568,-307 1568,-307 1568,-233 1568,-189.91 1545.4,-144.26 1528.92,-116.7"/>
<polygon fill="#1414ce" stroke="#1414ce" points="1531.83,-114.75 1523.6,-108.07 1525.87,-118.42 1531.83,-114.75"/>
</a>
</g>
</g>
<!-- 13&#45;&gt;4 -->
<g id="edge32" class="edge">
<title>13&#45;&gt;4</title>
<g id="a_edge32"><a xlink:title="usage">
<path fill="none" stroke="#1414ce" d="M1210.93,-287.7C1213.61,-279.9 1216.83,-270.51 1219.8,-261.83"/>
<polygon fill="#1414ce" stroke="#1414ce" points="1223.2,-262.7 1223.14,-252.1 1216.58,-260.43 1223.2,-262.7"/>
</a>
</g>
</g>
<!-- 13&#45;&gt;13 -->
<g id="edge33" class="edge">
<title>13&#45;&gt;13</title>
<g id="a_edge33"><a xlink:title="usage">
<path fill="none" stroke="#1414ce" d="M1284.16,-317.98C1294.87,-315.97 1302,-311.98 1302,-306 1302,-302.08 1298.93,-299.01 1293.79,-296.8"/>
<polygon fill="#1414ce" stroke="#1414ce" points="1294.74,-293.43 1284.16,-294.02 1292.8,-300.15 1294.74,-293.43"/>
</a>
</g>
</g>
<!-- 21&#45;&gt;15 -->
<g id="edge34" class="edge">
<title>21&#45;&gt;15</title>
<g id="a_edge34"><a xlink:title="usage">
<path fill="none" stroke="#1414ce" d="M416.98,-215.7C429.31,-206.8 444.52,-195.82 457.85,-186.2"/>
<polygon fill="#1414ce" stroke="#1414ce" points="460.24,-188.79 466.3,-180.1 456.14,-183.12 460.24,-188.79"/>
</a>
</g>
</g>
<!-- 18&#45;&gt;19 -->
<g id="edge35" class="edge">
<title>18&#45;&gt;19</title>
<g id="a_edge35"><a xlink:title="usage">
<path fill="none" stroke="#1414ce" d="M932.27,-215.7C920.06,-206.8 905.01,-195.82 891.82,-186.2"/>
<polygon fill="#1414ce" stroke="#1414ce" points="893.6,-183.17 883.46,-180.1 889.48,-188.82 893.6,-183.17"/>
</a>
</g>
</g>
<!-- 18&#45;&gt;6 -->
<g id="edge36" class="edge">
<title>18&#45;&gt;6</title>
<g id="a_edge36"><a xlink:title="usage">
<path fill="none" stroke="#1414ce" d="M954.48,-215.85C951.19,-178.83 943.41,-91.18 939.43,-46.39"/>
<polygon fill="#1414ce" stroke="#1414ce" points="942.9,-45.88 938.53,-36.23 935.93,-46.5 942.9,-45.88"/>
</a>
</g>
</g>
<!-- 1 -->
<g id="node17" class="node">
<title>1</title>
<g id="a_node17"><a xlink:title="ContextAccumulator">
<polygon fill="#bfbfbf" stroke="black" points="1416.5,-540 1253.5,-540 1253.5,-504 1416.5,-504 1416.5,-540"/>
<text text-anchor="middle" x="1335" y="-518.3" font-family="Times,serif" font-size="14.00">ContextAccumulator</text>
</a>
</g>
</g>
<!-- 1&#45;&gt;2 -->
<g id="edge37" class="edge">
<title>1&#45;&gt;2</title>
<g id="a_edge37"><a xlink:title="usage">
<path fill="none" stroke="#1414ce" d="M1335,-503.7C1335,-495.98 1335,-486.71 1335,-478.11"/>
<polygon fill="#1414ce" stroke="#1414ce" points="1338.5,-478.1 1335,-468.1 1331.5,-478.1 1338.5,-478.1"/>
</a>
</g>
</g>
<!-- 3&#45;&gt;4 -->
<g id="edge38" class="edge">
<title>3&#45;&gt;4</title>
<g id="a_edge38"><a xlink:title="usage">
<path fill="none" stroke="#1414ce" d="M1309.95,-359.78C1316.38,-340.96 1323.24,-310.48 1311,-288 1304.09,-275.3 1292.68,-265.18 1280.54,-257.33"/>
<polygon fill="#1414ce" stroke="#1414ce" points="1282,-254.13 1271.62,-252.01 1278.41,-260.14 1282,-254.13"/>
</a>
</g>
</g>
<!-- 14&#45;&gt;16 -->
<g id="edge40" class="edge">
<title>14&#45;&gt;16</title>
<g id="a_edge40"><a xlink:title="usage">
<path fill="none" stroke="#1414ce" d="M573,-287.7C573,-279.98 573,-270.71 573,-262.11"/>
<polygon fill="#1414ce" stroke="#1414ce" points="576.5,-262.1 573,-252.1 569.5,-262.1 576.5,-262.1"/>
</a>
</g>
</g>
<!-- 14&#45;&gt;15 -->
<g id="edge39" class="edge">
<title>14&#45;&gt;15</title>
<g id="a_edge39"><a xlink:title="usage">
<path fill="none" stroke="#1414ce" d="M544.62,-287.86C531.87,-278.75 517.75,-266.44 509,-252 497.71,-233.36 493.07,-208.97 491.19,-190.44"/>
<polygon fill="#1414ce" stroke="#1414ce" points="494.66,-189.98 490.37,-180.29 487.69,-190.54 494.66,-189.98"/>
</a>
</g>
</g>
<!-- 5&#45;&gt;6 -->
<g id="edge41" class="edge">
<title>5&#45;&gt;6</title>
<g id="a_edge41"><a xlink:title="usage">
<path fill="none" stroke="#1414ce" d="M1452.48,-81.07C1430.36,-78.16 1405.04,-74.88 1382,-72 1239.11,-54.15 1070.23,-34.41 987.63,-24.84"/>
<polygon fill="#1414ce" stroke="#1414ce" points="987.85,-21.34 977.51,-23.67 987.05,-28.29 987.85,-21.34"/>
</a>
</g>
</g>
<!-- 20&#45;&gt;6 -->
<g id="edge42" class="edge">
<title>20&#45;&gt;6</title>
<g id="a_edge42"><a xlink:title="usage">
<path fill="none" stroke="#1414ce" d="M872.26,-71.7C883.09,-62.88 896.42,-52.03 908.16,-42.47"/>
<polygon fill="#1414ce" stroke="#1414ce" points="910.44,-45.13 915.99,-36.1 906.02,-39.7 910.44,-45.13"/>
</a>
</g>
</g>
<!-- 15&#45;&gt;15 -->
<g id="edge43" class="edge">
<title>15&#45;&gt;15</title>
<g id="a_edge43"><a xlink:title="usage">
<path fill="none" stroke="#1414ce" d="M523.35,-175.47C533.28,-175.07 541,-170.58 541,-162 541,-156.64 537.98,-152.87 533.3,-150.71"/>
<polygon fill="#1414ce" stroke="#1414ce" points="533.87,-147.25 523.35,-148.53 532.37,-154.09 533.87,-147.25"/>
</a>
</g>
</g>
</g>
</svg>
