<?xml version="1.0" encoding="UTF-8" standalone="no"?>
<!DOCTYPE svg PUBLIC "-//W3C//DTD SVG 1.1//EN"
 "http://www.w3.org/Graphics/SVG/1.1/DTD/svg11.dtd">
<!-- Generated by graphviz version 2.43.0 (0)
 -->
<!-- Title: %3 Pages: 1 -->
<svg width="1298pt" height="404pt"
 viewBox="0.00 0.00 1297.50 404.00" xmlns="http://www.w3.org/2000/svg" xmlns:xlink="http://www.w3.org/1999/xlink">
<g id="graph0" class="graph" transform="scale(1 1) rotate(0) translate(4 400)">
<title>%3</title>
<polygon fill="transparent" stroke="transparent" points="-4,4 -4,-400 1293.5,-400 1293.5,4 -4,4"/>
<!-- 17 -->
<g id="node1" class="node">
<title>17</title>
<g id="a_node1"><a xlink:title="SpinLock">
<polygon fill="#ffffff" stroke="black" points="82,-324 0,-324 0,-288 82,-288 82,-324"/>
<text text-anchor="middle" x="41" y="-302.3" font-family="Times,serif" font-size="14.00">SpinLock</text>
</a>
</g>
</g>
<!-- 9 -->
<g id="node2" class="node">
<title>9</title>
<g id="a_node2"><a xlink:title="ResourceType">
<polygon fill="#ffffff" stroke="black" points="329.5,-180 212.5,-180 212.5,-144 329.5,-144 329.5,-180"/>
<text text-anchor="middle" x="271" y="-158.3" font-family="Times,serif" font-size="14.00">ResourceType</text>
</a>
</g>
</g>
<!-- 11 -->
<g id="node4" class="node">
<title>11</title>
<g id="a_node4"><a xlink:title="ListHead">
<polygon fill="#ffffff" stroke="black" points="369.5,-36 288.5,-36 288.5,0 369.5,0 369.5,-36"/>
<text text-anchor="middle" x="329" y="-14.3" font-family="Times,serif" font-size="14.00">ListHead</text>
</a>
</g>
</g>
<!-- 9&#45;&gt;11 -->
<g id="edge3" class="edge">
<title>9&#45;&gt;11</title>
<g id="a_edge3"><a xlink:title="usage">
<path fill="none" stroke="#1414ce" d="M259.4,-143.7C248.49,-125.07 235.55,-95.02 248,-72 255.08,-58.91 266.95,-48.53 279.46,-40.56"/>
<polygon fill="#1414ce" stroke="#1414ce" points="281.33,-43.52 288.17,-35.42 277.78,-37.49 281.33,-43.52"/>
</a>
</g>
</g>
<!-- 1 -->
<g id="node6" class="node">
<title>1</title>
<g id="a_node6"><a xlink:title="GlobalContext">
<polygon fill="#bfbfbf" stroke="black" points="474.5,-396 355.5,-396 355.5,-360 474.5,-360 474.5,-396"/>
<text text-anchor="middle" x="415" y="-374.3" font-family="Times,serif" font-size="14.00">GlobalContext</text>
</a>
</g>
</g>
<!-- 9&#45;&gt;1 -->
<g id="edge2" class="edge">
<title>9&#45;&gt;1</title>
<g id="a_edge2"><a xlink:title="usage">
<path fill="none" stroke="#1414ce" d="M275.62,-180.04C284.7,-211.19 307.25,-278.33 344,-324 353.23,-335.48 365.49,-345.78 377.22,-354.19"/>
<polygon fill="#1414ce" stroke="#1414ce" points="375.4,-357.18 385.62,-359.96 379.37,-351.41 375.4,-357.18"/>
</a>
</g>
</g>
<!-- 10 -->
<g id="node16" class="node">
<title>10</title>
<g id="a_node16"><a xlink:title="SyncList">
<polygon fill="#ffffff" stroke="black" points="335,-108 257,-108 257,-72 335,-72 335,-108"/>
<text text-anchor="middle" x="296" y="-86.3" font-family="Times,serif" font-size="14.00">SyncList</text>
</a>
</g>
</g>
<!-- 9&#45;&gt;10 -->
<g id="edge1" class="edge">
<title>9&#45;&gt;10</title>
<g id="a_edge1"><a xlink:title="usage">
<path fill="none" stroke="#1414ce" d="M277.18,-143.7C280,-135.81 283.39,-126.3 286.52,-117.55"/>
<polygon fill="#1414ce" stroke="#1414ce" points="289.82,-118.7 289.89,-108.1 283.23,-116.34 289.82,-118.7"/>
</a>
</g>
</g>
<!-- 12 -->
<g id="node3" class="node">
<title>12</title>
<g id="a_node3"><a xlink:title="Module">
<polygon fill="#ffffff" stroke="black" points="564,-324 494,-324 494,-288 564,-288 564,-324"/>
<text text-anchor="middle" x="529" y="-302.3" font-family="Times,serif" font-size="14.00">Module</text>
</a>
</g>
</g>
<!-- 12&#45;&gt;11 -->
<g id="edge6" class="edge">
<title>12&#45;&gt;11</title>
<g id="a_edge6"><a xlink:title="usage">
<path fill="none" stroke="#1414ce" d="M516.63,-287.74C510.18,-277.79 502.86,-264.75 499,-252 475.79,-175.22 535.09,-135.43 486,-72 461,-39.7 415.44,-26.92 379.81,-21.95"/>
<polygon fill="#1414ce" stroke="#1414ce" points="379.93,-18.44 369.58,-20.7 379.08,-25.39 379.93,-18.44"/>
</a>
</g>
</g>
<!-- 14 -->
<g id="node9" class="node">
<title>14</title>
<g id="a_node9"><a xlink:title="LiteralEntry">
<polygon fill="#ffffff" stroke="black" points="612,-252 508,-252 508,-216 612,-216 612,-252"/>
<text text-anchor="middle" x="560" y="-230.3" font-family="Times,serif" font-size="14.00">LiteralEntry</text>
</a>
</g>
</g>
<!-- 12&#45;&gt;14 -->
<g id="edge5" class="edge">
<title>12&#45;&gt;14</title>
<g id="a_edge5"><a xlink:title="usage">
<path fill="none" stroke="#1414ce" d="M536.66,-287.7C540.19,-279.73 544.46,-270.1 548.37,-261.26"/>
<polygon fill="#1414ce" stroke="#1414ce" points="551.58,-262.67 552.43,-252.1 545.18,-259.83 551.58,-262.67"/>
</a>
</g>
</g>
<!-- 13 -->
<g id="node15" class="node">
<title>13</title>
<g id="a_node15"><a xlink:title="ExportedFunction">
<polygon fill="#ffffff" stroke="black" points="776,-252 630,-252 630,-216 776,-216 776,-252"/>
<text text-anchor="middle" x="703" y="-230.3" font-family="Times,serif" font-size="14.00">ExportedFunction</text>
</a>
</g>
</g>
<!-- 12&#45;&gt;13 -->
<g id="edge4" class="edge">
<title>12&#45;&gt;13</title>
<g id="a_edge4"><a xlink:title="usage">
<path fill="none" stroke="#1414ce" d="M564.21,-290.83C589.08,-280.83 622.84,-267.25 650.83,-255.99"/>
<polygon fill="#1414ce" stroke="#1414ce" points="652.49,-259.09 660.46,-252.11 649.88,-252.6 652.49,-259.09"/>
</a>
</g>
</g>
<!-- 11&#45;&gt;11 -->
<g id="edge7" class="edge">
<title>11&#45;&gt;11</title>
<g id="a_edge7"><a xlink:title="usage">
<path fill="none" stroke="#1414ce" d="M369.73,-31.31C379.9,-30.38 387.5,-25.95 387.5,-18 387.5,-12.91 384.38,-9.26 379.47,-7.05"/>
<polygon fill="#1414ce" stroke="#1414ce" points="380.28,-3.64 369.73,-4.69 378.63,-10.45 380.28,-3.64"/>
</a>
</g>
</g>
<!-- 7 -->
<g id="node5" class="node">
<title>7</title>
<g id="a_node5"><a xlink:title="RefcBinaryQueueItem">
<polygon fill="#ffffff" stroke="black" points="274,-324 100,-324 100,-288 274,-288 274,-324"/>
<text text-anchor="middle" x="187" y="-302.3" font-family="Times,serif" font-size="14.00">RefcBinaryQueueItem</text>
</a>
</g>
</g>
<!-- 7&#45;&gt;7 -->
<g id="edge9" class="edge">
<title>7&#45;&gt;7</title>
<g id="a_edge9"><a xlink:title="usage">
<path fill="none" stroke="#1414ce" d="M274.3,-317.68C284.99,-315.59 292,-311.7 292,-306 292,-302.35 289.12,-299.44 284.25,-297.27"/>
<polygon fill="#1414ce" stroke="#1414ce" points="284.88,-293.81 274.3,-294.32 282.89,-300.52 284.88,-293.81"/>
</a>
</g>
</g>
<!-- 8 -->
<g id="node13" class="node">
<title>8</title>
<g id="a_node13"><a xlink:title="RefcBinary">
<polygon fill="#ffffff" stroke="black" points="234.5,-252 139.5,-252 139.5,-216 234.5,-216 234.5,-252"/>
<text text-anchor="middle" x="187" y="-230.3" font-family="Times,serif" font-size="14.00">RefcBinary</text>
</a>
</g>
</g>
<!-- 7&#45;&gt;8 -->
<g id="edge8" class="edge">
<title>7&#45;&gt;8</title>
<g id="a_edge8"><a xlink:title="usage">
<path fill="none" stroke="#1414ce" d="M187,-287.7C187,-279.98 187,-270.71 187,-262.11"/>
<polygon fill="#1414ce" stroke="#1414ce" points="190.5,-262.1 187,-252.1 183.5,-262.1 190.5,-262.1"/>
</a>
</g>
</g>
<!-- 1&#45;&gt;17 -->
<g id="edge17" class="edge">
<title>1&#45;&gt;17</title>
<g id="a_edge17"><a xlink:title="usage">
<path fill="none" stroke="#1414ce" d="M355.28,-370.24C291.98,-362.41 189.08,-347.75 92.02,-324.03"/>
<polygon fill="#1414ce" stroke="#1414ce" points="92.59,-320.57 82.04,-321.56 90.9,-327.36 92.59,-320.57"/>
</a>
</g>
</g>
<!-- 1&#45;&gt;12 -->
<g id="edge14" class="edge">
<title>1&#45;&gt;12</title>
<g id="a_edge14"><a xlink:title="usage">
<path fill="none" stroke="#1414ce" d="M442.89,-359.88C457.79,-350.72 476.33,-339.34 492.38,-329.48"/>
<polygon fill="#1414ce" stroke="#1414ce" points="494.31,-332.41 501.01,-324.19 490.65,-326.44 494.31,-332.41"/>
</a>
</g>
</g>
<!-- 1&#45;&gt;11 -->
<g id="edge18" class="edge">
<title>1&#45;&gt;11</title>
<g id="a_edge18"><a xlink:title="usage">
<path fill="none" stroke="#1414ce" d="M411.28,-359.73C401.17,-313.13 372.09,-180.98 344,-72 341.79,-63.44 339.23,-54.15 336.84,-45.78"/>
<polygon fill="#1414ce" stroke="#1414ce" points="340.2,-44.77 334.07,-36.13 333.47,-46.71 340.2,-44.77"/>
</a>
</g>
</g>
<!-- 1&#45;&gt;7 -->
<g id="edge12" class="edge">
<title>1&#45;&gt;7</title>
<g id="a_edge12"><a xlink:title="usage">
<path fill="none" stroke="#1414ce" d="M359.52,-359.97C327.24,-350.06 286.39,-337.51 252.54,-327.12"/>
<polygon fill="#1414ce" stroke="#1414ce" points="253.32,-323.7 242.73,-324.11 251.26,-330.39 253.32,-323.7"/>
</a>
</g>
</g>
<!-- 16 -->
<g id="node8" class="node">
<title>16</title>
<g id="a_node8"><a xlink:title="TimerList">
<polygon fill="#ffffff" stroke="black" points="477,-108 391,-108 391,-72 477,-72 477,-108"/>
<text text-anchor="middle" x="434" y="-86.3" font-family="Times,serif" font-size="14.00">TimerList</text>
</a>
</g>
</g>
<!-- 1&#45;&gt;16 -->
<g id="edge16" class="edge">
<title>1&#45;&gt;16</title>
<g id="a_edge16"><a xlink:title="usage">
<path fill="none" stroke="#1414ce" d="M416.13,-359.97C419.3,-312.29 428.27,-177.18 432.16,-118.63"/>
<polygon fill="#1414ce" stroke="#1414ce" points="435.68,-118.52 432.85,-108.31 428.7,-118.05 435.68,-118.52"/>
</a>
</g>
</g>
<!-- 2 -->
<g id="node11" class="node">
<title>2</title>
<g id="a_node11"><a xlink:title="MessageQueueItem">
<polygon fill="#ffffff" stroke="black" points="856,-324 698,-324 698,-288 856,-288 856,-324"/>
<text text-anchor="middle" x="777" y="-302.3" font-family="Times,serif" font-size="14.00">MessageQueueItem</text>
</a>
</g>
</g>
<!-- 1&#45;&gt;2 -->
<g id="edge10" class="edge">
<title>1&#45;&gt;2</title>
<g id="a_edge10"><a xlink:title="usage">
<path fill="none" stroke="#1414ce" d="M474.78,-365.44C532.75,-354.23 621.43,-337.08 687.75,-324.26"/>
<polygon fill="#1414ce" stroke="#1414ce" points="688.63,-327.65 697.78,-322.32 687.3,-320.78 688.63,-327.65"/>
</a>
</g>
</g>
<!-- 15 -->
<g id="node12" class="node">
<title>15</title>
<g id="a_node12"><a xlink:title="AtomsHashTable">
<polygon fill="#ffffff" stroke="black" points="1289.5,-252 1152.5,-252 1152.5,-216 1289.5,-216 1289.5,-252"/>
<text text-anchor="middle" x="1221" y="-230.3" font-family="Times,serif" font-size="14.00">AtomsHashTable</text>
</a>
</g>
</g>
<!-- 1&#45;&gt;15 -->
<g id="edge15" class="edge">
<title>1&#45;&gt;15</title>
<g id="a_edge15"><a xlink:title="usage">
<path fill="none" stroke="#1414ce" d="M474.69,-375.83C615.88,-372.48 966.82,-360.63 1078,-324 1121.54,-309.65 1165.39,-279.5 1192.83,-258.28"/>
<polygon fill="#1414ce" stroke="#1414ce" points="1195.11,-260.94 1200.8,-252.01 1190.78,-255.44 1195.11,-260.94"/>
</a>
</g>
</g>
<!-- 4 -->
<g id="node14" class="node">
<title>4</title>
<g id="a_node14"><a xlink:title="AtomTable">
<polygon fill="#ffffff" stroke="black" points="1069,-324 977,-324 977,-288 1069,-288 1069,-324"/>
<text text-anchor="middle" x="1023" y="-302.3" font-family="Times,serif" font-size="14.00">AtomTable</text>
</a>
</g>
</g>
<!-- 1&#45;&gt;4 -->
<g id="edge11" class="edge">
<title>1&#45;&gt;4</title>
<g id="a_edge11"><a xlink:title="usage">
<path fill="none" stroke="#1414ce" d="M474.86,-370.38C563.88,-360.49 736.41,-341.2 883,-324 910.57,-320.76 941.18,-317.06 966.73,-313.94"/>
<polygon fill="#1414ce" stroke="#1414ce" points="967.48,-317.37 976.98,-312.68 966.63,-310.42 967.48,-317.37"/>
</a>
</g>
</g>
<!-- 1&#45;&gt;10 -->
<g id="edge13" class="edge">
<title>1&#45;&gt;10</title>
<g id="a_edge13"><a xlink:title="usage">
<path fill="none" stroke="#1414ce" d="M402.21,-359.62C395.37,-349.62 387.3,-336.59 382,-324 350.06,-248.09 374.19,-217.98 338,-144 333.2,-134.19 326.35,-124.52 319.56,-116.17"/>
<polygon fill="#1414ce" stroke="#1414ce" points="322.03,-113.66 312.88,-108.31 316.69,-118.2 322.03,-113.66"/>
</a>
</g>
</g>
<!-- 6 -->
<g id="node7" class="node">
<title>6</title>
<g id="a_node7"><a xlink:title="HNodeGroup">
<polygon fill="#ffffff" stroke="black" points="1078,-252 968,-252 968,-216 1078,-216 1078,-252"/>
<text text-anchor="middle" x="1023" y="-230.3" font-family="Times,serif" font-size="14.00">HNodeGroup</text>
</a>
</g>
</g>
<!-- 6&#45;&gt;6 -->
<g id="edge20" class="edge">
<title>6&#45;&gt;6</title>
<g id="a_edge20"><a xlink:title="usage">
<path fill="none" stroke="#1414ce" d="M1078.07,-246.85C1088.57,-245.32 1096,-241.03 1096,-234 1096,-229.5 1092.95,-226.12 1088,-223.87"/>
<polygon fill="#1414ce" stroke="#1414ce" points="1088.64,-220.42 1078.07,-221.15 1086.79,-227.17 1088.64,-220.42"/>
</a>
</g>
</g>
<!-- 5 -->
<g id="node17" class="node">
<title>5</title>
<g id="a_node17"><a xlink:title="HNode">
<polygon fill="#ffffff" stroke="black" points="1157,-180 1091,-180 1091,-144 1157,-144 1157,-180"/>
<text text-anchor="middle" x="1124" y="-158.3" font-family="Times,serif" font-size="14.00">HNode</text>
</a>
</g>
</g>
<!-- 6&#45;&gt;5 -->
<g id="edge19" class="edge">
<title>6&#45;&gt;5</title>
<g id="a_edge19"><a xlink:title="usage">
<path fill="none" stroke="#1414ce" d="M1047.71,-215.88C1060.67,-206.89 1076.73,-195.76 1090.77,-186.03"/>
<polygon fill="#1414ce" stroke="#1414ce" points="1092.97,-188.76 1099.2,-180.19 1088.98,-183.01 1092.97,-188.76"/>
</a>
</g>
</g>
<!-- 16&#45;&gt;11 -->
<g id="edge21" class="edge">
<title>16&#45;&gt;11</title>
<g id="a_edge21"><a xlink:title="usage">
<path fill="none" stroke="#1414ce" d="M408.31,-71.88C394.71,-62.81 377.83,-51.55 363.14,-41.76"/>
<polygon fill="#1414ce" stroke="#1414ce" points="365.05,-38.82 354.78,-36.19 361.16,-44.65 365.05,-38.82"/>
</a>
</g>
</g>
<!-- 3 -->
<g id="node10" class="node">
<title>3</title>
<g id="a_node10"><a xlink:title="MailboxMessage">
<polygon fill="#ffffff" stroke="black" points="931.5,-252 794.5,-252 794.5,-216 931.5,-216 931.5,-252"/>
<text text-anchor="middle" x="863" y="-230.3" font-family="Times,serif" font-size="14.00">MailboxMessage</text>
</a>
</g>
</g>
<!-- 3&#45;&gt;3 -->
<g id="edge22" class="edge">
<title>3&#45;&gt;3</title>
<g id="a_edge22"><a xlink:title="usage">
<path fill="none" stroke="#1414ce" d="M931.53,-246.37C942.21,-244.52 949.5,-240.4 949.5,-234 949.5,-229.8 946.36,-226.58 941.18,-224.34"/>
<polygon fill="#1414ce" stroke="#1414ce" points="942.1,-220.96 931.53,-221.63 940.21,-227.7 942.1,-220.96"/>
</a>
</g>
</g>
<!-- 2&#45;&gt;3 -->
<g id="edge23" class="edge">
<title>2&#45;&gt;3</title>
<g id="a_edge23"><a xlink:title="usage">
<path fill="none" stroke="#1414ce" d="M798.26,-287.7C809.09,-278.88 822.42,-268.03 834.16,-258.47"/>
<polygon fill="#1414ce" stroke="#1414ce" points="836.44,-261.13 841.99,-252.1 832.02,-255.7 836.44,-261.13"/>
</a>
</g>
</g>
<!-- 2&#45;&gt;2 -->
<g id="edge24" class="edge">
<title>2&#45;&gt;2</title>
<g id="a_edge24"><a xlink:title="usage">
<path fill="none" stroke="#1414ce" d="M856.16,-317.98C866.87,-315.97 874,-311.98 874,-306 874,-302.08 870.93,-299.01 865.79,-296.8"/>
<polygon fill="#1414ce" stroke="#1414ce" points="866.74,-293.43 856.16,-294.02 864.8,-300.15 866.74,-293.43"/>
</a>
</g>
</g>
<!-- 15&#45;&gt;5 -->
<g id="edge25" class="edge">
<title>15&#45;&gt;5</title>
<g id="a_edge25"><a xlink:title="usage">
<path fill="none" stroke="#1414ce" d="M1197.02,-215.7C1184.69,-206.8 1169.48,-195.82 1156.15,-186.2"/>
<polygon fill="#1414ce" stroke="#1414ce" points="1157.86,-183.12 1147.7,-180.1 1153.76,-188.79 1157.86,-183.12"/>
</a>
</g>
</g>
<!-- 8&#45;&gt;9 -->
<g id="edge26" class="edge">
<title>8&#45;&gt;9</title>
<g id="a_edge26"><a xlink:title="usage">
<path fill="none" stroke="#1414ce" d="M207.76,-215.7C218.24,-206.97 231.11,-196.24 242.5,-186.75"/>
<polygon fill="#1414ce" stroke="#1414ce" points="245.03,-189.19 250.47,-180.1 240.55,-183.82 245.03,-189.19"/>
</a>
</g>
</g>
<!-- 8&#45;&gt;11 -->
<g id="edge27" class="edge">
<title>8&#45;&gt;11</title>
<g id="a_edge27"><a xlink:title="usage">
<path fill="none" stroke="#1414ce" d="M187.91,-215.57C190.51,-183.17 200.51,-113.22 239,-72 250.58,-59.6 265.72,-49.18 280.27,-40.95"/>
<polygon fill="#1414ce" stroke="#1414ce" points="282.08,-43.95 289.22,-36.12 278.75,-37.79 282.08,-43.95"/>
</a>
</g>
</g>
<!-- 4&#45;&gt;6 -->
<g id="edge29" class="edge">
<title>4&#45;&gt;6</title>
<g id="a_edge29"><a xlink:title="usage">
<path fill="none" stroke="#1414ce" d="M1023,-287.7C1023,-279.98 1023,-270.71 1023,-262.11"/>
<polygon fill="#1414ce" stroke="#1414ce" points="1026.5,-262.1 1023,-252.1 1019.5,-262.1 1026.5,-262.1"/>
</a>
</g>
</g>
<!-- 4&#45;&gt;5 -->
<g id="edge28" class="edge">
<title>4&#45;&gt;5</title>
<g id="a_edge28"><a xlink:title="usage">
<path fill="none" stroke="#1414ce" d="M1062.26,-287.93C1077.79,-279.29 1094.42,-267.35 1105,-252 1117.5,-233.87 1122.02,-209.09 1123.55,-190.28"/>
<polygon fill="#1414ce" stroke="#1414ce" points="1127.04,-190.45 1124.13,-180.26 1120.06,-190.04 1127.04,-190.45"/>
</a>
</g>
</g>
<!-- 10&#45;&gt;11 -->
<g id="edge30" class="edge">
<title>10&#45;&gt;11</title>
<g id="a_edge30"><a xlink:title="usage">
<path fill="none" stroke="#1414ce" d="M304.16,-71.7C307.91,-63.73 312.45,-54.1 316.62,-45.26"/>
<polygon fill="#1414ce" stroke="#1414ce" points="319.84,-46.64 320.94,-36.1 313.51,-43.66 319.84,-46.64"/>
</a>
</g>
</g>
<!-- 5&#45;&gt;5 -->
<g id="edge31" class="edge">
<title>5&#45;&gt;5</title>
<g id="a_edge31"><a xlink:title="usage">
<path fill="none" stroke="#1414ce" d="M1157.35,-175.47C1167.28,-175.07 1175,-170.58 1175,-162 1175,-156.64 1171.98,-152.87 1167.3,-150.71"/>
<polygon fill="#1414ce" stroke="#1414ce" points="1167.87,-147.25 1157.35,-148.53 1166.37,-154.09 1167.87,-147.25"/>
</a>
</g>
</g>
</g>
</svg>
