<?xml version="1.0" encoding="UTF-8" standalone="no"?>
<!DOCTYPE svg PUBLIC "-//W3C//DTD SVG 1.1//EN"
 "http://www.w3.org/Graphics/SVG/1.1/DTD/svg11.dtd">
<!-- Generated by graphviz version 2.43.0 (0)
 -->
<!-- Title: %3 Pages: 1 -->
<svg width="1268pt" height="404pt"
 viewBox="0.00 0.00 1268.46 404.00" xmlns="http://www.w3.org/2000/svg" xmlns:xlink="http://www.w3.org/1999/xlink">
<g id="graph0" class="graph" transform="scale(1 1) rotate(0) translate(4 400)">
<title>%3</title>
<polygon fill="transparent" stroke="transparent" points="-4,4 -4,-400 1264.46,-400 1264.46,4 -4,4"/>
<!-- 18 -->
<g id="node1" class="node">
<title>18</title>
<g id="a_node1"><a xlink:title="SpinLock">
<polygon fill="#ffffff" stroke="black" points="159.16,-324 77.16,-324 77.16,-288 159.16,-288 159.16,-324"/>
<text text-anchor="middle" x="118.16" y="-302.3" font-family="Times,serif" font-size="14.00">SpinLock</text>
</a>
</g>
</g>
<!-- 1 -->
<g id="node2" class="node">
<title>1</title>
<g id="a_node2"><a xlink:title="SelectEvent">
<polygon fill="#bfbfbf" stroke="black" points="886.66,-324 783.66,-324 783.66,-288 886.66,-288 886.66,-324"/>
<text text-anchor="middle" x="835.16" y="-302.3" font-family="Times,serif" font-size="14.00">SelectEvent</text>
</a>
</g>
</g>
<!-- 5 -->
<g id="node5" class="node">
<title>5</title>
<g id="a_node5"><a xlink:title="ListHead">
<polygon fill="#ffffff" stroke="black" points="741.66,-36 660.66,-36 660.66,0 741.66,0 741.66,-36"/>
<text text-anchor="middle" x="701.16" y="-14.3" font-family="Times,serif" font-size="14.00">ListHead</text>
</a>
</g>
</g>
<!-- 1&#45;&gt;5 -->
<g id="edge2" class="edge">
<title>1&#45;&gt;5</title>
<g id="a_edge2"><a xlink:title="usage">
<path fill="none" stroke="#1414ce" d="M827.18,-287.97C804.7,-239.99 740.75,-103.5 713.6,-45.54"/>
<polygon fill="#1414ce" stroke="#1414ce" points="716.68,-43.88 709.27,-36.31 710.34,-46.85 716.68,-43.88"/>
</a>
</g>
</g>
<!-- 2 -->
<g id="node14" class="node">
<title>2</title>
<g id="a_node14"><a xlink:title="RefcBinary">
<polygon fill="#ffffff" stroke="black" points="748.66,-252 653.66,-252 653.66,-216 748.66,-216 748.66,-252"/>
<text text-anchor="middle" x="701.16" y="-230.3" font-family="Times,serif" font-size="14.00">RefcBinary</text>
</a>
</g>
</g>
<!-- 1&#45;&gt;2 -->
<g id="edge1" class="edge">
<title>1&#45;&gt;2</title>
<g id="a_edge1"><a xlink:title="usage">
<path fill="none" stroke="#1414ce" d="M802.38,-287.88C784.54,-278.55 762.26,-266.92 743.16,-256.94"/>
<polygon fill="#1414ce" stroke="#1414ce" points="744.55,-253.72 734.07,-252.19 741.31,-259.92 744.55,-253.72"/>
</a>
</g>
</g>
<!-- 3 -->
<g id="node3" class="node">
<title>3</title>
<g id="a_node3"><a xlink:title="ResourceType">
<polygon fill="#ffffff" stroke="black" points="931.66,-180 814.66,-180 814.66,-144 931.66,-144 931.66,-180"/>
<text text-anchor="middle" x="873.16" y="-158.3" font-family="Times,serif" font-size="14.00">ResourceType</text>
</a>
</g>
</g>
<!-- 3&#45;&gt;5 -->
<g id="edge5" class="edge">
<title>3&#45;&gt;5</title>
<g id="a_edge5"><a xlink:title="usage">
<path fill="none" stroke="#1414ce" d="M859.94,-143.86C844.72,-124.83 818.3,-93.91 791.16,-72 776.89,-60.48 759.85,-49.79 744.45,-41.07"/>
<polygon fill="#1414ce" stroke="#1414ce" points="746.05,-37.95 735.61,-36.17 742.66,-44.08 746.05,-37.95"/>
</a>
</g>
</g>
<!-- 6 -->
<g id="node7" class="node">
<title>6</title>
<g id="a_node7"><a xlink:title="GlobalContext">
<polygon fill="#ffffff" stroke="black" points="618.66,-396 499.66,-396 499.66,-360 618.66,-360 618.66,-396"/>
<text text-anchor="middle" x="559.16" y="-374.3" font-family="Times,serif" font-size="14.00">GlobalContext</text>
</a>
</g>
</g>
<!-- 3&#45;&gt;6 -->
<g id="edge4" class="edge">
<title>3&#45;&gt;6</title>
<g id="a_edge4"><a xlink:title="usage">
<path fill="none" stroke="#1414ce" d="M878.66,-180.22C889.99,-217.21 913.4,-302.66 895.16,-324 861.62,-363.24 717.19,-373.6 628.97,-376.23"/>
<polygon fill="#1414ce" stroke="#1414ce" points="628.66,-372.74 618.76,-376.51 628.85,-379.73 628.66,-372.74"/>
</a>
</g>
</g>
<!-- 4 -->
<g id="node17" class="node">
<title>4</title>
<g id="a_node17"><a xlink:title="SyncList">
<polygon fill="#ffffff" stroke="black" points="921.16,-108 843.16,-108 843.16,-72 921.16,-72 921.16,-108"/>
<text text-anchor="middle" x="882.16" y="-86.3" font-family="Times,serif" font-size="14.00">SyncList</text>
</a>
</g>
</g>
<!-- 3&#45;&gt;4 -->
<g id="edge3" class="edge">
<title>3&#45;&gt;4</title>
<g id="a_edge3"><a xlink:title="usage">
<path fill="none" stroke="#1414ce" d="M875.39,-143.7C876.38,-135.98 877.57,-126.71 878.67,-118.11"/>
<polygon fill="#1414ce" stroke="#1414ce" points="882.16,-118.47 879.96,-108.1 875.21,-117.58 882.16,-118.47"/>
</a>
</g>
</g>
<!-- 13 -->
<g id="node4" class="node">
<title>13</title>
<g id="a_node4"><a xlink:title="Module">
<polygon fill="#ffffff" stroke="black" points="247.16,-324 177.16,-324 177.16,-288 247.16,-288 247.16,-324"/>
<text text-anchor="middle" x="212.16" y="-302.3" font-family="Times,serif" font-size="14.00">Module</text>
</a>
</g>
</g>
<!-- 13&#45;&gt;5 -->
<g id="edge8" class="edge">
<title>13&#45;&gt;5</title>
<g id="a_edge8"><a xlink:title="usage">
<path fill="none" stroke="#1414ce" d="M176.78,-290.81C173.88,-289.81 170.98,-288.86 168.16,-288 93.55,-265.33 -32.97,-282.25 8.16,-216 84.28,-93.41 161.1,-114 299.16,-72 421.54,-34.77 572.71,-23.69 650.16,-20.39"/>
<polygon fill="#1414ce" stroke="#1414ce" points="650.73,-23.87 660.58,-19.98 650.45,-16.88 650.73,-23.87"/>
</a>
</g>
</g>
<!-- 15 -->
<g id="node10" class="node">
<title>15</title>
<g id="a_node10"><a xlink:title="LiteralEntry">
<polygon fill="#ffffff" stroke="black" points="121.16,-252 17.16,-252 17.16,-216 121.16,-216 121.16,-252"/>
<text text-anchor="middle" x="69.16" y="-230.3" font-family="Times,serif" font-size="14.00">LiteralEntry</text>
</a>
</g>
</g>
<!-- 13&#45;&gt;15 -->
<g id="edge7" class="edge">
<title>13&#45;&gt;15</title>
<g id="a_edge7"><a xlink:title="usage">
<path fill="none" stroke="#1414ce" d="M177.18,-287.88C157.96,-278.47 133.93,-266.71 113.42,-256.67"/>
<polygon fill="#1414ce" stroke="#1414ce" points="114.8,-253.44 104.28,-252.19 111.72,-259.73 114.8,-253.44"/>
</a>
</g>
</g>
<!-- 14 -->
<g id="node16" class="node">
<title>14</title>
<g id="a_node16"><a xlink:title="ExportedFunction">
<polygon fill="#ffffff" stroke="black" points="285.16,-252 139.16,-252 139.16,-216 285.16,-216 285.16,-252"/>
<text text-anchor="middle" x="212.16" y="-230.3" font-family="Times,serif" font-size="14.00">ExportedFunction</text>
</a>
</g>
</g>
<!-- 13&#45;&gt;14 -->
<g id="edge6" class="edge">
<title>13&#45;&gt;14</title>
<g id="a_edge6"><a xlink:title="usage">
<path fill="none" stroke="#1414ce" d="M212.16,-287.7C212.16,-279.98 212.16,-270.71 212.16,-262.11"/>
<polygon fill="#1414ce" stroke="#1414ce" points="215.66,-262.1 212.16,-252.1 208.66,-262.1 215.66,-262.1"/>
</a>
</g>
</g>
<!-- 5&#45;&gt;5 -->
<g id="edge9" class="edge">
<title>5&#45;&gt;5</title>
<g id="a_edge9"><a xlink:title="usage">
<path fill="none" stroke="#1414ce" d="M741.9,-31.31C752.06,-30.38 759.66,-25.95 759.66,-18 759.66,-12.91 756.54,-9.26 751.63,-7.05"/>
<polygon fill="#1414ce" stroke="#1414ce" points="752.44,-3.64 741.9,-4.69 750.79,-10.45 752.44,-3.64"/>
</a>
</g>
</g>
<!-- 12 -->
<g id="node6" class="node">
<title>12</title>
<g id="a_node6"><a xlink:title="RefcBinaryQueueItem">
<polygon fill="#ffffff" stroke="black" points="747.16,-324 573.16,-324 573.16,-288 747.16,-288 747.16,-324"/>
<text text-anchor="middle" x="660.16" y="-302.3" font-family="Times,serif" font-size="14.00">RefcBinaryQueueItem</text>
</a>
</g>
</g>
<!-- 12&#45;&gt;12 -->
<g id="edge11" class="edge">
<title>12&#45;&gt;12</title>
<g id="a_edge11"><a xlink:title="usage">
<path fill="none" stroke="#1414ce" d="M747.46,-317.68C758.15,-315.59 765.16,-311.7 765.16,-306 765.16,-302.35 762.28,-299.44 757.41,-297.27"/>
<polygon fill="#1414ce" stroke="#1414ce" points="758.05,-293.81 747.46,-294.32 756.05,-300.52 758.05,-293.81"/>
</a>
</g>
</g>
<!-- 12&#45;&gt;2 -->
<g id="edge10" class="edge">
<title>12&#45;&gt;2</title>
<g id="a_edge10"><a xlink:title="usage">
<path fill="none" stroke="#1414ce" d="M670.3,-287.7C675.01,-279.64 680.72,-269.89 685.94,-260.98"/>
<polygon fill="#1414ce" stroke="#1414ce" points="689.11,-262.5 691.14,-252.1 683.07,-258.96 689.11,-262.5"/>
</a>
</g>
</g>
<!-- 6&#45;&gt;18 -->
<g id="edge19" class="edge">
<title>6&#45;&gt;18</title>
<g id="a_edge19"><a xlink:title="usage">
<path fill="none" stroke="#1414ce" d="M499.56,-372.52C424.36,-366.07 291.11,-352.01 169.07,-323.96"/>
<polygon fill="#1414ce" stroke="#1414ce" points="169.71,-320.51 159.18,-321.65 168.12,-327.33 169.71,-320.51"/>
</a>
</g>
</g>
<!-- 6&#45;&gt;13 -->
<g id="edge16" class="edge">
<title>6&#45;&gt;13</title>
<g id="a_edge16"><a xlink:title="usage">
<path fill="none" stroke="#1414ce" d="M499.51,-364.97C430.68,-351.08 319.04,-328.56 257.13,-316.07"/>
<polygon fill="#1414ce" stroke="#1414ce" points="257.76,-312.63 247.26,-314.08 256.37,-319.49 257.76,-312.63"/>
</a>
</g>
</g>
<!-- 6&#45;&gt;5 -->
<g id="edge20" class="edge">
<title>6&#45;&gt;5</title>
<g id="a_edge20"><a xlink:title="usage">
<path fill="none" stroke="#1414ce" d="M499.28,-375.39C454.12,-371.2 393.15,-358.83 352.16,-324 319.25,-296.04 313.16,-278.19 313.16,-235 313.16,-235 313.16,-235 313.16,-161 313.16,-90.02 545.05,-43.92 650.29,-26.65"/>
<polygon fill="#1414ce" stroke="#1414ce" points="651.06,-30.07 660.37,-25.02 649.94,-23.16 651.06,-30.07"/>
</a>
</g>
</g>
<!-- 6&#45;&gt;12 -->
<g id="edge14" class="edge">
<title>6&#45;&gt;12</title>
<g id="a_edge14"><a xlink:title="usage">
<path fill="none" stroke="#1414ce" d="M583.87,-359.88C596.83,-350.89 612.89,-339.76 626.93,-330.03"/>
<polygon fill="#1414ce" stroke="#1414ce" points="629.13,-332.76 635.36,-324.19 625.15,-327.01 629.13,-332.76"/>
</a>
</g>
</g>
<!-- 17 -->
<g id="node9" class="node">
<title>17</title>
<g id="a_node9"><a xlink:title="TimerList">
<polygon fill="#ffffff" stroke="black" points="550.16,-108 464.16,-108 464.16,-72 550.16,-72 550.16,-108"/>
<text text-anchor="middle" x="507.16" y="-86.3" font-family="Times,serif" font-size="14.00">TimerList</text>
</a>
</g>
</g>
<!-- 6&#45;&gt;17 -->
<g id="edge18" class="edge">
<title>6&#45;&gt;17</title>
<g id="a_edge18"><a xlink:title="usage">
<path fill="none" stroke="#1414ce" d="M499.64,-368.25C450.34,-359.65 385.91,-344.77 370.16,-324 315.96,-252.51 419.13,-157.85 474.84,-114.5"/>
<polygon fill="#1414ce" stroke="#1414ce" points="477.2,-117.09 483.02,-108.24 472.95,-111.54 477.2,-117.09"/>
</a>
</g>
</g>
<!-- 7 -->
<g id="node12" class="node">
<title>7</title>
<g id="a_node12"><a xlink:title="MessageQueueItem">
<polygon fill="#ffffff" stroke="black" points="537.16,-324 379.16,-324 379.16,-288 537.16,-288 537.16,-324"/>
<text text-anchor="middle" x="458.16" y="-302.3" font-family="Times,serif" font-size="14.00">MessageQueueItem</text>
</a>
</g>
</g>
<!-- 6&#45;&gt;7 -->
<g id="edge12" class="edge">
<title>6&#45;&gt;7</title>
<g id="a_edge12"><a xlink:title="usage">
<path fill="none" stroke="#1414ce" d="M534.45,-359.88C521.49,-350.89 505.43,-339.76 491.4,-330.03"/>
<polygon fill="#1414ce" stroke="#1414ce" points="493.18,-327.01 482.96,-324.19 489.19,-332.76 493.18,-327.01"/>
</a>
</g>
</g>
<!-- 16 -->
<g id="node13" class="node">
<title>16</title>
<g id="a_node13"><a xlink:title="AtomsHashTable">
<polygon fill="#ffffff" stroke="black" points="1238.66,-252 1101.66,-252 1101.66,-216 1238.66,-216 1238.66,-252"/>
<text text-anchor="middle" x="1170.16" y="-230.3" font-family="Times,serif" font-size="14.00">AtomsHashTable</text>
</a>
</g>
</g>
<!-- 6&#45;&gt;16 -->
<g id="edge17" class="edge">
<title>6&#45;&gt;16</title>
<g id="a_edge17"><a xlink:title="usage">
<path fill="none" stroke="#1414ce" d="M618.93,-374.21C730.87,-368.37 967.72,-352.94 1044.16,-324 1082.87,-309.35 1120.75,-279.95 1144.71,-258.96"/>
<polygon fill="#1414ce" stroke="#1414ce" points="1147.16,-261.46 1152.28,-252.19 1142.49,-256.24 1147.16,-261.46"/>
</a>
</g>
</g>
<!-- 9 -->
<g id="node15" class="node">
<title>9</title>
<g id="a_node15"><a xlink:title="AtomTable">
<polygon fill="#ffffff" stroke="black" points="1035.16,-324 943.16,-324 943.16,-288 1035.16,-288 1035.16,-324"/>
<text text-anchor="middle" x="989.16" y="-302.3" font-family="Times,serif" font-size="14.00">AtomTable</text>
</a>
</g>
</g>
<!-- 6&#45;&gt;9 -->
<g id="edge13" class="edge">
<title>6&#45;&gt;9</title>
<g id="a_edge13"><a xlink:title="usage">
<path fill="none" stroke="#1414ce" d="M618.87,-370.94C692.37,-362.9 820.77,-347.01 929.16,-324 930.44,-323.73 931.74,-323.44 933.04,-323.15"/>
<polygon fill="#1414ce" stroke="#1414ce" points="934.23,-326.46 943.13,-320.71 932.59,-319.66 934.23,-326.46"/>
</a>
</g>
</g>
<!-- 6&#45;&gt;4 -->
<g id="edge15" class="edge">
<title>6&#45;&gt;4</title>
<g id="a_edge15"><a xlink:title="usage">
<path fill="none" stroke="#1414ce" d="M618.79,-376.62C773.33,-374.13 1179.48,-357.5 1247.16,-252 1323.3,-133.31 1047.45,-101.58 931.34,-93.56"/>
<polygon fill="#1414ce" stroke="#1414ce" points="931.49,-90.06 921.28,-92.89 931.03,-97.04 931.49,-90.06"/>
</a>
</g>
</g>
<!-- 11 -->
<g id="node8" class="node">
<title>11</title>
<g id="a_node8"><a xlink:title="HNodeGroup">
<polygon fill="#ffffff" stroke="black" points="1027.16,-252 917.16,-252 917.16,-216 1027.16,-216 1027.16,-252"/>
<text text-anchor="middle" x="972.16" y="-230.3" font-family="Times,serif" font-size="14.00">HNodeGroup</text>
</a>
</g>
</g>
<!-- 11&#45;&gt;11 -->
<g id="edge22" class="edge">
<title>11&#45;&gt;11</title>
<g id="a_edge22"><a xlink:title="usage">
<path fill="none" stroke="#1414ce" d="M1027.23,-246.85C1037.73,-245.32 1045.16,-241.03 1045.16,-234 1045.16,-229.5 1042.11,-226.12 1037.16,-223.87"/>
<polygon fill="#1414ce" stroke="#1414ce" points="1037.8,-220.42 1027.23,-221.15 1035.95,-227.17 1037.8,-220.42"/>
</a>
</g>
</g>
<!-- 10 -->
<g id="node18" class="node">
<title>10</title>
<g id="a_node18"><a xlink:title="HNode">
<polygon fill="#ffffff" stroke="black" points="1106.16,-180 1040.16,-180 1040.16,-144 1106.16,-144 1106.16,-180"/>
<text text-anchor="middle" x="1073.16" y="-158.3" font-family="Times,serif" font-size="14.00">HNode</text>
</a>
</g>
</g>
<!-- 11&#45;&gt;10 -->
<g id="edge21" class="edge">
<title>11&#45;&gt;10</title>
<g id="a_edge21"><a xlink:title="usage">
<path fill="none" stroke="#1414ce" d="M996.87,-215.88C1009.83,-206.89 1025.89,-195.76 1039.93,-186.03"/>
<polygon fill="#1414ce" stroke="#1414ce" points="1042.13,-188.76 1048.36,-180.19 1038.15,-183.01 1042.13,-188.76"/>
</a>
</g>
</g>
<!-- 17&#45;&gt;5 -->
<g id="edge23" class="edge">
<title>17&#45;&gt;5</title>
<g id="a_edge23"><a xlink:title="usage">
<path fill="none" stroke="#1414ce" d="M550.22,-73.46C579.93,-62.74 619.55,-48.45 650.74,-37.19"/>
<polygon fill="#1414ce" stroke="#1414ce" points="652.33,-40.34 660.55,-33.65 649.95,-33.76 652.33,-40.34"/>
</a>
</g>
</g>
<!-- 8 -->
<g id="node11" class="node">
<title>8</title>
<g id="a_node11"><a xlink:title="MailboxMessage">
<polygon fill="#ffffff" stroke="black" points="526.66,-252 389.66,-252 389.66,-216 526.66,-216 526.66,-252"/>
<text text-anchor="middle" x="458.16" y="-230.3" font-family="Times,serif" font-size="14.00">MailboxMessage</text>
</a>
</g>
</g>
<!-- 8&#45;&gt;8 -->
<g id="edge24" class="edge">
<title>8&#45;&gt;8</title>
<g id="a_edge24"><a xlink:title="usage">
<path fill="none" stroke="#1414ce" d="M526.69,-246.37C537.37,-244.52 544.66,-240.4 544.66,-234 544.66,-229.8 541.52,-226.58 536.34,-224.34"/>
<polygon fill="#1414ce" stroke="#1414ce" points="537.26,-220.96 526.69,-221.63 535.37,-227.7 537.26,-220.96"/>
</a>
</g>
</g>
<!-- 7&#45;&gt;8 -->
<g id="edge25" class="edge">
<title>7&#45;&gt;8</title>
<g id="a_edge25"><a xlink:title="usage">
<path fill="none" stroke="#1414ce" d="M458.16,-287.7C458.16,-279.98 458.16,-270.71 458.16,-262.11"/>
<polygon fill="#1414ce" stroke="#1414ce" points="461.66,-262.1 458.16,-252.1 454.66,-262.1 461.66,-262.1"/>
</a>
</g>
</g>
<!-- 7&#45;&gt;7 -->
<g id="edge26" class="edge">
<title>7&#45;&gt;7</title>
<g id="a_edge26"><a xlink:title="usage">
<path fill="none" stroke="#1414ce" d="M537.32,-317.98C548.03,-315.97 555.16,-311.98 555.16,-306 555.16,-302.08 552.09,-299.01 546.95,-296.8"/>
<polygon fill="#1414ce" stroke="#1414ce" points="547.9,-293.43 537.32,-294.02 545.96,-300.15 547.9,-293.43"/>
</a>
</g>
</g>
<!-- 16&#45;&gt;10 -->
<g id="edge27" class="edge">
<title>16&#45;&gt;10</title>
<g id="a_edge27"><a xlink:title="usage">
<path fill="none" stroke="#1414ce" d="M1146.18,-215.7C1133.85,-206.8 1118.64,-195.82 1105.31,-186.2"/>
<polygon fill="#1414ce" stroke="#1414ce" points="1107.02,-183.12 1096.86,-180.1 1102.92,-188.79 1107.02,-183.12"/>
</a>
</g>
</g>
<!-- 2&#45;&gt;3 -->
<g id="edge28" class="edge">
<title>2&#45;&gt;3</title>
<g id="a_edge28"><a xlink:title="usage">
<path fill="none" stroke="#1414ce" d="M743.24,-215.88C766.96,-206.22 796.78,-194.09 821.86,-183.88"/>
<polygon fill="#1414ce" stroke="#1414ce" points="823.28,-187.08 831.22,-180.07 820.64,-180.6 823.28,-187.08"/>
</a>
</g>
</g>
<!-- 2&#45;&gt;5 -->
<g id="edge29" class="edge">
<title>2&#45;&gt;5</title>
<g id="a_edge29"><a xlink:title="usage">
<path fill="none" stroke="#1414ce" d="M701.16,-215.85C701.16,-178.83 701.16,-91.18 701.16,-46.39"/>
<polygon fill="#1414ce" stroke="#1414ce" points="704.66,-46.23 701.16,-36.23 697.66,-46.23 704.66,-46.23"/>
</a>
</g>
</g>
<!-- 9&#45;&gt;11 -->
<g id="edge31" class="edge">
<title>9&#45;&gt;11</title>
<g id="a_edge31"><a xlink:title="usage">
<path fill="none" stroke="#1414ce" d="M984.96,-287.7C983.06,-279.9 980.78,-270.51 978.68,-261.83"/>
<polygon fill="#1414ce" stroke="#1414ce" points="982.08,-261 976.31,-252.1 975.27,-262.65 982.08,-261"/>
</a>
</g>
</g>
<!-- 9&#45;&gt;10 -->
<g id="edge30" class="edge">
<title>9&#45;&gt;10</title>
<g id="a_edge30"><a xlink:title="usage">
<path fill="none" stroke="#1414ce" d="M1017.98,-287.95C1030.94,-278.86 1045.28,-266.54 1054.16,-252 1065.52,-233.4 1070.16,-209.01 1072.02,-190.47"/>
<polygon fill="#1414ce" stroke="#1414ce" points="1075.52,-190.55 1072.82,-180.31 1068.54,-190 1075.52,-190.55"/>
</a>
</g>
</g>
<!-- 4&#45;&gt;5 -->
<g id="edge32" class="edge">
<title>4&#45;&gt;5</title>
<g id="a_edge32"><a xlink:title="usage">
<path fill="none" stroke="#1414ce" d="M842.89,-73.81C816.08,-63.44 780.33,-49.62 751.44,-38.44"/>
<polygon fill="#1414ce" stroke="#1414ce" points="752.52,-35.11 741.93,-34.77 749.99,-41.64 752.52,-35.11"/>
</a>
</g>
</g>
<!-- 10&#45;&gt;10 -->
<g id="edge33" class="edge">
<title>10&#45;&gt;10</title>
<g id="a_edge33"><a xlink:title="usage">
<path fill="none" stroke="#1414ce" d="M1106.52,-175.47C1116.44,-175.07 1124.16,-170.58 1124.16,-162 1124.16,-156.64 1121.14,-152.87 1116.46,-150.71"/>
<polygon fill="#1414ce" stroke="#1414ce" points="1117.03,-147.25 1106.52,-148.53 1115.54,-154.09 1117.03,-147.25"/>
</a>
</g>
</g>
</g>
</svg>
