<?xml version="1.0" encoding="UTF-8" standalone="no"?>
<!DOCTYPE svg PUBLIC "-//W3C//DTD SVG 1.1//EN"
 "http://www.w3.org/Graphics/SVG/1.1/DTD/svg11.dtd">
<!-- Generated by graphviz version 2.43.0 (0)
 -->
<!-- Title: %3 Pages: 1 -->
<svg width="859pt" height="548pt"
 viewBox="0.00 0.00 858.50 548.00" xmlns="http://www.w3.org/2000/svg" xmlns:xlink="http://www.w3.org/1999/xlink">
<g id="graph0" class="graph" transform="scale(1 1) rotate(0) translate(4 544)">
<title>%3</title>
<polygon fill="transparent" stroke="transparent" points="-4,4 -4,-544 854.5,-544 854.5,4 -4,4"/>
<!-- 3 -->
<g id="node1" class="node">
<title>3</title>
<g id="a_node1"><a xlink:title="stdbool.h">
<polygon fill="#ffffff" stroke="black" points="639.5,-108 556.5,-108 556.5,-72 639.5,-72 639.5,-108"/>
<text text-anchor="middle" x="598" y="-86.3" font-family="Times,serif" font-size="14.00">stdbool.h</text>
</a>
</g>
</g>
<!-- 20 -->
<g id="node2" class="node">
<title>20</title>
<g id="a_node2"><a xlink:title="refc_binary.h">
<polygon fill="#ffffff" stroke="black" points="495,-396 387,-396 387,-360 495,-360 495,-396"/>
<text text-anchor="middle" x="441" y="-374.3" font-family="Times,serif" font-size="14.00">refc_binary.h</text>
</a>
</g>
</g>
<!-- 20&#45;&gt;3 -->
<g id="edge1" class="edge">
<title>20&#45;&gt;3</title>
<g id="a_edge1"><a xlink:title="include">
<path fill="none" stroke="#1414ce" d="M464.54,-359.8C475.72,-350.43 488.29,-337.92 496,-324 535.63,-252.48 491.71,-213.98 534,-144 540.89,-132.6 551.13,-122.53 561.41,-114.31"/>
<polygon fill="#1414ce" stroke="#1414ce" points="563.73,-116.95 569.61,-108.13 559.52,-111.36 563.73,-116.95"/>
</a>
</g>
</g>
<!-- 2 -->
<g id="node6" class="node">
<title>2</title>
<g id="a_node6"><a xlink:title="list.h">
<polygon fill="#ffffff" stroke="black" points="597,-180 543,-180 543,-144 597,-144 597,-180"/>
<text text-anchor="middle" x="570" y="-158.3" font-family="Times,serif" font-size="14.00">list.h</text>
</a>
</g>
</g>
<!-- 20&#45;&gt;2 -->
<g id="edge3" class="edge">
<title>20&#45;&gt;2</title>
<g id="a_edge3"><a xlink:title="include">
<path fill="none" stroke="#1414ce" d="M483.71,-359.84C500.05,-351.31 517.51,-339.46 529,-324 558.65,-284.1 566.96,-224.95 569.22,-190.56"/>
<polygon fill="#1414ce" stroke="#1414ce" points="572.73,-190.49 569.77,-180.32 565.74,-190.12 572.73,-190.49"/>
</a>
</g>
</g>
<!-- 10 -->
<g id="node8" class="node">
<title>10</title>
<g id="a_node8"><a xlink:title="stdlib.h">
<polygon fill="#ffffff" stroke="black" points="188.5,-108 117.5,-108 117.5,-72 188.5,-72 188.5,-108"/>
<text text-anchor="middle" x="153" y="-86.3" font-family="Times,serif" font-size="14.00">stdlib.h</text>
</a>
</g>
</g>
<!-- 20&#45;&gt;10 -->
<g id="edge2" class="edge">
<title>20&#45;&gt;10</title>
<g id="a_edge2"><a xlink:title="include">
<path fill="none" stroke="#1414ce" d="M393.53,-359.88C342.82,-339.86 262.18,-302.87 206,-252 177.49,-226.19 170.17,-216.48 158,-180 151.36,-160.09 150.35,-136.3 150.87,-118.32"/>
<polygon fill="#1414ce" stroke="#1414ce" points="154.37,-118.38 151.34,-108.23 147.38,-118.06 154.37,-118.38"/>
</a>
</g>
</g>
<!-- 21 -->
<g id="node10" class="node">
<title>21</title>
<g id="a_node10"><a xlink:title="resources.h">
<polygon fill="#ffffff" stroke="black" points="487,-324 387,-324 387,-288 487,-288 487,-324"/>
<text text-anchor="middle" x="437" y="-302.3" font-family="Times,serif" font-size="14.00">resources.h</text>
</a>
</g>
</g>
<!-- 20&#45;&gt;21 -->
<g id="edge4" class="edge">
<title>20&#45;&gt;21</title>
<g id="a_edge4"><a xlink:title="include">
<path fill="none" stroke="#1414ce" d="M440.01,-359.7C439.57,-351.98 439.04,-342.71 438.55,-334.11"/>
<polygon fill="#1414ce" stroke="#1414ce" points="442.04,-333.89 437.98,-324.1 435.05,-334.29 442.04,-333.89"/>
</a>
</g>
</g>
<!-- 15 -->
<g id="node3" class="node">
<title>15</title>
<g id="a_node3"><a xlink:title="assert.h">
<polygon fill="#ffffff" stroke="black" points="497,-36 423,-36 423,0 497,0 497,-36"/>
<text text-anchor="middle" x="460" y="-14.3" font-family="Times,serif" font-size="14.00">assert.h</text>
</a>
</g>
</g>
<!-- 18 -->
<g id="node4" class="node">
<title>18</title>
<g id="a_node4"><a xlink:title="utils.h">
<polygon fill="#ffffff" stroke="black" points="281,-180 219,-180 219,-144 281,-144 281,-180"/>
<text text-anchor="middle" x="250" y="-158.3" font-family="Times,serif" font-size="14.00">utils.h</text>
</a>
</g>
</g>
<!-- 18&#45;&gt;10 -->
<g id="edge7" class="edge">
<title>18&#45;&gt;10</title>
<g id="a_edge7"><a xlink:title="include">
<path fill="none" stroke="#1414ce" d="M226.02,-143.7C213.69,-134.8 198.48,-123.82 185.15,-114.2"/>
<polygon fill="#1414ce" stroke="#1414ce" points="186.86,-111.12 176.7,-108.1 182.76,-116.79 186.86,-111.12"/>
</a>
</g>
</g>
<!-- 19 -->
<g id="node12" class="node">
<title>19</title>
<g id="a_node12"><a xlink:title="stddef.h">
<polygon fill="#ffffff" stroke="black" points="281,-108 207,-108 207,-72 281,-72 281,-108"/>
<text text-anchor="middle" x="244" y="-86.3" font-family="Times,serif" font-size="14.00">stddef.h</text>
</a>
</g>
</g>
<!-- 18&#45;&gt;19 -->
<g id="edge5" class="edge">
<title>18&#45;&gt;19</title>
<g id="a_edge5"><a xlink:title="include">
<path fill="none" stroke="#1414ce" d="M248.52,-143.7C247.86,-135.98 247.06,-126.71 246.32,-118.11"/>
<polygon fill="#1414ce" stroke="#1414ce" points="249.81,-117.77 245.47,-108.1 242.83,-118.37 249.81,-117.77"/>
</a>
</g>
</g>
<!-- 5 -->
<g id="node19" class="node">
<title>5</title>
<g id="a_node19"><a xlink:title="stdio.h">
<polygon fill="#ffffff" stroke="black" points="773.5,-108 708.5,-108 708.5,-72 773.5,-72 773.5,-108"/>
<text text-anchor="middle" x="741" y="-86.3" font-family="Times,serif" font-size="14.00">stdio.h</text>
</a>
</g>
</g>
<!-- 18&#45;&gt;5 -->
<g id="edge6" class="edge">
<title>18&#45;&gt;5</title>
<g id="a_edge6"><a xlink:title="include">
<path fill="none" stroke="#1414ce" d="M281.49,-156.22C304.81,-152.72 337.36,-147.92 366,-144 491.62,-126.81 523.72,-127.53 649,-108 665.19,-105.48 682.91,-102.3 698.44,-99.38"/>
<polygon fill="#1414ce" stroke="#1414ce" points="699.12,-102.81 708.29,-97.51 697.81,-95.94 699.12,-102.81"/>
</a>
</g>
</g>
<!-- 4 -->
<g id="node5" class="node">
<title>4</title>
<g id="a_node5"><a xlink:title="synclist.h">
<polygon fill="#ffffff" stroke="black" points="742.5,-252 657.5,-252 657.5,-216 742.5,-216 742.5,-252"/>
<text text-anchor="middle" x="700" y="-230.3" font-family="Times,serif" font-size="14.00">synclist.h</text>
</a>
</g>
</g>
<!-- 4&#45;&gt;2 -->
<g id="edge9" class="edge">
<title>4&#45;&gt;2</title>
<g id="a_edge9"><a xlink:title="include">
<path fill="none" stroke="#1414ce" d="M668.2,-215.88C649.38,-205.74 625.49,-192.88 605.98,-182.37"/>
<polygon fill="#1414ce" stroke="#1414ce" points="607.54,-179.24 597.08,-177.58 604.23,-185.4 607.54,-179.24"/>
</a>
</g>
</g>
<!-- 6 -->
<g id="node18" class="node">
<title>6</title>
<g id="a_node18"><a xlink:title="smp.h">
<polygon fill="#ffffff" stroke="black" points="713,-180 653,-180 653,-144 713,-144 713,-180"/>
<text text-anchor="middle" x="683" y="-158.3" font-family="Times,serif" font-size="14.00">smp.h</text>
</a>
</g>
</g>
<!-- 4&#45;&gt;6 -->
<g id="edge10" class="edge">
<title>4&#45;&gt;6</title>
<g id="a_edge10"><a xlink:title="include">
<path fill="none" stroke="#1414ce" d="M695.8,-215.7C693.9,-207.9 691.62,-198.51 689.52,-189.83"/>
<polygon fill="#1414ce" stroke="#1414ce" points="692.92,-189 687.15,-180.1 686.11,-190.65 692.92,-189"/>
</a>
</g>
</g>
<!-- 4&#45;&gt;5 -->
<g id="edge8" class="edge">
<title>4&#45;&gt;5</title>
<g id="a_edge8"><a xlink:title="include">
<path fill="none" stroke="#1414ce" d="M708.16,-215.63C712.71,-205.43 718.21,-192.18 722,-180 728.33,-159.67 733.26,-136.07 736.51,-118.29"/>
<polygon fill="#1414ce" stroke="#1414ce" points="739.98,-118.76 738.27,-108.3 733.09,-117.54 739.98,-118.76"/>
</a>
</g>
</g>
<!-- 2&#45;&gt;3 -->
<g id="edge11" class="edge">
<title>2&#45;&gt;3</title>
<g id="a_edge11"><a xlink:title="include">
<path fill="none" stroke="#1414ce" d="M576.92,-143.7C580.07,-135.81 583.88,-126.3 587.38,-117.55"/>
<polygon fill="#1414ce" stroke="#1414ce" points="590.69,-118.69 591.16,-108.1 584.19,-116.09 590.69,-118.69"/>
</a>
</g>
</g>
<!-- 9 -->
<g id="node7" class="node">
<title>9</title>
<g id="a_node7"><a xlink:title="stdint.h">
<polygon fill="#ffffff" stroke="black" points="297,-36 225,-36 225,0 297,0 297,-36"/>
<text text-anchor="middle" x="261" y="-14.3" font-family="Times,serif" font-size="14.00">stdint.h</text>
</a>
</g>
</g>
<!-- 12 -->
<g id="node9" class="node">
<title>12</title>
<g id="a_node9"><a xlink:title="memory.h">
<polygon fill="#ffffff" stroke="black" points="364,-252 278,-252 278,-216 364,-216 364,-252"/>
<text text-anchor="middle" x="321" y="-230.3" font-family="Times,serif" font-size="14.00">memory.h</text>
</a>
</g>
</g>
<!-- 12&#45;&gt;18 -->
<g id="edge16" class="edge">
<title>12&#45;&gt;18</title>
<g id="a_edge16"><a xlink:title="include">
<path fill="none" stroke="#1414ce" d="M303.45,-215.7C294.77,-207.14 284.14,-196.66 274.65,-187.3"/>
<polygon fill="#1414ce" stroke="#1414ce" points="276.93,-184.63 267.35,-180.1 272.01,-189.62 276.93,-184.63"/>
</a>
</g>
</g>
<!-- 12&#45;&gt;9 -->
<g id="edge12" class="edge">
<title>12&#45;&gt;9</title>
<g id="a_edge12"><a xlink:title="include">
<path fill="none" stroke="#1414ce" d="M319.44,-215.61C316.35,-185.58 308.12,-122.35 290,-72 286.66,-62.72 281.86,-53.11 277.13,-44.67"/>
<polygon fill="#1414ce" stroke="#1414ce" points="280.15,-42.9 272.09,-36.03 274.11,-46.43 280.15,-42.9"/>
</a>
</g>
</g>
<!-- 12&#45;&gt;10 -->
<g id="edge13" class="edge">
<title>12&#45;&gt;10</title>
<g id="a_edge13"><a xlink:title="include">
<path fill="none" stroke="#1414ce" d="M277.92,-218.92C255.87,-210.19 229.61,-197.31 210,-180 190.23,-162.55 174.7,-136.64 164.87,-117.27"/>
<polygon fill="#1414ce" stroke="#1414ce" points="167.92,-115.54 160.38,-108.09 161.63,-118.61 167.92,-115.54"/>
</a>
</g>
</g>
<!-- 13 -->
<g id="node13" class="node">
<title>13</title>
<g id="a_node13"><a xlink:title="erl_nif.h">
<polygon fill="#ffffff" stroke="black" points="449,-180 375,-180 375,-144 449,-144 449,-180"/>
<text text-anchor="middle" x="412" y="-158.3" font-family="Times,serif" font-size="14.00">erl_nif.h</text>
</a>
</g>
</g>
<!-- 12&#45;&gt;13 -->
<g id="edge14" class="edge">
<title>12&#45;&gt;13</title>
<g id="a_edge14"><a xlink:title="include">
<path fill="none" stroke="#1414ce" d="M343.49,-215.7C354.96,-206.88 369.06,-196.03 381.48,-186.47"/>
<polygon fill="#1414ce" stroke="#1414ce" points="383.97,-188.98 389.76,-180.1 379.7,-183.43 383.97,-188.98"/>
</a>
</g>
</g>
<!-- 14 -->
<g id="node17" class="node">
<title>14</title>
<g id="a_node17"><a xlink:title="term_typedef.h">
<polygon fill="#ffffff" stroke="black" points="474.5,-108 349.5,-108 349.5,-72 474.5,-72 474.5,-108"/>
<text text-anchor="middle" x="412" y="-86.3" font-family="Times,serif" font-size="14.00">term_typedef.h</text>
</a>
</g>
</g>
<!-- 12&#45;&gt;14 -->
<g id="edge15" class="edge">
<title>12&#45;&gt;14</title>
<g id="a_edge15"><a xlink:title="include">
<path fill="none" stroke="#1414ce" d="M328.12,-215.91C336.15,-197.47 350.17,-167.57 366,-144 372.55,-134.24 380.7,-124.31 388.31,-115.73"/>
<polygon fill="#1414ce" stroke="#1414ce" points="390.95,-118.02 395.08,-108.26 385.77,-113.32 390.95,-118.02"/>
</a>
</g>
</g>
<!-- 21&#45;&gt;4 -->
<g id="edge21" class="edge">
<title>21&#45;&gt;4</title>
<g id="a_edge21"><a xlink:title="include">
<path fill="none" stroke="#1414ce" d="M487.09,-291.67C533.05,-279.44 600.88,-261.38 647.56,-248.96"/>
<polygon fill="#1414ce" stroke="#1414ce" points="648.72,-252.27 657.48,-246.32 646.92,-245.51 648.72,-252.27"/>
</a>
</g>
</g>
<!-- 21&#45;&gt;2 -->
<g id="edge19" class="edge">
<title>21&#45;&gt;2</title>
<g id="a_edge19"><a xlink:title="include">
<path fill="none" stroke="#1414ce" d="M453.04,-287.87C476.41,-262.92 519.94,-216.45 546.8,-187.77"/>
<polygon fill="#1414ce" stroke="#1414ce" points="549.62,-189.88 553.9,-180.19 544.51,-185.1 549.62,-189.88"/>
</a>
</g>
</g>
<!-- 21&#45;&gt;10 -->
<g id="edge17" class="edge">
<title>21&#45;&gt;10</title>
<g id="a_edge17"><a xlink:title="include">
<path fill="none" stroke="#1414ce" d="M386.76,-296.65C325.59,-283.56 224.57,-251.82 177,-180 164.68,-161.4 158.66,-136.66 155.73,-117.99"/>
<polygon fill="#1414ce" stroke="#1414ce" points="159.2,-117.49 154.37,-108.05 152.26,-118.44 159.2,-117.49"/>
</a>
</g>
</g>
<!-- 21&#45;&gt;12 -->
<g id="edge20" class="edge">
<title>21&#45;&gt;12</title>
<g id="a_edge20"><a xlink:title="include">
<path fill="none" stroke="#1414ce" d="M408.62,-287.88C393.46,-278.72 374.59,-267.34 358.26,-257.48"/>
<polygon fill="#1414ce" stroke="#1414ce" points="359.86,-254.36 349.49,-252.19 356.24,-260.35 359.86,-254.36"/>
</a>
</g>
</g>
<!-- 21&#45;&gt;13 -->
<g id="edge18" class="edge">
<title>21&#45;&gt;13</title>
<g id="a_edge18"><a xlink:title="include">
<path fill="none" stroke="#1414ce" d="M433.98,-287.87C429.72,-263.67 421.9,-219.21 416.82,-190.39"/>
<polygon fill="#1414ce" stroke="#1414ce" points="420.21,-189.43 415.03,-180.19 413.31,-190.64 420.21,-189.43"/>
</a>
</g>
</g>
<!-- 7 -->
<g id="node11" class="node">
<title>7</title>
<g id="a_node11"><a xlink:title="term.h">
<polygon fill="#ffffff" stroke="black" points="353.5,-468 288.5,-468 288.5,-432 353.5,-432 353.5,-468"/>
<text text-anchor="middle" x="321" y="-446.3" font-family="Times,serif" font-size="14.00">term.h</text>
</a>
</g>
</g>
<!-- 7&#45;&gt;3 -->
<g id="edge23" class="edge">
<title>7&#45;&gt;3</title>
<g id="a_edge23"><a xlink:title="include">
<path fill="none" stroke="#1414ce" d="M353.67,-446.25C392.72,-441.56 458.48,-429.02 504,-396 589.94,-333.66 587.38,-284.52 606,-180 609.65,-159.51 607.28,-136.05 604.19,-118.37"/>
<polygon fill="#1414ce" stroke="#1414ce" points="607.56,-117.33 602.23,-108.18 600.68,-118.66 607.56,-117.33"/>
</a>
</g>
</g>
<!-- 7&#45;&gt;20 -->
<g id="edge29" class="edge">
<title>7&#45;&gt;20</title>
<g id="a_edge29"><a xlink:title="include">
<path fill="none" stroke="#1414ce" d="M350.36,-431.88C366.05,-422.72 385.56,-411.34 402.45,-401.48"/>
<polygon fill="#1414ce" stroke="#1414ce" points="404.66,-404.25 411.53,-396.19 401.13,-398.21 404.66,-404.25"/>
</a>
</g>
</g>
<!-- 7&#45;&gt;18 -->
<g id="edge30" class="edge">
<title>7&#45;&gt;18</title>
<g id="a_edge30"><a xlink:title="include">
<path fill="none" stroke="#1414ce" d="M316.2,-431.94C306.69,-397.87 284.97,-318.92 269,-252 264.08,-231.38 259.1,-207.93 255.47,-190.28"/>
<polygon fill="#1414ce" stroke="#1414ce" points="258.83,-189.22 253.4,-180.12 251.97,-190.61 258.83,-189.22"/>
</a>
</g>
</g>
<!-- 7&#45;&gt;9 -->
<g id="edge24" class="edge">
<title>7&#45;&gt;9</title>
<g id="a_edge24"><a xlink:title="include">
<path fill="none" stroke="#1414ce" d="M288.41,-446.94C221.64,-442.1 72.36,-427.93 34,-396 1.46,-368.91 0,-349.34 0,-307 0,-307 0,-307 0,-161 0,-64.31 139.91,-33.09 214.86,-23.3"/>
<polygon fill="#1414ce" stroke="#1414ce" points="215.48,-26.74 224.98,-22.05 214.63,-19.8 215.48,-26.74"/>
</a>
</g>
</g>
<!-- 7&#45;&gt;10 -->
<g id="edge26" class="edge">
<title>7&#45;&gt;10</title>
<g id="a_edge26"><a xlink:title="include">
<path fill="none" stroke="#1414ce" d="M288.21,-446.83C224.93,-441.94 89.34,-427.95 57,-396 28.23,-367.57 38,-347.45 38,-307 38,-307 38,-307 38,-233 38,-181.97 83.41,-139 117.16,-114.11"/>
<polygon fill="#1414ce" stroke="#1414ce" points="119.36,-116.84 125.45,-108.18 115.28,-111.15 119.36,-116.84"/>
</a>
</g>
</g>
<!-- 7&#45;&gt;12 -->
<g id="edge28" class="edge">
<title>7&#45;&gt;12</title>
<g id="a_edge28"><a xlink:title="include">
<path fill="none" stroke="#1414ce" d="M321,-431.85C321,-394.83 321,-307.18 321,-262.39"/>
<polygon fill="#1414ce" stroke="#1414ce" points="324.5,-262.23 321,-252.23 317.5,-262.23 324.5,-262.23"/>
</a>
</g>
</g>
<!-- 8 -->
<g id="node15" class="node">
<title>8</title>
<g id="a_node15"><a xlink:title="sys/types.h">
<polygon fill="#ffffff" stroke="black" points="163.5,-396 66.5,-396 66.5,-360 163.5,-360 163.5,-396"/>
<text text-anchor="middle" x="115" y="-374.3" font-family="Times,serif" font-size="14.00">sys/types.h</text>
</a>
</g>
</g>
<!-- 7&#45;&gt;8 -->
<g id="edge22" class="edge">
<title>7&#45;&gt;8</title>
<g id="a_edge22"><a xlink:title="include">
<path fill="none" stroke="#1414ce" d="M288.36,-437.91C257.53,-427.43 210.6,-411.49 173.34,-398.82"/>
<polygon fill="#1414ce" stroke="#1414ce" points="174.19,-395.42 163.6,-395.51 171.94,-402.05 174.19,-395.42"/>
</a>
</g>
</g>
<!-- 11 -->
<g id="node16" class="node">
<title>11</title>
<g id="a_node16"><a xlink:title="string.h">
<polygon fill="#ffffff" stroke="black" points="254.5,-396 181.5,-396 181.5,-360 254.5,-360 254.5,-396"/>
<text text-anchor="middle" x="218" y="-374.3" font-family="Times,serif" font-size="14.00">string.h</text>
</a>
</g>
</g>
<!-- 7&#45;&gt;11 -->
<g id="edge27" class="edge">
<title>7&#45;&gt;11</title>
<g id="a_edge27"><a xlink:title="include">
<path fill="none" stroke="#1414ce" d="M295.8,-431.88C282.59,-422.89 266.21,-411.76 251.89,-402.03"/>
<polygon fill="#1414ce" stroke="#1414ce" points="253.53,-398.92 243.29,-396.19 249.6,-404.71 253.53,-398.92"/>
</a>
</g>
</g>
<!-- 7&#45;&gt;14 -->
<g id="edge31" class="edge">
<title>7&#45;&gt;14</title>
<g id="a_edge31"><a xlink:title="include">
<path fill="none" stroke="#1414ce" d="M325.26,-431.86C333.15,-401.65 351.68,-337.48 378,-288 406.05,-235.26 439.28,-236.72 458,-180 463.01,-164.81 463.6,-158.99 458,-144 454.12,-133.62 447.2,-123.93 439.88,-115.74"/>
<polygon fill="#1414ce" stroke="#1414ce" points="442.27,-113.18 432.82,-108.38 437.22,-118.03 442.27,-113.18"/>
</a>
</g>
</g>
<!-- 7&#45;&gt;5 -->
<g id="edge25" class="edge">
<title>7&#45;&gt;5</title>
<g id="a_edge25"><a xlink:title="include">
<path fill="none" stroke="#1414ce" d="M353.55,-446.64C439.63,-438.38 672.13,-402.41 752,-252 774.63,-209.39 761.84,-151.27 751.04,-117.77"/>
<polygon fill="#1414ce" stroke="#1414ce" points="754.32,-116.56 747.79,-108.21 747.7,-118.81 754.32,-116.56"/>
</a>
</g>
</g>
<!-- 13&#45;&gt;14 -->
<g id="edge32" class="edge">
<title>13&#45;&gt;14</title>
<g id="a_edge32"><a xlink:title="include">
<path fill="none" stroke="#1414ce" d="M412,-143.7C412,-135.98 412,-126.71 412,-118.11"/>
<polygon fill="#1414ce" stroke="#1414ce" points="415.5,-118.1 412,-108.1 408.5,-118.1 415.5,-118.1"/>
</a>
</g>
</g>
<!-- 16 -->
<g id="node14" class="node">
<title>16</title>
<g id="a_node14"><a xlink:title="limits.h">
<polygon fill="#ffffff" stroke="black" points="586.5,-36 515.5,-36 515.5,0 586.5,0 586.5,-36"/>
<text text-anchor="middle" x="551" y="-14.3" font-family="Times,serif" font-size="14.00">limits.h</text>
</a>
</g>
</g>
<!-- 14&#45;&gt;15 -->
<g id="edge33" class="edge">
<title>14&#45;&gt;15</title>
<g id="a_edge33"><a xlink:title="include">
<path fill="none" stroke="#1414ce" d="M423.87,-71.7C429.5,-63.47 436.35,-53.48 442.57,-44.42"/>
<polygon fill="#1414ce" stroke="#1414ce" points="445.5,-46.33 448.27,-36.1 439.73,-42.37 445.5,-46.33"/>
</a>
</g>
</g>
<!-- 14&#45;&gt;9 -->
<g id="edge36" class="edge">
<title>14&#45;&gt;9</title>
<g id="a_edge36"><a xlink:title="include">
<path fill="none" stroke="#1414ce" d="M375.06,-71.88C354.28,-62.24 328.17,-50.14 306.18,-39.95"/>
<polygon fill="#1414ce" stroke="#1414ce" points="307.58,-36.74 297.04,-35.71 304.64,-43.09 307.58,-36.74"/>
</a>
</g>
</g>
<!-- 14&#45;&gt;16 -->
<g id="edge34" class="edge">
<title>14&#45;&gt;16</title>
<g id="a_edge34"><a xlink:title="include">
<path fill="none" stroke="#1414ce" d="M446,-71.88C464.6,-62.51 487.83,-50.81 507.71,-40.8"/>
<polygon fill="#1414ce" stroke="#1414ce" points="509.51,-43.81 516.87,-36.19 506.36,-37.56 509.51,-43.81"/>
</a>
</g>
</g>
<!-- 17 -->
<g id="node21" class="node">
<title>17</title>
<g id="a_node21"><a xlink:title="inttypes.h">
<polygon fill="#ffffff" stroke="black" points="404.5,-36 315.5,-36 315.5,0 404.5,0 404.5,-36"/>
<text text-anchor="middle" x="360" y="-14.3" font-family="Times,serif" font-size="14.00">inttypes.h</text>
</a>
</g>
</g>
<!-- 14&#45;&gt;17 -->
<g id="edge35" class="edge">
<title>14&#45;&gt;17</title>
<g id="a_edge35"><a xlink:title="include">
<path fill="none" stroke="#1414ce" d="M399.15,-71.7C392.97,-63.39 385.46,-53.28 378.68,-44.14"/>
<polygon fill="#1414ce" stroke="#1414ce" points="381.48,-42.04 372.71,-36.1 375.86,-46.22 381.48,-42.04"/>
</a>
</g>
</g>
<!-- 6&#45;&gt;3 -->
<g id="edge37" class="edge">
<title>6&#45;&gt;3</title>
<g id="a_edge37"><a xlink:title="include">
<path fill="none" stroke="#1414ce" d="M661.99,-143.7C651.28,-134.88 638.11,-124.03 626.5,-114.47"/>
<polygon fill="#1414ce" stroke="#1414ce" points="628.71,-111.76 618.77,-108.1 624.26,-117.16 628.71,-111.76"/>
</a>
</g>
</g>
<!-- 1 -->
<g id="node20" class="node">
<title>1</title>
<g id="a_node20"><a xlink:title="/__w/AtomVM/AtomVM/src/libAtomVM/ets.h">
<polygon fill="#bfbfbf" stroke="black" points="850.5,-540 521.5,-540 521.5,-504 850.5,-504 850.5,-540"/>
<text text-anchor="middle" x="686" y="-518.3" font-family="Times,serif" font-size="14.00">/__w/AtomVM/AtomVM/src/libAtomVM/ets.h</text>
</a>
</g>
</g>
<!-- 1&#45;&gt;4 -->
<g id="edge39" class="edge">
<title>1&#45;&gt;4</title>
<g id="a_edge39"><a xlink:title="include">
<path fill="none" stroke="#1414ce" d="M691.82,-503.56C694.93,-493.33 698.43,-480.08 700,-468 709.6,-394.04 705.37,-305.75 702.26,-262.14"/>
<polygon fill="#1414ce" stroke="#1414ce" points="705.74,-261.76 701.5,-252.05 698.76,-262.29 705.74,-261.76"/>
</a>
</g>
</g>
<!-- 1&#45;&gt;2 -->
<g id="edge38" class="edge">
<title>1&#45;&gt;2</title>
<g id="a_edge38"><a xlink:title="include">
<path fill="none" stroke="#1414ce" d="M680.41,-503.73C661.72,-446.08 601.4,-259.89 578.72,-189.92"/>
<polygon fill="#1414ce" stroke="#1414ce" points="581.95,-188.53 575.54,-180.09 575.29,-190.69 581.95,-188.53"/>
</a>
</g>
</g>
<!-- 1&#45;&gt;7 -->
<g id="edge40" class="edge">
<title>1&#45;&gt;7</title>
<g id="a_edge40"><a xlink:title="include">
<path fill="none" stroke="#1414ce" d="M597.18,-503.97C523.08,-489.76 420.72,-470.12 363.71,-459.19"/>
<polygon fill="#1414ce" stroke="#1414ce" points="364.09,-455.7 353.61,-457.25 362.77,-462.57 364.09,-455.7"/>
</a>
</g>
</g>
</g>
</svg>
