<?xml version="1.0" encoding="UTF-8" standalone="no"?>
<!DOCTYPE svg PUBLIC "-//W3C//DTD SVG 1.1//EN"
 "http://www.w3.org/Graphics/SVG/1.1/DTD/svg11.dtd">
<!-- Generated by graphviz version 2.43.0 (0)
 -->
<!-- Title: %3 Pages: 1 -->
<svg width="1552pt" height="764pt"
 viewBox="0.00 0.00 1552.00 764.00" xmlns="http://www.w3.org/2000/svg" xmlns:xlink="http://www.w3.org/1999/xlink">
<g id="graph0" class="graph" transform="scale(1 1) rotate(0) translate(4 760)">
<title>%3</title>
<polygon fill="transparent" stroke="transparent" points="-4,4 -4,-760 1548,-760 1548,4 -4,4"/>
<!-- 2 -->
<g id="node1" class="node">
<title>2</title>
<g id="a_node1"><a xlink:title="stdbool.h">
<polygon fill="#ffffff" stroke="black" points="951.5,-108 868.5,-108 868.5,-72 951.5,-72 951.5,-108"/>
<text text-anchor="middle" x="910" y="-86.3" font-family="Times,serif" font-size="14.00">stdbool.h</text>
</a>
</g>
</g>
<!-- 26 -->
<g id="node2" class="node">
<title>26</title>
<g id="a_node2"><a xlink:title="refc_binary.h">
<polygon fill="#ffffff" stroke="black" points="726,-396 618,-396 618,-360 726,-360 726,-396"/>
<text text-anchor="middle" x="672" y="-374.3" font-family="Times,serif" font-size="14.00">refc_binary.h</text>
</a>
</g>
</g>
<!-- 26&#45;&gt;2 -->
<g id="edge1" class="edge">
<title>26&#45;&gt;2</title>
<g id="a_edge1"><a xlink:title="include">
<path fill="none" stroke="#1414ce" d="M667.28,-359.86C656.76,-317.55 636.32,-207 690,-144 711.51,-118.75 800.37,-103.75 858.36,-96.47"/>
<polygon fill="#1414ce" stroke="#1414ce" points="858.95,-99.92 868.45,-95.24 858.1,-92.97 858.95,-99.92"/>
</a>
</g>
</g>
<!-- 16 -->
<g id="node7" class="node">
<title>16</title>
<g id="a_node7"><a xlink:title="list.h">
<polygon fill="#ffffff" stroke="black" points="987,-180 933,-180 933,-144 987,-144 987,-180"/>
<text text-anchor="middle" x="960" y="-158.3" font-family="Times,serif" font-size="14.00">list.h</text>
</a>
</g>
</g>
<!-- 26&#45;&gt;16 -->
<g id="edge3" class="edge">
<title>26&#45;&gt;16</title>
<g id="a_edge3"><a xlink:title="include">
<path fill="none" stroke="#1414ce" d="M715.66,-360C764.11,-339.61 842.72,-301.84 898,-252 918.07,-233.9 935.12,-208.12 946.23,-188.97"/>
<polygon fill="#1414ce" stroke="#1414ce" points="949.34,-190.59 951.2,-180.16 943.24,-187.15 949.34,-190.59"/>
</a>
</g>
</g>
<!-- 5 -->
<g id="node9" class="node">
<title>5</title>
<g id="a_node9"><a xlink:title="stdlib.h">
<polygon fill="#ffffff" stroke="black" points="206.5,-108 135.5,-108 135.5,-72 206.5,-72 206.5,-108"/>
<text text-anchor="middle" x="171" y="-86.3" font-family="Times,serif" font-size="14.00">stdlib.h</text>
</a>
</g>
</g>
<!-- 26&#45;&gt;5 -->
<g id="edge2" class="edge">
<title>26&#45;&gt;5</title>
<g id="a_edge2"><a xlink:title="include">
<path fill="none" stroke="#1414ce" d="M617.81,-367.51C602.67,-364.96 586.21,-362.28 571,-360 449.97,-341.84 405.89,-381.76 298,-324 227.47,-286.24 220,-254.16 190,-180 181.96,-160.14 177.11,-136.34 174.32,-118.35"/>
<polygon fill="#1414ce" stroke="#1414ce" points="177.76,-117.65 172.88,-108.25 170.83,-118.65 177.76,-117.65"/>
</a>
</g>
</g>
<!-- 27 -->
<g id="node14" class="node">
<title>27</title>
<g id="a_node14"><a xlink:title="resources.h">
<polygon fill="#ffffff" stroke="black" points="407,-324 307,-324 307,-288 407,-288 407,-324"/>
<text text-anchor="middle" x="357" y="-302.3" font-family="Times,serif" font-size="14.00">resources.h</text>
</a>
</g>
</g>
<!-- 26&#45;&gt;27 -->
<g id="edge4" class="edge">
<title>26&#45;&gt;27</title>
<g id="a_edge4"><a xlink:title="include">
<path fill="none" stroke="#1414ce" d="M617.85,-364.97C562.01,-352.56 475.14,-333.25 417.18,-320.37"/>
<polygon fill="#1414ce" stroke="#1414ce" points="417.59,-316.88 407.07,-318.13 416.07,-323.71 417.59,-316.88"/>
</a>
</g>
</g>
<!-- 4 -->
<g id="node3" class="node">
<title>4</title>
<g id="a_node3"><a xlink:title="atom.h">
<polygon fill="#ffffff" stroke="black" points="344,-468 278,-468 278,-432 344,-432 344,-468"/>
<text text-anchor="middle" x="311" y="-446.3" font-family="Times,serif" font-size="14.00">atom.h</text>
</a>
</g>
</g>
<!-- 3 -->
<g id="node8" class="node">
<title>3</title>
<g id="a_node8"><a xlink:title="stdint.h">
<polygon fill="#ffffff" stroke="black" points="432,-36 360,-36 360,0 432,0 432,-36"/>
<text text-anchor="middle" x="396" y="-14.3" font-family="Times,serif" font-size="14.00">stdint.h</text>
</a>
</g>
</g>
<!-- 4&#45;&gt;3 -->
<g id="edge5" class="edge">
<title>4&#45;&gt;3</title>
<g id="a_edge5"><a xlink:title="include">
<path fill="none" stroke="#1414ce" d="M277.67,-445.31C220.14,-438.34 105.46,-421.6 75,-396 42.2,-368.44 38,-349.84 38,-307 38,-307 38,-307 38,-161 38,-105.37 76.54,-97.45 126,-72 215.66,-25.87 252.47,-61.6 350,-36 350.1,-35.97 350.2,-35.95 350.3,-35.92"/>
<polygon fill="#1414ce" stroke="#1414ce" points="351.2,-39.31 359.8,-33.12 349.22,-32.59 351.2,-39.31"/>
</a>
</g>
</g>
<!-- 4&#45;&gt;5 -->
<g id="edge6" class="edge">
<title>4&#45;&gt;5</title>
<g id="a_edge6"><a xlink:title="include">
<path fill="none" stroke="#1414ce" d="M277.92,-444.8C225.09,-437.44 125.05,-420.62 100,-396 70.78,-367.28 76,-347.97 76,-307 76,-307 76,-307 76,-233 76,-192.03 76.99,-177.89 100,-144 107.92,-132.34 119.27,-122.23 130.57,-114.07"/>
<polygon fill="#1414ce" stroke="#1414ce" points="132.87,-116.74 139.15,-108.2 128.92,-110.96 132.87,-116.74"/>
</a>
</g>
</g>
<!-- 12 -->
<g id="node4" class="node">
<title>12</title>
<g id="a_node4"><a xlink:title="assert.h">
<polygon fill="#ffffff" stroke="black" points="252,-36 178,-36 178,0 252,0 252,-36"/>
<text text-anchor="middle" x="215" y="-14.3" font-family="Times,serif" font-size="14.00">assert.h</text>
</a>
</g>
</g>
<!-- 24 -->
<g id="node5" class="node">
<title>24</title>
<g id="a_node5"><a xlink:title="utils.h">
<polygon fill="#ffffff" stroke="black" points="524,-180 462,-180 462,-144 524,-144 524,-180"/>
<text text-anchor="middle" x="493" y="-158.3" font-family="Times,serif" font-size="14.00">utils.h</text>
</a>
</g>
</g>
<!-- 24&#45;&gt;5 -->
<g id="edge9" class="edge">
<title>24&#45;&gt;5</title>
<g id="a_edge9"><a xlink:title="include">
<path fill="none" stroke="#1414ce" d="M461.79,-146.98C458.85,-145.89 455.89,-144.87 453,-144 409.52,-130.84 284.85,-109.53 216.76,-98.36"/>
<polygon fill="#1414ce" stroke="#1414ce" points="217.17,-94.88 206.73,-96.73 216.04,-101.79 217.17,-94.88"/>
</a>
</g>
</g>
<!-- 25 -->
<g id="node16" class="node">
<title>25</title>
<g id="a_node16"><a xlink:title="stddef.h">
<polygon fill="#ffffff" stroke="black" points="506,-108 432,-108 432,-72 506,-72 506,-108"/>
<text text-anchor="middle" x="469" y="-86.3" font-family="Times,serif" font-size="14.00">stddef.h</text>
</a>
</g>
</g>
<!-- 24&#45;&gt;25 -->
<g id="edge7" class="edge">
<title>24&#45;&gt;25</title>
<g id="a_edge7"><a xlink:title="include">
<path fill="none" stroke="#1414ce" d="M487.07,-143.7C484.39,-135.9 481.17,-126.51 478.2,-117.83"/>
<polygon fill="#1414ce" stroke="#1414ce" points="481.42,-116.43 474.86,-108.1 474.8,-118.7 481.42,-116.43"/>
</a>
</g>
</g>
<!-- 18 -->
<g id="node29" class="node">
<title>18</title>
<g id="a_node29"><a xlink:title="stdio.h">
<polygon fill="#ffffff" stroke="black" points="589.5,-108 524.5,-108 524.5,-72 589.5,-72 589.5,-108"/>
<text text-anchor="middle" x="557" y="-86.3" font-family="Times,serif" font-size="14.00">stdio.h</text>
</a>
</g>
</g>
<!-- 24&#45;&gt;18 -->
<g id="edge8" class="edge">
<title>24&#45;&gt;18</title>
<g id="a_edge8"><a xlink:title="include">
<path fill="none" stroke="#1414ce" d="M508.82,-143.7C516.57,-135.22 526.04,-124.86 534.52,-115.58"/>
<polygon fill="#1414ce" stroke="#1414ce" points="537.2,-117.85 541.36,-108.1 532.03,-113.12 537.2,-117.85"/>
</a>
</g>
</g>
<!-- 17 -->
<g id="node6" class="node">
<title>17</title>
<g id="a_node6"><a xlink:title="synclist.h">
<polygon fill="#ffffff" stroke="black" points="1149.5,-252 1064.5,-252 1064.5,-216 1149.5,-216 1149.5,-252"/>
<text text-anchor="middle" x="1107" y="-230.3" font-family="Times,serif" font-size="14.00">synclist.h</text>
</a>
</g>
</g>
<!-- 17&#45;&gt;16 -->
<g id="edge11" class="edge">
<title>17&#45;&gt;16</title>
<g id="a_edge11"><a xlink:title="include">
<path fill="none" stroke="#1414ce" d="M1071.04,-215.88C1048.43,-205.11 1019.34,-191.26 996.61,-180.43"/>
<polygon fill="#1414ce" stroke="#1414ce" points="997.83,-177.14 987.29,-176 994.82,-183.46 997.83,-177.14"/>
</a>
</g>
</g>
<!-- 19 -->
<g id="node25" class="node">
<title>19</title>
<g id="a_node25"><a xlink:title="smp.h">
<polygon fill="#ffffff" stroke="black" points="1159,-180 1099,-180 1099,-144 1159,-144 1159,-180"/>
<text text-anchor="middle" x="1129" y="-158.3" font-family="Times,serif" font-size="14.00">smp.h</text>
</a>
</g>
</g>
<!-- 17&#45;&gt;19 -->
<g id="edge12" class="edge">
<title>17&#45;&gt;19</title>
<g id="a_edge12"><a xlink:title="include">
<path fill="none" stroke="#1414ce" d="M1112.44,-215.7C1114.89,-207.9 1117.84,-198.51 1120.57,-189.83"/>
<polygon fill="#1414ce" stroke="#1414ce" points="1123.96,-190.69 1123.62,-180.1 1117.29,-188.59 1123.96,-190.69"/>
</a>
</g>
</g>
<!-- 17&#45;&gt;18 -->
<g id="edge10" class="edge">
<title>17&#45;&gt;18</title>
<g id="a_edge10"><a xlink:title="include">
<path fill="none" stroke="#1414ce" d="M1080.51,-215.89C1065.77,-205.99 1047.36,-192.95 1032,-180 1014.7,-165.42 1016.35,-153.9 996,-144 926.72,-110.29 696.19,-96.86 599.87,-92.63"/>
<polygon fill="#1414ce" stroke="#1414ce" points="599.76,-89.12 589.62,-92.19 599.46,-96.12 599.76,-89.12"/>
</a>
</g>
</g>
<!-- 16&#45;&gt;2 -->
<g id="edge13" class="edge">
<title>16&#45;&gt;2</title>
<g id="a_edge13"><a xlink:title="include">
<path fill="none" stroke="#1414ce" d="M947.64,-143.7C941.77,-135.47 934.63,-125.48 928.16,-116.42"/>
<polygon fill="#1414ce" stroke="#1414ce" points="930.88,-114.21 922.22,-108.1 925.18,-118.28 930.88,-114.21"/>
</a>
</g>
</g>
<!-- 8 -->
<g id="node10" class="node">
<title>8</title>
<g id="a_node10"><a xlink:title="context.h">
<polygon fill="#ffffff" stroke="black" points="887.5,-684 804.5,-684 804.5,-648 887.5,-648 887.5,-684"/>
<text text-anchor="middle" x="846" y="-662.3" font-family="Times,serif" font-size="14.00">context.h</text>
</a>
</g>
</g>
<!-- 8&#45;&gt;16 -->
<g id="edge15" class="edge">
<title>8&#45;&gt;16</title>
<g id="a_edge15"><a xlink:title="include">
<path fill="none" stroke="#1414ce" d="M849.92,-647.72C866.8,-573.42 933.25,-280.81 953.86,-190.02"/>
<polygon fill="#1414ce" stroke="#1414ce" points="957.29,-190.73 956.09,-180.21 950.46,-189.18 957.29,-190.73"/>
</a>
</g>
</g>
<!-- 20 -->
<g id="node15" class="node">
<title>20</title>
<g id="a_node15"><a xlink:title="term.h">
<polygon fill="#ffffff" stroke="black" points="559.5,-468 494.5,-468 494.5,-432 559.5,-432 559.5,-468"/>
<text text-anchor="middle" x="527" y="-446.3" font-family="Times,serif" font-size="14.00">term.h</text>
</a>
</g>
</g>
<!-- 8&#45;&gt;20 -->
<g id="edge18" class="edge">
<title>8&#45;&gt;20</title>
<g id="a_edge18"><a xlink:title="include">
<path fill="none" stroke="#1414ce" d="M825.74,-647.94C815.2,-638.25 802.72,-625.39 794,-612 765.8,-568.71 790.11,-537.76 751,-504 724.16,-480.83 626.9,-464.32 569.74,-456.36"/>
<polygon fill="#1414ce" stroke="#1414ce" points="569.94,-452.86 559.56,-454.98 569,-459.79 569.94,-452.86"/>
</a>
</g>
</g>
<!-- 9 -->
<g id="node24" class="node">
<title>9</title>
<g id="a_node24"><a xlink:title="globalcontext.h">
<polygon fill="#ffffff" stroke="black" points="1023.5,-612 896.5,-612 896.5,-576 1023.5,-576 1023.5,-612"/>
<text text-anchor="middle" x="960" y="-590.3" font-family="Times,serif" font-size="14.00">globalcontext.h</text>
</a>
</g>
</g>
<!-- 8&#45;&gt;9 -->
<g id="edge14" class="edge">
<title>8&#45;&gt;9</title>
<g id="a_edge14"><a xlink:title="include">
<path fill="none" stroke="#1414ce" d="M873.89,-647.88C888.79,-638.72 907.33,-627.34 923.38,-617.48"/>
<polygon fill="#1414ce" stroke="#1414ce" points="925.31,-620.41 932.01,-612.19 921.65,-614.44 925.31,-620.41"/>
</a>
</g>
</g>
<!-- 8&#45;&gt;19 -->
<g id="edge17" class="edge">
<title>8&#45;&gt;19</title>
<g id="a_edge17"><a xlink:title="include">
<path fill="none" stroke="#1414ce" d="M887.86,-661.8C1005.74,-651.64 1332,-615.19 1332,-523 1332,-523 1332,-523 1332,-305 1332,-261.45 1323.52,-244.97 1291,-216 1256.91,-185.64 1205.08,-172.62 1169.26,-167.07"/>
<polygon fill="#1414ce" stroke="#1414ce" points="1169.55,-163.58 1159.16,-165.64 1168.57,-170.51 1169.55,-163.58"/>
</a>
</g>
</g>
<!-- 29 -->
<g id="node27" class="node">
<title>29</title>
<g id="a_node27"><a xlink:title="timer_list.h">
<polygon fill="#ffffff" stroke="black" points="1266,-252 1168,-252 1168,-216 1266,-216 1266,-252"/>
<text text-anchor="middle" x="1217" y="-230.3" font-family="Times,serif" font-size="14.00">timer_list.h</text>
</a>
</g>
</g>
<!-- 8&#45;&gt;29 -->
<g id="edge19" class="edge">
<title>8&#45;&gt;29</title>
<g id="a_edge19"><a xlink:title="include">
<path fill="none" stroke="#1414ce" d="M887.55,-659.46C952.37,-648.56 1077.16,-618.2 1145,-540 1215.51,-458.73 1220.05,-321.02 1218.46,-262.56"/>
<polygon fill="#1414ce" stroke="#1414ce" points="1221.95,-262.15 1218.1,-252.28 1214.96,-262.4 1221.95,-262.15"/>
</a>
</g>
</g>
<!-- 28 -->
<g id="node28" class="node">
<title>28</title>
<g id="a_node28"><a xlink:title="mailbox.h">
<polygon fill="#ffffff" stroke="black" points="856,-252 770,-252 770,-216 856,-216 856,-252"/>
<text text-anchor="middle" x="813" y="-230.3" font-family="Times,serif" font-size="14.00">mailbox.h</text>
</a>
</g>
</g>
<!-- 8&#45;&gt;28 -->
<g id="edge16" class="edge">
<title>8&#45;&gt;28</title>
<g id="a_edge16"><a xlink:title="include">
<path fill="none" stroke="#1414ce" d="M840.18,-647.56C837.07,-637.33 833.57,-624.08 832,-612 819.62,-516.65 838.68,-492 844,-396 846.65,-348.07 856.55,-334.33 844,-288 841.42,-278.48 836.66,-268.92 831.62,-260.59"/>
<polygon fill="#1414ce" stroke="#1414ce" points="834.51,-258.6 826.15,-252.09 828.62,-262.39 834.51,-258.6"/>
</a>
</g>
</g>
<!-- 23 -->
<g id="node11" class="node">
<title>23</title>
<g id="a_node11"><a xlink:title="memory.h">
<polygon fill="#ffffff" stroke="black" points="369,-252 283,-252 283,-216 369,-216 369,-252"/>
<text text-anchor="middle" x="326" y="-230.3" font-family="Times,serif" font-size="14.00">memory.h</text>
</a>
</g>
</g>
<!-- 23&#45;&gt;24 -->
<g id="edge24" class="edge">
<title>23&#45;&gt;24</title>
<g id="a_edge24"><a xlink:title="include">
<path fill="none" stroke="#1414ce" d="M367.21,-215.88C389.94,-206.42 418.88,-194.35 452.42,-180.23"/>
<polygon fill="#1414ce" stroke="#1414ce" points="454.14,-183.31 462,-176.2 451.43,-176.85 454.14,-183.31"/>
</a>
</g>
</g>
<!-- 23&#45;&gt;3 -->
<g id="edge20" class="edge">
<title>23&#45;&gt;3</title>
<g id="a_edge20"><a xlink:title="include">
<path fill="none" stroke="#1414ce" d="M312.26,-215.69C289.43,-184.66 249.02,-118.5 279,-72 283.33,-65.29 319.42,-49.51 350.38,-36.9"/>
<polygon fill="#1414ce" stroke="#1414ce" points="351.83,-40.09 359.79,-33.1 349.21,-33.6 351.83,-40.09"/>
</a>
</g>
</g>
<!-- 23&#45;&gt;5 -->
<g id="edge21" class="edge">
<title>23&#45;&gt;5</title>
<g id="a_edge21"><a xlink:title="include">
<path fill="none" stroke="#1414ce" d="M299.29,-215.88C284.75,-206.07 266.76,-193.13 252,-180 229.56,-160.04 206.79,-134.44 191.13,-115.82"/>
<polygon fill="#1414ce" stroke="#1414ce" points="193.75,-113.51 184.66,-108.06 188.37,-117.98 193.75,-113.51"/>
</a>
</g>
</g>
<!-- 10 -->
<g id="node17" class="node">
<title>10</title>
<g id="a_node17"><a xlink:title="erl_nif.h">
<polygon fill="#ffffff" stroke="black" points="444,-180 370,-180 370,-144 444,-144 444,-180"/>
<text text-anchor="middle" x="407" y="-158.3" font-family="Times,serif" font-size="14.00">erl_nif.h</text>
</a>
</g>
</g>
<!-- 23&#45;&gt;10 -->
<g id="edge22" class="edge">
<title>23&#45;&gt;10</title>
<g id="a_edge22"><a xlink:title="include">
<path fill="none" stroke="#1414ce" d="M346.02,-215.7C356.13,-206.97 368.54,-196.24 379.52,-186.75"/>
<polygon fill="#1414ce" stroke="#1414ce" points="381.93,-189.29 387.21,-180.1 377.35,-183.99 381.93,-189.29"/>
</a>
</g>
</g>
<!-- 11 -->
<g id="node23" class="node">
<title>11</title>
<g id="a_node23"><a xlink:title="term_typedef.h">
<polygon fill="#ffffff" stroke="black" points="413.5,-108 288.5,-108 288.5,-72 413.5,-72 413.5,-108"/>
<text text-anchor="middle" x="351" y="-86.3" font-family="Times,serif" font-size="14.00">term_typedef.h</text>
</a>
</g>
</g>
<!-- 23&#45;&gt;11 -->
<g id="edge23" class="edge">
<title>23&#45;&gt;11</title>
<g id="a_edge23"><a xlink:title="include">
<path fill="none" stroke="#1414ce" d="M329.02,-215.87C333.28,-191.67 341.1,-147.21 346.18,-118.39"/>
<polygon fill="#1414ce" stroke="#1414ce" points="349.69,-118.64 347.97,-108.19 342.79,-117.43 349.69,-118.64"/>
</a>
</g>
</g>
<!-- 1 -->
<g id="node12" class="node">
<title>1</title>
<g id="a_node12"><a xlink:title="/__w/AtomVM/AtomVM/src/libAtomVM/module.h">
<polygon fill="#bfbfbf" stroke="black" points="837.5,-756 478.5,-756 478.5,-720 837.5,-720 837.5,-756"/>
<text text-anchor="middle" x="658" y="-734.3" font-family="Times,serif" font-size="14.00">/__w/AtomVM/AtomVM/src/libAtomVM/module.h</text>
</a>
</g>
</g>
<!-- 1&#45;&gt;2 -->
<g id="edge25" class="edge">
<title>1&#45;&gt;2</title>
<g id="a_edge25"><a xlink:title="include">
<path fill="none" stroke="#1414ce" d="M837.67,-736.18C1048.59,-730.24 1370,-703.4 1370,-595 1370,-595 1370,-595 1370,-233 1370,-134.89 1261.46,-173.82 1168,-144 1098.16,-121.72 1014.62,-106.56 961.92,-98.34"/>
<polygon fill="#1414ce" stroke="#1414ce" points="962.22,-94.85 951.8,-96.79 961.16,-101.76 962.22,-94.85"/>
</a>
</g>
</g>
<!-- 1&#45;&gt;4 -->
<g id="edge27" class="edge">
<title>1&#45;&gt;4</title>
<g id="a_edge27"><a xlink:title="include">
<path fill="none" stroke="#1414ce" d="M478.02,-723.8C403.64,-708.26 324.53,-676.38 280,-612 251.73,-571.13 276.44,-511.12 295.01,-477.09"/>
<polygon fill="#1414ce" stroke="#1414ce" points="298.15,-478.65 300.04,-468.22 292.06,-475.19 298.15,-478.65"/>
</a>
</g>
</g>
<!-- 1&#45;&gt;3 -->
<g id="edge26" class="edge">
<title>1&#45;&gt;3</title>
<g id="a_edge26"><a xlink:title="include">
<path fill="none" stroke="#1414ce" d="M478.2,-733C283.38,-723.64 0,-693.17 0,-595 0,-595 0,-595 0,-161 0,-113.79 17.95,-97 58,-72 168.93,-2.77 222.94,-66.87 350,-36 350.1,-35.98 350.2,-35.95 350.3,-35.93"/>
<polygon fill="#1414ce" stroke="#1414ce" points="351.15,-39.32 359.83,-33.25 349.26,-32.58 351.15,-39.32"/>
</a>
</g>
</g>
<!-- 1&#45;&gt;8 -->
<g id="edge30" class="edge">
<title>1&#45;&gt;8</title>
<g id="a_edge30"><a xlink:title="include">
<path fill="none" stroke="#1414ce" d="M703.99,-719.88C731.41,-709.67 766.28,-696.68 794.61,-686.13"/>
<polygon fill="#1414ce" stroke="#1414ce" points="796.18,-689.28 804.33,-682.51 793.74,-682.72 796.18,-689.28"/>
</a>
</g>
</g>
<!-- 31 -->
<g id="node13" class="node">
<title>31</title>
<g id="a_node13"><a xlink:title="valueshashtable.h">
<polygon fill="#ffffff" stroke="black" points="1544,-684 1398,-684 1398,-648 1544,-648 1544,-684"/>
<text text-anchor="middle" x="1471" y="-662.3" font-family="Times,serif" font-size="14.00">valueshashtable.h</text>
</a>
</g>
</g>
<!-- 1&#45;&gt;31 -->
<g id="edge34" class="edge">
<title>1&#45;&gt;31</title>
<g id="a_edge34"><a xlink:title="include">
<path fill="none" stroke="#1414ce" d="M837.63,-729.9C984.93,-722.63 1198.61,-708.79 1384,-684 1385.11,-683.85 1386.22,-683.7 1387.34,-683.54"/>
<polygon fill="#1414ce" stroke="#1414ce" points="1388.17,-686.96 1397.53,-682 1387.12,-680.03 1388.17,-686.96"/>
</a>
</g>
</g>
<!-- 1&#45;&gt;20 -->
<g id="edge33" class="edge">
<title>1&#45;&gt;20</title>
<g id="a_edge33"><a xlink:title="include">
<path fill="none" stroke="#1414ce" d="M654.98,-719.91C649.26,-689.8 635.29,-625.76 612,-576 594.59,-538.79 566.69,-500.35 547.63,-476.09"/>
<polygon fill="#1414ce" stroke="#1414ce" points="550.26,-473.77 541.3,-468.13 544.79,-478.13 550.26,-473.77"/>
</a>
</g>
</g>
<!-- 30 -->
<g id="node18" class="node">
<title>30</title>
<g id="a_node18"><a xlink:title="exportedfunction.h">
<polygon fill="#ffffff" stroke="black" points="603,-612 451,-612 451,-576 603,-576 603,-612"/>
<text text-anchor="middle" x="527" y="-590.3" font-family="Times,serif" font-size="14.00">exportedfunction.h</text>
</a>
</g>
</g>
<!-- 1&#45;&gt;30 -->
<g id="edge31" class="edge">
<title>1&#45;&gt;30</title>
<g id="a_edge31"><a xlink:title="include">
<path fill="none" stroke="#1414ce" d="M642.2,-719.87C619.18,-694.92 576.31,-648.45 549.85,-619.77"/>
<polygon fill="#1414ce" stroke="#1414ce" points="552.21,-617.17 542.86,-612.19 547.07,-621.91 552.21,-617.17"/>
</a>
</g>
</g>
<!-- 6 -->
<g id="node20" class="node">
<title>6</title>
<g id="a_node20"><a xlink:title="atom_table.h">
<polygon fill="#ffffff" stroke="black" points="741.5,-540 632.5,-540 632.5,-504 741.5,-504 741.5,-540"/>
<text text-anchor="middle" x="687" y="-518.3" font-family="Times,serif" font-size="14.00">atom_table.h</text>
</a>
</g>
</g>
<!-- 1&#45;&gt;6 -->
<g id="edge28" class="edge">
<title>1&#45;&gt;6</title>
<g id="a_edge28"><a xlink:title="include">
<path fill="none" stroke="#1414ce" d="M660.32,-719.85C665.34,-682.83 677.22,-595.18 683.29,-550.39"/>
<polygon fill="#1414ce" stroke="#1414ce" points="686.79,-550.61 684.66,-540.23 679.85,-549.67 686.79,-550.61"/>
</a>
</g>
</g>
<!-- 1&#45;&gt;9 -->
<g id="edge32" class="edge">
<title>1&#45;&gt;9</title>
<g id="a_edge32"><a xlink:title="include">
<path fill="none" stroke="#1414ce" d="M813.3,-719.97C842.71,-712.05 872.04,-700.58 897,-684 920.14,-668.62 937.45,-641.63 948.02,-621.39"/>
<polygon fill="#1414ce" stroke="#1414ce" points="951.19,-622.86 952.52,-612.35 944.93,-619.74 951.19,-622.86"/>
</a>
</g>
</g>
<!-- 7 -->
<g id="node26" class="node">
<title>7</title>
<g id="a_node26"><a xlink:title="atomshashtable.h">
<polygon fill="#ffffff" stroke="black" points="432.5,-612 289.5,-612 289.5,-576 432.5,-576 432.5,-612"/>
<text text-anchor="middle" x="361" y="-590.3" font-family="Times,serif" font-size="14.00">atomshashtable.h</text>
</a>
</g>
</g>
<!-- 1&#45;&gt;7 -->
<g id="edge29" class="edge">
<title>1&#45;&gt;7</title>
<g id="a_edge29"><a xlink:title="include">
<path fill="none" stroke="#1414ce" d="M622.17,-719.87C567.99,-693.96 465.25,-644.84 406.06,-616.55"/>
<polygon fill="#1414ce" stroke="#1414ce" points="407.48,-613.35 396.95,-612.19 404.46,-619.66 407.48,-613.35"/>
</a>
</g>
</g>
<!-- 27&#45;&gt;17 -->
<g id="edge39" class="edge">
<title>27&#45;&gt;17</title>
<g id="a_edge39"><a xlink:title="include">
<path fill="none" stroke="#1414ce" d="M407.08,-300.33C542.54,-287.68 915.27,-252.89 1054.04,-239.94"/>
<polygon fill="#1414ce" stroke="#1414ce" points="1054.76,-243.39 1064.4,-238.98 1054.11,-236.42 1054.76,-243.39"/>
</a>
</g>
</g>
<!-- 27&#45;&gt;16 -->
<g id="edge37" class="edge">
<title>27&#45;&gt;16</title>
<g id="a_edge37"><a xlink:title="include">
<path fill="none" stroke="#1414ce" d="M407.29,-303.8C518.99,-300.49 784.24,-288.88 865,-252 873.43,-248.15 910.06,-212.69 935.29,-187.72"/>
<polygon fill="#1414ce" stroke="#1414ce" points="938.08,-189.88 942.71,-180.35 933.15,-184.91 938.08,-189.88"/>
</a>
</g>
</g>
<!-- 27&#45;&gt;5 -->
<g id="edge35" class="edge">
<title>27&#45;&gt;5</title>
<g id="a_edge35"><a xlink:title="include">
<path fill="none" stroke="#1414ce" d="M325.5,-287.92C309.29,-278.4 289.71,-265.72 274,-252 242.42,-224.4 235.7,-215.27 213,-180 200.2,-160.12 188.97,-135.73 181.35,-117.51"/>
<polygon fill="#1414ce" stroke="#1414ce" points="184.52,-116.02 177.5,-108.09 178.04,-118.67 184.52,-116.02"/>
</a>
</g>
</g>
<!-- 27&#45;&gt;23 -->
<g id="edge38" class="edge">
<title>27&#45;&gt;23</title>
<g id="a_edge38"><a xlink:title="include">
<path fill="none" stroke="#1414ce" d="M349.34,-287.7C345.81,-279.73 341.54,-270.1 337.63,-261.26"/>
<polygon fill="#1414ce" stroke="#1414ce" points="340.82,-259.83 333.57,-252.1 334.42,-262.67 340.82,-259.83"/>
</a>
</g>
</g>
<!-- 27&#45;&gt;10 -->
<g id="edge36" class="edge">
<title>27&#45;&gt;10</title>
<g id="a_edge36"><a xlink:title="include">
<path fill="none" stroke="#1414ce" d="M364.08,-287.92C368.29,-277.58 373.63,-264.1 378,-252 385.47,-231.3 393.15,-207.59 398.73,-189.86"/>
<polygon fill="#1414ce" stroke="#1414ce" points="402.11,-190.76 401.75,-180.17 395.43,-188.67 402.11,-190.76"/>
</a>
</g>
</g>
<!-- 20&#45;&gt;2 -->
<g id="edge41" class="edge">
<title>20&#45;&gt;2</title>
<g id="a_edge41"><a xlink:title="include">
<path fill="none" stroke="#1414ce" d="M559.53,-445.52C612.49,-439.11 713.62,-423.51 735,-396 803.75,-307.53 660.76,-233.62 728,-144 743.72,-123.05 810.26,-107.66 858.34,-99.02"/>
<polygon fill="#1414ce" stroke="#1414ce" points="859.04,-102.45 868.29,-97.28 857.84,-95.55 859.04,-102.45"/>
</a>
</g>
</g>
<!-- 20&#45;&gt;26 -->
<g id="edge47" class="edge">
<title>20&#45;&gt;26</title>
<g id="a_edge47"><a xlink:title="include">
<path fill="none" stroke="#1414ce" d="M559.54,-433.29C579.63,-423.59 605.68,-411.02 627.64,-400.41"/>
<polygon fill="#1414ce" stroke="#1414ce" points="629.29,-403.5 636.78,-396 626.25,-397.2 629.29,-403.5"/>
</a>
</g>
</g>
<!-- 20&#45;&gt;24 -->
<g id="edge48" class="edge">
<title>20&#45;&gt;24</title>
<g id="a_edge48"><a xlink:title="include">
<path fill="none" stroke="#1414ce" d="M494.3,-444.95C443.85,-437.95 350.77,-421.82 331,-396 279.89,-329.24 413.02,-326.85 416,-324 454.98,-286.76 476.54,-225.76 486.36,-190.51"/>
<polygon fill="#1414ce" stroke="#1414ce" points="489.85,-191.01 489.03,-180.45 483.08,-189.21 489.85,-191.01"/>
</a>
</g>
</g>
<!-- 20&#45;&gt;3 -->
<g id="edge42" class="edge">
<title>20&#45;&gt;3</title>
<g id="a_edge42"><a xlink:title="include">
<path fill="none" stroke="#1414ce" d="M544.87,-431.9C554,-422.19 564.53,-409.34 571,-396 588.65,-359.61 590,-347.45 590,-307 590,-307 590,-307 590,-233 590,-161.33 643.66,-128.05 599,-72 554.39,-16.01 510.61,-56.45 442,-36 441.9,-35.97 441.8,-35.94 441.69,-35.91"/>
<polygon fill="#1414ce" stroke="#1414ce" points="442.6,-32.52 432.01,-32.81 440.47,-39.19 442.6,-32.52"/>
</a>
</g>
</g>
<!-- 20&#45;&gt;5 -->
<g id="edge44" class="edge">
<title>20&#45;&gt;5</title>
<g id="a_edge44"><a xlink:title="include">
<path fill="none" stroke="#1414ce" d="M494.25,-444.93C396.56,-431.9 114,-387.28 114,-307 114,-307 114,-307 114,-233 114,-189.8 137,-144.19 153.78,-116.66"/>
<polygon fill="#1414ce" stroke="#1414ce" points="156.83,-118.37 159.19,-108.04 150.91,-114.65 156.83,-118.37"/>
</a>
</g>
</g>
<!-- 20&#45;&gt;23 -->
<g id="edge46" class="edge">
<title>20&#45;&gt;23</title>
<g id="a_edge46"><a xlink:title="include">
<path fill="none" stroke="#1414ce" d="M494.21,-446.5C435.87,-441.29 317.83,-427.08 293,-396 261.61,-356.71 289.09,-295.21 309.25,-260.7"/>
<polygon fill="#1414ce" stroke="#1414ce" points="312.25,-262.5 314.43,-252.13 306.26,-258.88 312.25,-262.5"/>
</a>
</g>
</g>
<!-- 21 -->
<g id="node21" class="node">
<title>21</title>
<g id="a_node21"><a xlink:title="sys/types.h">
<polygon fill="#ffffff" stroke="black" points="470.5,-396 373.5,-396 373.5,-360 470.5,-360 470.5,-396"/>
<text text-anchor="middle" x="422" y="-374.3" font-family="Times,serif" font-size="14.00">sys/types.h</text>
</a>
</g>
</g>
<!-- 20&#45;&gt;21 -->
<g id="edge40" class="edge">
<title>20&#45;&gt;21</title>
<g id="a_edge40"><a xlink:title="include">
<path fill="none" stroke="#1414ce" d="M501.31,-431.88C487.71,-422.81 470.83,-411.55 456.14,-401.76"/>
<polygon fill="#1414ce" stroke="#1414ce" points="458.05,-398.82 447.78,-396.19 454.16,-404.65 458.05,-398.82"/>
</a>
</g>
</g>
<!-- 22 -->
<g id="node22" class="node">
<title>22</title>
<g id="a_node22"><a xlink:title="string.h">
<polygon fill="#ffffff" stroke="black" points="561.5,-396 488.5,-396 488.5,-360 561.5,-360 561.5,-396"/>
<text text-anchor="middle" x="525" y="-374.3" font-family="Times,serif" font-size="14.00">string.h</text>
</a>
</g>
</g>
<!-- 20&#45;&gt;22 -->
<g id="edge45" class="edge">
<title>20&#45;&gt;22</title>
<g id="a_edge45"><a xlink:title="include">
<path fill="none" stroke="#1414ce" d="M526.51,-431.7C526.29,-423.98 526.02,-414.71 525.77,-406.11"/>
<polygon fill="#1414ce" stroke="#1414ce" points="529.27,-406 525.49,-396.1 522.28,-406.2 529.27,-406"/>
</a>
</g>
</g>
<!-- 20&#45;&gt;11 -->
<g id="edge49" class="edge">
<title>20&#45;&gt;11</title>
<g id="a_edge49"><a xlink:title="include">
<path fill="none" stroke="#1414ce" d="M494.32,-447.02C432.77,-442.53 303.37,-429.28 276,-396 225.18,-334.21 252.19,-292.98 274,-216 284.81,-177.83 310.94,-139.87 329.76,-115.97"/>
<polygon fill="#1414ce" stroke="#1414ce" points="332.54,-118.11 336.08,-108.12 327.08,-113.72 332.54,-118.11"/>
</a>
</g>
</g>
<!-- 20&#45;&gt;18 -->
<g id="edge43" class="edge">
<title>20&#45;&gt;18</title>
<g id="a_edge43"><a xlink:title="include">
<path fill="none" stroke="#1414ce" d="M494.32,-444.69C437.69,-435.76 330.44,-411.64 364,-360 385.47,-326.97 415.39,-349.98 445,-324 501.38,-274.53 503.38,-248.91 533,-180 541.61,-159.97 547.85,-136.05 551.81,-118.05"/>
<polygon fill="#1414ce" stroke="#1414ce" points="555.25,-118.72 553.88,-108.21 548.4,-117.28 555.25,-118.72"/>
</a>
</g>
</g>
<!-- 10&#45;&gt;11 -->
<g id="edge50" class="edge">
<title>10&#45;&gt;11</title>
<g id="a_edge50"><a xlink:title="include">
<path fill="none" stroke="#1414ce" d="M393.16,-143.7C386.51,-135.39 378.42,-125.28 371.11,-116.14"/>
<polygon fill="#1414ce" stroke="#1414ce" points="373.66,-113.73 364.68,-108.1 368.2,-118.1 373.66,-113.73"/>
</a>
</g>
</g>
<!-- 30&#45;&gt;20 -->
<g id="edge51" class="edge">
<title>30&#45;&gt;20</title>
<g id="a_edge51"><a xlink:title="include">
<path fill="none" stroke="#1414ce" d="M527,-575.87C527,-551.67 527,-507.21 527,-478.39"/>
<polygon fill="#1414ce" stroke="#1414ce" points="530.5,-478.19 527,-468.19 523.5,-478.19 530.5,-478.19"/>
</a>
</g>
</g>
<!-- 13 -->
<g id="node19" class="node">
<title>13</title>
<g id="a_node19"><a xlink:title="limits.h">
<polygon fill="#ffffff" stroke="black" points="341.5,-36 270.5,-36 270.5,0 341.5,0 341.5,-36"/>
<text text-anchor="middle" x="306" y="-14.3" font-family="Times,serif" font-size="14.00">limits.h</text>
</a>
</g>
</g>
<!-- 6&#45;&gt;2 -->
<g id="edge52" class="edge">
<title>6&#45;&gt;2</title>
<g id="a_edge52"><a xlink:title="include">
<path fill="none" stroke="#1414ce" d="M700.03,-503.95C716.78,-480.91 745.14,-437.88 757,-396 765.73,-365.18 759.18,-356.02 760,-324 760.08,-321 759.73,-218.72 761,-216 782.68,-169.44 831.2,-134.08 867.01,-113.05"/>
<polygon fill="#1414ce" stroke="#1414ce" points="868.87,-116.01 875.82,-108.01 865.4,-109.94 868.87,-116.01"/>
</a>
</g>
</g>
<!-- 6&#45;&gt;4 -->
<g id="edge53" class="edge">
<title>6&#45;&gt;4</title>
<g id="a_edge53"><a xlink:title="include">
<path fill="none" stroke="#1414ce" d="M632.47,-507.19C627.59,-506.07 622.71,-504.99 618,-504 524.61,-484.46 414.15,-466.68 354.49,-457.52"/>
<polygon fill="#1414ce" stroke="#1414ce" points="354.72,-454.01 344.31,-455.96 353.67,-460.93 354.72,-454.01"/>
</a>
</g>
</g>
<!-- 11&#45;&gt;12 -->
<g id="edge54" class="edge">
<title>11&#45;&gt;12</title>
<g id="a_edge54"><a xlink:title="include">
<path fill="none" stroke="#1414ce" d="M317.73,-71.88C299.54,-62.51 276.81,-50.81 257.36,-40.8"/>
<polygon fill="#1414ce" stroke="#1414ce" points="258.89,-37.65 248.4,-36.19 255.69,-43.88 258.89,-37.65"/>
</a>
</g>
</g>
<!-- 11&#45;&gt;3 -->
<g id="edge57" class="edge">
<title>11&#45;&gt;3</title>
<g id="a_edge57"><a xlink:title="include">
<path fill="none" stroke="#1414ce" d="M362.12,-71.7C367.36,-63.56 373.7,-53.69 379.48,-44.7"/>
<polygon fill="#1414ce" stroke="#1414ce" points="382.54,-46.41 385,-36.1 376.65,-42.62 382.54,-46.41"/>
</a>
</g>
</g>
<!-- 11&#45;&gt;13 -->
<g id="edge55" class="edge">
<title>11&#45;&gt;13</title>
<g id="a_edge55"><a xlink:title="include">
<path fill="none" stroke="#1414ce" d="M339.88,-71.7C334.64,-63.56 328.3,-53.69 322.52,-44.7"/>
<polygon fill="#1414ce" stroke="#1414ce" points="325.35,-42.62 317,-36.1 319.46,-46.41 325.35,-42.62"/>
</a>
</g>
</g>
<!-- 14 -->
<g id="node31" class="node">
<title>14</title>
<g id="a_node31"><a xlink:title="inttypes.h">
<polygon fill="#ffffff" stroke="black" points="539.5,-36 450.5,-36 450.5,0 539.5,0 539.5,-36"/>
<text text-anchor="middle" x="495" y="-14.3" font-family="Times,serif" font-size="14.00">inttypes.h</text>
</a>
</g>
</g>
<!-- 11&#45;&gt;14 -->
<g id="edge56" class="edge">
<title>11&#45;&gt;14</title>
<g id="a_edge56"><a xlink:title="include">
<path fill="none" stroke="#1414ce" d="M386.23,-71.88C405.58,-62.47 429.77,-50.71 450.43,-40.67"/>
<polygon fill="#1414ce" stroke="#1414ce" points="452.17,-43.71 459.64,-36.19 449.11,-37.41 452.17,-43.71"/>
</a>
</g>
</g>
<!-- 9&#45;&gt;4 -->
<g id="edge59" class="edge">
<title>9&#45;&gt;4</title>
<g id="a_edge59"><a xlink:title="include">
<path fill="none" stroke="#1414ce" d="M896.41,-585.29C828.52,-576.53 718.01,-560.7 624,-540 526.21,-518.47 413.79,-484.09 353.88,-464.97"/>
<polygon fill="#1414ce" stroke="#1414ce" points="354.61,-461.53 344.02,-461.81 352.47,-468.2 354.61,-461.53"/>
</a>
</g>
</g>
<!-- 9&#45;&gt;17 -->
<g id="edge66" class="edge">
<title>9&#45;&gt;17</title>
<g id="a_edge66"><a xlink:title="include">
<path fill="none" stroke="#1414ce" d="M1023.6,-579.66C1047.12,-571.76 1072.14,-559.35 1089,-540 1115.84,-509.2 1112,-491.86 1112,-451 1112,-451 1112,-451 1112,-377 1112,-336.97 1109.99,-290.63 1108.52,-262.07"/>
<polygon fill="#1414ce" stroke="#1414ce" points="1112.01,-261.84 1107.99,-252.04 1105.02,-262.21 1112.01,-261.84"/>
</a>
</g>
</g>
<!-- 9&#45;&gt;16 -->
<g id="edge63" class="edge">
<title>9&#45;&gt;16</title>
<g id="a_edge63"><a xlink:title="include">
<path fill="none" stroke="#1414ce" d="M967.69,-575.91C978.79,-549.62 998,-497.45 998,-451 998,-451 998,-451 998,-305 998,-263.63 982.77,-217.72 971.59,-189.61"/>
<polygon fill="#1414ce" stroke="#1414ce" points="974.72,-188.02 967.69,-180.09 968.24,-190.67 974.72,-188.02"/>
</a>
</g>
</g>
<!-- 9&#45;&gt;3 -->
<g id="edge58" class="edge">
<title>9&#45;&gt;3</title>
<g id="a_edge58"><a xlink:title="include">
<path fill="none" stroke="#1414ce" d="M1023.68,-579.47C1082.05,-566.7 1161.29,-548.32 1174,-540 1316.95,-446.43 1408,-405.85 1408,-235 1408,-235 1408,-235 1408,-161 1408,-118.11 1723.63,-164.04 1051,-72 782.36,-35.24 707.38,-91.6 442,-36 441.9,-35.98 441.8,-35.96 441.7,-35.94"/>
<polygon fill="#1414ce" stroke="#1414ce" points="442.67,-32.57 432.12,-33.47 440.93,-39.35 442.67,-32.57"/>
</a>
</g>
</g>
<!-- 9&#45;&gt;20 -->
<g id="edge67" class="edge">
<title>9&#45;&gt;20</title>
<g id="a_edge67"><a xlink:title="include">
<path fill="none" stroke="#1414ce" d="M932.07,-575.93C898.19,-555.94 838.8,-523.12 784,-504 710.96,-478.51 621.75,-463.52 569.95,-456.31"/>
<polygon fill="#1414ce" stroke="#1414ce" points="570.17,-452.81 559.79,-454.93 569.23,-459.75 570.17,-452.81"/>
</a>
</g>
</g>
<!-- 9&#45;&gt;10 -->
<g id="edge61" class="edge">
<title>9&#45;&gt;10</title>
<g id="a_edge61"><a xlink:title="include">
<path fill="none" stroke="#1414ce" d="M946.06,-575.71C912.6,-534.9 823.9,-430.7 735,-360 641.1,-285.32 516.43,-217.96 451.15,-184.76"/>
<polygon fill="#1414ce" stroke="#1414ce" points="452.46,-181.5 441.96,-180.11 449.3,-187.75 452.46,-181.5"/>
</a>
</g>
</g>
<!-- 9&#45;&gt;6 -->
<g id="edge60" class="edge">
<title>9&#45;&gt;6</title>
<g id="a_edge60"><a xlink:title="include">
<path fill="none" stroke="#1414ce" d="M896.34,-576.68C852.78,-565.51 795.22,-550.75 751.49,-539.54"/>
<polygon fill="#1414ce" stroke="#1414ce" points="752.09,-536.08 741.53,-536.98 750.35,-542.86 752.09,-536.08"/>
</a>
</g>
</g>
<!-- 9&#45;&gt;19 -->
<g id="edge65" class="edge">
<title>9&#45;&gt;19</title>
<g id="a_edge65"><a xlink:title="include">
<path fill="none" stroke="#1414ce" d="M1023.75,-588.11C1062.68,-582.14 1111.3,-568.97 1145,-540 1171.52,-517.2 1235.43,-436.73 1275,-252 1278.35,-236.35 1284.18,-229.1 1275,-216 1251.3,-182.18 1203.7,-169.86 1169.28,-165.41"/>
<polygon fill="#1414ce" stroke="#1414ce" points="1169.39,-161.9 1159.06,-164.27 1168.61,-168.86 1169.39,-161.9"/>
</a>
</g>
</g>
<!-- 9&#45;&gt;29 -->
<g id="edge68" class="edge">
<title>9&#45;&gt;29</title>
<g id="a_edge68"><a xlink:title="include">
<path fill="none" stroke="#1414ce" d="M1023.86,-581.56C1053.44,-573.74 1087.59,-560.88 1113,-540 1148.4,-510.92 1165,-496.81 1165,-451 1165,-451 1165,-451 1165,-377 1165,-334.49 1185.8,-288.95 1201.09,-261.22"/>
<polygon fill="#1414ce" stroke="#1414ce" points="1204.33,-262.61 1206.23,-252.19 1198.24,-259.15 1204.33,-262.61"/>
</a>
</g>
</g>
<!-- 9&#45;&gt;28 -->
<g id="edge64" class="edge">
<title>9&#45;&gt;28</title>
<g id="a_edge64"><a xlink:title="include">
<path fill="none" stroke="#1414ce" d="M959.45,-575.93C957.14,-526.99 945.05,-383.58 882,-288 874.31,-276.34 863.18,-266.2 852.09,-257.99"/>
<polygon fill="#1414ce" stroke="#1414ce" points="853.88,-254.96 843.68,-252.09 849.86,-260.7 853.88,-254.96"/>
</a>
</g>
</g>
<!-- 15 -->
<g id="node30" class="node">
<title>15</title>
<g id="a_node30"><a xlink:title="ets.h">
<polygon fill="#ffffff" stroke="black" points="1080,-540 1026,-540 1026,-504 1080,-504 1080,-540"/>
<text text-anchor="middle" x="1053" y="-518.3" font-family="Times,serif" font-size="14.00">ets.h</text>
</a>
</g>
</g>
<!-- 9&#45;&gt;15 -->
<g id="edge62" class="edge">
<title>9&#45;&gt;15</title>
<g id="a_edge62"><a xlink:title="include">
<path fill="none" stroke="#1414ce" d="M982.99,-575.7C994.81,-566.8 1009.39,-555.82 1022.18,-546.2"/>
<polygon fill="#1414ce" stroke="#1414ce" points="1024.39,-548.91 1030.28,-540.1 1020.18,-543.32 1024.39,-548.91"/>
</a>
</g>
</g>
<!-- 19&#45;&gt;2 -->
<g id="edge69" class="edge">
<title>19&#45;&gt;2</title>
<g id="a_edge69"><a xlink:title="include">
<path fill="none" stroke="#1414ce" d="M1098.55,-151.27C1063.11,-139.94 1004.02,-121.05 961.43,-107.44"/>
<polygon fill="#1414ce" stroke="#1414ce" points="962.39,-104.07 951.8,-104.36 960.26,-110.74 962.39,-104.07"/>
</a>
</g>
</g>
<!-- 7&#45;&gt;4 -->
<g id="edge70" class="edge">
<title>7&#45;&gt;4</title>
<g id="a_edge70"><a xlink:title="include">
<path fill="none" stroke="#1414ce" d="M354.97,-575.87C346.37,-551.46 330.52,-506.43 320.38,-477.64"/>
<polygon fill="#1414ce" stroke="#1414ce" points="323.68,-476.46 317.05,-468.19 317.07,-478.78 323.68,-476.46"/>
</a>
</g>
</g>
<!-- 29&#45;&gt;2 -->
<g id="edge71" class="edge">
<title>29&#45;&gt;2</title>
<g id="a_edge71"><a xlink:title="include">
<path fill="none" stroke="#1414ce" d="M1171.24,-215.96C1146.71,-206.31 1116.23,-193.51 1090,-180 1063.03,-166.11 1058.87,-158.08 1032,-144 1009.18,-132.04 983.08,-120.44 960.89,-111.16"/>
<polygon fill="#1414ce" stroke="#1414ce" points="962.22,-107.92 951.64,-107.33 959.54,-114.39 962.22,-107.92"/>
</a>
</g>
</g>
<!-- 29&#45;&gt;16 -->
<g id="edge73" class="edge">
<title>29&#45;&gt;16</title>
<g id="a_edge73"><a xlink:title="include">
<path fill="none" stroke="#1414ce" d="M1167.98,-218.54C1164.94,-217.67 1161.93,-216.82 1159,-216 1102.62,-200.23 1036.95,-182.95 996.94,-172.54"/>
<polygon fill="#1414ce" stroke="#1414ce" points="997.65,-169.11 987.1,-169.99 995.89,-175.89 997.65,-169.11"/>
</a>
</g>
</g>
<!-- 29&#45;&gt;3 -->
<g id="edge72" class="edge">
<title>29&#45;&gt;3</title>
<g id="a_edge72"><a xlink:title="include">
<path fill="none" stroke="#1414ce" d="M1211.76,-215.81C1204.84,-195.86 1190.78,-163.23 1168,-144 1093.57,-81.16 1056.43,-91.54 961,-72 734.48,-25.61 668.06,-84.57 442,-36 441.9,-35.98 441.8,-35.96 441.7,-35.93"/>
<polygon fill="#1414ce" stroke="#1414ce" points="442.68,-32.58 432.12,-33.43 440.91,-39.35 442.68,-32.58"/>
</a>
</g>
</g>
<!-- 28&#45;&gt;2 -->
<g id="edge74" class="edge">
<title>28&#45;&gt;2</title>
<g id="a_edge74"><a xlink:title="include">
<path fill="none" stroke="#1414ce" d="M824.7,-215.87C841.6,-191.14 872.95,-145.24 892.57,-116.51"/>
<polygon fill="#1414ce" stroke="#1414ce" points="895.51,-118.42 898.26,-108.19 889.73,-114.47 895.51,-118.42"/>
</a>
</g>
</g>
<!-- 28&#45;&gt;24 -->
<g id="edge77" class="edge">
<title>28&#45;&gt;24</title>
<g id="a_edge77"><a xlink:title="include">
<path fill="none" stroke="#1414ce" d="M769.84,-223.56C708.08,-210.05 595.23,-185.36 534.43,-172.06"/>
<polygon fill="#1414ce" stroke="#1414ce" points="534.94,-168.59 524.42,-169.87 533.44,-175.43 534.94,-168.59"/>
</a>
</g>
</g>
<!-- 28&#45;&gt;16 -->
<g id="edge75" class="edge">
<title>28&#45;&gt;16</title>
<g id="a_edge75"><a xlink:title="include">
<path fill="none" stroke="#1414ce" d="M848.96,-215.88C871.57,-205.11 900.66,-191.26 923.39,-180.43"/>
<polygon fill="#1414ce" stroke="#1414ce" points="925.18,-183.46 932.71,-176 922.17,-177.14 925.18,-183.46"/>
</a>
</g>
</g>
<!-- 28&#45;&gt;11 -->
<g id="edge76" class="edge">
<title>28&#45;&gt;11</title>
<g id="a_edge76"><a xlink:title="include">
<path fill="none" stroke="#1414ce" d="M769.93,-218.95C715.04,-201.13 617.17,-169.63 533,-144 496.04,-132.75 454.7,-120.67 420.77,-110.89"/>
<polygon fill="#1414ce" stroke="#1414ce" points="421.53,-107.46 410.95,-108.06 419.59,-114.19 421.53,-107.46"/>
</a>
</g>
</g>
<!-- 15&#45;&gt;17 -->
<g id="edge79" class="edge">
<title>15&#45;&gt;17</title>
<g id="a_edge79"><a xlink:title="include">
<path fill="none" stroke="#1414ce" d="M1056.22,-503.97C1065.24,-456.19 1090.83,-320.62 1101.85,-262.27"/>
<polygon fill="#1414ce" stroke="#1414ce" points="1105.32,-262.78 1103.73,-252.31 1098.44,-261.48 1105.32,-262.78"/>
</a>
</g>
</g>
<!-- 15&#45;&gt;16 -->
<g id="edge78" class="edge">
<title>15&#45;&gt;16</title>
<g id="a_edge78"><a xlink:title="include">
<path fill="none" stroke="#1414ce" d="M1049.56,-503.59C1044.59,-476.9 1036,-424.19 1036,-379 1036,-379 1036,-379 1036,-305 1036,-264.03 1032.34,-251.56 1012,-216 1005.96,-205.44 997.31,-195.47 988.79,-187.08"/>
<polygon fill="#1414ce" stroke="#1414ce" points="991.09,-184.44 981.41,-180.14 986.3,-189.54 991.09,-184.44"/>
</a>
</g>
</g>
<!-- 15&#45;&gt;20 -->
<g id="edge80" class="edge">
<title>15&#45;&gt;20</title>
<g id="a_edge80"><a xlink:title="include">
<path fill="none" stroke="#1414ce" d="M1025.83,-517.38C940,-505.96 674.21,-470.59 569.77,-456.69"/>
<polygon fill="#1414ce" stroke="#1414ce" points="569.97,-453.19 559.59,-455.34 569.04,-460.13 569.97,-453.19"/>
</a>
</g>
</g>
</g>
</svg>
