<?xml version="1.0" encoding="UTF-8" standalone="no"?>
<!DOCTYPE svg PUBLIC "-//W3C//DTD SVG 1.1//EN"
 "http://www.w3.org/Graphics/SVG/1.1/DTD/svg11.dtd">
<!-- Generated by graphviz version 2.43.0 (0)
 -->
<!-- Title: %3 Pages: 1 -->
<svg width="1419pt" height="764pt"
 viewBox="0.00 0.00 1419.07 764.00" xmlns="http://www.w3.org/2000/svg" xmlns:xlink="http://www.w3.org/1999/xlink">
<g id="graph0" class="graph" transform="scale(1 1) rotate(0) translate(4 760)">
<title>%3</title>
<polygon fill="transparent" stroke="transparent" points="-4,4 -4,-760 1415.07,-760 1415.07,4 -4,4"/>
<!-- 8 -->
<g id="node1" class="node">
<title>8</title>
<g id="a_node1"><a xlink:title="stdbool.h">
<polygon fill="#ffffff" stroke="black" points="615.57,-108 532.57,-108 532.57,-72 615.57,-72 615.57,-108"/>
<text text-anchor="middle" x="574.07" y="-86.3" font-family="Times,serif" font-size="14.00">stdbool.h</text>
</a>
</g>
</g>
<!-- 1 -->
<g id="node2" class="node">
<title>1</title>
<g id="a_node2"><a xlink:title="/__w/AtomVM/AtomVM/src/libAtomVM/interop.h">
<polygon fill="#bfbfbf" stroke="black" points="1081.57,-756 722.57,-756 722.57,-720 1081.57,-720 1081.57,-756"/>
<text text-anchor="middle" x="902.07" y="-734.3" font-family="Times,serif" font-size="14.00">/__w/AtomVM/AtomVM/src/libAtomVM/interop.h</text>
</a>
</g>
</g>
<!-- 2 -->
<g id="node11" class="node">
<title>2</title>
<g id="a_node11"><a xlink:title="context.h">
<polygon fill="#ffffff" stroke="black" points="456.57,-684 373.57,-684 373.57,-648 456.57,-648 456.57,-684"/>
<text text-anchor="middle" x="415.07" y="-662.3" font-family="Times,serif" font-size="14.00">context.h</text>
</a>
</g>
</g>
<!-- 1&#45;&gt;2 -->
<g id="edge1" class="edge">
<title>1&#45;&gt;2</title>
<g id="a_edge1"><a xlink:title="include">
<path fill="none" stroke="#1414ce" d="M783.56,-719.97C682.45,-705.43 541.9,-685.23 466.98,-674.46"/>
<polygon fill="#1414ce" stroke="#1414ce" points="467.25,-670.96 456.85,-673.01 466.25,-677.89 467.25,-670.96"/>
</a>
</g>
</g>
<!-- 19 -->
<g id="node14" class="node">
<title>19</title>
<g id="a_node14"><a xlink:title="term.h">
<polygon fill="#ffffff" stroke="black" points="1043.57,-468 978.57,-468 978.57,-432 1043.57,-432 1043.57,-468"/>
<text text-anchor="middle" x="1011.07" y="-446.3" font-family="Times,serif" font-size="14.00">term.h</text>
</a>
</g>
</g>
<!-- 1&#45;&gt;19 -->
<g id="edge2" class="edge">
<title>1&#45;&gt;19</title>
<g id="a_edge2"><a xlink:title="include">
<path fill="none" stroke="#1414ce" d="M908.56,-719.97C926.81,-672.09 978.65,-536.06 1000.82,-477.9"/>
<polygon fill="#1414ce" stroke="#1414ce" points="1004.18,-478.9 1004.48,-468.31 997.64,-476.4 1004.18,-478.9"/>
</a>
</g>
</g>
<!-- 25 -->
<g id="node3" class="node">
<title>25</title>
<g id="a_node3"><a xlink:title="refc_binary.h">
<polygon fill="#ffffff" stroke="black" points="964.07,-396 856.07,-396 856.07,-360 964.07,-360 964.07,-396"/>
<text text-anchor="middle" x="910.07" y="-374.3" font-family="Times,serif" font-size="14.00">refc_binary.h</text>
</a>
</g>
</g>
<!-- 25&#45;&gt;8 -->
<g id="edge3" class="edge">
<title>25&#45;&gt;8</title>
<g id="a_edge3"><a xlink:title="include">
<path fill="none" stroke="#1414ce" d="M890.57,-359.96C879.61,-349.97 865.99,-336.82 855.07,-324 817.18,-279.51 820.63,-258.07 780.07,-216 743.05,-177.61 729.64,-171.71 684.07,-144 664.93,-132.36 642.84,-121.3 623.5,-112.32"/>
<polygon fill="#1414ce" stroke="#1414ce" points="624.8,-109.06 614.25,-108.08 621.89,-115.43 624.8,-109.06"/>
</a>
</g>
</g>
<!-- 15 -->
<g id="node8" class="node">
<title>15</title>
<g id="a_node8"><a xlink:title="list.h">
<polygon fill="#ffffff" stroke="black" points="442.07,-180 388.07,-180 388.07,-144 442.07,-144 442.07,-180"/>
<text text-anchor="middle" x="415.07" y="-158.3" font-family="Times,serif" font-size="14.00">list.h</text>
</a>
</g>
</g>
<!-- 25&#45;&gt;15 -->
<g id="edge5" class="edge">
<title>25&#45;&gt;15</title>
<g id="a_edge5"><a xlink:title="include">
<path fill="none" stroke="#1414ce" d="M855.91,-374.53C766.19,-367.86 584.95,-343.2 467.07,-252 446.49,-236.07 432.51,-209.52 424.27,-189.55"/>
<polygon fill="#1414ce" stroke="#1414ce" points="427.48,-188.13 420.59,-180.08 420.95,-190.67 427.48,-188.13"/>
</a>
</g>
</g>
<!-- 6 -->
<g id="node10" class="node">
<title>6</title>
<g id="a_node10"><a xlink:title="stdlib.h">
<polygon fill="#ffffff" stroke="black" points="1057.57,-108 986.57,-108 986.57,-72 1057.57,-72 1057.57,-108"/>
<text text-anchor="middle" x="1022.07" y="-86.3" font-family="Times,serif" font-size="14.00">stdlib.h</text>
</a>
</g>
</g>
<!-- 25&#45;&gt;6 -->
<g id="edge4" class="edge">
<title>25&#45;&gt;6</title>
<g id="a_edge4"><a xlink:title="include">
<path fill="none" stroke="#1414ce" d="M938.12,-359.84C950.7,-350.72 964.59,-338.41 973.07,-324 1014.39,-253.75 989.88,-223.44 1008.07,-144 1010.01,-135.52 1012.35,-126.34 1014.56,-118.04"/>
<polygon fill="#1414ce" stroke="#1414ce" points="1018.01,-118.68 1017.24,-108.11 1011.25,-116.85 1018.01,-118.68"/>
</a>
</g>
</g>
<!-- 26 -->
<g id="node13" class="node">
<title>26</title>
<g id="a_node13"><a xlink:title="resources.h">
<polygon fill="#ffffff" stroke="black" points="964.07,-324 864.07,-324 864.07,-288 964.07,-288 964.07,-324"/>
<text text-anchor="middle" x="914.07" y="-302.3" font-family="Times,serif" font-size="14.00">resources.h</text>
</a>
</g>
</g>
<!-- 25&#45;&gt;26 -->
<g id="edge6" class="edge">
<title>25&#45;&gt;26</title>
<g id="a_edge6"><a xlink:title="include">
<path fill="none" stroke="#1414ce" d="M911.06,-359.7C911.5,-351.98 912.03,-342.71 912.52,-334.11"/>
<polygon fill="#1414ce" stroke="#1414ce" points="916.02,-334.29 913.09,-324.1 909.03,-333.89 916.02,-334.29"/>
</a>
</g>
</g>
<!-- 5 -->
<g id="node4" class="node">
<title>5</title>
<g id="a_node4"><a xlink:title="atom.h">
<polygon fill="#ffffff" stroke="black" points="847.07,-180 781.07,-180 781.07,-144 847.07,-144 847.07,-180"/>
<text text-anchor="middle" x="814.07" y="-158.3" font-family="Times,serif" font-size="14.00">atom.h</text>
</a>
</g>
</g>
<!-- 4 -->
<g id="node9" class="node">
<title>4</title>
<g id="a_node9"><a xlink:title="stdint.h">
<polygon fill="#ffffff" stroke="black" points="892.07,-36 820.07,-36 820.07,0 892.07,0 892.07,-36"/>
<text text-anchor="middle" x="856.07" y="-14.3" font-family="Times,serif" font-size="14.00">stdint.h</text>
</a>
</g>
</g>
<!-- 5&#45;&gt;4 -->
<g id="edge7" class="edge">
<title>5&#45;&gt;4</title>
<g id="a_edge7"><a xlink:title="include">
<path fill="none" stroke="#1414ce" d="M819.14,-143.87C826.33,-119.56 839.56,-74.82 848.08,-46.01"/>
<polygon fill="#1414ce" stroke="#1414ce" points="851.51,-46.77 850.99,-36.19 844.79,-44.79 851.51,-46.77"/>
</a>
</g>
</g>
<!-- 5&#45;&gt;6 -->
<g id="edge8" class="edge">
<title>5&#45;&gt;6</title>
<g id="a_edge8"><a xlink:title="include">
<path fill="none" stroke="#1414ce" d="M847.24,-150.88C878.48,-141.22 926.79,-125.94 976.49,-108.48"/>
<polygon fill="#1414ce" stroke="#1414ce" points="977.85,-111.71 986.11,-105.08 975.52,-105.11 977.85,-111.71"/>
</a>
</g>
</g>
<!-- 11 -->
<g id="node5" class="node">
<title>11</title>
<g id="a_node5"><a xlink:title="assert.h">
<polygon fill="#ffffff" stroke="black" points="1411.07,-36 1337.07,-36 1337.07,0 1411.07,0 1411.07,-36"/>
<text text-anchor="middle" x="1374.07" y="-14.3" font-family="Times,serif" font-size="14.00">assert.h</text>
</a>
</g>
</g>
<!-- 23 -->
<g id="node6" class="node">
<title>23</title>
<g id="a_node6"><a xlink:title="utils.h">
<polygon fill="#ffffff" stroke="black" points="1079.07,-180 1017.07,-180 1017.07,-144 1079.07,-144 1079.07,-180"/>
<text text-anchor="middle" x="1048.07" y="-158.3" font-family="Times,serif" font-size="14.00">utils.h</text>
</a>
</g>
</g>
<!-- 23&#45;&gt;6 -->
<g id="edge11" class="edge">
<title>23&#45;&gt;6</title>
<g id="a_edge11"><a xlink:title="include">
<path fill="none" stroke="#1414ce" d="M1041.64,-143.7C1038.72,-135.81 1035.18,-126.3 1031.93,-117.55"/>
<polygon fill="#1414ce" stroke="#1414ce" points="1035.19,-116.26 1028.42,-108.1 1028.63,-118.7 1035.19,-116.26"/>
</a>
</g>
</g>
<!-- 24 -->
<g id="node15" class="node">
<title>24</title>
<g id="a_node15"><a xlink:title="stddef.h">
<polygon fill="#ffffff" stroke="black" points="1150.07,-108 1076.07,-108 1076.07,-72 1150.07,-72 1150.07,-108"/>
<text text-anchor="middle" x="1113.07" y="-86.3" font-family="Times,serif" font-size="14.00">stddef.h</text>
</a>
</g>
</g>
<!-- 23&#45;&gt;24 -->
<g id="edge9" class="edge">
<title>23&#45;&gt;24</title>
<g id="a_edge9"><a xlink:title="include">
<path fill="none" stroke="#1414ce" d="M1064.14,-143.7C1072.01,-135.22 1081.63,-124.86 1090.24,-115.58"/>
<polygon fill="#1414ce" stroke="#1414ce" points="1092.95,-117.81 1097.19,-108.1 1087.82,-113.05 1092.95,-117.81"/>
</a>
</g>
</g>
<!-- 17 -->
<g id="node26" class="node">
<title>17</title>
<g id="a_node26"><a xlink:title="stdio.h">
<polygon fill="#ffffff" stroke="black" points="968.57,-108 903.57,-108 903.57,-72 968.57,-72 968.57,-108"/>
<text text-anchor="middle" x="936.07" y="-86.3" font-family="Times,serif" font-size="14.00">stdio.h</text>
</a>
</g>
</g>
<!-- 23&#45;&gt;17 -->
<g id="edge10" class="edge">
<title>23&#45;&gt;17</title>
<g id="a_edge10"><a xlink:title="include">
<path fill="none" stroke="#1414ce" d="M1020.67,-143.88C1006.16,-134.81 988.16,-123.55 972.49,-113.76"/>
<polygon fill="#1414ce" stroke="#1414ce" points="973.91,-110.52 963.58,-108.19 970.2,-116.46 973.91,-110.52"/>
</a>
</g>
</g>
<!-- 16 -->
<g id="node7" class="node">
<title>16</title>
<g id="a_node7"><a xlink:title="synclist.h">
<polygon fill="#ffffff" stroke="black" points="386.57,-252 301.57,-252 301.57,-216 386.57,-216 386.57,-252"/>
<text text-anchor="middle" x="344.07" y="-230.3" font-family="Times,serif" font-size="14.00">synclist.h</text>
</a>
</g>
</g>
<!-- 16&#45;&gt;15 -->
<g id="edge13" class="edge">
<title>16&#45;&gt;15</title>
<g id="a_edge13"><a xlink:title="include">
<path fill="none" stroke="#1414ce" d="M361.62,-215.7C370.31,-207.14 380.93,-196.66 390.42,-187.3"/>
<polygon fill="#1414ce" stroke="#1414ce" points="393.06,-189.62 397.72,-180.1 388.14,-184.63 393.06,-189.62"/>
</a>
</g>
</g>
<!-- 18 -->
<g id="node23" class="node">
<title>18</title>
<g id="a_node23"><a xlink:title="smp.h">
<polygon fill="#ffffff" stroke="black" points="330.07,-180 270.07,-180 270.07,-144 330.07,-144 330.07,-180"/>
<text text-anchor="middle" x="300.07" y="-158.3" font-family="Times,serif" font-size="14.00">smp.h</text>
</a>
</g>
</g>
<!-- 16&#45;&gt;18 -->
<g id="edge14" class="edge">
<title>16&#45;&gt;18</title>
<g id="a_edge14"><a xlink:title="include">
<path fill="none" stroke="#1414ce" d="M333.2,-215.7C328.08,-207.56 321.88,-197.69 316.23,-188.7"/>
<polygon fill="#1414ce" stroke="#1414ce" points="319.11,-186.71 310.82,-180.1 313.18,-190.43 319.11,-186.71"/>
</a>
</g>
</g>
<!-- 16&#45;&gt;17 -->
<g id="edge12" class="edge">
<title>16&#45;&gt;17</title>
<g id="a_edge12"><a xlink:title="include">
<path fill="none" stroke="#1414ce" d="M386.65,-222.79C495.67,-196.64 784,-127.48 893.27,-101.27"/>
<polygon fill="#1414ce" stroke="#1414ce" points="894.37,-104.6 903.28,-98.87 892.74,-97.8 894.37,-104.6"/>
</a>
</g>
</g>
<!-- 15&#45;&gt;8 -->
<g id="edge15" class="edge">
<title>15&#45;&gt;8</title>
<g id="a_edge15"><a xlink:title="include">
<path fill="none" stroke="#1414ce" d="M442.4,-148.97C465.28,-138.9 498.47,-124.28 525.8,-112.25"/>
<polygon fill="#1414ce" stroke="#1414ce" points="527.46,-115.35 535.2,-108.11 524.64,-108.94 527.46,-115.35"/>
</a>
</g>
</g>
<!-- 2&#45;&gt;15 -->
<g id="edge17" class="edge">
<title>2&#45;&gt;15</title>
<g id="a_edge17"><a xlink:title="include">
<path fill="none" stroke="#1414ce" d="M387.6,-647.84C373.25,-638.22 355.86,-625.45 342.07,-612 268.47,-540.17 266.16,-498.6 259.07,-396 253.55,-316.04 219.3,-278.02 270.07,-216 284.06,-198.91 340.11,-181.86 378.29,-171.88"/>
<polygon fill="#1414ce" stroke="#1414ce" points="379.23,-175.26 388.05,-169.38 377.49,-168.47 379.23,-175.26"/>
</a>
</g>
</g>
<!-- 2&#45;&gt;19 -->
<g id="edge20" class="edge">
<title>2&#45;&gt;19</title>
<g id="a_edge20"><a xlink:title="include">
<path fill="none" stroke="#1414ce" d="M456.8,-661.01C512.88,-654.79 615.08,-640.44 698.07,-612 804.25,-575.62 919.19,-508.56 975.66,-473.58"/>
<polygon fill="#1414ce" stroke="#1414ce" points="977.58,-476.51 984.21,-468.25 973.88,-470.57 977.58,-476.51"/>
</a>
</g>
</g>
<!-- 3 -->
<g id="node22" class="node">
<title>3</title>
<g id="a_node22"><a xlink:title="globalcontext.h">
<polygon fill="#ffffff" stroke="black" points="478.57,-612 351.57,-612 351.57,-576 478.57,-576 478.57,-612"/>
<text text-anchor="middle" x="415.07" y="-590.3" font-family="Times,serif" font-size="14.00">globalcontext.h</text>
</a>
</g>
</g>
<!-- 2&#45;&gt;3 -->
<g id="edge16" class="edge">
<title>2&#45;&gt;3</title>
<g id="a_edge16"><a xlink:title="include">
<path fill="none" stroke="#1414ce" d="M415.07,-647.7C415.07,-639.98 415.07,-630.71 415.07,-622.11"/>
<polygon fill="#1414ce" stroke="#1414ce" points="418.57,-622.1 415.07,-612.1 411.57,-622.1 418.57,-622.1"/>
</a>
</g>
</g>
<!-- 2&#45;&gt;18 -->
<g id="edge19" class="edge">
<title>2&#45;&gt;18</title>
<g id="a_edge19"><a xlink:title="include">
<path fill="none" stroke="#1414ce" d="M373.36,-665.57C284.19,-664.4 83.07,-647.91 83.07,-523 83.07,-523 83.07,-523 83.07,-449 83.07,-332.92 119.93,-299.01 201.07,-216 217.58,-199.11 240.65,-186.33 260.36,-177.56"/>
<polygon fill="#1414ce" stroke="#1414ce" points="261.89,-180.71 269.72,-173.58 259.15,-174.27 261.89,-180.71"/>
</a>
</g>
</g>
<!-- 28 -->
<g id="node24" class="node">
<title>28</title>
<g id="a_node24"><a xlink:title="timer_list.h">
<polygon fill="#ffffff" stroke="black" points="131.07,-252 33.07,-252 33.07,-216 131.07,-216 131.07,-252"/>
<text text-anchor="middle" x="82.07" y="-230.3" font-family="Times,serif" font-size="14.00">timer_list.h</text>
</a>
</g>
</g>
<!-- 2&#45;&gt;28 -->
<g id="edge21" class="edge">
<title>2&#45;&gt;28</title>
<g id="a_edge21"><a xlink:title="include">
<path fill="none" stroke="#1414ce" d="M373.34,-664.14C291.33,-661.6 113.29,-651.55 69.07,-612 38.53,-584.69 45.07,-563.97 45.07,-523 45.07,-523 45.07,-523 45.07,-377 45.07,-335.71 59.91,-289.77 70.79,-261.63"/>
<polygon fill="#1414ce" stroke="#1414ce" points="74.13,-262.7 74.58,-252.11 67.63,-260.11 74.13,-262.7"/>
</a>
</g>
</g>
<!-- 27 -->
<g id="node25" class="node">
<title>27</title>
<g id="a_node25"><a xlink:title="mailbox.h">
<polygon fill="#ffffff" stroke="black" points="771.07,-252 685.07,-252 685.07,-216 771.07,-216 771.07,-252"/>
<text text-anchor="middle" x="728.07" y="-230.3" font-family="Times,serif" font-size="14.00">mailbox.h</text>
</a>
</g>
</g>
<!-- 2&#45;&gt;27 -->
<g id="edge18" class="edge">
<title>2&#45;&gt;27</title>
<g id="a_edge18"><a xlink:title="include">
<path fill="none" stroke="#1414ce" d="M456.81,-661.86C532.36,-653.65 684.07,-624.53 684.07,-523 684.07,-523 684.07,-523 684.07,-377 684.07,-335.21 701.67,-289.48 714.61,-261.51"/>
<polygon fill="#1414ce" stroke="#1414ce" points="717.81,-262.93 718.95,-252.39 711.49,-259.92 717.81,-262.93"/>
</a>
</g>
</g>
<!-- 22 -->
<g id="node12" class="node">
<title>22</title>
<g id="a_node12"><a xlink:title="memory.h">
<polygon fill="#ffffff" stroke="black" points="1226.07,-252 1140.07,-252 1140.07,-216 1226.07,-216 1226.07,-252"/>
<text text-anchor="middle" x="1183.07" y="-230.3" font-family="Times,serif" font-size="14.00">memory.h</text>
</a>
</g>
</g>
<!-- 22&#45;&gt;23 -->
<g id="edge26" class="edge">
<title>22&#45;&gt;23</title>
<g id="a_edge26"><a xlink:title="include">
<path fill="none" stroke="#1414ce" d="M1150.05,-215.88C1131.45,-206.23 1108.08,-194.11 1088.4,-183.91"/>
<polygon fill="#1414ce" stroke="#1414ce" points="1089.85,-180.72 1079.36,-179.23 1086.63,-186.94 1089.85,-180.72"/>
</a>
</g>
</g>
<!-- 22&#45;&gt;4 -->
<g id="edge22" class="edge">
<title>22&#45;&gt;4</title>
<g id="a_edge22"><a xlink:title="include">
<path fill="none" stroke="#1414ce" d="M1186.31,-215.9C1191.42,-183.1 1197.25,-111.15 1159.07,-72 1124.18,-36.21 978.3,-24.42 902.41,-20.67"/>
<polygon fill="#1414ce" stroke="#1414ce" points="902.33,-17.17 892.18,-20.19 902.01,-24.16 902.33,-17.17"/>
</a>
</g>
</g>
<!-- 22&#45;&gt;6 -->
<g id="edge23" class="edge">
<title>22&#45;&gt;6</title>
<g id="a_edge23"><a xlink:title="include">
<path fill="none" stroke="#1414ce" d="M1174.32,-215.79C1163.79,-196.41 1144.57,-164.9 1121.07,-144 1105.19,-129.88 1084.89,-118.17 1066.81,-109.39"/>
<polygon fill="#1414ce" stroke="#1414ce" points="1068.13,-106.14 1057.59,-105.06 1065.15,-112.48 1068.13,-106.14"/>
</a>
</g>
</g>
<!-- 9 -->
<g id="node16" class="node">
<title>9</title>
<g id="a_node16"><a xlink:title="erl_nif.h">
<polygon fill="#ffffff" stroke="black" points="1361.07,-180 1287.07,-180 1287.07,-144 1361.07,-144 1361.07,-180"/>
<text text-anchor="middle" x="1324.07" y="-158.3" font-family="Times,serif" font-size="14.00">erl_nif.h</text>
</a>
</g>
</g>
<!-- 22&#45;&gt;9 -->
<g id="edge24" class="edge">
<title>22&#45;&gt;9</title>
<g id="a_edge24"><a xlink:title="include">
<path fill="none" stroke="#1414ce" d="M1217.56,-215.88C1236.51,-206.47 1260.2,-194.71 1280.43,-184.67"/>
<polygon fill="#1414ce" stroke="#1414ce" points="1282.05,-187.77 1289.45,-180.19 1278.93,-181.5 1282.05,-187.77"/>
</a>
</g>
</g>
<!-- 10 -->
<g id="node21" class="node">
<title>10</title>
<g id="a_node21"><a xlink:title="term_typedef.h">
<polygon fill="#ffffff" stroke="black" points="1336.57,-108 1211.57,-108 1211.57,-72 1336.57,-72 1336.57,-108"/>
<text text-anchor="middle" x="1274.07" y="-86.3" font-family="Times,serif" font-size="14.00">term_typedef.h</text>
</a>
</g>
</g>
<!-- 22&#45;&gt;10 -->
<g id="edge25" class="edge">
<title>22&#45;&gt;10</title>
<g id="a_edge25"><a xlink:title="include">
<path fill="none" stroke="#1414ce" d="M1203.15,-215.82C1213.64,-206.09 1226.12,-193.24 1235.07,-180 1248.22,-160.54 1258.61,-135.93 1265.34,-117.52"/>
<polygon fill="#1414ce" stroke="#1414ce" points="1268.67,-118.6 1268.7,-108 1262.07,-116.26 1268.67,-118.6"/>
</a>
</g>
</g>
<!-- 26&#45;&gt;16 -->
<g id="edge31" class="edge">
<title>26&#45;&gt;16</title>
<g id="a_edge31"><a xlink:title="include">
<path fill="none" stroke="#1414ce" d="M863.92,-299.02C782.66,-289.32 617.18,-269.45 477.07,-252 450.59,-248.7 421.16,-244.95 396.73,-241.81"/>
<polygon fill="#1414ce" stroke="#1414ce" points="396.96,-238.31 386.59,-240.51 396.06,-245.25 396.96,-238.31"/>
</a>
</g>
</g>
<!-- 26&#45;&gt;15 -->
<g id="edge29" class="edge">
<title>26&#45;&gt;15</title>
<g id="a_edge29"><a xlink:title="include">
<path fill="none" stroke="#1414ce" d="M863.82,-296.15C847.35,-293.37 828.96,-290.41 812.07,-288 678.26,-268.88 632.61,-309.05 510.07,-252 501.67,-248.09 465.03,-212.65 439.79,-187.69"/>
<polygon fill="#1414ce" stroke="#1414ce" points="441.93,-184.89 432.37,-180.33 437,-189.86 441.93,-184.89"/>
</a>
</g>
</g>
<!-- 26&#45;&gt;6 -->
<g id="edge27" class="edge">
<title>26&#45;&gt;6</title>
<g id="a_edge27"><a xlink:title="include">
<path fill="none" stroke="#1414ce" d="M918.41,-287.62C926.52,-257.06 945.84,-192.34 975.07,-144 981.11,-134.01 989.14,-124.14 996.84,-115.67"/>
<polygon fill="#1414ce" stroke="#1414ce" points="999.45,-118.01 1003.76,-108.33 994.36,-113.21 999.45,-118.01"/>
</a>
</g>
</g>
<!-- 26&#45;&gt;22 -->
<g id="edge30" class="edge">
<title>26&#45;&gt;22</title>
<g id="a_edge30"><a xlink:title="include">
<path fill="none" stroke="#1414ce" d="M964.35,-291.92C1011.49,-279.65 1081.71,-261.38 1129.79,-248.86"/>
<polygon fill="#1414ce" stroke="#1414ce" points="1130.9,-252.19 1139.7,-246.29 1129.14,-245.42 1130.9,-252.19"/>
</a>
</g>
</g>
<!-- 26&#45;&gt;9 -->
<g id="edge28" class="edge">
<title>26&#45;&gt;9</title>
<g id="a_edge28"><a xlink:title="include">
<path fill="none" stroke="#1414ce" d="M964.36,-300.48C1042.45,-292.83 1188.72,-275.81 1235.07,-252 1264.28,-236.99 1289.87,-208.93 1306.02,-188.32"/>
<polygon fill="#1414ce" stroke="#1414ce" points="1308.87,-190.35 1312.14,-180.27 1303.3,-186.11 1308.87,-190.35"/>
</a>
</g>
</g>
<!-- 19&#45;&gt;8 -->
<g id="edge33" class="edge">
<title>19&#45;&gt;8</title>
<g id="a_edge33"><a xlink:title="include">
<path fill="none" stroke="#1414ce" d="M978.45,-445.88C916.1,-439.38 782.92,-422.71 746.07,-396 720.51,-377.47 623.18,-188.19 587.39,-117.47"/>
<polygon fill="#1414ce" stroke="#1414ce" points="590.39,-115.65 582.76,-108.3 584.14,-118.81 590.39,-115.65"/>
</a>
</g>
</g>
<!-- 19&#45;&gt;25 -->
<g id="edge39" class="edge">
<title>19&#45;&gt;25</title>
<g id="a_edge39"><a xlink:title="include">
<path fill="none" stroke="#1414ce" d="M986.36,-431.88C973.4,-422.89 957.34,-411.76 943.31,-402.03"/>
<polygon fill="#1414ce" stroke="#1414ce" points="945.09,-399.01 934.87,-396.19 941.1,-404.76 945.09,-399.01"/>
</a>
</g>
</g>
<!-- 19&#45;&gt;23 -->
<g id="edge40" class="edge">
<title>19&#45;&gt;23</title>
<g id="a_edge40"><a xlink:title="include">
<path fill="none" stroke="#1414ce" d="M1016.96,-431.87C1024.84,-408.03 1038.47,-363.33 1044.07,-324 1050.7,-277.45 1050.35,-222.58 1049.32,-190.41"/>
<polygon fill="#1414ce" stroke="#1414ce" points="1052.81,-189.89 1048.94,-180.03 1045.81,-190.15 1052.81,-189.89"/>
</a>
</g>
</g>
<!-- 19&#45;&gt;4 -->
<g id="edge34" class="edge">
<title>19&#45;&gt;4</title>
<g id="a_edge34"><a xlink:title="include">
<path fill="none" stroke="#1414ce" d="M978.46,-449.02C939.87,-447.06 877.09,-437.25 847.07,-396 837.66,-383.06 846.67,-376 847.07,-360 849.07,-279.93 854.07,-260.07 856.07,-180 857.24,-133.26 856.88,-78.86 856.49,-46.77"/>
<polygon fill="#1414ce" stroke="#1414ce" points="859.99,-46.35 856.36,-36.4 852.99,-46.44 859.99,-46.35"/>
</a>
</g>
</g>
<!-- 19&#45;&gt;6 -->
<g id="edge36" class="edge">
<title>19&#45;&gt;6</title>
<g id="a_edge36"><a xlink:title="include">
<path fill="none" stroke="#1414ce" d="M1024.92,-431.83C1032.26,-421.9 1040.82,-408.86 1046.07,-396 1083.06,-305.47 1078.7,-277.35 1088.07,-180 1089.61,-164.07 1094.99,-158.43 1088.07,-144 1082.41,-132.18 1072.68,-122.17 1062.41,-114.14"/>
<polygon fill="#1414ce" stroke="#1414ce" points="1064.27,-111.16 1054.13,-108.12 1060.16,-116.83 1064.27,-111.16"/>
</a>
</g>
</g>
<!-- 19&#45;&gt;22 -->
<g id="edge38" class="edge">
<title>19&#45;&gt;22</title>
<g id="a_edge38"><a xlink:title="include">
<path fill="none" stroke="#1414ce" d="M1043.71,-447.91C1111.22,-444.9 1262.54,-433.98 1294.07,-396 1332.57,-349.62 1264.27,-290.12 1218.8,-258.02"/>
<polygon fill="#1414ce" stroke="#1414ce" points="1220.54,-254.97 1210.32,-252.17 1216.56,-260.73 1220.54,-254.97"/>
</a>
</g>
</g>
<!-- 20 -->
<g id="node19" class="node">
<title>20</title>
<g id="a_node19"><a xlink:title="sys/types.h">
<polygon fill="#ffffff" stroke="black" points="1193.57,-396 1096.57,-396 1096.57,-360 1193.57,-360 1193.57,-396"/>
<text text-anchor="middle" x="1145.07" y="-374.3" font-family="Times,serif" font-size="14.00">sys/types.h</text>
</a>
</g>
</g>
<!-- 19&#45;&gt;20 -->
<g id="edge32" class="edge">
<title>19&#45;&gt;20</title>
<g id="a_edge32"><a xlink:title="include">
<path fill="none" stroke="#1414ce" d="M1043.85,-431.88C1061.7,-422.55 1083.97,-410.92 1103.07,-400.94"/>
<polygon fill="#1414ce" stroke="#1414ce" points="1104.92,-403.92 1112.17,-396.19 1101.68,-397.72 1104.92,-403.92"/>
</a>
</g>
</g>
<!-- 21 -->
<g id="node20" class="node">
<title>21</title>
<g id="a_node20"><a xlink:title="string.h">
<polygon fill="#ffffff" stroke="black" points="1284.57,-396 1211.57,-396 1211.57,-360 1284.57,-360 1284.57,-396"/>
<text text-anchor="middle" x="1248.07" y="-374.3" font-family="Times,serif" font-size="14.00">string.h</text>
</a>
</g>
</g>
<!-- 19&#45;&gt;21 -->
<g id="edge37" class="edge">
<title>19&#45;&gt;21</title>
<g id="a_edge37"><a xlink:title="include">
<path fill="none" stroke="#1414ce" d="M1043.61,-440.99C1080.07,-431.8 1141.08,-415.8 1201.62,-396.35"/>
<polygon fill="#1414ce" stroke="#1414ce" points="1202.9,-399.61 1211.33,-393.19 1200.74,-392.95 1202.9,-399.61"/>
</a>
</g>
</g>
<!-- 19&#45;&gt;10 -->
<g id="edge41" class="edge">
<title>19&#45;&gt;10</title>
<g id="a_edge41"><a xlink:title="include">
<path fill="none" stroke="#1414ce" d="M1043.76,-446.07C1112.07,-439.5 1267.37,-422.1 1313.07,-396 1358.24,-370.21 1389.07,-359.02 1389.07,-307 1389.07,-307 1389.07,-307 1389.07,-233 1389.07,-192.55 1394.17,-176.48 1370.07,-144 1360.3,-130.83 1346.24,-120.53 1331.88,-112.65"/>
<polygon fill="#1414ce" stroke="#1414ce" points="1333.43,-109.51 1322.94,-108.05 1330.23,-115.73 1333.43,-109.51"/>
</a>
</g>
</g>
<!-- 19&#45;&gt;17 -->
<g id="edge35" class="edge">
<title>19&#45;&gt;17</title>
<g id="a_edge35"><a xlink:title="include">
<path fill="none" stroke="#1414ce" d="M1007.45,-431.73C995.38,-374.08 956.37,-187.89 941.71,-117.92"/>
<polygon fill="#1414ce" stroke="#1414ce" points="945.13,-117.16 939.65,-108.09 938.28,-118.6 945.13,-117.16"/>
</a>
</g>
</g>
<!-- 9&#45;&gt;10 -->
<g id="edge42" class="edge">
<title>9&#45;&gt;10</title>
<g id="a_edge42"><a xlink:title="include">
<path fill="none" stroke="#1414ce" d="M1311.71,-143.7C1305.84,-135.47 1298.7,-125.48 1292.23,-116.42"/>
<polygon fill="#1414ce" stroke="#1414ce" points="1294.95,-114.21 1286.29,-108.1 1289.25,-118.28 1294.95,-114.21"/>
</a>
</g>
</g>
<!-- 12 -->
<g id="node17" class="node">
<title>12</title>
<g id="a_node17"><a xlink:title="limits.h">
<polygon fill="#ffffff" stroke="black" points="1211.57,-36 1140.57,-36 1140.57,0 1211.57,0 1211.57,-36"/>
<text text-anchor="middle" x="1176.07" y="-14.3" font-family="Times,serif" font-size="14.00">limits.h</text>
</a>
</g>
</g>
<!-- 7 -->
<g id="node18" class="node">
<title>7</title>
<g id="a_node18"><a xlink:title="atom_table.h">
<polygon fill="#ffffff" stroke="black" points="628.57,-252 519.57,-252 519.57,-216 628.57,-216 628.57,-252"/>
<text text-anchor="middle" x="574.07" y="-230.3" font-family="Times,serif" font-size="14.00">atom_table.h</text>
</a>
</g>
</g>
<!-- 7&#45;&gt;8 -->
<g id="edge43" class="edge">
<title>7&#45;&gt;8</title>
<g id="a_edge43"><a xlink:title="include">
<path fill="none" stroke="#1414ce" d="M574.07,-215.87C574.07,-191.67 574.07,-147.21 574.07,-118.39"/>
<polygon fill="#1414ce" stroke="#1414ce" points="577.57,-118.19 574.07,-108.19 570.57,-118.19 577.57,-118.19"/>
</a>
</g>
</g>
<!-- 7&#45;&gt;5 -->
<g id="edge44" class="edge">
<title>7&#45;&gt;5</title>
<g id="a_edge44"><a xlink:title="include">
<path fill="none" stroke="#1414ce" d="M628.83,-217.03C672.07,-204.42 731.54,-187.07 771.31,-175.47"/>
<polygon fill="#1414ce" stroke="#1414ce" points="772.36,-178.81 780.98,-172.65 770.4,-172.09 772.36,-178.81"/>
</a>
</g>
</g>
<!-- 10&#45;&gt;11 -->
<g id="edge45" class="edge">
<title>10&#45;&gt;11</title>
<g id="a_edge45"><a xlink:title="include">
<path fill="none" stroke="#1414ce" d="M1298.53,-71.88C1311.37,-62.89 1327.27,-51.76 1341.17,-42.03"/>
<polygon fill="#1414ce" stroke="#1414ce" points="1343.33,-44.79 1349.51,-36.19 1339.32,-39.06 1343.33,-44.79"/>
</a>
</g>
</g>
<!-- 10&#45;&gt;4 -->
<g id="edge48" class="edge">
<title>10&#45;&gt;4</title>
<g id="a_edge48"><a xlink:title="include">
<path fill="none" stroke="#1414ce" d="M1211.52,-74.84C1206.64,-73.85 1201.78,-72.88 1197.07,-72 1092.14,-52.28 968.04,-34.33 902.32,-25.24"/>
<polygon fill="#1414ce" stroke="#1414ce" points="902.67,-21.76 892.29,-23.86 901.72,-28.69 902.67,-21.76"/>
</a>
</g>
</g>
<!-- 10&#45;&gt;12 -->
<g id="edge46" class="edge">
<title>10&#45;&gt;12</title>
<g id="a_edge46"><a xlink:title="include">
<path fill="none" stroke="#1414ce" d="M1250.1,-71.88C1237.52,-62.89 1221.94,-51.76 1208.32,-42.03"/>
<polygon fill="#1414ce" stroke="#1414ce" points="1210.31,-39.15 1200.14,-36.19 1206.24,-44.85 1210.31,-39.15"/>
</a>
</g>
</g>
<!-- 13 -->
<g id="node28" class="node">
<title>13</title>
<g id="a_node28"><a xlink:title="inttypes.h">
<polygon fill="#ffffff" stroke="black" points="1318.57,-36 1229.57,-36 1229.57,0 1318.57,0 1318.57,-36"/>
<text text-anchor="middle" x="1274.07" y="-14.3" font-family="Times,serif" font-size="14.00">inttypes.h</text>
</a>
</g>
</g>
<!-- 10&#45;&gt;13 -->
<g id="edge47" class="edge">
<title>10&#45;&gt;13</title>
<g id="a_edge47"><a xlink:title="include">
<path fill="none" stroke="#1414ce" d="M1274.07,-71.7C1274.07,-63.98 1274.07,-54.71 1274.07,-46.11"/>
<polygon fill="#1414ce" stroke="#1414ce" points="1277.57,-46.1 1274.07,-36.1 1270.57,-46.1 1277.57,-46.1"/>
</a>
</g>
</g>
<!-- 3&#45;&gt;5 -->
<g id="edge50" class="edge">
<title>3&#45;&gt;5</title>
<g id="a_edge50"><a xlink:title="include">
<path fill="none" stroke="#1414ce" d="M456.85,-575.95C476.7,-566.82 500.16,-554.47 519.07,-540 656.28,-435.06 689.7,-399.21 780.07,-252 791.99,-232.58 800.93,-208.3 806.64,-190"/>
<polygon fill="#1414ce" stroke="#1414ce" points="810.04,-190.85 809.55,-180.26 803.33,-188.84 810.04,-190.85"/>
</a>
</g>
</g>
<!-- 3&#45;&gt;16 -->
<g id="edge57" class="edge">
<title>3&#45;&gt;16</title>
<g id="a_edge57"><a xlink:title="include">
<path fill="none" stroke="#1414ce" d="M398.58,-575.77C376.23,-550.53 339.07,-501.05 339.07,-451 339.07,-451 339.07,-451 339.07,-377 339.07,-336.97 341.08,-290.63 342.55,-262.07"/>
<polygon fill="#1414ce" stroke="#1414ce" points="346.05,-262.21 343.08,-252.04 339.06,-261.84 346.05,-262.21"/>
</a>
</g>
</g>
<!-- 3&#45;&gt;15 -->
<g id="edge54" class="edge">
<title>3&#45;&gt;15</title>
<g id="a_edge54"><a xlink:title="include">
<path fill="none" stroke="#1414ce" d="M378.13,-575.95C336.06,-553.69 273.07,-510.44 273.07,-451 273.07,-451 273.07,-451 273.07,-305 273.07,-264.55 266.42,-247.27 292.07,-216 313.55,-189.82 350.39,-176.28 378.17,-169.46"/>
<polygon fill="#1414ce" stroke="#1414ce" points="378.97,-172.87 387.95,-167.25 377.42,-166.04 378.97,-172.87"/>
</a>
</g>
</g>
<!-- 3&#45;&gt;4 -->
<g id="edge49" class="edge">
<title>3&#45;&gt;4</title>
<g id="a_edge49"><a xlink:title="include">
<path fill="none" stroke="#1414ce" d="M351.51,-590.17C305.34,-585.27 243.44,-572.54 199.07,-540 67.09,-443.22 -52.21,-360.8 24.07,-216 81.87,-106.28 144.28,-107.59 263.07,-72 365.41,-41.34 689.16,-25.64 809.99,-20.73"/>
<polygon fill="#1414ce" stroke="#1414ce" points="810.18,-24.22 820.03,-20.33 809.9,-17.23 810.18,-24.22"/>
</a>
</g>
</g>
<!-- 3&#45;&gt;19 -->
<g id="edge58" class="edge">
<title>3&#45;&gt;19</title>
<g id="a_edge58"><a xlink:title="include">
<path fill="none" stroke="#1414ce" d="M478.57,-577.87C600.78,-548.75 865.69,-485.64 968.8,-461.07"/>
<polygon fill="#1414ce" stroke="#1414ce" points="969.64,-464.47 978.55,-458.75 968.01,-457.66 969.64,-464.47"/>
</a>
</g>
</g>
<!-- 3&#45;&gt;9 -->
<g id="edge52" class="edge">
<title>3&#45;&gt;9</title>
<g id="a_edge52"><a xlink:title="include">
<path fill="none" stroke="#1414ce" d="M478.67,-590.07C689.34,-579.55 1351.07,-539.45 1351.07,-451 1351.07,-451 1351.07,-451 1351.07,-305 1351.07,-264.5 1340.34,-218.63 1332.41,-190.26"/>
<polygon fill="#1414ce" stroke="#1414ce" points="1335.67,-188.93 1329.54,-180.29 1328.94,-190.87 1335.67,-188.93"/>
</a>
</g>
</g>
<!-- 3&#45;&gt;7 -->
<g id="edge51" class="edge">
<title>3&#45;&gt;7</title>
<g id="a_edge51"><a xlink:title="include">
<path fill="none" stroke="#1414ce" d="M434.16,-575.77C459.49,-550.91 501.07,-502.3 501.07,-451 501.07,-451 501.07,-451 501.07,-377 501.07,-332.03 530.38,-287.04 551.86,-260.1"/>
<polygon fill="#1414ce" stroke="#1414ce" points="554.59,-262.29 558.23,-252.35 549.18,-257.85 554.59,-262.29"/>
</a>
</g>
</g>
<!-- 3&#45;&gt;18 -->
<g id="edge56" class="edge">
<title>3&#45;&gt;18</title>
<g id="a_edge56"><a xlink:title="include">
<path fill="none" stroke="#1414ce" d="M351.55,-579.51C328.29,-571.6 303.64,-559.22 287.07,-540 191.1,-428.71 151.92,-345.67 221.07,-216 229.71,-199.8 245.75,-187.67 261.13,-179.14"/>
<polygon fill="#1414ce" stroke="#1414ce" points="262.77,-182.23 270.04,-174.52 259.55,-176.01 262.77,-182.23"/>
</a>
</g>
</g>
<!-- 3&#45;&gt;28 -->
<g id="edge59" class="edge">
<title>3&#45;&gt;28</title>
<g id="a_edge59"><a xlink:title="include">
<path fill="none" stroke="#1414ce" d="M351.45,-589.32C310.12,-583.9 257.37,-570.88 221.07,-540 209.51,-530.16 124.43,-333.69 93.38,-261.4"/>
<polygon fill="#1414ce" stroke="#1414ce" points="96.53,-259.86 89.37,-252.05 90.09,-262.62 96.53,-259.86"/>
</a>
</g>
</g>
<!-- 3&#45;&gt;27 -->
<g id="edge55" class="edge">
<title>3&#45;&gt;27</title>
<g id="a_edge55"><a xlink:title="include">
<path fill="none" stroke="#1414ce" d="M445.97,-575.85C460.82,-566.57 478.15,-554.13 491.07,-540 553.28,-471.98 537.12,-432.47 594.07,-360 622.82,-323.42 636.01,-319.69 670.07,-288 680.32,-278.47 691.66,-268.07 701.58,-259.02"/>
<polygon fill="#1414ce" stroke="#1414ce" points="704.15,-261.42 709.19,-252.1 699.43,-256.24 704.15,-261.42"/>
</a>
</g>
</g>
<!-- 14 -->
<g id="node27" class="node">
<title>14</title>
<g id="a_node27"><a xlink:title="ets.h">
<polygon fill="#ffffff" stroke="black" points="442.07,-540 388.07,-540 388.07,-504 442.07,-504 442.07,-540"/>
<text text-anchor="middle" x="415.07" y="-518.3" font-family="Times,serif" font-size="14.00">ets.h</text>
</a>
</g>
</g>
<!-- 3&#45;&gt;14 -->
<g id="edge53" class="edge">
<title>3&#45;&gt;14</title>
<g id="a_edge53"><a xlink:title="include">
<path fill="none" stroke="#1414ce" d="M415.07,-575.7C415.07,-567.98 415.07,-558.71 415.07,-550.11"/>
<polygon fill="#1414ce" stroke="#1414ce" points="418.57,-550.1 415.07,-540.1 411.57,-550.1 418.57,-550.1"/>
</a>
</g>
</g>
<!-- 18&#45;&gt;8 -->
<g id="edge60" class="edge">
<title>18&#45;&gt;8</title>
<g id="a_edge60"><a xlink:title="include">
<path fill="none" stroke="#1414ce" d="M330.18,-153.31C376.47,-141.48 465.72,-118.68 522.46,-104.18"/>
<polygon fill="#1414ce" stroke="#1414ce" points="523.49,-107.53 532.32,-101.67 521.76,-100.75 523.49,-107.53"/>
</a>
</g>
</g>
<!-- 28&#45;&gt;8 -->
<g id="edge61" class="edge">
<title>28&#45;&gt;8</title>
<g id="a_edge61"><a xlink:title="include">
<path fill="none" stroke="#1414ce" d="M113.62,-215.91C156.63,-192.85 231.7,-153.56 261.07,-144 350.31,-114.96 459.31,-101.11 522.3,-95.08"/>
<polygon fill="#1414ce" stroke="#1414ce" points="522.75,-98.56 532.38,-94.15 522.1,-91.58 522.75,-98.56"/>
</a>
</g>
</g>
<!-- 28&#45;&gt;15 -->
<g id="edge63" class="edge">
<title>28&#45;&gt;15</title>
<g id="a_edge63"><a xlink:title="include">
<path fill="none" stroke="#1414ce" d="M131.39,-223.08C183.17,-212.61 266.92,-195.51 339.07,-180 351.77,-177.27 365.65,-174.19 378.03,-171.42"/>
<polygon fill="#1414ce" stroke="#1414ce" points="379.02,-174.78 388.01,-169.17 377.49,-167.95 379.02,-174.78"/>
</a>
</g>
</g>
<!-- 28&#45;&gt;4 -->
<g id="edge62" class="edge">
<title>28&#45;&gt;4</title>
<g id="a_edge62"><a xlink:title="include">
<path fill="none" stroke="#1414ce" d="M95.91,-216C113.5,-195.59 145.83,-161.89 181.07,-144 397.21,-34.24 696.01,-19.99 809.67,-18.76"/>
<polygon fill="#1414ce" stroke="#1414ce" points="809.79,-22.26 819.76,-18.68 809.74,-15.26 809.79,-22.26"/>
</a>
</g>
</g>
<!-- 27&#45;&gt;8 -->
<g id="edge64" class="edge">
<title>27&#45;&gt;8</title>
<g id="a_edge64"><a xlink:title="include">
<path fill="none" stroke="#1414ce" d="M715.79,-215.69C701.88,-196.79 677.9,-166.25 653.07,-144 640.66,-132.88 625.76,-122.29 612.26,-113.54"/>
<polygon fill="#1414ce" stroke="#1414ce" points="613.96,-110.47 603.64,-108.07 610.21,-116.38 613.96,-110.47"/>
</a>
</g>
</g>
<!-- 27&#45;&gt;23 -->
<g id="edge67" class="edge">
<title>27&#45;&gt;23</title>
<g id="a_edge67"><a xlink:title="include">
<path fill="none" stroke="#1414ce" d="M771.23,-223.56C832.99,-210.05 945.84,-185.36 1006.64,-172.06"/>
<polygon fill="#1414ce" stroke="#1414ce" points="1007.63,-175.43 1016.65,-169.87 1006.13,-168.59 1007.63,-175.43"/>
</a>
</g>
</g>
<!-- 27&#45;&gt;15 -->
<g id="edge65" class="edge">
<title>27&#45;&gt;15</title>
<g id="a_edge65"><a xlink:title="include">
<path fill="none" stroke="#1414ce" d="M684.88,-223.34C623.02,-209.51 510.26,-184.29 452.04,-171.27"/>
<polygon fill="#1414ce" stroke="#1414ce" points="452.69,-167.83 442.17,-169.06 451.16,-174.66 452.69,-167.83"/>
</a>
</g>
</g>
<!-- 27&#45;&gt;10 -->
<g id="edge66" class="edge">
<title>27&#45;&gt;10</title>
<g id="a_edge66"><a xlink:title="include">
<path fill="none" stroke="#1414ce" d="M771.1,-230.83C839.56,-226.47 976.9,-213.93 1088.07,-180 1142.05,-163.53 1200.08,-133.59 1236.7,-113.02"/>
<polygon fill="#1414ce" stroke="#1414ce" points="1238.57,-115.99 1245.54,-108.01 1235.11,-109.9 1238.57,-115.99"/>
</a>
</g>
</g>
<!-- 14&#45;&gt;16 -->
<g id="edge69" class="edge">
<title>14&#45;&gt;16</title>
<g id="a_edge69"><a xlink:title="include">
<path fill="none" stroke="#1414ce" d="M410.45,-503.83C407.68,-493.47 404.12,-479.99 401.07,-468 382.15,-393.62 360.93,-305.57 350.53,-262.09"/>
<polygon fill="#1414ce" stroke="#1414ce" points="353.91,-261.19 348.18,-252.27 347.1,-262.81 353.91,-261.19"/>
</a>
</g>
</g>
<!-- 14&#45;&gt;15 -->
<g id="edge68" class="edge">
<title>14&#45;&gt;15</title>
<g id="a_edge68"><a xlink:title="include">
<path fill="none" stroke="#1414ce" d="M415.07,-503.95C415.07,-477.29 415.07,-424.11 415.07,-379 415.07,-379 415.07,-379 415.07,-305 415.07,-265 415.07,-218.65 415.07,-190.08"/>
<polygon fill="#1414ce" stroke="#1414ce" points="418.57,-190.05 415.07,-180.05 411.57,-190.05 418.57,-190.05"/>
</a>
</g>
</g>
<!-- 14&#45;&gt;19 -->
<g id="edge70" class="edge">
<title>14&#45;&gt;19</title>
<g id="a_edge70"><a xlink:title="include">
<path fill="none" stroke="#1414ce" d="M442.23,-517.81C536.86,-506.7 852.56,-469.62 968.17,-456.04"/>
<polygon fill="#1414ce" stroke="#1414ce" points="968.88,-459.48 978.4,-454.84 968.06,-452.53 968.88,-459.48"/>
</a>
</g>
</g>
</g>
</svg>
