<?xml version="1.0" encoding="UTF-8" standalone="no"?>
<!DOCTYPE svg PUBLIC "-//W3C//DTD SVG 1.1//EN"
 "http://www.w3.org/Graphics/SVG/1.1/DTD/svg11.dtd">
<!-- Generated by graphviz version 2.43.0 (0)
 -->
<!-- Title: %3 Pages: 1 -->
<svg width="1398pt" height="476pt"
 viewBox="0.00 0.00 1398.00 476.00" xmlns="http://www.w3.org/2000/svg" xmlns:xlink="http://www.w3.org/1999/xlink">
<g id="graph0" class="graph" transform="scale(1 1) rotate(0) translate(4 472)">
<title>%3</title>
<polygon fill="transparent" stroke="transparent" points="-4,4 -4,-472 1394,-472 1394,4 -4,4"/>
<!-- 23 -->
<g id="node1" class="node">
<title>23</title>
<g id="a_node1"><a xlink:title="SpinLock">
<polygon fill="#ffffff" stroke="black" points="1223.5,-324 1141.5,-324 1141.5,-288 1223.5,-288 1223.5,-324"/>
<text text-anchor="middle" x="1182.5" y="-302.3" font-family="Times,serif" font-size="14.00">SpinLock</text>
</a>
</g>
</g>
<!-- 4 -->
<g id="node2" class="node">
<title>4</title>
<g id="a_node2"><a xlink:title="ResourceType">
<polygon fill="#ffffff" stroke="black" points="334,-180 217,-180 217,-144 334,-144 334,-180"/>
<text text-anchor="middle" x="275.5" y="-158.3" font-family="Times,serif" font-size="14.00">ResourceType</text>
</a>
</g>
</g>
<!-- 6 -->
<g id="node4" class="node">
<title>6</title>
<g id="a_node4"><a xlink:title="ListHead">
<polygon fill="#ffffff" stroke="black" points="403,-36 322,-36 322,0 403,0 403,-36"/>
<text text-anchor="middle" x="362.5" y="-14.3" font-family="Times,serif" font-size="14.00">ListHead</text>
</a>
</g>
</g>
<!-- 4&#45;&gt;6 -->
<g id="edge3" class="edge">
<title>4&#45;&gt;6</title>
<g id="a_edge3"><a xlink:title="usage">
<path fill="none" stroke="#1414ce" d="M285.99,-143.87C301.08,-119.24 329.02,-73.64 346.64,-44.88"/>
<polygon fill="#1414ce" stroke="#1414ce" points="349.73,-46.54 351.97,-36.19 343.76,-42.89 349.73,-46.54"/>
</a>
</g>
</g>
<!-- 7 -->
<g id="node7" class="node">
<title>7</title>
<g id="a_node7"><a xlink:title="GlobalContext">
<polygon fill="#ffffff" stroke="black" points="564,-396 445,-396 445,-360 564,-360 564,-396"/>
<text text-anchor="middle" x="504.5" y="-374.3" font-family="Times,serif" font-size="14.00">GlobalContext</text>
</a>
</g>
</g>
<!-- 4&#45;&gt;7 -->
<g id="edge2" class="edge">
<title>4&#45;&gt;7</title>
<g id="a_edge2"><a xlink:title="usage">
<path fill="none" stroke="#1414ce" d="M303.14,-180.12C315.35,-190.13 329.22,-203.28 340.5,-216 380.12,-260.7 375.81,-284.36 420.5,-324 433.97,-335.95 450.57,-346.44 465.5,-354.88"/>
<polygon fill="#1414ce" stroke="#1414ce" points="464.1,-358.1 474.55,-359.85 467.47,-351.97 464.1,-358.1"/>
</a>
</g>
</g>
<!-- 5 -->
<g id="node22" class="node">
<title>5</title>
<g id="a_node22"><a xlink:title="SyncList">
<polygon fill="#ffffff" stroke="black" points="533.5,-108 455.5,-108 455.5,-72 533.5,-72 533.5,-108"/>
<text text-anchor="middle" x="494.5" y="-86.3" font-family="Times,serif" font-size="14.00">SyncList</text>
</a>
</g>
</g>
<!-- 4&#45;&gt;5 -->
<g id="edge1" class="edge">
<title>4&#45;&gt;5</title>
<g id="a_edge1"><a xlink:title="usage">
<path fill="none" stroke="#1414ce" d="M328.79,-143.97C364.4,-132.58 410.89,-117.73 445.56,-106.64"/>
<polygon fill="#1414ce" stroke="#1414ce" points="447,-109.86 455.46,-103.48 444.87,-103.19 447,-109.86"/>
</a>
</g>
</g>
<!-- 18 -->
<g id="node3" class="node">
<title>18</title>
<g id="a_node3"><a xlink:title="Module">
<polygon fill="#ffffff" stroke="black" points="667.5,-324 597.5,-324 597.5,-288 667.5,-288 667.5,-324"/>
<text text-anchor="middle" x="632.5" y="-302.3" font-family="Times,serif" font-size="14.00">Module</text>
</a>
</g>
</g>
<!-- 18&#45;&gt;6 -->
<g id="edge6" class="edge">
<title>18&#45;&gt;6</title>
<g id="a_edge6"><a xlink:title="usage">
<path fill="none" stroke="#1414ce" d="M618.7,-287.98C611.55,-278.1 603.5,-265.06 599.5,-252 585.44,-206.07 611.33,-189.35 595.5,-144 582.41,-106.48 575.04,-94.81 542.5,-72 503.93,-44.97 451.51,-31.56 413.19,-25.02"/>
<polygon fill="#1414ce" stroke="#1414ce" points="413.71,-21.56 403.28,-23.42 412.59,-28.47 413.71,-21.56"/>
</a>
</g>
</g>
<!-- 20 -->
<g id="node11" class="node">
<title>20</title>
<g id="a_node11"><a xlink:title="LiteralEntry">
<polygon fill="#ffffff" stroke="black" points="712.5,-252 608.5,-252 608.5,-216 712.5,-216 712.5,-252"/>
<text text-anchor="middle" x="660.5" y="-230.3" font-family="Times,serif" font-size="14.00">LiteralEntry</text>
</a>
</g>
</g>
<!-- 18&#45;&gt;20 -->
<g id="edge5" class="edge">
<title>18&#45;&gt;20</title>
<g id="a_edge5"><a xlink:title="usage">
<path fill="none" stroke="#1414ce" d="M639.42,-287.7C642.57,-279.81 646.38,-270.3 649.88,-261.55"/>
<polygon fill="#1414ce" stroke="#1414ce" points="653.19,-262.69 653.66,-252.1 646.69,-260.09 653.19,-262.69"/>
</a>
</g>
</g>
<!-- 19 -->
<g id="node21" class="node">
<title>19</title>
<g id="a_node21"><a xlink:title="ExportedFunction">
<polygon fill="#ffffff" stroke="black" points="876.5,-252 730.5,-252 730.5,-216 876.5,-216 876.5,-252"/>
<text text-anchor="middle" x="803.5" y="-230.3" font-family="Times,serif" font-size="14.00">ExportedFunction</text>
</a>
</g>
</g>
<!-- 18&#45;&gt;19 -->
<g id="edge4" class="edge">
<title>18&#45;&gt;19</title>
<g id="a_edge4"><a xlink:title="usage">
<path fill="none" stroke="#1414ce" d="M667.52,-290.67C691.99,-280.65 725.06,-267.11 752.46,-255.89"/>
<polygon fill="#1414ce" stroke="#1414ce" points="753.97,-259.06 761.89,-252.03 751.31,-252.58 753.97,-259.06"/>
</a>
</g>
</g>
<!-- 6&#45;&gt;6 -->
<g id="edge7" class="edge">
<title>6&#45;&gt;6</title>
<g id="a_edge7"><a xlink:title="usage">
<path fill="none" stroke="#1414ce" d="M403.23,-31.31C413.4,-30.38 421,-25.95 421,-18 421,-12.91 417.88,-9.26 412.97,-7.05"/>
<polygon fill="#1414ce" stroke="#1414ce" points="413.78,-3.64 403.23,-4.69 412.13,-10.45 413.78,-3.64"/>
</a>
</g>
</g>
<!-- 14 -->
<g id="node5" class="node">
<title>14</title>
<g id="a_node5"><a xlink:title="HeapFragment">
<polygon fill="#ffffff" stroke="black" points="1224,-36 1099,-36 1099,0 1224,0 1224,-36"/>
<text text-anchor="middle" x="1161.5" y="-14.3" font-family="Times,serif" font-size="14.00">HeapFragment</text>
</a>
</g>
</g>
<!-- 14&#45;&gt;14 -->
<g id="edge8" class="edge">
<title>14&#45;&gt;14</title>
<g id="a_edge8"><a xlink:title="usage">
<path fill="none" stroke="#1414ce" d="M1224.28,-30.55C1234.76,-28.79 1242,-24.61 1242,-18 1242,-13.77 1239.03,-10.53 1234.14,-8.29"/>
<polygon fill="#1414ce" stroke="#1414ce" points="1234.86,-4.85 1224.28,-5.45 1232.92,-11.58 1234.86,-4.85"/>
</a>
</g>
</g>
<!-- 16 -->
<g id="node6" class="node">
<title>16</title>
<g id="a_node6"><a xlink:title="RefcBinaryQueueItem">
<polygon fill="#ffffff" stroke="black" points="323.5,-324 149.5,-324 149.5,-288 323.5,-288 323.5,-324"/>
<text text-anchor="middle" x="236.5" y="-302.3" font-family="Times,serif" font-size="14.00">RefcBinaryQueueItem</text>
</a>
</g>
</g>
<!-- 16&#45;&gt;16 -->
<g id="edge10" class="edge">
<title>16&#45;&gt;16</title>
<g id="a_edge10"><a xlink:title="usage">
<path fill="none" stroke="#1414ce" d="M323.8,-317.68C334.49,-315.59 341.5,-311.7 341.5,-306 341.5,-302.35 338.62,-299.44 333.75,-297.27"/>
<polygon fill="#1414ce" stroke="#1414ce" points="334.38,-293.81 323.8,-294.32 332.39,-300.52 334.38,-293.81"/>
</a>
</g>
</g>
<!-- 17 -->
<g id="node16" class="node">
<title>17</title>
<g id="a_node16"><a xlink:title="RefcBinary">
<polygon fill="#ffffff" stroke="black" points="323,-252 228,-252 228,-216 323,-216 323,-252"/>
<text text-anchor="middle" x="275.5" y="-230.3" font-family="Times,serif" font-size="14.00">RefcBinary</text>
</a>
</g>
</g>
<!-- 16&#45;&gt;17 -->
<g id="edge9" class="edge">
<title>16&#45;&gt;17</title>
<g id="a_edge9"><a xlink:title="usage">
<path fill="none" stroke="#1414ce" d="M246.14,-287.7C250.63,-279.64 256.06,-269.89 261.02,-260.98"/>
<polygon fill="#1414ce" stroke="#1414ce" points="264.16,-262.54 265.97,-252.1 258.05,-259.14 264.16,-262.54"/>
</a>
</g>
</g>
<!-- 7&#45;&gt;23 -->
<g id="edge20" class="edge">
<title>7&#45;&gt;23</title>
<g id="a_edge20"><a xlink:title="usage">
<path fill="none" stroke="#1414ce" d="M564.36,-376.17C676.07,-373.68 923.46,-363.73 1127.5,-324 1128.77,-323.75 1130.05,-323.49 1131.34,-323.21"/>
<polygon fill="#1414ce" stroke="#1414ce" points="1132.41,-326.55 1141.3,-320.78 1130.75,-319.75 1132.41,-326.55"/>
</a>
</g>
</g>
<!-- 7&#45;&gt;4 -->
<g id="edge11" class="edge">
<title>7&#45;&gt;4</title>
<g id="a_edge11"><a xlink:title="usage">
<path fill="none" stroke="#1414ce" d="M458.27,-359.85C439.59,-350.74 418.77,-338.43 402.5,-324 357.81,-284.36 362.12,-260.7 322.5,-216 313.85,-206.24 303.67,-196.23 294.87,-187.57"/>
<polygon fill="#1414ce" stroke="#1414ce" points="297.15,-184.9 287.57,-180.36 292.22,-189.88 297.15,-184.9"/>
</a>
</g>
</g>
<!-- 7&#45;&gt;18 -->
<g id="edge17" class="edge">
<title>7&#45;&gt;18</title>
<g id="a_edge17"><a xlink:title="usage">
<path fill="none" stroke="#1414ce" d="M535.81,-359.88C552.7,-350.64 573.75,-339.13 591.88,-329.21"/>
<polygon fill="#1414ce" stroke="#1414ce" points="593.97,-332.06 601.07,-324.19 590.61,-325.92 593.97,-332.06"/>
</a>
</g>
</g>
<!-- 7&#45;&gt;6 -->
<g id="edge21" class="edge">
<title>7&#45;&gt;6</title>
<g id="a_edge21"><a xlink:title="usage">
<path fill="none" stroke="#1414ce" d="M490.09,-359.91C463.52,-327.33 407.16,-253.04 381.5,-180 365.74,-135.15 362.51,-79.39 362.13,-46.65"/>
<polygon fill="#1414ce" stroke="#1414ce" points="365.63,-46.47 362.1,-36.48 358.63,-46.49 365.63,-46.47"/>
</a>
</g>
</g>
<!-- 7&#45;&gt;16 -->
<g id="edge15" class="edge">
<title>7&#45;&gt;16</title>
<g id="a_edge15"><a xlink:title="usage">
<path fill="none" stroke="#1414ce" d="M444.69,-361.38C405.41,-351.12 353.72,-337.62 311.67,-326.63"/>
<polygon fill="#1414ce" stroke="#1414ce" points="312.32,-323.19 301.76,-324.04 310.55,-329.96 312.32,-323.19"/>
</a>
</g>
</g>
<!-- 8 -->
<g id="node8" class="node">
<title>8</title>
<g id="a_node8"><a xlink:title="Ets">
<polygon fill="#ffffff" stroke="black" points="586.5,-180 532.5,-180 532.5,-144 586.5,-144 586.5,-180"/>
<text text-anchor="middle" x="559.5" y="-158.3" font-family="Times,serif" font-size="14.00">Ets</text>
</a>
</g>
</g>
<!-- 7&#45;&gt;8 -->
<g id="edge12" class="edge">
<title>7&#45;&gt;8</title>
<g id="a_edge12"><a xlink:title="usage">
<path fill="none" stroke="#1414ce" d="M509.08,-359.82C511.83,-349.46 515.39,-335.98 518.5,-324 530.67,-277.09 544.52,-222.41 552.61,-190.36"/>
<polygon fill="#1414ce" stroke="#1414ce" points="556.07,-190.96 555.12,-180.4 549.28,-189.25 556.07,-190.96"/>
</a>
</g>
</g>
<!-- 22 -->
<g id="node10" class="node">
<title>22</title>
<g id="a_node10"><a xlink:title="TimerList">
<polygon fill="#ffffff" stroke="black" points="476.5,-180 390.5,-180 390.5,-144 476.5,-144 476.5,-180"/>
<text text-anchor="middle" x="433.5" y="-158.3" font-family="Times,serif" font-size="14.00">TimerList</text>
</a>
</g>
</g>
<!-- 7&#45;&gt;22 -->
<g id="edge19" class="edge">
<title>7&#45;&gt;22</title>
<g id="a_edge19"><a xlink:title="usage">
<path fill="none" stroke="#1414ce" d="M498.81,-359.85C486.48,-322.68 457.2,-234.44 442.4,-189.82"/>
<polygon fill="#1414ce" stroke="#1414ce" points="445.69,-188.62 439.22,-180.23 439.04,-190.83 445.69,-188.62"/>
</a>
</g>
</g>
<!-- 9 -->
<g id="node14" class="node">
<title>9</title>
<g id="a_node14"><a xlink:title="MessageQueueItem">
<polygon fill="#ffffff" stroke="black" points="919.5,-324 761.5,-324 761.5,-288 919.5,-288 919.5,-324"/>
<text text-anchor="middle" x="840.5" y="-302.3" font-family="Times,serif" font-size="14.00">MessageQueueItem</text>
</a>
</g>
</g>
<!-- 7&#45;&gt;9 -->
<g id="edge13" class="edge">
<title>7&#45;&gt;9</title>
<g id="a_edge13"><a xlink:title="usage">
<path fill="none" stroke="#1414ce" d="M564.18,-364.57C616.15,-353.74 692.22,-337.89 751.39,-325.56"/>
<polygon fill="#1414ce" stroke="#1414ce" points="752.41,-328.93 761.48,-323.46 750.98,-322.08 752.41,-328.93"/>
</a>
</g>
</g>
<!-- 21 -->
<g id="node15" class="node">
<title>21</title>
<g id="a_node15"><a xlink:title="AtomsHashTable">
<polygon fill="#ffffff" stroke="black" points="1390,-252 1253,-252 1253,-216 1390,-216 1390,-252"/>
<text text-anchor="middle" x="1321.5" y="-230.3" font-family="Times,serif" font-size="14.00">AtomsHashTable</text>
</a>
</g>
</g>
<!-- 7&#45;&gt;21 -->
<g id="edge18" class="edge">
<title>7&#45;&gt;21</title>
<g id="a_edge18"><a xlink:title="usage">
<path fill="none" stroke="#1414ce" d="M564.37,-376.56C694.92,-374.82 1001,-366.2 1094.5,-324 1115.7,-314.43 1112.26,-299.48 1132.5,-288 1151.68,-277.12 1199.77,-263.7 1242.64,-253.08"/>
<polygon fill="#1414ce" stroke="#1414ce" points="1243.67,-256.43 1252.55,-250.65 1242,-249.63 1243.67,-256.43"/>
</a>
</g>
</g>
<!-- 11 -->
<g id="node20" class="node">
<title>11</title>
<g id="a_node20"><a xlink:title="AtomTable">
<polygon fill="#ffffff" stroke="black" points="1085.5,-324 993.5,-324 993.5,-288 1085.5,-288 1085.5,-324"/>
<text text-anchor="middle" x="1039.5" y="-302.3" font-family="Times,serif" font-size="14.00">AtomTable</text>
</a>
</g>
</g>
<!-- 7&#45;&gt;11 -->
<g id="edge14" class="edge">
<title>7&#45;&gt;11</title>
<g id="a_edge14"><a xlink:title="usage">
<path fill="none" stroke="#1414ce" d="M564.35,-371C649.47,-362.21 810.29,-344.6 946.5,-324 958.42,-322.2 971.15,-320.03 983.25,-317.86"/>
<polygon fill="#1414ce" stroke="#1414ce" points="984.03,-321.27 993.24,-316.04 982.77,-314.39 984.03,-321.27"/>
</a>
</g>
</g>
<!-- 7&#45;&gt;5 -->
<g id="edge16" class="edge">
<title>7&#45;&gt;5</title>
<g id="a_edge16"><a xlink:title="usage">
<path fill="none" stroke="#1414ce" d="M503.9,-359.97C502.24,-312.29 497.51,-177.18 495.47,-118.63"/>
<polygon fill="#1414ce" stroke="#1414ce" points="498.95,-118.18 495.11,-108.31 491.96,-118.42 498.95,-118.18"/>
</a>
</g>
</g>
<!-- 8&#45;&gt;5 -->
<g id="edge22" class="edge">
<title>8&#45;&gt;5</title>
<g id="a_edge22"><a xlink:title="usage">
<path fill="none" stroke="#1414ce" d="M543.43,-143.7C535.56,-135.22 525.94,-124.86 517.33,-115.58"/>
<polygon fill="#1414ce" stroke="#1414ce" points="519.75,-113.05 510.38,-108.1 514.62,-117.81 519.75,-113.05"/>
</a>
</g>
</g>
<!-- 15 -->
<g id="node9" class="node">
<title>15</title>
<g id="a_node9"><a xlink:title="HNodeGroup">
<polygon fill="#ffffff" stroke="black" points="1216.5,-252 1106.5,-252 1106.5,-216 1216.5,-216 1216.5,-252"/>
<text text-anchor="middle" x="1161.5" y="-230.3" font-family="Times,serif" font-size="14.00">HNodeGroup</text>
</a>
</g>
</g>
<!-- 15&#45;&gt;15 -->
<g id="edge24" class="edge">
<title>15&#45;&gt;15</title>
<g id="a_edge24"><a xlink:title="usage">
<path fill="none" stroke="#1414ce" d="M1216.57,-246.85C1227.07,-245.32 1234.5,-241.03 1234.5,-234 1234.5,-229.5 1231.45,-226.12 1226.5,-223.87"/>
<polygon fill="#1414ce" stroke="#1414ce" points="1227.14,-220.42 1216.57,-221.15 1225.29,-227.17 1227.14,-220.42"/>
</a>
</g>
</g>
<!-- 12 -->
<g id="node23" class="node">
<title>12</title>
<g id="a_node23"><a xlink:title="HNode">
<polygon fill="#ffffff" stroke="black" points="1194.5,-180 1128.5,-180 1128.5,-144 1194.5,-144 1194.5,-180"/>
<text text-anchor="middle" x="1161.5" y="-158.3" font-family="Times,serif" font-size="14.00">HNode</text>
</a>
</g>
</g>
<!-- 15&#45;&gt;12 -->
<g id="edge23" class="edge">
<title>15&#45;&gt;12</title>
<g id="a_edge23"><a xlink:title="usage">
<path fill="none" stroke="#1414ce" d="M1161.5,-215.7C1161.5,-207.98 1161.5,-198.71 1161.5,-190.11"/>
<polygon fill="#1414ce" stroke="#1414ce" points="1165,-190.1 1161.5,-180.1 1158,-190.1 1165,-190.1"/>
</a>
</g>
</g>
<!-- 22&#45;&gt;6 -->
<g id="edge25" class="edge">
<title>22&#45;&gt;6</title>
<g id="a_edge25"><a xlink:title="usage">
<path fill="none" stroke="#1414ce" d="M424.94,-143.87C412.68,-119.35 390.02,-74.03 375.63,-45.26"/>
<polygon fill="#1414ce" stroke="#1414ce" points="378.7,-43.57 371.09,-36.19 372.44,-46.7 378.7,-43.57"/>
</a>
</g>
</g>
<!-- 10 -->
<g id="node12" class="node">
<title>10</title>
<g id="a_node12"><a xlink:title="MailboxMessage">
<polygon fill="#ffffff" stroke="black" points="1032,-252 895,-252 895,-216 1032,-216 1032,-252"/>
<text text-anchor="middle" x="963.5" y="-230.3" font-family="Times,serif" font-size="14.00">MailboxMessage</text>
</a>
</g>
</g>
<!-- 10&#45;&gt;10 -->
<g id="edge26" class="edge">
<title>10&#45;&gt;10</title>
<g id="a_edge26"><a xlink:title="usage">
<path fill="none" stroke="#1414ce" d="M1032.03,-246.37C1042.71,-244.52 1050,-240.4 1050,-234 1050,-229.8 1046.86,-226.58 1041.68,-224.34"/>
<polygon fill="#1414ce" stroke="#1414ce" points="1042.6,-220.96 1032.03,-221.63 1040.71,-227.7 1042.6,-220.96"/>
</a>
</g>
</g>
<!-- 13 -->
<g id="node13" class="node">
<title>13</title>
<g id="a_node13"><a xlink:title="Heap">
<polygon fill="#ffffff" stroke="black" points="1188.5,-108 1134.5,-108 1134.5,-72 1188.5,-72 1188.5,-108"/>
<text text-anchor="middle" x="1161.5" y="-86.3" font-family="Times,serif" font-size="14.00">Heap</text>
</a>
</g>
</g>
<!-- 13&#45;&gt;14 -->
<g id="edge27" class="edge">
<title>13&#45;&gt;14</title>
<g id="a_edge27"><a xlink:title="usage">
<path fill="none" stroke="#1414ce" d="M1161.5,-71.7C1161.5,-63.98 1161.5,-54.71 1161.5,-46.11"/>
<polygon fill="#1414ce" stroke="#1414ce" points="1165,-46.1 1161.5,-36.1 1158,-46.1 1165,-46.1"/>
</a>
</g>
</g>
<!-- 9&#45;&gt;10 -->
<g id="edge28" class="edge">
<title>9&#45;&gt;10</title>
<g id="a_edge28"><a xlink:title="usage">
<path fill="none" stroke="#1414ce" d="M870.59,-287.88C886.82,-278.64 907.04,-267.13 924.47,-257.21"/>
<polygon fill="#1414ce" stroke="#1414ce" points="926.34,-260.18 933.3,-252.19 922.87,-254.09 926.34,-260.18"/>
</a>
</g>
</g>
<!-- 9&#45;&gt;9 -->
<g id="edge29" class="edge">
<title>9&#45;&gt;9</title>
<g id="a_edge29"><a xlink:title="usage">
<path fill="none" stroke="#1414ce" d="M919.66,-317.98C930.37,-315.97 937.5,-311.98 937.5,-306 937.5,-302.08 934.43,-299.01 929.29,-296.8"/>
<polygon fill="#1414ce" stroke="#1414ce" points="930.24,-293.43 919.66,-294.02 928.3,-300.15 930.24,-293.43"/>
</a>
</g>
</g>
<!-- 21&#45;&gt;12 -->
<g id="edge30" class="edge">
<title>21&#45;&gt;12</title>
<g id="a_edge30"><a xlink:title="usage">
<path fill="none" stroke="#1414ce" d="M1282.36,-215.88C1258.59,-205.48 1228.25,-192.2 1203.91,-181.55"/>
<polygon fill="#1414ce" stroke="#1414ce" points="1205.13,-178.27 1194.57,-177.47 1202.33,-184.68 1205.13,-178.27"/>
</a>
</g>
</g>
<!-- 17&#45;&gt;4 -->
<g id="edge31" class="edge">
<title>17&#45;&gt;4</title>
<g id="a_edge31"><a xlink:title="usage">
<path fill="none" stroke="#1414ce" d="M275.5,-215.7C275.5,-207.98 275.5,-198.71 275.5,-190.11"/>
<polygon fill="#1414ce" stroke="#1414ce" points="279,-190.1 275.5,-180.1 272,-190.1 279,-190.1"/>
</a>
</g>
</g>
<!-- 17&#45;&gt;6 -->
<g id="edge32" class="edge">
<title>17&#45;&gt;6</title>
<g id="a_edge32"><a xlink:title="usage">
<path fill="none" stroke="#1414ce" d="M242.14,-215.86C228.79,-207.09 214.86,-195.06 207.5,-180 200.48,-165.62 200.6,-158.43 207.5,-144 230.05,-96.85 280.02,-61.79 317.17,-40.99"/>
<polygon fill="#1414ce" stroke="#1414ce" points="319.2,-43.87 326.31,-36.01 315.85,-37.72 319.2,-43.87"/>
</a>
</g>
</g>
<!-- 3 -->
<g id="node17" class="node">
<title>3</title>
<g id="a_node17"><a xlink:title="ErlNifMonitor">
<polygon fill="#ffffff" stroke="black" points="210,-252 93,-252 93,-216 210,-216 210,-252"/>
<text text-anchor="middle" x="151.5" y="-230.3" font-family="Times,serif" font-size="14.00">ErlNifMonitor</text>
</a>
</g>
</g>
<!-- 3&#45;&gt;4 -->
<g id="edge33" class="edge">
<title>3&#45;&gt;4</title>
<g id="a_edge33"><a xlink:title="usage">
<path fill="none" stroke="#1414ce" d="M181.83,-215.88C198.2,-206.64 218.58,-195.13 236.15,-185.21"/>
<polygon fill="#1414ce" stroke="#1414ce" points="238.06,-188.15 245.05,-180.19 234.62,-182.06 238.06,-188.15"/>
</a>
</g>
</g>
<!-- 1 -->
<g id="node18" class="node">
<title>1</title>
<g id="a_node18"><a xlink:title="LWIPEvent">
<polygon fill="#bfbfbf" stroke="black" points="334.5,-468 238.5,-468 238.5,-432 334.5,-432 334.5,-468"/>
<text text-anchor="middle" x="286.5" y="-446.3" font-family="Times,serif" font-size="14.00">LWIPEvent</text>
</a>
</g>
</g>
<!-- 1&#45;&gt;7 -->
<g id="edge35" class="edge">
<title>1&#45;&gt;7</title>
<g id="a_edge35"><a xlink:title="usage">
<path fill="none" stroke="#1414ce" d="M334.61,-433.55C366.11,-423.44 407.59,-410.12 441.69,-399.17"/>
<polygon fill="#1414ce" stroke="#1414ce" points="443.1,-402.39 451.55,-396 440.96,-395.73 443.1,-402.39"/>
</a>
</g>
</g>
<!-- 2 -->
<g id="node19" class="node">
<title>2</title>
<g id="a_node19"><a xlink:title="SocketResource">
<polygon fill="#ffffff" stroke="black" points="131,-324 0,-324 0,-288 131,-288 131,-324"/>
<text text-anchor="middle" x="65.5" y="-302.3" font-family="Times,serif" font-size="14.00">SocketResource</text>
</a>
</g>
</g>
<!-- 1&#45;&gt;2 -->
<g id="edge34" class="edge">
<title>1&#45;&gt;2</title>
<g id="a_edge34"><a xlink:title="usage">
<path fill="none" stroke="#1414ce" d="M259.84,-431.87C220.02,-406.28 144.95,-358.05 100.68,-329.6"/>
<polygon fill="#1414ce" stroke="#1414ce" points="102.56,-326.65 92.25,-324.19 98.77,-332.54 102.56,-326.65"/>
</a>
</g>
</g>
<!-- 2&#45;&gt;6 -->
<g id="edge37" class="edge">
<title>2&#45;&gt;6</title>
<g id="a_edge37"><a xlink:title="usage">
<path fill="none" stroke="#1414ce" d="M66.01,-287.93C67.22,-269.24 71.12,-238.88 83.5,-216 126.87,-135.84 153.21,-121.86 229.5,-72 254.87,-55.42 286.24,-42.61 312.14,-33.74"/>
<polygon fill="#1414ce" stroke="#1414ce" points="313.4,-37.01 321.78,-30.54 311.19,-30.37 313.4,-37.01"/>
</a>
</g>
</g>
<!-- 2&#45;&gt;3 -->
<g id="edge36" class="edge">
<title>2&#45;&gt;3</title>
<g id="a_edge36"><a xlink:title="usage">
<path fill="none" stroke="#1414ce" d="M86.76,-287.7C97.59,-278.88 110.92,-268.03 122.66,-258.47"/>
<polygon fill="#1414ce" stroke="#1414ce" points="124.94,-261.13 130.49,-252.1 120.52,-255.7 124.94,-261.13"/>
</a>
</g>
</g>
<!-- 11&#45;&gt;15 -->
<g id="edge39" class="edge">
<title>11&#45;&gt;15</title>
<g id="a_edge39"><a xlink:title="usage">
<path fill="none" stroke="#1414ce" d="M1069.34,-287.88C1085.44,-278.64 1105.5,-267.13 1122.79,-257.21"/>
<polygon fill="#1414ce" stroke="#1414ce" points="1124.61,-260.2 1131.54,-252.19 1121.13,-254.13 1124.61,-260.2"/>
</a>
</g>
</g>
<!-- 11&#45;&gt;12 -->
<g id="edge38" class="edge">
<title>11&#45;&gt;12</title>
<g id="a_edge38"><a xlink:title="usage">
<path fill="none" stroke="#1414ce" d="M1048.6,-287.87C1059,-269.12 1077.24,-238.71 1097.5,-216 1106.99,-205.36 1118.69,-195.04 1129.48,-186.37"/>
<polygon fill="#1414ce" stroke="#1414ce" points="1131.78,-189.01 1137.5,-180.09 1127.47,-183.5 1131.78,-189.01"/>
</a>
</g>
</g>
<!-- 5&#45;&gt;6 -->
<g id="edge40" class="edge">
<title>5&#45;&gt;6</title>
<g id="a_edge40"><a xlink:title="usage">
<path fill="none" stroke="#1414ce" d="M462.21,-71.88C444.63,-62.55 422.69,-50.92 403.87,-40.94"/>
<polygon fill="#1414ce" stroke="#1414ce" points="405.39,-37.78 394.91,-36.19 402.11,-43.97 405.39,-37.78"/>
</a>
</g>
</g>
<!-- 12&#45;&gt;13 -->
<g id="edge42" class="edge">
<title>12&#45;&gt;13</title>
<g id="a_edge42"><a xlink:title="usage">
<path fill="none" stroke="#1414ce" d="M1161.5,-143.7C1161.5,-135.98 1161.5,-126.71 1161.5,-118.11"/>
<polygon fill="#1414ce" stroke="#1414ce" points="1165,-118.1 1161.5,-108.1 1158,-118.1 1165,-118.1"/>
</a>
</g>
</g>
<!-- 12&#45;&gt;12 -->
<g id="edge41" class="edge">
<title>12&#45;&gt;12</title>
<g id="a_edge41"><a xlink:title="usage">
<path fill="none" stroke="#1414ce" d="M1194.85,-175.47C1204.78,-175.07 1212.5,-170.58 1212.5,-162 1212.5,-156.64 1209.48,-152.87 1204.8,-150.71"/>
<polygon fill="#1414ce" stroke="#1414ce" points="1205.37,-147.25 1194.85,-148.53 1203.87,-154.09 1205.37,-147.25"/>
</a>
</g>
</g>
</g>
</svg>
