<?xml version="1.0" encoding="UTF-8" standalone="no"?>
<!DOCTYPE svg PUBLIC "-//W3C//DTD SVG 1.1//EN"
 "http://www.w3.org/Graphics/SVG/1.1/DTD/svg11.dtd">
<!-- Generated by graphviz version 2.43.0 (0)
 -->
<!-- Title: %3 Pages: 1 -->
<svg width="1376pt" height="404pt"
 viewBox="0.00 0.00 1376.00 404.00" xmlns="http://www.w3.org/2000/svg" xmlns:xlink="http://www.w3.org/1999/xlink">
<g id="graph0" class="graph" transform="scale(1 1) rotate(0) translate(4 400)">
<title>%3</title>
<polygon fill="transparent" stroke="transparent" points="-4,4 -4,-400 1372,-400 1372,4 -4,4"/>
<!-- 21 -->
<g id="node1" class="node">
<title>21</title>
<g id="a_node1"><a xlink:title="SpinLock">
<polygon fill="#ffffff" stroke="black" points="292,-324 210,-324 210,-288 292,-288 292,-324"/>
<text text-anchor="middle" x="251" y="-302.3" font-family="Times,serif" font-size="14.00">SpinLock</text>
</a>
</g>
</g>
<!-- 2 -->
<g id="node2" class="node">
<title>2</title>
<g id="a_node2"><a xlink:title="ResourceType">
<polygon fill="#ffffff" stroke="black" points="357.5,-180 240.5,-180 240.5,-144 357.5,-144 357.5,-180"/>
<text text-anchor="middle" x="299" y="-158.3" font-family="Times,serif" font-size="14.00">ResourceType</text>
</a>
</g>
</g>
<!-- 4 -->
<g id="node4" class="node">
<title>4</title>
<g id="a_node4"><a xlink:title="ListHead">
<polygon fill="#ffffff" stroke="black" points="512.5,-36 431.5,-36 431.5,0 512.5,0 512.5,-36"/>
<text text-anchor="middle" x="472" y="-14.3" font-family="Times,serif" font-size="14.00">ListHead</text>
</a>
</g>
</g>
<!-- 2&#45;&gt;4 -->
<g id="edge3" class="edge">
<title>2&#45;&gt;4</title>
<g id="a_edge3"><a xlink:title="usage">
<path fill="none" stroke="#1414ce" d="M319.87,-143.87C350.65,-118.6 408.34,-71.25 443.15,-42.68"/>
<polygon fill="#1414ce" stroke="#1414ce" points="445.55,-45.24 451.06,-36.19 441.11,-39.83 445.55,-45.24"/>
</a>
</g>
</g>
<!-- 5 -->
<g id="node7" class="node">
<title>5</title>
<g id="a_node7"><a xlink:title="GlobalContext">
<polygon fill="#ffffff" stroke="black" points="835.5,-396 716.5,-396 716.5,-360 835.5,-360 835.5,-396"/>
<text text-anchor="middle" x="776" y="-374.3" font-family="Times,serif" font-size="14.00">GlobalContext</text>
</a>
</g>
</g>
<!-- 2&#45;&gt;5 -->
<g id="edge2" class="edge">
<title>2&#45;&gt;5</title>
<g id="a_edge2"><a xlink:title="usage">
<path fill="none" stroke="#1414ce" d="M293.75,-180.2C284.62,-199.57 270.73,-231.07 287,-252 338.55,-318.31 584.07,-354.73 706.46,-369.33"/>
<polygon fill="#1414ce" stroke="#1414ce" points="706.14,-372.82 716.48,-370.51 706.96,-365.87 706.14,-372.82"/>
</a>
</g>
</g>
<!-- 3 -->
<g id="node20" class="node">
<title>3</title>
<g id="a_node20"><a xlink:title="SyncList">
<polygon fill="#ffffff" stroke="black" points="664,-108 586,-108 586,-72 664,-72 664,-108"/>
<text text-anchor="middle" x="625" y="-86.3" font-family="Times,serif" font-size="14.00">SyncList</text>
</a>
</g>
</g>
<!-- 2&#45;&gt;3 -->
<g id="edge1" class="edge">
<title>2&#45;&gt;3</title>
<g id="a_edge1"><a xlink:title="usage">
<path fill="none" stroke="#1414ce" d="M357.66,-148.4C419.91,-135.04 517.2,-114.15 575.66,-101.59"/>
<polygon fill="#1414ce" stroke="#1414ce" points="576.71,-104.95 585.75,-99.43 575.24,-98.1 576.71,-104.95"/>
</a>
</g>
</g>
<!-- 16 -->
<g id="node3" class="node">
<title>16</title>
<g id="a_node3"><a xlink:title="Module">
<polygon fill="#ffffff" stroke="black" points="640,-324 570,-324 570,-288 640,-288 640,-324"/>
<text text-anchor="middle" x="605" y="-302.3" font-family="Times,serif" font-size="14.00">Module</text>
</a>
</g>
</g>
<!-- 16&#45;&gt;4 -->
<g id="edge6" class="edge">
<title>16&#45;&gt;4</title>
<g id="a_edge6"><a xlink:title="usage">
<path fill="none" stroke="#1414ce" d="M569.95,-303.91C533.67,-300.68 478.66,-289.44 452,-252 407.47,-189.45 439.65,-92.15 459.5,-45.59"/>
<polygon fill="#1414ce" stroke="#1414ce" points="462.81,-46.75 463.64,-36.19 456.41,-43.93 462.81,-46.75"/>
</a>
</g>
</g>
<!-- 18 -->
<g id="node11" class="node">
<title>18</title>
<g id="a_node11"><a xlink:title="LiteralEntry">
<polygon fill="#ffffff" stroke="black" points="729,-252 625,-252 625,-216 729,-216 729,-252"/>
<text text-anchor="middle" x="677" y="-230.3" font-family="Times,serif" font-size="14.00">LiteralEntry</text>
</a>
</g>
</g>
<!-- 16&#45;&gt;18 -->
<g id="edge5" class="edge">
<title>16&#45;&gt;18</title>
<g id="a_edge5"><a xlink:title="usage">
<path fill="none" stroke="#1414ce" d="M622.8,-287.7C631.6,-279.14 642.38,-268.66 652,-259.3"/>
<polygon fill="#1414ce" stroke="#1414ce" points="654.68,-261.58 659.41,-252.1 649.8,-256.57 654.68,-261.58"/>
</a>
</g>
</g>
<!-- 17 -->
<g id="node19" class="node">
<title>17</title>
<g id="a_node19"><a xlink:title="ExportedFunction">
<polygon fill="#ffffff" stroke="black" points="607,-252 461,-252 461,-216 607,-216 607,-252"/>
<text text-anchor="middle" x="534" y="-230.3" font-family="Times,serif" font-size="14.00">ExportedFunction</text>
</a>
</g>
</g>
<!-- 16&#45;&gt;17 -->
<g id="edge4" class="edge">
<title>16&#45;&gt;17</title>
<g id="a_edge4"><a xlink:title="usage">
<path fill="none" stroke="#1414ce" d="M587.45,-287.7C578.77,-279.14 568.14,-268.66 558.65,-259.3"/>
<polygon fill="#1414ce" stroke="#1414ce" points="560.93,-256.63 551.35,-252.1 556.01,-261.62 560.93,-256.63"/>
</a>
</g>
</g>
<!-- 4&#45;&gt;4 -->
<g id="edge7" class="edge">
<title>4&#45;&gt;4</title>
<g id="a_edge7"><a xlink:title="usage">
<path fill="none" stroke="#1414ce" d="M512.73,-31.31C522.9,-30.38 530.5,-25.95 530.5,-18 530.5,-12.91 527.38,-9.26 522.47,-7.05"/>
<polygon fill="#1414ce" stroke="#1414ce" points="523.28,-3.64 512.73,-4.69 521.63,-10.45 523.28,-3.64"/>
</a>
</g>
</g>
<!-- 12 -->
<g id="node5" class="node">
<title>12</title>
<g id="a_node5"><a xlink:title="HeapFragment">
<polygon fill="#ffffff" stroke="black" points="1274.5,-36 1149.5,-36 1149.5,0 1274.5,0 1274.5,-36"/>
<text text-anchor="middle" x="1212" y="-14.3" font-family="Times,serif" font-size="14.00">HeapFragment</text>
</a>
</g>
</g>
<!-- 12&#45;&gt;12 -->
<g id="edge8" class="edge">
<title>12&#45;&gt;12</title>
<g id="a_edge8"><a xlink:title="usage">
<path fill="none" stroke="#1414ce" d="M1274.78,-30.55C1285.26,-28.79 1292.5,-24.61 1292.5,-18 1292.5,-13.77 1289.53,-10.53 1284.64,-8.29"/>
<polygon fill="#1414ce" stroke="#1414ce" points="1285.36,-4.85 1274.78,-5.45 1283.42,-11.58 1285.36,-4.85"/>
</a>
</g>
</g>
<!-- 14 -->
<g id="node6" class="node">
<title>14</title>
<g id="a_node6"><a xlink:title="RefcBinaryQueueItem">
<polygon fill="#ffffff" stroke="black" points="174,-324 0,-324 0,-288 174,-288 174,-324"/>
<text text-anchor="middle" x="87" y="-302.3" font-family="Times,serif" font-size="14.00">RefcBinaryQueueItem</text>
</a>
</g>
</g>
<!-- 14&#45;&gt;14 -->
<g id="edge10" class="edge">
<title>14&#45;&gt;14</title>
<g id="a_edge10"><a xlink:title="usage">
<path fill="none" stroke="#1414ce" d="M174.3,-317.68C184.99,-315.59 192,-311.7 192,-306 192,-302.35 189.12,-299.44 184.25,-297.27"/>
<polygon fill="#1414ce" stroke="#1414ce" points="184.88,-293.81 174.3,-294.32 182.89,-300.52 184.88,-293.81"/>
</a>
</g>
</g>
<!-- 15 -->
<g id="node16" class="node">
<title>15</title>
<g id="a_node16"><a xlink:title="RefcBinary">
<polygon fill="#ffffff" stroke="black" points="212.5,-252 117.5,-252 117.5,-216 212.5,-216 212.5,-252"/>
<text text-anchor="middle" x="165" y="-230.3" font-family="Times,serif" font-size="14.00">RefcBinary</text>
</a>
</g>
</g>
<!-- 14&#45;&gt;15 -->
<g id="edge9" class="edge">
<title>14&#45;&gt;15</title>
<g id="a_edge9"><a xlink:title="usage">
<path fill="none" stroke="#1414ce" d="M106.28,-287.7C115.92,-279.05 127.73,-268.45 138.23,-259.03"/>
<polygon fill="#1414ce" stroke="#1414ce" points="140.84,-261.39 145.94,-252.1 136.16,-256.18 140.84,-261.39"/>
</a>
</g>
</g>
<!-- 5&#45;&gt;21 -->
<g id="edge20" class="edge">
<title>5&#45;&gt;21</title>
<g id="a_edge20"><a xlink:title="usage">
<path fill="none" stroke="#1414ce" d="M716.45,-373.87C626.68,-368.35 451.68,-354.45 306,-324 304.73,-323.74 303.46,-323.45 302.17,-323.16"/>
<polygon fill="#1414ce" stroke="#1414ce" points="302.78,-319.7 292.23,-320.65 301.07,-326.49 302.78,-319.7"/>
</a>
</g>
</g>
<!-- 5&#45;&gt;2 -->
<g id="edge11" class="edge">
<title>5&#45;&gt;2</title>
<g id="a_edge11"><a xlink:title="usage">
<path fill="none" stroke="#1414ce" d="M716.25,-371.58C594.17,-358.71 323.44,-322.02 269,-252 254.95,-233.93 263.39,-207.99 275.04,-188.77"/>
<polygon fill="#1414ce" stroke="#1414ce" points="278.12,-190.47 280.75,-180.2 272.29,-186.59 278.12,-190.47"/>
</a>
</g>
</g>
<!-- 5&#45;&gt;16 -->
<g id="edge17" class="edge">
<title>5&#45;&gt;16</title>
<g id="a_edge17"><a xlink:title="usage">
<path fill="none" stroke="#1414ce" d="M734.17,-359.88C708.45,-349.35 675.54,-335.88 649.37,-325.16"/>
<polygon fill="#1414ce" stroke="#1414ce" points="650.64,-321.9 640.06,-321.35 647.99,-328.38 650.64,-321.9"/>
</a>
</g>
</g>
<!-- 5&#45;&gt;4 -->
<g id="edge21" class="edge">
<title>5&#45;&gt;4</title>
<g id="a_edge21"><a xlink:title="usage">
<path fill="none" stroke="#1414ce" d="M835.59,-372.85C905.87,-366.71 1016.84,-352.68 1046,-324 1074.84,-295.64 1065,-275.45 1065,-235 1065,-235 1065,-235 1065,-161 1065,-49.98 666.91,-25.56 523.07,-20.36"/>
<polygon fill="#1414ce" stroke="#1414ce" points="522.87,-16.85 512.76,-20 522.63,-23.85 522.87,-16.85"/>
</a>
</g>
</g>
<!-- 5&#45;&gt;14 -->
<g id="edge15" class="edge">
<title>5&#45;&gt;14</title>
<g id="a_edge15"><a xlink:title="usage">
<path fill="none" stroke="#1414ce" d="M716.28,-372.61C611.69,-364.66 388.61,-346.62 201,-324 195.54,-323.34 189.93,-322.63 184.28,-321.88"/>
<polygon fill="#1414ce" stroke="#1414ce" points="184.45,-318.37 174.07,-320.5 183.51,-325.31 184.45,-318.37"/>
</a>
</g>
</g>
<!-- 6 -->
<g id="node8" class="node">
<title>6</title>
<g id="a_node8"><a xlink:title="Ets">
<polygon fill="#ffffff" stroke="black" points="690,-180 636,-180 636,-144 690,-144 690,-180"/>
<text text-anchor="middle" x="663" y="-158.3" font-family="Times,serif" font-size="14.00">Ets</text>
</a>
</g>
</g>
<!-- 5&#45;&gt;6 -->
<g id="edge12" class="edge">
<title>5&#45;&gt;6</title>
<g id="a_edge12"><a xlink:title="usage">
<path fill="none" stroke="#1414ce" d="M775.83,-359.93C774.74,-328.71 768.69,-261.47 738,-216 728.18,-201.44 712.92,-189.6 698.73,-180.83"/>
<polygon fill="#1414ce" stroke="#1414ce" points="700.49,-177.81 690.09,-175.78 696.95,-183.85 700.49,-177.81"/>
</a>
</g>
</g>
<!-- 20 -->
<g id="node10" class="node">
<title>20</title>
<g id="a_node10"><a xlink:title="TimerList">
<polygon fill="#ffffff" stroke="black" points="909,-180 823,-180 823,-144 909,-144 909,-180"/>
<text text-anchor="middle" x="866" y="-158.3" font-family="Times,serif" font-size="14.00">TimerList</text>
</a>
</g>
</g>
<!-- 5&#45;&gt;20 -->
<g id="edge19" class="edge">
<title>5&#45;&gt;20</title>
<g id="a_edge19"><a xlink:title="usage">
<path fill="none" stroke="#1414ce" d="M787.99,-359.88C794.73,-349.75 802.98,-336.5 809,-324 830.82,-278.68 848.75,-222.72 858.36,-190.13"/>
<polygon fill="#1414ce" stroke="#1414ce" points="861.76,-190.99 861.19,-180.41 855.04,-189.04 861.76,-190.99"/>
</a>
</g>
</g>
<!-- 7 -->
<g id="node14" class="node">
<title>7</title>
<g id="a_node14"><a xlink:title="MessageQueueItem">
<polygon fill="#ffffff" stroke="black" points="1019,-324 861,-324 861,-288 1019,-288 1019,-324"/>
<text text-anchor="middle" x="940" y="-302.3" font-family="Times,serif" font-size="14.00">MessageQueueItem</text>
</a>
</g>
</g>
<!-- 5&#45;&gt;7 -->
<g id="edge13" class="edge">
<title>5&#45;&gt;7</title>
<g id="a_edge13"><a xlink:title="usage">
<path fill="none" stroke="#1414ce" d="M816.12,-359.88C838.64,-350.26 866.92,-338.19 890.77,-328.01"/>
<polygon fill="#1414ce" stroke="#1414ce" points="892.19,-331.21 900.01,-324.07 889.44,-324.77 892.19,-331.21"/>
</a>
</g>
</g>
<!-- 19 -->
<g id="node15" class="node">
<title>19</title>
<g id="a_node15"><a xlink:title="AtomsHashTable">
<polygon fill="#ffffff" stroke="black" points="1230.5,-324 1093.5,-324 1093.5,-288 1230.5,-288 1230.5,-324"/>
<text text-anchor="middle" x="1162" y="-302.3" font-family="Times,serif" font-size="14.00">AtomsHashTable</text>
</a>
</g>
</g>
<!-- 5&#45;&gt;19 -->
<g id="edge18" class="edge">
<title>5&#45;&gt;19</title>
<g id="a_edge18"><a xlink:title="usage">
<path fill="none" stroke="#1414ce" d="M835.6,-367.1C896.77,-356.81 994.66,-340.01 1079,-324 1080.3,-323.75 1081.61,-323.5 1082.93,-323.25"/>
<polygon fill="#1414ce" stroke="#1414ce" points="1084.04,-326.6 1093.19,-321.25 1082.7,-319.73 1084.04,-326.6"/>
</a>
</g>
</g>
<!-- 9 -->
<g id="node18" class="node">
<title>9</title>
<g id="a_node18"><a xlink:title="AtomTable">
<polygon fill="#ffffff" stroke="black" points="1341,-324 1249,-324 1249,-288 1341,-288 1341,-324"/>
<text text-anchor="middle" x="1295" y="-302.3" font-family="Times,serif" font-size="14.00">AtomTable</text>
</a>
</g>
</g>
<!-- 5&#45;&gt;9 -->
<g id="edge14" class="edge">
<title>5&#45;&gt;9</title>
<g id="a_edge14"><a xlink:title="usage">
<path fill="none" stroke="#1414ce" d="M835.75,-373.62C922.57,-367.95 1088.67,-354.24 1238.85,-323.78"/>
<polygon fill="#1414ce" stroke="#1414ce" points="1239.63,-327.2 1248.72,-321.75 1238.22,-320.34 1239.63,-327.2"/>
</a>
</g>
</g>
<!-- 5&#45;&gt;3 -->
<g id="edge16" class="edge">
<title>5&#45;&gt;3</title>
<g id="a_edge16"><a xlink:title="usage">
<path fill="none" stroke="#1414ce" d="M778.03,-359.84C779.15,-349.48 780.44,-336 781,-324 783.3,-275.24 784.01,-259.05 761,-216 737.71,-172.44 693.22,-136.05 661.47,-113.97"/>
<polygon fill="#1414ce" stroke="#1414ce" points="663.11,-110.85 652.88,-108.13 659.18,-116.64 663.11,-110.85"/>
</a>
</g>
</g>
<!-- 6&#45;&gt;3 -->
<g id="edge22" class="edge">
<title>6&#45;&gt;3</title>
<g id="a_edge22"><a xlink:title="usage">
<path fill="none" stroke="#1414ce" d="M653.61,-143.7C649.24,-135.64 643.94,-125.89 639.1,-116.98"/>
<polygon fill="#1414ce" stroke="#1414ce" points="642.13,-115.22 634.29,-108.1 635.98,-118.56 642.13,-115.22"/>
</a>
</g>
</g>
<!-- 13 -->
<g id="node9" class="node">
<title>13</title>
<g id="a_node9"><a xlink:title="HNodeGroup">
<polygon fill="#ffffff" stroke="black" points="1350,-252 1240,-252 1240,-216 1350,-216 1350,-252"/>
<text text-anchor="middle" x="1295" y="-230.3" font-family="Times,serif" font-size="14.00">HNodeGroup</text>
</a>
</g>
</g>
<!-- 13&#45;&gt;13 -->
<g id="edge24" class="edge">
<title>13&#45;&gt;13</title>
<g id="a_edge24"><a xlink:title="usage">
<path fill="none" stroke="#1414ce" d="M1350.07,-246.85C1360.57,-245.32 1368,-241.03 1368,-234 1368,-229.5 1364.95,-226.12 1360,-223.87"/>
<polygon fill="#1414ce" stroke="#1414ce" points="1360.64,-220.42 1350.07,-221.15 1358.79,-227.17 1360.64,-220.42"/>
</a>
</g>
</g>
<!-- 10 -->
<g id="node21" class="node">
<title>10</title>
<g id="a_node21"><a xlink:title="HNode">
<polygon fill="#ffffff" stroke="black" points="1245,-180 1179,-180 1179,-144 1245,-144 1245,-180"/>
<text text-anchor="middle" x="1212" y="-158.3" font-family="Times,serif" font-size="14.00">HNode</text>
</a>
</g>
</g>
<!-- 13&#45;&gt;10 -->
<g id="edge23" class="edge">
<title>13&#45;&gt;10</title>
<g id="a_edge23"><a xlink:title="usage">
<path fill="none" stroke="#1414ce" d="M1274.48,-215.7C1264.13,-206.97 1251.41,-196.24 1240.16,-186.75"/>
<polygon fill="#1414ce" stroke="#1414ce" points="1242.18,-183.88 1232.28,-180.1 1237.67,-189.23 1242.18,-183.88"/>
</a>
</g>
</g>
<!-- 20&#45;&gt;4 -->
<g id="edge25" class="edge">
<title>20&#45;&gt;4</title>
<g id="a_edge25"><a xlink:title="usage">
<path fill="none" stroke="#1414ce" d="M833.6,-143.94C795.84,-124.55 731.16,-92.9 673,-72 622.8,-53.96 563.56,-39.08 522.46,-29.73"/>
<polygon fill="#1414ce" stroke="#1414ce" points="523.2,-26.31 512.67,-27.53 521.66,-33.14 523.2,-26.31"/>
</a>
</g>
</g>
<!-- 8 -->
<g id="node12" class="node">
<title>8</title>
<g id="a_node12"><a xlink:title="MailboxMessage">
<polygon fill="#ffffff" stroke="black" points="1008.5,-252 871.5,-252 871.5,-216 1008.5,-216 1008.5,-252"/>
<text text-anchor="middle" x="940" y="-230.3" font-family="Times,serif" font-size="14.00">MailboxMessage</text>
</a>
</g>
</g>
<!-- 8&#45;&gt;8 -->
<g id="edge26" class="edge">
<title>8&#45;&gt;8</title>
<g id="a_edge26"><a xlink:title="usage">
<path fill="none" stroke="#1414ce" d="M1008.53,-246.37C1019.21,-244.52 1026.5,-240.4 1026.5,-234 1026.5,-229.8 1023.36,-226.58 1018.18,-224.34"/>
<polygon fill="#1414ce" stroke="#1414ce" points="1019.1,-220.96 1008.53,-221.63 1017.21,-227.7 1019.1,-220.96"/>
</a>
</g>
</g>
<!-- 11 -->
<g id="node13" class="node">
<title>11</title>
<g id="a_node13"><a xlink:title="Heap">
<polygon fill="#ffffff" stroke="black" points="1239,-108 1185,-108 1185,-72 1239,-72 1239,-108"/>
<text text-anchor="middle" x="1212" y="-86.3" font-family="Times,serif" font-size="14.00">Heap</text>
</a>
</g>
</g>
<!-- 11&#45;&gt;12 -->
<g id="edge27" class="edge">
<title>11&#45;&gt;12</title>
<g id="a_edge27"><a xlink:title="usage">
<path fill="none" stroke="#1414ce" d="M1212,-71.7C1212,-63.98 1212,-54.71 1212,-46.11"/>
<polygon fill="#1414ce" stroke="#1414ce" points="1215.5,-46.1 1212,-36.1 1208.5,-46.1 1215.5,-46.1"/>
</a>
</g>
</g>
<!-- 7&#45;&gt;8 -->
<g id="edge28" class="edge">
<title>7&#45;&gt;8</title>
<g id="a_edge28"><a xlink:title="usage">
<path fill="none" stroke="#1414ce" d="M940,-287.7C940,-279.98 940,-270.71 940,-262.11"/>
<polygon fill="#1414ce" stroke="#1414ce" points="943.5,-262.1 940,-252.1 936.5,-262.1 943.5,-262.1"/>
</a>
</g>
</g>
<!-- 7&#45;&gt;7 -->
<g id="edge29" class="edge">
<title>7&#45;&gt;7</title>
<g id="a_edge29"><a xlink:title="usage">
<path fill="none" stroke="#1414ce" d="M1019.16,-317.98C1029.87,-315.97 1037,-311.98 1037,-306 1037,-302.08 1033.93,-299.01 1028.79,-296.8"/>
<polygon fill="#1414ce" stroke="#1414ce" points="1029.74,-293.43 1019.16,-294.02 1027.8,-300.15 1029.74,-293.43"/>
</a>
</g>
</g>
<!-- 19&#45;&gt;10 -->
<g id="edge30" class="edge">
<title>19&#45;&gt;10</title>
<g id="a_edge30"><a xlink:title="usage">
<path fill="none" stroke="#1414ce" d="M1168.03,-287.87C1176.63,-263.46 1192.48,-218.43 1202.62,-189.64"/>
<polygon fill="#1414ce" stroke="#1414ce" points="1205.93,-190.78 1205.95,-180.19 1199.32,-188.46 1205.93,-190.78"/>
</a>
</g>
</g>
<!-- 15&#45;&gt;2 -->
<g id="edge31" class="edge">
<title>15&#45;&gt;2</title>
<g id="a_edge31"><a xlink:title="usage">
<path fill="none" stroke="#1414ce" d="M197.78,-215.88C215.63,-206.55 237.9,-194.92 257,-184.94"/>
<polygon fill="#1414ce" stroke="#1414ce" points="258.85,-187.92 266.09,-180.19 255.61,-181.72 258.85,-187.92"/>
</a>
</g>
</g>
<!-- 15&#45;&gt;4 -->
<g id="edge32" class="edge">
<title>15&#45;&gt;4</title>
<g id="a_edge32"><a xlink:title="usage">
<path fill="none" stroke="#1414ce" d="M174.62,-215.88C186.11,-196.59 206.83,-165.16 231,-144 288.46,-93.68 369.75,-56.98 421.67,-36.82"/>
<polygon fill="#1414ce" stroke="#1414ce" points="423.24,-39.96 431.33,-33.12 420.74,-33.42 423.24,-39.96"/>
</a>
</g>
</g>
<!-- 1 -->
<g id="node17" class="node">
<title>1</title>
<g id="a_node17"><a xlink:title="ErlNifMonitor">
<polygon fill="#bfbfbf" stroke="black" points="404.5,-252 287.5,-252 287.5,-216 404.5,-216 404.5,-252"/>
<text text-anchor="middle" x="346" y="-230.3" font-family="Times,serif" font-size="14.00">ErlNifMonitor</text>
</a>
</g>
</g>
<!-- 1&#45;&gt;2 -->
<g id="edge33" class="edge">
<title>1&#45;&gt;2</title>
<g id="a_edge33"><a xlink:title="usage">
<path fill="none" stroke="#1414ce" d="M334.38,-215.7C328.86,-207.47 322.15,-197.48 316.07,-188.42"/>
<polygon fill="#1414ce" stroke="#1414ce" points="318.96,-186.46 310.48,-180.1 313.15,-190.36 318.96,-186.46"/>
</a>
</g>
</g>
<!-- 9&#45;&gt;13 -->
<g id="edge35" class="edge">
<title>9&#45;&gt;13</title>
<g id="a_edge35"><a xlink:title="usage">
<path fill="none" stroke="#1414ce" d="M1295,-287.7C1295,-279.98 1295,-270.71 1295,-262.11"/>
<polygon fill="#1414ce" stroke="#1414ce" points="1298.5,-262.1 1295,-252.1 1291.5,-262.1 1298.5,-262.1"/>
</a>
</g>
</g>
<!-- 9&#45;&gt;10 -->
<g id="edge34" class="edge">
<title>9&#45;&gt;10</title>
<g id="a_edge34"><a xlink:title="usage">
<path fill="none" stroke="#1414ce" d="M1266.62,-287.86C1253.87,-278.75 1239.75,-266.44 1231,-252 1219.71,-233.36 1215.07,-208.97 1213.19,-190.44"/>
<polygon fill="#1414ce" stroke="#1414ce" points="1216.66,-189.98 1212.37,-180.29 1209.69,-190.54 1216.66,-189.98"/>
</a>
</g>
</g>
<!-- 3&#45;&gt;4 -->
<g id="edge36" class="edge">
<title>3&#45;&gt;4</title>
<g id="a_edge36"><a xlink:title="usage">
<path fill="none" stroke="#1414ce" d="M587.57,-71.88C566.75,-62.35 540.65,-50.41 518.52,-40.28"/>
<polygon fill="#1414ce" stroke="#1414ce" points="519.86,-37.05 509.31,-36.07 516.94,-43.41 519.86,-37.05"/>
</a>
</g>
</g>
<!-- 10&#45;&gt;11 -->
<g id="edge38" class="edge">
<title>10&#45;&gt;11</title>
<g id="a_edge38"><a xlink:title="usage">
<path fill="none" stroke="#1414ce" d="M1212,-143.7C1212,-135.98 1212,-126.71 1212,-118.11"/>
<polygon fill="#1414ce" stroke="#1414ce" points="1215.5,-118.1 1212,-108.1 1208.5,-118.1 1215.5,-118.1"/>
</a>
</g>
</g>
<!-- 10&#45;&gt;10 -->
<g id="edge37" class="edge">
<title>10&#45;&gt;10</title>
<g id="a_edge37"><a xlink:title="usage">
<path fill="none" stroke="#1414ce" d="M1245.35,-175.47C1255.28,-175.07 1263,-170.58 1263,-162 1263,-156.64 1259.98,-152.87 1255.3,-150.71"/>
<polygon fill="#1414ce" stroke="#1414ce" points="1255.87,-147.25 1245.35,-148.53 1254.37,-154.09 1255.87,-147.25"/>
</a>
</g>
</g>
</g>
</svg>
