<?xml version="1.0" encoding="UTF-8" standalone="no"?>
<!DOCTYPE svg PUBLIC "-//W3C//DTD SVG 1.1//EN"
 "http://www.w3.org/Graphics/SVG/1.1/DTD/svg11.dtd">
<!-- Generated by graphviz version 2.43.0 (0)
 -->
<!-- Title: %3 Pages: 1 -->
<svg width="1666pt" height="764pt"
 viewBox="0.00 0.00 1666.00 764.00" xmlns="http://www.w3.org/2000/svg" xmlns:xlink="http://www.w3.org/1999/xlink">
<g id="graph0" class="graph" transform="scale(1 1) rotate(0) translate(4 760)">
<title>%3</title>
<polygon fill="transparent" stroke="transparent" points="-4,4 -4,-760 1662,-760 1662,4 -4,4"/>
<!-- 5 -->
<g id="node1" class="node">
<title>5</title>
<g id="a_node1"><a xlink:title="stdbool.h">
<polygon fill="#ffffff" stroke="black" points="576.5,-108 493.5,-108 493.5,-72 576.5,-72 576.5,-108"/>
<text text-anchor="middle" x="535" y="-86.3" font-family="Times,serif" font-size="14.00">stdbool.h</text>
</a>
</g>
</g>
<!-- 18 -->
<g id="node2" class="node">
<title>18</title>
<g id="a_node2"><a xlink:title="refc_binary.h">
<polygon fill="#ffffff" stroke="black" points="1234,-396 1126,-396 1126,-360 1234,-360 1234,-396"/>
<text text-anchor="middle" x="1180" y="-374.3" font-family="Times,serif" font-size="14.00">refc_binary.h</text>
</a>
</g>
</g>
<!-- 18&#45;&gt;5 -->
<g id="edge1" class="edge">
<title>18&#45;&gt;5</title>
<g id="a_edge1"><a xlink:title="include">
<path fill="none" stroke="#1414ce" d="M1125.92,-364.7C1034.67,-343.01 855.5,-296.06 809,-252 771.5,-216.47 805.22,-177.63 766,-144 739.42,-121.22 646.12,-105.3 586.54,-97.2"/>
<polygon fill="#1414ce" stroke="#1414ce" points="586.93,-93.72 576.56,-95.87 586.01,-100.66 586.93,-93.72"/>
</a>
</g>
</g>
<!-- 19 -->
<g id="node7" class="node">
<title>19</title>
<g id="a_node7"><a xlink:title="list.h">
<polygon fill="#ffffff" stroke="black" points="623,-180 569,-180 569,-144 623,-144 623,-180"/>
<text text-anchor="middle" x="596" y="-158.3" font-family="Times,serif" font-size="14.00">list.h</text>
</a>
</g>
</g>
<!-- 18&#45;&gt;19 -->
<g id="edge3" class="edge">
<title>18&#45;&gt;19</title>
<g id="a_edge3"><a xlink:title="include">
<path fill="none" stroke="#1414ce" d="M1125.77,-367.8C1110.34,-365.23 1093.51,-362.46 1078,-360 971.91,-343.17 940.98,-357.76 839,-324 774.45,-302.63 760.52,-289.81 704,-252 674.45,-232.23 643.4,-205.99 622.22,-187.13"/>
<polygon fill="#1414ce" stroke="#1414ce" points="624.39,-184.37 614.61,-180.29 619.71,-189.58 624.39,-184.37"/>
</a>
</g>
</g>
<!-- 8 -->
<g id="node9" class="node">
<title>8</title>
<g id="a_node9"><a xlink:title="stdlib.h">
<polygon fill="#ffffff" stroke="black" points="1259.5,-108 1188.5,-108 1188.5,-72 1259.5,-72 1259.5,-108"/>
<text text-anchor="middle" x="1224" y="-86.3" font-family="Times,serif" font-size="14.00">stdlib.h</text>
</a>
</g>
</g>
<!-- 18&#45;&gt;8 -->
<g id="edge2" class="edge">
<title>18&#45;&gt;8</title>
<g id="a_edge2"><a xlink:title="include">
<path fill="none" stroke="#1414ce" d="M1231.11,-359.84C1247.43,-351.67 1263.66,-340.07 1273,-324 1281.04,-310.17 1274.95,-303.88 1273,-288 1265.4,-225.97 1244.82,-155.35 1232.89,-117.8"/>
<polygon fill="#1414ce" stroke="#1414ce" points="1236.17,-116.57 1229.77,-108.13 1229.5,-118.72 1236.17,-116.57"/>
</a>
</g>
</g>
<!-- 20 -->
<g id="node12" class="node">
<title>20</title>
<g id="a_node12"><a xlink:title="resources.h">
<polygon fill="#ffffff" stroke="black" points="1264,-324 1164,-324 1164,-288 1264,-288 1264,-324"/>
<text text-anchor="middle" x="1214" y="-302.3" font-family="Times,serif" font-size="14.00">resources.h</text>
</a>
</g>
</g>
<!-- 18&#45;&gt;20 -->
<g id="edge4" class="edge">
<title>18&#45;&gt;20</title>
<g id="a_edge4"><a xlink:title="include">
<path fill="none" stroke="#1414ce" d="M1188.4,-359.7C1192.27,-351.73 1196.95,-342.1 1201.24,-333.26"/>
<polygon fill="#1414ce" stroke="#1414ce" points="1204.47,-334.63 1205.69,-324.1 1198.17,-331.57 1204.47,-334.63"/>
</a>
</g>
</g>
<!-- 25 -->
<g id="node3" class="node">
<title>25</title>
<g id="a_node3"><a xlink:title="atom.h">
<polygon fill="#ffffff" stroke="black" points="985,-180 919,-180 919,-144 985,-144 985,-180"/>
<text text-anchor="middle" x="952" y="-158.3" font-family="Times,serif" font-size="14.00">atom.h</text>
</a>
</g>
</g>
<!-- 6 -->
<g id="node8" class="node">
<title>6</title>
<g id="a_node8"><a xlink:title="stdint.h">
<polygon fill="#ffffff" stroke="black" points="972,-36 900,-36 900,0 972,0 972,-36"/>
<text text-anchor="middle" x="936" y="-14.3" font-family="Times,serif" font-size="14.00">stdint.h</text>
</a>
</g>
</g>
<!-- 25&#45;&gt;6 -->
<g id="edge5" class="edge">
<title>25&#45;&gt;6</title>
<g id="a_edge5"><a xlink:title="include">
<path fill="none" stroke="#1414ce" d="M950.07,-143.87C947.34,-119.67 942.33,-75.21 939.09,-46.39"/>
<polygon fill="#1414ce" stroke="#1414ce" points="942.53,-45.73 937.94,-36.19 935.58,-46.52 942.53,-45.73"/>
</a>
</g>
</g>
<!-- 25&#45;&gt;8 -->
<g id="edge6" class="edge">
<title>25&#45;&gt;8</title>
<g id="a_edge6"><a xlink:title="include">
<path fill="none" stroke="#1414ce" d="M985.08,-152.49C1033.46,-140.04 1123.69,-116.81 1178.36,-102.75"/>
<polygon fill="#1414ce" stroke="#1414ce" points="1179.32,-106.11 1188.13,-100.23 1177.58,-99.33 1179.32,-106.11"/>
</a>
</g>
</g>
<!-- 13 -->
<g id="node4" class="node">
<title>13</title>
<g id="a_node4"><a xlink:title="assert.h">
<polygon fill="#ffffff" stroke="black" points="1635,-36 1561,-36 1561,0 1635,0 1635,-36"/>
<text text-anchor="middle" x="1598" y="-14.3" font-family="Times,serif" font-size="14.00">assert.h</text>
</a>
</g>
</g>
<!-- 16 -->
<g id="node5" class="node">
<title>16</title>
<g id="a_node5"><a xlink:title="utils.h">
<polygon fill="#ffffff" stroke="black" points="1120,-180 1058,-180 1058,-144 1120,-144 1120,-180"/>
<text text-anchor="middle" x="1089" y="-158.3" font-family="Times,serif" font-size="14.00">utils.h</text>
</a>
</g>
</g>
<!-- 16&#45;&gt;8 -->
<g id="edge9" class="edge">
<title>16&#45;&gt;8</title>
<g id="a_edge9"><a xlink:title="include">
<path fill="none" stroke="#1414ce" d="M1120.31,-144.76C1138.68,-135.24 1162.13,-123.08 1182.09,-112.73"/>
<polygon fill="#1414ce" stroke="#1414ce" points="1183.71,-115.83 1190.98,-108.12 1180.49,-109.62 1183.71,-115.83"/>
</a>
</g>
</g>
<!-- 17 -->
<g id="node14" class="node">
<title>17</title>
<g id="a_node14"><a xlink:title="stddef.h">
<polygon fill="#ffffff" stroke="black" points="1038,-108 964,-108 964,-72 1038,-72 1038,-108"/>
<text text-anchor="middle" x="1001" y="-86.3" font-family="Times,serif" font-size="14.00">stddef.h</text>
</a>
</g>
</g>
<!-- 16&#45;&gt;17 -->
<g id="edge7" class="edge">
<title>16&#45;&gt;17</title>
<g id="a_edge7"><a xlink:title="include">
<path fill="none" stroke="#1414ce" d="M1067.25,-143.7C1056.16,-134.88 1042.53,-124.03 1030.51,-114.47"/>
<polygon fill="#1414ce" stroke="#1414ce" points="1032.51,-111.59 1022.5,-108.1 1028.15,-117.07 1032.51,-111.59"/>
</a>
</g>
</g>
<!-- 7 -->
<g id="node29" class="node">
<title>7</title>
<g id="a_node29"><a xlink:title="stdio.h">
<polygon fill="#ffffff" stroke="black" points="1121.5,-108 1056.5,-108 1056.5,-72 1121.5,-72 1121.5,-108"/>
<text text-anchor="middle" x="1089" y="-86.3" font-family="Times,serif" font-size="14.00">stdio.h</text>
</a>
</g>
</g>
<!-- 16&#45;&gt;7 -->
<g id="edge8" class="edge">
<title>16&#45;&gt;7</title>
<g id="a_edge8"><a xlink:title="include">
<path fill="none" stroke="#1414ce" d="M1089,-143.7C1089,-135.98 1089,-126.71 1089,-118.11"/>
<polygon fill="#1414ce" stroke="#1414ce" points="1092.5,-118.1 1089,-108.1 1085.5,-118.1 1092.5,-118.1"/>
</a>
</g>
</g>
<!-- 21 -->
<g id="node6" class="node">
<title>21</title>
<g id="a_node6"><a xlink:title="synclist.h">
<polygon fill="#ffffff" stroke="black" points="571.5,-252 486.5,-252 486.5,-216 571.5,-216 571.5,-252"/>
<text text-anchor="middle" x="529" y="-230.3" font-family="Times,serif" font-size="14.00">synclist.h</text>
</a>
</g>
</g>
<!-- 21&#45;&gt;19 -->
<g id="edge11" class="edge">
<title>21&#45;&gt;19</title>
<g id="a_edge11"><a xlink:title="include">
<path fill="none" stroke="#1414ce" d="M545.56,-215.7C553.68,-207.22 563.59,-196.86 572.47,-187.58"/>
<polygon fill="#1414ce" stroke="#1414ce" points="575.24,-189.75 579.63,-180.1 570.19,-184.91 575.24,-189.75"/>
</a>
</g>
</g>
<!-- 22 -->
<g id="node25" class="node">
<title>22</title>
<g id="a_node25"><a xlink:title="smp.h">
<polygon fill="#ffffff" stroke="black" points="477,-180 417,-180 417,-144 477,-144 477,-180"/>
<text text-anchor="middle" x="447" y="-158.3" font-family="Times,serif" font-size="14.00">smp.h</text>
</a>
</g>
</g>
<!-- 21&#45;&gt;22 -->
<g id="edge12" class="edge">
<title>21&#45;&gt;22</title>
<g id="a_edge12"><a xlink:title="include">
<path fill="none" stroke="#1414ce" d="M508.73,-215.7C498.5,-206.97 485.94,-196.24 474.82,-186.75"/>
<polygon fill="#1414ce" stroke="#1414ce" points="476.91,-183.94 467.04,-180.1 472.37,-189.26 476.91,-183.94"/>
</a>
</g>
</g>
<!-- 21&#45;&gt;7 -->
<g id="edge10" class="edge">
<title>21&#45;&gt;7</title>
<g id="a_edge10"><a xlink:title="include">
<path fill="none" stroke="#1414ce" d="M529.64,-215.72C531.43,-195.02 537.81,-161.04 560,-144 643.73,-79.73 925.33,-129.75 1046.47,-107.42"/>
<polygon fill="#1414ce" stroke="#1414ce" points="1047.23,-110.83 1056.3,-105.36 1045.79,-103.98 1047.23,-110.83"/>
</a>
</g>
</g>
<!-- 19&#45;&gt;5 -->
<g id="edge13" class="edge">
<title>19&#45;&gt;5</title>
<g id="a_edge13"><a xlink:title="include">
<path fill="none" stroke="#1414ce" d="M580.92,-143.7C573.61,-135.3 564.69,-125.07 556.66,-115.86"/>
<polygon fill="#1414ce" stroke="#1414ce" points="559.11,-113.34 549.91,-108.1 553.84,-117.94 559.11,-113.34"/>
</a>
</g>
</g>
<!-- 23 -->
<g id="node10" class="node">
<title>23</title>
<g id="a_node10"><a xlink:title="context.h">
<polygon fill="#ffffff" stroke="black" points="455.5,-684 372.5,-684 372.5,-648 455.5,-648 455.5,-684"/>
<text text-anchor="middle" x="414" y="-662.3" font-family="Times,serif" font-size="14.00">context.h</text>
</a>
</g>
</g>
<!-- 23&#45;&gt;19 -->
<g id="edge15" class="edge">
<title>23&#45;&gt;19</title>
<g id="a_edge15"><a xlink:title="include">
<path fill="none" stroke="#1414ce" d="M408.87,-647.84C390.56,-582.73 335.09,-347.95 444,-216 472.05,-182.01 523.22,-169.79 558.38,-165.41"/>
<polygon fill="#1414ce" stroke="#1414ce" points="559.17,-168.84 568.73,-164.29 558.41,-161.88 559.17,-168.84"/>
</a>
</g>
</g>
<!-- 3 -->
<g id="node13" class="node">
<title>3</title>
<g id="a_node13"><a xlink:title="term.h">
<polygon fill="#ffffff" stroke="black" points="1130.5,-468 1065.5,-468 1065.5,-432 1130.5,-432 1130.5,-468"/>
<text text-anchor="middle" x="1098" y="-446.3" font-family="Times,serif" font-size="14.00">term.h</text>
</a>
</g>
</g>
<!-- 23&#45;&gt;3 -->
<g id="edge18" class="edge">
<title>23&#45;&gt;3</title>
<g id="a_edge18"><a xlink:title="include">
<path fill="none" stroke="#1414ce" d="M455.62,-662.73C552.82,-657.01 792.13,-640.4 867,-612 950.77,-580.22 1033,-511.42 1072.95,-474.9"/>
<polygon fill="#1414ce" stroke="#1414ce" points="1075.4,-477.4 1080.36,-468.05 1070.65,-472.26 1075.4,-477.4"/>
</a>
</g>
</g>
<!-- 24 -->
<g id="node23" class="node">
<title>24</title>
<g id="a_node23"><a xlink:title="globalcontext.h">
<polygon fill="#ffffff" stroke="black" points="707.5,-612 580.5,-612 580.5,-576 707.5,-576 707.5,-612"/>
<text text-anchor="middle" x="644" y="-590.3" font-family="Times,serif" font-size="14.00">globalcontext.h</text>
</a>
</g>
</g>
<!-- 23&#45;&gt;24 -->
<g id="edge14" class="edge">
<title>23&#45;&gt;24</title>
<g id="a_edge14"><a xlink:title="include">
<path fill="none" stroke="#1414ce" d="M455.65,-652.32C489.78,-641.94 538.71,-627.05 578.14,-615.04"/>
<polygon fill="#1414ce" stroke="#1414ce" points="579.4,-618.32 587.94,-612.06 577.36,-611.62 579.4,-618.32"/>
</a>
</g>
</g>
<!-- 23&#45;&gt;22 -->
<g id="edge17" class="edge">
<title>23&#45;&gt;22</title>
<g id="a_edge17"><a xlink:title="include">
<path fill="none" stroke="#1414ce" d="M388.68,-647.83C356.76,-623.92 306,-577.36 306,-523 306,-523 306,-523 306,-377 306,-300.32 320.16,-275.92 368,-216 378.65,-202.66 393.58,-191.45 407.59,-182.83"/>
<polygon fill="#1414ce" stroke="#1414ce" points="409.76,-185.62 416.62,-177.54 406.22,-179.58 409.76,-185.62"/>
</a>
</g>
</g>
<!-- 29 -->
<g id="node27" class="node">
<title>29</title>
<g id="a_node27"><a xlink:title="timer_list.h">
<polygon fill="#ffffff" stroke="black" points="316,-252 218,-252 218,-216 316,-216 316,-252"/>
<text text-anchor="middle" x="267" y="-230.3" font-family="Times,serif" font-size="14.00">timer_list.h</text>
</a>
</g>
</g>
<!-- 23&#45;&gt;29 -->
<g id="edge19" class="edge">
<title>23&#45;&gt;29</title>
<g id="a_edge19"><a xlink:title="include">
<path fill="none" stroke="#1414ce" d="M372.32,-656.58C345.79,-649.14 312.65,-635.67 292,-612 264.99,-581.04 267,-564.09 267,-523 267,-523 267,-523 267,-377 267,-337 267,-290.65 267,-262.08"/>
<polygon fill="#1414ce" stroke="#1414ce" points="270.5,-262.05 267,-252.05 263.5,-262.05 270.5,-262.05"/>
</a>
</g>
</g>
<!-- 28 -->
<g id="node28" class="node">
<title>28</title>
<g id="a_node28"><a xlink:title="mailbox.h">
<polygon fill="#ffffff" stroke="black" points="1070,-252 984,-252 984,-216 1070,-216 1070,-252"/>
<text text-anchor="middle" x="1027" y="-230.3" font-family="Times,serif" font-size="14.00">mailbox.h</text>
</a>
</g>
</g>
<!-- 23&#45;&gt;28 -->
<g id="edge16" class="edge">
<title>23&#45;&gt;28</title>
<g id="a_edge16"><a xlink:title="include">
<path fill="none" stroke="#1414ce" d="M455.7,-660.54C565.28,-647.68 853,-606.01 853,-523 853,-523 853,-523 853,-449 853,-408.55 850.82,-394.46 872,-360 899.79,-314.8 949.98,-278.86 985.71,-257.33"/>
<polygon fill="#1414ce" stroke="#1414ce" points="987.63,-260.27 994.47,-252.17 984.07,-254.24 987.63,-260.27"/>
</a>
</g>
</g>
<!-- 10 -->
<g id="node11" class="node">
<title>10</title>
<g id="a_node11"><a xlink:title="memory.h">
<polygon fill="#ffffff" stroke="black" points="1364,-252 1278,-252 1278,-216 1364,-216 1364,-252"/>
<text text-anchor="middle" x="1321" y="-230.3" font-family="Times,serif" font-size="14.00">memory.h</text>
</a>
</g>
</g>
<!-- 10&#45;&gt;16 -->
<g id="edge24" class="edge">
<title>10&#45;&gt;16</title>
<g id="a_edge24"><a xlink:title="include">
<path fill="none" stroke="#1414ce" d="M1277.91,-220C1235.66,-207.25 1171.71,-187.95 1130.14,-175.41"/>
<polygon fill="#1414ce" stroke="#1414ce" points="1130.93,-171.99 1120.34,-172.46 1128.9,-178.7 1130.93,-171.99"/>
</a>
</g>
</g>
<!-- 10&#45;&gt;6 -->
<g id="edge20" class="edge">
<title>10&#45;&gt;6</title>
<g id="a_edge20"><a xlink:title="include">
<path fill="none" stroke="#1414ce" d="M1320.83,-215.76C1319.49,-182.39 1311.46,-109.02 1268,-72 1225.79,-36.05 1063.4,-24.27 982.44,-20.58"/>
<polygon fill="#1414ce" stroke="#1414ce" points="982.19,-17.07 972.05,-20.13 981.89,-24.06 982.19,-17.07"/>
</a>
</g>
</g>
<!-- 10&#45;&gt;8 -->
<g id="edge21" class="edge">
<title>10&#45;&gt;8</title>
<g id="a_edge21"><a xlink:title="include">
<path fill="none" stroke="#1414ce" d="M1309.3,-215.87C1292.4,-191.14 1261.05,-145.24 1241.43,-116.51"/>
<polygon fill="#1414ce" stroke="#1414ce" points="1244.27,-114.47 1235.74,-108.19 1238.49,-118.42 1244.27,-114.47"/>
</a>
</g>
</g>
<!-- 11 -->
<g id="node15" class="node">
<title>11</title>
<g id="a_node15"><a xlink:title="erl_nif.h">
<polygon fill="#ffffff" stroke="black" points="1440,-180 1366,-180 1366,-144 1440,-144 1440,-180"/>
<text text-anchor="middle" x="1403" y="-158.3" font-family="Times,serif" font-size="14.00">erl_nif.h</text>
</a>
</g>
</g>
<!-- 10&#45;&gt;11 -->
<g id="edge22" class="edge">
<title>10&#45;&gt;11</title>
<g id="a_edge22"><a xlink:title="include">
<path fill="none" stroke="#1414ce" d="M1341.27,-215.7C1351.5,-206.97 1364.06,-196.24 1375.18,-186.75"/>
<polygon fill="#1414ce" stroke="#1414ce" points="1377.63,-189.26 1382.96,-180.1 1373.09,-183.94 1377.63,-189.26"/>
</a>
</g>
</g>
<!-- 12 -->
<g id="node22" class="node">
<title>12</title>
<g id="a_node22"><a xlink:title="term_typedef.h">
<polygon fill="#ffffff" stroke="black" points="1560.5,-108 1435.5,-108 1435.5,-72 1560.5,-72 1560.5,-108"/>
<text text-anchor="middle" x="1498" y="-86.3" font-family="Times,serif" font-size="14.00">term_typedef.h</text>
</a>
</g>
</g>
<!-- 10&#45;&gt;12 -->
<g id="edge23" class="edge">
<title>10&#45;&gt;12</title>
<g id="a_edge23"><a xlink:title="include">
<path fill="none" stroke="#1414ce" d="M1323.66,-215.96C1327.61,-196.16 1336.84,-163.67 1357,-144 1375.76,-125.7 1401.43,-113.61 1425.74,-105.67"/>
<polygon fill="#1414ce" stroke="#1414ce" points="1426.79,-109 1435.32,-102.72 1424.73,-102.31 1426.79,-109"/>
</a>
</g>
</g>
<!-- 20&#45;&gt;21 -->
<g id="edge29" class="edge">
<title>20&#45;&gt;21</title>
<g id="a_edge29"><a xlink:title="include">
<path fill="none" stroke="#1414ce" d="M1163.91,-299.88C1038.24,-287.04 710.47,-253.54 581.88,-240.4"/>
<polygon fill="#1414ce" stroke="#1414ce" points="582.18,-236.92 571.87,-239.38 581.47,-243.88 582.18,-236.92"/>
</a>
</g>
</g>
<!-- 20&#45;&gt;19 -->
<g id="edge27" class="edge">
<title>20&#45;&gt;19</title>
<g id="a_edge27"><a xlink:title="include">
<path fill="none" stroke="#1414ce" d="M1163.92,-302.72C1086.58,-298.25 933.97,-285.64 809,-252 744.55,-234.65 673.82,-202.21 632.25,-181.66"/>
<polygon fill="#1414ce" stroke="#1414ce" points="633.59,-178.42 623.08,-177.08 630.47,-184.68 633.59,-178.42"/>
</a>
</g>
</g>
<!-- 20&#45;&gt;8 -->
<g id="edge25" class="edge">
<title>20&#45;&gt;8</title>
<g id="a_edge25"><a xlink:title="include">
<path fill="none" stroke="#1414ce" d="M1211.87,-287.99C1208.56,-258.52 1203.23,-196.13 1210,-144 1211.1,-135.51 1213.16,-126.43 1215.37,-118.24"/>
<polygon fill="#1414ce" stroke="#1414ce" points="1218.78,-119.02 1218.18,-108.44 1212.05,-117.09 1218.78,-119.02"/>
</a>
</g>
</g>
<!-- 20&#45;&gt;10 -->
<g id="edge28" class="edge">
<title>20&#45;&gt;10</title>
<g id="a_edge28"><a xlink:title="include">
<path fill="none" stroke="#1414ce" d="M1240.18,-287.88C1254.04,-278.81 1271.24,-267.55 1286.21,-257.76"/>
<polygon fill="#1414ce" stroke="#1414ce" points="1288.27,-260.59 1294.72,-252.19 1284.44,-254.74 1288.27,-260.59"/>
</a>
</g>
</g>
<!-- 20&#45;&gt;11 -->
<g id="edge26" class="edge">
<title>20&#45;&gt;11</title>
<g id="a_edge26"><a xlink:title="include">
<path fill="none" stroke="#1414ce" d="M1264.21,-299.99C1298.98,-294.01 1344.04,-280.86 1373,-252 1389.47,-235.59 1396.9,-209.85 1400.25,-190.26"/>
<polygon fill="#1414ce" stroke="#1414ce" points="1403.75,-190.51 1401.72,-180.11 1396.82,-189.5 1403.75,-190.51"/>
</a>
</g>
</g>
<!-- 3&#45;&gt;5 -->
<g id="edge31" class="edge">
<title>3&#45;&gt;5</title>
<g id="a_edge31"><a xlink:title="include">
<path fill="none" stroke="#1414ce" d="M1065.18,-447.17C1019.2,-443.35 934.25,-431.65 872,-396 737.78,-319.14 754.67,-238.21 632,-144 616.59,-132.17 598.2,-121.4 581.59,-112.71"/>
<polygon fill="#1414ce" stroke="#1414ce" points="583.07,-109.54 572.58,-108.11 579.89,-115.77 583.07,-109.54"/>
</a>
</g>
</g>
<!-- 3&#45;&gt;18 -->
<g id="edge37" class="edge">
<title>3&#45;&gt;18</title>
<g id="a_edge37"><a xlink:title="include">
<path fill="none" stroke="#1414ce" d="M1118.27,-431.7C1128.5,-422.97 1141.06,-412.24 1152.18,-402.75"/>
<polygon fill="#1414ce" stroke="#1414ce" points="1154.63,-405.26 1159.96,-396.1 1150.09,-399.94 1154.63,-405.26"/>
</a>
</g>
</g>
<!-- 3&#45;&gt;16 -->
<g id="edge38" class="edge">
<title>3&#45;&gt;16</title>
<g id="a_edge38"><a xlink:title="include">
<path fill="none" stroke="#1414ce" d="M1130.65,-447.38C1165.07,-443.71 1217.74,-432.13 1243,-396 1252.17,-382.89 1251.92,-373.28 1243,-360 1219.45,-324.92 1184.74,-354.02 1155,-324 1118.64,-287.3 1131.84,-263.7 1112,-216 1108.4,-207.35 1104.36,-197.95 1100.69,-189.5"/>
<polygon fill="#1414ce" stroke="#1414ce" points="1103.8,-187.89 1096.59,-180.13 1097.39,-190.69 1103.8,-187.89"/>
</a>
</g>
</g>
<!-- 3&#45;&gt;6 -->
<g id="edge32" class="edge">
<title>3&#45;&gt;6</title>
<g id="a_edge32"><a xlink:title="include">
<path fill="none" stroke="#1414ce" d="M1130.91,-447.65C1181.46,-444.41 1280.09,-433.4 1354,-396 1469.1,-337.75 1572.34,-249.42 1498,-144 1484.27,-124.53 1319.12,-77.76 1296,-72 1185.22,-44.39 1051.44,-29.35 982.34,-22.89"/>
<polygon fill="#1414ce" stroke="#1414ce" points="982.5,-19.39 972.22,-21.96 981.86,-26.36 982.5,-19.39"/>
</a>
</g>
</g>
<!-- 3&#45;&gt;8 -->
<g id="edge34" class="edge">
<title>3&#45;&gt;8</title>
<g id="a_edge34"><a xlink:title="include">
<path fill="none" stroke="#1414ce" d="M1130.63,-447.59C1175.35,-444.28 1256.65,-433.18 1314,-396 1416.05,-329.84 1442.53,-295.04 1482,-180 1487.19,-164.87 1492.11,-156.4 1482,-144 1455.74,-111.79 1336.69,-98.6 1269.87,-93.66"/>
<polygon fill="#1414ce" stroke="#1414ce" points="1269.83,-90.15 1259.61,-92.94 1269.34,-97.13 1269.83,-90.15"/>
</a>
</g>
</g>
<!-- 3&#45;&gt;10 -->
<g id="edge36" class="edge">
<title>3&#45;&gt;10</title>
<g id="a_edge36"><a xlink:title="include">
<path fill="none" stroke="#1414ce" d="M1130.62,-444.53C1168,-438.26 1230,-424.31 1276,-396 1313.49,-372.93 1327.74,-364.9 1344,-324 1352.11,-303.6 1344.87,-279.44 1336.43,-261.44"/>
<polygon fill="#1414ce" stroke="#1414ce" points="1339.35,-259.47 1331.71,-252.13 1333.11,-262.63 1339.35,-259.47"/>
</a>
</g>
</g>
<!-- 4 -->
<g id="node20" class="node">
<title>4</title>
<g id="a_node20"><a xlink:title="sys/types.h">
<polygon fill="#ffffff" stroke="black" points="978.5,-396 881.5,-396 881.5,-360 978.5,-360 978.5,-396"/>
<text text-anchor="middle" x="930" y="-374.3" font-family="Times,serif" font-size="14.00">sys/types.h</text>
</a>
</g>
</g>
<!-- 3&#45;&gt;4 -->
<g id="edge30" class="edge">
<title>3&#45;&gt;4</title>
<g id="a_edge30"><a xlink:title="include">
<path fill="none" stroke="#1414ce" d="M1065.21,-435.34C1041.12,-425.3 1007.95,-411.48 980.49,-400.04"/>
<polygon fill="#1414ce" stroke="#1414ce" points="981.62,-396.71 971.04,-396.1 978.92,-403.18 981.62,-396.71"/>
</a>
</g>
</g>
<!-- 9 -->
<g id="node21" class="node">
<title>9</title>
<g id="a_node21"><a xlink:title="string.h">
<polygon fill="#ffffff" stroke="black" points="1069.5,-396 996.5,-396 996.5,-360 1069.5,-360 1069.5,-396"/>
<text text-anchor="middle" x="1033" y="-374.3" font-family="Times,serif" font-size="14.00">string.h</text>
</a>
</g>
</g>
<!-- 3&#45;&gt;9 -->
<g id="edge35" class="edge">
<title>3&#45;&gt;9</title>
<g id="a_edge35"><a xlink:title="include">
<path fill="none" stroke="#1414ce" d="M1081.93,-431.7C1074.06,-423.22 1064.44,-412.86 1055.83,-403.58"/>
<polygon fill="#1414ce" stroke="#1414ce" points="1058.25,-401.05 1048.88,-396.1 1053.12,-405.81 1058.25,-401.05"/>
</a>
</g>
</g>
<!-- 3&#45;&gt;12 -->
<g id="edge39" class="edge">
<title>3&#45;&gt;12</title>
<g id="a_edge39"><a xlink:title="include">
<path fill="none" stroke="#1414ce" d="M1130.54,-447.06C1211.49,-441.85 1419.9,-425.83 1482,-396 1592.81,-342.78 1658.94,-249.59 1596,-144 1588.04,-130.64 1575.41,-120.45 1561.84,-112.75"/>
<polygon fill="#1414ce" stroke="#1414ce" points="1563.3,-109.56 1552.82,-108.04 1560.06,-115.77 1563.3,-109.56"/>
</a>
</g>
</g>
<!-- 3&#45;&gt;7 -->
<g id="edge33" class="edge">
<title>3&#45;&gt;7</title>
<g id="a_edge33"><a xlink:title="include">
<path fill="none" stroke="#1414ce" d="M1100.02,-431.81C1103.98,-392.08 1109.87,-291.51 1079,-216 1071.12,-196.72 1056.09,-199.58 1049,-180 1043.55,-164.96 1043.92,-159.17 1049,-144 1052.35,-134 1058.42,-124.38 1064.83,-116.14"/>
<polygon fill="#1414ce" stroke="#1414ce" points="1067.56,-118.33 1071.27,-108.4 1062.18,-113.85 1067.56,-118.33"/>
</a>
</g>
</g>
<!-- 11&#45;&gt;12 -->
<g id="edge40" class="edge">
<title>11&#45;&gt;12</title>
<g id="a_edge40"><a xlink:title="include">
<path fill="none" stroke="#1414ce" d="M1426.48,-143.7C1438.56,-134.8 1453.45,-123.82 1466.52,-114.2"/>
<polygon fill="#1414ce" stroke="#1414ce" points="1468.81,-116.85 1474.79,-108.1 1464.66,-111.22 1468.81,-116.85"/>
</a>
</g>
</g>
<!-- 14 -->
<g id="node16" class="node">
<title>14</title>
<g id="a_node16"><a xlink:title="limits.h">
<polygon fill="#ffffff" stroke="black" points="1435.5,-36 1364.5,-36 1364.5,0 1435.5,0 1435.5,-36"/>
<text text-anchor="middle" x="1400" y="-14.3" font-family="Times,serif" font-size="14.00">limits.h</text>
</a>
</g>
</g>
<!-- 1 -->
<g id="node17" class="node">
<title>1</title>
<g id="a_node17"><a xlink:title="/__w/AtomVM/AtomVM/src/libAtomVM/externalterm.c">
<polygon fill="#bfbfbf" stroke="black" points="578.5,-756 179.5,-756 179.5,-720 578.5,-720 578.5,-756"/>
<text text-anchor="middle" x="379" y="-734.3" font-family="Times,serif" font-size="14.00">/__w/AtomVM/AtomVM/src/libAtomVM/externalterm.c</text>
</a>
</g>
</g>
<!-- 1&#45;&gt;5 -->
<g id="edge44" class="edge">
<title>1&#45;&gt;5</title>
<g id="a_edge44"><a xlink:title="include">
<path fill="none" stroke="#1414ce" d="M319.72,-719.96C264.29,-699.96 190,-660.87 190,-595 190,-595 190,-595 190,-305 190,-264.55 184.62,-248.27 209,-216 274.79,-128.94 409.27,-102.51 483.3,-94.49"/>
<polygon fill="#1414ce" stroke="#1414ce" points="483.73,-97.96 493.33,-93.48 483.02,-91 483.73,-97.96"/>
</a>
</g>
</g>
<!-- 1&#45;&gt;16 -->
<g id="edge50" class="edge">
<title>1&#45;&gt;16</title>
<g id="a_edge50"><a xlink:title="include">
<path fill="none" stroke="#1414ce" d="M578.56,-725.86C849.4,-708.01 1300,-667.42 1300,-595 1300,-595 1300,-595 1300,-449 1300,-376.45 1312.16,-349.08 1273,-288 1238.7,-234.5 1172.47,-198.13 1129.53,-178.98"/>
<polygon fill="#1414ce" stroke="#1414ce" points="1130.78,-175.7 1120.21,-174.92 1127.99,-182.12 1130.78,-175.7"/>
</a>
</g>
</g>
<!-- 1&#45;&gt;19 -->
<g id="edge43" class="edge">
<title>1&#45;&gt;19</title>
<g id="a_edge43"><a xlink:title="include">
<path fill="none" stroke="#1414ce" d="M372.35,-719.63C368.8,-709.42 364.8,-696.17 363,-684 360.66,-668.17 360.94,-663.87 363,-648 375.77,-549.54 412.67,-291.62 477,-216 497.99,-191.33 532.73,-177.68 559.27,-170.43"/>
<polygon fill="#1414ce" stroke="#1414ce" points="560.17,-173.82 569,-167.96 558.45,-167.03 560.17,-173.82"/>
</a>
</g>
</g>
<!-- 1&#45;&gt;6 -->
<g id="edge45" class="edge">
<title>1&#45;&gt;6</title>
<g id="a_edge45"><a xlink:title="include">
<path fill="none" stroke="#1414ce" d="M203.89,-719.98C144,-711.61 85.84,-699.83 61,-684 20.56,-658.22 0,-642.95 0,-595 0,-595 0,-595 0,-161 0,-114.03 16.49,-95.77 57,-72 129.04,-29.72 718.71,-21 889.69,-19.36"/>
<polygon fill="#1414ce" stroke="#1414ce" points="889.91,-22.85 899.87,-19.26 889.84,-15.86 889.91,-22.85"/>
</a>
</g>
</g>
<!-- 1&#45;&gt;8 -->
<g id="edge47" class="edge">
<title>1&#45;&gt;8</title>
<g id="a_edge47"><a xlink:title="include">
<path fill="none" stroke="#1414ce" d="M578.59,-734.14C828.82,-729.24 1243.15,-716.4 1393,-684 1498.92,-661.1 1620,-703.37 1620,-595 1620,-595 1620,-595 1620,-449 1620,-303 1610.54,-237.01 1498,-144 1463.81,-115.74 1338.36,-100.79 1269.68,-94.57"/>
<polygon fill="#1414ce" stroke="#1414ce" points="1269.85,-91.07 1259.58,-93.68 1269.23,-98.04 1269.85,-91.07"/>
</a>
</g>
</g>
<!-- 1&#45;&gt;23 -->
<g id="edge42" class="edge">
<title>1&#45;&gt;23</title>
<g id="a_edge42"><a xlink:title="include">
<path fill="none" stroke="#1414ce" d="M387.65,-719.7C391.64,-711.73 396.45,-702.1 400.87,-693.26"/>
<polygon fill="#1414ce" stroke="#1414ce" points="404.11,-694.61 405.45,-684.1 397.85,-691.48 404.11,-694.61"/>
</a>
</g>
</g>
<!-- 2 -->
<g id="node19" class="node">
<title>2</title>
<g id="a_node19"><a xlink:title="externalterm.h">
<polygon fill="#ffffff" stroke="black" points="1177,-612 1053,-612 1053,-576 1177,-576 1177,-612"/>
<text text-anchor="middle" x="1115" y="-590.3" font-family="Times,serif" font-size="14.00">externalterm.h</text>
</a>
</g>
</g>
<!-- 1&#45;&gt;2 -->
<g id="edge41" class="edge">
<title>1&#45;&gt;2</title>
<g id="a_edge41"><a xlink:title="include">
<path fill="none" stroke="#1414ce" d="M467.41,-719.94C614.6,-691.54 907.07,-635.12 1042.75,-608.94"/>
<polygon fill="#1414ce" stroke="#1414ce" points="1043.48,-612.36 1052.64,-607.03 1042.16,-605.49 1043.48,-612.36"/>
</a>
</g>
</g>
<!-- 30 -->
<g id="node24" class="node">
<title>30</title>
<g id="a_node24"><a xlink:title="bitstring.h">
<polygon fill="#ffffff" stroke="black" points="162,-540 70,-540 70,-504 162,-504 162,-540"/>
<text text-anchor="middle" x="116" y="-518.3" font-family="Times,serif" font-size="14.00">bitstring.h</text>
</a>
</g>
</g>
<!-- 1&#45;&gt;30 -->
<g id="edge48" class="edge">
<title>1&#45;&gt;30</title>
<g id="a_edge48"><a xlink:title="include">
<path fill="none" stroke="#1414ce" d="M240.57,-719.92C216.98,-711.96 194.24,-700.48 176,-684 137.19,-648.93 123.39,-586.36 118.56,-550.42"/>
<polygon fill="#1414ce" stroke="#1414ce" points="121.99,-549.69 117.32,-540.18 115.04,-550.53 121.99,-549.69"/>
</a>
</g>
</g>
<!-- 31 -->
<g id="node26" class="node">
<title>31</title>
<g id="a_node26"><a xlink:title="unicode.h">
<polygon fill="#ffffff" stroke="black" points="152,-180 66,-180 66,-144 152,-144 152,-180"/>
<text text-anchor="middle" x="109" y="-158.3" font-family="Times,serif" font-size="14.00">unicode.h</text>
</a>
</g>
</g>
<!-- 1&#45;&gt;31 -->
<g id="edge49" class="edge">
<title>1&#45;&gt;31</title>
<g id="a_edge49"><a xlink:title="include">
<path fill="none" stroke="#1414ce" d="M255.02,-719.94C218.69,-712.02 179.7,-700.55 146,-684 90.17,-656.58 38,-657.2 38,-595 38,-595 38,-595 38,-521 38,-395.17 80.72,-249.14 99.89,-189.96"/>
<polygon fill="#1414ce" stroke="#1414ce" points="103.28,-190.86 103.07,-180.27 96.62,-188.68 103.28,-190.86"/>
</a>
</g>
</g>
<!-- 1&#45;&gt;7 -->
<g id="edge46" class="edge">
<title>1&#45;&gt;7</title>
<g id="a_edge46"><a xlink:title="include">
<path fill="none" stroke="#1414ce" d="M578.61,-732.64C911.52,-722.67 1544,-691.08 1544,-595 1544,-595 1544,-595 1544,-449 1544,-378.01 1503.26,-189.77 1449,-144 1402.73,-104.97 1238.76,-117.62 1179,-108 1163.57,-105.52 1146.71,-102.43 1131.81,-99.58"/>
<polygon fill="#1414ce" stroke="#1414ce" points="1132.32,-96.11 1121.84,-97.65 1130.99,-102.98 1132.32,-96.11"/>
</a>
</g>
</g>
<!-- 26 -->
<g id="node18" class="node">
<title>26</title>
<g id="a_node18"><a xlink:title="atom_table.h">
<polygon fill="#ffffff" stroke="black" points="927.5,-252 818.5,-252 818.5,-216 927.5,-216 927.5,-252"/>
<text text-anchor="middle" x="873" y="-230.3" font-family="Times,serif" font-size="14.00">atom_table.h</text>
</a>
</g>
</g>
<!-- 26&#45;&gt;5 -->
<g id="edge51" class="edge">
<title>26&#45;&gt;5</title>
<g id="a_edge51"><a xlink:title="include">
<path fill="none" stroke="#1414ce" d="M864.64,-215.89C853.68,-195.37 832.45,-161.56 804,-144 736.89,-102.58 643.97,-92.58 586.76,-90.67"/>
<polygon fill="#1414ce" stroke="#1414ce" points="586.59,-87.16 576.5,-90.4 586.41,-94.16 586.59,-87.16"/>
</a>
</g>
</g>
<!-- 26&#45;&gt;25 -->
<g id="edge52" class="edge">
<title>26&#45;&gt;25</title>
<g id="a_edge52"><a xlink:title="include">
<path fill="none" stroke="#1414ce" d="M892.53,-215.7C902.38,-206.97 914.49,-196.24 925.2,-186.75"/>
<polygon fill="#1414ce" stroke="#1414ce" points="927.53,-189.36 932.7,-180.1 922.89,-184.12 927.53,-189.36"/>
</a>
</g>
</g>
<!-- 2&#45;&gt;3 -->
<g id="edge53" class="edge">
<title>2&#45;&gt;3</title>
<g id="a_edge53"><a xlink:title="include">
<path fill="none" stroke="#1414ce" d="M1112.95,-575.87C1110.05,-551.67 1104.73,-507.21 1101.28,-478.39"/>
<polygon fill="#1414ce" stroke="#1414ce" points="1104.72,-477.7 1100.06,-468.19 1097.77,-478.53 1104.72,-477.7"/>
</a>
</g>
</g>
<!-- 12&#45;&gt;13 -->
<g id="edge54" class="edge">
<title>12&#45;&gt;13</title>
<g id="a_edge54"><a xlink:title="include">
<path fill="none" stroke="#1414ce" d="M1522.46,-71.88C1535.3,-62.89 1551.2,-51.76 1565.09,-42.03"/>
<polygon fill="#1414ce" stroke="#1414ce" points="1567.26,-44.79 1573.44,-36.19 1563.24,-39.06 1567.26,-44.79"/>
</a>
</g>
</g>
<!-- 12&#45;&gt;6 -->
<g id="edge57" class="edge">
<title>12&#45;&gt;6</title>
<g id="a_edge57"><a xlink:title="include">
<path fill="none" stroke="#1414ce" d="M1435.49,-74.61C1430.6,-73.66 1425.73,-72.78 1421,-72 1260.77,-45.64 1068.54,-29.04 982.09,-22.36"/>
<polygon fill="#1414ce" stroke="#1414ce" points="982.32,-18.87 972.08,-21.6 981.78,-25.85 982.32,-18.87"/>
</a>
</g>
</g>
<!-- 12&#45;&gt;14 -->
<g id="edge55" class="edge">
<title>12&#45;&gt;14</title>
<g id="a_edge55"><a xlink:title="include">
<path fill="none" stroke="#1414ce" d="M1474.03,-71.88C1461.45,-62.89 1445.87,-51.76 1432.25,-42.03"/>
<polygon fill="#1414ce" stroke="#1414ce" points="1434.24,-39.15 1424.07,-36.19 1430.17,-44.85 1434.24,-39.15"/>
</a>
</g>
</g>
<!-- 15 -->
<g id="node31" class="node">
<title>15</title>
<g id="a_node31"><a xlink:title="inttypes.h">
<polygon fill="#ffffff" stroke="black" points="1542.5,-36 1453.5,-36 1453.5,0 1542.5,0 1542.5,-36"/>
<text text-anchor="middle" x="1498" y="-14.3" font-family="Times,serif" font-size="14.00">inttypes.h</text>
</a>
</g>
</g>
<!-- 12&#45;&gt;15 -->
<g id="edge56" class="edge">
<title>12&#45;&gt;15</title>
<g id="a_edge56"><a xlink:title="include">
<path fill="none" stroke="#1414ce" d="M1498,-71.7C1498,-63.98 1498,-54.71 1498,-46.11"/>
<polygon fill="#1414ce" stroke="#1414ce" points="1501.5,-46.1 1498,-36.1 1494.5,-46.1 1501.5,-46.1"/>
</a>
</g>
</g>
<!-- 24&#45;&gt;25 -->
<g id="edge59" class="edge">
<title>24&#45;&gt;25</title>
<g id="a_edge59"><a xlink:title="include">
<path fill="none" stroke="#1414ce" d="M665.56,-575.78C693.59,-551.28 739,-503.5 739,-451 739,-451 739,-451 739,-377 739,-328.54 762.24,-315.71 802,-288 852.59,-252.74 894.28,-297.41 936,-252 951.15,-235.52 954.38,-209.78 954.28,-190.22"/>
<polygon fill="#1414ce" stroke="#1414ce" points="957.77,-189.96 953.93,-180.08 950.78,-190.2 957.77,-189.96"/>
</a>
</g>
</g>
<!-- 24&#45;&gt;21 -->
<g id="edge66" class="edge">
<title>24&#45;&gt;21</title>
<g id="a_edge66"><a xlink:title="include">
<path fill="none" stroke="#1414ce" d="M585.65,-575.95C566.78,-567.82 547.32,-556.22 534,-540 508.08,-508.42 511,-491.86 511,-451 511,-451 511,-451 511,-377 511,-336.9 518.15,-290.92 523.44,-262.42"/>
<polygon fill="#1414ce" stroke="#1414ce" points="526.92,-262.88 525.36,-252.4 520.04,-261.56 526.92,-262.88"/>
</a>
</g>
</g>
<!-- 24&#45;&gt;19 -->
<g id="edge63" class="edge">
<title>24&#45;&gt;19</title>
<g id="a_edge63"><a xlink:title="include">
<path fill="none" stroke="#1414ce" d="M640.16,-575.61C634.6,-548.94 625,-496.27 625,-451 625,-451 625,-451 625,-377 625,-309.2 610.53,-230.4 602.03,-189.97"/>
<polygon fill="#1414ce" stroke="#1414ce" points="605.43,-189.13 599.91,-180.09 598.59,-190.6 605.43,-189.13"/>
</a>
</g>
</g>
<!-- 24&#45;&gt;6 -->
<g id="edge58" class="edge">
<title>24&#45;&gt;6</title>
<g id="a_edge58"><a xlink:title="include">
<path fill="none" stroke="#1414ce" d="M707.68,-589.45C794.68,-583.69 955.15,-569.81 1089,-540 1369.07,-477.63 1658,-521.93 1658,-235 1658,-235 1658,-235 1658,-161 1658,-105.37 1620.39,-95.55 1570,-72 1517.16,-47.3 1119.82,-27.28 982.51,-21.03"/>
<polygon fill="#1414ce" stroke="#1414ce" points="982.46,-17.52 972.32,-20.57 982.15,-24.52 982.46,-17.52"/>
</a>
</g>
</g>
<!-- 24&#45;&gt;3 -->
<g id="edge67" class="edge">
<title>24&#45;&gt;3</title>
<g id="a_edge67"><a xlink:title="include">
<path fill="none" stroke="#1414ce" d="M698.76,-575.87C790.55,-547.16 973.47,-489.95 1055.95,-464.15"/>
<polygon fill="#1414ce" stroke="#1414ce" points="1056.99,-467.49 1065.49,-461.17 1054.9,-460.81 1056.99,-467.49"/>
</a>
</g>
</g>
<!-- 24&#45;&gt;11 -->
<g id="edge61" class="edge">
<title>24&#45;&gt;11</title>
<g id="a_edge61"><a xlink:title="include">
<path fill="none" stroke="#1414ce" d="M707.61,-590.7C836.55,-582.83 1131.91,-548.22 1314,-396 1370.85,-348.48 1378.17,-323.39 1398,-252 1403.62,-231.78 1404.68,-208 1404.45,-190.12"/>
<polygon fill="#1414ce" stroke="#1414ce" points="1407.95,-189.98 1404.17,-180.08 1400.95,-190.17 1407.95,-189.98"/>
</a>
</g>
</g>
<!-- 24&#45;&gt;26 -->
<g id="edge60" class="edge">
<title>24&#45;&gt;26</title>
<g id="a_edge60"><a xlink:title="include">
<path fill="none" stroke="#1414ce" d="M647.84,-575.61C653.4,-548.94 663,-496.27 663,-451 663,-451 663,-451 663,-377 663,-305.77 746.93,-267.85 808.67,-249.59"/>
<polygon fill="#1414ce" stroke="#1414ce" points="809.71,-252.93 818.37,-246.83 807.8,-246.2 809.71,-252.93"/>
</a>
</g>
</g>
<!-- 24&#45;&gt;22 -->
<g id="edge65" class="edge">
<title>24&#45;&gt;22</title>
<g id="a_edge65"><a xlink:title="include">
<path fill="none" stroke="#1414ce" d="M580.27,-580.97C555.4,-573.2 528.66,-560.55 511,-540 422.65,-437.23 434.51,-258.64 442.94,-190.5"/>
<polygon fill="#1414ce" stroke="#1414ce" points="446.46,-190.55 444.3,-180.18 439.52,-189.63 446.46,-190.55"/>
</a>
</g>
</g>
<!-- 24&#45;&gt;29 -->
<g id="edge68" class="edge">
<title>24&#45;&gt;29</title>
<g id="a_edge68"><a xlink:title="include">
<path fill="none" stroke="#1414ce" d="M580.35,-588.71C538.04,-583.04 483.26,-569.97 444,-540 346.91,-465.88 293.64,-322.03 274.87,-262.16"/>
<polygon fill="#1414ce" stroke="#1414ce" points="278.13,-260.86 271.86,-252.32 271.43,-262.91 278.13,-260.86"/>
</a>
</g>
</g>
<!-- 24&#45;&gt;28 -->
<g id="edge64" class="edge">
<title>24&#45;&gt;28</title>
<g id="a_edge64"><a xlink:title="include">
<path fill="none" stroke="#1414ce" d="M701.44,-575.89C720.22,-567.74 739.66,-556.14 753,-540 779.1,-508.42 777,-491.97 777,-451 777,-451 777,-451 777,-377 777,-317.5 825.77,-318.25 877,-288 893.85,-278.05 937.99,-262.88 974.06,-251.32"/>
<polygon fill="#1414ce" stroke="#1414ce" points="975.52,-254.52 983.99,-248.16 973.39,-247.85 975.52,-254.52"/>
</a>
</g>
</g>
<!-- 27 -->
<g id="node30" class="node">
<title>27</title>
<g id="a_node30"><a xlink:title="ets.h">
<polygon fill="#ffffff" stroke="black" points="597,-540 543,-540 543,-504 597,-504 597,-540"/>
<text text-anchor="middle" x="570" y="-518.3" font-family="Times,serif" font-size="14.00">ets.h</text>
</a>
</g>
</g>
<!-- 24&#45;&gt;27 -->
<g id="edge62" class="edge">
<title>24&#45;&gt;27</title>
<g id="a_edge62"><a xlink:title="include">
<path fill="none" stroke="#1414ce" d="M625.71,-575.7C616.57,-567.05 605.36,-556.45 595.4,-547.03"/>
<polygon fill="#1414ce" stroke="#1414ce" points="597.75,-544.43 588.08,-540.1 592.94,-549.52 597.75,-544.43"/>
</a>
</g>
</g>
<!-- 30&#45;&gt;5 -->
<g id="edge71" class="edge">
<title>30&#45;&gt;5</title>
<g id="a_edge71"><a xlink:title="include">
<path fill="none" stroke="#1414ce" d="M123.29,-503.87C133.8,-477.53 152,-425.29 152,-379 152,-379 152,-379 152,-305 152,-223.02 170.21,-183.58 242,-144 318.6,-101.76 421.95,-92.21 483.22,-90.58"/>
<polygon fill="#1414ce" stroke="#1414ce" points="483.49,-94.08 493.42,-90.37 483.35,-87.08 483.49,-94.08"/>
</a>
</g>
</g>
<!-- 30&#45;&gt;6 -->
<g id="edge72" class="edge">
<title>30&#45;&gt;6</title>
<g id="a_edge72"><a xlink:title="include">
<path fill="none" stroke="#1414ce" d="M104.99,-503.75C83.49,-468.34 38,-384.31 38,-307 38,-307 38,-307 38,-161 38,-104.43 77.34,-95.06 129,-72 198.47,-40.98 728.77,-24.5 889.79,-20.17"/>
<polygon fill="#1414ce" stroke="#1414ce" points="889.95,-23.67 899.85,-19.9 889.76,-16.67 889.95,-23.67"/>
</a>
</g>
</g>
<!-- 30&#45;&gt;3 -->
<g id="edge69" class="edge">
<title>30&#45;&gt;3</title>
<g id="a_edge69"><a xlink:title="include">
<path fill="none" stroke="#1414ce" d="M162.05,-517.72C328.09,-505.88 894.72,-465.49 1055.28,-454.05"/>
<polygon fill="#1414ce" stroke="#1414ce" points="1055.53,-457.54 1065.26,-453.33 1055.04,-450.55 1055.53,-457.54"/>
</a>
</g>
</g>
<!-- 30&#45;&gt;31 -->
<g id="edge70" class="edge">
<title>30&#45;&gt;31</title>
<g id="a_edge70"><a xlink:title="include">
<path fill="none" stroke="#1414ce" d="M115.6,-503.95C115.02,-477.29 114,-424.12 114,-379 114,-379 114,-379 114,-305 114,-264.97 111.99,-218.63 110.52,-190.07"/>
<polygon fill="#1414ce" stroke="#1414ce" points="114.01,-189.84 109.99,-180.04 107.02,-190.21 114.01,-189.84"/>
</a>
</g>
</g>
<!-- 22&#45;&gt;5 -->
<g id="edge73" class="edge">
<title>22&#45;&gt;5</title>
<g id="a_edge73"><a xlink:title="include">
<path fill="none" stroke="#1414ce" d="M468.75,-143.7C479.84,-134.88 493.47,-124.03 505.49,-114.47"/>
<polygon fill="#1414ce" stroke="#1414ce" points="507.85,-117.07 513.5,-108.1 503.49,-111.59 507.85,-117.07"/>
</a>
</g>
</g>
<!-- 31&#45;&gt;5 -->
<g id="edge74" class="edge">
<title>31&#45;&gt;5</title>
<g id="a_edge74"><a xlink:title="include">
<path fill="none" stroke="#1414ce" d="M152.01,-153.13C168.28,-150.2 186.99,-146.88 204,-144 302.72,-127.27 418.25,-109.09 483.4,-98.96"/>
<polygon fill="#1414ce" stroke="#1414ce" points="484.07,-102.4 493.42,-97.41 483,-95.48 484.07,-102.4"/>
</a>
</g>
</g>
<!-- 31&#45;&gt;6 -->
<g id="edge76" class="edge">
<title>31&#45;&gt;6</title>
<g id="a_edge76"><a xlink:title="include">
<path fill="none" stroke="#1414ce" d="M114.61,-143.74C122.45,-122.73 138.85,-88.09 166,-72 228.19,-35.15 732.65,-22.77 889.58,-19.78"/>
<polygon fill="#1414ce" stroke="#1414ce" points="889.91,-23.28 899.84,-19.59 889.78,-16.28 889.91,-23.28"/>
</a>
</g>
</g>
<!-- 31&#45;&gt;17 -->
<g id="edge75" class="edge">
<title>31&#45;&gt;17</title>
<g id="a_edge75"><a xlink:title="include">
<path fill="none" stroke="#1414ce" d="M152.02,-157.62C301.54,-145.89 797.91,-106.94 953.76,-94.71"/>
<polygon fill="#1414ce" stroke="#1414ce" points="954.26,-98.18 963.95,-93.91 953.71,-91.2 954.26,-98.18"/>
</a>
</g>
</g>
<!-- 29&#45;&gt;5 -->
<g id="edge77" class="edge">
<title>29&#45;&gt;5</title>
<g id="a_edge77"><a xlink:title="include">
<path fill="none" stroke="#1414ce" d="M291.22,-215.95C318.73,-197 365.36,-166.16 408,-144 432.32,-131.37 460.34,-119.41 483.86,-110.07"/>
<polygon fill="#1414ce" stroke="#1414ce" points="485.28,-113.27 493.31,-106.36 482.72,-106.76 485.28,-113.27"/>
</a>
</g>
</g>
<!-- 29&#45;&gt;19 -->
<g id="edge79" class="edge">
<title>29&#45;&gt;19</title>
<g id="a_edge79"><a xlink:title="include">
<path fill="none" stroke="#1414ce" d="M316.25,-222.52C382.54,-208.42 499.01,-183.64 558.59,-170.96"/>
<polygon fill="#1414ce" stroke="#1414ce" points="559.63,-174.32 568.68,-168.81 558.17,-167.47 559.63,-174.32"/>
</a>
</g>
</g>
<!-- 29&#45;&gt;6 -->
<g id="edge78" class="edge">
<title>29&#45;&gt;6</title>
<g id="a_edge78"><a xlink:title="include">
<path fill="none" stroke="#1414ce" d="M278.93,-215.88C293.03,-196.59 317.99,-165.16 345,-144 399.77,-101.09 417.48,-92.38 484,-72 627.44,-28.05 806.76,-20.14 889.82,-18.98"/>
<polygon fill="#1414ce" stroke="#1414ce" points="889.98,-22.48 899.94,-18.87 889.9,-15.48 889.98,-22.48"/>
</a>
</g>
</g>
<!-- 28&#45;&gt;5 -->
<g id="edge80" class="edge">
<title>28&#45;&gt;5</title>
<g id="a_edge80"><a xlink:title="include">
<path fill="none" stroke="#1414ce" d="M988.39,-215.89C965.51,-205.66 936,-192.3 910,-180 877.3,-164.53 871.38,-155.24 837,-144 751.86,-116.17 648.17,-102.03 587.1,-95.6"/>
<polygon fill="#1414ce" stroke="#1414ce" points="587.24,-92.1 576.94,-94.56 586.53,-99.06 587.24,-92.1"/>
</a>
</g>
</g>
<!-- 28&#45;&gt;16 -->
<g id="edge83" class="edge">
<title>28&#45;&gt;16</title>
<g id="a_edge83"><a xlink:title="include">
<path fill="none" stroke="#1414ce" d="M1042.33,-215.7C1049.76,-207.3 1058.82,-197.07 1066.98,-187.86"/>
<polygon fill="#1414ce" stroke="#1414ce" points="1069.84,-189.91 1073.85,-180.1 1064.6,-185.27 1069.84,-189.91"/>
</a>
</g>
</g>
<!-- 28&#45;&gt;19 -->
<g id="edge81" class="edge">
<title>28&#45;&gt;19</title>
<g id="a_edge81"><a xlink:title="include">
<path fill="none" stroke="#1414ce" d="M984,-224.69C968.85,-221.84 951.68,-218.69 936,-216 826.34,-197.22 696.31,-177.71 633.57,-168.48"/>
<polygon fill="#1414ce" stroke="#1414ce" points="633.77,-164.97 623.37,-166.98 632.75,-171.9 633.77,-164.97"/>
</a>
</g>
</g>
<!-- 28&#45;&gt;12 -->
<g id="edge82" class="edge">
<title>28&#45;&gt;12</title>
<g id="a_edge82"><a xlink:title="include">
<path fill="none" stroke="#1414ce" d="M1070.05,-220.02C1152.6,-195.13 1333.65,-140.55 1431.73,-110.98"/>
<polygon fill="#1414ce" stroke="#1414ce" points="1432.97,-114.26 1441.53,-108.02 1430.95,-107.56 1432.97,-114.26"/>
</a>
</g>
</g>
<!-- 27&#45;&gt;21 -->
<g id="edge85" class="edge">
<title>27&#45;&gt;21</title>
<g id="a_edge85"><a xlink:title="include">
<path fill="none" stroke="#1414ce" d="M567.56,-503.97C560.71,-456.19 541.27,-320.62 532.91,-262.27"/>
<polygon fill="#1414ce" stroke="#1414ce" points="536.36,-261.71 531.48,-252.31 529.44,-262.7 536.36,-261.71"/>
</a>
</g>
</g>
<!-- 27&#45;&gt;19 -->
<g id="edge84" class="edge">
<title>27&#45;&gt;19</title>
<g id="a_edge84"><a xlink:title="include">
<path fill="none" stroke="#1414ce" d="M571.25,-503.73C575.43,-446.19 588.91,-260.66 594.01,-190.35"/>
<polygon fill="#1414ce" stroke="#1414ce" points="597.52,-190.32 594.76,-180.09 590.54,-189.81 597.52,-190.32"/>
</a>
</g>
</g>
<!-- 27&#45;&gt;3 -->
<g id="edge86" class="edge">
<title>27&#45;&gt;3</title>
<g id="a_edge86"><a xlink:title="include">
<path fill="none" stroke="#1414ce" d="M597.28,-517.38C683.43,-505.96 950.23,-470.59 1055.07,-456.69"/>
<polygon fill="#1414ce" stroke="#1414ce" points="1055.83,-460.12 1065.28,-455.34 1054.91,-453.18 1055.83,-460.12"/>
</a>
</g>
</g>
</g>
</svg>
