<?xml version="1.0" encoding="UTF-8" standalone="no"?>
<!DOCTYPE svg PUBLIC "-//W3C//DTD SVG 1.1//EN"
 "http://www.w3.org/Graphics/SVG/1.1/DTD/svg11.dtd">
<!-- Generated by graphviz version 2.43.0 (0)
 -->
<!-- Title: %3 Pages: 1 -->
<svg width="881pt" height="476pt"
 viewBox="0.00 0.00 881.00 476.00" xmlns="http://www.w3.org/2000/svg" xmlns:xlink="http://www.w3.org/1999/xlink">
<g id="graph0" class="graph" transform="scale(1 1) rotate(0) translate(4 472)">
<title>%3</title>
<polygon fill="transparent" stroke="transparent" points="-4,4 -4,-472 877,-472 877,4 -4,4"/>
<!-- 3 -->
<g id="node1" class="node">
<title>3</title>
<g id="a_node1"><a xlink:title="stdbool.h">
<polygon fill="#ffffff" stroke="black" points="108.5,-108 25.5,-108 25.5,-72 108.5,-72 108.5,-108"/>
<text text-anchor="middle" x="67" y="-86.3" font-family="Times,serif" font-size="14.00">stdbool.h</text>
</a>
</g>
</g>
<!-- 16 -->
<g id="node2" class="node">
<title>16</title>
<g id="a_node2"><a xlink:title="refc_binary.h">
<polygon fill="#ffffff" stroke="black" points="206,-396 98,-396 98,-360 206,-360 206,-396"/>
<text text-anchor="middle" x="152" y="-374.3" font-family="Times,serif" font-size="14.00">refc_binary.h</text>
</a>
</g>
</g>
<!-- 16&#45;&gt;3 -->
<g id="edge1" class="edge">
<title>16&#45;&gt;3</title>
<g id="a_edge1"><a xlink:title="include">
<path fill="none" stroke="#1414ce" d="M140.54,-359.78C119.29,-326.68 74.52,-251.13 59,-180 54.54,-159.57 57,-135.98 60.32,-118.22"/>
<polygon fill="#1414ce" stroke="#1414ce" points="63.78,-118.76 62.39,-108.25 56.93,-117.33 63.78,-118.76"/>
</a>
</g>
</g>
<!-- 17 -->
<g id="node6" class="node">
<title>17</title>
<g id="a_node6"><a xlink:title="list.h">
<polygon fill="#ffffff" stroke="black" points="122,-180 68,-180 68,-144 122,-144 122,-180"/>
<text text-anchor="middle" x="95" y="-158.3" font-family="Times,serif" font-size="14.00">list.h</text>
</a>
</g>
</g>
<!-- 16&#45;&gt;17 -->
<g id="edge3" class="edge">
<title>16&#45;&gt;17</title>
<g id="a_edge3"><a xlink:title="include">
<path fill="none" stroke="#1414ce" d="M147.43,-359.85C137.55,-322.75 114.13,-234.81 102.22,-190.1"/>
<polygon fill="#1414ce" stroke="#1414ce" points="105.55,-188.99 99.59,-180.23 98.78,-190.8 105.55,-188.99"/>
</a>
</g>
</g>
<!-- 6 -->
<g id="node8" class="node">
<title>6</title>
<g id="a_node8"><a xlink:title="stdlib.h">
<polygon fill="#ffffff" stroke="black" points="366.5,-108 295.5,-108 295.5,-72 366.5,-72 366.5,-108"/>
<text text-anchor="middle" x="331" y="-86.3" font-family="Times,serif" font-size="14.00">stdlib.h</text>
</a>
</g>
</g>
<!-- 16&#45;&gt;6 -->
<g id="edge2" class="edge">
<title>16&#45;&gt;6</title>
<g id="a_edge2"><a xlink:title="include">
<path fill="none" stroke="#1414ce" d="M148.31,-359.79C140.36,-317.77 126.29,-208.71 178,-144 203.8,-111.72 250.41,-99.04 285.43,-94.09"/>
<polygon fill="#1414ce" stroke="#1414ce" points="285.94,-97.55 295.43,-92.84 285.08,-90.6 285.94,-97.55"/>
</a>
</g>
</g>
<!-- 18 -->
<g id="node10" class="node">
<title>18</title>
<g id="a_node10"><a xlink:title="resources.h">
<polygon fill="#ffffff" stroke="black" points="311,-324 211,-324 211,-288 311,-288 311,-324"/>
<text text-anchor="middle" x="261" y="-302.3" font-family="Times,serif" font-size="14.00">resources.h</text>
</a>
</g>
</g>
<!-- 16&#45;&gt;18 -->
<g id="edge4" class="edge">
<title>16&#45;&gt;18</title>
<g id="a_edge4"><a xlink:title="include">
<path fill="none" stroke="#1414ce" d="M178.66,-359.88C192.78,-350.81 210.31,-339.55 225.56,-329.76"/>
<polygon fill="#1414ce" stroke="#1414ce" points="227.71,-332.54 234.23,-324.19 223.93,-326.65 227.71,-332.54"/>
</a>
</g>
</g>
<!-- 11 -->
<g id="node3" class="node">
<title>11</title>
<g id="a_node3"><a xlink:title="assert.h">
<polygon fill="#ffffff" stroke="black" points="344,-36 270,-36 270,0 344,0 344,-36"/>
<text text-anchor="middle" x="307" y="-14.3" font-family="Times,serif" font-size="14.00">assert.h</text>
</a>
</g>
</g>
<!-- 14 -->
<g id="node4" class="node">
<title>14</title>
<g id="a_node4"><a xlink:title="utils.h">
<polygon fill="#ffffff" stroke="black" points="704,-180 642,-180 642,-144 704,-144 704,-180"/>
<text text-anchor="middle" x="673" y="-158.3" font-family="Times,serif" font-size="14.00">utils.h</text>
</a>
</g>
</g>
<!-- 14&#45;&gt;6 -->
<g id="edge7" class="edge">
<title>14&#45;&gt;6</title>
<g id="a_edge7"><a xlink:title="include">
<path fill="none" stroke="#1414ce" d="M641.67,-157.45C588.59,-150.99 477.62,-135.64 376.57,-108.19"/>
<polygon fill="#1414ce" stroke="#1414ce" points="377.4,-104.78 366.83,-105.49 375.53,-111.53 377.4,-104.78"/>
</a>
</g>
</g>
<!-- 15 -->
<g id="node12" class="node">
<title>15</title>
<g id="a_node12"><a xlink:title="stddef.h">
<polygon fill="#ffffff" stroke="black" points="768,-108 694,-108 694,-72 768,-72 768,-108"/>
<text text-anchor="middle" x="731" y="-86.3" font-family="Times,serif" font-size="14.00">stddef.h</text>
</a>
</g>
</g>
<!-- 14&#45;&gt;15 -->
<g id="edge5" class="edge">
<title>14&#45;&gt;15</title>
<g id="a_edge5"><a xlink:title="include">
<path fill="none" stroke="#1414ce" d="M687.34,-143.7C694.29,-135.3 702.77,-125.07 710.4,-115.86"/>
<polygon fill="#1414ce" stroke="#1414ce" points="713.14,-118.04 716.83,-108.1 707.75,-113.57 713.14,-118.04"/>
</a>
</g>
</g>
<!-- 5 -->
<g id="node19" class="node">
<title>5</title>
<g id="a_node19"><a xlink:title="stdio.h">
<polygon fill="#ffffff" stroke="black" points="675.5,-108 610.5,-108 610.5,-72 675.5,-72 675.5,-108"/>
<text text-anchor="middle" x="643" y="-86.3" font-family="Times,serif" font-size="14.00">stdio.h</text>
</a>
</g>
</g>
<!-- 14&#45;&gt;5 -->
<g id="edge6" class="edge">
<title>14&#45;&gt;5</title>
<g id="a_edge6"><a xlink:title="include">
<path fill="none" stroke="#1414ce" d="M665.58,-143.7C662.21,-135.81 658.13,-126.3 654.38,-117.55"/>
<polygon fill="#1414ce" stroke="#1414ce" points="657.49,-115.92 650.33,-108.1 651.05,-118.67 657.49,-115.92"/>
</a>
</g>
</g>
<!-- 19 -->
<g id="node5" class="node">
<title>19</title>
<g id="a_node5"><a xlink:title="synclist.h">
<polygon fill="#ffffff" stroke="black" points="265.5,-252 180.5,-252 180.5,-216 265.5,-216 265.5,-252"/>
<text text-anchor="middle" x="223" y="-230.3" font-family="Times,serif" font-size="14.00">synclist.h</text>
</a>
</g>
</g>
<!-- 19&#45;&gt;17 -->
<g id="edge9" class="edge">
<title>19&#45;&gt;17</title>
<g id="a_edge9"><a xlink:title="include">
<path fill="none" stroke="#1414ce" d="M191.69,-215.88C173.37,-205.86 150.17,-193.17 131.08,-182.73"/>
<polygon fill="#1414ce" stroke="#1414ce" points="132.54,-179.54 122.09,-177.81 129.18,-185.68 132.54,-179.54"/>
</a>
</g>
</g>
<!-- 20 -->
<g id="node18" class="node">
<title>20</title>
<g id="a_node18"><a xlink:title="smp.h">
<polygon fill="#ffffff" stroke="black" points="247,-180 187,-180 187,-144 247,-144 247,-180"/>
<text text-anchor="middle" x="217" y="-158.3" font-family="Times,serif" font-size="14.00">smp.h</text>
</a>
</g>
</g>
<!-- 19&#45;&gt;20 -->
<g id="edge10" class="edge">
<title>19&#45;&gt;20</title>
<g id="a_edge10"><a xlink:title="include">
<path fill="none" stroke="#1414ce" d="M221.52,-215.7C220.86,-207.98 220.06,-198.71 219.32,-190.11"/>
<polygon fill="#1414ce" stroke="#1414ce" points="222.81,-189.77 218.47,-180.1 215.83,-190.37 222.81,-189.77"/>
</a>
</g>
</g>
<!-- 19&#45;&gt;5 -->
<g id="edge8" class="edge">
<title>19&#45;&gt;5</title>
<g id="a_edge8"><a xlink:title="include">
<path fill="none" stroke="#1414ce" d="M265.83,-225.09C310.65,-216.26 382.74,-200.48 443,-180 499.3,-160.87 561.49,-131.88 601.34,-112.23"/>
<polygon fill="#1414ce" stroke="#1414ce" points="603.07,-115.27 610.47,-107.69 599.96,-109 603.07,-115.27"/>
</a>
</g>
</g>
<!-- 17&#45;&gt;3 -->
<g id="edge11" class="edge">
<title>17&#45;&gt;3</title>
<g id="a_edge11"><a xlink:title="include">
<path fill="none" stroke="#1414ce" d="M88.08,-143.7C84.93,-135.81 81.12,-126.3 77.62,-117.55"/>
<polygon fill="#1414ce" stroke="#1414ce" points="80.81,-116.09 73.84,-108.1 74.31,-118.69 80.81,-116.09"/>
</a>
</g>
</g>
<!-- 4 -->
<g id="node7" class="node">
<title>4</title>
<g id="a_node7"><a xlink:title="stdint.h">
<polygon fill="#ffffff" stroke="black" points="631,-36 559,-36 559,0 631,0 631,-36"/>
<text text-anchor="middle" x="595" y="-14.3" font-family="Times,serif" font-size="14.00">stdint.h</text>
</a>
</g>
</g>
<!-- 8 -->
<g id="node9" class="node">
<title>8</title>
<g id="a_node9"><a xlink:title="memory.h">
<polygon fill="#ffffff" stroke="black" points="524,-252 438,-252 438,-216 524,-216 524,-252"/>
<text text-anchor="middle" x="481" y="-230.3" font-family="Times,serif" font-size="14.00">memory.h</text>
</a>
</g>
</g>
<!-- 8&#45;&gt;14 -->
<g id="edge16" class="edge">
<title>8&#45;&gt;14</title>
<g id="a_edge16"><a xlink:title="include">
<path fill="none" stroke="#1414ce" d="M524.16,-217.63C553.48,-207.14 593.13,-192.87 628,-180 629.37,-179.49 630.76,-178.98 632.17,-178.45"/>
<polygon fill="#1414ce" stroke="#1414ce" points="633.41,-181.73 641.55,-174.95 630.96,-175.17 633.41,-181.73"/>
</a>
</g>
</g>
<!-- 8&#45;&gt;4 -->
<g id="edge12" class="edge">
<title>8&#45;&gt;4</title>
<g id="a_edge12"><a xlink:title="include">
<path fill="none" stroke="#1414ce" d="M490.14,-215.85C510.02,-178.52 557.34,-89.69 581.01,-45.26"/>
<polygon fill="#1414ce" stroke="#1414ce" points="584.21,-46.7 585.82,-36.23 578.03,-43.41 584.21,-46.7"/>
</a>
</g>
</g>
<!-- 8&#45;&gt;6 -->
<g id="edge13" class="edge">
<title>8&#45;&gt;6</title>
<g id="a_edge13"><a xlink:title="include">
<path fill="none" stroke="#1414ce" d="M477.55,-215.89C472.82,-196.31 462.57,-164.34 443,-144 433,-133.61 402.77,-119.57 376.23,-108.55"/>
<polygon fill="#1414ce" stroke="#1414ce" points="377.25,-105.19 366.67,-104.64 374.6,-111.67 377.25,-105.19"/>
</a>
</g>
</g>
<!-- 9 -->
<g id="node13" class="node">
<title>9</title>
<g id="a_node13"><a xlink:title="erl_nif.h">
<polygon fill="#ffffff" stroke="black" points="434,-180 360,-180 360,-144 434,-144 434,-180"/>
<text text-anchor="middle" x="397" y="-158.3" font-family="Times,serif" font-size="14.00">erl_nif.h</text>
</a>
</g>
</g>
<!-- 8&#45;&gt;9 -->
<g id="edge14" class="edge">
<title>8&#45;&gt;9</title>
<g id="a_edge14"><a xlink:title="include">
<path fill="none" stroke="#1414ce" d="M460.24,-215.7C449.76,-206.97 436.89,-196.24 425.5,-186.75"/>
<polygon fill="#1414ce" stroke="#1414ce" points="427.45,-183.82 417.53,-180.1 422.97,-189.19 427.45,-183.82"/>
</a>
</g>
</g>
<!-- 10 -->
<g id="node17" class="node">
<title>10</title>
<g id="a_node17"><a xlink:title="term_typedef.h">
<polygon fill="#ffffff" stroke="black" points="509.5,-108 384.5,-108 384.5,-72 509.5,-72 509.5,-108"/>
<text text-anchor="middle" x="447" y="-86.3" font-family="Times,serif" font-size="14.00">term_typedef.h</text>
</a>
</g>
</g>
<!-- 8&#45;&gt;10 -->
<g id="edge15" class="edge">
<title>8&#45;&gt;10</title>
<g id="a_edge15"><a xlink:title="include">
<path fill="none" stroke="#1414ce" d="M482.24,-215.9C483.06,-197.7 482.93,-168.25 476,-144 473.36,-134.77 468.9,-125.36 464.26,-117.08"/>
<polygon fill="#1414ce" stroke="#1414ce" points="467.15,-115.1 459.03,-108.29 461.13,-118.67 467.15,-115.1"/>
</a>
</g>
</g>
<!-- 18&#45;&gt;19 -->
<g id="edge21" class="edge">
<title>18&#45;&gt;19</title>
<g id="a_edge21"><a xlink:title="include">
<path fill="none" stroke="#1414ce" d="M251.61,-287.7C247.24,-279.64 241.94,-269.89 237.1,-260.98"/>
<polygon fill="#1414ce" stroke="#1414ce" points="240.13,-259.22 232.29,-252.1 233.98,-262.56 240.13,-259.22"/>
</a>
</g>
</g>
<!-- 18&#45;&gt;17 -->
<g id="edge19" class="edge">
<title>18&#45;&gt;17</title>
<g id="a_edge19"><a xlink:title="include">
<path fill="none" stroke="#1414ce" d="M225.9,-287.86C208.49,-278.51 187.67,-265.99 171,-252 148.59,-233.2 127.36,-207.4 113.06,-188.42"/>
<polygon fill="#1414ce" stroke="#1414ce" points="115.76,-186.18 106.99,-180.23 110.13,-190.35 115.76,-186.18"/>
</a>
</g>
</g>
<!-- 18&#45;&gt;6 -->
<g id="edge17" class="edge">
<title>18&#45;&gt;6</title>
<g id="a_edge17"><a xlink:title="include">
<path fill="none" stroke="#1414ce" d="M266.61,-287.85C278.77,-250.68 307.63,-162.44 322.23,-117.82"/>
<polygon fill="#1414ce" stroke="#1414ce" points="325.58,-118.83 325.36,-108.23 318.93,-116.65 325.58,-118.83"/>
</a>
</g>
</g>
<!-- 18&#45;&gt;8 -->
<g id="edge20" class="edge">
<title>18&#45;&gt;8</title>
<g id="a_edge20"><a xlink:title="include">
<path fill="none" stroke="#1414ce" d="M311.2,-289.03C346.09,-277.93 392.51,-263.15 428,-251.86"/>
<polygon fill="#1414ce" stroke="#1414ce" points="429.23,-255.14 437.7,-248.78 427.11,-248.47 429.23,-255.14"/>
</a>
</g>
</g>
<!-- 18&#45;&gt;9 -->
<g id="edge18" class="edge">
<title>18&#45;&gt;9</title>
<g id="a_edge18"><a xlink:title="include">
<path fill="none" stroke="#1414ce" d="M277.4,-287.87C301.3,-262.92 345.81,-216.45 373.27,-187.77"/>
<polygon fill="#1414ce" stroke="#1414ce" points="376.15,-189.83 380.54,-180.19 371.09,-184.99 376.15,-189.83"/>
</a>
</g>
</g>
<!-- 1 -->
<g id="node11" class="node">
<title>1</title>
<g id="a_node11"><a xlink:title="/__w/AtomVM/AtomVM/src/libAtomVM/term.h">
<polygon fill="#bfbfbf" stroke="black" points="741.5,-468 400.5,-468 400.5,-432 741.5,-432 741.5,-468"/>
<text text-anchor="middle" x="571" y="-446.3" font-family="Times,serif" font-size="14.00">/__w/AtomVM/AtomVM/src/libAtomVM/term.h</text>
</a>
</g>
</g>
<!-- 1&#45;&gt;3 -->
<g id="edge23" class="edge">
<title>1&#45;&gt;3</title>
<g id="a_edge23"><a xlink:title="include">
<path fill="none" stroke="#1414ce" d="M400.21,-442.14C284.29,-435.24 142.7,-421.77 89,-396 38.57,-371.8 0,-362.94 0,-307 0,-307 0,-307 0,-233 0,-188.73 26.97,-143.47 46.69,-116.3"/>
<polygon fill="#1414ce" stroke="#1414ce" points="49.6,-118.25 52.79,-108.14 44,-114.05 49.6,-118.25"/>
</a>
</g>
</g>
<!-- 1&#45;&gt;16 -->
<g id="edge29" class="edge">
<title>1&#45;&gt;16</title>
<g id="a_edge29"><a xlink:title="include">
<path fill="none" stroke="#1414ce" d="M469.04,-431.97C390.24,-418.8 283.59,-400.98 216.29,-389.74"/>
<polygon fill="#1414ce" stroke="#1414ce" points="216.69,-386.26 206.25,-388.06 215.53,-393.16 216.69,-386.26"/>
</a>
</g>
</g>
<!-- 1&#45;&gt;14 -->
<g id="edge30" class="edge">
<title>1&#45;&gt;14</title>
<g id="a_edge30"><a xlink:title="include">
<path fill="none" stroke="#1414ce" d="M577.08,-431.97C594.15,-384.09 642.66,-248.06 663.41,-189.9"/>
<polygon fill="#1414ce" stroke="#1414ce" points="666.77,-190.9 666.83,-180.31 660.17,-188.55 666.77,-190.9"/>
</a>
</g>
</g>
<!-- 1&#45;&gt;4 -->
<g id="edge24" class="edge">
<title>1&#45;&gt;4</title>
<g id="a_edge24"><a xlink:title="include">
<path fill="none" stroke="#1414ce" d="M723.67,-431.98C773.68,-423.68 821.24,-411.97 840,-396 872.13,-368.66 873,-349.19 873,-307 873,-307 873,-307 873,-161 873,-58.17 720.3,-29.77 641.24,-21.95"/>
<polygon fill="#1414ce" stroke="#1414ce" points="641.34,-18.44 631.06,-21.02 640.7,-25.41 641.34,-18.44"/>
</a>
</g>
</g>
<!-- 1&#45;&gt;6 -->
<g id="edge26" class="edge">
<title>1&#45;&gt;6</title>
<g id="a_edge26"><a xlink:title="include">
<path fill="none" stroke="#1414ce" d="M551.77,-431.97C508.41,-392.4 402.79,-289.31 351,-180 341.7,-160.38 336.63,-136.25 333.92,-118.07"/>
<polygon fill="#1414ce" stroke="#1414ce" points="337.38,-117.57 332.58,-108.13 330.45,-118.5 337.38,-117.57"/>
</a>
</g>
</g>
<!-- 1&#45;&gt;8 -->
<g id="edge28" class="edge">
<title>1&#45;&gt;8</title>
<g id="a_edge28"><a xlink:title="include">
<path fill="none" stroke="#1414ce" d="M559.01,-431.88C552.27,-421.75 544.02,-408.5 538,-396 516.18,-350.68 498.25,-294.72 488.64,-262.13"/>
<polygon fill="#1414ce" stroke="#1414ce" points="491.96,-261.04 485.81,-252.41 485.24,-262.99 491.96,-261.04"/>
</a>
</g>
</g>
<!-- 2 -->
<g id="node15" class="node">
<title>2</title>
<g id="a_node15"><a xlink:title="sys/types.h">
<polygon fill="#ffffff" stroke="black" points="715.5,-396 618.5,-396 618.5,-360 715.5,-360 715.5,-396"/>
<text text-anchor="middle" x="667" y="-374.3" font-family="Times,serif" font-size="14.00">sys/types.h</text>
</a>
</g>
</g>
<!-- 1&#45;&gt;2 -->
<g id="edge22" class="edge">
<title>1&#45;&gt;2</title>
<g id="a_edge22"><a xlink:title="include">
<path fill="none" stroke="#1414ce" d="M594.73,-431.7C606.94,-422.8 621.99,-411.82 635.18,-402.2"/>
<polygon fill="#1414ce" stroke="#1414ce" points="637.52,-404.82 643.54,-396.1 633.4,-399.17 637.52,-404.82"/>
</a>
</g>
</g>
<!-- 7 -->
<g id="node16" class="node">
<title>7</title>
<g id="a_node16"><a xlink:title="string.h">
<polygon fill="#ffffff" stroke="black" points="806.5,-396 733.5,-396 733.5,-360 806.5,-360 806.5,-396"/>
<text text-anchor="middle" x="770" y="-374.3" font-family="Times,serif" font-size="14.00">string.h</text>
</a>
</g>
</g>
<!-- 1&#45;&gt;7 -->
<g id="edge27" class="edge">
<title>1&#45;&gt;7</title>
<g id="a_edge27"><a xlink:title="include">
<path fill="none" stroke="#1414ce" d="M621.05,-431.95C648.75,-422.45 684.02,-410.24 723.73,-396.06"/>
<polygon fill="#1414ce" stroke="#1414ce" points="725.13,-399.28 733.37,-392.62 722.77,-392.69 725.13,-399.28"/>
</a>
</g>
</g>
<!-- 1&#45;&gt;10 -->
<g id="edge31" class="edge">
<title>1&#45;&gt;10</title>
<g id="a_edge31"><a xlink:title="include">
<path fill="none" stroke="#1414ce" d="M570.22,-431.84C568,-392.58 559.97,-293.63 533,-216 520.99,-181.42 514,-173.98 493,-144 486.26,-134.37 478.06,-124.48 470.47,-115.88"/>
<polygon fill="#1414ce" stroke="#1414ce" points="473.02,-113.48 463.73,-108.39 467.82,-118.16 473.02,-113.48"/>
</a>
</g>
</g>
<!-- 1&#45;&gt;5 -->
<g id="edge25" class="edge">
<title>1&#45;&gt;5</title>
<g id="a_edge25"><a xlink:title="include">
<path fill="none" stroke="#1414ce" d="M709.66,-431.99C755.53,-423.66 798.97,-411.92 815,-396 843.77,-367.44 835,-347.54 835,-307 835,-307 835,-307 835,-233 835,-195.89 741.1,-141.23 684.63,-111.72"/>
<polygon fill="#1414ce" stroke="#1414ce" points="686.06,-108.52 675.57,-107.04 682.84,-114.74 686.06,-108.52"/>
</a>
</g>
</g>
<!-- 9&#45;&gt;10 -->
<g id="edge32" class="edge">
<title>9&#45;&gt;10</title>
<g id="a_edge32"><a xlink:title="include">
<path fill="none" stroke="#1414ce" d="M409.36,-143.7C415.23,-135.47 422.37,-125.48 428.84,-116.42"/>
<polygon fill="#1414ce" stroke="#1414ce" points="431.82,-118.28 434.78,-108.1 426.12,-114.21 431.82,-118.28"/>
</a>
</g>
</g>
<!-- 12 -->
<g id="node14" class="node">
<title>12</title>
<g id="a_node14"><a xlink:title="limits.h">
<polygon fill="#ffffff" stroke="black" points="433.5,-36 362.5,-36 362.5,0 433.5,0 433.5,-36"/>
<text text-anchor="middle" x="398" y="-14.3" font-family="Times,serif" font-size="14.00">limits.h</text>
</a>
</g>
</g>
<!-- 10&#45;&gt;11 -->
<g id="edge33" class="edge">
<title>10&#45;&gt;11</title>
<g id="a_edge33"><a xlink:title="include">
<path fill="none" stroke="#1414ce" d="M412.75,-71.88C393.94,-62.47 370.42,-50.71 350.33,-40.67"/>
<polygon fill="#1414ce" stroke="#1414ce" points="351.89,-37.53 341.38,-36.19 348.76,-43.79 351.89,-37.53"/>
</a>
</g>
</g>
<!-- 10&#45;&gt;4 -->
<g id="edge36" class="edge">
<title>10&#45;&gt;4</title>
<g id="a_edge36"><a xlink:title="include">
<path fill="none" stroke="#1414ce" d="M483.2,-71.88C503.26,-62.39 528.37,-50.51 549.71,-40.42"/>
<polygon fill="#1414ce" stroke="#1414ce" points="551.37,-43.51 558.91,-36.07 548.38,-37.18 551.37,-43.51"/>
</a>
</g>
</g>
<!-- 10&#45;&gt;12 -->
<g id="edge34" class="edge">
<title>10&#45;&gt;12</title>
<g id="a_edge34"><a xlink:title="include">
<path fill="none" stroke="#1414ce" d="M434.89,-71.7C429.13,-63.47 422.14,-53.48 415.79,-44.42"/>
<polygon fill="#1414ce" stroke="#1414ce" points="418.58,-42.29 409.97,-36.1 412.84,-46.3 418.58,-42.29"/>
</a>
</g>
</g>
<!-- 13 -->
<g id="node20" class="node">
<title>13</title>
<g id="a_node20"><a xlink:title="inttypes.h">
<polygon fill="#ffffff" stroke="black" points="540.5,-36 451.5,-36 451.5,0 540.5,0 540.5,-36"/>
<text text-anchor="middle" x="496" y="-14.3" font-family="Times,serif" font-size="14.00">inttypes.h</text>
</a>
</g>
</g>
<!-- 10&#45;&gt;13 -->
<g id="edge35" class="edge">
<title>10&#45;&gt;13</title>
<g id="a_edge35"><a xlink:title="include">
<path fill="none" stroke="#1414ce" d="M459.11,-71.7C464.87,-63.47 471.86,-53.48 478.21,-44.42"/>
<polygon fill="#1414ce" stroke="#1414ce" points="481.16,-46.3 484.03,-36.1 475.42,-42.29 481.16,-46.3"/>
</a>
</g>
</g>
<!-- 20&#45;&gt;3 -->
<g id="edge37" class="edge">
<title>20&#45;&gt;3</title>
<g id="a_edge37"><a xlink:title="include">
<path fill="none" stroke="#1414ce" d="M186.65,-146.83C165.48,-136.96 136.87,-123.61 112.93,-112.43"/>
<polygon fill="#1414ce" stroke="#1414ce" points="114.21,-109.17 103.67,-108.11 111.25,-115.51 114.21,-109.17"/>
</a>
</g>
</g>
</g>
</svg>
