<?xml version="1.0" encoding="UTF-8" standalone="no"?>
<!DOCTYPE svg PUBLIC "-//W3C//DTD SVG 1.1//EN"
 "http://www.w3.org/Graphics/SVG/1.1/DTD/svg11.dtd">
<!-- Generated by graphviz version 2.43.0 (0)
 -->
<!-- Title: %3 Pages: 1 -->
<svg width="1240pt" height="476pt"
 viewBox="0.00 0.00 1240.10 476.00" xmlns="http://www.w3.org/2000/svg" xmlns:xlink="http://www.w3.org/1999/xlink">
<g id="graph0" class="graph" transform="scale(1 1) rotate(0) translate(4 472)">
<title>%3</title>
<polygon fill="transparent" stroke="transparent" points="-4,4 -4,-472 1236.1,-472 1236.1,4 -4,4"/>
<!-- 21 -->
<g id="node1" class="node">
<title>21</title>
<g id="a_node1"><a xlink:title="SpinLock">
<polygon fill="#ffffff" stroke="black" points="952.6,-324 870.6,-324 870.6,-288 952.6,-288 952.6,-324"/>
<text text-anchor="middle" x="911.6" y="-302.3" font-family="Times,serif" font-size="14.00">SpinLock</text>
</a>
</g>
</g>
<!-- 5 -->
<g id="node2" class="node">
<title>5</title>
<g id="a_node2"><a xlink:title="ResourceType">
<polygon fill="#ffffff" stroke="black" points="620.1,-180 503.1,-180 503.1,-144 620.1,-144 620.1,-180"/>
<text text-anchor="middle" x="561.6" y="-158.3" font-family="Times,serif" font-size="14.00">ResourceType</text>
</a>
</g>
</g>
<!-- 7 -->
<g id="node4" class="node">
<title>7</title>
<g id="a_node4"><a xlink:title="ListHead">
<polygon fill="#ffffff" stroke="black" points="476.1,-36 395.1,-36 395.1,0 476.1,0 476.1,-36"/>
<text text-anchor="middle" x="435.6" y="-14.3" font-family="Times,serif" font-size="14.00">ListHead</text>
</a>
</g>
</g>
<!-- 5&#45;&gt;7 -->
<g id="edge3" class="edge">
<title>5&#45;&gt;7</title>
<g id="a_edge3"><a xlink:title="usage">
<path fill="none" stroke="#1414ce" d="M555.93,-143.68C548.99,-124.48 535.76,-93.42 516.6,-72 505.93,-60.08 492.01,-49.7 478.72,-41.36"/>
<polygon fill="#1414ce" stroke="#1414ce" points="480.49,-38.34 470.11,-36.18 476.87,-44.34 480.49,-38.34"/>
</a>
</g>
</g>
<!-- 4 -->
<g id="node7" class="node">
<title>4</title>
<g id="a_node7"><a xlink:title="GlobalContext">
<polygon fill="#ffffff" stroke="black" points="661.1,-396 542.1,-396 542.1,-360 661.1,-360 661.1,-396"/>
<text text-anchor="middle" x="601.6" y="-374.3" font-family="Times,serif" font-size="14.00">GlobalContext</text>
</a>
</g>
</g>
<!-- 5&#45;&gt;4 -->
<g id="edge2" class="edge">
<title>5&#45;&gt;4</title>
<g id="a_edge2"><a xlink:title="usage">
<path fill="none" stroke="#1414ce" d="M568.7,-180.23C579.17,-217.32 595.82,-304.98 601.18,-349.71"/>
<polygon fill="#1414ce" stroke="#1414ce" points="597.72,-350.28 602.27,-359.85 604.68,-349.53 597.72,-350.28"/>
</a>
</g>
</g>
<!-- 6 -->
<g id="node20" class="node">
<title>6</title>
<g id="a_node20"><a xlink:title="SyncList">
<polygon fill="#ffffff" stroke="black" points="507.6,-108 429.6,-108 429.6,-72 507.6,-72 507.6,-108"/>
<text text-anchor="middle" x="468.6" y="-86.3" font-family="Times,serif" font-size="14.00">SyncList</text>
</a>
</g>
</g>
<!-- 5&#45;&gt;6 -->
<g id="edge1" class="edge">
<title>5&#45;&gt;6</title>
<g id="a_edge1"><a xlink:title="usage">
<path fill="none" stroke="#1414ce" d="M538.61,-143.7C526.78,-134.8 512.2,-123.82 499.42,-114.2"/>
<polygon fill="#1414ce" stroke="#1414ce" points="501.41,-111.32 491.32,-108.1 497.21,-116.91 501.41,-111.32"/>
</a>
</g>
</g>
<!-- 16 -->
<g id="node3" class="node">
<title>16</title>
<g id="a_node3"><a xlink:title="Module">
<polygon fill="#ffffff" stroke="black" points="270.6,-324 200.6,-324 200.6,-288 270.6,-288 270.6,-324"/>
<text text-anchor="middle" x="235.6" y="-302.3" font-family="Times,serif" font-size="14.00">Module</text>
</a>
</g>
</g>
<!-- 16&#45;&gt;7 -->
<g id="edge6" class="edge">
<title>16&#45;&gt;7</title>
<g id="a_edge6"><a xlink:title="usage">
<path fill="none" stroke="#1414ce" d="M256.69,-287.83C268.05,-278.01 281.9,-265.07 292.6,-252 349.04,-183.06 399.6,-89.94 422.55,-45.17"/>
<polygon fill="#1414ce" stroke="#1414ce" points="425.74,-46.62 427.15,-36.12 419.5,-43.45 425.74,-46.62"/>
</a>
</g>
</g>
<!-- 18 -->
<g id="node11" class="node">
<title>18</title>
<g id="a_node11"><a xlink:title="LiteralEntry">
<polygon fill="#ffffff" stroke="black" points="283.6,-252 179.6,-252 179.6,-216 283.6,-216 283.6,-252"/>
<text text-anchor="middle" x="231.6" y="-230.3" font-family="Times,serif" font-size="14.00">LiteralEntry</text>
</a>
</g>
</g>
<!-- 16&#45;&gt;18 -->
<g id="edge5" class="edge">
<title>16&#45;&gt;18</title>
<g id="a_edge5"><a xlink:title="usage">
<path fill="none" stroke="#1414ce" d="M234.61,-287.7C234.17,-279.98 233.64,-270.71 233.15,-262.11"/>
<polygon fill="#1414ce" stroke="#1414ce" points="236.64,-261.89 232.57,-252.1 229.65,-262.29 236.64,-261.89"/>
</a>
</g>
</g>
<!-- 17 -->
<g id="node19" class="node">
<title>17</title>
<g id="a_node19"><a xlink:title="ExportedFunction">
<polygon fill="#ffffff" stroke="black" points="161.6,-252 15.6,-252 15.6,-216 161.6,-216 161.6,-252"/>
<text text-anchor="middle" x="88.6" y="-230.3" font-family="Times,serif" font-size="14.00">ExportedFunction</text>
</a>
</g>
</g>
<!-- 16&#45;&gt;17 -->
<g id="edge4" class="edge">
<title>16&#45;&gt;17</title>
<g id="a_edge4"><a xlink:title="usage">
<path fill="none" stroke="#1414ce" d="M200.39,-288.23C180.41,-278.72 155.2,-266.71 133.77,-256.51"/>
<polygon fill="#1414ce" stroke="#1414ce" points="135.07,-253.26 124.54,-252.12 132.06,-259.58 135.07,-253.26"/>
</a>
</g>
</g>
<!-- 7&#45;&gt;7 -->
<g id="edge7" class="edge">
<title>7&#45;&gt;7</title>
<g id="a_edge7"><a xlink:title="usage">
<path fill="none" stroke="#1414ce" d="M476.33,-31.31C486.5,-30.38 494.1,-25.95 494.1,-18 494.1,-12.91 490.98,-9.26 486.06,-7.05"/>
<polygon fill="#1414ce" stroke="#1414ce" points="486.87,-3.64 476.33,-4.69 485.22,-10.45 486.87,-3.64"/>
</a>
</g>
</g>
<!-- 3 -->
<g id="node5" class="node">
<title>3</title>
<g id="a_node5"><a xlink:title="HeapFragment">
<polygon fill="#ffffff" stroke="black" points="1214.1,-36 1089.1,-36 1089.1,0 1214.1,0 1214.1,-36"/>
<text text-anchor="middle" x="1151.6" y="-14.3" font-family="Times,serif" font-size="14.00">HeapFragment</text>
</a>
</g>
</g>
<!-- 3&#45;&gt;3 -->
<g id="edge8" class="edge">
<title>3&#45;&gt;3</title>
<g id="a_edge8"><a xlink:title="usage">
<path fill="none" stroke="#1414ce" d="M1214.37,-30.55C1224.86,-28.79 1232.1,-24.61 1232.1,-18 1232.1,-13.77 1229.13,-10.53 1224.24,-8.29"/>
<polygon fill="#1414ce" stroke="#1414ce" points="1224.95,-4.85 1214.37,-5.45 1223.02,-11.58 1224.95,-4.85"/>
</a>
</g>
</g>
<!-- 14 -->
<g id="node6" class="node">
<title>14</title>
<g id="a_node6"><a xlink:title="RefcBinaryQueueItem">
<polygon fill="#ffffff" stroke="black" points="508.6,-324 334.6,-324 334.6,-288 508.6,-288 508.6,-324"/>
<text text-anchor="middle" x="421.6" y="-302.3" font-family="Times,serif" font-size="14.00">RefcBinaryQueueItem</text>
</a>
</g>
</g>
<!-- 14&#45;&gt;14 -->
<g id="edge10" class="edge">
<title>14&#45;&gt;14</title>
<g id="a_edge10"><a xlink:title="usage">
<path fill="none" stroke="#1414ce" d="M508.9,-317.68C519.59,-315.59 526.6,-311.7 526.6,-306 526.6,-302.35 523.72,-299.44 518.84,-297.27"/>
<polygon fill="#1414ce" stroke="#1414ce" points="519.48,-293.81 508.9,-294.32 517.49,-300.52 519.48,-293.81"/>
</a>
</g>
</g>
<!-- 15 -->
<g id="node16" class="node">
<title>15</title>
<g id="a_node16"><a xlink:title="RefcBinary">
<polygon fill="#ffffff" stroke="black" points="473.1,-252 378.1,-252 378.1,-216 473.1,-216 473.1,-252"/>
<text text-anchor="middle" x="425.6" y="-230.3" font-family="Times,serif" font-size="14.00">RefcBinary</text>
</a>
</g>
</g>
<!-- 14&#45;&gt;15 -->
<g id="edge9" class="edge">
<title>14&#45;&gt;15</title>
<g id="a_edge9"><a xlink:title="usage">
<path fill="none" stroke="#1414ce" d="M422.58,-287.7C423.03,-279.98 423.56,-270.71 424.05,-262.11"/>
<polygon fill="#1414ce" stroke="#1414ce" points="427.54,-262.29 424.62,-252.1 420.55,-261.89 427.54,-262.29"/>
</a>
</g>
</g>
<!-- 4&#45;&gt;21 -->
<g id="edge20" class="edge">
<title>4&#45;&gt;21</title>
<g id="a_edge20"><a xlink:title="usage">
<path fill="none" stroke="#1414ce" d="M661.21,-367.06C711.96,-358.11 786.9,-343.7 860.6,-324.1"/>
<polygon fill="#1414ce" stroke="#1414ce" points="861.78,-327.41 870.52,-321.43 859.96,-320.65 861.78,-327.41"/>
</a>
</g>
</g>
<!-- 4&#45;&gt;5 -->
<g id="edge11" class="edge">
<title>4&#45;&gt;5</title>
<g id="a_edge11"><a xlink:title="usage">
<path fill="none" stroke="#1414ce" d="M594.51,-359.85C584.06,-322.83 567.4,-235.18 562.02,-190.39"/>
<polygon fill="#1414ce" stroke="#1414ce" points="565.48,-189.8 560.93,-180.23 558.52,-190.55 565.48,-189.8"/>
</a>
</g>
</g>
<!-- 4&#45;&gt;16 -->
<g id="edge17" class="edge">
<title>4&#45;&gt;16</title>
<g id="a_edge17"><a xlink:title="usage">
<path fill="none" stroke="#1414ce" d="M541.93,-368.94C479.39,-359.98 378.45,-344.09 292.6,-324 288.69,-323.09 284.66,-322.06 280.63,-320.97"/>
<polygon fill="#1414ce" stroke="#1414ce" points="281.26,-317.52 270.69,-318.19 279.37,-324.26 281.26,-317.52"/>
</a>
</g>
</g>
<!-- 4&#45;&gt;7 -->
<g id="edge21" class="edge">
<title>4&#45;&gt;7</title>
<g id="a_edge21"><a xlink:title="usage">
<path fill="none" stroke="#1414ce" d="M611.33,-359.68C625.1,-333.53 648.6,-282 648.6,-235 648.6,-235 648.6,-235 648.6,-161 648.6,-83.17 548.91,-45.37 485.93,-29.26"/>
<polygon fill="#1414ce" stroke="#1414ce" points="486.71,-25.84 476.16,-26.85 485.04,-32.64 486.71,-25.84"/>
</a>
</g>
</g>
<!-- 4&#45;&gt;14 -->
<g id="edge15" class="edge">
<title>4&#45;&gt;14</title>
<g id="a_edge15"><a xlink:title="usage">
<path fill="none" stroke="#1414ce" d="M557.56,-359.88C532.63,-350.18 501.26,-337.98 474.93,-327.74"/>
<polygon fill="#1414ce" stroke="#1414ce" points="476.07,-324.43 465.49,-324.07 473.54,-330.95 476.07,-324.43"/>
</a>
</g>
</g>
<!-- 8 -->
<g id="node8" class="node">
<title>8</title>
<g id="a_node8"><a xlink:title="Ets">
<polygon fill="#ffffff" stroke="black" points="484.6,-180 430.6,-180 430.6,-144 484.6,-144 484.6,-180"/>
<text text-anchor="middle" x="457.6" y="-158.3" font-family="Times,serif" font-size="14.00">Ets</text>
</a>
</g>
</g>
<!-- 4&#45;&gt;8 -->
<g id="edge12" class="edge">
<title>4&#45;&gt;8</title>
<g id="a_edge12"><a xlink:title="usage">
<path fill="none" stroke="#1414ce" d="M590.06,-359.85C564.83,-322.36 504.66,-232.95 474.89,-188.7"/>
<polygon fill="#1414ce" stroke="#1414ce" points="477.68,-186.58 469.19,-180.23 471.87,-190.48 477.68,-186.58"/>
</a>
</g>
</g>
<!-- 20 -->
<g id="node10" class="node">
<title>20</title>
<g id="a_node10"><a xlink:title="TimerList">
<polygon fill="#ffffff" stroke="black" points="157.6,-180 71.6,-180 71.6,-144 157.6,-144 157.6,-180"/>
<text text-anchor="middle" x="114.6" y="-158.3" font-family="Times,serif" font-size="14.00">TimerList</text>
</a>
</g>
</g>
<!-- 4&#45;&gt;20 -->
<g id="edge19" class="edge">
<title>4&#45;&gt;20</title>
<g id="a_edge19"><a xlink:title="usage">
<path fill="none" stroke="#1414ce" d="M541.89,-374.43C403.27,-367.02 66.85,-340.11 6.6,-252 -2.44,-238.79 -1.87,-229.58 6.6,-216 18.91,-196.25 40.96,-183.65 61.95,-175.72"/>
<polygon fill="#1414ce" stroke="#1414ce" points="63.19,-178.99 71.48,-172.39 60.88,-172.38 63.19,-178.99"/>
</a>
</g>
</g>
<!-- 9 -->
<g id="node14" class="node">
<title>9</title>
<g id="a_node14"><a xlink:title="MessageQueueItem">
<polygon fill="#ffffff" stroke="black" points="834.6,-324 676.6,-324 676.6,-288 834.6,-288 834.6,-324"/>
<text text-anchor="middle" x="755.6" y="-302.3" font-family="Times,serif" font-size="14.00">MessageQueueItem</text>
</a>
</g>
</g>
<!-- 4&#45;&gt;9 -->
<g id="edge13" class="edge">
<title>4&#45;&gt;9</title>
<g id="a_edge13"><a xlink:title="usage">
<path fill="none" stroke="#1414ce" d="M639.27,-359.88C660.23,-350.35 686.5,-338.41 708.77,-328.28"/>
<polygon fill="#1414ce" stroke="#1414ce" points="710.39,-331.39 718.05,-324.07 707.49,-325.02 710.39,-331.39"/>
</a>
</g>
</g>
<!-- 19 -->
<g id="node15" class="node">
<title>19</title>
<g id="a_node15"><a xlink:title="AtomsHashTable">
<polygon fill="#ffffff" stroke="black" points="1011.1,-252 874.1,-252 874.1,-216 1011.1,-216 1011.1,-252"/>
<text text-anchor="middle" x="942.6" y="-230.3" font-family="Times,serif" font-size="14.00">AtomsHashTable</text>
</a>
</g>
</g>
<!-- 4&#45;&gt;19 -->
<g id="edge18" class="edge">
<title>4&#45;&gt;19</title>
<g id="a_edge18"><a xlink:title="usage">
<path fill="none" stroke="#1414ce" d="M661.24,-377.23C753.33,-376.17 923.51,-368.11 961.6,-324 976.5,-306.74 968.55,-280.64 958.79,-261.16"/>
<polygon fill="#1414ce" stroke="#1414ce" points="961.77,-259.33 953.94,-252.2 955.62,-262.66 961.77,-259.33"/>
</a>
</g>
</g>
<!-- 11 -->
<g id="node18" class="node">
<title>11</title>
<g id="a_node18"><a xlink:title="AtomTable">
<polygon fill="#ffffff" stroke="black" points="1100.6,-324 1008.6,-324 1008.6,-288 1100.6,-288 1100.6,-324"/>
<text text-anchor="middle" x="1054.6" y="-302.3" font-family="Times,serif" font-size="14.00">AtomTable</text>
</a>
</g>
</g>
<!-- 4&#45;&gt;11 -->
<g id="edge14" class="edge">
<title>4&#45;&gt;11</title>
<g id="a_edge14"><a xlink:title="usage">
<path fill="none" stroke="#1414ce" d="M661.3,-371.61C738.71,-364.02 877.65,-348.32 994.6,-324 995.88,-323.73 997.17,-323.45 998.48,-323.16"/>
<polygon fill="#1414ce" stroke="#1414ce" points="999.66,-326.48 1008.57,-320.75 998.03,-319.67 999.66,-326.48"/>
</a>
</g>
</g>
<!-- 4&#45;&gt;6 -->
<g id="edge16" class="edge">
<title>4&#45;&gt;6</title>
<g id="a_edge16"><a xlink:title="usage">
<path fill="none" stroke="#1414ce" d="M541.85,-374.16C469.07,-369.3 352.48,-356.54 325.6,-324 295.62,-287.72 397.91,-167.82 445.52,-115.63"/>
<polygon fill="#1414ce" stroke="#1414ce" points="448.21,-117.88 452.4,-108.15 443.05,-113.14 448.21,-117.88"/>
</a>
</g>
</g>
<!-- 8&#45;&gt;6 -->
<g id="edge22" class="edge">
<title>8&#45;&gt;6</title>
<g id="a_edge22"><a xlink:title="usage">
<path fill="none" stroke="#1414ce" d="M460.32,-143.7C461.53,-135.98 462.98,-126.71 464.34,-118.11"/>
<polygon fill="#1414ce" stroke="#1414ce" points="467.81,-118.53 465.91,-108.1 460.9,-117.44 467.81,-118.53"/>
</a>
</g>
</g>
<!-- 13 -->
<g id="node9" class="node">
<title>13</title>
<g id="a_node9"><a xlink:title="HNodeGroup">
<polygon fill="#ffffff" stroke="black" points="1177.6,-252 1067.6,-252 1067.6,-216 1177.6,-216 1177.6,-252"/>
<text text-anchor="middle" x="1122.6" y="-230.3" font-family="Times,serif" font-size="14.00">HNodeGroup</text>
</a>
</g>
</g>
<!-- 13&#45;&gt;13 -->
<g id="edge24" class="edge">
<title>13&#45;&gt;13</title>
<g id="a_edge24"><a xlink:title="usage">
<path fill="none" stroke="#1414ce" d="M1177.67,-246.85C1188.17,-245.32 1195.6,-241.03 1195.6,-234 1195.6,-229.5 1192.55,-226.12 1187.6,-223.87"/>
<polygon fill="#1414ce" stroke="#1414ce" points="1188.24,-220.42 1177.67,-221.15 1186.39,-227.17 1188.24,-220.42"/>
</a>
</g>
</g>
<!-- 12 -->
<g id="node21" class="node">
<title>12</title>
<g id="a_node21"><a xlink:title="HNode">
<polygon fill="#ffffff" stroke="black" points="1113.6,-180 1047.6,-180 1047.6,-144 1113.6,-144 1113.6,-180"/>
<text text-anchor="middle" x="1080.6" y="-158.3" font-family="Times,serif" font-size="14.00">HNode</text>
</a>
</g>
</g>
<!-- 13&#45;&gt;12 -->
<g id="edge23" class="edge">
<title>13&#45;&gt;12</title>
<g id="a_edge23"><a xlink:title="usage">
<path fill="none" stroke="#1414ce" d="M1112.21,-215.7C1107.33,-207.56 1101.41,-197.69 1096.02,-188.7"/>
<polygon fill="#1414ce" stroke="#1414ce" points="1099,-186.88 1090.86,-180.1 1093,-190.48 1099,-186.88"/>
</a>
</g>
</g>
<!-- 20&#45;&gt;7 -->
<g id="edge25" class="edge">
<title>20&#45;&gt;7</title>
<g id="a_edge25"><a xlink:title="usage">
<path fill="none" stroke="#1414ce" d="M147.59,-143.89C183.93,-125.3 244.29,-95.15 297.6,-72 326.42,-59.48 359.25,-46.81 385.65,-37"/>
<polygon fill="#1414ce" stroke="#1414ce" points="386.9,-40.27 395.07,-33.52 384.48,-33.7 386.9,-40.27"/>
</a>
</g>
</g>
<!-- 10 -->
<g id="node12" class="node">
<title>10</title>
<g id="a_node12"><a xlink:title="MailboxMessage">
<polygon fill="#ffffff" stroke="black" points="824.1,-252 687.1,-252 687.1,-216 824.1,-216 824.1,-252"/>
<text text-anchor="middle" x="755.6" y="-230.3" font-family="Times,serif" font-size="14.00">MailboxMessage</text>
</a>
</g>
</g>
<!-- 10&#45;&gt;10 -->
<g id="edge26" class="edge">
<title>10&#45;&gt;10</title>
<g id="a_edge26"><a xlink:title="usage">
<path fill="none" stroke="#1414ce" d="M824.12,-246.37C834.81,-244.52 842.1,-240.4 842.1,-234 842.1,-229.8 838.96,-226.58 833.78,-224.34"/>
<polygon fill="#1414ce" stroke="#1414ce" points="834.7,-220.96 824.12,-221.63 832.8,-227.7 834.7,-220.96"/>
</a>
</g>
</g>
<!-- 2 -->
<g id="node13" class="node">
<title>2</title>
<g id="a_node13"><a xlink:title="Heap">
<polygon fill="#ffffff" stroke="black" points="1178.6,-108 1124.6,-108 1124.6,-72 1178.6,-72 1178.6,-108"/>
<text text-anchor="middle" x="1151.6" y="-86.3" font-family="Times,serif" font-size="14.00">Heap</text>
</a>
</g>
</g>
<!-- 2&#45;&gt;3 -->
<g id="edge27" class="edge">
<title>2&#45;&gt;3</title>
<g id="a_edge27"><a xlink:title="usage">
<path fill="none" stroke="#1414ce" d="M1151.6,-71.7C1151.6,-63.98 1151.6,-54.71 1151.6,-46.11"/>
<polygon fill="#1414ce" stroke="#1414ce" points="1155.1,-46.1 1151.6,-36.1 1148.1,-46.1 1155.1,-46.1"/>
</a>
</g>
</g>
<!-- 9&#45;&gt;10 -->
<g id="edge28" class="edge">
<title>9&#45;&gt;10</title>
<g id="a_edge28"><a xlink:title="usage">
<path fill="none" stroke="#1414ce" d="M755.6,-287.7C755.6,-279.98 755.6,-270.71 755.6,-262.11"/>
<polygon fill="#1414ce" stroke="#1414ce" points="759.1,-262.1 755.6,-252.1 752.1,-262.1 759.1,-262.1"/>
</a>
</g>
</g>
<!-- 9&#45;&gt;9 -->
<g id="edge29" class="edge">
<title>9&#45;&gt;9</title>
<g id="a_edge29"><a xlink:title="usage">
<path fill="none" stroke="#1414ce" d="M834.76,-317.98C845.47,-315.97 852.6,-311.98 852.6,-306 852.6,-302.08 849.53,-299.01 844.39,-296.8"/>
<polygon fill="#1414ce" stroke="#1414ce" points="845.34,-293.43 834.76,-294.02 843.4,-300.15 845.34,-293.43"/>
</a>
</g>
</g>
<!-- 19&#45;&gt;12 -->
<g id="edge30" class="edge">
<title>19&#45;&gt;12</title>
<g id="a_edge30"><a xlink:title="usage">
<path fill="none" stroke="#1414ce" d="M976.35,-215.88C994.95,-206.44 1018.22,-194.64 1038.05,-184.58"/>
<polygon fill="#1414ce" stroke="#1414ce" points="1039.85,-187.59 1047.19,-179.95 1036.68,-181.35 1039.85,-187.59"/>
</a>
</g>
</g>
<!-- 15&#45;&gt;5 -->
<g id="edge31" class="edge">
<title>15&#45;&gt;5</title>
<g id="a_edge31"><a xlink:title="usage">
<path fill="none" stroke="#1414ce" d="M458.87,-215.88C477.06,-206.51 499.79,-194.81 519.24,-184.8"/>
<polygon fill="#1414ce" stroke="#1414ce" points="520.91,-187.88 528.2,-180.19 517.71,-181.65 520.91,-187.88"/>
</a>
</g>
</g>
<!-- 15&#45;&gt;7 -->
<g id="edge32" class="edge">
<title>15&#45;&gt;7</title>
<g id="a_edge32"><a xlink:title="usage">
<path fill="none" stroke="#1414ce" d="M423.2,-215.98C419.45,-186.49 413.37,-124.07 420.6,-72 421.78,-63.48 423.98,-54.39 426.35,-46.2"/>
<polygon fill="#1414ce" stroke="#1414ce" points="429.76,-46.99 429.36,-36.41 423.07,-44.94 429.76,-46.99"/>
</a>
</g>
</g>
<!-- 1 -->
<g id="node17" class="node">
<title>1</title>
<g id="a_node17"><a xlink:title="ErlNifEnv">
<polygon fill="#bfbfbf" stroke="black" points="949.6,-468 861.6,-468 861.6,-432 949.6,-432 949.6,-468"/>
<text text-anchor="middle" x="905.6" y="-446.3" font-family="Times,serif" font-size="14.00">ErlNifEnv</text>
</a>
</g>
</g>
<!-- 1&#45;&gt;4 -->
<g id="edge34" class="edge">
<title>1&#45;&gt;4</title>
<g id="a_edge34"><a xlink:title="usage">
<path fill="none" stroke="#1414ce" d="M861.39,-438.82C811.5,-427.33 729.68,-408.49 671.2,-395.03"/>
<polygon fill="#1414ce" stroke="#1414ce" points="671.82,-391.58 661.29,-392.75 670.25,-398.4 671.82,-391.58"/>
</a>
</g>
</g>
<!-- 1&#45;&gt;2 -->
<g id="edge33" class="edge">
<title>1&#45;&gt;2</title>
<g id="a_edge33"><a xlink:title="usage">
<path fill="none" stroke="#1414ce" d="M949.81,-448.78C1037.19,-445.79 1223.6,-425.51 1223.6,-307 1223.6,-307 1223.6,-307 1223.6,-233 1223.6,-188.35 1194.93,-143.52 1173.78,-116.51"/>
<polygon fill="#1414ce" stroke="#1414ce" points="1176.22,-113.96 1167.22,-108.38 1170.78,-118.36 1176.22,-113.96"/>
</a>
</g>
</g>
<!-- 11&#45;&gt;13 -->
<g id="edge36" class="edge">
<title>11&#45;&gt;13</title>
<g id="a_edge36"><a xlink:title="usage">
<path fill="none" stroke="#1414ce" d="M1071.4,-287.7C1079.72,-279.14 1089.9,-268.66 1098.99,-259.3"/>
<polygon fill="#1414ce" stroke="#1414ce" points="1101.52,-261.72 1105.98,-252.1 1096.5,-256.84 1101.52,-261.72"/>
</a>
</g>
</g>
<!-- 11&#45;&gt;12 -->
<g id="edge35" class="edge">
<title>11&#45;&gt;12</title>
<g id="a_edge35"><a xlink:title="usage">
<path fill="none" stroke="#1414ce" d="M1053.61,-287.71C1052.99,-269.6 1053.15,-240.46 1058.6,-216 1060.59,-207.05 1063.99,-197.69 1067.53,-189.37"/>
<polygon fill="#1414ce" stroke="#1414ce" points="1070.76,-190.72 1071.68,-180.16 1064.38,-187.85 1070.76,-190.72"/>
</a>
</g>
</g>
<!-- 6&#45;&gt;7 -->
<g id="edge37" class="edge">
<title>6&#45;&gt;7</title>
<g id="a_edge37"><a xlink:title="usage">
<path fill="none" stroke="#1414ce" d="M460.44,-71.7C456.68,-63.73 452.14,-54.1 447.98,-45.26"/>
<polygon fill="#1414ce" stroke="#1414ce" points="451.09,-43.66 443.66,-36.1 444.76,-46.64 451.09,-43.66"/>
</a>
</g>
</g>
<!-- 12&#45;&gt;2 -->
<g id="edge39" class="edge">
<title>12&#45;&gt;2</title>
<g id="a_edge39"><a xlink:title="usage">
<path fill="none" stroke="#1414ce" d="M1098.15,-143.7C1106.83,-135.14 1117.46,-124.66 1126.94,-115.3"/>
<polygon fill="#1414ce" stroke="#1414ce" points="1129.58,-117.62 1134.25,-108.1 1124.67,-112.63 1129.58,-117.62"/>
</a>
</g>
</g>
<!-- 12&#45;&gt;12 -->
<g id="edge38" class="edge">
<title>12&#45;&gt;12</title>
<g id="a_edge38"><a xlink:title="usage">
<path fill="none" stroke="#1414ce" d="M1113.95,-175.47C1123.87,-175.07 1131.6,-170.58 1131.6,-162 1131.6,-156.64 1128.58,-152.87 1123.89,-150.71"/>
<polygon fill="#1414ce" stroke="#1414ce" points="1124.47,-147.25 1113.95,-148.53 1122.97,-154.09 1124.47,-147.25"/>
</a>
</g>
</g>
</g>
</svg>
