<?xml version="1.0" encoding="UTF-8" standalone="no"?>
<!DOCTYPE svg PUBLIC "-//W3C//DTD SVG 1.1//EN"
 "http://www.w3.org/Graphics/SVG/1.1/DTD/svg11.dtd">
<!-- Generated by graphviz version 2.43.0 (0)
 -->
<!-- Title: %3 Pages: 1 -->
<svg width="1399pt" height="836pt"
 viewBox="0.00 0.00 1399.05 836.00" xmlns="http://www.w3.org/2000/svg" xmlns:xlink="http://www.w3.org/1999/xlink">
<g id="graph0" class="graph" transform="scale(1 1) rotate(0) translate(4 832)">
<title>%3</title>
<polygon fill="transparent" stroke="transparent" points="-4,4 -4,-832 1395.05,-832 1395.05,4 -4,4"/>
<!-- 2 -->
<g id="node1" class="node">
<title>2</title>
<g id="a_node1"><a xlink:title="stdbool.h">
<polygon fill="#ffffff" stroke="black" points="364.5,-108 281.5,-108 281.5,-72 364.5,-72 364.5,-108"/>
<text text-anchor="middle" x="323" y="-86.3" font-family="Times,serif" font-size="14.00">stdbool.h</text>
</a>
</g>
</g>
<!-- 25 -->
<g id="node2" class="node">
<title>25</title>
<g id="a_node2"><a xlink:title="refc_binary.h">
<polygon fill="#ffffff" stroke="black" points="813,-396 705,-396 705,-360 813,-360 813,-396"/>
<text text-anchor="middle" x="759" y="-374.3" font-family="Times,serif" font-size="14.00">refc_binary.h</text>
</a>
</g>
</g>
<!-- 25&#45;&gt;2 -->
<g id="edge1" class="edge">
<title>25&#45;&gt;2</title>
<g id="a_edge1"><a xlink:title="include">
<path fill="none" stroke="#1414ce" d="M758.37,-359.71C755.64,-313.93 741.04,-189.95 663,-144 615.18,-115.84 457.67,-100.64 374.89,-94.42"/>
<polygon fill="#1414ce" stroke="#1414ce" points="374.92,-90.91 364.69,-93.67 374.4,-97.89 374.92,-90.91"/>
</a>
</g>
</g>
<!-- 15 -->
<g id="node7" class="node">
<title>15</title>
<g id="a_node7"><a xlink:title="list.h">
<polygon fill="#ffffff" stroke="black" points="514,-180 460,-180 460,-144 514,-144 514,-180"/>
<text text-anchor="middle" x="487" y="-158.3" font-family="Times,serif" font-size="14.00">list.h</text>
</a>
</g>
</g>
<!-- 25&#45;&gt;15 -->
<g id="edge3" class="edge">
<title>25&#45;&gt;15</title>
<g id="a_edge3"><a xlink:title="include">
<path fill="none" stroke="#1414ce" d="M751.67,-359.95C736.76,-327.23 699.79,-255.42 647,-216 610.35,-188.63 558.79,-174.92 524.21,-168.4"/>
<polygon fill="#1414ce" stroke="#1414ce" points="524.51,-164.9 514.05,-166.6 523.29,-171.79 524.51,-164.9"/>
</a>
</g>
</g>
<!-- 5 -->
<g id="node9" class="node">
<title>5</title>
<g id="a_node9"><a xlink:title="stdlib.h">
<polygon fill="#ffffff" stroke="black" points="1128.5,-108 1057.5,-108 1057.5,-72 1128.5,-72 1128.5,-108"/>
<text text-anchor="middle" x="1093" y="-86.3" font-family="Times,serif" font-size="14.00">stdlib.h</text>
</a>
</g>
</g>
<!-- 25&#45;&gt;5 -->
<g id="edge2" class="edge">
<title>25&#45;&gt;5</title>
<g id="a_edge2"><a xlink:title="include">
<path fill="none" stroke="#1414ce" d="M813.41,-367.82C853.21,-359.75 907.75,-345.83 952,-324 999.51,-300.56 1012.28,-292.01 1047,-252 1070.99,-224.35 1076.63,-215.11 1087,-180 1092.95,-159.86 1094.28,-136.08 1094.21,-118.17"/>
<polygon fill="#1414ce" stroke="#1414ce" points="1097.71,-118.05 1094.03,-108.12 1090.71,-118.18 1097.71,-118.05"/>
</a>
</g>
</g>
<!-- 26 -->
<g id="node15" class="node">
<title>26</title>
<g id="a_node15"><a xlink:title="resources.h">
<polygon fill="#ffffff" stroke="black" points="943,-324 843,-324 843,-288 943,-288 943,-324"/>
<text text-anchor="middle" x="893" y="-302.3" font-family="Times,serif" font-size="14.00">resources.h</text>
</a>
</g>
</g>
<!-- 25&#45;&gt;26 -->
<g id="edge4" class="edge">
<title>25&#45;&gt;26</title>
<g id="a_edge4"><a xlink:title="include">
<path fill="none" stroke="#1414ce" d="M791.78,-359.88C809.63,-350.55 831.9,-338.92 851,-328.94"/>
<polygon fill="#1414ce" stroke="#1414ce" points="852.85,-331.92 860.09,-324.19 849.61,-325.72 852.85,-331.92"/>
</a>
</g>
</g>
<!-- 3 -->
<g id="node3" class="node">
<title>3</title>
<g id="a_node3"><a xlink:title="atom.h">
<polygon fill="#ffffff" stroke="black" points="1382,-468 1316,-468 1316,-432 1382,-432 1382,-468"/>
<text text-anchor="middle" x="1349" y="-446.3" font-family="Times,serif" font-size="14.00">atom.h</text>
</a>
</g>
</g>
<!-- 4 -->
<g id="node8" class="node">
<title>4</title>
<g id="a_node8"><a xlink:title="stdint.h">
<polygon fill="#ffffff" stroke="black" points="1313,-36 1241,-36 1241,0 1313,0 1313,-36"/>
<text text-anchor="middle" x="1277" y="-14.3" font-family="Times,serif" font-size="14.00">stdint.h</text>
</a>
</g>
</g>
<!-- 3&#45;&gt;4 -->
<g id="edge5" class="edge">
<title>3&#45;&gt;4</title>
<g id="a_edge5"><a xlink:title="include">
<path fill="none" stroke="#1414ce" d="M1357.5,-431.99C1369.77,-405.82 1391,-353.79 1391,-307 1391,-307 1391,-307 1391,-161 1391,-120.03 1391.83,-104.59 1367,-72 1355.61,-57.05 1338.69,-45.52 1322.58,-37.08"/>
<polygon fill="#1414ce" stroke="#1414ce" points="1323.76,-33.76 1313.24,-32.48 1320.66,-40.04 1323.76,-33.76"/>
</a>
</g>
</g>
<!-- 3&#45;&gt;5 -->
<g id="edge6" class="edge">
<title>3&#45;&gt;5</title>
<g id="a_edge6"><a xlink:title="include">
<path fill="none" stroke="#1414ce" d="M1343.62,-431.75C1327.29,-381.71 1273.93,-234.36 1186,-144 1172.44,-130.07 1154.43,-118.67 1137.87,-110.06"/>
<polygon fill="#1414ce" stroke="#1414ce" points="1139.37,-106.9 1128.86,-105.57 1136.25,-113.16 1139.37,-106.9"/>
</a>
</g>
</g>
<!-- 11 -->
<g id="node4" class="node">
<title>11</title>
<g id="a_node4"><a xlink:title="assert.h">
<polygon fill="#ffffff" stroke="black" points="703,-36 629,-36 629,0 703,0 703,-36"/>
<text text-anchor="middle" x="666" y="-14.3" font-family="Times,serif" font-size="14.00">assert.h</text>
</a>
</g>
</g>
<!-- 23 -->
<g id="node5" class="node">
<title>23</title>
<g id="a_node5"><a xlink:title="utils.h">
<polygon fill="#ffffff" stroke="black" points="983,-180 921,-180 921,-144 983,-144 983,-180"/>
<text text-anchor="middle" x="952" y="-158.3" font-family="Times,serif" font-size="14.00">utils.h</text>
</a>
</g>
</g>
<!-- 23&#45;&gt;5 -->
<g id="edge9" class="edge">
<title>23&#45;&gt;5</title>
<g id="a_edge9"><a xlink:title="include">
<path fill="none" stroke="#1414ce" d="M983.29,-145.46C1002.73,-135.82 1027.99,-123.27 1049.38,-112.66"/>
<polygon fill="#1414ce" stroke="#1414ce" points="1051.18,-115.67 1058.58,-108.09 1048.07,-109.4 1051.18,-115.67"/>
</a>
</g>
</g>
<!-- 24 -->
<g id="node17" class="node">
<title>24</title>
<g id="a_node17"><a xlink:title="stddef.h">
<polygon fill="#ffffff" stroke="black" points="912,-108 838,-108 838,-72 912,-72 912,-108"/>
<text text-anchor="middle" x="875" y="-86.3" font-family="Times,serif" font-size="14.00">stddef.h</text>
</a>
</g>
</g>
<!-- 23&#45;&gt;24 -->
<g id="edge7" class="edge">
<title>23&#45;&gt;24</title>
<g id="a_edge7"><a xlink:title="include">
<path fill="none" stroke="#1414ce" d="M932.97,-143.7C923.46,-135.05 911.79,-124.45 901.43,-115.03"/>
<polygon fill="#1414ce" stroke="#1414ce" points="903.57,-112.24 893.81,-108.1 898.86,-117.42 903.57,-112.24"/>
</a>
</g>
</g>
<!-- 17 -->
<g id="node30" class="node">
<title>17</title>
<g id="a_node30"><a xlink:title="stdio.h">
<polygon fill="#ffffff" stroke="black" points="995.5,-108 930.5,-108 930.5,-72 995.5,-72 995.5,-108"/>
<text text-anchor="middle" x="963" y="-86.3" font-family="Times,serif" font-size="14.00">stdio.h</text>
</a>
</g>
</g>
<!-- 23&#45;&gt;17 -->
<g id="edge8" class="edge">
<title>23&#45;&gt;17</title>
<g id="a_edge8"><a xlink:title="include">
<path fill="none" stroke="#1414ce" d="M954.72,-143.7C955.93,-135.98 957.39,-126.71 958.74,-118.11"/>
<polygon fill="#1414ce" stroke="#1414ce" points="962.22,-118.53 960.31,-108.1 955.3,-117.44 962.22,-118.53"/>
</a>
</g>
</g>
<!-- 16 -->
<g id="node6" class="node">
<title>16</title>
<g id="a_node6"><a xlink:title="synclist.h">
<polygon fill="#ffffff" stroke="black" points="638.5,-252 553.5,-252 553.5,-216 638.5,-216 638.5,-252"/>
<text text-anchor="middle" x="596" y="-230.3" font-family="Times,serif" font-size="14.00">synclist.h</text>
</a>
</g>
</g>
<!-- 16&#45;&gt;15 -->
<g id="edge11" class="edge">
<title>16&#45;&gt;15</title>
<g id="a_edge11"><a xlink:title="include">
<path fill="none" stroke="#1414ce" d="M569.34,-215.88C555.22,-206.81 537.69,-195.55 522.44,-185.76"/>
<polygon fill="#1414ce" stroke="#1414ce" points="524.07,-182.65 513.77,-180.19 520.29,-188.54 524.07,-182.65"/>
</a>
</g>
</g>
<!-- 18 -->
<g id="node26" class="node">
<title>18</title>
<g id="a_node26"><a xlink:title="smp.h">
<polygon fill="#ffffff" stroke="black" points="353,-180 293,-180 293,-144 353,-144 353,-180"/>
<text text-anchor="middle" x="323" y="-158.3" font-family="Times,serif" font-size="14.00">smp.h</text>
</a>
</g>
</g>
<!-- 16&#45;&gt;18 -->
<g id="edge12" class="edge">
<title>16&#45;&gt;18</title>
<g id="a_edge12"><a xlink:title="include">
<path fill="none" stroke="#1414ce" d="M553.34,-222.06C501.29,-208.72 413.96,-186.32 363.1,-173.28"/>
<polygon fill="#1414ce" stroke="#1414ce" points="363.68,-169.82 353.13,-170.73 361.94,-176.6 363.68,-169.82"/>
</a>
</g>
</g>
<!-- 16&#45;&gt;17 -->
<g id="edge10" class="edge">
<title>16&#45;&gt;17</title>
<g id="a_edge10"><a xlink:title="include">
<path fill="none" stroke="#1414ce" d="M626.8,-215.99C663.05,-196.5 725.5,-164.61 782,-144 839.02,-123.19 858.5,-127.51 920.28,-107.98"/>
<polygon fill="#1414ce" stroke="#1414ce" points="921.71,-111.2 930.14,-104.78 919.54,-104.54 921.71,-111.2"/>
</a>
</g>
</g>
<!-- 15&#45;&gt;2 -->
<g id="edge13" class="edge">
<title>15&#45;&gt;2</title>
<g id="a_edge13"><a xlink:title="include">
<path fill="none" stroke="#1414ce" d="M459.92,-149.44C436.21,-139.32 401.18,-124.37 372.48,-112.12"/>
<polygon fill="#1414ce" stroke="#1414ce" points="373.59,-108.79 363.02,-108.08 370.84,-115.23 373.59,-108.79"/>
</a>
</g>
</g>
<!-- 6 -->
<g id="node10" class="node">
<title>6</title>
<g id="a_node10"><a xlink:title="context.h">
<polygon fill="#ffffff" stroke="black" points="250.5,-684 167.5,-684 167.5,-648 250.5,-648 250.5,-684"/>
<text text-anchor="middle" x="209" y="-662.3" font-family="Times,serif" font-size="14.00">context.h</text>
</a>
</g>
</g>
<!-- 6&#45;&gt;15 -->
<g id="edge15" class="edge">
<title>6&#45;&gt;15</title>
<g id="a_edge15"><a xlink:title="include">
<path fill="none" stroke="#1414ce" d="M208.45,-647.67C208.37,-615.44 212.74,-545.75 249,-504 317.74,-424.86 449,-483.82 449,-379 449,-379 449,-379 449,-305 449,-263.63 464.23,-217.72 475.41,-189.61"/>
<polygon fill="#1414ce" stroke="#1414ce" points="478.76,-190.67 479.31,-180.09 472.28,-188.02 478.76,-190.67"/>
</a>
</g>
</g>
<!-- 19 -->
<g id="node16" class="node">
<title>19</title>
<g id="a_node16"><a xlink:title="term.h">
<polygon fill="#ffffff" stroke="black" points="944.5,-468 879.5,-468 879.5,-432 944.5,-432 944.5,-468"/>
<text text-anchor="middle" x="912" y="-446.3" font-family="Times,serif" font-size="14.00">term.h</text>
</a>
</g>
</g>
<!-- 6&#45;&gt;19 -->
<g id="edge18" class="edge">
<title>6&#45;&gt;19</title>
<g id="a_edge18"><a xlink:title="include">
<path fill="none" stroke="#1414ce" d="M211.46,-647.79C217.31,-613.8 235.5,-538.38 285,-504 332.77,-470.82 735.04,-456.16 868.88,-452.18"/>
<polygon fill="#1414ce" stroke="#1414ce" points="869.26,-455.67 879.15,-451.88 869.06,-448.67 869.26,-455.67"/>
</a>
</g>
</g>
<!-- 7 -->
<g id="node25" class="node">
<title>7</title>
<g id="a_node25"><a xlink:title="globalcontext.h">
<polygon fill="#ffffff" stroke="black" points="609.5,-612 482.5,-612 482.5,-576 609.5,-576 609.5,-612"/>
<text text-anchor="middle" x="546" y="-590.3" font-family="Times,serif" font-size="14.00">globalcontext.h</text>
</a>
</g>
</g>
<!-- 6&#45;&gt;7 -->
<g id="edge14" class="edge">
<title>6&#45;&gt;7</title>
<g id="a_edge14"><a xlink:title="include">
<path fill="none" stroke="#1414ce" d="M250.66,-656.35C305.97,-644.86 404.54,-624.38 472.5,-610.27"/>
<polygon fill="#1414ce" stroke="#1414ce" points="473.22,-613.69 482.3,-608.23 471.79,-606.84 473.22,-613.69"/>
</a>
</g>
</g>
<!-- 6&#45;&gt;18 -->
<g id="edge17" class="edge">
<title>6&#45;&gt;18</title>
<g id="a_edge17"><a xlink:title="include">
<path fill="none" stroke="#1414ce" d="M167.11,-648.18C149.55,-639.47 130,-627.4 116,-612 86.84,-579.9 76,-566.37 76,-523 76,-523 76,-523 76,-305 76,-258.73 93.08,-243.88 130,-216 175.12,-181.93 240.85,-169.76 282.77,-165.41"/>
<polygon fill="#1414ce" stroke="#1414ce" points="283.25,-168.88 292.88,-164.47 282.6,-161.91 283.25,-168.88"/>
</a>
</g>
</g>
<!-- 28 -->
<g id="node28" class="node">
<title>28</title>
<g id="a_node28"><a xlink:title="timer_list.h">
<polygon fill="#ffffff" stroke="black" points="237,-252 139,-252 139,-216 237,-216 237,-252"/>
<text text-anchor="middle" x="188" y="-230.3" font-family="Times,serif" font-size="14.00">timer_list.h</text>
</a>
</g>
</g>
<!-- 6&#45;&gt;28 -->
<g id="edge19" class="edge">
<title>6&#45;&gt;28</title>
<g id="a_edge19"><a xlink:title="include">
<path fill="none" stroke="#1414ce" d="M177.15,-647.8C163.27,-638.82 147.94,-626.63 138,-612 114.99,-578.11 114,-563.97 114,-523 114,-523 114,-523 114,-377 114,-331.9 143.71,-286.94 165.48,-260.05"/>
<polygon fill="#1414ce" stroke="#1414ce" points="168.23,-262.23 171.94,-252.31 162.85,-257.74 168.23,-262.23"/>
</a>
</g>
</g>
<!-- 27 -->
<g id="node29" class="node">
<title>27</title>
<g id="a_node29"><a xlink:title="mailbox.h">
<polygon fill="#ffffff" stroke="black" points="421,-252 335,-252 335,-216 421,-216 421,-252"/>
<text text-anchor="middle" x="378" y="-230.3" font-family="Times,serif" font-size="14.00">mailbox.h</text>
</a>
</g>
</g>
<!-- 6&#45;&gt;27 -->
<g id="edge16" class="edge">
<title>6&#45;&gt;27</title>
<g id="a_edge16"><a xlink:title="include">
<path fill="none" stroke="#1414ce" d="M194.67,-647.57C187.55,-637.76 179.69,-624.92 176,-612 162.81,-565.85 160.81,-549.53 176,-504 210.95,-399.26 304.45,-302.51 350.96,-259.07"/>
<polygon fill="#1414ce" stroke="#1414ce" points="353.56,-261.43 358.54,-252.08 348.82,-256.29 353.56,-261.43"/>
</a>
</g>
</g>
<!-- 1 -->
<g id="node11" class="node">
<title>1</title>
<g id="a_node11"><a xlink:title="/__w/AtomVM/AtomVM/src/libAtomVM/bif.h">
<polygon fill="#bfbfbf" stroke="black" points="1055.5,-828 730.5,-828 730.5,-792 1055.5,-792 1055.5,-828"/>
<text text-anchor="middle" x="893" y="-806.3" font-family="Times,serif" font-size="14.00">/__w/AtomVM/AtomVM/src/libAtomVM/bif.h</text>
</a>
</g>
</g>
<!-- 1&#45;&gt;2 -->
<g id="edge20" class="edge">
<title>1&#45;&gt;2</title>
<g id="a_edge20"><a xlink:title="include">
<path fill="none" stroke="#1414ce" d="M730.25,-799.4C472.68,-781.99 0,-740.1 0,-667 0,-667 0,-667 0,-233 0,-115.92 180.05,-94.51 271.3,-91.18"/>
<polygon fill="#1414ce" stroke="#1414ce" points="271.55,-94.67 281.43,-90.87 271.33,-87.68 271.55,-94.67"/>
</a>
</g>
</g>
<!-- 1&#45;&gt;3 -->
<g id="edge21" class="edge">
<title>1&#45;&gt;3</title>
<g id="a_edge21"><a xlink:title="include">
<path fill="none" stroke="#1414ce" d="M1055.78,-793.37C1199.72,-774.89 1387,-737.33 1387,-667 1387,-667 1387,-667 1387,-593 1387,-551.63 1371.77,-505.72 1360.59,-477.61"/>
<polygon fill="#1414ce" stroke="#1414ce" points="1363.72,-476.02 1356.69,-468.09 1357.24,-478.67 1363.72,-476.02"/>
</a>
</g>
</g>
<!-- 1&#45;&gt;6 -->
<g id="edge22" class="edge">
<title>1&#45;&gt;6</title>
<g id="a_edge22"><a xlink:title="include">
<path fill="none" stroke="#1414ce" d="M810.83,-791.94C668.04,-762.3 378.11,-702.11 260.4,-677.67"/>
<polygon fill="#1414ce" stroke="#1414ce" points="261.06,-674.23 250.55,-675.63 259.63,-681.09 261.06,-674.23"/>
</a>
</g>
</g>
<!-- 30 -->
<g id="node13" class="node">
<title>30</title>
<g id="a_node13"><a xlink:title="module.h">
<polygon fill="#ffffff" stroke="black" points="934.5,-756 851.5,-756 851.5,-720 934.5,-720 934.5,-756"/>
<text text-anchor="middle" x="893" y="-734.3" font-family="Times,serif" font-size="14.00">module.h</text>
</a>
</g>
</g>
<!-- 1&#45;&gt;30 -->
<g id="edge24" class="edge">
<title>1&#45;&gt;30</title>
<g id="a_edge24"><a xlink:title="include">
<path fill="none" stroke="#1414ce" d="M893,-791.7C893,-783.98 893,-774.71 893,-766.11"/>
<polygon fill="#1414ce" stroke="#1414ce" points="896.5,-766.1 893,-756.1 889.5,-766.1 896.5,-766.1"/>
</a>
</g>
</g>
<!-- 29 -->
<g id="node19" class="node">
<title>29</title>
<g id="a_node19"><a xlink:title="exportedfunction.h">
<polygon fill="#ffffff" stroke="black" points="1180,-684 1028,-684 1028,-648 1180,-648 1180,-684"/>
<text text-anchor="middle" x="1104" y="-662.3" font-family="Times,serif" font-size="14.00">exportedfunction.h</text>
</a>
</g>
</g>
<!-- 1&#45;&gt;29 -->
<g id="edge23" class="edge">
<title>1&#45;&gt;29</title>
<g id="a_edge23"><a xlink:title="include">
<path fill="none" stroke="#1414ce" d="M918.45,-791.87C956.39,-766.34 1027.84,-718.25 1070.15,-689.78"/>
<polygon fill="#1414ce" stroke="#1414ce" points="1072.12,-692.68 1078.46,-684.19 1068.21,-686.87 1072.12,-692.68"/>
</a>
</g>
</g>
<!-- 22 -->
<g id="node12" class="node">
<title>22</title>
<g id="a_node12"><a xlink:title="memory.h">
<polygon fill="#ffffff" stroke="black" points="1009,-252 923,-252 923,-216 1009,-216 1009,-252"/>
<text text-anchor="middle" x="966" y="-230.3" font-family="Times,serif" font-size="14.00">memory.h</text>
</a>
</g>
</g>
<!-- 22&#45;&gt;23 -->
<g id="edge29" class="edge">
<title>22&#45;&gt;23</title>
<g id="a_edge29"><a xlink:title="include">
<path fill="none" stroke="#1414ce" d="M962.54,-215.7C961,-207.98 959.14,-198.71 957.42,-190.11"/>
<polygon fill="#1414ce" stroke="#1414ce" points="960.81,-189.22 955.42,-180.1 953.95,-190.6 960.81,-189.22"/>
</a>
</g>
</g>
<!-- 22&#45;&gt;4 -->
<g id="edge25" class="edge">
<title>22&#45;&gt;4</title>
<g id="a_edge25"><a xlink:title="include">
<path fill="none" stroke="#1414ce" d="M974.53,-215.77C994.9,-174.74 1044.86,-74.46 1048,-72 1100.97,-30.58 1180.63,-20.52 1230.67,-18.62"/>
<polygon fill="#1414ce" stroke="#1414ce" points="1230.98,-22.11 1240.88,-18.32 1230.78,-15.11 1230.98,-22.11"/>
</a>
</g>
</g>
<!-- 22&#45;&gt;5 -->
<g id="edge26" class="edge">
<title>22&#45;&gt;5</title>
<g id="a_edge26"><a xlink:title="include">
<path fill="none" stroke="#1414ce" d="M986.81,-215.98C998.52,-205.99 1013.14,-192.85 1025,-180 1043.59,-159.87 1062.32,-134.93 1075.41,-116.57"/>
<polygon fill="#1414ce" stroke="#1414ce" points="1078.45,-118.33 1081.35,-108.14 1072.73,-114.3 1078.45,-118.33"/>
</a>
</g>
</g>
<!-- 9 -->
<g id="node18" class="node">
<title>9</title>
<g id="a_node18"><a xlink:title="erl_nif.h">
<polygon fill="#ffffff" stroke="black" points="865,-180 791,-180 791,-144 865,-144 865,-180"/>
<text text-anchor="middle" x="828" y="-158.3" font-family="Times,serif" font-size="14.00">erl_nif.h</text>
</a>
</g>
</g>
<!-- 22&#45;&gt;9 -->
<g id="edge27" class="edge">
<title>22&#45;&gt;9</title>
<g id="a_edge27"><a xlink:title="include">
<path fill="none" stroke="#1414ce" d="M932.24,-215.88C913.78,-206.51 890.72,-194.81 870.98,-184.8"/>
<polygon fill="#1414ce" stroke="#1414ce" points="872.39,-181.59 861.89,-180.19 869.22,-187.83 872.39,-181.59"/>
</a>
</g>
</g>
<!-- 10 -->
<g id="node24" class="node">
<title>10</title>
<g id="a_node24"><a xlink:title="term_typedef.h">
<polygon fill="#ffffff" stroke="black" points="819.5,-108 694.5,-108 694.5,-72 819.5,-72 819.5,-108"/>
<text text-anchor="middle" x="757" y="-86.3" font-family="Times,serif" font-size="14.00">term_typedef.h</text>
</a>
</g>
</g>
<!-- 22&#45;&gt;10 -->
<g id="edge28" class="edge">
<title>22&#45;&gt;10</title>
<g id="a_edge28"><a xlink:title="include">
<path fill="none" stroke="#1414ce" d="M948.43,-215.7C922.92,-190.63 878.18,-146.84 874,-144 855.45,-131.39 833.42,-120.51 813.51,-111.94"/>
<polygon fill="#1414ce" stroke="#1414ce" points="814.8,-108.69 804.22,-108.05 812.09,-115.15 814.8,-108.69"/>
</a>
</g>
</g>
<!-- 30&#45;&gt;2 -->
<g id="edge30" class="edge">
<title>30&#45;&gt;2</title>
<g id="a_edge30"><a xlink:title="include">
<path fill="none" stroke="#1414ce" d="M851.46,-737.03C715.73,-736.67 286.65,-731.7 158,-684 95.74,-660.92 38,-661.4 38,-595 38,-595 38,-595 38,-305 38,-189.5 189.52,-128.66 271.6,-104.17"/>
<polygon fill="#1414ce" stroke="#1414ce" points="272.63,-107.52 281.25,-101.37 270.67,-100.8 272.63,-107.52"/>
</a>
</g>
</g>
<!-- 30&#45;&gt;3 -->
<g id="edge32" class="edge">
<title>30&#45;&gt;3</title>
<g id="a_edge32"><a xlink:title="include">
<path fill="none" stroke="#1414ce" d="M934.55,-736.24C997.84,-733.76 1121.18,-723.73 1217,-684 1267.59,-663.02 1287.38,-658.06 1317,-612 1343.57,-570.69 1348.87,-512.03 1349.49,-478.1"/>
<polygon fill="#1414ce" stroke="#1414ce" points="1352.99,-478.03 1349.55,-468.01 1345.99,-477.99 1352.99,-478.03"/>
</a>
</g>
</g>
<!-- 30&#45;&gt;4 -->
<g id="edge31" class="edge">
<title>30&#45;&gt;4</title>
<g id="a_edge31"><a xlink:title="include">
<path fill="none" stroke="#1414ce" d="M914.88,-719.97C1006.29,-648 1353,-366.36 1353,-235 1353,-235 1353,-235 1353,-161 1353,-115.64 1322.48,-70.75 1300.12,-43.95"/>
<polygon fill="#1414ce" stroke="#1414ce" points="1302.66,-41.53 1293.49,-36.23 1297.36,-46.09 1302.66,-41.53"/>
</a>
</g>
</g>
<!-- 30&#45;&gt;6 -->
<g id="edge35" class="edge">
<title>30&#45;&gt;6</title>
<g id="a_edge35"><a xlink:title="include">
<path fill="none" stroke="#1414ce" d="M851.5,-732.75C732.71,-720.6 391.57,-685.68 260.84,-672.31"/>
<polygon fill="#1414ce" stroke="#1414ce" points="260.99,-668.8 250.69,-671.27 260.28,-675.77 260.99,-668.8"/>
</a>
</g>
</g>
<!-- 32 -->
<g id="node14" class="node">
<title>32</title>
<g id="a_node14"><a xlink:title="valueshashtable.h">
<polygon fill="#ffffff" stroke="black" points="846,-684 700,-684 700,-648 846,-648 846,-684"/>
<text text-anchor="middle" x="773" y="-662.3" font-family="Times,serif" font-size="14.00">valueshashtable.h</text>
</a>
</g>
</g>
<!-- 30&#45;&gt;32 -->
<g id="edge39" class="edge">
<title>30&#45;&gt;32</title>
<g id="a_edge39"><a xlink:title="include">
<path fill="none" stroke="#1414ce" d="M863.64,-719.88C847.95,-710.72 828.44,-699.34 811.55,-689.48"/>
<polygon fill="#1414ce" stroke="#1414ce" points="812.87,-686.21 802.47,-684.19 809.34,-692.25 812.87,-686.21"/>
</a>
</g>
</g>
<!-- 30&#45;&gt;19 -->
<g id="edge38" class="edge">
<title>30&#45;&gt;19</title>
<g id="a_edge38"><a xlink:title="include">
<path fill="none" stroke="#1414ce" d="M894.13,-719.97C897.3,-672.29 906.27,-537.18 910.16,-478.63"/>
<polygon fill="#1414ce" stroke="#1414ce" points="913.68,-478.52 910.85,-468.31 906.7,-478.05 913.68,-478.52"/>
</a>
</g>
</g>
<!-- 30&#45;&gt;29 -->
<g id="edge36" class="edge">
<title>30&#45;&gt;29</title>
<g id="a_edge36"><a xlink:title="include">
<path fill="none" stroke="#1414ce" d="M934.69,-723.17C965.64,-712.9 1008.35,-698.73 1043.12,-687.2"/>
<polygon fill="#1414ce" stroke="#1414ce" points="1044.31,-690.49 1052.7,-684.02 1042.11,-683.85 1044.31,-690.49"/>
</a>
</g>
</g>
<!-- 8 -->
<g id="node21" class="node">
<title>8</title>
<g id="a_node21"><a xlink:title="atom_table.h">
<polygon fill="#ffffff" stroke="black" points="403.5,-540 294.5,-540 294.5,-504 403.5,-504 403.5,-540"/>
<text text-anchor="middle" x="349" y="-518.3" font-family="Times,serif" font-size="14.00">atom_table.h</text>
</a>
</g>
</g>
<!-- 30&#45;&gt;8 -->
<g id="edge33" class="edge">
<title>30&#45;&gt;8</title>
<g id="a_edge33"><a xlink:title="include">
<path fill="none" stroke="#1414ce" d="M851.48,-729.83C773.89,-715.34 603.01,-678.17 473,-612 437.51,-593.94 400.96,-566.41 376.82,-546.76"/>
<polygon fill="#1414ce" stroke="#1414ce" points="378.76,-543.82 368.82,-540.16 374.31,-549.22 378.76,-543.82"/>
</a>
</g>
</g>
<!-- 30&#45;&gt;7 -->
<g id="edge37" class="edge">
<title>30&#45;&gt;7</title>
<g id="a_edge37"><a xlink:title="include">
<path fill="none" stroke="#1414ce" d="M890.67,-719.97C886.93,-699.54 877.54,-665.81 855,-648 819.42,-619.89 699.25,-605.92 619.68,-599.59"/>
<polygon fill="#1414ce" stroke="#1414ce" points="619.94,-596.1 609.7,-598.82 619.4,-603.08 619.94,-596.1"/>
</a>
</g>
</g>
<!-- 31 -->
<g id="node27" class="node">
<title>31</title>
<g id="a_node27"><a xlink:title="atomshashtable.h">
<polygon fill="#ffffff" stroke="black" points="1307.5,-612 1164.5,-612 1164.5,-576 1307.5,-576 1307.5,-612"/>
<text text-anchor="middle" x="1236" y="-590.3" font-family="Times,serif" font-size="14.00">atomshashtable.h</text>
</a>
</g>
</g>
<!-- 30&#45;&gt;31 -->
<g id="edge34" class="edge">
<title>30&#45;&gt;31</title>
<g id="a_edge34"><a xlink:title="include">
<path fill="none" stroke="#1414ce" d="M934.74,-734.01C1006.44,-728.16 1149.11,-713.15 1189,-684 1209.64,-668.92 1222.04,-642.01 1228.87,-621.72"/>
<polygon fill="#1414ce" stroke="#1414ce" points="1232.24,-622.68 1231.88,-612.09 1225.56,-620.59 1232.24,-622.68"/>
</a>
</g>
</g>
<!-- 26&#45;&gt;16 -->
<g id="edge44" class="edge">
<title>26&#45;&gt;16</title>
<g id="a_edge44"><a xlink:title="include">
<path fill="none" stroke="#1414ce" d="M842.95,-293.2C788.95,-280.48 703.33,-260.3 648.42,-247.35"/>
<polygon fill="#1414ce" stroke="#1414ce" points="649.07,-243.91 638.54,-245.03 647.47,-250.73 649.07,-243.91"/>
</a>
</g>
</g>
<!-- 26&#45;&gt;15 -->
<g id="edge42" class="edge">
<title>26&#45;&gt;15</title>
<g id="a_edge42"><a xlink:title="include">
<path fill="none" stroke="#1414ce" d="M856.42,-287.92C814.61,-268.8 743.83,-237.67 681,-216 627.22,-197.45 563.31,-181.05 523.95,-171.57"/>
<polygon fill="#1414ce" stroke="#1414ce" points="524.55,-168.11 514.01,-169.19 522.93,-174.92 524.55,-168.11"/>
</a>
</g>
</g>
<!-- 26&#45;&gt;5 -->
<g id="edge40" class="edge">
<title>26&#45;&gt;5</title>
<g id="a_edge40"><a xlink:title="include">
<path fill="none" stroke="#1414ce" d="M943.28,-292.62C968.15,-284.43 997.21,-271.53 1018,-252 1057.31,-215.08 1077.92,-153.45 1087.02,-118.12"/>
<polygon fill="#1414ce" stroke="#1414ce" points="1090.51,-118.6 1089.49,-108.05 1083.71,-116.93 1090.51,-118.6"/>
</a>
</g>
</g>
<!-- 26&#45;&gt;22 -->
<g id="edge43" class="edge">
<title>26&#45;&gt;22</title>
<g id="a_edge43"><a xlink:title="include">
<path fill="none" stroke="#1414ce" d="M911.04,-287.7C920.06,-279.05 931.12,-268.45 940.94,-259.03"/>
<polygon fill="#1414ce" stroke="#1414ce" points="943.37,-261.55 948.16,-252.1 938.52,-256.5 943.37,-261.55"/>
</a>
</g>
</g>
<!-- 26&#45;&gt;9 -->
<g id="edge41" class="edge">
<title>26&#45;&gt;9</title>
<g id="a_edge41"><a xlink:title="include">
<path fill="none" stroke="#1414ce" d="M891.03,-287.83C888.39,-269.32 882.63,-239.37 871,-216 866.04,-206.03 858.92,-196.24 851.91,-187.84"/>
<polygon fill="#1414ce" stroke="#1414ce" points="854.5,-185.48 845.28,-180.25 849.22,-190.09 854.5,-185.48"/>
</a>
</g>
</g>
<!-- 19&#45;&gt;2 -->
<g id="edge46" class="edge">
<title>19&#45;&gt;2</title>
<g id="a_edge46"><a xlink:title="include">
<path fill="none" stroke="#1414ce" d="M879.45,-445.08C825.74,-437.96 721.92,-421.27 696,-396 636.64,-338.12 697.52,-281.74 647,-216 580.95,-130.05 447.86,-103.17 374.48,-94.79"/>
<polygon fill="#1414ce" stroke="#1414ce" points="374.85,-91.31 364.53,-93.72 374.11,-98.27 374.85,-91.31"/>
</a>
</g>
</g>
<!-- 19&#45;&gt;25 -->
<g id="edge52" class="edge">
<title>19&#45;&gt;25</title>
<g id="a_edge52"><a xlink:title="include">
<path fill="none" stroke="#1414ce" d="M879.18,-433.98C857.71,-424.16 829.33,-411.18 805.54,-400.29"/>
<polygon fill="#1414ce" stroke="#1414ce" points="806.89,-397.06 796.34,-396.08 803.98,-403.43 806.89,-397.06"/>
</a>
</g>
</g>
<!-- 19&#45;&gt;23 -->
<g id="edge53" class="edge">
<title>19&#45;&gt;23</title>
<g id="a_edge53"><a xlink:title="include">
<path fill="none" stroke="#1414ce" d="M925.54,-431.87C950.32,-399.22 1001.89,-324.81 1018,-252 1021.46,-236.38 1024.92,-230.43 1018,-216 1012.13,-203.75 1001.89,-193.44 991.21,-185.26"/>
<polygon fill="#1414ce" stroke="#1414ce" points="993.19,-182.38 983.01,-179.42 989.13,-188.08 993.19,-182.38"/>
</a>
</g>
</g>
<!-- 19&#45;&gt;4 -->
<g id="edge47" class="edge">
<title>19&#45;&gt;4</title>
<g id="a_edge47"><a xlink:title="include">
<path fill="none" stroke="#1414ce" d="M944.82,-446.26C1008.26,-440.37 1144.65,-424.67 1181,-396 1290.46,-309.67 1285.82,-117.48 1279.91,-46.25"/>
<polygon fill="#1414ce" stroke="#1414ce" points="1283.4,-45.91 1279.01,-36.26 1276.42,-46.54 1283.4,-45.91"/>
</a>
</g>
</g>
<!-- 19&#45;&gt;5 -->
<g id="edge49" class="edge">
<title>19&#45;&gt;5</title>
<g id="a_edge49"><a xlink:title="include">
<path fill="none" stroke="#1414ce" d="M944.65,-449.51C993.46,-448.68 1086.29,-440.74 1148,-396 1185.27,-368.98 1201,-353.04 1201,-307 1201,-307 1201,-307 1201,-233 1201,-183.1 1158.23,-139.77 1126.52,-114.5"/>
<polygon fill="#1414ce" stroke="#1414ce" points="1128.37,-111.51 1118.32,-108.17 1124.09,-117.05 1128.37,-111.51"/>
</a>
</g>
</g>
<!-- 19&#45;&gt;22 -->
<g id="edge51" class="edge">
<title>19&#45;&gt;22</title>
<g id="a_edge51"><a xlink:title="include">
<path fill="none" stroke="#1414ce" d="M944.61,-444.81C994.39,-437.68 1085.62,-421.42 1105,-396 1144.47,-344.23 1063.65,-287.41 1009.51,-257.04"/>
<polygon fill="#1414ce" stroke="#1414ce" points="1010.85,-253.79 1000.4,-252.05 1007.49,-259.93 1010.85,-253.79"/>
</a>
</g>
</g>
<!-- 20 -->
<g id="node22" class="node">
<title>20</title>
<g id="a_node22"><a xlink:title="sys/types.h">
<polygon fill="#ffffff" stroke="black" points="1096.5,-396 999.5,-396 999.5,-360 1096.5,-360 1096.5,-396"/>
<text text-anchor="middle" x="1048" y="-374.3" font-family="Times,serif" font-size="14.00">sys/types.h</text>
</a>
</g>
</g>
<!-- 19&#45;&gt;20 -->
<g id="edge45" class="edge">
<title>19&#45;&gt;20</title>
<g id="a_edge45"><a xlink:title="include">
<path fill="none" stroke="#1414ce" d="M944.58,-432.23C962.89,-422.81 985.97,-410.93 1005.67,-400.79"/>
<polygon fill="#1414ce" stroke="#1414ce" points="1007.46,-403.8 1014.75,-396.12 1004.25,-397.58 1007.46,-403.8"/>
</a>
</g>
</g>
<!-- 21 -->
<g id="node23" class="node">
<title>21</title>
<g id="a_node23"><a xlink:title="string.h">
<polygon fill="#ffffff" stroke="black" points="942.5,-396 869.5,-396 869.5,-360 942.5,-360 942.5,-396"/>
<text text-anchor="middle" x="906" y="-374.3" font-family="Times,serif" font-size="14.00">string.h</text>
</a>
</g>
</g>
<!-- 19&#45;&gt;21 -->
<g id="edge50" class="edge">
<title>19&#45;&gt;21</title>
<g id="a_edge50"><a xlink:title="include">
<path fill="none" stroke="#1414ce" d="M910.52,-431.7C909.86,-423.98 909.06,-414.71 908.32,-406.11"/>
<polygon fill="#1414ce" stroke="#1414ce" points="911.81,-405.77 907.47,-396.1 904.83,-406.37 911.81,-405.77"/>
</a>
</g>
</g>
<!-- 19&#45;&gt;10 -->
<g id="edge54" class="edge">
<title>19&#45;&gt;10</title>
<g id="a_edge54"><a xlink:title="include">
<path fill="none" stroke="#1414ce" d="M891.31,-431.82C880.77,-422.18 868.44,-409.42 860,-396 801.72,-303.29 772.31,-173.83 761.72,-118.18"/>
<polygon fill="#1414ce" stroke="#1414ce" points="765.11,-117.26 759.85,-108.07 758.23,-118.54 765.11,-117.26"/>
</a>
</g>
</g>
<!-- 19&#45;&gt;17 -->
<g id="edge48" class="edge">
<title>19&#45;&gt;17</title>
<g id="a_edge48"><a xlink:title="include">
<path fill="none" stroke="#1414ce" d="M944.86,-445.69C998.96,-439.49 1103,-424.15 1125,-396 1199.01,-301.32 1057.83,-167.94 993.05,-114.49"/>
<polygon fill="#1414ce" stroke="#1414ce" points="995.14,-111.68 985.18,-108.08 990.72,-117.11 995.14,-111.68"/>
</a>
</g>
</g>
<!-- 9&#45;&gt;10 -->
<g id="edge55" class="edge">
<title>9&#45;&gt;10</title>
<g id="a_edge55"><a xlink:title="include">
<path fill="none" stroke="#1414ce" d="M810.45,-143.7C801.77,-135.14 791.14,-124.66 781.65,-115.3"/>
<polygon fill="#1414ce" stroke="#1414ce" points="783.93,-112.63 774.35,-108.1 779.01,-117.62 783.93,-112.63"/>
</a>
</g>
</g>
<!-- 29&#45;&gt;19 -->
<g id="edge56" class="edge">
<title>29&#45;&gt;19</title>
<g id="a_edge56"><a xlink:title="include">
<path fill="none" stroke="#1414ce" d="M1088.61,-647.85C1054.77,-610.13 973.75,-519.83 934.32,-475.88"/>
<polygon fill="#1414ce" stroke="#1414ce" points="936.74,-473.34 927.46,-468.23 931.53,-478.01 936.74,-473.34"/>
</a>
</g>
</g>
<!-- 12 -->
<g id="node20" class="node">
<title>12</title>
<g id="a_node20"><a xlink:title="limits.h">
<polygon fill="#ffffff" stroke="black" points="792.5,-36 721.5,-36 721.5,0 792.5,0 792.5,-36"/>
<text text-anchor="middle" x="757" y="-14.3" font-family="Times,serif" font-size="14.00">limits.h</text>
</a>
</g>
</g>
<!-- 8&#45;&gt;2 -->
<g id="edge57" class="edge">
<title>8&#45;&gt;2</title>
<g id="a_edge57"><a xlink:title="include">
<path fill="none" stroke="#1414ce" d="M330.36,-503.69C305.61,-478.72 265,-429.98 265,-379 265,-379 265,-379 265,-233 265,-192.55 267.42,-180.89 284,-144 288.36,-134.31 294.69,-124.66 301,-116.31"/>
<polygon fill="#1414ce" stroke="#1414ce" points="303.77,-118.45 307.22,-108.44 298.27,-114.11 303.77,-118.45"/>
</a>
</g>
</g>
<!-- 8&#45;&gt;3 -->
<g id="edge58" class="edge">
<title>8&#45;&gt;3</title>
<g id="a_edge58"><a xlink:title="include">
<path fill="none" stroke="#1414ce" d="M403.58,-516.54C447.25,-513.01 510.04,-508.02 565,-504 847.3,-483.35 1187.01,-461.36 1305.62,-453.76"/>
<polygon fill="#1414ce" stroke="#1414ce" points="1305.99,-457.25 1315.75,-453.12 1305.55,-450.26 1305.99,-457.25"/>
</a>
</g>
</g>
<!-- 10&#45;&gt;11 -->
<g id="edge59" class="edge">
<title>10&#45;&gt;11</title>
<g id="a_edge59"><a xlink:title="include">
<path fill="none" stroke="#1414ce" d="M734.51,-71.7C723.04,-62.88 708.94,-52.03 696.52,-42.47"/>
<polygon fill="#1414ce" stroke="#1414ce" points="698.3,-39.43 688.24,-36.1 694.03,-44.98 698.3,-39.43"/>
</a>
</g>
</g>
<!-- 10&#45;&gt;4 -->
<g id="edge62" class="edge">
<title>10&#45;&gt;4</title>
<g id="a_edge62"><a xlink:title="include">
<path fill="none" stroke="#1414ce" d="M819.74,-73.74C822.87,-73.12 825.96,-72.54 829,-72 974.41,-46.32 1148.63,-29.72 1230.35,-22.75"/>
<polygon fill="#1414ce" stroke="#1414ce" points="1231.12,-26.2 1240.79,-21.87 1230.53,-19.22 1231.12,-26.2"/>
</a>
</g>
</g>
<!-- 10&#45;&gt;12 -->
<g id="edge60" class="edge">
<title>10&#45;&gt;12</title>
<g id="a_edge60"><a xlink:title="include">
<path fill="none" stroke="#1414ce" d="M757,-71.7C757,-63.98 757,-54.71 757,-46.11"/>
<polygon fill="#1414ce" stroke="#1414ce" points="760.5,-46.1 757,-36.1 753.5,-46.1 760.5,-46.1"/>
</a>
</g>
</g>
<!-- 13 -->
<g id="node32" class="node">
<title>13</title>
<g id="a_node32"><a xlink:title="inttypes.h">
<polygon fill="#ffffff" stroke="black" points="899.5,-36 810.5,-36 810.5,0 899.5,0 899.5,-36"/>
<text text-anchor="middle" x="855" y="-14.3" font-family="Times,serif" font-size="14.00">inttypes.h</text>
</a>
</g>
</g>
<!-- 10&#45;&gt;13 -->
<g id="edge61" class="edge">
<title>10&#45;&gt;13</title>
<g id="a_edge61"><a xlink:title="include">
<path fill="none" stroke="#1414ce" d="M780.97,-71.88C793.55,-62.89 809.13,-51.76 822.75,-42.03"/>
<polygon fill="#1414ce" stroke="#1414ce" points="824.83,-44.85 830.93,-36.19 820.76,-39.15 824.83,-44.85"/>
</a>
</g>
</g>
<!-- 7&#45;&gt;3 -->
<g id="edge64" class="edge">
<title>7&#45;&gt;3</title>
<g id="a_edge64"><a xlink:title="include">
<path fill="none" stroke="#1414ce" d="M609.63,-591.88C753.67,-588.7 1100.74,-577.3 1211,-540 1253.16,-525.74 1295.21,-495.78 1321.62,-474.57"/>
<polygon fill="#1414ce" stroke="#1414ce" points="1324.1,-477.06 1329.62,-468.02 1319.67,-471.64 1324.1,-477.06"/>
</a>
</g>
</g>
<!-- 7&#45;&gt;16 -->
<g id="edge71" class="edge">
<title>7&#45;&gt;16</title>
<g id="a_edge71"><a xlink:title="include">
<path fill="none" stroke="#1414ce" d="M548.41,-575.73C556.45,-518.19 582.36,-332.66 592.18,-262.35"/>
<polygon fill="#1414ce" stroke="#1414ce" points="595.7,-262.48 593.61,-252.09 588.76,-261.51 595.7,-262.48"/>
</a>
</g>
</g>
<!-- 7&#45;&gt;15 -->
<g id="edge68" class="edge">
<title>7&#45;&gt;15</title>
<g id="a_edge68"><a xlink:title="include">
<path fill="none" stroke="#1414ce" d="M537.92,-575.97C521.76,-540.29 487,-454.73 487,-379 487,-379 487,-379 487,-305 487,-265 487,-218.65 487,-190.08"/>
<polygon fill="#1414ce" stroke="#1414ce" points="490.5,-190.05 487,-180.05 483.5,-190.05 490.5,-190.05"/>
</a>
</g>
</g>
<!-- 7&#45;&gt;4 -->
<g id="edge63" class="edge">
<title>7&#45;&gt;4</title>
<g id="a_edge63"><a xlink:title="include">
<path fill="none" stroke="#1414ce" d="M609.59,-588.48C735.86,-576.65 1022.33,-535.26 1211,-396 1318.37,-316.74 1294.15,-241.45 1296,-108 1296.22,-92 1298.74,-87.76 1296,-72 1294.48,-63.24 1291.64,-54.01 1288.61,-45.75"/>
<polygon fill="#1414ce" stroke="#1414ce" points="1291.79,-44.29 1284.89,-36.25 1285.28,-46.84 1291.79,-44.29"/>
</a>
</g>
</g>
<!-- 7&#45;&gt;19 -->
<g id="edge72" class="edge">
<title>7&#45;&gt;19</title>
<g id="a_edge72"><a xlink:title="include">
<path fill="none" stroke="#1414ce" d="M590.15,-575.87C661.24,-548.29 800.15,-494.4 869.91,-467.33"/>
<polygon fill="#1414ce" stroke="#1414ce" points="871.22,-470.58 879.28,-463.7 868.69,-464.05 871.22,-470.58"/>
</a>
</g>
</g>
<!-- 7&#45;&gt;9 -->
<g id="edge66" class="edge">
<title>7&#45;&gt;9</title>
<g id="a_edge66"><a xlink:title="include">
<path fill="none" stroke="#1414ce" d="M589.16,-575.97C606.11,-567.4 624.47,-555.49 637,-540 689.94,-474.54 659.11,-435.68 696,-360 728.15,-294.05 779.51,-224.45 807.75,-188.25"/>
<polygon fill="#1414ce" stroke="#1414ce" points="810.64,-190.22 814.07,-180.2 805.14,-185.9 810.64,-190.22"/>
</a>
</g>
</g>
<!-- 7&#45;&gt;8 -->
<g id="edge65" class="edge">
<title>7&#45;&gt;8</title>
<g id="a_edge65"><a xlink:title="include">
<path fill="none" stroke="#1414ce" d="M498.06,-575.97C470.53,-566.19 435.78,-553.84 406.76,-543.52"/>
<polygon fill="#1414ce" stroke="#1414ce" points="407.75,-540.16 397.15,-540.11 405.41,-546.76 407.75,-540.16"/>
</a>
</g>
</g>
<!-- 7&#45;&gt;18 -->
<g id="edge70" class="edge">
<title>7&#45;&gt;18</title>
<g id="a_edge70"><a xlink:title="include">
<path fill="none" stroke="#1414ce" d="M514.38,-575.92C499.53,-566.74 482.41,-554.36 470,-540 376.42,-431.73 361.22,-390.71 326,-252 320.84,-231.68 320.3,-207.91 320.94,-190.05"/>
<polygon fill="#1414ce" stroke="#1414ce" points="324.44,-190.2 321.44,-180.03 317.45,-189.85 324.44,-190.2"/>
</a>
</g>
</g>
<!-- 7&#45;&gt;28 -->
<g id="edge73" class="edge">
<title>7&#45;&gt;28</title>
<g id="a_edge73"><a xlink:title="include">
<path fill="none" stroke="#1414ce" d="M482.5,-586.66C415.37,-578.84 315.11,-563.61 285,-540 197.35,-471.27 187.49,-323.16 187.34,-262.13"/>
<polygon fill="#1414ce" stroke="#1414ce" points="190.84,-262.14 187.4,-252.12 183.84,-262.09 190.84,-262.14"/>
</a>
</g>
</g>
<!-- 7&#45;&gt;27 -->
<g id="edge69" class="edge">
<title>7&#45;&gt;27</title>
<g id="a_edge69"><a xlink:title="include">
<path fill="none" stroke="#1414ce" d="M525.66,-575.99C515.09,-566.32 502.62,-553.46 494,-540 434.15,-446.56 397.98,-317.55 384.29,-262.11"/>
<polygon fill="#1414ce" stroke="#1414ce" points="387.67,-261.23 381.92,-252.33 380.87,-262.87 387.67,-261.23"/>
</a>
</g>
</g>
<!-- 14 -->
<g id="node31" class="node">
<title>14</title>
<g id="a_node31"><a xlink:title="ets.h">
<polygon fill="#ffffff" stroke="black" points="628,-540 574,-540 574,-504 628,-504 628,-540"/>
<text text-anchor="middle" x="601" y="-518.3" font-family="Times,serif" font-size="14.00">ets.h</text>
</a>
</g>
</g>
<!-- 7&#45;&gt;14 -->
<g id="edge67" class="edge">
<title>7&#45;&gt;14</title>
<g id="a_edge67"><a xlink:title="include">
<path fill="none" stroke="#1414ce" d="M559.6,-575.7C566.12,-567.39 574.07,-557.28 581.25,-548.14"/>
<polygon fill="#1414ce" stroke="#1414ce" points="584.13,-550.13 587.56,-540.1 578.63,-545.81 584.13,-550.13"/>
</a>
</g>
</g>
<!-- 18&#45;&gt;2 -->
<g id="edge74" class="edge">
<title>18&#45;&gt;2</title>
<g id="a_edge74"><a xlink:title="include">
<path fill="none" stroke="#1414ce" d="M323,-143.7C323,-135.98 323,-126.71 323,-118.11"/>
<polygon fill="#1414ce" stroke="#1414ce" points="326.5,-118.1 323,-108.1 319.5,-118.1 326.5,-118.1"/>
</a>
</g>
</g>
<!-- 31&#45;&gt;3 -->
<g id="edge75" class="edge">
<title>31&#45;&gt;3</title>
<g id="a_edge75"><a xlink:title="include">
<path fill="none" stroke="#1414ce" d="M1253.72,-575.98C1263.88,-565.88 1276.63,-552.63 1287,-540 1303.58,-519.8 1320.41,-495.34 1332.34,-477.18"/>
<polygon fill="#1414ce" stroke="#1414ce" points="1335.59,-478.6 1338.11,-468.31 1329.72,-474.78 1335.59,-478.6"/>
</a>
</g>
</g>
<!-- 28&#45;&gt;2 -->
<g id="edge76" class="edge">
<title>28&#45;&gt;2</title>
<g id="a_edge76"><a xlink:title="include">
<path fill="none" stroke="#1414ce" d="M197.93,-215.71C209.27,-196.82 229.12,-166.29 251,-144 261.87,-132.93 275.22,-122.43 287.47,-113.73"/>
<polygon fill="#1414ce" stroke="#1414ce" points="289.49,-116.59 295.72,-108.02 285.51,-110.83 289.49,-116.59"/>
</a>
</g>
</g>
<!-- 28&#45;&gt;15 -->
<g id="edge78" class="edge">
<title>28&#45;&gt;15</title>
<g id="a_edge78"><a xlink:title="include">
<path fill="none" stroke="#1414ce" d="M237.04,-221.52C296.81,-207.53 396.44,-184.2 450.09,-171.64"/>
<polygon fill="#1414ce" stroke="#1414ce" points="450.93,-175.04 459.87,-169.35 449.34,-168.22 450.93,-175.04"/>
</a>
</g>
</g>
<!-- 28&#45;&gt;4 -->
<g id="edge77" class="edge">
<title>28&#45;&gt;4</title>
<g id="a_edge77"><a xlink:title="include">
<path fill="none" stroke="#1414ce" d="M190.62,-215.98C197.06,-180.93 217.33,-101.47 272,-72 282.69,-66.23 1034.19,-30.44 1230.51,-21.19"/>
<polygon fill="#1414ce" stroke="#1414ce" points="1230.95,-24.67 1240.77,-20.7 1230.62,-17.68 1230.95,-24.67"/>
</a>
</g>
</g>
<!-- 27&#45;&gt;2 -->
<g id="edge79" class="edge">
<title>27&#45;&gt;2</title>
<g id="a_edge79"><a xlink:title="include">
<path fill="none" stroke="#1414ce" d="M377.23,-215.94C375.88,-197.53 372.17,-167.65 362,-144 357.8,-134.24 351.51,-124.58 345.19,-116.23"/>
<polygon fill="#1414ce" stroke="#1414ce" points="347.91,-114.02 338.95,-108.36 342.43,-118.37 347.91,-114.02"/>
</a>
</g>
</g>
<!-- 27&#45;&gt;23 -->
<g id="edge82" class="edge">
<title>27&#45;&gt;23</title>
<g id="a_edge82"><a xlink:title="include">
<path fill="none" stroke="#1414ce" d="M421.01,-228.53C537.47,-216.42 851.75,-183.6 874,-180 885.96,-178.06 898.84,-175.47 910.63,-172.89"/>
<polygon fill="#1414ce" stroke="#1414ce" points="911.65,-176.25 920.65,-170.64 910.12,-169.41 911.65,-176.25"/>
</a>
</g>
</g>
<!-- 27&#45;&gt;15 -->
<g id="edge80" class="edge">
<title>27&#45;&gt;15</title>
<g id="a_edge80"><a xlink:title="include">
<path fill="none" stroke="#1414ce" d="M404.66,-215.88C418.78,-206.81 436.31,-195.55 451.56,-185.76"/>
<polygon fill="#1414ce" stroke="#1414ce" points="453.71,-188.54 460.23,-180.19 449.93,-182.65 453.71,-188.54"/>
</a>
</g>
</g>
<!-- 27&#45;&gt;10 -->
<g id="edge81" class="edge">
<title>27&#45;&gt;10</title>
<g id="a_edge81"><a xlink:title="include">
<path fill="none" stroke="#1414ce" d="M387.03,-215.77C398.82,-195.14 421.48,-161.21 451,-144 489.62,-121.49 606.58,-105.91 684.19,-97.72"/>
<polygon fill="#1414ce" stroke="#1414ce" points="684.81,-101.17 694.4,-96.66 684.09,-94.21 684.81,-101.17"/>
</a>
</g>
</g>
<!-- 14&#45;&gt;16 -->
<g id="edge84" class="edge">
<title>14&#45;&gt;16</title>
<g id="a_edge84"><a xlink:title="include">
<path fill="none" stroke="#1414ce" d="M600.7,-503.97C599.87,-456.29 597.51,-321.18 596.48,-262.63"/>
<polygon fill="#1414ce" stroke="#1414ce" points="599.98,-262.24 596.3,-252.31 592.98,-262.37 599.98,-262.24"/>
</a>
</g>
</g>
<!-- 14&#45;&gt;15 -->
<g id="edge83" class="edge">
<title>14&#45;&gt;15</title>
<g id="a_edge83"><a xlink:title="include">
<path fill="none" stroke="#1414ce" d="M595.5,-503.73C577.14,-446.08 517.85,-259.89 495.57,-189.92"/>
<polygon fill="#1414ce" stroke="#1414ce" points="498.81,-188.56 492.44,-180.09 492.14,-190.68 498.81,-188.56"/>
</a>
</g>
</g>
<!-- 14&#45;&gt;19 -->
<g id="edge85" class="edge">
<title>14&#45;&gt;19</title>
<g id="a_edge85"><a xlink:title="include">
<path fill="none" stroke="#1414ce" d="M628.06,-514.91C682.2,-502.72 804.26,-475.25 869.31,-460.61"/>
<polygon fill="#1414ce" stroke="#1414ce" points="870.25,-463.98 879.24,-458.37 868.71,-457.16 870.25,-463.98"/>
</a>
</g>
</g>
</g>
</svg>
