<?xml version="1.0" encoding="UTF-8" standalone="no"?>
<!DOCTYPE svg PUBLIC "-//W3C//DTD SVG 1.1//EN"
 "http://www.w3.org/Graphics/SVG/1.1/DTD/svg11.dtd">
<!-- Generated by graphviz version 2.43.0 (0)
 -->
<!-- Title: %3 Pages: 1 -->
<svg width="1187pt" height="404pt"
 viewBox="0.00 0.00 1187.13 404.00" xmlns="http://www.w3.org/2000/svg" xmlns:xlink="http://www.w3.org/1999/xlink">
<g id="graph0" class="graph" transform="scale(1 1) rotate(0) translate(4 400)">
<title>%3</title>
<polygon fill="transparent" stroke="transparent" points="-4,4 -4,-400 1183.13,-400 1183.13,4 -4,4"/>
<!-- 21 -->
<g id="node1" class="node">
<title>21</title>
<g id="a_node1"><a xlink:title="SpinLock">
<polygon fill="#ffffff" stroke="black" points="977.13,-324 895.13,-324 895.13,-288 977.13,-288 977.13,-324"/>
<text text-anchor="middle" x="936.13" y="-302.3" font-family="Times,serif" font-size="14.00">SpinLock</text>
</a>
</g>
</g>
<!-- 3 -->
<g id="node2" class="node">
<title>3</title>
<g id="a_node2"><a xlink:title="ResourceType">
<polygon fill="#ffffff" stroke="black" points="610.63,-180 493.63,-180 493.63,-144 610.63,-144 610.63,-180"/>
<text text-anchor="middle" x="552.13" y="-158.3" font-family="Times,serif" font-size="14.00">ResourceType</text>
</a>
</g>
</g>
<!-- 5 -->
<g id="node4" class="node">
<title>5</title>
<g id="a_node4"><a xlink:title="ListHead">
<polygon fill="#ffffff" stroke="black" points="505.63,-36 424.63,-36 424.63,0 505.63,0 505.63,-36"/>
<text text-anchor="middle" x="465.13" y="-14.3" font-family="Times,serif" font-size="14.00">ListHead</text>
</a>
</g>
</g>
<!-- 3&#45;&gt;5 -->
<g id="edge3" class="edge">
<title>3&#45;&gt;5</title>
<g id="a_edge3"><a xlink:title="usage">
<path fill="none" stroke="#1414ce" d="M541.64,-143.87C526.55,-119.24 498.61,-73.64 480.99,-44.88"/>
<polygon fill="#1414ce" stroke="#1414ce" points="483.87,-42.89 475.66,-36.19 477.9,-46.54 483.87,-42.89"/>
</a>
</g>
</g>
<!-- 6 -->
<g id="node7" class="node">
<title>6</title>
<g id="a_node7"><a xlink:title="GlobalContext">
<polygon fill="#ffffff" stroke="black" points="812.63,-396 693.63,-396 693.63,-360 812.63,-360 812.63,-396"/>
<text text-anchor="middle" x="753.13" y="-374.3" font-family="Times,serif" font-size="14.00">GlobalContext</text>
</a>
</g>
</g>
<!-- 3&#45;&gt;6 -->
<g id="edge2" class="edge">
<title>3&#45;&gt;6</title>
<g id="a_edge2"><a xlink:title="usage">
<path fill="none" stroke="#1414ce" d="M544.04,-180.21C530.31,-212.24 506.99,-281.6 540.13,-324 557.78,-346.58 628.2,-360.92 683.3,-368.91"/>
<polygon fill="#1414ce" stroke="#1414ce" points="683,-372.4 693.39,-370.33 683.98,-365.47 683,-372.4"/>
</a>
</g>
</g>
<!-- 4 -->
<g id="node20" class="node">
<title>4</title>
<g id="a_node20"><a xlink:title="SyncList">
<polygon fill="#ffffff" stroke="black" points="685.13,-108 607.13,-108 607.13,-72 685.13,-72 685.13,-108"/>
<text text-anchor="middle" x="646.13" y="-86.3" font-family="Times,serif" font-size="14.00">SyncList</text>
</a>
</g>
</g>
<!-- 3&#45;&gt;4 -->
<g id="edge1" class="edge">
<title>3&#45;&gt;4</title>
<g id="a_edge1"><a xlink:title="usage">
<path fill="none" stroke="#1414ce" d="M575.37,-143.7C587.32,-134.8 602.05,-123.82 614.98,-114.2"/>
<polygon fill="#1414ce" stroke="#1414ce" points="617.23,-116.88 623.16,-108.1 613.05,-111.27 617.23,-116.88"/>
</a>
</g>
</g>
<!-- 16 -->
<g id="node3" class="node">
<title>16</title>
<g id="a_node3"><a xlink:title="Module">
<polygon fill="#ffffff" stroke="black" points="125.13,-324 55.13,-324 55.13,-288 125.13,-288 125.13,-324"/>
<text text-anchor="middle" x="90.13" y="-302.3" font-family="Times,serif" font-size="14.00">Module</text>
</a>
</g>
</g>
<!-- 16&#45;&gt;5 -->
<g id="edge6" class="edge">
<title>16&#45;&gt;5</title>
<g id="a_edge6"><a xlink:title="usage">
<path fill="none" stroke="#1414ce" d="M125.51,-290.81C128.41,-289.81 131.31,-288.86 134.13,-288 203.87,-266.81 233.14,-291.91 294.13,-252 315.2,-238.21 408.39,-102.75 447.62,-44.94"/>
<polygon fill="#1414ce" stroke="#1414ce" points="450.73,-46.6 453.44,-36.36 444.93,-42.67 450.73,-46.6"/>
</a>
</g>
</g>
<!-- 18 -->
<g id="node11" class="node">
<title>18</title>
<g id="a_node11"><a xlink:title="LiteralEntry">
<polygon fill="#ffffff" stroke="black" points="285.13,-252 181.13,-252 181.13,-216 285.13,-216 285.13,-252"/>
<text text-anchor="middle" x="233.13" y="-230.3" font-family="Times,serif" font-size="14.00">LiteralEntry</text>
</a>
</g>
</g>
<!-- 16&#45;&gt;18 -->
<g id="edge5" class="edge">
<title>16&#45;&gt;18</title>
<g id="a_edge5"><a xlink:title="usage">
<path fill="none" stroke="#1414ce" d="M125.11,-287.88C144.33,-278.47 168.36,-266.71 188.87,-256.67"/>
<polygon fill="#1414ce" stroke="#1414ce" points="190.57,-259.73 198.01,-252.19 187.49,-253.44 190.57,-259.73"/>
</a>
</g>
</g>
<!-- 17 -->
<g id="node19" class="node">
<title>17</title>
<g id="a_node19"><a xlink:title="ExportedFunction">
<polygon fill="#ffffff" stroke="black" points="163.13,-252 17.13,-252 17.13,-216 163.13,-216 163.13,-252"/>
<text text-anchor="middle" x="90.13" y="-230.3" font-family="Times,serif" font-size="14.00">ExportedFunction</text>
</a>
</g>
</g>
<!-- 16&#45;&gt;17 -->
<g id="edge4" class="edge">
<title>16&#45;&gt;17</title>
<g id="a_edge4"><a xlink:title="usage">
<path fill="none" stroke="#1414ce" d="M90.13,-287.7C90.13,-279.98 90.13,-270.71 90.13,-262.11"/>
<polygon fill="#1414ce" stroke="#1414ce" points="93.63,-262.1 90.13,-252.1 86.63,-262.1 93.63,-262.1"/>
</a>
</g>
</g>
<!-- 5&#45;&gt;5 -->
<g id="edge7" class="edge">
<title>5&#45;&gt;5</title>
<g id="a_edge7"><a xlink:title="usage">
<path fill="none" stroke="#1414ce" d="M505.87,-31.31C516.03,-30.38 523.63,-25.95 523.63,-18 523.63,-12.91 520.51,-9.26 515.6,-7.05"/>
<polygon fill="#1414ce" stroke="#1414ce" points="516.41,-3.64 505.87,-4.69 514.76,-10.45 516.41,-3.64"/>
</a>
</g>
</g>
<!-- 13 -->
<g id="node5" class="node">
<title>13</title>
<g id="a_node5"><a xlink:title="HeapFragment">
<polygon fill="#ffffff" stroke="black" points="1085.63,-36 960.63,-36 960.63,0 1085.63,0 1085.63,-36"/>
<text text-anchor="middle" x="1023.13" y="-14.3" font-family="Times,serif" font-size="14.00">HeapFragment</text>
</a>
</g>
</g>
<!-- 13&#45;&gt;13 -->
<g id="edge8" class="edge">
<title>13&#45;&gt;13</title>
<g id="a_edge8"><a xlink:title="usage">
<path fill="none" stroke="#1414ce" d="M1085.91,-30.55C1096.39,-28.79 1103.63,-24.61 1103.63,-18 1103.63,-13.77 1100.66,-10.53 1095.77,-8.29"/>
<polygon fill="#1414ce" stroke="#1414ce" points="1096.49,-4.85 1085.91,-5.45 1094.55,-11.58 1096.49,-4.85"/>
</a>
</g>
</g>
<!-- 15 -->
<g id="node6" class="node">
<title>15</title>
<g id="a_node6"><a xlink:title="RefcBinaryQueueItem">
<polygon fill="#ffffff" stroke="black" points="317.13,-324 143.13,-324 143.13,-288 317.13,-288 317.13,-324"/>
<text text-anchor="middle" x="230.13" y="-302.3" font-family="Times,serif" font-size="14.00">RefcBinaryQueueItem</text>
</a>
</g>
</g>
<!-- 15&#45;&gt;15 -->
<g id="edge10" class="edge">
<title>15&#45;&gt;15</title>
<g id="a_edge10"><a xlink:title="usage">
<path fill="none" stroke="#1414ce" d="M317.43,-317.68C328.12,-315.59 335.13,-311.7 335.13,-306 335.13,-302.35 332.25,-299.44 327.38,-297.27"/>
<polygon fill="#1414ce" stroke="#1414ce" points="328.02,-293.81 317.43,-294.32 326.02,-300.52 328.02,-293.81"/>
</a>
</g>
</g>
<!-- 2 -->
<g id="node16" class="node">
<title>2</title>
<g id="a_node16"><a xlink:title="RefcBinary">
<polygon fill="#ffffff" stroke="black" points="436.63,-252 341.63,-252 341.63,-216 436.63,-216 436.63,-252"/>
<text text-anchor="middle" x="389.13" y="-230.3" font-family="Times,serif" font-size="14.00">RefcBinary</text>
</a>
</g>
</g>
<!-- 15&#45;&gt;2 -->
<g id="edge9" class="edge">
<title>15&#45;&gt;2</title>
<g id="a_edge9"><a xlink:title="usage">
<path fill="none" stroke="#1414ce" d="M269.03,-287.88C290.76,-278.31 318.03,-266.3 341.09,-256.15"/>
<polygon fill="#1414ce" stroke="#1414ce" points="342.62,-259.3 350.36,-252.07 339.8,-252.89 342.62,-259.3"/>
</a>
</g>
</g>
<!-- 6&#45;&gt;21 -->
<g id="edge19" class="edge">
<title>6&#45;&gt;21</title>
<g id="a_edge19"><a xlink:title="usage">
<path fill="none" stroke="#1414ce" d="M797.9,-359.88C824.4,-349.74 858.05,-336.87 885.52,-326.36"/>
<polygon fill="#1414ce" stroke="#1414ce" points="886.86,-329.59 894.95,-322.75 884.36,-323.05 886.86,-329.59"/>
</a>
</g>
</g>
<!-- 6&#45;&gt;16 -->
<g id="edge16" class="edge">
<title>6&#45;&gt;16</title>
<g id="a_edge16"><a xlink:title="usage">
<path fill="none" stroke="#1414ce" d="M693.37,-377.46C583.66,-377.09 343.05,-370.7 135.27,-323.88"/>
<polygon fill="#1414ce" stroke="#1414ce" points="135.93,-320.44 125.4,-321.62 134.37,-327.26 135.93,-320.44"/>
</a>
</g>
</g>
<!-- 6&#45;&gt;5 -->
<g id="edge20" class="edge">
<title>6&#45;&gt;5</title>
<g id="a_edge20"><a xlink:title="usage">
<path fill="none" stroke="#1414ce" d="M769.62,-359.77C791.97,-334.53 829.13,-285.05 829.13,-235 829.13,-235 829.13,-235 829.13,-161 829.13,-94.52 615.72,-46.59 515.72,-27.78"/>
<polygon fill="#1414ce" stroke="#1414ce" points="516.3,-24.33 505.83,-25.95 515.02,-31.22 516.3,-24.33"/>
</a>
</g>
</g>
<!-- 6&#45;&gt;15 -->
<g id="edge14" class="edge">
<title>6&#45;&gt;15</title>
<g id="a_edge14"><a xlink:title="usage">
<path fill="none" stroke="#1414ce" d="M693.48,-369.63C613.79,-359.71 468.23,-341.29 344.13,-324 338.68,-323.24 333.09,-322.45 327.44,-321.64"/>
<polygon fill="#1414ce" stroke="#1414ce" points="327.64,-318.13 317.24,-320.17 326.64,-325.06 327.64,-318.13"/>
</a>
</g>
</g>
<!-- 7 -->
<g id="node8" class="node">
<title>7</title>
<g id="a_node8"><a xlink:title="Ets">
<polygon fill="#ffffff" stroke="black" points="723.13,-180 669.13,-180 669.13,-144 723.13,-144 723.13,-180"/>
<text text-anchor="middle" x="696.13" y="-158.3" font-family="Times,serif" font-size="14.00">Ets</text>
</a>
</g>
</g>
<!-- 6&#45;&gt;7 -->
<g id="edge11" class="edge">
<title>6&#45;&gt;7</title>
<g id="a_edge11"><a xlink:title="usage">
<path fill="none" stroke="#1414ce" d="M751.55,-359.67C748.45,-329.71 740.33,-266.61 723.13,-216 720.04,-206.91 715.63,-197.43 711.27,-189.04"/>
<polygon fill="#1414ce" stroke="#1414ce" points="714.28,-187.24 706.44,-180.11 708.12,-190.57 714.28,-187.24"/>
</a>
</g>
</g>
<!-- 20 -->
<g id="node10" class="node">
<title>20</title>
<g id="a_node10"><a xlink:title="TimerList">
<polygon fill="#ffffff" stroke="black" points="159.13,-108 73.13,-108 73.13,-72 159.13,-72 159.13,-108"/>
<text text-anchor="middle" x="116.13" y="-86.3" font-family="Times,serif" font-size="14.00">TimerList</text>
</a>
</g>
</g>
<!-- 6&#45;&gt;20 -->
<g id="edge18" class="edge">
<title>6&#45;&gt;20</title>
<g id="a_edge18"><a xlink:title="usage">
<path fill="none" stroke="#1414ce" d="M693.53,-375.81C532.94,-372.14 99.67,-359.08 46.13,-324 3.57,-296.11 -9.62,-263.69 8.13,-216 23.54,-174.59 59.52,-137.75 85.73,-114.98"/>
<polygon fill="#1414ce" stroke="#1414ce" points="88.15,-117.51 93.51,-108.37 83.62,-112.17 88.15,-117.51"/>
</a>
</g>
</g>
<!-- 8 -->
<g id="node14" class="node">
<title>8</title>
<g id="a_node14"><a xlink:title="MessageQueueItem">
<polygon fill="#ffffff" stroke="black" points="707.13,-324 549.13,-324 549.13,-288 707.13,-288 707.13,-324"/>
<text text-anchor="middle" x="628.13" y="-302.3" font-family="Times,serif" font-size="14.00">MessageQueueItem</text>
</a>
</g>
</g>
<!-- 6&#45;&gt;8 -->
<g id="edge12" class="edge">
<title>6&#45;&gt;8</title>
<g id="a_edge12"><a xlink:title="usage">
<path fill="none" stroke="#1414ce" d="M722.55,-359.88C706.06,-350.64 685.51,-339.13 667.79,-329.21"/>
<polygon fill="#1414ce" stroke="#1414ce" points="669.26,-326.02 658.83,-324.19 665.84,-332.13 669.26,-326.02"/>
</a>
</g>
</g>
<!-- 19 -->
<g id="node15" class="node">
<title>19</title>
<g id="a_node15"><a xlink:title="AtomsHashTable">
<polygon fill="#ffffff" stroke="black" points="994.63,-252 857.63,-252 857.63,-216 994.63,-216 994.63,-252"/>
<text text-anchor="middle" x="926.13" y="-230.3" font-family="Times,serif" font-size="14.00">AtomsHashTable</text>
</a>
</g>
</g>
<!-- 6&#45;&gt;19 -->
<g id="edge17" class="edge">
<title>6&#45;&gt;19</title>
<g id="a_edge17"><a xlink:title="usage">
<path fill="none" stroke="#1414ce" d="M787.54,-359.78C804.98,-350.32 826.02,-337.73 843.13,-324 866.96,-304.88 890.35,-278.96 906.19,-260.03"/>
<polygon fill="#1414ce" stroke="#1414ce" points="909.05,-262.07 912.71,-252.13 903.65,-257.62 909.05,-262.07"/>
</a>
</g>
</g>
<!-- 10 -->
<g id="node17" class="node">
<title>10</title>
<g id="a_node17"><a xlink:title="AtomTable">
<polygon fill="#ffffff" stroke="black" points="1087.13,-324 995.13,-324 995.13,-288 1087.13,-288 1087.13,-324"/>
<text text-anchor="middle" x="1041.13" y="-302.3" font-family="Times,serif" font-size="14.00">AtomTable</text>
</a>
</g>
</g>
<!-- 6&#45;&gt;10 -->
<g id="edge13" class="edge">
<title>6&#45;&gt;10</title>
<g id="a_edge13"><a xlink:title="usage">
<path fill="none" stroke="#1414ce" d="M812.81,-364.73C857.76,-355.2 921.08,-341.13 985.12,-324.17"/>
<polygon fill="#1414ce" stroke="#1414ce" points="986.23,-327.5 994.99,-321.54 984.43,-320.74 986.23,-327.5"/>
</a>
</g>
</g>
<!-- 6&#45;&gt;4 -->
<g id="edge15" class="edge">
<title>6&#45;&gt;4</title>
<g id="a_edge15"><a xlink:title="usage">
<path fill="none" stroke="#1414ce" d="M756.81,-359.91C764.67,-318.65 778.82,-211.96 732.13,-144 722.67,-130.23 708.35,-119.37 694.09,-111.17"/>
<polygon fill="#1414ce" stroke="#1414ce" points="695.73,-108.07 685.27,-106.39 692.4,-114.23 695.73,-108.07"/>
</a>
</g>
</g>
<!-- 7&#45;&gt;4 -->
<g id="edge21" class="edge">
<title>7&#45;&gt;4</title>
<g id="a_edge21"><a xlink:title="usage">
<path fill="none" stroke="#1414ce" d="M683.77,-143.7C677.9,-135.47 670.76,-125.48 664.29,-116.42"/>
<polygon fill="#1414ce" stroke="#1414ce" points="667.01,-114.21 658.35,-108.1 661.31,-118.28 667.01,-114.21"/>
</a>
</g>
</g>
<!-- 14 -->
<g id="node9" class="node">
<title>14</title>
<g id="a_node9"><a xlink:title="HNodeGroup">
<polygon fill="#ffffff" stroke="black" points="1161.13,-252 1051.13,-252 1051.13,-216 1161.13,-216 1161.13,-252"/>
<text text-anchor="middle" x="1106.13" y="-230.3" font-family="Times,serif" font-size="14.00">HNodeGroup</text>
</a>
</g>
</g>
<!-- 14&#45;&gt;14 -->
<g id="edge23" class="edge">
<title>14&#45;&gt;14</title>
<g id="a_edge23"><a xlink:title="usage">
<path fill="none" stroke="#1414ce" d="M1161.2,-246.85C1171.7,-245.32 1179.13,-241.03 1179.13,-234 1179.13,-229.5 1176.08,-226.12 1171.13,-223.87"/>
<polygon fill="#1414ce" stroke="#1414ce" points="1171.77,-220.42 1161.2,-221.15 1169.92,-227.17 1171.77,-220.42"/>
</a>
</g>
</g>
<!-- 11 -->
<g id="node21" class="node">
<title>11</title>
<g id="a_node21"><a xlink:title="HNode">
<polygon fill="#ffffff" stroke="black" points="1056.13,-180 990.13,-180 990.13,-144 1056.13,-144 1056.13,-180"/>
<text text-anchor="middle" x="1023.13" y="-158.3" font-family="Times,serif" font-size="14.00">HNode</text>
</a>
</g>
</g>
<!-- 14&#45;&gt;11 -->
<g id="edge22" class="edge">
<title>14&#45;&gt;11</title>
<g id="a_edge22"><a xlink:title="usage">
<path fill="none" stroke="#1414ce" d="M1085.61,-215.7C1075.26,-206.97 1062.54,-196.24 1051.29,-186.75"/>
<polygon fill="#1414ce" stroke="#1414ce" points="1053.31,-183.88 1043.41,-180.1 1048.8,-189.23 1053.31,-183.88"/>
</a>
</g>
</g>
<!-- 20&#45;&gt;5 -->
<g id="edge24" class="edge">
<title>20&#45;&gt;5</title>
<g id="a_edge24"><a xlink:title="usage">
<path fill="none" stroke="#1414ce" d="M159.27,-80.35C223.89,-67.39 345.55,-42.99 414.35,-29.18"/>
<polygon fill="#1414ce" stroke="#1414ce" points="415.4,-32.54 424.52,-27.15 414.02,-25.68 415.4,-32.54"/>
</a>
</g>
</g>
<!-- 9 -->
<g id="node12" class="node">
<title>9</title>
<g id="a_node12"><a xlink:title="MailboxMessage">
<polygon fill="#ffffff" stroke="black" points="696.63,-252 559.63,-252 559.63,-216 696.63,-216 696.63,-252"/>
<text text-anchor="middle" x="628.13" y="-230.3" font-family="Times,serif" font-size="14.00">MailboxMessage</text>
</a>
</g>
</g>
<!-- 9&#45;&gt;9 -->
<g id="edge25" class="edge">
<title>9&#45;&gt;9</title>
<g id="a_edge25"><a xlink:title="usage">
<path fill="none" stroke="#1414ce" d="M696.66,-246.37C707.34,-244.52 714.63,-240.4 714.63,-234 714.63,-229.8 711.49,-226.58 706.31,-224.34"/>
<polygon fill="#1414ce" stroke="#1414ce" points="707.23,-220.96 696.66,-221.63 705.34,-227.7 707.23,-220.96"/>
</a>
</g>
</g>
<!-- 12 -->
<g id="node13" class="node">
<title>12</title>
<g id="a_node13"><a xlink:title="Heap">
<polygon fill="#ffffff" stroke="black" points="1050.13,-108 996.13,-108 996.13,-72 1050.13,-72 1050.13,-108"/>
<text text-anchor="middle" x="1023.13" y="-86.3" font-family="Times,serif" font-size="14.00">Heap</text>
</a>
</g>
</g>
<!-- 12&#45;&gt;13 -->
<g id="edge26" class="edge">
<title>12&#45;&gt;13</title>
<g id="a_edge26"><a xlink:title="usage">
<path fill="none" stroke="#1414ce" d="M1023.13,-71.7C1023.13,-63.98 1023.13,-54.71 1023.13,-46.11"/>
<polygon fill="#1414ce" stroke="#1414ce" points="1026.63,-46.1 1023.13,-36.1 1019.63,-46.1 1026.63,-46.1"/>
</a>
</g>
</g>
<!-- 8&#45;&gt;9 -->
<g id="edge27" class="edge">
<title>8&#45;&gt;9</title>
<g id="a_edge27"><a xlink:title="usage">
<path fill="none" stroke="#1414ce" d="M628.13,-287.7C628.13,-279.98 628.13,-270.71 628.13,-262.11"/>
<polygon fill="#1414ce" stroke="#1414ce" points="631.63,-262.1 628.13,-252.1 624.63,-262.1 631.63,-262.1"/>
</a>
</g>
</g>
<!-- 8&#45;&gt;8 -->
<g id="edge28" class="edge">
<title>8&#45;&gt;8</title>
<g id="a_edge28"><a xlink:title="usage">
<path fill="none" stroke="#1414ce" d="M707.29,-317.98C718,-315.97 725.13,-311.98 725.13,-306 725.13,-302.08 722.06,-299.01 716.92,-296.8"/>
<polygon fill="#1414ce" stroke="#1414ce" points="717.87,-293.43 707.29,-294.02 715.93,-300.15 717.87,-293.43"/>
</a>
</g>
</g>
<!-- 19&#45;&gt;11 -->
<g id="edge29" class="edge">
<title>19&#45;&gt;11</title>
<g id="a_edge29"><a xlink:title="usage">
<path fill="none" stroke="#1414ce" d="M950.11,-215.7C962.44,-206.8 977.65,-195.82 990.98,-186.2"/>
<polygon fill="#1414ce" stroke="#1414ce" points="993.37,-188.79 999.43,-180.1 989.27,-183.12 993.37,-188.79"/>
</a>
</g>
</g>
<!-- 2&#45;&gt;3 -->
<g id="edge30" class="edge">
<title>2&#45;&gt;3</title>
<g id="a_edge30"><a xlink:title="usage">
<path fill="none" stroke="#1414ce" d="M429,-215.88C451.29,-206.31 479.25,-194.3 502.89,-184.15"/>
<polygon fill="#1414ce" stroke="#1414ce" points="504.58,-187.23 512.39,-180.07 501.82,-180.8 504.58,-187.23"/>
</a>
</g>
</g>
<!-- 2&#45;&gt;5 -->
<g id="edge31" class="edge">
<title>2&#45;&gt;5</title>
<g id="a_edge31"><a xlink:title="usage">
<path fill="none" stroke="#1414ce" d="M395.22,-215.85C408.42,-178.68 439.76,-90.44 455.61,-45.82"/>
<polygon fill="#1414ce" stroke="#1414ce" points="458.96,-46.83 459.01,-36.23 452.37,-44.48 458.96,-46.83"/>
</a>
</g>
</g>
<!-- 10&#45;&gt;14 -->
<g id="edge33" class="edge">
<title>10&#45;&gt;14</title>
<g id="a_edge33"><a xlink:title="usage">
<path fill="none" stroke="#1414ce" d="M1057.2,-287.7C1065.07,-279.22 1074.69,-268.86 1083.3,-259.58"/>
<polygon fill="#1414ce" stroke="#1414ce" points="1086.01,-261.81 1090.25,-252.1 1080.88,-257.05 1086.01,-261.81"/>
</a>
</g>
</g>
<!-- 10&#45;&gt;11 -->
<g id="edge32" class="edge">
<title>10&#45;&gt;11</title>
<g id="a_edge32"><a xlink:title="usage">
<path fill="none" stroke="#1414ce" d="M1038.96,-287.87C1035.89,-263.67 1030.26,-219.21 1026.6,-190.39"/>
<polygon fill="#1414ce" stroke="#1414ce" points="1030.04,-189.67 1025.31,-180.19 1023.09,-190.55 1030.04,-189.67"/>
</a>
</g>
</g>
<!-- 1 -->
<g id="node18" class="node">
<title>1</title>
<g id="a_node18"><a xlink:title="ResourceMonitor">
<polygon fill="#bfbfbf" stroke="black" points="493.13,-324 353.13,-324 353.13,-288 493.13,-288 493.13,-324"/>
<text text-anchor="middle" x="423.13" y="-302.3" font-family="Times,serif" font-size="14.00">ResourceMonitor</text>
</a>
</g>
</g>
<!-- 1&#45;&gt;5 -->
<g id="edge35" class="edge">
<title>1&#45;&gt;5</title>
<g id="a_edge35"><a xlink:title="usage">
<path fill="none" stroke="#1414ce" d="M431.86,-287.79C436.6,-277.64 442.1,-264.39 445.13,-252 462.89,-179.28 465.44,-90.45 465.48,-46.43"/>
<polygon fill="#1414ce" stroke="#1414ce" points="468.98,-46.23 465.44,-36.25 461.98,-46.26 468.98,-46.23"/>
</a>
</g>
</g>
<!-- 1&#45;&gt;2 -->
<g id="edge34" class="edge">
<title>1&#45;&gt;2</title>
<g id="a_edge34"><a xlink:title="usage">
<path fill="none" stroke="#1414ce" d="M414.73,-287.7C410.86,-279.73 406.18,-270.1 401.89,-261.26"/>
<polygon fill="#1414ce" stroke="#1414ce" points="404.96,-259.57 397.44,-252.1 398.66,-262.63 404.96,-259.57"/>
</a>
</g>
</g>
<!-- 4&#45;&gt;5 -->
<g id="edge36" class="edge">
<title>4&#45;&gt;5</title>
<g id="a_edge36"><a xlink:title="usage">
<path fill="none" stroke="#1414ce" d="M606.86,-73.81C580.05,-63.44 544.29,-49.62 515.41,-38.44"/>
<polygon fill="#1414ce" stroke="#1414ce" points="516.49,-35.11 505.9,-34.77 513.96,-41.64 516.49,-35.11"/>
</a>
</g>
</g>
<!-- 11&#45;&gt;12 -->
<g id="edge38" class="edge">
<title>11&#45;&gt;12</title>
<g id="a_edge38"><a xlink:title="usage">
<path fill="none" stroke="#1414ce" d="M1023.13,-143.7C1023.13,-135.98 1023.13,-126.71 1023.13,-118.11"/>
<polygon fill="#1414ce" stroke="#1414ce" points="1026.63,-118.1 1023.13,-108.1 1019.63,-118.1 1026.63,-118.1"/>
</a>
</g>
</g>
<!-- 11&#45;&gt;11 -->
<g id="edge37" class="edge">
<title>11&#45;&gt;11</title>
<g id="a_edge37"><a xlink:title="usage">
<path fill="none" stroke="#1414ce" d="M1056.48,-175.47C1066.41,-175.07 1074.13,-170.58 1074.13,-162 1074.13,-156.64 1071.11,-152.87 1066.43,-150.71"/>
<polygon fill="#1414ce" stroke="#1414ce" points="1067,-147.25 1056.48,-148.53 1065.5,-154.09 1067,-147.25"/>
</a>
</g>
</g>
</g>
</svg>
