<?xml version="1.0" encoding="UTF-8" standalone="no"?>
<!DOCTYPE svg PUBLIC "-//W3C//DTD SVG 1.1//EN"
 "http://www.w3.org/Graphics/SVG/1.1/DTD/svg11.dtd">
<!-- Generated by graphviz version 2.43.0 (0)
 -->
<!-- Title: %3 Pages: 1 -->
<svg width="1494pt" height="548pt"
 viewBox="0.00 0.00 1493.52 548.00" xmlns="http://www.w3.org/2000/svg" xmlns:xlink="http://www.w3.org/1999/xlink">
<g id="graph0" class="graph" transform="scale(1 1) rotate(0) translate(4 544)">
<title>%3</title>
<polygon fill="transparent" stroke="transparent" points="-4,4 -4,-544 1489.52,-544 1489.52,4 -4,4"/>
<!-- 26 -->
<g id="node1" class="node">
<title>26</title>
<g id="a_node1"><a xlink:title="SpinLock">
<polygon fill="#ffffff" stroke="black" points="602,-324 520,-324 520,-288 602,-288 602,-324"/>
<text text-anchor="middle" x="561" y="-302.3" font-family="Times,serif" font-size="14.00">SpinLock</text>
</a>
</g>
</g>
<!-- 23 -->
<g id="node2" class="node">
<title>23</title>
<g id="a_node2"><a xlink:title="ResourceType">
<polygon fill="#ffffff" stroke="black" points="633.5,-180 516.5,-180 516.5,-144 633.5,-144 633.5,-180"/>
<text text-anchor="middle" x="575" y="-158.3" font-family="Times,serif" font-size="14.00">ResourceType</text>
</a>
</g>
</g>
<!-- 4 -->
<g id="node5" class="node">
<title>4</title>
<g id="a_node5"><a xlink:title="ListHead">
<polygon fill="#ffffff" stroke="black" points="746.5,-36 665.5,-36 665.5,0 746.5,0 746.5,-36"/>
<text text-anchor="middle" x="706" y="-14.3" font-family="Times,serif" font-size="14.00">ListHead</text>
</a>
</g>
</g>
<!-- 23&#45;&gt;4 -->
<g id="edge3" class="edge">
<title>23&#45;&gt;4</title>
<g id="a_edge3"><a xlink:title="usage">
<path fill="none" stroke="#1414ce" d="M587.77,-143.99C601.83,-125.62 625.45,-95.79 648,-72 657.4,-62.08 668.33,-51.8 678.15,-42.97"/>
<polygon fill="#1414ce" stroke="#1414ce" points="680.59,-45.49 685.74,-36.23 675.94,-40.26 680.59,-45.49"/>
</a>
</g>
</g>
<!-- 14 -->
<g id="node8" class="node">
<title>14</title>
<g id="a_node8"><a xlink:title="GlobalContext">
<polygon fill="#ffffff" stroke="black" points="586.5,-396 467.5,-396 467.5,-360 586.5,-360 586.5,-396"/>
<text text-anchor="middle" x="527" y="-374.3" font-family="Times,serif" font-size="14.00">GlobalContext</text>
</a>
</g>
</g>
<!-- 23&#45;&gt;14 -->
<g id="edge2" class="edge">
<title>23&#45;&gt;14</title>
<g id="a_edge2"><a xlink:title="usage">
<path fill="none" stroke="#1414ce" d="M562.84,-180.17C547.24,-203.34 521,-246.52 511,-288 506.02,-308.67 510.78,-332.37 516.38,-350.12"/>
<polygon fill="#1414ce" stroke="#1414ce" points="513.15,-351.49 519.7,-359.81 519.77,-349.22 513.15,-351.49"/>
</a>
</g>
</g>
<!-- 16 -->
<g id="node25" class="node">
<title>16</title>
<g id="a_node25"><a xlink:title="SyncList">
<polygon fill="#ffffff" stroke="black" points="566,-108 488,-108 488,-72 566,-72 566,-108"/>
<text text-anchor="middle" x="527" y="-86.3" font-family="Times,serif" font-size="14.00">SyncList</text>
</a>
</g>
</g>
<!-- 23&#45;&gt;16 -->
<g id="edge1" class="edge">
<title>23&#45;&gt;16</title>
<g id="a_edge1"><a xlink:title="usage">
<path fill="none" stroke="#1414ce" d="M563.13,-143.7C557.5,-135.47 550.65,-125.48 544.43,-116.42"/>
<polygon fill="#1414ce" stroke="#1414ce" points="547.27,-114.37 538.73,-108.1 541.5,-118.33 547.27,-114.37"/>
</a>
</g>
</g>
<!-- 9 -->
<g id="node3" class="node">
<title>9</title>
<g id="a_node3"><a xlink:title="Module">
<polygon fill="#ffffff" stroke="black" points="1170,-324 1100,-324 1100,-288 1170,-288 1170,-324"/>
<text text-anchor="middle" x="1135" y="-302.3" font-family="Times,serif" font-size="14.00">Module</text>
</a>
</g>
</g>
<!-- 9&#45;&gt;4 -->
<g id="edge6" class="edge">
<title>9&#45;&gt;4</title>
<g id="a_edge6"><a xlink:title="usage">
<path fill="none" stroke="#1414ce" d="M1099.79,-294.31C1055.82,-280.82 985.02,-258.58 974,-252 954.02,-240.07 953.28,-231.57 936,-216 864.81,-151.86 778.41,-79.2 734.54,-42.66"/>
<polygon fill="#1414ce" stroke="#1414ce" points="736.53,-39.76 726.6,-36.05 732.05,-45.14 736.53,-39.76"/>
</a>
</g>
</g>
<!-- 11 -->
<g id="node13" class="node">
<title>11</title>
<g id="a_node13"><a xlink:title="LiteralEntry">
<polygon fill="#ffffff" stroke="black" points="1251,-252 1147,-252 1147,-216 1251,-216 1251,-252"/>
<text text-anchor="middle" x="1199" y="-230.3" font-family="Times,serif" font-size="14.00">LiteralEntry</text>
</a>
</g>
</g>
<!-- 9&#45;&gt;11 -->
<g id="edge5" class="edge">
<title>9&#45;&gt;11</title>
<g id="a_edge5"><a xlink:title="usage">
<path fill="none" stroke="#1414ce" d="M1150.82,-287.7C1158.57,-279.22 1168.04,-268.86 1176.52,-259.58"/>
<polygon fill="#1414ce" stroke="#1414ce" points="1179.2,-261.85 1183.36,-252.1 1174.03,-257.12 1179.2,-261.85"/>
</a>
</g>
</g>
<!-- 10 -->
<g id="node23" class="node">
<title>10</title>
<g id="a_node23"><a xlink:title="ExportedFunction">
<polygon fill="#ffffff" stroke="black" points="1129,-252 983,-252 983,-216 1129,-216 1129,-252"/>
<text text-anchor="middle" x="1056" y="-230.3" font-family="Times,serif" font-size="14.00">ExportedFunction</text>
</a>
</g>
</g>
<!-- 9&#45;&gt;10 -->
<g id="edge4" class="edge">
<title>9&#45;&gt;10</title>
<g id="a_edge4"><a xlink:title="usage">
<path fill="none" stroke="#1414ce" d="M1115.47,-287.7C1105.62,-278.97 1093.51,-268.24 1082.8,-258.75"/>
<polygon fill="#1414ce" stroke="#1414ce" points="1085.11,-256.12 1075.3,-252.1 1080.47,-261.36 1085.11,-256.12"/>
</a>
</g>
</g>
<!-- 2 -->
<g id="node4" class="node">
<title>2</title>
<g id="a_node4"><a xlink:title="AVMPackData">
<polygon fill="#ffffff" stroke="black" points="1459.5,-468 1342.5,-468 1342.5,-432 1459.5,-432 1459.5,-468"/>
<text text-anchor="middle" x="1401" y="-446.3" font-family="Times,serif" font-size="14.00">AVMPackData</text>
</a>
</g>
</g>
<!-- 2&#45;&gt;4 -->
<g id="edge8" class="edge">
<title>2&#45;&gt;4</title>
<g id="a_edge8"><a xlink:title="usage">
<path fill="none" stroke="#1414ce" d="M1429.82,-431.95C1442.78,-422.86 1457.12,-410.54 1466,-396 1487.09,-361.49 1485,-347.45 1485,-307 1485,-307 1485,-307 1485,-161 1485,-49.73 1359.33,-97.39 1251,-72 1072.62,-30.2 853.93,-21.3 756.73,-19.45"/>
<polygon fill="#1414ce" stroke="#1414ce" points="756.66,-15.95 746.6,-19.28 756.53,-22.95 756.66,-15.95"/>
</a>
</g>
</g>
<!-- 3 -->
<g id="node9" class="node">
<title>3</title>
<g id="a_node9"><a xlink:title="AVMPackInfo">
<polygon fill="#ffffff" stroke="black" points="1456.5,-396 1345.5,-396 1345.5,-360 1456.5,-360 1456.5,-396"/>
<text text-anchor="middle" x="1401" y="-374.3" font-family="Times,serif" font-size="14.00">AVMPackInfo</text>
</a>
</g>
</g>
<!-- 2&#45;&gt;3 -->
<g id="edge7" class="edge">
<title>2&#45;&gt;3</title>
<g id="a_edge7"><a xlink:title="usage">
<path fill="none" stroke="#1414ce" d="M1401,-431.7C1401,-423.98 1401,-414.71 1401,-406.11"/>
<polygon fill="#1414ce" stroke="#1414ce" points="1404.5,-406.1 1401,-396.1 1397.5,-406.1 1404.5,-406.1"/>
</a>
</g>
</g>
<!-- 4&#45;&gt;4 -->
<g id="edge9" class="edge">
<title>4&#45;&gt;4</title>
<g id="a_edge9"><a xlink:title="usage">
<path fill="none" stroke="#1414ce" d="M746.73,-31.31C756.9,-30.38 764.5,-25.95 764.5,-18 764.5,-12.91 761.38,-9.26 756.47,-7.05"/>
<polygon fill="#1414ce" stroke="#1414ce" points="757.28,-3.64 746.73,-4.69 755.63,-10.45 757.28,-3.64"/>
</a>
</g>
</g>
<!-- 13 -->
<g id="node6" class="node">
<title>13</title>
<g id="a_node6"><a xlink:title="HeapFragment">
<polygon fill="#ffffff" stroke="black" points="129.5,-36 4.5,-36 4.5,0 129.5,0 129.5,-36"/>
<text text-anchor="middle" x="67" y="-14.3" font-family="Times,serif" font-size="14.00">HeapFragment</text>
</a>
</g>
</g>
<!-- 13&#45;&gt;13 -->
<g id="edge10" class="edge">
<title>13&#45;&gt;13</title>
<g id="a_edge10"><a xlink:title="usage">
<path fill="none" stroke="#1414ce" d="M129.78,-30.55C140.26,-28.79 147.5,-24.61 147.5,-18 147.5,-13.77 144.53,-10.53 139.64,-8.29"/>
<polygon fill="#1414ce" stroke="#1414ce" points="140.36,-4.85 129.78,-5.45 138.42,-11.58 140.36,-4.85"/>
</a>
</g>
</g>
<!-- 21 -->
<g id="node7" class="node">
<title>21</title>
<g id="a_node7"><a xlink:title="RefcBinaryQueueItem">
<polygon fill="#ffffff" stroke="black" points="832,-324 658,-324 658,-288 832,-288 832,-324"/>
<text text-anchor="middle" x="745" y="-302.3" font-family="Times,serif" font-size="14.00">RefcBinaryQueueItem</text>
</a>
</g>
</g>
<!-- 21&#45;&gt;21 -->
<g id="edge12" class="edge">
<title>21&#45;&gt;21</title>
<g id="a_edge12"><a xlink:title="usage">
<path fill="none" stroke="#1414ce" d="M832.3,-317.68C842.99,-315.59 850,-311.7 850,-306 850,-302.35 847.12,-299.44 842.25,-297.27"/>
<polygon fill="#1414ce" stroke="#1414ce" points="842.88,-293.81 832.3,-294.32 840.89,-300.52 842.88,-293.81"/>
</a>
</g>
</g>
<!-- 22 -->
<g id="node19" class="node">
<title>22</title>
<g id="a_node19"><a xlink:title="RefcBinary">
<polygon fill="#ffffff" stroke="black" points="753.5,-252 658.5,-252 658.5,-216 753.5,-216 753.5,-252"/>
<text text-anchor="middle" x="706" y="-230.3" font-family="Times,serif" font-size="14.00">RefcBinary</text>
</a>
</g>
</g>
<!-- 21&#45;&gt;22 -->
<g id="edge11" class="edge">
<title>21&#45;&gt;22</title>
<g id="a_edge11"><a xlink:title="usage">
<path fill="none" stroke="#1414ce" d="M735.36,-287.7C730.87,-279.64 725.44,-269.89 720.48,-260.98"/>
<polygon fill="#1414ce" stroke="#1414ce" points="723.45,-259.14 715.53,-252.1 717.34,-262.54 723.45,-259.14"/>
</a>
</g>
</g>
<!-- 14&#45;&gt;26 -->
<g id="edge21" class="edge">
<title>14&#45;&gt;26</title>
<g id="a_edge21"><a xlink:title="usage">
<path fill="none" stroke="#1414ce" d="M535.4,-359.7C539.27,-351.73 543.95,-342.1 548.24,-333.26"/>
<polygon fill="#1414ce" stroke="#1414ce" points="551.47,-334.63 552.69,-324.1 545.17,-331.57 551.47,-334.63"/>
</a>
</g>
</g>
<!-- 14&#45;&gt;9 -->
<g id="edge18" class="edge">
<title>14&#45;&gt;9</title>
<g id="a_edge18"><a xlink:title="usage">
<path fill="none" stroke="#1414ce" d="M586.81,-373.01C684.67,-366.02 884.95,-349.82 1053,-324 1064.89,-322.17 1077.67,-319.75 1089.51,-317.31"/>
<polygon fill="#1414ce" stroke="#1414ce" points="1090.57,-320.66 1099.63,-315.17 1089.12,-313.81 1090.57,-320.66"/>
</a>
</g>
</g>
<!-- 14&#45;&gt;4 -->
<g id="edge22" class="edge">
<title>14&#45;&gt;4</title>
<g id="a_edge22"><a xlink:title="usage">
<path fill="none" stroke="#1414ce" d="M566.1,-359.86C582,-351.16 599.34,-339.18 611,-324 619.77,-312.58 676.89,-118.77 698.09,-46.17"/>
<polygon fill="#1414ce" stroke="#1414ce" points="701.51,-46.95 700.95,-36.37 694.79,-44.99 701.51,-46.95"/>
</a>
</g>
</g>
<!-- 14&#45;&gt;21 -->
<g id="edge16" class="edge">
<title>14&#45;&gt;21</title>
<g id="a_edge16"><a xlink:title="usage">
<path fill="none" stroke="#1414ce" d="M580.05,-359.97C610.77,-350.1 649.64,-337.62 681.92,-327.25"/>
<polygon fill="#1414ce" stroke="#1414ce" points="683.26,-330.5 691.71,-324.11 681.12,-323.84 683.26,-330.5"/>
</a>
</g>
</g>
<!-- 15 -->
<g id="node10" class="node">
<title>15</title>
<g id="a_node10"><a xlink:title="Ets">
<polygon fill="#ffffff" stroke="black" points="498,-180 444,-180 444,-144 498,-144 498,-180"/>
<text text-anchor="middle" x="471" y="-158.3" font-family="Times,serif" font-size="14.00">Ets</text>
</a>
</g>
</g>
<!-- 14&#45;&gt;15 -->
<g id="edge13" class="edge">
<title>14&#45;&gt;15</title>
<g id="a_edge13"><a xlink:title="usage">
<path fill="none" stroke="#1414ce" d="M518.4,-359.68C513.62,-349.49 507.87,-336.24 504,-324 489.49,-278.04 479.76,-222.64 474.82,-190.27"/>
<polygon fill="#1414ce" stroke="#1414ce" points="478.26,-189.59 473.33,-180.22 471.34,-190.62 478.26,-189.59"/>
</a>
</g>
</g>
<!-- 25 -->
<g id="node12" class="node">
<title>25</title>
<g id="a_node12"><a xlink:title="TimerList">
<polygon fill="#ffffff" stroke="black" points="431,-108 345,-108 345,-72 431,-72 431,-108"/>
<text text-anchor="middle" x="388" y="-86.3" font-family="Times,serif" font-size="14.00">TimerList</text>
</a>
</g>
</g>
<!-- 14&#45;&gt;25 -->
<g id="edge20" class="edge">
<title>14&#45;&gt;25</title>
<g id="a_edge20"><a xlink:title="usage">
<path fill="none" stroke="#1414ce" d="M502.64,-359.79C490.64,-350.33 476.7,-337.74 467,-324 420.79,-258.6 399.9,-164.03 392.02,-118.09"/>
<polygon fill="#1414ce" stroke="#1414ce" points="395.44,-117.32 390.37,-108.02 388.53,-118.45 395.44,-117.32"/>
</a>
</g>
</g>
<!-- 17 -->
<g id="node17" class="node">
<title>17</title>
<g id="a_node17"><a xlink:title="MessageQueueItem">
<polygon fill="#ffffff" stroke="black" points="1026,-324 868,-324 868,-288 1026,-288 1026,-324"/>
<text text-anchor="middle" x="947" y="-302.3" font-family="Times,serif" font-size="14.00">MessageQueueItem</text>
</a>
</g>
</g>
<!-- 14&#45;&gt;17 -->
<g id="edge14" class="edge">
<title>14&#45;&gt;17</title>
<g id="a_edge14"><a xlink:title="usage">
<path fill="none" stroke="#1414ce" d="M586.77,-368.06C651.17,-358.29 756.92,-341.85 857.81,-324.18"/>
<polygon fill="#1414ce" stroke="#1414ce" points="858.63,-327.59 867.87,-322.41 857.41,-320.7 858.63,-327.59"/>
</a>
</g>
</g>
<!-- 24 -->
<g id="node18" class="node">
<title>24</title>
<g id="a_node18"><a xlink:title="AtomsHashTable">
<polygon fill="#ffffff" stroke="black" points="349.5,-252 212.5,-252 212.5,-216 349.5,-216 349.5,-252"/>
<text text-anchor="middle" x="281" y="-230.3" font-family="Times,serif" font-size="14.00">AtomsHashTable</text>
</a>
</g>
</g>
<!-- 14&#45;&gt;24 -->
<g id="edge19" class="edge">
<title>14&#45;&gt;24</title>
<g id="a_edge19"><a xlink:title="usage">
<path fill="none" stroke="#1414ce" d="M467.28,-365.27C434.97,-357.09 395.37,-343.99 364,-324 337.65,-307.21 314.05,-280.12 298.81,-260.23"/>
<polygon fill="#1414ce" stroke="#1414ce" points="301.6,-258.12 292.81,-252.2 295.99,-262.31 301.6,-258.12"/>
</a>
</g>
</g>
<!-- 18 -->
<g id="node22" class="node">
<title>18</title>
<g id="a_node22"><a xlink:title="AtomTable">
<polygon fill="#ffffff" stroke="black" points="230,-324 138,-324 138,-288 230,-288 230,-324"/>
<text text-anchor="middle" x="184" y="-302.3" font-family="Times,serif" font-size="14.00">AtomTable</text>
</a>
</g>
</g>
<!-- 14&#45;&gt;18 -->
<g id="edge15" class="edge">
<title>14&#45;&gt;18</title>
<g id="a_edge15"><a xlink:title="usage">
<path fill="none" stroke="#1414ce" d="M467.25,-364.81C403.35,-351.76 302.77,-331.24 240.24,-318.48"/>
<polygon fill="#1414ce" stroke="#1414ce" points="240.66,-314.99 230.16,-316.42 239.26,-321.85 240.66,-314.99"/>
</a>
</g>
</g>
<!-- 14&#45;&gt;16 -->
<g id="edge17" class="edge">
<title>14&#45;&gt;16</title>
<g id="a_edge17"><a xlink:title="usage">
<path fill="none" stroke="#1414ce" d="M513.19,-359.55C505.69,-349.53 496.62,-336.49 490,-324 457.93,-263.46 447.43,-247.37 435,-180 432.1,-164.27 426.99,-157.85 435,-144 444.65,-127.3 461.78,-115.4 478.66,-107.16"/>
<polygon fill="#1414ce" stroke="#1414ce" points="480.3,-110.27 487.97,-102.96 477.41,-103.89 480.3,-110.27"/>
</a>
</g>
</g>
<!-- 15&#45;&gt;16 -->
<g id="edge23" class="edge">
<title>15&#45;&gt;16</title>
<g id="a_edge23"><a xlink:title="usage">
<path fill="none" stroke="#1414ce" d="M484.84,-143.7C491.49,-135.39 499.58,-125.28 506.89,-116.14"/>
<polygon fill="#1414ce" stroke="#1414ce" points="509.8,-118.1 513.32,-108.1 504.34,-113.73 509.8,-118.1"/>
</a>
</g>
</g>
<!-- 20 -->
<g id="node11" class="node">
<title>20</title>
<g id="a_node11"><a xlink:title="HNodeGroup">
<polygon fill="#ffffff" stroke="black" points="138,-252 28,-252 28,-216 138,-216 138,-252"/>
<text text-anchor="middle" x="83" y="-230.3" font-family="Times,serif" font-size="14.00">HNodeGroup</text>
</a>
</g>
</g>
<!-- 20&#45;&gt;20 -->
<g id="edge25" class="edge">
<title>20&#45;&gt;20</title>
<g id="a_edge25"><a xlink:title="usage">
<path fill="none" stroke="#1414ce" d="M138.07,-246.85C148.57,-245.32 156,-241.03 156,-234 156,-229.5 152.95,-226.12 148,-223.87"/>
<polygon fill="#1414ce" stroke="#1414ce" points="148.64,-220.42 138.07,-221.15 146.79,-227.17 148.64,-220.42"/>
</a>
</g>
</g>
<!-- 19 -->
<g id="node26" class="node">
<title>19</title>
<g id="a_node26"><a xlink:title="HNode">
<polygon fill="#ffffff" stroke="black" points="167,-180 101,-180 101,-144 167,-144 167,-180"/>
<text text-anchor="middle" x="134" y="-158.3" font-family="Times,serif" font-size="14.00">HNode</text>
</a>
</g>
</g>
<!-- 20&#45;&gt;19 -->
<g id="edge24" class="edge">
<title>20&#45;&gt;19</title>
<g id="a_edge24"><a xlink:title="usage">
<path fill="none" stroke="#1414ce" d="M95.61,-215.7C101.6,-207.47 108.88,-197.48 115.48,-188.42"/>
<polygon fill="#1414ce" stroke="#1414ce" points="118.48,-190.25 121.54,-180.1 112.82,-186.13 118.48,-190.25"/>
</a>
</g>
</g>
<!-- 25&#45;&gt;4 -->
<g id="edge26" class="edge">
<title>25&#45;&gt;4</title>
<g id="a_edge26"><a xlink:title="usage">
<path fill="none" stroke="#1414ce" d="M431.22,-79.49C489.61,-66.63 593.51,-43.76 655.45,-30.13"/>
<polygon fill="#1414ce" stroke="#1414ce" points="656.38,-33.51 665.39,-27.94 654.87,-26.67 656.38,-33.51"/>
</a>
</g>
</g>
<!-- 7 -->
<g id="node14" class="node">
<title>7</title>
<g id="a_node14"><a xlink:title="MailboxMessage">
<polygon fill="#ffffff" stroke="black" points="908.5,-252 771.5,-252 771.5,-216 908.5,-216 908.5,-252"/>
<text text-anchor="middle" x="840" y="-230.3" font-family="Times,serif" font-size="14.00">MailboxMessage</text>
</a>
</g>
</g>
<!-- 7&#45;&gt;7 -->
<g id="edge27" class="edge">
<title>7&#45;&gt;7</title>
<g id="a_edge27"><a xlink:title="usage">
<path fill="none" stroke="#1414ce" d="M908.53,-246.37C919.21,-244.52 926.5,-240.4 926.5,-234 926.5,-229.8 923.36,-226.58 918.18,-224.34"/>
<polygon fill="#1414ce" stroke="#1414ce" points="919.1,-220.96 908.53,-221.63 917.21,-227.7 919.1,-220.96"/>
</a>
</g>
</g>
<!-- 12 -->
<g id="node15" class="node">
<title>12</title>
<g id="a_node15"><a xlink:title="Heap">
<polygon fill="#ffffff" stroke="black" points="94,-108 40,-108 40,-72 94,-72 94,-108"/>
<text text-anchor="middle" x="67" y="-86.3" font-family="Times,serif" font-size="14.00">Heap</text>
</a>
</g>
</g>
<!-- 12&#45;&gt;13 -->
<g id="edge28" class="edge">
<title>12&#45;&gt;13</title>
<g id="a_edge28"><a xlink:title="usage">
<path fill="none" stroke="#1414ce" d="M67,-71.7C67,-63.98 67,-54.71 67,-46.11"/>
<polygon fill="#1414ce" stroke="#1414ce" points="70.5,-46.1 67,-36.1 63.5,-46.1 70.5,-46.1"/>
</a>
</g>
</g>
<!-- 5 -->
<g id="node16" class="node">
<title>5</title>
<g id="a_node16"><a xlink:title="Context">
<polygon fill="#ffffff" stroke="black" points="1173.5,-468 1100.5,-468 1100.5,-432 1173.5,-432 1173.5,-468"/>
<text text-anchor="middle" x="1137" y="-446.3" font-family="Times,serif" font-size="14.00">Context</text>
</a>
</g>
</g>
<!-- 5&#45;&gt;9 -->
<g id="edge32" class="edge">
<title>5&#45;&gt;9</title>
<g id="a_edge32"><a xlink:title="usage">
<path fill="none" stroke="#1414ce" d="M1136.76,-431.87C1136.42,-407.67 1135.79,-363.21 1135.39,-334.39"/>
<polygon fill="#1414ce" stroke="#1414ce" points="1138.88,-334.14 1135.24,-324.19 1131.88,-334.24 1138.88,-334.14"/>
</a>
</g>
</g>
<!-- 5&#45;&gt;4 -->
<g id="edge35" class="edge">
<title>5&#45;&gt;4</title>
<g id="a_edge35"><a xlink:title="usage">
<path fill="none" stroke="#1414ce" d="M1173.86,-438.28C1226.52,-420.43 1317,-379.24 1317,-307 1317,-307 1317,-307 1317,-161 1317,-46.27 903.13,-24.21 756.64,-19.99"/>
<polygon fill="#1414ce" stroke="#1414ce" points="756.65,-16.49 746.56,-19.71 756.46,-23.49 756.65,-16.49"/>
</a>
</g>
</g>
<!-- 5&#45;&gt;14 -->
<g id="edge34" class="edge">
<title>5&#45;&gt;14</title>
<g id="a_edge34"><a xlink:title="usage">
<path fill="none" stroke="#1414ce" d="M1100.22,-444.78C1001.03,-433.4 726.8,-401.93 596.93,-387.02"/>
<polygon fill="#1414ce" stroke="#1414ce" points="597.04,-383.51 586.7,-385.85 596.24,-390.47 597.04,-383.51"/>
</a>
</g>
</g>
<!-- 5&#45;&gt;12 -->
<g id="edge33" class="edge">
<title>5&#45;&gt;12</title>
<g id="a_edge33"><a xlink:title="usage">
<path fill="none" stroke="#1414ce" d="M1100.46,-448.37C905.84,-444.55 0,-420.64 0,-307 0,-307 0,-307 0,-233 0,-188.73 26.97,-143.47 46.69,-116.3"/>
<polygon fill="#1414ce" stroke="#1414ce" points="49.6,-118.25 52.79,-108.14 44,-114.05 49.6,-118.25"/>
</a>
</g>
</g>
<!-- 5&#45;&gt;5 -->
<g id="edge29" class="edge">
<title>5&#45;&gt;5</title>
<g id="a_edge29"><a xlink:title="usage">
<path fill="none" stroke="#1414ce" d="M1173.68,-463.42C1183.78,-462.77 1191.5,-458.3 1191.5,-450 1191.5,-444.81 1188.48,-441.12 1183.76,-438.93"/>
<polygon fill="#1414ce" stroke="#1414ce" points="1184.21,-435.44 1173.68,-436.58 1182.63,-442.26 1184.21,-435.44"/>
</a>
</g>
</g>
<!-- 6 -->
<g id="node21" class="node">
<title>6</title>
<g id="a_node21"><a xlink:title="Mailbox">
<polygon fill="#ffffff" stroke="black" points="1109,-396 1035,-396 1035,-360 1109,-360 1109,-396"/>
<text text-anchor="middle" x="1072" y="-374.3" font-family="Times,serif" font-size="14.00">Mailbox</text>
</a>
</g>
</g>
<!-- 5&#45;&gt;6 -->
<g id="edge30" class="edge">
<title>5&#45;&gt;6</title>
<g id="a_edge30"><a xlink:title="usage">
<path fill="none" stroke="#1414ce" d="M1120.93,-431.7C1113.06,-423.22 1103.44,-412.86 1094.83,-403.58"/>
<polygon fill="#1414ce" stroke="#1414ce" points="1097.25,-401.05 1087.88,-396.1 1092.12,-405.81 1097.25,-401.05"/>
</a>
</g>
</g>
<!-- 8 -->
<g id="node24" class="node">
<title>8</title>
<g id="a_node24"><a xlink:title="TimerListItem">
<polygon fill="#ffffff" stroke="black" points="1229.5,-180 1110.5,-180 1110.5,-144 1229.5,-144 1229.5,-180"/>
<text text-anchor="middle" x="1170" y="-158.3" font-family="Times,serif" font-size="14.00">TimerListItem</text>
</a>
</g>
</g>
<!-- 5&#45;&gt;8 -->
<g id="edge31" class="edge">
<title>5&#45;&gt;8</title>
<g id="a_edge31"><a xlink:title="usage">
<path fill="none" stroke="#1414ce" d="M1152.44,-431.92C1180.45,-399.64 1238.73,-326.23 1260,-252 1264.41,-236.62 1267.94,-229.89 1260,-216 1252.54,-202.95 1240.48,-192.8 1227.58,-185.03"/>
<polygon fill="#1414ce" stroke="#1414ce" points="1229,-181.82 1218.56,-180.03 1225.61,-187.94 1229,-181.82"/>
</a>
</g>
</g>
<!-- 17&#45;&gt;7 -->
<g id="edge36" class="edge">
<title>17&#45;&gt;7</title>
<g id="a_edge36"><a xlink:title="usage">
<path fill="none" stroke="#1414ce" d="M920.82,-287.88C906.96,-278.81 889.76,-267.55 874.79,-257.76"/>
<polygon fill="#1414ce" stroke="#1414ce" points="876.56,-254.74 866.28,-252.19 872.73,-260.59 876.56,-254.74"/>
</a>
</g>
</g>
<!-- 17&#45;&gt;17 -->
<g id="edge37" class="edge">
<title>17&#45;&gt;17</title>
<g id="a_edge37"><a xlink:title="usage">
<path fill="none" stroke="#1414ce" d="M1026.16,-317.98C1036.87,-315.97 1044,-311.98 1044,-306 1044,-302.08 1040.93,-299.01 1035.79,-296.8"/>
<polygon fill="#1414ce" stroke="#1414ce" points="1036.74,-293.43 1026.16,-294.02 1034.8,-300.15 1036.74,-293.43"/>
</a>
</g>
</g>
<!-- 24&#45;&gt;19 -->
<g id="edge38" class="edge">
<title>24&#45;&gt;19</title>
<g id="a_edge38"><a xlink:title="usage">
<path fill="none" stroke="#1414ce" d="M245.04,-215.88C224.22,-205.96 197.89,-193.43 176.11,-183.05"/>
<polygon fill="#1414ce" stroke="#1414ce" points="177.61,-179.89 167.08,-178.75 174.6,-186.21 177.61,-179.89"/>
</a>
</g>
</g>
<!-- 22&#45;&gt;23 -->
<g id="edge39" class="edge">
<title>22&#45;&gt;23</title>
<g id="a_edge39"><a xlink:title="usage">
<path fill="none" stroke="#1414ce" d="M673.95,-215.88C656.51,-206.55 634.73,-194.92 616.06,-184.94"/>
<polygon fill="#1414ce" stroke="#1414ce" points="617.64,-181.82 607.17,-180.19 614.34,-187.99 617.64,-181.82"/>
</a>
</g>
</g>
<!-- 22&#45;&gt;4 -->
<g id="edge40" class="edge">
<title>22&#45;&gt;4</title>
<g id="a_edge40"><a xlink:title="usage">
<path fill="none" stroke="#1414ce" d="M706,-215.85C706,-178.83 706,-91.18 706,-46.39"/>
<polygon fill="#1414ce" stroke="#1414ce" points="709.5,-46.23 706,-36.23 702.5,-46.23 709.5,-46.23"/>
</a>
</g>
</g>
<!-- 1 -->
<g id="node20" class="node">
<title>1</title>
<g id="a_node20"><a xlink:title="CodeAllAvailableAcc">
<polygon fill="#bfbfbf" stroke="black" points="1349.5,-540 1188.5,-540 1188.5,-504 1349.5,-504 1349.5,-540"/>
<text text-anchor="middle" x="1269" y="-518.3" font-family="Times,serif" font-size="14.00">CodeAllAvailableAcc</text>
</a>
</g>
</g>
<!-- 1&#45;&gt;2 -->
<g id="edge41" class="edge">
<title>1&#45;&gt;2</title>
<g id="a_edge41"><a xlink:title="usage">
<path fill="none" stroke="#1414ce" d="M1301.29,-503.88C1318.87,-494.55 1340.81,-482.92 1359.63,-472.94"/>
<polygon fill="#1414ce" stroke="#1414ce" points="1361.39,-475.97 1368.59,-468.19 1358.11,-469.78 1361.39,-475.97"/>
</a>
</g>
</g>
<!-- 1&#45;&gt;5 -->
<g id="edge42" class="edge">
<title>1&#45;&gt;5</title>
<g id="a_edge42"><a xlink:title="usage">
<path fill="none" stroke="#1414ce" d="M1236.71,-503.88C1219.13,-494.55 1197.19,-482.92 1178.37,-472.94"/>
<polygon fill="#1414ce" stroke="#1414ce" points="1179.89,-469.78 1169.41,-468.19 1176.61,-475.97 1179.89,-469.78"/>
</a>
</g>
</g>
<!-- 6&#45;&gt;7 -->
<g id="edge43" class="edge">
<title>6&#45;&gt;7</title>
<g id="a_edge43"><a xlink:title="usage">
<path fill="none" stroke="#1414ce" d="M1073.34,-359.8C1073.9,-339.83 1071.56,-307.19 1053,-288 1043.32,-277.99 975.21,-262.12 918.57,-250.36"/>
<polygon fill="#1414ce" stroke="#1414ce" points="919.01,-246.87 908.51,-248.28 917.6,-253.73 919.01,-246.87"/>
</a>
</g>
</g>
<!-- 18&#45;&gt;20 -->
<g id="edge45" class="edge">
<title>18&#45;&gt;20</title>
<g id="a_edge45"><a xlink:title="usage">
<path fill="none" stroke="#1414ce" d="M159.29,-287.88C146.33,-278.89 130.27,-267.76 116.23,-258.03"/>
<polygon fill="#1414ce" stroke="#1414ce" points="118.02,-255.01 107.8,-252.19 114.03,-260.76 118.02,-255.01"/>
</a>
</g>
</g>
<!-- 18&#45;&gt;19 -->
<g id="edge44" class="edge">
<title>18&#45;&gt;19</title>
<g id="a_edge44"><a xlink:title="usage">
<path fill="none" stroke="#1414ce" d="M181.98,-287.8C179.47,-269.53 174.31,-240.01 165,-216 161.44,-206.8 156.4,-197.33 151.42,-188.98"/>
<polygon fill="#1414ce" stroke="#1414ce" points="154.36,-187.08 146.11,-180.43 148.41,-190.77 154.36,-187.08"/>
</a>
</g>
</g>
<!-- 8&#45;&gt;4 -->
<g id="edge46" class="edge">
<title>8&#45;&gt;4</title>
<g id="a_edge46"><a xlink:title="usage">
<path fill="none" stroke="#1414ce" d="M1137.43,-143.92C1098.37,-124.07 1030.46,-91.54 969,-72 896.86,-49.06 810.31,-33.89 756.73,-25.86"/>
<polygon fill="#1414ce" stroke="#1414ce" points="757.2,-22.39 746.79,-24.4 756.18,-29.32 757.2,-22.39"/>
</a>
</g>
</g>
<!-- 16&#45;&gt;4 -->
<g id="edge47" class="edge">
<title>16&#45;&gt;4</title>
<g id="a_edge47"><a xlink:title="usage">
<path fill="none" stroke="#1414ce" d="M566.28,-73.64C592.63,-63.33 627.57,-49.67 655.92,-38.58"/>
<polygon fill="#1414ce" stroke="#1414ce" points="657.22,-41.83 665.26,-34.93 654.67,-35.32 657.22,-41.83"/>
</a>
</g>
</g>
<!-- 19&#45;&gt;12 -->
<g id="edge49" class="edge">
<title>19&#45;&gt;12</title>
<g id="a_edge49"><a xlink:title="usage">
<path fill="none" stroke="#1414ce" d="M117.44,-143.7C109.32,-135.22 99.41,-124.86 90.53,-115.58"/>
<polygon fill="#1414ce" stroke="#1414ce" points="92.81,-112.91 83.37,-108.1 87.76,-117.75 92.81,-112.91"/>
</a>
</g>
</g>
<!-- 19&#45;&gt;19 -->
<g id="edge48" class="edge">
<title>19&#45;&gt;19</title>
<g id="a_edge48"><a xlink:title="usage">
<path fill="none" stroke="#1414ce" d="M167.35,-175.47C177.28,-175.07 185,-170.58 185,-162 185,-156.64 181.98,-152.87 177.3,-150.71"/>
<polygon fill="#1414ce" stroke="#1414ce" points="177.87,-147.25 167.35,-148.53 176.37,-154.09 177.87,-147.25"/>
</a>
</g>
</g>
</g>
</svg>
