<?xml version="1.0" encoding="UTF-8" standalone="no"?>
<!DOCTYPE svg PUBLIC "-//W3C//DTD SVG 1.1//EN"
 "http://www.w3.org/Graphics/SVG/1.1/DTD/svg11.dtd">
<!-- Generated by graphviz version 2.43.0 (0)
 -->
<!-- Title: %3 Pages: 1 -->
<svg width="1495pt" height="836pt"
 viewBox="0.00 0.00 1494.50 836.00" xmlns="http://www.w3.org/2000/svg" xmlns:xlink="http://www.w3.org/1999/xlink">
<g id="graph0" class="graph" transform="scale(1 1) rotate(0) translate(4 832)">
<title>%3</title>
<polygon fill="transparent" stroke="transparent" points="-4,4 -4,-832 1490.5,-832 1490.5,4 -4,4"/>
<!-- 7 -->
<g id="node1" class="node">
<title>7</title>
<g id="a_node1"><a xlink:title="stdbool.h">
<polygon fill="#ffffff" stroke="black" points="565,-108 482,-108 482,-72 565,-72 565,-108"/>
<text text-anchor="middle" x="523.5" y="-86.3" font-family="Times,serif" font-size="14.00">stdbool.h</text>
</a>
</g>
</g>
<!-- 24 -->
<g id="node2" class="node">
<title>24</title>
<g id="a_node2"><a xlink:title="refc_binary.h">
<polygon fill="#ffffff" stroke="black" points="972.5,-396 864.5,-396 864.5,-360 972.5,-360 972.5,-396"/>
<text text-anchor="middle" x="918.5" y="-374.3" font-family="Times,serif" font-size="14.00">refc_binary.h</text>
</a>
</g>
</g>
<!-- 24&#45;&gt;7 -->
<g id="edge1" class="edge">
<title>24&#45;&gt;7</title>
<g id="a_edge1"><a xlink:title="include">
<path fill="none" stroke="#1414ce" d="M895,-359.83C883.5,-350.38 870.29,-337.79 861.5,-324 834.37,-281.45 857.13,-256.1 826.5,-216 765.55,-136.21 644.68,-107.03 575.44,-96.6"/>
<polygon fill="#1414ce" stroke="#1414ce" points="575.6,-93.08 565.2,-95.13 574.61,-100.01 575.6,-93.08"/>
</a>
</g>
</g>
<!-- 14 -->
<g id="node8" class="node">
<title>14</title>
<g id="a_node8"><a xlink:title="list.h">
<polygon fill="#ffffff" stroke="black" points="550.5,-180 496.5,-180 496.5,-144 550.5,-144 550.5,-180"/>
<text text-anchor="middle" x="523.5" y="-158.3" font-family="Times,serif" font-size="14.00">list.h</text>
</a>
</g>
</g>
<!-- 24&#45;&gt;14 -->
<g id="edge3" class="edge">
<title>24&#45;&gt;14</title>
<g id="a_edge3"><a xlink:title="include">
<path fill="none" stroke="#1414ce" d="M872.34,-359.83C816.06,-338.09 718.88,-297.87 641.5,-252 608.72,-232.57 574.27,-205.74 551.11,-186.63"/>
<polygon fill="#1414ce" stroke="#1414ce" points="553.34,-183.92 543.41,-180.21 548.86,-189.3 553.34,-183.92"/>
</a>
</g>
</g>
<!-- 5 -->
<g id="node10" class="node">
<title>5</title>
<g id="a_node10"><a xlink:title="stdlib.h">
<polygon fill="#ffffff" stroke="black" points="1053,-108 982,-108 982,-72 1053,-72 1053,-108"/>
<text text-anchor="middle" x="1017.5" y="-86.3" font-family="Times,serif" font-size="14.00">stdlib.h</text>
</a>
</g>
</g>
<!-- 24&#45;&gt;5 -->
<g id="edge2" class="edge">
<title>24&#45;&gt;5</title>
<g id="a_edge2"><a xlink:title="include">
<path fill="none" stroke="#1414ce" d="M945.85,-359.77C958.08,-350.64 971.51,-338.34 979.5,-324 1016.74,-257.19 1019.88,-163.97 1018.85,-118.35"/>
<polygon fill="#1414ce" stroke="#1414ce" points="1022.34,-117.96 1018.52,-108.08 1015.34,-118.18 1022.34,-117.96"/>
</a>
</g>
</g>
<!-- 25 -->
<g id="node13" class="node">
<title>25</title>
<g id="a_node13"><a xlink:title="resources.h">
<polygon fill="#ffffff" stroke="black" points="970.5,-324 870.5,-324 870.5,-288 970.5,-288 970.5,-324"/>
<text text-anchor="middle" x="920.5" y="-302.3" font-family="Times,serif" font-size="14.00">resources.h</text>
</a>
</g>
</g>
<!-- 24&#45;&gt;25 -->
<g id="edge4" class="edge">
<title>24&#45;&gt;25</title>
<g id="a_edge4"><a xlink:title="include">
<path fill="none" stroke="#1414ce" d="M918.99,-359.7C919.21,-351.98 919.48,-342.71 919.73,-334.11"/>
<polygon fill="#1414ce" stroke="#1414ce" points="923.22,-334.2 920.01,-324.1 916.23,-334 923.22,-334.2"/>
</a>
</g>
</g>
<!-- 28 -->
<g id="node3" class="node">
<title>28</title>
<g id="a_node3"><a xlink:title="nifs.h">
<polygon fill="#ffffff" stroke="black" points="219.5,-756 163.5,-756 163.5,-720 219.5,-720 219.5,-756"/>
<text text-anchor="middle" x="191.5" y="-734.3" font-family="Times,serif" font-size="14.00">nifs.h</text>
</a>
</g>
</g>
<!-- 4 -->
<g id="node4" class="node">
<title>4</title>
<g id="a_node4"><a xlink:title="atom.h">
<polygon fill="#ffffff" stroke="black" points="311.5,-468 245.5,-468 245.5,-432 311.5,-432 311.5,-468"/>
<text text-anchor="middle" x="278.5" y="-446.3" font-family="Times,serif" font-size="14.00">atom.h</text>
</a>
</g>
</g>
<!-- 28&#45;&gt;4 -->
<g id="edge5" class="edge">
<title>28&#45;&gt;4</title>
<g id="a_edge5"><a xlink:title="include">
<path fill="none" stroke="#1414ce" d="M196.68,-719.97C211.24,-672.09 252.63,-536.06 270.32,-477.9"/>
<polygon fill="#1414ce" stroke="#1414ce" points="273.67,-478.89 273.24,-468.31 266.98,-476.85 273.67,-478.89"/>
</a>
</g>
</g>
<!-- 29 -->
<g id="node11" class="node">
<title>29</title>
<g id="a_node11"><a xlink:title="context.h">
<polygon fill="#ffffff" stroke="black" points="430,-684 347,-684 347,-648 430,-648 430,-684"/>
<text text-anchor="middle" x="388.5" y="-662.3" font-family="Times,serif" font-size="14.00">context.h</text>
</a>
</g>
</g>
<!-- 28&#45;&gt;29 -->
<g id="edge6" class="edge">
<title>28&#45;&gt;29</title>
<g id="a_edge6"><a xlink:title="include">
<path fill="none" stroke="#1414ce" d="M219.64,-723.68C222.61,-722.39 225.61,-721.14 228.5,-720 264.24,-705.92 305.41,-692.34 337.03,-682.45"/>
<polygon fill="#1414ce" stroke="#1414ce" points="338.43,-685.68 346.95,-679.38 336.36,-679 338.43,-685.68"/>
</a>
</g>
</g>
<!-- 30 -->
<g id="node17" class="node">
<title>30</title>
<g id="a_node17"><a xlink:title="exportedfunction.h">
<polygon fill="#ffffff" stroke="black" points="1112.5,-612 960.5,-612 960.5,-576 1112.5,-576 1112.5,-612"/>
<text text-anchor="middle" x="1036.5" y="-590.3" font-family="Times,serif" font-size="14.00">exportedfunction.h</text>
</a>
</g>
</g>
<!-- 28&#45;&gt;30 -->
<g id="edge7" class="edge">
<title>28&#45;&gt;30</title>
<g id="a_edge7"><a xlink:title="include">
<path fill="none" stroke="#1414ce" d="M219.88,-723.01C222.75,-721.89 225.66,-720.85 228.5,-720 262.94,-709.64 749.43,-637.32 950.5,-607.65"/>
<polygon fill="#1414ce" stroke="#1414ce" points="951.05,-611.11 960.43,-606.19 950.03,-604.18 951.05,-611.11"/>
</a>
</g>
</g>
<!-- 3 -->
<g id="node9" class="node">
<title>3</title>
<g id="a_node9"><a xlink:title="stdint.h">
<polygon fill="#ffffff" stroke="black" points="567.5,-36 495.5,-36 495.5,0 567.5,0 567.5,-36"/>
<text text-anchor="middle" x="531.5" y="-14.3" font-family="Times,serif" font-size="14.00">stdint.h</text>
</a>
</g>
</g>
<!-- 4&#45;&gt;3 -->
<g id="edge8" class="edge">
<title>4&#45;&gt;3</title>
<g id="a_edge8"><a xlink:title="include">
<path fill="none" stroke="#1414ce" d="M257.69,-431.97C219.37,-398.54 141.5,-320.14 141.5,-235 141.5,-235 141.5,-235 141.5,-161 141.5,-104.74 181.53,-97.84 231.5,-72 313.66,-29.51 423.57,-20.34 484.97,-18.79"/>
<polygon fill="#1414ce" stroke="#1414ce" points="485.2,-22.29 495.13,-18.6 485.06,-15.29 485.2,-22.29"/>
</a>
</g>
</g>
<!-- 4&#45;&gt;5 -->
<g id="edge9" class="edge">
<title>4&#45;&gt;5</title>
<g id="a_edge9"><a xlink:title="include">
<path fill="none" stroke="#1414ce" d="M309.01,-431.87C380.37,-392.05 564.15,-290.94 722.5,-216 809.66,-174.75 914.04,-132.05 972.36,-108.78"/>
<polygon fill="#1414ce" stroke="#1414ce" points="973.67,-112.02 981.66,-105.07 971.08,-105.52 973.67,-112.02"/>
</a>
</g>
</g>
<!-- 10 -->
<g id="node5" class="node">
<title>10</title>
<g id="a_node5"><a xlink:title="assert.h">
<polygon fill="#ffffff" stroke="black" points="1486.5,-36 1412.5,-36 1412.5,0 1486.5,0 1486.5,-36"/>
<text text-anchor="middle" x="1449.5" y="-14.3" font-family="Times,serif" font-size="14.00">assert.h</text>
</a>
</g>
</g>
<!-- 22 -->
<g id="node6" class="node">
<title>22</title>
<g id="a_node6"><a xlink:title="utils.h">
<polygon fill="#ffffff" stroke="black" points="1201.5,-180 1139.5,-180 1139.5,-144 1201.5,-144 1201.5,-180"/>
<text text-anchor="middle" x="1170.5" y="-158.3" font-family="Times,serif" font-size="14.00">utils.h</text>
</a>
</g>
</g>
<!-- 22&#45;&gt;5 -->
<g id="edge12" class="edge">
<title>22&#45;&gt;5</title>
<g id="a_edge12"><a xlink:title="include">
<path fill="none" stroke="#1414ce" d="M1139.17,-146.67C1117,-136.52 1086.94,-122.77 1062.25,-111.47"/>
<polygon fill="#1414ce" stroke="#1414ce" points="1063.62,-108.25 1053.07,-107.28 1060.71,-114.62 1063.62,-108.25"/>
</a>
</g>
</g>
<!-- 23 -->
<g id="node15" class="node">
<title>23</title>
<g id="a_node15"><a xlink:title="stddef.h">
<polygon fill="#ffffff" stroke="black" points="1185.5,-108 1111.5,-108 1111.5,-72 1185.5,-72 1185.5,-108"/>
<text text-anchor="middle" x="1148.5" y="-86.3" font-family="Times,serif" font-size="14.00">stddef.h</text>
</a>
</g>
</g>
<!-- 22&#45;&gt;23 -->
<g id="edge10" class="edge">
<title>22&#45;&gt;23</title>
<g id="a_edge10"><a xlink:title="include">
<path fill="none" stroke="#1414ce" d="M1165.06,-143.7C1162.61,-135.9 1159.66,-126.51 1156.93,-117.83"/>
<polygon fill="#1414ce" stroke="#1414ce" points="1160.21,-116.59 1153.88,-108.1 1153.54,-118.69 1160.21,-116.59"/>
</a>
</g>
</g>
<!-- 16 -->
<g id="node29" class="node">
<title>16</title>
<g id="a_node29"><a xlink:title="stdio.h">
<polygon fill="#ffffff" stroke="black" points="1269,-108 1204,-108 1204,-72 1269,-72 1269,-108"/>
<text text-anchor="middle" x="1236.5" y="-86.3" font-family="Times,serif" font-size="14.00">stdio.h</text>
</a>
</g>
</g>
<!-- 22&#45;&gt;16 -->
<g id="edge11" class="edge">
<title>22&#45;&gt;16</title>
<g id="a_edge11"><a xlink:title="include">
<path fill="none" stroke="#1414ce" d="M1186.81,-143.7C1194.81,-135.22 1204.57,-124.86 1213.32,-115.58"/>
<polygon fill="#1414ce" stroke="#1414ce" points="1216.06,-117.78 1220.37,-108.1 1210.97,-112.98 1216.06,-117.78"/>
</a>
</g>
</g>
<!-- 15 -->
<g id="node7" class="node">
<title>15</title>
<g id="a_node7"><a xlink:title="synclist.h">
<polygon fill="#ffffff" stroke="black" points="485,-252 400,-252 400,-216 485,-216 485,-252"/>
<text text-anchor="middle" x="442.5" y="-230.3" font-family="Times,serif" font-size="14.00">synclist.h</text>
</a>
</g>
</g>
<!-- 15&#45;&gt;14 -->
<g id="edge14" class="edge">
<title>15&#45;&gt;14</title>
<g id="a_edge14"><a xlink:title="include">
<path fill="none" stroke="#1414ce" d="M462.52,-215.7C472.63,-206.97 485.04,-196.24 496.02,-186.75"/>
<polygon fill="#1414ce" stroke="#1414ce" points="498.43,-189.29 503.71,-180.1 493.85,-183.99 498.43,-189.29"/>
</a>
</g>
</g>
<!-- 17 -->
<g id="node25" class="node">
<title>17</title>
<g id="a_node25"><a xlink:title="smp.h">
<polygon fill="#ffffff" stroke="black" points="267.5,-180 207.5,-180 207.5,-144 267.5,-144 267.5,-180"/>
<text text-anchor="middle" x="237.5" y="-158.3" font-family="Times,serif" font-size="14.00">smp.h</text>
</a>
</g>
</g>
<!-- 15&#45;&gt;17 -->
<g id="edge15" class="edge">
<title>15&#45;&gt;17</title>
<g id="a_edge15"><a xlink:title="include">
<path fill="none" stroke="#1414ce" d="M399.53,-218.33C363.62,-206.07 312.8,-188.71 277.7,-176.73"/>
<polygon fill="#1414ce" stroke="#1414ce" points="278.38,-173.26 267.79,-173.34 276.12,-179.89 278.38,-173.26"/>
</a>
</g>
</g>
<!-- 15&#45;&gt;16 -->
<g id="edge13" class="edge">
<title>15&#45;&gt;16</title>
<g id="a_edge13"><a xlink:title="include">
<path fill="none" stroke="#1414ce" d="M485.2,-229.22C599.73,-218.39 922.8,-183.23 1194.1,-107.76"/>
<polygon fill="#1414ce" stroke="#1414ce" points="1195.04,-111.13 1203.72,-105.06 1193.15,-104.39 1195.04,-111.13"/>
</a>
</g>
</g>
<!-- 14&#45;&gt;7 -->
<g id="edge16" class="edge">
<title>14&#45;&gt;7</title>
<g id="a_edge16"><a xlink:title="include">
<path fill="none" stroke="#1414ce" d="M523.5,-143.7C523.5,-135.98 523.5,-126.71 523.5,-118.11"/>
<polygon fill="#1414ce" stroke="#1414ce" points="527,-118.1 523.5,-108.1 520,-118.1 527,-118.1"/>
</a>
</g>
</g>
<!-- 29&#45;&gt;14 -->
<g id="edge18" class="edge">
<title>29&#45;&gt;14</title>
<g id="a_edge18"><a xlink:title="include">
<path fill="none" stroke="#1414ce" d="M425.37,-647.87C483.39,-619.69 589.5,-562.73 589.5,-523 589.5,-523 589.5,-523 589.5,-377 589.5,-306.75 556.62,-229.06 537.28,-189.43"/>
<polygon fill="#1414ce" stroke="#1414ce" points="540.27,-187.59 532.68,-180.2 534,-190.71 540.27,-187.59"/>
</a>
</g>
</g>
<!-- 18 -->
<g id="node14" class="node">
<title>18</title>
<g id="a_node14"><a xlink:title="term.h">
<polygon fill="#ffffff" stroke="black" points="1012,-468 947,-468 947,-432 1012,-432 1012,-468"/>
<text text-anchor="middle" x="979.5" y="-446.3" font-family="Times,serif" font-size="14.00">term.h</text>
</a>
</g>
</g>
<!-- 29&#45;&gt;18 -->
<g id="edge21" class="edge">
<title>29&#45;&gt;18</title>
<g id="a_edge21"><a xlink:title="include">
<path fill="none" stroke="#1414ce" d="M430.06,-650.41C433.23,-649.53 436.41,-648.71 439.5,-648 562.25,-619.96 601.87,-654.2 720.5,-612 812.07,-579.42 905.49,-510.78 951.03,-474.55"/>
<polygon fill="#1414ce" stroke="#1414ce" points="953.36,-477.16 958.96,-468.17 948.97,-471.71 953.36,-477.16"/>
</a>
</g>
</g>
<!-- 2 -->
<g id="node24" class="node">
<title>2</title>
<g id="a_node24"><a xlink:title="globalcontext.h">
<polygon fill="#ffffff" stroke="black" points="452,-612 325,-612 325,-576 452,-576 452,-612"/>
<text text-anchor="middle" x="388.5" y="-590.3" font-family="Times,serif" font-size="14.00">globalcontext.h</text>
</a>
</g>
</g>
<!-- 29&#45;&gt;2 -->
<g id="edge17" class="edge">
<title>29&#45;&gt;2</title>
<g id="a_edge17"><a xlink:title="include">
<path fill="none" stroke="#1414ce" d="M388.5,-647.7C388.5,-639.98 388.5,-630.71 388.5,-622.11"/>
<polygon fill="#1414ce" stroke="#1414ce" points="392,-622.1 388.5,-612.1 385,-622.1 392,-622.1"/>
</a>
</g>
</g>
<!-- 29&#45;&gt;17 -->
<g id="edge20" class="edge">
<title>29&#45;&gt;17</title>
<g id="a_edge20"><a xlink:title="include">
<path fill="none" stroke="#1414ce" d="M346.93,-655.93C259.7,-635.69 65.5,-583.8 65.5,-523 65.5,-523 65.5,-523 65.5,-305 65.5,-236.79 146.93,-195.22 197.74,-175.92"/>
<polygon fill="#1414ce" stroke="#1414ce" points="198.96,-179.2 207.15,-172.46 196.55,-172.63 198.96,-179.2"/>
</a>
</g>
</g>
<!-- 27 -->
<g id="node27" class="node">
<title>27</title>
<g id="a_node27"><a xlink:title="timer_list.h">
<polygon fill="#ffffff" stroke="black" points="305.5,-252 207.5,-252 207.5,-216 305.5,-216 305.5,-252"/>
<text text-anchor="middle" x="256.5" y="-230.3" font-family="Times,serif" font-size="14.00">timer_list.h</text>
</a>
</g>
</g>
<!-- 29&#45;&gt;27 -->
<g id="edge22" class="edge">
<title>29&#45;&gt;27</title>
<g id="a_edge22"><a xlink:title="include">
<path fill="none" stroke="#1414ce" d="M355.07,-647.92C319.21,-627.58 263.99,-589.98 238.5,-540 187.61,-440.22 208.06,-396.85 234.5,-288 236.66,-279.09 240.11,-269.74 243.65,-261.42"/>
<polygon fill="#1414ce" stroke="#1414ce" points="246.88,-262.76 247.76,-252.21 240.49,-259.91 246.88,-262.76"/>
</a>
</g>
</g>
<!-- 26 -->
<g id="node28" class="node">
<title>26</title>
<g id="a_node28"><a xlink:title="mailbox.h">
<polygon fill="#ffffff" stroke="black" points="817.5,-252 731.5,-252 731.5,-216 817.5,-216 817.5,-252"/>
<text text-anchor="middle" x="774.5" y="-230.3" font-family="Times,serif" font-size="14.00">mailbox.h</text>
</a>
</g>
</g>
<!-- 29&#45;&gt;26 -->
<g id="edge19" class="edge">
<title>29&#45;&gt;26</title>
<g id="a_edge19"><a xlink:title="include">
<path fill="none" stroke="#1414ce" d="M430.14,-650.72C433.29,-649.76 436.44,-648.84 439.5,-648 565.82,-613.19 706.5,-654.03 706.5,-523 706.5,-523 706.5,-523 706.5,-377 706.5,-332.6 733.87,-287.38 753.88,-260.25"/>
<polygon fill="#1414ce" stroke="#1414ce" points="756.81,-262.18 760.08,-252.11 751.24,-257.95 756.81,-262.18"/>
</a>
</g>
</g>
<!-- 21 -->
<g id="node12" class="node">
<title>21</title>
<g id="a_node12"><a xlink:title="memory.h">
<polygon fill="#ffffff" stroke="black" points="1149.5,-252 1063.5,-252 1063.5,-216 1149.5,-216 1149.5,-252"/>
<text text-anchor="middle" x="1106.5" y="-230.3" font-family="Times,serif" font-size="14.00">memory.h</text>
</a>
</g>
</g>
<!-- 21&#45;&gt;22 -->
<g id="edge27" class="edge">
<title>21&#45;&gt;22</title>
<g id="a_edge27"><a xlink:title="include">
<path fill="none" stroke="#1414ce" d="M1122.32,-215.7C1130.07,-207.22 1139.54,-196.86 1148.02,-187.58"/>
<polygon fill="#1414ce" stroke="#1414ce" points="1150.7,-189.85 1154.86,-180.1 1145.53,-185.12 1150.7,-189.85"/>
</a>
</g>
</g>
<!-- 21&#45;&gt;3 -->
<g id="edge23" class="edge">
<title>21&#45;&gt;3</title>
<g id="a_edge23"><a xlink:title="include">
<path fill="none" stroke="#1414ce" d="M1107.44,-215.88C1108.24,-182.39 1104.71,-108.32 1061.5,-72 1024.83,-41.18 700.29,-25.53 577.92,-20.68"/>
<polygon fill="#1414ce" stroke="#1414ce" points="577.87,-17.18 567.75,-20.29 577.6,-24.17 577.87,-17.18"/>
</a>
</g>
</g>
<!-- 21&#45;&gt;5 -->
<g id="edge24" class="edge">
<title>21&#45;&gt;5</title>
<g id="a_edge24"><a xlink:title="include">
<path fill="none" stroke="#1414ce" d="M1095.76,-215.87C1080.33,-191.24 1051.74,-145.64 1033.72,-116.88"/>
<polygon fill="#1414ce" stroke="#1414ce" points="1036.55,-114.8 1028.27,-108.19 1030.62,-118.52 1036.55,-114.8"/>
</a>
</g>
</g>
<!-- 8 -->
<g id="node16" class="node">
<title>8</title>
<g id="a_node16"><a xlink:title="erl_nif.h">
<polygon fill="#ffffff" stroke="black" points="1369.5,-180 1295.5,-180 1295.5,-144 1369.5,-144 1369.5,-180"/>
<text text-anchor="middle" x="1332.5" y="-158.3" font-family="Times,serif" font-size="14.00">erl_nif.h</text>
</a>
</g>
</g>
<!-- 21&#45;&gt;8 -->
<g id="edge25" class="edge">
<title>21&#45;&gt;8</title>
<g id="a_edge25"><a xlink:title="include">
<path fill="none" stroke="#1414ce" d="M1149.54,-219.67C1188.38,-207.64 1245.41,-189.97 1285.45,-177.57"/>
<polygon fill="#1414ce" stroke="#1414ce" points="1286.72,-180.84 1295.24,-174.54 1284.65,-174.16 1286.72,-180.84"/>
</a>
</g>
</g>
<!-- 9 -->
<g id="node23" class="node">
<title>9</title>
<g id="a_node23"><a xlink:title="term_typedef.h">
<polygon fill="#ffffff" stroke="black" points="1412,-108 1287,-108 1287,-72 1412,-72 1412,-108"/>
<text text-anchor="middle" x="1349.5" y="-86.3" font-family="Times,serif" font-size="14.00">term_typedef.h</text>
</a>
</g>
</g>
<!-- 21&#45;&gt;9 -->
<g id="edge26" class="edge">
<title>21&#45;&gt;9</title>
<g id="a_edge26"><a xlink:title="include">
<path fill="none" stroke="#1414ce" d="M1142.1,-215.94C1162.4,-205.94 1188.17,-192.8 1210.5,-180 1247.29,-158.91 1287.99,-132.47 1315.79,-113.9"/>
<polygon fill="#1414ce" stroke="#1414ce" points="1317.99,-116.64 1324.34,-108.17 1314.09,-110.83 1317.99,-116.64"/>
</a>
</g>
</g>
<!-- 25&#45;&gt;15 -->
<g id="edge32" class="edge">
<title>25&#45;&gt;15</title>
<g id="a_edge32"><a xlink:title="include">
<path fill="none" stroke="#1414ce" d="M870.25,-297.64C779.22,-284.31 587.9,-256.29 495.14,-242.71"/>
<polygon fill="#1414ce" stroke="#1414ce" points="495.54,-239.23 485.14,-241.24 494.53,-246.16 495.54,-239.23"/>
</a>
</g>
</g>
<!-- 25&#45;&gt;14 -->
<g id="edge30" class="edge">
<title>25&#45;&gt;14</title>
<g id="a_edge30"><a xlink:title="include">
<path fill="none" stroke="#1414ce" d="M870.19,-293.87C829.77,-284.37 771.8,-269.5 722.5,-252 718.38,-250.54 616.5,-204.8 560.15,-179.48"/>
<polygon fill="#1414ce" stroke="#1414ce" points="561.42,-176.21 550.86,-175.3 558.55,-182.6 561.42,-176.21"/>
</a>
</g>
</g>
<!-- 25&#45;&gt;5 -->
<g id="edge28" class="edge">
<title>25&#45;&gt;5</title>
<g id="a_edge28"><a xlink:title="include">
<path fill="none" stroke="#1414ce" d="M926.05,-287.6C935.9,-257.53 957.86,-194.27 983.5,-144 988.22,-134.75 994.12,-125.06 999.67,-116.54"/>
<polygon fill="#1414ce" stroke="#1414ce" points="1002.63,-118.41 1005.27,-108.15 996.81,-114.53 1002.63,-118.41"/>
</a>
</g>
</g>
<!-- 25&#45;&gt;21 -->
<g id="edge31" class="edge">
<title>25&#45;&gt;21</title>
<g id="a_edge31"><a xlink:title="include">
<path fill="none" stroke="#1414ce" d="M966,-287.88C992.55,-277.88 1026.17,-265.23 1053.86,-254.81"/>
<polygon fill="#1414ce" stroke="#1414ce" points="1055.26,-258.02 1063.39,-251.23 1052.79,-251.47 1055.26,-258.02"/>
</a>
</g>
</g>
<!-- 25&#45;&gt;8 -->
<g id="edge29" class="edge">
<title>25&#45;&gt;8</title>
<g id="a_edge29"><a xlink:title="include">
<path fill="none" stroke="#1414ce" d="M970.77,-297.62C1019.67,-289.55 1095.58,-274.68 1158.5,-252 1208.02,-234.15 1261.42,-205.25 1295.81,-185.25"/>
<polygon fill="#1414ce" stroke="#1414ce" points="1297.71,-188.19 1304.56,-180.11 1294.17,-182.16 1297.71,-188.19"/>
</a>
</g>
</g>
<!-- 18&#45;&gt;7 -->
<g id="edge34" class="edge">
<title>18&#45;&gt;7</title>
<g id="a_edge34"><a xlink:title="include">
<path fill="none" stroke="#1414ce" d="M946.68,-449.54C896.01,-448.83 797.61,-441.14 730.5,-396 618.19,-320.45 635.53,-255.98 559.5,-144 553.41,-135.03 546.73,-125.2 540.81,-116.47"/>
<polygon fill="#1414ce" stroke="#1414ce" points="543.69,-114.49 535.18,-108.18 537.9,-118.42 543.69,-114.49"/>
</a>
</g>
</g>
<!-- 18&#45;&gt;24 -->
<g id="edge40" class="edge">
<title>18&#45;&gt;24</title>
<g id="a_edge40"><a xlink:title="include">
<path fill="none" stroke="#1414ce" d="M964.42,-431.7C957.11,-423.3 948.19,-413.07 940.16,-403.86"/>
<polygon fill="#1414ce" stroke="#1414ce" points="942.61,-401.34 933.41,-396.1 937.34,-405.94 942.61,-401.34"/>
</a>
</g>
</g>
<!-- 18&#45;&gt;22 -->
<g id="edge41" class="edge">
<title>18&#45;&gt;22</title>
<g id="a_edge41"><a xlink:title="include">
<path fill="none" stroke="#1414ce" d="M1012.03,-449.16C1051.77,-447.42 1117.85,-437.9 1151.5,-396 1199.58,-336.13 1186.97,-237.5 1177.12,-190.09"/>
<polygon fill="#1414ce" stroke="#1414ce" points="1180.52,-189.27 1174.96,-180.25 1173.68,-190.77 1180.52,-189.27"/>
</a>
</g>
</g>
<!-- 18&#45;&gt;3 -->
<g id="edge35" class="edge">
<title>18&#45;&gt;3</title>
<g id="a_edge35"><a xlink:title="include">
<path fill="none" stroke="#1414ce" d="M946.62,-445.81C891.89,-439.76 785.9,-424.56 763.5,-396 711.19,-329.31 866.46,-290.75 826.5,-216 773.5,-116.87 646.11,-58.95 577.36,-33.87"/>
<polygon fill="#1414ce" stroke="#1414ce" points="578.25,-30.47 567.65,-30.41 575.9,-37.07 578.25,-30.47"/>
</a>
</g>
</g>
<!-- 18&#45;&gt;5 -->
<g id="edge37" class="edge">
<title>18&#45;&gt;5</title>
<g id="a_edge37"><a xlink:title="include">
<path fill="none" stroke="#1414ce" d="M1012.1,-444.09C1039.83,-438 1078.01,-424.67 1096.5,-396 1105.17,-382.55 1099.45,-375.73 1096.5,-360 1087,-309.38 1069.64,-301.23 1054.5,-252 1040.26,-205.7 1028.7,-150.41 1022.49,-118.15"/>
<polygon fill="#1414ce" stroke="#1414ce" points="1025.89,-117.31 1020.59,-108.14 1019.01,-118.61 1025.89,-117.31"/>
</a>
</g>
</g>
<!-- 18&#45;&gt;21 -->
<g id="edge39" class="edge">
<title>18&#45;&gt;21</title>
<g id="a_edge39"><a xlink:title="include">
<path fill="none" stroke="#1414ce" d="M1012.15,-447.93C1047.92,-444.81 1103.75,-433.74 1130.5,-396 1158.98,-355.81 1137.56,-295.72 1120.98,-261.45"/>
<polygon fill="#1414ce" stroke="#1414ce" points="1123.89,-259.46 1116.26,-252.1 1117.64,-262.61 1123.89,-259.46"/>
</a>
</g>
</g>
<!-- 19 -->
<g id="node21" class="node">
<title>19</title>
<g id="a_node21"><a xlink:title="sys/types.h">
<polygon fill="#ffffff" stroke="black" points="1088,-396 991,-396 991,-360 1088,-360 1088,-396"/>
<text text-anchor="middle" x="1039.5" y="-374.3" font-family="Times,serif" font-size="14.00">sys/types.h</text>
</a>
</g>
</g>
<!-- 18&#45;&gt;19 -->
<g id="edge33" class="edge">
<title>18&#45;&gt;19</title>
<g id="a_edge33"><a xlink:title="include">
<path fill="none" stroke="#1414ce" d="M994.33,-431.7C1001.52,-423.3 1010.3,-413.07 1018.19,-403.86"/>
<polygon fill="#1414ce" stroke="#1414ce" points="1020.99,-405.97 1024.84,-396.1 1015.67,-401.42 1020.99,-405.97"/>
</a>
</g>
</g>
<!-- 20 -->
<g id="node22" class="node">
<title>20</title>
<g id="a_node22"><a xlink:title="string.h">
<polygon fill="#ffffff" stroke="black" points="846,-396 773,-396 773,-360 846,-360 846,-396"/>
<text text-anchor="middle" x="809.5" y="-374.3" font-family="Times,serif" font-size="14.00">string.h</text>
</a>
</g>
</g>
<!-- 18&#45;&gt;20 -->
<g id="edge38" class="edge">
<title>18&#45;&gt;20</title>
<g id="a_edge38"><a xlink:title="include">
<path fill="none" stroke="#1414ce" d="M946.72,-435.5C920.8,-424.83 884.31,-409.8 855.47,-397.93"/>
<polygon fill="#1414ce" stroke="#1414ce" points="856.59,-394.6 846.01,-394.03 853.92,-401.08 856.59,-394.6"/>
</a>
</g>
</g>
<!-- 18&#45;&gt;9 -->
<g id="edge42" class="edge">
<title>18&#45;&gt;9</title>
<g id="a_edge42"><a xlink:title="include">
<path fill="none" stroke="#1414ce" d="M1012.34,-445.76C1053.3,-440.51 1124.28,-427.36 1176.5,-396 1289.18,-328.33 1330.24,-302.26 1378.5,-180 1386.73,-159.15 1377.67,-134.92 1367.56,-117.02"/>
<polygon fill="#1414ce" stroke="#1414ce" points="1370.44,-115.02 1362.27,-108.28 1364.46,-118.65 1370.44,-115.02"/>
</a>
</g>
</g>
<!-- 18&#45;&gt;16 -->
<g id="edge36" class="edge">
<title>18&#45;&gt;16</title>
<g id="a_edge36"><a xlink:title="include">
<path fill="none" stroke="#1414ce" d="M1012.06,-449.4C1055.38,-448.13 1131.69,-439.33 1176.5,-396 1253.75,-321.31 1247.13,-178.3 1240.37,-118.43"/>
<polygon fill="#1414ce" stroke="#1414ce" points="1243.82,-117.75 1239.13,-108.25 1236.87,-118.6 1243.82,-117.75"/>
</a>
</g>
</g>
<!-- 8&#45;&gt;9 -->
<g id="edge43" class="edge">
<title>8&#45;&gt;9</title>
<g id="a_edge43"><a xlink:title="include">
<path fill="none" stroke="#1414ce" d="M1336.7,-143.7C1338.6,-135.9 1340.88,-126.51 1342.98,-117.83"/>
<polygon fill="#1414ce" stroke="#1414ce" points="1346.39,-118.65 1345.35,-108.1 1339.58,-117 1346.39,-118.65"/>
</a>
</g>
</g>
<!-- 30&#45;&gt;18 -->
<g id="edge44" class="edge">
<title>30&#45;&gt;18</title>
<g id="a_edge44"><a xlink:title="include">
<path fill="none" stroke="#1414ce" d="M1029.62,-575.87C1019.82,-551.46 1001.75,-506.43 990.19,-477.64"/>
<polygon fill="#1414ce" stroke="#1414ce" points="993.37,-476.17 986.4,-468.19 986.88,-478.77 993.37,-476.17"/>
</a>
</g>
</g>
<!-- 11 -->
<g id="node18" class="node">
<title>11</title>
<g id="a_node18"><a xlink:title="limits.h">
<polygon fill="#ffffff" stroke="black" points="1287,-36 1216,-36 1216,0 1287,0 1287,-36"/>
<text text-anchor="middle" x="1251.5" y="-14.3" font-family="Times,serif" font-size="14.00">limits.h</text>
</a>
</g>
</g>
<!-- 6 -->
<g id="node19" class="node">
<title>6</title>
<g id="a_node19"><a xlink:title="atom_table.h">
<polygon fill="#ffffff" stroke="black" points="393,-540 284,-540 284,-504 393,-504 393,-540"/>
<text text-anchor="middle" x="338.5" y="-518.3" font-family="Times,serif" font-size="14.00">atom_table.h</text>
</a>
</g>
</g>
<!-- 6&#45;&gt;7 -->
<g id="edge45" class="edge">
<title>6&#45;&gt;7</title>
<g id="a_edge45"><a xlink:title="include">
<path fill="none" stroke="#1414ce" d="M335.9,-503.78C329.4,-455.05 316.66,-313.38 370.5,-216 395.9,-170.06 445.6,-134.38 481.48,-113.11"/>
<polygon fill="#1414ce" stroke="#1414ce" points="483.38,-116.05 490.28,-108.01 479.87,-109.99 483.38,-116.05"/>
</a>
</g>
</g>
<!-- 6&#45;&gt;4 -->
<g id="edge46" class="edge">
<title>6&#45;&gt;4</title>
<g id="a_edge46"><a xlink:title="include">
<path fill="none" stroke="#1414ce" d="M323.67,-503.7C316.48,-495.3 307.7,-485.07 299.81,-475.86"/>
<polygon fill="#1414ce" stroke="#1414ce" points="302.33,-473.42 293.16,-468.1 297.01,-477.97 302.33,-473.42"/>
</a>
</g>
</g>
<!-- 31 -->
<g id="node20" class="node">
<title>31</title>
<g id="a_node20"><a xlink:title="otp_socket_platform.h">
<polygon fill="#ffffff" stroke="black" points="411.5,-756 237.5,-756 237.5,-720 411.5,-720 411.5,-756"/>
<text text-anchor="middle" x="324.5" y="-734.3" font-family="Times,serif" font-size="14.00">otp_socket_platform.h</text>
</a>
</g>
</g>
<!-- 9&#45;&gt;10 -->
<g id="edge47" class="edge">
<title>9&#45;&gt;10</title>
<g id="a_edge47"><a xlink:title="include">
<path fill="none" stroke="#1414ce" d="M1373.96,-71.88C1386.8,-62.89 1402.7,-51.76 1416.59,-42.03"/>
<polygon fill="#1414ce" stroke="#1414ce" points="1418.76,-44.79 1424.94,-36.19 1414.74,-39.06 1418.76,-44.79"/>
</a>
</g>
</g>
<!-- 9&#45;&gt;3 -->
<g id="edge50" class="edge">
<title>9&#45;&gt;3</title>
<g id="a_edge50"><a xlink:title="include">
<path fill="none" stroke="#1414ce" d="M1286.89,-73.42C1284.06,-72.9 1281.26,-72.42 1278.5,-72 1015.63,-31.48 695.86,-21.88 578,-19.65"/>
<polygon fill="#1414ce" stroke="#1414ce" points="577.94,-16.15 567.88,-19.47 577.82,-23.15 577.94,-16.15"/>
</a>
</g>
</g>
<!-- 9&#45;&gt;11 -->
<g id="edge48" class="edge">
<title>9&#45;&gt;11</title>
<g id="a_edge48"><a xlink:title="include">
<path fill="none" stroke="#1414ce" d="M1325.53,-71.88C1312.95,-62.89 1297.37,-51.76 1283.75,-42.03"/>
<polygon fill="#1414ce" stroke="#1414ce" points="1285.74,-39.15 1275.57,-36.19 1281.67,-44.85 1285.74,-39.15"/>
</a>
</g>
</g>
<!-- 12 -->
<g id="node31" class="node">
<title>12</title>
<g id="a_node31"><a xlink:title="inttypes.h">
<polygon fill="#ffffff" stroke="black" points="1394,-36 1305,-36 1305,0 1394,0 1394,-36"/>
<text text-anchor="middle" x="1349.5" y="-14.3" font-family="Times,serif" font-size="14.00">inttypes.h</text>
</a>
</g>
</g>
<!-- 9&#45;&gt;12 -->
<g id="edge49" class="edge">
<title>9&#45;&gt;12</title>
<g id="a_edge49"><a xlink:title="include">
<path fill="none" stroke="#1414ce" d="M1349.5,-71.7C1349.5,-63.98 1349.5,-54.71 1349.5,-46.11"/>
<polygon fill="#1414ce" stroke="#1414ce" points="1353,-46.1 1349.5,-36.1 1346,-46.1 1353,-46.1"/>
</a>
</g>
</g>
<!-- 2&#45;&gt;4 -->
<g id="edge52" class="edge">
<title>2&#45;&gt;4</title>
<g id="a_edge52"><a xlink:title="include">
<path fill="none" stroke="#1414ce" d="M324.97,-577.96C305.41,-570.03 286,-558.03 274.5,-540 262.85,-521.74 265.15,-496.82 269.61,-477.99"/>
<polygon fill="#1414ce" stroke="#1414ce" points="273.02,-478.81 272.24,-468.24 266.26,-476.98 273.02,-478.81"/>
</a>
</g>
</g>
<!-- 2&#45;&gt;15 -->
<g id="edge59" class="edge">
<title>2&#45;&gt;15</title>
<g id="a_edge59"><a xlink:title="include">
<path fill="none" stroke="#1414ce" d="M434.05,-575.98C449.75,-567.66 465.61,-555.93 474.5,-540 525.68,-448.35 479.04,-316.96 454.9,-261.4"/>
<polygon fill="#1414ce" stroke="#1414ce" points="458.09,-259.95 450.83,-252.24 451.7,-262.8 458.09,-259.95"/>
</a>
</g>
</g>
<!-- 2&#45;&gt;14 -->
<g id="edge56" class="edge">
<title>2&#45;&gt;14</title>
<g id="a_edge56"><a xlink:title="include">
<path fill="none" stroke="#1414ce" d="M446.51,-575.96C464.99,-567.84 483.89,-556.25 496.5,-540 538.58,-485.77 529.92,-268.39 525.34,-190.74"/>
<polygon fill="#1414ce" stroke="#1414ce" points="528.81,-190.1 524.7,-180.34 521.82,-190.53 528.81,-190.1"/>
</a>
</g>
</g>
<!-- 2&#45;&gt;3 -->
<g id="edge51" class="edge">
<title>2&#45;&gt;3</title>
<g id="a_edge51"><a xlink:title="include">
<path fill="none" stroke="#1414ce" d="M324.81,-584.99C288.53,-577.89 243.81,-564.64 210.5,-540 141.42,-488.91 103.5,-464.92 103.5,-379 103.5,-379 103.5,-379 103.5,-161 103.5,-113.54 122.39,-97.37 162.5,-72 215.32,-38.59 398.49,-25.42 485.25,-20.97"/>
<polygon fill="#1414ce" stroke="#1414ce" points="485.52,-24.46 495.33,-20.47 485.17,-17.47 485.52,-24.46"/>
</a>
</g>
</g>
<!-- 2&#45;&gt;18 -->
<g id="edge60" class="edge">
<title>2&#45;&gt;18</title>
<g id="a_edge60"><a xlink:title="include">
<path fill="none" stroke="#1414ce" d="M452.11,-580.77C503.83,-570.59 578.59,-555.33 643.5,-540 749.7,-514.92 873.51,-480.86 937.07,-463.03"/>
<polygon fill="#1414ce" stroke="#1414ce" points="938.06,-466.38 946.74,-460.31 936.17,-459.65 938.06,-466.38"/>
</a>
</g>
</g>
<!-- 2&#45;&gt;8 -->
<g id="edge54" class="edge">
<title>2&#45;&gt;8</title>
<g id="a_edge54"><a xlink:title="include">
<path fill="none" stroke="#1414ce" d="M452.32,-589.87C660.51,-578.83 1306.5,-537.58 1306.5,-451 1306.5,-451 1306.5,-451 1306.5,-305 1306.5,-264.55 1316.83,-218.67 1324.47,-190.28"/>
<polygon fill="#1414ce" stroke="#1414ce" points="1327.94,-190.87 1327.24,-180.3 1321.19,-189 1327.94,-190.87"/>
</a>
</g>
</g>
<!-- 2&#45;&gt;6 -->
<g id="edge53" class="edge">
<title>2&#45;&gt;6</title>
<g id="a_edge53"><a xlink:title="include">
<path fill="none" stroke="#1414ce" d="M376.14,-575.7C370.27,-567.47 363.13,-557.48 356.66,-548.42"/>
<polygon fill="#1414ce" stroke="#1414ce" points="359.38,-546.21 350.72,-540.1 353.68,-550.28 359.38,-546.21"/>
</a>
</g>
</g>
<!-- 2&#45;&gt;17 -->
<g id="edge58" class="edge">
<title>2&#45;&gt;17</title>
<g id="a_edge58"><a xlink:title="include">
<path fill="none" stroke="#1414ce" d="M324.72,-577.57C289.25,-567.67 249.98,-554.07 238.5,-540 156.78,-439.89 207.41,-380.92 198.5,-252 197.4,-236.04 193.51,-231.2 198.5,-216 201.81,-205.91 207.87,-196.15 214.23,-187.82"/>
<polygon fill="#1414ce" stroke="#1414ce" points="217,-189.97 220.61,-180.01 211.58,-185.54 217,-189.97"/>
</a>
</g>
</g>
<!-- 2&#45;&gt;27 -->
<g id="edge61" class="edge">
<title>2&#45;&gt;27</title>
<g id="a_edge61"><a xlink:title="include">
<path fill="none" stroke="#1414ce" d="M324.99,-577.71C302.79,-569.65 279.25,-557.64 262.5,-540 239.07,-515.33 242.37,-501.51 236.5,-468 223.57,-394.11 239.72,-305.51 249.71,-261.92"/>
<polygon fill="#1414ce" stroke="#1414ce" points="253.14,-262.63 252.04,-252.09 246.33,-261.01 253.14,-262.63"/>
</a>
</g>
</g>
<!-- 2&#45;&gt;26 -->
<g id="edge57" class="edge">
<title>2&#45;&gt;26</title>
<g id="a_edge57"><a xlink:title="include">
<path fill="none" stroke="#1414ce" d="M452.12,-586.51C488.74,-579.93 533.66,-566.68 565.5,-540 661.63,-459.45 608.68,-381.3 692.5,-288 703.28,-276 717.37,-265.6 730.83,-257.27"/>
<polygon fill="#1414ce" stroke="#1414ce" points="732.73,-260.21 739.54,-252.09 729.16,-254.19 732.73,-260.21"/>
</a>
</g>
</g>
<!-- 13 -->
<g id="node30" class="node">
<title>13</title>
<g id="a_node30"><a xlink:title="ets.h">
<polygon fill="#ffffff" stroke="black" points="465.5,-540 411.5,-540 411.5,-504 465.5,-504 465.5,-540"/>
<text text-anchor="middle" x="438.5" y="-518.3" font-family="Times,serif" font-size="14.00">ets.h</text>
</a>
</g>
</g>
<!-- 2&#45;&gt;13 -->
<g id="edge55" class="edge">
<title>2&#45;&gt;13</title>
<g id="a_edge55"><a xlink:title="include">
<path fill="none" stroke="#1414ce" d="M400.86,-575.7C406.73,-567.47 413.87,-557.48 420.34,-548.42"/>
<polygon fill="#1414ce" stroke="#1414ce" points="423.32,-550.28 426.28,-540.1 417.62,-546.21 423.32,-550.28"/>
</a>
</g>
</g>
<!-- 17&#45;&gt;7 -->
<g id="edge62" class="edge">
<title>17&#45;&gt;7</title>
<g id="a_edge62"><a xlink:title="include">
<path fill="none" stroke="#1414ce" d="M267.58,-148.68C272.21,-146.99 276.95,-145.37 281.5,-144 346.1,-124.57 422.38,-109.06 471.78,-99.95"/>
<polygon fill="#1414ce" stroke="#1414ce" points="472.69,-103.34 481.9,-98.11 471.44,-96.46 472.69,-103.34"/>
</a>
</g>
</g>
<!-- 1 -->
<g id="node26" class="node">
<title>1</title>
<g id="a_node26"><a xlink:title="/__w/AtomVM/AtomVM/src/libAtomVM/otp_socket.h">
<polygon fill="#bfbfbf" stroke="black" points="383,-828 0,-828 0,-792 383,-792 383,-828"/>
<text text-anchor="middle" x="191.5" y="-806.3" font-family="Times,serif" font-size="14.00">/__w/AtomVM/AtomVM/src/libAtomVM/otp_socket.h</text>
</a>
</g>
</g>
<!-- 1&#45;&gt;28 -->
<g id="edge64" class="edge">
<title>1&#45;&gt;28</title>
<g id="a_edge64"><a xlink:title="include">
<path fill="none" stroke="#1414ce" d="M191.5,-791.7C191.5,-783.98 191.5,-774.71 191.5,-766.11"/>
<polygon fill="#1414ce" stroke="#1414ce" points="195,-766.1 191.5,-756.1 188,-766.1 195,-766.1"/>
</a>
</g>
</g>
<!-- 1&#45;&gt;31 -->
<g id="edge65" class="edge">
<title>1&#45;&gt;31</title>
<g id="a_edge65"><a xlink:title="include">
<path fill="none" stroke="#1414ce" d="M224.04,-791.88C241.75,-782.55 263.85,-770.92 282.82,-760.94"/>
<polygon fill="#1414ce" stroke="#1414ce" points="284.62,-763.94 291.84,-756.19 281.36,-757.75 284.62,-763.94"/>
</a>
</g>
</g>
<!-- 1&#45;&gt;2 -->
<g id="edge63" class="edge">
<title>1&#45;&gt;2</title>
<g id="a_edge63"><a xlink:title="include">
<path fill="none" stroke="#1414ce" d="M175.13,-791.9C159.54,-773.44 140.39,-743.54 154.5,-720 189.07,-662.33 260.31,-629.79 315.15,-612.46"/>
<polygon fill="#1414ce" stroke="#1414ce" points="316.3,-615.77 324.84,-609.51 314.26,-609.08 316.3,-615.77"/>
</a>
</g>
</g>
<!-- 27&#45;&gt;7 -->
<g id="edge66" class="edge">
<title>27&#45;&gt;7</title>
<g id="a_edge66"><a xlink:title="include">
<path fill="none" stroke="#1414ce" d="M264.09,-215.81C273.93,-195.54 293.02,-162.29 319.5,-144 364.93,-112.62 427.69,-99.82 471.56,-94.6"/>
<polygon fill="#1414ce" stroke="#1414ce" points="472.16,-98.05 481.72,-93.48 471.4,-91.09 472.16,-98.05"/>
</a>
</g>
</g>
<!-- 27&#45;&gt;14 -->
<g id="edge68" class="edge">
<title>27&#45;&gt;14</title>
<g id="a_edge68"><a xlink:title="include">
<path fill="none" stroke="#1414ce" d="M305.78,-220.08C358,-206.39 439.28,-185.08 486.36,-172.74"/>
<polygon fill="#1414ce" stroke="#1414ce" points="487.35,-176.09 496.14,-170.17 485.58,-169.32 487.35,-176.09"/>
</a>
</g>
</g>
<!-- 27&#45;&gt;3 -->
<g id="edge67" class="edge">
<title>27&#45;&gt;3</title>
<g id="a_edge67"><a xlink:title="include">
<path fill="none" stroke="#1414ce" d="M229.16,-215.77C217.39,-206.72 204.88,-194.48 198.5,-180 192.05,-165.36 189.39,-157.15 198.5,-144 263.99,-49.46 410.44,-26.32 485.38,-20.73"/>
<polygon fill="#1414ce" stroke="#1414ce" points="485.73,-24.21 495.47,-20.05 485.26,-17.23 485.73,-24.21"/>
</a>
</g>
</g>
<!-- 26&#45;&gt;7 -->
<g id="edge69" class="edge">
<title>26&#45;&gt;7</title>
<g id="a_edge69"><a xlink:title="include">
<path fill="none" stroke="#1414ce" d="M760.39,-215.96C743.17,-196.14 712.26,-163.64 679.5,-144 647.18,-124.62 606.81,-111.15 575.24,-102.64"/>
<polygon fill="#1414ce" stroke="#1414ce" points="575.88,-99.19 565.32,-100.05 574.11,-105.96 575.88,-99.19"/>
</a>
</g>
</g>
<!-- 26&#45;&gt;22 -->
<g id="edge72" class="edge">
<title>26&#45;&gt;22</title>
<g id="a_edge72"><a xlink:title="include">
<path fill="none" stroke="#1414ce" d="M817.63,-225.38C894.41,-211.8 1053.76,-183.64 1129.2,-170.3"/>
<polygon fill="#1414ce" stroke="#1414ce" points="1130.03,-173.71 1139.27,-168.52 1128.81,-166.81 1130.03,-173.71"/>
</a>
</g>
</g>
<!-- 26&#45;&gt;14 -->
<g id="edge70" class="edge">
<title>26&#45;&gt;14</title>
<g id="a_edge70"><a xlink:title="include">
<path fill="none" stroke="#1414ce" d="M731.27,-219.99C726.63,-218.63 721.97,-217.28 717.5,-216 662.95,-200.42 599.5,-183.26 560.42,-172.81"/>
<polygon fill="#1414ce" stroke="#1414ce" points="561.11,-169.38 550.55,-170.18 559.3,-176.14 561.11,-169.38"/>
</a>
</g>
</g>
<!-- 26&#45;&gt;9 -->
<g id="edge71" class="edge">
<title>26&#45;&gt;9</title>
<g id="a_edge71"><a xlink:title="include">
<path fill="none" stroke="#1414ce" d="M817.77,-222.07C884.75,-205.18 1017.6,-171.77 1130.5,-144 1179.31,-131.99 1234.29,-118.69 1276.96,-108.41"/>
<polygon fill="#1414ce" stroke="#1414ce" points="1277.79,-111.81 1286.69,-106.07 1276.15,-105 1277.79,-111.81"/>
</a>
</g>
</g>
<!-- 13&#45;&gt;15 -->
<g id="edge74" class="edge">
<title>13&#45;&gt;15</title>
<g id="a_edge74"><a xlink:title="include">
<path fill="none" stroke="#1414ce" d="M438.74,-503.97C439.41,-456.29 441.29,-321.18 442.11,-262.63"/>
<polygon fill="#1414ce" stroke="#1414ce" points="445.62,-262.35 442.26,-252.31 438.62,-262.26 445.62,-262.35"/>
</a>
</g>
</g>
<!-- 13&#45;&gt;14 -->
<g id="edge73" class="edge">
<title>13&#45;&gt;14</title>
<g id="a_edge73"><a xlink:title="include">
<path fill="none" stroke="#1414ce" d="M428.09,-503.67C399.75,-454.03 327.48,-308.95 390.5,-216 411.74,-184.67 454.78,-171.86 486.16,-166.62"/>
<polygon fill="#1414ce" stroke="#1414ce" points="486.93,-170.05 496.31,-165.12 485.9,-163.12 486.93,-170.05"/>
</a>
</g>
</g>
<!-- 13&#45;&gt;18 -->
<g id="edge75" class="edge">
<title>13&#45;&gt;18</title>
<g id="a_edge75"><a xlink:title="include">
<path fill="none" stroke="#1414ce" d="M465.7,-517.48C553.52,-506.12 829.98,-470.35 936.79,-456.53"/>
<polygon fill="#1414ce" stroke="#1414ce" points="937.42,-459.97 946.89,-455.22 936.52,-453.03 937.42,-459.97"/>
</a>
</g>
</g>
</g>
</svg>
