<?xml version="1.0" encoding="UTF-8" standalone="no"?>
<!DOCTYPE svg PUBLIC "-//W3C//DTD SVG 1.1//EN"
 "http://www.w3.org/Graphics/SVG/1.1/DTD/svg11.dtd">
<!-- Generated by graphviz version 2.43.0 (0)
 -->
<!-- Title: %3 Pages: 1 -->
<svg width="1615pt" height="836pt"
 viewBox="0.00 0.00 1615.00 836.00" xmlns="http://www.w3.org/2000/svg" xmlns:xlink="http://www.w3.org/1999/xlink">
<g id="graph0" class="graph" transform="scale(1 1) rotate(0) translate(4 832)">
<title>%3</title>
<polygon fill="transparent" stroke="transparent" points="-4,4 -4,-832 1611,-832 1611,4 -4,4"/>
<!-- 6 -->
<g id="node1" class="node">
<title>6</title>
<g id="a_node1"><a xlink:title="stdbool.h">
<polygon fill="#ffffff" stroke="black" points="660.5,-108 577.5,-108 577.5,-72 660.5,-72 660.5,-108"/>
<text text-anchor="middle" x="619" y="-86.3" font-family="Times,serif" font-size="14.00">stdbool.h</text>
</a>
</g>
</g>
<!-- 32 -->
<g id="node2" class="node">
<title>32</title>
<g id="a_node2"><a xlink:title="erl_nif_priv.h">
<polygon fill="#ffffff" stroke="black" points="1263,-756 1155,-756 1155,-720 1263,-720 1263,-756"/>
<text text-anchor="middle" x="1209" y="-734.3" font-family="Times,serif" font-size="14.00">erl_nif_priv.h</text>
</a>
</g>
</g>
<!-- 33 -->
<g id="node13" class="node">
<title>33</title>
<g id="a_node13"><a xlink:title="context.h">
<polygon fill="#ffffff" stroke="black" points="733.5,-684 650.5,-684 650.5,-648 733.5,-648 733.5,-684"/>
<text text-anchor="middle" x="692" y="-662.3" font-family="Times,serif" font-size="14.00">context.h</text>
</a>
</g>
</g>
<!-- 32&#45;&gt;33 -->
<g id="edge1" class="edge">
<title>32&#45;&gt;33</title>
<g id="a_edge1"><a xlink:title="include">
<path fill="none" stroke="#1414ce" d="M1154.65,-729.64C1054.49,-716.08 842.08,-687.32 743.83,-674.02"/>
<polygon fill="#1414ce" stroke="#1414ce" points="744.22,-670.54 733.84,-672.67 743.28,-677.48 744.22,-670.54"/>
</a>
</g>
</g>
<!-- 11 -->
<g id="node14" class="node">
<title>11</title>
<g id="a_node14"><a xlink:title="memory.h">
<polygon fill="#ffffff" stroke="black" points="1417,-252 1331,-252 1331,-216 1417,-216 1417,-252"/>
<text text-anchor="middle" x="1374" y="-230.3" font-family="Times,serif" font-size="14.00">memory.h</text>
</a>
</g>
</g>
<!-- 32&#45;&gt;11 -->
<g id="edge2" class="edge">
<title>32&#45;&gt;11</title>
<g id="a_edge2"><a xlink:title="include">
<path fill="none" stroke="#1414ce" d="M1263.1,-723.39C1321.73,-705.01 1407,-666.07 1407,-595 1407,-595 1407,-595 1407,-377 1407,-335.97 1393.77,-289.97 1384.06,-261.74"/>
<polygon fill="#1414ce" stroke="#1414ce" points="1387.32,-260.45 1380.68,-252.19 1380.72,-262.78 1387.32,-260.45"/>
</a>
</g>
</g>
<!-- 21 -->
<g id="node17" class="node">
<title>21</title>
<g id="a_node17"><a xlink:title="resources.h">
<polygon fill="#ffffff" stroke="black" points="1227,-324 1127,-324 1127,-288 1227,-288 1227,-324"/>
<text text-anchor="middle" x="1177" y="-302.3" font-family="Times,serif" font-size="14.00">resources.h</text>
</a>
</g>
</g>
<!-- 32&#45;&gt;21 -->
<g id="edge3" class="edge">
<title>32&#45;&gt;21</title>
<g id="a_edge3"><a xlink:title="include">
<path fill="none" stroke="#1414ce" d="M1209.35,-719.59C1209.81,-690.03 1210.23,-628.17 1207,-576 1201.51,-487.27 1187.75,-382.77 1180.94,-334.27"/>
<polygon fill="#1414ce" stroke="#1414ce" points="1184.39,-333.67 1179.52,-324.26 1177.46,-334.65 1184.39,-333.67"/>
</a>
</g>
</g>
<!-- 19 -->
<g id="node3" class="node">
<title>19</title>
<g id="a_node3"><a xlink:title="refc_binary.h">
<polygon fill="#ffffff" stroke="black" points="906,-396 798,-396 798,-360 906,-360 906,-396"/>
<text text-anchor="middle" x="852" y="-374.3" font-family="Times,serif" font-size="14.00">refc_binary.h</text>
</a>
</g>
</g>
<!-- 19&#45;&gt;6 -->
<g id="edge4" class="edge">
<title>19&#45;&gt;6</title>
<g id="a_edge4"><a xlink:title="include">
<path fill="none" stroke="#1414ce" d="M862.83,-359.75C887.73,-317.64 943.02,-208.39 890,-144 862.77,-110.93 741.49,-98.2 670.74,-93.53"/>
<polygon fill="#1414ce" stroke="#1414ce" points="670.89,-90.04 660.69,-92.9 670.45,-97.02 670.89,-90.04"/>
</a>
</g>
</g>
<!-- 20 -->
<g id="node10" class="node">
<title>20</title>
<g id="a_node10"><a xlink:title="list.h">
<polygon fill="#ffffff" stroke="black" points="580,-180 526,-180 526,-144 580,-144 580,-180"/>
<text text-anchor="middle" x="553" y="-158.3" font-family="Times,serif" font-size="14.00">list.h</text>
</a>
</g>
</g>
<!-- 19&#45;&gt;20 -->
<g id="edge6" class="edge">
<title>19&#45;&gt;20</title>
<g id="a_edge6"><a xlink:title="include">
<path fill="none" stroke="#1414ce" d="M831.16,-359.86C802.92,-336.37 751.28,-292.46 710,-252 694.5,-236.81 694.71,-228.55 677,-216 650.35,-197.12 615.93,-183.08 590.12,-174.21"/>
<polygon fill="#1414ce" stroke="#1414ce" points="590.93,-170.79 580.33,-170.95 588.71,-177.43 590.93,-170.79"/>
</a>
</g>
</g>
<!-- 9 -->
<g id="node12" class="node">
<title>9</title>
<g id="a_node12"><a xlink:title="stdlib.h">
<polygon fill="#ffffff" stroke="black" points="1227.5,-108 1156.5,-108 1156.5,-72 1227.5,-72 1227.5,-108"/>
<text text-anchor="middle" x="1192" y="-86.3" font-family="Times,serif" font-size="14.00">stdlib.h</text>
</a>
</g>
</g>
<!-- 19&#45;&gt;9 -->
<g id="edge5" class="edge">
<title>19&#45;&gt;9</title>
<g id="a_edge5"><a xlink:title="include">
<path fill="none" stroke="#1414ce" d="M898.48,-359.94C920.02,-350.92 945.36,-338.67 966,-324 1053.78,-261.61 1136.45,-162.52 1172.72,-116.3"/>
<polygon fill="#1414ce" stroke="#1414ce" points="1175.56,-118.34 1178.94,-108.3 1170.04,-114.04 1175.56,-118.34"/>
</a>
</g>
</g>
<!-- 19&#45;&gt;21 -->
<g id="edge7" class="edge">
<title>19&#45;&gt;21</title>
<g id="a_edge7"><a xlink:title="include">
<path fill="none" stroke="#1414ce" d="M906.14,-363.25C910.82,-362.13 915.49,-361.03 920,-360 987.04,-344.71 1064.37,-329.03 1116.55,-318.73"/>
<polygon fill="#1414ce" stroke="#1414ce" points="1117.5,-322.11 1126.64,-316.74 1116.15,-315.24 1117.5,-322.11"/>
</a>
</g>
</g>
<!-- 35 -->
<g id="node4" class="node">
<title>35</title>
<g id="a_node4"><a xlink:title="nifs.h">
<polygon fill="#ffffff" stroke="black" points="727,-756 671,-756 671,-720 727,-720 727,-756"/>
<text text-anchor="middle" x="699" y="-734.3" font-family="Times,serif" font-size="14.00">nifs.h</text>
</a>
</g>
</g>
<!-- 26 -->
<g id="node6" class="node">
<title>26</title>
<g id="a_node6"><a xlink:title="atom.h">
<polygon fill="#ffffff" stroke="black" points="284,-468 218,-468 218,-432 284,-432 284,-468"/>
<text text-anchor="middle" x="251" y="-446.3" font-family="Times,serif" font-size="14.00">atom.h</text>
</a>
</g>
</g>
<!-- 35&#45;&gt;26 -->
<g id="edge8" class="edge">
<title>35&#45;&gt;26</title>
<g id="a_edge8"><a xlink:title="include">
<path fill="none" stroke="#1414ce" d="M680.17,-719.84C668.81,-709.47 654.06,-695.99 641,-684 623.63,-668.04 623.33,-658.08 602,-648 423.46,-563.62 280.23,-704.52 171,-540 162.15,-526.67 163.43,-518.1 171,-504 179.22,-488.68 194.04,-477.05 208.7,-468.64"/>
<polygon fill="#1414ce" stroke="#1414ce" points="210.57,-471.61 217.75,-463.81 207.28,-465.43 210.57,-471.61"/>
</a>
</g>
</g>
<!-- 35&#45;&gt;33 -->
<g id="edge9" class="edge">
<title>35&#45;&gt;33</title>
<g id="a_edge9"><a xlink:title="include">
<path fill="none" stroke="#1414ce" d="M697.27,-719.7C696.5,-711.98 695.57,-702.71 694.71,-694.11"/>
<polygon fill="#1414ce" stroke="#1414ce" points="698.19,-693.71 693.71,-684.1 691.22,-694.4 698.19,-693.71"/>
</a>
</g>
</g>
<!-- 3 -->
<g id="node21" class="node">
<title>3</title>
<g id="a_node21"><a xlink:title="exportedfunction.h">
<polygon fill="#ffffff" stroke="black" points="980,-612 828,-612 828,-576 980,-576 980,-612"/>
<text text-anchor="middle" x="904" y="-590.3" font-family="Times,serif" font-size="14.00">exportedfunction.h</text>
</a>
</g>
</g>
<!-- 35&#45;&gt;3 -->
<g id="edge10" class="edge">
<title>35&#45;&gt;3</title>
<g id="a_edge10"><a xlink:title="include">
<path fill="none" stroke="#1414ce" d="M723.73,-719.87C760.51,-694.39 829.72,-646.45 870.85,-617.96"/>
<polygon fill="#1414ce" stroke="#1414ce" points="872.96,-620.76 879.18,-612.19 868.97,-615.01 872.96,-620.76"/>
</a>
</g>
</g>
<!-- 30 -->
<g id="node5" class="node">
<title>30</title>
<g id="a_node5"><a xlink:title="defaultatoms.h">
<polygon fill="#ffffff" stroke="black" points="587,-756 463,-756 463,-720 587,-720 587,-756"/>
<text text-anchor="middle" x="525" y="-734.3" font-family="Times,serif" font-size="14.00">defaultatoms.h</text>
</a>
</g>
</g>
<!-- 31 -->
<g id="node22" class="node">
<title>31</title>
<g id="a_node22"><a xlink:title="defaultatoms.def">
<polygon fill="#ffffff" stroke="black" points="593.5,-684 456.5,-684 456.5,-648 593.5,-648 593.5,-684"/>
<text text-anchor="middle" x="525" y="-662.3" font-family="Times,serif" font-size="14.00">defaultatoms.def</text>
</a>
</g>
</g>
<!-- 30&#45;&gt;31 -->
<g id="edge12" class="edge">
<title>30&#45;&gt;31</title>
<g id="a_edge12"><a xlink:title="include">
<path fill="none" stroke="#1414ce" d="M525,-719.7C525,-711.98 525,-702.71 525,-694.11"/>
<polygon fill="#1414ce" stroke="#1414ce" points="528.5,-694.1 525,-684.1 521.5,-694.1 528.5,-694.1"/>
</a>
</g>
</g>
<!-- 25 -->
<g id="node29" class="node">
<title>25</title>
<g id="a_node29"><a xlink:title="globalcontext.h">
<polygon fill="#ffffff" stroke="black" points="511.5,-612 384.5,-612 384.5,-576 511.5,-576 511.5,-612"/>
<text text-anchor="middle" x="448" y="-590.3" font-family="Times,serif" font-size="14.00">globalcontext.h</text>
</a>
</g>
</g>
<!-- 30&#45;&gt;25 -->
<g id="edge11" class="edge">
<title>30&#45;&gt;25</title>
<g id="a_edge11"><a xlink:title="include">
<path fill="none" stroke="#1414ce" d="M484.82,-719.77C470.17,-711.28 455.2,-699.48 447,-684 436.98,-665.08 438.1,-640.56 441.24,-622.05"/>
<polygon fill="#1414ce" stroke="#1414ce" points="444.68,-622.69 443.19,-612.2 437.81,-621.33 444.68,-622.69"/>
</a>
</g>
</g>
<!-- 7 -->
<g id="node11" class="node">
<title>7</title>
<g id="a_node11"><a xlink:title="stdint.h">
<polygon fill="#ffffff" stroke="black" points="1153,-36 1081,-36 1081,0 1153,0 1153,-36"/>
<text text-anchor="middle" x="1117" y="-14.3" font-family="Times,serif" font-size="14.00">stdint.h</text>
</a>
</g>
</g>
<!-- 26&#45;&gt;7 -->
<g id="edge13" class="edge">
<title>26&#45;&gt;7</title>
<g id="a_edge13"><a xlink:title="include">
<path fill="none" stroke="#1414ce" d="M240.73,-431.77C212.05,-381.15 137.69,-231.03 209,-144 264.4,-76.38 893.73,-32.74 1070.86,-21.74"/>
<polygon fill="#1414ce" stroke="#1414ce" points="1071.14,-25.23 1080.9,-21.12 1070.71,-18.25 1071.14,-25.23"/>
</a>
</g>
</g>
<!-- 26&#45;&gt;9 -->
<g id="edge14" class="edge">
<title>26&#45;&gt;9</title>
<g id="a_edge14"><a xlink:title="include">
<path fill="none" stroke="#1414ce" d="M253.14,-431.89C259.3,-389.65 280.78,-279.24 343,-216 401.7,-156.34 435.41,-162.65 517,-144 787.2,-82.24 870.7,-164.26 1146.54,-107.63"/>
<polygon fill="#1414ce" stroke="#1414ce" points="1147.36,-111.03 1156.43,-105.55 1145.93,-104.18 1147.36,-111.03"/>
</a>
</g>
</g>
<!-- 14 -->
<g id="node7" class="node">
<title>14</title>
<g id="a_node7"><a xlink:title="assert.h">
<polygon fill="#ffffff" stroke="black" points="1607,-36 1533,-36 1533,0 1607,0 1607,-36"/>
<text text-anchor="middle" x="1570" y="-14.3" font-family="Times,serif" font-size="14.00">assert.h</text>
</a>
</g>
</g>
<!-- 17 -->
<g id="node8" class="node">
<title>17</title>
<g id="a_node8"><a xlink:title="utils.h">
<polygon fill="#ffffff" stroke="black" points="1043,-180 981,-180 981,-144 1043,-144 1043,-180"/>
<text text-anchor="middle" x="1012" y="-158.3" font-family="Times,serif" font-size="14.00">utils.h</text>
</a>
</g>
</g>
<!-- 17&#45;&gt;9 -->
<g id="edge17" class="edge">
<title>17&#45;&gt;9</title>
<g id="a_edge17"><a xlink:title="include">
<path fill="none" stroke="#1414ce" d="M1043.35,-148.81C1071.92,-137.7 1114.46,-121.15 1146.72,-108.61"/>
<polygon fill="#1414ce" stroke="#1414ce" points="1148.33,-111.74 1156.38,-104.85 1145.79,-105.22 1148.33,-111.74"/>
</a>
</g>
</g>
<!-- 18 -->
<g id="node19" class="node">
<title>18</title>
<g id="a_node19"><a xlink:title="stddef.h">
<polygon fill="#ffffff" stroke="black" points="1138,-108 1064,-108 1064,-72 1138,-72 1138,-108"/>
<text text-anchor="middle" x="1101" y="-86.3" font-family="Times,serif" font-size="14.00">stddef.h</text>
</a>
</g>
</g>
<!-- 17&#45;&gt;18 -->
<g id="edge15" class="edge">
<title>17&#45;&gt;18</title>
<g id="a_edge15"><a xlink:title="include">
<path fill="none" stroke="#1414ce" d="M1034,-143.7C1045.21,-134.88 1059,-124.03 1071.15,-114.47"/>
<polygon fill="#1414ce" stroke="#1414ce" points="1073.56,-117.04 1079.25,-108.1 1069.23,-111.54 1073.56,-117.04"/>
</a>
</g>
</g>
<!-- 8 -->
<g id="node33" class="node">
<title>8</title>
<g id="a_node33"><a xlink:title="stdio.h">
<polygon fill="#ffffff" stroke="black" points="1045.5,-108 980.5,-108 980.5,-72 1045.5,-72 1045.5,-108"/>
<text text-anchor="middle" x="1013" y="-86.3" font-family="Times,serif" font-size="14.00">stdio.h</text>
</a>
</g>
</g>
<!-- 17&#45;&gt;8 -->
<g id="edge16" class="edge">
<title>17&#45;&gt;8</title>
<g id="a_edge16"><a xlink:title="include">
<path fill="none" stroke="#1414ce" d="M1012.25,-143.7C1012.36,-135.98 1012.49,-126.71 1012.61,-118.11"/>
<polygon fill="#1414ce" stroke="#1414ce" points="1016.11,-118.15 1012.76,-108.1 1009.11,-118.05 1016.11,-118.15"/>
</a>
</g>
</g>
<!-- 23 -->
<g id="node9" class="node">
<title>23</title>
<g id="a_node9"><a xlink:title="synclist.h">
<polygon fill="#ffffff" stroke="black" points="437.5,-252 352.5,-252 352.5,-216 437.5,-216 437.5,-252"/>
<text text-anchor="middle" x="395" y="-230.3" font-family="Times,serif" font-size="14.00">synclist.h</text>
</a>
</g>
</g>
<!-- 23&#45;&gt;20 -->
<g id="edge19" class="edge">
<title>23&#45;&gt;20</title>
<g id="a_edge19"><a xlink:title="include">
<path fill="none" stroke="#1414ce" d="M433.65,-215.88C458.81,-204.73 491.44,-190.27 516.22,-179.29"/>
<polygon fill="#1414ce" stroke="#1414ce" points="517.92,-182.37 525.64,-175.12 515.08,-175.97 517.92,-182.37"/>
</a>
</g>
</g>
<!-- 24 -->
<g id="node30" class="node">
<title>24</title>
<g id="a_node30"><a xlink:title="smp.h">
<polygon fill="#ffffff" stroke="black" points="278,-180 218,-180 218,-144 278,-144 278,-180"/>
<text text-anchor="middle" x="248" y="-158.3" font-family="Times,serif" font-size="14.00">smp.h</text>
</a>
</g>
</g>
<!-- 23&#45;&gt;24 -->
<g id="edge20" class="edge">
<title>23&#45;&gt;24</title>
<g id="a_edge20"><a xlink:title="include">
<path fill="none" stroke="#1414ce" d="M359.04,-215.88C337.32,-205.53 309.63,-192.35 287.33,-181.73"/>
<polygon fill="#1414ce" stroke="#1414ce" points="288.67,-178.49 278.14,-177.35 285.66,-184.81 288.67,-178.49"/>
</a>
</g>
</g>
<!-- 23&#45;&gt;8 -->
<g id="edge18" class="edge">
<title>23&#45;&gt;8</title>
<g id="a_edge18"><a xlink:title="include">
<path fill="none" stroke="#1414ce" d="M412.2,-215.79C434.32,-194.83 474.93,-160.24 517,-144 599.41,-112.19 865.43,-97.42 970.11,-92.74"/>
<polygon fill="#1414ce" stroke="#1414ce" points="970.47,-96.22 980.31,-92.29 970.17,-89.23 970.47,-96.22"/>
</a>
</g>
</g>
<!-- 20&#45;&gt;6 -->
<g id="edge21" class="edge">
<title>20&#45;&gt;6</title>
<g id="a_edge21"><a xlink:title="include">
<path fill="none" stroke="#1414ce" d="M569.31,-143.7C577.31,-135.22 587.07,-124.86 595.82,-115.58"/>
<polygon fill="#1414ce" stroke="#1414ce" points="598.56,-117.78 602.87,-108.1 593.47,-112.98 598.56,-117.78"/>
</a>
</g>
</g>
<!-- 33&#45;&gt;20 -->
<g id="edge23" class="edge">
<title>33&#45;&gt;20</title>
<g id="a_edge23"><a xlink:title="include">
<path fill="none" stroke="#1414ce" d="M679.34,-647.56C672.54,-637.55 664.46,-624.52 659,-612 592.7,-460.01 590.31,-415.21 561,-252 557.32,-231.52 555.3,-208.06 554.21,-190.37"/>
<polygon fill="#1414ce" stroke="#1414ce" points="557.69,-189.97 553.65,-180.18 550.71,-190.36 557.69,-189.97"/>
</a>
</g>
</g>
<!-- 4 -->
<g id="node18" class="node">
<title>4</title>
<g id="a_node18"><a xlink:title="term.h">
<polygon fill="#ffffff" stroke="black" points="1078.5,-468 1013.5,-468 1013.5,-432 1078.5,-432 1078.5,-468"/>
<text text-anchor="middle" x="1046" y="-446.3" font-family="Times,serif" font-size="14.00">term.h</text>
</a>
</g>
</g>
<!-- 33&#45;&gt;4 -->
<g id="edge26" class="edge">
<title>33&#45;&gt;4</title>
<g id="a_edge26"><a xlink:title="include">
<path fill="none" stroke="#1414ce" d="M714.9,-647.83C739.94,-629.31 781.53,-599.35 819,-576 882.05,-536.71 958.2,-496.1 1004.33,-472.22"/>
<polygon fill="#1414ce" stroke="#1414ce" points="1006.14,-475.22 1013.42,-467.53 1002.93,-469 1006.14,-475.22"/>
</a>
</g>
</g>
<!-- 33&#45;&gt;25 -->
<g id="edge22" class="edge">
<title>33&#45;&gt;25</title>
<g id="a_edge22"><a xlink:title="include">
<path fill="none" stroke="#1414ce" d="M650.44,-652.28C645.57,-650.82 640.68,-649.37 636,-648 597.62,-636.77 554.72,-624.64 519.59,-614.82"/>
<polygon fill="#1414ce" stroke="#1414ce" points="520.47,-611.43 509.9,-612.12 518.59,-618.18 520.47,-611.43"/>
</a>
</g>
</g>
<!-- 33&#45;&gt;24 -->
<g id="edge25" class="edge">
<title>33&#45;&gt;24</title>
<g id="a_edge25"><a xlink:title="include">
<path fill="none" stroke="#1414ce" d="M650.3,-651.55C645.5,-650.24 640.66,-649.02 636,-648 578.81,-635.46 419.17,-650.43 375,-612 309.52,-555.02 264.67,-278.77 251.8,-190.31"/>
<polygon fill="#1414ce" stroke="#1414ce" points="255.24,-189.65 250.35,-180.25 248.31,-190.65 255.24,-189.65"/>
</a>
</g>
</g>
<!-- 29 -->
<g id="node31" class="node">
<title>29</title>
<g id="a_node31"><a xlink:title="timer_list.h">
<polygon fill="#ffffff" stroke="black" points="668,-252 570,-252 570,-216 668,-216 668,-252"/>
<text text-anchor="middle" x="619" y="-230.3" font-family="Times,serif" font-size="14.00">timer_list.h</text>
</a>
</g>
</g>
<!-- 33&#45;&gt;29 -->
<g id="edge27" class="edge">
<title>33&#45;&gt;29</title>
<g id="a_edge27"><a xlink:title="include">
<path fill="none" stroke="#1414ce" d="M684.71,-647.87C674.2,-621.53 656,-569.29 656,-523 656,-523 656,-523 656,-377 656,-335.71 641.17,-289.77 630.28,-261.63"/>
<polygon fill="#1414ce" stroke="#1414ce" points="633.44,-260.11 626.49,-252.11 626.94,-262.7 633.44,-260.11"/>
</a>
</g>
</g>
<!-- 22 -->
<g id="node32" class="node">
<title>22</title>
<g id="a_node32"><a xlink:title="mailbox.h">
<polygon fill="#ffffff" stroke="black" points="848,-252 762,-252 762,-216 848,-216 848,-252"/>
<text text-anchor="middle" x="805" y="-230.3" font-family="Times,serif" font-size="14.00">mailbox.h</text>
</a>
</g>
</g>
<!-- 33&#45;&gt;22 -->
<g id="edge24" class="edge">
<title>33&#45;&gt;22</title>
<g id="a_edge24"><a xlink:title="include">
<path fill="none" stroke="#1414ce" d="M692.4,-647.95C692.98,-621.29 694,-568.12 694,-523 694,-523 694,-523 694,-377 694,-326.59 737.96,-283.39 770.55,-258.29"/>
<polygon fill="#1414ce" stroke="#1414ce" points="773.05,-260.79 778.98,-252 768.87,-255.18 773.05,-260.79"/>
</a>
</g>
</g>
<!-- 11&#45;&gt;17 -->
<g id="edge32" class="edge">
<title>11&#45;&gt;17</title>
<g id="a_edge32"><a xlink:title="include">
<path fill="none" stroke="#1414ce" d="M1330.69,-224.63C1260.36,-211.03 1122.25,-184.32 1053.26,-170.98"/>
<polygon fill="#1414ce" stroke="#1414ce" points="1053.68,-167.5 1043.2,-169.03 1052.35,-174.37 1053.68,-167.5"/>
</a>
</g>
</g>
<!-- 11&#45;&gt;7 -->
<g id="edge28" class="edge">
<title>11&#45;&gt;7</title>
<g id="a_edge28"><a xlink:title="include">
<path fill="none" stroke="#1414ce" d="M1373.01,-215.85C1370.16,-182.97 1359.18,-110.89 1317,-72 1274.98,-33.26 1207.94,-22.2 1163.21,-19.38"/>
<polygon fill="#1414ce" stroke="#1414ce" points="1163.35,-15.88 1153.18,-18.86 1162.99,-22.88 1163.35,-15.88"/>
</a>
</g>
</g>
<!-- 11&#45;&gt;9 -->
<g id="edge29" class="edge">
<title>11&#45;&gt;9</title>
<g id="a_edge29"><a xlink:title="include">
<path fill="none" stroke="#1414ce" d="M1352.05,-215.87C1319.66,-190.6 1258.97,-143.25 1222.35,-114.68"/>
<polygon fill="#1414ce" stroke="#1414ce" points="1224.07,-111.58 1214.03,-108.19 1219.76,-117.1 1224.07,-111.58"/>
</a>
</g>
</g>
<!-- 12 -->
<g id="node20" class="node">
<title>12</title>
<g id="a_node20"><a xlink:title="erl_nif.h">
<polygon fill="#ffffff" stroke="black" points="1519,-180 1445,-180 1445,-144 1519,-144 1519,-180"/>
<text text-anchor="middle" x="1482" y="-158.3" font-family="Times,serif" font-size="14.00">erl_nif.h</text>
</a>
</g>
</g>
<!-- 11&#45;&gt;12 -->
<g id="edge30" class="edge">
<title>11&#45;&gt;12</title>
<g id="a_edge30"><a xlink:title="include">
<path fill="none" stroke="#1414ce" d="M1400.42,-215.88C1414.41,-206.81 1431.78,-195.55 1446.89,-185.76"/>
<polygon fill="#1414ce" stroke="#1414ce" points="1448.99,-188.57 1455.48,-180.19 1445.18,-182.69 1448.99,-188.57"/>
</a>
</g>
</g>
<!-- 13 -->
<g id="node28" class="node">
<title>13</title>
<g id="a_node28"><a xlink:title="term_typedef.h">
<polygon fill="#ffffff" stroke="black" points="1532.5,-108 1407.5,-108 1407.5,-72 1532.5,-72 1532.5,-108"/>
<text text-anchor="middle" x="1470" y="-86.3" font-family="Times,serif" font-size="14.00">term_typedef.h</text>
</a>
</g>
</g>
<!-- 11&#45;&gt;13 -->
<g id="edge31" class="edge">
<title>11&#45;&gt;13</title>
<g id="a_edge31"><a xlink:title="include">
<path fill="none" stroke="#1414ce" d="M1385.58,-215.87C1402.3,-191.14 1433.33,-145.24 1452.75,-116.51"/>
<polygon fill="#1414ce" stroke="#1414ce" points="1455.68,-118.43 1458.38,-108.19 1449.88,-114.51 1455.68,-118.43"/>
</a>
</g>
</g>
<!-- 1 -->
<g id="node15" class="node">
<title>1</title>
<g id="a_node15"><a xlink:title="/__w/AtomVM/AtomVM/src/libAtomVM/dist_nifs.c">
<polygon fill="#bfbfbf" stroke="black" points="1015.5,-828 650.5,-828 650.5,-792 1015.5,-792 1015.5,-828"/>
<text text-anchor="middle" x="833" y="-806.3" font-family="Times,serif" font-size="14.00">/__w/AtomVM/AtomVM/src/libAtomVM/dist_nifs.c</text>
</a>
</g>
</g>
<!-- 1&#45;&gt;32 -->
<g id="edge36" class="edge">
<title>1&#45;&gt;32</title>
<g id="a_edge36"><a xlink:title="include">
<path fill="none" stroke="#1414ce" d="M928.75,-791.99C985.55,-781.79 1058.93,-768.43 1124,-756 1130.65,-754.73 1137.6,-753.38 1144.52,-752.02"/>
<polygon fill="#1414ce" stroke="#1414ce" points="1145.48,-755.39 1154.61,-750.02 1144.12,-748.53 1145.48,-755.39"/>
</a>
</g>
</g>
<!-- 1&#45;&gt;35 -->
<g id="edge41" class="edge">
<title>1&#45;&gt;35</title>
<g id="a_edge41"><a xlink:title="include">
<path fill="none" stroke="#1414ce" d="M800.22,-791.88C780.87,-781.77 756.31,-768.94 736.23,-758.45"/>
<polygon fill="#1414ce" stroke="#1414ce" points="737.84,-755.34 727.36,-753.81 734.6,-761.55 737.84,-755.34"/>
</a>
</g>
</g>
<!-- 1&#45;&gt;30 -->
<g id="edge34" class="edge">
<title>1&#45;&gt;30</title>
<g id="a_edge34"><a xlink:title="include">
<path fill="none" stroke="#1414ce" d="M758.05,-791.97C708.99,-780.82 645.24,-766.33 596.83,-755.32"/>
<polygon fill="#1414ce" stroke="#1414ce" points="597.57,-751.9 587.05,-753.1 596.02,-758.73 597.57,-751.9"/>
</a>
</g>
</g>
<!-- 1&#45;&gt;17 -->
<g id="edge44" class="edge">
<title>1&#45;&gt;17</title>
<g id="a_edge44"><a xlink:title="include">
<path fill="none" stroke="#1414ce" d="M825.38,-791.7C799.33,-729.82 719.13,-514.94 789,-360 809.25,-315.09 923.09,-227.77 979.83,-186.14"/>
<polygon fill="#1414ce" stroke="#1414ce" points="982.09,-188.83 988.1,-180.11 977.96,-183.18 982.09,-188.83"/>
</a>
</g>
</g>
<!-- 1&#45;&gt;23 -->
<g id="edge42" class="edge">
<title>1&#45;&gt;23</title>
<g id="a_edge42"><a xlink:title="include">
<path fill="none" stroke="#1414ce" d="M650.11,-794.28C415.36,-772.86 38,-728.82 38,-667 38,-667 38,-667 38,-593 38,-420.81 247.63,-302.3 345.62,-256.31"/>
<polygon fill="#1414ce" stroke="#1414ce" points="347.14,-259.46 354.74,-252.08 344.2,-253.11 347.14,-259.46"/>
</a>
</g>
</g>
<!-- 1&#45;&gt;20 -->
<g id="edge39" class="edge">
<title>1&#45;&gt;20</title>
<g id="a_edge39"><a xlink:title="include">
<path fill="none" stroke="#1414ce" d="M650.39,-805.66C475.55,-800.58 225.16,-787.84 133,-756 65.77,-732.77 0,-738.12 0,-667 0,-667 0,-667 0,-593 0,-366.47 133.81,-302.92 343,-216 401.06,-191.87 472.87,-176.65 515.69,-169"/>
<polygon fill="#1414ce" stroke="#1414ce" points="516.42,-172.42 525.67,-167.26 515.22,-165.53 516.42,-172.42"/>
</a>
</g>
</g>
<!-- 1&#45;&gt;11 -->
<g id="edge40" class="edge">
<title>1&#45;&gt;11</title>
<g id="a_edge40"><a xlink:title="include">
<path fill="none" stroke="#1414ce" d="M1015.79,-804.33C1208.04,-794.3 1483,-763.16 1483,-667 1483,-667 1483,-667 1483,-449 1483,-373.61 1428.62,-297.95 1396.68,-260.02"/>
<polygon fill="#1414ce" stroke="#1414ce" points="1399.02,-257.38 1389.85,-252.08 1393.71,-261.94 1399.02,-257.38"/>
</a>
</g>
</g>
<!-- 2 -->
<g id="node16" class="node">
<title>2</title>
<g id="a_node16"><a xlink:title="dist_nifs.h">
<polygon fill="#ffffff" stroke="black" points="941,-684 851,-684 851,-648 941,-648 941,-684"/>
<text text-anchor="middle" x="896" y="-662.3" font-family="Times,serif" font-size="14.00">dist_nifs.h</text>
</a>
</g>
</g>
<!-- 1&#45;&gt;2 -->
<g id="edge33" class="edge">
<title>1&#45;&gt;2</title>
<g id="a_edge33"><a xlink:title="include">
<path fill="none" stroke="#1414ce" d="M840.6,-791.87C851.43,-767.46 871.41,-722.43 884.18,-693.64"/>
<polygon fill="#1414ce" stroke="#1414ce" points="887.52,-694.75 888.37,-684.19 881.12,-691.91 887.52,-694.75"/>
</a>
</g>
</g>
<!-- 1&#45;&gt;4 -->
<g id="edge43" class="edge">
<title>1&#45;&gt;4</title>
<g id="a_edge43"><a xlink:title="include">
<path fill="none" stroke="#1414ce" d="M907.5,-791.93C968.92,-772.93 1046,-735.44 1046,-667 1046,-667 1046,-667 1046,-593 1046,-553 1046,-506.65 1046,-478.08"/>
<polygon fill="#1414ce" stroke="#1414ce" points="1049.5,-478.05 1046,-468.05 1042.5,-478.05 1049.5,-478.05"/>
</a>
</g>
</g>
<!-- 1&#45;&gt;12 -->
<g id="edge35" class="edge">
<title>1&#45;&gt;12</title>
<g id="a_edge35"><a xlink:title="include">
<path fill="none" stroke="#1414ce" d="M1015.61,-805.49C1161.92,-800.32 1354.05,-787.55 1425,-756 1478.16,-732.36 1521,-725.18 1521,-667 1521,-667 1521,-667 1521,-305 1521,-263.56 1505.36,-217.67 1493.89,-189.58"/>
<polygon fill="#1414ce" stroke="#1414ce" points="1497,-187.93 1489.89,-180.07 1490.55,-190.65 1497,-187.93"/>
</a>
</g>
</g>
<!-- 34 -->
<g id="node25" class="node">
<title>34</title>
<g id="a_node25"><a xlink:title="externalterm.h">
<polygon fill="#ffffff" stroke="black" points="1198,-612 1074,-612 1074,-576 1198,-576 1198,-612"/>
<text text-anchor="middle" x="1136" y="-590.3" font-family="Times,serif" font-size="14.00">externalterm.h</text>
</a>
</g>
</g>
<!-- 1&#45;&gt;34 -->
<g id="edge37" class="edge">
<title>1&#45;&gt;34</title>
<g id="a_edge37"><a xlink:title="include">
<path fill="none" stroke="#1414ce" d="M989.95,-791.94C1015.21,-783.91 1039.7,-772.4 1060,-756 1102.45,-721.7 1122.5,-658.12 1130.85,-621.97"/>
<polygon fill="#1414ce" stroke="#1414ce" points="1134.29,-622.64 1132.99,-612.12 1127.45,-621.15 1134.29,-622.64"/>
</a>
</g>
</g>
<!-- 1&#45;&gt;25 -->
<g id="edge38" class="edge">
<title>1&#45;&gt;25</title>
<g id="a_edge38"><a xlink:title="include">
<path fill="none" stroke="#1414ce" d="M650.34,-802.54C568.42,-795.91 483.58,-782.6 454,-756 417.18,-722.89 428.41,-658.59 438.85,-622.06"/>
<polygon fill="#1414ce" stroke="#1414ce" points="442.31,-622.7 441.87,-612.11 435.61,-620.66 442.31,-622.7"/>
</a>
</g>
</g>
<!-- 2&#45;&gt;4 -->
<g id="edge47" class="edge">
<title>2&#45;&gt;4</title>
<g id="a_edge47"><a xlink:title="include">
<path fill="none" stroke="#1414ce" d="M940.4,-647.78C957.56,-639.23 976.12,-627.4 989,-612 1006.41,-591.18 1028.07,-517.81 1039,-477.69"/>
<polygon fill="#1414ce" stroke="#1414ce" points="1042.38,-478.59 1041.6,-468.02 1035.62,-476.77 1042.38,-478.59"/>
</a>
</g>
</g>
<!-- 2&#45;&gt;3 -->
<g id="edge45" class="edge">
<title>2&#45;&gt;3</title>
<g id="a_edge45"><a xlink:title="include">
<path fill="none" stroke="#1414ce" d="M897.98,-647.7C898.86,-639.98 899.92,-630.71 900.9,-622.11"/>
<polygon fill="#1414ce" stroke="#1414ce" points="904.39,-622.44 902.05,-612.1 897.43,-621.64 904.39,-622.44"/>
</a>
</g>
</g>
<!-- 2&#45;&gt;25 -->
<g id="edge46" class="edge">
<title>2&#45;&gt;25</title>
<g id="a_edge46"><a xlink:title="include">
<path fill="none" stroke="#1414ce" d="M850.99,-657.97C773.71,-645.89 615.07,-621.1 521.54,-606.49"/>
<polygon fill="#1414ce" stroke="#1414ce" points="522,-603.02 511.58,-604.93 520.92,-609.94 522,-603.02"/>
</a>
</g>
</g>
<!-- 21&#45;&gt;23 -->
<g id="edge53" class="edge">
<title>21&#45;&gt;23</title>
<g id="a_edge53"><a xlink:title="include">
<path fill="none" stroke="#1414ce" d="M1126.67,-300.95C1021.55,-292.42 770.99,-271.79 561,-252 523.13,-248.43 480.44,-244.05 447.84,-240.63"/>
<polygon fill="#1414ce" stroke="#1414ce" points="447.94,-237.12 437.63,-239.56 447.21,-244.08 447.94,-237.12"/>
</a>
</g>
</g>
<!-- 21&#45;&gt;20 -->
<g id="edge50" class="edge">
<title>21&#45;&gt;20</title>
<g id="a_edge50"><a xlink:title="include">
<path fill="none" stroke="#1414ce" d="M1126.8,-302.28C1029.53,-296.43 819.14,-280.8 753,-252 730.15,-242.05 731.74,-228.2 710,-216 671.63,-194.47 623.07,-179.75 590.19,-171.38"/>
<polygon fill="#1414ce" stroke="#1414ce" points="590.64,-167.89 580.1,-168.89 588.96,-174.69 590.64,-167.89"/>
</a>
</g>
</g>
<!-- 21&#45;&gt;9 -->
<g id="edge48" class="edge">
<title>21&#45;&gt;9</title>
<g id="a_edge48"><a xlink:title="include">
<path fill="none" stroke="#1414ce" d="M1178.2,-287.85C1180.8,-250.83 1186.94,-163.18 1190.08,-118.39"/>
<polygon fill="#1414ce" stroke="#1414ce" points="1193.58,-118.45 1190.79,-108.23 1186.6,-117.96 1193.58,-118.45"/>
</a>
</g>
</g>
<!-- 21&#45;&gt;11 -->
<g id="edge52" class="edge">
<title>21&#45;&gt;11</title>
<g id="a_edge52"><a xlink:title="include">
<path fill="none" stroke="#1414ce" d="M1224.94,-287.97C1254.13,-277.59 1291.44,-264.34 1321.43,-253.68"/>
<polygon fill="#1414ce" stroke="#1414ce" points="1322.64,-256.96 1330.89,-250.32 1320.3,-250.37 1322.64,-256.96"/>
</a>
</g>
</g>
<!-- 21&#45;&gt;12 -->
<g id="edge49" class="edge">
<title>21&#45;&gt;12</title>
<g id="a_edge49"><a xlink:title="include">
<path fill="none" stroke="#1414ce" d="M1227.33,-305.46C1281.09,-303.57 1366.57,-293.49 1426,-252 1448,-236.64 1463.19,-209.59 1472.15,-189.33"/>
<polygon fill="#1414ce" stroke="#1414ce" points="1475.42,-190.59 1476.04,-180.01 1468.96,-187.89 1475.42,-190.59"/>
</a>
</g>
</g>
<!-- 21&#45;&gt;22 -->
<g id="edge51" class="edge">
<title>21&#45;&gt;22</title>
<g id="a_edge51"><a xlink:title="include">
<path fill="none" stroke="#1414ce" d="M1126.83,-295.56C1056.7,-282.36 929.93,-258.51 858.21,-245.01"/>
<polygon fill="#1414ce" stroke="#1414ce" points="858.51,-241.51 848.04,-243.1 857.22,-248.39 858.51,-241.51"/>
</a>
</g>
</g>
<!-- 4&#45;&gt;6 -->
<g id="edge55" class="edge">
<title>4&#45;&gt;6</title>
<g id="a_edge55"><a xlink:title="include">
<path fill="none" stroke="#1414ce" d="M1013.48,-447.24C950.8,-443.1 816.99,-430.35 789,-396 734.98,-329.7 900.54,-289.61 857,-216 817.21,-148.74 727.65,-115.99 670.45,-101.38"/>
<polygon fill="#1414ce" stroke="#1414ce" points="671.06,-97.92 660.52,-98.94 669.39,-104.72 671.06,-97.92"/>
</a>
</g>
</g>
<!-- 4&#45;&gt;19 -->
<g id="edge61" class="edge">
<title>4&#45;&gt;19</title>
<g id="a_edge61"><a xlink:title="include">
<path fill="none" stroke="#1414ce" d="M1013.09,-437.13C984.66,-426.87 942.92,-411.81 909.06,-399.59"/>
<polygon fill="#1414ce" stroke="#1414ce" points="909.87,-396.16 899.28,-396.06 907.5,-402.75 909.87,-396.16"/>
</a>
</g>
</g>
<!-- 4&#45;&gt;17 -->
<g id="edge62" class="edge">
<title>4&#45;&gt;17</title>
<g id="a_edge62"><a xlink:title="include">
<path fill="none" stroke="#1414ce" d="M1078.58,-443.5C1105.29,-437.09 1141.45,-423.62 1159,-396 1167.58,-382.5 1165.6,-374.58 1159,-360 1149,-337.91 1133.92,-342.29 1118,-324 1080,-280.35 1044.97,-222.21 1026.24,-189.07"/>
<polygon fill="#1414ce" stroke="#1414ce" points="1029.12,-187.04 1021.18,-180.02 1023.01,-190.46 1029.12,-187.04"/>
</a>
</g>
</g>
<!-- 4&#45;&gt;7 -->
<g id="edge56" class="edge">
<title>4&#45;&gt;7</title>
<g id="a_edge56"><a xlink:title="include">
<path fill="none" stroke="#1414ce" d="M1078.62,-449.05C1121.64,-447.37 1197.25,-438.07 1243,-396 1268.04,-372.97 1263.13,-357.51 1269,-324 1288.47,-212.74 1307.19,-159.7 1236,-72 1217.75,-49.52 1188,-36.27 1162.81,-28.64"/>
<polygon fill="#1414ce" stroke="#1414ce" points="1163.63,-25.24 1153.06,-25.89 1161.73,-31.98 1163.63,-25.24"/>
</a>
</g>
</g>
<!-- 4&#45;&gt;9 -->
<g id="edge58" class="edge">
<title>4&#45;&gt;9</title>
<g id="a_edge58"><a xlink:title="include">
<path fill="none" stroke="#1414ce" d="M1078.51,-446.02C1115.12,-441.16 1174.61,-428.51 1214,-396 1242.07,-372.84 1244.06,-359.28 1253,-324 1272.05,-248.82 1231.48,-160.27 1207.68,-117.19"/>
<polygon fill="#1414ce" stroke="#1414ce" points="1210.57,-115.2 1202.6,-108.22 1204.48,-118.65 1210.57,-115.2"/>
</a>
</g>
</g>
<!-- 4&#45;&gt;11 -->
<g id="edge60" class="edge">
<title>4&#45;&gt;11</title>
<g id="a_edge60"><a xlink:title="include">
<path fill="none" stroke="#1414ce" d="M1078.61,-447.78C1148.19,-444.49 1307.9,-432.99 1345,-396 1380.27,-360.83 1380.83,-298.3 1377.68,-262.39"/>
<polygon fill="#1414ce" stroke="#1414ce" points="1381.13,-261.75 1376.62,-252.16 1374.17,-262.47 1381.13,-261.75"/>
</a>
</g>
</g>
<!-- 5 -->
<g id="node26" class="node">
<title>5</title>
<g id="a_node26"><a xlink:title="sys/types.h">
<polygon fill="#ffffff" stroke="black" points="1059.5,-396 962.5,-396 962.5,-360 1059.5,-360 1059.5,-396"/>
<text text-anchor="middle" x="1011" y="-374.3" font-family="Times,serif" font-size="14.00">sys/types.h</text>
</a>
</g>
</g>
<!-- 4&#45;&gt;5 -->
<g id="edge54" class="edge">
<title>4&#45;&gt;5</title>
<g id="a_edge54"><a xlink:title="include">
<path fill="none" stroke="#1414ce" d="M1037.35,-431.7C1033.36,-423.73 1028.55,-414.1 1024.13,-405.26"/>
<polygon fill="#1414ce" stroke="#1414ce" points="1027.15,-403.48 1019.55,-396.1 1020.89,-406.61 1027.15,-403.48"/>
</a>
</g>
</g>
<!-- 10 -->
<g id="node27" class="node">
<title>10</title>
<g id="a_node27"><a xlink:title="string.h">
<polygon fill="#ffffff" stroke="black" points="1150.5,-396 1077.5,-396 1077.5,-360 1150.5,-360 1150.5,-396"/>
<text text-anchor="middle" x="1114" y="-374.3" font-family="Times,serif" font-size="14.00">string.h</text>
</a>
</g>
</g>
<!-- 4&#45;&gt;10 -->
<g id="edge59" class="edge">
<title>4&#45;&gt;10</title>
<g id="a_edge59"><a xlink:title="include">
<path fill="none" stroke="#1414ce" d="M1062.81,-431.7C1071.13,-423.14 1081.31,-412.66 1090.39,-403.3"/>
<polygon fill="#1414ce" stroke="#1414ce" points="1092.93,-405.72 1097.38,-396.1 1087.91,-400.84 1092.93,-405.72"/>
</a>
</g>
</g>
<!-- 4&#45;&gt;13 -->
<g id="edge63" class="edge">
<title>4&#45;&gt;13</title>
<g id="a_edge63"><a xlink:title="include">
<path fill="none" stroke="#1414ce" d="M1078.55,-447.41C1137.87,-443.69 1266.85,-431.85 1369,-396 1430.59,-374.39 1458.27,-376.54 1497,-324 1545.17,-258.66 1560.75,-218.28 1528,-144 1523.01,-132.69 1514.29,-122.74 1505.1,-114.62"/>
<polygon fill="#1414ce" stroke="#1414ce" points="1507.28,-111.88 1497.34,-108.23 1502.83,-117.28 1507.28,-111.88"/>
</a>
</g>
</g>
<!-- 4&#45;&gt;8 -->
<g id="edge57" class="edge">
<title>4&#45;&gt;8</title>
<g id="a_edge57"><a xlink:title="include">
<path fill="none" stroke="#1414ce" d="M1078.64,-439.18C1141.62,-418.32 1270.75,-365.06 1236,-288 1198.86,-205.64 1108.4,-143.87 1054.79,-113"/>
<polygon fill="#1414ce" stroke="#1414ce" points="1056.31,-109.83 1045.88,-107.95 1052.86,-115.92 1056.31,-109.83"/>
</a>
</g>
</g>
<!-- 12&#45;&gt;13 -->
<g id="edge64" class="edge">
<title>12&#45;&gt;13</title>
<g id="a_edge64"><a xlink:title="include">
<path fill="none" stroke="#1414ce" d="M1479.03,-143.7C1477.71,-135.98 1476.12,-126.71 1474.65,-118.11"/>
<polygon fill="#1414ce" stroke="#1414ce" points="1478.07,-117.37 1472.93,-108.1 1471.17,-118.55 1478.07,-117.37"/>
</a>
</g>
</g>
<!-- 3&#45;&gt;4 -->
<g id="edge65" class="edge">
<title>3&#45;&gt;4</title>
<g id="a_edge65"><a xlink:title="include">
<path fill="none" stroke="#1414ce" d="M921.13,-575.87C946.18,-550.82 992.95,-504.05 1021.59,-475.41"/>
<polygon fill="#1414ce" stroke="#1414ce" points="1024.21,-477.74 1028.81,-468.19 1019.26,-472.79 1024.21,-477.74"/>
</a>
</g>
</g>
<!-- 15 -->
<g id="node23" class="node">
<title>15</title>
<g id="a_node23"><a xlink:title="limits.h">
<polygon fill="#ffffff" stroke="black" points="1407.5,-36 1336.5,-36 1336.5,0 1407.5,0 1407.5,-36"/>
<text text-anchor="middle" x="1372" y="-14.3" font-family="Times,serif" font-size="14.00">limits.h</text>
</a>
</g>
</g>
<!-- 27 -->
<g id="node24" class="node">
<title>27</title>
<g id="a_node24"><a xlink:title="atom_table.h">
<polygon fill="#ffffff" stroke="black" points="289.5,-540 180.5,-540 180.5,-504 289.5,-504 289.5,-540"/>
<text text-anchor="middle" x="235" y="-518.3" font-family="Times,serif" font-size="14.00">atom_table.h</text>
</a>
</g>
</g>
<!-- 27&#45;&gt;6 -->
<g id="edge66" class="edge">
<title>27&#45;&gt;6</title>
<g id="a_edge66"><a xlink:title="include">
<path fill="none" stroke="#1414ce" d="M225.88,-503.91C194.9,-443.3 101.43,-237.25 209,-144 261.46,-98.53 468.76,-91.51 566.93,-90.8"/>
<polygon fill="#1414ce" stroke="#1414ce" points="567.23,-94.3 577.21,-90.75 567.19,-87.3 567.23,-94.3"/>
</a>
</g>
</g>
<!-- 27&#45;&gt;26 -->
<g id="edge67" class="edge">
<title>27&#45;&gt;26</title>
<g id="a_edge67"><a xlink:title="include">
<path fill="none" stroke="#1414ce" d="M238.96,-503.7C240.72,-495.98 242.84,-486.71 244.8,-478.11"/>
<polygon fill="#1414ce" stroke="#1414ce" points="248.27,-478.63 247.09,-468.1 241.45,-477.07 248.27,-478.63"/>
</a>
</g>
</g>
<!-- 34&#45;&gt;4 -->
<g id="edge68" class="edge">
<title>34&#45;&gt;4</title>
<g id="a_edge68"><a xlink:title="include">
<path fill="none" stroke="#1414ce" d="M1125.14,-575.87C1109.53,-551.24 1080.63,-505.64 1062.41,-476.88"/>
<polygon fill="#1414ce" stroke="#1414ce" points="1065.2,-474.76 1056.89,-468.19 1059.29,-478.51 1065.2,-474.76"/>
</a>
</g>
</g>
<!-- 13&#45;&gt;14 -->
<g id="edge69" class="edge">
<title>13&#45;&gt;14</title>
<g id="a_edge69"><a xlink:title="include">
<path fill="none" stroke="#1414ce" d="M1494.46,-71.88C1507.3,-62.89 1523.2,-51.76 1537.09,-42.03"/>
<polygon fill="#1414ce" stroke="#1414ce" points="1539.26,-44.79 1545.44,-36.19 1535.24,-39.06 1539.26,-44.79"/>
</a>
</g>
</g>
<!-- 13&#45;&gt;7 -->
<g id="edge72" class="edge">
<title>13&#45;&gt;7</title>
<g id="a_edge72"><a xlink:title="include">
<path fill="none" stroke="#1414ce" d="M1407.42,-75.03C1402.54,-73.99 1397.69,-72.97 1393,-72 1312.42,-55.37 1218.24,-37.65 1163.34,-27.5"/>
<polygon fill="#1414ce" stroke="#1414ce" points="1163.7,-24 1153.23,-25.63 1162.43,-30.89 1163.7,-24"/>
</a>
</g>
</g>
<!-- 13&#45;&gt;15 -->
<g id="edge70" class="edge">
<title>13&#45;&gt;15</title>
<g id="a_edge70"><a xlink:title="include">
<path fill="none" stroke="#1414ce" d="M1446.03,-71.88C1433.45,-62.89 1417.87,-51.76 1404.25,-42.03"/>
<polygon fill="#1414ce" stroke="#1414ce" points="1406.24,-39.15 1396.07,-36.19 1402.17,-44.85 1406.24,-39.15"/>
</a>
</g>
</g>
<!-- 16 -->
<g id="node35" class="node">
<title>16</title>
<g id="a_node35"><a xlink:title="inttypes.h">
<polygon fill="#ffffff" stroke="black" points="1514.5,-36 1425.5,-36 1425.5,0 1514.5,0 1514.5,-36"/>
<text text-anchor="middle" x="1470" y="-14.3" font-family="Times,serif" font-size="14.00">inttypes.h</text>
</a>
</g>
</g>
<!-- 13&#45;&gt;16 -->
<g id="edge71" class="edge">
<title>13&#45;&gt;16</title>
<g id="a_edge71"><a xlink:title="include">
<path fill="none" stroke="#1414ce" d="M1470,-71.7C1470,-63.98 1470,-54.71 1470,-46.11"/>
<polygon fill="#1414ce" stroke="#1414ce" points="1473.5,-46.1 1470,-36.1 1466.5,-46.1 1473.5,-46.1"/>
</a>
</g>
</g>
<!-- 25&#45;&gt;26 -->
<g id="edge74" class="edge">
<title>25&#45;&gt;26</title>
<g id="a_edge74"><a xlink:title="include">
<path fill="none" stroke="#1414ce" d="M424.24,-575.87C389.04,-550.5 322.94,-502.85 283.35,-474.32"/>
<polygon fill="#1414ce" stroke="#1414ce" points="285.01,-471.2 274.85,-468.19 280.91,-476.88 285.01,-471.2"/>
</a>
</g>
</g>
<!-- 25&#45;&gt;23 -->
<g id="edge81" class="edge">
<title>25&#45;&gt;23</title>
<g id="a_edge81"><a xlink:title="include">
<path fill="none" stroke="#1414ce" d="M435.65,-575.74C429.2,-565.78 421.88,-552.75 418,-540 387.94,-441.14 390.29,-316.34 393.15,-262.16"/>
<polygon fill="#1414ce" stroke="#1414ce" points="396.65,-262.19 393.73,-252 389.66,-261.78 396.65,-262.19"/>
</a>
</g>
</g>
<!-- 25&#45;&gt;20 -->
<g id="edge78" class="edge">
<title>25&#45;&gt;20</title>
<g id="a_edge78"><a xlink:title="include">
<path fill="none" stroke="#1414ce" d="M447.84,-575.89C447.85,-557.93 448.35,-528.9 451,-504 464.85,-374.08 450.1,-332.12 510,-216 515.1,-206.1 522.26,-196.33 529.26,-187.93"/>
<polygon fill="#1414ce" stroke="#1414ce" points="531.95,-190.17 535.87,-180.33 526.66,-185.58 531.95,-190.17"/>
</a>
</g>
</g>
<!-- 25&#45;&gt;7 -->
<g id="edge73" class="edge">
<title>25&#45;&gt;7</title>
<g id="a_edge73"><a xlink:title="include">
<path fill="none" stroke="#1414ce" d="M384.19,-589.14C306.55,-583.21 181.41,-569.33 146,-540 60.75,-469.39 58,-417.7 58,-307 58,-307 58,-307 58,-161 58,-47.65 186.15,-95.69 297,-72 446.35,-40.09 919.48,-24.48 1070.32,-20.23"/>
<polygon fill="#1414ce" stroke="#1414ce" points="1070.71,-23.72 1080.61,-19.94 1070.52,-16.72 1070.71,-23.72"/>
</a>
</g>
</g>
<!-- 25&#45;&gt;4 -->
<g id="edge82" class="edge">
<title>25&#45;&gt;4</title>
<g id="a_edge82"><a xlink:title="include">
<path fill="none" stroke="#1414ce" d="M511.72,-585.8C572.71,-577.95 666.86,-563.29 746,-540 785.75,-528.3 792.66,-517.02 832,-504 890.37,-484.68 959.74,-468.74 1003.32,-459.54"/>
<polygon fill="#1414ce" stroke="#1414ce" points="1004.22,-462.93 1013.29,-457.46 1002.79,-456.08 1004.22,-462.93"/>
</a>
</g>
</g>
<!-- 25&#45;&gt;12 -->
<g id="edge76" class="edge">
<title>25&#45;&gt;12</title>
<g id="a_edge76"><a xlink:title="include">
<path fill="none" stroke="#1414ce" d="M506.25,-575.92C598,-547.42 779.64,-484.45 915,-396 934.48,-383.27 931.98,-369.96 953,-360 1067.58,-305.71 1112.3,-351.84 1236,-324 1336.37,-301.41 1384.43,-325.9 1456,-252 1471.97,-235.51 1478.21,-209.78 1480.61,-190.22"/>
<polygon fill="#1414ce" stroke="#1414ce" points="1484.12,-190.37 1481.59,-180.08 1477.15,-189.7 1484.12,-190.37"/>
</a>
</g>
</g>
<!-- 25&#45;&gt;27 -->
<g id="edge75" class="edge">
<title>25&#45;&gt;27</title>
<g id="a_edge75"><a xlink:title="include">
<path fill="none" stroke="#1414ce" d="M396.17,-575.97C366.15,-566.1 328.18,-553.62 296.63,-543.25"/>
<polygon fill="#1414ce" stroke="#1414ce" points="297.66,-539.91 287.07,-540.11 295.47,-546.56 297.66,-539.91"/>
</a>
</g>
</g>
<!-- 25&#45;&gt;24 -->
<g id="edge80" class="edge">
<title>25&#45;&gt;24</title>
<g id="a_edge80"><a xlink:title="include">
<path fill="none" stroke="#1414ce" d="M384.2,-589.93C310.97,-584.92 197.52,-572.07 171,-540 83.59,-434.28 185.95,-255.6 229.88,-189.03"/>
<polygon fill="#1414ce" stroke="#1414ce" points="233,-190.65 235.67,-180.4 227.19,-186.75 233,-190.65"/>
</a>
</g>
</g>
<!-- 25&#45;&gt;29 -->
<g id="edge83" class="edge">
<title>25&#45;&gt;29</title>
<g id="a_edge83"><a xlink:title="include">
<path fill="none" stroke="#1414ce" d="M481.36,-575.96C495.96,-567.01 512.19,-554.81 523,-540 531.5,-528.35 589.44,-334.69 610.97,-262.15"/>
<polygon fill="#1414ce" stroke="#1414ce" points="614.38,-262.94 613.87,-252.36 607.67,-260.95 614.38,-262.94"/>
</a>
</g>
</g>
<!-- 25&#45;&gt;22 -->
<g id="edge79" class="edge">
<title>25&#45;&gt;22</title>
<g id="a_edge79"><a xlink:title="include">
<path fill="none" stroke="#1414ce" d="M490.71,-575.94C508.74,-567.19 528.99,-555.15 544,-540 633.56,-449.58 585.88,-373.67 680,-288 700.3,-269.52 728,-256.89 752.16,-248.6"/>
<polygon fill="#1414ce" stroke="#1414ce" points="753.5,-251.85 761.92,-245.42 751.33,-245.19 753.5,-251.85"/>
</a>
</g>
</g>
<!-- 28 -->
<g id="node34" class="node">
<title>28</title>
<g id="a_node34"><a xlink:title="ets.h">
<polygon fill="#ffffff" stroke="black" points="514,-540 460,-540 460,-504 514,-504 514,-540"/>
<text text-anchor="middle" x="487" y="-518.3" font-family="Times,serif" font-size="14.00">ets.h</text>
</a>
</g>
</g>
<!-- 25&#45;&gt;28 -->
<g id="edge77" class="edge">
<title>25&#45;&gt;28</title>
<g id="a_edge77"><a xlink:title="include">
<path fill="none" stroke="#1414ce" d="M457.64,-575.7C462.13,-567.64 467.56,-557.89 472.52,-548.98"/>
<polygon fill="#1414ce" stroke="#1414ce" points="475.66,-550.54 477.47,-540.1 469.55,-547.14 475.66,-550.54"/>
</a>
</g>
</g>
<!-- 24&#45;&gt;6 -->
<g id="edge84" class="edge">
<title>24&#45;&gt;6</title>
<g id="a_edge84"><a xlink:title="include">
<path fill="none" stroke="#1414ce" d="M278.02,-148.45C282.65,-146.79 287.42,-145.24 292,-144 387.5,-118.11 502.33,-103.08 567.37,-96.01"/>
<polygon fill="#1414ce" stroke="#1414ce" points="567.8,-99.48 577.38,-94.94 567.06,-92.52 567.8,-99.48"/>
</a>
</g>
</g>
<!-- 29&#45;&gt;6 -->
<g id="edge85" class="edge">
<title>29&#45;&gt;6</title>
<g id="a_edge85"><a xlink:title="include">
<path fill="none" stroke="#1414ce" d="M619,-215.87C619,-191.67 619,-147.21 619,-118.39"/>
<polygon fill="#1414ce" stroke="#1414ce" points="622.5,-118.19 619,-108.19 615.5,-118.19 622.5,-118.19"/>
</a>
</g>
</g>
<!-- 29&#45;&gt;20 -->
<g id="edge87" class="edge">
<title>29&#45;&gt;20</title>
<g id="a_edge87"><a xlink:title="include">
<path fill="none" stroke="#1414ce" d="M602.69,-215.7C594.69,-207.22 584.93,-196.86 576.18,-187.58"/>
<polygon fill="#1414ce" stroke="#1414ce" points="578.53,-184.98 569.13,-180.1 573.44,-189.78 578.53,-184.98"/>
</a>
</g>
</g>
<!-- 29&#45;&gt;7 -->
<g id="edge86" class="edge">
<title>29&#45;&gt;7</title>
<g id="a_edge86"><a xlink:title="include">
<path fill="none" stroke="#1414ce" d="M654.06,-215.82C716.9,-185.29 853.15,-120.25 971,-72 1004.29,-58.37 1042.54,-44.55 1071.53,-34.44"/>
<polygon fill="#1414ce" stroke="#1414ce" points="1072.69,-37.75 1080.99,-31.16 1070.4,-31.13 1072.69,-37.75"/>
</a>
</g>
</g>
<!-- 22&#45;&gt;6 -->
<g id="edge88" class="edge">
<title>22&#45;&gt;6</title>
<g id="a_edge88"><a xlink:title="include">
<path fill="none" stroke="#1414ce" d="M782.56,-215.87C749.33,-190.5 686.92,-142.85 649.54,-114.32"/>
<polygon fill="#1414ce" stroke="#1414ce" points="651.59,-111.48 641.52,-108.19 647.34,-117.04 651.59,-111.48"/>
</a>
</g>
</g>
<!-- 22&#45;&gt;17 -->
<g id="edge91" class="edge">
<title>22&#45;&gt;17</title>
<g id="a_edge91"><a xlink:title="include">
<path fill="none" stroke="#1414ce" d="M848.19,-219.25C880.69,-208.79 926.27,-193.87 966,-180 967.66,-179.42 969.35,-178.82 971.05,-178.22"/>
<polygon fill="#1414ce" stroke="#1414ce" points="972.66,-181.36 980.88,-174.67 970.28,-174.78 972.66,-181.36"/>
</a>
</g>
</g>
<!-- 22&#45;&gt;20 -->
<g id="edge89" class="edge">
<title>22&#45;&gt;20</title>
<g id="a_edge89"><a xlink:title="include">
<path fill="none" stroke="#1414ce" d="M761.77,-219.99C757.13,-218.62 752.47,-217.27 748,-216 693.06,-200.34 629.12,-183.16 589.86,-172.73"/>
<polygon fill="#1414ce" stroke="#1414ce" points="590.75,-169.35 580.19,-170.16 588.96,-176.11 590.75,-169.35"/>
</a>
</g>
</g>
<!-- 22&#45;&gt;13 -->
<g id="edge90" class="edge">
<title>22&#45;&gt;13</title>
<g id="a_edge90"><a xlink:title="include">
<path fill="none" stroke="#1414ce" d="M848.12,-223.79C959.59,-199.99 1258.28,-136.21 1397.15,-106.56"/>
<polygon fill="#1414ce" stroke="#1414ce" points="1398.22,-109.91 1407.27,-104.4 1396.76,-103.06 1398.22,-109.91"/>
</a>
</g>
</g>
<!-- 28&#45;&gt;23 -->
<g id="edge93" class="edge">
<title>28&#45;&gt;23</title>
<g id="a_edge93"><a xlink:title="include">
<path fill="none" stroke="#1414ce" d="M481.52,-503.97C466.12,-456.09 422.36,-320.06 403.65,-261.9"/>
<polygon fill="#1414ce" stroke="#1414ce" points="406.96,-260.75 400.57,-252.31 400.3,-262.9 406.96,-260.75"/>
</a>
</g>
</g>
<!-- 28&#45;&gt;20 -->
<g id="edge92" class="edge">
<title>28&#45;&gt;20</title>
<g id="a_edge92"><a xlink:title="include">
<path fill="none" stroke="#1414ce" d="M490.44,-503.59C495.41,-476.9 504,-424.19 504,-379 504,-379 504,-379 504,-305 504,-262.78 523.6,-217.16 538.01,-189.33"/>
<polygon fill="#1414ce" stroke="#1414ce" points="541.23,-190.74 542.85,-180.27 535.05,-187.44 541.23,-190.74"/>
</a>
</g>
</g>
<!-- 28&#45;&gt;4 -->
<g id="edge94" class="edge">
<title>28&#45;&gt;4</title>
<g id="a_edge94"><a xlink:title="include">
<path fill="none" stroke="#1414ce" d="M514.34,-517.58C604.59,-506.28 893.48,-470.1 1003.19,-456.36"/>
<polygon fill="#1414ce" stroke="#1414ce" points="1003.75,-459.82 1013.23,-455.1 1002.88,-452.87 1003.75,-459.82"/>
</a>
</g>
</g>
</g>
</svg>
