<?xml version="1.0" encoding="UTF-8" standalone="no"?>
<!DOCTYPE svg PUBLIC "-//W3C//DTD SVG 1.1//EN"
 "http://www.w3.org/Graphics/SVG/1.1/DTD/svg11.dtd">
<!-- Generated by graphviz version 2.43.0 (0)
 -->
<!-- Title: %3 Pages: 1 -->
<svg width="1581pt" height="764pt"
 viewBox="0.00 0.00 1580.98 764.00" xmlns="http://www.w3.org/2000/svg" xmlns:xlink="http://www.w3.org/1999/xlink">
<g id="graph0" class="graph" transform="scale(1 1) rotate(0) translate(4 760)">
<title>%3</title>
<polygon fill="transparent" stroke="transparent" points="-4,4 -4,-760 1576.98,-760 1576.98,4 -4,4"/>
<!-- 8 -->
<g id="node1" class="node">
<title>8</title>
<g id="a_node1"><a xlink:title="stdbool.h">
<polygon fill="#ffffff" stroke="black" points="452.48,-108 369.48,-108 369.48,-72 452.48,-72 452.48,-108"/>
<text text-anchor="middle" x="410.98" y="-86.3" font-family="Times,serif" font-size="14.00">stdbool.h</text>
</a>
</g>
</g>
<!-- 25 -->
<g id="node2" class="node">
<title>25</title>
<g id="a_node2"><a xlink:title="refc_binary.h">
<polygon fill="#ffffff" stroke="black" points="929.98,-396 821.98,-396 821.98,-360 929.98,-360 929.98,-396"/>
<text text-anchor="middle" x="875.98" y="-374.3" font-family="Times,serif" font-size="14.00">refc_binary.h</text>
</a>
</g>
</g>
<!-- 25&#45;&gt;8 -->
<g id="edge1" class="edge">
<title>25&#45;&gt;8</title>
<g id="a_edge1"><a xlink:title="include">
<path fill="none" stroke="#1414ce" d="M843.98,-359.97C802.73,-337.44 729.46,-295.47 671.98,-252 653.17,-237.77 652.05,-229.88 632.98,-216 575.43,-174.12 502.52,-135.5 456.29,-112.59"/>
<polygon fill="#1414ce" stroke="#1414ce" points="457.65,-109.36 447.13,-108.08 454.56,-115.64 457.65,-109.36"/>
</a>
</g>
</g>
<!-- 15 -->
<g id="node7" class="node">
<title>15</title>
<g id="a_node7"><a xlink:title="list.h">
<polygon fill="#ffffff" stroke="black" points="382.98,-180 328.98,-180 328.98,-144 382.98,-144 382.98,-180"/>
<text text-anchor="middle" x="355.98" y="-158.3" font-family="Times,serif" font-size="14.00">list.h</text>
</a>
</g>
</g>
<!-- 25&#45;&gt;15 -->
<g id="edge3" class="edge">
<title>25&#45;&gt;15</title>
<g id="a_edge3"><a xlink:title="include">
<path fill="none" stroke="#1414ce" d="M821.82,-367.78C740.26,-352.35 582.7,-316.45 462.98,-252 431.1,-234.84 399.88,-207.27 379.47,-187.36"/>
<polygon fill="#1414ce" stroke="#1414ce" points="381.76,-184.7 372.2,-180.14 376.83,-189.67 381.76,-184.7"/>
</a>
</g>
</g>
<!-- 6 -->
<g id="node9" class="node">
<title>6</title>
<g id="a_node9"><a xlink:title="stdlib.h">
<polygon fill="#ffffff" stroke="black" points="1294.48,-108 1223.48,-108 1223.48,-72 1294.48,-72 1294.48,-108"/>
<text text-anchor="middle" x="1258.98" y="-86.3" font-family="Times,serif" font-size="14.00">stdlib.h</text>
</a>
</g>
</g>
<!-- 25&#45;&gt;6 -->
<g id="edge2" class="edge">
<title>25&#45;&gt;6</title>
<g id="a_edge2"><a xlink:title="include">
<path fill="none" stroke="#1414ce" d="M930.04,-363.13C1010.42,-339.6 1160.39,-283.96 1238.98,-180 1252.38,-162.28 1257.1,-137.26 1258.63,-118.26"/>
<polygon fill="#1414ce" stroke="#1414ce" points="1262.13,-118.32 1259.19,-108.14 1255.14,-117.93 1262.13,-118.32"/>
</a>
</g>
</g>
<!-- 26 -->
<g id="node13" class="node">
<title>26</title>
<g id="a_node13"><a xlink:title="resources.h">
<polygon fill="#ffffff" stroke="black" points="929.98,-324 829.98,-324 829.98,-288 929.98,-288 929.98,-324"/>
<text text-anchor="middle" x="879.98" y="-302.3" font-family="Times,serif" font-size="14.00">resources.h</text>
</a>
</g>
</g>
<!-- 25&#45;&gt;26 -->
<g id="edge4" class="edge">
<title>25&#45;&gt;26</title>
<g id="a_edge4"><a xlink:title="include">
<path fill="none" stroke="#1414ce" d="M876.97,-359.7C877.41,-351.98 877.94,-342.71 878.43,-334.11"/>
<polygon fill="#1414ce" stroke="#1414ce" points="881.93,-334.29 879,-324.1 874.94,-333.89 881.93,-334.29"/>
</a>
</g>
</g>
<!-- 5 -->
<g id="node3" class="node">
<title>5</title>
<g id="a_node3"><a xlink:title="atom.h">
<polygon fill="#ffffff" stroke="black" points="766.98,-180 700.98,-180 700.98,-144 766.98,-144 766.98,-180"/>
<text text-anchor="middle" x="733.98" y="-158.3" font-family="Times,serif" font-size="14.00">atom.h</text>
</a>
</g>
</g>
<!-- 4 -->
<g id="node8" class="node">
<title>4</title>
<g id="a_node8"><a xlink:title="stdint.h">
<polygon fill="#ffffff" stroke="black" points="822.98,-36 750.98,-36 750.98,0 822.98,0 822.98,-36"/>
<text text-anchor="middle" x="786.98" y="-14.3" font-family="Times,serif" font-size="14.00">stdint.h</text>
</a>
</g>
</g>
<!-- 5&#45;&gt;4 -->
<g id="edge5" class="edge">
<title>5&#45;&gt;4</title>
<g id="a_edge5"><a xlink:title="include">
<path fill="none" stroke="#1414ce" d="M740.37,-143.87C749.49,-119.46 766.29,-74.43 777.04,-45.64"/>
<polygon fill="#1414ce" stroke="#1414ce" points="780.35,-46.78 780.56,-36.19 773.79,-44.33 780.35,-46.78"/>
</a>
</g>
</g>
<!-- 5&#45;&gt;6 -->
<g id="edge6" class="edge">
<title>5&#45;&gt;6</title>
<g id="a_edge6"><a xlink:title="include">
<path fill="none" stroke="#1414ce" d="M767.21,-157.33C872.47,-145.68 1192.26,-110.21 1202.98,-108 1206.42,-107.29 1209.95,-106.46 1213.48,-105.56"/>
<polygon fill="#1414ce" stroke="#1414ce" points="1214.65,-108.87 1223.38,-102.87 1212.81,-102.12 1214.65,-108.87"/>
</a>
</g>
</g>
<!-- 11 -->
<g id="node4" class="node">
<title>11</title>
<g id="a_node4"><a xlink:title="assert.h">
<polygon fill="#ffffff" stroke="black" points="1075.98,-36 1001.98,-36 1001.98,0 1075.98,0 1075.98,-36"/>
<text text-anchor="middle" x="1038.98" y="-14.3" font-family="Times,serif" font-size="14.00">assert.h</text>
</a>
</g>
</g>
<!-- 23 -->
<g id="node5" class="node">
<title>23</title>
<g id="a_node5"><a xlink:title="utils.h">
<polygon fill="#ffffff" stroke="black" points="1166.98,-180 1104.98,-180 1104.98,-144 1166.98,-144 1166.98,-180"/>
<text text-anchor="middle" x="1135.98" y="-158.3" font-family="Times,serif" font-size="14.00">utils.h</text>
</a>
</g>
</g>
<!-- 23&#45;&gt;6 -->
<g id="edge9" class="edge">
<title>23&#45;&gt;6</title>
<g id="a_edge9"><a xlink:title="include">
<path fill="none" stroke="#1414ce" d="M1166.07,-143.88C1182.3,-134.64 1202.52,-123.13 1219.95,-113.21"/>
<polygon fill="#1414ce" stroke="#1414ce" points="1221.82,-116.18 1228.78,-108.19 1218.35,-110.09 1221.82,-116.18"/>
</a>
</g>
</g>
<!-- 24 -->
<g id="node15" class="node">
<title>24</title>
<g id="a_node15"><a xlink:title="stddef.h">
<polygon fill="#ffffff" stroke="black" points="1193.98,-108 1119.98,-108 1119.98,-72 1193.98,-72 1193.98,-108"/>
<text text-anchor="middle" x="1156.98" y="-86.3" font-family="Times,serif" font-size="14.00">stddef.h</text>
</a>
</g>
</g>
<!-- 23&#45;&gt;24 -->
<g id="edge7" class="edge">
<title>23&#45;&gt;24</title>
<g id="a_edge7"><a xlink:title="include">
<path fill="none" stroke="#1414ce" d="M1141.17,-143.7C1143.51,-135.9 1146.33,-126.51 1148.93,-117.83"/>
<polygon fill="#1414ce" stroke="#1414ce" points="1152.33,-118.69 1151.85,-108.1 1145.62,-116.68 1152.33,-118.69"/>
</a>
</g>
</g>
<!-- 17 -->
<g id="node27" class="node">
<title>17</title>
<g id="a_node27"><a xlink:title="stdio.h">
<polygon fill="#ffffff" stroke="black" points="842.48,-108 777.48,-108 777.48,-72 842.48,-72 842.48,-108"/>
<text text-anchor="middle" x="809.98" y="-86.3" font-family="Times,serif" font-size="14.00">stdio.h</text>
</a>
</g>
</g>
<!-- 23&#45;&gt;17 -->
<g id="edge8" class="edge">
<title>23&#45;&gt;17</title>
<g id="a_edge8"><a xlink:title="include">
<path fill="none" stroke="#1414ce" d="M1104.72,-154.29C1046.03,-141.69 919.27,-114.47 852.73,-100.18"/>
<polygon fill="#1414ce" stroke="#1414ce" points="853.1,-96.68 842.59,-98 851.63,-103.52 853.1,-96.68"/>
</a>
</g>
</g>
<!-- 16 -->
<g id="node6" class="node">
<title>16</title>
<g id="a_node6"><a xlink:title="synclist.h">
<polygon fill="#ffffff" stroke="black" points="344.48,-252 259.48,-252 259.48,-216 344.48,-216 344.48,-252"/>
<text text-anchor="middle" x="301.98" y="-230.3" font-family="Times,serif" font-size="14.00">synclist.h</text>
</a>
</g>
</g>
<!-- 16&#45;&gt;15 -->
<g id="edge11" class="edge">
<title>16&#45;&gt;15</title>
<g id="a_edge11"><a xlink:title="include">
<path fill="none" stroke="#1414ce" d="M315.33,-215.7C321.74,-207.39 329.54,-197.28 336.59,-188.14"/>
<polygon fill="#1414ce" stroke="#1414ce" points="339.45,-190.16 342.79,-180.1 333.91,-185.88 339.45,-190.16"/>
</a>
</g>
</g>
<!-- 18 -->
<g id="node23" class="node">
<title>18</title>
<g id="a_node23"><a xlink:title="smp.h">
<polygon fill="#ffffff" stroke="black" points="142.98,-180 82.98,-180 82.98,-144 142.98,-144 142.98,-180"/>
<text text-anchor="middle" x="112.98" y="-158.3" font-family="Times,serif" font-size="14.00">smp.h</text>
</a>
</g>
</g>
<!-- 16&#45;&gt;18 -->
<g id="edge12" class="edge">
<title>16&#45;&gt;18</title>
<g id="a_edge12"><a xlink:title="include">
<path fill="none" stroke="#1414ce" d="M259.09,-217.12C227.15,-205.29 183.87,-189.25 152.71,-177.71"/>
<polygon fill="#1414ce" stroke="#1414ce" points="153.64,-174.33 143.05,-174.14 151.21,-180.89 153.64,-174.33"/>
</a>
</g>
</g>
<!-- 16&#45;&gt;17 -->
<g id="edge10" class="edge">
<title>16&#45;&gt;17</title>
<g id="a_edge10"><a xlink:title="include">
<path fill="none" stroke="#1414ce" d="M344.85,-221.02C440.75,-194.21 671.63,-129.67 767.32,-102.92"/>
<polygon fill="#1414ce" stroke="#1414ce" points="768.54,-106.22 777.23,-100.15 766.66,-99.48 768.54,-106.22"/>
</a>
</g>
</g>
<!-- 15&#45;&gt;8 -->
<g id="edge13" class="edge">
<title>15&#45;&gt;8</title>
<g id="a_edge13"><a xlink:title="include">
<path fill="none" stroke="#1414ce" d="M369.58,-143.7C376.1,-135.39 384.05,-125.28 391.23,-116.14"/>
<polygon fill="#1414ce" stroke="#1414ce" points="394.12,-118.13 397.54,-108.1 388.61,-113.81 394.12,-118.13"/>
</a>
</g>
</g>
<!-- 1 -->
<g id="node10" class="node">
<title>1</title>
<g id="a_node10"><a xlink:title="/__w/AtomVM/AtomVM/src/libAtomVM/ets_hashtable.c">
<polygon fill="#bfbfbf" stroke="black" points="1572.98,-756 1168.98,-756 1168.98,-720 1572.98,-720 1572.98,-756"/>
<text text-anchor="middle" x="1370.98" y="-734.3" font-family="Times,serif" font-size="14.00">/__w/AtomVM/AtomVM/src/libAtomVM/ets_hashtable.c</text>
</a>
</g>
</g>
<!-- 1&#45;&gt;23 -->
<g id="edge17" class="edge">
<title>1&#45;&gt;23</title>
<g id="a_edge17"><a xlink:title="include">
<path fill="none" stroke="#1414ce" d="M1374.36,-719.78C1384.37,-664.4 1409.66,-487.04 1350.98,-360 1313.83,-279.57 1227.01,-217.05 1175.78,-185.53"/>
<polygon fill="#1414ce" stroke="#1414ce" points="1177.32,-182.38 1166.96,-180.2 1173.7,-188.37 1177.32,-182.38"/>
</a>
</g>
</g>
<!-- 1&#45;&gt;6 -->
<g id="edge18" class="edge">
<title>1&#45;&gt;6</title>
<g id="a_edge18"><a xlink:title="include">
<path fill="none" stroke="#1414ce" d="M1387.47,-719.77C1409.82,-694.53 1446.98,-645.05 1446.98,-595 1446.98,-595 1446.98,-595 1446.98,-233 1446.98,-161.81 1360.08,-121.78 1304.44,-103.45"/>
<polygon fill="#1414ce" stroke="#1414ce" points="1305.37,-100.08 1294.78,-100.38 1303.25,-106.75 1305.37,-100.08"/>
</a>
</g>
</g>
<!-- 2 -->
<g id="node11" class="node">
<title>2</title>
<g id="a_node11"><a xlink:title="ets_hashtable.h">
<polygon fill="#ffffff" stroke="black" points="1321.98,-684 1193.98,-684 1193.98,-648 1321.98,-648 1321.98,-684"/>
<text text-anchor="middle" x="1257.98" y="-662.3" font-family="Times,serif" font-size="14.00">ets_hashtable.h</text>
</a>
</g>
</g>
<!-- 1&#45;&gt;2 -->
<g id="edge14" class="edge">
<title>1&#45;&gt;2</title>
<g id="a_edge14"><a xlink:title="include">
<path fill="none" stroke="#1414ce" d="M1343.34,-719.88C1328.56,-710.72 1310.19,-699.34 1294.28,-689.48"/>
<polygon fill="#1414ce" stroke="#1414ce" points="1296.07,-686.48 1285.73,-684.19 1292.39,-692.43 1296.07,-686.48"/>
</a>
</g>
</g>
<!-- 19 -->
<g id="node14" class="node">
<title>19</title>
<g id="a_node14"><a xlink:title="term.h">
<polygon fill="#ffffff" stroke="black" points="1062.48,-468 997.48,-468 997.48,-432 1062.48,-432 1062.48,-468"/>
<text text-anchor="middle" x="1029.98" y="-446.3" font-family="Times,serif" font-size="14.00">term.h</text>
</a>
</g>
</g>
<!-- 1&#45;&gt;19 -->
<g id="edge16" class="edge">
<title>1&#45;&gt;19</title>
<g id="a_edge16"><a xlink:title="include">
<path fill="none" stroke="#1414ce" d="M1262.76,-719.9C1235.62,-712.06 1207.76,-700.63 1184.98,-684 1109.88,-629.17 1060.44,-526.09 1040.27,-477.56"/>
<polygon fill="#1414ce" stroke="#1414ce" points="1043.42,-476.01 1036.41,-468.06 1036.93,-478.65 1043.42,-476.01"/>
</a>
</g>
</g>
<!-- 21 -->
<g id="node20" class="node">
<title>21</title>
<g id="a_node20"><a xlink:title="string.h">
<polygon fill="#ffffff" stroke="black" points="1342.48,-396 1269.48,-396 1269.48,-360 1342.48,-360 1342.48,-396"/>
<text text-anchor="middle" x="1305.98" y="-374.3" font-family="Times,serif" font-size="14.00">string.h</text>
</a>
</g>
</g>
<!-- 1&#45;&gt;21 -->
<g id="edge19" class="edge">
<title>1&#45;&gt;21</title>
<g id="a_edge19"><a xlink:title="include">
<path fill="none" stroke="#1414ce" d="M1367.85,-719.73C1357.4,-662.19 1323.71,-476.66 1310.95,-406.35"/>
<polygon fill="#1414ce" stroke="#1414ce" points="1314.31,-405.31 1309.08,-396.09 1307.43,-406.56 1314.31,-405.31"/>
</a>
</g>
</g>
<!-- 1&#45;&gt;18 -->
<g id="edge15" class="edge">
<title>1&#45;&gt;18</title>
<g id="a_edge15"><a xlink:title="include">
<path fill="none" stroke="#1414ce" d="M1168.83,-736.45C787.74,-732.72 0.98,-710.97 0.98,-595 0.98,-595 0.98,-595 0.98,-449 0.98,-346.8 63.75,-237.34 95.31,-188.76"/>
<polygon fill="#1414ce" stroke="#1414ce" points="98.41,-190.42 100.99,-180.14 92.56,-186.56 98.41,-190.42"/>
</a>
</g>
</g>
<!-- 29 -->
<g id="node26" class="node">
<title>29</title>
<g id="a_node26"><a xlink:title="trace.h">
<polygon fill="#ffffff" stroke="black" points="1542.48,-684 1475.48,-684 1475.48,-648 1542.48,-648 1542.48,-684"/>
<text text-anchor="middle" x="1508.98" y="-662.3" font-family="Times,serif" font-size="14.00">trace.h</text>
</a>
</g>
</g>
<!-- 1&#45;&gt;29 -->
<g id="edge20" class="edge">
<title>1&#45;&gt;29</title>
<g id="a_edge20"><a xlink:title="include">
<path fill="none" stroke="#1414ce" d="M1404.74,-719.88C1423.2,-710.51 1446.26,-698.81 1466,-688.8"/>
<polygon fill="#1414ce" stroke="#1414ce" points="1467.76,-691.83 1475.09,-684.19 1464.59,-685.59 1467.76,-691.83"/>
</a>
</g>
</g>
<!-- 2&#45;&gt;6 -->
<g id="edge23" class="edge">
<title>2&#45;&gt;6</title>
<g id="a_edge23"><a xlink:title="include">
<path fill="none" stroke="#1414ce" d="M1270.07,-647.87C1299.22,-604.86 1370.98,-487.91 1370.98,-379 1370.98,-379 1370.98,-379 1370.98,-233 1370.98,-182.35 1326.5,-139.14 1293.6,-114.11"/>
<polygon fill="#1414ce" stroke="#1414ce" points="1295.65,-111.27 1285.52,-108.15 1291.49,-116.9 1295.65,-111.27"/>
</a>
</g>
</g>
<!-- 2&#45;&gt;19 -->
<g id="edge22" class="edge">
<title>2&#45;&gt;19</title>
<g id="a_edge22"><a xlink:title="include">
<path fill="none" stroke="#1414ce" d="M1249.26,-647.8C1232.29,-615.78 1191.98,-546.43 1140.98,-504 1120.67,-487.11 1094.08,-474.16 1072.01,-465.3"/>
<polygon fill="#1414ce" stroke="#1414ce" points="1073.13,-461.98 1062.54,-461.63 1070.6,-468.51 1073.13,-461.98"/>
</a>
</g>
</g>
<!-- 3 -->
<g id="node22" class="node">
<title>3</title>
<g id="a_node22"><a xlink:title="globalcontext.h">
<polygon fill="#ffffff" stroke="black" points="466.48,-612 339.48,-612 339.48,-576 466.48,-576 466.48,-612"/>
<text text-anchor="middle" x="402.98" y="-590.3" font-family="Times,serif" font-size="14.00">globalcontext.h</text>
</a>
</g>
</g>
<!-- 2&#45;&gt;3 -->
<g id="edge21" class="edge">
<title>2&#45;&gt;3</title>
<g id="a_edge21"><a xlink:title="include">
<path fill="none" stroke="#1414ce" d="M1193.72,-659.74C1038.04,-646.99 641.43,-614.52 476.58,-601.03"/>
<polygon fill="#1414ce" stroke="#1414ce" points="476.79,-597.53 466.53,-600.2 476.21,-604.51 476.79,-597.53"/>
</a>
</g>
</g>
<!-- 22 -->
<g id="node12" class="node">
<title>22</title>
<g id="a_node12"><a xlink:title="memory.h">
<polygon fill="#ffffff" stroke="black" points="1060.98,-252 974.98,-252 974.98,-216 1060.98,-216 1060.98,-252"/>
<text text-anchor="middle" x="1017.98" y="-230.3" font-family="Times,serif" font-size="14.00">memory.h</text>
</a>
</g>
</g>
<!-- 22&#45;&gt;23 -->
<g id="edge28" class="edge">
<title>22&#45;&gt;23</title>
<g id="a_edge28"><a xlink:title="include">
<path fill="none" stroke="#1414ce" d="M1046.85,-215.88C1062.28,-206.72 1081.46,-195.34 1098.08,-185.48"/>
<polygon fill="#1414ce" stroke="#1414ce" points="1100.19,-188.3 1107,-180.19 1096.62,-182.28 1100.19,-188.3"/>
</a>
</g>
</g>
<!-- 22&#45;&gt;4 -->
<g id="edge24" class="edge">
<title>22&#45;&gt;4</title>
<g id="a_edge24"><a xlink:title="include">
<path fill="none" stroke="#1414ce" d="M1014.04,-215.85C1009.02,-196.81 998.91,-165.89 981.98,-144 942.79,-93.32 876.86,-57.31 832.65,-37.34"/>
<polygon fill="#1414ce" stroke="#1414ce" points="833.85,-34.04 823.28,-33.2 831.02,-40.44 833.85,-34.04"/>
</a>
</g>
</g>
<!-- 22&#45;&gt;6 -->
<g id="edge25" class="edge">
<title>22&#45;&gt;6</title>
<g id="a_edge25"><a xlink:title="include">
<path fill="none" stroke="#1414ce" d="M1061.06,-219.75C1104.35,-206.24 1166.04,-186.4 1175.98,-180 1202.25,-163.09 1225.87,-136.02 1241.13,-116.17"/>
<polygon fill="#1414ce" stroke="#1414ce" points="1243.94,-118.25 1247.14,-108.15 1238.34,-114.05 1243.94,-118.25"/>
</a>
</g>
</g>
<!-- 9 -->
<g id="node16" class="node">
<title>9</title>
<g id="a_node16"><a xlink:title="erl_nif.h">
<polygon fill="#ffffff" stroke="black" points="972.98,-180 898.98,-180 898.98,-144 972.98,-144 972.98,-180"/>
<text text-anchor="middle" x="935.98" y="-158.3" font-family="Times,serif" font-size="14.00">erl_nif.h</text>
</a>
</g>
</g>
<!-- 22&#45;&gt;9 -->
<g id="edge26" class="edge">
<title>22&#45;&gt;9</title>
<g id="a_edge26"><a xlink:title="include">
<path fill="none" stroke="#1414ce" d="M997.71,-215.7C987.48,-206.97 974.92,-196.24 963.8,-186.75"/>
<polygon fill="#1414ce" stroke="#1414ce" points="965.9,-183.94 956.02,-180.1 961.35,-189.26 965.9,-183.94"/>
</a>
</g>
</g>
<!-- 10 -->
<g id="node21" class="node">
<title>10</title>
<g id="a_node21"><a xlink:title="term_typedef.h">
<polygon fill="#ffffff" stroke="black" points="1101.48,-108 976.48,-108 976.48,-72 1101.48,-72 1101.48,-108"/>
<text text-anchor="middle" x="1038.98" y="-86.3" font-family="Times,serif" font-size="14.00">term_typedef.h</text>
</a>
</g>
</g>
<!-- 22&#45;&gt;10 -->
<g id="edge27" class="edge">
<title>22&#45;&gt;10</title>
<g id="a_edge27"><a xlink:title="include">
<path fill="none" stroke="#1414ce" d="M1020.51,-215.87C1024.09,-191.67 1030.67,-147.21 1034.93,-118.39"/>
<polygon fill="#1414ce" stroke="#1414ce" points="1038.44,-118.59 1036.44,-108.19 1031.51,-117.57 1038.44,-118.59"/>
</a>
</g>
</g>
<!-- 26&#45;&gt;16 -->
<g id="edge33" class="edge">
<title>26&#45;&gt;16</title>
<g id="a_edge33"><a xlink:title="include">
<path fill="none" stroke="#1414ce" d="M829.95,-298.94C721.44,-285.8 465.36,-254.79 354.57,-241.37"/>
<polygon fill="#1414ce" stroke="#1414ce" points="354.98,-237.89 344.63,-240.17 354.14,-244.84 354.98,-237.89"/>
</a>
</g>
</g>
<!-- 26&#45;&gt;15 -->
<g id="edge31" class="edge">
<title>26&#45;&gt;15</title>
<g id="a_edge31"><a xlink:title="include">
<path fill="none" stroke="#1414ce" d="M829.97,-296.32C813.44,-293.54 794.94,-290.53 777.98,-288 657.38,-269.97 617.61,-301.09 505.98,-252 483.16,-241.97 483.85,-229.63 462.98,-216 440.7,-201.45 413.87,-188.17 392.65,-178.54"/>
<polygon fill="#1414ce" stroke="#1414ce" points="393.89,-175.26 383.33,-174.38 391.03,-181.65 393.89,-175.26"/>
</a>
</g>
</g>
<!-- 26&#45;&gt;6 -->
<g id="edge29" class="edge">
<title>26&#45;&gt;6</title>
<g id="a_edge29"><a xlink:title="include">
<path fill="none" stroke="#1414ce" d="M930.16,-297.03C969.78,-289.35 1025.59,-275.37 1069.98,-252 1092.04,-240.39 1091.41,-228.48 1112.98,-216 1153.14,-192.76 1175.92,-210.39 1210.98,-180 1230.07,-163.45 1242.87,-137.38 1250.41,-117.73"/>
<polygon fill="#1414ce" stroke="#1414ce" points="1253.78,-118.71 1253.89,-108.12 1247.2,-116.33 1253.78,-118.71"/>
</a>
</g>
</g>
<!-- 26&#45;&gt;22 -->
<g id="edge32" class="edge">
<title>26&#45;&gt;22</title>
<g id="a_edge32"><a xlink:title="include">
<path fill="none" stroke="#1414ce" d="M913.74,-287.88C932.2,-278.51 955.26,-266.81 975,-256.8"/>
<polygon fill="#1414ce" stroke="#1414ce" points="976.76,-259.83 984.09,-252.19 973.59,-253.59 976.76,-259.83"/>
</a>
</g>
</g>
<!-- 26&#45;&gt;9 -->
<g id="edge30" class="edge">
<title>26&#45;&gt;9</title>
<g id="a_edge30"><a xlink:title="include">
<path fill="none" stroke="#1414ce" d="M897.78,-287.99C906.81,-278.31 917.08,-265.46 922.98,-252 931.54,-232.49 934.67,-208.49 935.72,-190.33"/>
<polygon fill="#1414ce" stroke="#1414ce" points="939.23,-190.27 936.14,-180.13 932.23,-189.98 939.23,-190.27"/>
</a>
</g>
</g>
<!-- 19&#45;&gt;8 -->
<g id="edge35" class="edge">
<title>19&#45;&gt;8</title>
<g id="a_edge35"><a xlink:title="include">
<path fill="none" stroke="#1414ce" d="M997.34,-445.23C907.78,-433.28 655,-388.6 505.98,-252 464.17,-213.68 435.18,-152.65 420.98,-117.78"/>
<polygon fill="#1414ce" stroke="#1414ce" points="424.15,-116.27 417.21,-108.26 417.64,-118.85 424.15,-116.27"/>
</a>
</g>
</g>
<!-- 19&#45;&gt;25 -->
<g id="edge41" class="edge">
<title>19&#45;&gt;25</title>
<g id="a_edge41"><a xlink:title="include">
<path fill="none" stroke="#1414ce" d="M997.32,-434.15C975.65,-424.31 946.88,-411.23 922.79,-400.28"/>
<polygon fill="#1414ce" stroke="#1414ce" points="924.02,-396.99 913.47,-396.04 921.12,-403.36 924.02,-396.99"/>
</a>
</g>
</g>
<!-- 19&#45;&gt;23 -->
<g id="edge42" class="edge">
<title>19&#45;&gt;23</title>
<g id="a_edge42"><a xlink:title="include">
<path fill="none" stroke="#1414ce" d="M1062.73,-448.1C1098.94,-445.15 1155.75,-434.24 1182.98,-396 1198.56,-374.12 1235.54,-368.71 1178.98,-216 1175.18,-205.73 1168.51,-195.96 1161.55,-187.68"/>
<polygon fill="#1414ce" stroke="#1414ce" points="1164.15,-185.33 1154.86,-180.22 1158.93,-190 1164.15,-185.33"/>
</a>
</g>
</g>
<!-- 19&#45;&gt;4 -->
<g id="edge36" class="edge">
<title>19&#45;&gt;4</title>
<g id="a_edge36"><a xlink:title="include">
<path fill="none" stroke="#1414ce" d="M1019.98,-431.77C995.78,-389.68 932.9,-277.88 889.98,-180 869.49,-133.26 880.33,-113.75 850.98,-72 843.19,-60.92 832.5,-50.84 822.09,-42.51"/>
<polygon fill="#1414ce" stroke="#1414ce" points="823.94,-39.51 813.87,-36.22 819.69,-45.08 823.94,-39.51"/>
</a>
</g>
</g>
<!-- 19&#45;&gt;6 -->
<g id="edge38" class="edge">
<title>19&#45;&gt;6</title>
<g id="a_edge38"><a xlink:title="include">
<path fill="none" stroke="#1414ce" d="M1062.75,-448.68C1102.99,-446.45 1170.59,-436.42 1208.98,-396 1282.38,-318.71 1271.98,-177.74 1263.63,-118.44"/>
<polygon fill="#1414ce" stroke="#1414ce" points="1267.06,-117.72 1262.12,-108.35 1260.14,-118.76 1267.06,-117.72"/>
</a>
</g>
</g>
<!-- 19&#45;&gt;22 -->
<g id="edge40" class="edge">
<title>19&#45;&gt;22</title>
<g id="a_edge40"><a xlink:title="include">
<path fill="none" stroke="#1414ce" d="M1029.02,-431.85C1026.94,-394.83 1022.03,-307.18 1019.52,-262.39"/>
<polygon fill="#1414ce" stroke="#1414ce" points="1023,-262.02 1018.95,-252.23 1016.01,-262.41 1023,-262.02"/>
</a>
</g>
</g>
<!-- 20 -->
<g id="node19" class="node">
<title>20</title>
<g id="a_node19"><a xlink:title="sys/types.h">
<polygon fill="#ffffff" stroke="black" points="1174.48,-396 1077.48,-396 1077.48,-360 1174.48,-360 1174.48,-396"/>
<text text-anchor="middle" x="1125.98" y="-374.3" font-family="Times,serif" font-size="14.00">sys/types.h</text>
</a>
</g>
</g>
<!-- 19&#45;&gt;20 -->
<g id="edge34" class="edge">
<title>19&#45;&gt;20</title>
<g id="a_edge34"><a xlink:title="include">
<path fill="none" stroke="#1414ce" d="M1053.71,-431.7C1065.92,-422.8 1080.97,-411.82 1094.16,-402.2"/>
<polygon fill="#1414ce" stroke="#1414ce" points="1096.51,-404.82 1102.52,-396.1 1092.38,-399.17 1096.51,-404.82"/>
</a>
</g>
</g>
<!-- 19&#45;&gt;21 -->
<g id="edge39" class="edge">
<title>19&#45;&gt;21</title>
<g id="a_edge39"><a xlink:title="include">
<path fill="none" stroke="#1414ce" d="M1062.63,-442.28C1106.62,-433 1187.23,-415.23 1254.98,-396 1256.44,-395.59 1257.92,-395.16 1259.41,-394.71"/>
<polygon fill="#1414ce" stroke="#1414ce" points="1260.81,-397.95 1269.33,-391.66 1258.75,-391.26 1260.81,-397.95"/>
</a>
</g>
</g>
<!-- 19&#45;&gt;10 -->
<g id="edge43" class="edge">
<title>19&#45;&gt;10</title>
<g id="a_edge43"><a xlink:title="include">
<path fill="none" stroke="#1414ce" d="M1036.42,-431.84C1050.07,-393.38 1079.91,-297.28 1069.98,-216 1065.78,-181.63 1055.32,-143.09 1047.71,-118.01"/>
<polygon fill="#1414ce" stroke="#1414ce" points="1050.95,-116.66 1044.64,-108.14 1044.26,-118.73 1050.95,-116.66"/>
</a>
</g>
</g>
<!-- 19&#45;&gt;17 -->
<g id="edge37" class="edge">
<title>19&#45;&gt;17</title>
<g id="a_edge37"><a xlink:title="include">
<path fill="none" stroke="#1414ce" d="M997.41,-445.86C942.61,-439.84 835.69,-424.64 812.98,-396 808.71,-390.61 809.39,-192.95 809.81,-118.76"/>
<polygon fill="#1414ce" stroke="#1414ce" points="813.31,-118.37 809.87,-108.35 806.31,-118.33 813.31,-118.37"/>
</a>
</g>
</g>
<!-- 9&#45;&gt;10 -->
<g id="edge44" class="edge">
<title>9&#45;&gt;10</title>
<g id="a_edge44"><a xlink:title="include">
<path fill="none" stroke="#1414ce" d="M961.18,-143.88C974.4,-134.89 990.77,-123.76 1005.09,-114.03"/>
<polygon fill="#1414ce" stroke="#1414ce" points="1007.38,-116.71 1013.69,-108.19 1003.45,-110.92 1007.38,-116.71"/>
</a>
</g>
</g>
<!-- 12 -->
<g id="node17" class="node">
<title>12</title>
<g id="a_node17"><a xlink:title="limits.h">
<polygon fill="#ffffff" stroke="black" points="1165.48,-36 1094.48,-36 1094.48,0 1165.48,0 1165.48,-36"/>
<text text-anchor="middle" x="1129.98" y="-14.3" font-family="Times,serif" font-size="14.00">limits.h</text>
</a>
</g>
</g>
<!-- 7 -->
<g id="node18" class="node">
<title>7</title>
<g id="a_node18"><a xlink:title="atom_table.h">
<polygon fill="#ffffff" stroke="black" points="624.48,-252 515.48,-252 515.48,-216 624.48,-216 624.48,-252"/>
<text text-anchor="middle" x="569.98" y="-230.3" font-family="Times,serif" font-size="14.00">atom_table.h</text>
</a>
</g>
</g>
<!-- 7&#45;&gt;8 -->
<g id="edge45" class="edge">
<title>7&#45;&gt;8</title>
<g id="a_edge45"><a xlink:title="include">
<path fill="none" stroke="#1414ce" d="M550.8,-215.87C522.63,-190.71 469.94,-143.65 437.9,-115.04"/>
<polygon fill="#1414ce" stroke="#1414ce" points="440.02,-112.24 430.23,-108.19 435.35,-117.46 440.02,-112.24"/>
</a>
</g>
</g>
<!-- 7&#45;&gt;5 -->
<g id="edge46" class="edge">
<title>7&#45;&gt;5</title>
<g id="a_edge46"><a xlink:title="include">
<path fill="none" stroke="#1414ce" d="M610.1,-215.88C634.82,-205.32 666.48,-191.81 691.61,-181.08"/>
<polygon fill="#1414ce" stroke="#1414ce" points="693.07,-184.27 700.89,-177.12 690.32,-177.83 693.07,-184.27"/>
</a>
</g>
</g>
<!-- 10&#45;&gt;11 -->
<g id="edge47" class="edge">
<title>10&#45;&gt;11</title>
<g id="a_edge47"><a xlink:title="include">
<path fill="none" stroke="#1414ce" d="M1038.98,-71.7C1038.98,-63.98 1038.98,-54.71 1038.98,-46.11"/>
<polygon fill="#1414ce" stroke="#1414ce" points="1042.48,-46.1 1038.98,-36.1 1035.48,-46.1 1042.48,-46.1"/>
</a>
</g>
</g>
<!-- 10&#45;&gt;4 -->
<g id="edge50" class="edge">
<title>10&#45;&gt;4</title>
<g id="a_edge50"><a xlink:title="include">
<path fill="none" stroke="#1414ce" d="M977.66,-71.97C933.07,-59.58 873.65,-43.08 833.07,-31.8"/>
<polygon fill="#1414ce" stroke="#1414ce" points="833.75,-28.36 823.18,-29.05 831.87,-35.1 833.75,-28.36"/>
</a>
</g>
</g>
<!-- 10&#45;&gt;12 -->
<g id="edge48" class="edge">
<title>10&#45;&gt;12</title>
<g id="a_edge48"><a xlink:title="include">
<path fill="none" stroke="#1414ce" d="M1061.47,-71.7C1072.94,-62.88 1087.04,-52.03 1099.46,-42.47"/>
<polygon fill="#1414ce" stroke="#1414ce" points="1101.95,-44.98 1107.74,-36.1 1097.68,-39.43 1101.95,-44.98"/>
</a>
</g>
</g>
<!-- 13 -->
<g id="node29" class="node">
<title>13</title>
<g id="a_node29"><a xlink:title="inttypes.h">
<polygon fill="#ffffff" stroke="black" points="983.48,-36 894.48,-36 894.48,0 983.48,0 983.48,-36"/>
<text text-anchor="middle" x="938.98" y="-14.3" font-family="Times,serif" font-size="14.00">inttypes.h</text>
</a>
</g>
</g>
<!-- 10&#45;&gt;13 -->
<g id="edge49" class="edge">
<title>10&#45;&gt;13</title>
<g id="a_edge49"><a xlink:title="include">
<path fill="none" stroke="#1414ce" d="M1014.52,-71.88C1001.68,-62.89 985.78,-51.76 971.89,-42.03"/>
<polygon fill="#1414ce" stroke="#1414ce" points="973.74,-39.06 963.54,-36.19 969.72,-44.79 973.74,-39.06"/>
</a>
</g>
</g>
<!-- 3&#45;&gt;5 -->
<g id="edge52" class="edge">
<title>3&#45;&gt;5</title>
<g id="a_edge52"><a xlink:title="include">
<path fill="none" stroke="#1414ce" d="M466.66,-578.75C493.85,-570.52 524.81,-558.11 548.98,-540 628.37,-480.51 618.82,-437.32 680.98,-360 721.03,-310.18 753.42,-311.81 775.98,-252 781.63,-237.03 781.24,-231.11 775.98,-216 772.45,-205.86 766.08,-196.19 759.34,-187.96"/>
<polygon fill="#1414ce" stroke="#1414ce" points="761.81,-185.46 752.58,-180.24 756.54,-190.07 761.81,-185.46"/>
</a>
</g>
</g>
<!-- 3&#45;&gt;16 -->
<g id="edge59" class="edge">
<title>3&#45;&gt;16</title>
<g id="a_edge59"><a xlink:title="include">
<path fill="none" stroke="#1414ce" d="M376.82,-575.95C363.88,-566.53 348.77,-553.93 337.98,-540 311.31,-505.57 296.98,-494.55 296.98,-451 296.98,-451 296.98,-451 296.98,-377 296.98,-336.97 298.99,-290.63 300.46,-262.07"/>
<polygon fill="#1414ce" stroke="#1414ce" points="303.96,-262.21 300.99,-252.04 296.97,-261.84 303.96,-262.21"/>
</a>
</g>
</g>
<!-- 3&#45;&gt;15 -->
<g id="edge56" class="edge">
<title>3&#45;&gt;15</title>
<g id="a_edge56"><a xlink:title="include">
<path fill="none" stroke="#1414ce" d="M352.77,-575.96C302,-555.17 230.98,-514.7 230.98,-451 230.98,-451 230.98,-451 230.98,-305 230.98,-264.55 225.22,-247.98 249.98,-216 267.06,-193.93 295.8,-180.37 319.04,-172.5"/>
<polygon fill="#1414ce" stroke="#1414ce" points="320.14,-175.82 328.62,-169.46 318.03,-169.15 320.14,-175.82"/>
</a>
</g>
</g>
<!-- 3&#45;&gt;4 -->
<g id="edge51" class="edge">
<title>3&#45;&gt;4</title>
<g id="a_edge51"><a xlink:title="include">
<path fill="none" stroke="#1414ce" d="M339.15,-589.98C258.77,-584.89 126.83,-571.83 90.98,-540 -14.71,-446.16 0.98,-376.33 0.98,-235 0.98,-235 0.98,-235 0.98,-161 0.98,-85.32 572.55,-35.45 740.87,-22.41"/>
<polygon fill="#1414ce" stroke="#1414ce" points="741.2,-25.89 750.91,-21.64 740.67,-18.91 741.2,-25.89"/>
</a>
</g>
</g>
<!-- 3&#45;&gt;19 -->
<g id="edge60" class="edge">
<title>3&#45;&gt;19</title>
<g id="a_edge60"><a xlink:title="include">
<path fill="none" stroke="#1414ce" d="M466.64,-583.85C528.78,-574.48 625.86,-558.67 708.98,-540 810,-517.31 926.72,-482.82 987.77,-464.14"/>
<polygon fill="#1414ce" stroke="#1414ce" points="988.91,-467.46 997.44,-461.17 986.85,-460.76 988.91,-467.46"/>
</a>
</g>
</g>
<!-- 3&#45;&gt;9 -->
<g id="edge54" class="edge">
<title>3&#45;&gt;9</title>
<g id="a_edge54"><a xlink:title="include">
<path fill="none" stroke="#1414ce" d="M466.78,-582.82C502.83,-575.02 547.62,-561.79 582.98,-540 593.26,-533.66 836.48,-270.73 913.09,-187.79"/>
<polygon fill="#1414ce" stroke="#1414ce" points="915.76,-190.06 919.97,-180.34 910.62,-185.31 915.76,-190.06"/>
</a>
</g>
</g>
<!-- 3&#45;&gt;7 -->
<g id="edge53" class="edge">
<title>3&#45;&gt;7</title>
<g id="a_edge53"><a xlink:title="include">
<path fill="none" stroke="#1414ce" d="M409.05,-575.76C417.82,-549.28 432.98,-496.86 432.98,-451 432.98,-451 432.98,-451 432.98,-377 432.98,-322.54 485.81,-280.96 525.86,-257.26"/>
<polygon fill="#1414ce" stroke="#1414ce" points="527.77,-260.21 534.7,-252.19 524.28,-254.13 527.77,-260.21"/>
</a>
</g>
</g>
<!-- 3&#45;&gt;18 -->
<g id="edge58" class="edge">
<title>3&#45;&gt;18</title>
<g id="a_edge58"><a xlink:title="include">
<path fill="none" stroke="#1414ce" d="M339.35,-592.54C244.48,-588.12 76.98,-564.28 76.98,-451 76.98,-451 76.98,-451 76.98,-305 76.98,-263.78 91.41,-217.83 102,-189.66"/>
<polygon fill="#1414ce" stroke="#1414ce" points="105.35,-190.72 105.7,-180.13 98.82,-188.19 105.35,-190.72"/>
</a>
</g>
</g>
<!-- 28 -->
<g id="node24" class="node">
<title>28</title>
<g id="a_node24"><a xlink:title="timer_list.h">
<polygon fill="#ffffff" stroke="black" points="202.98,-252 104.98,-252 104.98,-216 202.98,-216 202.98,-252"/>
<text text-anchor="middle" x="153.98" y="-230.3" font-family="Times,serif" font-size="14.00">timer_list.h</text>
</a>
</g>
</g>
<!-- 3&#45;&gt;28 -->
<g id="edge61" class="edge">
<title>3&#45;&gt;28</title>
<g id="a_edge61"><a xlink:title="include">
<path fill="none" stroke="#1414ce" d="M339.19,-587.85C300.15,-581.77 251.29,-568.58 216.98,-540 183.08,-511.76 172.98,-495.13 172.98,-451 172.98,-451 172.98,-451 172.98,-377 172.98,-336.86 165.43,-290.9 159.85,-262.4"/>
<polygon fill="#1414ce" stroke="#1414ce" points="163.24,-261.5 157.83,-252.39 156.37,-262.88 163.24,-261.5"/>
</a>
</g>
</g>
<!-- 27 -->
<g id="node25" class="node">
<title>27</title>
<g id="a_node25"><a xlink:title="mailbox.h">
<polygon fill="#ffffff" stroke="black" points="766.98,-252 680.98,-252 680.98,-216 766.98,-216 766.98,-252"/>
<text text-anchor="middle" x="723.98" y="-230.3" font-family="Times,serif" font-size="14.00">mailbox.h</text>
</a>
</g>
</g>
<!-- 3&#45;&gt;27 -->
<g id="edge57" class="edge">
<title>3&#45;&gt;27</title>
<g id="a_edge57"><a xlink:title="include">
<path fill="none" stroke="#1414ce" d="M451.86,-575.9C501.77,-554.94 571.98,-514.23 571.98,-451 571.98,-451 571.98,-451 571.98,-377 571.98,-334.81 576.12,-318.77 604.98,-288 622.65,-269.16 648.23,-256.59 671.15,-248.43"/>
<polygon fill="#1414ce" stroke="#1414ce" points="672.41,-251.7 680.78,-245.2 670.19,-245.06 672.41,-251.7"/>
</a>
</g>
</g>
<!-- 14 -->
<g id="node28" class="node">
<title>14</title>
<g id="a_node28"><a xlink:title="ets.h">
<polygon fill="#ffffff" stroke="black" points="400.98,-540 346.98,-540 346.98,-504 400.98,-504 400.98,-540"/>
<text text-anchor="middle" x="373.98" y="-518.3" font-family="Times,serif" font-size="14.00">ets.h</text>
</a>
</g>
</g>
<!-- 3&#45;&gt;14 -->
<g id="edge55" class="edge">
<title>3&#45;&gt;14</title>
<g id="a_edge55"><a xlink:title="include">
<path fill="none" stroke="#1414ce" d="M395.81,-575.7C392.55,-567.81 388.61,-558.3 384.98,-549.55"/>
<polygon fill="#1414ce" stroke="#1414ce" points="388.13,-548 381.07,-540.1 381.66,-550.68 388.13,-548"/>
</a>
</g>
</g>
<!-- 18&#45;&gt;8 -->
<g id="edge62" class="edge">
<title>18&#45;&gt;8</title>
<g id="a_edge62"><a xlink:title="include">
<path fill="none" stroke="#1414ce" d="M143.19,-153.9C193.93,-141.98 296.83,-117.81 359.25,-103.15"/>
<polygon fill="#1414ce" stroke="#1414ce" points="360.35,-106.49 369.29,-100.79 358.75,-99.67 360.35,-106.49"/>
</a>
</g>
</g>
<!-- 28&#45;&gt;8 -->
<g id="edge63" class="edge">
<title>28&#45;&gt;8</title>
<g id="a_edge63"><a xlink:title="include">
<path fill="none" stroke="#1414ce" d="M184.98,-215.87C231.58,-190.12 319.68,-141.45 371.03,-113.07"/>
<polygon fill="#1414ce" stroke="#1414ce" points="372.81,-116.09 379.87,-108.19 369.42,-109.96 372.81,-116.09"/>
</a>
</g>
</g>
<!-- 28&#45;&gt;15 -->
<g id="edge65" class="edge">
<title>28&#45;&gt;15</title>
<g id="a_edge65"><a xlink:title="include">
<path fill="none" stroke="#1414ce" d="M203.14,-215.97C238.91,-203.57 286.58,-187.05 319.12,-175.77"/>
<polygon fill="#1414ce" stroke="#1414ce" points="320.4,-179.04 328.7,-172.45 318.1,-172.42 320.4,-179.04"/>
</a>
</g>
</g>
<!-- 28&#45;&gt;4 -->
<g id="edge64" class="edge">
<title>28&#45;&gt;4</title>
<g id="a_edge64"><a xlink:title="include">
<path fill="none" stroke="#1414ce" d="M168.6,-215.87C199.63,-180.97 276.12,-102.37 359.98,-72 492.07,-24.17 660.52,-18.01 740.63,-18.11"/>
<polygon fill="#1414ce" stroke="#1414ce" points="740.85,-21.61 750.87,-18.16 740.89,-14.61 740.85,-21.61"/>
</a>
</g>
</g>
<!-- 27&#45;&gt;8 -->
<g id="edge66" class="edge">
<title>27&#45;&gt;8</title>
<g id="a_edge66"><a xlink:title="include">
<path fill="none" stroke="#1414ce" d="M714.22,-215.64C701.79,-195.21 678.36,-161.8 648.98,-144 591.4,-109.11 513.51,-97.11 462.76,-93.03"/>
<polygon fill="#1414ce" stroke="#1414ce" points="462.9,-89.53 452.68,-92.3 462.39,-96.52 462.9,-89.53"/>
</a>
</g>
</g>
<!-- 27&#45;&gt;23 -->
<g id="edge69" class="edge">
<title>27&#45;&gt;23</title>
<g id="a_edge69"><a xlink:title="include">
<path fill="none" stroke="#1414ce" d="M767.29,-225.64C847.17,-212.07 1016.66,-183.27 1094.86,-169.99"/>
<polygon fill="#1414ce" stroke="#1414ce" points="1095.56,-173.42 1104.83,-168.29 1094.38,-166.52 1095.56,-173.42"/>
</a>
</g>
</g>
<!-- 27&#45;&gt;15 -->
<g id="edge67" class="edge">
<title>27&#45;&gt;15</title>
<g id="a_edge67"><a xlink:title="include">
<path fill="none" stroke="#1414ce" d="M680.68,-224.76C607.67,-210.88 461.35,-183.04 392.89,-170.02"/>
<polygon fill="#1414ce" stroke="#1414ce" points="393.46,-166.57 382.98,-168.14 392.15,-173.44 393.46,-166.57"/>
</a>
</g>
</g>
<!-- 27&#45;&gt;10 -->
<g id="edge68" class="edge">
<title>27&#45;&gt;10</title>
<g id="a_edge68"><a xlink:title="include">
<path fill="none" stroke="#1414ce" d="M752.7,-215.89C785.28,-196.88 840.35,-165.98 889.98,-144 917.37,-131.87 948.48,-120.45 975.16,-111.34"/>
<polygon fill="#1414ce" stroke="#1414ce" points="976.42,-114.61 984.77,-108.09 974.18,-107.98 976.42,-114.61"/>
</a>
</g>
</g>
<!-- 14&#45;&gt;16 -->
<g id="edge71" class="edge">
<title>14&#45;&gt;16</title>
<g id="a_edge71"><a xlink:title="include">
<path fill="none" stroke="#1414ce" d="M368.96,-503.86C365.97,-493.5 362.15,-480.02 358.98,-468 339.36,-393.6 318.37,-305.22 308.21,-261.8"/>
<polygon fill="#1414ce" stroke="#1414ce" points="311.6,-260.95 305.92,-252.01 304.79,-262.54 311.6,-260.95"/>
</a>
</g>
</g>
<!-- 14&#45;&gt;15 -->
<g id="edge70" class="edge">
<title>14&#45;&gt;15</title>
<g id="a_edge70"><a xlink:title="include">
<path fill="none" stroke="#1414ce" d="M373.78,-503.95C373.49,-477.29 372.98,-424.12 372.98,-379 372.98,-379 372.98,-379 372.98,-305 372.98,-264.93 366.22,-218.95 361.23,-190.43"/>
<polygon fill="#1414ce" stroke="#1414ce" points="364.64,-189.63 359.42,-180.41 357.75,-190.87 364.64,-189.63"/>
</a>
</g>
</g>
<!-- 14&#45;&gt;19 -->
<g id="edge72" class="edge">
<title>14&#45;&gt;19</title>
<g id="a_edge72"><a xlink:title="include">
<path fill="none" stroke="#1414ce" d="M401.33,-518.08C503.36,-507.19 862.22,-468.9 986.91,-455.6"/>
<polygon fill="#1414ce" stroke="#1414ce" points="987.63,-459.04 997.2,-454.5 986.88,-452.08 987.63,-459.04"/>
</a>
</g>
</g>
</g>
</svg>
