<?xml version="1.0" encoding="UTF-8" standalone="no"?>
<!DOCTYPE svg PUBLIC "-//W3C//DTD SVG 1.1//EN"
 "http://www.w3.org/Graphics/SVG/1.1/DTD/svg11.dtd">
<!-- Generated by graphviz version 2.43.0 (0)
 -->
<!-- Title: %3 Pages: 1 -->
<svg width="1460pt" height="692pt"
 viewBox="0.00 0.00 1459.50 692.00" xmlns="http://www.w3.org/2000/svg" xmlns:xlink="http://www.w3.org/1999/xlink">
<g id="graph0" class="graph" transform="scale(1 1) rotate(0) translate(4 688)">
<title>%3</title>
<polygon fill="transparent" stroke="transparent" points="-4,4 -4,-688 1455.5,-688 1455.5,4 -4,4"/>
<!-- 7 -->
<g id="node1" class="node">
<title>7</title>
<g id="a_node1"><a xlink:title="stdbool.h">
<polygon fill="#ffffff" stroke="black" points="886,-108 803,-108 803,-72 886,-72 886,-108"/>
<text text-anchor="middle" x="844.5" y="-86.3" font-family="Times,serif" font-size="14.00">stdbool.h</text>
</a>
</g>
</g>
<!-- 24 -->
<g id="node2" class="node">
<title>24</title>
<g id="a_node2"><a xlink:title="refc_binary.h">
<polygon fill="#ffffff" stroke="black" points="591.5,-396 483.5,-396 483.5,-360 591.5,-360 591.5,-396"/>
<text text-anchor="middle" x="537.5" y="-374.3" font-family="Times,serif" font-size="14.00">refc_binary.h</text>
</a>
</g>
</g>
<!-- 24&#45;&gt;7 -->
<g id="edge1" class="edge">
<title>24&#45;&gt;7</title>
<g id="a_edge1"><a xlink:title="include">
<path fill="none" stroke="#1414ce" d="M536.59,-359.99C535.3,-317 538.25,-203.2 600.5,-144 627.65,-118.18 729.4,-103.06 792.62,-95.97"/>
<polygon fill="#1414ce" stroke="#1414ce" points="793.24,-99.42 802.8,-94.86 792.48,-92.46 793.24,-99.42"/>
</a>
</g>
</g>
<!-- 14 -->
<g id="node7" class="node">
<title>14</title>
<g id="a_node7"><a xlink:title="list.h">
<polygon fill="#ffffff" stroke="black" points="1063.5,-180 1009.5,-180 1009.5,-144 1063.5,-144 1063.5,-180"/>
<text text-anchor="middle" x="1036.5" y="-158.3" font-family="Times,serif" font-size="14.00">list.h</text>
</a>
</g>
</g>
<!-- 24&#45;&gt;14 -->
<g id="edge3" class="edge">
<title>24&#45;&gt;14</title>
<g id="a_edge3"><a xlink:title="include">
<path fill="none" stroke="#1414ce" d="M591.65,-368.57C672.67,-354.19 828.24,-319.7 943.5,-252 958.82,-243 990.99,-210.84 1013.17,-187.76"/>
<polygon fill="#1414ce" stroke="#1414ce" points="1015.89,-189.98 1020.27,-180.33 1010.83,-185.15 1015.89,-189.98"/>
</a>
</g>
</g>
<!-- 5 -->
<g id="node9" class="node">
<title>5</title>
<g id="a_node9"><a xlink:title="stdlib.h">
<polygon fill="#ffffff" stroke="black" points="426,-108 355,-108 355,-72 426,-72 426,-108"/>
<text text-anchor="middle" x="390.5" y="-86.3" font-family="Times,serif" font-size="14.00">stdlib.h</text>
</a>
</g>
</g>
<!-- 24&#45;&gt;5 -->
<g id="edge2" class="edge">
<title>24&#45;&gt;5</title>
<g id="a_edge2"><a xlink:title="include">
<path fill="none" stroke="#1414ce" d="M483.18,-361.43C451.59,-351.2 416.15,-337.31 406.5,-324 361.67,-262.18 374.14,-165.22 383.87,-118.28"/>
<polygon fill="#1414ce" stroke="#1414ce" points="387.34,-118.77 386.06,-108.26 380.5,-117.28 387.34,-118.77"/>
</a>
</g>
</g>
<!-- 25 -->
<g id="node12" class="node">
<title>25</title>
<g id="a_node12"><a xlink:title="resources.h">
<polygon fill="#ffffff" stroke="black" points="515.5,-324 415.5,-324 415.5,-288 515.5,-288 515.5,-324"/>
<text text-anchor="middle" x="465.5" y="-302.3" font-family="Times,serif" font-size="14.00">resources.h</text>
</a>
</g>
</g>
<!-- 24&#45;&gt;25 -->
<g id="edge4" class="edge">
<title>24&#45;&gt;25</title>
<g id="a_edge4"><a xlink:title="include">
<path fill="none" stroke="#1414ce" d="M519.7,-359.7C510.9,-351.14 500.12,-340.66 490.5,-331.3"/>
<polygon fill="#1414ce" stroke="#1414ce" points="492.7,-328.57 483.09,-324.1 487.82,-333.58 492.7,-328.57"/>
</a>
</g>
</g>
<!-- 4 -->
<g id="node3" class="node">
<title>4</title>
<g id="a_node3"><a xlink:title="atom.h">
<polygon fill="#ffffff" stroke="black" points="675.5,-180 609.5,-180 609.5,-144 675.5,-144 675.5,-180"/>
<text text-anchor="middle" x="642.5" y="-158.3" font-family="Times,serif" font-size="14.00">atom.h</text>
</a>
</g>
</g>
<!-- 3 -->
<g id="node8" class="node">
<title>3</title>
<g id="a_node8"><a xlink:title="stdint.h">
<polygon fill="#ffffff" stroke="black" points="519.5,-36 447.5,-36 447.5,0 519.5,0 519.5,-36"/>
<text text-anchor="middle" x="483.5" y="-14.3" font-family="Times,serif" font-size="14.00">stdint.h</text>
</a>
</g>
</g>
<!-- 4&#45;&gt;3 -->
<g id="edge5" class="edge">
<title>4&#45;&gt;3</title>
<g id="a_edge5"><a xlink:title="include">
<path fill="none" stroke="#1414ce" d="M643.21,-143.81C643.09,-124.16 639.92,-92.11 622.5,-72 599.11,-44.99 560.4,-31.69 529.76,-25.18"/>
<polygon fill="#1414ce" stroke="#1414ce" points="530.2,-21.7 519.71,-23.22 528.86,-28.57 530.2,-21.7"/>
</a>
</g>
</g>
<!-- 4&#45;&gt;5 -->
<g id="edge6" class="edge">
<title>4&#45;&gt;5</title>
<g id="a_edge6"><a xlink:title="include">
<path fill="none" stroke="#1414ce" d="M609.4,-153.33C568.84,-143.72 498.15,-126.28 438.5,-108 437.61,-107.73 436.72,-107.45 435.82,-107.17"/>
<polygon fill="#1414ce" stroke="#1414ce" points="436.63,-103.75 426.03,-103.97 434.45,-110.4 436.63,-103.75"/>
</a>
</g>
</g>
<!-- 10 -->
<g id="node4" class="node">
<title>10</title>
<g id="a_node4"><a xlink:title="assert.h">
<polygon fill="#ffffff" stroke="black" points="181.5,-36 107.5,-36 107.5,0 181.5,0 181.5,-36"/>
<text text-anchor="middle" x="144.5" y="-14.3" font-family="Times,serif" font-size="14.00">assert.h</text>
</a>
</g>
</g>
<!-- 22 -->
<g id="node5" class="node">
<title>22</title>
<g id="a_node5"><a xlink:title="utils.h">
<polygon fill="#ffffff" stroke="black" points="515.5,-180 453.5,-180 453.5,-144 515.5,-144 515.5,-180"/>
<text text-anchor="middle" x="484.5" y="-158.3" font-family="Times,serif" font-size="14.00">utils.h</text>
</a>
</g>
</g>
<!-- 22&#45;&gt;5 -->
<g id="edge9" class="edge">
<title>22&#45;&gt;5</title>
<g id="a_edge9"><a xlink:title="include">
<path fill="none" stroke="#1414ce" d="M461.26,-143.7C449.31,-134.8 434.58,-123.82 421.65,-114.2"/>
<polygon fill="#1414ce" stroke="#1414ce" points="423.58,-111.27 413.47,-108.1 419.4,-116.88 423.58,-111.27"/>
</a>
</g>
</g>
<!-- 23 -->
<g id="node14" class="node">
<title>23</title>
<g id="a_node14"><a xlink:title="stddef.h">
<polygon fill="#ffffff" stroke="black" points="521.5,-108 447.5,-108 447.5,-72 521.5,-72 521.5,-108"/>
<text text-anchor="middle" x="484.5" y="-86.3" font-family="Times,serif" font-size="14.00">stddef.h</text>
</a>
</g>
</g>
<!-- 22&#45;&gt;23 -->
<g id="edge7" class="edge">
<title>22&#45;&gt;23</title>
<g id="a_edge7"><a xlink:title="include">
<path fill="none" stroke="#1414ce" d="M484.5,-143.7C484.5,-135.98 484.5,-126.71 484.5,-118.11"/>
<polygon fill="#1414ce" stroke="#1414ce" points="488,-118.1 484.5,-108.1 481,-118.1 488,-118.1"/>
</a>
</g>
</g>
<!-- 16 -->
<g id="node25" class="node">
<title>16</title>
<g id="a_node25"><a xlink:title="stdio.h">
<polygon fill="#ffffff" stroke="black" points="614,-108 549,-108 549,-72 614,-72 614,-108"/>
<text text-anchor="middle" x="581.5" y="-86.3" font-family="Times,serif" font-size="14.00">stdio.h</text>
</a>
</g>
</g>
<!-- 22&#45;&gt;16 -->
<g id="edge8" class="edge">
<title>22&#45;&gt;16</title>
<g id="a_edge8"><a xlink:title="include">
<path fill="none" stroke="#1414ce" d="M508.48,-143.7C520.81,-134.8 536.02,-123.82 549.35,-114.2"/>
<polygon fill="#1414ce" stroke="#1414ce" points="551.74,-116.79 557.8,-108.1 547.64,-111.12 551.74,-116.79"/>
</a>
</g>
</g>
<!-- 15 -->
<g id="node6" class="node">
<title>15</title>
<g id="a_node6"><a xlink:title="synclist.h">
<polygon fill="#ffffff" stroke="black" points="1079,-252 994,-252 994,-216 1079,-216 1079,-252"/>
<text text-anchor="middle" x="1036.5" y="-230.3" font-family="Times,serif" font-size="14.00">synclist.h</text>
</a>
</g>
</g>
<!-- 15&#45;&gt;14 -->
<g id="edge11" class="edge">
<title>15&#45;&gt;14</title>
<g id="a_edge11"><a xlink:title="include">
<path fill="none" stroke="#1414ce" d="M1036.5,-215.7C1036.5,-207.98 1036.5,-198.71 1036.5,-190.11"/>
<polygon fill="#1414ce" stroke="#1414ce" points="1040,-190.1 1036.5,-180.1 1033,-190.1 1040,-190.1"/>
</a>
</g>
</g>
<!-- 17 -->
<g id="node22" class="node">
<title>17</title>
<g id="a_node22"><a xlink:title="smp.h">
<polygon fill="#ffffff" stroke="black" points="1196.5,-180 1136.5,-180 1136.5,-144 1196.5,-144 1196.5,-180"/>
<text text-anchor="middle" x="1166.5" y="-158.3" font-family="Times,serif" font-size="14.00">smp.h</text>
</a>
</g>
</g>
<!-- 15&#45;&gt;17 -->
<g id="edge12" class="edge">
<title>15&#45;&gt;17</title>
<g id="a_edge12"><a xlink:title="include">
<path fill="none" stroke="#1414ce" d="M1068.3,-215.88C1086.13,-206.28 1108.51,-194.22 1127.41,-184.05"/>
<polygon fill="#1414ce" stroke="#1414ce" points="1129.22,-187.05 1136.37,-179.23 1125.9,-180.89 1129.22,-187.05"/>
</a>
</g>
</g>
<!-- 15&#45;&gt;16 -->
<g id="edge10" class="edge">
<title>15&#45;&gt;16</title>
<g id="a_edge10"><a xlink:title="include">
<path fill="none" stroke="#1414ce" d="M993.69,-219.64C906.77,-192.51 710.48,-131.25 623.9,-104.23"/>
<polygon fill="#1414ce" stroke="#1414ce" points="624.73,-100.83 614.14,-101.19 622.65,-107.51 624.73,-100.83"/>
</a>
</g>
</g>
<!-- 14&#45;&gt;7 -->
<g id="edge13" class="edge">
<title>14&#45;&gt;7</title>
<g id="a_edge13"><a xlink:title="include">
<path fill="none" stroke="#1414ce" d="M1009.4,-151.12C979.98,-140.39 932.33,-123.02 895.79,-109.7"/>
<polygon fill="#1414ce" stroke="#1414ce" points="896.88,-106.37 886.29,-106.23 894.48,-112.95 896.88,-106.37"/>
</a>
</g>
</g>
<!-- 1 -->
<g id="node10" class="node">
<title>1</title>
<g id="a_node10"><a xlink:title="/__w/AtomVM/AtomVM/src/libAtomVM/context.h">
<polygon fill="#bfbfbf" stroke="black" points="1325.5,-684 965.5,-684 965.5,-648 1325.5,-648 1325.5,-684"/>
<text text-anchor="middle" x="1145.5" y="-662.3" font-family="Times,serif" font-size="14.00">/__w/AtomVM/AtomVM/src/libAtomVM/context.h</text>
</a>
</g>
</g>
<!-- 1&#45;&gt;14 -->
<g id="edge15" class="edge">
<title>1&#45;&gt;14</title>
<g id="a_edge15"><a xlink:title="include">
<path fill="none" stroke="#1414ce" d="M1161.99,-647.77C1184.34,-622.53 1221.5,-573.05 1221.5,-523 1221.5,-523 1221.5,-523 1221.5,-449 1221.5,-335.78 1192.01,-302.11 1118.5,-216 1105.99,-201.34 1088.42,-189.25 1072.75,-180.34"/>
<polygon fill="#1414ce" stroke="#1414ce" points="1074.25,-177.17 1063.79,-175.46 1070.9,-183.32 1074.25,-177.17"/>
</a>
</g>
</g>
<!-- 18 -->
<g id="node13" class="node">
<title>18</title>
<g id="a_node13"><a xlink:title="term.h">
<polygon fill="#ffffff" stroke="black" points="488,-468 423,-468 423,-432 488,-432 488,-468"/>
<text text-anchor="middle" x="455.5" y="-446.3" font-family="Times,serif" font-size="14.00">term.h</text>
</a>
</g>
</g>
<!-- 1&#45;&gt;18 -->
<g id="edge18" class="edge">
<title>1&#45;&gt;18</title>
<g id="a_edge18"><a xlink:title="include">
<path fill="none" stroke="#1414ce" d="M965.33,-657.36C891.93,-650.28 807.19,-636.95 733.5,-612 636.32,-579.1 535.26,-510.35 486.07,-474.26"/>
<polygon fill="#1414ce" stroke="#1414ce" points="487.9,-471.26 477.78,-468.13 483.74,-476.89 487.9,-471.26"/>
</a>
</g>
</g>
<!-- 2 -->
<g id="node21" class="node">
<title>2</title>
<g id="a_node21"><a xlink:title="globalcontext.h">
<polygon fill="#ffffff" stroke="black" points="1099,-612 972,-612 972,-576 1099,-576 1099,-612"/>
<text text-anchor="middle" x="1035.5" y="-590.3" font-family="Times,serif" font-size="14.00">globalcontext.h</text>
</a>
</g>
</g>
<!-- 1&#45;&gt;2 -->
<g id="edge14" class="edge">
<title>1&#45;&gt;2</title>
<g id="a_edge14"><a xlink:title="include">
<path fill="none" stroke="#1414ce" d="M1118.59,-647.88C1104.34,-638.81 1086.65,-627.55 1071.26,-617.76"/>
<polygon fill="#1414ce" stroke="#1414ce" points="1072.83,-614.61 1062.51,-612.19 1069.07,-620.51 1072.83,-614.61"/>
</a>
</g>
</g>
<!-- 1&#45;&gt;17 -->
<g id="edge17" class="edge">
<title>1&#45;&gt;17</title>
<g id="a_edge17"><a xlink:title="include">
<path fill="none" stroke="#1414ce" d="M1189.06,-647.96C1205.76,-639.45 1223.63,-627.58 1235.5,-612 1260.33,-579.41 1259.5,-563.97 1259.5,-523 1259.5,-523 1259.5,-523 1259.5,-305 1259.5,-257.32 1222.35,-213.19 1195.02,-187.17"/>
<polygon fill="#1414ce" stroke="#1414ce" points="1197.32,-184.54 1187.6,-180.32 1192.57,-189.68 1197.32,-184.54"/>
</a>
</g>
</g>
<!-- 27 -->
<g id="node23" class="node">
<title>27</title>
<g id="a_node23"><a xlink:title="timer_list.h">
<polygon fill="#ffffff" stroke="black" points="1385.5,-252 1287.5,-252 1287.5,-216 1385.5,-216 1385.5,-252"/>
<text text-anchor="middle" x="1336.5" y="-230.3" font-family="Times,serif" font-size="14.00">timer_list.h</text>
</a>
</g>
</g>
<!-- 1&#45;&gt;27 -->
<g id="edge19" class="edge">
<title>1&#45;&gt;27</title>
<g id="a_edge19"><a xlink:title="include">
<path fill="none" stroke="#1414ce" d="M1308.36,-647.96C1381.43,-630.34 1451.5,-594.74 1451.5,-523 1451.5,-523 1451.5,-523 1451.5,-377 1451.5,-325.97 1406.09,-283 1372.34,-258.11"/>
<polygon fill="#1414ce" stroke="#1414ce" points="1374.22,-255.15 1364.05,-252.18 1370.14,-260.84 1374.22,-255.15"/>
</a>
</g>
</g>
<!-- 26 -->
<g id="node24" class="node">
<title>26</title>
<g id="a_node24"><a xlink:title="mailbox.h">
<polygon fill="#ffffff" stroke="black" points="695.5,-252 609.5,-252 609.5,-216 695.5,-216 695.5,-252"/>
<text text-anchor="middle" x="652.5" y="-230.3" font-family="Times,serif" font-size="14.00">mailbox.h</text>
</a>
</g>
</g>
<!-- 1&#45;&gt;26 -->
<g id="edge16" class="edge">
<title>1&#45;&gt;26</title>
<g id="a_edge16"><a xlink:title="include">
<path fill="none" stroke="#1414ce" d="M1036.48,-648C918.65,-626.46 747.5,-584.58 747.5,-523 747.5,-523 747.5,-523 747.5,-377 747.5,-329.01 709.56,-284.96 681.63,-259.04"/>
<polygon fill="#1414ce" stroke="#1414ce" points="683.83,-256.31 674.06,-252.22 679.15,-261.52 683.83,-256.31"/>
</a>
</g>
</g>
<!-- 21 -->
<g id="node11" class="node">
<title>21</title>
<g id="a_node11"><a xlink:title="memory.h">
<polygon fill="#ffffff" stroke="black" points="278.5,-252 192.5,-252 192.5,-216 278.5,-216 278.5,-252"/>
<text text-anchor="middle" x="235.5" y="-230.3" font-family="Times,serif" font-size="14.00">memory.h</text>
</a>
</g>
</g>
<!-- 21&#45;&gt;22 -->
<g id="edge24" class="edge">
<title>21&#45;&gt;22</title>
<g id="a_edge24"><a xlink:title="include">
<path fill="none" stroke="#1414ce" d="M278.59,-220.89C324.92,-207.86 398.02,-187.31 443.52,-174.52"/>
<polygon fill="#1414ce" stroke="#1414ce" points="444.67,-177.83 453.34,-171.76 442.77,-171.1 444.67,-177.83"/>
</a>
</g>
</g>
<!-- 21&#45;&gt;3 -->
<g id="edge20" class="edge">
<title>21&#45;&gt;3</title>
<g id="a_edge20"><a xlink:title="include">
<path fill="none" stroke="#1414ce" d="M237.13,-215.89C241.19,-183.07 254.72,-111.1 297.5,-72 335.89,-36.92 395.9,-24.89 437.33,-20.86"/>
<polygon fill="#1414ce" stroke="#1414ce" points="437.77,-24.33 447.44,-19.99 437.17,-17.36 437.77,-24.33"/>
</a>
</g>
</g>
<!-- 21&#45;&gt;5 -->
<g id="edge21" class="edge">
<title>21&#45;&gt;5</title>
<g id="a_edge21"><a xlink:title="include">
<path fill="none" stroke="#1414ce" d="M254.2,-215.87C281.66,-190.71 333.03,-143.65 364.26,-115.04"/>
<polygon fill="#1414ce" stroke="#1414ce" points="366.73,-117.53 371.74,-108.19 362,-112.36 366.73,-117.53"/>
</a>
</g>
</g>
<!-- 8 -->
<g id="node15" class="node">
<title>8</title>
<g id="a_node15"><a xlink:title="erl_nif.h">
<polygon fill="#ffffff" stroke="black" points="131.5,-180 57.5,-180 57.5,-144 131.5,-144 131.5,-180"/>
<text text-anchor="middle" x="94.5" y="-158.3" font-family="Times,serif" font-size="14.00">erl_nif.h</text>
</a>
</g>
</g>
<!-- 21&#45;&gt;8 -->
<g id="edge22" class="edge">
<title>21&#45;&gt;8</title>
<g id="a_edge22"><a xlink:title="include">
<path fill="none" stroke="#1414ce" d="M201.01,-215.88C182.06,-206.47 158.37,-194.71 138.14,-184.67"/>
<polygon fill="#1414ce" stroke="#1414ce" points="139.64,-181.5 129.13,-180.19 136.53,-187.77 139.64,-181.5"/>
</a>
</g>
</g>
<!-- 9 -->
<g id="node20" class="node">
<title>9</title>
<g id="a_node20"><a xlink:title="term_typedef.h">
<polygon fill="#ffffff" stroke="black" points="207,-108 82,-108 82,-72 207,-72 207,-108"/>
<text text-anchor="middle" x="144.5" y="-86.3" font-family="Times,serif" font-size="14.00">term_typedef.h</text>
</a>
</g>
</g>
<!-- 21&#45;&gt;9 -->
<g id="edge23" class="edge">
<title>21&#45;&gt;9</title>
<g id="a_edge23"><a xlink:title="include">
<path fill="none" stroke="#1414ce" d="M215.42,-215.82C204.93,-206.09 192.45,-193.24 183.5,-180 170.35,-160.54 159.97,-135.93 153.23,-117.52"/>
<polygon fill="#1414ce" stroke="#1414ce" points="156.5,-116.26 149.87,-108 149.9,-118.6 156.5,-116.26"/>
</a>
</g>
</g>
<!-- 25&#45;&gt;15 -->
<g id="edge29" class="edge">
<title>25&#45;&gt;15</title>
<g id="a_edge29"><a xlink:title="include">
<path fill="none" stroke="#1414ce" d="M515.67,-300.52C602.6,-292.5 786.8,-274.43 941.5,-252 955.11,-250.03 969.76,-247.57 983.38,-245.15"/>
<polygon fill="#1414ce" stroke="#1414ce" points="984.34,-248.53 993.56,-243.31 983.1,-241.64 984.34,-248.53"/>
</a>
</g>
</g>
<!-- 25&#45;&gt;14 -->
<g id="edge27" class="edge">
<title>25&#45;&gt;14</title>
<g id="a_edge27"><a xlink:title="include">
<path fill="none" stroke="#1414ce" d="M515.73,-296.01C532.2,-293.23 550.6,-290.3 567.5,-288 718.51,-267.46 768.2,-311.5 908.5,-252 931.45,-242.27 931.32,-230.63 951.5,-216 967.15,-204.65 985.24,-193.16 1000.7,-183.8"/>
<polygon fill="#1414ce" stroke="#1414ce" points="1002.68,-186.69 1009.46,-178.55 999.08,-180.69 1002.68,-186.69"/>
</a>
</g>
</g>
<!-- 25&#45;&gt;5 -->
<g id="edge25" class="edge">
<title>25&#45;&gt;5</title>
<g id="a_edge25"><a xlink:title="include">
<path fill="none" stroke="#1414ce" d="M459.49,-287.85C446.46,-250.68 415.54,-162.44 399.9,-117.82"/>
<polygon fill="#1414ce" stroke="#1414ce" points="403.15,-116.51 396.54,-108.23 396.54,-118.83 403.15,-116.51"/>
</a>
</g>
</g>
<!-- 25&#45;&gt;21 -->
<g id="edge28" class="edge">
<title>25&#45;&gt;21</title>
<g id="a_edge28"><a xlink:title="include">
<path fill="none" stroke="#1414ce" d="M415.31,-289.72C377.82,-278.31 326.68,-262.75 288.52,-251.14"/>
<polygon fill="#1414ce" stroke="#1414ce" points="289.21,-247.69 278.62,-248.12 287.17,-254.38 289.21,-247.69"/>
</a>
</g>
</g>
<!-- 25&#45;&gt;8 -->
<g id="edge26" class="edge">
<title>25&#45;&gt;8</title>
<g id="a_edge26"><a xlink:title="include">
<path fill="none" stroke="#1414ce" d="M415.47,-304.4C356.71,-301.77 257.85,-291.23 183.5,-252 154.46,-236.67 128.84,-208.67 112.64,-188.15"/>
<polygon fill="#1414ce" stroke="#1414ce" points="115.36,-185.95 106.49,-180.15 109.81,-190.21 115.36,-185.95"/>
</a>
</g>
</g>
<!-- 18&#45;&gt;7 -->
<g id="edge31" class="edge">
<title>18&#45;&gt;7</title>
<g id="a_edge31"><a xlink:title="include">
<path fill="none" stroke="#1414ce" d="M488.11,-445.94C526.36,-440.97 590.17,-428.17 634.5,-396 688.06,-357.13 791.29,-183.52 829.66,-117.03"/>
<polygon fill="#1414ce" stroke="#1414ce" points="832.89,-118.44 834.84,-108.02 826.82,-114.95 832.89,-118.44"/>
</a>
</g>
</g>
<!-- 18&#45;&gt;24 -->
<g id="edge37" class="edge">
<title>18&#45;&gt;24</title>
<g id="a_edge37"><a xlink:title="include">
<path fill="none" stroke="#1414ce" d="M475.77,-431.7C486,-422.97 498.56,-412.24 509.68,-402.75"/>
<polygon fill="#1414ce" stroke="#1414ce" points="512.13,-405.26 517.46,-396.1 507.59,-399.94 512.13,-405.26"/>
</a>
</g>
</g>
<!-- 18&#45;&gt;22 -->
<g id="edge38" class="edge">
<title>18&#45;&gt;22</title>
<g id="a_edge38"><a xlink:title="include">
<path fill="none" stroke="#1414ce" d="M488.15,-447.38C522.57,-443.71 575.24,-432.13 600.5,-396 626.07,-359.43 543.14,-240.6 503.91,-188.21"/>
<polygon fill="#1414ce" stroke="#1414ce" points="506.61,-185.97 497.79,-180.1 501.02,-190.19 506.61,-185.97"/>
</a>
</g>
</g>
<!-- 18&#45;&gt;3 -->
<g id="edge32" class="edge">
<title>18&#45;&gt;3</title>
<g id="a_edge32"><a xlink:title="include">
<path fill="none" stroke="#1414ce" d="M422.92,-446.23C366.25,-440.67 253.28,-426 229.5,-396 219.56,-383.46 225.6,-375.52 229.5,-360 242.79,-307.16 266.17,-302.13 287.5,-252 320.41,-174.66 287.72,-133.04 345.5,-72 369.67,-46.46 407.5,-33.08 437.44,-26.15"/>
<polygon fill="#1414ce" stroke="#1414ce" points="438.22,-29.57 447.26,-24.05 436.75,-22.72 438.22,-29.57"/>
</a>
</g>
</g>
<!-- 18&#45;&gt;5 -->
<g id="edge34" class="edge">
<title>18&#45;&gt;5</title>
<g id="a_edge34"><a xlink:title="include">
<path fill="none" stroke="#1414ce" d="M455.2,-431.87C454.1,-412.84 449.99,-381.93 435.5,-360 420.4,-337.15 400.26,-347.06 385.5,-324 367.92,-296.54 374.63,-284.45 371.5,-252 366.9,-204.22 363.28,-191.29 371.5,-144 373.02,-135.24 375.86,-126.01 378.89,-117.75"/>
<polygon fill="#1414ce" stroke="#1414ce" points="382.22,-118.84 382.61,-108.25 375.71,-116.29 382.22,-118.84"/>
</a>
</g>
</g>
<!-- 18&#45;&gt;21 -->
<g id="edge36" class="edge">
<title>18&#45;&gt;21</title>
<g id="a_edge36"><a xlink:title="include">
<path fill="none" stroke="#1414ce" d="M422.73,-447.28C359.57,-443.21 224.72,-430.58 196.5,-396 164.45,-356.73 195.02,-295.22 217.17,-260.71"/>
<polygon fill="#1414ce" stroke="#1414ce" points="220.25,-262.4 222.86,-252.13 214.41,-258.53 220.25,-262.4"/>
</a>
</g>
</g>
<!-- 19 -->
<g id="node18" class="node">
<title>19</title>
<g id="a_node18"><a xlink:title="sys/types.h">
<polygon fill="#ffffff" stroke="black" points="336,-396 239,-396 239,-360 336,-360 336,-396"/>
<text text-anchor="middle" x="287.5" y="-374.3" font-family="Times,serif" font-size="14.00">sys/types.h</text>
</a>
</g>
</g>
<!-- 18&#45;&gt;19 -->
<g id="edge30" class="edge">
<title>18&#45;&gt;19</title>
<g id="a_edge30"><a xlink:title="include">
<path fill="none" stroke="#1414ce" d="M422.71,-435.34C398.62,-425.3 365.45,-411.48 337.99,-400.04"/>
<polygon fill="#1414ce" stroke="#1414ce" points="339.12,-396.71 328.54,-396.1 336.42,-403.18 339.12,-396.71"/>
</a>
</g>
</g>
<!-- 20 -->
<g id="node19" class="node">
<title>20</title>
<g id="a_node19"><a xlink:title="string.h">
<polygon fill="#ffffff" stroke="black" points="427,-396 354,-396 354,-360 427,-360 427,-396"/>
<text text-anchor="middle" x="390.5" y="-374.3" font-family="Times,serif" font-size="14.00">string.h</text>
</a>
</g>
</g>
<!-- 18&#45;&gt;20 -->
<g id="edge35" class="edge">
<title>18&#45;&gt;20</title>
<g id="a_edge35"><a xlink:title="include">
<path fill="none" stroke="#1414ce" d="M439.43,-431.7C431.56,-423.22 421.94,-412.86 413.33,-403.58"/>
<polygon fill="#1414ce" stroke="#1414ce" points="415.75,-401.05 406.38,-396.1 410.62,-405.81 415.75,-401.05"/>
</a>
</g>
</g>
<!-- 18&#45;&gt;9 -->
<g id="edge39" class="edge">
<title>18&#45;&gt;9</title>
<g id="a_edge39"><a xlink:title="include">
<path fill="none" stroke="#1414ce" d="M422.61,-446.03C358.25,-439.7 218.56,-423.16 179.5,-396 87.32,-331.9 78.73,-288.13 48.5,-180 44.19,-164.59 40.37,-157.78 48.5,-144 56.36,-130.69 68.89,-120.48 82.34,-112.76"/>
<polygon fill="#1414ce" stroke="#1414ce" points="84.07,-115.81 91.28,-108.04 80.8,-109.62 84.07,-115.81"/>
</a>
</g>
</g>
<!-- 18&#45;&gt;16 -->
<g id="edge33" class="edge">
<title>18&#45;&gt;16</title>
<g id="a_edge33"><a xlink:title="include">
<path fill="none" stroke="#1414ce" d="M488.07,-448.86C526.22,-446.74 587.97,-436.73 617.5,-396 626.89,-383.05 618.75,-375.95 617.5,-360 613.71,-311.56 607.13,-300.14 600.5,-252 594.05,-205.16 587.88,-150.45 584.41,-118.38"/>
<polygon fill="#1414ce" stroke="#1414ce" points="587.88,-117.99 583.33,-108.42 580.92,-118.74 587.88,-117.99"/>
</a>
</g>
</g>
<!-- 8&#45;&gt;9 -->
<g id="edge40" class="edge">
<title>8&#45;&gt;9</title>
<g id="a_edge40"><a xlink:title="include">
<path fill="none" stroke="#1414ce" d="M106.86,-143.7C112.73,-135.47 119.87,-125.48 126.34,-116.42"/>
<polygon fill="#1414ce" stroke="#1414ce" points="129.32,-118.28 132.28,-108.1 123.62,-114.21 129.32,-118.28"/>
</a>
</g>
</g>
<!-- 11 -->
<g id="node16" class="node">
<title>11</title>
<g id="a_node16"><a xlink:title="limits.h">
<polygon fill="#ffffff" stroke="black" points="271,-36 200,-36 200,0 271,0 271,-36"/>
<text text-anchor="middle" x="235.5" y="-14.3" font-family="Times,serif" font-size="14.00">limits.h</text>
</a>
</g>
</g>
<!-- 6 -->
<g id="node17" class="node">
<title>6</title>
<g id="a_node17"><a xlink:title="atom_table.h">
<polygon fill="#ffffff" stroke="black" points="899,-252 790,-252 790,-216 899,-216 899,-252"/>
<text text-anchor="middle" x="844.5" y="-230.3" font-family="Times,serif" font-size="14.00">atom_table.h</text>
</a>
</g>
</g>
<!-- 6&#45;&gt;7 -->
<g id="edge41" class="edge">
<title>6&#45;&gt;7</title>
<g id="a_edge41"><a xlink:title="include">
<path fill="none" stroke="#1414ce" d="M844.5,-215.87C844.5,-191.67 844.5,-147.21 844.5,-118.39"/>
<polygon fill="#1414ce" stroke="#1414ce" points="848,-118.19 844.5,-108.19 841,-118.19 848,-118.19"/>
</a>
</g>
</g>
<!-- 6&#45;&gt;4 -->
<g id="edge42" class="edge">
<title>6&#45;&gt;4</title>
<g id="a_edge42"><a xlink:title="include">
<path fill="none" stroke="#1414ce" d="M795.34,-215.97C761.69,-204.3 717.5,-188.99 685.29,-177.83"/>
<polygon fill="#1414ce" stroke="#1414ce" points="686.3,-174.47 675.71,-174.51 684.01,-181.09 686.3,-174.47"/>
</a>
</g>
</g>
<!-- 9&#45;&gt;10 -->
<g id="edge43" class="edge">
<title>9&#45;&gt;10</title>
<g id="a_edge43"><a xlink:title="include">
<path fill="none" stroke="#1414ce" d="M144.5,-71.7C144.5,-63.98 144.5,-54.71 144.5,-46.11"/>
<polygon fill="#1414ce" stroke="#1414ce" points="148,-46.1 144.5,-36.1 141,-46.1 148,-46.1"/>
</a>
</g>
</g>
<!-- 9&#45;&gt;3 -->
<g id="edge46" class="edge">
<title>9&#45;&gt;3</title>
<g id="a_edge46"><a xlink:title="include">
<path fill="none" stroke="#1414ce" d="M207.09,-75.08C211.97,-74.03 216.81,-72.99 221.5,-72 297.05,-56.02 385.09,-38.42 437.45,-28.06"/>
<polygon fill="#1414ce" stroke="#1414ce" points="438.3,-31.46 447.44,-26.09 436.95,-24.59 438.3,-31.46"/>
</a>
</g>
</g>
<!-- 9&#45;&gt;11 -->
<g id="edge44" class="edge">
<title>9&#45;&gt;11</title>
<g id="a_edge44"><a xlink:title="include">
<path fill="none" stroke="#1414ce" d="M166.99,-71.7C178.46,-62.88 192.56,-52.03 204.98,-42.47"/>
<polygon fill="#1414ce" stroke="#1414ce" points="207.47,-44.98 213.26,-36.1 203.2,-39.43 207.47,-44.98"/>
</a>
</g>
</g>
<!-- 12 -->
<g id="node27" class="node">
<title>12</title>
<g id="a_node27"><a xlink:title="inttypes.h">
<polygon fill="#ffffff" stroke="black" points="89,-36 0,-36 0,0 89,0 89,-36"/>
<text text-anchor="middle" x="44.5" y="-14.3" font-family="Times,serif" font-size="14.00">inttypes.h</text>
</a>
</g>
</g>
<!-- 9&#45;&gt;12 -->
<g id="edge45" class="edge">
<title>9&#45;&gt;12</title>
<g id="a_edge45"><a xlink:title="include">
<path fill="none" stroke="#1414ce" d="M120.04,-71.88C107.2,-62.89 91.3,-51.76 77.41,-42.03"/>
<polygon fill="#1414ce" stroke="#1414ce" points="79.26,-39.06 69.06,-36.19 75.24,-44.79 79.26,-39.06"/>
</a>
</g>
</g>
<!-- 2&#45;&gt;4 -->
<g id="edge48" class="edge">
<title>2&#45;&gt;4</title>
<g id="a_edge48"><a xlink:title="include">
<path fill="none" stroke="#1414ce" d="M984.24,-575.94C932.91,-555.24 861.5,-514.95 861.5,-451 861.5,-451 861.5,-451 861.5,-377 861.5,-329.3 833.98,-322.94 801.5,-288 763.65,-247.27 711.79,-209.1 677.73,-185.91"/>
<polygon fill="#1414ce" stroke="#1414ce" points="679.3,-182.75 669.05,-180.06 675.39,-188.55 679.3,-182.75"/>
</a>
</g>
</g>
<!-- 2&#45;&gt;15 -->
<g id="edge55" class="edge">
<title>2&#45;&gt;15</title>
<g id="a_edge55"><a xlink:title="include">
<path fill="none" stroke="#1414ce" d="M1042.38,-575.83C1052.32,-549.44 1069.5,-497.14 1069.5,-451 1069.5,-451 1069.5,-451 1069.5,-377 1069.5,-335.97 1056.27,-289.97 1046.56,-261.74"/>
<polygon fill="#1414ce" stroke="#1414ce" points="1049.82,-260.45 1043.18,-252.19 1043.22,-262.78 1049.82,-260.45"/>
</a>
</g>
</g>
<!-- 2&#45;&gt;14 -->
<g id="edge52" class="edge">
<title>2&#45;&gt;14</title>
<g id="a_edge52"><a xlink:title="include">
<path fill="none" stroke="#1414ce" d="M1050.81,-575.59C1058.58,-565.79 1067.42,-552.95 1072.5,-540 1086.29,-504.83 1096.39,-398.66 1103.5,-252 1104.28,-236.02 1110.47,-230.4 1103.5,-216 1096.78,-202.12 1084.46,-190.77 1072.2,-182.18"/>
<polygon fill="#1414ce" stroke="#1414ce" points="1074.08,-179.23 1063.8,-176.68 1070.25,-185.09 1074.08,-179.23"/>
</a>
</g>
</g>
<!-- 2&#45;&gt;3 -->
<g id="edge47" class="edge">
<title>2&#45;&gt;3</title>
<g id="a_edge47"><a xlink:title="include">
<path fill="none" stroke="#1414ce" d="M1099.2,-582.6C1206.92,-563.2 1413.5,-517.33 1413.5,-451 1413.5,-451 1413.5,-451 1413.5,-161 1413.5,-70.58 717.66,-30.34 529.78,-21.12"/>
<polygon fill="#1414ce" stroke="#1414ce" points="529.83,-17.62 519.67,-20.63 529.49,-24.61 529.83,-17.62"/>
</a>
</g>
</g>
<!-- 2&#45;&gt;18 -->
<g id="edge56" class="edge">
<title>2&#45;&gt;18</title>
<g id="a_edge56"><a xlink:title="include">
<path fill="none" stroke="#1414ce" d="M971.63,-578.31C926.33,-567.82 864.13,-553.27 809.5,-540 696.98,-512.66 564.74,-479.01 498.25,-461.98"/>
<polygon fill="#1414ce" stroke="#1414ce" points="498.71,-458.49 488.16,-459.4 496.97,-465.27 498.71,-458.49"/>
</a>
</g>
</g>
<!-- 2&#45;&gt;8 -->
<g id="edge50" class="edge">
<title>2&#45;&gt;8</title>
<g id="a_edge50"><a xlink:title="include">
<path fill="none" stroke="#1414ce" d="M971.93,-590.13C760.54,-579.74 94.5,-539.96 94.5,-451 94.5,-451 94.5,-451 94.5,-305 94.5,-265 94.5,-218.65 94.5,-190.08"/>
<polygon fill="#1414ce" stroke="#1414ce" points="98,-190.05 94.5,-180.05 91,-190.05 98,-190.05"/>
</a>
</g>
</g>
<!-- 2&#45;&gt;6 -->
<g id="edge49" class="edge">
<title>2&#45;&gt;6</title>
<g id="a_edge49"><a xlink:title="include">
<path fill="none" stroke="#1414ce" d="M1005.88,-575.9C992.09,-566.71 976.37,-554.33 965.5,-540 939.82,-506.13 930.5,-493.5 930.5,-451 930.5,-451 930.5,-451 930.5,-377 930.5,-330.31 896.06,-285.84 870.77,-259.49"/>
<polygon fill="#1414ce" stroke="#1414ce" points="873.11,-256.88 863.59,-252.23 868.13,-261.8 873.11,-256.88"/>
</a>
</g>
</g>
<!-- 2&#45;&gt;17 -->
<g id="edge54" class="edge">
<title>2&#45;&gt;17</title>
<g id="a_edge54"><a xlink:title="include">
<path fill="none" stroke="#1414ce" d="M1059.1,-575.83C1070.29,-566.47 1082.85,-553.95 1090.5,-540 1155.27,-421.83 1165.15,-255.67 1166.43,-190.63"/>
<polygon fill="#1414ce" stroke="#1414ce" points="1169.94,-190.43 1166.58,-180.39 1162.94,-190.34 1169.94,-190.43"/>
</a>
</g>
</g>
<!-- 2&#45;&gt;27 -->
<g id="edge57" class="edge">
<title>2&#45;&gt;27</title>
<g id="a_edge57"><a xlink:title="include">
<path fill="none" stroke="#1414ce" d="M1096.08,-575.96C1117.84,-567.68 1141.44,-555.98 1159.5,-540 1250.76,-459.24 1307.11,-319.68 1327.67,-261.58"/>
<polygon fill="#1414ce" stroke="#1414ce" points="1331.01,-262.62 1330.98,-252.02 1324.4,-260.32 1331.01,-262.62"/>
</a>
</g>
</g>
<!-- 2&#45;&gt;26 -->
<g id="edge53" class="edge">
<title>2&#45;&gt;26</title>
<g id="a_edge53"><a xlink:title="include">
<path fill="none" stroke="#1414ce" d="M971.67,-590.6C930.96,-585.7 879.92,-572.8 847.5,-540 818.7,-510.87 823.5,-491.97 823.5,-451 823.5,-451 823.5,-451 823.5,-377 823.5,-314.65 755.37,-274.43 705.12,-253.25"/>
<polygon fill="#1414ce" stroke="#1414ce" points="706.23,-249.93 695.65,-249.39 703.59,-256.41 706.23,-249.93"/>
</a>
</g>
</g>
<!-- 13 -->
<g id="node26" class="node">
<title>13</title>
<g id="a_node26"><a xlink:title="ets.h">
<polygon fill="#ffffff" stroke="black" points="1028.5,-540 974.5,-540 974.5,-504 1028.5,-504 1028.5,-540"/>
<text text-anchor="middle" x="1001.5" y="-518.3" font-family="Times,serif" font-size="14.00">ets.h</text>
</a>
</g>
</g>
<!-- 2&#45;&gt;13 -->
<g id="edge51" class="edge">
<title>2&#45;&gt;13</title>
<g id="a_edge51"><a xlink:title="include">
<path fill="none" stroke="#1414ce" d="M1027.1,-575.7C1023.23,-567.73 1018.55,-558.1 1014.26,-549.26"/>
<polygon fill="#1414ce" stroke="#1414ce" points="1017.33,-547.57 1009.81,-540.1 1011.03,-550.63 1017.33,-547.57"/>
</a>
</g>
</g>
<!-- 17&#45;&gt;7 -->
<g id="edge58" class="edge">
<title>17&#45;&gt;7</title>
<g id="a_edge58"><a xlink:title="include">
<path fill="none" stroke="#1414ce" d="M1136.5,-154.48C1081.55,-142.53 964.18,-117.02 896.16,-102.23"/>
<polygon fill="#1414ce" stroke="#1414ce" points="896.61,-98.75 886.09,-100.04 895.12,-105.59 896.61,-98.75"/>
</a>
</g>
</g>
<!-- 27&#45;&gt;7 -->
<g id="edge59" class="edge">
<title>27&#45;&gt;7</title>
<g id="a_edge59"><a xlink:title="include">
<path fill="none" stroke="#1414ce" d="M1317.25,-215.72C1293.04,-195.04 1249.31,-161.06 1205.5,-144 1100.85,-103.26 968.02,-93.53 896.22,-91.4"/>
<polygon fill="#1414ce" stroke="#1414ce" points="896.17,-87.89 886.09,-91.13 895.99,-94.89 896.17,-87.89"/>
</a>
</g>
</g>
<!-- 27&#45;&gt;14 -->
<g id="edge61" class="edge">
<title>27&#45;&gt;14</title>
<g id="a_edge61"><a xlink:title="include">
<path fill="none" stroke="#1414ce" d="M1287.3,-221.52C1227.33,-207.53 1127.36,-184.2 1073.53,-171.64"/>
<polygon fill="#1414ce" stroke="#1414ce" points="1074.25,-168.21 1063.72,-169.35 1072.66,-175.03 1074.25,-168.21"/>
</a>
</g>
</g>
<!-- 27&#45;&gt;3 -->
<g id="edge60" class="edge">
<title>27&#45;&gt;3</title>
<g id="a_edge60"><a xlink:title="include">
<path fill="none" stroke="#1414ce" d="M1325.19,-215.92C1310.67,-195.43 1283.49,-161.64 1251.5,-144 1125.29,-74.4 675.92,-33.98 529.78,-22.45"/>
<polygon fill="#1414ce" stroke="#1414ce" points="530.03,-18.96 519.79,-21.67 529.49,-25.94 530.03,-18.96"/>
</a>
</g>
</g>
<!-- 26&#45;&gt;7 -->
<g id="edge62" class="edge">
<title>26&#45;&gt;7</title>
<g id="a_edge62"><a xlink:title="include">
<path fill="none" stroke="#1414ce" d="M673.37,-215.78C695.77,-197.48 732.59,-167.95 765.5,-144 779.52,-133.8 795.33,-123.05 809.1,-113.92"/>
<polygon fill="#1414ce" stroke="#1414ce" points="811.4,-116.6 817.82,-108.17 807.54,-110.75 811.4,-116.6"/>
</a>
</g>
</g>
<!-- 26&#45;&gt;22 -->
<g id="edge65" class="edge">
<title>26&#45;&gt;22</title>
<g id="a_edge65"><a xlink:title="include">
<path fill="none" stroke="#1414ce" d="M611.4,-215.88C585.1,-204.92 551.13,-190.76 524.96,-179.86"/>
<polygon fill="#1414ce" stroke="#1414ce" points="526.27,-176.61 515.69,-176 523.58,-183.07 526.27,-176.61"/>
</a>
</g>
</g>
<!-- 26&#45;&gt;14 -->
<g id="edge63" class="edge">
<title>26&#45;&gt;14</title>
<g id="a_edge63"><a xlink:title="include">
<path fill="none" stroke="#1414ce" d="M695.8,-225.11C771.89,-211.24 928.26,-182.73 999.58,-169.73"/>
<polygon fill="#1414ce" stroke="#1414ce" points="1000.25,-173.17 1009.46,-167.93 999,-166.28 1000.25,-173.17"/>
</a>
</g>
</g>
<!-- 26&#45;&gt;9 -->
<g id="edge64" class="edge">
<title>26&#45;&gt;9</title>
<g id="a_edge64"><a xlink:title="include">
<path fill="none" stroke="#1414ce" d="M609.35,-222.52C567.19,-212.17 501.26,-195.65 444.5,-180 363.14,-157.57 270.05,-129.59 209.42,-111.05"/>
<polygon fill="#1414ce" stroke="#1414ce" points="210.19,-107.63 199.61,-108.05 208.14,-114.32 210.19,-107.63"/>
</a>
</g>
</g>
<!-- 13&#45;&gt;15 -->
<g id="edge67" class="edge">
<title>13&#45;&gt;15</title>
<g id="a_edge67"><a xlink:title="include">
<path fill="none" stroke="#1414ce" d="M1003.58,-503.97C1009.43,-456.19 1026.02,-320.62 1033.16,-262.27"/>
<polygon fill="#1414ce" stroke="#1414ce" points="1036.64,-262.66 1034.38,-252.31 1029.69,-261.81 1036.64,-262.66"/>
</a>
</g>
</g>
<!-- 13&#45;&gt;14 -->
<g id="edge66" class="edge">
<title>13&#45;&gt;14</title>
<g id="a_edge66"><a xlink:title="include">
<path fill="none" stroke="#1414ce" d="M1009.15,-503.84C1027.37,-461.9 1072.98,-350.42 1088.5,-252 1090.99,-236.2 1094.55,-230.81 1088.5,-216 1084.01,-205.02 1076.03,-195.08 1067.65,-186.86"/>
<polygon fill="#1414ce" stroke="#1414ce" points="1069.99,-184.26 1060.25,-180.09 1065.26,-189.42 1069.99,-184.26"/>
</a>
</g>
</g>
<!-- 13&#45;&gt;18 -->
<g id="edge68" class="edge">
<title>13&#45;&gt;18</title>
<g id="a_edge68"><a xlink:title="include">
<path fill="none" stroke="#1414ce" d="M974.42,-517.53C886.13,-506.21 606.05,-470.3 498.31,-456.49"/>
<polygon fill="#1414ce" stroke="#1414ce" points="498.5,-452.98 488.13,-455.18 497.61,-459.93 498.5,-452.98"/>
</a>
</g>
</g>
</g>
</svg>
