<?xml version="1.0" encoding="UTF-8" standalone="no"?>
<!DOCTYPE svg PUBLIC "-//W3C//DTD SVG 1.1//EN"
 "http://www.w3.org/Graphics/SVG/1.1/DTD/svg11.dtd">
<!-- Generated by graphviz version 2.43.0 (0)
 -->
<!-- Title: %3 Pages: 1 -->
<svg width="1214pt" height="404pt"
 viewBox="0.00 0.00 1213.50 404.00" xmlns="http://www.w3.org/2000/svg" xmlns:xlink="http://www.w3.org/1999/xlink">
<g id="graph0" class="graph" transform="scale(1 1) rotate(0) translate(4 400)">
<title>%3</title>
<polygon fill="transparent" stroke="transparent" points="-4,4 -4,-400 1209.5,-400 1209.5,4 -4,4"/>
<!-- 21 -->
<g id="node1" class="node">
<title>21</title>
<g id="a_node1"><a xlink:title="SpinLock">
<polygon fill="#ffffff" stroke="black" points="940,-324 858,-324 858,-288 940,-288 940,-324"/>
<text text-anchor="middle" x="899" y="-302.3" font-family="Times,serif" font-size="14.00">SpinLock</text>
</a>
</g>
</g>
<!-- 1 -->
<g id="node2" class="node">
<title>1</title>
<g id="a_node2"><a xlink:title="SelectEvent">
<polygon fill="#bfbfbf" stroke="black" points="481.5,-324 378.5,-324 378.5,-288 481.5,-288 481.5,-324"/>
<text text-anchor="middle" x="430" y="-302.3" font-family="Times,serif" font-size="14.00">SelectEvent</text>
</a>
</g>
</g>
<!-- 5 -->
<g id="node5" class="node">
<title>5</title>
<g id="a_node5"><a xlink:title="ListHead">
<polygon fill="#ffffff" stroke="black" points="334.5,-36 253.5,-36 253.5,0 334.5,0 334.5,-36"/>
<text text-anchor="middle" x="294" y="-14.3" font-family="Times,serif" font-size="14.00">ListHead</text>
</a>
</g>
</g>
<!-- 1&#45;&gt;5 -->
<g id="edge3" class="edge">
<title>1&#45;&gt;5</title>
<g id="a_edge3"><a xlink:title="usage">
<path fill="none" stroke="#1414ce" d="M379.57,-287.97C351.85,-277.54 321.41,-263.94 313,-252 269,-189.5 279.46,-92.86 288.06,-46.13"/>
<polygon fill="#1414ce" stroke="#1414ce" points="291.52,-46.65 290.01,-36.16 284.65,-45.31 291.52,-46.65"/>
</a>
</g>
</g>
<!-- 22 -->
<g id="node7" class="node">
<title>22</title>
<g id="a_node7"><a xlink:title="Message">
<polygon fill="#ffffff" stroke="black" points="402,-252 322,-252 322,-216 402,-216 402,-252"/>
<text text-anchor="middle" x="362" y="-230.3" font-family="Times,serif" font-size="14.00">Message</text>
</a>
</g>
</g>
<!-- 1&#45;&gt;22 -->
<g id="edge2" class="edge">
<title>1&#45;&gt;22</title>
<g id="a_edge2"><a xlink:title="usage">
<path fill="none" stroke="#1414ce" d="M413.19,-287.7C404.87,-279.14 394.69,-268.66 385.61,-259.3"/>
<polygon fill="#1414ce" stroke="#1414ce" points="388.09,-256.84 378.62,-252.1 383.07,-261.72 388.09,-256.84"/>
</a>
</g>
</g>
<!-- 2 -->
<g id="node18" class="node">
<title>2</title>
<g id="a_node18"><a xlink:title="RefcBinary">
<polygon fill="#ffffff" stroke="black" points="265.5,-252 170.5,-252 170.5,-216 265.5,-216 265.5,-252"/>
<text text-anchor="middle" x="218" y="-230.3" font-family="Times,serif" font-size="14.00">RefcBinary</text>
</a>
</g>
</g>
<!-- 1&#45;&gt;2 -->
<g id="edge1" class="edge">
<title>1&#45;&gt;2</title>
<g id="a_edge1"><a xlink:title="usage">
<path fill="none" stroke="#1414ce" d="M378.41,-287.97C347.31,-277.7 307.64,-264.6 275.53,-253.99"/>
<polygon fill="#1414ce" stroke="#1414ce" points="276.41,-250.6 265.82,-250.79 274.22,-257.25 276.41,-250.6"/>
</a>
</g>
</g>
<!-- 3 -->
<g id="node3" class="node">
<title>3</title>
<g id="a_node3"><a xlink:title="ResourceType">
<polygon fill="#ffffff" stroke="black" points="227.5,-180 110.5,-180 110.5,-144 227.5,-144 227.5,-180"/>
<text text-anchor="middle" x="169" y="-158.3" font-family="Times,serif" font-size="14.00">ResourceType</text>
</a>
</g>
</g>
<!-- 3&#45;&gt;5 -->
<g id="edge6" class="edge">
<title>3&#45;&gt;5</title>
<g id="a_edge6"><a xlink:title="usage">
<path fill="none" stroke="#1414ce" d="M182.29,-143.9C196.6,-125.7 220.24,-96.24 242,-72 250.61,-62.41 260.43,-52.22 269.2,-43.37"/>
<polygon fill="#1414ce" stroke="#1414ce" points="271.68,-45.84 276.27,-36.29 266.72,-40.89 271.68,-45.84"/>
</a>
</g>
</g>
<!-- 6 -->
<g id="node9" class="node">
<title>6</title>
<g id="a_node9"><a xlink:title="GlobalContext">
<polygon fill="#ffffff" stroke="black" points="660.5,-396 541.5,-396 541.5,-360 660.5,-360 660.5,-396"/>
<text text-anchor="middle" x="601" y="-374.3" font-family="Times,serif" font-size="14.00">GlobalContext</text>
</a>
</g>
</g>
<!-- 3&#45;&gt;6 -->
<g id="edge5" class="edge">
<title>3&#45;&gt;6</title>
<g id="a_edge5"><a xlink:title="usage">
<path fill="none" stroke="#1414ce" d="M166.11,-180.11C156.03,-212.59 132.13,-283.57 168,-324 191.87,-350.9 414.69,-366.7 531.08,-373.32"/>
<polygon fill="#1414ce" stroke="#1414ce" points="531.14,-376.83 541.32,-373.9 531.53,-369.84 531.14,-376.83"/>
</a>
</g>
</g>
<!-- 4 -->
<g id="node21" class="node">
<title>4</title>
<g id="a_node21"><a xlink:title="SyncList">
<polygon fill="#ffffff" stroke="black" points="139,-108 61,-108 61,-72 139,-72 139,-108"/>
<text text-anchor="middle" x="100" y="-86.3" font-family="Times,serif" font-size="14.00">SyncList</text>
</a>
</g>
</g>
<!-- 3&#45;&gt;4 -->
<g id="edge4" class="edge">
<title>3&#45;&gt;4</title>
<g id="a_edge4"><a xlink:title="usage">
<path fill="none" stroke="#1414ce" d="M151.94,-143.7C143.5,-135.14 133.18,-124.66 123.96,-115.3"/>
<polygon fill="#1414ce" stroke="#1414ce" points="126.37,-112.77 116.86,-108.1 121.39,-117.68 126.37,-112.77"/>
</a>
</g>
</g>
<!-- 16 -->
<g id="node4" class="node">
<title>16</title>
<g id="a_node4"><a xlink:title="Module">
<polygon fill="#ffffff" stroke="black" points="570,-324 500,-324 500,-288 570,-288 570,-324"/>
<text text-anchor="middle" x="535" y="-302.3" font-family="Times,serif" font-size="14.00">Module</text>
</a>
</g>
</g>
<!-- 16&#45;&gt;5 -->
<g id="edge9" class="edge">
<title>16&#45;&gt;5</title>
<g id="a_edge9"><a xlink:title="usage">
<path fill="none" stroke="#1414ce" d="M499.86,-287.84C478.72,-276.72 454.81,-262.41 449,-252 441.2,-238.03 442.78,-230.74 449,-216 457.93,-194.86 477.07,-201.14 486,-180 492.22,-165.26 493.63,-158.07 486,-144 456.18,-88.99 390.51,-54.39 344.3,-35.88"/>
<polygon fill="#1414ce" stroke="#1414ce" points="345.35,-32.54 334.76,-32.18 342.82,-39.06 345.35,-32.54"/>
</a>
</g>
</g>
<!-- 18 -->
<g id="node13" class="node">
<title>18</title>
<g id="a_node13"><a xlink:title="LiteralEntry">
<polygon fill="#ffffff" stroke="black" points="562,-252 458,-252 458,-216 562,-216 562,-252"/>
<text text-anchor="middle" x="510" y="-230.3" font-family="Times,serif" font-size="14.00">LiteralEntry</text>
</a>
</g>
</g>
<!-- 16&#45;&gt;18 -->
<g id="edge8" class="edge">
<title>16&#45;&gt;18</title>
<g id="a_edge8"><a xlink:title="usage">
<path fill="none" stroke="#1414ce" d="M528.82,-287.7C526,-279.81 522.61,-270.3 519.48,-261.55"/>
<polygon fill="#1414ce" stroke="#1414ce" points="522.77,-260.34 516.11,-252.1 516.18,-262.7 522.77,-260.34"/>
</a>
</g>
</g>
<!-- 17 -->
<g id="node20" class="node">
<title>17</title>
<g id="a_node20"><a xlink:title="ExportedFunction">
<polygon fill="#ffffff" stroke="black" points="726,-252 580,-252 580,-216 726,-216 726,-252"/>
<text text-anchor="middle" x="653" y="-230.3" font-family="Times,serif" font-size="14.00">ExportedFunction</text>
</a>
</g>
</g>
<!-- 16&#45;&gt;17 -->
<g id="edge7" class="edge">
<title>16&#45;&gt;17</title>
<g id="a_edge7"><a xlink:title="usage">
<path fill="none" stroke="#1414ce" d="M563.87,-287.88C579.29,-278.72 598.48,-267.34 615.1,-257.48"/>
<polygon fill="#1414ce" stroke="#1414ce" points="617.21,-260.3 624.02,-252.19 613.64,-254.28 617.21,-260.3"/>
</a>
</g>
</g>
<!-- 5&#45;&gt;5 -->
<g id="edge10" class="edge">
<title>5&#45;&gt;5</title>
<g id="a_edge10"><a xlink:title="usage">
<path fill="none" stroke="#1414ce" d="M334.73,-31.31C344.9,-30.38 352.5,-25.95 352.5,-18 352.5,-12.91 349.38,-9.26 344.47,-7.05"/>
<polygon fill="#1414ce" stroke="#1414ce" points="345.28,-3.64 334.73,-4.69 343.63,-10.45 345.28,-3.64"/>
</a>
</g>
</g>
<!-- 13 -->
<g id="node6" class="node">
<title>13</title>
<g id="a_node6"><a xlink:title="HeapFragment">
<polygon fill="#ffffff" stroke="black" points="1098.5,-36 973.5,-36 973.5,0 1098.5,0 1098.5,-36"/>
<text text-anchor="middle" x="1036" y="-14.3" font-family="Times,serif" font-size="14.00">HeapFragment</text>
</a>
</g>
</g>
<!-- 13&#45;&gt;13 -->
<g id="edge11" class="edge">
<title>13&#45;&gt;13</title>
<g id="a_edge11"><a xlink:title="usage">
<path fill="none" stroke="#1414ce" d="M1098.78,-30.55C1109.26,-28.79 1116.5,-24.61 1116.5,-18 1116.5,-13.77 1113.53,-10.53 1108.64,-8.29"/>
<polygon fill="#1414ce" stroke="#1414ce" points="1109.36,-4.85 1098.78,-5.45 1107.42,-11.58 1109.36,-4.85"/>
</a>
</g>
</g>
<!-- 9 -->
<g id="node14" class="node">
<title>9</title>
<g id="a_node14"><a xlink:title="MailboxMessage">
<polygon fill="#ffffff" stroke="black" points="459.5,-180 322.5,-180 322.5,-144 459.5,-144 459.5,-180"/>
<text text-anchor="middle" x="391" y="-158.3" font-family="Times,serif" font-size="14.00">MailboxMessage</text>
</a>
</g>
</g>
<!-- 22&#45;&gt;9 -->
<g id="edge12" class="edge">
<title>22&#45;&gt;9</title>
<g id="a_edge12"><a xlink:title="usage">
<path fill="none" stroke="#1414ce" d="M369.17,-215.7C372.43,-207.81 376.37,-198.3 380,-189.55"/>
<polygon fill="#1414ce" stroke="#1414ce" points="383.32,-190.68 383.91,-180.1 376.85,-188 383.32,-190.68"/>
</a>
</g>
</g>
<!-- 15 -->
<g id="node8" class="node">
<title>15</title>
<g id="a_node8"><a xlink:title="RefcBinaryQueueItem">
<polygon fill="#ffffff" stroke="black" points="342,-324 168,-324 168,-288 342,-288 342,-324"/>
<text text-anchor="middle" x="255" y="-302.3" font-family="Times,serif" font-size="14.00">RefcBinaryQueueItem</text>
</a>
</g>
</g>
<!-- 15&#45;&gt;15 -->
<g id="edge14" class="edge">
<title>15&#45;&gt;15</title>
<g id="a_edge14"><a xlink:title="usage">
<path fill="none" stroke="#1414ce" d="M342.3,-317.68C352.99,-315.59 360,-311.7 360,-306 360,-302.35 357.12,-299.44 352.25,-297.27"/>
<polygon fill="#1414ce" stroke="#1414ce" points="352.88,-293.81 342.3,-294.32 350.89,-300.52 352.88,-293.81"/>
</a>
</g>
</g>
<!-- 15&#45;&gt;2 -->
<g id="edge13" class="edge">
<title>15&#45;&gt;2</title>
<g id="a_edge13"><a xlink:title="usage">
<path fill="none" stroke="#1414ce" d="M245.85,-287.7C241.6,-279.64 236.44,-269.89 231.73,-260.98"/>
<polygon fill="#1414ce" stroke="#1414ce" points="234.81,-259.31 227.04,-252.1 228.62,-262.58 234.81,-259.31"/>
</a>
</g>
</g>
<!-- 6&#45;&gt;21 -->
<g id="edge24" class="edge">
<title>6&#45;&gt;21</title>
<g id="a_edge24"><a xlink:title="usage">
<path fill="none" stroke="#1414ce" d="M660.76,-365.44C710.15,-355.54 781.99,-340.31 844,-324 845.42,-323.63 846.86,-323.24 848.31,-322.84"/>
<polygon fill="#1414ce" stroke="#1414ce" points="849.3,-326.2 857.96,-320.1 847.39,-319.47 849.3,-326.2"/>
</a>
</g>
</g>
<!-- 6&#45;&gt;3 -->
<g id="edge15" class="edge">
<title>6&#45;&gt;3</title>
<g id="a_edge15"><a xlink:title="usage">
<path fill="none" stroke="#1414ce" d="M541.41,-374.43C424.65,-368.59 175.33,-352.54 150,-324 117.21,-287.04 134.36,-224.57 151.14,-189.29"/>
<polygon fill="#1414ce" stroke="#1414ce" points="154.4,-190.61 155.82,-180.11 148.16,-187.43 154.4,-190.61"/>
</a>
</g>
</g>
<!-- 6&#45;&gt;16 -->
<g id="edge21" class="edge">
<title>6&#45;&gt;16</title>
<g id="a_edge21"><a xlink:title="usage">
<path fill="none" stroke="#1414ce" d="M584.69,-359.7C576.69,-351.22 566.93,-340.86 558.18,-331.58"/>
<polygon fill="#1414ce" stroke="#1414ce" points="560.53,-328.98 551.13,-324.1 555.44,-333.78 560.53,-328.98"/>
</a>
</g>
</g>
<!-- 6&#45;&gt;5 -->
<g id="edge25" class="edge">
<title>6&#45;&gt;5</title>
<g id="a_edge25"><a xlink:title="usage">
<path fill="none" stroke="#1414ce" d="M660.64,-374.48C702.84,-369.71 758.23,-357 795,-324 826.63,-295.61 830,-277.5 830,-235 830,-235 830,-235 830,-161 830,-98.11 777.87,-96.61 720,-72 653.41,-43.69 442.75,-27.83 344.89,-21.83"/>
<polygon fill="#1414ce" stroke="#1414ce" points="344.84,-18.32 334.65,-21.21 344.42,-25.31 344.84,-18.32"/>
</a>
</g>
</g>
<!-- 6&#45;&gt;15 -->
<g id="edge19" class="edge">
<title>6&#45;&gt;15</title>
<g id="a_edge19"><a xlink:title="usage">
<path fill="none" stroke="#1414ce" d="M541.13,-364.89C488.27,-354.19 410.32,-338.42 349.12,-326.04"/>
<polygon fill="#1414ce" stroke="#1414ce" points="349.56,-322.56 339.07,-324.01 348.17,-329.42 349.56,-322.56"/>
</a>
</g>
</g>
<!-- 7 -->
<g id="node10" class="node">
<title>7</title>
<g id="a_node10"><a xlink:title="Ets">
<polygon fill="#ffffff" stroke="black" points="54,-180 0,-180 0,-144 54,-144 54,-180"/>
<text text-anchor="middle" x="27" y="-158.3" font-family="Times,serif" font-size="14.00">Ets</text>
</a>
</g>
</g>
<!-- 6&#45;&gt;7 -->
<g id="edge16" class="edge">
<title>6&#45;&gt;7</title>
<g id="a_edge16"><a xlink:title="usage">
<path fill="none" stroke="#1414ce" d="M541.2,-374.87C409.5,-369.65 103.3,-354.35 68,-324 29.45,-290.85 24.55,-227.02 25.24,-190.48"/>
<polygon fill="#1414ce" stroke="#1414ce" points="28.75,-190.19 25.6,-180.08 21.75,-189.95 28.75,-190.19"/>
</a>
</g>
</g>
<!-- 20 -->
<g id="node12" class="node">
<title>20</title>
<g id="a_node12"><a xlink:title="TimerList">
<polygon fill="#ffffff" stroke="black" points="711,-108 625,-108 625,-72 711,-72 711,-108"/>
<text text-anchor="middle" x="668" y="-86.3" font-family="Times,serif" font-size="14.00">TimerList</text>
</a>
</g>
</g>
<!-- 6&#45;&gt;20 -->
<g id="edge23" class="edge">
<title>6&#45;&gt;20</title>
<g id="a_edge23"><a xlink:title="usage">
<path fill="none" stroke="#1414ce" d="M660.62,-375.71C699.41,-371.38 747.39,-358.69 773,-324 823.32,-255.84 740.15,-159.72 694.64,-115.28"/>
<polygon fill="#1414ce" stroke="#1414ce" points="696.79,-112.5 687.15,-108.1 691.95,-117.55 696.79,-112.5"/>
</a>
</g>
</g>
<!-- 8 -->
<g id="node16" class="node">
<title>8</title>
<g id="a_node16"><a xlink:title="MessageQueueItem">
<polygon fill="#ffffff" stroke="black" points="746,-324 588,-324 588,-288 746,-288 746,-324"/>
<text text-anchor="middle" x="667" y="-302.3" font-family="Times,serif" font-size="14.00">MessageQueueItem</text>
</a>
</g>
</g>
<!-- 6&#45;&gt;8 -->
<g id="edge17" class="edge">
<title>6&#45;&gt;8</title>
<g id="a_edge17"><a xlink:title="usage">
<path fill="none" stroke="#1414ce" d="M617.31,-359.7C625.31,-351.22 635.07,-340.86 643.82,-331.58"/>
<polygon fill="#1414ce" stroke="#1414ce" points="646.56,-333.78 650.87,-324.1 641.47,-328.98 646.56,-333.78"/>
</a>
</g>
</g>
<!-- 19 -->
<g id="node17" class="node">
<title>19</title>
<g id="a_node17"><a xlink:title="AtomsHashTable">
<polygon fill="#ffffff" stroke="black" points="1205.5,-324 1068.5,-324 1068.5,-288 1205.5,-288 1205.5,-324"/>
<text text-anchor="middle" x="1137" y="-302.3" font-family="Times,serif" font-size="14.00">AtomsHashTable</text>
</a>
</g>
</g>
<!-- 6&#45;&gt;19 -->
<g id="edge22" class="edge">
<title>6&#45;&gt;19</title>
<g id="a_edge22"><a xlink:title="usage">
<path fill="none" stroke="#1414ce" d="M660.55,-372.01C746.22,-364.42 909.34,-348.39 1057.95,-324.08"/>
<polygon fill="#1414ce" stroke="#1414ce" points="1058.87,-327.47 1068.17,-322.39 1057.73,-320.57 1058.87,-327.47"/>
</a>
</g>
</g>
<!-- 10 -->
<g id="node19" class="node">
<title>10</title>
<g id="a_node19"><a xlink:title="AtomTable">
<polygon fill="#ffffff" stroke="black" points="1050,-324 958,-324 958,-288 1050,-288 1050,-324"/>
<text text-anchor="middle" x="1004" y="-302.3" font-family="Times,serif" font-size="14.00">AtomTable</text>
</a>
</g>
</g>
<!-- 6&#45;&gt;10 -->
<g id="edge18" class="edge">
<title>6&#45;&gt;10</title>
<g id="a_edge18"><a xlink:title="usage">
<path fill="none" stroke="#1414ce" d="M660.62,-370.65C728.22,-362.85 841.79,-347.89 948,-324.05"/>
<polygon fill="#1414ce" stroke="#1414ce" points="948.95,-327.42 957.92,-321.79 947.39,-320.59 948.95,-327.42"/>
</a>
</g>
</g>
<!-- 6&#45;&gt;4 -->
<g id="edge20" class="edge">
<title>6&#45;&gt;4</title>
<g id="a_edge20"><a xlink:title="usage">
<path fill="none" stroke="#1414ce" d="M541.24,-373.87C423.19,-367.16 168.87,-349.86 139,-324 79.63,-272.61 87.25,-167.77 94.86,-118.17"/>
<polygon fill="#1414ce" stroke="#1414ce" points="98.34,-118.62 96.51,-108.18 91.43,-117.48 98.34,-118.62"/>
</a>
</g>
</g>
<!-- 7&#45;&gt;4 -->
<g id="edge26" class="edge">
<title>7&#45;&gt;4</title>
<g id="a_edge26"><a xlink:title="usage">
<path fill="none" stroke="#1414ce" d="M45.04,-143.7C54.06,-135.05 65.12,-124.45 74.94,-115.03"/>
<polygon fill="#1414ce" stroke="#1414ce" points="77.37,-117.55 82.16,-108.1 72.52,-112.5 77.37,-117.55"/>
</a>
</g>
</g>
<!-- 14 -->
<g id="node11" class="node">
<title>14</title>
<g id="a_node11"><a xlink:title="HNodeGroup">
<polygon fill="#ffffff" stroke="black" points="1091,-252 981,-252 981,-216 1091,-216 1091,-252"/>
<text text-anchor="middle" x="1036" y="-230.3" font-family="Times,serif" font-size="14.00">HNodeGroup</text>
</a>
</g>
</g>
<!-- 14&#45;&gt;14 -->
<g id="edge28" class="edge">
<title>14&#45;&gt;14</title>
<g id="a_edge28"><a xlink:title="usage">
<path fill="none" stroke="#1414ce" d="M1091.07,-246.85C1101.57,-245.32 1109,-241.03 1109,-234 1109,-229.5 1105.95,-226.12 1101,-223.87"/>
<polygon fill="#1414ce" stroke="#1414ce" points="1101.64,-220.42 1091.07,-221.15 1099.79,-227.17 1101.64,-220.42"/>
</a>
</g>
</g>
<!-- 11 -->
<g id="node22" class="node">
<title>11</title>
<g id="a_node22"><a xlink:title="HNode">
<polygon fill="#ffffff" stroke="black" points="1069,-180 1003,-180 1003,-144 1069,-144 1069,-180"/>
<text text-anchor="middle" x="1036" y="-158.3" font-family="Times,serif" font-size="14.00">HNode</text>
</a>
</g>
</g>
<!-- 14&#45;&gt;11 -->
<g id="edge27" class="edge">
<title>14&#45;&gt;11</title>
<g id="a_edge27"><a xlink:title="usage">
<path fill="none" stroke="#1414ce" d="M1036,-215.7C1036,-207.98 1036,-198.71 1036,-190.11"/>
<polygon fill="#1414ce" stroke="#1414ce" points="1039.5,-190.1 1036,-180.1 1032.5,-190.1 1039.5,-190.1"/>
</a>
</g>
</g>
<!-- 20&#45;&gt;5 -->
<g id="edge29" class="edge">
<title>20&#45;&gt;5</title>
<g id="a_edge29"><a xlink:title="usage">
<path fill="none" stroke="#1414ce" d="M624.73,-80.9C555.13,-67.87 418.64,-42.33 344.62,-28.47"/>
<polygon fill="#1414ce" stroke="#1414ce" points="345.08,-25 334.6,-26.6 343.79,-31.88 345.08,-25"/>
</a>
</g>
</g>
<!-- 9&#45;&gt;9 -->
<g id="edge30" class="edge">
<title>9&#45;&gt;9</title>
<g id="a_edge30"><a xlink:title="usage">
<path fill="none" stroke="#1414ce" d="M459.53,-174.37C470.21,-172.52 477.5,-168.4 477.5,-162 477.5,-157.8 474.36,-154.58 469.18,-152.34"/>
<polygon fill="#1414ce" stroke="#1414ce" points="470.1,-148.96 459.53,-149.63 468.21,-155.7 470.1,-148.96"/>
</a>
</g>
</g>
<!-- 12 -->
<g id="node15" class="node">
<title>12</title>
<g id="a_node15"><a xlink:title="Heap">
<polygon fill="#ffffff" stroke="black" points="1063,-108 1009,-108 1009,-72 1063,-72 1063,-108"/>
<text text-anchor="middle" x="1036" y="-86.3" font-family="Times,serif" font-size="14.00">Heap</text>
</a>
</g>
</g>
<!-- 12&#45;&gt;13 -->
<g id="edge31" class="edge">
<title>12&#45;&gt;13</title>
<g id="a_edge31"><a xlink:title="usage">
<path fill="none" stroke="#1414ce" d="M1036,-71.7C1036,-63.98 1036,-54.71 1036,-46.11"/>
<polygon fill="#1414ce" stroke="#1414ce" points="1039.5,-46.1 1036,-36.1 1032.5,-46.1 1039.5,-46.1"/>
</a>
</g>
</g>
<!-- 8&#45;&gt;9 -->
<g id="edge32" class="edge">
<title>8&#45;&gt;9</title>
<g id="a_edge32"><a xlink:title="usage">
<path fill="none" stroke="#1414ce" d="M700.36,-287.86C713.71,-279.09 727.64,-267.06 735,-252 742.02,-237.62 745.42,-228.14 735,-216 701.57,-177.03 560.92,-166.44 470.14,-163.73"/>
<polygon fill="#1414ce" stroke="#1414ce" points="469.97,-160.22 459.88,-163.45 469.78,-167.22 469.97,-160.22"/>
</a>
</g>
</g>
<!-- 8&#45;&gt;8 -->
<g id="edge33" class="edge">
<title>8&#45;&gt;8</title>
<g id="a_edge33"><a xlink:title="usage">
<path fill="none" stroke="#1414ce" d="M746.16,-317.98C756.87,-315.97 764,-311.98 764,-306 764,-302.08 760.93,-299.01 755.79,-296.8"/>
<polygon fill="#1414ce" stroke="#1414ce" points="756.74,-293.43 746.16,-294.02 754.8,-300.15 756.74,-293.43"/>
</a>
</g>
</g>
<!-- 19&#45;&gt;11 -->
<g id="edge34" class="edge">
<title>19&#45;&gt;11</title>
<g id="a_edge34"><a xlink:title="usage">
<path fill="none" stroke="#1414ce" d="M1137.13,-287.74C1136.46,-268.6 1132.89,-237.59 1118,-216 1108.12,-201.67 1092.97,-190.31 1078.37,-181.84"/>
<polygon fill="#1414ce" stroke="#1414ce" points="1079.86,-178.66 1069.4,-176.94 1076.5,-184.81 1079.86,-178.66"/>
</a>
</g>
</g>
<!-- 2&#45;&gt;3 -->
<g id="edge35" class="edge">
<title>2&#45;&gt;3</title>
<g id="a_edge35"><a xlink:title="usage">
<path fill="none" stroke="#1414ce" d="M205.89,-215.7C200.13,-207.47 193.14,-197.48 186.79,-188.42"/>
<polygon fill="#1414ce" stroke="#1414ce" points="189.58,-186.29 180.97,-180.1 183.84,-190.3 189.58,-186.29"/>
</a>
</g>
</g>
<!-- 2&#45;&gt;5 -->
<g id="edge36" class="edge">
<title>2&#45;&gt;5</title>
<g id="a_edge36"><a xlink:title="usage">
<path fill="none" stroke="#1414ce" d="M224.09,-215.85C237.29,-178.68 268.63,-90.44 284.48,-45.82"/>
<polygon fill="#1414ce" stroke="#1414ce" points="287.83,-46.83 287.88,-36.23 281.24,-44.48 287.83,-46.83"/>
</a>
</g>
</g>
<!-- 10&#45;&gt;14 -->
<g id="edge38" class="edge">
<title>10&#45;&gt;14</title>
<g id="a_edge38"><a xlink:title="usage">
<path fill="none" stroke="#1414ce" d="M1011.91,-287.7C1015.55,-279.73 1019.95,-270.1 1023.99,-261.26"/>
<polygon fill="#1414ce" stroke="#1414ce" points="1027.21,-262.65 1028.18,-252.1 1020.84,-259.74 1027.21,-262.65"/>
</a>
</g>
</g>
<!-- 10&#45;&gt;11 -->
<g id="edge37" class="edge">
<title>10&#45;&gt;11</title>
<g id="a_edge37"><a xlink:title="usage">
<path fill="none" stroke="#1414ce" d="M989.89,-287.89C976.7,-269.68 960.61,-240.22 972,-216 977.52,-204.26 987.07,-194.22 997.12,-186.15"/>
<polygon fill="#1414ce" stroke="#1414ce" points="999.31,-188.88 1005.23,-180.09 995.12,-183.27 999.31,-188.88"/>
</a>
</g>
</g>
<!-- 4&#45;&gt;5 -->
<g id="edge39" class="edge">
<title>4&#45;&gt;5</title>
<g id="a_edge39"><a xlink:title="usage">
<path fill="none" stroke="#1414ce" d="M139.26,-74.83C169.36,-63.97 211.13,-48.9 243.68,-37.16"/>
<polygon fill="#1414ce" stroke="#1414ce" points="245.25,-40.31 253.46,-33.63 242.87,-33.73 245.25,-40.31"/>
</a>
</g>
</g>
<!-- 11&#45;&gt;12 -->
<g id="edge41" class="edge">
<title>11&#45;&gt;12</title>
<g id="a_edge41"><a xlink:title="usage">
<path fill="none" stroke="#1414ce" d="M1036,-143.7C1036,-135.98 1036,-126.71 1036,-118.11"/>
<polygon fill="#1414ce" stroke="#1414ce" points="1039.5,-118.1 1036,-108.1 1032.5,-118.1 1039.5,-118.1"/>
</a>
</g>
</g>
<!-- 11&#45;&gt;11 -->
<g id="edge40" class="edge">
<title>11&#45;&gt;11</title>
<g id="a_edge40"><a xlink:title="usage">
<path fill="none" stroke="#1414ce" d="M1069.35,-175.47C1079.28,-175.07 1087,-170.58 1087,-162 1087,-156.64 1083.98,-152.87 1079.3,-150.71"/>
<polygon fill="#1414ce" stroke="#1414ce" points="1079.87,-147.25 1069.35,-148.53 1078.37,-154.09 1079.87,-147.25"/>
</a>
</g>
</g>
</g>
</svg>
