<?xml version="1.0" encoding="UTF-8" standalone="no"?>
<!DOCTYPE svg PUBLIC "-//W3C//DTD SVG 1.1//EN"
 "http://www.w3.org/Graphics/SVG/1.1/DTD/svg11.dtd">
<!-- Generated by graphviz version 2.43.0 (0)
 -->
<!-- Title: %3 Pages: 1 -->
<svg width="1420pt" height="476pt"
 viewBox="0.00 0.00 1420.26 476.00" xmlns="http://www.w3.org/2000/svg" xmlns:xlink="http://www.w3.org/1999/xlink">
<g id="graph0" class="graph" transform="scale(1 1) rotate(0) translate(4 472)">
<title>%3</title>
<polygon fill="transparent" stroke="transparent" points="-4,4 -4,-472 1416.26,-472 1416.26,4 -4,4"/>
<!-- 23 -->
<g id="node1" class="node">
<title>23</title>
<g id="a_node1"><a xlink:title="SpinLock">
<polygon fill="#ffffff" stroke="black" points="818.76,-324 736.76,-324 736.76,-288 818.76,-288 818.76,-324"/>
<text text-anchor="middle" x="777.76" y="-302.3" font-family="Times,serif" font-size="14.00">SpinLock</text>
</a>
</g>
</g>
<!-- 12 -->
<g id="node2" class="node">
<title>12</title>
<g id="a_node2"><a xlink:title="ResourceType">
<polygon fill="#ffffff" stroke="black" points="567.26,-180 450.26,-180 450.26,-144 567.26,-144 567.26,-180"/>
<text text-anchor="middle" x="508.76" y="-158.3" font-family="Times,serif" font-size="14.00">ResourceType</text>
</a>
</g>
</g>
<!-- 5 -->
<g id="node4" class="node">
<title>5</title>
<g id="a_node4"><a xlink:title="ListHead">
<polygon fill="#ffffff" stroke="black" points="614.26,-36 533.26,-36 533.26,0 614.26,0 614.26,-36"/>
<text text-anchor="middle" x="573.76" y="-14.3" font-family="Times,serif" font-size="14.00">ListHead</text>
</a>
</g>
</g>
<!-- 12&#45;&gt;5 -->
<g id="edge3" class="edge">
<title>12&#45;&gt;5</title>
<g id="a_edge3"><a xlink:title="usage">
<path fill="none" stroke="#1414ce" d="M516.61,-143.87C527.78,-119.46 548.39,-74.43 561.57,-45.64"/>
<polygon fill="#1414ce" stroke="#1414ce" points="564.92,-46.74 565.9,-36.19 558.55,-43.83 564.92,-46.74"/>
</a>
</g>
</g>
<!-- 11 -->
<g id="node7" class="node">
<title>11</title>
<g id="a_node7"><a xlink:title="GlobalContext">
<polygon fill="#ffffff" stroke="black" points="558.26,-396 439.26,-396 439.26,-360 558.26,-360 558.26,-396"/>
<text text-anchor="middle" x="498.76" y="-374.3" font-family="Times,serif" font-size="14.00">GlobalContext</text>
</a>
</g>
</g>
<!-- 12&#45;&gt;11 -->
<g id="edge2" class="edge">
<title>12&#45;&gt;11</title>
<g id="a_edge2"><a xlink:title="usage">
<path fill="none" stroke="#1414ce" d="M508.48,-180.36C502.9,-209.84 486.96,-271.59 493.76,-324 494.87,-332.49 496.93,-341.57 498.74,-349.76"/>
<polygon fill="#1414ce" stroke="#1414ce" points="495.32,-350.5 500.82,-359.56 502.17,-349.05 495.32,-350.5"/>
</a>
</g>
</g>
<!-- 13 -->
<g id="node22" class="node">
<title>13</title>
<g id="a_node22"><a xlink:title="SyncList">
<polygon fill="#ffffff" stroke="black" points="489.76,-108 411.76,-108 411.76,-72 489.76,-72 489.76,-108"/>
<text text-anchor="middle" x="450.76" y="-86.3" font-family="Times,serif" font-size="14.00">SyncList</text>
</a>
</g>
</g>
<!-- 12&#45;&gt;13 -->
<g id="edge1" class="edge">
<title>12&#45;&gt;13</title>
<g id="a_edge1"><a xlink:title="usage">
<path fill="none" stroke="#1414ce" d="M494.43,-143.7C487.47,-135.3 478.99,-125.07 471.36,-115.86"/>
<polygon fill="#1414ce" stroke="#1414ce" points="474.01,-113.57 464.94,-108.1 468.62,-118.04 474.01,-113.57"/>
</a>
</g>
</g>
<!-- 6 -->
<g id="node3" class="node">
<title>6</title>
<g id="a_node3"><a xlink:title="Module">
<polygon fill="#ffffff" stroke="black" points="245.76,-324 175.76,-324 175.76,-288 245.76,-288 245.76,-324"/>
<text text-anchor="middle" x="210.76" y="-302.3" font-family="Times,serif" font-size="14.00">Module</text>
</a>
</g>
</g>
<!-- 6&#45;&gt;5 -->
<g id="edge6" class="edge">
<title>6&#45;&gt;5</title>
<g id="a_edge6"><a xlink:title="usage">
<path fill="none" stroke="#1414ce" d="M175.75,-303.33C107.82,-298.62 -31.95,-280.98 6.76,-216 75.57,-100.51 145.81,-116.23 272.76,-72 357.55,-42.46 461.76,-28.82 522.67,-22.96"/>
<polygon fill="#1414ce" stroke="#1414ce" points="523.16,-26.43 532.8,-22.02 522.51,-19.46 523.16,-26.43"/>
</a>
</g>
</g>
<!-- 8 -->
<g id="node11" class="node">
<title>8</title>
<g id="a_node11"><a xlink:title="LiteralEntry">
<polygon fill="#ffffff" stroke="black" points="119.76,-252 15.76,-252 15.76,-216 119.76,-216 119.76,-252"/>
<text text-anchor="middle" x="67.76" y="-230.3" font-family="Times,serif" font-size="14.00">LiteralEntry</text>
</a>
</g>
</g>
<!-- 6&#45;&gt;8 -->
<g id="edge5" class="edge">
<title>6&#45;&gt;8</title>
<g id="a_edge5"><a xlink:title="usage">
<path fill="none" stroke="#1414ce" d="M175.78,-287.88C156.57,-278.47 132.54,-266.71 112.03,-256.67"/>
<polygon fill="#1414ce" stroke="#1414ce" points="113.4,-253.44 102.88,-252.19 110.32,-259.73 113.4,-253.44"/>
</a>
</g>
</g>
<!-- 7 -->
<g id="node20" class="node">
<title>7</title>
<g id="a_node20"><a xlink:title="ExportedFunction">
<polygon fill="#ffffff" stroke="black" points="283.76,-252 137.76,-252 137.76,-216 283.76,-216 283.76,-252"/>
<text text-anchor="middle" x="210.76" y="-230.3" font-family="Times,serif" font-size="14.00">ExportedFunction</text>
</a>
</g>
</g>
<!-- 6&#45;&gt;7 -->
<g id="edge4" class="edge">
<title>6&#45;&gt;7</title>
<g id="a_edge4"><a xlink:title="usage">
<path fill="none" stroke="#1414ce" d="M210.76,-287.7C210.76,-279.98 210.76,-270.71 210.76,-262.11"/>
<polygon fill="#1414ce" stroke="#1414ce" points="214.27,-262.1 210.76,-252.1 207.27,-262.1 214.27,-262.1"/>
</a>
</g>
</g>
<!-- 5&#45;&gt;5 -->
<g id="edge7" class="edge">
<title>5&#45;&gt;5</title>
<g id="a_edge7"><a xlink:title="usage">
<path fill="none" stroke="#1414ce" d="M614.5,-31.31C624.67,-30.38 632.26,-25.95 632.26,-18 632.26,-12.91 629.15,-9.26 624.23,-7.05"/>
<polygon fill="#1414ce" stroke="#1414ce" points="625.04,-3.64 614.5,-4.69 623.39,-10.45 625.04,-3.64"/>
</a>
</g>
</g>
<!-- 10 -->
<g id="node5" class="node">
<title>10</title>
<g id="a_node5"><a xlink:title="HeapFragment">
<polygon fill="#ffffff" stroke="black" points="1344.26,-36 1219.26,-36 1219.26,0 1344.26,0 1344.26,-36"/>
<text text-anchor="middle" x="1281.76" y="-14.3" font-family="Times,serif" font-size="14.00">HeapFragment</text>
</a>
</g>
</g>
<!-- 10&#45;&gt;10 -->
<g id="edge8" class="edge">
<title>10&#45;&gt;10</title>
<g id="a_edge8"><a xlink:title="usage">
<path fill="none" stroke="#1414ce" d="M1344.54,-30.55C1355.03,-28.79 1362.26,-24.61 1362.26,-18 1362.26,-13.77 1359.3,-10.53 1354.4,-8.29"/>
<polygon fill="#1414ce" stroke="#1414ce" points="1355.12,-4.85 1344.54,-5.45 1353.19,-11.58 1355.12,-4.85"/>
</a>
</g>
</g>
<!-- 19 -->
<g id="node6" class="node">
<title>19</title>
<g id="a_node6"><a xlink:title="RefcBinaryQueueItem">
<polygon fill="#ffffff" stroke="black" points="700.76,-324 526.76,-324 526.76,-288 700.76,-288 700.76,-324"/>
<text text-anchor="middle" x="613.76" y="-302.3" font-family="Times,serif" font-size="14.00">RefcBinaryQueueItem</text>
</a>
</g>
</g>
<!-- 19&#45;&gt;19 -->
<g id="edge10" class="edge">
<title>19&#45;&gt;19</title>
<g id="a_edge10"><a xlink:title="usage">
<path fill="none" stroke="#1414ce" d="M701.07,-317.68C711.76,-315.59 718.76,-311.7 718.76,-306 718.76,-302.35 715.89,-299.44 711.01,-297.27"/>
<polygon fill="#1414ce" stroke="#1414ce" points="711.65,-293.81 701.07,-294.32 709.66,-300.52 711.65,-293.81"/>
</a>
</g>
</g>
<!-- 20 -->
<g id="node17" class="node">
<title>20</title>
<g id="a_node17"><a xlink:title="RefcBinary">
<polygon fill="#ffffff" stroke="black" points="661.26,-252 566.26,-252 566.26,-216 661.26,-216 661.26,-252"/>
<text text-anchor="middle" x="613.76" y="-230.3" font-family="Times,serif" font-size="14.00">RefcBinary</text>
</a>
</g>
</g>
<!-- 19&#45;&gt;20 -->
<g id="edge9" class="edge">
<title>19&#45;&gt;20</title>
<g id="a_edge9"><a xlink:title="usage">
<path fill="none" stroke="#1414ce" d="M613.76,-287.7C613.76,-279.98 613.76,-270.71 613.76,-262.11"/>
<polygon fill="#1414ce" stroke="#1414ce" points="617.27,-262.1 613.76,-252.1 610.27,-262.1 617.27,-262.1"/>
</a>
</g>
</g>
<!-- 11&#45;&gt;23 -->
<g id="edge20" class="edge">
<title>11&#45;&gt;23</title>
<g id="a_edge20"><a xlink:title="usage">
<path fill="none" stroke="#1414ce" d="M558.49,-364.89C602.68,-355.54 664.47,-341.65 727.03,-324.07"/>
<polygon fill="#1414ce" stroke="#1414ce" points="728,-327.44 736.67,-321.34 726.09,-320.7 728,-327.44"/>
</a>
</g>
</g>
<!-- 11&#45;&gt;12 -->
<g id="edge11" class="edge">
<title>11&#45;&gt;12</title>
<g id="a_edge11"><a xlink:title="usage">
<path fill="none" stroke="#1414ce" d="M485.07,-359.56C480.83,-349.33 477.33,-336.08 475.76,-324 469.62,-276.71 482.01,-221.81 493.74,-189.88"/>
<polygon fill="#1414ce" stroke="#1414ce" points="497.08,-190.95 497.5,-180.36 490.57,-188.38 497.08,-190.95"/>
</a>
</g>
</g>
<!-- 11&#45;&gt;6 -->
<g id="edge17" class="edge">
<title>11&#45;&gt;6</title>
<g id="a_edge17"><a xlink:title="usage">
<path fill="none" stroke="#1414ce" d="M439.09,-362.5C384.53,-349.23 305.02,-329.91 255.67,-317.91"/>
<polygon fill="#1414ce" stroke="#1414ce" points="256.46,-314.5 245.91,-315.54 254.8,-321.31 256.46,-314.5"/>
</a>
</g>
</g>
<!-- 11&#45;&gt;5 -->
<g id="edge21" class="edge">
<title>11&#45;&gt;5</title>
<g id="a_edge21"><a xlink:title="usage">
<path fill="none" stroke="#1414ce" d="M500.92,-359.86C503.56,-341.63 508.81,-312.15 517.76,-288 520.14,-281.59 575.07,-186.62 576.76,-180 580.72,-164.5 576.96,-160 576.76,-144 576.36,-110.53 575.36,-72.04 574.62,-46.71"/>
<polygon fill="#1414ce" stroke="#1414ce" points="578.11,-46.28 574.31,-36.39 571.11,-46.49 578.11,-46.28"/>
</a>
</g>
</g>
<!-- 11&#45;&gt;19 -->
<g id="edge15" class="edge">
<title>11&#45;&gt;19</title>
<g id="a_edge15"><a xlink:title="usage">
<path fill="none" stroke="#1414ce" d="M526.9,-359.88C541.93,-350.72 560.63,-339.34 576.83,-329.48"/>
<polygon fill="#1414ce" stroke="#1414ce" points="578.8,-332.38 585.52,-324.19 575.16,-326.4 578.8,-332.38"/>
</a>
</g>
</g>
<!-- 14 -->
<g id="node8" class="node">
<title>14</title>
<g id="a_node8"><a xlink:title="Ets">
<polygon fill="#ffffff" stroke="black" points="431.76,-180 377.76,-180 377.76,-144 431.76,-144 431.76,-180"/>
<text text-anchor="middle" x="404.76" y="-158.3" font-family="Times,serif" font-size="14.00">Ets</text>
</a>
</g>
</g>
<!-- 11&#45;&gt;14 -->
<g id="edge12" class="edge">
<title>11&#45;&gt;14</title>
<g id="a_edge12"><a xlink:title="usage">
<path fill="none" stroke="#1414ce" d="M491.23,-359.85C474.87,-322.6 435.98,-234.07 416.42,-189.54"/>
<polygon fill="#1414ce" stroke="#1414ce" points="419.56,-187.98 412.33,-180.23 413.15,-190.8 419.56,-187.98"/>
</a>
</g>
</g>
<!-- 22 -->
<g id="node10" class="node">
<title>22</title>
<g id="a_node10"><a xlink:title="TimerList">
<polygon fill="#ffffff" stroke="black" points="367.76,-108 281.76,-108 281.76,-72 367.76,-72 367.76,-108"/>
<text text-anchor="middle" x="324.76" y="-86.3" font-family="Times,serif" font-size="14.00">TimerList</text>
</a>
</g>
</g>
<!-- 11&#45;&gt;22 -->
<g id="edge19" class="edge">
<title>11&#45;&gt;22</title>
<g id="a_edge19"><a xlink:title="usage">
<path fill="none" stroke="#1414ce" d="M466.21,-359.85C450.85,-350.65 433.03,-338.28 419.76,-324 363.62,-263.59 338.62,-165.56 329.36,-118.25"/>
<polygon fill="#1414ce" stroke="#1414ce" points="332.75,-117.35 327.48,-108.16 325.87,-118.63 332.75,-117.35"/>
</a>
</g>
</g>
<!-- 15 -->
<g id="node15" class="node">
<title>15</title>
<g id="a_node15"><a xlink:title="MessageQueueItem">
<polygon fill="#ffffff" stroke="black" points="1142.76,-324 984.76,-324 984.76,-288 1142.76,-288 1142.76,-324"/>
<text text-anchor="middle" x="1063.76" y="-302.3" font-family="Times,serif" font-size="14.00">MessageQueueItem</text>
</a>
</g>
</g>
<!-- 11&#45;&gt;15 -->
<g id="edge13" class="edge">
<title>11&#45;&gt;15</title>
<g id="a_edge13"><a xlink:title="usage">
<path fill="none" stroke="#1414ce" d="M558.54,-371.62C648.3,-363.24 823.11,-345.76 970.76,-324 972.04,-323.81 973.33,-323.62 974.63,-323.42"/>
<polygon fill="#1414ce" stroke="#1414ce" points="975.34,-326.85 984.68,-321.84 974.26,-319.94 975.34,-326.85"/>
</a>
</g>
</g>
<!-- 21 -->
<g id="node16" class="node">
<title>21</title>
<g id="a_node16"><a xlink:title="AtomsHashTable">
<polygon fill="#ffffff" stroke="black" points="1025.26,-252 888.26,-252 888.26,-216 1025.26,-216 1025.26,-252"/>
<text text-anchor="middle" x="956.76" y="-230.3" font-family="Times,serif" font-size="14.00">AtomsHashTable</text>
</a>
</g>
</g>
<!-- 11&#45;&gt;21 -->
<g id="edge18" class="edge">
<title>11&#45;&gt;21</title>
<g id="a_edge18"><a xlink:title="usage">
<path fill="none" stroke="#1414ce" d="M558.27,-373.63C671.73,-366.65 910.24,-349.15 937.76,-324 954.57,-308.64 958.48,-282.37 958.68,-262.35"/>
<polygon fill="#1414ce" stroke="#1414ce" points="962.18,-262.18 958.49,-252.25 955.18,-262.32 962.18,-262.18"/>
</a>
</g>
</g>
<!-- 16 -->
<g id="node19" class="node">
<title>16</title>
<g id="a_node19"><a xlink:title="AtomTable">
<polygon fill="#ffffff" stroke="black" points="928.76,-324 836.76,-324 836.76,-288 928.76,-288 928.76,-324"/>
<text text-anchor="middle" x="882.76" y="-302.3" font-family="Times,serif" font-size="14.00">AtomTable</text>
</a>
</g>
</g>
<!-- 11&#45;&gt;16 -->
<g id="edge14" class="edge">
<title>11&#45;&gt;16</title>
<g id="a_edge14"><a xlink:title="usage">
<path fill="none" stroke="#1414ce" d="M558.39,-369.95C622.54,-361.79 727.63,-346.78 826.79,-324.05"/>
<polygon fill="#1414ce" stroke="#1414ce" points="827.73,-327.43 836.68,-321.76 826.15,-320.61 827.73,-327.43"/>
</a>
</g>
</g>
<!-- 11&#45;&gt;13 -->
<g id="edge16" class="edge">
<title>11&#45;&gt;13</title>
<g id="a_edge16"><a xlink:title="usage">
<path fill="none" stroke="#1414ce" d="M481.94,-359.93C451.8,-327.95 389.77,-255.39 368.76,-180 364.47,-164.59 361.12,-158.05 368.76,-144 376.34,-130.08 389.33,-119.25 402.76,-111.12"/>
<polygon fill="#1414ce" stroke="#1414ce" points="404.59,-114.11 411.59,-106.16 401.16,-108.01 404.59,-114.11"/>
</a>
</g>
</g>
<!-- 14&#45;&gt;13 -->
<g id="edge22" class="edge">
<title>14&#45;&gt;13</title>
<g id="a_edge22"><a xlink:title="usage">
<path fill="none" stroke="#1414ce" d="M416.14,-143.7C421.48,-135.56 427.97,-125.69 433.88,-116.7"/>
<polygon fill="#1414ce" stroke="#1414ce" points="436.96,-118.38 439.52,-108.1 431.11,-114.54 436.96,-118.38"/>
</a>
</g>
</g>
<!-- 18 -->
<g id="node9" class="node">
<title>18</title>
<g id="a_node9"><a xlink:title="HNodeGroup">
<polygon fill="#ffffff" stroke="black" points="851.76,-252 741.76,-252 741.76,-216 851.76,-216 851.76,-252"/>
<text text-anchor="middle" x="796.76" y="-230.3" font-family="Times,serif" font-size="14.00">HNodeGroup</text>
</a>
</g>
</g>
<!-- 18&#45;&gt;18 -->
<g id="edge24" class="edge">
<title>18&#45;&gt;18</title>
<g id="a_edge24"><a xlink:title="usage">
<path fill="none" stroke="#1414ce" d="M851.84,-246.85C862.34,-245.32 869.76,-241.03 869.76,-234 869.76,-229.5 866.72,-226.12 861.77,-223.87"/>
<polygon fill="#1414ce" stroke="#1414ce" points="862.41,-220.42 851.84,-221.15 860.56,-227.17 862.41,-220.42"/>
</a>
</g>
</g>
<!-- 17 -->
<g id="node23" class="node">
<title>17</title>
<g id="a_node23"><a xlink:title="HNode">
<polygon fill="#ffffff" stroke="black" points="909.76,-180 843.76,-180 843.76,-144 909.76,-144 909.76,-180"/>
<text text-anchor="middle" x="876.76" y="-158.3" font-family="Times,serif" font-size="14.00">HNode</text>
</a>
</g>
</g>
<!-- 18&#45;&gt;17 -->
<g id="edge23" class="edge">
<title>18&#45;&gt;17</title>
<g id="a_edge23"><a xlink:title="usage">
<path fill="none" stroke="#1414ce" d="M816.54,-215.7C826.52,-206.97 838.78,-196.24 849.62,-186.75"/>
<polygon fill="#1414ce" stroke="#1414ce" points="852,-189.32 857.22,-180.1 847.39,-184.06 852,-189.32"/>
</a>
</g>
</g>
<!-- 22&#45;&gt;5 -->
<g id="edge25" class="edge">
<title>22&#45;&gt;5</title>
<g id="a_edge25"><a xlink:title="usage">
<path fill="none" stroke="#1414ce" d="M367.85,-76.89C411.17,-64.71 477.89,-45.95 523.57,-33.11"/>
<polygon fill="#1414ce" stroke="#1414ce" points="524.58,-36.46 533.26,-30.39 522.69,-29.72 524.58,-36.46"/>
</a>
</g>
</g>
<!-- 3 -->
<g id="node12" class="node">
<title>3</title>
<g id="a_node12"><a xlink:title="MailboxMessage">
<polygon fill="#ffffff" stroke="black" points="1180.26,-252 1043.26,-252 1043.26,-216 1180.26,-216 1180.26,-252"/>
<text text-anchor="middle" x="1111.76" y="-230.3" font-family="Times,serif" font-size="14.00">MailboxMessage</text>
</a>
</g>
</g>
<!-- 3&#45;&gt;3 -->
<g id="edge26" class="edge">
<title>3&#45;&gt;3</title>
<g id="a_edge26"><a xlink:title="usage">
<path fill="none" stroke="#1414ce" d="M1180.29,-246.37C1190.98,-244.52 1198.26,-240.4 1198.26,-234 1198.26,-229.8 1195.13,-226.58 1189.95,-224.34"/>
<polygon fill="#1414ce" stroke="#1414ce" points="1190.86,-220.96 1180.29,-221.63 1188.97,-227.7 1190.86,-220.96"/>
</a>
</g>
</g>
<!-- 9 -->
<g id="node13" class="node">
<title>9</title>
<g id="a_node13"><a xlink:title="Heap">
<polygon fill="#ffffff" stroke="black" points="1308.76,-108 1254.76,-108 1254.76,-72 1308.76,-72 1308.76,-108"/>
<text text-anchor="middle" x="1281.76" y="-86.3" font-family="Times,serif" font-size="14.00">Heap</text>
</a>
</g>
</g>
<!-- 9&#45;&gt;10 -->
<g id="edge27" class="edge">
<title>9&#45;&gt;10</title>
<g id="a_edge27"><a xlink:title="usage">
<path fill="none" stroke="#1414ce" d="M1281.76,-71.7C1281.76,-63.98 1281.76,-54.71 1281.76,-46.11"/>
<polygon fill="#1414ce" stroke="#1414ce" points="1285.27,-46.1 1281.76,-36.1 1278.27,-46.1 1285.27,-46.1"/>
</a>
</g>
</g>
<!-- 1 -->
<g id="node14" class="node">
<title>1</title>
<g id="a_node14"><a xlink:title="Context">
<polygon fill="#bfbfbf" stroke="black" points="1230.26,-468 1157.26,-468 1157.26,-432 1230.26,-432 1230.26,-468"/>
<text text-anchor="middle" x="1193.76" y="-446.3" font-family="Times,serif" font-size="14.00">Context</text>
</a>
</g>
</g>
<!-- 1&#45;&gt;6 -->
<g id="edge31" class="edge">
<title>1&#45;&gt;6</title>
<g id="a_edge31"><a xlink:title="usage">
<path fill="none" stroke="#1414ce" d="M1157.19,-447.98C1024.89,-444.06 571.63,-428.52 430.76,-396 366.25,-381.11 296.03,-349.84 252.7,-328.62"/>
<polygon fill="#1414ce" stroke="#1414ce" points="254.13,-325.42 243.61,-324.13 251.02,-331.7 254.13,-325.42"/>
</a>
</g>
</g>
<!-- 1&#45;&gt;5 -->
<g id="edge34" class="edge">
<title>1&#45;&gt;5</title>
<g id="a_edge34"><a xlink:title="usage">
<path fill="none" stroke="#1414ce" d="M1200.44,-431.81C1210.09,-405.4 1226.76,-353.06 1226.76,-307 1226.76,-307 1226.76,-307 1226.76,-161 1226.76,-37.95 778.41,-21.32 624.73,-19.24"/>
<polygon fill="#1414ce" stroke="#1414ce" points="624.65,-15.74 614.61,-19.12 624.57,-22.74 624.65,-15.74"/>
</a>
</g>
</g>
<!-- 1&#45;&gt;11 -->
<g id="edge33" class="edge">
<title>1&#45;&gt;11</title>
<g id="a_edge33"><a xlink:title="usage">
<path fill="none" stroke="#1414ce" d="M1156.89,-445.29C1045.97,-434.11 714.08,-400.69 568.5,-386.02"/>
<polygon fill="#1414ce" stroke="#1414ce" points="568.65,-382.52 558.35,-385 567.95,-389.49 568.65,-382.52"/>
</a>
</g>
</g>
<!-- 1&#45;&gt;9 -->
<g id="edge32" class="edge">
<title>1&#45;&gt;9</title>
<g id="a_edge32"><a xlink:title="usage">
<path fill="none" stroke="#1414ce" d="M1212.59,-431.96C1222.28,-422.28 1233.53,-409.42 1240.76,-396 1260.21,-359.94 1264.76,-347.97 1264.76,-307 1264.76,-307 1264.76,-307 1264.76,-233 1264.76,-192.93 1271.52,-146.95 1276.51,-118.43"/>
<polygon fill="#1414ce" stroke="#1414ce" points="1279.99,-118.87 1278.32,-108.41 1273.1,-117.63 1279.99,-118.87"/>
</a>
</g>
</g>
<!-- 1&#45;&gt;1 -->
<g id="edge28" class="edge">
<title>1&#45;&gt;1</title>
<g id="a_edge28"><a xlink:title="usage">
<path fill="none" stroke="#1414ce" d="M1230.44,-463.42C1240.55,-462.77 1248.26,-458.3 1248.26,-450 1248.26,-444.81 1245.25,-441.12 1240.52,-438.93"/>
<polygon fill="#1414ce" stroke="#1414ce" points="1240.98,-435.44 1230.44,-436.58 1239.39,-442.26 1240.98,-435.44"/>
</a>
</g>
</g>
<!-- 2 -->
<g id="node18" class="node">
<title>2</title>
<g id="a_node18"><a xlink:title="Mailbox">
<polygon fill="#ffffff" stroke="black" points="1198.76,-396 1124.76,-396 1124.76,-360 1198.76,-360 1198.76,-396"/>
<text text-anchor="middle" x="1161.76" y="-374.3" font-family="Times,serif" font-size="14.00">Mailbox</text>
</a>
</g>
</g>
<!-- 1&#45;&gt;2 -->
<g id="edge29" class="edge">
<title>1&#45;&gt;2</title>
<g id="a_edge29"><a xlink:title="usage">
<path fill="none" stroke="#1414ce" d="M1185.85,-431.7C1182.21,-423.73 1177.81,-414.1 1173.77,-405.26"/>
<polygon fill="#1414ce" stroke="#1414ce" points="1176.92,-403.74 1169.58,-396.1 1170.56,-406.65 1176.92,-403.74"/>
</a>
</g>
</g>
<!-- 4 -->
<g id="node21" class="node">
<title>4</title>
<g id="a_node21"><a xlink:title="TimerListItem">
<polygon fill="#ffffff" stroke="black" points="1412.26,-180 1293.26,-180 1293.26,-144 1412.26,-144 1412.26,-180"/>
<text text-anchor="middle" x="1352.76" y="-158.3" font-family="Times,serif" font-size="14.00">TimerListItem</text>
</a>
</g>
</g>
<!-- 1&#45;&gt;4 -->
<g id="edge30" class="edge">
<title>1&#45;&gt;4</title>
<g id="a_edge30"><a xlink:title="usage">
<path fill="none" stroke="#1414ce" d="M1230.69,-433.3C1247.46,-424.52 1266.28,-412.07 1278.76,-396 1327.69,-333.01 1344.66,-236.93 1350.23,-190.3"/>
<polygon fill="#1414ce" stroke="#1414ce" points="1353.74,-190.4 1351.36,-180.08 1346.78,-189.63 1353.74,-190.4"/>
</a>
</g>
</g>
<!-- 15&#45;&gt;3 -->
<g id="edge35" class="edge">
<title>15&#45;&gt;3</title>
<g id="a_edge35"><a xlink:title="usage">
<path fill="none" stroke="#1414ce" d="M1075.63,-287.7C1081.27,-279.47 1088.12,-269.48 1094.33,-260.42"/>
<polygon fill="#1414ce" stroke="#1414ce" points="1097.27,-262.33 1100.04,-252.1 1091.49,-258.37 1097.27,-262.33"/>
</a>
</g>
</g>
<!-- 15&#45;&gt;15 -->
<g id="edge36" class="edge">
<title>15&#45;&gt;15</title>
<g id="a_edge36"><a xlink:title="usage">
<path fill="none" stroke="#1414ce" d="M1142.93,-317.98C1153.64,-315.97 1160.76,-311.98 1160.76,-306 1160.76,-302.08 1157.69,-299.01 1152.56,-296.8"/>
<polygon fill="#1414ce" stroke="#1414ce" points="1153.51,-293.43 1142.93,-294.02 1151.57,-300.15 1153.51,-293.43"/>
</a>
</g>
</g>
<!-- 21&#45;&gt;17 -->
<g id="edge37" class="edge">
<title>21&#45;&gt;17</title>
<g id="a_edge37"><a xlink:title="usage">
<path fill="none" stroke="#1414ce" d="M936.99,-215.7C927.01,-206.97 914.75,-196.24 903.91,-186.75"/>
<polygon fill="#1414ce" stroke="#1414ce" points="906.14,-184.06 896.31,-180.1 901.53,-189.32 906.14,-184.06"/>
</a>
</g>
</g>
<!-- 20&#45;&gt;12 -->
<g id="edge38" class="edge">
<title>20&#45;&gt;12</title>
<g id="a_edge38"><a xlink:title="usage">
<path fill="none" stroke="#1414ce" d="M588.08,-215.88C574.48,-206.81 557.59,-195.55 542.9,-185.76"/>
<polygon fill="#1414ce" stroke="#1414ce" points="544.81,-182.82 534.55,-180.19 540.93,-188.65 544.81,-182.82"/>
</a>
</g>
</g>
<!-- 20&#45;&gt;5 -->
<g id="edge39" class="edge">
<title>20&#45;&gt;5</title>
<g id="a_edge39"><a xlink:title="usage">
<path fill="none" stroke="#1414ce" d="M616.47,-215.55C620.46,-185.42 625.84,-122.05 609.76,-72 606.63,-62.25 601.1,-52.66 595.3,-44.38"/>
<polygon fill="#1414ce" stroke="#1414ce" points="598.03,-42.19 589.24,-36.27 592.42,-46.37 598.03,-42.19"/>
</a>
</g>
</g>
<!-- 2&#45;&gt;3 -->
<g id="edge40" class="edge">
<title>2&#45;&gt;3</title>
<g id="a_edge40"><a xlink:title="usage">
<path fill="none" stroke="#1414ce" d="M1168.1,-359.8C1173.86,-341.26 1180.03,-311.28 1169.76,-288 1164.78,-276.69 1156.05,-266.74 1146.86,-258.62"/>
<polygon fill="#1414ce" stroke="#1414ce" points="1149.05,-255.88 1139.1,-252.23 1144.6,-261.28 1149.05,-255.88"/>
</a>
</g>
</g>
<!-- 16&#45;&gt;18 -->
<g id="edge42" class="edge">
<title>16&#45;&gt;18</title>
<g id="a_edge42"><a xlink:title="usage">
<path fill="none" stroke="#1414ce" d="M861.51,-287.7C850.68,-278.88 837.35,-268.03 825.6,-258.47"/>
<polygon fill="#1414ce" stroke="#1414ce" points="827.74,-255.7 817.78,-252.1 823.33,-261.13 827.74,-255.7"/>
</a>
</g>
</g>
<!-- 16&#45;&gt;17 -->
<g id="edge41" class="edge">
<title>16&#45;&gt;17</title>
<g id="a_edge41"><a xlink:title="usage">
<path fill="none" stroke="#1414ce" d="M836.65,-290.13C793.75,-276.09 735.95,-256.51 732.76,-252 723.53,-238.94 723.61,-229.12 732.76,-216 755.35,-183.63 800.03,-170.97 833.66,-166.06"/>
<polygon fill="#1414ce" stroke="#1414ce" points="834.24,-169.51 843.71,-164.77 833.35,-162.57 834.24,-169.51"/>
</a>
</g>
</g>
<!-- 4&#45;&gt;5 -->
<g id="edge43" class="edge">
<title>4&#45;&gt;5</title>
<g id="a_edge43"><a xlink:title="usage">
<path fill="none" stroke="#1414ce" d="M1351.32,-143.64C1348.58,-122.87 1340.65,-88.81 1317.76,-72 1262.17,-31.15 783.58,-21.59 624.75,-19.53"/>
<polygon fill="#1414ce" stroke="#1414ce" points="624.36,-16.02 614.32,-19.39 624.27,-23.02 624.36,-16.02"/>
</a>
</g>
</g>
<!-- 13&#45;&gt;5 -->
<g id="edge44" class="edge">
<title>13&#45;&gt;5</title>
<g id="a_edge44"><a xlink:title="usage">
<path fill="none" stroke="#1414ce" d="M480.85,-71.88C497.09,-62.64 517.31,-51.13 534.74,-41.21"/>
<polygon fill="#1414ce" stroke="#1414ce" points="536.6,-44.18 543.56,-36.19 533.14,-38.09 536.6,-44.18"/>
</a>
</g>
</g>
<!-- 17&#45;&gt;9 -->
<g id="edge46" class="edge">
<title>17&#45;&gt;9</title>
<g id="a_edge46"><a xlink:title="usage">
<path fill="none" stroke="#1414ce" d="M909.91,-155.27C984.76,-142.33 1166.45,-110.93 1244.8,-97.39"/>
<polygon fill="#1414ce" stroke="#1414ce" points="1245.45,-100.83 1254.71,-95.68 1244.26,-93.93 1245.45,-100.83"/>
</a>
</g>
</g>
<!-- 17&#45;&gt;17 -->
<g id="edge45" class="edge">
<title>17&#45;&gt;17</title>
<g id="a_edge45"><a xlink:title="usage">
<path fill="none" stroke="#1414ce" d="M910.12,-175.47C920.04,-175.07 927.76,-170.58 927.76,-162 927.76,-156.64 924.75,-152.87 920.06,-150.71"/>
<polygon fill="#1414ce" stroke="#1414ce" points="920.64,-147.25 910.12,-148.53 919.14,-154.09 920.64,-147.25"/>
</a>
</g>
</g>
</g>
</svg>
