<?xml version="1.0" encoding="UTF-8" standalone="no"?>
<!DOCTYPE svg PUBLIC "-//W3C//DTD SVG 1.1//EN"
 "http://www.w3.org/Graphics/SVG/1.1/DTD/svg11.dtd">
<!-- Generated by graphviz version 2.43.0 (0)
 -->
<!-- Title: %3 Pages: 1 -->
<svg width="1310pt" height="836pt"
 viewBox="0.00 0.00 1310.00 836.00" xmlns="http://www.w3.org/2000/svg" xmlns:xlink="http://www.w3.org/1999/xlink">
<g id="graph0" class="graph" transform="scale(1 1) rotate(0) translate(4 832)">
<title>%3</title>
<polygon fill="transparent" stroke="transparent" points="-4,4 -4,-832 1306,-832 1306,4 -4,4"/>
<!-- 9 -->
<g id="node1" class="node">
<title>9</title>
<g id="a_node1"><a xlink:title="stdbool.h">
<polygon fill="#ffffff" stroke="black" points="489.5,-108 406.5,-108 406.5,-72 489.5,-72 489.5,-108"/>
<text text-anchor="middle" x="448" y="-86.3" font-family="Times,serif" font-size="14.00">stdbool.h</text>
</a>
</g>
</g>
<!-- 26 -->
<g id="node2" class="node">
<title>26</title>
<g id="a_node2"><a xlink:title="refc_binary.h">
<polygon fill="#ffffff" stroke="black" points="660,-396 552,-396 552,-360 660,-360 660,-396"/>
<text text-anchor="middle" x="606" y="-374.3" font-family="Times,serif" font-size="14.00">refc_binary.h</text>
</a>
</g>
</g>
<!-- 26&#45;&gt;9 -->
<g id="edge1" class="edge">
<title>26&#45;&gt;9</title>
<g id="a_edge1"><a xlink:title="include">
<path fill="none" stroke="#1414ce" d="M596.59,-359.97C570.03,-311.89 494.37,-174.93 462.47,-117.19"/>
<polygon fill="#1414ce" stroke="#1414ce" points="465.46,-115.37 457.56,-108.31 459.33,-118.75 465.46,-115.37"/>
</a>
</g>
</g>
<!-- 16 -->
<g id="node8" class="node">
<title>16</title>
<g id="a_node8"><a xlink:title="list.h">
<polygon fill="#ffffff" stroke="black" points="404,-180 350,-180 350,-144 404,-144 404,-180"/>
<text text-anchor="middle" x="377" y="-158.3" font-family="Times,serif" font-size="14.00">list.h</text>
</a>
</g>
</g>
<!-- 26&#45;&gt;16 -->
<g id="edge3" class="edge">
<title>26&#45;&gt;16</title>
<g id="a_edge3"><a xlink:title="include">
<path fill="none" stroke="#1414ce" d="M587.13,-359.88C575.75,-349.54 561,-336.06 548,-324 495.97,-275.74 435.65,-218.68 402.36,-187.1"/>
<polygon fill="#1414ce" stroke="#1414ce" points="404.55,-184.36 394.89,-180.01 399.73,-189.43 404.55,-184.36"/>
</a>
</g>
</g>
<!-- 7 -->
<g id="node10" class="node">
<title>7</title>
<g id="a_node10"><a xlink:title="stdlib.h">
<polygon fill="#ffffff" stroke="black" points="870.5,-108 799.5,-108 799.5,-72 870.5,-72 870.5,-108"/>
<text text-anchor="middle" x="835" y="-86.3" font-family="Times,serif" font-size="14.00">stdlib.h</text>
</a>
</g>
</g>
<!-- 26&#45;&gt;7 -->
<g id="edge2" class="edge">
<title>26&#45;&gt;7</title>
<g id="a_edge2"><a xlink:title="include">
<path fill="none" stroke="#1414ce" d="M628.68,-359.75C657.39,-337.16 707.3,-295.29 742,-252 776.91,-208.44 807.09,-150.27 823.01,-117.1"/>
<polygon fill="#1414ce" stroke="#1414ce" points="826.18,-118.58 827.29,-108.04 819.85,-115.58 826.18,-118.58"/>
</a>
</g>
</g>
<!-- 27 -->
<g id="node13" class="node">
<title>27</title>
<g id="a_node13"><a xlink:title="resources.h">
<polygon fill="#ffffff" stroke="black" points="860,-324 760,-324 760,-288 860,-288 860,-324"/>
<text text-anchor="middle" x="810" y="-302.3" font-family="Times,serif" font-size="14.00">resources.h</text>
</a>
</g>
</g>
<!-- 26&#45;&gt;27 -->
<g id="edge4" class="edge">
<title>26&#45;&gt;27</title>
<g id="a_edge4"><a xlink:title="include">
<path fill="none" stroke="#1414ce" d="M655.64,-359.97C684.27,-350.14 720.45,-337.73 750.58,-327.39"/>
<polygon fill="#1414ce" stroke="#1414ce" points="751.81,-330.67 760.13,-324.11 749.54,-324.05 751.81,-330.67"/>
</a>
</g>
</g>
<!-- 30 -->
<g id="node3" class="node">
<title>30</title>
<g id="a_node3"><a xlink:title="defaultatoms.h">
<polygon fill="#ffffff" stroke="black" points="765,-684 641,-684 641,-648 765,-648 765,-684"/>
<text text-anchor="middle" x="703" y="-662.3" font-family="Times,serif" font-size="14.00">defaultatoms.h</text>
</a>
</g>
</g>
<!-- 31 -->
<g id="node17" class="node">
<title>31</title>
<g id="a_node17"><a xlink:title="defaultatoms.def">
<polygon fill="#ffffff" stroke="black" points="1109.5,-612 972.5,-612 972.5,-576 1109.5,-576 1109.5,-612"/>
<text text-anchor="middle" x="1041" y="-590.3" font-family="Times,serif" font-size="14.00">defaultatoms.def</text>
</a>
</g>
</g>
<!-- 30&#45;&gt;31 -->
<g id="edge6" class="edge">
<title>30&#45;&gt;31</title>
<g id="a_edge6"><a xlink:title="include">
<path fill="none" stroke="#1414ce" d="M765.39,-652.08C820.95,-640.57 902.5,-623.68 962.48,-611.26"/>
<polygon fill="#1414ce" stroke="#1414ce" points="963.21,-614.69 972.29,-609.23 961.79,-607.83 963.21,-614.69"/>
</a>
</g>
</g>
<!-- 4 -->
<g id="node23" class="node">
<title>4</title>
<g id="a_node23"><a xlink:title="globalcontext.h">
<polygon fill="#ffffff" stroke="black" points="568.5,-612 441.5,-612 441.5,-576 568.5,-576 568.5,-612"/>
<text text-anchor="middle" x="505" y="-590.3" font-family="Times,serif" font-size="14.00">globalcontext.h</text>
</a>
</g>
</g>
<!-- 30&#45;&gt;4 -->
<g id="edge5" class="edge">
<title>30&#45;&gt;4</title>
<g id="a_edge5"><a xlink:title="include">
<path fill="none" stroke="#1414ce" d="M654.82,-647.97C627.15,-638.19 592.22,-625.84 563.05,-615.52"/>
<polygon fill="#1414ce" stroke="#1414ce" points="563.99,-612.14 553.4,-612.11 561.66,-618.74 563.99,-612.14"/>
</a>
</g>
</g>
<!-- 6 -->
<g id="node4" class="node">
<title>6</title>
<g id="a_node4"><a xlink:title="atom.h">
<polygon fill="#ffffff" stroke="black" points="700,-180 634,-180 634,-144 700,-144 700,-180"/>
<text text-anchor="middle" x="667" y="-158.3" font-family="Times,serif" font-size="14.00">atom.h</text>
</a>
</g>
</g>
<!-- 5 -->
<g id="node9" class="node">
<title>5</title>
<g id="a_node9"><a xlink:title="stdint.h">
<polygon fill="#ffffff" stroke="black" points="755,-36 683,-36 683,0 755,0 755,-36"/>
<text text-anchor="middle" x="719" y="-14.3" font-family="Times,serif" font-size="14.00">stdint.h</text>
</a>
</g>
</g>
<!-- 6&#45;&gt;5 -->
<g id="edge7" class="edge">
<title>6&#45;&gt;5</title>
<g id="a_edge7"><a xlink:title="include">
<path fill="none" stroke="#1414ce" d="M673.27,-143.87C682.21,-119.46 698.7,-74.43 709.25,-45.64"/>
<polygon fill="#1414ce" stroke="#1414ce" points="712.55,-46.78 712.71,-36.19 705.98,-44.38 712.55,-46.78"/>
</a>
</g>
</g>
<!-- 6&#45;&gt;7 -->
<g id="edge8" class="edge">
<title>6&#45;&gt;7</title>
<g id="a_edge8"><a xlink:title="include">
<path fill="none" stroke="#1414ce" d="M700.19,-147.17C725.88,-136.47 761.72,-121.53 789.99,-109.75"/>
<polygon fill="#1414ce" stroke="#1414ce" points="791.38,-112.97 799.26,-105.89 788.69,-106.51 791.38,-112.97"/>
</a>
</g>
</g>
<!-- 12 -->
<g id="node5" class="node">
<title>12</title>
<g id="a_node5"><a xlink:title="assert.h">
<polygon fill="#ffffff" stroke="black" points="1302,-36 1228,-36 1228,0 1302,0 1302,-36"/>
<text text-anchor="middle" x="1265" y="-14.3" font-family="Times,serif" font-size="14.00">assert.h</text>
</a>
</g>
</g>
<!-- 24 -->
<g id="node6" class="node">
<title>24</title>
<g id="a_node6"><a xlink:title="utils.h">
<polygon fill="#ffffff" stroke="black" points="1008,-180 946,-180 946,-144 1008,-144 1008,-180"/>
<text text-anchor="middle" x="977" y="-158.3" font-family="Times,serif" font-size="14.00">utils.h</text>
</a>
</g>
</g>
<!-- 24&#45;&gt;7 -->
<g id="edge11" class="edge">
<title>24&#45;&gt;7</title>
<g id="a_edge11"><a xlink:title="include">
<path fill="none" stroke="#1414ce" d="M945.84,-145.64C926.12,-135.92 900.35,-123.21 878.61,-112.5"/>
<polygon fill="#1414ce" stroke="#1414ce" points="880.09,-109.33 869.58,-108.04 877,-115.61 880.09,-109.33"/>
</a>
</g>
</g>
<!-- 25 -->
<g id="node15" class="node">
<title>25</title>
<g id="a_node15"><a xlink:title="stddef.h">
<polygon fill="#ffffff" stroke="black" points="1046,-108 972,-108 972,-72 1046,-72 1046,-108"/>
<text text-anchor="middle" x="1009" y="-86.3" font-family="Times,serif" font-size="14.00">stddef.h</text>
</a>
</g>
</g>
<!-- 24&#45;&gt;25 -->
<g id="edge9" class="edge">
<title>24&#45;&gt;25</title>
<g id="a_edge9"><a xlink:title="include">
<path fill="none" stroke="#1414ce" d="M984.91,-143.7C988.55,-135.73 992.95,-126.1 996.99,-117.26"/>
<polygon fill="#1414ce" stroke="#1414ce" points="1000.21,-118.65 1001.18,-108.1 993.84,-115.74 1000.21,-118.65"/>
</a>
</g>
</g>
<!-- 18 -->
<g id="node29" class="node">
<title>18</title>
<g id="a_node29"><a xlink:title="stdio.h">
<polygon fill="#ffffff" stroke="black" points="953.5,-108 888.5,-108 888.5,-72 953.5,-72 953.5,-108"/>
<text text-anchor="middle" x="921" y="-86.3" font-family="Times,serif" font-size="14.00">stdio.h</text>
</a>
</g>
</g>
<!-- 24&#45;&gt;18 -->
<g id="edge10" class="edge">
<title>24&#45;&gt;18</title>
<g id="a_edge10"><a xlink:title="include">
<path fill="none" stroke="#1414ce" d="M963.16,-143.7C956.51,-135.39 948.42,-125.28 941.11,-116.14"/>
<polygon fill="#1414ce" stroke="#1414ce" points="943.66,-113.73 934.68,-108.1 938.2,-118.1 943.66,-113.73"/>
</a>
</g>
</g>
<!-- 17 -->
<g id="node7" class="node">
<title>17</title>
<g id="a_node7"><a xlink:title="synclist.h">
<polygon fill="#ffffff" stroke="black" points="419.5,-252 334.5,-252 334.5,-216 419.5,-216 419.5,-252"/>
<text text-anchor="middle" x="377" y="-230.3" font-family="Times,serif" font-size="14.00">synclist.h</text>
</a>
</g>
</g>
<!-- 17&#45;&gt;16 -->
<g id="edge13" class="edge">
<title>17&#45;&gt;16</title>
<g id="a_edge13"><a xlink:title="include">
<path fill="none" stroke="#1414ce" d="M377,-215.7C377,-207.98 377,-198.71 377,-190.11"/>
<polygon fill="#1414ce" stroke="#1414ce" points="380.5,-190.1 377,-180.1 373.5,-190.1 380.5,-190.1"/>
</a>
</g>
</g>
<!-- 19 -->
<g id="node24" class="node">
<title>19</title>
<g id="a_node24"><a xlink:title="smp.h">
<polygon fill="#ffffff" stroke="black" points="191,-180 131,-180 131,-144 191,-144 191,-180"/>
<text text-anchor="middle" x="161" y="-158.3" font-family="Times,serif" font-size="14.00">smp.h</text>
</a>
</g>
</g>
<!-- 17&#45;&gt;19 -->
<g id="edge14" class="edge">
<title>17&#45;&gt;19</title>
<g id="a_edge14"><a xlink:title="include">
<path fill="none" stroke="#1414ce" d="M334.33,-219.17C295.5,-206.59 238.64,-188.16 200.75,-175.88"/>
<polygon fill="#1414ce" stroke="#1414ce" points="201.67,-172.5 191.08,-172.75 199.51,-179.16 201.67,-172.5"/>
</a>
</g>
</g>
<!-- 17&#45;&gt;18 -->
<g id="edge12" class="edge">
<title>17&#45;&gt;18</title>
<g id="a_edge12"><a xlink:title="include">
<path fill="none" stroke="#1414ce" d="M419.63,-229.48C483.51,-223.48 607.41,-208.98 709,-180 770.2,-162.54 837.4,-132.31 879.39,-111.98"/>
<polygon fill="#1414ce" stroke="#1414ce" points="881.02,-115.08 888.47,-107.55 877.95,-108.79 881.02,-115.08"/>
</a>
</g>
</g>
<!-- 16&#45;&gt;9 -->
<g id="edge15" class="edge">
<title>16&#45;&gt;9</title>
<g id="a_edge15"><a xlink:title="include">
<path fill="none" stroke="#1414ce" d="M394.55,-143.7C403.23,-135.14 413.86,-124.66 423.35,-115.3"/>
<polygon fill="#1414ce" stroke="#1414ce" points="425.99,-117.62 430.65,-108.1 421.07,-112.63 425.99,-117.62"/>
</a>
</g>
</g>
<!-- 3 -->
<g id="node11" class="node">
<title>3</title>
<g id="a_node11"><a xlink:title="context.h">
<polygon fill="#ffffff" stroke="black" points="546.5,-684 463.5,-684 463.5,-648 546.5,-648 546.5,-684"/>
<text text-anchor="middle" x="505" y="-662.3" font-family="Times,serif" font-size="14.00">context.h</text>
</a>
</g>
</g>
<!-- 3&#45;&gt;16 -->
<g id="edge17" class="edge">
<title>3&#45;&gt;16</title>
<g id="a_edge17"><a xlink:title="include">
<path fill="none" stroke="#1414ce" d="M463.2,-652.67C412.37,-635.56 327.38,-599.77 279,-540 231.94,-481.86 230,-453.8 230,-379 230,-379 230,-379 230,-305 230,-260.27 245.39,-247.65 277,-216 294.74,-198.24 319.68,-185 340.22,-176.2"/>
<polygon fill="#1414ce" stroke="#1414ce" points="341.67,-179.39 349.59,-172.35 339.01,-172.91 341.67,-179.39"/>
</a>
</g>
</g>
<!-- 20 -->
<g id="node14" class="node">
<title>20</title>
<g id="a_node14"><a xlink:title="term.h">
<polygon fill="#ffffff" stroke="black" points="938.5,-468 873.5,-468 873.5,-432 938.5,-432 938.5,-468"/>
<text text-anchor="middle" x="906" y="-446.3" font-family="Times,serif" font-size="14.00">term.h</text>
</a>
</g>
</g>
<!-- 3&#45;&gt;20 -->
<g id="edge20" class="edge">
<title>3&#45;&gt;20</title>
<g id="a_edge20"><a xlink:title="include">
<path fill="none" stroke="#1414ce" d="M542.11,-647.98C592.04,-624.8 683.34,-581.42 759,-540 797.89,-518.71 841.17,-492.14 870.64,-473.6"/>
<polygon fill="#1414ce" stroke="#1414ce" points="872.73,-476.42 879.32,-468.12 868.99,-470.5 872.73,-476.42"/>
</a>
</g>
</g>
<!-- 3&#45;&gt;4 -->
<g id="edge16" class="edge">
<title>3&#45;&gt;4</title>
<g id="a_edge16"><a xlink:title="include">
<path fill="none" stroke="#1414ce" d="M505,-647.7C505,-639.98 505,-630.71 505,-622.11"/>
<polygon fill="#1414ce" stroke="#1414ce" points="508.5,-622.1 505,-612.1 501.5,-622.1 508.5,-622.1"/>
</a>
</g>
</g>
<!-- 3&#45;&gt;19 -->
<g id="edge19" class="edge">
<title>3&#45;&gt;19</title>
<g id="a_edge19"><a xlink:title="include">
<path fill="none" stroke="#1414ce" d="M463.3,-663.66C369.01,-660.02 142.42,-647.73 76,-612 30.19,-587.36 0,-575.02 0,-523 0,-523 0,-523 0,-305 0,-240.49 73.59,-198.31 121.27,-177.74"/>
<polygon fill="#1414ce" stroke="#1414ce" points="122.84,-180.88 130.72,-173.8 120.14,-174.42 122.84,-180.88"/>
</a>
</g>
</g>
<!-- 29 -->
<g id="node25" class="node">
<title>29</title>
<g id="a_node25"><a xlink:title="timer_list.h">
<polygon fill="#ffffff" stroke="black" points="202,-252 104,-252 104,-216 202,-216 202,-252"/>
<text text-anchor="middle" x="153" y="-230.3" font-family="Times,serif" font-size="14.00">timer_list.h</text>
</a>
</g>
</g>
<!-- 3&#45;&gt;29 -->
<g id="edge21" class="edge">
<title>3&#45;&gt;29</title>
<g id="a_edge21"><a xlink:title="include">
<path fill="none" stroke="#1414ce" d="M463.21,-665.17C371.2,-664.68 155.1,-658.48 102,-612 71.17,-585.01 78,-563.97 78,-523 78,-523 78,-523 78,-449 78,-377.87 115.36,-300.54 137.35,-261.2"/>
<polygon fill="#1414ce" stroke="#1414ce" points="140.65,-262.46 142.57,-252.04 134.58,-258.99 140.65,-262.46"/>
</a>
</g>
</g>
<!-- 28 -->
<g id="node27" class="node">
<title>28</title>
<g id="a_node27"><a xlink:title="mailbox.h">
<polygon fill="#ffffff" stroke="black" points="1032,-252 946,-252 946,-216 1032,-216 1032,-252"/>
<text text-anchor="middle" x="989" y="-230.3" font-family="Times,serif" font-size="14.00">mailbox.h</text>
</a>
</g>
</g>
<!-- 3&#45;&gt;28 -->
<g id="edge18" class="edge">
<title>3&#45;&gt;28</title>
<g id="a_edge18"><a xlink:title="include">
<path fill="none" stroke="#1414ce" d="M546.74,-654.92C630.55,-632.99 821.97,-574.19 947,-468 977.49,-442.11 988.35,-433.95 1001,-396 1016.04,-350.89 1005.88,-294.87 997.31,-262.2"/>
<polygon fill="#1414ce" stroke="#1414ce" points="1000.65,-261.17 994.62,-252.46 993.91,-263.03 1000.65,-261.17"/>
</a>
</g>
</g>
<!-- 23 -->
<g id="node12" class="node">
<title>23</title>
<g id="a_node12"><a xlink:title="memory.h">
<polygon fill="#ffffff" stroke="black" points="1174,-252 1088,-252 1088,-216 1174,-216 1174,-252"/>
<text text-anchor="middle" x="1131" y="-230.3" font-family="Times,serif" font-size="14.00">memory.h</text>
</a>
</g>
</g>
<!-- 23&#45;&gt;24 -->
<g id="edge26" class="edge">
<title>23&#45;&gt;24</title>
<g id="a_edge26"><a xlink:title="include">
<path fill="none" stroke="#1414ce" d="M1093.33,-215.88C1070.32,-205.42 1040.9,-192.05 1017.41,-181.37"/>
<polygon fill="#1414ce" stroke="#1414ce" points="1018.62,-178.07 1008.07,-177.12 1015.73,-184.45 1018.62,-178.07"/>
</a>
</g>
</g>
<!-- 23&#45;&gt;5 -->
<g id="edge22" class="edge">
<title>23&#45;&gt;5</title>
<g id="a_edge22"><a xlink:title="include">
<path fill="none" stroke="#1414ce" d="M1128.28,-215.83C1121.99,-182.26 1103.11,-108.05 1055,-72 1010.11,-38.36 846.82,-25.46 765.57,-21.05"/>
<polygon fill="#1414ce" stroke="#1414ce" points="765.31,-17.53 755.14,-20.5 764.94,-24.52 765.31,-17.53"/>
</a>
</g>
</g>
<!-- 23&#45;&gt;7 -->
<g id="edge23" class="edge">
<title>23&#45;&gt;7</title>
<g id="a_edge23"><a xlink:title="include">
<path fill="none" stroke="#1414ce" d="M1107.41,-215.9C1093.47,-205.67 1075.56,-192.31 1060,-180 1040.45,-164.54 1039.15,-155.42 1017,-144 963.41,-116.37 941.49,-126.33 880.6,-108.26"/>
<polygon fill="#1414ce" stroke="#1414ce" points="881.49,-104.88 870.9,-105.25 879.41,-111.56 881.49,-104.88"/>
</a>
</g>
</g>
<!-- 10 -->
<g id="node16" class="node">
<title>10</title>
<g id="a_node16"><a xlink:title="erl_nif.h">
<polygon fill="#ffffff" stroke="black" points="1252,-180 1178,-180 1178,-144 1252,-144 1252,-180"/>
<text text-anchor="middle" x="1215" y="-158.3" font-family="Times,serif" font-size="14.00">erl_nif.h</text>
</a>
</g>
</g>
<!-- 23&#45;&gt;10 -->
<g id="edge24" class="edge">
<title>23&#45;&gt;10</title>
<g id="a_edge24"><a xlink:title="include">
<path fill="none" stroke="#1414ce" d="M1151.76,-215.7C1162.24,-206.97 1175.11,-196.24 1186.5,-186.75"/>
<polygon fill="#1414ce" stroke="#1414ce" points="1189.03,-189.19 1194.47,-180.1 1184.55,-183.82 1189.03,-189.19"/>
</a>
</g>
</g>
<!-- 11 -->
<g id="node22" class="node">
<title>11</title>
<g id="a_node22"><a xlink:title="term_typedef.h">
<polygon fill="#ffffff" stroke="black" points="1227.5,-108 1102.5,-108 1102.5,-72 1227.5,-72 1227.5,-108"/>
<text text-anchor="middle" x="1165" y="-86.3" font-family="Times,serif" font-size="14.00">term_typedef.h</text>
</a>
</g>
</g>
<!-- 23&#45;&gt;11 -->
<g id="edge25" class="edge">
<title>23&#45;&gt;11</title>
<g id="a_edge25"><a xlink:title="include">
<path fill="none" stroke="#1414ce" d="M1135.1,-215.87C1140.92,-191.56 1151.63,-146.82 1158.53,-118.01"/>
<polygon fill="#1414ce" stroke="#1414ce" points="1161.96,-118.73 1160.88,-108.19 1155.15,-117.1 1161.96,-118.73"/>
</a>
</g>
</g>
<!-- 27&#45;&gt;17 -->
<g id="edge31" class="edge">
<title>27&#45;&gt;17</title>
<g id="a_edge31"><a xlink:title="include">
<path fill="none" stroke="#1414ce" d="M759.91,-296.9C677.42,-283.57 513.77,-257.11 429.64,-243.51"/>
<polygon fill="#1414ce" stroke="#1414ce" points="429.97,-240.02 419.54,-241.88 428.86,-246.93 429.97,-240.02"/>
</a>
</g>
</g>
<!-- 27&#45;&gt;16 -->
<g id="edge29" class="edge">
<title>27&#45;&gt;16</title>
<g id="a_edge29"><a xlink:title="include">
<path fill="none" stroke="#1414ce" d="M759.66,-296.22C712.74,-287.36 641.18,-272.13 581,-252 543.64,-239.5 536.09,-231.8 500,-216 471.04,-203.33 438.15,-189.17 413.67,-178.67"/>
<polygon fill="#1414ce" stroke="#1414ce" points="414.97,-175.42 404.4,-174.7 412.21,-181.85 414.97,-175.42"/>
</a>
</g>
</g>
<!-- 27&#45;&gt;7 -->
<g id="edge27" class="edge">
<title>27&#45;&gt;7</title>
<g id="a_edge27"><a xlink:title="include">
<path fill="none" stroke="#1414ce" d="M812.79,-287.84C814.42,-277.48 816.46,-264 818,-252 824,-205.16 829.45,-150.46 832.48,-118.39"/>
<polygon fill="#1414ce" stroke="#1414ce" points="835.97,-118.7 833.42,-108.42 829,-118.05 835.97,-118.7"/>
</a>
</g>
</g>
<!-- 27&#45;&gt;23 -->
<g id="edge30" class="edge">
<title>27&#45;&gt;23</title>
<g id="a_edge30"><a xlink:title="include">
<path fill="none" stroke="#1414ce" d="M860.16,-294.06C919.33,-281.16 1017.29,-259.8 1077.77,-246.61"/>
<polygon fill="#1414ce" stroke="#1414ce" points="1078.85,-249.95 1087.88,-244.4 1077.36,-243.12 1078.85,-249.95"/>
</a>
</g>
</g>
<!-- 27&#45;&gt;10 -->
<g id="edge28" class="edge">
<title>27&#45;&gt;10</title>
<g id="a_edge28"><a xlink:title="include">
<path fill="none" stroke="#1414ce" d="M860.21,-304.12C950.29,-301.56 1134.5,-291.49 1183,-252 1201.46,-236.97 1209.27,-210.43 1212.58,-190.23"/>
<polygon fill="#1414ce" stroke="#1414ce" points="1216.08,-190.44 1213.96,-180.06 1209.15,-189.49 1216.08,-190.44"/>
</a>
</g>
</g>
<!-- 20&#45;&gt;9 -->
<g id="edge33" class="edge">
<title>20&#45;&gt;9</title>
<g id="a_edge33"><a xlink:title="include">
<path fill="none" stroke="#1414ce" d="M873.25,-446.73C795.37,-440.94 601.24,-424.05 543,-396 490.88,-370.89 448,-364.86 448,-307 448,-307 448,-307 448,-233 448,-193 448,-146.65 448,-118.08"/>
<polygon fill="#1414ce" stroke="#1414ce" points="451.5,-118.05 448,-108.05 444.5,-118.05 451.5,-118.05"/>
</a>
</g>
</g>
<!-- 20&#45;&gt;26 -->
<g id="edge39" class="edge">
<title>20&#45;&gt;26</title>
<g id="a_edge39"><a xlink:title="include">
<path fill="none" stroke="#1414ce" d="M873.32,-441.38C824.67,-430.02 732.24,-408.46 669.87,-393.9"/>
<polygon fill="#1414ce" stroke="#1414ce" points="670.66,-390.49 660.13,-391.63 669.07,-397.31 670.66,-390.49"/>
</a>
</g>
</g>
<!-- 20&#45;&gt;24 -->
<g id="edge40" class="edge">
<title>20&#45;&gt;24</title>
<g id="a_edge40"><a xlink:title="include">
<path fill="none" stroke="#1414ce" d="M938.55,-443.31C965.67,-436.77 1002.96,-423.2 1023,-396 1070.68,-331.27 1075.21,-288.76 1041,-216 1035.48,-204.26 1025.93,-194.22 1015.88,-186.15"/>
<polygon fill="#1414ce" stroke="#1414ce" points="1017.88,-183.27 1007.77,-180.09 1013.69,-188.88 1017.88,-183.27"/>
</a>
</g>
</g>
<!-- 20&#45;&gt;5 -->
<g id="edge34" class="edge">
<title>20&#45;&gt;5</title>
<g id="a_edge34"><a xlink:title="include">
<path fill="none" stroke="#1414ce" d="M873.43,-448.4C835.91,-445.78 775.52,-435.26 745,-396 734.3,-382.23 723.43,-131.14 720.06,-46.55"/>
<polygon fill="#1414ce" stroke="#1414ce" points="723.55,-46.28 719.66,-36.42 716.56,-46.55 723.55,-46.28"/>
</a>
</g>
</g>
<!-- 20&#45;&gt;7 -->
<g id="edge36" class="edge">
<title>20&#45;&gt;7</title>
<g id="a_edge36"><a xlink:title="include">
<path fill="none" stroke="#1414ce" d="M926.38,-431.53C935.81,-422.09 946.01,-409.6 951,-396 956.52,-380.98 954.23,-375.67 951,-360 931.52,-265.64 877.35,-163.62 850.49,-116.96"/>
<polygon fill="#1414ce" stroke="#1414ce" points="853.41,-115 845.35,-108.12 847.36,-118.52 853.41,-115"/>
</a>
</g>
</g>
<!-- 20&#45;&gt;23 -->
<g id="edge38" class="edge">
<title>20&#45;&gt;23</title>
<g id="a_edge38"><a xlink:title="include">
<path fill="none" stroke="#1414ce" d="M938.7,-445.59C973.08,-440.4 1026.82,-427.53 1061,-396 1100.18,-359.85 1118.5,-297.95 1126.17,-262.35"/>
<polygon fill="#1414ce" stroke="#1414ce" points="1129.67,-262.7 1128.22,-252.21 1122.81,-261.31 1129.67,-262.7"/>
</a>
</g>
</g>
<!-- 21 -->
<g id="node20" class="node">
<title>21</title>
<g id="a_node20"><a xlink:title="sys/types.h">
<polygon fill="#ffffff" stroke="black" points="851.5,-396 754.5,-396 754.5,-360 851.5,-360 851.5,-396"/>
<text text-anchor="middle" x="803" y="-374.3" font-family="Times,serif" font-size="14.00">sys/types.h</text>
</a>
</g>
</g>
<!-- 20&#45;&gt;21 -->
<g id="edge32" class="edge">
<title>20&#45;&gt;21</title>
<g id="a_edge32"><a xlink:title="include">
<path fill="none" stroke="#1414ce" d="M880.8,-431.88C867.59,-422.89 851.21,-411.76 836.89,-402.03"/>
<polygon fill="#1414ce" stroke="#1414ce" points="838.53,-398.92 828.29,-396.19 834.6,-404.71 838.53,-398.92"/>
</a>
</g>
</g>
<!-- 22 -->
<g id="node21" class="node">
<title>22</title>
<g id="a_node21"><a xlink:title="string.h">
<polygon fill="#ffffff" stroke="black" points="942.5,-396 869.5,-396 869.5,-360 942.5,-360 942.5,-396"/>
<text text-anchor="middle" x="906" y="-374.3" font-family="Times,serif" font-size="14.00">string.h</text>
</a>
</g>
</g>
<!-- 20&#45;&gt;22 -->
<g id="edge37" class="edge">
<title>20&#45;&gt;22</title>
<g id="a_edge37"><a xlink:title="include">
<path fill="none" stroke="#1414ce" d="M906,-431.7C906,-423.98 906,-414.71 906,-406.11"/>
<polygon fill="#1414ce" stroke="#1414ce" points="909.5,-406.1 906,-396.1 902.5,-406.1 909.5,-406.1"/>
</a>
</g>
</g>
<!-- 20&#45;&gt;11 -->
<g id="edge41" class="edge">
<title>20&#45;&gt;11</title>
<g id="a_edge41"><a xlink:title="include">
<path fill="none" stroke="#1414ce" d="M938.65,-445.35C977.06,-439.81 1041.47,-426.47 1088,-396 1190.9,-328.62 1222.63,-296.86 1261,-180 1265.99,-164.8 1269.13,-157.78 1261,-144 1253.14,-130.69 1240.61,-120.48 1227.16,-112.76"/>
<polygon fill="#1414ce" stroke="#1414ce" points="1228.7,-109.62 1218.22,-108.04 1225.43,-115.81 1228.7,-109.62"/>
</a>
</g>
</g>
<!-- 20&#45;&gt;18 -->
<g id="edge35" class="edge">
<title>20&#45;&gt;18</title>
<g id="a_edge35"><a xlink:title="include">
<path fill="none" stroke="#1414ce" d="M938.85,-436.08C955.92,-427.49 975.21,-414.36 985,-396 1008.59,-351.77 943.93,-278.21 937,-252 924.87,-206.13 921.78,-150.7 921.08,-118.3"/>
<polygon fill="#1414ce" stroke="#1414ce" points="924.58,-118.18 920.93,-108.24 917.58,-118.29 924.58,-118.18"/>
</a>
</g>
</g>
<!-- 10&#45;&gt;11 -->
<g id="edge42" class="edge">
<title>10&#45;&gt;11</title>
<g id="a_edge42"><a xlink:title="include">
<path fill="none" stroke="#1414ce" d="M1202.64,-143.7C1196.77,-135.47 1189.63,-125.48 1183.16,-116.42"/>
<polygon fill="#1414ce" stroke="#1414ce" points="1185.88,-114.21 1177.22,-108.1 1180.18,-118.28 1185.88,-114.21"/>
</a>
</g>
</g>
<!-- 13 -->
<g id="node18" class="node">
<title>13</title>
<g id="a_node18"><a xlink:title="limits.h">
<polygon fill="#ffffff" stroke="black" points="1102.5,-36 1031.5,-36 1031.5,0 1102.5,0 1102.5,-36"/>
<text text-anchor="middle" x="1067" y="-14.3" font-family="Times,serif" font-size="14.00">limits.h</text>
</a>
</g>
</g>
<!-- 8 -->
<g id="node19" class="node">
<title>8</title>
<g id="a_node19"><a xlink:title="atom_table.h">
<polygon fill="#ffffff" stroke="black" points="699.5,-252 590.5,-252 590.5,-216 699.5,-216 699.5,-252"/>
<text text-anchor="middle" x="645" y="-230.3" font-family="Times,serif" font-size="14.00">atom_table.h</text>
</a>
</g>
</g>
<!-- 8&#45;&gt;9 -->
<g id="edge43" class="edge">
<title>8&#45;&gt;9</title>
<g id="a_edge43"><a xlink:title="include">
<path fill="none" stroke="#1414ce" d="M626.41,-215.95C605.63,-197.28 570.61,-166.94 538,-144 522.5,-133.1 504.66,-122.27 488.97,-113.26"/>
<polygon fill="#1414ce" stroke="#1414ce" points="490.44,-110.07 480.02,-108.19 486.99,-116.16 490.44,-110.07"/>
</a>
</g>
</g>
<!-- 8&#45;&gt;6 -->
<g id="edge44" class="edge">
<title>8&#45;&gt;6</title>
<g id="a_edge44"><a xlink:title="include">
<path fill="none" stroke="#1414ce" d="M650.44,-215.7C652.89,-207.9 655.84,-198.51 658.57,-189.83"/>
<polygon fill="#1414ce" stroke="#1414ce" points="661.96,-190.69 661.62,-180.1 655.29,-188.59 661.96,-190.69"/>
</a>
</g>
</g>
<!-- 11&#45;&gt;12 -->
<g id="edge45" class="edge">
<title>11&#45;&gt;12</title>
<g id="a_edge45"><a xlink:title="include">
<path fill="none" stroke="#1414ce" d="M1189.46,-71.88C1202.3,-62.89 1218.2,-51.76 1232.09,-42.03"/>
<polygon fill="#1414ce" stroke="#1414ce" points="1234.26,-44.79 1240.44,-36.19 1230.24,-39.06 1234.26,-44.79"/>
</a>
</g>
</g>
<!-- 11&#45;&gt;5 -->
<g id="edge48" class="edge">
<title>11&#45;&gt;5</title>
<g id="a_edge48"><a xlink:title="include">
<path fill="none" stroke="#1414ce" d="M1102.46,-74.78C1097.58,-73.8 1092.71,-72.86 1088,-72 972.47,-50.98 835.35,-33.13 765.27,-24.52"/>
<polygon fill="#1414ce" stroke="#1414ce" points="765.38,-21.01 755.02,-23.27 764.53,-27.95 765.38,-21.01"/>
</a>
</g>
</g>
<!-- 11&#45;&gt;13 -->
<g id="edge46" class="edge">
<title>11&#45;&gt;13</title>
<g id="a_edge46"><a xlink:title="include">
<path fill="none" stroke="#1414ce" d="M1141.03,-71.88C1128.45,-62.89 1112.87,-51.76 1099.25,-42.03"/>
<polygon fill="#1414ce" stroke="#1414ce" points="1101.24,-39.15 1091.07,-36.19 1097.17,-44.85 1101.24,-39.15"/>
</a>
</g>
</g>
<!-- 14 -->
<g id="node31" class="node">
<title>14</title>
<g id="a_node31"><a xlink:title="inttypes.h">
<polygon fill="#ffffff" stroke="black" points="1209.5,-36 1120.5,-36 1120.5,0 1209.5,0 1209.5,-36"/>
<text text-anchor="middle" x="1165" y="-14.3" font-family="Times,serif" font-size="14.00">inttypes.h</text>
</a>
</g>
</g>
<!-- 11&#45;&gt;14 -->
<g id="edge47" class="edge">
<title>11&#45;&gt;14</title>
<g id="a_edge47"><a xlink:title="include">
<path fill="none" stroke="#1414ce" d="M1165,-71.7C1165,-63.98 1165,-54.71 1165,-46.11"/>
<polygon fill="#1414ce" stroke="#1414ce" points="1168.5,-46.1 1165,-36.1 1161.5,-46.1 1168.5,-46.1"/>
</a>
</g>
</g>
<!-- 4&#45;&gt;6 -->
<g id="edge50" class="edge">
<title>4&#45;&gt;6</title>
<g id="a_edge50"><a xlink:title="include">
<path fill="none" stroke="#1414ce" d="M506.01,-575.95C509.1,-528.48 519.66,-395.91 543,-360 566.89,-323.26 687.16,-290.55 708,-252 719.44,-230.85 705.74,-205.92 691.19,-187.83"/>
<polygon fill="#1414ce" stroke="#1414ce" points="693.68,-185.37 684.52,-180.05 688.36,-189.92 693.68,-185.37"/>
</a>
</g>
</g>
<!-- 4&#45;&gt;17 -->
<g id="edge57" class="edge">
<title>4&#45;&gt;17</title>
<g id="a_edge57"><a xlink:title="include">
<path fill="none" stroke="#1414ce" d="M483.44,-575.78C455.41,-551.28 410,-503.5 410,-451 410,-451 410,-451 410,-377 410,-335.97 396.77,-289.97 387.06,-261.74"/>
<polygon fill="#1414ce" stroke="#1414ce" points="390.32,-260.45 383.68,-252.19 383.72,-262.78 390.32,-260.45"/>
</a>
</g>
</g>
<!-- 4&#45;&gt;16 -->
<g id="edge54" class="edge">
<title>4&#45;&gt;16</title>
<g id="a_edge54"><a xlink:title="include">
<path fill="none" stroke="#1414ce" d="M441.36,-587.04C402.63,-580.65 354.04,-567.42 319,-540 283.1,-511.9 268,-496.59 268,-451 268,-451 268,-451 268,-305 268,-261.81 280.25,-249.91 307,-216 316.42,-204.06 329.13,-193.37 341.14,-184.78"/>
<polygon fill="#1414ce" stroke="#1414ce" points="343.43,-187.45 349.7,-178.9 339.47,-181.68 343.43,-187.45"/>
</a>
</g>
</g>
<!-- 4&#45;&gt;5 -->
<g id="edge49" class="edge">
<title>4&#45;&gt;5</title>
<g id="a_edge49"><a xlink:title="include">
<path fill="none" stroke="#1414ce" d="M441.26,-588.54C363.21,-581.98 236.73,-567.41 199,-540 74.99,-449.9 38,-388.28 38,-235 38,-235 38,-235 38,-161 38,-30.99 519.69,-19.22 672.84,-18.77"/>
<polygon fill="#1414ce" stroke="#1414ce" points="672.87,-22.27 682.87,-18.75 672.86,-15.27 672.87,-22.27"/>
</a>
</g>
</g>
<!-- 4&#45;&gt;20 -->
<g id="edge58" class="edge">
<title>4&#45;&gt;20</title>
<g id="a_edge58"><a xlink:title="include">
<path fill="none" stroke="#1414ce" d="M568.72,-578.41C607.65,-568.86 658.21,-555.35 702,-540 759.51,-519.84 823.59,-490.74 864.31,-471.37"/>
<polygon fill="#1414ce" stroke="#1414ce" points="865.88,-474.5 873.39,-467.03 862.86,-468.19 865.88,-474.5"/>
</a>
</g>
</g>
<!-- 4&#45;&gt;10 -->
<g id="edge52" class="edge">
<title>4&#45;&gt;10</title>
<g id="a_edge52"><a xlink:title="include">
<path fill="none" stroke="#1414ce" d="M568.59,-582.65C620.39,-573.52 695.14,-558.76 759,-540 988.13,-472.69 1131.85,-530.96 1251,-324 1275.82,-280.89 1250.39,-222.18 1231.48,-188.87"/>
<polygon fill="#1414ce" stroke="#1414ce" points="1234.45,-187.02 1226.36,-180.18 1228.42,-190.57 1234.45,-187.02"/>
</a>
</g>
</g>
<!-- 4&#45;&gt;8 -->
<g id="edge51" class="edge">
<title>4&#45;&gt;8</title>
<g id="a_edge51"><a xlink:title="include">
<path fill="none" stroke="#1414ce" d="M501.16,-575.61C495.6,-548.94 486,-496.27 486,-451 486,-451 486,-451 486,-377 486,-319.18 545.22,-279.04 591.38,-256.54"/>
<polygon fill="#1414ce" stroke="#1414ce" points="593.16,-259.57 600.71,-252.14 590.17,-253.24 593.16,-259.57"/>
</a>
</g>
</g>
<!-- 4&#45;&gt;19 -->
<g id="edge56" class="edge">
<title>4&#45;&gt;19</title>
<g id="a_edge56"><a xlink:title="include">
<path fill="none" stroke="#1414ce" d="M441.27,-587.68C369.53,-580.55 258.71,-565.7 226,-540 198.35,-518.28 102.45,-286.36 95,-252 91.61,-236.36 88.08,-230.43 95,-216 100.97,-203.54 111.46,-193.08 122.35,-184.84"/>
<polygon fill="#1414ce" stroke="#1414ce" points="124.52,-187.59 130.68,-178.97 120.49,-181.87 124.52,-187.59"/>
</a>
</g>
</g>
<!-- 4&#45;&gt;29 -->
<g id="edge59" class="edge">
<title>4&#45;&gt;29</title>
<g id="a_edge59"><a xlink:title="include">
<path fill="none" stroke="#1414ce" d="M441.3,-586.78C376.29,-579.2 281.18,-564.31 254,-540 211.37,-501.89 172.24,-329.18 158.35,-261.92"/>
<polygon fill="#1414ce" stroke="#1414ce" points="161.77,-261.17 156.34,-252.07 154.91,-262.57 161.77,-261.17"/>
</a>
</g>
</g>
<!-- 4&#45;&gt;28 -->
<g id="edge55" class="edge">
<title>4&#45;&gt;28</title>
<g id="a_edge55"><a xlink:title="include">
<path fill="none" stroke="#1414ce" d="M517.77,-575.75C550.54,-532.7 642.33,-419.69 745,-360 794.61,-331.16 817.59,-349.49 869,-324 904.13,-306.58 939.62,-278.7 962.79,-258.78"/>
<polygon fill="#1414ce" stroke="#1414ce" points="965.21,-261.31 970.45,-252.1 960.61,-256.04 965.21,-261.31"/>
</a>
</g>
</g>
<!-- 15 -->
<g id="node30" class="node">
<title>15</title>
<g id="a_node30"><a xlink:title="ets.h">
<polygon fill="#ffffff" stroke="black" points="382,-540 328,-540 328,-504 382,-504 382,-540"/>
<text text-anchor="middle" x="355" y="-518.3" font-family="Times,serif" font-size="14.00">ets.h</text>
</a>
</g>
</g>
<!-- 4&#45;&gt;15 -->
<g id="edge53" class="edge">
<title>4&#45;&gt;15</title>
<g id="a_edge53"><a xlink:title="include">
<path fill="none" stroke="#1414ce" d="M468.31,-575.88C444.98,-564.99 414.9,-550.95 391.59,-540.07"/>
<polygon fill="#1414ce" stroke="#1414ce" points="392.92,-536.83 382.38,-535.78 389.96,-543.18 392.92,-536.83"/>
</a>
</g>
</g>
<!-- 19&#45;&gt;9 -->
<g id="edge60" class="edge">
<title>19&#45;&gt;9</title>
<g id="a_edge60"><a xlink:title="include">
<path fill="none" stroke="#1414ce" d="M191.17,-153.64C239.88,-141.76 336.4,-118.22 396.25,-103.62"/>
<polygon fill="#1414ce" stroke="#1414ce" points="397.37,-106.95 406.26,-101.18 395.71,-100.15 397.37,-106.95"/>
</a>
</g>
</g>
<!-- 29&#45;&gt;9 -->
<g id="edge61" class="edge">
<title>29&#45;&gt;9</title>
<g id="a_edge61"><a xlink:title="include">
<path fill="none" stroke="#1414ce" d="M189.36,-215.91C211.3,-205.57 239.79,-192.1 265,-180 312.72,-157.11 367.25,-130.53 404.29,-112.42"/>
<polygon fill="#1414ce" stroke="#1414ce" points="405.87,-115.55 413.31,-108.01 402.79,-109.26 405.87,-115.55"/>
</a>
</g>
</g>
<!-- 29&#45;&gt;16 -->
<g id="edge63" class="edge">
<title>29&#45;&gt;16</title>
<g id="a_edge63"><a xlink:title="include">
<path fill="none" stroke="#1414ce" d="M202.16,-217.64C243.77,-204.63 302.5,-186.28 340.16,-174.51"/>
<polygon fill="#1414ce" stroke="#1414ce" points="341.23,-177.85 349.73,-171.52 339.14,-171.16 341.23,-177.85"/>
</a>
</g>
</g>
<!-- 29&#45;&gt;5 -->
<g id="edge62" class="edge">
<title>29&#45;&gt;5</title>
<g id="a_edge62"><a xlink:title="include">
<path fill="none" stroke="#1414ce" d="M172.45,-215.84C194.19,-197.07 230.84,-166.64 265,-144 320.7,-107.08 333.81,-93.73 397,-72 491.65,-39.45 609.01,-26.58 672.66,-21.74"/>
<polygon fill="#1414ce" stroke="#1414ce" points="673.06,-25.22 682.78,-21 672.55,-18.24 673.06,-25.22"/>
</a>
</g>
</g>
<!-- 1 -->
<g id="node26" class="node">
<title>1</title>
<g id="a_node26"><a xlink:title="/__w/AtomVM/AtomVM/src/libAtomVM/port.c">
<polygon fill="#bfbfbf" stroke="black" points="812.5,-828 477.5,-828 477.5,-792 812.5,-792 812.5,-828"/>
<text text-anchor="middle" x="645" y="-806.3" font-family="Times,serif" font-size="14.00">/__w/AtomVM/AtomVM/src/libAtomVM/port.c</text>
</a>
</g>
</g>
<!-- 1&#45;&gt;30 -->
<g id="edge66" class="edge">
<title>1&#45;&gt;30</title>
<g id="a_edge66"><a xlink:title="include">
<path fill="none" stroke="#1414ce" d="M646.48,-791.94C648.57,-773.51 653.38,-743.63 664,-720 668.36,-710.31 674.69,-700.66 681,-692.31"/>
<polygon fill="#1414ce" stroke="#1414ce" points="683.77,-694.45 687.22,-684.44 678.27,-690.11 683.77,-694.45"/>
</a>
</g>
</g>
<!-- 1&#45;&gt;3 -->
<g id="edge65" class="edge">
<title>1&#45;&gt;3</title>
<g id="a_edge65"><a xlink:title="include">
<path fill="none" stroke="#1414ce" d="M610.62,-791.95C594.35,-782.78 575.38,-770.4 561,-756 542.68,-737.66 527.45,-712.28 517.52,-693.31"/>
<polygon fill="#1414ce" stroke="#1414ce" points="520.6,-691.65 512.96,-684.32 514.36,-694.82 520.6,-691.65"/>
</a>
</g>
</g>
<!-- 1&#45;&gt;4 -->
<g id="edge67" class="edge">
<title>1&#45;&gt;4</title>
<g id="a_edge67"><a xlink:title="include">
<path fill="none" stroke="#1414ce" d="M637.09,-791.72C622.8,-761.3 590.8,-696.8 555,-648 547.71,-638.06 538.72,-628.01 530.39,-619.37"/>
<polygon fill="#1414ce" stroke="#1414ce" points="532.81,-616.84 523.29,-612.18 527.83,-621.76 532.81,-616.84"/>
</a>
</g>
</g>
<!-- 1&#45;&gt;28 -->
<g id="edge68" class="edge">
<title>1&#45;&gt;28</title>
<g id="a_edge68"><a xlink:title="include">
<path fill="none" stroke="#1414ce" d="M812.61,-795.98C930.17,-776.54 1076.83,-728.75 1138,-612 1204.72,-484.66 1070.11,-320.51 1012.97,-259.37"/>
<polygon fill="#1414ce" stroke="#1414ce" points="1015.51,-256.95 1006.09,-252.1 1010.42,-261.77 1015.51,-256.95"/>
</a>
</g>
</g>
<!-- 2 -->
<g id="node28" class="node">
<title>2</title>
<g id="a_node28"><a xlink:title="port.h">
<polygon fill="#ffffff" stroke="black" points="733,-756 673,-756 673,-720 733,-720 733,-756"/>
<text text-anchor="middle" x="703" y="-734.3" font-family="Times,serif" font-size="14.00">port.h</text>
</a>
</g>
</g>
<!-- 1&#45;&gt;2 -->
<g id="edge64" class="edge">
<title>1&#45;&gt;2</title>
<g id="a_edge64"><a xlink:title="include">
<path fill="none" stroke="#1414ce" d="M659.34,-791.7C666.29,-783.3 674.77,-773.07 682.4,-763.86"/>
<polygon fill="#1414ce" stroke="#1414ce" points="685.14,-766.04 688.83,-756.1 679.75,-761.57 685.14,-766.04"/>
</a>
</g>
</g>
<!-- 28&#45;&gt;9 -->
<g id="edge69" class="edge">
<title>28&#45;&gt;9</title>
<g id="a_edge69"><a xlink:title="include">
<path fill="none" stroke="#1414ce" d="M945.81,-233.25C875.84,-232.25 734.53,-224.29 625,-180 599.61,-169.73 598.9,-157.36 575,-144 550.99,-130.58 522.89,-118.51 499.23,-109.29"/>
<polygon fill="#1414ce" stroke="#1414ce" points="500.32,-105.96 489.73,-105.65 497.81,-112.5 500.32,-105.96"/>
</a>
</g>
</g>
<!-- 28&#45;&gt;24 -->
<g id="edge72" class="edge">
<title>28&#45;&gt;24</title>
<g id="a_edge72"><a xlink:title="include">
<path fill="none" stroke="#1414ce" d="M986.03,-215.7C984.71,-207.98 983.12,-198.71 981.65,-190.11"/>
<polygon fill="#1414ce" stroke="#1414ce" points="985.07,-189.37 979.93,-180.1 978.17,-190.55 985.07,-189.37"/>
</a>
</g>
</g>
<!-- 28&#45;&gt;16 -->
<g id="edge70" class="edge">
<title>28&#45;&gt;16</title>
<g id="a_edge70"><a xlink:title="include">
<path fill="none" stroke="#1414ce" d="M945.97,-228.08C831.56,-214.99 521.3,-179.5 414.06,-167.24"/>
<polygon fill="#1414ce" stroke="#1414ce" points="414.37,-163.75 404.04,-166.09 413.57,-170.71 414.37,-163.75"/>
</a>
</g>
</g>
<!-- 28&#45;&gt;11 -->
<g id="edge71" class="edge">
<title>28&#45;&gt;11</title>
<g id="a_edge71"><a xlink:title="include">
<path fill="none" stroke="#1414ce" d="M1010.23,-215.87C1041.55,-190.6 1100.23,-143.25 1135.65,-114.68"/>
<polygon fill="#1414ce" stroke="#1414ce" points="1138.11,-117.19 1143.69,-108.19 1133.71,-111.74 1138.11,-117.19"/>
</a>
</g>
</g>
<!-- 2&#45;&gt;30 -->
<g id="edge74" class="edge">
<title>2&#45;&gt;30</title>
<g id="a_edge74"><a xlink:title="include">
<path fill="none" stroke="#1414ce" d="M703,-719.7C703,-711.98 703,-702.71 703,-694.11"/>
<polygon fill="#1414ce" stroke="#1414ce" points="706.5,-694.1 703,-684.1 699.5,-694.1 706.5,-694.1"/>
</a>
</g>
</g>
<!-- 2&#45;&gt;3 -->
<g id="edge73" class="edge">
<title>2&#45;&gt;3</title>
<g id="a_edge73"><a xlink:title="include">
<path fill="none" stroke="#1414ce" d="M672.93,-726.37C642.04,-715.45 593.39,-698.25 556.39,-685.17"/>
<polygon fill="#1414ce" stroke="#1414ce" points="557.36,-681.8 546.77,-681.77 555.03,-688.4 557.36,-681.8"/>
</a>
</g>
</g>
<!-- 2&#45;&gt;23 -->
<g id="edge76" class="edge">
<title>2&#45;&gt;23</title>
<g id="a_edge76"><a xlink:title="include">
<path fill="none" stroke="#1414ce" d="M733.41,-736.59C793.17,-734.83 929.24,-726.1 1034,-684 1161.44,-632.78 1237,-588.35 1237,-451 1237,-451 1237,-451 1237,-377 1237,-327.3 1194.78,-283.77 1163.63,-258.42"/>
<polygon fill="#1414ce" stroke="#1414ce" points="1165.6,-255.52 1155.58,-252.07 1161.27,-261.01 1165.6,-255.52"/>
</a>
</g>
</g>
<!-- 2&#45;&gt;20 -->
<g id="edge77" class="edge">
<title>2&#45;&gt;20</title>
<g id="a_edge77"><a xlink:title="include">
<path fill="none" stroke="#1414ce" d="M733.26,-732.59C820.9,-719.15 1071.63,-675.69 1119,-612 1172.28,-540.36 1024.82,-485.39 948.52,-462.55"/>
<polygon fill="#1414ce" stroke="#1414ce" points="949.28,-459.13 938.7,-459.67 947.31,-465.84 949.28,-459.13"/>
</a>
</g>
</g>
<!-- 2&#45;&gt;4 -->
<g id="edge75" class="edge">
<title>2&#45;&gt;4</title>
<g id="a_edge75"><a xlink:title="include">
<path fill="none" stroke="#1414ce" d="M679.41,-719.9C665.47,-709.67 647.56,-696.31 632,-684 612.45,-668.54 609.14,-662.68 589,-648 574.46,-637.4 557.82,-626.64 543.2,-617.6"/>
<polygon fill="#1414ce" stroke="#1414ce" points="544.76,-614.45 534.4,-612.22 541.11,-620.42 544.76,-614.45"/>
</a>
</g>
</g>
<!-- 15&#45;&gt;17 -->
<g id="edge79" class="edge">
<title>15&#45;&gt;17</title>
<g id="a_edge79"><a xlink:title="include">
<path fill="none" stroke="#1414ce" d="M356.31,-503.97C359.98,-456.29 370.37,-321.18 374.87,-262.63"/>
<polygon fill="#1414ce" stroke="#1414ce" points="378.39,-262.55 375.67,-252.31 371.41,-262.01 378.39,-262.55"/>
</a>
</g>
</g>
<!-- 15&#45;&gt;16 -->
<g id="edge78" class="edge">
<title>15&#45;&gt;16</title>
<g id="a_edge78"><a xlink:title="include">
<path fill="none" stroke="#1414ce" d="M344.85,-503.73C330.49,-477.64 306,-426.2 306,-379 306,-379 306,-379 306,-305 306,-264.55 305.85,-251.63 325,-216 330.71,-205.37 339.2,-195.43 347.66,-187.1"/>
<polygon fill="#1414ce" stroke="#1414ce" points="350.12,-189.6 355.03,-180.21 345.33,-184.48 350.12,-189.6"/>
</a>
</g>
</g>
<!-- 15&#45;&gt;20 -->
<g id="edge80" class="edge">
<title>15&#45;&gt;20</title>
<g id="a_edge80"><a xlink:title="include">
<path fill="none" stroke="#1414ce" d="M382.32,-517.53C471.53,-506.2 754.73,-470.22 863.18,-456.44"/>
<polygon fill="#1414ce" stroke="#1414ce" points="863.94,-459.87 873.42,-455.14 863.06,-452.93 863.94,-459.87"/>
</a>
</g>
</g>
</g>
</svg>
