<?xml version="1.0" encoding="UTF-8" standalone="no"?>
<!DOCTYPE svg PUBLIC "-//W3C//DTD SVG 1.1//EN"
 "http://www.w3.org/Graphics/SVG/1.1/DTD/svg11.dtd">
<!-- Generated by graphviz version 2.43.0 (0)
 -->
<!-- Title: %3 Pages: 1 -->
<svg width="1167pt" height="404pt"
 viewBox="0.00 0.00 1167.22 404.00" xmlns="http://www.w3.org/2000/svg" xmlns:xlink="http://www.w3.org/1999/xlink">
<g id="graph0" class="graph" transform="scale(1 1) rotate(0) translate(4 400)">
<title>%3</title>
<polygon fill="transparent" stroke="transparent" points="-4,4 -4,-400 1163.22,-400 1163.22,4 -4,4"/>
<!-- 21 -->
<g id="node1" class="node">
<title>21</title>
<g id="a_node1"><a xlink:title="SpinLock">
<polygon fill="#ffffff" stroke="black" points="957.22,-324 875.22,-324 875.22,-288 957.22,-288 957.22,-324"/>
<text text-anchor="middle" x="916.22" y="-302.3" font-family="Times,serif" font-size="14.00">SpinLock</text>
</a>
</g>
</g>
<!-- 1 -->
<g id="node2" class="node">
<title>1</title>
<g id="a_node2"><a xlink:title="SelectEvent">
<polygon fill="#bfbfbf" stroke="black" points="472.72,-324 369.72,-324 369.72,-288 472.72,-288 472.72,-324"/>
<text text-anchor="middle" x="421.22" y="-302.3" font-family="Times,serif" font-size="14.00">SelectEvent</text>
</a>
</g>
</g>
<!-- 5 -->
<g id="node5" class="node">
<title>5</title>
<g id="a_node5"><a xlink:title="ListHead">
<polygon fill="#ffffff" stroke="black" points="503.72,-36 422.72,-36 422.72,0 503.72,0 503.72,-36"/>
<text text-anchor="middle" x="463.22" y="-14.3" font-family="Times,serif" font-size="14.00">ListHead</text>
</a>
</g>
</g>
<!-- 1&#45;&gt;5 -->
<g id="edge2" class="edge">
<title>1&#45;&gt;5</title>
<g id="a_edge2"><a xlink:title="usage">
<path fill="none" stroke="#1414ce" d="M429.95,-287.79C434.7,-277.64 440.2,-264.39 443.22,-252 460.98,-179.28 463.54,-90.45 463.57,-46.43"/>
<polygon fill="#1414ce" stroke="#1414ce" points="467.07,-46.23 463.54,-36.25 460.07,-46.26 467.07,-46.23"/>
</a>
</g>
</g>
<!-- 2 -->
<g id="node17" class="node">
<title>2</title>
<g id="a_node17"><a xlink:title="RefcBinary">
<polygon fill="#ffffff" stroke="black" points="434.72,-252 339.72,-252 339.72,-216 434.72,-216 434.72,-252"/>
<text text-anchor="middle" x="387.22" y="-230.3" font-family="Times,serif" font-size="14.00">RefcBinary</text>
</a>
</g>
</g>
<!-- 1&#45;&gt;2 -->
<g id="edge1" class="edge">
<title>1&#45;&gt;2</title>
<g id="a_edge1"><a xlink:title="usage">
<path fill="none" stroke="#1414ce" d="M412.82,-287.7C408.95,-279.73 404.27,-270.1 399.98,-261.26"/>
<polygon fill="#1414ce" stroke="#1414ce" points="403.05,-259.57 395.53,-252.1 396.75,-262.63 403.05,-259.57"/>
</a>
</g>
</g>
<!-- 3 -->
<g id="node3" class="node">
<title>3</title>
<g id="a_node3"><a xlink:title="ResourceType">
<polygon fill="#ffffff" stroke="black" points="608.72,-180 491.72,-180 491.72,-144 608.72,-144 608.72,-180"/>
<text text-anchor="middle" x="550.22" y="-158.3" font-family="Times,serif" font-size="14.00">ResourceType</text>
</a>
</g>
</g>
<!-- 3&#45;&gt;5 -->
<g id="edge5" class="edge">
<title>3&#45;&gt;5</title>
<g id="a_edge5"><a xlink:title="usage">
<path fill="none" stroke="#1414ce" d="M539.73,-143.87C524.64,-119.24 496.7,-73.64 479.08,-44.88"/>
<polygon fill="#1414ce" stroke="#1414ce" points="481.96,-42.89 473.75,-36.19 475.99,-46.54 481.96,-42.89"/>
</a>
</g>
</g>
<!-- 6 -->
<g id="node8" class="node">
<title>6</title>
<g id="a_node8"><a xlink:title="GlobalContext">
<polygon fill="#ffffff" stroke="black" points="792.72,-396 673.72,-396 673.72,-360 792.72,-360 792.72,-396"/>
<text text-anchor="middle" x="733.22" y="-374.3" font-family="Times,serif" font-size="14.00">GlobalContext</text>
</a>
</g>
</g>
<!-- 3&#45;&gt;6 -->
<g id="edge4" class="edge">
<title>3&#45;&gt;6</title>
<g id="a_edge4"><a xlink:title="usage">
<path fill="none" stroke="#1414ce" d="M539.23,-180.09C520.29,-211.93 486.6,-280.99 520.22,-324 537.87,-346.58 608.29,-360.92 663.39,-368.91"/>
<polygon fill="#1414ce" stroke="#1414ce" points="663.1,-372.4 673.49,-370.33 664.07,-365.47 663.1,-372.4"/>
</a>
</g>
</g>
<!-- 4 -->
<g id="node20" class="node">
<title>4</title>
<g id="a_node20"><a xlink:title="SyncList">
<polygon fill="#ffffff" stroke="black" points="678.22,-108 600.22,-108 600.22,-72 678.22,-72 678.22,-108"/>
<text text-anchor="middle" x="639.22" y="-86.3" font-family="Times,serif" font-size="14.00">SyncList</text>
</a>
</g>
</g>
<!-- 3&#45;&gt;4 -->
<g id="edge3" class="edge">
<title>3&#45;&gt;4</title>
<g id="a_edge3"><a xlink:title="usage">
<path fill="none" stroke="#1414ce" d="M572.22,-143.7C583.43,-134.88 597.23,-124.03 609.38,-114.47"/>
<polygon fill="#1414ce" stroke="#1414ce" points="611.78,-117.04 617.48,-108.1 607.45,-111.54 611.78,-117.04"/>
</a>
</g>
</g>
<!-- 16 -->
<g id="node4" class="node">
<title>16</title>
<g id="a_node4"><a xlink:title="Module">
<polygon fill="#ffffff" stroke="black" points="141.22,-324 71.22,-324 71.22,-288 141.22,-288 141.22,-324"/>
<text text-anchor="middle" x="106.22" y="-302.3" font-family="Times,serif" font-size="14.00">Module</text>
</a>
</g>
</g>
<!-- 16&#45;&gt;5 -->
<g id="edge8" class="edge">
<title>16&#45;&gt;5</title>
<g id="a_edge8"><a xlink:title="usage">
<path fill="none" stroke="#1414ce" d="M141.63,-290.9C144.53,-289.87 147.41,-288.9 150.22,-288 212.26,-268.23 238.23,-288.38 292.22,-252 313.11,-237.93 406.4,-102.63 445.69,-44.9"/>
<polygon fill="#1414ce" stroke="#1414ce" points="448.79,-46.57 451.51,-36.33 443,-42.63 448.79,-46.57"/>
</a>
</g>
</g>
<!-- 18 -->
<g id="node12" class="node">
<title>18</title>
<g id="a_node12"><a xlink:title="LiteralEntry">
<polygon fill="#ffffff" stroke="black" points="283.22,-252 179.22,-252 179.22,-216 283.22,-216 283.22,-252"/>
<text text-anchor="middle" x="231.22" y="-230.3" font-family="Times,serif" font-size="14.00">LiteralEntry</text>
</a>
</g>
</g>
<!-- 16&#45;&gt;18 -->
<g id="edge7" class="edge">
<title>16&#45;&gt;18</title>
<g id="a_edge7"><a xlink:title="usage">
<path fill="none" stroke="#1414ce" d="M136.8,-287.88C153.3,-278.64 173.85,-267.13 191.56,-257.21"/>
<polygon fill="#1414ce" stroke="#1414ce" points="193.51,-260.13 200.53,-252.19 190.09,-254.02 193.51,-260.13"/>
</a>
</g>
</g>
<!-- 17 -->
<g id="node19" class="node">
<title>17</title>
<g id="a_node19"><a xlink:title="ExportedFunction">
<polygon fill="#ffffff" stroke="black" points="161.22,-252 15.22,-252 15.22,-216 161.22,-216 161.22,-252"/>
<text text-anchor="middle" x="88.22" y="-230.3" font-family="Times,serif" font-size="14.00">ExportedFunction</text>
</a>
</g>
</g>
<!-- 16&#45;&gt;17 -->
<g id="edge6" class="edge">
<title>16&#45;&gt;17</title>
<g id="a_edge6"><a xlink:title="usage">
<path fill="none" stroke="#1414ce" d="M101.77,-287.7C99.77,-279.9 97.35,-270.51 95.12,-261.83"/>
<polygon fill="#1414ce" stroke="#1414ce" points="98.5,-260.92 92.62,-252.1 91.72,-262.66 98.5,-260.92"/>
</a>
</g>
</g>
<!-- 5&#45;&gt;5 -->
<g id="edge9" class="edge">
<title>5&#45;&gt;5</title>
<g id="a_edge9"><a xlink:title="usage">
<path fill="none" stroke="#1414ce" d="M503.96,-31.31C514.12,-30.38 521.72,-25.95 521.72,-18 521.72,-12.91 518.6,-9.26 513.69,-7.05"/>
<polygon fill="#1414ce" stroke="#1414ce" points="514.5,-3.64 503.96,-4.69 512.85,-10.45 514.5,-3.64"/>
</a>
</g>
</g>
<!-- 13 -->
<g id="node6" class="node">
<title>13</title>
<g id="a_node6"><a xlink:title="HeapFragment">
<polygon fill="#ffffff" stroke="black" points="1065.72,-36 940.72,-36 940.72,0 1065.72,0 1065.72,-36"/>
<text text-anchor="middle" x="1003.22" y="-14.3" font-family="Times,serif" font-size="14.00">HeapFragment</text>
</a>
</g>
</g>
<!-- 13&#45;&gt;13 -->
<g id="edge10" class="edge">
<title>13&#45;&gt;13</title>
<g id="a_edge10"><a xlink:title="usage">
<path fill="none" stroke="#1414ce" d="M1066,-30.55C1076.49,-28.79 1083.72,-24.61 1083.72,-18 1083.72,-13.77 1080.75,-10.53 1075.86,-8.29"/>
<polygon fill="#1414ce" stroke="#1414ce" points="1076.58,-4.85 1066,-5.45 1074.65,-11.58 1076.58,-4.85"/>
</a>
</g>
</g>
<!-- 15 -->
<g id="node7" class="node">
<title>15</title>
<g id="a_node7"><a xlink:title="RefcBinaryQueueItem">
<polygon fill="#ffffff" stroke="black" points="333.22,-324 159.22,-324 159.22,-288 333.22,-288 333.22,-324"/>
<text text-anchor="middle" x="246.22" y="-302.3" font-family="Times,serif" font-size="14.00">RefcBinaryQueueItem</text>
</a>
</g>
</g>
<!-- 15&#45;&gt;15 -->
<g id="edge12" class="edge">
<title>15&#45;&gt;15</title>
<g id="a_edge12"><a xlink:title="usage">
<path fill="none" stroke="#1414ce" d="M333.53,-317.68C344.22,-315.59 351.22,-311.7 351.22,-306 351.22,-302.35 348.35,-299.44 343.47,-297.27"/>
<polygon fill="#1414ce" stroke="#1414ce" points="344.11,-293.81 333.53,-294.32 342.12,-300.52 344.11,-293.81"/>
</a>
</g>
</g>
<!-- 15&#45;&gt;2 -->
<g id="edge11" class="edge">
<title>15&#45;&gt;2</title>
<g id="a_edge11"><a xlink:title="usage">
<path fill="none" stroke="#1414ce" d="M280.72,-287.88C299.66,-278.47 323.35,-266.71 343.58,-256.67"/>
<polygon fill="#1414ce" stroke="#1414ce" points="345.2,-259.77 352.6,-252.19 342.08,-253.5 345.2,-259.77"/>
</a>
</g>
</g>
<!-- 6&#45;&gt;21 -->
<g id="edge21" class="edge">
<title>6&#45;&gt;21</title>
<g id="a_edge21"><a xlink:title="usage">
<path fill="none" stroke="#1414ce" d="M777.99,-359.88C804.49,-349.74 838.15,-336.87 865.61,-326.36"/>
<polygon fill="#1414ce" stroke="#1414ce" points="866.96,-329.59 875.05,-322.75 864.46,-323.05 866.96,-329.59"/>
</a>
</g>
</g>
<!-- 6&#45;&gt;16 -->
<g id="edge18" class="edge">
<title>6&#45;&gt;16</title>
<g id="a_edge18"><a xlink:title="usage">
<path fill="none" stroke="#1414ce" d="M673.61,-377.01C568.88,-375.84 345.34,-368.11 151.3,-323.87"/>
<polygon fill="#1414ce" stroke="#1414ce" points="152.03,-320.45 141.5,-321.6 150.45,-327.27 152.03,-320.45"/>
</a>
</g>
</g>
<!-- 6&#45;&gt;5 -->
<g id="edge22" class="edge">
<title>6&#45;&gt;5</title>
<g id="a_edge22"><a xlink:title="usage">
<path fill="none" stroke="#1414ce" d="M749.71,-359.77C772.07,-334.53 809.22,-285.05 809.22,-235 809.22,-235 809.22,-235 809.22,-161 809.22,-93.88 748.19,-100.06 687.22,-72 631.03,-46.14 560.89,-32.18 514.22,-25.18"/>
<polygon fill="#1414ce" stroke="#1414ce" points="514.45,-21.67 504.05,-23.7 513.45,-28.6 514.45,-21.67"/>
</a>
</g>
</g>
<!-- 6&#45;&gt;15 -->
<g id="edge16" class="edge">
<title>6&#45;&gt;15</title>
<g id="a_edge16"><a xlink:title="usage">
<path fill="none" stroke="#1414ce" d="M673.45,-368.64C599.77,-358.3 470.74,-340.09 360.22,-324 354.78,-323.21 349.19,-322.39 343.54,-321.56"/>
<polygon fill="#1414ce" stroke="#1414ce" points="343.76,-318.05 333.35,-320.06 342.73,-324.98 343.76,-318.05"/>
</a>
</g>
</g>
<!-- 7 -->
<g id="node9" class="node">
<title>7</title>
<g id="a_node9"><a xlink:title="Ets">
<polygon fill="#ffffff" stroke="black" points="712.22,-180 658.22,-180 658.22,-144 712.22,-144 712.22,-180"/>
<text text-anchor="middle" x="685.22" y="-158.3" font-family="Times,serif" font-size="14.00">Ets</text>
</a>
</g>
</g>
<!-- 6&#45;&gt;7 -->
<g id="edge13" class="edge">
<title>6&#45;&gt;7</title>
<g id="a_edge13"><a xlink:title="usage">
<path fill="none" stroke="#1414ce" d="M730.86,-359.9C726.59,-330.3 716.75,-267.71 703.22,-216 700.99,-207.44 698.06,-198.27 695.23,-190.01"/>
<polygon fill="#1414ce" stroke="#1414ce" points="698.49,-188.74 691.86,-180.47 691.89,-191.07 698.49,-188.74"/>
</a>
</g>
</g>
<!-- 20 -->
<g id="node11" class="node">
<title>20</title>
<g id="a_node11"><a xlink:title="TimerList">
<polygon fill="#ffffff" stroke="black" points="157.22,-108 71.22,-108 71.22,-72 157.22,-72 157.22,-108"/>
<text text-anchor="middle" x="114.22" y="-86.3" font-family="Times,serif" font-size="14.00">TimerList</text>
</a>
</g>
</g>
<!-- 6&#45;&gt;20 -->
<g id="edge20" class="edge">
<title>6&#45;&gt;20</title>
<g id="a_edge20"><a xlink:title="usage">
<path fill="none" stroke="#1414ce" d="M673.62,-375.03C519.36,-369.55 115.33,-352.62 62.22,-324 14.63,-298.35 -12.64,-266.67 6.22,-216 21.63,-174.59 57.61,-137.75 83.82,-114.98"/>
<polygon fill="#1414ce" stroke="#1414ce" points="86.24,-117.51 91.6,-108.37 81.71,-112.17 86.24,-117.51"/>
</a>
</g>
</g>
<!-- 8 -->
<g id="node15" class="node">
<title>8</title>
<g id="a_node15"><a xlink:title="MessageQueueItem">
<polygon fill="#ffffff" stroke="black" points="687.22,-324 529.22,-324 529.22,-288 687.22,-288 687.22,-324"/>
<text text-anchor="middle" x="608.22" y="-302.3" font-family="Times,serif" font-size="14.00">MessageQueueItem</text>
</a>
</g>
</g>
<!-- 6&#45;&gt;8 -->
<g id="edge14" class="edge">
<title>6&#45;&gt;8</title>
<g id="a_edge14"><a xlink:title="usage">
<path fill="none" stroke="#1414ce" d="M702.64,-359.88C686.15,-350.64 665.6,-339.13 647.89,-329.21"/>
<polygon fill="#1414ce" stroke="#1414ce" points="649.35,-326.02 638.92,-324.19 645.93,-332.13 649.35,-326.02"/>
</a>
</g>
</g>
<!-- 19 -->
<g id="node16" class="node">
<title>19</title>
<g id="a_node16"><a xlink:title="AtomsHashTable">
<polygon fill="#ffffff" stroke="black" points="974.72,-252 837.72,-252 837.72,-216 974.72,-216 974.72,-252"/>
<text text-anchor="middle" x="906.22" y="-230.3" font-family="Times,serif" font-size="14.00">AtomsHashTable</text>
</a>
</g>
</g>
<!-- 6&#45;&gt;19 -->
<g id="edge19" class="edge">
<title>6&#45;&gt;19</title>
<g id="a_edge19"><a xlink:title="usage">
<path fill="none" stroke="#1414ce" d="M767.63,-359.78C785.07,-350.32 806.11,-337.73 823.22,-324 847.05,-304.88 870.44,-278.96 886.29,-260.03"/>
<polygon fill="#1414ce" stroke="#1414ce" points="889.14,-262.07 892.8,-252.13 883.74,-257.62 889.14,-262.07"/>
</a>
</g>
</g>
<!-- 10 -->
<g id="node18" class="node">
<title>10</title>
<g id="a_node18"><a xlink:title="AtomTable">
<polygon fill="#ffffff" stroke="black" points="1067.22,-324 975.22,-324 975.22,-288 1067.22,-288 1067.22,-324"/>
<text text-anchor="middle" x="1021.22" y="-302.3" font-family="Times,serif" font-size="14.00">AtomTable</text>
</a>
</g>
</g>
<!-- 6&#45;&gt;10 -->
<g id="edge15" class="edge">
<title>6&#45;&gt;10</title>
<g id="a_edge15"><a xlink:title="usage">
<path fill="none" stroke="#1414ce" d="M792.91,-364.73C837.85,-355.2 901.17,-341.13 965.22,-324.17"/>
<polygon fill="#1414ce" stroke="#1414ce" points="966.32,-327.5 975.08,-321.54 964.52,-320.74 966.32,-327.5"/>
</a>
</g>
</g>
<!-- 6&#45;&gt;4 -->
<g id="edge17" class="edge">
<title>6&#45;&gt;4</title>
<g id="a_edge17"><a xlink:title="usage">
<path fill="none" stroke="#1414ce" d="M737.49,-359.88C746.66,-319.01 764.12,-213.91 721.22,-144 713.16,-130.85 700.46,-120.36 687.45,-112.29"/>
<polygon fill="#1414ce" stroke="#1414ce" points="688.86,-109.05 678.45,-107.08 685.35,-115.12 688.86,-109.05"/>
</a>
</g>
</g>
<!-- 7&#45;&gt;4 -->
<g id="edge23" class="edge">
<title>7&#45;&gt;4</title>
<g id="a_edge23"><a xlink:title="usage">
<path fill="none" stroke="#1414ce" d="M673.85,-143.7C668.5,-135.56 662.02,-125.69 656.11,-116.7"/>
<polygon fill="#1414ce" stroke="#1414ce" points="658.88,-114.54 650.46,-108.1 653.03,-118.38 658.88,-114.54"/>
</a>
</g>
</g>
<!-- 14 -->
<g id="node10" class="node">
<title>14</title>
<g id="a_node10"><a xlink:title="HNodeGroup">
<polygon fill="#ffffff" stroke="black" points="1141.22,-252 1031.22,-252 1031.22,-216 1141.22,-216 1141.22,-252"/>
<text text-anchor="middle" x="1086.22" y="-230.3" font-family="Times,serif" font-size="14.00">HNodeGroup</text>
</a>
</g>
</g>
<!-- 14&#45;&gt;14 -->
<g id="edge25" class="edge">
<title>14&#45;&gt;14</title>
<g id="a_edge25"><a xlink:title="usage">
<path fill="none" stroke="#1414ce" d="M1141.3,-246.85C1151.8,-245.32 1159.22,-241.03 1159.22,-234 1159.22,-229.5 1156.18,-226.12 1151.22,-223.87"/>
<polygon fill="#1414ce" stroke="#1414ce" points="1151.87,-220.42 1141.3,-221.15 1150.01,-227.17 1151.87,-220.42"/>
</a>
</g>
</g>
<!-- 11 -->
<g id="node21" class="node">
<title>11</title>
<g id="a_node21"><a xlink:title="HNode">
<polygon fill="#ffffff" stroke="black" points="1036.22,-180 970.22,-180 970.22,-144 1036.22,-144 1036.22,-180"/>
<text text-anchor="middle" x="1003.22" y="-158.3" font-family="Times,serif" font-size="14.00">HNode</text>
</a>
</g>
</g>
<!-- 14&#45;&gt;11 -->
<g id="edge24" class="edge">
<title>14&#45;&gt;11</title>
<g id="a_edge24"><a xlink:title="usage">
<path fill="none" stroke="#1414ce" d="M1065.71,-215.7C1055.35,-206.97 1042.64,-196.24 1031.38,-186.75"/>
<polygon fill="#1414ce" stroke="#1414ce" points="1033.4,-183.88 1023.5,-180.1 1028.89,-189.23 1033.4,-183.88"/>
</a>
</g>
</g>
<!-- 20&#45;&gt;5 -->
<g id="edge26" class="edge">
<title>20&#45;&gt;5</title>
<g id="a_edge26"><a xlink:title="usage">
<path fill="none" stroke="#1414ce" d="M157.37,-80.35C221.98,-67.39 343.64,-42.99 412.45,-29.18"/>
<polygon fill="#1414ce" stroke="#1414ce" points="413.49,-32.54 422.61,-27.15 412.12,-25.68 413.49,-32.54"/>
</a>
</g>
</g>
<!-- 9 -->
<g id="node13" class="node">
<title>9</title>
<g id="a_node13"><a xlink:title="MailboxMessage">
<polygon fill="#ffffff" stroke="black" points="676.72,-252 539.72,-252 539.72,-216 676.72,-216 676.72,-252"/>
<text text-anchor="middle" x="608.22" y="-230.3" font-family="Times,serif" font-size="14.00">MailboxMessage</text>
</a>
</g>
</g>
<!-- 9&#45;&gt;9 -->
<g id="edge27" class="edge">
<title>9&#45;&gt;9</title>
<g id="a_edge27"><a xlink:title="usage">
<path fill="none" stroke="#1414ce" d="M676.75,-246.37C687.44,-244.52 694.72,-240.4 694.72,-234 694.72,-229.8 691.59,-226.58 686.41,-224.34"/>
<polygon fill="#1414ce" stroke="#1414ce" points="687.32,-220.96 676.75,-221.63 685.43,-227.7 687.32,-220.96"/>
</a>
</g>
</g>
<!-- 12 -->
<g id="node14" class="node">
<title>12</title>
<g id="a_node14"><a xlink:title="Heap">
<polygon fill="#ffffff" stroke="black" points="1030.22,-108 976.22,-108 976.22,-72 1030.22,-72 1030.22,-108"/>
<text text-anchor="middle" x="1003.22" y="-86.3" font-family="Times,serif" font-size="14.00">Heap</text>
</a>
</g>
</g>
<!-- 12&#45;&gt;13 -->
<g id="edge28" class="edge">
<title>12&#45;&gt;13</title>
<g id="a_edge28"><a xlink:title="usage">
<path fill="none" stroke="#1414ce" d="M1003.22,-71.7C1003.22,-63.98 1003.22,-54.71 1003.22,-46.11"/>
<polygon fill="#1414ce" stroke="#1414ce" points="1006.72,-46.1 1003.22,-36.1 999.72,-46.1 1006.72,-46.1"/>
</a>
</g>
</g>
<!-- 8&#45;&gt;9 -->
<g id="edge29" class="edge">
<title>8&#45;&gt;9</title>
<g id="a_edge29"><a xlink:title="usage">
<path fill="none" stroke="#1414ce" d="M608.22,-287.7C608.22,-279.98 608.22,-270.71 608.22,-262.11"/>
<polygon fill="#1414ce" stroke="#1414ce" points="611.72,-262.1 608.22,-252.1 604.72,-262.1 611.72,-262.1"/>
</a>
</g>
</g>
<!-- 8&#45;&gt;8 -->
<g id="edge30" class="edge">
<title>8&#45;&gt;8</title>
<g id="a_edge30"><a xlink:title="usage">
<path fill="none" stroke="#1414ce" d="M687.39,-317.98C698.09,-315.97 705.22,-311.98 705.22,-306 705.22,-302.08 702.15,-299.01 697.02,-296.8"/>
<polygon fill="#1414ce" stroke="#1414ce" points="697.96,-293.43 687.39,-294.02 696.03,-300.15 697.96,-293.43"/>
</a>
</g>
</g>
<!-- 19&#45;&gt;11 -->
<g id="edge31" class="edge">
<title>19&#45;&gt;11</title>
<g id="a_edge31"><a xlink:title="usage">
<path fill="none" stroke="#1414ce" d="M930.2,-215.7C942.53,-206.8 957.74,-195.82 971.08,-186.2"/>
<polygon fill="#1414ce" stroke="#1414ce" points="973.46,-188.79 979.52,-180.1 969.36,-183.12 973.46,-188.79"/>
</a>
</g>
</g>
<!-- 2&#45;&gt;3 -->
<g id="edge32" class="edge">
<title>2&#45;&gt;3</title>
<g id="a_edge32"><a xlink:title="usage">
<path fill="none" stroke="#1414ce" d="M427.1,-215.88C449.38,-206.31 477.34,-194.3 500.98,-184.15"/>
<polygon fill="#1414ce" stroke="#1414ce" points="502.67,-187.23 510.48,-180.07 499.91,-180.8 502.67,-187.23"/>
</a>
</g>
</g>
<!-- 2&#45;&gt;5 -->
<g id="edge33" class="edge">
<title>2&#45;&gt;5</title>
<g id="a_edge33"><a xlink:title="usage">
<path fill="none" stroke="#1414ce" d="M393.31,-215.85C406.52,-178.68 437.85,-90.44 453.7,-45.82"/>
<polygon fill="#1414ce" stroke="#1414ce" points="457.05,-46.83 457.1,-36.23 450.46,-44.48 457.05,-46.83"/>
</a>
</g>
</g>
<!-- 10&#45;&gt;14 -->
<g id="edge35" class="edge">
<title>10&#45;&gt;14</title>
<g id="a_edge35"><a xlink:title="usage">
<path fill="none" stroke="#1414ce" d="M1037.29,-287.7C1045.16,-279.22 1054.78,-268.86 1063.4,-259.58"/>
<polygon fill="#1414ce" stroke="#1414ce" points="1066.1,-261.81 1070.34,-252.1 1060.97,-257.05 1066.1,-261.81"/>
</a>
</g>
</g>
<!-- 10&#45;&gt;11 -->
<g id="edge34" class="edge">
<title>10&#45;&gt;11</title>
<g id="a_edge34"><a xlink:title="usage">
<path fill="none" stroke="#1414ce" d="M1019.05,-287.87C1015.98,-263.67 1010.35,-219.21 1006.7,-190.39"/>
<polygon fill="#1414ce" stroke="#1414ce" points="1010.13,-189.67 1005.4,-180.19 1003.19,-190.55 1010.13,-189.67"/>
</a>
</g>
</g>
<!-- 4&#45;&gt;5 -->
<g id="edge36" class="edge">
<title>4&#45;&gt;5</title>
<g id="a_edge36"><a xlink:title="usage">
<path fill="none" stroke="#1414ce" d="M600.16,-73.46C574.62,-63.3 541,-49.93 513.47,-38.98"/>
<polygon fill="#1414ce" stroke="#1414ce" points="514.59,-35.67 504.01,-35.22 512.01,-42.17 514.59,-35.67"/>
</a>
</g>
</g>
<!-- 11&#45;&gt;12 -->
<g id="edge38" class="edge">
<title>11&#45;&gt;12</title>
<g id="a_edge38"><a xlink:title="usage">
<path fill="none" stroke="#1414ce" d="M1003.22,-143.7C1003.22,-135.98 1003.22,-126.71 1003.22,-118.11"/>
<polygon fill="#1414ce" stroke="#1414ce" points="1006.72,-118.1 1003.22,-108.1 999.72,-118.1 1006.72,-118.1"/>
</a>
</g>
</g>
<!-- 11&#45;&gt;11 -->
<g id="edge37" class="edge">
<title>11&#45;&gt;11</title>
<g id="a_edge37"><a xlink:title="usage">
<path fill="none" stroke="#1414ce" d="M1036.58,-175.47C1046.5,-175.07 1054.22,-170.58 1054.22,-162 1054.22,-156.64 1051.21,-152.87 1046.52,-150.71"/>
<polygon fill="#1414ce" stroke="#1414ce" points="1047.09,-147.25 1036.58,-148.53 1045.6,-154.09 1047.09,-147.25"/>
</a>
</g>
</g>
</g>
</svg>
