<?xml version="1.0" encoding="UTF-8" standalone="no"?>
<!DOCTYPE svg PUBLIC "-//W3C//DTD SVG 1.1//EN"
 "http://www.w3.org/Graphics/SVG/1.1/DTD/svg11.dtd">
<!-- Generated by graphviz version 2.43.0 (0)
 -->
<!-- Title: %3 Pages: 1 -->
<svg width="1533pt" height="836pt"
 viewBox="0.00 0.00 1532.50 836.00" xmlns="http://www.w3.org/2000/svg" xmlns:xlink="http://www.w3.org/1999/xlink">
<g id="graph0" class="graph" transform="scale(1 1) rotate(0) translate(4 832)">
<title>%3</title>
<polygon fill="transparent" stroke="transparent" points="-4,4 -4,-832 1528.5,-832 1528.5,4 -4,4"/>
<!-- 5 -->
<g id="node1" class="node">
<title>5</title>
<g id="a_node1"><a xlink:title="stdbool.h">
<polygon fill="#ffffff" stroke="black" points="576.5,-108 493.5,-108 493.5,-72 576.5,-72 576.5,-108"/>
<text text-anchor="middle" x="535" y="-86.3" font-family="Times,serif" font-size="14.00">stdbool.h</text>
</a>
</g>
</g>
<!-- 18 -->
<g id="node2" class="node">
<title>18</title>
<g id="a_node2"><a xlink:title="refc_binary.h">
<polygon fill="#ffffff" stroke="black" points="1223,-396 1115,-396 1115,-360 1223,-360 1223,-396"/>
<text text-anchor="middle" x="1169" y="-374.3" font-family="Times,serif" font-size="14.00">refc_binary.h</text>
</a>
</g>
</g>
<!-- 18&#45;&gt;5 -->
<g id="edge1" class="edge">
<title>18&#45;&gt;5</title>
<g id="a_edge1"><a xlink:title="include">
<path fill="none" stroke="#1414ce" d="M1147.88,-359.86C1087.14,-310.88 912.11,-172.09 845,-144 759,-108.01 649.82,-96.45 586.63,-92.74"/>
<polygon fill="#1414ce" stroke="#1414ce" points="586.69,-89.24 576.52,-92.19 586.31,-96.23 586.69,-89.24"/>
</a>
</g>
</g>
<!-- 19 -->
<g id="node7" class="node">
<title>19</title>
<g id="a_node7"><a xlink:title="list.h">
<polygon fill="#ffffff" stroke="black" points="602,-180 548,-180 548,-144 602,-144 602,-180"/>
<text text-anchor="middle" x="575" y="-158.3" font-family="Times,serif" font-size="14.00">list.h</text>
</a>
</g>
</g>
<!-- 18&#45;&gt;19 -->
<g id="edge3" class="edge">
<title>18&#45;&gt;19</title>
<g id="a_edge3"><a xlink:title="include">
<path fill="none" stroke="#1414ce" d="M1114.76,-370.92C1028.15,-359.24 855.69,-327.76 731,-252 712.19,-240.57 715.01,-228.64 697,-216 670.8,-197.61 637.21,-183.6 611.91,-174.62"/>
<polygon fill="#1414ce" stroke="#1414ce" points="612.9,-171.26 602.31,-171.3 610.62,-177.87 612.9,-171.26"/>
</a>
</g>
</g>
<!-- 8 -->
<g id="node9" class="node">
<title>8</title>
<g id="a_node9"><a xlink:title="stdlib.h">
<polygon fill="#ffffff" stroke="black" points="1201.5,-108 1130.5,-108 1130.5,-72 1201.5,-72 1201.5,-108"/>
<text text-anchor="middle" x="1166" y="-86.3" font-family="Times,serif" font-size="14.00">stdlib.h</text>
</a>
</g>
</g>
<!-- 18&#45;&gt;8 -->
<g id="edge2" class="edge">
<title>18&#45;&gt;8</title>
<g id="a_edge2"><a xlink:title="include">
<path fill="none" stroke="#1414ce" d="M1146.85,-359.87C1136.59,-350.52 1125.48,-338 1120,-324 1091.93,-252.28 1129.31,-161.17 1151.58,-117.15"/>
<polygon fill="#1414ce" stroke="#1414ce" points="1154.7,-118.74 1156.2,-108.25 1148.49,-115.51 1154.7,-118.74"/>
</a>
</g>
</g>
<!-- 20 -->
<g id="node14" class="node">
<title>20</title>
<g id="a_node14"><a xlink:title="resources.h">
<polygon fill="#ffffff" stroke="black" points="1229,-324 1129,-324 1129,-288 1229,-288 1229,-324"/>
<text text-anchor="middle" x="1179" y="-302.3" font-family="Times,serif" font-size="14.00">resources.h</text>
</a>
</g>
</g>
<!-- 18&#45;&gt;20 -->
<g id="edge4" class="edge">
<title>18&#45;&gt;20</title>
<g id="a_edge4"><a xlink:title="include">
<path fill="none" stroke="#1414ce" d="M1171.47,-359.7C1172.57,-351.98 1173.9,-342.71 1175.13,-334.11"/>
<polygon fill="#1414ce" stroke="#1414ce" points="1178.61,-334.5 1176.56,-324.1 1171.68,-333.51 1178.61,-334.5"/>
</a>
</g>
</g>
<!-- 24 -->
<g id="node3" class="node">
<title>24</title>
<g id="a_node3"><a xlink:title="atom.h">
<polygon fill="#ffffff" stroke="black" points="154,-468 88,-468 88,-432 154,-432 154,-468"/>
<text text-anchor="middle" x="121" y="-446.3" font-family="Times,serif" font-size="14.00">atom.h</text>
</a>
</g>
</g>
<!-- 6 -->
<g id="node8" class="node">
<title>6</title>
<g id="a_node8"><a xlink:title="stdint.h">
<polygon fill="#ffffff" stroke="black" points="943,-36 871,-36 871,0 943,0 943,-36"/>
<text text-anchor="middle" x="907" y="-14.3" font-family="Times,serif" font-size="14.00">stdint.h</text>
</a>
</g>
</g>
<!-- 24&#45;&gt;6 -->
<g id="edge5" class="edge">
<title>24&#45;&gt;6</title>
<g id="a_edge5"><a xlink:title="include">
<path fill="none" stroke="#1414ce" d="M102.58,-431.64C78.13,-406.62 38,-357.83 38,-307 38,-307 38,-307 38,-161 38,-56.76 153.63,-96.29 255,-72 370.34,-44.36 731.53,-26.54 860.58,-20.92"/>
<polygon fill="#1414ce" stroke="#1414ce" points="861.07,-24.4 870.91,-20.47 860.77,-17.41 861.07,-24.4"/>
</a>
</g>
</g>
<!-- 24&#45;&gt;8 -->
<g id="edge6" class="edge">
<title>24&#45;&gt;8</title>
<g id="a_edge6"><a xlink:title="include">
<path fill="none" stroke="#1414ce" d="M131.45,-431.96C142.73,-413.81 161.45,-384.4 179,-360 226.67,-293.74 228.28,-265.74 293,-216 356.77,-167 380.74,-162.51 459,-144 741,-77.3 824.65,-158.45 1110,-108 1113.46,-107.39 1117,-106.63 1120.54,-105.78"/>
<polygon fill="#1414ce" stroke="#1414ce" points="1121.68,-109.1 1130.46,-103.18 1119.9,-102.33 1121.68,-109.1"/>
</a>
</g>
</g>
<!-- 13 -->
<g id="node4" class="node">
<title>13</title>
<g id="a_node4"><a xlink:title="assert.h">
<polygon fill="#ffffff" stroke="black" points="1328,-36 1254,-36 1254,0 1328,0 1328,-36"/>
<text text-anchor="middle" x="1291" y="-14.3" font-family="Times,serif" font-size="14.00">assert.h</text>
</a>
</g>
</g>
<!-- 16 -->
<g id="node5" class="node">
<title>16</title>
<g id="a_node5"><a xlink:title="utils.h">
<polygon fill="#ffffff" stroke="black" points="1073,-180 1011,-180 1011,-144 1073,-144 1073,-180"/>
<text text-anchor="middle" x="1042" y="-158.3" font-family="Times,serif" font-size="14.00">utils.h</text>
</a>
</g>
</g>
<!-- 16&#45;&gt;8 -->
<g id="edge9" class="edge">
<title>16&#45;&gt;8</title>
<g id="a_edge9"><a xlink:title="include">
<path fill="none" stroke="#1414ce" d="M1072.33,-143.88C1088.7,-134.64 1109.08,-123.13 1126.65,-113.21"/>
<polygon fill="#1414ce" stroke="#1414ce" points="1128.56,-116.15 1135.55,-108.19 1125.12,-110.06 1128.56,-116.15"/>
</a>
</g>
</g>
<!-- 17 -->
<g id="node16" class="node">
<title>17</title>
<g id="a_node16"><a xlink:title="stddef.h">
<polygon fill="#ffffff" stroke="black" points="1101,-108 1027,-108 1027,-72 1101,-72 1101,-108"/>
<text text-anchor="middle" x="1064" y="-86.3" font-family="Times,serif" font-size="14.00">stddef.h</text>
</a>
</g>
</g>
<!-- 16&#45;&gt;17 -->
<g id="edge7" class="edge">
<title>16&#45;&gt;17</title>
<g id="a_edge7"><a xlink:title="include">
<path fill="none" stroke="#1414ce" d="M1047.44,-143.7C1049.89,-135.9 1052.84,-126.51 1055.57,-117.83"/>
<polygon fill="#1414ce" stroke="#1414ce" points="1058.96,-118.69 1058.62,-108.1 1052.29,-116.59 1058.96,-118.69"/>
</a>
</g>
</g>
<!-- 7 -->
<g id="node30" class="node">
<title>7</title>
<g id="a_node30"><a xlink:title="stdio.h">
<polygon fill="#ffffff" stroke="black" points="1008.5,-108 943.5,-108 943.5,-72 1008.5,-72 1008.5,-108"/>
<text text-anchor="middle" x="976" y="-86.3" font-family="Times,serif" font-size="14.00">stdio.h</text>
</a>
</g>
</g>
<!-- 16&#45;&gt;7 -->
<g id="edge8" class="edge">
<title>16&#45;&gt;7</title>
<g id="a_edge8"><a xlink:title="include">
<path fill="none" stroke="#1414ce" d="M1025.69,-143.7C1017.69,-135.22 1007.93,-124.86 999.18,-115.58"/>
<polygon fill="#1414ce" stroke="#1414ce" points="1001.53,-112.98 992.13,-108.1 996.44,-117.78 1001.53,-112.98"/>
</a>
</g>
</g>
<!-- 21 -->
<g id="node6" class="node">
<title>21</title>
<g id="a_node6"><a xlink:title="synclist.h">
<polygon fill="#ffffff" stroke="black" points="688.5,-252 603.5,-252 603.5,-216 688.5,-216 688.5,-252"/>
<text text-anchor="middle" x="646" y="-230.3" font-family="Times,serif" font-size="14.00">synclist.h</text>
</a>
</g>
</g>
<!-- 21&#45;&gt;19 -->
<g id="edge11" class="edge">
<title>21&#45;&gt;19</title>
<g id="a_edge11"><a xlink:title="include">
<path fill="none" stroke="#1414ce" d="M628.45,-215.7C619.77,-207.14 609.14,-196.66 599.65,-187.3"/>
<polygon fill="#1414ce" stroke="#1414ce" points="601.93,-184.63 592.35,-180.1 597.01,-189.62 601.93,-184.63"/>
</a>
</g>
</g>
<!-- 22 -->
<g id="node26" class="node">
<title>22</title>
<g id="a_node26"><a xlink:title="smp.h">
<polygon fill="#ffffff" stroke="black" points="528,-180 468,-180 468,-144 528,-144 528,-180"/>
<text text-anchor="middle" x="498" y="-158.3" font-family="Times,serif" font-size="14.00">smp.h</text>
</a>
</g>
</g>
<!-- 21&#45;&gt;22 -->
<g id="edge12" class="edge">
<title>21&#45;&gt;22</title>
<g id="a_edge12"><a xlink:title="include">
<path fill="none" stroke="#1414ce" d="M609.8,-215.88C587.93,-205.53 560.05,-192.35 537.6,-181.73"/>
<polygon fill="#1414ce" stroke="#1414ce" points="538.88,-178.46 528.34,-177.35 535.89,-184.79 538.88,-178.46"/>
</a>
</g>
</g>
<!-- 21&#45;&gt;7 -->
<g id="edge10" class="edge">
<title>21&#45;&gt;7</title>
<g id="a_edge10"><a xlink:title="include">
<path fill="none" stroke="#1414ce" d="M685.81,-215.87C748.58,-188.86 870.01,-136.61 934.08,-109.04"/>
<polygon fill="#1414ce" stroke="#1414ce" points="935.67,-112.16 943.48,-105 932.91,-105.73 935.67,-112.16"/>
</a>
</g>
</g>
<!-- 19&#45;&gt;5 -->
<g id="edge13" class="edge">
<title>19&#45;&gt;5</title>
<g id="a_edge13"><a xlink:title="include">
<path fill="none" stroke="#1414ce" d="M565.11,-143.7C560.51,-135.64 554.94,-125.89 549.85,-116.98"/>
<polygon fill="#1414ce" stroke="#1414ce" points="552.77,-115.05 544.77,-108.1 546.7,-118.52 552.77,-115.05"/>
</a>
</g>
</g>
<!-- 27 -->
<g id="node10" class="node">
<title>27</title>
<g id="a_node10"><a xlink:title="context.h">
<polygon fill="#ffffff" stroke="black" points="551.5,-684 468.5,-684 468.5,-648 551.5,-648 551.5,-684"/>
<text text-anchor="middle" x="510" y="-662.3" font-family="Times,serif" font-size="14.00">context.h</text>
</a>
</g>
</g>
<!-- 27&#45;&gt;19 -->
<g id="edge15" class="edge">
<title>27&#45;&gt;19</title>
<g id="a_edge15"><a xlink:title="include">
<path fill="none" stroke="#1414ce" d="M468.49,-648.92C421.67,-627.74 352,-585.7 352,-523 352,-523 352,-523 352,-449 352,-328.73 476.15,-228.71 539.19,-185.68"/>
<polygon fill="#1414ce" stroke="#1414ce" points="541.31,-188.47 547.66,-179.99 537.4,-182.66 541.31,-188.47"/>
</a>
</g>
</g>
<!-- 3 -->
<g id="node15" class="node">
<title>3</title>
<g id="a_node15"><a xlink:title="term.h">
<polygon fill="#ffffff" stroke="black" points="1016.5,-468 951.5,-468 951.5,-432 1016.5,-432 1016.5,-468"/>
<text text-anchor="middle" x="984" y="-446.3" font-family="Times,serif" font-size="14.00">term.h</text>
</a>
</g>
</g>
<!-- 27&#45;&gt;3 -->
<g id="edge18" class="edge">
<title>27&#45;&gt;3</title>
<g id="a_edge18"><a xlink:title="include">
<path fill="none" stroke="#1414ce" d="M551.69,-650.5C580.18,-640.33 618.67,-626.08 652,-612 708.52,-588.12 866.34,-509.83 942.22,-471.93"/>
<polygon fill="#1414ce" stroke="#1414ce" points="944.11,-474.9 951.49,-467.3 940.98,-468.64 944.11,-474.9"/>
</a>
</g>
</g>
<!-- 28 -->
<g id="node24" class="node">
<title>28</title>
<g id="a_node24"><a xlink:title="globalcontext.h">
<polygon fill="#ffffff" stroke="black" points="643.5,-612 516.5,-612 516.5,-576 643.5,-576 643.5,-612"/>
<text text-anchor="middle" x="580" y="-590.3" font-family="Times,serif" font-size="14.00">globalcontext.h</text>
</a>
</g>
</g>
<!-- 27&#45;&gt;28 -->
<g id="edge14" class="edge">
<title>27&#45;&gt;28</title>
<g id="a_edge14"><a xlink:title="include">
<path fill="none" stroke="#1414ce" d="M527.3,-647.7C535.86,-639.14 546.34,-628.66 555.7,-619.3"/>
<polygon fill="#1414ce" stroke="#1414ce" points="558.3,-621.65 562.9,-612.1 553.35,-616.7 558.3,-621.65"/>
</a>
</g>
</g>
<!-- 27&#45;&gt;22 -->
<g id="edge17" class="edge">
<title>27&#45;&gt;22</title>
<g id="a_edge17"><a xlink:title="include">
<path fill="none" stroke="#1414ce" d="M468.47,-652.17C463.6,-650.73 458.7,-649.31 454,-648 391.71,-630.6 361.91,-654.32 313,-612 280.61,-583.97 276,-565.84 276,-523 276,-523 276,-523 276,-377 276,-302.07 272.96,-268.92 326,-216 344.62,-197.42 413.16,-180.35 457.89,-170.85"/>
<polygon fill="#1414ce" stroke="#1414ce" points="458.8,-174.23 467.88,-168.76 457.37,-167.38 458.8,-174.23"/>
</a>
</g>
</g>
<!-- 31 -->
<g id="node28" class="node">
<title>31</title>
<g id="a_node28"><a xlink:title="timer_list.h">
<polygon fill="#ffffff" stroke="black" points="433,-252 335,-252 335,-216 433,-216 433,-252"/>
<text text-anchor="middle" x="384" y="-230.3" font-family="Times,serif" font-size="14.00">timer_list.h</text>
</a>
</g>
</g>
<!-- 27&#45;&gt;31 -->
<g id="edge19" class="edge">
<title>27&#45;&gt;31</title>
<g id="a_edge19"><a xlink:title="include">
<path fill="none" stroke="#1414ce" d="M468.11,-652.22C417.38,-636.74 338.59,-612.61 338,-612 309.55,-582.52 314,-563.97 314,-523 314,-523 314,-523 314,-449 314,-378.37 348.87,-300.83 369.39,-261.33"/>
<polygon fill="#1414ce" stroke="#1414ce" points="372.67,-262.6 374.27,-252.13 366.49,-259.32 372.67,-262.6"/>
</a>
</g>
</g>
<!-- 30 -->
<g id="node29" class="node">
<title>30</title>
<g id="a_node29"><a xlink:title="mailbox.h">
<polygon fill="#ffffff" stroke="black" points="869,-252 783,-252 783,-216 869,-216 869,-252"/>
<text text-anchor="middle" x="826" y="-230.3" font-family="Times,serif" font-size="14.00">mailbox.h</text>
</a>
</g>
</g>
<!-- 27&#45;&gt;30 -->
<g id="edge16" class="edge">
<title>27&#45;&gt;30</title>
<g id="a_edge16"><a xlink:title="include">
<path fill="none" stroke="#1414ce" d="M505.76,-647.7C502.09,-629.34 498.57,-599.75 507,-576 562.18,-420.58 617.34,-397.12 741,-288 754.07,-276.47 769.93,-265.85 784.39,-257.19"/>
<polygon fill="#1414ce" stroke="#1414ce" points="786.31,-260.12 793.18,-252.06 782.78,-254.07 786.31,-260.12"/>
</a>
</g>
</g>
<!-- 10 -->
<g id="node11" class="node">
<title>10</title>
<g id="a_node11"><a xlink:title="memory.h">
<polygon fill="#ffffff" stroke="black" points="1329,-252 1243,-252 1243,-216 1329,-216 1329,-252"/>
<text text-anchor="middle" x="1286" y="-230.3" font-family="Times,serif" font-size="14.00">memory.h</text>
</a>
</g>
</g>
<!-- 10&#45;&gt;16 -->
<g id="edge24" class="edge">
<title>10&#45;&gt;16</title>
<g id="a_edge24"><a xlink:title="include">
<path fill="none" stroke="#1414ce" d="M1242.94,-220.65C1197.75,-207.68 1127.25,-187.46 1082.9,-174.73"/>
<polygon fill="#1414ce" stroke="#1414ce" points="1083.61,-171.3 1073.03,-171.9 1081.68,-178.02 1083.61,-171.3"/>
</a>
</g>
</g>
<!-- 10&#45;&gt;6 -->
<g id="edge20" class="edge">
<title>10&#45;&gt;6</title>
<g id="a_edge20"><a xlink:title="include">
<path fill="none" stroke="#1414ce" d="M1283.76,-215.96C1278.3,-181.92 1260.84,-105.91 1211,-72 1169.75,-43.94 1027.63,-28.66 953.23,-22.41"/>
<polygon fill="#1414ce" stroke="#1414ce" points="953.45,-18.92 943.2,-21.59 952.88,-25.89 953.45,-18.92"/>
</a>
</g>
</g>
<!-- 10&#45;&gt;8 -->
<g id="edge21" class="edge">
<title>10&#45;&gt;8</title>
<g id="a_edge21"><a xlink:title="include">
<path fill="none" stroke="#1414ce" d="M1277.09,-215.88C1266.88,-197.15 1248.97,-166.75 1229,-144 1219.68,-133.39 1208.17,-123.07 1197.55,-114.4"/>
<polygon fill="#1414ce" stroke="#1414ce" points="1199.65,-111.61 1189.65,-108.12 1195.3,-117.08 1199.65,-111.61"/>
</a>
</g>
</g>
<!-- 11 -->
<g id="node17" class="node">
<title>11</title>
<g id="a_node17"><a xlink:title="erl_nif.h">
<polygon fill="#ffffff" stroke="black" points="1431,-180 1357,-180 1357,-144 1431,-144 1431,-180"/>
<text text-anchor="middle" x="1394" y="-158.3" font-family="Times,serif" font-size="14.00">erl_nif.h</text>
</a>
</g>
</g>
<!-- 10&#45;&gt;11 -->
<g id="edge22" class="edge">
<title>10&#45;&gt;11</title>
<g id="a_edge22"><a xlink:title="include">
<path fill="none" stroke="#1414ce" d="M1312.42,-215.88C1326.41,-206.81 1343.78,-195.55 1358.89,-185.76"/>
<polygon fill="#1414ce" stroke="#1414ce" points="1360.99,-188.57 1367.48,-180.19 1357.18,-182.69 1360.99,-188.57"/>
</a>
</g>
</g>
<!-- 12 -->
<g id="node23" class="node">
<title>12</title>
<g id="a_node23"><a xlink:title="term_typedef.h">
<polygon fill="#ffffff" stroke="black" points="1444.5,-108 1319.5,-108 1319.5,-72 1444.5,-72 1444.5,-108"/>
<text text-anchor="middle" x="1382" y="-86.3" font-family="Times,serif" font-size="14.00">term_typedef.h</text>
</a>
</g>
</g>
<!-- 10&#45;&gt;12 -->
<g id="edge23" class="edge">
<title>10&#45;&gt;12</title>
<g id="a_edge23"><a xlink:title="include">
<path fill="none" stroke="#1414ce" d="M1297.58,-215.87C1314.3,-191.14 1345.33,-145.24 1364.75,-116.51"/>
<polygon fill="#1414ce" stroke="#1414ce" points="1367.68,-118.43 1370.38,-108.19 1361.88,-114.51 1367.68,-118.43"/>
</a>
</g>
</g>
<!-- 23 -->
<g id="node12" class="node">
<title>23</title>
<g id="a_node12"><a xlink:title="module.h">
<polygon fill="#ffffff" stroke="black" points="551.5,-756 468.5,-756 468.5,-720 551.5,-720 551.5,-756"/>
<text text-anchor="middle" x="510" y="-734.3" font-family="Times,serif" font-size="14.00">module.h</text>
</a>
</g>
</g>
<!-- 23&#45;&gt;5 -->
<g id="edge25" class="edge">
<title>23&#45;&gt;5</title>
<g id="a_edge25"><a xlink:title="include">
<path fill="none" stroke="#1414ce" d="M468.3,-734.65C377.92,-729.07 166.88,-713.23 102,-684 47.15,-659.29 0,-655.16 0,-595 0,-595 0,-595 0,-305 0,-176.92 120.3,-192.1 239,-144 320.41,-111.01 422.68,-98.49 483.22,-93.78"/>
<polygon fill="#1414ce" stroke="#1414ce" points="483.58,-97.27 493.29,-93.04 483.06,-90.29 483.58,-97.27"/>
</a>
</g>
</g>
<!-- 23&#45;&gt;24 -->
<g id="edge27" class="edge">
<title>23&#45;&gt;24</title>
<g id="a_edge27"><a xlink:title="include">
<path fill="none" stroke="#1414ce" d="M468.38,-732.33C365.33,-719.78 103.34,-681.49 57,-612 27.77,-568.17 68.5,-508.95 97.14,-475.91"/>
<polygon fill="#1414ce" stroke="#1414ce" points="100.06,-477.9 104.11,-468.11 94.84,-473.23 100.06,-477.9"/>
</a>
</g>
</g>
<!-- 23&#45;&gt;6 -->
<g id="edge26" class="edge">
<title>23&#45;&gt;6</title>
<g id="a_edge26"><a xlink:title="include">
<path fill="none" stroke="#1414ce" d="M551.69,-729.17C709.75,-698.78 1269.91,-584.58 1404,-468 1466.36,-413.78 1497,-389.64 1497,-307 1497,-307 1497,-307 1497,-161 1497,-117.07 1490.04,-97.12 1454,-72 1413.32,-43.65 1077.94,-26.39 953.36,-20.91"/>
<polygon fill="#1414ce" stroke="#1414ce" points="953.5,-17.41 943.36,-20.47 953.2,-24.4 953.5,-17.41"/>
</a>
</g>
</g>
<!-- 23&#45;&gt;27 -->
<g id="edge30" class="edge">
<title>23&#45;&gt;27</title>
<g id="a_edge30"><a xlink:title="include">
<path fill="none" stroke="#1414ce" d="M510,-719.7C510,-711.98 510,-702.71 510,-694.11"/>
<polygon fill="#1414ce" stroke="#1414ce" points="513.5,-694.1 510,-684.1 506.5,-694.1 513.5,-694.1"/>
</a>
</g>
</g>
<!-- 32 -->
<g id="node13" class="node">
<title>32</title>
<g id="a_node13"><a xlink:title="valueshashtable.h">
<polygon fill="#ffffff" stroke="black" points="412,-684 266,-684 266,-648 412,-648 412,-684"/>
<text text-anchor="middle" x="339" y="-662.3" font-family="Times,serif" font-size="14.00">valueshashtable.h</text>
</a>
</g>
</g>
<!-- 23&#45;&gt;32 -->
<g id="edge34" class="edge">
<title>23&#45;&gt;32</title>
<g id="a_edge34"><a xlink:title="include">
<path fill="none" stroke="#1414ce" d="M468.17,-719.88C444.58,-710.22 414.94,-698.09 390,-687.88"/>
<polygon fill="#1414ce" stroke="#1414ce" points="391.28,-684.62 380.7,-684.07 388.62,-691.1 391.28,-684.62"/>
</a>
</g>
</g>
<!-- 23&#45;&gt;3 -->
<g id="edge33" class="edge">
<title>23&#45;&gt;3</title>
<g id="a_edge33"><a xlink:title="include">
<path fill="none" stroke="#1414ce" d="M542.65,-719.8C604.88,-686.74 744.29,-611.26 857,-540 890.53,-518.8 927.53,-492.52 952.91,-474.03"/>
<polygon fill="#1414ce" stroke="#1414ce" points="955.04,-476.81 961.04,-468.08 950.91,-471.16 955.04,-476.81"/>
</a>
</g>
</g>
<!-- 2 -->
<g id="node18" class="node">
<title>2</title>
<g id="a_node18"><a xlink:title="exportedfunction.h">
<polygon fill="#ffffff" stroke="black" points="1147,-684 995,-684 995,-648 1147,-648 1147,-684"/>
<text text-anchor="middle" x="1071" y="-662.3" font-family="Times,serif" font-size="14.00">exportedfunction.h</text>
</a>
</g>
</g>
<!-- 23&#45;&gt;2 -->
<g id="edge31" class="edge">
<title>23&#45;&gt;2</title>
<g id="a_edge31"><a xlink:title="include">
<path fill="none" stroke="#1414ce" d="M551.72,-733.36C634.05,-725.94 823.14,-707.76 981,-684 982.28,-683.81 983.57,-683.61 984.87,-683.41"/>
<polygon fill="#1414ce" stroke="#1414ce" points="985.65,-686.83 994.96,-681.78 984.53,-679.92 985.65,-686.83"/>
</a>
</g>
</g>
<!-- 25 -->
<g id="node20" class="node">
<title>25</title>
<g id="a_node20"><a xlink:title="atom_table.h">
<polygon fill="#ffffff" stroke="black" points="247.5,-540 138.5,-540 138.5,-504 247.5,-504 247.5,-540"/>
<text text-anchor="middle" x="193" y="-518.3" font-family="Times,serif" font-size="14.00">atom_table.h</text>
</a>
</g>
</g>
<!-- 23&#45;&gt;25 -->
<g id="edge28" class="edge">
<title>23&#45;&gt;25</title>
<g id="a_edge28"><a xlink:title="include">
<path fill="none" stroke="#1414ce" d="M468.36,-733.18C404.91,-726.57 288.12,-711.04 257,-684 218.48,-650.53 237.57,-623.13 218,-576 214.31,-567.13 209.95,-557.58 205.9,-549.08"/>
<polygon fill="#1414ce" stroke="#1414ce" points="209.02,-547.49 201.52,-540 202.71,-550.53 209.02,-547.49"/>
</a>
</g>
</g>
<!-- 23&#45;&gt;28 -->
<g id="edge32" class="edge">
<title>23&#45;&gt;28</title>
<g id="a_edge32"><a xlink:title="include">
<path fill="none" stroke="#1414ce" d="M530.8,-719.84C541.06,-710.3 552.76,-697.63 560,-684 570.19,-664.83 575.2,-640.67 577.66,-622.36"/>
<polygon fill="#1414ce" stroke="#1414ce" points="581.15,-622.68 578.83,-612.34 574.19,-621.86 581.15,-622.68"/>
</a>
</g>
</g>
<!-- 26 -->
<g id="node27" class="node">
<title>26</title>
<g id="a_node27"><a xlink:title="atomshashtable.h">
<polygon fill="#ffffff" stroke="black" points="209.5,-612 66.5,-612 66.5,-576 209.5,-576 209.5,-612"/>
<text text-anchor="middle" x="138" y="-590.3" font-family="Times,serif" font-size="14.00">atomshashtable.h</text>
</a>
</g>
</g>
<!-- 23&#45;&gt;26 -->
<g id="edge29" class="edge">
<title>23&#45;&gt;26</title>
<g id="a_edge29"><a xlink:title="include">
<path fill="none" stroke="#1414ce" d="M493.5,-719.99C469,-694.81 425.42,-650.33 421,-648 403.31,-638.67 297.1,-620.29 219.99,-607.82"/>
<polygon fill="#1414ce" stroke="#1414ce" points="220.22,-604.31 209.79,-606.18 219.11,-611.22 220.22,-604.31"/>
</a>
</g>
</g>
<!-- 20&#45;&gt;21 -->
<g id="edge39" class="edge">
<title>20&#45;&gt;21</title>
<g id="a_edge39"><a xlink:title="include">
<path fill="none" stroke="#1414ce" d="M1128.95,-299.88C1047.47,-291.33 881.14,-273 741,-252 727.4,-249.96 712.75,-247.48 699.13,-245.06"/>
<polygon fill="#1414ce" stroke="#1414ce" points="699.41,-241.55 688.95,-243.22 698.17,-248.44 699.41,-241.55"/>
</a>
</g>
</g>
<!-- 20&#45;&gt;19 -->
<g id="edge37" class="edge">
<title>20&#45;&gt;19</title>
<g id="a_edge37"><a xlink:title="include">
<path fill="none" stroke="#1414ce" d="M1128.91,-298.81C1022.32,-285.6 782.08,-255.54 774,-252 751.18,-241.98 752.73,-228.22 731,-216 710.36,-204.39 651.15,-185.63 611.91,-173.82"/>
<polygon fill="#1414ce" stroke="#1414ce" points="612.73,-170.41 602.15,-170.9 610.73,-177.12 612.73,-170.41"/>
</a>
</g>
</g>
<!-- 20&#45;&gt;8 -->
<g id="edge35" class="edge">
<title>20&#45;&gt;8</title>
<g id="a_edge35"><a xlink:title="include">
<path fill="none" stroke="#1414ce" d="M1177.96,-287.85C1175.71,-250.83 1170.38,-163.18 1167.66,-118.39"/>
<polygon fill="#1414ce" stroke="#1414ce" points="1171.15,-118 1167.05,-108.23 1164.16,-118.43 1171.15,-118"/>
</a>
</g>
</g>
<!-- 20&#45;&gt;10 -->
<g id="edge38" class="edge">
<title>20&#45;&gt;10</title>
<g id="a_edge38"><a xlink:title="include">
<path fill="none" stroke="#1414ce" d="M1205.18,-287.88C1219.04,-278.81 1236.24,-267.55 1251.21,-257.76"/>
<polygon fill="#1414ce" stroke="#1414ce" points="1253.27,-260.59 1259.72,-252.19 1249.44,-254.74 1253.27,-260.59"/>
</a>
</g>
</g>
<!-- 20&#45;&gt;11 -->
<g id="edge36" class="edge">
<title>20&#45;&gt;11</title>
<g id="a_edge36"><a xlink:title="include">
<path fill="none" stroke="#1414ce" d="M1229.07,-297.4C1262.68,-290.26 1306.41,-276.79 1338,-252 1358.76,-235.7 1373.93,-209.43 1383.21,-189.64"/>
<polygon fill="#1414ce" stroke="#1414ce" points="1386.52,-190.81 1387.4,-180.25 1380.13,-187.95 1386.52,-190.81"/>
</a>
</g>
</g>
<!-- 3&#45;&gt;5 -->
<g id="edge41" class="edge">
<title>3&#45;&gt;5</title>
<g id="a_edge41"><a xlink:title="include">
<path fill="none" stroke="#1414ce" d="M951.22,-444.84C901.18,-437.74 809.49,-421.53 790,-396 780.29,-383.28 785.01,-375.2 790,-360 802.4,-322.25 817.31,-318.32 843,-288 857.43,-270.97 869.61,-272.68 878,-252 884.02,-237.18 887.01,-229.22 878,-216 844.32,-166.56 673.8,-122.06 586.57,-102.1"/>
<polygon fill="#1414ce" stroke="#1414ce" points="587.14,-98.64 576.61,-99.85 585.59,-105.47 587.14,-98.64"/>
</a>
</g>
</g>
<!-- 3&#45;&gt;18 -->
<g id="edge47" class="edge">
<title>3&#45;&gt;18</title>
<g id="a_edge47"><a xlink:title="include">
<path fill="none" stroke="#1414ce" d="M1016.65,-436.65C1043.63,-426.44 1082.51,-411.73 1114.24,-399.72"/>
<polygon fill="#1414ce" stroke="#1414ce" points="1115.73,-402.9 1123.84,-396.09 1113.25,-396.35 1115.73,-402.9"/>
</a>
</g>
</g>
<!-- 3&#45;&gt;16 -->
<g id="edge48" class="edge">
<title>3&#45;&gt;16</title>
<g id="a_edge48"><a xlink:title="include">
<path fill="none" stroke="#1414ce" d="M1016.85,-436.08C1033.92,-427.49 1053.21,-414.36 1063,-396 1098.89,-328.7 1070.82,-234.75 1053.32,-189.47"/>
<polygon fill="#1414ce" stroke="#1414ce" points="1056.52,-188.05 1049.56,-180.06 1050.02,-190.65 1056.52,-188.05"/>
</a>
</g>
</g>
<!-- 3&#45;&gt;6 -->
<g id="edge42" class="edge">
<title>3&#45;&gt;6</title>
<g id="a_edge42"><a xlink:title="include">
<path fill="none" stroke="#1414ce" d="M951.29,-448.78C913.34,-446.54 852.24,-436.41 823,-396 788.95,-348.94 877.1,-306.08 895,-252 918.58,-180.78 914.32,-90.64 910.16,-46.25"/>
<polygon fill="#1414ce" stroke="#1414ce" points="913.64,-45.83 909.15,-36.23 906.67,-46.54 913.64,-45.83"/>
</a>
</g>
</g>
<!-- 3&#45;&gt;8 -->
<g id="edge44" class="edge">
<title>3&#45;&gt;8</title>
<g id="a_edge44"><a xlink:title="include">
<path fill="none" stroke="#1414ce" d="M1016.57,-446.75C1077.23,-441.82 1203.93,-427.89 1232,-396 1253.21,-371.89 1236.67,-356.08 1238,-324 1238.66,-308.01 1240.79,-303.76 1238,-288 1226.73,-224.31 1196.43,-154.16 1178.94,-117.18"/>
<polygon fill="#1414ce" stroke="#1414ce" points="1182.06,-115.59 1174.58,-108.09 1175.75,-118.62 1182.06,-115.59"/>
</a>
</g>
</g>
<!-- 3&#45;&gt;10 -->
<g id="edge46" class="edge">
<title>3&#45;&gt;10</title>
<g id="a_edge46"><a xlink:title="include">
<path fill="none" stroke="#1414ce" d="M1016.57,-447.76C1084.37,-444.45 1237.2,-432.98 1271,-396 1304.13,-359.76 1298.99,-297.88 1292.41,-262.32"/>
<polygon fill="#1414ce" stroke="#1414ce" points="1295.77,-261.3 1290.36,-252.19 1288.91,-262.68 1295.77,-261.3"/>
</a>
</g>
</g>
<!-- 4 -->
<g id="node21" class="node">
<title>4</title>
<g id="a_node21"><a xlink:title="sys/types.h">
<polygon fill="#ffffff" stroke="black" points="929.5,-396 832.5,-396 832.5,-360 929.5,-360 929.5,-396"/>
<text text-anchor="middle" x="881" y="-374.3" font-family="Times,serif" font-size="14.00">sys/types.h</text>
</a>
</g>
</g>
<!-- 3&#45;&gt;4 -->
<g id="edge40" class="edge">
<title>3&#45;&gt;4</title>
<g id="a_edge40"><a xlink:title="include">
<path fill="none" stroke="#1414ce" d="M958.8,-431.88C945.59,-422.89 929.21,-411.76 914.89,-402.03"/>
<polygon fill="#1414ce" stroke="#1414ce" points="916.53,-398.92 906.29,-396.19 912.6,-404.71 916.53,-398.92"/>
</a>
</g>
</g>
<!-- 9 -->
<g id="node22" class="node">
<title>9</title>
<g id="a_node22"><a xlink:title="string.h">
<polygon fill="#ffffff" stroke="black" points="1020.5,-396 947.5,-396 947.5,-360 1020.5,-360 1020.5,-396"/>
<text text-anchor="middle" x="984" y="-374.3" font-family="Times,serif" font-size="14.00">string.h</text>
</a>
</g>
</g>
<!-- 3&#45;&gt;9 -->
<g id="edge45" class="edge">
<title>3&#45;&gt;9</title>
<g id="a_edge45"><a xlink:title="include">
<path fill="none" stroke="#1414ce" d="M984,-431.7C984,-423.98 984,-414.71 984,-406.11"/>
<polygon fill="#1414ce" stroke="#1414ce" points="987.5,-406.1 984,-396.1 980.5,-406.1 987.5,-406.1"/>
</a>
</g>
</g>
<!-- 3&#45;&gt;12 -->
<g id="edge49" class="edge">
<title>3&#45;&gt;12</title>
<g id="a_edge49"><a xlink:title="include">
<path fill="none" stroke="#1414ce" d="M1016.65,-446.36C1123.96,-436.8 1459,-399.53 1459,-307 1459,-307 1459,-307 1459,-233 1459,-192.55 1460.11,-179.09 1440,-144 1433.69,-133 1424.32,-123 1414.94,-114.72"/>
<polygon fill="#1414ce" stroke="#1414ce" points="1417.04,-111.92 1407.12,-108.19 1412.55,-117.29 1417.04,-111.92"/>
</a>
</g>
</g>
<!-- 3&#45;&gt;7 -->
<g id="edge43" class="edge">
<title>3&#45;&gt;7</title>
<g id="a_edge43"><a xlink:title="include">
<path fill="none" stroke="#1414ce" d="M1004.82,-431.62C1014.46,-422.2 1024.89,-409.7 1030,-396 1035.6,-381.01 1031.58,-375.92 1030,-360 1021.09,-270.32 995.86,-166.28 983.29,-118.08"/>
<polygon fill="#1414ce" stroke="#1414ce" points="986.6,-116.91 980.67,-108.13 979.84,-118.69 986.6,-116.91"/>
</a>
</g>
</g>
<!-- 11&#45;&gt;12 -->
<g id="edge50" class="edge">
<title>11&#45;&gt;12</title>
<g id="a_edge50"><a xlink:title="include">
<path fill="none" stroke="#1414ce" d="M1391.03,-143.7C1389.71,-135.98 1388.12,-126.71 1386.65,-118.11"/>
<polygon fill="#1414ce" stroke="#1414ce" points="1390.07,-117.37 1384.93,-108.1 1383.17,-118.55 1390.07,-117.37"/>
</a>
</g>
</g>
<!-- 2&#45;&gt;3 -->
<g id="edge51" class="edge">
<title>2&#45;&gt;3</title>
<g id="a_edge51"><a xlink:title="include">
<path fill="none" stroke="#1414ce" d="M1064.03,-647.85C1048.88,-610.6 1012.89,-522.07 994.79,-477.54"/>
<polygon fill="#1414ce" stroke="#1414ce" points="998.01,-476.18 991.01,-468.23 991.53,-478.81 998.01,-476.18"/>
</a>
</g>
</g>
<!-- 14 -->
<g id="node19" class="node">
<title>14</title>
<g id="a_node19"><a xlink:title="limits.h">
<polygon fill="#ffffff" stroke="black" points="1417.5,-36 1346.5,-36 1346.5,0 1417.5,0 1417.5,-36"/>
<text text-anchor="middle" x="1382" y="-14.3" font-family="Times,serif" font-size="14.00">limits.h</text>
</a>
</g>
</g>
<!-- 25&#45;&gt;5 -->
<g id="edge52" class="edge">
<title>25&#45;&gt;5</title>
<g id="a_edge52"><a xlink:title="include">
<path fill="none" stroke="#1414ce" d="M193,-503.95C193,-477.29 193,-424.11 193,-379 193,-379 193,-379 193,-233 193,-170.89 387.81,-121.65 483.37,-101.23"/>
<polygon fill="#1414ce" stroke="#1414ce" points="484.34,-104.6 493.41,-99.11 482.9,-97.75 484.34,-104.6"/>
</a>
</g>
</g>
<!-- 25&#45;&gt;24 -->
<g id="edge53" class="edge">
<title>25&#45;&gt;24</title>
<g id="a_edge53"><a xlink:title="include">
<path fill="none" stroke="#1414ce" d="M175.2,-503.7C166.4,-495.14 155.62,-484.66 146,-475.3"/>
<polygon fill="#1414ce" stroke="#1414ce" points="148.2,-472.57 138.59,-468.1 143.32,-477.58 148.2,-472.57"/>
</a>
</g>
</g>
<!-- 12&#45;&gt;13 -->
<g id="edge54" class="edge">
<title>12&#45;&gt;13</title>
<g id="a_edge54"><a xlink:title="include">
<path fill="none" stroke="#1414ce" d="M1359.51,-71.7C1348.04,-62.88 1333.94,-52.03 1321.52,-42.47"/>
<polygon fill="#1414ce" stroke="#1414ce" points="1323.3,-39.43 1313.24,-36.1 1319.03,-44.98 1323.3,-39.43"/>
</a>
</g>
</g>
<!-- 12&#45;&gt;6 -->
<g id="edge57" class="edge">
<title>12&#45;&gt;6</title>
<g id="a_edge57"><a xlink:title="include">
<path fill="none" stroke="#1414ce" d="M1319.47,-74.73C1314.59,-73.76 1309.72,-72.83 1305,-72 1178.3,-49.62 1027.42,-31.96 953.08,-23.85"/>
<polygon fill="#1414ce" stroke="#1414ce" points="953.42,-20.37 943.1,-22.77 952.67,-27.33 953.42,-20.37"/>
</a>
</g>
</g>
<!-- 12&#45;&gt;14 -->
<g id="edge55" class="edge">
<title>12&#45;&gt;14</title>
<g id="a_edge55"><a xlink:title="include">
<path fill="none" stroke="#1414ce" d="M1382,-71.7C1382,-63.98 1382,-54.71 1382,-46.11"/>
<polygon fill="#1414ce" stroke="#1414ce" points="1385.5,-46.1 1382,-36.1 1378.5,-46.1 1385.5,-46.1"/>
</a>
</g>
</g>
<!-- 15 -->
<g id="node32" class="node">
<title>15</title>
<g id="a_node32"><a xlink:title="inttypes.h">
<polygon fill="#ffffff" stroke="black" points="1524.5,-36 1435.5,-36 1435.5,0 1524.5,0 1524.5,-36"/>
<text text-anchor="middle" x="1480" y="-14.3" font-family="Times,serif" font-size="14.00">inttypes.h</text>
</a>
</g>
</g>
<!-- 12&#45;&gt;15 -->
<g id="edge56" class="edge">
<title>12&#45;&gt;15</title>
<g id="a_edge56"><a xlink:title="include">
<path fill="none" stroke="#1414ce" d="M1405.97,-71.88C1418.55,-62.89 1434.13,-51.76 1447.75,-42.03"/>
<polygon fill="#1414ce" stroke="#1414ce" points="1449.83,-44.85 1455.93,-36.19 1445.76,-39.15 1449.83,-44.85"/>
</a>
</g>
</g>
<!-- 28&#45;&gt;24 -->
<g id="edge59" class="edge">
<title>28&#45;&gt;24</title>
<g id="a_edge59"><a xlink:title="include">
<path fill="none" stroke="#1414ce" d="M524.63,-575.87C431.95,-547.2 247.36,-490.09 163.83,-464.25"/>
<polygon fill="#1414ce" stroke="#1414ce" points="164.74,-460.87 154.15,-461.26 162.67,-467.56 164.74,-460.87"/>
</a>
</g>
</g>
<!-- 28&#45;&gt;21 -->
<g id="edge66" class="edge">
<title>28&#45;&gt;21</title>
<g id="a_edge66"><a xlink:title="include">
<path fill="none" stroke="#1414ce" d="M629.56,-575.85C645.69,-567.64 661.8,-556.01 671,-540 723.09,-449.37 680.35,-317.89 657.77,-261.88"/>
<polygon fill="#1414ce" stroke="#1414ce" points="660.87,-260.23 653.81,-252.33 654.4,-262.91 660.87,-260.23"/>
</a>
</g>
</g>
<!-- 28&#45;&gt;19 -->
<g id="edge63" class="edge">
<title>28&#45;&gt;19</title>
<g id="a_edge63"><a xlink:title="include">
<path fill="none" stroke="#1414ce" d="M579.8,-575.88C579.03,-509.94 576.27,-272.06 575.32,-190.59"/>
<polygon fill="#1414ce" stroke="#1414ce" points="578.82,-190.13 575.2,-180.17 571.82,-190.21 578.82,-190.13"/>
</a>
</g>
</g>
<!-- 28&#45;&gt;6 -->
<g id="edge58" class="edge">
<title>28&#45;&gt;6</title>
<g id="a_edge58"><a xlink:title="include">
<path fill="none" stroke="#1414ce" d="M537.23,-575.96C518.34,-567.09 496.69,-554.94 480,-540 361.22,-433.64 273.93,-366.7 326,-216 352.57,-139.11 367.96,-111.65 439,-72 510.62,-32.02 757.38,-22.15 860.81,-19.76"/>
<polygon fill="#1414ce" stroke="#1414ce" points="861.03,-23.25 870.95,-19.53 860.87,-16.25 861.03,-23.25"/>
</a>
</g>
</g>
<!-- 28&#45;&gt;3 -->
<g id="edge67" class="edge">
<title>28&#45;&gt;3</title>
<g id="a_edge67"><a xlink:title="include">
<path fill="none" stroke="#1414ce" d="M633.8,-575.94C665.4,-565.78 706.08,-552.48 742,-540 779.78,-526.88 882.7,-488.72 941.43,-466.87"/>
<polygon fill="#1414ce" stroke="#1414ce" points="943.01,-470.01 951.16,-463.25 940.57,-463.45 943.01,-470.01"/>
</a>
</g>
</g>
<!-- 28&#45;&gt;11 -->
<g id="edge61" class="edge">
<title>28&#45;&gt;11</title>
<g id="a_edge61"><a xlink:title="include">
<path fill="none" stroke="#1414ce" d="M643.61,-588.63C835.42,-574.6 1395,-527.17 1395,-451 1395,-451 1395,-451 1395,-305 1395,-265 1394.6,-218.65 1394.3,-190.08"/>
<polygon fill="#1414ce" stroke="#1414ce" points="1397.8,-190.01 1394.2,-180.05 1390.8,-190.09 1397.8,-190.01"/>
</a>
</g>
</g>
<!-- 28&#45;&gt;25 -->
<g id="edge60" class="edge">
<title>28&#45;&gt;25</title>
<g id="a_edge60"><a xlink:title="include">
<path fill="none" stroke="#1414ce" d="M516.09,-581.44C444.68,-568.52 329.68,-547.72 257.88,-534.74"/>
<polygon fill="#1414ce" stroke="#1414ce" points="258.07,-531.21 247.61,-532.88 256.82,-538.1 258.07,-531.21"/>
</a>
</g>
</g>
<!-- 28&#45;&gt;22 -->
<g id="edge65" class="edge">
<title>28&#45;&gt;22</title>
<g id="a_edge65"><a xlink:title="include">
<path fill="none" stroke="#1414ce" d="M576.73,-575.88C564.13,-509.8 518.61,-271.08 503.17,-190.1"/>
<polygon fill="#1414ce" stroke="#1414ce" points="506.59,-189.34 501.27,-180.17 499.71,-190.65 506.59,-189.34"/>
</a>
</g>
</g>
<!-- 28&#45;&gt;31 -->
<g id="edge68" class="edge">
<title>28&#45;&gt;31</title>
<g id="a_edge68"><a xlink:title="include">
<path fill="none" stroke="#1414ce" d="M560.12,-575.85C528.03,-547.83 466.91,-492.83 452,-468 411.54,-400.6 393.94,-307.71 387.37,-262.26"/>
<polygon fill="#1414ce" stroke="#1414ce" points="390.82,-261.71 385.99,-252.29 383.89,-262.67 390.82,-261.71"/>
</a>
</g>
</g>
<!-- 28&#45;&gt;30 -->
<g id="edge64" class="edge">
<title>28&#45;&gt;30</title>
<g id="a_edge64"><a xlink:title="include">
<path fill="none" stroke="#1414ce" d="M637.35,-575.92C657.07,-567.69 677.95,-556.04 693,-540 722.08,-509 728,-493.5 728,-451 728,-451 728,-451 728,-377 728,-328.54 767.14,-284.61 795.95,-258.85"/>
<polygon fill="#1414ce" stroke="#1414ce" points="798.5,-261.27 803.76,-252.08 793.91,-255.98 798.5,-261.27"/>
</a>
</g>
</g>
<!-- 29 -->
<g id="node31" class="node">
<title>29</title>
<g id="a_node31"><a xlink:title="ets.h">
<polygon fill="#ffffff" stroke="black" points="662,-540 608,-540 608,-504 662,-504 662,-540"/>
<text text-anchor="middle" x="635" y="-518.3" font-family="Times,serif" font-size="14.00">ets.h</text>
</a>
</g>
</g>
<!-- 28&#45;&gt;29 -->
<g id="edge62" class="edge">
<title>28&#45;&gt;29</title>
<g id="a_edge62"><a xlink:title="include">
<path fill="none" stroke="#1414ce" d="M593.6,-575.7C600.12,-567.39 608.07,-557.28 615.25,-548.14"/>
<polygon fill="#1414ce" stroke="#1414ce" points="618.13,-550.13 621.56,-540.1 612.63,-545.81 618.13,-550.13"/>
</a>
</g>
</g>
<!-- 1 -->
<g id="node25" class="node">
<title>1</title>
<g id="a_node25"><a xlink:title="/__w/AtomVM/AtomVM/src/libAtomVM/platform_nifs.h">
<polygon fill="#bfbfbf" stroke="black" points="745.5,-828 344.5,-828 344.5,-792 745.5,-792 745.5,-828"/>
<text text-anchor="middle" x="545" y="-806.3" font-family="Times,serif" font-size="14.00">/__w/AtomVM/AtomVM/src/libAtomVM/platform_nifs.h</text>
</a>
</g>
</g>
<!-- 1&#45;&gt;23 -->
<g id="edge70" class="edge">
<title>1&#45;&gt;23</title>
<g id="a_edge70"><a xlink:title="include">
<path fill="none" stroke="#1414ce" d="M536.35,-791.7C532.36,-783.73 527.55,-774.1 523.13,-765.26"/>
<polygon fill="#1414ce" stroke="#1414ce" points="526.15,-763.48 518.55,-756.1 519.89,-766.61 526.15,-763.48"/>
</a>
</g>
</g>
<!-- 1&#45;&gt;2 -->
<g id="edge69" class="edge">
<title>1&#45;&gt;2</title>
<g id="a_edge69"><a xlink:title="include">
<path fill="none" stroke="#1414ce" d="M608.19,-791.94C706.16,-765.49 894.21,-714.73 997.9,-686.73"/>
<polygon fill="#1414ce" stroke="#1414ce" points="998.92,-690.08 1007.66,-684.1 997.1,-683.33 998.92,-690.08"/>
</a>
</g>
</g>
<!-- 22&#45;&gt;5 -->
<g id="edge71" class="edge">
<title>22&#45;&gt;5</title>
<g id="a_edge71"><a xlink:title="include">
<path fill="none" stroke="#1414ce" d="M507.15,-143.7C511.4,-135.64 516.56,-125.89 521.27,-116.98"/>
<polygon fill="#1414ce" stroke="#1414ce" points="524.38,-118.58 525.96,-108.1 518.19,-115.31 524.38,-118.58"/>
</a>
</g>
</g>
<!-- 26&#45;&gt;24 -->
<g id="edge72" class="edge">
<title>26&#45;&gt;24</title>
<g id="a_edge72"><a xlink:title="include">
<path fill="none" stroke="#1414ce" d="M134.74,-575.87C132.86,-565.51 130.56,-552.03 129,-540 126.32,-519.36 124.26,-495.91 122.89,-478.27"/>
<polygon fill="#1414ce" stroke="#1414ce" points="126.37,-477.82 122.14,-468.11 119.39,-478.34 126.37,-477.82"/>
</a>
</g>
</g>
<!-- 31&#45;&gt;5 -->
<g id="edge73" class="edge">
<title>31&#45;&gt;5</title>
<g id="a_edge73"><a xlink:title="include">
<path fill="none" stroke="#1414ce" d="M396.36,-215.78C410.34,-196.95 434.37,-166.47 459,-144 470.97,-133.07 485.29,-122.54 498.26,-113.78"/>
<polygon fill="#1414ce" stroke="#1414ce" points="500.56,-116.45 506.97,-108.02 496.7,-110.61 500.56,-116.45"/>
</a>
</g>
</g>
<!-- 31&#45;&gt;19 -->
<g id="edge75" class="edge">
<title>31&#45;&gt;19</title>
<g id="a_edge75"><a xlink:title="include">
<path fill="none" stroke="#1414ce" d="M433.32,-217.13C463.5,-207.12 502.76,-193.56 537,-180 537.44,-179.83 537.88,-179.65 538.32,-179.47"/>
<polygon fill="#1414ce" stroke="#1414ce" points="539.85,-182.63 547.72,-175.54 537.15,-176.17 539.85,-182.63"/>
</a>
</g>
</g>
<!-- 31&#45;&gt;6 -->
<g id="edge74" class="edge">
<title>31&#45;&gt;6</title>
<g id="a_edge74"><a xlink:title="include">
<path fill="none" stroke="#1414ce" d="M388.46,-215.9C398.6,-181.06 427.02,-102.56 484,-72 548.36,-37.48 764.88,-24.69 860.7,-20.64"/>
<polygon fill="#1414ce" stroke="#1414ce" points="861.11,-24.12 870.96,-20.22 860.82,-17.13 861.11,-24.12"/>
</a>
</g>
</g>
<!-- 30&#45;&gt;5 -->
<g id="edge76" class="edge">
<title>30&#45;&gt;5</title>
<g id="a_edge76"><a xlink:title="include">
<path fill="none" stroke="#1414ce" d="M790.9,-215.87C737.92,-190.02 637.56,-141.04 579.51,-112.72"/>
<polygon fill="#1414ce" stroke="#1414ce" points="580.75,-109.43 570.23,-108.19 577.68,-115.72 580.75,-109.43"/>
</a>
</g>
</g>
<!-- 30&#45;&gt;16 -->
<g id="edge79" class="edge">
<title>30&#45;&gt;16</title>
<g id="a_edge79"><a xlink:title="include">
<path fill="none" stroke="#1414ce" d="M869.19,-219C907.62,-206.55 963.41,-188.47 1001.12,-176.25"/>
<polygon fill="#1414ce" stroke="#1414ce" points="1002.33,-179.53 1010.77,-173.12 1000.18,-172.87 1002.33,-179.53"/>
</a>
</g>
</g>
<!-- 30&#45;&gt;19 -->
<g id="edge77" class="edge">
<title>30&#45;&gt;19</title>
<g id="a_edge77"><a xlink:title="include">
<path fill="none" stroke="#1414ce" d="M782.77,-219.99C778.13,-218.63 773.47,-217.28 769,-216 714.45,-200.42 651,-183.26 611.92,-172.81"/>
<polygon fill="#1414ce" stroke="#1414ce" points="612.61,-169.38 602.05,-170.18 610.8,-176.14 612.61,-169.38"/>
</a>
</g>
</g>
<!-- 30&#45;&gt;12 -->
<g id="edge78" class="edge">
<title>30&#45;&gt;12</title>
<g id="a_edge78"><a xlink:title="include">
<path fill="none" stroke="#1414ce" d="M869.28,-225.19C920.39,-215.71 1007.83,-198.64 1082,-180 1164.97,-159.14 1259.39,-130.27 1319.77,-111.13"/>
<polygon fill="#1414ce" stroke="#1414ce" points="1321.06,-114.39 1329.53,-108.03 1318.94,-107.72 1321.06,-114.39"/>
</a>
</g>
</g>
<!-- 29&#45;&gt;21 -->
<g id="edge81" class="edge">
<title>29&#45;&gt;21</title>
<g id="a_edge81"><a xlink:title="include">
<path fill="none" stroke="#1414ce" d="M634.42,-503.72C633.28,-465.01 631.44,-368.44 638,-288 638.69,-279.52 639.91,-270.34 641.19,-262.04"/>
<polygon fill="#1414ce" stroke="#1414ce" points="644.65,-262.55 642.81,-252.12 637.74,-261.42 644.65,-262.55"/>
</a>
</g>
</g>
<!-- 29&#45;&gt;19 -->
<g id="edge80" class="edge">
<title>29&#45;&gt;19</title>
<g id="a_edge80"><a xlink:title="include">
<path fill="none" stroke="#1414ce" d="M632.11,-503.73C622.46,-446.19 591.37,-260.66 579.58,-190.35"/>
<polygon fill="#1414ce" stroke="#1414ce" points="582.97,-189.38 577.86,-180.09 576.07,-190.53 582.97,-189.38"/>
</a>
</g>
</g>
<!-- 29&#45;&gt;3 -->
<g id="edge82" class="edge">
<title>29&#45;&gt;3</title>
<g id="a_edge82"><a xlink:title="include">
<path fill="none" stroke="#1414ce" d="M662.1,-515.57C722.47,-503.46 868.44,-474.18 941.23,-459.58"/>
<polygon fill="#1414ce" stroke="#1414ce" points="942.31,-462.93 951.42,-457.53 940.93,-456.07 942.31,-462.93"/>
</a>
</g>
</g>
</g>
</svg>
