<?xml version="1.0" encoding="UTF-8" standalone="no"?>
<!DOCTYPE svg PUBLIC "-//W3C//DTD SVG 1.1//EN"
 "http://www.w3.org/Graphics/SVG/1.1/DTD/svg11.dtd">
<!-- Generated by graphviz version 2.43.0 (0)
 -->
<!-- Title: %3 Pages: 1 -->
<svg width="1209pt" height="404pt"
 viewBox="0.00 0.00 1208.91 404.00" xmlns="http://www.w3.org/2000/svg" xmlns:xlink="http://www.w3.org/1999/xlink">
<g id="graph0" class="graph" transform="scale(1 1) rotate(0) translate(4 400)">
<title>%3</title>
<polygon fill="transparent" stroke="transparent" points="-4,4 -4,-400 1204.91,-400 1204.91,4 -4,4"/>
<!-- 21 -->
<g id="node1" class="node">
<title>21</title>
<g id="a_node1"><a xlink:title="SpinLock">
<polygon fill="#ffffff" stroke="black" points="998.91,-324 916.91,-324 916.91,-288 998.91,-288 998.91,-324"/>
<text text-anchor="middle" x="957.91" y="-302.3" font-family="Times,serif" font-size="14.00">SpinLock</text>
</a>
</g>
</g>
<!-- 3 -->
<g id="node2" class="node">
<title>3</title>
<g id="a_node2"><a xlink:title="ResourceType">
<polygon fill="#ffffff" stroke="black" points="712.41,-180 595.41,-180 595.41,-144 712.41,-144 712.41,-180"/>
<text text-anchor="middle" x="653.91" y="-158.3" font-family="Times,serif" font-size="14.00">ResourceType</text>
</a>
</g>
</g>
<!-- 5 -->
<g id="node4" class="node">
<title>5</title>
<g id="a_node4"><a xlink:title="ListHead">
<polygon fill="#ffffff" stroke="black" points="471.41,-36 390.41,-36 390.41,0 471.41,0 471.41,-36"/>
<text text-anchor="middle" x="430.91" y="-14.3" font-family="Times,serif" font-size="14.00">ListHead</text>
</a>
</g>
</g>
<!-- 3&#45;&gt;5 -->
<g id="edge3" class="edge">
<title>3&#45;&gt;5</title>
<g id="a_edge3"><a xlink:title="usage">
<path fill="none" stroke="#1414ce" d="M627.01,-143.87C586.83,-118.28 511.09,-70.05 466.41,-41.6"/>
<polygon fill="#1414ce" stroke="#1414ce" points="468.22,-38.61 457.91,-36.19 464.46,-44.51 468.22,-38.61"/>
</a>
</g>
</g>
<!-- 6 -->
<g id="node7" class="node">
<title>6</title>
<g id="a_node7"><a xlink:title="GlobalContext">
<polygon fill="#ffffff" stroke="black" points="810.41,-396 691.41,-396 691.41,-360 810.41,-360 810.41,-396"/>
<text text-anchor="middle" x="750.91" y="-374.3" font-family="Times,serif" font-size="14.00">GlobalContext</text>
</a>
</g>
</g>
<!-- 3&#45;&gt;6 -->
<g id="edge2" class="edge">
<title>3&#45;&gt;6</title>
<g id="a_edge2"><a xlink:title="usage">
<path fill="none" stroke="#1414ce" d="M674.44,-180.09C682.7,-190.2 691.45,-203.45 697.91,-216 721.08,-260.98 740.66,-316.69 748.73,-349.39"/>
<polygon fill="#1414ce" stroke="#1414ce" points="745.4,-350.56 751.01,-359.55 752.23,-349.03 745.4,-350.56"/>
</a>
</g>
</g>
<!-- 4 -->
<g id="node20" class="node">
<title>4</title>
<g id="a_node20"><a xlink:title="SyncList">
<polygon fill="#ffffff" stroke="black" points="744.91,-108 666.91,-108 666.91,-72 744.91,-72 744.91,-108"/>
<text text-anchor="middle" x="705.91" y="-86.3" font-family="Times,serif" font-size="14.00">SyncList</text>
</a>
</g>
</g>
<!-- 3&#45;&gt;4 -->
<g id="edge1" class="edge">
<title>3&#45;&gt;4</title>
<g id="a_edge1"><a xlink:title="usage">
<path fill="none" stroke="#1414ce" d="M666.77,-143.7C672.94,-135.39 680.45,-125.28 687.24,-116.14"/>
<polygon fill="#1414ce" stroke="#1414ce" points="690.05,-118.22 693.21,-108.1 684.43,-114.04 690.05,-118.22"/>
</a>
</g>
</g>
<!-- 16 -->
<g id="node3" class="node">
<title>16</title>
<g id="a_node3"><a xlink:title="Module">
<polygon fill="#ffffff" stroke="black" points="128.91,-324 58.91,-324 58.91,-288 128.91,-288 128.91,-324"/>
<text text-anchor="middle" x="93.91" y="-302.3" font-family="Times,serif" font-size="14.00">Module</text>
</a>
</g>
</g>
<!-- 16&#45;&gt;5 -->
<g id="edge6" class="edge">
<title>16&#45;&gt;5</title>
<g id="a_edge6"><a xlink:title="usage">
<path fill="none" stroke="#1414ce" d="M129.3,-290.81C132.19,-289.81 135.09,-288.86 137.91,-288 207.65,-266.81 239.31,-295.34 297.91,-252 334.93,-224.63 394.09,-100.58 419.12,-45.49"/>
<polygon fill="#1414ce" stroke="#1414ce" points="422.46,-46.6 423.38,-36.05 416.08,-43.72 422.46,-46.6"/>
</a>
</g>
</g>
<!-- 18 -->
<g id="node11" class="node">
<title>18</title>
<g id="a_node11"><a xlink:title="LiteralEntry">
<polygon fill="#ffffff" stroke="black" points="288.91,-252 184.91,-252 184.91,-216 288.91,-216 288.91,-252"/>
<text text-anchor="middle" x="236.91" y="-230.3" font-family="Times,serif" font-size="14.00">LiteralEntry</text>
</a>
</g>
</g>
<!-- 16&#45;&gt;18 -->
<g id="edge5" class="edge">
<title>16&#45;&gt;18</title>
<g id="a_edge5"><a xlink:title="usage">
<path fill="none" stroke="#1414ce" d="M128.89,-287.88C148.11,-278.47 172.14,-266.71 192.65,-256.67"/>
<polygon fill="#1414ce" stroke="#1414ce" points="194.35,-259.73 201.8,-252.19 191.28,-253.44 194.35,-259.73"/>
</a>
</g>
</g>
<!-- 17 -->
<g id="node19" class="node">
<title>17</title>
<g id="a_node19"><a xlink:title="ExportedFunction">
<polygon fill="#ffffff" stroke="black" points="166.91,-252 20.91,-252 20.91,-216 166.91,-216 166.91,-252"/>
<text text-anchor="middle" x="93.91" y="-230.3" font-family="Times,serif" font-size="14.00">ExportedFunction</text>
</a>
</g>
</g>
<!-- 16&#45;&gt;17 -->
<g id="edge4" class="edge">
<title>16&#45;&gt;17</title>
<g id="a_edge4"><a xlink:title="usage">
<path fill="none" stroke="#1414ce" d="M93.91,-287.7C93.91,-279.98 93.91,-270.71 93.91,-262.11"/>
<polygon fill="#1414ce" stroke="#1414ce" points="97.41,-262.1 93.91,-252.1 90.41,-262.1 97.41,-262.1"/>
</a>
</g>
</g>
<!-- 5&#45;&gt;5 -->
<g id="edge7" class="edge">
<title>5&#45;&gt;5</title>
<g id="a_edge7"><a xlink:title="usage">
<path fill="none" stroke="#1414ce" d="M471.65,-31.31C481.81,-30.38 489.41,-25.95 489.41,-18 489.41,-12.91 486.29,-9.26 481.38,-7.05"/>
<polygon fill="#1414ce" stroke="#1414ce" points="482.19,-3.64 471.65,-4.69 480.54,-10.45 482.19,-3.64"/>
</a>
</g>
</g>
<!-- 13 -->
<g id="node5" class="node">
<title>13</title>
<g id="a_node5"><a xlink:title="HeapFragment">
<polygon fill="#ffffff" stroke="black" points="1107.41,-36 982.41,-36 982.41,0 1107.41,0 1107.41,-36"/>
<text text-anchor="middle" x="1044.91" y="-14.3" font-family="Times,serif" font-size="14.00">HeapFragment</text>
</a>
</g>
</g>
<!-- 13&#45;&gt;13 -->
<g id="edge8" class="edge">
<title>13&#45;&gt;13</title>
<g id="a_edge8"><a xlink:title="usage">
<path fill="none" stroke="#1414ce" d="M1107.69,-30.55C1118.18,-28.79 1125.41,-24.61 1125.41,-18 1125.41,-13.77 1122.44,-10.53 1117.55,-8.29"/>
<polygon fill="#1414ce" stroke="#1414ce" points="1118.27,-4.85 1107.69,-5.45 1116.33,-11.58 1118.27,-4.85"/>
</a>
</g>
</g>
<!-- 15 -->
<g id="node6" class="node">
<title>15</title>
<g id="a_node6"><a xlink:title="RefcBinaryQueueItem">
<polygon fill="#ffffff" stroke="black" points="478.91,-324 304.91,-324 304.91,-288 478.91,-288 478.91,-324"/>
<text text-anchor="middle" x="391.91" y="-302.3" font-family="Times,serif" font-size="14.00">RefcBinaryQueueItem</text>
</a>
</g>
</g>
<!-- 15&#45;&gt;15 -->
<g id="edge10" class="edge">
<title>15&#45;&gt;15</title>
<g id="a_edge10"><a xlink:title="usage">
<path fill="none" stroke="#1414ce" d="M479.21,-317.68C489.9,-315.59 496.91,-311.7 496.91,-306 496.91,-302.35 494.04,-299.44 489.16,-297.27"/>
<polygon fill="#1414ce" stroke="#1414ce" points="489.8,-293.81 479.21,-294.32 487.8,-300.52 489.8,-293.81"/>
</a>
</g>
</g>
<!-- 2 -->
<g id="node16" class="node">
<title>2</title>
<g id="a_node16"><a xlink:title="RefcBinary">
<polygon fill="#ffffff" stroke="black" points="478.41,-252 383.41,-252 383.41,-216 478.41,-216 478.41,-252"/>
<text text-anchor="middle" x="430.91" y="-230.3" font-family="Times,serif" font-size="14.00">RefcBinary</text>
</a>
</g>
</g>
<!-- 15&#45;&gt;2 -->
<g id="edge9" class="edge">
<title>15&#45;&gt;2</title>
<g id="a_edge9"><a xlink:title="usage">
<path fill="none" stroke="#1414ce" d="M401.55,-287.7C406.04,-279.64 411.47,-269.89 416.44,-260.98"/>
<polygon fill="#1414ce" stroke="#1414ce" points="419.57,-262.54 421.38,-252.1 413.46,-259.14 419.57,-262.54"/>
</a>
</g>
</g>
<!-- 6&#45;&gt;21 -->
<g id="edge20" class="edge">
<title>6&#45;&gt;21</title>
<g id="a_edge20"><a xlink:title="usage">
<path fill="none" stroke="#1414ce" d="M801.29,-359.97C833.39,-349.11 874.85,-335.09 907.04,-324.2"/>
<polygon fill="#1414ce" stroke="#1414ce" points="908.37,-327.45 916.72,-320.93 906.12,-320.82 908.37,-327.45"/>
</a>
</g>
</g>
<!-- 6&#45;&gt;3 -->
<g id="edge11" class="edge">
<title>6&#45;&gt;3</title>
<g id="a_edge11"><a xlink:title="usage">
<path fill="none" stroke="#1414ce" d="M740.13,-359.55C727.05,-329.42 705.7,-266.06 679.91,-216 675.17,-206.79 669.19,-197.19 663.96,-188.74"/>
<polygon fill="#1414ce" stroke="#1414ce" points="666.88,-186.81 658.69,-180.09 660.91,-190.45 666.88,-186.81"/>
</a>
</g>
</g>
<!-- 6&#45;&gt;16 -->
<g id="edge17" class="edge">
<title>6&#45;&gt;16</title>
<g id="a_edge17"><a xlink:title="usage">
<path fill="none" stroke="#1414ce" d="M691.3,-377.39C582.45,-376.89 344.53,-370.28 138.95,-323.85"/>
<polygon fill="#1414ce" stroke="#1414ce" points="139.71,-320.44 129.18,-321.61 138.15,-327.26 139.71,-320.44"/>
</a>
</g>
</g>
<!-- 6&#45;&gt;5 -->
<g id="edge21" class="edge">
<title>6&#45;&gt;5</title>
<g id="a_edge21"><a xlink:title="usage">
<path fill="none" stroke="#1414ce" d="M774.11,-359.61C803.65,-335.28 850.91,-288.07 850.91,-235 850.91,-235 850.91,-235 850.91,-161 850.91,-102.49 806.53,-97.58 753.91,-72 665.02,-28.78 547.8,-19.82 481.79,-18.52"/>
<polygon fill="#1414ce" stroke="#1414ce" points="481.7,-15.02 471.65,-18.38 481.6,-22.02 481.7,-15.02"/>
</a>
</g>
</g>
<!-- 6&#45;&gt;15 -->
<g id="edge15" class="edge">
<title>6&#45;&gt;15</title>
<g id="a_edge15"><a xlink:title="usage">
<path fill="none" stroke="#1414ce" d="M691.23,-365.36C636.25,-354.64 553.67,-338.54 489.17,-325.96"/>
<polygon fill="#1414ce" stroke="#1414ce" points="489.46,-322.46 478.98,-323.98 488.12,-329.33 489.46,-322.46"/>
</a>
</g>
</g>
<!-- 7 -->
<g id="node8" class="node">
<title>7</title>
<g id="a_node8"><a xlink:title="Ets">
<polygon fill="#ffffff" stroke="black" points="784.91,-180 730.91,-180 730.91,-144 784.91,-144 784.91,-180"/>
<text text-anchor="middle" x="757.91" y="-158.3" font-family="Times,serif" font-size="14.00">Ets</text>
</a>
</g>
</g>
<!-- 6&#45;&gt;7 -->
<g id="edge12" class="edge">
<title>6&#45;&gt;7</title>
<g id="a_edge12"><a xlink:title="usage">
<path fill="none" stroke="#1414ce" d="M751.47,-359.85C752.68,-322.83 755.55,-235.18 757.02,-190.39"/>
<polygon fill="#1414ce" stroke="#1414ce" points="760.52,-190.34 757.35,-180.23 753.52,-190.11 760.52,-190.34"/>
</a>
</g>
</g>
<!-- 20 -->
<g id="node10" class="node">
<title>20</title>
<g id="a_node10"><a xlink:title="TimerList">
<polygon fill="#ffffff" stroke="black" points="162.91,-180 76.91,-180 76.91,-144 162.91,-144 162.91,-180"/>
<text text-anchor="middle" x="119.91" y="-158.3" font-family="Times,serif" font-size="14.00">TimerList</text>
</a>
</g>
</g>
<!-- 6&#45;&gt;20 -->
<g id="edge19" class="edge">
<title>6&#45;&gt;20</title>
<g id="a_edge19"><a xlink:title="usage">
<path fill="none" stroke="#1414ce" d="M691.24,-375.77C531.55,-372.01 102.92,-358.76 49.91,-324 7.36,-296.1 -15,-259.19 11.91,-216 24.22,-196.25 46.28,-183.65 67.26,-175.72"/>
<polygon fill="#1414ce" stroke="#1414ce" points="68.5,-178.99 76.79,-172.39 66.2,-172.38 68.5,-178.99"/>
</a>
</g>
</g>
<!-- 8 -->
<g id="node14" class="node">
<title>8</title>
<g id="a_node14"><a xlink:title="MessageQueueItem">
<polygon fill="#ffffff" stroke="black" points="672.91,-324 514.91,-324 514.91,-288 672.91,-288 672.91,-324"/>
<text text-anchor="middle" x="593.91" y="-302.3" font-family="Times,serif" font-size="14.00">MessageQueueItem</text>
</a>
</g>
</g>
<!-- 6&#45;&gt;8 -->
<g id="edge13" class="edge">
<title>6&#45;&gt;8</title>
<g id="a_edge13"><a xlink:title="usage">
<path fill="none" stroke="#1414ce" d="M712.51,-359.88C691.04,-350.31 664.11,-338.3 641.34,-328.15"/>
<polygon fill="#1414ce" stroke="#1414ce" points="642.75,-324.94 632.19,-324.07 639.9,-331.34 642.75,-324.94"/>
</a>
</g>
</g>
<!-- 19 -->
<g id="node15" class="node">
<title>19</title>
<g id="a_node15"><a xlink:title="AtomsHashTable">
<polygon fill="#ffffff" stroke="black" points="1016.41,-252 879.41,-252 879.41,-216 1016.41,-216 1016.41,-252"/>
<text text-anchor="middle" x="947.91" y="-230.3" font-family="Times,serif" font-size="14.00">AtomsHashTable</text>
</a>
</g>
</g>
<!-- 6&#45;&gt;19 -->
<g id="edge18" class="edge">
<title>6&#45;&gt;19</title>
<g id="a_edge18"><a xlink:title="usage">
<path fill="none" stroke="#1414ce" d="M798.08,-359.89C819.53,-350.93 844.6,-338.74 864.91,-324 889.79,-305.95 913.19,-279.67 928.77,-260.35"/>
<polygon fill="#1414ce" stroke="#1414ce" points="931.69,-262.29 935.15,-252.28 926.2,-257.95 931.69,-262.29"/>
</a>
</g>
</g>
<!-- 10 -->
<g id="node17" class="node">
<title>10</title>
<g id="a_node17"><a xlink:title="AtomTable">
<polygon fill="#ffffff" stroke="black" points="1108.91,-324 1016.91,-324 1016.91,-288 1108.91,-288 1108.91,-324"/>
<text text-anchor="middle" x="1062.91" y="-302.3" font-family="Times,serif" font-size="14.00">AtomTable</text>
</a>
</g>
</g>
<!-- 6&#45;&gt;10 -->
<g id="edge14" class="edge">
<title>6&#45;&gt;10</title>
<g id="a_edge14"><a xlink:title="usage">
<path fill="none" stroke="#1414ce" d="M810.49,-366.4C860.57,-357.11 934.19,-342.55 1006.99,-324.12"/>
<polygon fill="#1414ce" stroke="#1414ce" points="1007.97,-327.48 1016.79,-321.61 1006.24,-320.7 1007.97,-327.48"/>
</a>
</g>
</g>
<!-- 6&#45;&gt;4 -->
<g id="edge16" class="edge">
<title>6&#45;&gt;4</title>
<g id="a_edge16"><a xlink:title="usage">
<path fill="none" stroke="#1414ce" d="M761.3,-359.93C784.39,-319.59 834.79,-216.34 793.91,-144 785.11,-128.42 769.69,-116.92 754.2,-108.68"/>
<polygon fill="#1414ce" stroke="#1414ce" points="755.63,-105.49 745.12,-104.21 752.54,-111.77 755.63,-105.49"/>
</a>
</g>
</g>
<!-- 7&#45;&gt;4 -->
<g id="edge22" class="edge">
<title>7&#45;&gt;4</title>
<g id="a_edge22"><a xlink:title="usage">
<path fill="none" stroke="#1414ce" d="M745.06,-143.7C738.89,-135.39 731.38,-125.28 724.59,-116.14"/>
<polygon fill="#1414ce" stroke="#1414ce" points="727.39,-114.04 718.62,-108.1 721.77,-118.22 727.39,-114.04"/>
</a>
</g>
</g>
<!-- 14 -->
<g id="node9" class="node">
<title>14</title>
<g id="a_node9"><a xlink:title="HNodeGroup">
<polygon fill="#ffffff" stroke="black" points="1182.91,-252 1072.91,-252 1072.91,-216 1182.91,-216 1182.91,-252"/>
<text text-anchor="middle" x="1127.91" y="-230.3" font-family="Times,serif" font-size="14.00">HNodeGroup</text>
</a>
</g>
</g>
<!-- 14&#45;&gt;14 -->
<g id="edge24" class="edge">
<title>14&#45;&gt;14</title>
<g id="a_edge24"><a xlink:title="usage">
<path fill="none" stroke="#1414ce" d="M1182.99,-246.85C1193.49,-245.32 1200.91,-241.03 1200.91,-234 1200.91,-229.5 1197.86,-226.12 1192.91,-223.87"/>
<polygon fill="#1414ce" stroke="#1414ce" points="1193.55,-220.42 1182.99,-221.15 1191.7,-227.17 1193.55,-220.42"/>
</a>
</g>
</g>
<!-- 11 -->
<g id="node21" class="node">
<title>11</title>
<g id="a_node21"><a xlink:title="HNode">
<polygon fill="#ffffff" stroke="black" points="1077.91,-180 1011.91,-180 1011.91,-144 1077.91,-144 1077.91,-180"/>
<text text-anchor="middle" x="1044.91" y="-158.3" font-family="Times,serif" font-size="14.00">HNode</text>
</a>
</g>
</g>
<!-- 14&#45;&gt;11 -->
<g id="edge23" class="edge">
<title>14&#45;&gt;11</title>
<g id="a_edge23"><a xlink:title="usage">
<path fill="none" stroke="#1414ce" d="M1107.4,-215.7C1097.04,-206.97 1084.33,-196.24 1073.07,-186.75"/>
<polygon fill="#1414ce" stroke="#1414ce" points="1075.09,-183.88 1065.19,-180.1 1070.58,-189.23 1075.09,-183.88"/>
</a>
</g>
</g>
<!-- 20&#45;&gt;5 -->
<g id="edge25" class="edge">
<title>20&#45;&gt;5</title>
<g id="a_edge25"><a xlink:title="usage">
<path fill="none" stroke="#1414ce" d="M153.35,-143.99C189.83,-125.61 250.07,-95.76 302.91,-72 328.36,-60.56 357.03,-48.6 380.78,-38.94"/>
<polygon fill="#1414ce" stroke="#1414ce" points="382.34,-42.09 390.29,-35.09 379.71,-35.6 382.34,-42.09"/>
</a>
</g>
</g>
<!-- 9 -->
<g id="node12" class="node">
<title>9</title>
<g id="a_node12"><a xlink:title="MailboxMessage">
<polygon fill="#ffffff" stroke="black" points="662.41,-252 525.41,-252 525.41,-216 662.41,-216 662.41,-252"/>
<text text-anchor="middle" x="593.91" y="-230.3" font-family="Times,serif" font-size="14.00">MailboxMessage</text>
</a>
</g>
</g>
<!-- 9&#45;&gt;9 -->
<g id="edge26" class="edge">
<title>9&#45;&gt;9</title>
<g id="a_edge26"><a xlink:title="usage">
<path fill="none" stroke="#1414ce" d="M662.44,-246.37C673.13,-244.52 680.41,-240.4 680.41,-234 680.41,-229.8 677.27,-226.58 672.1,-224.34"/>
<polygon fill="#1414ce" stroke="#1414ce" points="673.01,-220.96 662.44,-221.63 671.12,-227.7 673.01,-220.96"/>
</a>
</g>
</g>
<!-- 12 -->
<g id="node13" class="node">
<title>12</title>
<g id="a_node13"><a xlink:title="Heap">
<polygon fill="#ffffff" stroke="black" points="1071.91,-108 1017.91,-108 1017.91,-72 1071.91,-72 1071.91,-108"/>
<text text-anchor="middle" x="1044.91" y="-86.3" font-family="Times,serif" font-size="14.00">Heap</text>
</a>
</g>
</g>
<!-- 12&#45;&gt;13 -->
<g id="edge27" class="edge">
<title>12&#45;&gt;13</title>
<g id="a_edge27"><a xlink:title="usage">
<path fill="none" stroke="#1414ce" d="M1044.91,-71.7C1044.91,-63.98 1044.91,-54.71 1044.91,-46.11"/>
<polygon fill="#1414ce" stroke="#1414ce" points="1048.41,-46.1 1044.91,-36.1 1041.41,-46.1 1048.41,-46.1"/>
</a>
</g>
</g>
<!-- 8&#45;&gt;9 -->
<g id="edge28" class="edge">
<title>8&#45;&gt;9</title>
<g id="a_edge28"><a xlink:title="usage">
<path fill="none" stroke="#1414ce" d="M593.91,-287.7C593.91,-279.98 593.91,-270.71 593.91,-262.11"/>
<polygon fill="#1414ce" stroke="#1414ce" points="597.41,-262.1 593.91,-252.1 590.41,-262.1 597.41,-262.1"/>
</a>
</g>
</g>
<!-- 8&#45;&gt;8 -->
<g id="edge29" class="edge">
<title>8&#45;&gt;8</title>
<g id="a_edge29"><a xlink:title="usage">
<path fill="none" stroke="#1414ce" d="M673.08,-317.98C683.78,-315.97 690.91,-311.98 690.91,-306 690.91,-302.08 687.84,-299.01 682.7,-296.8"/>
<polygon fill="#1414ce" stroke="#1414ce" points="683.65,-293.43 673.08,-294.02 681.72,-300.15 683.65,-293.43"/>
</a>
</g>
</g>
<!-- 19&#45;&gt;11 -->
<g id="edge30" class="edge">
<title>19&#45;&gt;11</title>
<g id="a_edge30"><a xlink:title="usage">
<path fill="none" stroke="#1414ce" d="M971.89,-215.7C984.22,-206.8 999.43,-195.82 1012.77,-186.2"/>
<polygon fill="#1414ce" stroke="#1414ce" points="1015.15,-188.79 1021.21,-180.1 1011.05,-183.12 1015.15,-188.79"/>
</a>
</g>
</g>
<!-- 2&#45;&gt;3 -->
<g id="edge31" class="edge">
<title>2&#45;&gt;3</title>
<g id="a_edge31"><a xlink:title="usage">
<path fill="none" stroke="#1414ce" d="M478.48,-218.07C510.87,-207.9 554.12,-194.32 589.58,-183.19"/>
<polygon fill="#1414ce" stroke="#1414ce" points="590.86,-186.46 599.36,-180.12 588.77,-179.78 590.86,-186.46"/>
</a>
</g>
</g>
<!-- 2&#45;&gt;5 -->
<g id="edge32" class="edge">
<title>2&#45;&gt;5</title>
<g id="a_edge32"><a xlink:title="usage">
<path fill="none" stroke="#1414ce" d="M430.91,-215.85C430.91,-178.83 430.91,-91.18 430.91,-46.39"/>
<polygon fill="#1414ce" stroke="#1414ce" points="434.41,-46.23 430.91,-36.23 427.41,-46.23 434.41,-46.23"/>
</a>
</g>
</g>
<!-- 10&#45;&gt;14 -->
<g id="edge34" class="edge">
<title>10&#45;&gt;14</title>
<g id="a_edge34"><a xlink:title="usage">
<path fill="none" stroke="#1414ce" d="M1078.98,-287.7C1086.85,-279.22 1096.47,-268.86 1105.09,-259.58"/>
<polygon fill="#1414ce" stroke="#1414ce" points="1107.79,-261.81 1112.03,-252.1 1102.66,-257.05 1107.79,-261.81"/>
</a>
</g>
</g>
<!-- 10&#45;&gt;11 -->
<g id="edge33" class="edge">
<title>10&#45;&gt;11</title>
<g id="a_edge33"><a xlink:title="usage">
<path fill="none" stroke="#1414ce" d="M1060.74,-287.87C1057.67,-263.67 1052.04,-219.21 1048.38,-190.39"/>
<polygon fill="#1414ce" stroke="#1414ce" points="1051.82,-189.67 1047.09,-180.19 1044.88,-190.55 1051.82,-189.67"/>
</a>
</g>
</g>
<!-- 1 -->
<g id="node18" class="node">
<title>1</title>
<g id="a_node18"><a xlink:title="ResourceMonitor">
<polygon fill="#bfbfbf" stroke="black" points="286.91,-324 146.91,-324 146.91,-288 286.91,-288 286.91,-324"/>
<text text-anchor="middle" x="216.91" y="-302.3" font-family="Times,serif" font-size="14.00">ResourceMonitor</text>
</a>
</g>
</g>
<!-- 1&#45;&gt;5 -->
<g id="edge36" class="edge">
<title>1&#45;&gt;5</title>
<g id="a_edge36"><a xlink:title="usage">
<path fill="none" stroke="#1414ce" d="M274.21,-287.88C294.16,-279.63 315.41,-267.97 330.91,-252 388.92,-192.24 415.8,-93.55 425.89,-46.11"/>
<polygon fill="#1414ce" stroke="#1414ce" points="429.33,-46.77 427.89,-36.27 422.47,-45.37 429.33,-46.77"/>
</a>
</g>
</g>
<!-- 1&#45;&gt;2 -->
<g id="edge35" class="edge">
<title>1&#45;&gt;2</title>
<g id="a_edge35"><a xlink:title="usage">
<path fill="none" stroke="#1414ce" d="M268.99,-287.97C300.61,-277.62 341,-264.41 373.54,-253.77"/>
<polygon fill="#1414ce" stroke="#1414ce" points="374.95,-256.99 383.36,-250.55 372.77,-250.34 374.95,-256.99"/>
</a>
</g>
</g>
<!-- 4&#45;&gt;5 -->
<g id="edge37" class="edge">
<title>4&#45;&gt;5</title>
<g id="a_edge37"><a xlink:title="usage">
<path fill="none" stroke="#1414ce" d="M666.8,-79.05C618.18,-66.67 535.1,-45.52 481.63,-31.91"/>
<polygon fill="#1414ce" stroke="#1414ce" points="482.23,-28.45 471.68,-29.38 480.51,-35.24 482.23,-28.45"/>
</a>
</g>
</g>
<!-- 11&#45;&gt;12 -->
<g id="edge39" class="edge">
<title>11&#45;&gt;12</title>
<g id="a_edge39"><a xlink:title="usage">
<path fill="none" stroke="#1414ce" d="M1044.91,-143.7C1044.91,-135.98 1044.91,-126.71 1044.91,-118.11"/>
<polygon fill="#1414ce" stroke="#1414ce" points="1048.41,-118.1 1044.91,-108.1 1041.41,-118.1 1048.41,-118.1"/>
</a>
</g>
</g>
<!-- 11&#45;&gt;11 -->
<g id="edge38" class="edge">
<title>11&#45;&gt;11</title>
<g id="a_edge38"><a xlink:title="usage">
<path fill="none" stroke="#1414ce" d="M1078.27,-175.47C1088.19,-175.07 1095.91,-170.58 1095.91,-162 1095.91,-156.64 1092.9,-152.87 1088.21,-150.71"/>
<polygon fill="#1414ce" stroke="#1414ce" points="1088.78,-147.25 1078.27,-148.53 1087.29,-154.09 1088.78,-147.25"/>
</a>
</g>
</g>
</g>
</svg>
