<?xml version="1.0" encoding="UTF-8" standalone="no"?>
<!DOCTYPE svg PUBLIC "-//W3C//DTD SVG 1.1//EN"
 "http://www.w3.org/Graphics/SVG/1.1/DTD/svg11.dtd">
<!-- Generated by graphviz version 2.43.0 (0)
 -->
<!-- Title: %3 Pages: 1 -->
<svg width="1450pt" height="764pt"
 viewBox="0.00 0.00 1449.68 764.00" xmlns="http://www.w3.org/2000/svg" xmlns:xlink="http://www.w3.org/1999/xlink">
<g id="graph0" class="graph" transform="scale(1 1) rotate(0) translate(4 760)">
<title>%3</title>
<polygon fill="transparent" stroke="transparent" points="-4,4 -4,-760 1445.68,-760 1445.68,4 -4,4"/>
<!-- 8 -->
<g id="node1" class="node">
<title>8</title>
<g id="a_node1"><a xlink:title="stdbool.h">
<polygon fill="#ffffff" stroke="black" points="533.18,-108 450.18,-108 450.18,-72 533.18,-72 533.18,-108"/>
<text text-anchor="middle" x="491.68" y="-86.3" font-family="Times,serif" font-size="14.00">stdbool.h</text>
</a>
</g>
</g>
<!-- 1 -->
<g id="node2" class="node">
<title>1</title>
<g id="a_node2"><a xlink:title="/__w/AtomVM/AtomVM/src/libAtomVM/erl_nif_priv.h">
<polygon fill="#bfbfbf" stroke="black" points="1414.18,-756 1029.18,-756 1029.18,-720 1414.18,-720 1414.18,-756"/>
<text text-anchor="middle" x="1221.68" y="-734.3" font-family="Times,serif" font-size="14.00">/__w/AtomVM/AtomVM/src/libAtomVM/erl_nif_priv.h</text>
</a>
</g>
</g>
<!-- 2 -->
<g id="node11" class="node">
<title>2</title>
<g id="a_node11"><a xlink:title="context.h">
<polygon fill="#ffffff" stroke="black" points="457.18,-684 374.18,-684 374.18,-648 457.18,-648 457.18,-684"/>
<text text-anchor="middle" x="415.68" y="-662.3" font-family="Times,serif" font-size="14.00">context.h</text>
</a>
</g>
</g>
<!-- 1&#45;&gt;2 -->
<g id="edge1" class="edge">
<title>1&#45;&gt;2</title>
<g id="a_edge1"><a xlink:title="include">
<path fill="none" stroke="#1414ce" d="M1029.14,-720.28C844.86,-704.27 578.96,-681.18 467.71,-671.52"/>
<polygon fill="#1414ce" stroke="#1414ce" points="467.7,-668 457.43,-670.63 467.09,-674.98 467.7,-668"/>
</a>
</g>
</g>
<!-- 22 -->
<g id="node12" class="node">
<title>22</title>
<g id="a_node12"><a xlink:title="memory.h">
<polygon fill="#ffffff" stroke="black" points="1259.68,-252 1173.68,-252 1173.68,-216 1259.68,-216 1259.68,-252"/>
<text text-anchor="middle" x="1216.68" y="-230.3" font-family="Times,serif" font-size="14.00">memory.h</text>
</a>
</g>
</g>
<!-- 1&#45;&gt;22 -->
<g id="edge2" class="edge">
<title>1&#45;&gt;22</title>
<g id="a_edge2"><a xlink:title="include">
<path fill="none" stroke="#1414ce" d="M1238.17,-719.77C1260.53,-694.53 1297.68,-645.05 1297.68,-595 1297.68,-595 1297.68,-595 1297.68,-377 1297.68,-330.96 1265.16,-286.25 1241.33,-259.67"/>
<polygon fill="#1414ce" stroke="#1414ce" points="1243.62,-256.99 1234.26,-252.02 1238.48,-261.74 1243.62,-256.99"/>
</a>
</g>
</g>
<!-- 26 -->
<g id="node13" class="node">
<title>26</title>
<g id="a_node13"><a xlink:title="resources.h">
<polygon fill="#ffffff" stroke="black" points="1117.68,-324 1017.68,-324 1017.68,-288 1117.68,-288 1117.68,-324"/>
<text text-anchor="middle" x="1067.68" y="-302.3" font-family="Times,serif" font-size="14.00">resources.h</text>
</a>
</g>
</g>
<!-- 1&#45;&gt;26 -->
<g id="edge3" class="edge">
<title>1&#45;&gt;26</title>
<g id="a_edge3"><a xlink:title="include">
<path fill="none" stroke="#1414ce" d="M1221.68,-719.95C1221.68,-693.29 1221.68,-640.11 1221.68,-595 1221.68,-595 1221.68,-595 1221.68,-449 1221.68,-391.84 1163.63,-351.34 1118.82,-328.59"/>
<polygon fill="#1414ce" stroke="#1414ce" points="1120.28,-325.41 1109.76,-324.14 1117.19,-331.7 1120.28,-325.41"/>
</a>
</g>
</g>
<!-- 25 -->
<g id="node3" class="node">
<title>25</title>
<g id="a_node3"><a xlink:title="refc_binary.h">
<polygon fill="#ffffff" stroke="black" points="779.68,-396 671.68,-396 671.68,-360 779.68,-360 779.68,-396"/>
<text text-anchor="middle" x="725.68" y="-374.3" font-family="Times,serif" font-size="14.00">refc_binary.h</text>
</a>
</g>
</g>
<!-- 25&#45;&gt;8 -->
<g id="edge4" class="edge">
<title>25&#45;&gt;8</title>
<g id="a_edge4"><a xlink:title="include">
<path fill="none" stroke="#1414ce" d="M702.79,-360C673.51,-337.5 622.34,-295.58 586.68,-252 551.14,-208.56 520.27,-150.34 503.97,-117.13"/>
<polygon fill="#1414ce" stroke="#1414ce" points="507.09,-115.54 499.58,-108.07 500.79,-118.6 507.09,-115.54"/>
</a>
</g>
</g>
<!-- 15 -->
<g id="node8" class="node">
<title>15</title>
<g id="a_node8"><a xlink:title="list.h">
<polygon fill="#ffffff" stroke="black" points="442.68,-180 388.68,-180 388.68,-144 442.68,-144 442.68,-180"/>
<text text-anchor="middle" x="415.68" y="-158.3" font-family="Times,serif" font-size="14.00">list.h</text>
</a>
</g>
</g>
<!-- 25&#45;&gt;15 -->
<g id="edge6" class="edge">
<title>25&#45;&gt;15</title>
<g id="a_edge6"><a xlink:title="include">
<path fill="none" stroke="#1414ce" d="M686.92,-359.88C640.29,-338.32 560.8,-298.44 500.68,-252 476.12,-233.03 452.07,-206.93 435.85,-187.91"/>
<polygon fill="#1414ce" stroke="#1414ce" points="438.52,-185.63 429.41,-180.23 433.16,-190.14 438.52,-185.63"/>
</a>
</g>
</g>
<!-- 6 -->
<g id="node10" class="node">
<title>6</title>
<g id="a_node10"><a xlink:title="stdlib.h">
<polygon fill="#ffffff" stroke="black" points="1025.18,-108 954.18,-108 954.18,-72 1025.18,-72 1025.18,-108"/>
<text text-anchor="middle" x="989.68" y="-86.3" font-family="Times,serif" font-size="14.00">stdlib.h</text>
</a>
</g>
</g>
<!-- 25&#45;&gt;6 -->
<g id="edge5" class="edge">
<title>25&#45;&gt;6</title>
<g id="a_edge5"><a xlink:title="include">
<path fill="none" stroke="#1414ce" d="M755.7,-359.95C791.89,-338.32 853.03,-298.22 894.68,-252 932.26,-210.31 962.42,-151.48 978.03,-117.69"/>
<polygon fill="#1414ce" stroke="#1414ce" points="981.28,-119 982.23,-108.45 974.91,-116.11 981.28,-119"/>
</a>
</g>
</g>
<!-- 25&#45;&gt;26 -->
<g id="edge7" class="edge">
<title>25&#45;&gt;26</title>
<g id="a_edge7"><a xlink:title="include">
<path fill="none" stroke="#1414ce" d="M779.87,-365.91C841.91,-353.21 943.24,-332.47 1007.63,-319.29"/>
<polygon fill="#1414ce" stroke="#1414ce" points="1008.54,-322.68 1017.64,-317.24 1007.14,-315.82 1008.54,-322.68"/>
</a>
</g>
</g>
<!-- 5 -->
<g id="node4" class="node">
<title>5</title>
<g id="a_node4"><a xlink:title="atom.h">
<polygon fill="#ffffff" stroke="black" points="743.68,-180 677.68,-180 677.68,-144 743.68,-144 743.68,-180"/>
<text text-anchor="middle" x="710.68" y="-158.3" font-family="Times,serif" font-size="14.00">atom.h</text>
</a>
</g>
</g>
<!-- 4 -->
<g id="node9" class="node">
<title>4</title>
<g id="a_node9"><a xlink:title="stdint.h">
<polygon fill="#ffffff" stroke="black" points="787.68,-36 715.68,-36 715.68,0 787.68,0 787.68,-36"/>
<text text-anchor="middle" x="751.68" y="-14.3" font-family="Times,serif" font-size="14.00">stdint.h</text>
</a>
</g>
</g>
<!-- 5&#45;&gt;4 -->
<g id="edge8" class="edge">
<title>5&#45;&gt;4</title>
<g id="a_edge8"><a xlink:title="include">
<path fill="none" stroke="#1414ce" d="M715.63,-143.87C722.65,-119.56 735.57,-74.82 743.88,-46.01"/>
<polygon fill="#1414ce" stroke="#1414ce" points="747.31,-46.77 746.72,-36.19 740.58,-44.83 747.31,-46.77"/>
</a>
</g>
</g>
<!-- 5&#45;&gt;6 -->
<g id="edge9" class="edge">
<title>5&#45;&gt;6</title>
<g id="a_edge9"><a xlink:title="include">
<path fill="none" stroke="#1414ce" d="M743.77,-155.13C787.75,-146.98 867.93,-130.93 944.07,-108.29"/>
<polygon fill="#1414ce" stroke="#1414ce" points="945.25,-111.59 953.81,-105.35 943.23,-104.89 945.25,-111.59"/>
</a>
</g>
</g>
<!-- 11 -->
<g id="node5" class="node">
<title>11</title>
<g id="a_node5"><a xlink:title="assert.h">
<polygon fill="#ffffff" stroke="black" points="1441.68,-36 1367.68,-36 1367.68,0 1441.68,0 1441.68,-36"/>
<text text-anchor="middle" x="1404.68" y="-14.3" font-family="Times,serif" font-size="14.00">assert.h</text>
</a>
</g>
</g>
<!-- 23 -->
<g id="node6" class="node">
<title>23</title>
<g id="a_node6"><a xlink:title="utils.h">
<polygon fill="#ffffff" stroke="black" points="1109.68,-180 1047.68,-180 1047.68,-144 1109.68,-144 1109.68,-180"/>
<text text-anchor="middle" x="1078.68" y="-158.3" font-family="Times,serif" font-size="14.00">utils.h</text>
</a>
</g>
</g>
<!-- 23&#45;&gt;6 -->
<g id="edge12" class="edge">
<title>23&#45;&gt;6</title>
<g id="a_edge12"><a xlink:title="include">
<path fill="none" stroke="#1414ce" d="M1056.68,-143.7C1045.47,-134.88 1031.68,-124.03 1019.53,-114.47"/>
<polygon fill="#1414ce" stroke="#1414ce" points="1021.45,-111.54 1011.43,-108.1 1017.13,-117.04 1021.45,-111.54"/>
</a>
</g>
</g>
<!-- 24 -->
<g id="node15" class="node">
<title>24</title>
<g id="a_node15"><a xlink:title="stddef.h">
<polygon fill="#ffffff" stroke="black" points="1117.68,-108 1043.68,-108 1043.68,-72 1117.68,-72 1117.68,-108"/>
<text text-anchor="middle" x="1080.68" y="-86.3" font-family="Times,serif" font-size="14.00">stddef.h</text>
</a>
</g>
</g>
<!-- 23&#45;&gt;24 -->
<g id="edge10" class="edge">
<title>23&#45;&gt;24</title>
<g id="a_edge10"><a xlink:title="include">
<path fill="none" stroke="#1414ce" d="M1079.18,-143.7C1079.4,-135.98 1079.66,-126.71 1079.91,-118.11"/>
<polygon fill="#1414ce" stroke="#1414ce" points="1083.41,-118.2 1080.19,-108.1 1076.41,-118 1083.41,-118.2"/>
</a>
</g>
</g>
<!-- 17 -->
<g id="node26" class="node">
<title>17</title>
<g id="a_node26"><a xlink:title="stdio.h">
<polygon fill="#ffffff" stroke="black" points="936.18,-108 871.18,-108 871.18,-72 936.18,-72 936.18,-108"/>
<text text-anchor="middle" x="903.68" y="-86.3" font-family="Times,serif" font-size="14.00">stdio.h</text>
</a>
</g>
</g>
<!-- 23&#45;&gt;17 -->
<g id="edge11" class="edge">
<title>23&#45;&gt;17</title>
<g id="a_edge11"><a xlink:title="include">
<path fill="none" stroke="#1414ce" d="M1047.49,-148.63C1020.53,-137.91 980.51,-121.99 945.68,-108 945.59,-107.96 945.49,-107.92 945.39,-107.88"/>
<polygon fill="#1414ce" stroke="#1414ce" points="946.82,-104.68 936.24,-104.2 944.2,-111.18 946.82,-104.68"/>
</a>
</g>
</g>
<!-- 16 -->
<g id="node7" class="node">
<title>16</title>
<g id="a_node7"><a xlink:title="synclist.h">
<polygon fill="#ffffff" stroke="black" points="387.18,-252 302.18,-252 302.18,-216 387.18,-216 387.18,-252"/>
<text text-anchor="middle" x="344.68" y="-230.3" font-family="Times,serif" font-size="14.00">synclist.h</text>
</a>
</g>
</g>
<!-- 16&#45;&gt;15 -->
<g id="edge14" class="edge">
<title>16&#45;&gt;15</title>
<g id="a_edge14"><a xlink:title="include">
<path fill="none" stroke="#1414ce" d="M362.23,-215.7C370.92,-207.14 381.55,-196.66 391.03,-187.3"/>
<polygon fill="#1414ce" stroke="#1414ce" points="393.67,-189.62 398.33,-180.1 388.76,-184.63 393.67,-189.62"/>
</a>
</g>
</g>
<!-- 18 -->
<g id="node23" class="node">
<title>18</title>
<g id="a_node23"><a xlink:title="smp.h">
<polygon fill="#ffffff" stroke="black" points="350.68,-180 290.68,-180 290.68,-144 350.68,-144 350.68,-180"/>
<text text-anchor="middle" x="320.68" y="-158.3" font-family="Times,serif" font-size="14.00">smp.h</text>
</a>
</g>
</g>
<!-- 16&#45;&gt;18 -->
<g id="edge15" class="edge">
<title>16&#45;&gt;18</title>
<g id="a_edge15"><a xlink:title="include">
<path fill="none" stroke="#1414ce" d="M338.75,-215.7C336.08,-207.9 332.86,-198.51 329.88,-189.83"/>
<polygon fill="#1414ce" stroke="#1414ce" points="333.1,-188.43 326.55,-180.1 326.48,-190.7 333.1,-188.43"/>
</a>
</g>
</g>
<!-- 16&#45;&gt;17 -->
<g id="edge13" class="edge">
<title>16&#45;&gt;17</title>
<g id="a_edge13"><a xlink:title="include">
<path fill="none" stroke="#1414ce" d="M387.23,-220.64C449.01,-202.84 567.24,-169.36 668.68,-144 735.59,-127.28 813.81,-110.11 861,-100"/>
<polygon fill="#1414ce" stroke="#1414ce" points="861.83,-103.41 870.88,-97.9 860.36,-96.56 861.83,-103.41"/>
</a>
</g>
</g>
<!-- 15&#45;&gt;8 -->
<g id="edge16" class="edge">
<title>15&#45;&gt;8</title>
<g id="a_edge16"><a xlink:title="include">
<path fill="none" stroke="#1414ce" d="M434.47,-143.7C443.86,-135.05 455.37,-124.45 465.6,-115.03"/>
<polygon fill="#1414ce" stroke="#1414ce" points="468.13,-117.45 473.11,-108.1 463.39,-112.3 468.13,-117.45"/>
</a>
</g>
</g>
<!-- 2&#45;&gt;15 -->
<g id="edge18" class="edge">
<title>2&#45;&gt;15</title>
<g id="a_edge18"><a xlink:title="include">
<path fill="none" stroke="#1414ce" d="M388.21,-647.84C373.86,-638.22 356.47,-625.45 342.68,-612 269.08,-540.17 266.77,-498.6 259.68,-396 254.16,-316.04 219.91,-278.02 270.68,-216 277.84,-207.26 338.46,-187.04 379.02,-174.26"/>
<polygon fill="#1414ce" stroke="#1414ce" points="380.11,-177.59 388.6,-171.26 378.01,-170.91 380.11,-177.59"/>
</a>
</g>
</g>
<!-- 19 -->
<g id="node14" class="node">
<title>19</title>
<g id="a_node14"><a xlink:title="term.h">
<polygon fill="#ffffff" stroke="black" points="917.18,-468 852.18,-468 852.18,-432 917.18,-432 917.18,-468"/>
<text text-anchor="middle" x="884.68" y="-446.3" font-family="Times,serif" font-size="14.00">term.h</text>
</a>
</g>
</g>
<!-- 2&#45;&gt;19 -->
<g id="edge21" class="edge">
<title>2&#45;&gt;19</title>
<g id="a_edge21"><a xlink:title="include">
<path fill="none" stroke="#1414ce" d="M457.31,-649.81C516.96,-627.64 629.81,-584.23 722.68,-540 766.38,-519.19 814.82,-492.01 847.24,-473.19"/>
<polygon fill="#1414ce" stroke="#1414ce" points="849.07,-476.17 855.95,-468.11 845.54,-470.12 849.07,-476.17"/>
</a>
</g>
</g>
<!-- 3 -->
<g id="node22" class="node">
<title>3</title>
<g id="a_node22"><a xlink:title="globalcontext.h">
<polygon fill="#ffffff" stroke="black" points="479.18,-612 352.18,-612 352.18,-576 479.18,-576 479.18,-612"/>
<text text-anchor="middle" x="415.68" y="-590.3" font-family="Times,serif" font-size="14.00">globalcontext.h</text>
</a>
</g>
</g>
<!-- 2&#45;&gt;3 -->
<g id="edge17" class="edge">
<title>2&#45;&gt;3</title>
<g id="a_edge17"><a xlink:title="include">
<path fill="none" stroke="#1414ce" d="M415.68,-647.7C415.68,-639.98 415.68,-630.71 415.68,-622.11"/>
<polygon fill="#1414ce" stroke="#1414ce" points="419.18,-622.1 415.68,-612.1 412.18,-622.1 419.18,-622.1"/>
</a>
</g>
</g>
<!-- 2&#45;&gt;18 -->
<g id="edge20" class="edge">
<title>2&#45;&gt;18</title>
<g id="a_edge20"><a xlink:title="include">
<path fill="none" stroke="#1414ce" d="M373.97,-665.57C284.8,-664.4 83.68,-647.91 83.68,-523 83.68,-523 83.68,-523 83.68,-449 83.68,-332.92 117.59,-296.01 201.68,-216 223.81,-194.94 255.72,-181.35 280.92,-173.21"/>
<polygon fill="#1414ce" stroke="#1414ce" points="282.03,-176.53 290.57,-170.25 279.98,-169.84 282.03,-176.53"/>
</a>
</g>
</g>
<!-- 28 -->
<g id="node24" class="node">
<title>28</title>
<g id="a_node24"><a xlink:title="timer_list.h">
<polygon fill="#ffffff" stroke="black" points="131.68,-252 33.68,-252 33.68,-216 131.68,-216 131.68,-252"/>
<text text-anchor="middle" x="82.68" y="-230.3" font-family="Times,serif" font-size="14.00">timer_list.h</text>
</a>
</g>
</g>
<!-- 2&#45;&gt;28 -->
<g id="edge22" class="edge">
<title>2&#45;&gt;28</title>
<g id="a_edge22"><a xlink:title="include">
<path fill="none" stroke="#1414ce" d="M373.95,-664.14C291.94,-661.6 113.9,-651.55 69.68,-612 39.15,-584.69 45.68,-563.97 45.68,-523 45.68,-523 45.68,-523 45.68,-377 45.68,-335.71 60.52,-289.77 71.4,-261.63"/>
<polygon fill="#1414ce" stroke="#1414ce" points="74.74,-262.7 75.2,-252.11 68.24,-260.11 74.74,-262.7"/>
</a>
</g>
</g>
<!-- 27 -->
<g id="node25" class="node">
<title>27</title>
<g id="a_node25"><a xlink:title="mailbox.h">
<polygon fill="#ffffff" stroke="black" points="885.68,-252 799.68,-252 799.68,-216 885.68,-216 885.68,-252"/>
<text text-anchor="middle" x="842.68" y="-230.3" font-family="Times,serif" font-size="14.00">mailbox.h</text>
</a>
</g>
</g>
<!-- 2&#45;&gt;27 -->
<g id="edge19" class="edge">
<title>2&#45;&gt;27</title>
<g id="a_edge19"><a xlink:title="include">
<path fill="none" stroke="#1414ce" d="M457.4,-665.17C604.56,-664.65 1090.68,-653.08 1090.68,-523 1090.68,-523 1090.68,-523 1090.68,-449 1090.68,-402.03 1066.73,-393.38 1033.68,-360 989.87,-315.76 927.89,-278.74 886.55,-256.74"/>
<polygon fill="#1414ce" stroke="#1414ce" points="888.02,-253.56 877.54,-252.01 884.77,-259.76 888.02,-253.56"/>
</a>
</g>
</g>
<!-- 22&#45;&gt;23 -->
<g id="edge27" class="edge">
<title>22&#45;&gt;23</title>
<g id="a_edge27"><a xlink:title="include">
<path fill="none" stroke="#1414ce" d="M1182.92,-215.88C1163.55,-206.05 1139.11,-193.65 1118.76,-183.33"/>
<polygon fill="#1414ce" stroke="#1414ce" points="1120.23,-180.15 1109.73,-178.75 1117.07,-186.4 1120.23,-180.15"/>
</a>
</g>
</g>
<!-- 22&#45;&gt;4 -->
<g id="edge23" class="edge">
<title>22&#45;&gt;4</title>
<g id="a_edge23"><a xlink:title="include">
<path fill="none" stroke="#1414ce" d="M1212.56,-215.94C1203.45,-182.24 1178.19,-107.3 1126.68,-72 1074.11,-35.97 886.1,-24.12 797.94,-20.48"/>
<polygon fill="#1414ce" stroke="#1414ce" points="797.83,-16.98 787.7,-20.08 797.55,-23.97 797.83,-16.98"/>
</a>
</g>
</g>
<!-- 22&#45;&gt;6 -->
<g id="edge24" class="edge">
<title>22&#45;&gt;6</title>
<g id="a_edge24"><a xlink:title="include">
<path fill="none" stroke="#1414ce" d="M1201.47,-215.99C1183.33,-196.51 1151.32,-164.63 1118.68,-144 1111.08,-139.2 1068.87,-122.13 1034.78,-108.64"/>
<polygon fill="#1414ce" stroke="#1414ce" points="1036,-105.36 1025.41,-104.94 1033.43,-111.87 1036,-105.36"/>
</a>
</g>
</g>
<!-- 9 -->
<g id="node16" class="node">
<title>9</title>
<g id="a_node16"><a xlink:title="erl_nif.h">
<polygon fill="#ffffff" stroke="black" points="1353.68,-180 1279.68,-180 1279.68,-144 1353.68,-144 1353.68,-180"/>
<text text-anchor="middle" x="1316.68" y="-158.3" font-family="Times,serif" font-size="14.00">erl_nif.h</text>
</a>
</g>
</g>
<!-- 22&#45;&gt;9 -->
<g id="edge25" class="edge">
<title>22&#45;&gt;9</title>
<g id="a_edge25"><a xlink:title="include">
<path fill="none" stroke="#1414ce" d="M1241.15,-215.88C1253.98,-206.89 1269.88,-195.76 1283.78,-186.03"/>
<polygon fill="#1414ce" stroke="#1414ce" points="1285.94,-188.79 1292.13,-180.19 1281.93,-183.06 1285.94,-188.79"/>
</a>
</g>
</g>
<!-- 10 -->
<g id="node21" class="node">
<title>10</title>
<g id="a_node21"><a xlink:title="term_typedef.h">
<polygon fill="#ffffff" stroke="black" points="1367.18,-108 1242.18,-108 1242.18,-72 1367.18,-72 1367.18,-108"/>
<text text-anchor="middle" x="1304.68" y="-86.3" font-family="Times,serif" font-size="14.00">term_typedef.h</text>
</a>
</g>
</g>
<!-- 22&#45;&gt;10 -->
<g id="edge26" class="edge">
<title>22&#45;&gt;10</title>
<g id="a_edge26"><a xlink:title="include">
<path fill="none" stroke="#1414ce" d="M1226.91,-215.86C1237.68,-197.88 1255.18,-168.84 1270.68,-144 1276.27,-135.05 1282.47,-125.32 1288.04,-116.67"/>
<polygon fill="#1414ce" stroke="#1414ce" points="1291.07,-118.42 1293.55,-108.12 1285.19,-114.62 1291.07,-118.42"/>
</a>
</g>
</g>
<!-- 26&#45;&gt;16 -->
<g id="edge32" class="edge">
<title>26&#45;&gt;16</title>
<g id="a_edge32"><a xlink:title="include">
<path fill="none" stroke="#1414ce" d="M1017.44,-300.23C920.44,-291.02 700.61,-270.07 515.68,-252 475.99,-248.12 431.13,-243.66 397.32,-240.28"/>
<polygon fill="#1414ce" stroke="#1414ce" points="397.49,-236.78 387.19,-239.27 396.8,-243.74 397.49,-236.78"/>
</a>
</g>
</g>
<!-- 26&#45;&gt;15 -->
<g id="edge30" class="edge">
<title>26&#45;&gt;15</title>
<g id="a_edge30"><a xlink:title="include">
<path fill="none" stroke="#1414ce" d="M1017.66,-305.49C928.89,-305.06 738.82,-298.2 586.68,-252 536.12,-236.65 482.88,-206.38 449.5,-185.43"/>
<polygon fill="#1414ce" stroke="#1414ce" points="451.36,-182.47 441.04,-180.06 447.6,-188.37 451.36,-182.47"/>
</a>
</g>
</g>
<!-- 26&#45;&gt;6 -->
<g id="edge28" class="edge">
<title>26&#45;&gt;6</title>
<g id="a_edge28"><a xlink:title="include">
<path fill="none" stroke="#1414ce" d="M1061.43,-287.85C1047.88,-250.68 1015.72,-162.44 999.46,-117.82"/>
<polygon fill="#1414ce" stroke="#1414ce" points="1002.68,-116.43 995.96,-108.23 996.1,-118.83 1002.68,-116.43"/>
</a>
</g>
</g>
<!-- 26&#45;&gt;22 -->
<g id="edge31" class="edge">
<title>26&#45;&gt;22</title>
<g id="a_edge31"><a xlink:title="include">
<path fill="none" stroke="#1414ce" d="M1104.13,-287.88C1124.32,-278.39 1149.6,-266.51 1171.09,-256.42"/>
<polygon fill="#1414ce" stroke="#1414ce" points="1172.79,-259.49 1180.35,-252.07 1169.81,-253.15 1172.79,-259.49"/>
</a>
</g>
</g>
<!-- 26&#45;&gt;9 -->
<g id="edge29" class="edge">
<title>26&#45;&gt;9</title>
<g id="a_edge29"><a xlink:title="include">
<path fill="none" stroke="#1414ce" d="M1118.05,-302.75C1161.98,-298.42 1225.3,-286.16 1268.68,-252 1288.74,-236.21 1301.5,-209.63 1308.78,-189.63"/>
<polygon fill="#1414ce" stroke="#1414ce" points="1312.1,-190.73 1312.01,-180.13 1305.48,-188.47 1312.1,-190.73"/>
</a>
</g>
</g>
<!-- 19&#45;&gt;8 -->
<g id="edge34" class="edge">
<title>19&#45;&gt;8</title>
<g id="a_edge34"><a xlink:title="include">
<path fill="none" stroke="#1414ce" d="M852.13,-447.15C784.25,-442.67 630.65,-429.07 591.68,-396 506.88,-324.04 493.53,-178.91 491.76,-118.43"/>
<polygon fill="#1414ce" stroke="#1414ce" points="495.25,-118.09 491.55,-108.16 488.25,-118.23 495.25,-118.09"/>
</a>
</g>
</g>
<!-- 19&#45;&gt;25 -->
<g id="edge40" class="edge">
<title>19&#45;&gt;25</title>
<g id="a_edge40"><a xlink:title="include">
<path fill="none" stroke="#1414ce" d="M852.12,-434.67C829.57,-424.73 799.15,-411.35 773.81,-400.19"/>
<polygon fill="#1414ce" stroke="#1414ce" points="774.93,-396.86 764.37,-396.03 772.11,-403.26 774.93,-396.86"/>
</a>
</g>
</g>
<!-- 19&#45;&gt;23 -->
<g id="edge41" class="edge">
<title>19&#45;&gt;23</title>
<g id="a_edge41"><a xlink:title="include">
<path fill="none" stroke="#1414ce" d="M917.33,-445.35C955.74,-439.81 1020.15,-426.47 1066.68,-396 1101.53,-373.18 1112.5,-363.17 1126.68,-324 1143.67,-277.07 1116.51,-220.95 1096.62,-188.89"/>
<polygon fill="#1414ce" stroke="#1414ce" points="1099.34,-186.65 1090.99,-180.13 1093.45,-190.44 1099.34,-186.65"/>
</a>
</g>
</g>
<!-- 19&#45;&gt;4 -->
<g id="edge35" class="edge">
<title>19&#45;&gt;4</title>
<g id="a_edge35"><a xlink:title="include">
<path fill="none" stroke="#1414ce" d="M851.79,-446.05C795.83,-440.27 685.88,-425.39 662.68,-396 623.36,-346.19 720.8,-321.71 747.68,-252 774.71,-181.91 764.64,-90.91 757.06,-46.21"/>
<polygon fill="#1414ce" stroke="#1414ce" points="760.46,-45.36 755.26,-36.14 753.57,-46.6 760.46,-45.36"/>
</a>
</g>
</g>
<!-- 19&#45;&gt;6 -->
<g id="edge37" class="edge">
<title>19&#45;&gt;6</title>
<g id="a_edge37"><a xlink:title="include">
<path fill="none" stroke="#1414ce" d="M917.24,-447.76C952.56,-444.47 1007.4,-433.24 1033.68,-396 1042.91,-382.93 1038.46,-375.27 1033.68,-360 1027.86,-341.41 1015.26,-342.34 1008.68,-324 983.25,-253.06 984.72,-162.44 987.44,-118.02"/>
<polygon fill="#1414ce" stroke="#1414ce" points="990.93,-118.22 988.13,-108.01 983.95,-117.75 990.93,-118.22"/>
</a>
</g>
</g>
<!-- 19&#45;&gt;22 -->
<g id="edge39" class="edge">
<title>19&#45;&gt;22</title>
<g id="a_edge39"><a xlink:title="include">
<path fill="none" stroke="#1414ce" d="M917.46,-446.71C982.27,-441.56 1123.65,-427 1159.68,-396 1199.2,-362 1211.32,-298.77 1215.04,-262.49"/>
<polygon fill="#1414ce" stroke="#1414ce" points="1218.56,-262.42 1215.95,-252.15 1211.59,-261.81 1218.56,-262.42"/>
</a>
</g>
</g>
<!-- 20 -->
<g id="node19" class="node">
<title>20</title>
<g id="a_node19"><a xlink:title="sys/types.h">
<polygon fill="#ffffff" stroke="black" points="933.18,-396 836.18,-396 836.18,-360 933.18,-360 933.18,-396"/>
<text text-anchor="middle" x="884.68" y="-374.3" font-family="Times,serif" font-size="14.00">sys/types.h</text>
</a>
</g>
</g>
<!-- 19&#45;&gt;20 -->
<g id="edge33" class="edge">
<title>19&#45;&gt;20</title>
<g id="a_edge33"><a xlink:title="include">
<path fill="none" stroke="#1414ce" d="M884.68,-431.7C884.68,-423.98 884.68,-414.71 884.68,-406.11"/>
<polygon fill="#1414ce" stroke="#1414ce" points="888.18,-406.1 884.68,-396.1 881.18,-406.1 888.18,-406.1"/>
</a>
</g>
</g>
<!-- 21 -->
<g id="node20" class="node">
<title>21</title>
<g id="a_node20"><a xlink:title="string.h">
<polygon fill="#ffffff" stroke="black" points="1024.18,-396 951.18,-396 951.18,-360 1024.18,-360 1024.18,-396"/>
<text text-anchor="middle" x="987.68" y="-374.3" font-family="Times,serif" font-size="14.00">string.h</text>
</a>
</g>
</g>
<!-- 19&#45;&gt;21 -->
<g id="edge38" class="edge">
<title>19&#45;&gt;21</title>
<g id="a_edge38"><a xlink:title="include">
<path fill="none" stroke="#1414ce" d="M909.88,-431.88C923.1,-422.89 939.48,-411.76 953.79,-402.03"/>
<polygon fill="#1414ce" stroke="#1414ce" points="956.09,-404.71 962.39,-396.19 952.15,-398.92 956.09,-404.71"/>
</a>
</g>
</g>
<!-- 19&#45;&gt;10 -->
<g id="edge42" class="edge">
<title>19&#45;&gt;10</title>
<g id="a_edge42"><a xlink:title="include">
<path fill="none" stroke="#1414ce" d="M917.28,-446.2C985.78,-439.85 1142.11,-422.8 1187.68,-396 1294.19,-333.38 1321.43,-296.46 1362.68,-180 1368.03,-164.92 1369.14,-158.64 1362.68,-144 1357.7,-132.69 1348.97,-122.74 1339.78,-114.62"/>
<polygon fill="#1414ce" stroke="#1414ce" points="1341.97,-111.88 1332.02,-108.23 1337.52,-117.28 1341.97,-111.88"/>
</a>
</g>
</g>
<!-- 19&#45;&gt;17 -->
<g id="edge36" class="edge">
<title>19&#45;&gt;17</title>
<g id="a_edge36"><a xlink:title="include">
<path fill="none" stroke="#1414ce" d="M858.1,-431.91C846.45,-422.81 834,-410.49 827.68,-396 821.29,-381.33 823.3,-375.39 827.68,-360 843.16,-305.68 877.69,-305.87 894.68,-252 908.91,-206.9 908.28,-151.23 906.21,-118.57"/>
<polygon fill="#1414ce" stroke="#1414ce" points="909.68,-118.14 905.47,-108.42 902.7,-118.65 909.68,-118.14"/>
</a>
</g>
</g>
<!-- 9&#45;&gt;10 -->
<g id="edge43" class="edge">
<title>9&#45;&gt;10</title>
<g id="a_edge43"><a xlink:title="include">
<path fill="none" stroke="#1414ce" d="M1313.72,-143.7C1312.39,-135.98 1310.8,-126.71 1309.33,-118.11"/>
<polygon fill="#1414ce" stroke="#1414ce" points="1312.75,-117.37 1307.61,-108.1 1305.85,-118.55 1312.75,-117.37"/>
</a>
</g>
</g>
<!-- 12 -->
<g id="node17" class="node">
<title>12</title>
<g id="a_node17"><a xlink:title="limits.h">
<polygon fill="#ffffff" stroke="black" points="1242.18,-36 1171.18,-36 1171.18,0 1242.18,0 1242.18,-36"/>
<text text-anchor="middle" x="1206.68" y="-14.3" font-family="Times,serif" font-size="14.00">limits.h</text>
</a>
</g>
</g>
<!-- 7 -->
<g id="node18" class="node">
<title>7</title>
<g id="a_node18"><a xlink:title="atom_table.h">
<polygon fill="#ffffff" stroke="black" points="705.18,-252 596.18,-252 596.18,-216 705.18,-216 705.18,-252"/>
<text text-anchor="middle" x="650.68" y="-230.3" font-family="Times,serif" font-size="14.00">atom_table.h</text>
</a>
</g>
</g>
<!-- 7&#45;&gt;8 -->
<g id="edge44" class="edge">
<title>7&#45;&gt;8</title>
<g id="a_edge44"><a xlink:title="include">
<path fill="none" stroke="#1414ce" d="M640.13,-215.69C627.82,-196.5 606.04,-165.44 581.68,-144 568.14,-132.08 551.54,-121.42 536.29,-112.85"/>
<polygon fill="#1414ce" stroke="#1414ce" points="537.96,-109.77 527.5,-108.04 534.6,-115.91 537.96,-109.77"/>
</a>
</g>
</g>
<!-- 7&#45;&gt;5 -->
<g id="edge45" class="edge">
<title>7&#45;&gt;5</title>
<g id="a_edge45"><a xlink:title="include">
<path fill="none" stroke="#1414ce" d="M665.51,-215.7C672.71,-207.3 681.48,-197.07 689.37,-187.86"/>
<polygon fill="#1414ce" stroke="#1414ce" points="692.17,-189.97 696.02,-180.1 686.86,-185.42 692.17,-189.97"/>
</a>
</g>
</g>
<!-- 10&#45;&gt;11 -->
<g id="edge46" class="edge">
<title>10&#45;&gt;11</title>
<g id="a_edge46"><a xlink:title="include">
<path fill="none" stroke="#1414ce" d="M1329.15,-71.88C1341.98,-62.89 1357.88,-51.76 1371.78,-42.03"/>
<polygon fill="#1414ce" stroke="#1414ce" points="1373.94,-44.79 1380.13,-36.19 1369.93,-39.06 1373.94,-44.79"/>
</a>
</g>
</g>
<!-- 10&#45;&gt;4 -->
<g id="edge49" class="edge">
<title>10&#45;&gt;4</title>
<g id="a_edge49"><a xlink:title="include">
<path fill="none" stroke="#1414ce" d="M1242.18,-74.62C1237.28,-73.67 1232.41,-72.78 1227.68,-72 1070.97,-46.05 883.09,-29.32 797.81,-22.49"/>
<polygon fill="#1414ce" stroke="#1414ce" points="797.93,-18.99 787.69,-21.69 797.38,-25.97 797.93,-18.99"/>
</a>
</g>
</g>
<!-- 10&#45;&gt;12 -->
<g id="edge47" class="edge">
<title>10&#45;&gt;12</title>
<g id="a_edge47"><a xlink:title="include">
<path fill="none" stroke="#1414ce" d="M1280.71,-71.88C1268.13,-62.89 1252.55,-51.76 1238.93,-42.03"/>
<polygon fill="#1414ce" stroke="#1414ce" points="1240.92,-39.15 1230.75,-36.19 1236.85,-44.85 1240.92,-39.15"/>
</a>
</g>
</g>
<!-- 13 -->
<g id="node28" class="node">
<title>13</title>
<g id="a_node28"><a xlink:title="inttypes.h">
<polygon fill="#ffffff" stroke="black" points="1349.18,-36 1260.18,-36 1260.18,0 1349.18,0 1349.18,-36"/>
<text text-anchor="middle" x="1304.68" y="-14.3" font-family="Times,serif" font-size="14.00">inttypes.h</text>
</a>
</g>
</g>
<!-- 10&#45;&gt;13 -->
<g id="edge48" class="edge">
<title>10&#45;&gt;13</title>
<g id="a_edge48"><a xlink:title="include">
<path fill="none" stroke="#1414ce" d="M1304.68,-71.7C1304.68,-63.98 1304.68,-54.71 1304.68,-46.11"/>
<polygon fill="#1414ce" stroke="#1414ce" points="1308.18,-46.1 1304.68,-36.1 1301.18,-46.1 1308.18,-46.1"/>
</a>
</g>
</g>
<!-- 3&#45;&gt;5 -->
<g id="edge51" class="edge">
<title>3&#45;&gt;5</title>
<g id="a_edge51"><a xlink:title="include">
<path fill="none" stroke="#1414ce" d="M456.82,-575.9C501.83,-554.12 567.68,-511.85 567.68,-451 567.68,-451 567.68,-451 567.68,-377 567.68,-291.58 677.97,-329.6 713.68,-252 722.54,-232.75 721.05,-208.59 717.76,-190.3"/>
<polygon fill="#1414ce" stroke="#1414ce" points="721.14,-189.37 715.67,-180.3 714.29,-190.8 721.14,-189.37"/>
</a>
</g>
</g>
<!-- 3&#45;&gt;16 -->
<g id="edge58" class="edge">
<title>3&#45;&gt;16</title>
<g id="a_edge58"><a xlink:title="include">
<path fill="none" stroke="#1414ce" d="M399.19,-575.77C376.84,-550.53 339.68,-501.05 339.68,-451 339.68,-451 339.68,-451 339.68,-377 339.68,-336.97 341.69,-290.63 343.16,-262.07"/>
<polygon fill="#1414ce" stroke="#1414ce" points="346.66,-262.21 343.69,-252.04 339.67,-261.84 346.66,-262.21"/>
</a>
</g>
</g>
<!-- 3&#45;&gt;15 -->
<g id="edge55" class="edge">
<title>3&#45;&gt;15</title>
<g id="a_edge55"><a xlink:title="include">
<path fill="none" stroke="#1414ce" d="M378.74,-575.95C336.67,-553.69 273.68,-510.44 273.68,-451 273.68,-451 273.68,-451 273.68,-305 273.68,-264.55 267.03,-247.27 292.68,-216 304.14,-202.03 347.03,-185.49 378.95,-174.65"/>
<polygon fill="#1414ce" stroke="#1414ce" points="380.08,-177.96 388.46,-171.47 377.87,-171.32 380.08,-177.96"/>
</a>
</g>
</g>
<!-- 3&#45;&gt;4 -->
<g id="edge50" class="edge">
<title>3&#45;&gt;4</title>
<g id="a_edge50"><a xlink:title="include">
<path fill="none" stroke="#1414ce" d="M352.12,-590.17C305.96,-585.27 244.05,-572.54 199.68,-540 67.7,-443.22 -53.15,-359.97 24.68,-216 84.39,-105.57 147.85,-109.41 267.68,-72 422.76,-23.58 617.77,-17.99 705.36,-18.21"/>
<polygon fill="#1414ce" stroke="#1414ce" points="705.48,-21.71 715.5,-18.27 705.52,-14.71 705.48,-21.71"/>
</a>
</g>
</g>
<!-- 3&#45;&gt;19 -->
<g id="edge59" class="edge">
<title>3&#45;&gt;19</title>
<g id="a_edge59"><a xlink:title="include">
<path fill="none" stroke="#1414ce" d="M479.32,-581.91C528.53,-572.66 598.11,-558.08 657.68,-540 723.72,-519.96 797.72,-489.35 842.75,-469.76"/>
<polygon fill="#1414ce" stroke="#1414ce" points="844.42,-472.85 852.18,-465.63 841.61,-466.43 844.42,-472.85"/>
</a>
</g>
</g>
<!-- 3&#45;&gt;9 -->
<g id="edge53" class="edge">
<title>3&#45;&gt;9</title>
<g id="a_edge53"><a xlink:title="include">
<path fill="none" stroke="#1414ce" d="M479.2,-591.66C619.7,-585.76 962.24,-554.84 1187.68,-396 1253.08,-349.92 1261.78,-324.46 1295.68,-252 1304.91,-232.29 1310.27,-208.16 1313.27,-190.01"/>
<polygon fill="#1414ce" stroke="#1414ce" points="1316.74,-190.5 1314.77,-180.08 1309.81,-189.45 1316.74,-190.5"/>
</a>
</g>
</g>
<!-- 3&#45;&gt;7 -->
<g id="edge52" class="edge">
<title>3&#45;&gt;7</title>
<g id="a_edge52"><a xlink:title="include">
<path fill="none" stroke="#1414ce" d="M428.65,-575.92C435.97,-565.81 444.97,-552.56 451.68,-540 508.61,-433.43 473.32,-378.22 553.68,-288 565.1,-275.18 580.38,-264.85 595.43,-256.84"/>
<polygon fill="#1414ce" stroke="#1414ce" points="597.38,-259.77 604.73,-252.14 594.23,-253.52 597.38,-259.77"/>
</a>
</g>
</g>
<!-- 3&#45;&gt;18 -->
<g id="edge57" class="edge">
<title>3&#45;&gt;18</title>
<g id="a_edge57"><a xlink:title="include">
<path fill="none" stroke="#1414ce" d="M352.16,-579.51C328.91,-571.6 304.25,-559.22 287.68,-540 266.14,-515.02 277.26,-500.1 269.68,-468 243.49,-357.04 163.1,-313.81 221.68,-216 234.54,-194.53 259.39,-181.27 280.97,-173.38"/>
<polygon fill="#1414ce" stroke="#1414ce" points="282.25,-176.64 290.61,-170.12 280.01,-170.01 282.25,-176.64"/>
</a>
</g>
</g>
<!-- 3&#45;&gt;28 -->
<g id="edge60" class="edge">
<title>3&#45;&gt;28</title>
<g id="a_edge60"><a xlink:title="include">
<path fill="none" stroke="#1414ce" d="M352.06,-589.32C310.73,-583.9 257.98,-570.88 221.68,-540 210.12,-530.16 125.04,-333.69 93.99,-261.4"/>
<polygon fill="#1414ce" stroke="#1414ce" points="97.14,-259.86 89.98,-252.05 90.71,-262.62 97.14,-259.86"/>
</a>
</g>
</g>
<!-- 3&#45;&gt;27 -->
<g id="edge56" class="edge">
<title>3&#45;&gt;27</title>
<g id="a_edge56"><a xlink:title="include">
<path fill="none" stroke="#1414ce" d="M479.19,-581.68C546.66,-565.58 643.68,-528.88 643.68,-451 643.68,-451 643.68,-451 643.68,-377 643.68,-339.53 738.34,-286.2 797.08,-256.71"/>
<polygon fill="#1414ce" stroke="#1414ce" points="798.79,-259.78 806.18,-252.19 795.67,-253.51 798.79,-259.78"/>
</a>
</g>
</g>
<!-- 14 -->
<g id="node27" class="node">
<title>14</title>
<g id="a_node27"><a xlink:title="ets.h">
<polygon fill="#ffffff" stroke="black" points="442.68,-540 388.68,-540 388.68,-504 442.68,-504 442.68,-540"/>
<text text-anchor="middle" x="415.68" y="-518.3" font-family="Times,serif" font-size="14.00">ets.h</text>
</a>
</g>
</g>
<!-- 3&#45;&gt;14 -->
<g id="edge54" class="edge">
<title>3&#45;&gt;14</title>
<g id="a_edge54"><a xlink:title="include">
<path fill="none" stroke="#1414ce" d="M415.68,-575.7C415.68,-567.98 415.68,-558.71 415.68,-550.11"/>
<polygon fill="#1414ce" stroke="#1414ce" points="419.18,-550.1 415.68,-540.1 412.18,-550.1 419.18,-550.1"/>
</a>
</g>
</g>
<!-- 18&#45;&gt;8 -->
<g id="edge61" class="edge">
<title>18&#45;&gt;8</title>
<g id="a_edge61"><a xlink:title="include">
<path fill="none" stroke="#1414ce" d="M350.86,-148.65C375.58,-138.53 411.12,-123.98 440.31,-112.03"/>
<polygon fill="#1414ce" stroke="#1414ce" points="442.01,-115.11 449.94,-108.09 439.36,-108.64 442.01,-115.11"/>
</a>
</g>
</g>
<!-- 28&#45;&gt;8 -->
<g id="edge62" class="edge">
<title>28&#45;&gt;8</title>
<g id="a_edge62"><a xlink:title="include">
<path fill="none" stroke="#1414ce" d="M116.11,-215.89C155.08,-196.47 221.79,-164.77 281.68,-144 334.63,-125.63 397.11,-110.69 440.08,-101.4"/>
<polygon fill="#1414ce" stroke="#1414ce" points="440.97,-104.79 450.02,-99.28 439.51,-97.95 440.97,-104.79"/>
</a>
</g>
</g>
<!-- 28&#45;&gt;15 -->
<g id="edge64" class="edge">
<title>28&#45;&gt;15</title>
<g id="a_edge64"><a xlink:title="include">
<path fill="none" stroke="#1414ce" d="M132.06,-225.17C187.73,-215.97 280.77,-199.47 359.68,-180 365.9,-178.47 372.44,-176.66 378.78,-174.8"/>
<polygon fill="#1414ce" stroke="#1414ce" points="379.93,-178.11 388.5,-171.88 377.91,-171.41 379.93,-178.11"/>
</a>
</g>
</g>
<!-- 28&#45;&gt;4 -->
<g id="edge63" class="edge">
<title>28&#45;&gt;4</title>
<g id="a_edge63"><a xlink:title="include">
<path fill="none" stroke="#1414ce" d="M98.85,-215.77C118.52,-195.77 153.59,-163.09 189.68,-144 364.83,-51.35 605.71,-27.23 705.51,-21.07"/>
<polygon fill="#1414ce" stroke="#1414ce" points="705.78,-24.56 715.56,-20.48 705.37,-17.57 705.78,-24.56"/>
</a>
</g>
</g>
<!-- 27&#45;&gt;8 -->
<g id="edge65" class="edge">
<title>27&#45;&gt;8</title>
<g id="a_edge65"><a xlink:title="include">
<path fill="none" stroke="#1414ce" d="M830.47,-215.93C814.86,-195.46 785.84,-161.69 752.68,-144 686.19,-108.53 598.56,-96.74 543.67,-92.86"/>
<polygon fill="#1414ce" stroke="#1414ce" points="543.68,-89.35 533.48,-92.2 543.23,-96.34 543.68,-89.35"/>
</a>
</g>
</g>
<!-- 27&#45;&gt;23 -->
<g id="edge68" class="edge">
<title>27&#45;&gt;23</title>
<g id="a_edge68"><a xlink:title="include">
<path fill="none" stroke="#1414ce" d="M885.69,-220.24C929.02,-207.39 995.37,-187.71 1037.89,-175.1"/>
<polygon fill="#1414ce" stroke="#1414ce" points="1039.04,-178.41 1047.63,-172.21 1037.05,-171.7 1039.04,-178.41"/>
</a>
</g>
</g>
<!-- 27&#45;&gt;15 -->
<g id="edge66" class="edge">
<title>27&#45;&gt;15</title>
<g id="a_edge66"><a xlink:title="include">
<path fill="none" stroke="#1414ce" d="M799.39,-225.9C715.38,-212.13 531.61,-182.01 452.79,-169.08"/>
<polygon fill="#1414ce" stroke="#1414ce" points="453.26,-165.61 442.83,-167.45 452.13,-172.52 453.26,-165.61"/>
</a>
</g>
</g>
<!-- 27&#45;&gt;10 -->
<g id="edge67" class="edge">
<title>27&#45;&gt;10</title>
<g id="a_edge67"><a xlink:title="include">
<path fill="none" stroke="#1414ce" d="M886.1,-228.16C941.21,-221.23 1038.74,-206.32 1118.68,-180 1171.82,-162.51 1229.38,-133.21 1266.18,-113.04"/>
<polygon fill="#1414ce" stroke="#1414ce" points="1268.01,-116.02 1275.07,-108.12 1264.62,-109.9 1268.01,-116.02"/>
</a>
</g>
</g>
<!-- 14&#45;&gt;16 -->
<g id="edge70" class="edge">
<title>14&#45;&gt;16</title>
<g id="a_edge70"><a xlink:title="include">
<path fill="none" stroke="#1414ce" d="M411.06,-503.83C408.3,-493.47 404.73,-479.99 401.68,-468 382.76,-393.62 361.54,-305.57 351.14,-262.09"/>
<polygon fill="#1414ce" stroke="#1414ce" points="354.52,-261.19 348.79,-252.27 347.71,-262.81 354.52,-261.19"/>
</a>
</g>
</g>
<!-- 14&#45;&gt;15 -->
<g id="edge69" class="edge">
<title>14&#45;&gt;15</title>
<g id="a_edge69"><a xlink:title="include">
<path fill="none" stroke="#1414ce" d="M415.68,-503.95C415.68,-477.29 415.68,-424.11 415.68,-379 415.68,-379 415.68,-379 415.68,-305 415.68,-265 415.68,-218.65 415.68,-190.08"/>
<polygon fill="#1414ce" stroke="#1414ce" points="419.18,-190.05 415.68,-180.05 412.18,-190.05 419.18,-190.05"/>
</a>
</g>
</g>
<!-- 14&#45;&gt;19 -->
<g id="edge71" class="edge">
<title>14&#45;&gt;19</title>
<g id="a_edge71"><a xlink:title="include">
<path fill="none" stroke="#1414ce" d="M442.93,-516.93C521.22,-505.25 747.31,-471.5 842.09,-457.36"/>
<polygon fill="#1414ce" stroke="#1414ce" points="842.8,-460.79 852.18,-455.85 841.77,-453.87 842.8,-460.79"/>
</a>
</g>
</g>
</g>
</svg>
