<?xml version="1.0" encoding="UTF-8" standalone="no"?>
<!DOCTYPE svg PUBLIC "-//W3C//DTD SVG 1.1//EN"
 "http://www.w3.org/Graphics/SVG/1.1/DTD/svg11.dtd">
<!-- Generated by graphviz version 2.43.0 (0)
 -->
<!-- Title: %3 Pages: 1 -->
<svg width="1585pt" height="764pt"
 viewBox="0.00 0.00 1585.00 764.00" xmlns="http://www.w3.org/2000/svg" xmlns:xlink="http://www.w3.org/1999/xlink">
<g id="graph0" class="graph" transform="scale(1 1) rotate(0) translate(4 760)">
<title>%3</title>
<polygon fill="transparent" stroke="transparent" points="-4,4 -4,-760 1581,-760 1581,4 -4,4"/>
<!-- 8 -->
<g id="node1" class="node">
<title>8</title>
<g id="a_node1"><a xlink:title="stdbool.h">
<polygon fill="#ffffff" stroke="black" points="527.5,-108 444.5,-108 444.5,-72 527.5,-72 527.5,-108"/>
<text text-anchor="middle" x="486" y="-86.3" font-family="Times,serif" font-size="14.00">stdbool.h</text>
</a>
</g>
</g>
<!-- 25 -->
<g id="node2" class="node">
<title>25</title>
<g id="a_node2"><a xlink:title="refc_binary.h">
<polygon fill="#ffffff" stroke="black" points="883,-396 775,-396 775,-360 883,-360 883,-396"/>
<text text-anchor="middle" x="829" y="-374.3" font-family="Times,serif" font-size="14.00">refc_binary.h</text>
</a>
</g>
</g>
<!-- 25&#45;&gt;8 -->
<g id="edge1" class="edge">
<title>25&#45;&gt;8</title>
<g id="a_edge1"><a xlink:title="include">
<path fill="none" stroke="#1414ce" d="M809.76,-359.82C799.18,-349.89 786.19,-336.85 776,-324 740.91,-279.74 750.28,-254.55 709,-216 684.01,-192.66 670.9,-196.59 641,-180 613.14,-164.54 606.62,-159.89 579,-144 561.33,-133.84 541.73,-122.65 525.1,-113.19"/>
<polygon fill="#1414ce" stroke="#1414ce" points="526.61,-110.02 516.19,-108.12 523.15,-116.11 526.61,-110.02"/>
</a>
</g>
</g>
<!-- 15 -->
<g id="node7" class="node">
<title>15</title>
<g id="a_node7"><a xlink:title="list.h">
<polygon fill="#ffffff" stroke="black" points="477,-180 423,-180 423,-144 477,-144 477,-180"/>
<text text-anchor="middle" x="450" y="-158.3" font-family="Times,serif" font-size="14.00">list.h</text>
</a>
</g>
</g>
<!-- 25&#45;&gt;15 -->
<g id="edge3" class="edge">
<title>25&#45;&gt;15</title>
<g id="a_edge3"><a xlink:title="include">
<path fill="none" stroke="#1414ce" d="M776.75,-359.9C699.46,-333.97 559.22,-284.32 517,-252 494.73,-234.95 476.19,-208.66 464.3,-189.06"/>
<polygon fill="#1414ce" stroke="#1414ce" points="467.25,-187.17 459.16,-180.32 461.21,-190.71 467.25,-187.17"/>
</a>
</g>
</g>
<!-- 6 -->
<g id="node9" class="node">
<title>6</title>
<g id="a_node9"><a xlink:title="stdlib.h">
<polygon fill="#ffffff" stroke="black" points="936.5,-108 865.5,-108 865.5,-72 936.5,-72 936.5,-108"/>
<text text-anchor="middle" x="901" y="-86.3" font-family="Times,serif" font-size="14.00">stdlib.h</text>
</a>
</g>
</g>
<!-- 25&#45;&gt;6 -->
<g id="edge2" class="edge">
<title>25&#45;&gt;6</title>
<g id="a_edge2"><a xlink:title="include">
<path fill="none" stroke="#1414ce" d="M808.62,-359.53C799.19,-350.09 788.99,-337.6 784,-324 778.48,-308.98 779.76,-303.43 784,-288 802.67,-219.99 851.59,-151.7 879.91,-116.13"/>
<polygon fill="#1414ce" stroke="#1414ce" points="882.74,-118.2 886.3,-108.23 877.3,-113.81 882.74,-118.2"/>
</a>
</g>
</g>
<!-- 26 -->
<g id="node11" class="node">
<title>26</title>
<g id="a_node11"><a xlink:title="resources.h">
<polygon fill="#ffffff" stroke="black" points="893,-324 793,-324 793,-288 893,-288 893,-324"/>
<text text-anchor="middle" x="843" y="-302.3" font-family="Times,serif" font-size="14.00">resources.h</text>
</a>
</g>
</g>
<!-- 25&#45;&gt;26 -->
<g id="edge4" class="edge">
<title>25&#45;&gt;26</title>
<g id="a_edge4"><a xlink:title="include">
<path fill="none" stroke="#1414ce" d="M832.46,-359.7C834,-351.98 835.86,-342.71 837.58,-334.11"/>
<polygon fill="#1414ce" stroke="#1414ce" points="841.05,-334.6 839.58,-324.1 834.19,-333.22 841.05,-334.6"/>
</a>
</g>
</g>
<!-- 5 -->
<g id="node3" class="node">
<title>5</title>
<g id="a_node3"><a xlink:title="atom.h">
<polygon fill="#ffffff" stroke="black" points="759,-180 693,-180 693,-144 759,-144 759,-180"/>
<text text-anchor="middle" x="726" y="-158.3" font-family="Times,serif" font-size="14.00">atom.h</text>
</a>
</g>
</g>
<!-- 4 -->
<g id="node8" class="node">
<title>4</title>
<g id="a_node8"><a xlink:title="stdint.h">
<polygon fill="#ffffff" stroke="black" points="762,-36 690,-36 690,0 762,0 762,-36"/>
<text text-anchor="middle" x="726" y="-14.3" font-family="Times,serif" font-size="14.00">stdint.h</text>
</a>
</g>
</g>
<!-- 5&#45;&gt;4 -->
<g id="edge5" class="edge">
<title>5&#45;&gt;4</title>
<g id="a_edge5"><a xlink:title="include">
<path fill="none" stroke="#1414ce" d="M726,-143.87C726,-119.67 726,-75.21 726,-46.39"/>
<polygon fill="#1414ce" stroke="#1414ce" points="729.5,-46.19 726,-36.19 722.5,-46.19 729.5,-46.19"/>
</a>
</g>
</g>
<!-- 5&#45;&gt;6 -->
<g id="edge6" class="edge">
<title>5&#45;&gt;6</title>
<g id="a_edge6"><a xlink:title="include">
<path fill="none" stroke="#1414ce" d="M759.33,-147.67C786.71,-136.72 825.76,-121.1 855.93,-109.03"/>
<polygon fill="#1414ce" stroke="#1414ce" points="857.41,-112.21 865.39,-105.24 854.81,-105.71 857.41,-112.21"/>
</a>
</g>
</g>
<!-- 11 -->
<g id="node4" class="node">
<title>11</title>
<g id="a_node4"><a xlink:title="assert.h">
<polygon fill="#ffffff" stroke="black" points="1319,-36 1245,-36 1245,0 1319,0 1319,-36"/>
<text text-anchor="middle" x="1282" y="-14.3" font-family="Times,serif" font-size="14.00">assert.h</text>
</a>
</g>
</g>
<!-- 23 -->
<g id="node5" class="node">
<title>23</title>
<g id="a_node5"><a xlink:title="utils.h">
<polygon fill="#ffffff" stroke="black" points="1349,-180 1287,-180 1287,-144 1349,-144 1349,-180"/>
<text text-anchor="middle" x="1318" y="-158.3" font-family="Times,serif" font-size="14.00">utils.h</text>
</a>
</g>
</g>
<!-- 23&#45;&gt;6 -->
<g id="edge9" class="edge">
<title>23&#45;&gt;6</title>
<g id="a_edge9"><a xlink:title="include">
<path fill="none" stroke="#1414ce" d="M1286.96,-153.79C1272.7,-150.59 1255.53,-146.9 1240,-144 1135.51,-124.46 1011.97,-106.41 946.71,-97.27"/>
<polygon fill="#1414ce" stroke="#1414ce" points="947.14,-93.79 936.75,-95.88 946.17,-100.72 947.14,-93.79"/>
</a>
</g>
</g>
<!-- 24 -->
<g id="node13" class="node">
<title>24</title>
<g id="a_node13"><a xlink:title="stddef.h">
<polygon fill="#ffffff" stroke="black" points="1483,-108 1409,-108 1409,-72 1483,-72 1483,-108"/>
<text text-anchor="middle" x="1446" y="-86.3" font-family="Times,serif" font-size="14.00">stddef.h</text>
</a>
</g>
</g>
<!-- 23&#45;&gt;24 -->
<g id="edge7" class="edge">
<title>23&#45;&gt;24</title>
<g id="a_edge7"><a xlink:title="include">
<path fill="none" stroke="#1414ce" d="M1349.31,-143.88C1366.2,-134.64 1387.25,-123.13 1405.38,-113.21"/>
<polygon fill="#1414ce" stroke="#1414ce" points="1407.47,-116.06 1414.57,-108.19 1404.11,-109.92 1407.47,-116.06"/>
</a>
</g>
</g>
<!-- 17 -->
<g id="node26" class="node">
<title>17</title>
<g id="a_node26"><a xlink:title="stdio.h">
<polygon fill="#ffffff" stroke="black" points="1363.5,-108 1298.5,-108 1298.5,-72 1363.5,-72 1363.5,-108"/>
<text text-anchor="middle" x="1331" y="-86.3" font-family="Times,serif" font-size="14.00">stdio.h</text>
</a>
</g>
</g>
<!-- 23&#45;&gt;17 -->
<g id="edge8" class="edge">
<title>23&#45;&gt;17</title>
<g id="a_edge8"><a xlink:title="include">
<path fill="none" stroke="#1414ce" d="M1321.21,-143.7C1322.65,-135.98 1324.37,-126.71 1325.96,-118.11"/>
<polygon fill="#1414ce" stroke="#1414ce" points="1329.44,-118.58 1327.82,-108.1 1322.56,-117.3 1329.44,-118.58"/>
</a>
</g>
</g>
<!-- 16 -->
<g id="node6" class="node">
<title>16</title>
<g id="a_node6"><a xlink:title="synclist.h">
<polygon fill="#ffffff" stroke="black" points="419.5,-252 334.5,-252 334.5,-216 419.5,-216 419.5,-252"/>
<text text-anchor="middle" x="377" y="-230.3" font-family="Times,serif" font-size="14.00">synclist.h</text>
</a>
</g>
</g>
<!-- 16&#45;&gt;15 -->
<g id="edge11" class="edge">
<title>16&#45;&gt;15</title>
<g id="a_edge11"><a xlink:title="include">
<path fill="none" stroke="#1414ce" d="M395.04,-215.7C404.06,-207.05 415.12,-196.45 424.94,-187.03"/>
<polygon fill="#1414ce" stroke="#1414ce" points="427.37,-189.55 432.16,-180.1 422.52,-184.5 427.37,-189.55"/>
</a>
</g>
</g>
<!-- 18 -->
<g id="node23" class="node">
<title>18</title>
<g id="a_node23"><a xlink:title="smp.h">
<polygon fill="#ffffff" stroke="black" points="405,-180 345,-180 345,-144 405,-144 405,-180"/>
<text text-anchor="middle" x="375" y="-158.3" font-family="Times,serif" font-size="14.00">smp.h</text>
</a>
</g>
</g>
<!-- 16&#45;&gt;18 -->
<g id="edge12" class="edge">
<title>16&#45;&gt;18</title>
<g id="a_edge12"><a xlink:title="include">
<path fill="none" stroke="#1414ce" d="M376.51,-215.7C376.29,-207.98 376.02,-198.71 375.77,-190.11"/>
<polygon fill="#1414ce" stroke="#1414ce" points="379.27,-190 375.49,-180.1 372.28,-190.2 379.27,-190"/>
</a>
</g>
</g>
<!-- 16&#45;&gt;17 -->
<g id="edge10" class="edge">
<title>16&#45;&gt;17</title>
<g id="a_edge10"><a xlink:title="include">
<path fill="none" stroke="#1414ce" d="M419.64,-228.17C546.95,-213.48 935.24,-166.72 1254,-108 1265.13,-105.95 1277.11,-103.45 1288.22,-101"/>
<polygon fill="#1414ce" stroke="#1414ce" points="1289.13,-104.39 1298.13,-98.79 1287.61,-97.56 1289.13,-104.39"/>
</a>
</g>
</g>
<!-- 15&#45;&gt;8 -->
<g id="edge13" class="edge">
<title>15&#45;&gt;8</title>
<g id="a_edge13"><a xlink:title="include">
<path fill="none" stroke="#1414ce" d="M458.9,-143.7C463,-135.73 467.95,-126.1 472.49,-117.26"/>
<polygon fill="#1414ce" stroke="#1414ce" points="475.74,-118.6 477.2,-108.1 469.52,-115.4 475.74,-118.6"/>
</a>
</g>
</g>
<!-- 22 -->
<g id="node10" class="node">
<title>22</title>
<g id="a_node10"><a xlink:title="memory.h">
<polygon fill="#ffffff" stroke="black" points="1174,-252 1088,-252 1088,-216 1174,-216 1174,-252"/>
<text text-anchor="middle" x="1131" y="-230.3" font-family="Times,serif" font-size="14.00">memory.h</text>
</a>
</g>
</g>
<!-- 22&#45;&gt;23 -->
<g id="edge18" class="edge">
<title>22&#45;&gt;23</title>
<g id="a_edge18"><a xlink:title="include">
<path fill="none" stroke="#1414ce" d="M1174.37,-216.76C1205.43,-205.14 1246.96,-189.59 1277.38,-178.21"/>
<polygon fill="#1414ce" stroke="#1414ce" points="1278.69,-181.45 1286.83,-174.67 1276.24,-174.9 1278.69,-181.45"/>
</a>
</g>
</g>
<!-- 22&#45;&gt;4 -->
<g id="edge14" class="edge">
<title>22&#45;&gt;4</title>
<g id="a_edge14"><a xlink:title="include">
<path fill="none" stroke="#1414ce" d="M1121.24,-215.68C1109.82,-196.48 1089.45,-165.42 1066,-144 980.92,-66.28 843.44,-35.78 772.17,-24.72"/>
<polygon fill="#1414ce" stroke="#1414ce" points="772.55,-21.24 762.14,-23.22 771.52,-28.16 772.55,-21.24"/>
</a>
</g>
</g>
<!-- 22&#45;&gt;6 -->
<g id="edge15" class="edge">
<title>22&#45;&gt;6</title>
<g id="a_edge15"><a xlink:title="include">
<path fill="none" stroke="#1414ce" d="M1114.68,-215.71C1095.6,-196.25 1062.36,-164.68 1029,-144 1003.19,-128 971.71,-114.89 946.43,-105.71"/>
<polygon fill="#1414ce" stroke="#1414ce" points="947.31,-102.31 936.72,-102.27 944.97,-108.91 947.31,-102.31"/>
</a>
</g>
</g>
<!-- 9 -->
<g id="node14" class="node">
<title>9</title>
<g id="a_node14"><a xlink:title="erl_nif.h">
<polygon fill="#ffffff" stroke="black" points="1231,-180 1157,-180 1157,-144 1231,-144 1231,-180"/>
<text text-anchor="middle" x="1194" y="-158.3" font-family="Times,serif" font-size="14.00">erl_nif.h</text>
</a>
</g>
</g>
<!-- 22&#45;&gt;9 -->
<g id="edge16" class="edge">
<title>22&#45;&gt;9</title>
<g id="a_edge16"><a xlink:title="include">
<path fill="none" stroke="#1414ce" d="M1146.57,-215.7C1154.2,-207.22 1163.52,-196.86 1171.88,-187.58"/>
<polygon fill="#1414ce" stroke="#1414ce" points="1174.52,-189.88 1178.61,-180.1 1169.31,-185.2 1174.52,-189.88"/>
</a>
</g>
</g>
<!-- 10 -->
<g id="node21" class="node">
<title>10</title>
<g id="a_node21"><a xlink:title="term_typedef.h">
<polygon fill="#ffffff" stroke="black" points="1244.5,-108 1119.5,-108 1119.5,-72 1244.5,-72 1244.5,-108"/>
<text text-anchor="middle" x="1182" y="-86.3" font-family="Times,serif" font-size="14.00">term_typedef.h</text>
</a>
</g>
</g>
<!-- 22&#45;&gt;10 -->
<g id="edge17" class="edge">
<title>22&#45;&gt;10</title>
<g id="a_edge17"><a xlink:title="include">
<path fill="none" stroke="#1414ce" d="M1132.34,-215.73C1134.21,-197.39 1138.5,-167.82 1148,-144 1151.79,-134.5 1157.35,-124.87 1162.87,-116.47"/>
<polygon fill="#1414ce" stroke="#1414ce" points="1165.77,-118.45 1168.55,-108.22 1160,-114.48 1165.77,-118.45"/>
</a>
</g>
</g>
<!-- 26&#45;&gt;16 -->
<g id="edge23" class="edge">
<title>26&#45;&gt;16</title>
<g id="a_edge23"><a xlink:title="include">
<path fill="none" stroke="#1414ce" d="M792.69,-297.44C703.85,-284.1 520.08,-256.49 429.63,-242.91"/>
<polygon fill="#1414ce" stroke="#1414ce" points="430.01,-239.42 419.6,-241.4 428.97,-246.35 430.01,-239.42"/>
</a>
</g>
</g>
<!-- 26&#45;&gt;15 -->
<g id="edge21" class="edge">
<title>26&#45;&gt;15</title>
<g id="a_edge21"><a xlink:title="include">
<path fill="none" stroke="#1414ce" d="M792.71,-300.68C738.85,-294.73 651.72,-281.22 582,-252 543.07,-235.69 503.6,-207.16 478.1,-186.8"/>
<polygon fill="#1414ce" stroke="#1414ce" points="479.98,-183.82 470.01,-180.24 475.57,-189.25 479.98,-183.82"/>
</a>
</g>
</g>
<!-- 26&#45;&gt;6 -->
<g id="edge19" class="edge">
<title>26&#45;&gt;6</title>
<g id="a_edge19"><a xlink:title="include">
<path fill="none" stroke="#1414ce" d="M847.65,-287.85C857.7,-250.75 881.54,-162.81 893.65,-118.1"/>
<polygon fill="#1414ce" stroke="#1414ce" points="897.09,-118.8 896.33,-108.23 890.34,-116.97 897.09,-118.8"/>
</a>
</g>
</g>
<!-- 26&#45;&gt;22 -->
<g id="edge22" class="edge">
<title>26&#45;&gt;22</title>
<g id="a_edge22"><a xlink:title="include">
<path fill="none" stroke="#1414ce" d="M893.17,-292.81C944.95,-280.22 1025.4,-260.67 1078.14,-247.85"/>
<polygon fill="#1414ce" stroke="#1414ce" points="1079.09,-251.22 1087.98,-245.46 1077.44,-244.42 1079.09,-251.22"/>
</a>
</g>
</g>
<!-- 26&#45;&gt;9 -->
<g id="edge20" class="edge">
<title>26&#45;&gt;9</title>
<g id="a_edge20"><a xlink:title="include">
<path fill="none" stroke="#1414ce" d="M893.28,-304.32C978,-302.06 1143.82,-292.44 1183,-252 1198.52,-235.98 1200.11,-210.02 1198.51,-190.26"/>
<polygon fill="#1414ce" stroke="#1414ce" points="1201.99,-189.85 1197.4,-180.3 1195.03,-190.63 1201.99,-189.85"/>
</a>
</g>
</g>
<!-- 19 -->
<g id="node12" class="node">
<title>19</title>
<g id="a_node12"><a xlink:title="term.h">
<polygon fill="#ffffff" stroke="black" points="972.5,-468 907.5,-468 907.5,-432 972.5,-432 972.5,-468"/>
<text text-anchor="middle" x="940" y="-446.3" font-family="Times,serif" font-size="14.00">term.h</text>
</a>
</g>
</g>
<!-- 19&#45;&gt;8 -->
<g id="edge25" class="edge">
<title>19&#45;&gt;8</title>
<g id="a_edge25"><a xlink:title="include">
<path fill="none" stroke="#1414ce" d="M907.25,-446.54C840.5,-440.96 691.6,-425.49 651,-396 553.58,-325.25 507.67,-178.9 492.25,-118.25"/>
<polygon fill="#1414ce" stroke="#1414ce" points="495.58,-117.16 489.8,-108.29 488.79,-118.83 495.58,-117.16"/>
</a>
</g>
</g>
<!-- 19&#45;&gt;25 -->
<g id="edge31" class="edge">
<title>19&#45;&gt;25</title>
<g id="a_edge31"><a xlink:title="include">
<path fill="none" stroke="#1414ce" d="M912.85,-431.88C898.47,-422.81 880.62,-411.55 865.09,-401.76"/>
<polygon fill="#1414ce" stroke="#1414ce" points="866.58,-398.56 856.26,-396.19 862.85,-404.48 866.58,-398.56"/>
</a>
</g>
</g>
<!-- 19&#45;&gt;23 -->
<g id="edge32" class="edge">
<title>19&#45;&gt;23</title>
<g id="a_edge32"><a xlink:title="include">
<path fill="none" stroke="#1414ce" d="M972.8,-444.07C1009.37,-437.47 1069.24,-423.29 1114,-396 1152.11,-372.76 1225.34,-286.21 1254,-252 1271.12,-231.56 1288.67,-206.85 1301.05,-188.65"/>
<polygon fill="#1414ce" stroke="#1414ce" points="1304,-190.54 1306.69,-180.29 1298.19,-186.62 1304,-190.54"/>
</a>
</g>
</g>
<!-- 19&#45;&gt;4 -->
<g id="edge26" class="edge">
<title>19&#45;&gt;4</title>
<g id="a_edge26"><a xlink:title="include">
<path fill="none" stroke="#1414ce" d="M937.95,-431.94C933.92,-401.86 923.42,-337.88 902,-288 860.13,-190.48 783.35,-89.41 746.63,-43.87"/>
<polygon fill="#1414ce" stroke="#1414ce" points="749.27,-41.58 740.25,-36.03 743.84,-46 749.27,-41.58"/>
</a>
</g>
</g>
<!-- 19&#45;&gt;6 -->
<g id="edge28" class="edge">
<title>19&#45;&gt;6</title>
<g id="a_edge28"><a xlink:title="include">
<path fill="none" stroke="#1414ce" d="M940.25,-431.56C940.51,-401.95 940.27,-340.03 935,-288 928.81,-226.87 914.92,-156.08 906.94,-118.23"/>
<polygon fill="#1414ce" stroke="#1414ce" points="910.27,-117.07 904.77,-108.02 903.43,-118.53 910.27,-117.07"/>
</a>
</g>
</g>
<!-- 19&#45;&gt;22 -->
<g id="edge30" class="edge">
<title>19&#45;&gt;22</title>
<g id="a_edge30"><a xlink:title="include">
<path fill="none" stroke="#1414ce" d="M955.31,-431.85C988.98,-394.13 1069.57,-303.83 1108.8,-259.88"/>
<polygon fill="#1414ce" stroke="#1414ce" points="1111.57,-262.02 1115.62,-252.23 1106.35,-257.36 1111.57,-262.02"/>
</a>
</g>
</g>
<!-- 20 -->
<g id="node19" class="node">
<title>20</title>
<g id="a_node19"><a xlink:title="sys/types.h">
<polygon fill="#ffffff" stroke="black" points="756.5,-396 659.5,-396 659.5,-360 756.5,-360 756.5,-396"/>
<text text-anchor="middle" x="708" y="-374.3" font-family="Times,serif" font-size="14.00">sys/types.h</text>
</a>
</g>
</g>
<!-- 19&#45;&gt;20 -->
<g id="edge24" class="edge">
<title>19&#45;&gt;20</title>
<g id="a_edge24"><a xlink:title="include">
<path fill="none" stroke="#1414ce" d="M907.25,-439.12C870.79,-428.12 811.13,-410.12 766.58,-396.68"/>
<polygon fill="#1414ce" stroke="#1414ce" points="767.34,-393.25 756.75,-393.71 765.31,-399.95 767.34,-393.25"/>
</a>
</g>
</g>
<!-- 21 -->
<g id="node20" class="node">
<title>21</title>
<g id="a_node20"><a xlink:title="string.h">
<polygon fill="#ffffff" stroke="black" points="1353.5,-396 1280.5,-396 1280.5,-360 1353.5,-360 1353.5,-396"/>
<text text-anchor="middle" x="1317" y="-374.3" font-family="Times,serif" font-size="14.00">string.h</text>
</a>
</g>
</g>
<!-- 19&#45;&gt;21 -->
<g id="edge29" class="edge">
<title>19&#45;&gt;21</title>
<g id="a_edge29"><a xlink:title="include">
<path fill="none" stroke="#1414ce" d="M972.8,-442.91C1039.92,-430.45 1193.13,-402 1270.49,-387.64"/>
<polygon fill="#1414ce" stroke="#1414ce" points="1271.24,-391.06 1280.43,-385.79 1269.96,-384.17 1271.24,-391.06"/>
</a>
</g>
</g>
<!-- 19&#45;&gt;10 -->
<g id="edge33" class="edge">
<title>19&#45;&gt;10</title>
<g id="a_edge33"><a xlink:title="include">
<path fill="none" stroke="#1414ce" d="M972.38,-431.77C1026.48,-401.61 1136,-334.54 1204,-252 1236.17,-212.95 1260.41,-190.3 1240,-144 1235.01,-132.69 1226.29,-122.74 1217.1,-114.62"/>
<polygon fill="#1414ce" stroke="#1414ce" points="1219.28,-111.88 1209.34,-108.23 1214.83,-117.28 1219.28,-111.88"/>
</a>
</g>
</g>
<!-- 19&#45;&gt;17 -->
<g id="edge27" class="edge">
<title>19&#45;&gt;17</title>
<g id="a_edge27"><a xlink:title="include">
<path fill="none" stroke="#1414ce" d="M972.6,-446.03C1015.3,-440.98 1091.38,-427.97 1148,-396 1190.65,-371.92 1344.15,-214.65 1358,-180 1366.32,-159.19 1357.68,-134.78 1348.02,-116.79"/>
<polygon fill="#1414ce" stroke="#1414ce" points="1351,-114.94 1342.97,-108.03 1344.93,-118.44 1351,-114.94"/>
</a>
</g>
</g>
<!-- 9&#45;&gt;10 -->
<g id="edge34" class="edge">
<title>9&#45;&gt;10</title>
<g id="a_edge34"><a xlink:title="include">
<path fill="none" stroke="#1414ce" d="M1191.03,-143.7C1189.71,-135.98 1188.12,-126.71 1186.65,-118.11"/>
<polygon fill="#1414ce" stroke="#1414ce" points="1190.07,-117.37 1184.93,-108.1 1183.17,-118.55 1190.07,-117.37"/>
</a>
</g>
</g>
<!-- 12 -->
<g id="node15" class="node">
<title>12</title>
<g id="a_node15"><a xlink:title="limits.h">
<polygon fill="#ffffff" stroke="black" points="1119.5,-36 1048.5,-36 1048.5,0 1119.5,0 1119.5,-36"/>
<text text-anchor="middle" x="1084" y="-14.3" font-family="Times,serif" font-size="14.00">limits.h</text>
</a>
</g>
</g>
<!-- 7 -->
<g id="node16" class="node">
<title>7</title>
<g id="a_node16"><a xlink:title="atom_table.h">
<polygon fill="#ffffff" stroke="black" points="699.5,-252 590.5,-252 590.5,-216 699.5,-216 699.5,-252"/>
<text text-anchor="middle" x="645" y="-230.3" font-family="Times,serif" font-size="14.00">atom_table.h</text>
</a>
</g>
</g>
<!-- 7&#45;&gt;8 -->
<g id="edge35" class="edge">
<title>7&#45;&gt;8</title>
<g id="a_edge35"><a xlink:title="include">
<path fill="none" stroke="#1414ce" d="M625.82,-215.87C597.65,-190.71 544.96,-143.65 512.92,-115.04"/>
<polygon fill="#1414ce" stroke="#1414ce" points="515.04,-112.24 505.25,-108.19 510.37,-117.46 515.04,-112.24"/>
</a>
</g>
</g>
<!-- 7&#45;&gt;5 -->
<g id="edge36" class="edge">
<title>7&#45;&gt;5</title>
<g id="a_edge36"><a xlink:title="include">
<path fill="none" stroke="#1414ce" d="M665.02,-215.7C675.13,-206.97 687.54,-196.24 698.52,-186.75"/>
<polygon fill="#1414ce" stroke="#1414ce" points="700.93,-189.29 706.21,-180.1 696.35,-183.99 700.93,-189.29"/>
</a>
</g>
</g>
<!-- 1 -->
<g id="node17" class="node">
<title>1</title>
<g id="a_node17"><a xlink:title="/__w/AtomVM/AtomVM/src/libAtomVM/avmpack.c">
<polygon fill="#bfbfbf" stroke="black" points="1577,-756 1209,-756 1209,-720 1577,-720 1577,-756"/>
<text text-anchor="middle" x="1393" y="-734.3" font-family="Times,serif" font-size="14.00">/__w/AtomVM/AtomVM/src/libAtomVM/avmpack.c</text>
</a>
</g>
</g>
<!-- 1&#45;&gt;23 -->
<g id="edge38" class="edge">
<title>1&#45;&gt;23</title>
<g id="a_edge38"><a xlink:title="include">
<path fill="none" stroke="#1414ce" d="M1406.78,-719.79C1425.86,-694.18 1458,-643.8 1458,-595 1458,-595 1458,-595 1458,-521 1458,-388.29 1373.52,-245.73 1335.81,-188.71"/>
<polygon fill="#1414ce" stroke="#1414ce" points="1338.65,-186.66 1330.18,-180.31 1332.84,-190.56 1338.65,-186.66"/>
</a>
</g>
</g>
<!-- 1&#45;&gt;6 -->
<g id="edge39" class="edge">
<title>1&#45;&gt;6</title>
<g id="a_edge39"><a xlink:title="include">
<path fill="none" stroke="#1414ce" d="M1397.45,-719.78C1411.29,-662.09 1447.69,-472.94 1363,-360 1281.99,-251.96 1193.35,-323.83 1079,-252 1059.3,-239.62 1058.12,-231.75 1041,-216 1002.2,-180.31 956.52,-139.81 928.16,-114.83"/>
<polygon fill="#1414ce" stroke="#1414ce" points="930.46,-112.19 920.64,-108.21 925.84,-117.44 930.46,-112.19"/>
</a>
</g>
</g>
<!-- 2 -->
<g id="node18" class="node">
<title>2</title>
<g id="a_node18"><a xlink:title="avmpack.h">
<polygon fill="#ffffff" stroke="black" points="356.5,-684 263.5,-684 263.5,-648 356.5,-648 356.5,-684"/>
<text text-anchor="middle" x="310" y="-662.3" font-family="Times,serif" font-size="14.00">avmpack.h</text>
</a>
</g>
</g>
<!-- 1&#45;&gt;2 -->
<g id="edge37" class="edge">
<title>1&#45;&gt;2</title>
<g id="a_edge37"><a xlink:title="include">
<path fill="none" stroke="#1414ce" d="M1208.98,-725.11C958.04,-708.89 521.98,-680.7 366.81,-670.67"/>
<polygon fill="#1414ce" stroke="#1414ce" points="366.77,-667.16 356.57,-670.01 366.32,-674.15 366.77,-667.16"/>
</a>
</g>
</g>
<!-- 1&#45;&gt;21 -->
<g id="edge40" class="edge">
<title>1&#45;&gt;21</title>
<g id="a_edge40"><a xlink:title="include">
<path fill="none" stroke="#1414ce" d="M1388.21,-719.88C1385.38,-709.53 1381.81,-696.05 1379,-684 1355.21,-582.1 1331.93,-459.83 1322.01,-406.32"/>
<polygon fill="#1414ce" stroke="#1414ce" points="1325.41,-405.47 1320.15,-396.27 1318.52,-406.74 1325.41,-405.47"/>
</a>
</g>
</g>
<!-- 1&#45;&gt;17 -->
<g id="edge41" class="edge">
<title>1&#45;&gt;17</title>
<g id="a_edge41"><a xlink:title="include">
<path fill="none" stroke="#1414ce" d="M1416.63,-719.97C1447.04,-695.89 1496,-648.75 1496,-595 1496,-595 1496,-595 1496,-233 1496,-168.16 1421.89,-126.45 1373.01,-105.99"/>
<polygon fill="#1414ce" stroke="#1414ce" points="1374.18,-102.69 1363.6,-102.18 1371.56,-109.18 1374.18,-102.69"/>
</a>
</g>
</g>
<!-- 2&#45;&gt;8 -->
<g id="edge44" class="edge">
<title>2&#45;&gt;8</title>
<g id="a_edge44"><a xlink:title="include">
<path fill="none" stroke="#1414ce" d="M263.49,-658.11C195.25,-645.06 76,-609.84 76,-523 76,-523 76,-523 76,-233 76,-158.02 323.94,-113.78 434.2,-97.82"/>
<polygon fill="#1414ce" stroke="#1414ce" points="435.02,-101.24 444.43,-96.36 434.04,-94.31 435.02,-101.24"/>
</a>
</g>
</g>
<!-- 2&#45;&gt;15 -->
<g id="edge43" class="edge">
<title>2&#45;&gt;15</title>
<g id="a_edge43"><a xlink:title="include">
<path fill="none" stroke="#1414ce" d="M301.5,-647.99C289.23,-621.82 268,-569.79 268,-523 268,-523 268,-523 268,-305 268,-262.5 272.04,-245.12 303,-216 338.56,-182.55 362.81,-197.11 412.97,-179.95"/>
<polygon fill="#1414ce" stroke="#1414ce" points="414.48,-183.12 422.64,-176.36 412.05,-176.56 414.48,-183.12"/>
</a>
</g>
</g>
<!-- 2&#45;&gt;4 -->
<g id="edge46" class="edge">
<title>2&#45;&gt;4</title>
<g id="a_edge46"><a xlink:title="include">
<path fill="none" stroke="#1414ce" d="M263.25,-664.21C176.65,-660 0,-637.4 0,-523 0,-523 0,-523 0,-161 0,-58.4 113.58,-97.32 213,-72 381.18,-29.17 588.77,-20.81 679.68,-19.28"/>
<polygon fill="#1414ce" stroke="#1414ce" points="679.97,-22.78 689.92,-19.13 679.87,-15.78 679.97,-22.78"/>
</a>
</g>
</g>
<!-- 2&#45;&gt;24 -->
<g id="edge45" class="edge">
<title>2&#45;&gt;24</title>
<g id="a_edge45"><a xlink:title="include">
<path fill="none" stroke="#1414ce" d="M356.78,-660.82C572.18,-640.32 1458,-541.74 1458,-307 1458,-307 1458,-307 1458,-233 1458,-192.85 1453.18,-146.55 1449.65,-118.02"/>
<polygon fill="#1414ce" stroke="#1414ce" points="1453.11,-117.49 1448.37,-108.01 1446.16,-118.37 1453.11,-117.49"/>
</a>
</g>
</g>
<!-- 3 -->
<g id="node22" class="node">
<title>3</title>
<g id="a_node22"><a xlink:title="globalcontext.h">
<polygon fill="#ffffff" stroke="black" points="463.5,-612 336.5,-612 336.5,-576 463.5,-576 463.5,-612"/>
<text text-anchor="middle" x="400" y="-590.3" font-family="Times,serif" font-size="14.00">globalcontext.h</text>
</a>
</g>
</g>
<!-- 2&#45;&gt;3 -->
<g id="edge42" class="edge">
<title>2&#45;&gt;3</title>
<g id="a_edge42"><a xlink:title="include">
<path fill="none" stroke="#1414ce" d="M332.25,-647.7C343.58,-638.88 357.53,-628.03 369.82,-618.47"/>
<polygon fill="#1414ce" stroke="#1414ce" points="372.26,-621.01 378.01,-612.1 367.97,-615.48 372.26,-621.01"/>
</a>
</g>
</g>
<!-- 10&#45;&gt;11 -->
<g id="edge47" class="edge">
<title>10&#45;&gt;11</title>
<g id="a_edge47"><a xlink:title="include">
<path fill="none" stroke="#1414ce" d="M1206.46,-71.88C1219.3,-62.89 1235.2,-51.76 1249.09,-42.03"/>
<polygon fill="#1414ce" stroke="#1414ce" points="1251.26,-44.79 1257.44,-36.19 1247.24,-39.06 1251.26,-44.79"/>
</a>
</g>
</g>
<!-- 10&#45;&gt;4 -->
<g id="edge50" class="edge">
<title>10&#45;&gt;4</title>
<g id="a_edge50"><a xlink:title="include">
<path fill="none" stroke="#1414ce" d="M1119.47,-74.76C1114.58,-73.78 1109.72,-72.85 1105,-72 985.65,-50.51 843.83,-32.72 772.25,-24.28"/>
<polygon fill="#1414ce" stroke="#1414ce" points="772.55,-20.79 762.21,-23.11 771.73,-27.75 772.55,-20.79"/>
</a>
</g>
</g>
<!-- 10&#45;&gt;12 -->
<g id="edge48" class="edge">
<title>10&#45;&gt;12</title>
<g id="a_edge48"><a xlink:title="include">
<path fill="none" stroke="#1414ce" d="M1158.03,-71.88C1145.45,-62.89 1129.87,-51.76 1116.25,-42.03"/>
<polygon fill="#1414ce" stroke="#1414ce" points="1118.24,-39.15 1108.07,-36.19 1114.17,-44.85 1118.24,-39.15"/>
</a>
</g>
</g>
<!-- 13 -->
<g id="node28" class="node">
<title>13</title>
<g id="a_node28"><a xlink:title="inttypes.h">
<polygon fill="#ffffff" stroke="black" points="1226.5,-36 1137.5,-36 1137.5,0 1226.5,0 1226.5,-36"/>
<text text-anchor="middle" x="1182" y="-14.3" font-family="Times,serif" font-size="14.00">inttypes.h</text>
</a>
</g>
</g>
<!-- 10&#45;&gt;13 -->
<g id="edge49" class="edge">
<title>10&#45;&gt;13</title>
<g id="a_edge49"><a xlink:title="include">
<path fill="none" stroke="#1414ce" d="M1182,-71.7C1182,-63.98 1182,-54.71 1182,-46.11"/>
<polygon fill="#1414ce" stroke="#1414ce" points="1185.5,-46.1 1182,-36.1 1178.5,-46.1 1185.5,-46.1"/>
</a>
</g>
</g>
<!-- 3&#45;&gt;5 -->
<g id="edge52" class="edge">
<title>3&#45;&gt;5</title>
<g id="a_edge52"><a xlink:title="include">
<path fill="none" stroke="#1414ce" d="M450.21,-575.96C500.98,-555.17 572,-514.7 572,-451 572,-451 572,-451 572,-377 572,-294.58 668.77,-323.94 709,-252 719.59,-233.06 723.7,-208.7 725.25,-190.25"/>
<polygon fill="#1414ce" stroke="#1414ce" points="728.75,-190.36 725.89,-180.16 721.76,-189.91 728.75,-190.36"/>
</a>
</g>
</g>
<!-- 3&#45;&gt;16 -->
<g id="edge59" class="edge">
<title>3&#45;&gt;16</title>
<g id="a_edge59"><a xlink:title="include">
<path fill="none" stroke="#1414ce" d="M394.33,-575.73C386.15,-549.21 372,-496.73 372,-451 372,-451 372,-451 372,-377 372,-336.97 374.01,-290.63 375.48,-262.07"/>
<polygon fill="#1414ce" stroke="#1414ce" points="378.98,-262.21 376.01,-252.04 371.99,-261.84 378.98,-262.21"/>
</a>
</g>
</g>
<!-- 3&#45;&gt;15 -->
<g id="edge56" class="edge">
<title>3&#45;&gt;15</title>
<g id="a_edge56"><a xlink:title="include">
<path fill="none" stroke="#1414ce" d="M378.67,-575.73C350.94,-551.18 306,-503.33 306,-451 306,-451 306,-451 306,-305 306,-264.46 299.83,-246.96 326,-216 351.41,-185.93 372.29,-195.42 413.53,-179.83"/>
<polygon fill="#1414ce" stroke="#1414ce" points="415.02,-183 422.94,-175.96 412.36,-176.52 415.02,-183"/>
</a>
</g>
</g>
<!-- 3&#45;&gt;4 -->
<g id="edge51" class="edge">
<title>3&#45;&gt;4</title>
<g id="a_edge51"><a xlink:title="include">
<path fill="none" stroke="#1414ce" d="M336.17,-588.93C251.88,-579.7 114,-549.54 114,-451 114,-451 114,-451 114,-377 114,-304.95 60.73,-279.38 95,-216 152.54,-109.58 211.71,-111.69 326,-72 448.77,-29.36 603.67,-20.69 679.66,-19.14"/>
<polygon fill="#1414ce" stroke="#1414ce" points="679.91,-22.64 689.85,-18.97 679.79,-15.64 679.91,-22.64"/>
</a>
</g>
</g>
<!-- 3&#45;&gt;19 -->
<g id="edge60" class="edge">
<title>3&#45;&gt;19</title>
<g id="a_edge60"><a xlink:title="include">
<path fill="none" stroke="#1414ce" d="M463.53,-576.29C575.03,-546.97 803.05,-487.01 897.53,-462.17"/>
<polygon fill="#1414ce" stroke="#1414ce" points="898.54,-465.52 907.32,-459.59 896.76,-458.75 898.54,-465.52"/>
</a>
</g>
</g>
<!-- 3&#45;&gt;9 -->
<g id="edge54" class="edge">
<title>3&#45;&gt;9</title>
<g id="a_edge54"><a xlink:title="include">
<path fill="none" stroke="#1414ce" d="M463.79,-589.66C578.03,-583.09 812.79,-566.75 890,-540 1068.93,-478 1135.13,-428.4 1204,-252 1211.79,-232.05 1208.3,-207.81 1203.42,-189.66"/>
<polygon fill="#1414ce" stroke="#1414ce" points="1206.75,-188.6 1200.54,-180.02 1200.05,-190.6 1206.75,-188.6"/>
</a>
</g>
</g>
<!-- 3&#45;&gt;7 -->
<g id="edge53" class="edge">
<title>3&#45;&gt;7</title>
<g id="a_edge53"><a xlink:title="include">
<path fill="none" stroke="#1414ce" d="M432.22,-575.87C470.43,-552.95 529,-508.45 529,-451 529,-451 529,-451 529,-377 529,-335.4 532.19,-320.63 558,-288 567.9,-275.48 581.63,-265.21 595.26,-257.14"/>
<polygon fill="#1414ce" stroke="#1414ce" points="597.14,-260.1 604.16,-252.17 593.73,-253.99 597.14,-260.1"/>
</a>
</g>
</g>
<!-- 3&#45;&gt;18 -->
<g id="edge58" class="edge">
<title>3&#45;&gt;18</title>
<g id="a_edge58"><a xlink:title="include">
<path fill="none" stroke="#1414ce" d="M350.83,-575.98C300.62,-555.1 230,-514.45 230,-451 230,-451 230,-451 230,-305 230,-264.03 227.27,-247.05 254,-216 265.17,-203.02 304.48,-187.15 335.31,-176.18"/>
<polygon fill="#1414ce" stroke="#1414ce" points="336.68,-179.4 344.97,-172.79 334.37,-172.79 336.68,-179.4"/>
</a>
</g>
</g>
<!-- 28 -->
<g id="node24" class="node">
<title>28</title>
<g id="a_node24"><a xlink:title="timer_list.h">
<polygon fill="#ffffff" stroke="black" points="202,-252 104,-252 104,-216 202,-216 202,-252"/>
<text text-anchor="middle" x="153" y="-230.3" font-family="Times,serif" font-size="14.00">timer_list.h</text>
</a>
</g>
</g>
<!-- 3&#45;&gt;28 -->
<g id="edge61" class="edge">
<title>3&#45;&gt;28</title>
<g id="a_edge61"><a xlink:title="include">
<path fill="none" stroke="#1414ce" d="M336.45,-587.62C297.9,-581.45 249.8,-568.24 216,-540 182.14,-511.71 172,-495.13 172,-451 172,-451 172,-451 172,-377 172,-336.86 164.45,-290.9 158.87,-262.4"/>
<polygon fill="#1414ce" stroke="#1414ce" points="162.26,-261.5 156.84,-252.39 155.39,-262.88 162.26,-261.5"/>
</a>
</g>
</g>
<!-- 27 -->
<g id="node25" class="node">
<title>27</title>
<g id="a_node25"><a xlink:title="mailbox.h">
<polygon fill="#ffffff" stroke="black" points="1032,-252 946,-252 946,-216 1032,-216 1032,-252"/>
<text text-anchor="middle" x="989" y="-230.3" font-family="Times,serif" font-size="14.00">mailbox.h</text>
</a>
</g>
</g>
<!-- 3&#45;&gt;27 -->
<g id="edge57" class="edge">
<title>3&#45;&gt;27</title>
<g id="a_edge57"><a xlink:title="include">
<path fill="none" stroke="#1414ce" d="M463.55,-589.08C600.66,-579.16 917.11,-547.94 982,-468 1030.37,-408.41 1010.91,-309.23 997.58,-261.83"/>
<polygon fill="#1414ce" stroke="#1414ce" points="1000.87,-260.61 994.69,-252 994.15,-262.58 1000.87,-260.61"/>
</a>
</g>
</g>
<!-- 14 -->
<g id="node27" class="node">
<title>14</title>
<g id="a_node27"><a xlink:title="ets.h">
<polygon fill="#ffffff" stroke="black" points="465,-540 411,-540 411,-504 465,-504 465,-540"/>
<text text-anchor="middle" x="438" y="-518.3" font-family="Times,serif" font-size="14.00">ets.h</text>
</a>
</g>
</g>
<!-- 3&#45;&gt;14 -->
<g id="edge55" class="edge">
<title>3&#45;&gt;14</title>
<g id="a_edge55"><a xlink:title="include">
<path fill="none" stroke="#1414ce" d="M409.39,-575.7C413.76,-567.64 419.06,-557.89 423.9,-548.98"/>
<polygon fill="#1414ce" stroke="#1414ce" points="427.02,-550.56 428.71,-540.1 420.87,-547.22 427.02,-550.56"/>
</a>
</g>
</g>
<!-- 18&#45;&gt;8 -->
<g id="edge62" class="edge">
<title>18&#45;&gt;8</title>
<g id="a_edge62"><a xlink:title="include">
<path fill="none" stroke="#1414ce" d="M402.15,-143.88C416.53,-134.81 434.38,-123.55 449.91,-113.76"/>
<polygon fill="#1414ce" stroke="#1414ce" points="452.15,-116.48 458.74,-108.19 448.42,-110.56 452.15,-116.48"/>
</a>
</g>
</g>
<!-- 28&#45;&gt;8 -->
<g id="edge63" class="edge">
<title>28&#45;&gt;8</title>
<g id="a_edge63"><a xlink:title="include">
<path fill="none" stroke="#1414ce" d="M185.22,-215.95C221.38,-197.15 282.06,-166.56 336,-144 368.39,-130.45 405.6,-117.29 434.86,-107.47"/>
<polygon fill="#1414ce" stroke="#1414ce" points="436.08,-110.75 444.46,-104.27 433.87,-104.11 436.08,-110.75"/>
</a>
</g>
</g>
<!-- 28&#45;&gt;15 -->
<g id="edge65" class="edge">
<title>28&#45;&gt;15</title>
<g id="a_edge65"><a xlink:title="include">
<path fill="none" stroke="#1414ce" d="M202.22,-224.47C262.49,-213.78 361.95,-195.32 413.18,-179.76"/>
<polygon fill="#1414ce" stroke="#1414ce" points="414.31,-183.08 422.76,-176.69 412.17,-176.41 414.31,-183.08"/>
</a>
</g>
</g>
<!-- 28&#45;&gt;4 -->
<g id="edge64" class="edge">
<title>28&#45;&gt;4</title>
<g id="a_edge64"><a xlink:title="include">
<path fill="none" stroke="#1414ce" d="M168.93,-215.97C187.9,-196.47 221.3,-164.57 255,-144 394.45,-58.88 591.51,-31.05 679.93,-22.52"/>
<polygon fill="#1414ce" stroke="#1414ce" points="680.28,-26 689.91,-21.59 679.63,-19.03 680.28,-26"/>
</a>
</g>
</g>
<!-- 27&#45;&gt;8 -->
<g id="edge66" class="edge">
<title>27&#45;&gt;8</title>
<g id="a_edge66"><a xlink:title="include">
<path fill="none" stroke="#1414ce" d="M945.99,-232.47C884.97,-230.22 771.02,-220.39 684,-180 661.39,-169.51 662.71,-156.24 641,-144 608.47,-125.67 568.54,-112.2 537.35,-103.43"/>
<polygon fill="#1414ce" stroke="#1414ce" points="538.13,-100.01 527.56,-100.74 536.28,-106.76 538.13,-100.01"/>
</a>
</g>
</g>
<!-- 27&#45;&gt;23 -->
<g id="edge69" class="edge">
<title>27&#45;&gt;23</title>
<g id="a_edge69"><a xlink:title="include">
<path fill="none" stroke="#1414ce" d="M1032.1,-223.99C1082.11,-213.51 1167.06,-195.65 1240,-180 1251.95,-177.44 1264.92,-174.62 1276.79,-172.03"/>
<polygon fill="#1414ce" stroke="#1414ce" points="1277.86,-175.38 1286.89,-169.83 1276.37,-168.54 1277.86,-175.38"/>
</a>
</g>
</g>
<!-- 27&#45;&gt;15 -->
<g id="edge67" class="edge">
<title>27&#45;&gt;15</title>
<g id="a_edge67"><a xlink:title="include">
<path fill="none" stroke="#1414ce" d="M945.8,-227.39C842.75,-214.01 583.88,-180.39 487.2,-167.83"/>
<polygon fill="#1414ce" stroke="#1414ce" points="487.39,-164.33 477.02,-166.51 486.49,-171.27 487.39,-164.33"/>
</a>
</g>
</g>
<!-- 27&#45;&gt;10 -->
<g id="edge68" class="edge">
<title>27&#45;&gt;10</title>
<g id="a_edge68"><a xlink:title="include">
<path fill="none" stroke="#1414ce" d="M1012.28,-215.87C1046.77,-190.5 1111.52,-142.85 1150.31,-114.32"/>
<polygon fill="#1414ce" stroke="#1414ce" points="1152.66,-116.93 1158.64,-108.19 1148.51,-111.3 1152.66,-116.93"/>
</a>
</g>
</g>
<!-- 14&#45;&gt;16 -->
<g id="edge71" class="edge">
<title>14&#45;&gt;16</title>
<g id="a_edge71"><a xlink:title="include">
<path fill="none" stroke="#1414ce" d="M434.37,-503.97C424.18,-456.19 395.26,-320.62 382.82,-262.27"/>
<polygon fill="#1414ce" stroke="#1414ce" points="386.2,-261.36 380.69,-252.31 379.35,-262.82 386.2,-261.36"/>
</a>
</g>
</g>
<!-- 14&#45;&gt;15 -->
<g id="edge70" class="edge">
<title>14&#45;&gt;15</title>
<g id="a_edge70"><a xlink:title="include">
<path fill="none" stroke="#1414ce" d="M439.98,-503.98C442.89,-477.36 448,-424.23 448,-379 448,-379 448,-379 448,-305 448,-264.99 448.8,-218.65 449.39,-190.08"/>
<polygon fill="#1414ce" stroke="#1414ce" points="452.89,-190.12 449.6,-180.05 445.89,-189.97 452.89,-190.12"/>
</a>
</g>
</g>
<!-- 14&#45;&gt;19 -->
<g id="edge72" class="edge">
<title>14&#45;&gt;19</title>
<g id="a_edge72"><a xlink:title="include">
<path fill="none" stroke="#1414ce" d="M465.35,-517.19C548.14,-505.64 796.58,-471 897.09,-456.98"/>
<polygon fill="#1414ce" stroke="#1414ce" points="897.77,-460.42 907.19,-455.57 896.81,-453.49 897.77,-460.42"/>
</a>
</g>
</g>
</g>
</svg>
