<?xml version="1.0" encoding="UTF-8" standalone="no"?>
<!DOCTYPE svg PUBLIC "-//W3C//DTD SVG 1.1//EN"
 "http://www.w3.org/Graphics/SVG/1.1/DTD/svg11.dtd">
<!-- Generated by graphviz version 2.43.0 (0)
 -->
<!-- Title: %3 Pages: 1 -->
<svg width="3231pt" height="188pt"
 viewBox="0.00 0.00 3231.00 188.00" xmlns="http://www.w3.org/2000/svg" xmlns:xlink="http://www.w3.org/1999/xlink">
<g id="graph0" class="graph" transform="scale(1 1) rotate(0) translate(4 184)">
<title>%3</title>
<polygon fill="transparent" stroke="transparent" points="-4,4 -4,-184 3227,-184 3227,4 -4,4"/>
<!-- 3 -->
<g id="node1" class="node">
<title>3</title>
<g id="a_node1"><a xlink:title="/__w/AtomVM/AtomVM/src/libAtomVM/nifs.c">
<polygon fill="#ffffff" stroke="black" points="332,-108 0,-108 0,-72 332,-72 332,-108"/>
<text text-anchor="middle" x="166" y="-86.3" font-family="Times,serif" font-size="14.00">/__w/AtomVM/AtomVM/src/libAtomVM/nifs.c</text>
</a>
</g>
</g>
<!-- 1 -->
<g id="node2" class="node">
<title>1</title>
<g id="a_node2"><a xlink:title="/__w/AtomVM/AtomVM/src/libAtomVM/nifs.h">
<polygon fill="#bfbfbf" stroke="black" points="1861.5,-180 1528.5,-180 1528.5,-144 1861.5,-144 1861.5,-180"/>
<text text-anchor="middle" x="1695" y="-158.3" font-family="Times,serif" font-size="14.00">/__w/AtomVM/AtomVM/src/libAtomVM/nifs.h</text>
</a>
</g>
</g>
<!-- 1&#45;&gt;3 -->
<g id="edge2" class="edge">
<title>1&#45;&gt;3</title>
<g id="a_edge2"><a xlink:title="include">
<path fill="none" stroke="#1414ce" d="M1518.23,-157.15C1260.32,-150.83 765.87,-136.05 346,-108 341.46,-107.7 336.85,-107.37 332.21,-107.03"/>
<polygon fill="#1414ce" stroke="#1414ce" points="1518.36,-160.65 1528.44,-157.4 1518.53,-153.65 1518.36,-160.65"/>
</a>
</g>
</g>
<!-- 4 -->
<g id="node3" class="node">
<title>4</title>
<g id="a_node3"><a xlink:title="/__w/AtomVM/AtomVM/src/libAtomVM/otp_crypto.c">
<polygon fill="#ffffff" stroke="black" points="660.5,-36 279.5,-36 279.5,0 660.5,0 660.5,-36"/>
<text text-anchor="middle" x="470" y="-14.3" font-family="Times,serif" font-size="14.00">/__w/AtomVM/AtomVM/src/libAtomVM/otp_crypto.c</text>
</a>
</g>
</g>
<!-- 1&#45;&gt;4 -->
<g id="edge3" class="edge">
<title>1&#45;&gt;4</title>
<g id="a_edge3"><a xlink:title="include">
<path fill="none" stroke="#1414ce" d="M1517.97,-160.29C1167.77,-158.01 416.83,-148.42 378,-108 366.92,-96.46 369.99,-85.85 378,-72 387.32,-55.88 403.6,-44.23 419.91,-36.03"/>
<polygon fill="#1414ce" stroke="#1414ce" points="1518.19,-163.79 1528.21,-160.36 1518.24,-156.79 1518.19,-163.79"/>
</a>
</g>
</g>
<!-- 5 -->
<g id="node5" class="node">
<title>5</title>
<g id="a_node5"><a xlink:title="/__w/AtomVM/AtomVM/src/libAtomVM/otp_crypto.h">
<polygon fill="#ffffff" stroke="black" points="770.5,-108 387.5,-108 387.5,-72 770.5,-72 770.5,-108"/>
<text text-anchor="middle" x="579" y="-86.3" font-family="Times,serif" font-size="14.00">/__w/AtomVM/AtomVM/src/libAtomVM/otp_crypto.h</text>
</a>
</g>
</g>
<!-- 1&#45;&gt;5 -->
<g id="edge4" class="edge">
<title>1&#45;&gt;5</title>
<g id="a_edge4"><a xlink:title="include">
<path fill="none" stroke="#1414ce" d="M1518.31,-152.16C1333.95,-142.6 1036.57,-126.28 780,-108 776.94,-107.78 773.86,-107.56 770.76,-107.33"/>
<polygon fill="#1414ce" stroke="#1414ce" points="1518.2,-155.66 1528.37,-152.68 1518.56,-148.67 1518.2,-155.66"/>
</a>
</g>
</g>
<!-- 12 -->
<g id="node6" class="node">
<title>12</title>
<g id="a_node6"><a xlink:title="/__w/AtomVM/AtomVM/src/libAtomVM/portnifloader.h">
<polygon fill="#ffffff" stroke="black" points="1187,-108 789,-108 789,-72 1187,-72 1187,-108"/>
<text text-anchor="middle" x="988" y="-86.3" font-family="Times,serif" font-size="14.00">/__w/AtomVM/AtomVM/src/libAtomVM/portnifloader.h</text>
</a>
</g>
</g>
<!-- 1&#45;&gt;12 -->
<g id="edge11" class="edge">
<title>1&#45;&gt;12</title>
<g id="a_edge11"><a xlink:title="include">
<path fill="none" stroke="#1414ce" d="M1518.18,-143.49C1408.63,-132.65 1268.62,-118.78 1159.99,-108.03"/>
<polygon fill="#1414ce" stroke="#1414ce" points="1518.05,-147 1528.35,-144.5 1518.74,-140.03 1518.05,-147"/>
</a>
</g>
</g>
<!-- 2 -->
<g id="node7" class="node">
<title>2</title>
<g id="a_node7"><a xlink:title="/__w/AtomVM/AtomVM/src/libAtomVM/module.c">
<polygon fill="#ffffff" stroke="black" points="1563,-108 1205,-108 1205,-72 1563,-72 1563,-108"/>
<text text-anchor="middle" x="1384" y="-86.3" font-family="Times,serif" font-size="14.00">/__w/AtomVM/AtomVM/src/libAtomVM/module.c</text>
</a>
</g>
</g>
<!-- 1&#45;&gt;2 -->
<g id="edge1" class="edge">
<title>1&#45;&gt;2</title>
<g id="a_edge1"><a xlink:title="include">
<path fill="none" stroke="#1414ce" d="M1609.49,-141.75C1562.61,-131.2 1505,-118.24 1459.75,-108.05"/>
<polygon fill="#1414ce" stroke="#1414ce" points="1608.79,-145.18 1619.32,-143.97 1610.33,-138.36 1608.79,-145.18"/>
</a>
</g>
</g>
<!-- 6 -->
<g id="node8" class="node">
<title>6</title>
<g id="a_node8"><a xlink:title="/__w/AtomVM/AtomVM/src/libAtomVM/otp_net.c">
<polygon fill="#ffffff" stroke="black" points="1784.5,-36 1425.5,-36 1425.5,0 1784.5,0 1784.5,-36"/>
<text text-anchor="middle" x="1605" y="-14.3" font-family="Times,serif" font-size="14.00">/__w/AtomVM/AtomVM/src/libAtomVM/otp_net.c</text>
</a>
</g>
</g>
<!-- 1&#45;&gt;6 -->
<g id="edge5" class="edge">
<title>1&#45;&gt;6</title>
<g id="a_edge5"><a xlink:title="include">
<path fill="none" stroke="#1414ce" d="M1642.11,-138.76C1629.52,-130.91 1617.56,-120.77 1610,-108 1596.91,-85.9 1598.69,-55.04 1601.57,-36.07"/>
<polygon fill="#1414ce" stroke="#1414ce" points="1640.47,-141.86 1650.88,-143.83 1643.98,-135.8 1640.47,-141.86"/>
</a>
</g>
</g>
<!-- 7 -->
<g id="node9" class="node">
<title>7</title>
<g id="a_node9"><a xlink:title="/__w/AtomVM/AtomVM/src/libAtomVM/otp_net.h">
<polygon fill="#ffffff" stroke="black" points="1979,-108 1619,-108 1619,-72 1979,-72 1979,-108"/>
<text text-anchor="middle" x="1799" y="-86.3" font-family="Times,serif" font-size="14.00">/__w/AtomVM/AtomVM/src/libAtomVM/otp_net.h</text>
</a>
</g>
</g>
<!-- 1&#45;&gt;7 -->
<g id="edge6" class="edge">
<title>1&#45;&gt;7</title>
<g id="a_edge6"><a xlink:title="include">
<path fill="none" stroke="#1414ce" d="M1729.12,-138.04C1743.56,-128.32 1760.1,-117.18 1773.46,-108.19"/>
<polygon fill="#1414ce" stroke="#1414ce" points="1726.78,-135.39 1720.44,-143.88 1730.69,-141.2 1726.78,-135.39"/>
</a>
</g>
</g>
<!-- 8 -->
<g id="node10" class="node">
<title>8</title>
<g id="a_node10"><a xlink:title="/__w/AtomVM/AtomVM/src/libAtomVM/otp_socket.c">
<polygon fill="#ffffff" stroke="black" points="2223.5,-36 1842.5,-36 1842.5,0 2223.5,0 2223.5,-36"/>
<text text-anchor="middle" x="2033" y="-14.3" font-family="Times,serif" font-size="14.00">/__w/AtomVM/AtomVM/src/libAtomVM/otp_socket.c</text>
</a>
</g>
</g>
<!-- 1&#45;&gt;8 -->
<g id="edge7" class="edge">
<title>1&#45;&gt;8</title>
<g id="a_edge7"><a xlink:title="include">
<path fill="none" stroke="#1414ce" d="M1870.74,-142.36C1921.17,-134.18 1967.94,-122.96 1988,-108 2011.73,-90.3 2023.84,-56.54 2029.26,-36.07"/>
<polygon fill="#1414ce" stroke="#1414ce" points="1869.95,-138.94 1860.61,-143.95 1871.04,-145.85 1869.95,-138.94"/>
</a>
</g>
</g>
<!-- 9 -->
<g id="node11" class="node">
<title>9</title>
<g id="a_node11"><a xlink:title="/__w/AtomVM/AtomVM/src/libAtomVM/otp_socket.h">
<polygon fill="#ffffff" stroke="black" points="2417.5,-108 2034.5,-108 2034.5,-72 2417.5,-72 2417.5,-108"/>
<text text-anchor="middle" x="2226" y="-86.3" font-family="Times,serif" font-size="14.00">/__w/AtomVM/AtomVM/src/libAtomVM/otp_socket.h</text>
</a>
</g>
</g>
<!-- 1&#45;&gt;9 -->
<g id="edge8" class="edge">
<title>1&#45;&gt;9</title>
<g id="a_edge8"><a xlink:title="include">
<path fill="none" stroke="#1414ce" d="M1834.52,-142.61C1915.68,-131.91 2017.3,-118.51 2096.66,-108.05"/>
<polygon fill="#1414ce" stroke="#1414ce" points="1833.67,-139.19 1824.22,-143.97 1834.59,-146.13 1833.67,-139.19"/>
</a>
</g>
</g>
<!-- 10 -->
<g id="node12" class="node">
<title>10</title>
<g id="a_node12"><a xlink:title="/__w/AtomVM/AtomVM/src/libAtomVM/otp_ssl.c">
<polygon fill="#ffffff" stroke="black" points="2622.5,-36 2267.5,-36 2267.5,0 2622.5,0 2622.5,-36"/>
<text text-anchor="middle" x="2445" y="-14.3" font-family="Times,serif" font-size="14.00">/__w/AtomVM/AtomVM/src/libAtomVM/otp_ssl.c</text>
</a>
</g>
</g>
<!-- 1&#45;&gt;10 -->
<g id="edge9" class="edge">
<title>1&#45;&gt;10</title>
<g id="a_edge9"><a xlink:title="include">
<path fill="none" stroke="#1414ce" d="M1871.92,-159.12C2074.88,-155.28 2385.13,-143.59 2426,-108 2446.38,-90.26 2448.01,-56.51 2446.85,-36.05"/>
<polygon fill="#1414ce" stroke="#1414ce" points="1871.66,-155.63 1861.73,-159.31 1871.79,-162.63 1871.66,-155.63"/>
</a>
</g>
</g>
<!-- 11 -->
<g id="node13" class="node">
<title>11</title>
<g id="a_node13"><a xlink:title="/__w/AtomVM/AtomVM/src/libAtomVM/otp_ssl.h">
<polygon fill="#ffffff" stroke="black" points="2829,-108 2473,-108 2473,-72 2829,-72 2829,-108"/>
<text text-anchor="middle" x="2651" y="-86.3" font-family="Times,serif" font-size="14.00">/__w/AtomVM/AtomVM/src/libAtomVM/otp_ssl.h</text>
</a>
</g>
</g>
<!-- 1&#45;&gt;11 -->
<g id="edge10" class="edge">
<title>1&#45;&gt;11</title>
<g id="a_edge10"><a xlink:title="include">
<path fill="none" stroke="#1414ce" d="M1871.71,-149.7C2026.6,-139.57 2257.81,-123.88 2459,-108 2463.59,-107.64 2468.24,-107.27 2472.92,-106.89"/>
<polygon fill="#1414ce" stroke="#1414ce" points="1871.37,-146.21 1861.62,-150.36 1871.82,-153.2 1871.37,-146.21"/>
</a>
</g>
</g>
<!-- 14 -->
<g id="node14" class="node">
<title>14</title>
<g id="a_node14"><a xlink:title="/__w/AtomVM/AtomVM/src/libAtomVM/posix_nifs.c">
<polygon fill="#ffffff" stroke="black" points="3223,-108 2847,-108 2847,-72 3223,-72 3223,-108"/>
<text text-anchor="middle" x="3035" y="-86.3" font-family="Times,serif" font-size="14.00">/__w/AtomVM/AtomVM/src/libAtomVM/posix_nifs.c</text>
</a>
</g>
</g>
<!-- 1&#45;&gt;14 -->
<g id="edge12" class="edge">
<title>1&#45;&gt;14</title>
<g id="a_edge12"><a xlink:title="include">
<path fill="none" stroke="#1414ce" d="M1871.93,-154.98C2096.67,-146.83 2496.37,-130.65 2838,-108 2840.91,-107.81 2843.85,-107.61 2846.8,-107.4"/>
<polygon fill="#1414ce" stroke="#1414ce" points="1871.56,-151.49 1861.69,-155.35 1871.81,-158.48 1871.56,-151.49"/>
</a>
</g>
</g>
<!-- 13 -->
<g id="node4" class="node">
<title>13</title>
<g id="a_node4"><a xlink:title="/__w/AtomVM/AtomVM/src/libAtomVM/portnifloader.c">
<polygon fill="#ffffff" stroke="black" points="1186.5,-36 789.5,-36 789.5,0 1186.5,0 1186.5,-36"/>
<text text-anchor="middle" x="988" y="-14.3" font-family="Times,serif" font-size="14.00">/__w/AtomVM/AtomVM/src/libAtomVM/portnifloader.c</text>
</a>
</g>
</g>
<!-- 5&#45;&gt;4 -->
<g id="edge13" class="edge">
<title>5&#45;&gt;4</title>
<g id="a_edge13"><a xlink:title="include">
<path fill="none" stroke="#1414ce" d="M543.67,-66.31C528.43,-56.53 510.9,-45.27 496.77,-36.19"/>
<polygon fill="#1414ce" stroke="#1414ce" points="542.03,-69.42 552.34,-71.88 545.81,-63.53 542.03,-69.42"/>
</a>
</g>
</g>
<!-- 12&#45;&gt;13 -->
<g id="edge14" class="edge">
<title>12&#45;&gt;13</title>
<g id="a_edge14"><a xlink:title="include">
<path fill="none" stroke="#1414ce" d="M988,-61.67C988,-53.05 988,-43.79 988,-36.1"/>
<polygon fill="#1414ce" stroke="#1414ce" points="984.5,-61.7 988,-71.7 991.5,-61.7 984.5,-61.7"/>
</a>
</g>
</g>
<!-- 7&#45;&gt;6 -->
<g id="edge15" class="edge">
<title>7&#45;&gt;6</title>
<g id="a_edge15"><a xlink:title="include">
<path fill="none" stroke="#1414ce" d="M1742.1,-68.47C1713.55,-58.17 1679.39,-45.84 1652.3,-36.07"/>
<polygon fill="#1414ce" stroke="#1414ce" points="1740.95,-71.77 1751.54,-71.88 1743.32,-65.19 1740.95,-71.77"/>
</a>
</g>
</g>
<!-- 9&#45;&gt;8 -->
<g id="edge16" class="edge">
<title>9&#45;&gt;8</title>
<g id="a_edge16"><a xlink:title="include">
<path fill="none" stroke="#1414ce" d="M2169.02,-68.33C2140.7,-58.06 2106.89,-45.8 2080.06,-36.07"/>
<polygon fill="#1414ce" stroke="#1414ce" points="2168.19,-71.76 2178.79,-71.88 2170.58,-65.18 2168.19,-71.76"/>
</a>
</g>
</g>
<!-- 9&#45;&gt;10 -->
<g id="edge17" class="edge">
<title>9&#45;&gt;10</title>
<g id="a_edge17"><a xlink:title="include">
<path fill="none" stroke="#1414ce" d="M2289.12,-68.83C2321.52,-58.47 2360.56,-45.99 2391.47,-36.11"/>
<polygon fill="#1414ce" stroke="#1414ce" points="2287.75,-65.59 2279.29,-71.97 2289.88,-72.25 2287.75,-65.59"/>
</a>
</g>
</g>
<!-- 11&#45;&gt;10 -->
<g id="edge18" class="edge">
<title>11&#45;&gt;10</title>
<g id="a_edge18"><a xlink:title="include">
<path fill="none" stroke="#1414ce" d="M2591.23,-68.69C2560.84,-58.36 2524.3,-45.95 2495.35,-36.11"/>
<polygon fill="#1414ce" stroke="#1414ce" points="2590.28,-72.06 2600.87,-71.97 2592.53,-65.43 2590.28,-72.06"/>
</a>
</g>
</g>
</g>
</svg>
