<?xml version="1.0" encoding="UTF-8" standalone="no"?>
<!DOCTYPE svg PUBLIC "-//W3C//DTD SVG 1.1//EN"
 "http://www.w3.org/Graphics/SVG/1.1/DTD/svg11.dtd">
<!-- Generated by graphviz version 2.43.0 (0)
 -->
<!-- Title: %3 Pages: 1 -->
<svg width="1440pt" height="692pt"
 viewBox="0.00 0.00 1440.00 692.00" xmlns="http://www.w3.org/2000/svg" xmlns:xlink="http://www.w3.org/1999/xlink">
<g id="graph0" class="graph" transform="scale(1 1) rotate(0) translate(4 688)">
<title>%3</title>
<polygon fill="transparent" stroke="transparent" points="-4,4 -4,-688 1436,-688 1436,4 -4,4"/>
<!-- 7 -->
<g id="node1" class="node">
<title>7</title>
<g id="a_node1"><a xlink:title="stdbool.h">
<polygon fill="#ffffff" stroke="black" points="970.5,-108 887.5,-108 887.5,-72 970.5,-72 970.5,-108"/>
<text text-anchor="middle" x="929" y="-86.3" font-family="Times,serif" font-size="14.00">stdbool.h</text>
</a>
</g>
</g>
<!-- 24 -->
<g id="node2" class="node">
<title>24</title>
<g id="a_node2"><a xlink:title="refc_binary.h">
<polygon fill="#ffffff" stroke="black" points="724,-396 616,-396 616,-360 724,-360 724,-396"/>
<text text-anchor="middle" x="670" y="-374.3" font-family="Times,serif" font-size="14.00">refc_binary.h</text>
</a>
</g>
</g>
<!-- 24&#45;&gt;7 -->
<g id="edge1" class="edge">
<title>24&#45;&gt;7</title>
<g id="a_edge1"><a xlink:title="include">
<path fill="none" stroke="#1414ce" d="M666.3,-359.7C658.27,-317.02 644.16,-205.68 700,-144 723.36,-118.19 817.32,-103.24 877.38,-96.14"/>
<polygon fill="#1414ce" stroke="#1414ce" points="877.91,-99.6 887.44,-94.99 877.11,-92.65 877.91,-99.6"/>
</a>
</g>
</g>
<!-- 14 -->
<g id="node7" class="node">
<title>14</title>
<g id="a_node7"><a xlink:title="list.h">
<polygon fill="#ffffff" stroke="black" points="956,-180 902,-180 902,-144 956,-144 956,-180"/>
<text text-anchor="middle" x="929" y="-158.3" font-family="Times,serif" font-size="14.00">list.h</text>
</a>
</g>
</g>
<!-- 24&#45;&gt;14 -->
<g id="edge3" class="edge">
<title>24&#45;&gt;14</title>
<g id="a_edge3"><a xlink:title="include">
<path fill="none" stroke="#1414ce" d="M708.08,-359.89C751.49,-339.02 822.78,-300.47 872,-252 890.57,-233.72 906.07,-208.33 916.2,-189.35"/>
<polygon fill="#1414ce" stroke="#1414ce" points="919.38,-190.83 920.87,-180.34 913.16,-187.61 919.38,-190.83"/>
</a>
</g>
</g>
<!-- 5 -->
<g id="node9" class="node">
<title>5</title>
<g id="a_node9"><a xlink:title="stdlib.h">
<polygon fill="#ffffff" stroke="black" points="517.5,-108 446.5,-108 446.5,-72 517.5,-72 517.5,-108"/>
<text text-anchor="middle" x="482" y="-86.3" font-family="Times,serif" font-size="14.00">stdlib.h</text>
</a>
</g>
</g>
<!-- 24&#45;&gt;5 -->
<g id="edge2" class="edge">
<title>24&#45;&gt;5</title>
<g id="a_edge2"><a xlink:title="include">
<path fill="none" stroke="#1414ce" d="M660.99,-359.92C651.22,-341.74 634.88,-312.3 619,-288 586.32,-238 572.91,-229.18 539,-180 524.63,-159.16 509.2,-134.94 498.02,-117.03"/>
<polygon fill="#1414ce" stroke="#1414ce" points="500.84,-114.93 492.59,-108.29 494.89,-118.63 500.84,-114.93"/>
</a>
</g>
</g>
<!-- 25 -->
<g id="node12" class="node">
<title>25</title>
<g id="a_node12"><a xlink:title="resources.h">
<polygon fill="#ffffff" stroke="black" points="610,-324 510,-324 510,-288 610,-288 610,-324"/>
<text text-anchor="middle" x="560" y="-302.3" font-family="Times,serif" font-size="14.00">resources.h</text>
</a>
</g>
</g>
<!-- 24&#45;&gt;25 -->
<g id="edge4" class="edge">
<title>24&#45;&gt;25</title>
<g id="a_edge4"><a xlink:title="include">
<path fill="none" stroke="#1414ce" d="M643.09,-359.88C628.84,-350.81 611.15,-339.55 595.76,-329.76"/>
<polygon fill="#1414ce" stroke="#1414ce" points="597.33,-326.61 587.01,-324.19 593.57,-332.51 597.33,-326.61"/>
</a>
</g>
</g>
<!-- 4 -->
<g id="node3" class="node">
<title>4</title>
<g id="a_node3"><a xlink:title="atom.h">
<polygon fill="#ffffff" stroke="black" points="1150,-180 1084,-180 1084,-144 1150,-144 1150,-180"/>
<text text-anchor="middle" x="1117" y="-158.3" font-family="Times,serif" font-size="14.00">atom.h</text>
</a>
</g>
</g>
<!-- 3 -->
<g id="node8" class="node">
<title>3</title>
<g id="a_node8"><a xlink:title="stdint.h">
<polygon fill="#ffffff" stroke="black" points="778,-36 706,-36 706,0 778,0 778,-36"/>
<text text-anchor="middle" x="742" y="-14.3" font-family="Times,serif" font-size="14.00">stdint.h</text>
</a>
</g>
</g>
<!-- 4&#45;&gt;3 -->
<g id="edge5" class="edge">
<title>4&#45;&gt;3</title>
<g id="a_edge5"><a xlink:title="include">
<path fill="none" stroke="#1414ce" d="M1096.06,-143.94C1070.28,-123.79 1024.46,-90.67 980,-72 916.42,-45.3 837.38,-31.12 788.3,-24.33"/>
<polygon fill="#1414ce" stroke="#1414ce" points="788.67,-20.85 778.3,-23 787.75,-27.79 788.67,-20.85"/>
</a>
</g>
</g>
<!-- 4&#45;&gt;5 -->
<g id="edge6" class="edge">
<title>4&#45;&gt;5</title>
<g id="a_edge6"><a xlink:title="include">
<path fill="none" stroke="#1414ce" d="M1083.69,-152.19C1071.03,-149.14 1056.43,-146 1043,-144 816.94,-110.31 753.76,-154.58 530,-108 529.11,-107.81 528.21,-107.62 527.31,-107.41"/>
<polygon fill="#1414ce" stroke="#1414ce" points="528.17,-104.01 517.61,-104.8 526.35,-110.77 528.17,-104.01"/>
</a>
</g>
</g>
<!-- 10 -->
<g id="node4" class="node">
<title>10</title>
<g id="a_node4"><a xlink:title="assert.h">
<polygon fill="#ffffff" stroke="black" points="74,-36 0,-36 0,0 74,0 74,-36"/>
<text text-anchor="middle" x="37" y="-14.3" font-family="Times,serif" font-size="14.00">assert.h</text>
</a>
</g>
</g>
<!-- 22 -->
<g id="node5" class="node">
<title>22</title>
<g id="a_node5"><a xlink:title="utils.h">
<polygon fill="#ffffff" stroke="black" points="610,-180 548,-180 548,-144 610,-144 610,-180"/>
<text text-anchor="middle" x="579" y="-158.3" font-family="Times,serif" font-size="14.00">utils.h</text>
</a>
</g>
</g>
<!-- 22&#45;&gt;5 -->
<g id="edge9" class="edge">
<title>22&#45;&gt;5</title>
<g id="a_edge9"><a xlink:title="include">
<path fill="none" stroke="#1414ce" d="M555.02,-143.7C542.69,-134.8 527.48,-123.82 514.15,-114.2"/>
<polygon fill="#1414ce" stroke="#1414ce" points="515.86,-111.12 505.7,-108.1 511.76,-116.79 515.86,-111.12"/>
</a>
</g>
</g>
<!-- 23 -->
<g id="node14" class="node">
<title>23</title>
<g id="a_node14"><a xlink:title="stddef.h">
<polygon fill="#ffffff" stroke="black" points="613,-108 539,-108 539,-72 613,-72 613,-108"/>
<text text-anchor="middle" x="576" y="-86.3" font-family="Times,serif" font-size="14.00">stddef.h</text>
</a>
</g>
</g>
<!-- 22&#45;&gt;23 -->
<g id="edge7" class="edge">
<title>22&#45;&gt;23</title>
<g id="a_edge7"><a xlink:title="include">
<path fill="none" stroke="#1414ce" d="M578.26,-143.7C577.93,-135.98 577.53,-126.71 577.16,-118.11"/>
<polygon fill="#1414ce" stroke="#1414ce" points="580.66,-117.95 576.73,-108.1 573.66,-118.25 580.66,-117.95"/>
</a>
</g>
</g>
<!-- 16 -->
<g id="node25" class="node">
<title>16</title>
<g id="a_node25"><a xlink:title="stdio.h">
<polygon fill="#ffffff" stroke="black" points="696.5,-108 631.5,-108 631.5,-72 696.5,-72 696.5,-108"/>
<text text-anchor="middle" x="664" y="-86.3" font-family="Times,serif" font-size="14.00">stdio.h</text>
</a>
</g>
</g>
<!-- 22&#45;&gt;16 -->
<g id="edge8" class="edge">
<title>22&#45;&gt;16</title>
<g id="a_edge8"><a xlink:title="include">
<path fill="none" stroke="#1414ce" d="M600.01,-143.7C610.72,-134.88 623.89,-124.03 635.5,-114.47"/>
<polygon fill="#1414ce" stroke="#1414ce" points="637.74,-117.16 643.23,-108.1 633.29,-111.76 637.74,-117.16"/>
</a>
</g>
</g>
<!-- 15 -->
<g id="node6" class="node">
<title>15</title>
<g id="a_node6"><a xlink:title="synclist.h">
<polygon fill="#ffffff" stroke="black" points="1007.5,-252 922.5,-252 922.5,-216 1007.5,-216 1007.5,-252"/>
<text text-anchor="middle" x="965" y="-230.3" font-family="Times,serif" font-size="14.00">synclist.h</text>
</a>
</g>
</g>
<!-- 15&#45;&gt;14 -->
<g id="edge11" class="edge">
<title>15&#45;&gt;14</title>
<g id="a_edge11"><a xlink:title="include">
<path fill="none" stroke="#1414ce" d="M956.1,-215.7C952,-207.73 947.05,-198.1 942.51,-189.26"/>
<polygon fill="#1414ce" stroke="#1414ce" points="945.48,-187.4 937.8,-180.1 939.26,-190.6 945.48,-187.4"/>
</a>
</g>
</g>
<!-- 17 -->
<g id="node22" class="node">
<title>17</title>
<g id="a_node22"><a xlink:title="smp.h">
<polygon fill="#ffffff" stroke="black" points="1034,-180 974,-180 974,-144 1034,-144 1034,-180"/>
<text text-anchor="middle" x="1004" y="-158.3" font-family="Times,serif" font-size="14.00">smp.h</text>
</a>
</g>
</g>
<!-- 15&#45;&gt;17 -->
<g id="edge12" class="edge">
<title>15&#45;&gt;17</title>
<g id="a_edge12"><a xlink:title="include">
<path fill="none" stroke="#1414ce" d="M974.64,-215.7C979.13,-207.64 984.56,-197.89 989.52,-188.98"/>
<polygon fill="#1414ce" stroke="#1414ce" points="992.66,-190.54 994.47,-180.1 986.55,-187.14 992.66,-190.54"/>
</a>
</g>
</g>
<!-- 15&#45;&gt;16 -->
<g id="edge10" class="edge">
<title>15&#45;&gt;16</title>
<g id="a_edge10"><a xlink:title="include">
<path fill="none" stroke="#1414ce" d="M928.69,-215.87C872.59,-189.4 765.13,-138.71 705.84,-110.74"/>
<polygon fill="#1414ce" stroke="#1414ce" points="707.29,-107.55 696.76,-106.45 704.31,-113.89 707.29,-107.55"/>
</a>
</g>
</g>
<!-- 14&#45;&gt;7 -->
<g id="edge13" class="edge">
<title>14&#45;&gt;7</title>
<g id="a_edge13"><a xlink:title="include">
<path fill="none" stroke="#1414ce" d="M929,-143.7C929,-135.98 929,-126.71 929,-118.11"/>
<polygon fill="#1414ce" stroke="#1414ce" points="932.5,-118.1 929,-108.1 925.5,-118.1 932.5,-118.1"/>
</a>
</g>
</g>
<!-- 1 -->
<g id="node10" class="node">
<title>1</title>
<g id="a_node10"><a xlink:title="/__w/AtomVM/AtomVM/src/libAtomVM/ets_hashtable.h">
<polygon fill="#bfbfbf" stroke="black" points="757.5,-684 352.5,-684 352.5,-648 757.5,-648 757.5,-684"/>
<text text-anchor="middle" x="555" y="-662.3" font-family="Times,serif" font-size="14.00">/__w/AtomVM/AtomVM/src/libAtomVM/ets_hashtable.h</text>
</a>
</g>
</g>
<!-- 1&#45;&gt;5 -->
<g id="edge16" class="edge">
<title>1&#45;&gt;5</title>
<g id="a_edge16"><a xlink:title="include">
<path fill="none" stroke="#1414ce" d="M442.46,-647.95C322.92,-626.59 151,-585.08 151,-523 151,-523 151,-523 151,-377 151,-272.59 108.9,-219.52 181,-144 198.42,-125.75 356.13,-105.36 436.03,-96.09"/>
<polygon fill="#1414ce" stroke="#1414ce" points="436.77,-99.52 446.3,-94.91 435.97,-92.57 436.77,-99.52"/>
</a>
</g>
</g>
<!-- 18 -->
<g id="node13" class="node">
<title>18</title>
<g id="a_node13"><a xlink:title="term.h">
<polygon fill="#ffffff" stroke="black" points="587.5,-468 522.5,-468 522.5,-432 587.5,-432 587.5,-468"/>
<text text-anchor="middle" x="555" y="-446.3" font-family="Times,serif" font-size="14.00">term.h</text>
</a>
</g>
</g>
<!-- 1&#45;&gt;18 -->
<g id="edge15" class="edge">
<title>1&#45;&gt;18</title>
<g id="a_edge15"><a xlink:title="include">
<path fill="none" stroke="#1414ce" d="M555,-647.85C555,-610.83 555,-523.18 555,-478.39"/>
<polygon fill="#1414ce" stroke="#1414ce" points="558.5,-478.23 555,-468.23 551.5,-478.23 558.5,-478.23"/>
</a>
</g>
</g>
<!-- 2 -->
<g id="node21" class="node">
<title>2</title>
<g id="a_node21"><a xlink:title="globalcontext.h">
<polygon fill="#ffffff" stroke="black" points="1108.5,-612 981.5,-612 981.5,-576 1108.5,-576 1108.5,-612"/>
<text text-anchor="middle" x="1045" y="-590.3" font-family="Times,serif" font-size="14.00">globalcontext.h</text>
</a>
</g>
</g>
<!-- 1&#45;&gt;2 -->
<g id="edge14" class="edge">
<title>1&#45;&gt;2</title>
<g id="a_edge14"><a xlink:title="include">
<path fill="none" stroke="#1414ce" d="M674.24,-647.97C766.83,-634.74 892.28,-616.82 970.92,-605.58"/>
<polygon fill="#1414ce" stroke="#1414ce" points="971.82,-608.99 981.22,-604.11 970.83,-602.06 971.82,-608.99"/>
</a>
</g>
</g>
<!-- 21 -->
<g id="node11" class="node">
<title>21</title>
<g id="a_node11"><a xlink:title="memory.h">
<polygon fill="#ffffff" stroke="black" points="411,-252 325,-252 325,-216 411,-216 411,-252"/>
<text text-anchor="middle" x="368" y="-230.3" font-family="Times,serif" font-size="14.00">memory.h</text>
</a>
</g>
</g>
<!-- 21&#45;&gt;22 -->
<g id="edge21" class="edge">
<title>21&#45;&gt;22</title>
<g id="a_edge21"><a xlink:title="include">
<path fill="none" stroke="#1414ce" d="M411.21,-218.67C448.35,-206.34 501.53,-188.7 538.01,-176.6"/>
<polygon fill="#1414ce" stroke="#1414ce" points="539.44,-179.81 547.83,-173.34 537.24,-173.17 539.44,-179.81"/>
</a>
</g>
</g>
<!-- 21&#45;&gt;3 -->
<g id="edge17" class="edge">
<title>21&#45;&gt;3</title>
<g id="a_edge17"><a xlink:title="include">
<path fill="none" stroke="#1414ce" d="M369.75,-215.92C374.2,-182.16 389.23,-107.13 437,-72 477.37,-42.31 620.76,-27.75 695.67,-22.03"/>
<polygon fill="#1414ce" stroke="#1414ce" points="696.05,-25.52 705.77,-21.29 695.53,-18.54 696.05,-25.52"/>
</a>
</g>
</g>
<!-- 21&#45;&gt;5 -->
<g id="edge18" class="edge">
<title>21&#45;&gt;5</title>
<g id="a_edge18"><a xlink:title="include">
<path fill="none" stroke="#1414ce" d="M378.63,-215.99C390.39,-197.61 410.29,-167.78 430,-144 438.02,-134.33 447.47,-124.34 456.09,-115.68"/>
<polygon fill="#1414ce" stroke="#1414ce" points="458.76,-117.97 463.41,-108.45 453.84,-112.99 458.76,-117.97"/>
</a>
</g>
</g>
<!-- 8 -->
<g id="node15" class="node">
<title>8</title>
<g id="a_node15"><a xlink:title="erl_nif.h">
<polygon fill="#ffffff" stroke="black" points="264,-180 190,-180 190,-144 264,-144 264,-180"/>
<text text-anchor="middle" x="227" y="-158.3" font-family="Times,serif" font-size="14.00">erl_nif.h</text>
</a>
</g>
</g>
<!-- 21&#45;&gt;8 -->
<g id="edge19" class="edge">
<title>21&#45;&gt;8</title>
<g id="a_edge19"><a xlink:title="include">
<path fill="none" stroke="#1414ce" d="M333.51,-215.88C314.56,-206.47 290.87,-194.71 270.64,-184.67"/>
<polygon fill="#1414ce" stroke="#1414ce" points="272.14,-181.5 261.63,-180.19 269.03,-187.77 272.14,-181.5"/>
</a>
</g>
</g>
<!-- 9 -->
<g id="node20" class="node">
<title>9</title>
<g id="a_node20"><a xlink:title="term_typedef.h">
<polygon fill="#ffffff" stroke="black" points="190.5,-108 65.5,-108 65.5,-72 190.5,-72 190.5,-108"/>
<text text-anchor="middle" x="128" y="-86.3" font-family="Times,serif" font-size="14.00">term_typedef.h</text>
</a>
</g>
</g>
<!-- 21&#45;&gt;9 -->
<g id="edge20" class="edge">
<title>21&#45;&gt;9</title>
<g id="a_edge20"><a xlink:title="include">
<path fill="none" stroke="#1414ce" d="M351.31,-215.8C328.93,-193.02 290.03,-154.48 273,-144 250.83,-130.36 224.61,-119.44 200.61,-111.14"/>
<polygon fill="#1414ce" stroke="#1414ce" points="201.42,-107.72 190.83,-107.86 199.2,-114.36 201.42,-107.72"/>
</a>
</g>
</g>
<!-- 25&#45;&gt;15 -->
<g id="edge26" class="edge">
<title>25&#45;&gt;15</title>
<g id="a_edge26"><a xlink:title="include">
<path fill="none" stroke="#1414ce" d="M610.22,-296.54C671.55,-286.17 778.43,-268.02 870,-252 883.81,-249.58 898.75,-246.93 912.59,-244.45"/>
<polygon fill="#1414ce" stroke="#1414ce" points="913.22,-247.9 922.45,-242.69 911.99,-241.01 913.22,-247.9"/>
</a>
</g>
</g>
<!-- 25&#45;&gt;14 -->
<g id="edge24" class="edge">
<title>25&#45;&gt;14</title>
<g id="a_edge24"><a xlink:title="include">
<path fill="none" stroke="#1414ce" d="M610.13,-298.91C678.85,-289.96 798.22,-272.14 837,-252 852.77,-243.81 884.74,-211.12 906.52,-187.74"/>
<polygon fill="#1414ce" stroke="#1414ce" points="909.25,-189.93 913.47,-180.21 904.11,-185.18 909.25,-189.93"/>
</a>
</g>
</g>
<!-- 25&#45;&gt;5 -->
<g id="edge22" class="edge">
<title>25&#45;&gt;5</title>
<g id="a_edge22"><a xlink:title="include">
<path fill="none" stroke="#1414ce" d="M551.68,-287.92C540.32,-264.14 519.78,-219.51 506,-180 498.86,-159.54 492.56,-135.82 488.21,-118.01"/>
<polygon fill="#1414ce" stroke="#1414ce" points="491.61,-117.2 485.88,-108.29 484.8,-118.83 491.61,-117.2"/>
</a>
</g>
</g>
<!-- 25&#45;&gt;21 -->
<g id="edge25" class="edge">
<title>25&#45;&gt;21</title>
<g id="a_edge25"><a xlink:title="include">
<path fill="none" stroke="#1414ce" d="M513.03,-287.88C485.1,-277.69 449.61,-264.75 420.72,-254.22"/>
<polygon fill="#1414ce" stroke="#1414ce" points="421.79,-250.89 411.2,-250.75 419.4,-257.46 421.79,-250.89"/>
</a>
</g>
</g>
<!-- 25&#45;&gt;8 -->
<g id="edge23" class="edge">
<title>25&#45;&gt;8</title>
<g id="a_edge23"><a xlink:title="include">
<path fill="none" stroke="#1414ce" d="M509.92,-302.38C458.48,-297.86 377.45,-285.54 316,-252 287.34,-236.36 261.82,-208.66 245.53,-188.3"/>
<polygon fill="#1414ce" stroke="#1414ce" points="248.25,-186.1 239.34,-180.36 242.73,-190.4 248.25,-186.1"/>
</a>
</g>
</g>
<!-- 18&#45;&gt;7 -->
<g id="edge28" class="edge">
<title>18&#45;&gt;7</title>
<g id="a_edge28"><a xlink:title="include">
<path fill="none" stroke="#1414ce" d="M587.54,-444.92C637.73,-437.89 730.34,-421.71 750,-396 798.8,-332.16 695.87,-287.26 733,-216 762.49,-159.41 830.31,-125.04 877.87,-107.03"/>
<polygon fill="#1414ce" stroke="#1414ce" points="879.21,-110.27 887.4,-103.54 876.8,-103.7 879.21,-110.27"/>
</a>
</g>
</g>
<!-- 18&#45;&gt;24 -->
<g id="edge34" class="edge">
<title>18&#45;&gt;24</title>
<g id="a_edge34"><a xlink:title="include">
<path fill="none" stroke="#1414ce" d="M583.13,-431.88C598.17,-422.72 616.87,-411.34 633.06,-401.48"/>
<polygon fill="#1414ce" stroke="#1414ce" points="635.04,-404.38 641.76,-396.19 631.4,-398.4 635.04,-404.38"/>
</a>
</g>
</g>
<!-- 18&#45;&gt;22 -->
<g id="edge35" class="edge">
<title>18&#45;&gt;22</title>
<g id="a_edge35"><a xlink:title="include">
<path fill="none" stroke="#1414ce" d="M563.62,-431.98C571.89,-413.07 581.3,-382.25 568,-360 550.65,-330.99 518.35,-353.01 501,-324 492.79,-310.27 496.59,-303.38 501,-288 511.96,-249.72 538.43,-211.78 557.49,-187.92"/>
<polygon fill="#1414ce" stroke="#1414ce" points="560.27,-190.05 563.89,-180.09 554.85,-185.62 560.27,-190.05"/>
</a>
</g>
</g>
<!-- 18&#45;&gt;3 -->
<g id="edge29" class="edge">
<title>18&#45;&gt;3</title>
<g id="a_edge29"><a xlink:title="include">
<path fill="none" stroke="#1414ce" d="M522.27,-449.73C472.32,-449.23 376.13,-441.8 312,-396 209.28,-322.64 106.84,-246.15 181,-144 241.8,-60.24 572.47,-30.15 695.69,-21.74"/>
<polygon fill="#1414ce" stroke="#1414ce" points="696.18,-25.22 705.92,-21.06 695.71,-18.24 696.18,-25.22"/>
</a>
</g>
</g>
<!-- 18&#45;&gt;5 -->
<g id="edge31" class="edge">
<title>18&#45;&gt;5</title>
<g id="a_edge31"><a xlink:title="include">
<path fill="none" stroke="#1414ce" d="M522.39,-444.81C472.61,-437.68 381.38,-421.42 362,-396 352.3,-383.28 358.1,-375.52 362,-360 375.29,-307.16 397.28,-301.52 420,-252 441.19,-205.82 461.52,-150.14 472.83,-117.84"/>
<polygon fill="#1414ce" stroke="#1414ce" points="476.2,-118.81 476.17,-108.21 469.58,-116.51 476.2,-118.81"/>
</a>
</g>
</g>
<!-- 18&#45;&gt;21 -->
<g id="edge33" class="edge">
<title>18&#45;&gt;21</title>
<g id="a_edge33"><a xlink:title="include">
<path fill="none" stroke="#1414ce" d="M522.42,-446.23C465.75,-440.67 352.78,-426 329,-396 297.51,-356.28 327.87,-294.94 349.84,-260.57"/>
<polygon fill="#1414ce" stroke="#1414ce" points="352.88,-262.31 355.48,-252.04 347.04,-258.46 352.88,-262.31"/>
</a>
</g>
</g>
<!-- 19 -->
<g id="node18" class="node">
<title>19</title>
<g id="a_node18"><a xlink:title="sys/types.h">
<polygon fill="#ffffff" stroke="black" points="468.5,-396 371.5,-396 371.5,-360 468.5,-360 468.5,-396"/>
<text text-anchor="middle" x="420" y="-374.3" font-family="Times,serif" font-size="14.00">sys/types.h</text>
</a>
</g>
</g>
<!-- 18&#45;&gt;19 -->
<g id="edge27" class="edge">
<title>18&#45;&gt;19</title>
<g id="a_edge27"><a xlink:title="include">
<path fill="none" stroke="#1414ce" d="M522.32,-432.05C504.13,-422.62 481.3,-410.78 461.82,-400.68"/>
<polygon fill="#1414ce" stroke="#1414ce" points="463.34,-397.53 452.85,-396.03 460.11,-403.74 463.34,-397.53"/>
</a>
</g>
</g>
<!-- 20 -->
<g id="node19" class="node">
<title>20</title>
<g id="a_node19"><a xlink:title="string.h">
<polygon fill="#ffffff" stroke="black" points="559.5,-396 486.5,-396 486.5,-360 559.5,-360 559.5,-396"/>
<text text-anchor="middle" x="523" y="-374.3" font-family="Times,serif" font-size="14.00">string.h</text>
</a>
</g>
</g>
<!-- 18&#45;&gt;20 -->
<g id="edge32" class="edge">
<title>18&#45;&gt;20</title>
<g id="a_edge32"><a xlink:title="include">
<path fill="none" stroke="#1414ce" d="M547.09,-431.7C543.45,-423.73 539.05,-414.1 535.01,-405.26"/>
<polygon fill="#1414ce" stroke="#1414ce" points="538.16,-403.74 530.82,-396.1 531.79,-406.65 538.16,-403.74"/>
</a>
</g>
</g>
<!-- 18&#45;&gt;9 -->
<g id="edge36" class="edge">
<title>18&#45;&gt;9</title>
<g id="a_edge36"><a xlink:title="include">
<path fill="none" stroke="#1414ce" d="M522.48,-449.35C464.71,-448.72 341.72,-441.57 251,-396 170.96,-355.79 142.15,-335.6 110,-252 92.78,-207.23 106.49,-150.66 117.57,-117.88"/>
<polygon fill="#1414ce" stroke="#1414ce" points="120.98,-118.71 121.03,-108.12 114.39,-116.37 120.98,-118.71"/>
</a>
</g>
</g>
<!-- 18&#45;&gt;16 -->
<g id="edge30" class="edge">
<title>18&#45;&gt;16</title>
<g id="a_edge30"><a xlink:title="include">
<path fill="none" stroke="#1414ce" d="M587.78,-443.98C634.25,-436.11 715.61,-419.33 733,-396 742.56,-383.17 735.36,-375.82 733,-360 725.59,-310.36 712.82,-300.53 700,-252 687.64,-205.23 675.92,-150.09 669.37,-117.98"/>
<polygon fill="#1414ce" stroke="#1414ce" points="672.77,-117.13 667.36,-108.02 665.91,-118.52 672.77,-117.13"/>
</a>
</g>
</g>
<!-- 8&#45;&gt;9 -->
<g id="edge37" class="edge">
<title>8&#45;&gt;9</title>
<g id="a_edge37"><a xlink:title="include">
<path fill="none" stroke="#1414ce" d="M202.78,-143.88C190.08,-134.89 174.34,-123.76 160.58,-114.03"/>
<polygon fill="#1414ce" stroke="#1414ce" points="162.5,-111.11 152.31,-108.19 158.46,-116.82 162.5,-111.11"/>
</a>
</g>
</g>
<!-- 11 -->
<g id="node16" class="node">
<title>11</title>
<g id="a_node16"><a xlink:title="limits.h">
<polygon fill="#ffffff" stroke="black" points="163.5,-36 92.5,-36 92.5,0 163.5,0 163.5,-36"/>
<text text-anchor="middle" x="128" y="-14.3" font-family="Times,serif" font-size="14.00">limits.h</text>
</a>
</g>
</g>
<!-- 6 -->
<g id="node17" class="node">
<title>6</title>
<g id="a_node17"><a xlink:title="atom_table.h">
<polygon fill="#ffffff" stroke="black" points="1287.5,-252 1178.5,-252 1178.5,-216 1287.5,-216 1287.5,-252"/>
<text text-anchor="middle" x="1233" y="-230.3" font-family="Times,serif" font-size="14.00">atom_table.h</text>
</a>
</g>
</g>
<!-- 6&#45;&gt;7 -->
<g id="edge38" class="edge">
<title>6&#45;&gt;7</title>
<g id="a_edge38"><a xlink:title="include">
<path fill="none" stroke="#1414ce" d="M1223.41,-215.68C1211.18,-195.28 1188.09,-161.91 1159,-144 1104.11,-110.21 1029.83,-97.93 980.72,-93.49"/>
<polygon fill="#1414ce" stroke="#1414ce" points="980.89,-89.99 970.63,-92.66 980.31,-96.97 980.89,-89.99"/>
</a>
</g>
</g>
<!-- 6&#45;&gt;4 -->
<g id="edge39" class="edge">
<title>6&#45;&gt;4</title>
<g id="a_edge39"><a xlink:title="include">
<path fill="none" stroke="#1414ce" d="M1204.62,-215.88C1189.46,-206.72 1170.59,-195.34 1154.26,-185.48"/>
<polygon fill="#1414ce" stroke="#1414ce" points="1155.86,-182.36 1145.49,-180.19 1152.24,-188.35 1155.86,-182.36"/>
</a>
</g>
</g>
<!-- 9&#45;&gt;10 -->
<g id="edge40" class="edge">
<title>9&#45;&gt;10</title>
<g id="a_edge40"><a xlink:title="include">
<path fill="none" stroke="#1414ce" d="M105.51,-71.7C94.04,-62.88 79.94,-52.03 67.52,-42.47"/>
<polygon fill="#1414ce" stroke="#1414ce" points="69.3,-39.43 59.24,-36.1 65.03,-44.98 69.3,-39.43"/>
</a>
</g>
</g>
<!-- 9&#45;&gt;3 -->
<g id="edge43" class="edge">
<title>9&#45;&gt;3</title>
<g id="a_edge43"><a xlink:title="include">
<path fill="none" stroke="#1414ce" d="M190.92,-74.47C195.67,-73.57 200.4,-72.73 205,-72 385.4,-43.29 602.52,-27.57 695.77,-21.7"/>
<polygon fill="#1414ce" stroke="#1414ce" points="696.23,-25.18 705.99,-21.07 695.79,-18.2 696.23,-25.18"/>
</a>
</g>
</g>
<!-- 9&#45;&gt;11 -->
<g id="edge41" class="edge">
<title>9&#45;&gt;11</title>
<g id="a_edge41"><a xlink:title="include">
<path fill="none" stroke="#1414ce" d="M128,-71.7C128,-63.98 128,-54.71 128,-46.11"/>
<polygon fill="#1414ce" stroke="#1414ce" points="131.5,-46.1 128,-36.1 124.5,-46.1 131.5,-46.1"/>
</a>
</g>
</g>
<!-- 12 -->
<g id="node27" class="node">
<title>12</title>
<g id="a_node27"><a xlink:title="inttypes.h">
<polygon fill="#ffffff" stroke="black" points="270.5,-36 181.5,-36 181.5,0 270.5,0 270.5,-36"/>
<text text-anchor="middle" x="226" y="-14.3" font-family="Times,serif" font-size="14.00">inttypes.h</text>
</a>
</g>
</g>
<!-- 9&#45;&gt;12 -->
<g id="edge42" class="edge">
<title>9&#45;&gt;12</title>
<g id="a_edge42"><a xlink:title="include">
<path fill="none" stroke="#1414ce" d="M151.97,-71.88C164.55,-62.89 180.13,-51.76 193.75,-42.03"/>
<polygon fill="#1414ce" stroke="#1414ce" points="195.83,-44.85 201.93,-36.19 191.76,-39.15 195.83,-44.85"/>
</a>
</g>
</g>
<!-- 2&#45;&gt;4 -->
<g id="edge45" class="edge">
<title>2&#45;&gt;4</title>
<g id="a_edge45"><a xlink:title="include">
<path fill="none" stroke="#1414ce" d="M1071.21,-575.99C1084.17,-566.58 1099.27,-553.98 1110,-540 1136.4,-505.6 1150,-494.37 1150,-451 1150,-451 1150,-451 1150,-305 1150,-263.97 1136.77,-217.97 1127.06,-189.74"/>
<polygon fill="#1414ce" stroke="#1414ce" points="1130.32,-188.45 1123.68,-180.19 1123.72,-190.78 1130.32,-188.45"/>
</a>
</g>
</g>
<!-- 2&#45;&gt;15 -->
<g id="edge52" class="edge">
<title>2&#45;&gt;15</title>
<g id="a_edge52"><a xlink:title="include">
<path fill="none" stroke="#1414ce" d="M1016.76,-575.78C1004.03,-566.64 989.9,-554.34 981,-540 959.57,-505.47 960,-491.64 960,-451 960,-451 960,-451 960,-377 960,-336.97 962.01,-290.63 963.48,-262.07"/>
<polygon fill="#1414ce" stroke="#1414ce" points="966.98,-262.21 964.01,-252.04 959.99,-261.84 966.98,-262.21"/>
</a>
</g>
</g>
<!-- 2&#45;&gt;14 -->
<g id="edge49" class="edge">
<title>2&#45;&gt;14</title>
<g id="a_edge49"><a xlink:title="include">
<path fill="none" stroke="#1414ce" d="M1050.87,-575.74C1059.34,-549.25 1074,-496.79 1074,-451 1074,-451 1074,-451 1074,-305 1074,-262.5 1067.92,-247.15 1039,-216 1038.29,-215.24 997.08,-195.48 965.31,-180.31"/>
<polygon fill="#1414ce" stroke="#1414ce" points="966.76,-177.12 956.23,-175.97 963.74,-183.44 966.76,-177.12"/>
</a>
</g>
</g>
<!-- 2&#45;&gt;3 -->
<g id="edge44" class="edge">
<title>2&#45;&gt;3</title>
<g id="a_edge44"><a xlink:title="include">
<path fill="none" stroke="#1414ce" d="M1108.91,-583.11C1218.82,-564.28 1432,-518.99 1432,-451 1432,-451 1432,-451 1432,-161 1432,-29.19 942.84,-18.67 788.24,-18.64"/>
<polygon fill="#1414ce" stroke="#1414ce" points="788.12,-15.14 778.13,-18.66 788.13,-22.14 788.12,-15.14"/>
</a>
</g>
</g>
<!-- 2&#45;&gt;18 -->
<g id="edge53" class="edge">
<title>2&#45;&gt;18</title>
<g id="a_edge53"><a xlink:title="include">
<path fill="none" stroke="#1414ce" d="M985.74,-575.97C949.67,-565.6 902.67,-552.06 861,-540 766.8,-512.73 656.36,-480.56 597.32,-463.35"/>
<polygon fill="#1414ce" stroke="#1414ce" points="598.18,-459.95 587.6,-460.51 596.22,-466.67 598.18,-459.95"/>
</a>
</g>
</g>
<!-- 2&#45;&gt;8 -->
<g id="edge47" class="edge">
<title>2&#45;&gt;8</title>
<g id="a_edge47"><a xlink:title="include">
<path fill="none" stroke="#1414ce" d="M981.49,-588.68C789.3,-574.75 227,-527.48 227,-451 227,-451 227,-451 227,-305 227,-265 227,-218.65 227,-190.08"/>
<polygon fill="#1414ce" stroke="#1414ce" points="230.5,-190.05 227,-180.05 223.5,-190.05 230.5,-190.05"/>
</a>
</g>
</g>
<!-- 2&#45;&gt;6 -->
<g id="edge46" class="edge">
<title>2&#45;&gt;6</title>
<g id="a_edge46"><a xlink:title="include">
<path fill="none" stroke="#1414ce" d="M1103.48,-575.89C1124.4,-567.6 1146.99,-555.91 1164,-540 1196.67,-509.44 1211,-495.73 1211,-451 1211,-451 1211,-451 1211,-377 1211,-336.74 1219.74,-290.81 1226.21,-262.36"/>
<polygon fill="#1414ce" stroke="#1414ce" points="1229.68,-262.89 1228.55,-252.35 1222.86,-261.29 1229.68,-262.89"/>
</a>
</g>
</g>
<!-- 2&#45;&gt;17 -->
<g id="edge51" class="edge">
<title>2&#45;&gt;17</title>
<g id="a_edge51"><a xlink:title="include">
<path fill="none" stroke="#1414ce" d="M1062.17,-575.69C1071.02,-565.93 1081.31,-553.08 1088,-540 1106.65,-503.52 1112,-491.97 1112,-451 1112,-451 1112,-451 1112,-305 1112,-264.03 1112.32,-248.97 1088,-216 1076.62,-200.57 1059.28,-188.55 1043.3,-179.88"/>
<polygon fill="#1414ce" stroke="#1414ce" points="1044.61,-176.62 1034.11,-175.17 1041.41,-182.85 1044.61,-176.62"/>
</a>
</g>
</g>
<!-- 27 -->
<g id="node23" class="node">
<title>27</title>
<g id="a_node23"><a xlink:title="timer_list.h">
<polygon fill="#ffffff" stroke="black" points="1404,-252 1306,-252 1306,-216 1404,-216 1404,-252"/>
<text text-anchor="middle" x="1355" y="-230.3" font-family="Times,serif" font-size="14.00">timer_list.h</text>
</a>
</g>
</g>
<!-- 2&#45;&gt;27 -->
<g id="edge54" class="edge">
<title>2&#45;&gt;27</title>
<g id="a_edge54"><a xlink:title="include">
<path fill="none" stroke="#1414ce" d="M1108.53,-585.71C1184.63,-573.03 1302,-539.19 1302,-451 1302,-451 1302,-451 1302,-377 1302,-334.21 1323.39,-288.48 1338.99,-260.82"/>
<polygon fill="#1414ce" stroke="#1414ce" points="1342.02,-262.56 1344.02,-252.16 1335.97,-259.05 1342.02,-262.56"/>
</a>
</g>
</g>
<!-- 26 -->
<g id="node24" class="node">
<title>26</title>
<g id="a_node24"><a xlink:title="mailbox.h">
<polygon fill="#ffffff" stroke="black" points="828,-252 742,-252 742,-216 828,-216 828,-252"/>
<text text-anchor="middle" x="785" y="-230.3" font-family="Times,serif" font-size="14.00">mailbox.h</text>
</a>
</g>
</g>
<!-- 2&#45;&gt;26 -->
<g id="edge50" class="edge">
<title>2&#45;&gt;26</title>
<g id="a_edge50"><a xlink:title="include">
<path fill="none" stroke="#1414ce" d="M995.83,-575.98C945.62,-555.1 875,-514.45 875,-451 875,-451 875,-451 875,-377 875,-329.71 838.96,-285.41 812.49,-259.25"/>
<polygon fill="#1414ce" stroke="#1414ce" points="814.62,-256.44 804.97,-252.05 809.77,-261.49 814.62,-256.44"/>
</a>
</g>
</g>
<!-- 13 -->
<g id="node26" class="node">
<title>13</title>
<g id="a_node26"><a xlink:title="ets.h">
<polygon fill="#ffffff" stroke="black" points="1044,-540 990,-540 990,-504 1044,-504 1044,-540"/>
<text text-anchor="middle" x="1017" y="-518.3" font-family="Times,serif" font-size="14.00">ets.h</text>
</a>
</g>
</g>
<!-- 2&#45;&gt;13 -->
<g id="edge48" class="edge">
<title>2&#45;&gt;13</title>
<g id="a_edge48"><a xlink:title="include">
<path fill="none" stroke="#1414ce" d="M1038.08,-575.7C1034.93,-567.81 1031.12,-558.3 1027.62,-549.55"/>
<polygon fill="#1414ce" stroke="#1414ce" points="1030.81,-548.09 1023.84,-540.1 1024.31,-550.69 1030.81,-548.09"/>
</a>
</g>
</g>
<!-- 17&#45;&gt;7 -->
<g id="edge55" class="edge">
<title>17&#45;&gt;7</title>
<g id="a_edge55"><a xlink:title="include">
<path fill="none" stroke="#1414ce" d="M985.46,-143.7C976.2,-135.05 964.84,-124.45 954.74,-115.03"/>
<polygon fill="#1414ce" stroke="#1414ce" points="957.02,-112.37 947.33,-108.1 952.25,-117.49 957.02,-112.37"/>
</a>
</g>
</g>
<!-- 27&#45;&gt;7 -->
<g id="edge56" class="edge">
<title>27&#45;&gt;7</title>
<g id="a_edge56"><a xlink:title="include">
<path fill="none" stroke="#1414ce" d="M1329.61,-215.97C1298.48,-195.85 1243.5,-162.76 1192,-144 1121.08,-118.17 1034.56,-103.8 980.61,-96.74"/>
<polygon fill="#1414ce" stroke="#1414ce" points="980.95,-93.25 970.59,-95.46 980.07,-100.2 980.95,-93.25"/>
</a>
</g>
</g>
<!-- 27&#45;&gt;14 -->
<g id="edge58" class="edge">
<title>27&#45;&gt;14</title>
<g id="a_edge58"><a xlink:title="include">
<path fill="none" stroke="#1414ce" d="M1305.79,-217.93C1302.83,-217.23 1299.88,-216.57 1297,-216 1154.71,-187.66 1109.87,-218.78 966.21,-179.77"/>
<polygon fill="#1414ce" stroke="#1414ce" points="966.73,-176.28 956.15,-176.97 964.85,-183.02 966.73,-176.28"/>
</a>
</g>
</g>
<!-- 27&#45;&gt;3 -->
<g id="edge57" class="edge">
<title>27&#45;&gt;3</title>
<g id="a_edge57"><a xlink:title="include">
<path fill="none" stroke="#1414ce" d="M1337.22,-215.73C1316.06,-196 1278.94,-163.88 1242,-144 1088.75,-61.52 879.74,-32.21 788.17,-22.9"/>
<polygon fill="#1414ce" stroke="#1414ce" points="788.41,-19.4 778.11,-21.9 787.72,-26.37 788.41,-19.4"/>
</a>
</g>
</g>
<!-- 26&#45;&gt;7 -->
<g id="edge59" class="edge">
<title>26&#45;&gt;7</title>
<g id="a_edge59"><a xlink:title="include">
<path fill="none" stroke="#1414ce" d="M802.37,-215.87C827.78,-190.82 875.2,-144.05 904.25,-115.41"/>
<polygon fill="#1414ce" stroke="#1414ce" points="906.91,-117.7 911.57,-108.19 901.99,-112.72 906.91,-117.7"/>
</a>
</g>
</g>
<!-- 26&#45;&gt;22 -->
<g id="edge62" class="edge">
<title>26&#45;&gt;22</title>
<g id="a_edge62"><a xlink:title="include">
<path fill="none" stroke="#1414ce" d="M741.82,-218.33C705.8,-206.09 654.84,-188.77 619.57,-176.79"/>
<polygon fill="#1414ce" stroke="#1414ce" points="620.66,-173.46 610.07,-173.56 618.41,-180.09 620.66,-173.46"/>
</a>
</g>
</g>
<!-- 26&#45;&gt;14 -->
<g id="edge60" class="edge">
<title>26&#45;&gt;14</title>
<g id="a_edge60"><a xlink:title="include">
<path fill="none" stroke="#1414ce" d="M820.23,-215.88C842.23,-205.18 870.49,-191.44 892.7,-180.65"/>
<polygon fill="#1414ce" stroke="#1414ce" points="894.34,-183.74 901.8,-176.22 891.28,-177.44 894.34,-183.74"/>
</a>
</g>
</g>
<!-- 26&#45;&gt;9 -->
<g id="edge61" class="edge">
<title>26&#45;&gt;9</title>
<g id="a_edge61"><a xlink:title="include">
<path fill="none" stroke="#1414ce" d="M741.89,-223.73C692.78,-213.16 610.1,-195.36 539,-180 420.49,-154.4 282.77,-124.56 200.64,-106.75"/>
<polygon fill="#1414ce" stroke="#1414ce" points="201.18,-103.29 190.66,-104.59 199.69,-110.13 201.18,-103.29"/>
</a>
</g>
</g>
<!-- 13&#45;&gt;15 -->
<g id="edge64" class="edge">
<title>13&#45;&gt;15</title>
<g id="a_edge64"><a xlink:title="include">
<path fill="none" stroke="#1414ce" d="M1013.9,-503.97C1005.22,-456.19 980.57,-320.62 969.96,-262.27"/>
<polygon fill="#1414ce" stroke="#1414ce" points="973.38,-261.52 968.15,-252.31 966.49,-262.77 973.38,-261.52"/>
</a>
</g>
</g>
<!-- 13&#45;&gt;14 -->
<g id="edge63" class="edge">
<title>13&#45;&gt;14</title>
<g id="a_edge63"><a xlink:title="include">
<path fill="none" stroke="#1414ce" d="M1020.84,-503.61C1026.4,-476.94 1036,-424.27 1036,-379 1036,-379 1036,-379 1036,-305 1036,-264.55 1040.49,-248.93 1017,-216 1010.1,-206.32 986.53,-192.36 965.52,-181.19"/>
<polygon fill="#1414ce" stroke="#1414ce" points="966.91,-177.97 956.43,-176.44 963.67,-184.17 966.91,-177.97"/>
</a>
</g>
</g>
<!-- 13&#45;&gt;18 -->
<g id="edge65" class="edge">
<title>13&#45;&gt;18</title>
<g id="a_edge65"><a xlink:title="include">
<path fill="none" stroke="#1414ce" d="M989.82,-516.88C912.55,-505.17 691.11,-471.62 597.55,-457.45"/>
<polygon fill="#1414ce" stroke="#1414ce" points="597.99,-453.97 587.58,-455.94 596.94,-460.89 597.99,-453.97"/>
</a>
</g>
</g>
</g>
</svg>
