<?xml version="1.0" encoding="UTF-8" standalone="no"?>
<!DOCTYPE svg PUBLIC "-//W3C//DTD SVG 1.1//EN"
 "http://www.w3.org/Graphics/SVG/1.1/DTD/svg11.dtd">
<!-- Generated by graphviz version 2.43.0 (0)
 -->
<!-- Title: %3 Pages: 1 -->
<svg width="1294pt" height="908pt"
 viewBox="0.00 0.00 1294.48 908.00" xmlns="http://www.w3.org/2000/svg" xmlns:xlink="http://www.w3.org/1999/xlink">
<g id="graph0" class="graph" transform="scale(1 1) rotate(0) translate(4 904)">
<title>%3</title>
<polygon fill="transparent" stroke="transparent" points="-4,4 -4,-904 1290.48,-904 1290.48,4 -4,4"/>
<!-- 9 -->
<g id="node1" class="node">
<title>9</title>
<g id="a_node1"><a xlink:title="stdbool.h">
<polygon fill="#ffffff" stroke="black" points="560.73,-108 477.73,-108 477.73,-72 560.73,-72 560.73,-108"/>
<text text-anchor="middle" x="519.23" y="-86.3" font-family="Times,serif" font-size="14.00">stdbool.h</text>
</a>
</g>
</g>
<!-- 26 -->
<g id="node2" class="node">
<title>26</title>
<g id="a_node2"><a xlink:title="refc_binary.h">
<polygon fill="#ffffff" stroke="black" points="807.23,-396 699.23,-396 699.23,-360 807.23,-360 807.23,-396"/>
<text text-anchor="middle" x="753.23" y="-374.3" font-family="Times,serif" font-size="14.00">refc_binary.h</text>
</a>
</g>
</g>
<!-- 26&#45;&gt;9 -->
<g id="edge1" class="edge">
<title>26&#45;&gt;9</title>
<g id="a_edge1"><a xlink:title="include">
<path fill="none" stroke="#1414ce" d="M749.96,-359.86C741.03,-317.55 712.43,-206.99 647.23,-144 626.14,-123.62 596.11,-110.63 570.43,-102.62"/>
<polygon fill="#1414ce" stroke="#1414ce" points="571.41,-99.26 560.83,-99.78 569.43,-105.97 571.41,-99.26"/>
</a>
</g>
</g>
<!-- 16 -->
<g id="node8" class="node">
<title>16</title>
<g id="a_node8"><a xlink:title="list.h">
<polygon fill="#ffffff" stroke="black" points="442.23,-180 388.23,-180 388.23,-144 442.23,-144 442.23,-180"/>
<text text-anchor="middle" x="415.23" y="-158.3" font-family="Times,serif" font-size="14.00">list.h</text>
</a>
</g>
</g>
<!-- 26&#45;&gt;16 -->
<g id="edge3" class="edge">
<title>26&#45;&gt;16</title>
<g id="a_edge3"><a xlink:title="include">
<path fill="none" stroke="#1414ce" d="M699.21,-363.17C638.54,-345.49 539.76,-310.03 472.23,-252 452.23,-234.81 436.72,-208.87 426.97,-189.43"/>
<polygon fill="#1414ce" stroke="#1414ce" points="430.01,-187.69 422.52,-180.2 423.71,-190.73 430.01,-187.69"/>
</a>
</g>
</g>
<!-- 7 -->
<g id="node10" class="node">
<title>7</title>
<g id="a_node10"><a xlink:title="stdlib.h">
<polygon fill="#ffffff" stroke="black" points="984.73,-108 913.73,-108 913.73,-72 984.73,-72 984.73,-108"/>
<text text-anchor="middle" x="949.23" y="-86.3" font-family="Times,serif" font-size="14.00">stdlib.h</text>
</a>
</g>
</g>
<!-- 26&#45;&gt;7 -->
<g id="edge2" class="edge">
<title>26&#45;&gt;7</title>
<g id="a_edge2"><a xlink:title="include">
<path fill="none" stroke="#1414ce" d="M752.87,-359.77C753.13,-341.21 755.42,-311.22 766.23,-288 785,-247.7 877.15,-158.3 923.09,-115.19"/>
<polygon fill="#1414ce" stroke="#1414ce" points="925.67,-117.57 930.58,-108.19 920.89,-112.46 925.67,-117.57"/>
</a>
</g>
</g>
<!-- 27 -->
<g id="node15" class="node">
<title>27</title>
<g id="a_node15"><a xlink:title="resources.h">
<polygon fill="#ffffff" stroke="black" points="875.23,-324 775.23,-324 775.23,-288 875.23,-288 875.23,-324"/>
<text text-anchor="middle" x="825.23" y="-302.3" font-family="Times,serif" font-size="14.00">resources.h</text>
</a>
</g>
</g>
<!-- 26&#45;&gt;27 -->
<g id="edge4" class="edge">
<title>26&#45;&gt;27</title>
<g id="a_edge4"><a xlink:title="include">
<path fill="none" stroke="#1414ce" d="M771.03,-359.7C779.84,-351.14 790.61,-340.66 800.23,-331.3"/>
<polygon fill="#1414ce" stroke="#1414ce" points="802.91,-333.58 807.64,-324.1 798.03,-328.57 802.91,-333.58"/>
</a>
</g>
</g>
<!-- 30 -->
<g id="node3" class="node">
<title>30</title>
<g id="a_node3"><a xlink:title="nifs.h">
<polygon fill="#ffffff" stroke="black" points="634.23,-756 578.23,-756 578.23,-720 634.23,-720 634.23,-756"/>
<text text-anchor="middle" x="606.23" y="-734.3" font-family="Times,serif" font-size="14.00">nifs.h</text>
</a>
</g>
</g>
<!-- 6 -->
<g id="node4" class="node">
<title>6</title>
<g id="a_node4"><a xlink:title="atom.h">
<polygon fill="#ffffff" stroke="black" points="932.23,-468 866.23,-468 866.23,-432 932.23,-432 932.23,-468"/>
<text text-anchor="middle" x="899.23" y="-446.3" font-family="Times,serif" font-size="14.00">atom.h</text>
</a>
</g>
</g>
<!-- 30&#45;&gt;6 -->
<g id="edge5" class="edge">
<title>30&#45;&gt;6</title>
<g id="a_edge5"><a xlink:title="include">
<path fill="none" stroke="#1414ce" d="M634.38,-733.26C691.31,-724.08 819.85,-694.8 880.23,-612 908.89,-572.71 907.52,-513.1 903.6,-478.51"/>
<polygon fill="#1414ce" stroke="#1414ce" points="907.02,-477.69 902.27,-468.22 900.08,-478.58 907.02,-477.69"/>
</a>
</g>
</g>
<!-- 3 -->
<g id="node11" class="node">
<title>3</title>
<g id="a_node11"><a xlink:title="context.h">
<polygon fill="#ffffff" stroke="black" points="382.73,-684 299.73,-684 299.73,-648 382.73,-648 382.73,-684"/>
<text text-anchor="middle" x="341.23" y="-662.3" font-family="Times,serif" font-size="14.00">context.h</text>
</a>
</g>
</g>
<!-- 30&#45;&gt;3 -->
<g id="edge6" class="edge">
<title>30&#45;&gt;3</title>
<g id="a_edge6"><a xlink:title="include">
<path fill="none" stroke="#1414ce" d="M577.87,-729.51C533.75,-717.85 448.02,-695.21 392.76,-680.61"/>
<polygon fill="#1414ce" stroke="#1414ce" points="393.37,-677.15 382.81,-677.98 391.59,-683.92 393.37,-677.15"/>
</a>
</g>
</g>
<!-- 31 -->
<g id="node19" class="node">
<title>31</title>
<g id="a_node19"><a xlink:title="exportedfunction.h">
<polygon fill="#ffffff" stroke="black" points="871.23,-612 719.23,-612 719.23,-576 871.23,-576 871.23,-612"/>
<text text-anchor="middle" x="795.23" y="-590.3" font-family="Times,serif" font-size="14.00">exportedfunction.h</text>
</a>
</g>
</g>
<!-- 30&#45;&gt;31 -->
<g id="edge7" class="edge">
<title>30&#45;&gt;31</title>
<g id="a_edge7"><a xlink:title="include">
<path fill="none" stroke="#1414ce" d="M629.03,-719.87C662.8,-694.5 726.21,-646.85 764.2,-618.32"/>
<polygon fill="#1414ce" stroke="#1414ce" points="766.46,-620.99 772.35,-612.19 762.26,-615.4 766.46,-620.99"/>
</a>
</g>
</g>
<!-- 5 -->
<g id="node9" class="node">
<title>5</title>
<g id="a_node9"><a xlink:title="stdint.h">
<polygon fill="#ffffff" stroke="black" points="870.23,-36 798.23,-36 798.23,0 870.23,0 870.23,-36"/>
<text text-anchor="middle" x="834.23" y="-14.3" font-family="Times,serif" font-size="14.00">stdint.h</text>
</a>
</g>
</g>
<!-- 6&#45;&gt;5 -->
<g id="edge8" class="edge">
<title>6&#45;&gt;5</title>
<g id="a_edge8"><a xlink:title="include">
<path fill="none" stroke="#1414ce" d="M932.29,-448.69C1008.69,-447.23 1194.13,-439.22 1235.23,-396 1312.73,-314.5 1286.44,-252.87 1258.23,-144 1249.05,-108.56 1248.44,-92.68 1218.23,-72 1204.41,-62.53 979.59,-35.71 880.51,-24.27"/>
<polygon fill="#1414ce" stroke="#1414ce" points="880.81,-20.78 870.48,-23.12 880.01,-27.74 880.81,-20.78"/>
</a>
</g>
</g>
<!-- 6&#45;&gt;7 -->
<g id="edge9" class="edge">
<title>6&#45;&gt;7</title>
<g id="a_edge9"><a xlink:title="include">
<path fill="none" stroke="#1414ce" d="M932.41,-448.68C1006.67,-447.2 1182.67,-439.11 1219.23,-396 1229.58,-383.8 1224.42,-375.13 1219.23,-360 1176.48,-235.39 1119.55,-225.74 1016.23,-144 1004.06,-134.37 990.65,-123.76 979.05,-114.58"/>
<polygon fill="#1414ce" stroke="#1414ce" points="980.97,-111.64 970.96,-108.19 976.63,-117.13 980.97,-111.64"/>
</a>
</g>
</g>
<!-- 12 -->
<g id="node5" class="node">
<title>12</title>
<g id="a_node5"><a xlink:title="assert.h">
<polygon fill="#ffffff" stroke="black" points="1283.23,-36 1209.23,-36 1209.23,0 1283.23,0 1283.23,-36"/>
<text text-anchor="middle" x="1246.23" y="-14.3" font-family="Times,serif" font-size="14.00">assert.h</text>
</a>
</g>
</g>
<!-- 24 -->
<g id="node6" class="node">
<title>24</title>
<g id="a_node6"><a xlink:title="utils.h">
<polygon fill="#ffffff" stroke="black" points="837.23,-180 775.23,-180 775.23,-144 837.23,-144 837.23,-180"/>
<text text-anchor="middle" x="806.23" y="-158.3" font-family="Times,serif" font-size="14.00">utils.h</text>
</a>
</g>
</g>
<!-- 24&#45;&gt;7 -->
<g id="edge12" class="edge">
<title>24&#45;&gt;7</title>
<g id="a_edge12"><a xlink:title="include">
<path fill="none" stroke="#1414ce" d="M837.26,-145.81C857.17,-136.07 883.32,-123.26 905.34,-112.48"/>
<polygon fill="#1414ce" stroke="#1414ce" points="907.06,-115.54 914.5,-108 903.98,-109.25 907.06,-115.54"/>
</a>
</g>
</g>
<!-- 25 -->
<g id="node17" class="node">
<title>25</title>
<g id="a_node17"><a xlink:title="stddef.h">
<polygon fill="#ffffff" stroke="black" points="895.23,-108 821.23,-108 821.23,-72 895.23,-72 895.23,-108"/>
<text text-anchor="middle" x="858.23" y="-86.3" font-family="Times,serif" font-size="14.00">stddef.h</text>
</a>
</g>
</g>
<!-- 24&#45;&gt;25 -->
<g id="edge10" class="edge">
<title>24&#45;&gt;25</title>
<g id="a_edge10"><a xlink:title="include">
<path fill="none" stroke="#1414ce" d="M819.09,-143.7C825.26,-135.39 832.77,-125.28 839.56,-116.14"/>
<polygon fill="#1414ce" stroke="#1414ce" points="842.37,-118.22 845.53,-108.1 836.75,-114.04 842.37,-118.22"/>
</a>
</g>
</g>
<!-- 18 -->
<g id="node29" class="node">
<title>18</title>
<g id="a_node29"><a xlink:title="stdio.h">
<polygon fill="#ffffff" stroke="black" points="802.73,-108 737.73,-108 737.73,-72 802.73,-72 802.73,-108"/>
<text text-anchor="middle" x="770.23" y="-86.3" font-family="Times,serif" font-size="14.00">stdio.h</text>
</a>
</g>
</g>
<!-- 24&#45;&gt;18 -->
<g id="edge11" class="edge">
<title>24&#45;&gt;18</title>
<g id="a_edge11"><a xlink:title="include">
<path fill="none" stroke="#1414ce" d="M797.33,-143.7C793.23,-135.73 788.28,-126.1 783.74,-117.26"/>
<polygon fill="#1414ce" stroke="#1414ce" points="786.71,-115.4 779.03,-108.1 780.49,-118.6 786.71,-115.4"/>
</a>
</g>
</g>
<!-- 17 -->
<g id="node7" class="node">
<title>17</title>
<g id="a_node7"><a xlink:title="synclist.h">
<polygon fill="#ffffff" stroke="black" points="386.73,-252 301.73,-252 301.73,-216 386.73,-216 386.73,-252"/>
<text text-anchor="middle" x="344.23" y="-230.3" font-family="Times,serif" font-size="14.00">synclist.h</text>
</a>
</g>
</g>
<!-- 17&#45;&gt;16 -->
<g id="edge14" class="edge">
<title>17&#45;&gt;16</title>
<g id="a_edge14"><a xlink:title="include">
<path fill="none" stroke="#1414ce" d="M361.78,-215.7C370.47,-207.14 381.09,-196.66 390.58,-187.3"/>
<polygon fill="#1414ce" stroke="#1414ce" points="393.22,-189.62 397.88,-180.1 388.3,-184.63 393.22,-189.62"/>
</a>
</g>
</g>
<!-- 19 -->
<g id="node26" class="node">
<title>19</title>
<g id="a_node26"><a xlink:title="smp.h">
<polygon fill="#ffffff" stroke="black" points="330.23,-180 270.23,-180 270.23,-144 330.23,-144 330.23,-180"/>
<text text-anchor="middle" x="300.23" y="-158.3" font-family="Times,serif" font-size="14.00">smp.h</text>
</a>
</g>
</g>
<!-- 17&#45;&gt;19 -->
<g id="edge15" class="edge">
<title>17&#45;&gt;19</title>
<g id="a_edge15"><a xlink:title="include">
<path fill="none" stroke="#1414ce" d="M333.36,-215.7C328.24,-207.56 322.04,-197.69 316.39,-188.7"/>
<polygon fill="#1414ce" stroke="#1414ce" points="319.27,-186.71 310.98,-180.1 313.34,-190.43 319.27,-186.71"/>
</a>
</g>
</g>
<!-- 17&#45;&gt;18 -->
<g id="edge13" class="edge">
<title>17&#45;&gt;18</title>
<g id="a_edge13"><a xlink:title="include">
<path fill="none" stroke="#1414ce" d="M387.03,-218.73C468.77,-191.49 646.23,-132.34 727.73,-105.17"/>
<polygon fill="#1414ce" stroke="#1414ce" points="729.27,-108.34 737.65,-101.86 727.06,-101.7 729.27,-108.34"/>
</a>
</g>
</g>
<!-- 16&#45;&gt;9 -->
<g id="edge16" class="edge">
<title>16&#45;&gt;9</title>
<g id="a_edge16"><a xlink:title="include">
<path fill="none" stroke="#1414ce" d="M440.67,-143.88C454.02,-134.89 470.56,-123.76 485.01,-114.03"/>
<polygon fill="#1414ce" stroke="#1414ce" points="487.35,-116.68 493.69,-108.19 483.44,-110.87 487.35,-116.68"/>
</a>
</g>
</g>
<!-- 3&#45;&gt;16 -->
<g id="edge18" class="edge">
<title>3&#45;&gt;16</title>
<g id="a_edge18"><a xlink:title="include">
<path fill="none" stroke="#1414ce" d="M332.58,-647.67C321.12,-623.96 301.08,-579.8 290.23,-540 260.56,-431.13 250.69,-400.52 259.23,-288 261.68,-255.72 249.73,-241.05 270.23,-216 284.22,-198.91 340.27,-181.86 378.45,-171.88"/>
<polygon fill="#1414ce" stroke="#1414ce" points="379.39,-175.26 388.21,-169.38 377.65,-168.47 379.39,-175.26"/>
</a>
</g>
</g>
<!-- 20 -->
<g id="node16" class="node">
<title>20</title>
<g id="a_node16"><a xlink:title="term.h">
<polygon fill="#ffffff" stroke="black" points="842.73,-468 777.73,-468 777.73,-432 842.73,-432 842.73,-468"/>
<text text-anchor="middle" x="810.23" y="-446.3" font-family="Times,serif" font-size="14.00">term.h</text>
</a>
</g>
</g>
<!-- 3&#45;&gt;20 -->
<g id="edge21" class="edge">
<title>3&#45;&gt;20</title>
<g id="a_edge21"><a xlink:title="include">
<path fill="none" stroke="#1414ce" d="M382.74,-652.14C446.1,-631.85 570.03,-589.59 669.23,-540 708.02,-520.61 749.69,-493.44 777.59,-474.23"/>
<polygon fill="#1414ce" stroke="#1414ce" points="779.92,-476.88 786.14,-468.3 775.93,-471.12 779.92,-476.88"/>
</a>
</g>
</g>
<!-- 4 -->
<g id="node25" class="node">
<title>4</title>
<g id="a_node25"><a xlink:title="globalcontext.h">
<polygon fill="#ffffff" stroke="black" points="471.73,-612 344.73,-612 344.73,-576 471.73,-576 471.73,-612"/>
<text text-anchor="middle" x="408.23" y="-590.3" font-family="Times,serif" font-size="14.00">globalcontext.h</text>
</a>
</g>
</g>
<!-- 3&#45;&gt;4 -->
<g id="edge17" class="edge">
<title>3&#45;&gt;4</title>
<g id="a_edge17"><a xlink:title="include">
<path fill="none" stroke="#1414ce" d="M357.79,-647.7C365.91,-639.22 375.82,-628.86 384.7,-619.58"/>
<polygon fill="#1414ce" stroke="#1414ce" points="387.47,-621.75 391.86,-612.1 382.42,-616.91 387.47,-621.75"/>
</a>
</g>
</g>
<!-- 3&#45;&gt;19 -->
<g id="edge20" class="edge">
<title>3&#45;&gt;19</title>
<g id="a_edge20"><a xlink:title="include">
<path fill="none" stroke="#1414ce" d="M299.56,-661.67C238.88,-655.87 130.86,-641.58 107.23,-612 -4.16,-472.56 197.78,-259.15 273.37,-187.45"/>
<polygon fill="#1414ce" stroke="#1414ce" points="276.21,-189.59 281.11,-180.19 271.42,-184.48 276.21,-189.59"/>
</a>
</g>
</g>
<!-- 29 -->
<g id="node27" class="node">
<title>29</title>
<g id="a_node27"><a xlink:title="timer_list.h">
<polygon fill="#ffffff" stroke="black" points="131.23,-252 33.23,-252 33.23,-216 131.23,-216 131.23,-252"/>
<text text-anchor="middle" x="82.23" y="-230.3" font-family="Times,serif" font-size="14.00">timer_list.h</text>
</a>
</g>
</g>
<!-- 3&#45;&gt;29 -->
<g id="edge22" class="edge">
<title>3&#45;&gt;29</title>
<g id="a_edge22"><a xlink:title="include">
<path fill="none" stroke="#1414ce" d="M299.51,-662.18C231.76,-656.77 102.1,-642.62 69.23,-612 39.25,-584.08 45.23,-563.97 45.23,-523 45.23,-523 45.23,-523 45.23,-377 45.23,-335.71 60.07,-289.77 70.95,-261.63"/>
<polygon fill="#1414ce" stroke="#1414ce" points="74.29,-262.7 74.74,-252.11 67.79,-260.11 74.29,-262.7"/>
</a>
</g>
</g>
<!-- 28 -->
<g id="node28" class="node">
<title>28</title>
<g id="a_node28"><a xlink:title="mailbox.h">
<polygon fill="#ffffff" stroke="black" points="567.23,-252 481.23,-252 481.23,-216 567.23,-216 567.23,-252"/>
<text text-anchor="middle" x="524.23" y="-230.3" font-family="Times,serif" font-size="14.00">mailbox.h</text>
</a>
</g>
</g>
<!-- 3&#45;&gt;28 -->
<g id="edge19" class="edge">
<title>3&#45;&gt;28</title>
<g id="a_edge19"><a xlink:title="include">
<path fill="none" stroke="#1414ce" d="M338.79,-647.86C337.45,-637.5 335.91,-624.02 335.23,-612 334.33,-596.03 332.87,-591.82 335.23,-576 340.17,-542.91 346.27,-535.61 357.23,-504 392.72,-401.63 403.46,-373.32 470.23,-288 478.2,-277.82 488.03,-267.63 497.1,-258.94"/>
<polygon fill="#1414ce" stroke="#1414ce" points="499.57,-261.42 504.49,-252.04 494.79,-256.31 499.57,-261.42"/>
</a>
</g>
</g>
<!-- 1 -->
<g id="node12" class="node">
<title>1</title>
<g id="a_node12"><a xlink:title="/__w/AtomVM/AtomVM/src/libAtomVM/portnifloader.c">
<polygon fill="#bfbfbf" stroke="black" points="858.73,-900 461.73,-900 461.73,-864 858.73,-864 858.73,-900"/>
<text text-anchor="middle" x="660.23" y="-878.3" font-family="Times,serif" font-size="14.00">/__w/AtomVM/AtomVM/src/libAtomVM/portnifloader.c</text>
</a>
</g>
</g>
<!-- 2 -->
<g id="node13" class="node">
<title>2</title>
<g id="a_node13"><a xlink:title="portnifloader.h">
<polygon fill="#ffffff" stroke="black" points="639.23,-828 517.23,-828 517.23,-792 639.23,-792 639.23,-828"/>
<text text-anchor="middle" x="578.23" y="-806.3" font-family="Times,serif" font-size="14.00">portnifloader.h</text>
</a>
</g>
</g>
<!-- 1&#45;&gt;2 -->
<g id="edge23" class="edge">
<title>1&#45;&gt;2</title>
<g id="a_edge23"><a xlink:title="include">
<path fill="none" stroke="#1414ce" d="M639.96,-863.7C629.73,-854.97 617.17,-844.24 606.05,-834.75"/>
<polygon fill="#1414ce" stroke="#1414ce" points="608.15,-831.94 598.27,-828.1 603.6,-837.26 608.15,-831.94"/>
</a>
</g>
</g>
<!-- 22 -->
<g id="node23" class="node">
<title>22</title>
<g id="a_node23"><a xlink:title="string.h">
<polygon fill="#ffffff" stroke="black" points="1209.73,-396 1136.73,-396 1136.73,-360 1209.73,-360 1209.73,-396"/>
<text text-anchor="middle" x="1173.23" y="-374.3" font-family="Times,serif" font-size="14.00">string.h</text>
</a>
</g>
</g>
<!-- 1&#45;&gt;22 -->
<g id="edge24" class="edge">
<title>1&#45;&gt;22</title>
<g id="a_edge24"><a xlink:title="include">
<path fill="none" stroke="#1414ce" d="M780.57,-863.99C904.06,-843.07 1078.23,-802.33 1078.23,-739 1078.23,-739 1078.23,-739 1078.23,-521 1078.23,-473.01 1116.18,-428.96 1144.1,-403.04"/>
<polygon fill="#1414ce" stroke="#1414ce" points="1146.59,-405.52 1151.67,-396.22 1141.9,-400.31 1146.59,-405.52"/>
</a>
</g>
</g>
<!-- 2&#45;&gt;30 -->
<g id="edge27" class="edge">
<title>2&#45;&gt;30</title>
<g id="a_edge27"><a xlink:title="include">
<path fill="none" stroke="#1414ce" d="M585.15,-791.7C588.31,-783.81 592.11,-774.3 595.61,-765.55"/>
<polygon fill="#1414ce" stroke="#1414ce" points="598.93,-766.69 599.39,-756.1 592.43,-764.09 598.93,-766.69"/>
</a>
</g>
</g>
<!-- 2&#45;&gt;3 -->
<g id="edge25" class="edge">
<title>2&#45;&gt;3</title>
<g id="a_edge25"><a xlink:title="include">
<path fill="none" stroke="#1414ce" d="M549.64,-791.87C506.85,-766.23 426.1,-717.85 378.66,-689.43"/>
<polygon fill="#1414ce" stroke="#1414ce" points="380.3,-686.33 369.92,-684.19 376.7,-692.33 380.3,-686.33"/>
</a>
</g>
</g>
<!-- 2&#45;&gt;4 -->
<g id="edge26" class="edge">
<title>2&#45;&gt;4</title>
<g id="a_edge26"><a xlink:title="include">
<path fill="none" stroke="#1414ce" d="M564.61,-791.85C534.7,-754.21 463.2,-664.2 428.21,-620.15"/>
<polygon fill="#1414ce" stroke="#1414ce" points="430.88,-617.89 421.92,-612.23 425.4,-622.24 430.88,-617.89"/>
</a>
</g>
</g>
<!-- 23 -->
<g id="node14" class="node">
<title>23</title>
<g id="a_node14"><a xlink:title="memory.h">
<polygon fill="#ffffff" stroke="black" points="1098.23,-252 1012.23,-252 1012.23,-216 1098.23,-216 1098.23,-252"/>
<text text-anchor="middle" x="1055.23" y="-230.3" font-family="Times,serif" font-size="14.00">memory.h</text>
</a>
</g>
</g>
<!-- 23&#45;&gt;24 -->
<g id="edge32" class="edge">
<title>23&#45;&gt;24</title>
<g id="a_edge32"><a xlink:title="include">
<path fill="none" stroke="#1414ce" d="M1012.14,-220.89C965.82,-207.86 892.71,-187.31 847.21,-174.52"/>
<polygon fill="#1414ce" stroke="#1414ce" points="847.96,-171.1 837.39,-171.76 846.07,-177.83 847.96,-171.1"/>
</a>
</g>
</g>
<!-- 23&#45;&gt;5 -->
<g id="edge28" class="edge">
<title>23&#45;&gt;5</title>
<g id="a_edge28"><a xlink:title="include">
<path fill="none" stroke="#1414ce" d="M1053.53,-215.8C1049.4,-183.16 1035.88,-111.92 994.23,-72 963.37,-42.42 915.63,-29.34 880.33,-23.56"/>
<polygon fill="#1414ce" stroke="#1414ce" points="880.67,-20.07 870.26,-22.06 879.63,-27 880.67,-20.07"/>
</a>
</g>
</g>
<!-- 23&#45;&gt;7 -->
<g id="edge29" class="edge">
<title>23&#45;&gt;7</title>
<g id="a_edge29"><a xlink:title="include">
<path fill="none" stroke="#1414ce" d="M1042.45,-215.87C1023.98,-191.14 989.72,-145.24 968.28,-116.51"/>
<polygon fill="#1414ce" stroke="#1414ce" points="970.85,-114.11 962.06,-108.19 965.24,-118.3 970.85,-114.11"/>
</a>
</g>
</g>
<!-- 10 -->
<g id="node18" class="node">
<title>10</title>
<g id="a_node18"><a xlink:title="erl_nif.h">
<polygon fill="#ffffff" stroke="black" points="1233.23,-180 1159.23,-180 1159.23,-144 1233.23,-144 1233.23,-180"/>
<text text-anchor="middle" x="1196.23" y="-158.3" font-family="Times,serif" font-size="14.00">erl_nif.h</text>
</a>
</g>
</g>
<!-- 23&#45;&gt;10 -->
<g id="edge30" class="edge">
<title>23&#45;&gt;10</title>
<g id="a_edge30"><a xlink:title="include">
<path fill="none" stroke="#1414ce" d="M1089.72,-215.88C1108.67,-206.47 1132.36,-194.71 1152.59,-184.67"/>
<polygon fill="#1414ce" stroke="#1414ce" points="1154.21,-187.77 1161.61,-180.19 1151.09,-181.5 1154.21,-187.77"/>
</a>
</g>
</g>
<!-- 11 -->
<g id="node24" class="node">
<title>11</title>
<g id="a_node24"><a xlink:title="term_typedef.h">
<polygon fill="#ffffff" stroke="black" points="1208.73,-108 1083.73,-108 1083.73,-72 1208.73,-72 1208.73,-108"/>
<text text-anchor="middle" x="1146.23" y="-86.3" font-family="Times,serif" font-size="14.00">term_typedef.h</text>
</a>
</g>
</g>
<!-- 23&#45;&gt;11 -->
<g id="edge31" class="edge">
<title>23&#45;&gt;11</title>
<g id="a_edge31"><a xlink:title="include">
<path fill="none" stroke="#1414ce" d="M1066.21,-215.87C1081.99,-191.24 1111.22,-145.64 1129.64,-116.88"/>
<polygon fill="#1414ce" stroke="#1414ce" points="1132.77,-118.5 1135.22,-108.19 1126.87,-114.72 1132.77,-118.5"/>
</a>
</g>
</g>
<!-- 27&#45;&gt;17 -->
<g id="edge37" class="edge">
<title>27&#45;&gt;17</title>
<g id="a_edge37"><a xlink:title="include">
<path fill="none" stroke="#1414ce" d="M775.12,-297.71C683.62,-284.39 490.37,-256.27 396.97,-242.68"/>
<polygon fill="#1414ce" stroke="#1414ce" points="397.3,-239.19 386.9,-241.21 396.29,-246.11 397.3,-239.19"/>
</a>
</g>
</g>
<!-- 27&#45;&gt;16 -->
<g id="edge35" class="edge">
<title>27&#45;&gt;16</title>
<g id="a_edge35"><a xlink:title="include">
<path fill="none" stroke="#1414ce" d="M778.55,-287.92C728.6,-269.73 647.01,-240.29 576.23,-216 533.73,-201.41 484.65,-185.37 451.96,-174.8"/>
<polygon fill="#1414ce" stroke="#1414ce" points="452.96,-171.44 442.36,-171.7 450.8,-178.1 452.96,-171.44"/>
</a>
</g>
</g>
<!-- 27&#45;&gt;7 -->
<g id="edge33" class="edge">
<title>27&#45;&gt;7</title>
<g id="a_edge33"><a xlink:title="include">
<path fill="none" stroke="#1414ce" d="M835.17,-287.85C856.85,-250.44 908.48,-161.32 934.18,-116.98"/>
<polygon fill="#1414ce" stroke="#1414ce" points="937.26,-118.64 939.25,-108.23 931.2,-115.13 937.26,-118.64"/>
</a>
</g>
</g>
<!-- 27&#45;&gt;23 -->
<g id="edge36" class="edge">
<title>27&#45;&gt;23</title>
<g id="a_edge36"><a xlink:title="include">
<path fill="none" stroke="#1414ce" d="M875.42,-289.72C912.91,-278.31 964.05,-262.75 1002.21,-251.14"/>
<polygon fill="#1414ce" stroke="#1414ce" points="1003.56,-254.38 1012.11,-248.12 1001.52,-247.69 1003.56,-254.38"/>
</a>
</g>
</g>
<!-- 27&#45;&gt;10 -->
<g id="edge34" class="edge">
<title>27&#45;&gt;10</title>
<g id="a_edge34"><a xlink:title="include">
<path fill="none" stroke="#1414ce" d="M875.27,-304.4C934.02,-301.77 1032.89,-291.23 1107.23,-252 1136.28,-236.67 1161.89,-208.67 1178.1,-188.15"/>
<polygon fill="#1414ce" stroke="#1414ce" points="1180.93,-190.21 1184.24,-180.15 1175.37,-185.95 1180.93,-190.21"/>
</a>
</g>
</g>
<!-- 20&#45;&gt;9 -->
<g id="edge39" class="edge">
<title>20&#45;&gt;9</title>
<g id="a_edge39"><a xlink:title="include">
<path fill="none" stroke="#1414ce" d="M777.65,-446.49C742.95,-442.06 688.76,-429.82 657.23,-396 629.3,-366.03 633.23,-347.97 633.23,-307 633.23,-307 633.23,-307 633.23,-233 633.23,-182 587.96,-138.88 554.47,-113.97"/>
<polygon fill="#1414ce" stroke="#1414ce" points="556.41,-111.05 546.25,-108.04 552.31,-116.73 556.41,-111.05"/>
</a>
</g>
</g>
<!-- 20&#45;&gt;26 -->
<g id="edge45" class="edge">
<title>20&#45;&gt;26</title>
<g id="a_edge45"><a xlink:title="include">
<path fill="none" stroke="#1414ce" d="M796.14,-431.7C789.31,-423.3 780.97,-413.07 773.48,-403.86"/>
<polygon fill="#1414ce" stroke="#1414ce" points="776.19,-401.65 767.16,-396.1 770.76,-406.07 776.19,-401.65"/>
</a>
</g>
</g>
<!-- 20&#45;&gt;24 -->
<g id="edge46" class="edge">
<title>20&#45;&gt;24</title>
<g id="a_edge46"><a xlink:title="include">
<path fill="none" stroke="#1414ce" d="M832.19,-431.96C858.25,-410.2 900.3,-369.82 917.23,-324 922.78,-308.99 921.87,-303.31 917.23,-288 904.3,-245.27 866.83,-208.76 838.99,-186.43"/>
<polygon fill="#1414ce" stroke="#1414ce" points="841.09,-183.63 831.05,-180.23 836.78,-189.15 841.09,-183.63"/>
</a>
</g>
</g>
<!-- 20&#45;&gt;5 -->
<g id="edge40" class="edge">
<title>20&#45;&gt;5</title>
<g id="a_edge40"><a xlink:title="include">
<path fill="none" stroke="#1414ce" d="M777.66,-444.52C749.17,-438.68 709.44,-425.48 690.23,-396 681.5,-382.59 689.18,-375.97 690.23,-360 698.69,-231.17 653.3,-177.14 728.23,-72 742.57,-51.88 766.79,-38.97 788.46,-30.94"/>
<polygon fill="#1414ce" stroke="#1414ce" points="789.88,-34.15 798.19,-27.58 787.6,-27.53 789.88,-34.15"/>
</a>
</g>
</g>
<!-- 20&#45;&gt;7 -->
<g id="edge42" class="edge">
<title>20&#45;&gt;7</title>
<g id="a_edge42"><a xlink:title="include">
<path fill="none" stroke="#1414ce" d="M843.11,-434.92C861.17,-425.89 882.95,-412.72 898.23,-396 922.24,-369.74 924.07,-358.38 933.23,-324 952.54,-251.58 952.31,-162.27 950.69,-118.22"/>
<polygon fill="#1414ce" stroke="#1414ce" points="954.17,-117.87 950.25,-108.03 947.18,-118.17 954.17,-117.87"/>
</a>
</g>
</g>
<!-- 20&#45;&gt;23 -->
<g id="edge44" class="edge">
<title>20&#45;&gt;23</title>
<g id="a_edge44"><a xlink:title="include">
<path fill="none" stroke="#1414ce" d="M842.88,-436.42C847.66,-434.8 852.54,-433.27 857.23,-432 941.86,-409.01 994.33,-462.73 1051.23,-396 1082.93,-358.82 1073.22,-297.38 1063.86,-262.12"/>
<polygon fill="#1414ce" stroke="#1414ce" points="1067.23,-261.17 1061.14,-252.5 1060.49,-263.07 1067.23,-261.17"/>
</a>
</g>
</g>
<!-- 21 -->
<g id="node22" class="node">
<title>21</title>
<g id="a_node22"><a xlink:title="sys/types.h">
<polygon fill="#ffffff" stroke="black" points="1041.73,-396 944.73,-396 944.73,-360 1041.73,-360 1041.73,-396"/>
<text text-anchor="middle" x="993.23" y="-374.3" font-family="Times,serif" font-size="14.00">sys/types.h</text>
</a>
</g>
</g>
<!-- 20&#45;&gt;21 -->
<g id="edge38" class="edge">
<title>20&#45;&gt;21</title>
<g id="a_edge38"><a xlink:title="include">
<path fill="none" stroke="#1414ce" d="M842.95,-436.49C869.69,-426.26 908.04,-411.59 939.31,-399.63"/>
<polygon fill="#1414ce" stroke="#1414ce" points="940.68,-402.85 948.77,-396.01 938.18,-396.31 940.68,-402.85"/>
</a>
</g>
</g>
<!-- 20&#45;&gt;22 -->
<g id="edge43" class="edge">
<title>20&#45;&gt;22</title>
<g id="a_edge43"><a xlink:title="include">
<path fill="none" stroke="#1414ce" d="M842.83,-436.21C847.61,-434.63 852.51,-433.16 857.23,-432 972.66,-403.63 1006.46,-422.91 1122.23,-396 1123.71,-395.66 1125.2,-395.29 1126.71,-394.9"/>
<polygon fill="#1414ce" stroke="#1414ce" points="1128.02,-398.17 1136.7,-392.09 1126.12,-391.43 1128.02,-398.17"/>
</a>
</g>
</g>
<!-- 20&#45;&gt;11 -->
<g id="edge47" class="edge">
<title>20&#45;&gt;11</title>
<g id="a_edge47"><a xlink:title="include">
<path fill="none" stroke="#1414ce" d="M842.86,-436.34C847.64,-434.74 852.53,-433.23 857.23,-432 951.38,-407.35 989.56,-445.7 1073.23,-396 1178.03,-333.75 1202.51,-295.24 1242.23,-180 1247.45,-164.87 1250.36,-157.78 1242.23,-144 1234.37,-130.69 1221.84,-120.48 1208.39,-112.76"/>
<polygon fill="#1414ce" stroke="#1414ce" points="1209.93,-109.62 1199.46,-108.04 1206.66,-115.81 1209.93,-109.62"/>
</a>
</g>
</g>
<!-- 20&#45;&gt;18 -->
<g id="edge41" class="edge">
<title>20&#45;&gt;18</title>
<g id="a_edge41"><a xlink:title="include">
<path fill="none" stroke="#1414ce" d="M821.19,-431.66C841.01,-400.15 881.03,-335.68 884.23,-324 888.46,-308.57 890.68,-302.64 884.23,-288 855.58,-222.93 794.88,-245.07 766.23,-180 757.69,-160.59 759.44,-136.45 762.91,-118.21"/>
<polygon fill="#1414ce" stroke="#1414ce" points="766.38,-118.74 765.09,-108.23 759.54,-117.25 766.38,-118.74"/>
</a>
</g>
</g>
<!-- 10&#45;&gt;11 -->
<g id="edge48" class="edge">
<title>10&#45;&gt;11</title>
<g id="a_edge48"><a xlink:title="include">
<path fill="none" stroke="#1414ce" d="M1183.87,-143.7C1178,-135.47 1170.86,-125.48 1164.39,-116.42"/>
<polygon fill="#1414ce" stroke="#1414ce" points="1167.11,-114.21 1158.45,-108.1 1161.41,-118.28 1167.11,-114.21"/>
</a>
</g>
</g>
<!-- 31&#45;&gt;20 -->
<g id="edge49" class="edge">
<title>31&#45;&gt;20</title>
<g id="a_edge49"><a xlink:title="include">
<path fill="none" stroke="#1414ce" d="M797.04,-575.87C799.6,-551.67 804.29,-507.21 807.34,-478.39"/>
<polygon fill="#1414ce" stroke="#1414ce" points="810.85,-478.5 808.42,-468.19 803.88,-477.77 810.85,-478.5"/>
</a>
</g>
</g>
<!-- 13 -->
<g id="node20" class="node">
<title>13</title>
<g id="a_node20"><a xlink:title="limits.h">
<polygon fill="#ffffff" stroke="black" points="1083.73,-36 1012.73,-36 1012.73,0 1083.73,0 1083.73,-36"/>
<text text-anchor="middle" x="1048.23" y="-14.3" font-family="Times,serif" font-size="14.00">limits.h</text>
</a>
</g>
</g>
<!-- 8 -->
<g id="node21" class="node">
<title>8</title>
<g id="a_node21"><a xlink:title="atom_table.h">
<polygon fill="#ffffff" stroke="black" points="624.73,-540 515.73,-540 515.73,-504 624.73,-504 624.73,-540"/>
<text text-anchor="middle" x="570.23" y="-518.3" font-family="Times,serif" font-size="14.00">atom_table.h</text>
</a>
</g>
</g>
<!-- 8&#45;&gt;9 -->
<g id="edge50" class="edge">
<title>8&#45;&gt;9</title>
<g id="a_edge50"><a xlink:title="include">
<path fill="none" stroke="#1414ce" d="M575.29,-503.68C582.6,-477.11 595.23,-424.56 595.23,-379 595.23,-379 595.23,-379 595.23,-305 595.23,-233.76 557.37,-156.48 535.09,-117.17"/>
<polygon fill="#1414ce" stroke="#1414ce" points="537.84,-114.92 529.8,-108.02 531.78,-118.43 537.84,-114.92"/>
</a>
</g>
</g>
<!-- 8&#45;&gt;6 -->
<g id="edge51" class="edge">
<title>8&#45;&gt;6</title>
<g id="a_edge51"><a xlink:title="include">
<path fill="none" stroke="#1414ce" d="M624.92,-513.24C681.96,-504.55 773.7,-488.91 851.23,-468 852.9,-467.55 854.6,-467.07 856.31,-466.56"/>
<polygon fill="#1414ce" stroke="#1414ce" points="857.64,-469.81 866.13,-463.47 855.54,-463.14 857.64,-469.81"/>
</a>
</g>
</g>
<!-- 11&#45;&gt;12 -->
<g id="edge52" class="edge">
<title>11&#45;&gt;12</title>
<g id="a_edge52"><a xlink:title="include">
<path fill="none" stroke="#1414ce" d="M1170.69,-71.88C1183.53,-62.89 1199.43,-51.76 1213.33,-42.03"/>
<polygon fill="#1414ce" stroke="#1414ce" points="1215.49,-44.79 1221.68,-36.19 1211.48,-39.06 1215.49,-44.79"/>
</a>
</g>
</g>
<!-- 11&#45;&gt;5 -->
<g id="edge55" class="edge">
<title>11&#45;&gt;5</title>
<g id="a_edge55"><a xlink:title="include">
<path fill="none" stroke="#1414ce" d="M1083.47,-74.92C1023.45,-61.45 934.36,-41.46 880.54,-29.39"/>
<polygon fill="#1414ce" stroke="#1414ce" points="881.11,-25.93 870.59,-27.16 879.58,-32.76 881.11,-25.93"/>
</a>
</g>
</g>
<!-- 11&#45;&gt;13 -->
<g id="edge53" class="edge">
<title>11&#45;&gt;13</title>
<g id="a_edge53"><a xlink:title="include">
<path fill="none" stroke="#1414ce" d="M1122.26,-71.88C1109.68,-62.89 1094.1,-51.76 1080.48,-42.03"/>
<polygon fill="#1414ce" stroke="#1414ce" points="1082.47,-39.15 1072.3,-36.19 1078.4,-44.85 1082.47,-39.15"/>
</a>
</g>
</g>
<!-- 14 -->
<g id="node31" class="node">
<title>14</title>
<g id="a_node31"><a xlink:title="inttypes.h">
<polygon fill="#ffffff" stroke="black" points="1190.73,-36 1101.73,-36 1101.73,0 1190.73,0 1190.73,-36"/>
<text text-anchor="middle" x="1146.23" y="-14.3" font-family="Times,serif" font-size="14.00">inttypes.h</text>
</a>
</g>
</g>
<!-- 11&#45;&gt;14 -->
<g id="edge54" class="edge">
<title>11&#45;&gt;14</title>
<g id="a_edge54"><a xlink:title="include">
<path fill="none" stroke="#1414ce" d="M1146.23,-71.7C1146.23,-63.98 1146.23,-54.71 1146.23,-46.11"/>
<polygon fill="#1414ce" stroke="#1414ce" points="1149.73,-46.1 1146.23,-36.1 1142.73,-46.1 1149.73,-46.1"/>
</a>
</g>
</g>
<!-- 4&#45;&gt;6 -->
<g id="edge57" class="edge">
<title>4&#45;&gt;6</title>
<g id="a_edge57"><a xlink:title="include">
<path fill="none" stroke="#1414ce" d="M471.98,-583.15C525.28,-574.18 603,-559.39 669.23,-540 736.17,-520.4 811.06,-489.71 856.67,-469.97"/>
<polygon fill="#1414ce" stroke="#1414ce" points="858.17,-473.14 865.94,-465.94 855.38,-466.72 858.17,-473.14"/>
</a>
</g>
</g>
<!-- 4&#45;&gt;17 -->
<g id="edge64" class="edge">
<title>4&#45;&gt;17</title>
<g id="a_edge64"><a xlink:title="include">
<path fill="none" stroke="#1414ce" d="M393.1,-575.61C385.48,-565.82 376.88,-552.98 372.23,-540 337.32,-442.59 339.31,-317.04 342.27,-262.41"/>
<polygon fill="#1414ce" stroke="#1414ce" points="345.78,-262.36 342.88,-252.17 338.79,-261.94 345.78,-262.36"/>
</a>
</g>
</g>
<!-- 4&#45;&gt;16 -->
<g id="edge61" class="edge">
<title>4&#45;&gt;16</title>
<g id="a_edge61"><a xlink:title="include">
<path fill="none" stroke="#1414ce" d="M387.73,-575.9C349.96,-542.36 273.23,-463.78 273.23,-379 273.23,-379 273.23,-379 273.23,-305 273.23,-264.55 266.58,-247.27 292.23,-216 313.71,-189.82 350.55,-176.28 378.33,-169.46"/>
<polygon fill="#1414ce" stroke="#1414ce" points="379.13,-172.87 388.11,-167.25 377.58,-166.04 379.13,-172.87"/>
</a>
</g>
</g>
<!-- 4&#45;&gt;5 -->
<g id="edge56" class="edge">
<title>4&#45;&gt;5</title>
<g id="a_edge56"><a xlink:title="include">
<path fill="none" stroke="#1414ce" d="M344.53,-580.09C285.06,-567.62 203.63,-549.28 191.23,-540 61.53,-442.94 -50.63,-359.67 24.23,-216 80.14,-108.71 139.72,-107.96 255.23,-72 354.4,-41.12 668.28,-25.64 787.59,-20.75"/>
<polygon fill="#1414ce" stroke="#1414ce" points="788,-24.24 797.85,-20.34 787.72,-17.25 788,-24.24"/>
</a>
</g>
</g>
<!-- 4&#45;&gt;20 -->
<g id="edge65" class="edge">
<title>4&#45;&gt;20</title>
<g id="a_edge65"><a xlink:title="include">
<path fill="none" stroke="#1414ce" d="M471.95,-585.84C518.49,-578.77 582.13,-565.22 633.23,-540 655.89,-528.82 655.46,-516.83 677.23,-504 705.94,-487.09 741.04,-473.35 767.98,-464.11"/>
<polygon fill="#1414ce" stroke="#1414ce" points="769.14,-467.41 777.51,-460.91 766.91,-460.78 769.14,-467.41"/>
</a>
</g>
</g>
<!-- 4&#45;&gt;10 -->
<g id="edge59" class="edge">
<title>4&#45;&gt;10</title>
<g id="a_edge59"><a xlink:title="include">
<path fill="none" stroke="#1414ce" d="M471.93,-588.01C649.37,-572.62 1142.43,-519.31 1235.23,-396 1282.07,-333.77 1237.95,-235.64 1212.05,-189.12"/>
<polygon fill="#1414ce" stroke="#1414ce" points="1214.99,-187.22 1206.99,-180.27 1208.92,-190.69 1214.99,-187.22"/>
</a>
</g>
</g>
<!-- 4&#45;&gt;8 -->
<g id="edge58" class="edge">
<title>4&#45;&gt;8</title>
<g id="a_edge58"><a xlink:title="include">
<path fill="none" stroke="#1414ce" d="M447.86,-575.88C470.01,-566.31 497.79,-554.3 521.29,-544.15"/>
<polygon fill="#1414ce" stroke="#1414ce" points="522.94,-547.25 530.73,-540.07 520.16,-540.82 522.94,-547.25"/>
</a>
</g>
</g>
<!-- 4&#45;&gt;19 -->
<g id="edge63" class="edge">
<title>4&#45;&gt;19</title>
<g id="a_edge63"><a xlink:title="include">
<path fill="none" stroke="#1414ce" d="M370.52,-575.9C353.68,-566.95 334.48,-554.75 320.23,-540 294.8,-513.67 292.07,-502.64 280.23,-468 243.98,-361.94 233.56,-321.92 270.23,-216 273.4,-206.85 278.14,-197.47 282.92,-189.19"/>
<polygon fill="#1414ce" stroke="#1414ce" points="286.07,-190.75 288.25,-180.38 280.08,-187.12 286.07,-190.75"/>
</a>
</g>
</g>
<!-- 4&#45;&gt;29 -->
<g id="edge66" class="edge">
<title>4&#45;&gt;29</title>
<g id="a_edge66"><a xlink:title="include">
<path fill="none" stroke="#1414ce" d="M344.58,-588.55C305.03,-582.76 255.39,-569.62 221.23,-540 181.55,-505.59 194.91,-479.84 173.23,-432 145.47,-370.73 112.17,-299.1 94.56,-261.36"/>
<polygon fill="#1414ce" stroke="#1414ce" points="97.63,-259.67 90.23,-252.09 91.29,-262.63 97.63,-259.67"/>
</a>
</g>
</g>
<!-- 4&#45;&gt;28 -->
<g id="edge62" class="edge">
<title>4&#45;&gt;28</title>
<g id="a_edge62"><a xlink:title="include">
<path fill="none" stroke="#1414ce" d="M422.4,-575.85C429.92,-565.93 438.73,-552.89 444.23,-540 460.11,-502.8 463.23,-491.45 463.23,-451 463.23,-451 463.23,-451 463.23,-377 463.23,-333.61 487.57,-288.37 505.5,-260.94"/>
<polygon fill="#1414ce" stroke="#1414ce" points="508.61,-262.59 511.3,-252.34 502.8,-258.68 508.61,-262.59"/>
</a>
</g>
</g>
<!-- 15 -->
<g id="node30" class="node">
<title>15</title>
<g id="a_node30"><a xlink:title="ets.h">
<polygon fill="#ffffff" stroke="black" points="435.23,-540 381.23,-540 381.23,-504 435.23,-504 435.23,-540"/>
<text text-anchor="middle" x="408.23" y="-518.3" font-family="Times,serif" font-size="14.00">ets.h</text>
</a>
</g>
</g>
<!-- 4&#45;&gt;15 -->
<g id="edge60" class="edge">
<title>4&#45;&gt;15</title>
<g id="a_edge60"><a xlink:title="include">
<path fill="none" stroke="#1414ce" d="M408.23,-575.7C408.23,-567.98 408.23,-558.71 408.23,-550.11"/>
<polygon fill="#1414ce" stroke="#1414ce" points="411.73,-550.1 408.23,-540.1 404.73,-550.1 411.73,-550.1"/>
</a>
</g>
</g>
<!-- 19&#45;&gt;9 -->
<g id="edge67" class="edge">
<title>19&#45;&gt;9</title>
<g id="a_edge67"><a xlink:title="include">
<path fill="none" stroke="#1414ce" d="M330.68,-151.27C366.12,-139.94 425.21,-121.05 467.8,-107.44"/>
<polygon fill="#1414ce" stroke="#1414ce" points="468.98,-110.74 477.44,-104.36 466.84,-104.07 468.98,-110.74"/>
</a>
</g>
</g>
<!-- 29&#45;&gt;9 -->
<g id="edge68" class="edge">
<title>29&#45;&gt;9</title>
<g id="a_edge68"><a xlink:title="include">
<path fill="none" stroke="#1414ce" d="M110.68,-215.95C145.18,-195.97 205.62,-163.17 261.23,-144 330.74,-120.04 414.7,-105.27 467.55,-97.6"/>
<polygon fill="#1414ce" stroke="#1414ce" points="468.28,-101.03 477.69,-96.16 467.3,-94.1 468.28,-101.03"/>
</a>
</g>
</g>
<!-- 29&#45;&gt;16 -->
<g id="edge70" class="edge">
<title>29&#45;&gt;16</title>
<g id="a_edge70"><a xlink:title="include">
<path fill="none" stroke="#1414ce" d="M131.55,-223.08C183.33,-212.61 267.08,-195.51 339.23,-180 351.93,-177.27 365.81,-174.19 378.19,-171.42"/>
<polygon fill="#1414ce" stroke="#1414ce" points="379.18,-174.78 388.17,-169.17 377.65,-167.95 379.18,-174.78"/>
</a>
</g>
</g>
<!-- 29&#45;&gt;5 -->
<g id="edge69" class="edge">
<title>29&#45;&gt;5</title>
<g id="a_edge69"><a xlink:title="include">
<path fill="none" stroke="#1414ce" d="M95.76,-215.83C112.66,-195.57 143.47,-162.34 177.23,-144 384.05,-31.64 675.28,-18.85 787.56,-18.39"/>
<polygon fill="#1414ce" stroke="#1414ce" points="787.86,-21.89 797.86,-18.38 787.86,-14.89 787.86,-21.89"/>
</a>
</g>
</g>
<!-- 28&#45;&gt;9 -->
<g id="edge71" class="edge">
<title>28&#45;&gt;9</title>
<g id="a_edge71"><a xlink:title="include">
<path fill="none" stroke="#1414ce" d="M523.63,-215.87C522.78,-191.67 521.21,-147.21 520.2,-118.39"/>
<polygon fill="#1414ce" stroke="#1414ce" points="523.69,-118.06 519.84,-108.19 516.69,-118.31 523.69,-118.06"/>
</a>
</g>
</g>
<!-- 28&#45;&gt;24 -->
<g id="edge74" class="edge">
<title>28&#45;&gt;24</title>
<g id="a_edge74"><a xlink:title="include">
<path fill="none" stroke="#1414ce" d="M567.37,-222.29C621.14,-208.94 712.4,-186.29 765.18,-173.19"/>
<polygon fill="#1414ce" stroke="#1414ce" points="766.02,-176.59 774.89,-170.78 764.34,-169.79 766.02,-176.59"/>
</a>
</g>
</g>
<!-- 28&#45;&gt;16 -->
<g id="edge72" class="edge">
<title>28&#45;&gt;16</title>
<g id="a_edge72"><a xlink:title="include">
<path fill="none" stroke="#1414ce" d="M497.57,-215.88C483.45,-206.81 465.92,-195.55 450.67,-185.76"/>
<polygon fill="#1414ce" stroke="#1414ce" points="452.3,-182.65 442,-180.19 448.52,-188.54 452.3,-182.65"/>
</a>
</g>
</g>
<!-- 28&#45;&gt;11 -->
<g id="edge73" class="edge">
<title>28&#45;&gt;11</title>
<g id="a_edge73"><a xlink:title="include">
<path fill="none" stroke="#1414ce" d="M567.28,-227.66C629.35,-219.57 747.39,-202.7 846.23,-180 930.49,-160.65 1025.93,-130.96 1086.08,-111.27"/>
<polygon fill="#1414ce" stroke="#1414ce" points="1087.38,-114.53 1095.79,-108.08 1085.2,-107.88 1087.38,-114.53"/>
</a>
</g>
</g>
<!-- 15&#45;&gt;17 -->
<g id="edge76" class="edge">
<title>15&#45;&gt;17</title>
<g id="a_edge76"><a xlink:title="include">
<path fill="none" stroke="#1414ce" d="M404.42,-503.97C393.73,-456.19 363.39,-320.62 350.33,-262.27"/>
<polygon fill="#1414ce" stroke="#1414ce" points="353.7,-261.3 348.1,-252.31 346.87,-262.83 353.7,-261.3"/>
</a>
</g>
</g>
<!-- 15&#45;&gt;16 -->
<g id="edge75" class="edge">
<title>15&#45;&gt;16</title>
<g id="a_edge75"><a xlink:title="include">
<path fill="none" stroke="#1414ce" d="M408.57,-503.73C409.69,-446.19 413.32,-260.66 414.7,-190.35"/>
<polygon fill="#1414ce" stroke="#1414ce" points="418.2,-190.16 414.9,-180.09 411.2,-190.02 418.2,-190.16"/>
</a>
</g>
</g>
<!-- 15&#45;&gt;20 -->
<g id="edge77" class="edge">
<title>15&#45;&gt;20</title>
<g id="a_edge77"><a xlink:title="include">
<path fill="none" stroke="#1414ce" d="M435.23,-516.3C503.69,-504.38 684.48,-472.9 767.48,-458.45"/>
<polygon fill="#1414ce" stroke="#1414ce" points="768.32,-461.85 777.57,-456.69 767.12,-454.95 768.32,-461.85"/>
</a>
</g>
</g>
</g>
</svg>
