<?xml version="1.0" encoding="UTF-8" standalone="no"?>
<!DOCTYPE svg PUBLIC "-//W3C//DTD SVG 1.1//EN"
 "http://www.w3.org/Graphics/SVG/1.1/DTD/svg11.dtd">
<!-- Generated by graphviz version 2.43.0 (0)
 -->
<!-- Title: %3 Pages: 1 -->
<svg width="1512pt" height="548pt"
 viewBox="0.00 0.00 1511.52 548.00" xmlns="http://www.w3.org/2000/svg" xmlns:xlink="http://www.w3.org/1999/xlink">
<g id="graph0" class="graph" transform="scale(1 1) rotate(0) translate(4 544)">
<title>%3</title>
<polygon fill="transparent" stroke="transparent" points="-4,4 -4,-544 1507.52,-544 1507.52,4 -4,4"/>
<!-- 26 -->
<g id="node1" class="node">
<title>26</title>
<g id="a_node1"><a xlink:title="SpinLock">
<polygon fill="#ffffff" stroke="black" points="620,-324 538,-324 538,-288 620,-288 620,-324"/>
<text text-anchor="middle" x="579" y="-302.3" font-family="Times,serif" font-size="14.00">SpinLock</text>
</a>
</g>
</g>
<!-- 15 -->
<g id="node2" class="node">
<title>15</title>
<g id="a_node2"><a xlink:title="ResourceType">
<polygon fill="#ffffff" stroke="black" points="633.5,-180 516.5,-180 516.5,-144 633.5,-144 633.5,-180"/>
<text text-anchor="middle" x="575" y="-158.3" font-family="Times,serif" font-size="14.00">ResourceType</text>
</a>
</g>
</g>
<!-- 4 -->
<g id="node5" class="node">
<title>4</title>
<g id="a_node5"><a xlink:title="ListHead">
<polygon fill="#ffffff" stroke="black" points="764.5,-36 683.5,-36 683.5,0 764.5,0 764.5,-36"/>
<text text-anchor="middle" x="724" y="-14.3" font-family="Times,serif" font-size="14.00">ListHead</text>
</a>
</g>
</g>
<!-- 15&#45;&gt;4 -->
<g id="edge3" class="edge">
<title>15&#45;&gt;4</title>
<g id="a_edge3"><a xlink:title="usage">
<path fill="none" stroke="#1414ce" d="M586.94,-143.74C600.46,-124.89 623.79,-94.39 648,-72 659.8,-61.08 673.97,-50.61 686.86,-41.91"/>
<polygon fill="#1414ce" stroke="#1414ce" points="689.12,-44.61 695.54,-36.17 685.26,-38.77 689.12,-44.61"/>
</a>
</g>
</g>
<!-- 14 -->
<g id="node8" class="node">
<title>14</title>
<g id="a_node8"><a xlink:title="GlobalContext">
<polygon fill="#ffffff" stroke="black" points="560.5,-396 441.5,-396 441.5,-360 560.5,-360 560.5,-396"/>
<text text-anchor="middle" x="501" y="-374.3" font-family="Times,serif" font-size="14.00">GlobalContext</text>
</a>
</g>
</g>
<!-- 15&#45;&gt;14 -->
<g id="edge2" class="edge">
<title>15&#45;&gt;14</title>
<g id="a_edge2"><a xlink:title="usage">
<path fill="none" stroke="#1414ce" d="M574.36,-180.3C568.14,-204.34 551.21,-249.26 538,-288 530.92,-308.76 523.49,-332.46 516.74,-350.18"/>
<polygon fill="#1414ce" stroke="#1414ce" points="513.33,-349.28 512.85,-359.86 519.83,-351.89 513.33,-349.28"/>
</a>
</g>
</g>
<!-- 16 -->
<g id="node25" class="node">
<title>16</title>
<g id="a_node25"><a xlink:title="SyncList">
<polygon fill="#ffffff" stroke="black" points="566,-108 488,-108 488,-72 566,-72 566,-108"/>
<text text-anchor="middle" x="527" y="-86.3" font-family="Times,serif" font-size="14.00">SyncList</text>
</a>
</g>
</g>
<!-- 15&#45;&gt;16 -->
<g id="edge1" class="edge">
<title>15&#45;&gt;16</title>
<g id="a_edge1"><a xlink:title="usage">
<path fill="none" stroke="#1414ce" d="M563.13,-143.7C557.5,-135.47 550.65,-125.48 544.43,-116.42"/>
<polygon fill="#1414ce" stroke="#1414ce" points="547.27,-114.37 538.73,-108.1 541.5,-118.33 547.27,-114.37"/>
</a>
</g>
</g>
<!-- 9 -->
<g id="node3" class="node">
<title>9</title>
<g id="a_node3"><a xlink:title="Module">
<polygon fill="#ffffff" stroke="black" points="1188,-324 1118,-324 1118,-288 1188,-288 1188,-324"/>
<text text-anchor="middle" x="1153" y="-302.3" font-family="Times,serif" font-size="14.00">Module</text>
</a>
</g>
</g>
<!-- 9&#45;&gt;4 -->
<g id="edge6" class="edge">
<title>9&#45;&gt;4</title>
<g id="a_edge6"><a xlink:title="usage">
<path fill="none" stroke="#1414ce" d="M1117.79,-294.31C1073.82,-280.82 1003.02,-258.58 992,-252 972.02,-240.07 971.28,-231.57 954,-216 882.81,-151.86 796.41,-79.2 752.54,-42.66"/>
<polygon fill="#1414ce" stroke="#1414ce" points="754.53,-39.76 744.6,-36.05 750.05,-45.14 754.53,-39.76"/>
</a>
</g>
</g>
<!-- 11 -->
<g id="node13" class="node">
<title>11</title>
<g id="a_node13"><a xlink:title="LiteralEntry">
<polygon fill="#ffffff" stroke="black" points="1269,-252 1165,-252 1165,-216 1269,-216 1269,-252"/>
<text text-anchor="middle" x="1217" y="-230.3" font-family="Times,serif" font-size="14.00">LiteralEntry</text>
</a>
</g>
</g>
<!-- 9&#45;&gt;11 -->
<g id="edge5" class="edge">
<title>9&#45;&gt;11</title>
<g id="a_edge5"><a xlink:title="usage">
<path fill="none" stroke="#1414ce" d="M1168.82,-287.7C1176.57,-279.22 1186.04,-268.86 1194.52,-259.58"/>
<polygon fill="#1414ce" stroke="#1414ce" points="1197.2,-261.85 1201.36,-252.1 1192.03,-257.12 1197.2,-261.85"/>
</a>
</g>
</g>
<!-- 10 -->
<g id="node23" class="node">
<title>10</title>
<g id="a_node23"><a xlink:title="ExportedFunction">
<polygon fill="#ffffff" stroke="black" points="1147,-252 1001,-252 1001,-216 1147,-216 1147,-252"/>
<text text-anchor="middle" x="1074" y="-230.3" font-family="Times,serif" font-size="14.00">ExportedFunction</text>
</a>
</g>
</g>
<!-- 9&#45;&gt;10 -->
<g id="edge4" class="edge">
<title>9&#45;&gt;10</title>
<g id="a_edge4"><a xlink:title="usage">
<path fill="none" stroke="#1414ce" d="M1133.47,-287.7C1123.62,-278.97 1111.51,-268.24 1100.8,-258.75"/>
<polygon fill="#1414ce" stroke="#1414ce" points="1103.11,-256.12 1093.3,-252.1 1098.47,-261.36 1103.11,-256.12"/>
</a>
</g>
</g>
<!-- 2 -->
<g id="node4" class="node">
<title>2</title>
<g id="a_node4"><a xlink:title="AVMPackData">
<polygon fill="#ffffff" stroke="black" points="1477.5,-468 1360.5,-468 1360.5,-432 1477.5,-432 1477.5,-468"/>
<text text-anchor="middle" x="1419" y="-446.3" font-family="Times,serif" font-size="14.00">AVMPackData</text>
</a>
</g>
</g>
<!-- 2&#45;&gt;4 -->
<g id="edge8" class="edge">
<title>2&#45;&gt;4</title>
<g id="a_edge8"><a xlink:title="usage">
<path fill="none" stroke="#1414ce" d="M1447.82,-431.95C1460.78,-422.86 1475.12,-410.54 1484,-396 1505.09,-361.49 1503,-347.45 1503,-307 1503,-307 1503,-307 1503,-161 1503,-49.73 1377.33,-97.39 1269,-72 1090.62,-30.2 871.93,-21.3 774.73,-19.45"/>
<polygon fill="#1414ce" stroke="#1414ce" points="774.66,-15.95 764.6,-19.28 774.53,-22.95 774.66,-15.95"/>
</a>
</g>
</g>
<!-- 3 -->
<g id="node9" class="node">
<title>3</title>
<g id="a_node9"><a xlink:title="AVMPackInfo">
<polygon fill="#ffffff" stroke="black" points="1474.5,-396 1363.5,-396 1363.5,-360 1474.5,-360 1474.5,-396"/>
<text text-anchor="middle" x="1419" y="-374.3" font-family="Times,serif" font-size="14.00">AVMPackInfo</text>
</a>
</g>
</g>
<!-- 2&#45;&gt;3 -->
<g id="edge7" class="edge">
<title>2&#45;&gt;3</title>
<g id="a_edge7"><a xlink:title="usage">
<path fill="none" stroke="#1414ce" d="M1419,-431.7C1419,-423.98 1419,-414.71 1419,-406.11"/>
<polygon fill="#1414ce" stroke="#1414ce" points="1422.5,-406.1 1419,-396.1 1415.5,-406.1 1422.5,-406.1"/>
</a>
</g>
</g>
<!-- 4&#45;&gt;4 -->
<g id="edge9" class="edge">
<title>4&#45;&gt;4</title>
<g id="a_edge9"><a xlink:title="usage">
<path fill="none" stroke="#1414ce" d="M764.73,-31.31C774.9,-30.38 782.5,-25.95 782.5,-18 782.5,-12.91 779.38,-9.26 774.47,-7.05"/>
<polygon fill="#1414ce" stroke="#1414ce" points="775.28,-3.64 764.73,-4.69 773.63,-10.45 775.28,-3.64"/>
</a>
</g>
</g>
<!-- 13 -->
<g id="node6" class="node">
<title>13</title>
<g id="a_node6"><a xlink:title="HeapFragment">
<polygon fill="#ffffff" stroke="black" points="129.5,-36 4.5,-36 4.5,0 129.5,0 129.5,-36"/>
<text text-anchor="middle" x="67" y="-14.3" font-family="Times,serif" font-size="14.00">HeapFragment</text>
</a>
</g>
</g>
<!-- 13&#45;&gt;13 -->
<g id="edge10" class="edge">
<title>13&#45;&gt;13</title>
<g id="a_edge10"><a xlink:title="usage">
<path fill="none" stroke="#1414ce" d="M129.78,-30.55C140.26,-28.79 147.5,-24.61 147.5,-18 147.5,-13.77 144.53,-10.53 139.64,-8.29"/>
<polygon fill="#1414ce" stroke="#1414ce" points="140.36,-4.85 129.78,-5.45 138.42,-11.58 140.36,-4.85"/>
</a>
</g>
</g>
<!-- 22 -->
<g id="node7" class="node">
<title>22</title>
<g id="a_node7"><a xlink:title="RefcBinaryQueueItem">
<polygon fill="#ffffff" stroke="black" points="850,-324 676,-324 676,-288 850,-288 850,-324"/>
<text text-anchor="middle" x="763" y="-302.3" font-family="Times,serif" font-size="14.00">RefcBinaryQueueItem</text>
</a>
</g>
</g>
<!-- 22&#45;&gt;22 -->
<g id="edge12" class="edge">
<title>22&#45;&gt;22</title>
<g id="a_edge12"><a xlink:title="usage">
<path fill="none" stroke="#1414ce" d="M850.3,-317.68C860.99,-315.59 868,-311.7 868,-306 868,-302.35 865.12,-299.44 860.25,-297.27"/>
<polygon fill="#1414ce" stroke="#1414ce" points="860.88,-293.81 850.3,-294.32 858.89,-300.52 860.88,-293.81"/>
</a>
</g>
</g>
<!-- 23 -->
<g id="node19" class="node">
<title>23</title>
<g id="a_node19"><a xlink:title="RefcBinary">
<polygon fill="#ffffff" stroke="black" points="771.5,-252 676.5,-252 676.5,-216 771.5,-216 771.5,-252"/>
<text text-anchor="middle" x="724" y="-230.3" font-family="Times,serif" font-size="14.00">RefcBinary</text>
</a>
</g>
</g>
<!-- 22&#45;&gt;23 -->
<g id="edge11" class="edge">
<title>22&#45;&gt;23</title>
<g id="a_edge11"><a xlink:title="usage">
<path fill="none" stroke="#1414ce" d="M753.36,-287.7C748.87,-279.64 743.44,-269.89 738.48,-260.98"/>
<polygon fill="#1414ce" stroke="#1414ce" points="741.45,-259.14 733.53,-252.1 735.34,-262.54 741.45,-259.14"/>
</a>
</g>
</g>
<!-- 14&#45;&gt;26 -->
<g id="edge22" class="edge">
<title>14&#45;&gt;26</title>
<g id="a_edge22"><a xlink:title="usage">
<path fill="none" stroke="#1414ce" d="M520.28,-359.7C529.92,-351.05 541.73,-340.45 552.23,-331.03"/>
<polygon fill="#1414ce" stroke="#1414ce" points="554.84,-333.39 559.94,-324.1 550.16,-328.18 554.84,-333.39"/>
</a>
</g>
</g>
<!-- 14&#45;&gt;15 -->
<g id="edge13" class="edge">
<title>14&#45;&gt;15</title>
<g id="a_edge13"><a xlink:title="usage">
<path fill="none" stroke="#1414ce" d="M499.41,-359.86C502.57,-341.88 511.53,-312.84 520,-288 531.66,-253.8 546.23,-214.78 557.85,-189.57"/>
<polygon fill="#1414ce" stroke="#1414ce" points="561.13,-190.83 562.31,-180.3 554.82,-187.79 561.13,-190.83"/>
</a>
</g>
</g>
<!-- 14&#45;&gt;9 -->
<g id="edge19" class="edge">
<title>14&#45;&gt;9</title>
<g id="a_edge19"><a xlink:title="usage">
<path fill="none" stroke="#1414ce" d="M560.76,-373.65C664.84,-367.32 885.97,-351.69 1071,-324 1082.9,-322.22 1095.67,-319.81 1107.52,-317.37"/>
<polygon fill="#1414ce" stroke="#1414ce" points="1108.58,-320.73 1117.64,-315.23 1107.13,-313.88 1108.58,-320.73"/>
</a>
</g>
</g>
<!-- 14&#45;&gt;4 -->
<g id="edge23" class="edge">
<title>14&#45;&gt;4</title>
<g id="a_edge23"><a xlink:title="usage">
<path fill="none" stroke="#1414ce" d="M560.67,-364.12C584.78,-356.18 611.08,-343.62 629,-324 638.71,-313.36 695.24,-119.07 716.19,-46.25"/>
<polygon fill="#1414ce" stroke="#1414ce" points="719.62,-47.01 719.02,-36.43 712.89,-45.07 719.62,-47.01"/>
</a>
</g>
</g>
<!-- 14&#45;&gt;22 -->
<g id="edge17" class="edge">
<title>14&#45;&gt;22</title>
<g id="a_edge17"><a xlink:title="usage">
<path fill="none" stroke="#1414ce" d="M560.78,-361.03C599.01,-350.81 648.87,-337.49 689.51,-326.64"/>
<polygon fill="#1414ce" stroke="#1414ce" points="690.6,-329.97 699.36,-324 688.8,-323.2 690.6,-329.97"/>
</a>
</g>
</g>
<!-- 17 -->
<g id="node10" class="node">
<title>17</title>
<g id="a_node10"><a xlink:title="Ets">
<polygon fill="#ffffff" stroke="black" points="498,-180 444,-180 444,-144 498,-144 498,-180"/>
<text text-anchor="middle" x="471" y="-158.3" font-family="Times,serif" font-size="14.00">Ets</text>
</a>
</g>
</g>
<!-- 14&#45;&gt;17 -->
<g id="edge14" class="edge">
<title>14&#45;&gt;17</title>
<g id="a_edge14"><a xlink:title="usage">
<path fill="none" stroke="#1414ce" d="M491.66,-359.88C486.63,-349.76 480.88,-336.51 478,-324 467.39,-277.95 467.73,-222.58 469.2,-190.23"/>
<polygon fill="#1414ce" stroke="#1414ce" points="472.69,-190.36 469.72,-180.19 465.7,-190 472.69,-190.36"/>
</a>
</g>
</g>
<!-- 25 -->
<g id="node12" class="node">
<title>25</title>
<g id="a_node12"><a xlink:title="TimerList">
<polygon fill="#ffffff" stroke="black" points="431,-108 345,-108 345,-72 431,-72 431,-108"/>
<text text-anchor="middle" x="388" y="-86.3" font-family="Times,serif" font-size="14.00">TimerList</text>
</a>
</g>
</g>
<!-- 14&#45;&gt;25 -->
<g id="edge21" class="edge">
<title>14&#45;&gt;25</title>
<g id="a_edge21"><a xlink:title="usage">
<path fill="none" stroke="#1414ce" d="M475.02,-359.79C462.82,-350.5 449,-338.06 440,-324 398.09,-258.57 389.68,-164.02 388.18,-118.08"/>
<polygon fill="#1414ce" stroke="#1414ce" points="391.67,-117.93 387.93,-108.01 384.67,-118.1 391.67,-117.93"/>
</a>
</g>
</g>
<!-- 18 -->
<g id="node17" class="node">
<title>18</title>
<g id="a_node17"><a xlink:title="MessageQueueItem">
<polygon fill="#ffffff" stroke="black" points="1044,-324 886,-324 886,-288 1044,-288 1044,-324"/>
<text text-anchor="middle" x="965" y="-302.3" font-family="Times,serif" font-size="14.00">MessageQueueItem</text>
</a>
</g>
</g>
<!-- 14&#45;&gt;18 -->
<g id="edge15" class="edge">
<title>14&#45;&gt;18</title>
<g id="a_edge15"><a xlink:title="usage">
<path fill="none" stroke="#1414ce" d="M560.73,-369.53C632.99,-360.29 758.55,-343.54 876,-324.12"/>
<polygon fill="#1414ce" stroke="#1414ce" points="876.59,-327.57 885.88,-322.48 875.44,-320.67 876.59,-327.57"/>
</a>
</g>
</g>
<!-- 24 -->
<g id="node18" class="node">
<title>24</title>
<g id="a_node18"><a xlink:title="AtomsHashTable">
<polygon fill="#ffffff" stroke="black" points="349.5,-252 212.5,-252 212.5,-216 349.5,-216 349.5,-252"/>
<text text-anchor="middle" x="281" y="-230.3" font-family="Times,serif" font-size="14.00">AtomsHashTable</text>
</a>
</g>
</g>
<!-- 14&#45;&gt;24 -->
<g id="edge20" class="edge">
<title>14&#45;&gt;24</title>
<g id="a_edge20"><a xlink:title="usage">
<path fill="none" stroke="#1414ce" d="M441.16,-360.4C416.06,-351.82 387.34,-339.79 364,-324 338.39,-306.68 314.94,-280.08 299.54,-260.46"/>
<polygon fill="#1414ce" stroke="#1414ce" points="302.12,-258.07 293.26,-252.27 296.57,-262.34 302.12,-258.07"/>
</a>
</g>
</g>
<!-- 19 -->
<g id="node22" class="node">
<title>19</title>
<g id="a_node22"><a xlink:title="AtomTable">
<polygon fill="#ffffff" stroke="black" points="230,-324 138,-324 138,-288 230,-288 230,-324"/>
<text text-anchor="middle" x="184" y="-302.3" font-family="Times,serif" font-size="14.00">AtomTable</text>
</a>
</g>
</g>
<!-- 14&#45;&gt;19 -->
<g id="edge16" class="edge">
<title>14&#45;&gt;19</title>
<g id="a_edge16"><a xlink:title="usage">
<path fill="none" stroke="#1414ce" d="M441.37,-363.83C383.68,-351.09 296.88,-331.93 240.33,-319.44"/>
<polygon fill="#1414ce" stroke="#1414ce" points="241,-316 230.48,-317.26 239.49,-322.84 241,-316"/>
</a>
</g>
</g>
<!-- 14&#45;&gt;16 -->
<g id="edge18" class="edge">
<title>14&#45;&gt;16</title>
<g id="a_edge18"><a xlink:title="usage">
<path fill="none" stroke="#1414ce" d="M487.54,-359.79C457.84,-319.58 392.61,-217.35 435,-144 444.65,-127.3 461.78,-115.4 478.66,-107.16"/>
<polygon fill="#1414ce" stroke="#1414ce" points="480.3,-110.27 487.97,-102.96 477.41,-103.89 480.3,-110.27"/>
</a>
</g>
</g>
<!-- 17&#45;&gt;16 -->
<g id="edge24" class="edge">
<title>17&#45;&gt;16</title>
<g id="a_edge24"><a xlink:title="usage">
<path fill="none" stroke="#1414ce" d="M484.84,-143.7C491.49,-135.39 499.58,-125.28 506.89,-116.14"/>
<polygon fill="#1414ce" stroke="#1414ce" points="509.8,-118.1 513.32,-108.1 504.34,-113.73 509.8,-118.1"/>
</a>
</g>
</g>
<!-- 21 -->
<g id="node11" class="node">
<title>21</title>
<g id="a_node11"><a xlink:title="HNodeGroup">
<polygon fill="#ffffff" stroke="black" points="138,-252 28,-252 28,-216 138,-216 138,-252"/>
<text text-anchor="middle" x="83" y="-230.3" font-family="Times,serif" font-size="14.00">HNodeGroup</text>
</a>
</g>
</g>
<!-- 21&#45;&gt;21 -->
<g id="edge26" class="edge">
<title>21&#45;&gt;21</title>
<g id="a_edge26"><a xlink:title="usage">
<path fill="none" stroke="#1414ce" d="M138.07,-246.85C148.57,-245.32 156,-241.03 156,-234 156,-229.5 152.95,-226.12 148,-223.87"/>
<polygon fill="#1414ce" stroke="#1414ce" points="148.64,-220.42 138.07,-221.15 146.79,-227.17 148.64,-220.42"/>
</a>
</g>
</g>
<!-- 20 -->
<g id="node26" class="node">
<title>20</title>
<g id="a_node26"><a xlink:title="HNode">
<polygon fill="#ffffff" stroke="black" points="167,-180 101,-180 101,-144 167,-144 167,-180"/>
<text text-anchor="middle" x="134" y="-158.3" font-family="Times,serif" font-size="14.00">HNode</text>
</a>
</g>
</g>
<!-- 21&#45;&gt;20 -->
<g id="edge25" class="edge">
<title>21&#45;&gt;20</title>
<g id="a_edge25"><a xlink:title="usage">
<path fill="none" stroke="#1414ce" d="M95.61,-215.7C101.6,-207.47 108.88,-197.48 115.48,-188.42"/>
<polygon fill="#1414ce" stroke="#1414ce" points="118.48,-190.25 121.54,-180.1 112.82,-186.13 118.48,-190.25"/>
</a>
</g>
</g>
<!-- 25&#45;&gt;4 -->
<g id="edge27" class="edge">
<title>25&#45;&gt;4</title>
<g id="a_edge27"><a xlink:title="usage">
<path fill="none" stroke="#1414ce" d="M431.24,-79.99C493.24,-67.08 607.16,-43.34 673.13,-29.6"/>
<polygon fill="#1414ce" stroke="#1414ce" points="674.21,-32.95 683.29,-27.48 672.79,-26.09 674.21,-32.95"/>
</a>
</g>
</g>
<!-- 7 -->
<g id="node14" class="node">
<title>7</title>
<g id="a_node14"><a xlink:title="MailboxMessage">
<polygon fill="#ffffff" stroke="black" points="926.5,-252 789.5,-252 789.5,-216 926.5,-216 926.5,-252"/>
<text text-anchor="middle" x="858" y="-230.3" font-family="Times,serif" font-size="14.00">MailboxMessage</text>
</a>
</g>
</g>
<!-- 7&#45;&gt;7 -->
<g id="edge28" class="edge">
<title>7&#45;&gt;7</title>
<g id="a_edge28"><a xlink:title="usage">
<path fill="none" stroke="#1414ce" d="M926.53,-246.37C937.21,-244.52 944.5,-240.4 944.5,-234 944.5,-229.8 941.36,-226.58 936.18,-224.34"/>
<polygon fill="#1414ce" stroke="#1414ce" points="937.1,-220.96 926.53,-221.63 935.21,-227.7 937.1,-220.96"/>
</a>
</g>
</g>
<!-- 12 -->
<g id="node15" class="node">
<title>12</title>
<g id="a_node15"><a xlink:title="Heap">
<polygon fill="#ffffff" stroke="black" points="94,-108 40,-108 40,-72 94,-72 94,-108"/>
<text text-anchor="middle" x="67" y="-86.3" font-family="Times,serif" font-size="14.00">Heap</text>
</a>
</g>
</g>
<!-- 12&#45;&gt;13 -->
<g id="edge29" class="edge">
<title>12&#45;&gt;13</title>
<g id="a_edge29"><a xlink:title="usage">
<path fill="none" stroke="#1414ce" d="M67,-71.7C67,-63.98 67,-54.71 67,-46.11"/>
<polygon fill="#1414ce" stroke="#1414ce" points="70.5,-46.1 67,-36.1 63.5,-46.1 70.5,-46.1"/>
</a>
</g>
</g>
<!-- 5 -->
<g id="node16" class="node">
<title>5</title>
<g id="a_node16"><a xlink:title="Context">
<polygon fill="#ffffff" stroke="black" points="1191.5,-468 1118.5,-468 1118.5,-432 1191.5,-432 1191.5,-468"/>
<text text-anchor="middle" x="1155" y="-446.3" font-family="Times,serif" font-size="14.00">Context</text>
</a>
</g>
</g>
<!-- 5&#45;&gt;9 -->
<g id="edge33" class="edge">
<title>5&#45;&gt;9</title>
<g id="a_edge33"><a xlink:title="usage">
<path fill="none" stroke="#1414ce" d="M1154.76,-431.87C1154.42,-407.67 1153.79,-363.21 1153.39,-334.39"/>
<polygon fill="#1414ce" stroke="#1414ce" points="1156.88,-334.14 1153.24,-324.19 1149.88,-334.24 1156.88,-334.14"/>
</a>
</g>
</g>
<!-- 5&#45;&gt;4 -->
<g id="edge36" class="edge">
<title>5&#45;&gt;4</title>
<g id="a_edge36"><a xlink:title="usage">
<path fill="none" stroke="#1414ce" d="M1191.86,-438.28C1244.52,-420.43 1335,-379.24 1335,-307 1335,-307 1335,-307 1335,-161 1335,-46.27 921.13,-24.21 774.64,-19.99"/>
<polygon fill="#1414ce" stroke="#1414ce" points="774.65,-16.49 764.56,-19.71 774.46,-23.49 774.65,-16.49"/>
</a>
</g>
</g>
<!-- 5&#45;&gt;14 -->
<g id="edge35" class="edge">
<title>5&#45;&gt;14</title>
<g id="a_edge35"><a xlink:title="usage">
<path fill="none" stroke="#1414ce" d="M1118.44,-445.09C1013.33,-433.84 709.07,-401.27 570.83,-386.47"/>
<polygon fill="#1414ce" stroke="#1414ce" points="571.08,-382.98 560.76,-385.4 570.34,-389.94 571.08,-382.98"/>
</a>
</g>
</g>
<!-- 5&#45;&gt;12 -->
<g id="edge34" class="edge">
<title>5&#45;&gt;12</title>
<g id="a_edge34"><a xlink:title="usage">
<path fill="none" stroke="#1414ce" d="M1118.2,-448.44C921.19,-444.95 0,-422.47 0,-307 0,-307 0,-307 0,-233 0,-188.73 26.97,-143.47 46.69,-116.3"/>
<polygon fill="#1414ce" stroke="#1414ce" points="49.6,-118.25 52.79,-108.14 44,-114.05 49.6,-118.25"/>
</a>
</g>
</g>
<!-- 5&#45;&gt;5 -->
<g id="edge30" class="edge">
<title>5&#45;&gt;5</title>
<g id="a_edge30"><a xlink:title="usage">
<path fill="none" stroke="#1414ce" d="M1191.68,-463.42C1201.78,-462.77 1209.5,-458.3 1209.5,-450 1209.5,-444.81 1206.48,-441.12 1201.76,-438.93"/>
<polygon fill="#1414ce" stroke="#1414ce" points="1202.21,-435.44 1191.68,-436.58 1200.63,-442.26 1202.21,-435.44"/>
</a>
</g>
</g>
<!-- 6 -->
<g id="node21" class="node">
<title>6</title>
<g id="a_node21"><a xlink:title="Mailbox">
<polygon fill="#ffffff" stroke="black" points="1127,-396 1053,-396 1053,-360 1127,-360 1127,-396"/>
<text text-anchor="middle" x="1090" y="-374.3" font-family="Times,serif" font-size="14.00">Mailbox</text>
</a>
</g>
</g>
<!-- 5&#45;&gt;6 -->
<g id="edge31" class="edge">
<title>5&#45;&gt;6</title>
<g id="a_edge31"><a xlink:title="usage">
<path fill="none" stroke="#1414ce" d="M1138.93,-431.7C1131.06,-423.22 1121.44,-412.86 1112.83,-403.58"/>
<polygon fill="#1414ce" stroke="#1414ce" points="1115.25,-401.05 1105.88,-396.1 1110.12,-405.81 1115.25,-401.05"/>
</a>
</g>
</g>
<!-- 8 -->
<g id="node24" class="node">
<title>8</title>
<g id="a_node24"><a xlink:title="TimerListItem">
<polygon fill="#ffffff" stroke="black" points="1247.5,-180 1128.5,-180 1128.5,-144 1247.5,-144 1247.5,-180"/>
<text text-anchor="middle" x="1188" y="-158.3" font-family="Times,serif" font-size="14.00">TimerListItem</text>
</a>
</g>
</g>
<!-- 5&#45;&gt;8 -->
<g id="edge32" class="edge">
<title>5&#45;&gt;8</title>
<g id="a_edge32"><a xlink:title="usage">
<path fill="none" stroke="#1414ce" d="M1170.44,-431.92C1198.45,-399.64 1256.73,-326.23 1278,-252 1282.41,-236.62 1285.94,-229.89 1278,-216 1270.54,-202.95 1258.48,-192.8 1245.58,-185.03"/>
<polygon fill="#1414ce" stroke="#1414ce" points="1247,-181.82 1236.56,-180.03 1243.61,-187.94 1247,-181.82"/>
</a>
</g>
</g>
<!-- 18&#45;&gt;7 -->
<g id="edge37" class="edge">
<title>18&#45;&gt;7</title>
<g id="a_edge37"><a xlink:title="usage">
<path fill="none" stroke="#1414ce" d="M938.82,-287.88C924.96,-278.81 907.76,-267.55 892.79,-257.76"/>
<polygon fill="#1414ce" stroke="#1414ce" points="894.56,-254.74 884.28,-252.19 890.73,-260.59 894.56,-254.74"/>
</a>
</g>
</g>
<!-- 18&#45;&gt;18 -->
<g id="edge38" class="edge">
<title>18&#45;&gt;18</title>
<g id="a_edge38"><a xlink:title="usage">
<path fill="none" stroke="#1414ce" d="M1044.16,-317.98C1054.87,-315.97 1062,-311.98 1062,-306 1062,-302.08 1058.93,-299.01 1053.79,-296.8"/>
<polygon fill="#1414ce" stroke="#1414ce" points="1054.74,-293.43 1044.16,-294.02 1052.8,-300.15 1054.74,-293.43"/>
</a>
</g>
</g>
<!-- 24&#45;&gt;20 -->
<g id="edge39" class="edge">
<title>24&#45;&gt;20</title>
<g id="a_edge39"><a xlink:title="usage">
<path fill="none" stroke="#1414ce" d="M245.04,-215.88C224.22,-205.96 197.89,-193.43 176.11,-183.05"/>
<polygon fill="#1414ce" stroke="#1414ce" points="177.61,-179.89 167.08,-178.75 174.6,-186.21 177.61,-179.89"/>
</a>
</g>
</g>
<!-- 23&#45;&gt;15 -->
<g id="edge40" class="edge">
<title>23&#45;&gt;15</title>
<g id="a_edge40"><a xlink:title="usage">
<path fill="none" stroke="#1414ce" d="M687.55,-215.88C667.36,-206.39 642.08,-194.51 620.59,-184.42"/>
<polygon fill="#1414ce" stroke="#1414ce" points="621.87,-181.15 611.33,-180.07 618.89,-187.49 621.87,-181.15"/>
</a>
</g>
</g>
<!-- 23&#45;&gt;4 -->
<g id="edge41" class="edge">
<title>23&#45;&gt;4</title>
<g id="a_edge41"><a xlink:title="usage">
<path fill="none" stroke="#1414ce" d="M724,-215.85C724,-178.83 724,-91.18 724,-46.39"/>
<polygon fill="#1414ce" stroke="#1414ce" points="727.5,-46.23 724,-36.23 720.5,-46.23 727.5,-46.23"/>
</a>
</g>
</g>
<!-- 1 -->
<g id="node20" class="node">
<title>1</title>
<g id="a_node20"><a xlink:title="CodeAllAvailableAcc">
<polygon fill="#bfbfbf" stroke="black" points="1367.5,-540 1206.5,-540 1206.5,-504 1367.5,-504 1367.5,-540"/>
<text text-anchor="middle" x="1287" y="-518.3" font-family="Times,serif" font-size="14.00">CodeAllAvailableAcc</text>
</a>
</g>
</g>
<!-- 1&#45;&gt;2 -->
<g id="edge42" class="edge">
<title>1&#45;&gt;2</title>
<g id="a_edge42"><a xlink:title="usage">
<path fill="none" stroke="#1414ce" d="M1319.29,-503.88C1336.87,-494.55 1358.81,-482.92 1377.63,-472.94"/>
<polygon fill="#1414ce" stroke="#1414ce" points="1379.39,-475.97 1386.59,-468.19 1376.11,-469.78 1379.39,-475.97"/>
</a>
</g>
</g>
<!-- 1&#45;&gt;5 -->
<g id="edge43" class="edge">
<title>1&#45;&gt;5</title>
<g id="a_edge43"><a xlink:title="usage">
<path fill="none" stroke="#1414ce" d="M1254.71,-503.88C1237.13,-494.55 1215.19,-482.92 1196.37,-472.94"/>
<polygon fill="#1414ce" stroke="#1414ce" points="1197.89,-469.78 1187.41,-468.19 1194.61,-475.97 1197.89,-469.78"/>
</a>
</g>
</g>
<!-- 6&#45;&gt;7 -->
<g id="edge44" class="edge">
<title>6&#45;&gt;7</title>
<g id="a_edge44"><a xlink:title="usage">
<path fill="none" stroke="#1414ce" d="M1091.34,-359.8C1091.9,-339.83 1089.56,-307.19 1071,-288 1061.32,-277.99 993.21,-262.12 936.57,-250.36"/>
<polygon fill="#1414ce" stroke="#1414ce" points="937.01,-246.87 926.51,-248.28 935.6,-253.73 937.01,-246.87"/>
</a>
</g>
</g>
<!-- 19&#45;&gt;21 -->
<g id="edge46" class="edge">
<title>19&#45;&gt;21</title>
<g id="a_edge46"><a xlink:title="usage">
<path fill="none" stroke="#1414ce" d="M159.29,-287.88C146.33,-278.89 130.27,-267.76 116.23,-258.03"/>
<polygon fill="#1414ce" stroke="#1414ce" points="118.02,-255.01 107.8,-252.19 114.03,-260.76 118.02,-255.01"/>
</a>
</g>
</g>
<!-- 19&#45;&gt;20 -->
<g id="edge45" class="edge">
<title>19&#45;&gt;20</title>
<g id="a_edge45"><a xlink:title="usage">
<path fill="none" stroke="#1414ce" d="M181.98,-287.8C179.47,-269.53 174.31,-240.01 165,-216 161.44,-206.8 156.4,-197.33 151.42,-188.98"/>
<polygon fill="#1414ce" stroke="#1414ce" points="154.36,-187.08 146.11,-180.43 148.41,-190.77 154.36,-187.08"/>
</a>
</g>
</g>
<!-- 8&#45;&gt;4 -->
<g id="edge47" class="edge">
<title>8&#45;&gt;4</title>
<g id="a_edge47"><a xlink:title="usage">
<path fill="none" stroke="#1414ce" d="M1155.43,-143.92C1116.37,-124.07 1048.46,-91.54 987,-72 914.86,-49.06 828.31,-33.89 774.73,-25.86"/>
<polygon fill="#1414ce" stroke="#1414ce" points="775.2,-22.39 764.79,-24.4 774.18,-29.32 775.2,-22.39"/>
</a>
</g>
</g>
<!-- 16&#45;&gt;4 -->
<g id="edge48" class="edge">
<title>16&#45;&gt;4</title>
<g id="a_edge48"><a xlink:title="usage">
<path fill="none" stroke="#1414ce" d="M566.39,-75C597.26,-64.04 640.4,-48.7 673.75,-36.85"/>
<polygon fill="#1414ce" stroke="#1414ce" points="675.07,-40.1 683.32,-33.45 672.73,-33.5 675.07,-40.1"/>
</a>
</g>
</g>
<!-- 20&#45;&gt;12 -->
<g id="edge50" class="edge">
<title>20&#45;&gt;12</title>
<g id="a_edge50"><a xlink:title="usage">
<path fill="none" stroke="#1414ce" d="M117.44,-143.7C109.32,-135.22 99.41,-124.86 90.53,-115.58"/>
<polygon fill="#1414ce" stroke="#1414ce" points="92.81,-112.91 83.37,-108.1 87.76,-117.75 92.81,-112.91"/>
</a>
</g>
</g>
<!-- 20&#45;&gt;20 -->
<g id="edge49" class="edge">
<title>20&#45;&gt;20</title>
<g id="a_edge49"><a xlink:title="usage">
<path fill="none" stroke="#1414ce" d="M167.35,-175.47C177.28,-175.07 185,-170.58 185,-162 185,-156.64 181.98,-152.87 177.3,-150.71"/>
<polygon fill="#1414ce" stroke="#1414ce" points="177.87,-147.25 167.35,-148.53 176.37,-154.09 177.87,-147.25"/>
</a>
</g>
</g>
</g>
</svg>
