<?xml version="1.0" encoding="UTF-8" standalone="no"?>
<!DOCTYPE svg PUBLIC "-//W3C//DTD SVG 1.1//EN"
 "http://www.w3.org/Graphics/SVG/1.1/DTD/svg11.dtd">
<!-- Generated by graphviz version 2.43.0 (0)
 -->
<!-- Title: %3 Pages: 1 -->
<svg width="709pt" height="332pt"
 viewBox="0.00 0.00 709.00 332.00" xmlns="http://www.w3.org/2000/svg" xmlns:xlink="http://www.w3.org/1999/xlink">
<g id="graph0" class="graph" transform="scale(1 1) rotate(0) translate(4 328)">
<title>%3</title>
<polygon fill="transparent" stroke="transparent" points="-4,4 -4,-328 705,-328 705,4 -4,4"/>
<!-- 10 -->
<g id="node1" class="node">
<title>10</title>
<g id="a_node1"><a xlink:title="stdbool.h">
<polygon fill="#ffffff" stroke="black" points="83,-108 0,-108 0,-72 83,-72 83,-108"/>
<text text-anchor="middle" x="41.5" y="-86.3" font-family="Times,serif" font-size="14.00">stdbool.h</text>
</a>
</g>
</g>
<!-- 5 -->
<g id="node2" class="node">
<title>5</title>
<g id="a_node2"><a xlink:title="assert.h">
<polygon fill="#ffffff" stroke="black" points="504.5,-36 430.5,-36 430.5,0 504.5,0 504.5,-36"/>
<text text-anchor="middle" x="467.5" y="-14.3" font-family="Times,serif" font-size="14.00">assert.h</text>
</a>
</g>
</g>
<!-- 12 -->
<g id="node3" class="node">
<title>12</title>
<g id="a_node3"><a xlink:title="utils.h">
<polygon fill="#ffffff" stroke="black" points="268.5,-180 206.5,-180 206.5,-144 268.5,-144 268.5,-180"/>
<text text-anchor="middle" x="237.5" y="-158.3" font-family="Times,serif" font-size="14.00">utils.h</text>
</a>
</g>
</g>
<!-- 2 -->
<g id="node7" class="node">
<title>2</title>
<g id="a_node7"><a xlink:title="stdlib.h">
<polygon fill="#ffffff" stroke="black" points="348,-108 277,-108 277,-72 348,-72 348,-108"/>
<text text-anchor="middle" x="312.5" y="-86.3" font-family="Times,serif" font-size="14.00">stdlib.h</text>
</a>
</g>
</g>
<!-- 12&#45;&gt;2 -->
<g id="edge3" class="edge">
<title>12&#45;&gt;2</title>
<g id="a_edge3"><a xlink:title="include">
<path fill="none" stroke="#1414ce" d="M256.04,-143.7C265.3,-135.05 276.66,-124.45 286.76,-115.03"/>
<polygon fill="#1414ce" stroke="#1414ce" points="289.25,-117.49 294.17,-108.1 284.48,-112.37 289.25,-117.49"/>
</a>
</g>
</g>
<!-- 13 -->
<g id="node10" class="node">
<title>13</title>
<g id="a_node10"><a xlink:title="stddef.h">
<polygon fill="#ffffff" stroke="black" points="258.5,-108 184.5,-108 184.5,-72 258.5,-72 258.5,-108"/>
<text text-anchor="middle" x="221.5" y="-86.3" font-family="Times,serif" font-size="14.00">stddef.h</text>
</a>
</g>
</g>
<!-- 12&#45;&gt;13 -->
<g id="edge1" class="edge">
<title>12&#45;&gt;13</title>
<g id="a_edge1"><a xlink:title="include">
<path fill="none" stroke="#1414ce" d="M233.54,-143.7C231.78,-135.98 229.66,-126.71 227.7,-118.11"/>
<polygon fill="#1414ce" stroke="#1414ce" points="231.05,-117.07 225.41,-108.1 224.23,-118.63 231.05,-117.07"/>
</a>
</g>
</g>
<!-- 14 -->
<g id="node15" class="node">
<title>14</title>
<g id="a_node15"><a xlink:title="stdio.h">
<polygon fill="#ffffff" stroke="black" points="166,-108 101,-108 101,-72 166,-72 166,-108"/>
<text text-anchor="middle" x="133.5" y="-86.3" font-family="Times,serif" font-size="14.00">stdio.h</text>
</a>
</g>
</g>
<!-- 12&#45;&gt;14 -->
<g id="edge2" class="edge">
<title>12&#45;&gt;14</title>
<g id="a_edge2"><a xlink:title="include">
<path fill="none" stroke="#1414ce" d="M212.06,-143.88C198.71,-134.89 182.18,-123.76 167.72,-114.03"/>
<polygon fill="#1414ce" stroke="#1414ce" points="169.29,-110.87 159.04,-108.19 165.38,-116.68 169.29,-110.87"/>
</a>
</g>
</g>
<!-- 15 -->
<g id="node4" class="node">
<title>15</title>
<g id="a_node4"><a xlink:title="synclist.h">
<polygon fill="#ffffff" stroke="black" points="202,-252 117,-252 117,-216 202,-216 202,-252"/>
<text text-anchor="middle" x="159.5" y="-230.3" font-family="Times,serif" font-size="14.00">synclist.h</text>
</a>
</g>
</g>
<!-- 9 -->
<g id="node5" class="node">
<title>9</title>
<g id="a_node5"><a xlink:title="list.h">
<polygon fill="#ffffff" stroke="black" points="68.5,-180 14.5,-180 14.5,-144 68.5,-144 68.5,-180"/>
<text text-anchor="middle" x="41.5" y="-158.3" font-family="Times,serif" font-size="14.00">list.h</text>
</a>
</g>
</g>
<!-- 15&#45;&gt;9 -->
<g id="edge5" class="edge">
<title>15&#45;&gt;9</title>
<g id="a_edge5"><a xlink:title="include">
<path fill="none" stroke="#1414ce" d="M130.63,-215.88C114.74,-206.45 94.87,-194.66 77.92,-184.61"/>
<polygon fill="#1414ce" stroke="#1414ce" points="79.24,-181.32 68.85,-179.23 75.67,-187.34 79.24,-181.32"/>
</a>
</g>
</g>
<!-- 16 -->
<g id="node14" class="node">
<title>16</title>
<g id="a_node14"><a xlink:title="smp.h">
<polygon fill="#ffffff" stroke="black" points="146.5,-180 86.5,-180 86.5,-144 146.5,-144 146.5,-180"/>
<text text-anchor="middle" x="116.5" y="-158.3" font-family="Times,serif" font-size="14.00">smp.h</text>
</a>
</g>
</g>
<!-- 15&#45;&gt;16 -->
<g id="edge6" class="edge">
<title>15&#45;&gt;16</title>
<g id="a_edge6"><a xlink:title="include">
<path fill="none" stroke="#1414ce" d="M148.87,-215.7C143.87,-207.56 137.81,-197.69 132.29,-188.7"/>
<polygon fill="#1414ce" stroke="#1414ce" points="135.22,-186.79 127.01,-180.1 129.26,-190.46 135.22,-186.79"/>
</a>
</g>
</g>
<!-- 15&#45;&gt;14 -->
<g id="edge4" class="edge">
<title>15&#45;&gt;14</title>
<g id="a_edge4"><a xlink:title="include">
<path fill="none" stroke="#1414ce" d="M160.48,-215.71C161.1,-197.6 160.95,-168.46 155.5,-144 153.51,-135.05 150.11,-125.69 146.56,-117.37"/>
<polygon fill="#1414ce" stroke="#1414ce" points="149.72,-115.85 142.42,-108.16 143.33,-118.72 149.72,-115.85"/>
</a>
</g>
</g>
<!-- 9&#45;&gt;10 -->
<g id="edge7" class="edge">
<title>9&#45;&gt;10</title>
<g id="a_edge7"><a xlink:title="include">
<path fill="none" stroke="#1414ce" d="M41.5,-143.7C41.5,-135.98 41.5,-126.71 41.5,-118.11"/>
<polygon fill="#1414ce" stroke="#1414ce" points="45,-118.1 41.5,-108.1 38,-118.1 45,-118.1"/>
</a>
</g>
</g>
<!-- 8 -->
<g id="node6" class="node">
<title>8</title>
<g id="a_node6"><a xlink:title="stdint.h">
<polygon fill="#ffffff" stroke="black" points="412.5,-36 340.5,-36 340.5,0 412.5,0 412.5,-36"/>
<text text-anchor="middle" x="376.5" y="-14.3" font-family="Times,serif" font-size="14.00">stdint.h</text>
</a>
</g>
</g>
<!-- 11 -->
<g id="node8" class="node">
<title>11</title>
<g id="a_node8"><a xlink:title="memory.h">
<polygon fill="#ffffff" stroke="black" points="416.5,-252 330.5,-252 330.5,-216 416.5,-216 416.5,-252"/>
<text text-anchor="middle" x="373.5" y="-230.3" font-family="Times,serif" font-size="14.00">memory.h</text>
</a>
</g>
</g>
<!-- 11&#45;&gt;12 -->
<g id="edge12" class="edge">
<title>11&#45;&gt;12</title>
<g id="a_edge12"><a xlink:title="include">
<path fill="none" stroke="#1414ce" d="M340.23,-215.88C321.36,-206.16 297.61,-193.94 277.7,-183.69"/>
<polygon fill="#1414ce" stroke="#1414ce" points="279.05,-180.45 268.56,-178.99 275.85,-186.68 279.05,-180.45"/>
</a>
</g>
</g>
<!-- 11&#45;&gt;8 -->
<g id="edge8" class="edge">
<title>11&#45;&gt;8</title>
<g id="a_edge8"><a xlink:title="include">
<path fill="none" stroke="#1414ce" d="M373.74,-215.85C374.26,-178.83 375.49,-91.18 376.12,-46.39"/>
<polygon fill="#1414ce" stroke="#1414ce" points="379.62,-46.28 376.26,-36.23 372.62,-46.18 379.62,-46.28"/>
</a>
</g>
</g>
<!-- 11&#45;&gt;2 -->
<g id="edge9" class="edge">
<title>11&#45;&gt;2</title>
<g id="a_edge9"><a xlink:title="include">
<path fill="none" stroke="#1414ce" d="M366.14,-215.87C355.65,-191.46 336.31,-146.43 323.94,-117.64"/>
<polygon fill="#1414ce" stroke="#1414ce" points="327.05,-116 319.88,-108.19 320.62,-118.76 327.05,-116"/>
</a>
</g>
</g>
<!-- 3 -->
<g id="node11" class="node">
<title>3</title>
<g id="a_node11"><a xlink:title="erl_nif.h">
<polygon fill="#ffffff" stroke="black" points="516.5,-180 442.5,-180 442.5,-144 516.5,-144 516.5,-180"/>
<text text-anchor="middle" x="479.5" y="-158.3" font-family="Times,serif" font-size="14.00">erl_nif.h</text>
</a>
</g>
</g>
<!-- 11&#45;&gt;3 -->
<g id="edge10" class="edge">
<title>11&#45;&gt;3</title>
<g id="a_edge10"><a xlink:title="include">
<path fill="none" stroke="#1414ce" d="M399.43,-215.88C413.16,-206.81 430.21,-195.55 445.04,-185.76"/>
<polygon fill="#1414ce" stroke="#1414ce" points="447.05,-188.62 453.47,-180.19 443.2,-182.78 447.05,-188.62"/>
</a>
</g>
</g>
<!-- 4 -->
<g id="node13" class="node">
<title>4</title>
<g id="a_node13"><a xlink:title="term_typedef.h">
<polygon fill="#ffffff" stroke="black" points="536,-108 411,-108 411,-72 536,-72 536,-108"/>
<text text-anchor="middle" x="473.5" y="-86.3" font-family="Times,serif" font-size="14.00">term_typedef.h</text>
</a>
</g>
</g>
<!-- 11&#45;&gt;4 -->
<g id="edge11" class="edge">
<title>11&#45;&gt;4</title>
<g id="a_edge11"><a xlink:title="include">
<path fill="none" stroke="#1414ce" d="M384.73,-215.75C396.59,-197.69 415.96,-168.57 433.5,-144 440.1,-134.76 447.54,-124.78 454.2,-116"/>
<polygon fill="#1414ce" stroke="#1414ce" points="457.01,-118.09 460.3,-108.01 451.45,-113.84 457.01,-118.09"/>
</a>
</g>
</g>
<!-- 1 -->
<g id="node9" class="node">
<title>1</title>
<g id="a_node9"><a xlink:title="/__w/AtomVM/AtomVM/src/libAtomVM/resources.h">
<polygon fill="#bfbfbf" stroke="black" points="489,-324 112,-324 112,-288 489,-288 489,-324"/>
<text text-anchor="middle" x="300.5" y="-302.3" font-family="Times,serif" font-size="14.00">/__w/AtomVM/AtomVM/src/libAtomVM/resources.h</text>
</a>
</g>
</g>
<!-- 1&#45;&gt;15 -->
<g id="edge17" class="edge">
<title>1&#45;&gt;15</title>
<g id="a_edge17"><a xlink:title="include">
<path fill="none" stroke="#1414ce" d="M266.01,-287.88C247.06,-278.47 223.37,-266.71 203.14,-256.67"/>
<polygon fill="#1414ce" stroke="#1414ce" points="204.64,-253.5 194.13,-252.19 201.53,-259.77 204.64,-253.5"/>
</a>
</g>
</g>
<!-- 1&#45;&gt;9 -->
<g id="edge15" class="edge">
<title>1&#45;&gt;9</title>
<g id="a_edge15"><a xlink:title="include">
<path fill="none" stroke="#1414ce" d="M189.82,-287.98C161.33,-280.13 131.87,-268.69 107.5,-252 84.21,-236.05 65.93,-209.14 54.57,-189.08"/>
<polygon fill="#1414ce" stroke="#1414ce" points="57.56,-187.24 49.71,-180.13 51.41,-190.59 57.56,-187.24"/>
</a>
</g>
</g>
<!-- 1&#45;&gt;2 -->
<g id="edge13" class="edge">
<title>1&#45;&gt;2</title>
<g id="a_edge13"><a xlink:title="include">
<path fill="none" stroke="#1414ce" d="M301.46,-287.85C303.54,-250.83 308.45,-163.18 310.96,-118.39"/>
<polygon fill="#1414ce" stroke="#1414ce" points="314.47,-118.41 311.53,-108.23 307.48,-118.02 314.47,-118.41"/>
</a>
</g>
</g>
<!-- 1&#45;&gt;11 -->
<g id="edge16" class="edge">
<title>1&#45;&gt;11</title>
<g id="a_edge16"><a xlink:title="include">
<path fill="none" stroke="#1414ce" d="M318.54,-287.7C327.56,-279.05 338.62,-268.45 348.44,-259.03"/>
<polygon fill="#1414ce" stroke="#1414ce" points="350.87,-261.55 355.66,-252.1 346.02,-256.5 350.87,-261.55"/>
</a>
</g>
</g>
<!-- 1&#45;&gt;3 -->
<g id="edge14" class="edge">
<title>1&#45;&gt;3</title>
<g id="a_edge14"><a xlink:title="include">
<path fill="none" stroke="#1414ce" d="M361.08,-287.98C383.09,-279.68 407.05,-267.96 425.5,-252 445.14,-235.01 459.75,-209.04 468.78,-189.54"/>
<polygon fill="#1414ce" stroke="#1414ce" points="472.04,-190.84 472.88,-180.28 465.64,-188 472.04,-190.84"/>
</a>
</g>
</g>
<!-- 3&#45;&gt;4 -->
<g id="edge18" class="edge">
<title>3&#45;&gt;4</title>
<g id="a_edge18"><a xlink:title="include">
<path fill="none" stroke="#1414ce" d="M478.02,-143.7C477.36,-135.98 476.56,-126.71 475.82,-118.11"/>
<polygon fill="#1414ce" stroke="#1414ce" points="479.31,-117.77 474.97,-108.1 472.33,-118.37 479.31,-117.77"/>
</a>
</g>
</g>
<!-- 6 -->
<g id="node12" class="node">
<title>6</title>
<g id="a_node12"><a xlink:title="limits.h">
<polygon fill="#ffffff" stroke="black" points="594,-36 523,-36 523,0 594,0 594,-36"/>
<text text-anchor="middle" x="558.5" y="-14.3" font-family="Times,serif" font-size="14.00">limits.h</text>
</a>
</g>
</g>
<!-- 4&#45;&gt;5 -->
<g id="edge19" class="edge">
<title>4&#45;&gt;5</title>
<g id="a_edge19"><a xlink:title="include">
<path fill="none" stroke="#1414ce" d="M472.02,-71.7C471.36,-63.98 470.56,-54.71 469.82,-46.11"/>
<polygon fill="#1414ce" stroke="#1414ce" points="473.31,-45.77 468.97,-36.1 466.33,-46.37 473.31,-45.77"/>
</a>
</g>
</g>
<!-- 4&#45;&gt;8 -->
<g id="edge22" class="edge">
<title>4&#45;&gt;8</title>
<g id="a_edge22"><a xlink:title="include">
<path fill="none" stroke="#1414ce" d="M449.52,-71.7C437.19,-62.8 421.98,-51.82 408.65,-42.2"/>
<polygon fill="#1414ce" stroke="#1414ce" points="410.36,-39.12 400.2,-36.1 406.26,-44.79 410.36,-39.12"/>
</a>
</g>
</g>
<!-- 4&#45;&gt;6 -->
<g id="edge20" class="edge">
<title>4&#45;&gt;6</title>
<g id="a_edge20"><a xlink:title="include">
<path fill="none" stroke="#1414ce" d="M494.51,-71.7C505.22,-62.88 518.39,-52.03 530,-42.47"/>
<polygon fill="#1414ce" stroke="#1414ce" points="532.24,-45.16 537.73,-36.1 527.79,-39.76 532.24,-45.16"/>
</a>
</g>
</g>
<!-- 7 -->
<g id="node16" class="node">
<title>7</title>
<g id="a_node16"><a xlink:title="inttypes.h">
<polygon fill="#ffffff" stroke="black" points="701,-36 612,-36 612,0 701,0 701,-36"/>
<text text-anchor="middle" x="656.5" y="-14.3" font-family="Times,serif" font-size="14.00">inttypes.h</text>
</a>
</g>
</g>
<!-- 4&#45;&gt;7 -->
<g id="edge21" class="edge">
<title>4&#45;&gt;7</title>
<g id="a_edge21"><a xlink:title="include">
<path fill="none" stroke="#1414ce" d="M518.27,-71.88C543.62,-62.18 575.51,-49.98 602.27,-39.74"/>
<polygon fill="#1414ce" stroke="#1414ce" points="603.79,-42.91 611.88,-36.07 601.29,-36.37 603.79,-42.91"/>
</a>
</g>
</g>
<!-- 16&#45;&gt;10 -->
<g id="edge23" class="edge">
<title>16&#45;&gt;10</title>
<g id="a_edge23"><a xlink:title="include">
<path fill="none" stroke="#1414ce" d="M97.96,-143.7C88.7,-135.05 77.34,-124.45 67.24,-115.03"/>
<polygon fill="#1414ce" stroke="#1414ce" points="69.52,-112.37 59.83,-108.1 64.75,-117.49 69.52,-112.37"/>
</a>
</g>
</g>
</g>
</svg>
