<?xml version="1.0" encoding="UTF-8" standalone="no"?>
<!DOCTYPE svg PUBLIC "-//W3C//DTD SVG 1.1//EN"
 "http://www.w3.org/Graphics/SVG/1.1/DTD/svg11.dtd">
<!-- Generated by graphviz version 2.43.0 (0)
 -->
<!-- Title: %3 Pages: 1 -->
<svg width="1382pt" height="764pt"
 viewBox="0.00 0.00 1382.08 764.00" xmlns="http://www.w3.org/2000/svg" xmlns:xlink="http://www.w3.org/1999/xlink">
<g id="graph0" class="graph" transform="scale(1 1) rotate(0) translate(4 760)">
<title>%3</title>
<polygon fill="transparent" stroke="transparent" points="-4,4 -4,-760 1378.08,-760 1378.08,4 -4,4"/>
<!-- 8 -->
<g id="node1" class="node">
<title>8</title>
<g id="a_node1"><a xlink:title="stdbool.h">
<polygon fill="#ffffff" stroke="black" points="969,-108 886,-108 886,-72 969,-72 969,-108"/>
<text text-anchor="middle" x="927.5" y="-86.3" font-family="Times,serif" font-size="14.00">stdbool.h</text>
</a>
</g>
</g>
<!-- 25 -->
<g id="node2" class="node">
<title>25</title>
<g id="a_node2"><a xlink:title="refc_binary.h">
<polygon fill="#ffffff" stroke="black" points="803.5,-396 695.5,-396 695.5,-360 803.5,-360 803.5,-396"/>
<text text-anchor="middle" x="749.5" y="-374.3" font-family="Times,serif" font-size="14.00">refc_binary.h</text>
</a>
</g>
</g>
<!-- 25&#45;&gt;8 -->
<g id="edge1" class="edge">
<title>25&#45;&gt;8</title>
<g id="a_edge1"><a xlink:title="include">
<path fill="none" stroke="#1414ce" d="M755.84,-359.82C767.35,-329.56 793.42,-265.3 824.5,-216 848.18,-178.44 881.84,-139.66 904.15,-115.45"/>
<polygon fill="#1414ce" stroke="#1414ce" points="906.72,-117.83 910.97,-108.12 901.6,-113.06 906.72,-117.83"/>
</a>
</g>
</g>
<!-- 15 -->
<g id="node8" class="node">
<title>15</title>
<g id="a_node8"><a xlink:title="list.h">
<polygon fill="#ffffff" stroke="black" points="954.5,-180 900.5,-180 900.5,-144 954.5,-144 954.5,-180"/>
<text text-anchor="middle" x="927.5" y="-158.3" font-family="Times,serif" font-size="14.00">list.h</text>
</a>
</g>
</g>
<!-- 25&#45;&gt;15 -->
<g id="edge3" class="edge">
<title>25&#45;&gt;15</title>
<g id="a_edge3"><a xlink:title="include">
<path fill="none" stroke="#1414ce" d="M782.25,-359.91C796.15,-351.03 811.24,-338.89 820.5,-324 846.28,-282.55 812.8,-256.2 840.5,-216 852.81,-198.14 873.28,-185.23 891.28,-176.63"/>
<polygon fill="#1414ce" stroke="#1414ce" points="892.73,-179.81 900.41,-172.52 889.86,-173.43 892.73,-179.81"/>
</a>
</g>
</g>
<!-- 4 -->
<g id="node10" class="node">
<title>4</title>
<g id="a_node10"><a xlink:title="stdlib.h">
<polygon fill="#ffffff" stroke="black" points="627,-108 556,-108 556,-72 627,-72 627,-108"/>
<text text-anchor="middle" x="591.5" y="-86.3" font-family="Times,serif" font-size="14.00">stdlib.h</text>
</a>
</g>
</g>
<!-- 25&#45;&gt;4 -->
<g id="edge2" class="edge">
<title>25&#45;&gt;4</title>
<g id="a_edge2"><a xlink:title="include">
<path fill="none" stroke="#1414ce" d="M743.02,-359.96C735.93,-341.81 723.93,-312.4 711.5,-288 677.68,-221.57 664.74,-207.38 625.5,-144 619.95,-135.03 613.75,-125.3 608.18,-116.64"/>
<polygon fill="#1414ce" stroke="#1414ce" points="611.03,-114.6 602.66,-108.1 605.15,-118.4 611.03,-114.6"/>
</a>
</g>
</g>
<!-- 26 -->
<g id="node13" class="node">
<title>26</title>
<g id="a_node13"><a xlink:title="resources.h">
<polygon fill="#ffffff" stroke="black" points="702.5,-324 602.5,-324 602.5,-288 702.5,-288 702.5,-324"/>
<text text-anchor="middle" x="652.5" y="-302.3" font-family="Times,serif" font-size="14.00">resources.h</text>
</a>
</g>
</g>
<!-- 25&#45;&gt;26 -->
<g id="edge4" class="edge">
<title>25&#45;&gt;26</title>
<g id="a_edge4"><a xlink:title="include">
<path fill="none" stroke="#1414ce" d="M725.52,-359.7C713.19,-350.8 697.98,-339.82 684.65,-330.2"/>
<polygon fill="#1414ce" stroke="#1414ce" points="686.36,-327.12 676.2,-324.1 682.26,-332.79 686.36,-327.12"/>
</a>
</g>
</g>
<!-- 1 -->
<g id="node3" class="node">
<title>1</title>
<g id="a_node3"><a xlink:title="/__w/AtomVM/AtomVM/src/libAtomVM/nifs.h">
<polygon fill="#bfbfbf" stroke="black" points="1232,-756 899,-756 899,-720 1232,-720 1232,-756"/>
<text text-anchor="middle" x="1065.5" y="-734.3" font-family="Times,serif" font-size="14.00">/__w/AtomVM/AtomVM/src/libAtomVM/nifs.h</text>
</a>
</g>
</g>
<!-- 2 -->
<g id="node4" class="node">
<title>2</title>
<g id="a_node4"><a xlink:title="atom.h">
<polygon fill="#ffffff" stroke="black" points="1216.5,-468 1150.5,-468 1150.5,-432 1216.5,-432 1216.5,-468"/>
<text text-anchor="middle" x="1183.5" y="-446.3" font-family="Times,serif" font-size="14.00">atom.h</text>
</a>
</g>
</g>
<!-- 1&#45;&gt;2 -->
<g id="edge5" class="edge">
<title>1&#45;&gt;2</title>
<g id="a_edge5"><a xlink:title="include">
<path fill="none" stroke="#1414ce" d="M1084.97,-719.61C1095.19,-709.83 1107.44,-696.98 1116.5,-684 1157.23,-625.65 1170.54,-609.35 1186.5,-540 1191.17,-519.69 1190.09,-496.1 1188.02,-478.31"/>
<polygon fill="#1414ce" stroke="#1414ce" points="1191.48,-477.76 1186.69,-468.31 1184.54,-478.69 1191.48,-477.76"/>
</a>
</g>
</g>
<!-- 5 -->
<g id="node11" class="node">
<title>5</title>
<g id="a_node11"><a xlink:title="context.h">
<polygon fill="#ffffff" stroke="black" points="1107,-684 1024,-684 1024,-648 1107,-648 1107,-684"/>
<text text-anchor="middle" x="1065.5" y="-662.3" font-family="Times,serif" font-size="14.00">context.h</text>
</a>
</g>
</g>
<!-- 1&#45;&gt;5 -->
<g id="edge6" class="edge">
<title>1&#45;&gt;5</title>
<g id="a_edge6"><a xlink:title="include">
<path fill="none" stroke="#1414ce" d="M1065.5,-719.7C1065.5,-711.98 1065.5,-702.71 1065.5,-694.11"/>
<polygon fill="#1414ce" stroke="#1414ce" points="1069,-694.1 1065.5,-684.1 1062,-694.1 1069,-694.1"/>
</a>
</g>
</g>
<!-- 29 -->
<g id="node17" class="node">
<title>29</title>
<g id="a_node17"><a xlink:title="exportedfunction.h">
<polygon fill="#ffffff" stroke="black" points="318.5,-612 166.5,-612 166.5,-576 318.5,-576 318.5,-612"/>
<text text-anchor="middle" x="242.5" y="-590.3" font-family="Times,serif" font-size="14.00">exportedfunction.h</text>
</a>
</g>
</g>
<!-- 1&#45;&gt;29 -->
<g id="edge7" class="edge">
<title>1&#45;&gt;29</title>
<g id="a_edge7"><a xlink:title="include">
<path fill="none" stroke="#1414ce" d="M962.22,-719.98C820.21,-696.45 556.76,-652.3 332.5,-612 331.22,-611.77 329.94,-611.54 328.64,-611.3"/>
<polygon fill="#1414ce" stroke="#1414ce" points="329.06,-607.82 318.59,-609.47 327.8,-614.71 329.06,-607.82"/>
</a>
</g>
</g>
<!-- 3 -->
<g id="node9" class="node">
<title>3</title>
<g id="a_node9"><a xlink:title="stdint.h">
<polygon fill="#ffffff" stroke="black" points="608.5,-36 536.5,-36 536.5,0 608.5,0 608.5,-36"/>
<text text-anchor="middle" x="572.5" y="-14.3" font-family="Times,serif" font-size="14.00">stdint.h</text>
</a>
</g>
</g>
<!-- 2&#45;&gt;3 -->
<g id="edge8" class="edge">
<title>2&#45;&gt;3</title>
<g id="a_edge8"><a xlink:title="include">
<path fill="none" stroke="#1414ce" d="M1201.78,-431.92C1234.24,-400.2 1300.82,-328.43 1325.5,-252 1342.78,-198.47 1304.01,-178.4 1259.5,-144 1205.38,-102.18 1189.01,-91.65 1123.5,-72 1029.33,-43.75 733.7,-26.8 618.81,-21.13"/>
<polygon fill="#1414ce" stroke="#1414ce" points="618.75,-17.63 608.59,-20.64 618.41,-24.62 618.75,-17.63"/>
</a>
</g>
</g>
<!-- 2&#45;&gt;4 -->
<g id="edge9" class="edge">
<title>2&#45;&gt;4</title>
<g id="a_edge9"><a xlink:title="include">
<path fill="none" stroke="#1414ce" d="M1176.89,-431.79C1155.44,-378.55 1082.23,-215.77 963.5,-144 909.45,-111.33 724.35,-97.76 637.36,-93.09"/>
<polygon fill="#1414ce" stroke="#1414ce" points="637.42,-89.59 627.25,-92.56 637.06,-96.58 637.42,-89.59"/>
</a>
</g>
</g>
<!-- 11 -->
<g id="node5" class="node">
<title>11</title>
<g id="a_node5"><a xlink:title="assert.h">
<polygon fill="#ffffff" stroke="black" points="270.5,-36 196.5,-36 196.5,0 270.5,0 270.5,-36"/>
<text text-anchor="middle" x="233.5" y="-14.3" font-family="Times,serif" font-size="14.00">assert.h</text>
</a>
</g>
</g>
<!-- 23 -->
<g id="node6" class="node">
<title>23</title>
<g id="a_node6"><a xlink:title="utils.h">
<polygon fill="#ffffff" stroke="black" points="372.5,-180 310.5,-180 310.5,-144 372.5,-144 372.5,-180"/>
<text text-anchor="middle" x="341.5" y="-158.3" font-family="Times,serif" font-size="14.00">utils.h</text>
</a>
</g>
</g>
<!-- 23&#45;&gt;4 -->
<g id="edge12" class="edge">
<title>23&#45;&gt;4</title>
<g id="a_edge12"><a xlink:title="include">
<path fill="none" stroke="#1414ce" d="M372.66,-152.28C416.34,-140.04 496.06,-117.72 546.28,-103.66"/>
<polygon fill="#1414ce" stroke="#1414ce" points="547.22,-107.03 555.91,-100.97 545.34,-100.29 547.22,-107.03"/>
</a>
</g>
</g>
<!-- 24 -->
<g id="node15" class="node">
<title>24</title>
<g id="a_node15"><a xlink:title="stddef.h">
<polygon fill="#ffffff" stroke="black" points="288.5,-108 214.5,-108 214.5,-72 288.5,-72 288.5,-108"/>
<text text-anchor="middle" x="251.5" y="-86.3" font-family="Times,serif" font-size="14.00">stddef.h</text>
</a>
</g>
</g>
<!-- 23&#45;&gt;24 -->
<g id="edge10" class="edge">
<title>23&#45;&gt;24</title>
<g id="a_edge10"><a xlink:title="include">
<path fill="none" stroke="#1414ce" d="M319.25,-143.7C307.92,-134.88 293.97,-124.03 281.68,-114.47"/>
<polygon fill="#1414ce" stroke="#1414ce" points="283.53,-111.48 273.49,-108.1 279.24,-117.01 283.53,-111.48"/>
</a>
</g>
</g>
<!-- 17 -->
<g id="node27" class="node">
<title>17</title>
<g id="a_node27"><a xlink:title="stdio.h">
<polygon fill="#ffffff" stroke="black" points="372,-108 307,-108 307,-72 372,-72 372,-108"/>
<text text-anchor="middle" x="339.5" y="-86.3" font-family="Times,serif" font-size="14.00">stdio.h</text>
</a>
</g>
</g>
<!-- 23&#45;&gt;17 -->
<g id="edge11" class="edge">
<title>23&#45;&gt;17</title>
<g id="a_edge11"><a xlink:title="include">
<path fill="none" stroke="#1414ce" d="M341.01,-143.7C340.79,-135.98 340.52,-126.71 340.27,-118.11"/>
<polygon fill="#1414ce" stroke="#1414ce" points="343.77,-118 339.99,-108.1 336.78,-118.2 343.77,-118"/>
</a>
</g>
</g>
<!-- 16 -->
<g id="node7" class="node">
<title>16</title>
<g id="a_node7"><a xlink:title="synclist.h">
<polygon fill="#ffffff" stroke="black" points="934,-252 849,-252 849,-216 934,-216 934,-252"/>
<text text-anchor="middle" x="891.5" y="-230.3" font-family="Times,serif" font-size="14.00">synclist.h</text>
</a>
</g>
</g>
<!-- 16&#45;&gt;15 -->
<g id="edge14" class="edge">
<title>16&#45;&gt;15</title>
<g id="a_edge14"><a xlink:title="include">
<path fill="none" stroke="#1414ce" d="M900.4,-215.7C904.5,-207.73 909.45,-198.1 913.99,-189.26"/>
<polygon fill="#1414ce" stroke="#1414ce" points="917.24,-190.6 918.7,-180.1 911.02,-187.4 917.24,-190.6"/>
</a>
</g>
</g>
<!-- 18 -->
<g id="node24" class="node">
<title>18</title>
<g id="a_node24"><a xlink:title="smp.h">
<polygon fill="#ffffff" stroke="black" points="1162.5,-180 1102.5,-180 1102.5,-144 1162.5,-144 1162.5,-180"/>
<text text-anchor="middle" x="1132.5" y="-158.3" font-family="Times,serif" font-size="14.00">smp.h</text>
</a>
</g>
</g>
<!-- 16&#45;&gt;18 -->
<g id="edge15" class="edge">
<title>16&#45;&gt;18</title>
<g id="a_edge15"><a xlink:title="include">
<path fill="none" stroke="#1414ce" d="M934.03,-220.65C978.79,-207.65 1048.69,-187.34 1092.48,-174.63"/>
<polygon fill="#1414ce" stroke="#1414ce" points="1093.58,-177.95 1102.21,-171.8 1091.63,-171.23 1093.58,-177.95"/>
</a>
</g>
</g>
<!-- 16&#45;&gt;17 -->
<g id="edge13" class="edge">
<title>16&#45;&gt;17</title>
<g id="a_edge13"><a xlink:title="include">
<path fill="none" stroke="#1414ce" d="M848.64,-221.98C745.56,-195.46 484.7,-128.35 381.99,-101.93"/>
<polygon fill="#1414ce" stroke="#1414ce" points="382.82,-98.53 372.26,-99.43 381.08,-105.31 382.82,-98.53"/>
</a>
</g>
</g>
<!-- 15&#45;&gt;8 -->
<g id="edge16" class="edge">
<title>15&#45;&gt;8</title>
<g id="a_edge16"><a xlink:title="include">
<path fill="none" stroke="#1414ce" d="M927.5,-143.7C927.5,-135.98 927.5,-126.71 927.5,-118.11"/>
<polygon fill="#1414ce" stroke="#1414ce" points="931,-118.1 927.5,-108.1 924,-118.1 931,-118.1"/>
</a>
</g>
</g>
<!-- 5&#45;&gt;15 -->
<g id="edge18" class="edge">
<title>5&#45;&gt;15</title>
<g id="a_edge18"><a xlink:title="include">
<path fill="none" stroke="#1414ce" d="M1092.91,-647.93C1148.26,-611.15 1264.86,-520.56 1225.5,-432 1171.02,-309.43 1030.04,-219.13 963.4,-181.84"/>
<polygon fill="#1414ce" stroke="#1414ce" points="964.96,-178.7 954.51,-176.94 961.58,-184.83 964.96,-178.7"/>
</a>
</g>
</g>
<!-- 19 -->
<g id="node14" class="node">
<title>19</title>
<g id="a_node14"><a xlink:title="term.h">
<polygon fill="#ffffff" stroke="black" points="379,-468 314,-468 314,-432 379,-432 379,-468"/>
<text text-anchor="middle" x="346.5" y="-446.3" font-family="Times,serif" font-size="14.00">term.h</text>
</a>
</g>
</g>
<!-- 5&#45;&gt;19 -->
<g id="edge21" class="edge">
<title>5&#45;&gt;19</title>
<g id="a_edge21"><a xlink:title="include">
<path fill="none" stroke="#1414ce" d="M1023.9,-665.84C942.95,-666.24 759.59,-661.08 615.5,-612 520.73,-579.72 423.26,-510.7 375.9,-474.41"/>
<polygon fill="#1414ce" stroke="#1414ce" points="377.98,-471.59 367.93,-468.24 373.7,-477.12 377.98,-471.59"/>
</a>
</g>
</g>
<!-- 6 -->
<g id="node23" class="node">
<title>6</title>
<g id="a_node23"><a xlink:title="globalcontext.h">
<polygon fill="#ffffff" stroke="black" points="1024,-612 897,-612 897,-576 1024,-576 1024,-612"/>
<text text-anchor="middle" x="960.5" y="-590.3" font-family="Times,serif" font-size="14.00">globalcontext.h</text>
</a>
</g>
</g>
<!-- 5&#45;&gt;6 -->
<g id="edge17" class="edge">
<title>5&#45;&gt;6</title>
<g id="a_edge17"><a xlink:title="include">
<path fill="none" stroke="#1414ce" d="M1039.81,-647.88C1026.21,-638.81 1009.33,-627.55 994.64,-617.76"/>
<polygon fill="#1414ce" stroke="#1414ce" points="996.55,-614.82 986.28,-612.19 992.66,-620.65 996.55,-614.82"/>
</a>
</g>
</g>
<!-- 5&#45;&gt;18 -->
<g id="edge20" class="edge">
<title>5&#45;&gt;18</title>
<g id="a_edge20"><a xlink:title="include">
<path fill="none" stroke="#1414ce" d="M1107.15,-659.7C1167.85,-649.32 1277.14,-619.87 1311.5,-540 1341.56,-470.13 1201.9,-261.27 1150.7,-188.41"/>
<polygon fill="#1414ce" stroke="#1414ce" points="1153.54,-186.37 1144.91,-180.22 1147.82,-190.4 1153.54,-186.37"/>
</a>
</g>
</g>
<!-- 28 -->
<g id="node25" class="node">
<title>28</title>
<g id="a_node25"><a xlink:title="timer_list.h">
<polygon fill="#ffffff" stroke="black" points="1316.5,-252 1218.5,-252 1218.5,-216 1316.5,-216 1316.5,-252"/>
<text text-anchor="middle" x="1267.5" y="-230.3" font-family="Times,serif" font-size="14.00">timer_list.h</text>
</a>
</g>
</g>
<!-- 5&#45;&gt;28 -->
<g id="edge22" class="edge">
<title>5&#45;&gt;28</title>
<g id="a_edge22"><a xlink:title="include">
<path fill="none" stroke="#1414ce" d="M1107.08,-662.58C1177.21,-657.65 1314.78,-644.08 1349.5,-612 1379.59,-584.2 1373.5,-563.97 1373.5,-523 1373.5,-523 1373.5,-523 1373.5,-377 1373.5,-327.3 1331.28,-283.77 1300.13,-258.42"/>
<polygon fill="#1414ce" stroke="#1414ce" points="1302.1,-255.52 1292.08,-252.07 1297.77,-261.01 1302.1,-255.52"/>
</a>
</g>
</g>
<!-- 27 -->
<g id="node26" class="node">
<title>27</title>
<g id="a_node26"><a xlink:title="mailbox.h">
<polygon fill="#ffffff" stroke="black" points="564.5,-252 478.5,-252 478.5,-216 564.5,-216 564.5,-252"/>
<text text-anchor="middle" x="521.5" y="-230.3" font-family="Times,serif" font-size="14.00">mailbox.h</text>
</a>
</g>
</g>
<!-- 5&#45;&gt;27 -->
<g id="edge19" class="edge">
<title>5&#45;&gt;27</title>
<g id="a_edge19"><a xlink:title="include">
<path fill="none" stroke="#1414ce" d="M1023.69,-660.44C914.57,-647.38 629.5,-605.39 629.5,-523 629.5,-523 629.5,-523 629.5,-449 629.5,-384.66 584.58,-381.89 556.5,-324 546.58,-303.55 537.26,-279.52 530.74,-261.59"/>
<polygon fill="#1414ce" stroke="#1414ce" points="533.99,-260.3 527.32,-252.06 527.4,-262.66 533.99,-260.3"/>
</a>
</g>
</g>
<!-- 22 -->
<g id="node12" class="node">
<title>22</title>
<g id="a_node12"><a xlink:title="memory.h">
<polygon fill="#ffffff" stroke="black" points="384.5,-252 298.5,-252 298.5,-216 384.5,-216 384.5,-252"/>
<text text-anchor="middle" x="341.5" y="-230.3" font-family="Times,serif" font-size="14.00">memory.h</text>
</a>
</g>
</g>
<!-- 22&#45;&gt;23 -->
<g id="edge27" class="edge">
<title>22&#45;&gt;23</title>
<g id="a_edge27"><a xlink:title="include">
<path fill="none" stroke="#1414ce" d="M341.5,-215.7C341.5,-207.98 341.5,-198.71 341.5,-190.11"/>
<polygon fill="#1414ce" stroke="#1414ce" points="345,-190.1 341.5,-180.1 338,-190.1 345,-190.1"/>
</a>
</g>
</g>
<!-- 22&#45;&gt;3 -->
<g id="edge23" class="edge">
<title>22&#45;&gt;3</title>
<g id="a_edge23"><a xlink:title="include">
<path fill="none" stroke="#1414ce" d="M356.46,-215.67C364.57,-205.69 374.37,-192.66 381.5,-180 406.84,-134.98 387.33,-107.89 424.5,-72 452.14,-45.31 494.13,-31.95 526.33,-25.33"/>
<polygon fill="#1414ce" stroke="#1414ce" points="527.25,-28.72 536.41,-23.41 525.94,-21.84 527.25,-28.72"/>
</a>
</g>
</g>
<!-- 22&#45;&gt;4 -->
<g id="edge24" class="edge">
<title>22&#45;&gt;4</title>
<g id="a_edge24"><a xlink:title="include">
<path fill="none" stroke="#1414ce" d="M371.66,-215.87C416.89,-190.18 502.33,-141.65 552.33,-113.25"/>
<polygon fill="#1414ce" stroke="#1414ce" points="554.27,-116.17 561.24,-108.19 550.81,-110.08 554.27,-116.17"/>
</a>
</g>
</g>
<!-- 9 -->
<g id="node16" class="node">
<title>9</title>
<g id="a_node16"><a xlink:title="erl_nif.h">
<polygon fill="#ffffff" stroke="black" points="178.5,-180 104.5,-180 104.5,-144 178.5,-144 178.5,-180"/>
<text text-anchor="middle" x="141.5" y="-158.3" font-family="Times,serif" font-size="14.00">erl_nif.h</text>
</a>
</g>
</g>
<!-- 22&#45;&gt;9 -->
<g id="edge25" class="edge">
<title>22&#45;&gt;9</title>
<g id="a_edge25"><a xlink:title="include">
<path fill="none" stroke="#1414ce" d="M298.1,-217.81C265.69,-206.47 221.44,-190.98 188.25,-179.36"/>
<polygon fill="#1414ce" stroke="#1414ce" points="189.36,-176.04 178.76,-176.04 187.05,-182.65 189.36,-176.04"/>
</a>
</g>
</g>
<!-- 10 -->
<g id="node22" class="node">
<title>10</title>
<g id="a_node22"><a xlink:title="term_typedef.h">
<polygon fill="#ffffff" stroke="black" points="196,-108 71,-108 71,-72 196,-72 196,-108"/>
<text text-anchor="middle" x="133.5" y="-86.3" font-family="Times,serif" font-size="14.00">term_typedef.h</text>
</a>
</g>
</g>
<!-- 22&#45;&gt;10 -->
<g id="edge26" class="edge">
<title>22&#45;&gt;10</title>
<g id="a_edge26"><a xlink:title="include">
<path fill="none" stroke="#1414ce" d="M316.41,-215.87C279.09,-190.39 208.87,-142.45 167.13,-113.96"/>
<polygon fill="#1414ce" stroke="#1414ce" points="168.91,-110.94 158.68,-108.19 164.96,-116.72 168.91,-110.94"/>
</a>
</g>
</g>
<!-- 26&#45;&gt;16 -->
<g id="edge32" class="edge">
<title>26&#45;&gt;16</title>
<g id="a_edge32"><a xlink:title="include">
<path fill="none" stroke="#1414ce" d="M702.6,-290.33C742.56,-278.62 798.36,-262.28 838.95,-250.39"/>
<polygon fill="#1414ce" stroke="#1414ce" points="840.05,-253.72 848.66,-247.55 838.08,-247 840.05,-253.72"/>
</a>
</g>
</g>
<!-- 26&#45;&gt;15 -->
<g id="edge30" class="edge">
<title>26&#45;&gt;15</title>
<g id="a_edge30"><a xlink:title="include">
<path fill="none" stroke="#1414ce" d="M679.81,-287.98C710.2,-269.33 761.04,-239 806.5,-216 834.2,-201.99 866.43,-187.97 890.66,-177.88"/>
<polygon fill="#1414ce" stroke="#1414ce" points="892.28,-181 900.19,-173.94 889.61,-174.53 892.28,-181"/>
</a>
</g>
</g>
<!-- 26&#45;&gt;4 -->
<g id="edge28" class="edge">
<title>26&#45;&gt;4</title>
<g id="a_edge28"><a xlink:title="include">
<path fill="none" stroke="#1414ce" d="M647.61,-287.85C637.04,-250.75 611.97,-162.81 599.23,-118.1"/>
<polygon fill="#1414ce" stroke="#1414ce" points="602.52,-116.89 596.41,-108.23 595.79,-118.81 602.52,-116.89"/>
</a>
</g>
</g>
<!-- 26&#45;&gt;22 -->
<g id="edge31" class="edge">
<title>26&#45;&gt;22</title>
<g id="a_edge31"><a xlink:title="include">
<path fill="none" stroke="#1414ce" d="M602.19,-293.68C545.26,-280.86 452.94,-260.08 394.81,-247"/>
<polygon fill="#1414ce" stroke="#1414ce" points="395.24,-243.51 384.72,-244.73 393.71,-250.34 395.24,-243.51"/>
</a>
</g>
</g>
<!-- 26&#45;&gt;9 -->
<g id="edge29" class="edge">
<title>26&#45;&gt;9</title>
<g id="a_edge29"><a xlink:title="include">
<path fill="none" stroke="#1414ce" d="M602.27,-303.89C530.8,-300.93 396.56,-290.25 289.5,-252 245.75,-236.37 200.73,-207.05 172.01,-186.34"/>
<polygon fill="#1414ce" stroke="#1414ce" points="173.78,-183.3 163.65,-180.21 169.65,-188.94 173.78,-183.3"/>
</a>
</g>
</g>
<!-- 19&#45;&gt;8 -->
<g id="edge34" class="edge">
<title>19&#45;&gt;8</title>
<g id="a_edge34"><a xlink:title="include">
<path fill="none" stroke="#1414ce" d="M379.41,-445.65C435.49,-439.25 546.09,-423.44 572.5,-396 606.41,-360.77 565.29,-327.94 593.5,-288 663.75,-188.54 801.47,-131.28 876.25,-106.24"/>
<polygon fill="#1414ce" stroke="#1414ce" points="877.52,-109.51 885.93,-103.06 875.33,-102.86 877.52,-109.51"/>
</a>
</g>
</g>
<!-- 19&#45;&gt;25 -->
<g id="edge40" class="edge">
<title>19&#45;&gt;25</title>
<g id="a_edge40"><a xlink:title="include">
<path fill="none" stroke="#1414ce" d="M379.14,-443.33C445.74,-431.76 598.35,-405.25 685.46,-390.12"/>
<polygon fill="#1414ce" stroke="#1414ce" points="686.24,-393.54 695.49,-388.38 685.04,-386.64 686.24,-393.54"/>
</a>
</g>
</g>
<!-- 19&#45;&gt;23 -->
<g id="edge41" class="edge">
<title>19&#45;&gt;23</title>
<g id="a_edge41"><a xlink:title="include">
<path fill="none" stroke="#1414ce" d="M316.2,-431.8C303.62,-422.9 290.38,-410.77 283.5,-396 268.89,-364.62 239.69,-331 289.5,-216 294.22,-205.11 302.26,-195.2 310.63,-186.98"/>
<polygon fill="#1414ce" stroke="#1414ce" points="313.01,-189.54 318,-180.2 308.27,-184.39 313.01,-189.54"/>
</a>
</g>
</g>
<!-- 19&#45;&gt;3 -->
<g id="edge35" class="edge">
<title>19&#45;&gt;3</title>
<g id="a_edge35"><a xlink:title="include">
<path fill="none" stroke="#1414ce" d="M345.45,-431.69C344.78,-413.57 344.89,-384.42 350.5,-360 358.3,-326.04 364.73,-318.54 381.5,-288 434.05,-192.29 514.25,-89.95 551.78,-43.94"/>
<polygon fill="#1414ce" stroke="#1414ce" points="554.64,-45.97 558.27,-36.01 549.23,-41.53 554.64,-45.97"/>
</a>
</g>
</g>
<!-- 19&#45;&gt;4 -->
<g id="edge37" class="edge">
<title>19&#45;&gt;4</title>
<g id="a_edge37"><a xlink:title="include">
<path fill="none" stroke="#1414ce" d="M348.28,-431.96C350.66,-413.56 355.89,-383.7 366.5,-360 413.64,-254.72 514.23,-157.94 563.35,-114.74"/>
<polygon fill="#1414ce" stroke="#1414ce" points="565.81,-117.24 571.05,-108.03 561.21,-111.96 565.81,-117.24"/>
</a>
</g>
</g>
<!-- 19&#45;&gt;22 -->
<g id="edge39" class="edge">
<title>19&#45;&gt;22</title>
<g id="a_edge39"><a xlink:title="include">
<path fill="none" stroke="#1414ce" d="M322.75,-431.91C311.95,-422.65 300.3,-410.2 294.5,-396 275.57,-349.68 303.23,-293 323.47,-260.74"/>
<polygon fill="#1414ce" stroke="#1414ce" points="326.42,-262.61 328.93,-252.32 320.55,-258.8 326.42,-262.61"/>
</a>
</g>
</g>
<!-- 20 -->
<g id="node20" class="node">
<title>20</title>
<g id="a_node20"><a xlink:title="sys/types.h">
<polygon fill="#ffffff" stroke="black" points="472,-396 375,-396 375,-360 472,-360 472,-396"/>
<text text-anchor="middle" x="423.5" y="-374.3" font-family="Times,serif" font-size="14.00">sys/types.h</text>
</a>
</g>
</g>
<!-- 19&#45;&gt;20 -->
<g id="edge33" class="edge">
<title>19&#45;&gt;20</title>
<g id="a_edge33"><a xlink:title="include">
<path fill="none" stroke="#1414ce" d="M365.53,-431.7C375.04,-423.05 386.71,-412.45 397.07,-403.03"/>
<polygon fill="#1414ce" stroke="#1414ce" points="399.64,-405.42 404.69,-396.1 394.93,-400.24 399.64,-405.42"/>
</a>
</g>
</g>
<!-- 21 -->
<g id="node21" class="node">
<title>21</title>
<g id="a_node21"><a xlink:title="string.h">
<polygon fill="#ffffff" stroke="black" points="563,-396 490,-396 490,-360 563,-360 563,-396"/>
<text text-anchor="middle" x="526.5" y="-374.3" font-family="Times,serif" font-size="14.00">string.h</text>
</a>
</g>
</g>
<!-- 19&#45;&gt;21 -->
<g id="edge38" class="edge">
<title>19&#45;&gt;21</title>
<g id="a_edge38"><a xlink:title="include">
<path fill="none" stroke="#1414ce" d="M379.1,-436.32C407.37,-425.33 448.63,-409.28 480.31,-396.96"/>
<polygon fill="#1414ce" stroke="#1414ce" points="481.75,-400.16 489.81,-393.27 479.22,-393.63 481.75,-400.16"/>
</a>
</g>
</g>
<!-- 19&#45;&gt;10 -->
<g id="edge42" class="edge">
<title>19&#45;&gt;10</title>
<g id="a_edge42"><a xlink:title="include">
<path fill="none" stroke="#1414ce" d="M313.61,-435.58C293.64,-426.38 268.45,-412.81 249.5,-396 161.31,-317.75 131.43,-292.29 95.5,-180 90.62,-164.76 90.6,-159.23 95.5,-144 98.69,-134.08 104.5,-124.44 110.63,-116.17"/>
<polygon fill="#1414ce" stroke="#1414ce" points="113.57,-118.09 117.04,-108.08 108.08,-113.74 113.57,-118.09"/>
</a>
</g>
</g>
<!-- 19&#45;&gt;17 -->
<g id="edge36" class="edge">
<title>19&#45;&gt;17</title>
<g id="a_edge36"><a xlink:title="include">
<path fill="none" stroke="#1414ce" d="M313.84,-437.11C295.48,-428.61 274,-415.24 262.5,-396 246.05,-368.46 258.61,-356.06 257.5,-324 254.65,-241.69 261.41,-215.94 301.5,-144 306.79,-134.51 313.46,-124.68 319.72,-116.1"/>
<polygon fill="#1414ce" stroke="#1414ce" points="322.6,-118.11 325.79,-108.01 316.99,-113.91 322.6,-118.11"/>
</a>
</g>
</g>
<!-- 9&#45;&gt;10 -->
<g id="edge43" class="edge">
<title>9&#45;&gt;10</title>
<g id="a_edge43"><a xlink:title="include">
<path fill="none" stroke="#1414ce" d="M139.52,-143.7C138.64,-135.98 137.58,-126.71 136.6,-118.11"/>
<polygon fill="#1414ce" stroke="#1414ce" points="140.07,-117.64 135.45,-108.1 133.11,-118.44 140.07,-117.64"/>
</a>
</g>
</g>
<!-- 29&#45;&gt;19 -->
<g id="edge44" class="edge">
<title>29&#45;&gt;19</title>
<g id="a_edge44"><a xlink:title="include">
<path fill="none" stroke="#1414ce" d="M255.04,-575.87C273.16,-551.14 306.77,-505.24 327.82,-476.51"/>
<polygon fill="#1414ce" stroke="#1414ce" points="330.83,-478.33 333.91,-468.19 325.18,-474.19 330.83,-478.33"/>
</a>
</g>
</g>
<!-- 12 -->
<g id="node18" class="node">
<title>12</title>
<g id="a_node18"><a xlink:title="limits.h">
<polygon fill="#ffffff" stroke="black" points="71,-36 0,-36 0,0 71,0 71,-36"/>
<text text-anchor="middle" x="35.5" y="-14.3" font-family="Times,serif" font-size="14.00">limits.h</text>
</a>
</g>
</g>
<!-- 7 -->
<g id="node19" class="node">
<title>7</title>
<g id="a_node19"><a xlink:title="atom_table.h">
<polygon fill="#ffffff" stroke="black" points="1155,-540 1046,-540 1046,-504 1155,-504 1155,-540"/>
<text text-anchor="middle" x="1100.5" y="-518.3" font-family="Times,serif" font-size="14.00">atom_table.h</text>
</a>
</g>
</g>
<!-- 7&#45;&gt;8 -->
<g id="edge45" class="edge">
<title>7&#45;&gt;8</title>
<g id="a_edge45"><a xlink:title="include">
<path fill="none" stroke="#1414ce" d="M1107.22,-503.66C1132.38,-437.39 1217.37,-200.91 1171.5,-144 1159.45,-129.05 1047.23,-109.41 979.25,-98.73"/>
<polygon fill="#1414ce" stroke="#1414ce" points="979.57,-95.24 969.15,-97.16 978.49,-102.16 979.57,-95.24"/>
</a>
</g>
</g>
<!-- 7&#45;&gt;2 -->
<g id="edge46" class="edge">
<title>7&#45;&gt;2</title>
<g id="a_edge46"><a xlink:title="include">
<path fill="none" stroke="#1414ce" d="M1121.02,-503.7C1131.37,-494.97 1144.09,-484.24 1155.34,-474.75"/>
<polygon fill="#1414ce" stroke="#1414ce" points="1157.83,-477.23 1163.22,-468.1 1153.32,-471.88 1157.83,-477.23"/>
</a>
</g>
</g>
<!-- 10&#45;&gt;11 -->
<g id="edge47" class="edge">
<title>10&#45;&gt;11</title>
<g id="a_edge47"><a xlink:title="include">
<path fill="none" stroke="#1414ce" d="M157.96,-71.88C170.8,-62.89 186.7,-51.76 200.59,-42.03"/>
<polygon fill="#1414ce" stroke="#1414ce" points="202.76,-44.79 208.94,-36.19 198.74,-39.06 202.76,-44.79"/>
</a>
</g>
</g>
<!-- 10&#45;&gt;3 -->
<g id="edge50" class="edge">
<title>10&#45;&gt;3</title>
<g id="a_edge50"><a xlink:title="include">
<path fill="none" stroke="#1414ce" d="M196.26,-73.84C199.38,-73.19 202.47,-72.58 205.5,-72 320.1,-50.24 456.33,-32.73 526.16,-24.36"/>
<polygon fill="#1414ce" stroke="#1414ce" points="526.86,-27.8 536.38,-23.14 526.04,-20.85 526.86,-27.8"/>
</a>
</g>
</g>
<!-- 10&#45;&gt;12 -->
<g id="edge48" class="edge">
<title>10&#45;&gt;12</title>
<g id="a_edge48"><a xlink:title="include">
<path fill="none" stroke="#1414ce" d="M109.53,-71.88C96.95,-62.89 81.37,-51.76 67.75,-42.03"/>
<polygon fill="#1414ce" stroke="#1414ce" points="69.74,-39.15 59.57,-36.19 65.67,-44.85 69.74,-39.15"/>
</a>
</g>
</g>
<!-- 13 -->
<g id="node29" class="node">
<title>13</title>
<g id="a_node29"><a xlink:title="inttypes.h">
<polygon fill="#ffffff" stroke="black" points="178,-36 89,-36 89,0 178,0 178,-36"/>
<text text-anchor="middle" x="133.5" y="-14.3" font-family="Times,serif" font-size="14.00">inttypes.h</text>
</a>
</g>
</g>
<!-- 10&#45;&gt;13 -->
<g id="edge49" class="edge">
<title>10&#45;&gt;13</title>
<g id="a_edge49"><a xlink:title="include">
<path fill="none" stroke="#1414ce" d="M133.5,-71.7C133.5,-63.98 133.5,-54.71 133.5,-46.11"/>
<polygon fill="#1414ce" stroke="#1414ce" points="137,-46.1 133.5,-36.1 130,-46.1 137,-46.1"/>
</a>
</g>
</g>
<!-- 6&#45;&gt;2 -->
<g id="edge52" class="edge">
<title>6&#45;&gt;2</title>
<g id="a_edge52"><a xlink:title="include">
<path fill="none" stroke="#1414ce" d="M1024.11,-583.9C1076.51,-575.11 1145.21,-560.16 1164.5,-540 1180.08,-523.72 1184.2,-497.97 1184.79,-478.34"/>
<polygon fill="#1414ce" stroke="#1414ce" points="1188.29,-478.17 1184.81,-468.17 1181.29,-478.16 1188.29,-478.17"/>
</a>
</g>
</g>
<!-- 6&#45;&gt;16 -->
<g id="edge59" class="edge">
<title>6&#45;&gt;16</title>
<g id="a_edge59"><a xlink:title="include">
<path fill="none" stroke="#1414ce" d="M957.51,-575.76C949.4,-529.22 926.06,-397.2 903.5,-288 901.76,-279.55 899.73,-270.38 897.84,-262.08"/>
<polygon fill="#1414ce" stroke="#1414ce" points="901.21,-261.11 895.56,-252.15 894.39,-262.68 901.21,-261.11"/>
</a>
</g>
</g>
<!-- 6&#45;&gt;15 -->
<g id="edge56" class="edge">
<title>6&#45;&gt;15</title>
<g id="a_edge56"><a xlink:title="include">
<path fill="none" stroke="#1414ce" d="M960.91,-575.82C961.13,-565.44 961.39,-551.96 961.5,-540 961.65,-524 961.61,-520 961.5,-504 960.61,-375.99 990.96,-339.56 957.5,-216 954.94,-206.56 950.31,-197.02 945.45,-188.68"/>
<polygon fill="#1414ce" stroke="#1414ce" points="948.41,-186.82 940.16,-180.17 942.46,-190.51 948.41,-186.82"/>
</a>
</g>
</g>
<!-- 6&#45;&gt;3 -->
<g id="edge51" class="edge">
<title>6&#45;&gt;3</title>
<g id="a_edge51"><a xlink:title="include">
<path fill="none" stroke="#1414ce" d="M900.88,-575.91C882.25,-567.83 863.25,-556.27 850.5,-540 800.05,-475.66 842.7,-435.98 812.5,-360 757.1,-220.6 734.72,-185.38 636.5,-72 627.24,-61.31 615.69,-51.04 604.96,-42.43"/>
<polygon fill="#1414ce" stroke="#1414ce" points="607,-39.58 596.97,-36.19 602.7,-45.1 607,-39.58"/>
</a>
</g>
</g>
<!-- 6&#45;&gt;19 -->
<g id="edge60" class="edge">
<title>6&#45;&gt;19</title>
<g id="a_edge60"><a xlink:title="include">
<path fill="none" stroke="#1414ce" d="M896.88,-584.13C834.51,-574.94 736.91,-559.23 653.5,-540 557.91,-517.96 447.95,-483.92 389.05,-464.96"/>
<polygon fill="#1414ce" stroke="#1414ce" points="389.94,-461.58 379.35,-461.83 387.79,-468.24 389.94,-461.58"/>
</a>
</g>
</g>
<!-- 6&#45;&gt;9 -->
<g id="edge54" class="edge">
<title>6&#45;&gt;9</title>
<g id="a_edge54"><a xlink:title="include">
<path fill="none" stroke="#1414ce" d="M896.53,-592.79C774.57,-589.88 503.32,-571.24 305.5,-468 257.27,-442.83 237.53,-440.69 206.5,-396 161.59,-331.34 147.6,-236.43 143.33,-190.25"/>
<polygon fill="#1414ce" stroke="#1414ce" points="146.8,-189.79 142.47,-180.12 139.82,-190.38 146.8,-189.79"/>
</a>
</g>
</g>
<!-- 6&#45;&gt;7 -->
<g id="edge53" class="edge">
<title>6&#45;&gt;7</title>
<g id="a_edge53"><a xlink:title="include">
<path fill="none" stroke="#1414ce" d="M994.75,-575.88C1013.56,-566.47 1037.08,-554.71 1057.17,-544.67"/>
<polygon fill="#1414ce" stroke="#1414ce" points="1058.74,-547.79 1066.12,-540.19 1055.61,-541.53 1058.74,-547.79"/>
</a>
</g>
</g>
<!-- 6&#45;&gt;18 -->
<g id="edge58" class="edge">
<title>6&#45;&gt;18</title>
<g id="a_edge58"><a xlink:title="include">
<path fill="none" stroke="#1414ce" d="M967.35,-575.88C993.83,-509.67 1089.66,-270.11 1121.86,-189.6"/>
<polygon fill="#1414ce" stroke="#1414ce" points="1125.17,-190.76 1125.63,-180.17 1118.67,-188.16 1125.17,-190.76"/>
</a>
</g>
</g>
<!-- 6&#45;&gt;28 -->
<g id="edge61" class="edge">
<title>6&#45;&gt;28</title>
<g id="a_edge61"><a xlink:title="include">
<path fill="none" stroke="#1414ce" d="M1024.17,-591.82C1073.04,-587.89 1139.82,-575.66 1186.5,-540 1273.77,-473.33 1274.03,-324.05 1270.04,-262.42"/>
<polygon fill="#1414ce" stroke="#1414ce" points="1273.52,-262.02 1269.29,-252.3 1266.54,-262.54 1273.52,-262.02"/>
</a>
</g>
</g>
<!-- 6&#45;&gt;27 -->
<g id="edge57" class="edge">
<title>6&#45;&gt;27</title>
<g id="a_edge57"><a xlink:title="include">
<path fill="none" stroke="#1414ce" d="M896.74,-576.14C870.9,-567.62 841.55,-555.71 817.5,-540 724.35,-479.15 727.65,-432.8 643.5,-360 622.79,-342.08 613.4,-342.81 593.5,-324 572.93,-304.55 552.96,-279.19 539.29,-260.52"/>
<polygon fill="#1414ce" stroke="#1414ce" points="541.98,-258.27 533.29,-252.2 536.3,-262.36 541.98,-258.27"/>
</a>
</g>
</g>
<!-- 14 -->
<g id="node28" class="node">
<title>14</title>
<g id="a_node28"><a xlink:title="ets.h">
<polygon fill="#ffffff" stroke="black" points="913.5,-540 859.5,-540 859.5,-504 913.5,-504 913.5,-540"/>
<text text-anchor="middle" x="886.5" y="-518.3" font-family="Times,serif" font-size="14.00">ets.h</text>
</a>
</g>
</g>
<!-- 6&#45;&gt;14 -->
<g id="edge55" class="edge">
<title>6&#45;&gt;14</title>
<g id="a_edge55"><a xlink:title="include">
<path fill="none" stroke="#1414ce" d="M942.21,-575.7C933.07,-567.05 921.86,-556.45 911.9,-547.03"/>
<polygon fill="#1414ce" stroke="#1414ce" points="914.25,-544.43 904.58,-540.1 909.44,-549.52 914.25,-544.43"/>
</a>
</g>
</g>
<!-- 18&#45;&gt;8 -->
<g id="edge62" class="edge">
<title>18&#45;&gt;8</title>
<g id="a_edge62"><a xlink:title="include">
<path fill="none" stroke="#1414ce" d="M1102.28,-149.09C1097.68,-147.35 1092.97,-145.6 1088.5,-144 1051.96,-130.94 1010.35,-117.27 978.58,-107.09"/>
<polygon fill="#1414ce" stroke="#1414ce" points="979.65,-103.75 969.06,-104.04 977.52,-110.42 979.65,-103.75"/>
</a>
</g>
</g>
<!-- 28&#45;&gt;8 -->
<g id="edge63" class="edge">
<title>28&#45;&gt;8</title>
<g id="a_edge63"><a xlink:title="include">
<path fill="none" stroke="#1414ce" d="M1260.28,-215.88C1250.69,-195.35 1231.72,-161.52 1204.5,-144 1167.98,-120.49 1049.07,-104.12 979.48,-96.27"/>
<polygon fill="#1414ce" stroke="#1414ce" points="979.5,-92.75 969.17,-95.13 978.73,-99.71 979.5,-92.75"/>
</a>
</g>
</g>
<!-- 28&#45;&gt;15 -->
<g id="edge65" class="edge">
<title>28&#45;&gt;15</title>
<g id="a_edge65"><a xlink:title="include">
<path fill="none" stroke="#1414ce" d="M1218.42,-222.9C1149.76,-208.76 1026.51,-183.39 964.82,-170.68"/>
<polygon fill="#1414ce" stroke="#1414ce" points="965.25,-167.2 954.75,-168.61 963.84,-174.06 965.25,-167.2"/>
</a>
</g>
</g>
<!-- 28&#45;&gt;3 -->
<g id="edge64" class="edge">
<title>28&#45;&gt;3</title>
<g id="a_edge64"><a xlink:title="include">
<path fill="none" stroke="#1414ce" d="M1265.96,-215.7C1263.25,-195.63 1255.82,-162.9 1235.5,-144 1145.13,-59.92 754.19,-29.56 618.83,-21.45"/>
<polygon fill="#1414ce" stroke="#1414ce" points="618.97,-17.96 608.78,-20.87 618.56,-24.94 618.97,-17.96"/>
</a>
</g>
</g>
<!-- 27&#45;&gt;8 -->
<g id="edge66" class="edge">
<title>27&#45;&gt;8</title>
<g id="a_edge66"><a xlink:title="include">
<path fill="none" stroke="#1414ce" d="M557.52,-215.84C598.7,-196.64 668.44,-165.45 730.5,-144 779.1,-127.21 835.95,-112.41 876.05,-102.75"/>
<polygon fill="#1414ce" stroke="#1414ce" points="876.95,-106.14 885.87,-100.41 875.33,-99.33 876.95,-106.14"/>
</a>
</g>
</g>
<!-- 27&#45;&gt;23 -->
<g id="edge69" class="edge">
<title>27&#45;&gt;23</title>
<g id="a_edge69"><a xlink:title="include">
<path fill="none" stroke="#1414ce" d="M478.39,-216.23C449.14,-204.86 410.72,-189.92 382.04,-178.76"/>
<polygon fill="#1414ce" stroke="#1414ce" points="383.3,-175.5 372.71,-175.14 380.76,-182.02 383.3,-175.5"/>
</a>
</g>
</g>
<!-- 27&#45;&gt;15 -->
<g id="edge67" class="edge">
<title>27&#45;&gt;15</title>
<g id="a_edge67"><a xlink:title="include">
<path fill="none" stroke="#1414ce" d="M564.56,-225.58C644.67,-211.76 815.28,-182.35 890.53,-169.37"/>
<polygon fill="#1414ce" stroke="#1414ce" points="891.23,-172.8 900.49,-167.66 890.05,-165.91 891.23,-172.8"/>
</a>
</g>
</g>
<!-- 27&#45;&gt;10 -->
<g id="edge68" class="edge">
<title>27&#45;&gt;10</title>
<g id="a_edge68"><a xlink:title="include">
<path fill="none" stroke="#1414ce" d="M478.12,-227.61C432.53,-220.8 359.52,-206.63 301.5,-180 276.61,-168.58 275.22,-157.68 251.5,-144 230.92,-132.13 207.19,-121.02 186.44,-112.07"/>
<polygon fill="#1414ce" stroke="#1414ce" points="187.71,-108.8 177.14,-108.11 184.97,-115.25 187.71,-108.8"/>
</a>
</g>
</g>
<!-- 14&#45;&gt;16 -->
<g id="edge71" class="edge">
<title>14&#45;&gt;16</title>
<g id="a_edge71"><a xlink:title="include">
<path fill="none" stroke="#1414ce" d="M886.8,-503.97C887.63,-456.29 889.99,-321.18 891.02,-262.63"/>
<polygon fill="#1414ce" stroke="#1414ce" points="894.52,-262.37 891.2,-252.31 887.52,-262.24 894.52,-262.37"/>
</a>
</g>
</g>
<!-- 14&#45;&gt;15 -->
<g id="edge70" class="edge">
<title>14&#45;&gt;15</title>
<g id="a_edge70"><a xlink:title="include">
<path fill="none" stroke="#1414ce" d="M891.43,-503.89C903.33,-461.61 933.38,-348.62 943.5,-252 945.17,-236.09 945.84,-231.83 943.5,-216 942.22,-207.35 939.83,-198.15 937.28,-189.89"/>
<polygon fill="#1414ce" stroke="#1414ce" points="940.6,-188.78 934.15,-180.37 933.95,-190.96 940.6,-188.78"/>
</a>
</g>
</g>
<!-- 14&#45;&gt;19 -->
<g id="edge72" class="edge">
<title>14&#45;&gt;19</title>
<g id="a_edge72"><a xlink:title="include">
<path fill="none" stroke="#1414ce" d="M859.35,-517.48C771.7,-506.12 495.75,-470.35 389.13,-456.53"/>
<polygon fill="#1414ce" stroke="#1414ce" points="389.42,-453.03 379.05,-455.22 388.52,-459.98 389.42,-453.03"/>
</a>
</g>
</g>
</g>
</svg>
