<?xml version="1.0" encoding="UTF-8" standalone="no"?>
<!DOCTYPE svg PUBLIC "-//W3C//DTD SVG 1.1//EN"
 "http://www.w3.org/Graphics/SVG/1.1/DTD/svg11.dtd">
<!-- Generated by graphviz version 2.43.0 (0)
 -->
<!-- Title: %3 Pages: 1 -->
<svg width="967pt" height="620pt"
 viewBox="0.00 0.00 966.93 620.00" xmlns="http://www.w3.org/2000/svg" xmlns:xlink="http://www.w3.org/1999/xlink">
<g id="graph0" class="graph" transform="scale(1 1) rotate(0) translate(4 616)">
<title>%3</title>
<polygon fill="transparent" stroke="transparent" points="-4,4 -4,-616 962.93,-616 962.93,4 -4,4"/>
<!-- 5 -->
<g id="node1" class="node">
<title>5</title>
<g id="a_node1"><a xlink:title="stdbool.h">
<polygon fill="#ffffff" stroke="black" points="828.5,-108 745.5,-108 745.5,-72 828.5,-72 828.5,-108"/>
<text text-anchor="middle" x="787" y="-86.3" font-family="Times,serif" font-size="14.00">stdbool.h</text>
</a>
</g>
</g>
<!-- 18 -->
<g id="node2" class="node">
<title>18</title>
<g id="a_node2"><a xlink:title="refc_binary.h">
<polygon fill="#ffffff" stroke="black" points="710,-396 602,-396 602,-360 710,-360 710,-396"/>
<text text-anchor="middle" x="656" y="-374.3" font-family="Times,serif" font-size="14.00">refc_binary.h</text>
</a>
</g>
</g>
<!-- 18&#45;&gt;5 -->
<g id="edge1" class="edge">
<title>18&#45;&gt;5</title>
<g id="a_edge1"><a xlink:title="include">
<path fill="none" stroke="#1414ce" d="M670.02,-360C677.94,-349.92 687.69,-336.67 695,-324 735.45,-253.91 765.7,-162.6 779.21,-117.96"/>
<polygon fill="#1414ce" stroke="#1414ce" points="782.63,-118.74 782.14,-108.16 775.92,-116.74 782.63,-118.74"/>
</a>
</g>
</g>
<!-- 19 -->
<g id="node6" class="node">
<title>19</title>
<g id="a_node6"><a xlink:title="list.h">
<polygon fill="#ffffff" stroke="black" points="749,-180 695,-180 695,-144 749,-144 749,-180"/>
<text text-anchor="middle" x="722" y="-158.3" font-family="Times,serif" font-size="14.00">list.h</text>
</a>
</g>
</g>
<!-- 18&#45;&gt;19 -->
<g id="edge3" class="edge">
<title>18&#45;&gt;19</title>
<g id="a_edge3"><a xlink:title="include">
<path fill="none" stroke="#1414ce" d="M662.42,-359.75C671.22,-335.76 687.3,-290.9 699,-252 705.17,-231.5 711.19,-208.04 715.52,-190.36"/>
<polygon fill="#1414ce" stroke="#1414ce" points="719.03,-190.72 717.99,-180.17 712.23,-189.07 719.03,-190.72"/>
</a>
</g>
</g>
<!-- 8 -->
<g id="node8" class="node">
<title>8</title>
<g id="a_node8"><a xlink:title="stdlib.h">
<polygon fill="#ffffff" stroke="black" points="430.5,-108 359.5,-108 359.5,-72 430.5,-72 430.5,-108"/>
<text text-anchor="middle" x="395" y="-86.3" font-family="Times,serif" font-size="14.00">stdlib.h</text>
</a>
</g>
</g>
<!-- 18&#45;&gt;8 -->
<g id="edge2" class="edge">
<title>18&#45;&gt;8</title>
<g id="a_edge2"><a xlink:title="include">
<path fill="none" stroke="#1414ce" d="M601.88,-361.19C578.07,-352.59 550.65,-340.33 529,-324 463.61,-274.69 449.04,-254.03 414,-180 404.73,-160.42 399.94,-136.29 397.49,-118.09"/>
<polygon fill="#1414ce" stroke="#1414ce" points="400.96,-117.66 396.3,-108.15 394.01,-118.49 400.96,-117.66"/>
</a>
</g>
</g>
<!-- 20 -->
<g id="node10" class="node">
<title>20</title>
<g id="a_node10"><a xlink:title="resources.h">
<polygon fill="#ffffff" stroke="black" points="638,-324 538,-324 538,-288 638,-288 638,-324"/>
<text text-anchor="middle" x="588" y="-302.3" font-family="Times,serif" font-size="14.00">resources.h</text>
</a>
</g>
</g>
<!-- 18&#45;&gt;20 -->
<g id="edge4" class="edge">
<title>18&#45;&gt;20</title>
<g id="a_edge4"><a xlink:title="include">
<path fill="none" stroke="#1414ce" d="M639.19,-359.7C630.87,-351.14 620.69,-340.66 611.61,-331.3"/>
<polygon fill="#1414ce" stroke="#1414ce" points="614.09,-328.84 604.62,-324.1 609.07,-333.72 614.09,-328.84"/>
</a>
</g>
</g>
<!-- 13 -->
<g id="node3" class="node">
<title>13</title>
<g id="a_node3"><a xlink:title="assert.h">
<polygon fill="#ffffff" stroke="black" points="74,-36 0,-36 0,0 74,0 74,-36"/>
<text text-anchor="middle" x="37" y="-14.3" font-family="Times,serif" font-size="14.00">assert.h</text>
</a>
</g>
</g>
<!-- 16 -->
<g id="node4" class="node">
<title>16</title>
<g id="a_node4"><a xlink:title="utils.h">
<polygon fill="#ffffff" stroke="black" points="485,-180 423,-180 423,-144 485,-144 485,-180"/>
<text text-anchor="middle" x="454" y="-158.3" font-family="Times,serif" font-size="14.00">utils.h</text>
</a>
</g>
</g>
<!-- 16&#45;&gt;8 -->
<g id="edge7" class="edge">
<title>16&#45;&gt;8</title>
<g id="a_edge7"><a xlink:title="include">
<path fill="none" stroke="#1414ce" d="M439.42,-143.7C432.34,-135.3 423.72,-125.07 415.95,-115.86"/>
<polygon fill="#1414ce" stroke="#1414ce" points="418.54,-113.49 409.42,-108.1 413.19,-118.01 418.54,-113.49"/>
</a>
</g>
</g>
<!-- 17 -->
<g id="node12" class="node">
<title>17</title>
<g id="a_node12"><a xlink:title="stddef.h">
<polygon fill="#ffffff" stroke="black" points="707,-108 633,-108 633,-72 707,-72 707,-108"/>
<text text-anchor="middle" x="670" y="-86.3" font-family="Times,serif" font-size="14.00">stddef.h</text>
</a>
</g>
</g>
<!-- 16&#45;&gt;17 -->
<g id="edge5" class="edge">
<title>16&#45;&gt;17</title>
<g id="a_edge5"><a xlink:title="include">
<path fill="none" stroke="#1414ce" d="M485.41,-150.82C521.59,-139.1 581.39,-119.72 623.09,-106.2"/>
<polygon fill="#1414ce" stroke="#1414ce" points="624.32,-109.48 632.75,-103.07 622.16,-102.82 624.32,-109.48"/>
</a>
</g>
</g>
<!-- 7 -->
<g id="node23" class="node">
<title>7</title>
<g id="a_node23"><a xlink:title="stdio.h">
<polygon fill="#ffffff" stroke="black" points="583.5,-108 518.5,-108 518.5,-72 583.5,-72 583.5,-108"/>
<text text-anchor="middle" x="551" y="-86.3" font-family="Times,serif" font-size="14.00">stdio.h</text>
</a>
</g>
</g>
<!-- 16&#45;&gt;7 -->
<g id="edge6" class="edge">
<title>16&#45;&gt;7</title>
<g id="a_edge6"><a xlink:title="include">
<path fill="none" stroke="#1414ce" d="M477.98,-143.7C490.31,-134.8 505.52,-123.82 518.85,-114.2"/>
<polygon fill="#1414ce" stroke="#1414ce" points="521.24,-116.79 527.3,-108.1 517.14,-111.12 521.24,-116.79"/>
</a>
</g>
</g>
<!-- 21 -->
<g id="node5" class="node">
<title>21</title>
<g id="a_node5"><a xlink:title="synclist.h">
<polygon fill="#ffffff" stroke="black" points="664.5,-252 579.5,-252 579.5,-216 664.5,-216 664.5,-252"/>
<text text-anchor="middle" x="622" y="-230.3" font-family="Times,serif" font-size="14.00">synclist.h</text>
</a>
</g>
</g>
<!-- 21&#45;&gt;19 -->
<g id="edge9" class="edge">
<title>21&#45;&gt;19</title>
<g id="a_edge9"><a xlink:title="include">
<path fill="none" stroke="#1414ce" d="M646.46,-215.88C659.3,-206.89 675.2,-195.76 689.09,-186.03"/>
<polygon fill="#1414ce" stroke="#1414ce" points="691.26,-188.79 697.44,-180.19 687.24,-183.06 691.26,-188.79"/>
</a>
</g>
</g>
<!-- 22 -->
<g id="node20" class="node">
<title>22</title>
<g id="a_node20"><a xlink:title="smp.h">
<polygon fill="#ffffff" stroke="black" points="677,-180 617,-180 617,-144 677,-144 677,-180"/>
<text text-anchor="middle" x="647" y="-158.3" font-family="Times,serif" font-size="14.00">smp.h</text>
</a>
</g>
</g>
<!-- 21&#45;&gt;22 -->
<g id="edge10" class="edge">
<title>21&#45;&gt;22</title>
<g id="a_edge10"><a xlink:title="include">
<path fill="none" stroke="#1414ce" d="M628.18,-215.7C631,-207.81 634.39,-198.3 637.52,-189.55"/>
<polygon fill="#1414ce" stroke="#1414ce" points="640.82,-190.7 640.89,-180.1 634.23,-188.34 640.82,-190.7"/>
</a>
</g>
</g>
<!-- 21&#45;&gt;7 -->
<g id="edge8" class="edge">
<title>21&#45;&gt;7</title>
<g id="a_edge8"><a xlink:title="include">
<path fill="none" stroke="#1414ce" d="M613.44,-215.87C601.18,-191.35 578.52,-146.03 564.13,-117.26"/>
<polygon fill="#1414ce" stroke="#1414ce" points="567.2,-115.57 559.59,-108.19 560.94,-118.7 567.2,-115.57"/>
</a>
</g>
</g>
<!-- 19&#45;&gt;5 -->
<g id="edge11" class="edge">
<title>19&#45;&gt;5</title>
<g id="a_edge11"><a xlink:title="include">
<path fill="none" stroke="#1414ce" d="M738.07,-143.7C745.94,-135.22 755.56,-124.86 764.17,-115.58"/>
<polygon fill="#1414ce" stroke="#1414ce" points="766.88,-117.81 771.12,-108.1 761.75,-113.05 766.88,-117.81"/>
</a>
</g>
</g>
<!-- 6 -->
<g id="node7" class="node">
<title>6</title>
<g id="a_node7"><a xlink:title="stdint.h">
<polygon fill="#ffffff" stroke="black" points="361,-36 289,-36 289,0 361,0 361,-36"/>
<text text-anchor="middle" x="325" y="-14.3" font-family="Times,serif" font-size="14.00">stdint.h</text>
</a>
</g>
</g>
<!-- 10 -->
<g id="node9" class="node">
<title>10</title>
<g id="a_node9"><a xlink:title="memory.h">
<polygon fill="#ffffff" stroke="black" points="329,-252 243,-252 243,-216 329,-216 329,-252"/>
<text text-anchor="middle" x="286" y="-230.3" font-family="Times,serif" font-size="14.00">memory.h</text>
</a>
</g>
</g>
<!-- 10&#45;&gt;16 -->
<g id="edge16" class="edge">
<title>10&#45;&gt;16</title>
<g id="a_edge16"><a xlink:title="include">
<path fill="none" stroke="#1414ce" d="M327.1,-215.88C353.4,-204.92 387.37,-190.76 413.54,-179.86"/>
<polygon fill="#1414ce" stroke="#1414ce" points="414.92,-183.07 422.81,-176 412.23,-176.61 414.92,-183.07"/>
</a>
</g>
</g>
<!-- 10&#45;&gt;6 -->
<g id="edge12" class="edge">
<title>10&#45;&gt;6</title>
<g id="a_edge12"><a xlink:title="include">
<path fill="none" stroke="#1414ce" d="M289.13,-215.85C295.89,-178.75 311.91,-90.81 320.06,-46.1"/>
<polygon fill="#1414ce" stroke="#1414ce" points="323.51,-46.7 321.86,-36.23 316.62,-45.44 323.51,-46.7"/>
</a>
</g>
</g>
<!-- 10&#45;&gt;8 -->
<g id="edge13" class="edge">
<title>10&#45;&gt;8</title>
<g id="a_edge13"><a xlink:title="include">
<path fill="none" stroke="#1414ce" d="M295.53,-215.9C306.13,-197.44 324.25,-167.54 343,-144 350.83,-134.17 360.23,-124.15 368.88,-115.5"/>
<polygon fill="#1414ce" stroke="#1414ce" points="371.53,-117.8 376.22,-108.29 366.63,-112.8 371.53,-117.8"/>
</a>
</g>
</g>
<!-- 11 -->
<g id="node13" class="node">
<title>11</title>
<g id="a_node13"><a xlink:title="erl_nif.h">
<polygon fill="#ffffff" stroke="black" points="177,-180 103,-180 103,-144 177,-144 177,-180"/>
<text text-anchor="middle" x="140" y="-158.3" font-family="Times,serif" font-size="14.00">erl_nif.h</text>
</a>
</g>
</g>
<!-- 10&#45;&gt;11 -->
<g id="edge14" class="edge">
<title>10&#45;&gt;11</title>
<g id="a_edge14"><a xlink:title="include">
<path fill="none" stroke="#1414ce" d="M250.28,-215.88C230.5,-206.39 205.73,-194.51 184.67,-184.42"/>
<polygon fill="#1414ce" stroke="#1414ce" points="186.13,-181.24 175.6,-180.07 183.1,-187.55 186.13,-181.24"/>
</a>
</g>
</g>
<!-- 12 -->
<g id="node17" class="node">
<title>12</title>
<g id="a_node17"><a xlink:title="term_typedef.h">
<polygon fill="#ffffff" stroke="black" points="202.5,-108 77.5,-108 77.5,-72 202.5,-72 202.5,-108"/>
<text text-anchor="middle" x="140" y="-86.3" font-family="Times,serif" font-size="14.00">term_typedef.h</text>
</a>
</g>
</g>
<!-- 10&#45;&gt;12 -->
<g id="edge15" class="edge">
<title>10&#45;&gt;12</title>
<g id="a_edge15"><a xlink:title="include">
<path fill="none" stroke="#1414ce" d="M268.39,-215.87C242.63,-190.82 194.55,-144.05 165.09,-115.41"/>
<polygon fill="#1414ce" stroke="#1414ce" points="167.28,-112.65 157.67,-108.19 162.4,-117.67 167.28,-112.65"/>
</a>
</g>
</g>
<!-- 20&#45;&gt;21 -->
<g id="edge21" class="edge">
<title>20&#45;&gt;21</title>
<g id="a_edge21"><a xlink:title="include">
<path fill="none" stroke="#1414ce" d="M596.4,-287.7C600.27,-279.73 604.95,-270.1 609.24,-261.26"/>
<polygon fill="#1414ce" stroke="#1414ce" points="612.47,-262.63 613.69,-252.1 606.17,-259.57 612.47,-262.63"/>
</a>
</g>
</g>
<!-- 20&#45;&gt;19 -->
<g id="edge19" class="edge">
<title>20&#45;&gt;19</title>
<g id="a_edge19"><a xlink:title="include">
<path fill="none" stroke="#1414ce" d="M624.93,-287.82C641.4,-278.85 660.16,-266.67 674,-252 691.14,-233.84 704.05,-208.4 712.14,-189.36"/>
<polygon fill="#1414ce" stroke="#1414ce" points="715.39,-190.64 715.93,-180.06 708.91,-188 715.39,-190.64"/>
</a>
</g>
</g>
<!-- 20&#45;&gt;8 -->
<g id="edge17" class="edge">
<title>20&#45;&gt;8</title>
<g id="a_edge17"><a xlink:title="include">
<path fill="none" stroke="#1414ce" d="M568.15,-287.87C557.81,-278.16 545.58,-265.31 537,-252 509.01,-208.57 528.42,-182.53 494,-144 479.45,-127.71 458.66,-115.52 439.89,-106.97"/>
<polygon fill="#1414ce" stroke="#1414ce" points="441.16,-103.7 430.59,-102.95 438.38,-110.13 441.16,-103.7"/>
</a>
</g>
</g>
<!-- 20&#45;&gt;10 -->
<g id="edge20" class="edge">
<title>20&#45;&gt;10</title>
<g id="a_edge20"><a xlink:title="include">
<path fill="none" stroke="#1414ce" d="M537.79,-293.36C482.89,-280.64 395.27,-260.33 339.2,-247.33"/>
<polygon fill="#1414ce" stroke="#1414ce" points="339.99,-243.92 329.46,-245.07 338.41,-250.74 339.99,-243.92"/>
</a>
</g>
</g>
<!-- 20&#45;&gt;11 -->
<g id="edge18" class="edge">
<title>20&#45;&gt;11</title>
<g id="a_edge18"><a xlink:title="include">
<path fill="none" stroke="#1414ce" d="M537.79,-301.21C453.26,-294.22 286.58,-277.62 234,-252 203.5,-237.14 176.28,-208.86 159.09,-188.15"/>
<polygon fill="#1414ce" stroke="#1414ce" points="161.79,-185.93 152.78,-180.35 156.35,-190.33 161.79,-185.93"/>
</a>
</g>
</g>
<!-- 3 -->
<g id="node11" class="node">
<title>3</title>
<g id="a_node11"><a xlink:title="term.h">
<polygon fill="#ffffff" stroke="black" points="573.5,-468 508.5,-468 508.5,-432 573.5,-432 573.5,-468"/>
<text text-anchor="middle" x="541" y="-446.3" font-family="Times,serif" font-size="14.00">term.h</text>
</a>
</g>
</g>
<!-- 3&#45;&gt;5 -->
<g id="edge23" class="edge">
<title>3&#45;&gt;5</title>
<g id="a_edge23"><a xlink:title="include">
<path fill="none" stroke="#1414ce" d="M573.51,-447.07C646.09,-440.81 815,-414.69 815,-307 815,-307 815,-307 815,-233 815,-192.27 803.77,-146.19 795.54,-117.86"/>
<polygon fill="#1414ce" stroke="#1414ce" points="798.89,-116.85 792.67,-108.27 792.18,-118.86 798.89,-116.85"/>
</a>
</g>
</g>
<!-- 3&#45;&gt;18 -->
<g id="edge29" class="edge">
<title>3&#45;&gt;18</title>
<g id="a_edge29"><a xlink:title="include">
<path fill="none" stroke="#1414ce" d="M569.13,-431.88C584.17,-422.72 602.87,-411.34 619.06,-401.48"/>
<polygon fill="#1414ce" stroke="#1414ce" points="621.04,-404.38 627.76,-396.19 617.4,-398.4 621.04,-404.38"/>
</a>
</g>
</g>
<!-- 3&#45;&gt;16 -->
<g id="edge30" class="edge">
<title>3&#45;&gt;16</title>
<g id="a_edge30"><a xlink:title="include">
<path fill="none" stroke="#1414ce" d="M547.91,-431.91C554.26,-413.73 561.61,-384.29 554,-360 548.18,-341.41 538.7,-340.89 529,-324 502.83,-278.45 478.27,-222.22 464.78,-189.7"/>
<polygon fill="#1414ce" stroke="#1414ce" points="467.99,-188.32 460.95,-180.4 461.52,-190.98 467.99,-188.32"/>
</a>
</g>
</g>
<!-- 3&#45;&gt;6 -->
<g id="edge24" class="edge">
<title>3&#45;&gt;6</title>
<g id="a_edge24"><a xlink:title="include">
<path fill="none" stroke="#1414ce" d="M573.7,-445.22C633.46,-437.81 757.42,-420 793,-396 900.12,-323.74 987.45,-263.38 938,-144 920.68,-102.19 906.91,-91.34 866,-72 778.81,-30.79 486.05,-21.6 371.5,-19.57"/>
<polygon fill="#1414ce" stroke="#1414ce" points="371.36,-16.07 361.31,-19.4 371.25,-23.07 371.36,-16.07"/>
</a>
</g>
</g>
<!-- 3&#45;&gt;8 -->
<g id="edge26" class="edge">
<title>3&#45;&gt;8</title>
<g id="a_edge26"><a xlink:title="include">
<path fill="none" stroke="#1414ce" d="M508.39,-444.81C458.61,-437.68 367.38,-421.42 348,-396 314.78,-352.42 364.66,-183.75 386.04,-117.72"/>
<polygon fill="#1414ce" stroke="#1414ce" points="389.43,-118.63 389.22,-108.04 382.78,-116.45 389.43,-118.63"/>
</a>
</g>
</g>
<!-- 3&#45;&gt;10 -->
<g id="edge28" class="edge">
<title>3&#45;&gt;10</title>
<g id="a_edge28"><a xlink:title="include">
<path fill="none" stroke="#1414ce" d="M508.49,-445.74C452.49,-439.43 341.29,-423.7 315,-396 280.8,-359.97 279.8,-298.02 282.59,-262.39"/>
<polygon fill="#1414ce" stroke="#1414ce" points="286.09,-262.51 283.55,-252.23 279.13,-261.86 286.09,-262.51"/>
</a>
</g>
</g>
<!-- 4 -->
<g id="node15" class="node">
<title>4</title>
<g id="a_node15"><a xlink:title="sys/types.h">
<polygon fill="#ffffff" stroke="black" points="454.5,-396 357.5,-396 357.5,-360 454.5,-360 454.5,-396"/>
<text text-anchor="middle" x="406" y="-374.3" font-family="Times,serif" font-size="14.00">sys/types.h</text>
</a>
</g>
</g>
<!-- 3&#45;&gt;4 -->
<g id="edge22" class="edge">
<title>3&#45;&gt;4</title>
<g id="a_edge22"><a xlink:title="include">
<path fill="none" stroke="#1414ce" d="M508.32,-432.05C490.13,-422.62 467.3,-410.78 447.82,-400.68"/>
<polygon fill="#1414ce" stroke="#1414ce" points="449.34,-397.53 438.85,-396.03 446.11,-403.74 449.34,-397.53"/>
</a>
</g>
</g>
<!-- 9 -->
<g id="node16" class="node">
<title>9</title>
<g id="a_node16"><a xlink:title="string.h">
<polygon fill="#ffffff" stroke="black" points="545.5,-396 472.5,-396 472.5,-360 545.5,-360 545.5,-396"/>
<text text-anchor="middle" x="509" y="-374.3" font-family="Times,serif" font-size="14.00">string.h</text>
</a>
</g>
</g>
<!-- 3&#45;&gt;9 -->
<g id="edge27" class="edge">
<title>3&#45;&gt;9</title>
<g id="a_edge27"><a xlink:title="include">
<path fill="none" stroke="#1414ce" d="M533.09,-431.7C529.45,-423.73 525.05,-414.1 521.01,-405.26"/>
<polygon fill="#1414ce" stroke="#1414ce" points="524.16,-403.74 516.82,-396.1 517.79,-406.65 524.16,-403.74"/>
</a>
</g>
</g>
<!-- 3&#45;&gt;12 -->
<g id="edge31" class="edge">
<title>3&#45;&gt;12</title>
<g id="a_edge31"><a xlink:title="include">
<path fill="none" stroke="#1414ce" d="M508.24,-448.41C458.04,-446.17 360.5,-436.46 290,-396 177.57,-331.48 140.69,-300.93 94,-180 88.24,-165.07 88.4,-158.99 94,-144 97.88,-133.62 104.8,-123.93 112.12,-115.74"/>
<polygon fill="#1414ce" stroke="#1414ce" points="114.78,-118.03 119.18,-108.38 109.73,-113.18 114.78,-118.03"/>
</a>
</g>
</g>
<!-- 3&#45;&gt;7 -->
<g id="edge25" class="edge">
<title>3&#45;&gt;7</title>
<g id="a_edge25"><a xlink:title="include">
<path fill="none" stroke="#1414ce" d="M573.78,-443.98C620.25,-436.11 701.61,-419.33 719,-396 759.11,-342.21 653.13,-292.3 647,-288 616.07,-266.32 592.12,-282.63 570,-252 541.53,-212.57 542.83,-153.02 546.69,-118.47"/>
<polygon fill="#1414ce" stroke="#1414ce" points="550.21,-118.55 548,-108.19 543.27,-117.67 550.21,-118.55"/>
</a>
</g>
</g>
<!-- 11&#45;&gt;12 -->
<g id="edge32" class="edge">
<title>11&#45;&gt;12</title>
<g id="a_edge32"><a xlink:title="include">
<path fill="none" stroke="#1414ce" d="M140,-143.7C140,-135.98 140,-126.71 140,-118.11"/>
<polygon fill="#1414ce" stroke="#1414ce" points="143.5,-118.1 140,-108.1 136.5,-118.1 143.5,-118.1"/>
</a>
</g>
</g>
<!-- 14 -->
<g id="node14" class="node">
<title>14</title>
<g id="a_node14"><a xlink:title="limits.h">
<polygon fill="#ffffff" stroke="black" points="163.5,-36 92.5,-36 92.5,0 163.5,0 163.5,-36"/>
<text text-anchor="middle" x="128" y="-14.3" font-family="Times,serif" font-size="14.00">limits.h</text>
</a>
</g>
</g>
<!-- 12&#45;&gt;13 -->
<g id="edge33" class="edge">
<title>12&#45;&gt;13</title>
<g id="a_edge33"><a xlink:title="include">
<path fill="none" stroke="#1414ce" d="M114.8,-71.88C101.59,-62.89 85.21,-51.76 70.89,-42.03"/>
<polygon fill="#1414ce" stroke="#1414ce" points="72.53,-38.92 62.29,-36.19 68.6,-44.71 72.53,-38.92"/>
</a>
</g>
</g>
<!-- 12&#45;&gt;6 -->
<g id="edge36" class="edge">
<title>12&#45;&gt;6</title>
<g id="a_edge36"><a xlink:title="include">
<path fill="none" stroke="#1414ce" d="M185.26,-71.88C213.9,-61.04 250.8,-47.08 279.48,-36.22"/>
<polygon fill="#1414ce" stroke="#1414ce" points="280.76,-39.48 288.88,-32.67 278.28,-32.93 280.76,-39.48"/>
</a>
</g>
</g>
<!-- 12&#45;&gt;14 -->
<g id="edge34" class="edge">
<title>12&#45;&gt;14</title>
<g id="a_edge34"><a xlink:title="include">
<path fill="none" stroke="#1414ce" d="M137.03,-71.7C135.71,-63.98 134.12,-54.71 132.65,-46.11"/>
<polygon fill="#1414ce" stroke="#1414ce" points="136.07,-45.37 130.93,-36.1 129.17,-46.55 136.07,-45.37"/>
</a>
</g>
</g>
<!-- 15 -->
<g id="node24" class="node">
<title>15</title>
<g id="a_node24"><a xlink:title="inttypes.h">
<polygon fill="#ffffff" stroke="black" points="270.5,-36 181.5,-36 181.5,0 270.5,0 270.5,-36"/>
<text text-anchor="middle" x="226" y="-14.3" font-family="Times,serif" font-size="14.00">inttypes.h</text>
</a>
</g>
</g>
<!-- 12&#45;&gt;15 -->
<g id="edge35" class="edge">
<title>12&#45;&gt;15</title>
<g id="a_edge35"><a xlink:title="include">
<path fill="none" stroke="#1414ce" d="M161.26,-71.7C172.09,-62.88 185.42,-52.03 197.16,-42.47"/>
<polygon fill="#1414ce" stroke="#1414ce" points="199.44,-45.13 204.99,-36.1 195.02,-39.7 199.44,-45.13"/>
</a>
</g>
</g>
<!-- 1 -->
<g id="node18" class="node">
<title>1</title>
<g id="a_node18"><a xlink:title="/__w/AtomVM/AtomVM/src/libAtomVM/bitstring.c">
<polygon fill="#bfbfbf" stroke="black" points="725,-612 357,-612 357,-576 725,-576 725,-612"/>
<text text-anchor="middle" x="541" y="-590.3" font-family="Times,serif" font-size="14.00">/__w/AtomVM/AtomVM/src/libAtomVM/bitstring.c</text>
</a>
</g>
</g>
<!-- 1&#45;&gt;13 -->
<g id="edge38" class="edge">
<title>1&#45;&gt;13</title>
<g id="a_edge38"><a xlink:title="include">
<path fill="none" stroke="#1414ce" d="M359.4,-575.99C214.97,-557.26 37,-520.15 37,-451 37,-451 37,-451 37,-161 37,-121 37,-74.65 37,-46.08"/>
<polygon fill="#1414ce" stroke="#1414ce" points="40.5,-46.05 37,-36.05 33.5,-46.05 40.5,-46.05"/>
</a>
</g>
</g>
<!-- 2 -->
<g id="node19" class="node">
<title>2</title>
<g id="a_node19"><a xlink:title="bitstring.h">
<polygon fill="#ffffff" stroke="black" points="587,-540 495,-540 495,-504 587,-504 587,-540"/>
<text text-anchor="middle" x="541" y="-518.3" font-family="Times,serif" font-size="14.00">bitstring.h</text>
</a>
</g>
</g>
<!-- 1&#45;&gt;2 -->
<g id="edge37" class="edge">
<title>1&#45;&gt;2</title>
<g id="a_edge37"><a xlink:title="include">
<path fill="none" stroke="#1414ce" d="M541,-575.7C541,-567.98 541,-558.71 541,-550.11"/>
<polygon fill="#1414ce" stroke="#1414ce" points="544.5,-550.1 541,-540.1 537.5,-550.1 544.5,-550.1"/>
</a>
</g>
</g>
<!-- 24 -->
<g id="node21" class="node">
<title>24</title>
<g id="a_node21"><a xlink:title="math.h">
<polygon fill="#ffffff" stroke="black" points="672.5,-540 605.5,-540 605.5,-504 672.5,-504 672.5,-540"/>
<text text-anchor="middle" x="639" y="-518.3" font-family="Times,serif" font-size="14.00">math.h</text>
</a>
</g>
</g>
<!-- 1&#45;&gt;24 -->
<g id="edge39" class="edge">
<title>1&#45;&gt;24</title>
<g id="a_edge39"><a xlink:title="include">
<path fill="none" stroke="#1414ce" d="M564.97,-575.88C577.55,-566.89 593.13,-555.76 606.75,-546.03"/>
<polygon fill="#1414ce" stroke="#1414ce" points="608.83,-548.85 614.93,-540.19 604.76,-543.15 608.83,-548.85"/>
</a>
</g>
</g>
<!-- 2&#45;&gt;5 -->
<g id="edge42" class="edge">
<title>2&#45;&gt;5</title>
<g id="a_edge42"><a xlink:title="include">
<path fill="none" stroke="#1414ce" d="M587.05,-506.66C590.41,-505.73 593.75,-504.83 597,-504 761.11,-462.11 957,-548.37 957,-379 957,-379 957,-379 957,-233 957,-192.55 964.72,-174.36 938,-144 912.96,-115.56 871.74,-102.38 838.69,-96.27"/>
<polygon fill="#1414ce" stroke="#1414ce" points="839.16,-92.8 828.72,-94.59 838,-99.7 839.16,-92.8"/>
</a>
</g>
</g>
<!-- 2&#45;&gt;6 -->
<g id="edge43" class="edge">
<title>2&#45;&gt;6</title>
<g id="a_edge43"><a xlink:title="include">
<path fill="none" stroke="#1414ce" d="M494.98,-521.18C405.12,-518.86 215,-499.69 215,-379 215,-379 215,-379 215,-305 215,-203.05 276.65,-93.46 307.64,-44.8"/>
<polygon fill="#1414ce" stroke="#1414ce" points="310.73,-46.47 313.23,-36.17 304.86,-42.67 310.73,-46.47"/>
</a>
</g>
</g>
<!-- 2&#45;&gt;3 -->
<g id="edge40" class="edge">
<title>2&#45;&gt;3</title>
<g id="a_edge40"><a xlink:title="include">
<path fill="none" stroke="#1414ce" d="M541,-503.7C541,-495.98 541,-486.71 541,-478.11"/>
<polygon fill="#1414ce" stroke="#1414ce" points="544.5,-478.1 541,-468.1 537.5,-478.1 544.5,-478.1"/>
</a>
</g>
</g>
<!-- 23 -->
<g id="node22" class="node">
<title>23</title>
<g id="a_node22"><a xlink:title="unicode.h">
<polygon fill="#ffffff" stroke="black" points="929,-180 843,-180 843,-144 929,-144 929,-180"/>
<text text-anchor="middle" x="886" y="-158.3" font-family="Times,serif" font-size="14.00">unicode.h</text>
</a>
</g>
</g>
<!-- 2&#45;&gt;23 -->
<g id="edge41" class="edge">
<title>2&#45;&gt;23</title>
<g id="a_edge41"><a xlink:title="include">
<path fill="none" stroke="#1414ce" d="M587.19,-506.45C669.88,-480.12 839.73,-424.63 895,-396 906.61,-389.99 919,-392.07 919,-379 919,-379 919,-379 919,-305 919,-263.97 905.77,-217.97 896.06,-189.74"/>
<polygon fill="#1414ce" stroke="#1414ce" points="899.32,-188.45 892.68,-180.19 892.72,-190.78 899.32,-188.45"/>
</a>
</g>
</g>
<!-- 22&#45;&gt;5 -->
<g id="edge44" class="edge">
<title>22&#45;&gt;5</title>
<g id="a_edge44"><a xlink:title="include">
<path fill="none" stroke="#1414ce" d="M677.03,-145.98C696.51,-136.25 722.19,-123.41 743.83,-112.58"/>
<polygon fill="#1414ce" stroke="#1414ce" points="745.45,-115.69 752.83,-108.08 742.32,-109.43 745.45,-115.69"/>
</a>
</g>
</g>
<!-- 23&#45;&gt;5 -->
<g id="edge45" class="edge">
<title>23&#45;&gt;5</title>
<g id="a_edge45"><a xlink:title="include">
<path fill="none" stroke="#1414ce" d="M861.78,-143.88C849.08,-134.89 833.34,-123.76 819.58,-114.03"/>
<polygon fill="#1414ce" stroke="#1414ce" points="821.5,-111.11 811.31,-108.19 817.46,-116.82 821.5,-111.11"/>
</a>
</g>
</g>
<!-- 23&#45;&gt;6 -->
<g id="edge47" class="edge">
<title>23&#45;&gt;6</title>
<g id="a_edge47"><a xlink:title="include">
<path fill="none" stroke="#1414ce" d="M881.99,-143.96C876.14,-123.19 863.1,-88.79 838,-72 762.3,-21.36 482.95,-17.74 371.43,-18.38"/>
<polygon fill="#1414ce" stroke="#1414ce" points="371.14,-14.88 361.17,-18.46 371.19,-21.88 371.14,-14.88"/>
</a>
</g>
</g>
<!-- 23&#45;&gt;17 -->
<g id="edge46" class="edge">
<title>23&#45;&gt;17</title>
<g id="a_edge46"><a xlink:title="include">
<path fill="none" stroke="#1414ce" d="M842.81,-147C806.3,-135.17 754.13,-118.26 716.67,-106.12"/>
<polygon fill="#1414ce" stroke="#1414ce" points="717.59,-102.74 707,-102.99 715.44,-109.4 717.59,-102.74"/>
</a>
</g>
</g>
</g>
</svg>
