<?xml version="1.0" encoding="UTF-8" standalone="no"?>
<!DOCTYPE svg PUBLIC "-//W3C//DTD SVG 1.1//EN"
 "http://www.w3.org/Graphics/SVG/1.1/DTD/svg11.dtd">
<!-- Generated by graphviz version 2.43.0 (0)
 -->
<!-- Title: %3 Pages: 1 -->
<svg width="1230pt" height="476pt"
 viewBox="0.00 0.00 1230.17 476.00" xmlns="http://www.w3.org/2000/svg" xmlns:xlink="http://www.w3.org/1999/xlink">
<g id="graph0" class="graph" transform="scale(1 1) rotate(0) translate(4 472)">
<title>%3</title>
<polygon fill="transparent" stroke="transparent" points="-4,4 -4,-472 1226.17,-472 1226.17,4 -4,4"/>
<!-- 21 -->
<g id="node1" class="node">
<title>21</title>
<g id="a_node1"><a xlink:title="SpinLock">
<polygon fill="#ffffff" stroke="black" points="365.67,-324 283.67,-324 283.67,-288 365.67,-288 365.67,-324"/>
<text text-anchor="middle" x="324.67" y="-302.3" font-family="Times,serif" font-size="14.00">SpinLock</text>
</a>
</g>
</g>
<!-- 15 -->
<g id="node2" class="node">
<title>15</title>
<g id="a_node2"><a xlink:title="ResourceType">
<polygon fill="#ffffff" stroke="black" points="529.17,-180 412.17,-180 412.17,-144 529.17,-144 529.17,-180"/>
<text text-anchor="middle" x="470.67" y="-158.3" font-family="Times,serif" font-size="14.00">ResourceType</text>
</a>
</g>
</g>
<!-- 7 -->
<g id="node4" class="node">
<title>7</title>
<g id="a_node4"><a xlink:title="ListHead">
<polygon fill="#ffffff" stroke="black" points="607.17,-36 526.17,-36 526.17,0 607.17,0 607.17,-36"/>
<text text-anchor="middle" x="566.67" y="-14.3" font-family="Times,serif" font-size="14.00">ListHead</text>
</a>
</g>
</g>
<!-- 15&#45;&gt;7 -->
<g id="edge3" class="edge">
<title>15&#45;&gt;7</title>
<g id="a_edge3"><a xlink:title="usage">
<path fill="none" stroke="#1414ce" d="M482.25,-143.87C498.97,-119.14 530,-73.24 549.42,-44.51"/>
<polygon fill="#1414ce" stroke="#1414ce" points="552.34,-46.43 555.05,-36.19 546.54,-42.51 552.34,-46.43"/>
</a>
</g>
</g>
<!-- 4 -->
<g id="node7" class="node">
<title>4</title>
<g id="a_node7"><a xlink:title="GlobalContext">
<polygon fill="#ffffff" stroke="black" points="623.17,-396 504.17,-396 504.17,-360 623.17,-360 623.17,-396"/>
<text text-anchor="middle" x="563.67" y="-374.3" font-family="Times,serif" font-size="14.00">GlobalContext</text>
</a>
</g>
</g>
<!-- 15&#45;&gt;4 -->
<g id="edge2" class="edge">
<title>15&#45;&gt;4</title>
<g id="a_edge2"><a xlink:title="usage">
<path fill="none" stroke="#1414ce" d="M440.53,-180.12C423.7,-190.04 402.59,-203.08 384.67,-216 364.45,-230.58 362.31,-238.03 341.67,-252 313.67,-270.95 292.01,-258.99 274.67,-288 266.46,-301.73 264.42,-311.71 274.67,-324 302.05,-356.86 417.6,-369.41 494.04,-374.16"/>
<polygon fill="#1414ce" stroke="#1414ce" points="493.89,-377.66 504.08,-374.76 494.31,-370.67 493.89,-377.66"/>
</a>
</g>
</g>
<!-- 6 -->
<g id="node20" class="node">
<title>6</title>
<g id="a_node20"><a xlink:title="SyncList">
<polygon fill="#ffffff" stroke="black" points="239.67,-108 161.67,-108 161.67,-72 239.67,-72 239.67,-108"/>
<text text-anchor="middle" x="200.67" y="-86.3" font-family="Times,serif" font-size="14.00">SyncList</text>
</a>
</g>
</g>
<!-- 15&#45;&gt;6 -->
<g id="edge1" class="edge">
<title>15&#45;&gt;6</title>
<g id="a_edge1"><a xlink:title="usage">
<path fill="none" stroke="#1414ce" d="M412.08,-145.81C363.63,-133.25 295.61,-115.61 249.93,-103.77"/>
<polygon fill="#1414ce" stroke="#1414ce" points="250.52,-100.31 239.96,-101.19 248.76,-107.09 250.52,-100.31"/>
</a>
</g>
</g>
<!-- 16 -->
<g id="node3" class="node">
<title>16</title>
<g id="a_node3"><a xlink:title="Module">
<polygon fill="#ffffff" stroke="black" points="227.67,-324 157.67,-324 157.67,-288 227.67,-288 227.67,-324"/>
<text text-anchor="middle" x="192.67" y="-302.3" font-family="Times,serif" font-size="14.00">Module</text>
</a>
</g>
</g>
<!-- 16&#45;&gt;7 -->
<g id="edge6" class="edge">
<title>16&#45;&gt;7</title>
<g id="a_edge6"><a xlink:title="usage">
<path fill="none" stroke="#1414ce" d="M227.76,-293.45C251.93,-284.46 284.01,-270.42 308.67,-252 321.41,-242.48 391.06,-154.88 402.67,-144 444.57,-104.73 498.35,-65.6 532.67,-41.85"/>
<polygon fill="#1414ce" stroke="#1414ce" points="534.7,-44.7 540.96,-36.15 530.73,-38.93 534.7,-44.7"/>
</a>
</g>
</g>
<!-- 18 -->
<g id="node11" class="node">
<title>18</title>
<g id="a_node11"><a xlink:title="LiteralEntry">
<polygon fill="#ffffff" stroke="black" points="135.67,-252 31.67,-252 31.67,-216 135.67,-216 135.67,-252"/>
<text text-anchor="middle" x="83.67" y="-230.3" font-family="Times,serif" font-size="14.00">LiteralEntry</text>
</a>
</g>
</g>
<!-- 16&#45;&gt;18 -->
<g id="edge5" class="edge">
<title>16&#45;&gt;18</title>
<g id="a_edge5"><a xlink:title="usage">
<path fill="none" stroke="#1414ce" d="M166,-287.88C151.88,-278.81 134.35,-267.55 119.11,-257.76"/>
<polygon fill="#1414ce" stroke="#1414ce" points="120.74,-254.65 110.43,-252.19 116.96,-260.54 120.74,-254.65"/>
</a>
</g>
</g>
<!-- 17 -->
<g id="node19" class="node">
<title>17</title>
<g id="a_node19"><a xlink:title="ExportedFunction">
<polygon fill="#ffffff" stroke="black" points="299.67,-252 153.67,-252 153.67,-216 299.67,-216 299.67,-252"/>
<text text-anchor="middle" x="226.67" y="-230.3" font-family="Times,serif" font-size="14.00">ExportedFunction</text>
</a>
</g>
</g>
<!-- 16&#45;&gt;17 -->
<g id="edge4" class="edge">
<title>16&#45;&gt;17</title>
<g id="a_edge4"><a xlink:title="usage">
<path fill="none" stroke="#1414ce" d="M201.07,-287.7C204.94,-279.73 209.62,-270.1 213.91,-261.26"/>
<polygon fill="#1414ce" stroke="#1414ce" points="217.14,-262.63 218.36,-252.1 210.84,-259.57 217.14,-262.63"/>
</a>
</g>
</g>
<!-- 7&#45;&gt;7 -->
<g id="edge7" class="edge">
<title>7&#45;&gt;7</title>
<g id="a_edge7"><a xlink:title="usage">
<path fill="none" stroke="#1414ce" d="M607.4,-31.31C617.57,-30.38 625.17,-25.95 625.17,-18 625.17,-12.91 622.05,-9.26 617.13,-7.05"/>
<polygon fill="#1414ce" stroke="#1414ce" points="617.94,-3.64 607.4,-4.69 616.29,-10.45 617.94,-3.64"/>
</a>
</g>
</g>
<!-- 3 -->
<g id="node5" class="node">
<title>3</title>
<g id="a_node5"><a xlink:title="HeapFragment">
<polygon fill="#ffffff" stroke="black" points="1204.17,-36 1079.17,-36 1079.17,0 1204.17,0 1204.17,-36"/>
<text text-anchor="middle" x="1141.67" y="-14.3" font-family="Times,serif" font-size="14.00">HeapFragment</text>
</a>
</g>
</g>
<!-- 3&#45;&gt;3 -->
<g id="edge8" class="edge">
<title>3&#45;&gt;3</title>
<g id="a_edge8"><a xlink:title="usage">
<path fill="none" stroke="#1414ce" d="M1204.44,-30.55C1214.93,-28.79 1222.17,-24.61 1222.17,-18 1222.17,-13.77 1219.2,-10.53 1214.31,-8.29"/>
<polygon fill="#1414ce" stroke="#1414ce" points="1215.02,-4.85 1204.44,-5.45 1213.09,-11.58 1215.02,-4.85"/>
</a>
</g>
</g>
<!-- 13 -->
<g id="node6" class="node">
<title>13</title>
<g id="a_node6"><a xlink:title="RefcBinaryQueueItem">
<polygon fill="#ffffff" stroke="black" points="751.67,-324 577.67,-324 577.67,-288 751.67,-288 751.67,-324"/>
<text text-anchor="middle" x="664.67" y="-302.3" font-family="Times,serif" font-size="14.00">RefcBinaryQueueItem</text>
</a>
</g>
</g>
<!-- 13&#45;&gt;13 -->
<g id="edge10" class="edge">
<title>13&#45;&gt;13</title>
<g id="a_edge10"><a xlink:title="usage">
<path fill="none" stroke="#1414ce" d="M751.97,-317.68C762.66,-315.59 769.67,-311.7 769.67,-306 769.67,-302.35 766.79,-299.44 761.91,-297.27"/>
<polygon fill="#1414ce" stroke="#1414ce" points="762.55,-293.81 751.97,-294.32 760.56,-300.52 762.55,-293.81"/>
</a>
</g>
</g>
<!-- 14 -->
<g id="node16" class="node">
<title>14</title>
<g id="a_node16"><a xlink:title="RefcBinary">
<polygon fill="#ffffff" stroke="black" points="662.17,-252 567.17,-252 567.17,-216 662.17,-216 662.17,-252"/>
<text text-anchor="middle" x="614.67" y="-230.3" font-family="Times,serif" font-size="14.00">RefcBinary</text>
</a>
</g>
</g>
<!-- 13&#45;&gt;14 -->
<g id="edge9" class="edge">
<title>13&#45;&gt;14</title>
<g id="a_edge9"><a xlink:title="usage">
<path fill="none" stroke="#1414ce" d="M652.31,-287.7C646.43,-279.47 639.3,-269.48 632.82,-260.42"/>
<polygon fill="#1414ce" stroke="#1414ce" points="635.54,-258.21 626.88,-252.1 629.85,-262.28 635.54,-258.21"/>
</a>
</g>
</g>
<!-- 4&#45;&gt;21 -->
<g id="edge19" class="edge">
<title>4&#45;&gt;21</title>
<g id="a_edge19"><a xlink:title="usage">
<path fill="none" stroke="#1414ce" d="M503.84,-361.12C468.87,-351.63 423.7,-339.01 375.49,-324.18"/>
<polygon fill="#1414ce" stroke="#1414ce" points="376.4,-320.8 365.81,-321.19 374.33,-327.49 376.4,-320.8"/>
</a>
</g>
</g>
<!-- 4&#45;&gt;16 -->
<g id="edge16" class="edge">
<title>4&#45;&gt;16</title>
<g id="a_edge16"><a xlink:title="usage">
<path fill="none" stroke="#1414ce" d="M503.99,-370.28C438.87,-362.23 331.86,-346.89 241.67,-324 240.25,-323.64 238.81,-323.26 237.37,-322.86"/>
<polygon fill="#1414ce" stroke="#1414ce" points="238.36,-319.5 227.78,-319.99 236.35,-326.21 238.36,-319.5"/>
</a>
</g>
</g>
<!-- 4&#45;&gt;7 -->
<g id="edge20" class="edge">
<title>4&#45;&gt;7</title>
<g id="a_edge20"><a xlink:title="usage">
<path fill="none" stroke="#1414ce" d="M623.19,-369.47C679.12,-361.17 757.33,-346.02 778.67,-324 806.81,-294.95 797.67,-275.45 797.67,-235 797.67,-235 797.67,-235 797.67,-161 797.67,-76.93 685.25,-41.05 617.27,-27.04"/>
<polygon fill="#1414ce" stroke="#1414ce" points="617.66,-23.55 607.17,-25.05 616.3,-30.42 617.66,-23.55"/>
</a>
</g>
</g>
<!-- 4&#45;&gt;13 -->
<g id="edge14" class="edge">
<title>4&#45;&gt;13</title>
<g id="a_edge14"><a xlink:title="usage">
<path fill="none" stroke="#1414ce" d="M588.37,-359.88C601.33,-350.89 617.39,-339.76 631.43,-330.03"/>
<polygon fill="#1414ce" stroke="#1414ce" points="633.64,-332.76 639.86,-324.19 629.65,-327.01 633.64,-332.76"/>
</a>
</g>
</g>
<!-- 5 -->
<g id="node8" class="node">
<title>5</title>
<g id="a_node8"><a xlink:title="Ets">
<polygon fill="#ffffff" stroke="black" points="107.67,-180 53.67,-180 53.67,-144 107.67,-144 107.67,-180"/>
<text text-anchor="middle" x="80.67" y="-158.3" font-family="Times,serif" font-size="14.00">Ets</text>
</a>
</g>
</g>
<!-- 4&#45;&gt;5 -->
<g id="edge11" class="edge">
<title>4&#45;&gt;5</title>
<g id="a_edge11"><a xlink:title="usage">
<path fill="none" stroke="#1414ce" d="M503.98,-376.63C421.87,-374.5 270.4,-364.76 148.67,-324 87.51,-303.52 55.04,-307.79 22.67,-252 14.64,-238.16 16.21,-230.64 22.67,-216 27.7,-204.59 36.53,-194.57 45.81,-186.41"/>
<polygon fill="#1414ce" stroke="#1414ce" points="48.12,-189.04 53.63,-179.99 43.68,-183.62 48.12,-189.04"/>
</a>
</g>
</g>
<!-- 20 -->
<g id="node10" class="node">
<title>20</title>
<g id="a_node10"><a xlink:title="TimerList">
<polygon fill="#ffffff" stroke="black" points="911.67,-108 825.67,-108 825.67,-72 911.67,-72 911.67,-108"/>
<text text-anchor="middle" x="868.67" y="-86.3" font-family="Times,serif" font-size="14.00">TimerList</text>
</a>
</g>
</g>
<!-- 4&#45;&gt;20 -->
<g id="edge18" class="edge">
<title>4&#45;&gt;20</title>
<g id="a_edge18"><a xlink:title="usage">
<path fill="none" stroke="#1414ce" d="M623.18,-371.52C687.79,-364.36 785.29,-349.61 811.67,-324 841.01,-295.51 858.88,-173.59 865.61,-118.37"/>
<polygon fill="#1414ce" stroke="#1414ce" points="869.1,-118.6 866.81,-108.26 862.15,-117.78 869.1,-118.6"/>
</a>
</g>
</g>
<!-- 8 -->
<g id="node14" class="node">
<title>8</title>
<g id="a_node14"><a xlink:title="MessageQueueItem">
<polygon fill="#ffffff" stroke="black" points="541.67,-324 383.67,-324 383.67,-288 541.67,-288 541.67,-324"/>
<text text-anchor="middle" x="462.67" y="-302.3" font-family="Times,serif" font-size="14.00">MessageQueueItem</text>
</a>
</g>
</g>
<!-- 4&#45;&gt;8 -->
<g id="edge12" class="edge">
<title>4&#45;&gt;8</title>
<g id="a_edge12"><a xlink:title="usage">
<path fill="none" stroke="#1414ce" d="M538.96,-359.88C526,-350.89 509.94,-339.76 495.9,-330.03"/>
<polygon fill="#1414ce" stroke="#1414ce" points="497.68,-327.01 487.47,-324.19 493.69,-332.76 497.68,-327.01"/>
</a>
</g>
</g>
<!-- 19 -->
<g id="node15" class="node">
<title>19</title>
<g id="a_node15"><a xlink:title="AtomsHashTable">
<polygon fill="#ffffff" stroke="black" points="1001.17,-252 864.17,-252 864.17,-216 1001.17,-216 1001.17,-252"/>
<text text-anchor="middle" x="932.67" y="-230.3" font-family="Times,serif" font-size="14.00">AtomsHashTable</text>
</a>
</g>
</g>
<!-- 4&#45;&gt;19 -->
<g id="edge17" class="edge">
<title>4&#45;&gt;19</title>
<g id="a_edge17"><a xlink:title="usage">
<path fill="none" stroke="#1414ce" d="M623.42,-376.66C683.94,-373.95 778.5,-363.04 849.67,-324 877.38,-308.8 901.05,-280.96 915.94,-260.45"/>
<polygon fill="#1414ce" stroke="#1414ce" points="918.87,-262.36 921.77,-252.17 913.15,-258.34 918.87,-262.36"/>
</a>
</g>
</g>
<!-- 10 -->
<g id="node18" class="node">
<title>10</title>
<g id="a_node18"><a xlink:title="AtomTable">
<polygon fill="#ffffff" stroke="black" points="1075.67,-324 983.67,-324 983.67,-288 1075.67,-288 1075.67,-324"/>
<text text-anchor="middle" x="1029.67" y="-302.3" font-family="Times,serif" font-size="14.00">AtomTable</text>
</a>
</g>
</g>
<!-- 4&#45;&gt;10 -->
<g id="edge13" class="edge">
<title>4&#45;&gt;10</title>
<g id="a_edge13"><a xlink:title="usage">
<path fill="none" stroke="#1414ce" d="M623.17,-368.13C693.52,-357.63 814.12,-339.61 917.67,-324 935.88,-321.25 955.75,-318.24 973.64,-315.53"/>
<polygon fill="#1414ce" stroke="#1414ce" points="974.26,-318.97 983.62,-314.01 973.21,-312.05 974.26,-318.97"/>
</a>
</g>
</g>
<!-- 4&#45;&gt;6 -->
<g id="edge15" class="edge">
<title>4&#45;&gt;6</title>
<g id="a_edge15"><a xlink:title="usage">
<path fill="none" stroke="#1414ce" d="M503.89,-374.1C376.18,-367.44 85.31,-349.63 48.67,-324 -16.9,-278.13 -14.11,-198.3 44.67,-144 73.99,-116.91 117.7,-103.61 151.4,-97.11"/>
<polygon fill="#1414ce" stroke="#1414ce" points="152.29,-100.5 161.51,-95.3 151.05,-93.61 152.29,-100.5"/>
</a>
</g>
</g>
<!-- 5&#45;&gt;6 -->
<g id="edge21" class="edge">
<title>5&#45;&gt;6</title>
<g id="a_edge21"><a xlink:title="usage">
<path fill="none" stroke="#1414ce" d="M107.9,-145.12C124.03,-135.7 144.73,-123.63 162.47,-113.28"/>
<polygon fill="#1414ce" stroke="#1414ce" points="164.57,-116.11 171.45,-108.04 161.05,-110.06 164.57,-116.11"/>
</a>
</g>
</g>
<!-- 12 -->
<g id="node9" class="node">
<title>12</title>
<g id="a_node9"><a xlink:title="HNodeGroup">
<polygon fill="#ffffff" stroke="black" points="1167.67,-252 1057.67,-252 1057.67,-216 1167.67,-216 1167.67,-252"/>
<text text-anchor="middle" x="1112.67" y="-230.3" font-family="Times,serif" font-size="14.00">HNodeGroup</text>
</a>
</g>
</g>
<!-- 12&#45;&gt;12 -->
<g id="edge23" class="edge">
<title>12&#45;&gt;12</title>
<g id="a_edge23"><a xlink:title="usage">
<path fill="none" stroke="#1414ce" d="M1167.74,-246.85C1178.24,-245.32 1185.67,-241.03 1185.67,-234 1185.67,-229.5 1182.62,-226.12 1177.67,-223.87"/>
<polygon fill="#1414ce" stroke="#1414ce" points="1178.31,-220.42 1167.74,-221.15 1176.46,-227.17 1178.31,-220.42"/>
</a>
</g>
</g>
<!-- 11 -->
<g id="node21" class="node">
<title>11</title>
<g id="a_node21"><a xlink:title="HNode">
<polygon fill="#ffffff" stroke="black" points="1103.67,-180 1037.67,-180 1037.67,-144 1103.67,-144 1103.67,-180"/>
<text text-anchor="middle" x="1070.67" y="-158.3" font-family="Times,serif" font-size="14.00">HNode</text>
</a>
</g>
</g>
<!-- 12&#45;&gt;11 -->
<g id="edge22" class="edge">
<title>12&#45;&gt;11</title>
<g id="a_edge22"><a xlink:title="usage">
<path fill="none" stroke="#1414ce" d="M1102.28,-215.7C1097.4,-207.56 1091.48,-197.69 1086.09,-188.7"/>
<polygon fill="#1414ce" stroke="#1414ce" points="1089.07,-186.88 1080.93,-180.1 1083.07,-190.48 1089.07,-186.88"/>
</a>
</g>
</g>
<!-- 20&#45;&gt;7 -->
<g id="edge24" class="edge">
<title>20&#45;&gt;7</title>
<g id="a_edge24"><a xlink:title="usage">
<path fill="none" stroke="#1414ce" d="M825.5,-75.75C820.85,-74.43 816.17,-73.16 811.67,-72 744.83,-54.83 666.79,-38.6 617.07,-28.73"/>
<polygon fill="#1414ce" stroke="#1414ce" points="617.7,-25.28 607.21,-26.78 616.34,-32.15 617.7,-25.28"/>
</a>
</g>
</g>
<!-- 9 -->
<g id="node12" class="node">
<title>9</title>
<g id="a_node12"><a xlink:title="MailboxMessage">
<polygon fill="#ffffff" stroke="black" points="531.17,-252 394.17,-252 394.17,-216 531.17,-216 531.17,-252"/>
<text text-anchor="middle" x="462.67" y="-230.3" font-family="Times,serif" font-size="14.00">MailboxMessage</text>
</a>
</g>
</g>
<!-- 9&#45;&gt;9 -->
<g id="edge25" class="edge">
<title>9&#45;&gt;9</title>
<g id="a_edge25"><a xlink:title="usage">
<path fill="none" stroke="#1414ce" d="M531.19,-246.37C541.88,-244.52 549.17,-240.4 549.17,-234 549.17,-229.8 546.03,-226.58 540.85,-224.34"/>
<polygon fill="#1414ce" stroke="#1414ce" points="541.77,-220.96 531.19,-221.63 539.87,-227.7 541.77,-220.96"/>
</a>
</g>
</g>
<!-- 2 -->
<g id="node13" class="node">
<title>2</title>
<g id="a_node13"><a xlink:title="Heap">
<polygon fill="#ffffff" stroke="black" points="1168.67,-108 1114.67,-108 1114.67,-72 1168.67,-72 1168.67,-108"/>
<text text-anchor="middle" x="1141.67" y="-86.3" font-family="Times,serif" font-size="14.00">Heap</text>
</a>
</g>
</g>
<!-- 2&#45;&gt;3 -->
<g id="edge26" class="edge">
<title>2&#45;&gt;3</title>
<g id="a_edge26"><a xlink:title="usage">
<path fill="none" stroke="#1414ce" d="M1141.67,-71.7C1141.67,-63.98 1141.67,-54.71 1141.67,-46.11"/>
<polygon fill="#1414ce" stroke="#1414ce" points="1145.17,-46.1 1141.67,-36.1 1138.17,-46.1 1145.17,-46.1"/>
</a>
</g>
</g>
<!-- 8&#45;&gt;9 -->
<g id="edge27" class="edge">
<title>8&#45;&gt;9</title>
<g id="a_edge27"><a xlink:title="usage">
<path fill="none" stroke="#1414ce" d="M462.67,-287.7C462.67,-279.98 462.67,-270.71 462.67,-262.11"/>
<polygon fill="#1414ce" stroke="#1414ce" points="466.17,-262.1 462.67,-252.1 459.17,-262.1 466.17,-262.1"/>
</a>
</g>
</g>
<!-- 8&#45;&gt;8 -->
<g id="edge28" class="edge">
<title>8&#45;&gt;8</title>
<g id="a_edge28"><a xlink:title="usage">
<path fill="none" stroke="#1414ce" d="M541.83,-317.98C552.54,-315.97 559.67,-311.98 559.67,-306 559.67,-302.08 556.6,-299.01 551.46,-296.8"/>
<polygon fill="#1414ce" stroke="#1414ce" points="552.41,-293.43 541.83,-294.02 550.47,-300.15 552.41,-293.43"/>
</a>
</g>
</g>
<!-- 19&#45;&gt;11 -->
<g id="edge29" class="edge">
<title>19&#45;&gt;11</title>
<g id="a_edge29"><a xlink:title="usage">
<path fill="none" stroke="#1414ce" d="M966.42,-215.88C985.02,-206.44 1008.29,-194.64 1028.12,-184.58"/>
<polygon fill="#1414ce" stroke="#1414ce" points="1029.92,-187.59 1037.26,-179.95 1026.75,-181.35 1029.92,-187.59"/>
</a>
</g>
</g>
<!-- 14&#45;&gt;15 -->
<g id="edge30" class="edge">
<title>14&#45;&gt;15</title>
<g id="a_edge30"><a xlink:title="usage">
<path fill="none" stroke="#1414ce" d="M579.44,-215.88C560.09,-206.47 535.89,-194.71 515.24,-184.67"/>
<polygon fill="#1414ce" stroke="#1414ce" points="516.55,-181.41 506.03,-180.19 513.49,-187.71 516.55,-181.41"/>
</a>
</g>
</g>
<!-- 14&#45;&gt;7 -->
<g id="edge31" class="edge">
<title>14&#45;&gt;7</title>
<g id="a_edge31"><a xlink:title="usage">
<path fill="none" stroke="#1414ce" d="M610.82,-215.85C602.5,-178.75 582.77,-90.81 572.75,-46.1"/>
<polygon fill="#1414ce" stroke="#1414ce" points="576.14,-45.22 570.53,-36.23 569.3,-46.76 576.14,-45.22"/>
</a>
</g>
</g>
<!-- 1 -->
<g id="node17" class="node">
<title>1</title>
<g id="a_node17"><a xlink:title="ErlNifEnv">
<polygon fill="#bfbfbf" stroke="black" points="982.67,-468 894.67,-468 894.67,-432 982.67,-432 982.67,-468"/>
<text text-anchor="middle" x="938.67" y="-446.3" font-family="Times,serif" font-size="14.00">ErlNifEnv</text>
</a>
</g>
</g>
<!-- 1&#45;&gt;4 -->
<g id="edge33" class="edge">
<title>1&#45;&gt;4</title>
<g id="a_edge33"><a xlink:title="usage">
<path fill="none" stroke="#1414ce" d="M894.55,-440.76C830.16,-428.75 709.81,-406.28 633.37,-392.01"/>
<polygon fill="#1414ce" stroke="#1414ce" points="633.82,-388.54 623.35,-390.14 632.54,-395.42 633.82,-388.54"/>
</a>
</g>
</g>
<!-- 1&#45;&gt;2 -->
<g id="edge32" class="edge">
<title>1&#45;&gt;2</title>
<g id="a_edge32"><a xlink:title="usage">
<path fill="none" stroke="#1414ce" d="M982.85,-446.03C1060.59,-438.16 1213.67,-409.63 1213.67,-307 1213.67,-307 1213.67,-307 1213.67,-233 1213.67,-188.35 1185,-143.52 1163.85,-116.51"/>
<polygon fill="#1414ce" stroke="#1414ce" points="1166.3,-113.96 1157.29,-108.38 1160.85,-118.36 1166.3,-113.96"/>
</a>
</g>
</g>
<!-- 10&#45;&gt;12 -->
<g id="edge35" class="edge">
<title>10&#45;&gt;12</title>
<g id="a_edge35"><a xlink:title="usage">
<path fill="none" stroke="#1414ce" d="M1050.18,-287.7C1060.54,-278.97 1073.25,-268.24 1084.51,-258.75"/>
<polygon fill="#1414ce" stroke="#1414ce" points="1087,-261.23 1092.39,-252.1 1082.48,-255.88 1087,-261.23"/>
</a>
</g>
</g>
<!-- 10&#45;&gt;11 -->
<g id="edge34" class="edge">
<title>10&#45;&gt;11</title>
<g id="a_edge34"><a xlink:title="usage">
<path fill="none" stroke="#1414ce" d="M1032.39,-287.7C1035.47,-269.59 1041.06,-240.44 1048.67,-216 1051.39,-207.25 1055,-197.94 1058.5,-189.61"/>
<polygon fill="#1414ce" stroke="#1414ce" points="1061.74,-190.94 1062.51,-180.37 1055.32,-188.15 1061.74,-190.94"/>
</a>
</g>
</g>
<!-- 6&#45;&gt;7 -->
<g id="edge36" class="edge">
<title>6&#45;&gt;7</title>
<g id="a_edge36"><a xlink:title="usage">
<path fill="none" stroke="#1414ce" d="M239.83,-81.51C306.59,-68.74 442.31,-42.78 516.12,-28.67"/>
<polygon fill="#1414ce" stroke="#1414ce" points="516.95,-32.07 526.11,-26.76 515.63,-25.2 516.95,-32.07"/>
</a>
</g>
</g>
<!-- 11&#45;&gt;2 -->
<g id="edge38" class="edge">
<title>11&#45;&gt;2</title>
<g id="a_edge38"><a xlink:title="usage">
<path fill="none" stroke="#1414ce" d="M1088.22,-143.7C1096.9,-135.14 1107.53,-124.66 1117.01,-115.3"/>
<polygon fill="#1414ce" stroke="#1414ce" points="1119.65,-117.62 1124.32,-108.1 1114.74,-112.63 1119.65,-117.62"/>
</a>
</g>
</g>
<!-- 11&#45;&gt;11 -->
<g id="edge37" class="edge">
<title>11&#45;&gt;11</title>
<g id="a_edge37"><a xlink:title="usage">
<path fill="none" stroke="#1414ce" d="M1104.02,-175.47C1113.94,-175.07 1121.67,-170.58 1121.67,-162 1121.67,-156.64 1118.65,-152.87 1113.96,-150.71"/>
<polygon fill="#1414ce" stroke="#1414ce" points="1114.54,-147.25 1104.02,-148.53 1113.04,-154.09 1114.54,-147.25"/>
</a>
</g>
</g>
</g>
</svg>
