<?xml version="1.0" encoding="UTF-8" standalone="no"?>
<!DOCTYPE svg PUBLIC "-//W3C//DTD SVG 1.1//EN"
 "http://www.w3.org/Graphics/SVG/1.1/DTD/svg11.dtd">
<!-- Generated by graphviz version 2.43.0 (0)
 -->
<!-- Title: %3 Pages: 1 -->
<svg width="1539pt" height="548pt"
 viewBox="0.00 0.00 1539.00 548.00" xmlns="http://www.w3.org/2000/svg" xmlns:xlink="http://www.w3.org/1999/xlink">
<g id="graph0" class="graph" transform="scale(1 1) rotate(0) translate(4 544)">
<title>%3</title>
<polygon fill="transparent" stroke="transparent" points="-4,4 -4,-544 1535,-544 1535,4 -4,4"/>
<!-- 1 -->
<g id="node1" class="node">
<title>1</title>
<g id="a_node1"><a xlink:title="GCBif">
<polygon fill="#bfbfbf" stroke="black" points="1207.5,-540 1148.5,-540 1148.5,-504 1207.5,-504 1207.5,-540"/>
<text text-anchor="middle" x="1178" y="-518.3" font-family="Times,serif" font-size="14.00">GCBif</text>
</a>
</g>
</g>
<!-- 3 -->
<g id="node15" class="node">
<title>3</title>
<g id="a_node15"><a xlink:title="Context">
<polygon fill="#ffffff" stroke="black" points="962.5,-468 889.5,-468 889.5,-432 962.5,-432 962.5,-468"/>
<text text-anchor="middle" x="926" y="-446.3" font-family="Times,serif" font-size="14.00">Context</text>
</a>
</g>
</g>
<!-- 1&#45;&gt;3 -->
<g id="edge2" class="edge">
<title>1&#45;&gt;3</title>
<g id="a_edge2"><a xlink:title="usage">
<path fill="none" stroke="#1414ce" d="M1148.1,-512.7C1104.71,-500.64 1023.89,-478.19 972.63,-463.95"/>
<polygon fill="#1414ce" stroke="#1414ce" points="973.36,-460.52 962.79,-461.22 971.49,-467.27 973.36,-460.52"/>
</a>
</g>
</g>
<!-- 2 -->
<g id="node21" class="node">
<title>2</title>
<g id="a_node21"><a xlink:title="ExportedFunction">
<polygon fill="#ffffff" stroke="black" points="1503,-252 1357,-252 1357,-216 1503,-216 1503,-252"/>
<text text-anchor="middle" x="1430" y="-230.3" font-family="Times,serif" font-size="14.00">ExportedFunction</text>
</a>
</g>
</g>
<!-- 1&#45;&gt;2 -->
<g id="edge1" class="edge">
<title>1&#45;&gt;2</title>
<g id="a_edge1"><a xlink:title="usage">
<path fill="none" stroke="#1414ce" d="M1193.01,-503.97C1235.63,-455.6 1357.54,-317.23 1407.86,-260.12"/>
<polygon fill="#1414ce" stroke="#1414ce" points="1410.77,-262.12 1414.75,-252.31 1405.51,-257.5 1410.77,-262.12"/>
</a>
</g>
</g>
<!-- 24 -->
<g id="node2" class="node">
<title>24</title>
<g id="a_node2"><a xlink:title="SpinLock">
<polygon fill="#ffffff" stroke="black" points="534,-324 452,-324 452,-288 534,-288 534,-324"/>
<text text-anchor="middle" x="493" y="-302.3" font-family="Times,serif" font-size="14.00">SpinLock</text>
</a>
</g>
</g>
<!-- 13 -->
<g id="node3" class="node">
<title>13</title>
<g id="a_node3"><a xlink:title="ResourceType">
<polygon fill="#ffffff" stroke="black" points="555.5,-180 438.5,-180 438.5,-144 555.5,-144 555.5,-180"/>
<text text-anchor="middle" x="497" y="-158.3" font-family="Times,serif" font-size="14.00">ResourceType</text>
</a>
</g>
</g>
<!-- 7 -->
<g id="node5" class="node">
<title>7</title>
<g id="a_node5"><a xlink:title="ListHead">
<polygon fill="#ffffff" stroke="black" points="325.5,-36 244.5,-36 244.5,0 325.5,0 325.5,-36"/>
<text text-anchor="middle" x="285" y="-14.3" font-family="Times,serif" font-size="14.00">ListHead</text>
</a>
</g>
</g>
<!-- 13&#45;&gt;7 -->
<g id="edge5" class="edge">
<title>13&#45;&gt;7</title>
<g id="a_edge5"><a xlink:title="usage">
<path fill="none" stroke="#1414ce" d="M471.43,-143.87C433.31,-118.34 361.52,-70.25 319.01,-41.78"/>
<polygon fill="#1414ce" stroke="#1414ce" points="320.92,-38.85 310.66,-36.19 317.02,-44.66 320.92,-38.85"/>
</a>
</g>
</g>
<!-- 12 -->
<g id="node8" class="node">
<title>12</title>
<g id="a_node8"><a xlink:title="GlobalContext">
<polygon fill="#ffffff" stroke="black" points="677.5,-396 558.5,-396 558.5,-360 677.5,-360 677.5,-396"/>
<text text-anchor="middle" x="618" y="-374.3" font-family="Times,serif" font-size="14.00">GlobalContext</text>
</a>
</g>
</g>
<!-- 13&#45;&gt;12 -->
<g id="edge4" class="edge">
<title>13&#45;&gt;12</title>
<g id="a_edge4"><a xlink:title="usage">
<path fill="none" stroke="#1414ce" d="M510.63,-180.23C535.34,-217.64 585.81,-306.47 607.82,-350.84"/>
<polygon fill="#1414ce" stroke="#1414ce" points="604.67,-352.37 612.18,-359.85 610.97,-349.32 604.67,-352.37"/>
</a>
</g>
</g>
<!-- 14 -->
<g id="node23" class="node">
<title>14</title>
<g id="a_node23"><a xlink:title="SyncList">
<polygon fill="#ffffff" stroke="black" points="622,-108 544,-108 544,-72 622,-72 622,-108"/>
<text text-anchor="middle" x="583" y="-86.3" font-family="Times,serif" font-size="14.00">SyncList</text>
</a>
</g>
</g>
<!-- 13&#45;&gt;14 -->
<g id="edge3" class="edge">
<title>13&#45;&gt;14</title>
<g id="a_edge3"><a xlink:title="usage">
<path fill="none" stroke="#1414ce" d="M518.26,-143.7C529.09,-134.88 542.42,-124.03 554.16,-114.47"/>
<polygon fill="#1414ce" stroke="#1414ce" points="556.44,-117.13 561.99,-108.1 552.02,-111.7 556.44,-117.13"/>
</a>
</g>
</g>
<!-- 8 -->
<g id="node4" class="node">
<title>8</title>
<g id="a_node4"><a xlink:title="Module">
<polygon fill="#ffffff" stroke="black" points="1242,-324 1172,-324 1172,-288 1242,-288 1242,-324"/>
<text text-anchor="middle" x="1207" y="-302.3" font-family="Times,serif" font-size="14.00">Module</text>
</a>
</g>
</g>
<!-- 8&#45;&gt;7 -->
<g id="edge8" class="edge">
<title>8&#45;&gt;7</title>
<g id="a_edge8"><a xlink:title="usage">
<path fill="none" stroke="#1414ce" d="M1207.34,-287.99C1207.01,-254.71 1201.14,-180.99 1158,-144 1033.12,-36.93 502.83,-21.53 335.68,-19.35"/>
<polygon fill="#1414ce" stroke="#1414ce" points="335.71,-15.85 325.66,-19.23 335.62,-22.85 335.71,-15.85"/>
</a>
</g>
</g>
<!-- 9 -->
<g id="node12" class="node">
<title>9</title>
<g id="a_node12"><a xlink:title="LiteralEntry">
<polygon fill="#ffffff" stroke="black" points="1339,-252 1235,-252 1235,-216 1339,-216 1339,-252"/>
<text text-anchor="middle" x="1287" y="-230.3" font-family="Times,serif" font-size="14.00">LiteralEntry</text>
</a>
</g>
</g>
<!-- 8&#45;&gt;9 -->
<g id="edge7" class="edge">
<title>8&#45;&gt;9</title>
<g id="a_edge7"><a xlink:title="usage">
<path fill="none" stroke="#1414ce" d="M1226.78,-287.7C1236.75,-278.97 1249.01,-268.24 1259.86,-258.75"/>
<polygon fill="#1414ce" stroke="#1414ce" points="1262.23,-261.32 1267.45,-252.1 1257.62,-256.06 1262.23,-261.32"/>
</a>
</g>
</g>
<!-- 8&#45;&gt;2 -->
<g id="edge6" class="edge">
<title>8&#45;&gt;2</title>
<g id="a_edge6"><a xlink:title="usage">
<path fill="none" stroke="#1414ce" d="M1242.34,-293.91C1275.46,-283.51 1325.78,-267.72 1365.97,-255.1"/>
<polygon fill="#1414ce" stroke="#1414ce" points="1367.2,-258.38 1375.69,-252.05 1365.1,-251.7 1367.2,-258.38"/>
</a>
</g>
</g>
<!-- 7&#45;&gt;7 -->
<g id="edge9" class="edge">
<title>7&#45;&gt;7</title>
<g id="a_edge9"><a xlink:title="usage">
<path fill="none" stroke="#1414ce" d="M325.73,-31.31C335.9,-30.38 343.5,-25.95 343.5,-18 343.5,-12.91 340.38,-9.26 335.47,-7.05"/>
<polygon fill="#1414ce" stroke="#1414ce" points="336.28,-3.64 325.73,-4.69 334.63,-10.45 336.28,-3.64"/>
</a>
</g>
</g>
<!-- 11 -->
<g id="node6" class="node">
<title>11</title>
<g id="a_node6"><a xlink:title="HeapFragment">
<polygon fill="#ffffff" stroke="black" points="1458.5,-36 1333.5,-36 1333.5,0 1458.5,0 1458.5,-36"/>
<text text-anchor="middle" x="1396" y="-14.3" font-family="Times,serif" font-size="14.00">HeapFragment</text>
</a>
</g>
</g>
<!-- 11&#45;&gt;11 -->
<g id="edge10" class="edge">
<title>11&#45;&gt;11</title>
<g id="a_edge10"><a xlink:title="usage">
<path fill="none" stroke="#1414ce" d="M1458.78,-30.55C1469.26,-28.79 1476.5,-24.61 1476.5,-18 1476.5,-13.77 1473.53,-10.53 1468.64,-8.29"/>
<polygon fill="#1414ce" stroke="#1414ce" points="1469.36,-4.85 1458.78,-5.45 1467.42,-11.58 1469.36,-4.85"/>
</a>
</g>
</g>
<!-- 20 -->
<g id="node7" class="node">
<title>20</title>
<g id="a_node7"><a xlink:title="RefcBinaryQueueItem">
<polygon fill="#ffffff" stroke="black" points="416,-324 242,-324 242,-288 416,-288 416,-324"/>
<text text-anchor="middle" x="329" y="-302.3" font-family="Times,serif" font-size="14.00">RefcBinaryQueueItem</text>
</a>
</g>
</g>
<!-- 20&#45;&gt;20 -->
<g id="edge12" class="edge">
<title>20&#45;&gt;20</title>
<g id="a_edge12"><a xlink:title="usage">
<path fill="none" stroke="#1414ce" d="M416.3,-317.68C426.99,-315.59 434,-311.7 434,-306 434,-302.35 431.12,-299.44 426.25,-297.27"/>
<polygon fill="#1414ce" stroke="#1414ce" points="426.88,-293.81 416.3,-294.32 424.89,-300.52 426.88,-293.81"/>
</a>
</g>
</g>
<!-- 21 -->
<g id="node18" class="node">
<title>21</title>
<g id="a_node18"><a xlink:title="RefcBinary">
<polygon fill="#ffffff" stroke="black" points="376.5,-252 281.5,-252 281.5,-216 376.5,-216 376.5,-252"/>
<text text-anchor="middle" x="329" y="-230.3" font-family="Times,serif" font-size="14.00">RefcBinary</text>
</a>
</g>
</g>
<!-- 20&#45;&gt;21 -->
<g id="edge11" class="edge">
<title>20&#45;&gt;21</title>
<g id="a_edge11"><a xlink:title="usage">
<path fill="none" stroke="#1414ce" d="M329,-287.7C329,-279.98 329,-270.71 329,-262.11"/>
<polygon fill="#1414ce" stroke="#1414ce" points="332.5,-262.1 329,-252.1 325.5,-262.1 332.5,-262.1"/>
</a>
</g>
</g>
<!-- 12&#45;&gt;24 -->
<g id="edge22" class="edge">
<title>12&#45;&gt;24</title>
<g id="a_edge22"><a xlink:title="usage">
<path fill="none" stroke="#1414ce" d="M587.42,-359.88C570.93,-350.64 550.38,-339.13 532.66,-329.21"/>
<polygon fill="#1414ce" stroke="#1414ce" points="534.13,-326.02 523.7,-324.19 530.71,-332.13 534.13,-326.02"/>
</a>
</g>
</g>
<!-- 12&#45;&gt;13 -->
<g id="edge13" class="edge">
<title>12&#45;&gt;13</title>
<g id="a_edge13"><a xlink:title="usage">
<path fill="none" stroke="#1414ce" d="M604.43,-359.85C579.75,-322.52 529.28,-233.69 507.23,-189.26"/>
<polygon fill="#1414ce" stroke="#1414ce" points="510.37,-187.71 502.86,-180.23 504.07,-190.76 510.37,-187.71"/>
</a>
</g>
</g>
<!-- 12&#45;&gt;8 -->
<g id="edge19" class="edge">
<title>12&#45;&gt;8</title>
<g id="a_edge19"><a xlink:title="usage">
<path fill="none" stroke="#1414ce" d="M677.71,-372.58C772.45,-365.16 962.89,-348.55 1123,-324 1135.77,-322.04 1149.53,-319.46 1162.15,-316.9"/>
<polygon fill="#1414ce" stroke="#1414ce" points="1162.9,-320.32 1171.98,-314.86 1161.48,-313.46 1162.9,-320.32"/>
</a>
</g>
</g>
<!-- 12&#45;&gt;7 -->
<g id="edge23" class="edge">
<title>12&#45;&gt;7</title>
<g id="a_edge23"><a xlink:title="usage">
<path fill="none" stroke="#1414ce" d="M558.49,-376.57C458.57,-374.69 262.8,-365.62 210,-324 176.75,-297.79 176,-277.34 176,-235 176,-235 176,-235 176,-161 176,-120.25 173.9,-104.85 198,-72 207.53,-59.02 221.28,-48.56 235.05,-40.48"/>
<polygon fill="#1414ce" stroke="#1414ce" points="237,-43.41 244.06,-35.51 233.62,-37.28 237,-43.41"/>
</a>
</g>
</g>
<!-- 12&#45;&gt;20 -->
<g id="edge17" class="edge">
<title>12&#45;&gt;20</title>
<g id="a_edge17"><a xlink:title="usage">
<path fill="none" stroke="#1414ce" d="M558.47,-362.58C515.35,-352.14 456.58,-337.9 409.31,-326.45"/>
<polygon fill="#1414ce" stroke="#1414ce" points="409.95,-323.01 399.41,-324.05 408.31,-329.81 409.95,-323.01"/>
</a>
</g>
</g>
<!-- 15 -->
<g id="node9" class="node">
<title>15</title>
<g id="a_node9"><a xlink:title="Ets">
<polygon fill="#ffffff" stroke="black" points="628,-180 574,-180 574,-144 628,-144 628,-180"/>
<text text-anchor="middle" x="601" y="-158.3" font-family="Times,serif" font-size="14.00">Ets</text>
</a>
</g>
</g>
<!-- 12&#45;&gt;15 -->
<g id="edge14" class="edge">
<title>12&#45;&gt;15</title>
<g id="a_edge14"><a xlink:title="usage">
<path fill="none" stroke="#1414ce" d="M616.64,-359.85C613.7,-322.83 606.73,-235.18 603.18,-190.39"/>
<polygon fill="#1414ce" stroke="#1414ce" points="606.65,-189.92 602.37,-180.23 599.67,-190.48 606.65,-189.92"/>
</a>
</g>
</g>
<!-- 23 -->
<g id="node11" class="node">
<title>23</title>
<g id="a_node11"><a xlink:title="TimerList">
<polygon fill="#ffffff" stroke="black" points="293,-108 207,-108 207,-72 293,-72 293,-108"/>
<text text-anchor="middle" x="250" y="-86.3" font-family="Times,serif" font-size="14.00">TimerList</text>
</a>
</g>
</g>
<!-- 12&#45;&gt;23 -->
<g id="edge21" class="edge">
<title>12&#45;&gt;23</title>
<g id="a_edge21"><a xlink:title="usage">
<path fill="none" stroke="#1414ce" d="M558.2,-377.89C460.78,-377.91 274.45,-371.55 233,-324 182.24,-265.77 216.42,-165.22 237.24,-117.55"/>
<polygon fill="#1414ce" stroke="#1414ce" points="240.53,-118.77 241.45,-108.22 234.15,-115.89 240.53,-118.77"/>
</a>
</g>
</g>
<!-- 16 -->
<g id="node16" class="node">
<title>16</title>
<g id="a_node16"><a xlink:title="MessageQueueItem">
<polygon fill="#ffffff" stroke="black" points="880,-324 722,-324 722,-288 880,-288 880,-324"/>
<text text-anchor="middle" x="801" y="-302.3" font-family="Times,serif" font-size="14.00">MessageQueueItem</text>
</a>
</g>
</g>
<!-- 12&#45;&gt;16 -->
<g id="edge15" class="edge">
<title>12&#45;&gt;16</title>
<g id="a_edge15"><a xlink:title="usage">
<path fill="none" stroke="#1414ce" d="M662.77,-359.88C688.12,-350.18 720.01,-337.98 746.77,-327.74"/>
<polygon fill="#1414ce" stroke="#1414ce" points="748.29,-330.91 756.38,-324.07 745.79,-324.37 748.29,-330.91"/>
</a>
</g>
</g>
<!-- 22 -->
<g id="node17" class="node">
<title>22</title>
<g id="a_node17"><a xlink:title="AtomsHashTable">
<polygon fill="#ffffff" stroke="black" points="821.5,-252 684.5,-252 684.5,-216 821.5,-216 821.5,-252"/>
<text text-anchor="middle" x="753" y="-230.3" font-family="Times,serif" font-size="14.00">AtomsHashTable</text>
</a>
</g>
</g>
<!-- 12&#45;&gt;22 -->
<g id="edge20" class="edge">
<title>12&#45;&gt;22</title>
<g id="a_edge20"><a xlink:title="usage">
<path fill="none" stroke="#1414ce" d="M634.97,-359.92C645.19,-349.59 658.42,-336.11 670,-324 690.52,-302.55 713.51,-277.84 730.08,-259.91"/>
<polygon fill="#1414ce" stroke="#1414ce" points="733.01,-261.9 737.22,-252.18 727.86,-257.16 733.01,-261.9"/>
</a>
</g>
</g>
<!-- 17 -->
<g id="node20" class="node">
<title>17</title>
<g id="a_node20"><a xlink:title="AtomTable">
<polygon fill="#ffffff" stroke="black" points="1114,-324 1022,-324 1022,-288 1114,-288 1114,-324"/>
<text text-anchor="middle" x="1068" y="-302.3" font-family="Times,serif" font-size="14.00">AtomTable</text>
</a>
</g>
</g>
<!-- 12&#45;&gt;17 -->
<g id="edge16" class="edge">
<title>12&#45;&gt;17</title>
<g id="a_edge16"><a xlink:title="usage">
<path fill="none" stroke="#1414ce" d="M677.76,-367.7C765.17,-354.11 926.75,-328.97 1011.99,-315.71"/>
<polygon fill="#1414ce" stroke="#1414ce" points="1012.66,-319.15 1022,-314.16 1011.58,-312.23 1012.66,-319.15"/>
</a>
</g>
</g>
<!-- 12&#45;&gt;14 -->
<g id="edge18" class="edge">
<title>12&#45;&gt;14</title>
<g id="a_edge18"><a xlink:title="usage">
<path fill="none" stroke="#1414ce" d="M624.63,-359.77C638.85,-319.96 668.57,-219.22 637,-144 632.36,-132.95 624.17,-123.04 615.54,-114.86"/>
<polygon fill="#1414ce" stroke="#1414ce" points="617.74,-112.14 607.93,-108.14 613.11,-117.38 617.74,-112.14"/>
</a>
</g>
</g>
<!-- 15&#45;&gt;14 -->
<g id="edge24" class="edge">
<title>15&#45;&gt;14</title>
<g id="a_edge24"><a xlink:title="usage">
<path fill="none" stroke="#1414ce" d="M596.55,-143.7C594.55,-135.9 592.13,-126.51 589.9,-117.83"/>
<polygon fill="#1414ce" stroke="#1414ce" points="593.28,-116.92 587.4,-108.1 586.5,-118.66 593.28,-116.92"/>
</a>
</g>
</g>
<!-- 19 -->
<g id="node10" class="node">
<title>19</title>
<g id="a_node10"><a xlink:title="HNodeGroup">
<polygon fill="#ffffff" stroke="black" points="1123,-252 1013,-252 1013,-216 1123,-216 1123,-252"/>
<text text-anchor="middle" x="1068" y="-230.3" font-family="Times,serif" font-size="14.00">HNodeGroup</text>
</a>
</g>
</g>
<!-- 19&#45;&gt;19 -->
<g id="edge26" class="edge">
<title>19&#45;&gt;19</title>
<g id="a_edge26"><a xlink:title="usage">
<path fill="none" stroke="#1414ce" d="M1123.07,-246.85C1133.57,-245.32 1141,-241.03 1141,-234 1141,-229.5 1137.95,-226.12 1133,-223.87"/>
<polygon fill="#1414ce" stroke="#1414ce" points="1133.64,-220.42 1123.07,-221.15 1131.79,-227.17 1133.64,-220.42"/>
</a>
</g>
</g>
<!-- 18 -->
<g id="node24" class="node">
<title>18</title>
<g id="a_node24"><a xlink:title="HNode">
<polygon fill="#ffffff" stroke="black" points="1131,-180 1065,-180 1065,-144 1131,-144 1131,-180"/>
<text text-anchor="middle" x="1098" y="-158.3" font-family="Times,serif" font-size="14.00">HNode</text>
</a>
</g>
</g>
<!-- 19&#45;&gt;18 -->
<g id="edge25" class="edge">
<title>19&#45;&gt;18</title>
<g id="a_edge25"><a xlink:title="usage">
<path fill="none" stroke="#1414ce" d="M1075.42,-215.7C1078.79,-207.81 1082.87,-198.3 1086.62,-189.55"/>
<polygon fill="#1414ce" stroke="#1414ce" points="1089.95,-190.67 1090.67,-180.1 1083.51,-187.92 1089.95,-190.67"/>
</a>
</g>
</g>
<!-- 23&#45;&gt;7 -->
<g id="edge27" class="edge">
<title>23&#45;&gt;7</title>
<g id="a_edge27"><a xlink:title="usage">
<path fill="none" stroke="#1414ce" d="M258.65,-71.7C262.64,-63.73 267.45,-54.1 271.87,-45.26"/>
<polygon fill="#1414ce" stroke="#1414ce" points="275.11,-46.61 276.45,-36.1 268.85,-43.48 275.11,-46.61"/>
</a>
</g>
</g>
<!-- 5 -->
<g id="node13" class="node">
<title>5</title>
<g id="a_node13"><a xlink:title="MailboxMessage">
<polygon fill="#ffffff" stroke="black" points="976.5,-252 839.5,-252 839.5,-216 976.5,-216 976.5,-252"/>
<text text-anchor="middle" x="908" y="-230.3" font-family="Times,serif" font-size="14.00">MailboxMessage</text>
</a>
</g>
</g>
<!-- 5&#45;&gt;5 -->
<g id="edge28" class="edge">
<title>5&#45;&gt;5</title>
<g id="a_edge28"><a xlink:title="usage">
<path fill="none" stroke="#1414ce" d="M976.53,-246.37C987.21,-244.52 994.5,-240.4 994.5,-234 994.5,-229.8 991.36,-226.58 986.18,-224.34"/>
<polygon fill="#1414ce" stroke="#1414ce" points="987.1,-220.96 976.53,-221.63 985.21,-227.7 987.1,-220.96"/>
</a>
</g>
</g>
<!-- 10 -->
<g id="node14" class="node">
<title>10</title>
<g id="a_node14"><a xlink:title="Heap">
<polygon fill="#ffffff" stroke="black" points="1423,-108 1369,-108 1369,-72 1423,-72 1423,-108"/>
<text text-anchor="middle" x="1396" y="-86.3" font-family="Times,serif" font-size="14.00">Heap</text>
</a>
</g>
</g>
<!-- 10&#45;&gt;11 -->
<g id="edge29" class="edge">
<title>10&#45;&gt;11</title>
<g id="a_edge29"><a xlink:title="usage">
<path fill="none" stroke="#1414ce" d="M1396,-71.7C1396,-63.98 1396,-54.71 1396,-46.11"/>
<polygon fill="#1414ce" stroke="#1414ce" points="1399.5,-46.1 1396,-36.1 1392.5,-46.1 1399.5,-46.1"/>
</a>
</g>
</g>
<!-- 3&#45;&gt;8 -->
<g id="edge33" class="edge">
<title>3&#45;&gt;8</title>
<g id="a_edge33"><a xlink:title="usage">
<path fill="none" stroke="#1414ce" d="M959.9,-431.87C1011.06,-406.02 1107.97,-357.04 1164.02,-328.72"/>
<polygon fill="#1414ce" stroke="#1414ce" points="1165.64,-331.82 1172.98,-324.19 1162.48,-325.58 1165.64,-331.82"/>
</a>
</g>
</g>
<!-- 3&#45;&gt;7 -->
<g id="edge36" class="edge">
<title>3&#45;&gt;7</title>
<g id="a_edge36"><a xlink:title="usage">
<path fill="none" stroke="#1414ce" d="M889.14,-447.55C764.93,-442.44 362.37,-424.08 236,-396 126.57,-371.68 0,-419.1 0,-307 0,-307 0,-307 0,-161 0,-57.49 152.46,-29.43 234.37,-21.83"/>
<polygon fill="#1414ce" stroke="#1414ce" points="234.81,-25.3 244.47,-20.96 234.21,-18.33 234.81,-25.3"/>
</a>
</g>
</g>
<!-- 3&#45;&gt;12 -->
<g id="edge35" class="edge">
<title>3&#45;&gt;12</title>
<g id="a_edge35"><a xlink:title="usage">
<path fill="none" stroke="#1414ce" d="M889.46,-440.7C839.85,-429.42 750.19,-409.04 687.54,-394.8"/>
<polygon fill="#1414ce" stroke="#1414ce" points="688.25,-391.38 677.73,-392.57 686.7,-398.2 688.25,-391.38"/>
</a>
</g>
</g>
<!-- 3&#45;&gt;10 -->
<g id="edge34" class="edge">
<title>3&#45;&gt;10</title>
<g id="a_edge34"><a xlink:title="usage">
<path fill="none" stroke="#1414ce" d="M962.93,-448.29C1094.29,-444.79 1531,-424.33 1531,-307 1531,-307 1531,-307 1531,-233 1531,-175.57 1472.27,-132.12 1432.29,-109.2"/>
<polygon fill="#1414ce" stroke="#1414ce" points="1433.76,-106.01 1423.32,-104.22 1430.36,-112.13 1433.76,-106.01"/>
</a>
</g>
</g>
<!-- 3&#45;&gt;3 -->
<g id="edge30" class="edge">
<title>3&#45;&gt;3</title>
<g id="a_edge30"><a xlink:title="usage">
<path fill="none" stroke="#1414ce" d="M962.68,-463.42C972.78,-462.77 980.5,-458.3 980.5,-450 980.5,-444.81 977.48,-441.12 972.76,-438.93"/>
<polygon fill="#1414ce" stroke="#1414ce" points="973.21,-435.44 962.68,-436.58 971.63,-442.26 973.21,-435.44"/>
</a>
</g>
</g>
<!-- 4 -->
<g id="node19" class="node">
<title>4</title>
<g id="a_node19"><a xlink:title="Mailbox">
<polygon fill="#ffffff" stroke="black" points="963,-396 889,-396 889,-360 963,-360 963,-396"/>
<text text-anchor="middle" x="926" y="-374.3" font-family="Times,serif" font-size="14.00">Mailbox</text>
</a>
</g>
</g>
<!-- 3&#45;&gt;4 -->
<g id="edge31" class="edge">
<title>3&#45;&gt;4</title>
<g id="a_edge31"><a xlink:title="usage">
<path fill="none" stroke="#1414ce" d="M926,-431.7C926,-423.98 926,-414.71 926,-406.11"/>
<polygon fill="#1414ce" stroke="#1414ce" points="929.5,-406.1 926,-396.1 922.5,-406.1 929.5,-406.1"/>
</a>
</g>
</g>
<!-- 6 -->
<g id="node22" class="node">
<title>6</title>
<g id="a_node22"><a xlink:title="TimerListItem">
<polygon fill="#ffffff" stroke="black" points="147.5,-180 28.5,-180 28.5,-144 147.5,-144 147.5,-180"/>
<text text-anchor="middle" x="88" y="-158.3" font-family="Times,serif" font-size="14.00">TimerListItem</text>
</a>
</g>
</g>
<!-- 3&#45;&gt;6 -->
<g id="edge32" class="edge">
<title>3&#45;&gt;6</title>
<g id="a_edge32"><a xlink:title="usage">
<path fill="none" stroke="#1414ce" d="M889.08,-447.55C752.5,-441.5 277.82,-414.25 162,-324 119.04,-290.53 100.11,-226.36 92.52,-189.96"/>
<polygon fill="#1414ce" stroke="#1414ce" points="95.93,-189.19 90.59,-180.04 89.06,-190.53 95.93,-189.19"/>
</a>
</g>
</g>
<!-- 16&#45;&gt;5 -->
<g id="edge37" class="edge">
<title>16&#45;&gt;5</title>
<g id="a_edge37"><a xlink:title="usage">
<path fill="none" stroke="#1414ce" d="M827.18,-287.88C841.04,-278.81 858.24,-267.55 873.21,-257.76"/>
<polygon fill="#1414ce" stroke="#1414ce" points="875.27,-260.59 881.72,-252.19 871.44,-254.74 875.27,-260.59"/>
</a>
</g>
</g>
<!-- 16&#45;&gt;16 -->
<g id="edge38" class="edge">
<title>16&#45;&gt;16</title>
<g id="a_edge38"><a xlink:title="usage">
<path fill="none" stroke="#1414ce" d="M880.16,-317.98C890.87,-315.97 898,-311.98 898,-306 898,-302.08 894.93,-299.01 889.79,-296.8"/>
<polygon fill="#1414ce" stroke="#1414ce" points="890.74,-293.43 880.16,-294.02 888.8,-300.15 890.74,-293.43"/>
</a>
</g>
</g>
<!-- 22&#45;&gt;18 -->
<g id="edge39" class="edge">
<title>22&#45;&gt;18</title>
<g id="a_edge39"><a xlink:title="usage">
<path fill="none" stroke="#1414ce" d="M821.83,-217.72C824.59,-217.14 827.32,-216.56 830,-216 909.21,-199.43 1001.89,-181.4 1054.89,-171.22"/>
<polygon fill="#1414ce" stroke="#1414ce" points="1055.78,-174.61 1064.95,-169.29 1054.47,-167.74 1055.78,-174.61"/>
</a>
</g>
</g>
<!-- 21&#45;&gt;13 -->
<g id="edge40" class="edge">
<title>21&#45;&gt;13</title>
<g id="a_edge40"><a xlink:title="usage">
<path fill="none" stroke="#1414ce" d="M370.1,-215.88C393.17,-206.26 422.14,-194.19 446.57,-184.01"/>
<polygon fill="#1414ce" stroke="#1414ce" points="448.15,-187.15 456.04,-180.07 445.46,-180.68 448.15,-187.15"/>
</a>
</g>
</g>
<!-- 21&#45;&gt;7 -->
<g id="edge41" class="edge">
<title>21&#45;&gt;7</title>
<g id="a_edge41"><a xlink:title="usage">
<path fill="none" stroke="#1414ce" d="M326.96,-215.92C323.24,-186.33 314.58,-123.78 302,-72 299.89,-63.32 297.09,-54 294.37,-45.63"/>
<polygon fill="#1414ce" stroke="#1414ce" points="297.64,-44.38 291.15,-36.01 291,-46.6 297.64,-44.38"/>
</a>
</g>
</g>
<!-- 4&#45;&gt;5 -->
<g id="edge42" class="edge">
<title>4&#45;&gt;5</title>
<g id="a_edge42"><a xlink:title="usage">
<path fill="none" stroke="#1414ce" d="M923.83,-359.87C920.76,-335.67 915.13,-291.21 911.47,-262.39"/>
<polygon fill="#1414ce" stroke="#1414ce" points="914.91,-261.67 910.18,-252.19 907.96,-262.55 914.91,-261.67"/>
</a>
</g>
</g>
<!-- 17&#45;&gt;19 -->
<g id="edge44" class="edge">
<title>17&#45;&gt;19</title>
<g id="a_edge44"><a xlink:title="usage">
<path fill="none" stroke="#1414ce" d="M1068,-287.7C1068,-279.98 1068,-270.71 1068,-262.11"/>
<polygon fill="#1414ce" stroke="#1414ce" points="1071.5,-262.1 1068,-252.1 1064.5,-262.1 1071.5,-262.1"/>
</a>
</g>
</g>
<!-- 17&#45;&gt;18 -->
<g id="edge43" class="edge">
<title>17&#45;&gt;18</title>
<g id="a_edge43"><a xlink:title="usage">
<path fill="none" stroke="#1414ce" d="M1110.62,-287.99C1125.87,-279.58 1141.41,-267.78 1150,-252 1157.65,-237.95 1156.05,-230.81 1150,-216 1145.51,-205.02 1137.53,-195.08 1129.15,-186.86"/>
<polygon fill="#1414ce" stroke="#1414ce" points="1131.49,-184.26 1121.75,-180.09 1126.76,-189.42 1131.49,-184.26"/>
</a>
</g>
</g>
<!-- 6&#45;&gt;7 -->
<g id="edge45" class="edge">
<title>6&#45;&gt;7</title>
<g id="a_edge45"><a xlink:title="usage">
<path fill="none" stroke="#1414ce" d="M98.64,-143.85C111.54,-124.23 134.96,-92.22 162,-72 183.77,-55.72 211.3,-43.26 234.8,-34.52"/>
<polygon fill="#1414ce" stroke="#1414ce" points="236.03,-37.8 244.25,-31.12 233.66,-31.21 236.03,-37.8"/>
</a>
</g>
</g>
<!-- 14&#45;&gt;7 -->
<g id="edge46" class="edge">
<title>14&#45;&gt;7</title>
<g id="a_edge46"><a xlink:title="usage">
<path fill="none" stroke="#1414ce" d="M543.74,-79.78C490.25,-67.21 394.43,-44.7 335.61,-30.89"/>
<polygon fill="#1414ce" stroke="#1414ce" points="336.32,-27.46 325.79,-28.58 334.72,-34.27 336.32,-27.46"/>
</a>
</g>
</g>
<!-- 18&#45;&gt;10 -->
<g id="edge48" class="edge">
<title>18&#45;&gt;10</title>
<g id="a_edge48"><a xlink:title="usage">
<path fill="none" stroke="#1414ce" d="M1131.03,-153.24C1187.07,-140.08 1300.38,-113.46 1359,-99.69"/>
<polygon fill="#1414ce" stroke="#1414ce" points="1360.01,-103.05 1368.95,-97.35 1358.41,-96.23 1360.01,-103.05"/>
</a>
</g>
</g>
<!-- 18&#45;&gt;18 -->
<g id="edge47" class="edge">
<title>18&#45;&gt;18</title>
<g id="a_edge47"><a xlink:title="usage">
<path fill="none" stroke="#1414ce" d="M1131.35,-175.47C1141.28,-175.07 1149,-170.58 1149,-162 1149,-156.64 1145.98,-152.87 1141.3,-150.71"/>
<polygon fill="#1414ce" stroke="#1414ce" points="1141.87,-147.25 1131.35,-148.53 1140.37,-154.09 1141.87,-147.25"/>
</a>
</g>
</g>
</g>
</svg>
