<?xml version="1.0" encoding="UTF-8" standalone="no"?>
<!DOCTYPE svg PUBLIC "-//W3C//DTD SVG 1.1//EN"
 "http://www.w3.org/Graphics/SVG/1.1/DTD/svg11.dtd">
<!-- Generated by graphviz version 2.43.0 (0)
 -->
<!-- Title: %3 Pages: 1 -->
<svg width="865pt" height="548pt"
 viewBox="0.00 0.00 865.00 548.00" xmlns="http://www.w3.org/2000/svg" xmlns:xlink="http://www.w3.org/1999/xlink">
<g id="graph0" class="graph" transform="scale(1 1) rotate(0) translate(4 544)">
<title>%3</title>
<polygon fill="transparent" stroke="transparent" points="-4,4 -4,-544 861,-544 861,4 -4,4"/>
<!-- 4 -->
<g id="node1" class="node">
<title>4</title>
<g id="a_node1"><a xlink:title="stdbool.h">
<polygon fill="#ffffff" stroke="black" points="813.5,-108 730.5,-108 730.5,-72 813.5,-72 813.5,-108"/>
<text text-anchor="middle" x="772" y="-86.3" font-family="Times,serif" font-size="14.00">stdbool.h</text>
</a>
</g>
</g>
<!-- 17 -->
<g id="node2" class="node">
<title>17</title>
<g id="a_node2"><a xlink:title="refc_binary.h">
<polygon fill="#ffffff" stroke="black" points="654,-396 546,-396 546,-360 654,-360 654,-396"/>
<text text-anchor="middle" x="600" y="-374.3" font-family="Times,serif" font-size="14.00">refc_binary.h</text>
</a>
</g>
</g>
<!-- 17&#45;&gt;4 -->
<g id="edge1" class="edge">
<title>17&#45;&gt;4</title>
<g id="a_edge1"><a xlink:title="include">
<path fill="none" stroke="#1414ce" d="M633.83,-359.79C649.5,-350.67 667.57,-338.36 681,-324 731.15,-270.37 739.45,-249.88 762,-180 768.48,-159.93 770.9,-136.15 771.74,-118.22"/>
<polygon fill="#1414ce" stroke="#1414ce" points="775.24,-118.27 772.08,-108.15 768.25,-118.03 775.24,-118.27"/>
</a>
</g>
</g>
<!-- 18 -->
<g id="node6" class="node">
<title>18</title>
<g id="a_node6"><a xlink:title="list.h">
<polygon fill="#ffffff" stroke="black" points="753,-180 699,-180 699,-144 753,-144 753,-180"/>
<text text-anchor="middle" x="726" y="-158.3" font-family="Times,serif" font-size="14.00">list.h</text>
</a>
</g>
</g>
<!-- 17&#45;&gt;18 -->
<g id="edge3" class="edge">
<title>17&#45;&gt;18</title>
<g id="a_edge3"><a xlink:title="include">
<path fill="none" stroke="#1414ce" d="M622.42,-359.95C633.9,-350.36 647.43,-337.59 657,-324 687.01,-281.37 707.77,-223.63 718.21,-190.14"/>
<polygon fill="#1414ce" stroke="#1414ce" points="721.68,-190.75 721.24,-180.16 714.98,-188.72 721.68,-190.75"/>
</a>
</g>
</g>
<!-- 7 -->
<g id="node8" class="node">
<title>7</title>
<g id="a_node8"><a xlink:title="stdlib.h">
<polygon fill="#ffffff" stroke="black" points="392.5,-108 321.5,-108 321.5,-72 392.5,-72 392.5,-108"/>
<text text-anchor="middle" x="357" y="-86.3" font-family="Times,serif" font-size="14.00">stdlib.h</text>
</a>
</g>
</g>
<!-- 17&#45;&gt;7 -->
<g id="edge2" class="edge">
<title>17&#45;&gt;7</title>
<g id="a_edge2"><a xlink:title="include">
<path fill="none" stroke="#1414ce" d="M545.78,-360.39C494.63,-341.96 419.49,-307.31 376,-252 345.73,-213.5 347.83,-152.96 352.28,-118.12"/>
<polygon fill="#1414ce" stroke="#1414ce" points="355.75,-118.59 353.71,-108.19 348.82,-117.59 355.75,-118.59"/>
</a>
</g>
</g>
<!-- 19 -->
<g id="node10" class="node">
<title>19</title>
<g id="a_node10"><a xlink:title="resources.h">
<polygon fill="#ffffff" stroke="black" points="648,-324 548,-324 548,-288 648,-288 648,-324"/>
<text text-anchor="middle" x="598" y="-302.3" font-family="Times,serif" font-size="14.00">resources.h</text>
</a>
</g>
</g>
<!-- 17&#45;&gt;19 -->
<g id="edge4" class="edge">
<title>17&#45;&gt;19</title>
<g id="a_edge4"><a xlink:title="include">
<path fill="none" stroke="#1414ce" d="M599.51,-359.7C599.29,-351.98 599.02,-342.71 598.77,-334.11"/>
<polygon fill="#1414ce" stroke="#1414ce" points="602.27,-334 598.49,-324.1 595.28,-334.2 602.27,-334"/>
</a>
</g>
</g>
<!-- 12 -->
<g id="node3" class="node">
<title>12</title>
<g id="a_node3"><a xlink:title="assert.h">
<polygon fill="#ffffff" stroke="black" points="468,-36 394,-36 394,0 468,0 468,-36"/>
<text text-anchor="middle" x="431" y="-14.3" font-family="Times,serif" font-size="14.00">assert.h</text>
</a>
</g>
</g>
<!-- 15 -->
<g id="node4" class="node">
<title>15</title>
<g id="a_node4"><a xlink:title="utils.h">
<polygon fill="#ffffff" stroke="black" points="245,-180 183,-180 183,-144 245,-144 245,-180"/>
<text text-anchor="middle" x="214" y="-158.3" font-family="Times,serif" font-size="14.00">utils.h</text>
</a>
</g>
</g>
<!-- 15&#45;&gt;7 -->
<g id="edge7" class="edge">
<title>15&#45;&gt;7</title>
<g id="a_edge7"><a xlink:title="include">
<path fill="none" stroke="#1414ce" d="M245.03,-145.81C264.94,-136.07 291.09,-123.26 313.11,-112.48"/>
<polygon fill="#1414ce" stroke="#1414ce" points="314.83,-115.54 322.27,-108 311.75,-109.25 314.83,-115.54"/>
</a>
</g>
</g>
<!-- 16 -->
<g id="node12" class="node">
<title>16</title>
<g id="a_node12"><a xlink:title="stddef.h">
<polygon fill="#ffffff" stroke="black" points="303,-108 229,-108 229,-72 303,-72 303,-108"/>
<text text-anchor="middle" x="266" y="-86.3" font-family="Times,serif" font-size="14.00">stddef.h</text>
</a>
</g>
</g>
<!-- 15&#45;&gt;16 -->
<g id="edge5" class="edge">
<title>15&#45;&gt;16</title>
<g id="a_edge5"><a xlink:title="include">
<path fill="none" stroke="#1414ce" d="M226.85,-143.7C233.03,-135.39 240.54,-125.28 247.32,-116.14"/>
<polygon fill="#1414ce" stroke="#1414ce" points="250.14,-118.22 253.29,-108.1 244.52,-114.04 250.14,-118.22"/>
</a>
</g>
</g>
<!-- 6 -->
<g id="node20" class="node">
<title>6</title>
<g id="a_node20"><a xlink:title="stdio.h">
<polygon fill="#ffffff" stroke="black" points="210.5,-108 145.5,-108 145.5,-72 210.5,-72 210.5,-108"/>
<text text-anchor="middle" x="178" y="-86.3" font-family="Times,serif" font-size="14.00">stdio.h</text>
</a>
</g>
</g>
<!-- 15&#45;&gt;6 -->
<g id="edge6" class="edge">
<title>15&#45;&gt;6</title>
<g id="a_edge6"><a xlink:title="include">
<path fill="none" stroke="#1414ce" d="M205.1,-143.7C201,-135.73 196.05,-126.1 191.51,-117.26"/>
<polygon fill="#1414ce" stroke="#1414ce" points="194.48,-115.4 186.8,-108.1 188.26,-118.6 194.48,-115.4"/>
</a>
</g>
</g>
<!-- 20 -->
<g id="node5" class="node">
<title>20</title>
<g id="a_node5"><a xlink:title="synclist.h">
<polygon fill="#ffffff" stroke="black" points="641.5,-252 556.5,-252 556.5,-216 641.5,-216 641.5,-252"/>
<text text-anchor="middle" x="599" y="-230.3" font-family="Times,serif" font-size="14.00">synclist.h</text>
</a>
</g>
</g>
<!-- 20&#45;&gt;18 -->
<g id="edge9" class="edge">
<title>20&#45;&gt;18</title>
<g id="a_edge9"><a xlink:title="include">
<path fill="none" stroke="#1414ce" d="M630.07,-215.88C648.12,-205.93 670.94,-193.35 689.8,-182.95"/>
<polygon fill="#1414ce" stroke="#1414ce" points="691.63,-185.94 698.7,-178.05 688.26,-179.81 691.63,-185.94"/>
</a>
</g>
</g>
<!-- 21 -->
<g id="node19" class="node">
<title>21</title>
<g id="a_node19"><a xlink:title="smp.h">
<polygon fill="#ffffff" stroke="black" points="681,-180 621,-180 621,-144 681,-144 681,-180"/>
<text text-anchor="middle" x="651" y="-158.3" font-family="Times,serif" font-size="14.00">smp.h</text>
</a>
</g>
</g>
<!-- 20&#45;&gt;21 -->
<g id="edge10" class="edge">
<title>20&#45;&gt;21</title>
<g id="a_edge10"><a xlink:title="include">
<path fill="none" stroke="#1414ce" d="M611.85,-215.7C618.03,-207.39 625.54,-197.28 632.32,-188.14"/>
<polygon fill="#1414ce" stroke="#1414ce" points="635.14,-190.22 638.29,-180.1 629.52,-186.04 635.14,-190.22"/>
</a>
</g>
</g>
<!-- 20&#45;&gt;6 -->
<g id="edge8" class="edge">
<title>20&#45;&gt;6</title>
<g id="a_edge8"><a xlink:title="include">
<path fill="none" stroke="#1414ce" d="M599.51,-215.92C599.1,-195.44 595.01,-161.66 574,-144 515.67,-94.95 312.21,-124.68 220.55,-107.41"/>
<polygon fill="#1414ce" stroke="#1414ce" points="221.24,-103.98 210.72,-105.27 219.74,-110.82 221.24,-103.98"/>
</a>
</g>
</g>
<!-- 18&#45;&gt;4 -->
<g id="edge11" class="edge">
<title>18&#45;&gt;4</title>
<g id="a_edge11"><a xlink:title="include">
<path fill="none" stroke="#1414ce" d="M737.37,-143.7C742.72,-135.56 749.2,-125.69 755.11,-116.7"/>
<polygon fill="#1414ce" stroke="#1414ce" points="758.19,-118.38 760.76,-108.1 752.34,-114.54 758.19,-118.38"/>
</a>
</g>
</g>
<!-- 5 -->
<g id="node7" class="node">
<title>5</title>
<g id="a_node7"><a xlink:title="stdint.h">
<polygon fill="#ffffff" stroke="black" points="265,-36 193,-36 193,0 265,0 265,-36"/>
<text text-anchor="middle" x="229" y="-14.3" font-family="Times,serif" font-size="14.00">stdint.h</text>
</a>
</g>
</g>
<!-- 9 -->
<g id="node9" class="node">
<title>9</title>
<g id="a_node9"><a xlink:title="memory.h">
<polygon fill="#ffffff" stroke="black" points="500,-252 414,-252 414,-216 500,-216 500,-252"/>
<text text-anchor="middle" x="457" y="-230.3" font-family="Times,serif" font-size="14.00">memory.h</text>
</a>
</g>
</g>
<!-- 9&#45;&gt;15 -->
<g id="edge16" class="edge">
<title>9&#45;&gt;15</title>
<g id="a_edge16"><a xlink:title="include">
<path fill="none" stroke="#1414ce" d="M413.84,-220.57C368.92,-207.63 299.1,-187.51 255,-174.81"/>
<polygon fill="#1414ce" stroke="#1414ce" points="255.77,-171.39 245.19,-171.98 253.83,-178.12 255.77,-171.39"/>
</a>
</g>
</g>
<!-- 9&#45;&gt;5 -->
<g id="edge12" class="edge">
<title>9&#45;&gt;5</title>
<g id="a_edge12"><a xlink:title="include">
<path fill="none" stroke="#1414ce" d="M456.09,-215.75C453.41,-183.03 442.95,-111.66 402,-72 367.93,-39 313.86,-26.49 275.24,-21.78"/>
<polygon fill="#1414ce" stroke="#1414ce" points="275.6,-18.3 265.28,-20.69 274.84,-25.26 275.6,-18.3"/>
</a>
</g>
</g>
<!-- 9&#45;&gt;7 -->
<g id="edge13" class="edge">
<title>9&#45;&gt;7</title>
<g id="a_edge13"><a xlink:title="include">
<path fill="none" stroke="#1414ce" d="M440.89,-215.95C431.69,-205.85 420.19,-192.6 411,-180 396.22,-159.73 381.59,-135.28 371.3,-117.14"/>
<polygon fill="#1414ce" stroke="#1414ce" points="374.27,-115.29 366.33,-108.28 368.17,-118.71 374.27,-115.29"/>
</a>
</g>
</g>
<!-- 10 -->
<g id="node13" class="node">
<title>10</title>
<g id="a_node13"><a xlink:title="erl_nif.h">
<polygon fill="#ffffff" stroke="black" points="565,-180 491,-180 491,-144 565,-144 565,-180"/>
<text text-anchor="middle" x="528" y="-158.3" font-family="Times,serif" font-size="14.00">erl_nif.h</text>
</a>
</g>
</g>
<!-- 9&#45;&gt;10 -->
<g id="edge14" class="edge">
<title>9&#45;&gt;10</title>
<g id="a_edge14"><a xlink:title="include">
<path fill="none" stroke="#1414ce" d="M474.55,-215.7C483.23,-207.14 493.86,-196.66 503.35,-187.3"/>
<polygon fill="#1414ce" stroke="#1414ce" points="505.99,-189.62 510.65,-180.1 501.07,-184.63 505.99,-189.62"/>
</a>
</g>
</g>
<!-- 11 -->
<g id="node17" class="node">
<title>11</title>
<g id="a_node17"><a xlink:title="term_typedef.h">
<polygon fill="#ffffff" stroke="black" points="584.5,-108 459.5,-108 459.5,-72 584.5,-72 584.5,-108"/>
<text text-anchor="middle" x="522" y="-86.3" font-family="Times,serif" font-size="14.00">term_typedef.h</text>
</a>
</g>
</g>
<!-- 9&#45;&gt;11 -->
<g id="edge15" class="edge">
<title>9&#45;&gt;11</title>
<g id="a_edge15"><a xlink:title="include">
<path fill="none" stroke="#1414ce" d="M459.84,-215.92C463.34,-197.48 470.31,-167.58 482,-144 486.84,-134.24 493.55,-124.46 500.1,-116.01"/>
<polygon fill="#1414ce" stroke="#1414ce" points="502.97,-118.03 506.52,-108.05 497.52,-113.64 502.97,-118.03"/>
</a>
</g>
</g>
<!-- 19&#45;&gt;20 -->
<g id="edge21" class="edge">
<title>19&#45;&gt;20</title>
<g id="a_edge21"><a xlink:title="include">
<path fill="none" stroke="#1414ce" d="M598.25,-287.7C598.36,-279.98 598.49,-270.71 598.61,-262.11"/>
<polygon fill="#1414ce" stroke="#1414ce" points="602.11,-262.15 598.76,-252.1 595.11,-262.05 602.11,-262.15"/>
</a>
</g>
</g>
<!-- 19&#45;&gt;18 -->
<g id="edge19" class="edge">
<title>19&#45;&gt;18</title>
<g id="a_edge19"><a xlink:title="include">
<path fill="none" stroke="#1414ce" d="M616.05,-287.7C626.48,-277.52 639.73,-264.27 651,-252 670.32,-230.96 691.17,-206.02 705.97,-187.9"/>
<polygon fill="#1414ce" stroke="#1414ce" points="708.72,-190.06 712.32,-180.1 703.29,-185.65 708.72,-190.06"/>
</a>
</g>
</g>
<!-- 19&#45;&gt;7 -->
<g id="edge17" class="edge">
<title>19&#45;&gt;7</title>
<g id="a_edge17"><a xlink:title="include">
<path fill="none" stroke="#1414ce" d="M547.93,-304.16C504.62,-300.75 443.12,-289.05 405,-252 368.32,-216.35 359.37,-154 357.37,-118.25"/>
<polygon fill="#1414ce" stroke="#1414ce" points="360.86,-117.92 356.95,-108.07 353.86,-118.21 360.86,-117.92"/>
</a>
</g>
</g>
<!-- 19&#45;&gt;9 -->
<g id="edge20" class="edge">
<title>19&#45;&gt;9</title>
<g id="a_edge20"><a xlink:title="include">
<path fill="none" stroke="#1414ce" d="M563.51,-287.88C544.56,-278.47 520.87,-266.71 500.64,-256.67"/>
<polygon fill="#1414ce" stroke="#1414ce" points="502.14,-253.5 491.63,-252.19 499.03,-259.77 502.14,-253.5"/>
</a>
</g>
</g>
<!-- 19&#45;&gt;10 -->
<g id="edge18" class="edge">
<title>19&#45;&gt;10</title>
<g id="a_edge18"><a xlink:title="include">
<path fill="none" stroke="#1414ce" d="M577.2,-287.84C566.94,-278.3 555.24,-265.63 548,-252 537.81,-232.83 532.8,-208.67 530.34,-190.36"/>
<polygon fill="#1414ce" stroke="#1414ce" points="533.81,-189.86 529.17,-180.34 526.85,-190.68 533.81,-189.86"/>
</a>
</g>
</g>
<!-- 2 -->
<g id="node11" class="node">
<title>2</title>
<g id="a_node11"><a xlink:title="term.h">
<polygon fill="#ffffff" stroke="black" points="382.5,-468 317.5,-468 317.5,-432 382.5,-432 382.5,-468"/>
<text text-anchor="middle" x="350" y="-446.3" font-family="Times,serif" font-size="14.00">term.h</text>
</a>
</g>
</g>
<!-- 2&#45;&gt;4 -->
<g id="edge23" class="edge">
<title>2&#45;&gt;4</title>
<g id="a_edge23"><a xlink:title="include">
<path fill="none" stroke="#1414ce" d="M382.88,-446.94C495.22,-439.02 857,-405.83 857,-307 857,-307 857,-307 857,-233 857,-186.45 822.96,-141.95 797.96,-115.55"/>
<polygon fill="#1414ce" stroke="#1414ce" points="800.35,-112.98 790.86,-108.27 795.34,-117.87 800.35,-112.98"/>
</a>
</g>
</g>
<!-- 2&#45;&gt;17 -->
<g id="edge29" class="edge">
<title>2&#45;&gt;17</title>
<g id="a_edge29"><a xlink:title="include">
<path fill="none" stroke="#1414ce" d="M382.68,-439.85C421.44,-429 486.95,-410.65 535.93,-396.94"/>
<polygon fill="#1414ce" stroke="#1414ce" points="537.12,-400.24 545.81,-394.17 535.23,-393.5 537.12,-400.24"/>
</a>
</g>
</g>
<!-- 2&#45;&gt;15 -->
<g id="edge30" class="edge">
<title>2&#45;&gt;15</title>
<g id="a_edge30"><a xlink:title="include">
<path fill="none" stroke="#1414ce" d="M317.36,-437.98C297.45,-429.57 273.18,-415.98 259,-396 214.2,-332.85 210.92,-236.85 212.35,-190.26"/>
<polygon fill="#1414ce" stroke="#1414ce" points="215.86,-190.19 212.76,-180.05 208.86,-189.9 215.86,-190.19"/>
</a>
</g>
</g>
<!-- 2&#45;&gt;5 -->
<g id="edge24" class="edge">
<title>2&#45;&gt;5</title>
<g id="a_edge24"><a xlink:title="include">
<path fill="none" stroke="#1414ce" d="M317.4,-446.42C278.88,-441.9 214.51,-429.54 171,-396 134.35,-367.76 117,-353.27 117,-307 117,-307 117,-307 117,-161 117,-120.55 112.12,-104.64 136,-72 147.76,-55.93 165.97,-44.02 183.17,-35.62"/>
<polygon fill="#1414ce" stroke="#1414ce" points="184.94,-38.65 192.57,-31.3 182.02,-32.29 184.94,-38.65"/>
</a>
</g>
</g>
<!-- 2&#45;&gt;7 -->
<g id="edge26" class="edge">
<title>2&#45;&gt;7</title>
<g id="a_edge26"><a xlink:title="include">
<path fill="none" stroke="#1414ce" d="M325.67,-431.92C314.11,-422.58 301.08,-410.06 293,-396 272.81,-360.85 273,-347.54 273,-307 273,-307 273,-307 273,-233 273,-186.6 306.64,-142.06 331.34,-115.6"/>
<polygon fill="#1414ce" stroke="#1414ce" points="333.95,-117.95 338.36,-108.31 328.9,-113.09 333.95,-117.95"/>
</a>
</g>
</g>
<!-- 2&#45;&gt;9 -->
<g id="edge28" class="edge">
<title>2&#45;&gt;9</title>
<g id="a_edge28"><a xlink:title="include">
<path fill="none" stroke="#1414ce" d="M382.56,-447.76C417.87,-444.47 472.72,-433.24 499,-396 528.2,-354.62 497.7,-294.4 475.58,-260.56"/>
<polygon fill="#1414ce" stroke="#1414ce" points="478.4,-258.48 469.9,-252.15 472.6,-262.39 478.4,-258.48"/>
</a>
</g>
</g>
<!-- 3 -->
<g id="node15" class="node">
<title>3</title>
<g id="a_node15"><a xlink:title="sys/types.h">
<polygon fill="#ffffff" stroke="black" points="398.5,-396 301.5,-396 301.5,-360 398.5,-360 398.5,-396"/>
<text text-anchor="middle" x="350" y="-374.3" font-family="Times,serif" font-size="14.00">sys/types.h</text>
</a>
</g>
</g>
<!-- 2&#45;&gt;3 -->
<g id="edge22" class="edge">
<title>2&#45;&gt;3</title>
<g id="a_edge22"><a xlink:title="include">
<path fill="none" stroke="#1414ce" d="M350,-431.7C350,-423.98 350,-414.71 350,-406.11"/>
<polygon fill="#1414ce" stroke="#1414ce" points="353.5,-406.1 350,-396.1 346.5,-406.1 353.5,-406.1"/>
</a>
</g>
</g>
<!-- 8 -->
<g id="node16" class="node">
<title>8</title>
<g id="a_node16"><a xlink:title="string.h">
<polygon fill="#ffffff" stroke="black" points="489.5,-396 416.5,-396 416.5,-360 489.5,-360 489.5,-396"/>
<text text-anchor="middle" x="453" y="-374.3" font-family="Times,serif" font-size="14.00">string.h</text>
</a>
</g>
</g>
<!-- 2&#45;&gt;8 -->
<g id="edge27" class="edge">
<title>2&#45;&gt;8</title>
<g id="a_edge27"><a xlink:title="include">
<path fill="none" stroke="#1414ce" d="M375.2,-431.88C388.41,-422.89 404.79,-411.76 419.11,-402.03"/>
<polygon fill="#1414ce" stroke="#1414ce" points="421.4,-404.71 427.71,-396.19 417.47,-398.92 421.4,-404.71"/>
</a>
</g>
</g>
<!-- 2&#45;&gt;11 -->
<g id="edge31" class="edge">
<title>2&#45;&gt;11</title>
<g id="a_edge31"><a xlink:title="include">
<path fill="none" stroke="#1414ce" d="M382.63,-447.28C453.66,-442.96 619.38,-429.46 663,-396 746.79,-331.72 739.48,-283.17 762,-180 765.41,-164.37 772.02,-156.47 762,-144 741.27,-118.2 657.55,-104.21 594.78,-97.18"/>
<polygon fill="#1414ce" stroke="#1414ce" points="594.83,-93.67 584.51,-96.08 594.08,-100.63 594.83,-93.67"/>
</a>
</g>
</g>
<!-- 2&#45;&gt;6 -->
<g id="edge25" class="edge">
<title>2&#45;&gt;6</title>
<g id="a_edge25"><a xlink:title="include">
<path fill="none" stroke="#1414ce" d="M317.36,-441.3C261.85,-426.04 155,-386.36 155,-307 155,-307 155,-307 155,-233 155,-192.7 164.14,-146.78 170.9,-118.34"/>
<polygon fill="#1414ce" stroke="#1414ce" points="174.37,-118.89 173.35,-108.34 167.57,-117.22 174.37,-118.89"/>
</a>
</g>
</g>
<!-- 10&#45;&gt;11 -->
<g id="edge32" class="edge">
<title>10&#45;&gt;11</title>
<g id="a_edge32"><a xlink:title="include">
<path fill="none" stroke="#1414ce" d="M526.52,-143.7C525.86,-135.98 525.06,-126.71 524.32,-118.11"/>
<polygon fill="#1414ce" stroke="#1414ce" points="527.81,-117.77 523.47,-108.1 520.83,-118.37 527.81,-117.77"/>
</a>
</g>
</g>
<!-- 13 -->
<g id="node14" class="node">
<title>13</title>
<g id="a_node14"><a xlink:title="limits.h">
<polygon fill="#ffffff" stroke="black" points="557.5,-36 486.5,-36 486.5,0 557.5,0 557.5,-36"/>
<text text-anchor="middle" x="522" y="-14.3" font-family="Times,serif" font-size="14.00">limits.h</text>
</a>
</g>
</g>
<!-- 11&#45;&gt;12 -->
<g id="edge33" class="edge">
<title>11&#45;&gt;12</title>
<g id="a_edge33"><a xlink:title="include">
<path fill="none" stroke="#1414ce" d="M499.51,-71.7C488.04,-62.88 473.94,-52.03 461.52,-42.47"/>
<polygon fill="#1414ce" stroke="#1414ce" points="463.3,-39.43 453.24,-36.1 459.03,-44.98 463.3,-39.43"/>
</a>
</g>
</g>
<!-- 11&#45;&gt;5 -->
<g id="edge36" class="edge">
<title>11&#45;&gt;5</title>
<g id="a_edge36"><a xlink:title="include">
<path fill="none" stroke="#1414ce" d="M459.14,-73.98C403.77,-60.75 324.42,-41.8 274.84,-29.95"/>
<polygon fill="#1414ce" stroke="#1414ce" points="275.58,-26.53 265.04,-27.61 273.95,-33.34 275.58,-26.53"/>
</a>
</g>
</g>
<!-- 11&#45;&gt;13 -->
<g id="edge34" class="edge">
<title>11&#45;&gt;13</title>
<g id="a_edge34"><a xlink:title="include">
<path fill="none" stroke="#1414ce" d="M522,-71.7C522,-63.98 522,-54.71 522,-46.11"/>
<polygon fill="#1414ce" stroke="#1414ce" points="525.5,-46.1 522,-36.1 518.5,-46.1 525.5,-46.1"/>
</a>
</g>
</g>
<!-- 14 -->
<g id="node21" class="node">
<title>14</title>
<g id="a_node21"><a xlink:title="inttypes.h">
<polygon fill="#ffffff" stroke="black" points="664.5,-36 575.5,-36 575.5,0 664.5,0 664.5,-36"/>
<text text-anchor="middle" x="620" y="-14.3" font-family="Times,serif" font-size="14.00">inttypes.h</text>
</a>
</g>
</g>
<!-- 11&#45;&gt;14 -->
<g id="edge35" class="edge">
<title>11&#45;&gt;14</title>
<g id="a_edge35"><a xlink:title="include">
<path fill="none" stroke="#1414ce" d="M545.97,-71.88C558.55,-62.89 574.13,-51.76 587.75,-42.03"/>
<polygon fill="#1414ce" stroke="#1414ce" points="589.83,-44.85 595.93,-36.19 585.76,-39.15 589.83,-44.85"/>
</a>
</g>
</g>
<!-- 1 -->
<g id="node18" class="node">
<title>1</title>
<g id="a_node18"><a xlink:title="/__w/AtomVM/AtomVM/src/libAtomVM/overflow_helpers.h">
<polygon fill="#bfbfbf" stroke="black" points="428,-540 0,-540 0,-504 428,-504 428,-540"/>
<text text-anchor="middle" x="214" y="-518.3" font-family="Times,serif" font-size="14.00">/__w/AtomVM/AtomVM/src/libAtomVM/overflow_helpers.h</text>
</a>
</g>
</g>
<!-- 1&#45;&gt;5 -->
<g id="edge38" class="edge">
<title>1&#45;&gt;5</title>
<g id="a_edge38"><a xlink:title="include">
<path fill="none" stroke="#1414ce" d="M179.58,-503.87C139.59,-481.24 79,-437.34 79,-379 79,-379 79,-379 79,-161 79,-118.33 85.6,-102.93 115,-72 133.42,-52.62 160.31,-39.65 183.36,-31.4"/>
<polygon fill="#1414ce" stroke="#1414ce" points="184.61,-34.67 192.96,-28.14 182.36,-28.04 184.61,-34.67"/>
</a>
</g>
</g>
<!-- 1&#45;&gt;2 -->
<g id="edge37" class="edge">
<title>1&#45;&gt;2</title>
<g id="a_edge37"><a xlink:title="include">
<path fill="none" stroke="#1414ce" d="M247.27,-503.88C265.6,-494.44 288.53,-482.64 308.07,-472.58"/>
<polygon fill="#1414ce" stroke="#1414ce" points="309.78,-475.64 317.07,-467.95 306.58,-469.41 309.78,-475.64"/>
</a>
</g>
</g>
<!-- 21&#45;&gt;4 -->
<g id="edge39" class="edge">
<title>21&#45;&gt;4</title>
<g id="a_edge39"><a xlink:title="include">
<path fill="none" stroke="#1414ce" d="M680.6,-143.88C696.57,-134.64 716.46,-123.13 733.61,-113.21"/>
<polygon fill="#1414ce" stroke="#1414ce" points="735.38,-116.23 742.29,-108.19 731.88,-110.17 735.38,-116.23"/>
</a>
</g>
</g>
</g>
</svg>
