<?xml version="1.0" encoding="UTF-8" standalone="no"?>
<!DOCTYPE svg PUBLIC "-//W3C//DTD SVG 1.1//EN"
 "http://www.w3.org/Graphics/SVG/1.1/DTD/svg11.dtd">
<!-- Generated by graphviz version 2.43.0 (0)
 -->
<!-- Title: %3 Pages: 1 -->
<svg width="1539pt" height="908pt"
 viewBox="0.00 0.00 1539.00 908.00" xmlns="http://www.w3.org/2000/svg" xmlns:xlink="http://www.w3.org/1999/xlink">
<g id="graph0" class="graph" transform="scale(1 1) rotate(0) translate(4 904)">
<title>%3</title>
<polygon fill="transparent" stroke="transparent" points="-4,4 -4,-904 1535,-904 1535,4 -4,4"/>
<!-- 9 -->
<g id="node1" class="node">
<title>9</title>
<g id="a_node1"><a xlink:title="stdbool.h">
<polygon fill="#ffffff" stroke="black" points="502.5,-108 419.5,-108 419.5,-72 502.5,-72 502.5,-108"/>
<text text-anchor="middle" x="461" y="-86.3" font-family="Times,serif" font-size="14.00">stdbool.h</text>
</a>
</g>
</g>
<!-- 26 -->
<g id="node2" class="node">
<title>26</title>
<g id="a_node2"><a xlink:title="refc_binary.h">
<polygon fill="#ffffff" stroke="black" points="1151,-396 1043,-396 1043,-360 1151,-360 1151,-396"/>
<text text-anchor="middle" x="1097" y="-374.3" font-family="Times,serif" font-size="14.00">refc_binary.h</text>
</a>
</g>
</g>
<!-- 26&#45;&gt;9 -->
<g id="edge1" class="edge">
<title>26&#45;&gt;9</title>
<g id="a_edge1"><a xlink:title="include">
<path fill="none" stroke="#1414ce" d="M1042.8,-367.58C1027.66,-365.03 1011.2,-362.33 996,-360 880.69,-342.32 844.93,-365.75 736,-324 629.3,-283.1 604.36,-260.23 523,-180 503.87,-161.14 486.81,-135.66 475.45,-116.8"/>
<polygon fill="#1414ce" stroke="#1414ce" points="478.44,-114.97 470.35,-108.13 472.4,-118.52 478.44,-114.97"/>
</a>
</g>
</g>
<!-- 16 -->
<g id="node8" class="node">
<title>16</title>
<g id="a_node8"><a xlink:title="list.h">
<polygon fill="#ffffff" stroke="black" points="640,-180 586,-180 586,-144 640,-144 640,-180"/>
<text text-anchor="middle" x="613" y="-158.3" font-family="Times,serif" font-size="14.00">list.h</text>
</a>
</g>
</g>
<!-- 26&#45;&gt;16 -->
<g id="edge3" class="edge">
<title>26&#45;&gt;16</title>
<g id="a_edge3"><a xlink:title="include">
<path fill="none" stroke="#1414ce" d="M1042.98,-366.59C940.91,-346.08 724.59,-298.42 665,-252 644.47,-236.01 630.48,-209.46 622.23,-189.52"/>
<polygon fill="#1414ce" stroke="#1414ce" points="625.44,-188.1 618.54,-180.05 618.91,-190.64 625.44,-188.1"/>
</a>
</g>
</g>
<!-- 7 -->
<g id="node10" class="node">
<title>7</title>
<g id="a_node10"><a xlink:title="stdlib.h">
<polygon fill="#ffffff" stroke="black" points="1129.5,-108 1058.5,-108 1058.5,-72 1129.5,-72 1129.5,-108"/>
<text text-anchor="middle" x="1094" y="-86.3" font-family="Times,serif" font-size="14.00">stdlib.h</text>
</a>
</g>
</g>
<!-- 26&#45;&gt;7 -->
<g id="edge2" class="edge">
<title>26&#45;&gt;7</title>
<g id="a_edge2"><a xlink:title="include">
<path fill="none" stroke="#1414ce" d="M1107.63,-359.56C1113.1,-349.54 1119.2,-336.51 1122,-324 1138.49,-250.39 1116.48,-161.37 1103.03,-117.74"/>
<polygon fill="#1414ce" stroke="#1414ce" points="1106.35,-116.63 1099.99,-108.16 1099.68,-118.75 1106.35,-116.63"/>
</a>
</g>
</g>
<!-- 27 -->
<g id="node15" class="node">
<title>27</title>
<g id="a_node15"><a xlink:title="resources.h">
<polygon fill="#ffffff" stroke="black" points="1113,-324 1013,-324 1013,-288 1113,-288 1113,-324"/>
<text text-anchor="middle" x="1063" y="-302.3" font-family="Times,serif" font-size="14.00">resources.h</text>
</a>
</g>
</g>
<!-- 26&#45;&gt;27 -->
<g id="edge4" class="edge">
<title>26&#45;&gt;27</title>
<g id="a_edge4"><a xlink:title="include">
<path fill="none" stroke="#1414ce" d="M1088.6,-359.7C1084.73,-351.73 1080.05,-342.1 1075.76,-333.26"/>
<polygon fill="#1414ce" stroke="#1414ce" points="1078.83,-331.57 1071.31,-324.1 1072.53,-334.63 1078.83,-331.57"/>
</a>
</g>
</g>
<!-- 34 -->
<g id="node3" class="node">
<title>34</title>
<g id="a_node3"><a xlink:title="defaultatoms.h">
<polygon fill="#ffffff" stroke="black" points="567,-828 443,-828 443,-792 567,-792 567,-828"/>
<text text-anchor="middle" x="505" y="-806.3" font-family="Times,serif" font-size="14.00">defaultatoms.h</text>
</a>
</g>
</g>
<!-- 35 -->
<g id="node20" class="node">
<title>35</title>
<g id="a_node20"><a xlink:title="defaultatoms.def">
<polygon fill="#ffffff" stroke="black" points="573.5,-756 436.5,-756 436.5,-720 573.5,-720 573.5,-756"/>
<text text-anchor="middle" x="505" y="-734.3" font-family="Times,serif" font-size="14.00">defaultatoms.def</text>
</a>
</g>
</g>
<!-- 34&#45;&gt;35 -->
<g id="edge6" class="edge">
<title>34&#45;&gt;35</title>
<g id="a_edge6"><a xlink:title="include">
<path fill="none" stroke="#1414ce" d="M505,-791.7C505,-783.98 505,-774.71 505,-766.11"/>
<polygon fill="#1414ce" stroke="#1414ce" points="508.5,-766.1 505,-756.1 501.5,-766.1 508.5,-766.1"/>
</a>
</g>
</g>
<!-- 4 -->
<g id="node26" class="node">
<title>4</title>
<g id="a_node26"><a xlink:title="globalcontext.h">
<polygon fill="#ffffff" stroke="black" points="465.5,-612 338.5,-612 338.5,-576 465.5,-576 465.5,-612"/>
<text text-anchor="middle" x="402" y="-590.3" font-family="Times,serif" font-size="14.00">globalcontext.h</text>
</a>
</g>
</g>
<!-- 34&#45;&gt;4 -->
<g id="edge5" class="edge">
<title>34&#45;&gt;4</title>
<g id="a_edge5"><a xlink:title="include">
<path fill="none" stroke="#1414ce" d="M467.22,-791.8C452.38,-783.15 436.63,-771.22 427,-756 400.94,-714.8 398.64,-656.1 399.92,-622.14"/>
<polygon fill="#1414ce" stroke="#1414ce" points="403.42,-622.2 400.43,-612.04 396.43,-621.85 403.42,-622.2"/>
</a>
</g>
</g>
<!-- 6 -->
<g id="node4" class="node">
<title>6</title>
<g id="a_node4"><a xlink:title="atom.h">
<polygon fill="#ffffff" stroke="black" points="606,-468 540,-468 540,-432 606,-432 606,-468"/>
<text text-anchor="middle" x="573" y="-446.3" font-family="Times,serif" font-size="14.00">atom.h</text>
</a>
</g>
</g>
<!-- 5 -->
<g id="node9" class="node">
<title>5</title>
<g id="a_node9"><a xlink:title="stdint.h">
<polygon fill="#ffffff" stroke="black" points="802,-36 730,-36 730,0 802,0 802,-36"/>
<text text-anchor="middle" x="766" y="-14.3" font-family="Times,serif" font-size="14.00">stdint.h</text>
</a>
</g>
</g>
<!-- 6&#45;&gt;5 -->
<g id="edge7" class="edge">
<title>6&#45;&gt;5</title>
<g id="a_edge7"><a xlink:title="include">
<path fill="none" stroke="#1414ce" d="M539.83,-440.23C426.54,-408.69 68.01,-294.85 179,-144 243.42,-56.45 592.72,-28.58 719.77,-21.26"/>
<polygon fill="#1414ce" stroke="#1414ce" points="720.16,-24.75 729.94,-20.69 719.76,-17.76 720.16,-24.75"/>
</a>
</g>
</g>
<!-- 6&#45;&gt;7 -->
<g id="edge8" class="edge">
<title>6&#45;&gt;7</title>
<g id="a_edge8"><a xlink:title="include">
<path fill="none" stroke="#1414ce" d="M606.27,-435.2C685.17,-401.24 886.84,-307.02 1018,-180 1038.76,-159.9 1059.91,-134.66 1074.61,-116.2"/>
<polygon fill="#1414ce" stroke="#1414ce" points="1077.44,-118.26 1080.88,-108.24 1071.94,-113.93 1077.44,-118.26"/>
</a>
</g>
</g>
<!-- 12 -->
<g id="node5" class="node">
<title>12</title>
<g id="a_node5"><a xlink:title="assert.h">
<polygon fill="#ffffff" stroke="black" points="1531,-36 1457,-36 1457,0 1531,0 1531,-36"/>
<text text-anchor="middle" x="1494" y="-14.3" font-family="Times,serif" font-size="14.00">assert.h</text>
</a>
</g>
</g>
<!-- 24 -->
<g id="node6" class="node">
<title>24</title>
<g id="a_node6"><a xlink:title="utils.h">
<polygon fill="#ffffff" stroke="black" points="1009,-180 947,-180 947,-144 1009,-144 1009,-180"/>
<text text-anchor="middle" x="978" y="-158.3" font-family="Times,serif" font-size="14.00">utils.h</text>
</a>
</g>
</g>
<!-- 24&#45;&gt;7 -->
<g id="edge11" class="edge">
<title>24&#45;&gt;7</title>
<g id="a_edge11"><a xlink:title="include">
<path fill="none" stroke="#1414ce" d="M1006.38,-143.88C1021.54,-134.72 1040.41,-123.34 1056.74,-113.48"/>
<polygon fill="#1414ce" stroke="#1414ce" points="1058.76,-116.35 1065.51,-108.19 1055.14,-110.36 1058.76,-116.35"/>
</a>
</g>
</g>
<!-- 25 -->
<g id="node17" class="node">
<title>25</title>
<g id="a_node17"><a xlink:title="stddef.h">
<polygon fill="#ffffff" stroke="black" points="1015,-108 941,-108 941,-72 1015,-72 1015,-108"/>
<text text-anchor="middle" x="978" y="-86.3" font-family="Times,serif" font-size="14.00">stddef.h</text>
</a>
</g>
</g>
<!-- 24&#45;&gt;25 -->
<g id="edge9" class="edge">
<title>24&#45;&gt;25</title>
<g id="a_edge9"><a xlink:title="include">
<path fill="none" stroke="#1414ce" d="M978,-143.7C978,-135.98 978,-126.71 978,-118.11"/>
<polygon fill="#1414ce" stroke="#1414ce" points="981.5,-118.1 978,-108.1 974.5,-118.1 981.5,-118.1"/>
</a>
</g>
</g>
<!-- 18 -->
<g id="node33" class="node">
<title>18</title>
<g id="a_node33"><a xlink:title="stdio.h">
<polygon fill="#ffffff" stroke="black" points="585.5,-108 520.5,-108 520.5,-72 585.5,-72 585.5,-108"/>
<text text-anchor="middle" x="553" y="-86.3" font-family="Times,serif" font-size="14.00">stdio.h</text>
</a>
</g>
</g>
<!-- 24&#45;&gt;18 -->
<g id="edge10" class="edge">
<title>24&#45;&gt;18</title>
<g id="a_edge10"><a xlink:title="include">
<path fill="none" stroke="#1414ce" d="M946.82,-148.2C942.23,-146.62 937.53,-145.16 933,-144 813.14,-113.41 667.2,-99.31 596.1,-93.87"/>
<polygon fill="#1414ce" stroke="#1414ce" points="595.98,-90.36 585.75,-93.1 595.46,-97.34 595.98,-90.36"/>
</a>
</g>
</g>
<!-- 17 -->
<g id="node7" class="node">
<title>17</title>
<g id="a_node7"><a xlink:title="synclist.h">
<polygon fill="#ffffff" stroke="black" points="432.5,-252 347.5,-252 347.5,-216 432.5,-216 432.5,-252"/>
<text text-anchor="middle" x="390" y="-230.3" font-family="Times,serif" font-size="14.00">synclist.h</text>
</a>
</g>
</g>
<!-- 17&#45;&gt;16 -->
<g id="edge13" class="edge">
<title>17&#45;&gt;16</title>
<g id="a_edge13"><a xlink:title="include">
<path fill="none" stroke="#1414ce" d="M432.73,-219.59C474.27,-206.55 536.69,-186.96 576.11,-174.58"/>
<polygon fill="#1414ce" stroke="#1414ce" points="577.36,-177.86 585.85,-171.52 575.26,-171.18 577.36,-177.86"/>
</a>
</g>
</g>
<!-- 19 -->
<g id="node27" class="node">
<title>19</title>
<g id="a_node27"><a xlink:title="smp.h">
<polygon fill="#ffffff" stroke="black" points="248,-180 188,-180 188,-144 248,-144 248,-180"/>
<text text-anchor="middle" x="218" y="-158.3" font-family="Times,serif" font-size="14.00">smp.h</text>
</a>
</g>
</g>
<!-- 17&#45;&gt;19 -->
<g id="edge14" class="edge">
<title>17&#45;&gt;19</title>
<g id="a_edge14"><a xlink:title="include">
<path fill="none" stroke="#1414ce" d="M347.92,-215.88C320.38,-204.67 284.61,-190.11 257.58,-179.11"/>
<polygon fill="#1414ce" stroke="#1414ce" points="258.63,-175.76 248.05,-175.23 255.99,-182.24 258.63,-175.76"/>
</a>
</g>
</g>
<!-- 17&#45;&gt;18 -->
<g id="edge12" class="edge">
<title>17&#45;&gt;18</title>
<g id="a_edge12"><a xlink:title="include">
<path fill="none" stroke="#1414ce" d="M409.66,-215.87C438.54,-190.71 492.56,-143.65 525.4,-115.04"/>
<polygon fill="#1414ce" stroke="#1414ce" points="528.03,-117.4 533.27,-108.19 523.43,-112.12 528.03,-117.4"/>
</a>
</g>
</g>
<!-- 16&#45;&gt;9 -->
<g id="edge15" class="edge">
<title>16&#45;&gt;9</title>
<g id="a_edge15"><a xlink:title="include">
<path fill="none" stroke="#1414ce" d="M585.83,-148.49C564,-138.43 532.85,-124.09 507.14,-112.25"/>
<polygon fill="#1414ce" stroke="#1414ce" points="508.48,-109.01 497.93,-108.01 505.55,-115.37 508.48,-109.01"/>
</a>
</g>
</g>
<!-- 3 -->
<g id="node11" class="node">
<title>3</title>
<g id="a_node11"><a xlink:title="context.h">
<polygon fill="#ffffff" stroke="black" points="807.5,-684 724.5,-684 724.5,-648 807.5,-648 807.5,-684"/>
<text text-anchor="middle" x="766" y="-662.3" font-family="Times,serif" font-size="14.00">context.h</text>
</a>
</g>
</g>
<!-- 3&#45;&gt;16 -->
<g id="edge17" class="edge">
<title>3&#45;&gt;16</title>
<g id="a_edge17"><a xlink:title="include">
<path fill="none" stroke="#1414ce" d="M759.6,-647.91C738.8,-591.83 672.02,-408.13 631,-252 625.63,-231.55 620.94,-208.09 617.7,-190.39"/>
<polygon fill="#1414ce" stroke="#1414ce" points="621.08,-189.42 615.87,-180.2 614.19,-190.66 621.08,-189.42"/>
</a>
</g>
</g>
<!-- 20 -->
<g id="node16" class="node">
<title>20</title>
<g id="a_node16"><a xlink:title="term.h">
<polygon fill="#ffffff" stroke="black" points="1030.5,-468 965.5,-468 965.5,-432 1030.5,-432 1030.5,-468"/>
<text text-anchor="middle" x="998" y="-446.3" font-family="Times,serif" font-size="14.00">term.h</text>
</a>
</g>
</g>
<!-- 3&#45;&gt;20 -->
<g id="edge20" class="edge">
<title>3&#45;&gt;20</title>
<g id="a_edge20"><a xlink:title="include">
<path fill="none" stroke="#1414ce" d="M772.07,-647.91C786.18,-608.61 820.79,-514.35 832,-504 865.93,-472.68 918.42,-459.86 955.27,-454.62"/>
<polygon fill="#1414ce" stroke="#1414ce" points="955.75,-458.09 965.22,-453.34 954.85,-451.15 955.75,-458.09"/>
</a>
</g>
</g>
<!-- 3&#45;&gt;4 -->
<g id="edge16" class="edge">
<title>3&#45;&gt;4</title>
<g id="a_edge16"><a xlink:title="include">
<path fill="none" stroke="#1414ce" d="M724.41,-650.55C721.24,-649.63 718.08,-648.77 715,-648 670.93,-636.99 553.83,-618.18 476.02,-606.19"/>
<polygon fill="#1414ce" stroke="#1414ce" points="476.21,-602.67 465.79,-604.61 475.14,-609.59 476.21,-602.67"/>
</a>
</g>
</g>
<!-- 3&#45;&gt;19 -->
<g id="edge19" class="edge">
<title>3&#45;&gt;19</title>
<g id="a_edge19"><a xlink:title="include">
<path fill="none" stroke="#1414ce" d="M724.47,-650.29C721.29,-649.43 718.11,-648.65 715,-648 592.47,-622.22 230.81,-644.61 162,-540 87.65,-426.98 167.77,-254.03 203.06,-188.96"/>
<polygon fill="#1414ce" stroke="#1414ce" points="206.14,-190.61 207.91,-180.16 200.02,-187.22 206.14,-190.61"/>
</a>
</g>
</g>
<!-- 29 -->
<g id="node31" class="node">
<title>29</title>
<g id="a_node31"><a xlink:title="timer_list.h">
<polygon fill="#ffffff" stroke="black" points="815,-252 717,-252 717,-216 815,-216 815,-252"/>
<text text-anchor="middle" x="766" y="-230.3" font-family="Times,serif" font-size="14.00">timer_list.h</text>
</a>
</g>
</g>
<!-- 3&#45;&gt;29 -->
<g id="edge21" class="edge">
<title>3&#45;&gt;29</title>
<g id="a_edge21"><a xlink:title="include">
<path fill="none" stroke="#1414ce" d="M761.94,-647.93C759.69,-637.6 757.13,-624.12 756,-612 742.59,-468.63 742.59,-431.37 756,-288 756.8,-279.48 758.3,-270.28 759.9,-261.99"/>
<polygon fill="#1414ce" stroke="#1414ce" points="763.36,-262.57 761.94,-252.07 756.5,-261.16 763.36,-262.57"/>
</a>
</g>
</g>
<!-- 28 -->
<g id="node32" class="node">
<title>28</title>
<g id="a_node32"><a xlink:title="mailbox.h">
<polygon fill="#ffffff" stroke="black" points="919,-252 833,-252 833,-216 919,-216 919,-252"/>
<text text-anchor="middle" x="876" y="-230.3" font-family="Times,serif" font-size="14.00">mailbox.h</text>
</a>
</g>
</g>
<!-- 3&#45;&gt;28 -->
<g id="edge18" class="edge">
<title>3&#45;&gt;28</title>
<g id="a_edge18"><a xlink:title="include">
<path fill="none" stroke="#1414ce" d="M766.79,-647.96C767.96,-621.3 770,-568.13 770,-523 770,-523 770,-523 770,-377 770,-327.3 812.22,-283.77 843.37,-258.42"/>
<polygon fill="#1414ce" stroke="#1414ce" points="845.73,-261.01 851.42,-252.07 841.4,-255.52 845.73,-261.01"/>
</a>
</g>
</g>
<!-- 23 -->
<g id="node12" class="node">
<title>23</title>
<g id="a_node12"><a xlink:title="memory.h">
<polygon fill="#ffffff" stroke="black" points="1265,-252 1179,-252 1179,-216 1265,-216 1265,-252"/>
<text text-anchor="middle" x="1222" y="-230.3" font-family="Times,serif" font-size="14.00">memory.h</text>
</a>
</g>
</g>
<!-- 23&#45;&gt;24 -->
<g id="edge26" class="edge">
<title>23&#45;&gt;24</title>
<g id="a_edge26"><a xlink:title="include">
<path fill="none" stroke="#1414ce" d="M1178.94,-220.65C1133.75,-207.68 1063.25,-187.46 1018.9,-174.73"/>
<polygon fill="#1414ce" stroke="#1414ce" points="1019.61,-171.3 1009.03,-171.9 1017.68,-178.02 1019.61,-171.3"/>
</a>
</g>
</g>
<!-- 23&#45;&gt;5 -->
<g id="edge22" class="edge">
<title>23&#45;&gt;5</title>
<g id="a_edge22"><a xlink:title="include">
<path fill="none" stroke="#1414ce" d="M1219.18,-215.82C1212.45,-181.2 1191.91,-103.62 1139,-72 1084.71,-39.55 899.59,-25.88 812.28,-21.14"/>
<polygon fill="#1414ce" stroke="#1414ce" points="812.3,-17.63 802.13,-20.6 811.93,-24.62 812.3,-17.63"/>
</a>
</g>
</g>
<!-- 23&#45;&gt;7 -->
<g id="edge23" class="edge">
<title>23&#45;&gt;7</title>
<g id="a_edge23"><a xlink:title="include">
<path fill="none" stroke="#1414ce" d="M1213.33,-215.66C1203.34,-196.73 1185.63,-166.16 1165,-144 1154.71,-132.95 1141.87,-122.58 1129.95,-113.99"/>
<polygon fill="#1414ce" stroke="#1414ce" points="1131.69,-110.93 1121.48,-108.07 1127.67,-116.67 1131.69,-110.93"/>
</a>
</g>
</g>
<!-- 10 -->
<g id="node18" class="node">
<title>10</title>
<g id="a_node18"><a xlink:title="erl_nif.h">
<polygon fill="#ffffff" stroke="black" points="1443,-180 1369,-180 1369,-144 1443,-144 1443,-180"/>
<text text-anchor="middle" x="1406" y="-158.3" font-family="Times,serif" font-size="14.00">erl_nif.h</text>
</a>
</g>
</g>
<!-- 23&#45;&gt;10 -->
<g id="edge24" class="edge">
<title>23&#45;&gt;10</title>
<g id="a_edge24"><a xlink:title="include">
<path fill="none" stroke="#1414ce" d="M1265.14,-216.59C1293.39,-205.84 1330.29,-191.8 1359.24,-180.79"/>
<polygon fill="#1414ce" stroke="#1414ce" points="1360.63,-184.01 1368.73,-177.18 1358.14,-177.46 1360.63,-184.01"/>
</a>
</g>
</g>
<!-- 11 -->
<g id="node25" class="node">
<title>11</title>
<g id="a_node25"><a xlink:title="term_typedef.h">
<polygon fill="#ffffff" stroke="black" points="1456.5,-108 1331.5,-108 1331.5,-72 1456.5,-72 1456.5,-108"/>
<text text-anchor="middle" x="1394" y="-86.3" font-family="Times,serif" font-size="14.00">term_typedef.h</text>
</a>
</g>
</g>
<!-- 23&#45;&gt;11 -->
<g id="edge25" class="edge">
<title>23&#45;&gt;11</title>
<g id="a_edge25"><a xlink:title="include">
<path fill="none" stroke="#1414ce" d="M1242.75,-215.87C1273.35,-190.6 1330.71,-143.25 1365.32,-114.68"/>
<polygon fill="#1414ce" stroke="#1414ce" points="1367.7,-117.25 1373.18,-108.19 1363.24,-111.86 1367.7,-117.25"/>
</a>
</g>
</g>
<!-- 30 -->
<g id="node13" class="node">
<title>30</title>
<g id="a_node13"><a xlink:title="module.h">
<polygon fill="#ffffff" stroke="black" points="674.5,-756 591.5,-756 591.5,-720 674.5,-720 674.5,-756"/>
<text text-anchor="middle" x="633" y="-734.3" font-family="Times,serif" font-size="14.00">module.h</text>
</a>
</g>
</g>
<!-- 30&#45;&gt;9 -->
<g id="edge27" class="edge">
<title>30&#45;&gt;9</title>
<g id="a_edge27"><a xlink:title="include">
<path fill="none" stroke="#1414ce" d="M591.41,-722.3C588.58,-721.48 585.76,-720.7 583,-720 462.54,-689.5 38,-719.26 38,-595 38,-595 38,-595 38,-521 38,-421.47 104,-406.53 104,-307 104,-307 104,-307 104,-233 104,-181.27 134.32,-170.07 179,-144 251.05,-101.96 349.49,-92.24 408.98,-90.55"/>
<polygon fill="#1414ce" stroke="#1414ce" points="409.34,-94.04 419.26,-90.32 409.18,-87.04 409.34,-94.04"/>
</a>
</g>
</g>
<!-- 30&#45;&gt;6 -->
<g id="edge29" class="edge">
<title>30&#45;&gt;6</title>
<g id="a_edge29"><a xlink:title="include">
<path fill="none" stroke="#1414ce" d="M591.18,-720.1C574.04,-711.44 555.18,-699.43 542,-684 519.69,-657.9 520.33,-645.75 514,-612 511.05,-596.27 508.31,-590.96 514,-576 521.61,-555.99 535.54,-558.68 546,-540 556.82,-520.69 563.79,-496.54 567.94,-478.27"/>
<polygon fill="#1414ce" stroke="#1414ce" points="571.41,-478.78 570.06,-468.27 564.56,-477.33 571.41,-478.78"/>
</a>
</g>
</g>
<!-- 30&#45;&gt;5 -->
<g id="edge28" class="edge">
<title>30&#45;&gt;5</title>
<g id="a_edge28"><a xlink:title="include">
<path fill="none" stroke="#1414ce" d="M591.48,-721.99C588.63,-721.24 585.79,-720.56 583,-720 471.41,-697.49 172.95,-736.61 72,-684 26.88,-660.48 0,-645.88 0,-595 0,-595 0,-595 0,-161 0,-101.5 45.28,-95.35 100,-72 211.92,-24.24 587.76,-19.17 719.72,-18.89"/>
<polygon fill="#1414ce" stroke="#1414ce" points="719.9,-22.39 729.9,-18.88 719.89,-15.39 719.9,-22.39"/>
</a>
</g>
</g>
<!-- 30&#45;&gt;3 -->
<g id="edge32" class="edge">
<title>30&#45;&gt;3</title>
<g id="a_edge32"><a xlink:title="include">
<path fill="none" stroke="#1414ce" d="M665.54,-719.88C683.25,-710.55 705.35,-698.92 724.32,-688.94"/>
<polygon fill="#1414ce" stroke="#1414ce" points="726.12,-691.94 733.34,-684.19 722.86,-685.75 726.12,-691.94"/>
</a>
</g>
</g>
<!-- 33 -->
<g id="node14" class="node">
<title>33</title>
<g id="a_node14"><a xlink:title="valueshashtable.h">
<polygon fill="#ffffff" stroke="black" points="706,-684 560,-684 560,-648 706,-648 706,-684"/>
<text text-anchor="middle" x="633" y="-662.3" font-family="Times,serif" font-size="14.00">valueshashtable.h</text>
</a>
</g>
</g>
<!-- 30&#45;&gt;33 -->
<g id="edge36" class="edge">
<title>30&#45;&gt;33</title>
<g id="a_edge36"><a xlink:title="include">
<path fill="none" stroke="#1414ce" d="M633,-719.7C633,-711.98 633,-702.71 633,-694.11"/>
<polygon fill="#1414ce" stroke="#1414ce" points="636.5,-694.1 633,-684.1 629.5,-694.1 636.5,-694.1"/>
</a>
</g>
</g>
<!-- 30&#45;&gt;20 -->
<g id="edge35" class="edge">
<title>30&#45;&gt;20</title>
<g id="a_edge35"><a xlink:title="include">
<path fill="none" stroke="#1414ce" d="M674.68,-734.93C715.43,-730.83 777.02,-718.82 817,-684 856.61,-649.5 834.59,-618.83 865,-576 893.71,-535.55 937.05,-497.83 966.38,-474.62"/>
<polygon fill="#1414ce" stroke="#1414ce" points="968.9,-477.1 974.63,-468.19 964.59,-471.58 968.9,-477.1"/>
</a>
</g>
</g>
<!-- 32 -->
<g id="node19" class="node">
<title>32</title>
<g id="a_node19"><a xlink:title="exportedfunction.h">
<polygon fill="#ffffff" stroke="black" points="1026,-612 874,-612 874,-576 1026,-576 1026,-612"/>
<text text-anchor="middle" x="950" y="-590.3" font-family="Times,serif" font-size="14.00">exportedfunction.h</text>
</a>
</g>
</g>
<!-- 30&#45;&gt;32 -->
<g id="edge33" class="edge">
<title>30&#45;&gt;32</title>
<g id="a_edge33"><a xlink:title="include">
<path fill="none" stroke="#1414ce" d="M674.78,-734.08C722.26,-729.27 800.84,-716.67 860,-684 888.74,-668.13 914.59,-640.46 931.13,-620.18"/>
<polygon fill="#1414ce" stroke="#1414ce" points="933.94,-622.28 937.42,-612.27 928.46,-617.92 933.94,-622.28"/>
</a>
</g>
</g>
<!-- 8 -->
<g id="node22" class="node">
<title>8</title>
<g id="a_node22"><a xlink:title="atom_table.h">
<polygon fill="#ffffff" stroke="black" points="289.5,-540 180.5,-540 180.5,-504 289.5,-504 289.5,-540"/>
<text text-anchor="middle" x="235" y="-518.3" font-family="Times,serif" font-size="14.00">atom_table.h</text>
</a>
</g>
</g>
<!-- 30&#45;&gt;8 -->
<g id="edge30" class="edge">
<title>30&#45;&gt;8</title>
<g id="a_edge30"><a xlink:title="include">
<path fill="none" stroke="#1414ce" d="M591.34,-722.54C588.53,-721.66 585.73,-720.8 583,-720 519.29,-701.3 498.8,-710.68 438,-684 384.84,-660.67 374.47,-648.1 329,-612 303.59,-591.83 276.94,-566.1 258.53,-547.5"/>
<polygon fill="#1414ce" stroke="#1414ce" points="260.68,-544.69 251.18,-540 255.68,-549.59 260.68,-544.69"/>
</a>
</g>
</g>
<!-- 30&#45;&gt;4 -->
<g id="edge34" class="edge">
<title>30&#45;&gt;4</title>
<g id="a_edge34"><a xlink:title="include">
<path fill="none" stroke="#1414ce" d="M591.22,-722.67C546.34,-707.26 481.22,-684.82 480,-684 454.91,-667.11 432.88,-640.22 418.69,-620.41"/>
<polygon fill="#1414ce" stroke="#1414ce" points="421.51,-618.33 412.92,-612.13 415.77,-622.34 421.51,-618.33"/>
</a>
</g>
</g>
<!-- 31 -->
<g id="node28" class="node">
<title>31</title>
<g id="a_node28"><a xlink:title="atomshashtable.h">
<polygon fill="#ffffff" stroke="black" points="665.5,-612 522.5,-612 522.5,-576 665.5,-576 665.5,-612"/>
<text text-anchor="middle" x="594" y="-590.3" font-family="Times,serif" font-size="14.00">atomshashtable.h</text>
</a>
</g>
</g>
<!-- 30&#45;&gt;31 -->
<g id="edge31" class="edge">
<title>30&#45;&gt;31</title>
<g id="a_edge31"><a xlink:title="include">
<path fill="none" stroke="#1414ce" d="M591.25,-720.46C575.71,-712.02 559.75,-700.08 551,-684 539.47,-662.83 553.55,-638.09 568.6,-620.08"/>
<polygon fill="#1414ce" stroke="#1414ce" points="571.47,-622.11 575.49,-612.31 566.23,-617.47 571.47,-622.11"/>
</a>
</g>
</g>
<!-- 27&#45;&gt;17 -->
<g id="edge41" class="edge">
<title>27&#45;&gt;17</title>
<g id="a_edge41"><a xlink:title="include">
<path fill="none" stroke="#1414ce" d="M1012.97,-299.8C889.26,-286.93 569.9,-253.71 443.07,-240.52"/>
<polygon fill="#1414ce" stroke="#1414ce" points="443.14,-237.01 432.83,-239.46 442.42,-243.97 443.14,-237.01"/>
</a>
</g>
</g>
<!-- 27&#45;&gt;16 -->
<g id="edge39" class="edge">
<title>27&#45;&gt;16</title>
<g id="a_edge39"><a xlink:title="include">
<path fill="none" stroke="#1414ce" d="M1012.66,-301.19C927.91,-294.18 760.8,-277.54 708,-252 699.66,-247.96 663,-212.56 637.74,-187.64"/>
<polygon fill="#1414ce" stroke="#1414ce" points="639.88,-184.84 630.31,-180.29 634.96,-189.82 639.88,-184.84"/>
</a>
</g>
</g>
<!-- 27&#45;&gt;7 -->
<g id="edge37" class="edge">
<title>27&#45;&gt;7</title>
<g id="a_edge37"><a xlink:title="include">
<path fill="none" stroke="#1414ce" d="M1065.48,-287.85C1070.85,-250.83 1083.54,-163.18 1090.03,-118.39"/>
<polygon fill="#1414ce" stroke="#1414ce" points="1093.53,-118.63 1091.5,-108.23 1086.61,-117.63 1093.53,-118.63"/>
</a>
</g>
</g>
<!-- 27&#45;&gt;23 -->
<g id="edge40" class="edge">
<title>27&#45;&gt;23</title>
<g id="a_edge40"><a xlink:title="include">
<path fill="none" stroke="#1414ce" d="M1101.9,-287.88C1123.63,-278.31 1150.9,-266.3 1173.96,-256.15"/>
<polygon fill="#1414ce" stroke="#1414ce" points="1175.49,-259.3 1183.23,-252.07 1172.67,-252.89 1175.49,-259.3"/>
</a>
</g>
</g>
<!-- 27&#45;&gt;10 -->
<g id="edge38" class="edge">
<title>27&#45;&gt;10</title>
<g id="a_edge38"><a xlink:title="include">
<path fill="none" stroke="#1414ce" d="M1113.22,-297.45C1157.02,-289.69 1221.57,-275.39 1274,-252 1312.32,-234.9 1351.62,-206.78 1377.26,-186.72"/>
<polygon fill="#1414ce" stroke="#1414ce" points="1379.75,-189.21 1385.41,-180.26 1375.4,-183.73 1379.75,-189.21"/>
</a>
</g>
</g>
<!-- 20&#45;&gt;9 -->
<g id="edge43" class="edge">
<title>20&#45;&gt;9</title>
<g id="a_edge43"><a xlink:title="include">
<path fill="none" stroke="#1414ce" d="M999.72,-431.67C1001.03,-413.54 1001.75,-384.37 996,-360 979.74,-291.12 979.68,-264.36 928,-216 790.91,-87.71 700.78,-150.7 512.49,-107.83"/>
<polygon fill="#1414ce" stroke="#1414ce" points="513.12,-104.38 502.58,-105.5 511.51,-111.19 513.12,-104.38"/>
</a>
</g>
</g>
<!-- 20&#45;&gt;26 -->
<g id="edge49" class="edge">
<title>20&#45;&gt;26</title>
<g id="a_edge49"><a xlink:title="include">
<path fill="none" stroke="#1414ce" d="M1022.22,-431.88C1034.92,-422.89 1050.66,-411.76 1064.42,-402.03"/>
<polygon fill="#1414ce" stroke="#1414ce" points="1066.54,-404.82 1072.69,-396.19 1062.5,-399.11 1066.54,-404.82"/>
</a>
</g>
</g>
<!-- 20&#45;&gt;24 -->
<g id="edge50" class="edge">
<title>20&#45;&gt;24</title>
<g id="a_edge50"><a xlink:title="include">
<path fill="none" stroke="#1414ce" d="M1030.57,-448.86C1068.72,-446.74 1130.47,-436.73 1160,-396 1169.39,-383.05 1163.85,-375.53 1160,-360 1140.34,-280.65 1062.04,-217.48 1014.78,-185.62"/>
<polygon fill="#1414ce" stroke="#1414ce" points="1016.61,-182.63 1006.34,-180.04 1012.75,-188.47 1016.61,-182.63"/>
</a>
</g>
</g>
<!-- 20&#45;&gt;5 -->
<g id="edge44" class="edge">
<title>20&#45;&gt;5</title>
<g id="a_edge44"><a xlink:title="include">
<path fill="none" stroke="#1414ce" d="M1030.67,-446.72C1092.25,-441.73 1222.03,-427.64 1252,-396 1307.43,-337.49 1298.62,-292.74 1274,-216 1249.96,-141.07 1238.49,-112.46 1171,-72 1111.41,-36.28 905.77,-24.19 812.56,-20.48"/>
<polygon fill="#1414ce" stroke="#1414ce" points="812.43,-16.98 802.3,-20.09 812.16,-23.97 812.43,-16.98"/>
</a>
</g>
</g>
<!-- 20&#45;&gt;7 -->
<g id="edge46" class="edge">
<title>20&#45;&gt;7</title>
<g id="a_edge46"><a xlink:title="include">
<path fill="none" stroke="#1414ce" d="M1030.78,-443.98C1077.25,-436.11 1158.61,-419.33 1176,-396 1192.47,-373.91 1195.51,-306.14 1128,-144 1124.07,-134.56 1118.47,-124.95 1112.95,-116.54"/>
<polygon fill="#1414ce" stroke="#1414ce" points="1115.84,-114.56 1107.3,-108.28 1110.06,-118.51 1115.84,-114.56"/>
</a>
</g>
</g>
<!-- 20&#45;&gt;23 -->
<g id="edge48" class="edge">
<title>20&#45;&gt;23</title>
<g id="a_edge48"><a xlink:title="include">
<path fill="none" stroke="#1414ce" d="M1030.66,-446.47C1088.75,-441.23 1206.29,-426.97 1231,-396 1261.52,-357.76 1246.18,-296.71 1233.37,-261.8"/>
<polygon fill="#1414ce" stroke="#1414ce" points="1236.56,-260.35 1229.69,-252.28 1230.03,-262.87 1236.56,-260.35"/>
</a>
</g>
</g>
<!-- 21 -->
<g id="node23" class="node">
<title>21</title>
<g id="a_node23"><a xlink:title="sys/types.h">
<polygon fill="#ffffff" stroke="black" points="895.5,-396 798.5,-396 798.5,-360 895.5,-360 895.5,-396"/>
<text text-anchor="middle" x="847" y="-374.3" font-family="Times,serif" font-size="14.00">sys/types.h</text>
</a>
</g>
</g>
<!-- 20&#45;&gt;21 -->
<g id="edge42" class="edge">
<title>20&#45;&gt;21</title>
<g id="a_edge42"><a xlink:title="include">
<path fill="none" stroke="#1414ce" d="M965.24,-433.81C944.12,-424.02 916.35,-411.15 893.03,-400.34"/>
<polygon fill="#1414ce" stroke="#1414ce" points="894.22,-397.03 883.67,-396 891.28,-403.38 894.22,-397.03"/>
</a>
</g>
</g>
<!-- 22 -->
<g id="node24" class="node">
<title>22</title>
<g id="a_node24"><a xlink:title="string.h">
<polygon fill="#ffffff" stroke="black" points="986.5,-396 913.5,-396 913.5,-360 986.5,-360 986.5,-396"/>
<text text-anchor="middle" x="950" y="-374.3" font-family="Times,serif" font-size="14.00">string.h</text>
</a>
</g>
</g>
<!-- 20&#45;&gt;22 -->
<g id="edge47" class="edge">
<title>20&#45;&gt;22</title>
<g id="a_edge47"><a xlink:title="include">
<path fill="none" stroke="#1414ce" d="M986.13,-431.7C980.5,-423.47 973.65,-413.48 967.43,-404.42"/>
<polygon fill="#1414ce" stroke="#1414ce" points="970.27,-402.37 961.73,-396.1 964.5,-406.33 970.27,-402.37"/>
</a>
</g>
</g>
<!-- 20&#45;&gt;11 -->
<g id="edge51" class="edge">
<title>20&#45;&gt;11</title>
<g id="a_edge51"><a xlink:title="include">
<path fill="none" stroke="#1414ce" d="M1030.64,-446.65C1100.45,-441.1 1261.6,-425.4 1307,-396 1404.05,-333.15 1418.32,-290.61 1452,-180 1456.66,-164.69 1458.45,-158.64 1452,-144 1447.01,-132.69 1438.29,-122.74 1429.1,-114.62"/>
<polygon fill="#1414ce" stroke="#1414ce" points="1431.28,-111.88 1421.34,-108.23 1426.83,-117.28 1431.28,-111.88"/>
</a>
</g>
</g>
<!-- 20&#45;&gt;18 -->
<g id="edge45" class="edge">
<title>20&#45;&gt;18</title>
<g id="a_edge45"><a xlink:title="include">
<path fill="none" stroke="#1414ce" d="M965.23,-445.61C922.69,-440.13 847.13,-426.67 790,-396 671.21,-332.23 636.06,-301.2 577,-180 567.39,-160.28 561.19,-136.15 557.5,-118"/>
<polygon fill="#1414ce" stroke="#1414ce" points="560.92,-117.25 555.62,-108.08 554.05,-118.56 560.92,-117.25"/>
</a>
</g>
</g>
<!-- 10&#45;&gt;11 -->
<g id="edge52" class="edge">
<title>10&#45;&gt;11</title>
<g id="a_edge52"><a xlink:title="include">
<path fill="none" stroke="#1414ce" d="M1403.03,-143.7C1401.71,-135.98 1400.12,-126.71 1398.65,-118.11"/>
<polygon fill="#1414ce" stroke="#1414ce" points="1402.07,-117.37 1396.93,-108.1 1395.17,-118.55 1402.07,-117.37"/>
</a>
</g>
</g>
<!-- 32&#45;&gt;20 -->
<g id="edge53" class="edge">
<title>32&#45;&gt;20</title>
<g id="a_edge53"><a xlink:title="include">
<path fill="none" stroke="#1414ce" d="M955.79,-575.87C964.01,-551.56 979.13,-506.82 988.87,-478.01"/>
<polygon fill="#1414ce" stroke="#1414ce" points="992.3,-478.78 992.19,-468.19 985.67,-476.54 992.3,-478.78"/>
</a>
</g>
</g>
<!-- 13 -->
<g id="node21" class="node">
<title>13</title>
<g id="a_node21"><a xlink:title="limits.h">
<polygon fill="#ffffff" stroke="black" points="1331.5,-36 1260.5,-36 1260.5,0 1331.5,0 1331.5,-36"/>
<text text-anchor="middle" x="1296" y="-14.3" font-family="Times,serif" font-size="14.00">limits.h</text>
</a>
</g>
</g>
<!-- 8&#45;&gt;9 -->
<g id="edge54" class="edge">
<title>8&#45;&gt;9</title>
<g id="a_edge54"><a xlink:title="include">
<path fill="none" stroke="#1414ce" d="M243.3,-503.97C255.28,-477.77 276,-425.7 276,-379 276,-379 276,-379 276,-233 276,-165.2 355.15,-125.34 409.91,-105.88"/>
<polygon fill="#1414ce" stroke="#1414ce" points="411.16,-109.15 419.48,-102.59 408.89,-102.53 411.16,-109.15"/>
</a>
</g>
</g>
<!-- 8&#45;&gt;6 -->
<g id="edge55" class="edge">
<title>8&#45;&gt;6</title>
<g id="a_edge55"><a xlink:title="include">
<path fill="none" stroke="#1414ce" d="M289.68,-509.68C356.62,-495.81 468.61,-472.62 529.82,-459.94"/>
<polygon fill="#1414ce" stroke="#1414ce" points="530.83,-463.31 539.91,-457.85 529.41,-456.45 530.83,-463.31"/>
</a>
</g>
</g>
<!-- 11&#45;&gt;12 -->
<g id="edge56" class="edge">
<title>11&#45;&gt;12</title>
<g id="a_edge56"><a xlink:title="include">
<path fill="none" stroke="#1414ce" d="M1418.46,-71.88C1431.3,-62.89 1447.2,-51.76 1461.09,-42.03"/>
<polygon fill="#1414ce" stroke="#1414ce" points="1463.26,-44.79 1469.44,-36.19 1459.24,-39.06 1463.26,-44.79"/>
</a>
</g>
</g>
<!-- 11&#45;&gt;5 -->
<g id="edge59" class="edge">
<title>11&#45;&gt;5</title>
<g id="a_edge59"><a xlink:title="include">
<path fill="none" stroke="#1414ce" d="M1331.09,-74.46C1326.33,-73.56 1321.6,-72.73 1317,-72 1131.26,-42.67 907.57,-27.22 812.44,-21.56"/>
<polygon fill="#1414ce" stroke="#1414ce" points="812.48,-18.05 802.29,-20.96 812.07,-25.04 812.48,-18.05"/>
</a>
</g>
</g>
<!-- 11&#45;&gt;13 -->
<g id="edge57" class="edge">
<title>11&#45;&gt;13</title>
<g id="a_edge57"><a xlink:title="include">
<path fill="none" stroke="#1414ce" d="M1370.03,-71.88C1357.45,-62.89 1341.87,-51.76 1328.25,-42.03"/>
<polygon fill="#1414ce" stroke="#1414ce" points="1330.24,-39.15 1320.07,-36.19 1326.17,-44.85 1330.24,-39.15"/>
</a>
</g>
</g>
<!-- 14 -->
<g id="node35" class="node">
<title>14</title>
<g id="a_node35"><a xlink:title="inttypes.h">
<polygon fill="#ffffff" stroke="black" points="1438.5,-36 1349.5,-36 1349.5,0 1438.5,0 1438.5,-36"/>
<text text-anchor="middle" x="1394" y="-14.3" font-family="Times,serif" font-size="14.00">inttypes.h</text>
</a>
</g>
</g>
<!-- 11&#45;&gt;14 -->
<g id="edge58" class="edge">
<title>11&#45;&gt;14</title>
<g id="a_edge58"><a xlink:title="include">
<path fill="none" stroke="#1414ce" d="M1394,-71.7C1394,-63.98 1394,-54.71 1394,-46.11"/>
<polygon fill="#1414ce" stroke="#1414ce" points="1397.5,-46.1 1394,-36.1 1390.5,-46.1 1397.5,-46.1"/>
</a>
</g>
</g>
<!-- 4&#45;&gt;6 -->
<g id="edge61" class="edge">
<title>4&#45;&gt;6</title>
<g id="a_edge61"><a xlink:title="include">
<path fill="none" stroke="#1414ce" d="M456.09,-575.97C477.05,-567.5 500.23,-555.67 518,-540 537.58,-522.73 552.51,-496.8 561.84,-477.38"/>
<polygon fill="#1414ce" stroke="#1414ce" points="565.08,-478.71 566.08,-468.16 558.72,-475.78 565.08,-478.71"/>
</a>
</g>
</g>
<!-- 4&#45;&gt;17 -->
<g id="edge68" class="edge">
<title>4&#45;&gt;17</title>
<g id="a_edge68"><a xlink:title="include">
<path fill="none" stroke="#1414ce" d="M374.1,-575.8C362.01,-566.75 349.03,-554.51 342,-540 328.02,-511.16 338.89,-500.04 338,-468 335.78,-388.03 307.74,-362.06 338,-288 342.49,-277.02 350.47,-267.08 358.85,-258.86"/>
<polygon fill="#1414ce" stroke="#1414ce" points="361.24,-261.42 366.25,-252.09 356.51,-256.26 361.24,-261.42"/>
</a>
</g>
</g>
<!-- 4&#45;&gt;16 -->
<g id="edge65" class="edge">
<title>4&#45;&gt;16</title>
<g id="a_edge65"><a xlink:title="include">
<path fill="none" stroke="#1414ce" d="M390.53,-575.67C384.63,-565.69 378.04,-552.65 375,-540 371.27,-524.44 372.91,-519.86 375,-504 388,-405.45 375.81,-369.3 433,-288 469.76,-235.75 535.74,-198.26 576.79,-178.65"/>
<polygon fill="#1414ce" stroke="#1414ce" points="578.33,-181.8 585.91,-174.4 575.36,-175.46 578.33,-181.8"/>
</a>
</g>
</g>
<!-- 4&#45;&gt;5 -->
<g id="edge60" class="edge">
<title>4&#45;&gt;5</title>
<g id="a_edge60"><a xlink:title="include">
<path fill="none" stroke="#1414ce" d="M338.29,-582.07C271.86,-570.18 175.52,-551.36 162,-540 76.24,-467.96 66,-419 66,-307 66,-307 66,-307 66,-161 66,-27.21 563.38,-18.07 719.62,-18.51"/>
<polygon fill="#1414ce" stroke="#1414ce" points="719.82,-22.01 729.84,-18.55 719.85,-15.01 719.82,-22.01"/>
</a>
</g>
</g>
<!-- 4&#45;&gt;20 -->
<g id="edge69" class="edge">
<title>4&#45;&gt;20</title>
<g id="a_edge69"><a xlink:title="include">
<path fill="none" stroke="#1414ce" d="M465.5,-577.87C587.71,-548.75 852.62,-485.64 955.73,-461.07"/>
<polygon fill="#1414ce" stroke="#1414ce" points="956.57,-464.47 965.48,-458.75 954.94,-457.66 956.57,-464.47"/>
</a>
</g>
</g>
<!-- 4&#45;&gt;10 -->
<g id="edge63" class="edge">
<title>4&#45;&gt;10</title>
<g id="a_edge63"><a xlink:title="include">
<path fill="none" stroke="#1414ce" d="M465.6,-583.08C528.57,-573.04 627.66,-556.66 713,-540 995.75,-484.81 1138.84,-597.23 1345,-396 1401.89,-340.47 1407.92,-238.91 1407.26,-190.32"/>
<polygon fill="#1414ce" stroke="#1414ce" points="1410.76,-190.15 1407.02,-180.24 1403.76,-190.33 1410.76,-190.15"/>
</a>
</g>
</g>
<!-- 4&#45;&gt;8 -->
<g id="edge62" class="edge">
<title>4&#45;&gt;8</title>
<g id="a_edge62"><a xlink:title="include">
<path fill="none" stroke="#1414ce" d="M361.15,-575.88C338.22,-566.26 309.42,-554.19 285.13,-544.01"/>
<polygon fill="#1414ce" stroke="#1414ce" points="286.3,-540.71 275.72,-540.07 283.59,-547.16 286.3,-540.71"/>
</a>
</g>
</g>
<!-- 4&#45;&gt;19 -->
<g id="edge67" class="edge">
<title>4&#45;&gt;19</title>
<g id="a_edge67"><a xlink:title="include">
<path fill="none" stroke="#1414ce" d="M338.42,-587.19C277.42,-580.15 191.6,-565.87 171,-540 149.22,-512.66 195.74,-272.1 212.38,-190.18"/>
<polygon fill="#1414ce" stroke="#1414ce" points="215.86,-190.64 214.43,-180.14 209,-189.24 215.86,-190.64"/>
</a>
</g>
</g>
<!-- 4&#45;&gt;29 -->
<g id="edge70" class="edge">
<title>4&#45;&gt;29</title>
<g id="a_edge70"><a xlink:title="include">
<path fill="none" stroke="#1414ce" d="M420.29,-575.97C429.63,-566.29 440.39,-553.43 447,-540 464.85,-503.71 466,-491.45 466,-451 466,-451 466,-451 466,-377 466,-271.55 619.31,-244.3 706.74,-237.33"/>
<polygon fill="#1414ce" stroke="#1414ce" points="707.08,-240.81 716.8,-236.59 706.57,-233.83 707.08,-240.81"/>
</a>
</g>
</g>
<!-- 4&#45;&gt;28 -->
<g id="edge66" class="edge">
<title>4&#45;&gt;28</title>
<g id="a_edge66"><a xlink:title="include">
<path fill="none" stroke="#1414ce" d="M428.14,-575.9C441.42,-566.39 457.19,-553.71 469,-540 505.13,-498.08 492.82,-472.07 531,-432 612.91,-346.05 651.39,-344.15 756,-288 777.68,-276.37 802.42,-265.11 823.79,-255.99"/>
<polygon fill="#1414ce" stroke="#1414ce" points="825.18,-259.2 833.04,-252.09 822.46,-252.76 825.18,-259.2"/>
</a>
</g>
</g>
<!-- 15 -->
<g id="node34" class="node">
<title>15</title>
<g id="a_node34"><a xlink:title="ets.h">
<polygon fill="#ffffff" stroke="black" points="438,-540 384,-540 384,-504 438,-504 438,-540"/>
<text text-anchor="middle" x="411" y="-518.3" font-family="Times,serif" font-size="14.00">ets.h</text>
</a>
</g>
</g>
<!-- 4&#45;&gt;15 -->
<g id="edge64" class="edge">
<title>4&#45;&gt;15</title>
<g id="a_edge64"><a xlink:title="include">
<path fill="none" stroke="#1414ce" d="M404.22,-575.7C405.22,-567.98 406.41,-558.71 407.51,-550.11"/>
<polygon fill="#1414ce" stroke="#1414ce" points="411,-550.47 408.8,-540.1 404.05,-549.58 411,-550.47"/>
</a>
</g>
</g>
<!-- 19&#45;&gt;9 -->
<g id="edge71" class="edge">
<title>19&#45;&gt;9</title>
<g id="a_edge71"><a xlink:title="include">
<path fill="none" stroke="#1414ce" d="M248.14,-148.86C252.75,-147.15 257.48,-145.47 262,-144 311.52,-127.89 369.11,-112.96 409.56,-103.07"/>
<polygon fill="#1414ce" stroke="#1414ce" points="410.56,-106.43 419.46,-100.67 408.91,-99.63 410.56,-106.43"/>
</a>
</g>
</g>
<!-- 31&#45;&gt;6 -->
<g id="edge72" class="edge">
<title>31&#45;&gt;6</title>
<g id="a_edge72"><a xlink:title="include">
<path fill="none" stroke="#1414ce" d="M595.9,-575.76C597.45,-557.7 598.69,-528.59 594,-504 592.29,-495.06 589.1,-485.7 585.71,-477.37"/>
<polygon fill="#1414ce" stroke="#1414ce" points="588.91,-475.95 581.72,-468.17 582.49,-478.73 588.91,-475.95"/>
</a>
</g>
</g>
<!-- 1 -->
<g id="node29" class="node">
<title>1</title>
<g id="a_node29"><a xlink:title="/__w/AtomVM/AtomVM/src/libAtomVM/stacktrace.c">
<polygon fill="#bfbfbf" stroke="black" points="825,-900 445,-900 445,-864 825,-864 825,-900"/>
<text text-anchor="middle" x="635" y="-878.3" font-family="Times,serif" font-size="14.00">/__w/AtomVM/AtomVM/src/libAtomVM/stacktrace.c</text>
</a>
</g>
</g>
<!-- 1&#45;&gt;34 -->
<g id="edge74" class="edge">
<title>1&#45;&gt;34</title>
<g id="a_edge74"><a xlink:title="include">
<path fill="none" stroke="#1414ce" d="M603.2,-863.88C585.89,-854.55 564.28,-842.92 545.74,-832.94"/>
<polygon fill="#1414ce" stroke="#1414ce" points="547.39,-829.85 536.92,-828.19 544.07,-836.01 547.39,-829.85"/>
</a>
</g>
</g>
<!-- 1&#45;&gt;23 -->
<g id="edge76" class="edge">
<title>1&#45;&gt;23</title>
<g id="a_edge76"><a xlink:title="include">
<path fill="none" stroke="#1414ce" d="M825.19,-878.92C1031.26,-871.37 1331,-842.59 1331,-739 1331,-739 1331,-739 1331,-449 1331,-373.61 1276.62,-297.95 1244.68,-260.02"/>
<polygon fill="#1414ce" stroke="#1414ce" points="1247.02,-257.38 1237.85,-252.08 1241.71,-261.94 1247.02,-257.38"/>
</a>
</g>
</g>
<!-- 1&#45;&gt;4 -->
<g id="edge75" class="edge">
<title>1&#45;&gt;4</title>
<g id="a_edge75"><a xlink:title="include">
<path fill="none" stroke="#1414ce" d="M498.04,-863.95C474.61,-855.99 452.04,-844.51 434,-828 376.33,-775.23 387.02,-671.07 396.08,-621.9"/>
<polygon fill="#1414ce" stroke="#1414ce" points="399.53,-622.5 398.02,-612.01 392.66,-621.15 399.53,-622.5"/>
</a>
</g>
</g>
<!-- 2 -->
<g id="node30" class="node">
<title>2</title>
<g id="a_node30"><a xlink:title="stacktrace.h">
<polygon fill="#ffffff" stroke="black" points="738,-828 634,-828 634,-792 738,-792 738,-828"/>
<text text-anchor="middle" x="686" y="-806.3" font-family="Times,serif" font-size="14.00">stacktrace.h</text>
</a>
</g>
</g>
<!-- 1&#45;&gt;2 -->
<g id="edge73" class="edge">
<title>1&#45;&gt;2</title>
<g id="a_edge73"><a xlink:title="include">
<path fill="none" stroke="#1414ce" d="M647.61,-863.7C653.6,-855.47 660.88,-845.48 667.48,-836.42"/>
<polygon fill="#1414ce" stroke="#1414ce" points="670.48,-838.25 673.54,-828.1 664.82,-834.13 670.48,-838.25"/>
</a>
</g>
</g>
<!-- 2&#45;&gt;3 -->
<g id="edge77" class="edge">
<title>2&#45;&gt;3</title>
<g id="a_edge77"><a xlink:title="include">
<path fill="none" stroke="#1414ce" d="M695.65,-791.87C709.46,-767.35 735,-722.03 751.21,-693.26"/>
<polygon fill="#1414ce" stroke="#1414ce" points="754.46,-694.62 756.32,-684.19 748.36,-691.18 754.46,-694.62"/>
</a>
</g>
</g>
<!-- 2&#45;&gt;30 -->
<g id="edge78" class="edge">
<title>2&#45;&gt;30</title>
<g id="a_edge78"><a xlink:title="include">
<path fill="none" stroke="#1414ce" d="M672.9,-791.7C666.61,-783.39 658.95,-773.28 652.04,-764.14"/>
<polygon fill="#1414ce" stroke="#1414ce" points="654.78,-761.96 645.95,-756.1 649.2,-766.19 654.78,-761.96"/>
</a>
</g>
</g>
<!-- 2&#45;&gt;20 -->
<g id="edge79" class="edge">
<title>2&#45;&gt;20</title>
<g id="a_edge79"><a xlink:title="include">
<path fill="none" stroke="#1414ce" d="M738.33,-800.1C839.93,-781.33 1054,-733.85 1054,-667 1054,-667 1054,-667 1054,-593 1054,-549.91 1031.4,-504.26 1014.92,-476.7"/>
<polygon fill="#1414ce" stroke="#1414ce" points="1017.83,-474.75 1009.6,-468.07 1011.87,-478.42 1017.83,-474.75"/>
</a>
</g>
</g>
<!-- 29&#45;&gt;9 -->
<g id="edge80" class="edge">
<title>29&#45;&gt;9</title>
<g id="a_edge80"><a xlink:title="include">
<path fill="none" stroke="#1414ce" d="M748.08,-215.7C726.34,-195.63 687.77,-162.9 649,-144 595.17,-117.76 574.39,-125.12 512.54,-107.98"/>
<polygon fill="#1414ce" stroke="#1414ce" points="513.26,-104.54 502.68,-105.14 511.32,-111.27 513.26,-104.54"/>
</a>
</g>
</g>
<!-- 29&#45;&gt;16 -->
<g id="edge82" class="edge">
<title>29&#45;&gt;16</title>
<g id="a_edge82"><a xlink:title="include">
<path fill="none" stroke="#1414ce" d="M728.57,-215.88C704.52,-204.87 673.42,-190.64 649.54,-179.72"/>
<polygon fill="#1414ce" stroke="#1414ce" points="650.99,-176.53 640.44,-175.56 648.08,-182.9 650.99,-176.53"/>
</a>
</g>
</g>
<!-- 29&#45;&gt;5 -->
<g id="edge81" class="edge">
<title>29&#45;&gt;5</title>
<g id="a_edge81"><a xlink:title="include">
<path fill="none" stroke="#1414ce" d="M766,-215.85C766,-178.83 766,-91.18 766,-46.39"/>
<polygon fill="#1414ce" stroke="#1414ce" points="769.5,-46.23 766,-36.23 762.5,-46.23 769.5,-46.23"/>
</a>
</g>
</g>
<!-- 28&#45;&gt;9 -->
<g id="edge83" class="edge">
<title>28&#45;&gt;9</title>
<g id="a_edge83"><a xlink:title="include">
<path fill="none" stroke="#1414ce" d="M846.35,-215.98C810.43,-196.03 747.54,-163.26 690,-144 616.45,-119.39 591.9,-128.04 512.58,-107.93"/>
<polygon fill="#1414ce" stroke="#1414ce" points="513.18,-104.48 502.62,-105.34 511.41,-111.25 513.18,-104.48"/>
</a>
</g>
</g>
<!-- 28&#45;&gt;24 -->
<g id="edge86" class="edge">
<title>28&#45;&gt;24</title>
<g id="a_edge86"><a xlink:title="include">
<path fill="none" stroke="#1414ce" d="M900.95,-215.88C914.04,-206.89 930.26,-195.76 944.44,-186.03"/>
<polygon fill="#1414ce" stroke="#1414ce" points="946.69,-188.73 952.95,-180.19 942.73,-182.96 946.69,-188.73"/>
</a>
</g>
</g>
<!-- 28&#45;&gt;16 -->
<g id="edge84" class="edge">
<title>28&#45;&gt;16</title>
<g id="a_edge84"><a xlink:title="include">
<path fill="none" stroke="#1414ce" d="M832.94,-218.67C829.92,-217.74 826.92,-216.84 824,-216 763.49,-198.53 692.28,-181.33 649.99,-171.46"/>
<polygon fill="#1414ce" stroke="#1414ce" points="650.67,-168.03 640.14,-169.18 649.09,-174.85 650.67,-168.03"/>
</a>
</g>
</g>
<!-- 28&#45;&gt;11 -->
<g id="edge85" class="edge">
<title>28&#45;&gt;11</title>
<g id="a_edge85"><a xlink:title="include">
<path fill="none" stroke="#1414ce" d="M919.27,-221.14C1008.29,-196.74 1212.69,-140.7 1321.98,-110.74"/>
<polygon fill="#1414ce" stroke="#1414ce" points="1323.22,-114.03 1331.93,-108.01 1321.36,-107.28 1323.22,-114.03"/>
</a>
</g>
</g>
<!-- 15&#45;&gt;17 -->
<g id="edge88" class="edge">
<title>15&#45;&gt;17</title>
<g id="a_edge88"><a xlink:title="include">
<path fill="none" stroke="#1414ce" d="M409.75,-503.97C406.25,-456.29 396.33,-321.18 392.03,-262.63"/>
<polygon fill="#1414ce" stroke="#1414ce" points="395.49,-262.02 391.27,-252.31 388.51,-262.54 395.49,-262.02"/>
</a>
</g>
</g>
<!-- 15&#45;&gt;16 -->
<g id="edge87" class="edge">
<title>15&#45;&gt;16</title>
<g id="a_edge87"><a xlink:title="include">
<path fill="none" stroke="#1414ce" d="M411.83,-503.99C414.5,-456.02 424.35,-320.96 452,-288 482.09,-252.13 513.89,-280.54 551,-252 572.68,-235.33 589.72,-208.93 600.4,-189.2"/>
<polygon fill="#1414ce" stroke="#1414ce" points="603.61,-190.61 605.13,-180.13 597.4,-187.38 603.61,-190.61"/>
</a>
</g>
</g>
<!-- 15&#45;&gt;20 -->
<g id="edge89" class="edge">
<title>15&#45;&gt;20</title>
<g id="a_edge89"><a xlink:title="include">
<path fill="none" stroke="#1414ce" d="M438.13,-517.76C531.61,-506.62 840.75,-469.75 955.04,-456.12"/>
<polygon fill="#1414ce" stroke="#1414ce" points="955.65,-459.58 965.16,-454.92 954.82,-452.62 955.65,-459.58"/>
</a>
</g>
</g>
</g>
</svg>
