<?xml version="1.0" encoding="UTF-8" standalone="no"?>
<!DOCTYPE svg PUBLIC "-//W3C//DTD SVG 1.1//EN"
 "http://www.w3.org/Graphics/SVG/1.1/DTD/svg11.dtd">
<!-- Generated by graphviz version 2.43.0 (0)
 -->
<!-- Title: %3 Pages: 1 -->
<svg width="826pt" height="548pt"
 viewBox="0.00 0.00 825.50 548.00" xmlns="http://www.w3.org/2000/svg" xmlns:xlink="http://www.w3.org/1999/xlink">
<g id="graph0" class="graph" transform="scale(1 1) rotate(0) translate(4 544)">
<title>%3</title>
<polygon fill="transparent" stroke="transparent" points="-4,4 -4,-544 821.5,-544 821.5,4 -4,4"/>
<!-- 3 -->
<g id="node1" class="node">
<title>3</title>
<g id="a_node1"><a xlink:title="stdbool.h">
<polygon fill="#ffffff" stroke="black" points="694.5,-108 611.5,-108 611.5,-72 694.5,-72 694.5,-108"/>
<text text-anchor="middle" x="653" y="-86.3" font-family="Times,serif" font-size="14.00">stdbool.h</text>
</a>
</g>
</g>
<!-- 18 -->
<g id="node2" class="node">
<title>18</title>
<g id="a_node2"><a xlink:title="refc_binary.h">
<polygon fill="#ffffff" stroke="black" points="402,-396 294,-396 294,-360 402,-360 402,-396"/>
<text text-anchor="middle" x="348" y="-374.3" font-family="Times,serif" font-size="14.00">refc_binary.h</text>
</a>
</g>
</g>
<!-- 18&#45;&gt;3 -->
<g id="edge1" class="edge">
<title>18&#45;&gt;3</title>
<g id="a_edge1"><a xlink:title="include">
<path fill="none" stroke="#1414ce" d="M402.07,-362.32C457.45,-347.24 535.9,-325.73 539,-324 612.54,-283.05 638.8,-260.91 662,-180 667.83,-159.66 664.91,-135.76 660.89,-117.85"/>
<polygon fill="#1414ce" stroke="#1414ce" points="664.27,-116.93 658.46,-108.07 657.48,-118.62 664.27,-116.93"/>
</a>
</g>
</g>
<!-- 2 -->
<g id="node7" class="node">
<title>2</title>
<g id="a_node7"><a xlink:title="list.h">
<polygon fill="#ffffff" stroke="black" points="653,-180 599,-180 599,-144 653,-144 653,-180"/>
<text text-anchor="middle" x="626" y="-158.3" font-family="Times,serif" font-size="14.00">list.h</text>
</a>
</g>
</g>
<!-- 18&#45;&gt;2 -->
<g id="edge3" class="edge">
<title>18&#45;&gt;2</title>
<g id="a_edge3"><a xlink:title="include">
<path fill="none" stroke="#1414ce" d="M402.12,-362.44C457.52,-344.9 542.58,-310.29 594,-252 609.31,-234.65 617.46,-209.44 621.69,-190.27"/>
<polygon fill="#1414ce" stroke="#1414ce" points="625.15,-190.83 623.66,-180.34 618.29,-189.46 625.15,-190.83"/>
</a>
</g>
</g>
<!-- 8 -->
<g id="node9" class="node">
<title>8</title>
<g id="a_node9"><a xlink:title="stdlib.h">
<polygon fill="#ffffff" stroke="black" points="372.5,-108 301.5,-108 301.5,-72 372.5,-72 372.5,-108"/>
<text text-anchor="middle" x="337" y="-86.3" font-family="Times,serif" font-size="14.00">stdlib.h</text>
</a>
</g>
</g>
<!-- 18&#45;&gt;8 -->
<g id="edge2" class="edge">
<title>18&#45;&gt;8</title>
<g id="a_edge2"><a xlink:title="include">
<path fill="none" stroke="#1414ce" d="M371.3,-359.82C381.9,-350.54 393.32,-338.09 399,-324 404.98,-309.16 401.43,-303.81 399,-288 389.37,-225.32 363.45,-155.21 348.35,-117.86"/>
<polygon fill="#1414ce" stroke="#1414ce" points="351.43,-116.15 344.4,-108.23 344.95,-118.81 351.43,-116.15"/>
</a>
</g>
</g>
<!-- 19 -->
<g id="node11" class="node">
<title>19</title>
<g id="a_node11"><a xlink:title="resources.h">
<polygon fill="#ffffff" stroke="black" points="390,-324 290,-324 290,-288 390,-288 390,-324"/>
<text text-anchor="middle" x="340" y="-302.3" font-family="Times,serif" font-size="14.00">resources.h</text>
</a>
</g>
</g>
<!-- 18&#45;&gt;19 -->
<g id="edge4" class="edge">
<title>18&#45;&gt;19</title>
<g id="a_edge4"><a xlink:title="include">
<path fill="none" stroke="#1414ce" d="M346.02,-359.7C345.14,-351.98 344.08,-342.71 343.1,-334.11"/>
<polygon fill="#1414ce" stroke="#1414ce" points="346.57,-333.64 341.95,-324.1 339.61,-334.44 346.57,-333.64"/>
</a>
</g>
</g>
<!-- 13 -->
<g id="node3" class="node">
<title>13</title>
<g id="a_node3"><a xlink:title="assert.h">
<polygon fill="#ffffff" stroke="black" points="361,-36 287,-36 287,0 361,0 361,-36"/>
<text text-anchor="middle" x="324" y="-14.3" font-family="Times,serif" font-size="14.00">assert.h</text>
</a>
</g>
</g>
<!-- 1 -->
<g id="node4" class="node">
<title>1</title>
<g id="a_node4"><a xlink:title="/__w/AtomVM/AtomVM/src/libAtomVM/dictionary.h">
<polygon fill="#bfbfbf" stroke="black" points="817.5,-540 440.5,-540 440.5,-504 817.5,-504 817.5,-540"/>
<text text-anchor="middle" x="629" y="-518.3" font-family="Times,serif" font-size="14.00">/__w/AtomVM/AtomVM/src/libAtomVM/dictionary.h</text>
</a>
</g>
</g>
<!-- 1&#45;&gt;2 -->
<g id="edge5" class="edge">
<title>1&#45;&gt;2</title>
<g id="a_edge5"><a xlink:title="include">
<path fill="none" stroke="#1414ce" d="M652.92,-503.82C688.08,-476.24 748.03,-419.18 733,-360 716.04,-293.23 671.38,-224.62 645.43,-188.63"/>
<polygon fill="#1414ce" stroke="#1414ce" points="648,-186.2 639.27,-180.2 642.35,-190.34 648,-186.2"/>
</a>
</g>
</g>
<!-- 4 -->
<g id="node12" class="node">
<title>4</title>
<g id="a_node12"><a xlink:title="term.h">
<polygon fill="#ffffff" stroke="black" points="501.5,-468 436.5,-468 436.5,-432 501.5,-432 501.5,-468"/>
<text text-anchor="middle" x="469" y="-446.3" font-family="Times,serif" font-size="14.00">term.h</text>
</a>
</g>
</g>
<!-- 1&#45;&gt;4 -->
<g id="edge6" class="edge">
<title>1&#45;&gt;4</title>
<g id="a_edge6"><a xlink:title="include">
<path fill="none" stroke="#1414ce" d="M589.86,-503.88C565.93,-493.41 535.33,-480.02 510.91,-469.34"/>
<polygon fill="#1414ce" stroke="#1414ce" points="512.11,-466.04 501.54,-465.24 509.3,-472.45 512.11,-466.04"/>
</a>
</g>
</g>
<!-- 16 -->
<g id="node5" class="node">
<title>16</title>
<g id="a_node5"><a xlink:title="utils.h">
<polygon fill="#ffffff" stroke="black" points="465,-180 403,-180 403,-144 465,-144 465,-180"/>
<text text-anchor="middle" x="434" y="-158.3" font-family="Times,serif" font-size="14.00">utils.h</text>
</a>
</g>
</g>
<!-- 16&#45;&gt;8 -->
<g id="edge9" class="edge">
<title>16&#45;&gt;8</title>
<g id="a_edge9"><a xlink:title="include">
<path fill="none" stroke="#1414ce" d="M410.02,-143.7C397.69,-134.8 382.48,-123.82 369.15,-114.2"/>
<polygon fill="#1414ce" stroke="#1414ce" points="370.86,-111.12 360.7,-108.1 366.76,-116.79 370.86,-111.12"/>
</a>
</g>
</g>
<!-- 17 -->
<g id="node13" class="node">
<title>17</title>
<g id="a_node13"><a xlink:title="stddef.h">
<polygon fill="#ffffff" stroke="black" points="468,-108 394,-108 394,-72 468,-72 468,-108"/>
<text text-anchor="middle" x="431" y="-86.3" font-family="Times,serif" font-size="14.00">stddef.h</text>
</a>
</g>
</g>
<!-- 16&#45;&gt;17 -->
<g id="edge7" class="edge">
<title>16&#45;&gt;17</title>
<g id="a_edge7"><a xlink:title="include">
<path fill="none" stroke="#1414ce" d="M433.26,-143.7C432.93,-135.98 432.53,-126.71 432.16,-118.11"/>
<polygon fill="#1414ce" stroke="#1414ce" points="435.66,-117.95 431.73,-108.1 428.66,-118.25 435.66,-117.95"/>
</a>
</g>
</g>
<!-- 7 -->
<g id="node20" class="node">
<title>7</title>
<g id="a_node20"><a xlink:title="stdio.h">
<polygon fill="#ffffff" stroke="black" points="551.5,-108 486.5,-108 486.5,-72 551.5,-72 551.5,-108"/>
<text text-anchor="middle" x="519" y="-86.3" font-family="Times,serif" font-size="14.00">stdio.h</text>
</a>
</g>
</g>
<!-- 16&#45;&gt;7 -->
<g id="edge8" class="edge">
<title>16&#45;&gt;7</title>
<g id="a_edge8"><a xlink:title="include">
<path fill="none" stroke="#1414ce" d="M455.01,-143.7C465.72,-134.88 478.89,-124.03 490.5,-114.47"/>
<polygon fill="#1414ce" stroke="#1414ce" points="492.74,-117.16 498.23,-108.1 488.29,-111.76 492.74,-117.16"/>
</a>
</g>
</g>
<!-- 20 -->
<g id="node6" class="node">
<title>20</title>
<g id="a_node6"><a xlink:title="synclist.h">
<polygon fill="#ffffff" stroke="black" points="553.5,-252 468.5,-252 468.5,-216 553.5,-216 553.5,-252"/>
<text text-anchor="middle" x="511" y="-230.3" font-family="Times,serif" font-size="14.00">synclist.h</text>
</a>
</g>
</g>
<!-- 20&#45;&gt;2 -->
<g id="edge11" class="edge">
<title>20&#45;&gt;2</title>
<g id="a_edge11"><a xlink:title="include">
<path fill="none" stroke="#1414ce" d="M539.13,-215.88C554.51,-206.52 573.71,-194.83 590.14,-184.83"/>
<polygon fill="#1414ce" stroke="#1414ce" points="592.23,-187.65 598.95,-179.47 588.59,-181.67 592.23,-187.65"/>
</a>
</g>
</g>
<!-- 21 -->
<g id="node19" class="node">
<title>21</title>
<g id="a_node19"><a xlink:title="smp.h">
<polygon fill="#ffffff" stroke="black" points="581,-180 521,-180 521,-144 581,-144 581,-180"/>
<text text-anchor="middle" x="551" y="-158.3" font-family="Times,serif" font-size="14.00">smp.h</text>
</a>
</g>
</g>
<!-- 20&#45;&gt;21 -->
<g id="edge12" class="edge">
<title>20&#45;&gt;21</title>
<g id="a_edge12"><a xlink:title="include">
<path fill="none" stroke="#1414ce" d="M520.89,-215.7C525.49,-207.64 531.06,-197.89 536.15,-188.98"/>
<polygon fill="#1414ce" stroke="#1414ce" points="539.3,-190.52 541.23,-180.1 533.23,-187.05 539.3,-190.52"/>
</a>
</g>
</g>
<!-- 20&#45;&gt;7 -->
<g id="edge10" class="edge">
<title>20&#45;&gt;7</title>
<g id="a_edge10"><a xlink:title="include">
<path fill="none" stroke="#1414ce" d="M510.58,-215.91C510.29,-197.98 510.22,-168.97 512,-144 512.6,-135.54 513.67,-126.36 514.79,-118.06"/>
<polygon fill="#1414ce" stroke="#1414ce" points="518.26,-118.53 516.21,-108.13 511.33,-117.54 518.26,-118.53"/>
</a>
</g>
</g>
<!-- 2&#45;&gt;3 -->
<g id="edge13" class="edge">
<title>2&#45;&gt;3</title>
<g id="a_edge13"><a xlink:title="include">
<path fill="none" stroke="#1414ce" d="M632.67,-143.7C635.71,-135.81 639.38,-126.3 642.76,-117.55"/>
<polygon fill="#1414ce" stroke="#1414ce" points="646.07,-118.69 646.4,-108.1 639.54,-116.17 646.07,-118.69"/>
</a>
</g>
</g>
<!-- 6 -->
<g id="node8" class="node">
<title>6</title>
<g id="a_node8"><a xlink:title="stdint.h">
<polygon fill="#ffffff" stroke="black" points="72,-36 0,-36 0,0 72,0 72,-36"/>
<text text-anchor="middle" x="36" y="-14.3" font-family="Times,serif" font-size="14.00">stdint.h</text>
</a>
</g>
</g>
<!-- 10 -->
<g id="node10" class="node">
<title>10</title>
<g id="a_node10"><a xlink:title="memory.h">
<polygon fill="#ffffff" stroke="black" points="233,-252 147,-252 147,-216 233,-216 233,-252"/>
<text text-anchor="middle" x="190" y="-230.3" font-family="Times,serif" font-size="14.00">memory.h</text>
</a>
</g>
</g>
<!-- 10&#45;&gt;16 -->
<g id="edge18" class="edge">
<title>10&#45;&gt;16</title>
<g id="a_edge18"><a xlink:title="include">
<path fill="none" stroke="#1414ce" d="M233.06,-220.65C278.25,-207.68 348.75,-187.46 393.1,-174.73"/>
<polygon fill="#1414ce" stroke="#1414ce" points="394.32,-178.02 402.97,-171.9 392.39,-171.3 394.32,-178.02"/>
</a>
</g>
</g>
<!-- 10&#45;&gt;6 -->
<g id="edge14" class="edge">
<title>10&#45;&gt;6</title>
<g id="a_edge14"><a xlink:title="include">
<path fill="none" stroke="#1414ce" d="M170.08,-215.68C144.97,-193 101.76,-151.05 74,-108 61.4,-88.46 51.32,-64.04 44.72,-45.73"/>
<polygon fill="#1414ce" stroke="#1414ce" points="48.01,-44.54 41.41,-36.25 41.4,-46.84 48.01,-44.54"/>
</a>
</g>
</g>
<!-- 10&#45;&gt;8 -->
<g id="edge15" class="edge">
<title>10&#45;&gt;8</title>
<g id="a_edge15"><a xlink:title="include">
<path fill="none" stroke="#1414ce" d="M207.73,-215.87C233.67,-190.82 282.08,-144.05 311.73,-115.41"/>
<polygon fill="#1414ce" stroke="#1414ce" points="314.44,-117.65 319.21,-108.19 309.58,-112.62 314.44,-117.65"/>
</a>
</g>
</g>
<!-- 11 -->
<g id="node14" class="node">
<title>11</title>
<g id="a_node14"><a xlink:title="erl_nif.h">
<polygon fill="#ffffff" stroke="black" points="233,-180 159,-180 159,-144 233,-144 233,-180"/>
<text text-anchor="middle" x="196" y="-158.3" font-family="Times,serif" font-size="14.00">erl_nif.h</text>
</a>
</g>
</g>
<!-- 10&#45;&gt;11 -->
<g id="edge16" class="edge">
<title>10&#45;&gt;11</title>
<g id="a_edge16"><a xlink:title="include">
<path fill="none" stroke="#1414ce" d="M191.48,-215.7C192.14,-207.98 192.94,-198.71 193.68,-190.11"/>
<polygon fill="#1414ce" stroke="#1414ce" points="197.17,-190.37 194.53,-180.1 190.19,-189.77 197.17,-190.37"/>
</a>
</g>
</g>
<!-- 12 -->
<g id="node18" class="node">
<title>12</title>
<g id="a_node18"><a xlink:title="term_typedef.h">
<polygon fill="#ffffff" stroke="black" points="208.5,-108 83.5,-108 83.5,-72 208.5,-72 208.5,-108"/>
<text text-anchor="middle" x="146" y="-86.3" font-family="Times,serif" font-size="14.00">term_typedef.h</text>
</a>
</g>
</g>
<!-- 10&#45;&gt;12 -->
<g id="edge17" class="edge">
<title>10&#45;&gt;12</title>
<g id="a_edge17"><a xlink:title="include">
<path fill="none" stroke="#1414ce" d="M172.93,-215.99C164.38,-206.3 154.84,-193.45 150,-180 142.89,-160.26 142.19,-136.46 143.11,-118.44"/>
<polygon fill="#1414ce" stroke="#1414ce" points="146.61,-118.53 143.82,-108.31 139.63,-118.04 146.61,-118.53"/>
</a>
</g>
</g>
<!-- 19&#45;&gt;20 -->
<g id="edge23" class="edge">
<title>19&#45;&gt;20</title>
<g id="a_edge23"><a xlink:title="include">
<path fill="none" stroke="#1414ce" d="M381.83,-287.88C405.42,-278.22 435.06,-266.09 460,-255.88"/>
<polygon fill="#1414ce" stroke="#1414ce" points="461.38,-259.1 469.3,-252.07 458.72,-252.62 461.38,-259.1"/>
</a>
</g>
</g>
<!-- 19&#45;&gt;2 -->
<g id="edge21" class="edge">
<title>19&#45;&gt;2</title>
<g id="a_edge21"><a xlink:title="include">
<path fill="none" stroke="#1414ce" d="M390.11,-303.12C438.16,-299.13 510.9,-287.19 563,-252 586.02,-236.45 603.35,-209.48 613.95,-189.29"/>
<polygon fill="#1414ce" stroke="#1414ce" points="617.12,-190.79 618.48,-180.28 610.86,-187.65 617.12,-190.79"/>
</a>
</g>
</g>
<!-- 19&#45;&gt;8 -->
<g id="edge19" class="edge">
<title>19&#45;&gt;8</title>
<g id="a_edge19"><a xlink:title="include">
<path fill="none" stroke="#1414ce" d="M339.76,-287.85C339.24,-250.83 338.01,-163.18 337.38,-118.39"/>
<polygon fill="#1414ce" stroke="#1414ce" points="340.88,-118.18 337.24,-108.23 333.88,-118.28 340.88,-118.18"/>
</a>
</g>
</g>
<!-- 19&#45;&gt;10 -->
<g id="edge22" class="edge">
<title>19&#45;&gt;10</title>
<g id="a_edge22"><a xlink:title="include">
<path fill="none" stroke="#1414ce" d="M303.31,-287.88C282.98,-278.39 257.53,-266.51 235.9,-256.42"/>
<polygon fill="#1414ce" stroke="#1414ce" points="237.12,-253.13 226.57,-252.07 234.16,-259.47 237.12,-253.13"/>
</a>
</g>
</g>
<!-- 19&#45;&gt;11 -->
<g id="edge20" class="edge">
<title>19&#45;&gt;11</title>
<g id="a_edge20"><a xlink:title="include">
<path fill="none" stroke="#1414ce" d="M322.63,-287.87C297.22,-262.82 249.8,-216.05 220.75,-187.41"/>
<polygon fill="#1414ce" stroke="#1414ce" points="223.01,-184.72 213.43,-180.19 218.09,-189.7 223.01,-184.72"/>
</a>
</g>
</g>
<!-- 4&#45;&gt;3 -->
<g id="edge25" class="edge">
<title>4&#45;&gt;3</title>
<g id="a_edge25"><a xlink:title="include">
<path fill="none" stroke="#1414ce" d="M501.83,-449.83C549.83,-449.33 639.66,-441.74 697,-396 760.78,-345.12 752.62,-295.19 733,-216 723.41,-177.3 696.18,-139.71 676.14,-116.03"/>
<polygon fill="#1414ce" stroke="#1414ce" points="678.59,-113.51 669.4,-108.25 673.31,-118.1 678.59,-113.51"/>
</a>
</g>
</g>
<!-- 4&#45;&gt;18 -->
<g id="edge31" class="edge">
<title>4&#45;&gt;18</title>
<g id="a_edge31"><a xlink:title="include">
<path fill="none" stroke="#1414ce" d="M439.4,-431.88C423.43,-422.64 403.54,-411.13 386.39,-401.21"/>
<polygon fill="#1414ce" stroke="#1414ce" points="388.12,-398.17 377.71,-396.19 384.62,-404.23 388.12,-398.17"/>
</a>
</g>
</g>
<!-- 4&#45;&gt;16 -->
<g id="edge32" class="edge">
<title>4&#45;&gt;16</title>
<g id="a_edge32"><a xlink:title="include">
<path fill="none" stroke="#1414ce" d="M501.56,-447.76C536.87,-444.47 591.72,-433.24 618,-396 627.23,-382.93 625.47,-374.15 618,-360 578.3,-284.77 509.96,-320.85 460,-252 446.82,-233.84 440.28,-209.06 437.07,-190.26"/>
<polygon fill="#1414ce" stroke="#1414ce" points="440.51,-189.62 435.56,-180.25 433.59,-190.66 440.51,-189.62"/>
</a>
</g>
</g>
<!-- 4&#45;&gt;6 -->
<g id="edge26" class="edge">
<title>4&#45;&gt;6</title>
<g id="a_edge26"><a xlink:title="include">
<path fill="none" stroke="#1414ce" d="M436.27,-446.43C360.34,-440.09 174.42,-422.29 118,-396 63.77,-370.73 17,-366.83 17,-307 17,-307 17,-307 17,-161 17,-120.86 24.55,-74.9 30.13,-46.4"/>
<polygon fill="#1414ce" stroke="#1414ce" points="33.61,-46.88 32.16,-36.39 26.74,-45.5 33.61,-46.88"/>
</a>
</g>
</g>
<!-- 4&#45;&gt;8 -->
<g id="edge28" class="edge">
<title>4&#45;&gt;8</title>
<g id="a_edge28"><a xlink:title="include">
<path fill="none" stroke="#1414ce" d="M436.49,-444.2C388.9,-436.46 303.85,-419.66 285,-396 218.24,-312.24 287.03,-173.92 320.71,-116.85"/>
<polygon fill="#1414ce" stroke="#1414ce" points="323.82,-118.47 325.98,-108.1 317.82,-114.86 323.82,-118.47"/>
</a>
</g>
</g>
<!-- 4&#45;&gt;10 -->
<g id="edge30" class="edge">
<title>4&#45;&gt;10</title>
<g id="a_edge30"><a xlink:title="include">
<path fill="none" stroke="#1414ce" d="M436.35,-445C381.87,-437.73 275.63,-420.74 248,-396 209.18,-361.25 196.33,-298.56 192.08,-262.52"/>
<polygon fill="#1414ce" stroke="#1414ce" points="195.53,-261.83 191.02,-252.25 188.57,-262.55 195.53,-261.83"/>
</a>
</g>
</g>
<!-- 5 -->
<g id="node16" class="node">
<title>5</title>
<g id="a_node16"><a xlink:title="sys/types.h">
<polygon fill="#ffffff" stroke="black" points="517.5,-396 420.5,-396 420.5,-360 517.5,-360 517.5,-396"/>
<text text-anchor="middle" x="469" y="-374.3" font-family="Times,serif" font-size="14.00">sys/types.h</text>
</a>
</g>
</g>
<!-- 4&#45;&gt;5 -->
<g id="edge24" class="edge">
<title>4&#45;&gt;5</title>
<g id="a_edge24"><a xlink:title="include">
<path fill="none" stroke="#1414ce" d="M469,-431.7C469,-423.98 469,-414.71 469,-406.11"/>
<polygon fill="#1414ce" stroke="#1414ce" points="472.5,-406.1 469,-396.1 465.5,-406.1 472.5,-406.1"/>
</a>
</g>
</g>
<!-- 9 -->
<g id="node17" class="node">
<title>9</title>
<g id="a_node17"><a xlink:title="string.h">
<polygon fill="#ffffff" stroke="black" points="608.5,-396 535.5,-396 535.5,-360 608.5,-360 608.5,-396"/>
<text text-anchor="middle" x="572" y="-374.3" font-family="Times,serif" font-size="14.00">string.h</text>
</a>
</g>
</g>
<!-- 4&#45;&gt;9 -->
<g id="edge29" class="edge">
<title>4&#45;&gt;9</title>
<g id="a_edge29"><a xlink:title="include">
<path fill="none" stroke="#1414ce" d="M494.2,-431.88C507.41,-422.89 523.79,-411.76 538.11,-402.03"/>
<polygon fill="#1414ce" stroke="#1414ce" points="540.4,-404.71 546.71,-396.19 536.47,-398.92 540.4,-404.71"/>
</a>
</g>
</g>
<!-- 4&#45;&gt;12 -->
<g id="edge33" class="edge">
<title>4&#45;&gt;12</title>
<g id="a_edge33"><a xlink:title="include">
<path fill="none" stroke="#1414ce" d="M436.41,-446.4C387.25,-441.54 292.03,-428.47 218,-396 155.55,-368.6 93,-375.2 93,-307 93,-307 93,-307 93,-233 93,-190.21 114.39,-144.48 129.99,-116.82"/>
<polygon fill="#1414ce" stroke="#1414ce" points="133.02,-118.56 135.02,-108.16 126.97,-115.05 133.02,-118.56"/>
</a>
</g>
</g>
<!-- 4&#45;&gt;7 -->
<g id="edge27" class="edge">
<title>4&#45;&gt;7</title>
<g id="a_edge27"><a xlink:title="include">
<path fill="none" stroke="#1414ce" d="M501.68,-445.66C569.45,-436.73 719,-405.83 719,-307 719,-307 719,-307 719,-233 719,-186.03 698.58,-173.46 662,-144 632.73,-120.42 591.95,-106.7 561.43,-99.15"/>
<polygon fill="#1414ce" stroke="#1414ce" points="562.04,-95.69 551.5,-96.82 560.44,-102.51 562.04,-95.69"/>
</a>
</g>
</g>
<!-- 11&#45;&gt;12 -->
<g id="edge34" class="edge">
<title>11&#45;&gt;12</title>
<g id="a_edge34"><a xlink:title="include">
<path fill="none" stroke="#1414ce" d="M183.64,-143.7C177.77,-135.47 170.63,-125.48 164.16,-116.42"/>
<polygon fill="#1414ce" stroke="#1414ce" points="166.88,-114.21 158.22,-108.1 161.18,-118.28 166.88,-114.21"/>
</a>
</g>
</g>
<!-- 14 -->
<g id="node15" class="node">
<title>14</title>
<g id="a_node15"><a xlink:title="limits.h">
<polygon fill="#ffffff" stroke="black" points="161.5,-36 90.5,-36 90.5,0 161.5,0 161.5,-36"/>
<text text-anchor="middle" x="126" y="-14.3" font-family="Times,serif" font-size="14.00">limits.h</text>
</a>
</g>
</g>
<!-- 12&#45;&gt;13 -->
<g id="edge35" class="edge">
<title>12&#45;&gt;13</title>
<g id="a_edge35"><a xlink:title="include">
<path fill="none" stroke="#1414ce" d="M189.54,-71.88C216.24,-61.38 250.4,-47.94 277.61,-37.24"/>
<polygon fill="#1414ce" stroke="#1414ce" points="278.9,-40.5 286.92,-33.58 276.33,-33.98 278.9,-40.5"/>
</a>
</g>
</g>
<!-- 12&#45;&gt;6 -->
<g id="edge38" class="edge">
<title>12&#45;&gt;6</title>
<g id="a_edge38"><a xlink:title="include">
<path fill="none" stroke="#1414ce" d="M119.09,-71.88C104.84,-62.81 87.15,-51.55 71.76,-41.76"/>
<polygon fill="#1414ce" stroke="#1414ce" points="73.33,-38.61 63.01,-36.19 69.57,-44.51 73.33,-38.61"/>
</a>
</g>
</g>
<!-- 12&#45;&gt;14 -->
<g id="edge36" class="edge">
<title>12&#45;&gt;14</title>
<g id="a_edge36"><a xlink:title="include">
<path fill="none" stroke="#1414ce" d="M141.06,-71.7C138.83,-63.9 136.15,-54.51 133.67,-45.83"/>
<polygon fill="#1414ce" stroke="#1414ce" points="137,-44.76 130.89,-36.1 130.27,-46.68 137,-44.76"/>
</a>
</g>
</g>
<!-- 15 -->
<g id="node21" class="node">
<title>15</title>
<g id="a_node21"><a xlink:title="inttypes.h">
<polygon fill="#ffffff" stroke="black" points="268.5,-36 179.5,-36 179.5,0 268.5,0 268.5,-36"/>
<text text-anchor="middle" x="224" y="-14.3" font-family="Times,serif" font-size="14.00">inttypes.h</text>
</a>
</g>
</g>
<!-- 12&#45;&gt;15 -->
<g id="edge37" class="edge">
<title>12&#45;&gt;15</title>
<g id="a_edge37"><a xlink:title="include">
<path fill="none" stroke="#1414ce" d="M165.28,-71.7C174.92,-63.05 186.73,-52.45 197.23,-43.03"/>
<polygon fill="#1414ce" stroke="#1414ce" points="199.84,-45.39 204.94,-36.1 195.16,-40.18 199.84,-45.39"/>
</a>
</g>
</g>
<!-- 21&#45;&gt;3 -->
<g id="edge39" class="edge">
<title>21&#45;&gt;3</title>
<g id="a_edge39"><a xlink:title="include">
<path fill="none" stroke="#1414ce" d="M575.95,-143.88C589.04,-134.89 605.26,-123.76 619.44,-114.03"/>
<polygon fill="#1414ce" stroke="#1414ce" points="621.69,-116.73 627.95,-108.19 617.73,-110.96 621.69,-116.73"/>
</a>
</g>
</g>
</g>
</svg>
