<?xml version="1.0" encoding="UTF-8" standalone="no"?>
<!DOCTYPE svg PUBLIC "-//W3C//DTD SVG 1.1//EN"
 "http://www.w3.org/Graphics/SVG/1.1/DTD/svg11.dtd">
<!-- Generated by graphviz version 2.43.0 (0)
 -->
<!-- Title: %3 Pages: 1 -->
<svg width="1416pt" height="836pt"
 viewBox="0.00 0.00 1416.00 836.00" xmlns="http://www.w3.org/2000/svg" xmlns:xlink="http://www.w3.org/1999/xlink">
<g id="graph0" class="graph" transform="scale(1 1) rotate(0) translate(4 832)">
<title>%3</title>
<polygon fill="transparent" stroke="transparent" points="-4,4 -4,-832 1412,-832 1412,4 -4,4"/>
<!-- 8 -->
<g id="node1" class="node">
<title>8</title>
<g id="a_node1"><a xlink:title="stdbool.h">
<polygon fill="#ffffff" stroke="black" points="513.5,-108 430.5,-108 430.5,-72 513.5,-72 513.5,-108"/>
<text text-anchor="middle" x="472" y="-86.3" font-family="Times,serif" font-size="14.00">stdbool.h</text>
</a>
</g>
</g>
<!-- 25 -->
<g id="node2" class="node">
<title>25</title>
<g id="a_node2"><a xlink:title="refc_binary.h">
<polygon fill="#ffffff" stroke="black" points="813,-396 705,-396 705,-360 813,-360 813,-396"/>
<text text-anchor="middle" x="759" y="-374.3" font-family="Times,serif" font-size="14.00">refc_binary.h</text>
</a>
</g>
</g>
<!-- 25&#45;&gt;8 -->
<g id="edge1" class="edge">
<title>25&#45;&gt;8</title>
<g id="a_edge1"><a xlink:title="include">
<path fill="none" stroke="#1414ce" d="M759.04,-359.72C758.11,-315.57 748.95,-198.32 680,-144 635.19,-108.7 569.6,-96.66 524.1,-92.69"/>
<polygon fill="#1414ce" stroke="#1414ce" points="524.09,-89.18 513.85,-91.9 523.56,-96.16 524.09,-89.18"/>
</a>
</g>
</g>
<!-- 15 -->
<g id="node7" class="node">
<title>15</title>
<g id="a_node7"><a xlink:title="list.h">
<polygon fill="#ffffff" stroke="black" points="442,-180 388,-180 388,-144 442,-144 442,-180"/>
<text text-anchor="middle" x="415" y="-158.3" font-family="Times,serif" font-size="14.00">list.h</text>
</a>
</g>
</g>
<!-- 25&#45;&gt;15 -->
<g id="edge3" class="edge">
<title>25&#45;&gt;15</title>
<g id="a_edge3"><a xlink:title="include">
<path fill="none" stroke="#1414ce" d="M710.76,-359.85C656.46,-339.21 567.08,-301.1 500,-252 482.24,-239 481.19,-231.93 466,-216 457.14,-206.71 447.37,-196.54 438.78,-187.61"/>
<polygon fill="#1414ce" stroke="#1414ce" points="441.04,-184.92 431.58,-180.15 436,-189.78 441.04,-184.92"/>
</a>
</g>
</g>
<!-- 6 -->
<g id="node9" class="node">
<title>6</title>
<g id="a_node9"><a xlink:title="stdlib.h">
<polygon fill="#ffffff" stroke="black" points="977.5,-108 906.5,-108 906.5,-72 977.5,-72 977.5,-108"/>
<text text-anchor="middle" x="942" y="-86.3" font-family="Times,serif" font-size="14.00">stdlib.h</text>
</a>
</g>
</g>
<!-- 25&#45;&gt;6 -->
<g id="edge2" class="edge">
<title>25&#45;&gt;6</title>
<g id="a_edge2"><a xlink:title="include">
<path fill="none" stroke="#1414ce" d="M769.9,-359.97C800.72,-311.8 888.66,-174.37 925.47,-116.83"/>
<polygon fill="#1414ce" stroke="#1414ce" points="928.48,-118.62 930.93,-108.31 922.59,-114.84 928.48,-118.62"/>
</a>
</g>
</g>
<!-- 26 -->
<g id="node14" class="node">
<title>26</title>
<g id="a_node14"><a xlink:title="resources.h">
<polygon fill="#ffffff" stroke="black" points="1026,-324 926,-324 926,-288 1026,-288 1026,-324"/>
<text text-anchor="middle" x="976" y="-302.3" font-family="Times,serif" font-size="14.00">resources.h</text>
</a>
</g>
</g>
<!-- 25&#45;&gt;26 -->
<g id="edge4" class="edge">
<title>25&#45;&gt;26</title>
<g id="a_edge4"><a xlink:title="include">
<path fill="none" stroke="#1414ce" d="M811.81,-359.97C843.3,-349.81 883.38,-336.88 916.06,-326.34"/>
<polygon fill="#1414ce" stroke="#1414ce" points="917.5,-329.55 925.94,-323.15 915.35,-322.89 917.5,-329.55"/>
</a>
</g>
</g>
<!-- 5 -->
<g id="node3" class="node">
<title>5</title>
<g id="a_node3"><a xlink:title="atom.h">
<polygon fill="#ffffff" stroke="black" points="1266,-468 1200,-468 1200,-432 1266,-432 1266,-468"/>
<text text-anchor="middle" x="1233" y="-446.3" font-family="Times,serif" font-size="14.00">atom.h</text>
</a>
</g>
</g>
<!-- 4 -->
<g id="node8" class="node">
<title>4</title>
<g id="a_node8"><a xlink:title="stdint.h">
<polygon fill="#ffffff" stroke="black" points="1062,-36 990,-36 990,0 1062,0 1062,-36"/>
<text text-anchor="middle" x="1026" y="-14.3" font-family="Times,serif" font-size="14.00">stdint.h</text>
</a>
</g>
</g>
<!-- 5&#45;&gt;4 -->
<g id="edge5" class="edge">
<title>5&#45;&gt;4</title>
<g id="a_edge5"><a xlink:title="include">
<path fill="none" stroke="#1414ce" d="M1266.16,-432.97C1306.71,-410.79 1370,-366.61 1370,-307 1370,-307 1370,-307 1370,-161 1370,-17.38 1210.52,-73.95 1072,-36 1071.9,-35.97 1071.8,-35.95 1071.7,-35.92"/>
<polygon fill="#1414ce" stroke="#1414ce" points="1072.8,-32.6 1062.22,-33.05 1070.78,-39.29 1072.8,-32.6"/>
</a>
</g>
</g>
<!-- 5&#45;&gt;6 -->
<g id="edge6" class="edge">
<title>5&#45;&gt;6</title>
<g id="a_edge6"><a xlink:title="include">
<path fill="none" stroke="#1414ce" d="M1255.46,-431.97C1284.67,-407.71 1332,-360.19 1332,-307 1332,-307 1332,-307 1332,-233 1332,-186.03 1314.3,-169.72 1275,-144 1251.32,-128.5 1073.38,-106.17 987.76,-96.18"/>
<polygon fill="#1414ce" stroke="#1414ce" points="988.13,-92.7 977.8,-95.02 987.33,-99.65 988.13,-92.7"/>
</a>
</g>
</g>
<!-- 11 -->
<g id="node4" class="node">
<title>11</title>
<g id="a_node4"><a xlink:title="assert.h">
<polygon fill="#ffffff" stroke="black" points="1351,-36 1277,-36 1277,0 1351,0 1351,-36"/>
<text text-anchor="middle" x="1314" y="-14.3" font-family="Times,serif" font-size="14.00">assert.h</text>
</a>
</g>
</g>
<!-- 23 -->
<g id="node5" class="node">
<title>23</title>
<g id="a_node5"><a xlink:title="utils.h">
<polygon fill="#ffffff" stroke="black" points="870,-180 808,-180 808,-144 870,-144 870,-180"/>
<text text-anchor="middle" x="839" y="-158.3" font-family="Times,serif" font-size="14.00">utils.h</text>
</a>
</g>
</g>
<!-- 23&#45;&gt;6 -->
<g id="edge9" class="edge">
<title>23&#45;&gt;6</title>
<g id="a_edge9"><a xlink:title="include">
<path fill="none" stroke="#1414ce" d="M864.2,-143.88C877.41,-134.89 893.79,-123.76 908.11,-114.03"/>
<polygon fill="#1414ce" stroke="#1414ce" points="910.4,-116.71 916.71,-108.19 906.47,-110.92 910.4,-116.71"/>
</a>
</g>
</g>
<!-- 24 -->
<g id="node16" class="node">
<title>24</title>
<g id="a_node16"><a xlink:title="stddef.h">
<polygon fill="#ffffff" stroke="black" points="879,-108 805,-108 805,-72 879,-72 879,-108"/>
<text text-anchor="middle" x="842" y="-86.3" font-family="Times,serif" font-size="14.00">stddef.h</text>
</a>
</g>
</g>
<!-- 23&#45;&gt;24 -->
<g id="edge7" class="edge">
<title>23&#45;&gt;24</title>
<g id="a_edge7"><a xlink:title="include">
<path fill="none" stroke="#1414ce" d="M839.74,-143.7C840.07,-135.98 840.47,-126.71 840.84,-118.11"/>
<polygon fill="#1414ce" stroke="#1414ce" points="844.34,-118.25 841.27,-108.1 837.34,-117.95 844.34,-118.25"/>
</a>
</g>
</g>
<!-- 17 -->
<g id="node30" class="node">
<title>17</title>
<g id="a_node30"><a xlink:title="stdio.h">
<polygon fill="#ffffff" stroke="black" points="786.5,-108 721.5,-108 721.5,-72 786.5,-72 786.5,-108"/>
<text text-anchor="middle" x="754" y="-86.3" font-family="Times,serif" font-size="14.00">stdio.h</text>
</a>
</g>
</g>
<!-- 23&#45;&gt;17 -->
<g id="edge8" class="edge">
<title>23&#45;&gt;17</title>
<g id="a_edge8"><a xlink:title="include">
<path fill="none" stroke="#1414ce" d="M817.99,-143.7C807.28,-134.88 794.11,-124.03 782.5,-114.47"/>
<polygon fill="#1414ce" stroke="#1414ce" points="784.71,-111.76 774.77,-108.1 780.26,-117.16 784.71,-111.76"/>
</a>
</g>
</g>
<!-- 16 -->
<g id="node6" class="node">
<title>16</title>
<g id="a_node6"><a xlink:title="synclist.h">
<polygon fill="#ffffff" stroke="black" points="457.5,-252 372.5,-252 372.5,-216 457.5,-216 457.5,-252"/>
<text text-anchor="middle" x="415" y="-230.3" font-family="Times,serif" font-size="14.00">synclist.h</text>
</a>
</g>
</g>
<!-- 16&#45;&gt;15 -->
<g id="edge11" class="edge">
<title>16&#45;&gt;15</title>
<g id="a_edge11"><a xlink:title="include">
<path fill="none" stroke="#1414ce" d="M415,-215.7C415,-207.98 415,-198.71 415,-190.11"/>
<polygon fill="#1414ce" stroke="#1414ce" points="418.5,-190.1 415,-180.1 411.5,-190.1 418.5,-190.1"/>
</a>
</g>
</g>
<!-- 18 -->
<g id="node25" class="node">
<title>18</title>
<g id="a_node25"><a xlink:title="smp.h">
<polygon fill="#ffffff" stroke="black" points="164,-180 104,-180 104,-144 164,-144 164,-180"/>
<text text-anchor="middle" x="134" y="-158.3" font-family="Times,serif" font-size="14.00">smp.h</text>
</a>
</g>
</g>
<!-- 16&#45;&gt;18 -->
<g id="edge12" class="edge">
<title>16&#45;&gt;18</title>
<g id="a_edge12"><a xlink:title="include">
<path fill="none" stroke="#1414ce" d="M372.32,-222.37C318.49,-208.96 226.62,-186.07 174.06,-172.98"/>
<polygon fill="#1414ce" stroke="#1414ce" points="174.64,-169.52 164.09,-170.5 172.95,-176.31 174.64,-169.52"/>
</a>
</g>
</g>
<!-- 16&#45;&gt;17 -->
<g id="edge10" class="edge">
<title>16&#45;&gt;17</title>
<g id="a_edge10"><a xlink:title="include">
<path fill="none" stroke="#1414ce" d="M455.89,-215.87C520.68,-188.73 646.28,-136.12 711.85,-108.66"/>
<polygon fill="#1414ce" stroke="#1414ce" points="713.2,-111.88 721.07,-104.79 710.5,-105.43 713.2,-111.88"/>
</a>
</g>
</g>
<!-- 15&#45;&gt;8 -->
<g id="edge13" class="edge">
<title>15&#45;&gt;8</title>
<g id="a_edge13"><a xlink:title="include">
<path fill="none" stroke="#1414ce" d="M429.09,-143.7C435.92,-135.3 444.26,-125.07 451.76,-115.86"/>
<polygon fill="#1414ce" stroke="#1414ce" points="454.47,-118.07 458.07,-108.1 449.04,-113.65 454.47,-118.07"/>
</a>
</g>
</g>
<!-- 2 -->
<g id="node10" class="node">
<title>2</title>
<g id="a_node10"><a xlink:title="context.h">
<polygon fill="#ffffff" stroke="black" points="255.5,-684 172.5,-684 172.5,-648 255.5,-648 255.5,-684"/>
<text text-anchor="middle" x="214" y="-662.3" font-family="Times,serif" font-size="14.00">context.h</text>
</a>
</g>
</g>
<!-- 2&#45;&gt;15 -->
<g id="edge15" class="edge">
<title>2&#45;&gt;15</title>
<g id="a_edge15"><a xlink:title="include">
<path fill="none" stroke="#1414ce" d="M214.33,-647.68C216.37,-583.91 230.9,-358.52 334,-216 345.36,-200.29 362.93,-187.98 378.81,-179.19"/>
<polygon fill="#1414ce" stroke="#1414ce" points="380.67,-182.17 387.9,-174.42 377.42,-175.97 380.67,-182.17"/>
</a>
</g>
</g>
<!-- 19 -->
<g id="node15" class="node">
<title>19</title>
<g id="a_node15"><a xlink:title="term.h">
<polygon fill="#ffffff" stroke="black" points="878.5,-468 813.5,-468 813.5,-432 878.5,-432 878.5,-468"/>
<text text-anchor="middle" x="846" y="-446.3" font-family="Times,serif" font-size="14.00">term.h</text>
</a>
</g>
</g>
<!-- 2&#45;&gt;19 -->
<g id="edge18" class="edge">
<title>2&#45;&gt;19</title>
<g id="a_edge18"><a xlink:title="include">
<path fill="none" stroke="#1414ce" d="M255.56,-664.24C342.25,-661.86 538.59,-652.07 590,-612 630.88,-580.14 594.84,-537.96 634,-504 681.43,-462.87 756.13,-452.76 803.02,-450.76"/>
<polygon fill="#1414ce" stroke="#1414ce" points="803.28,-454.26 813.16,-450.44 803.05,-447.26 803.28,-454.26"/>
</a>
</g>
</g>
<!-- 3 -->
<g id="node24" class="node">
<title>3</title>
<g id="a_node24"><a xlink:title="globalcontext.h">
<polygon fill="#ffffff" stroke="black" points="581.5,-612 454.5,-612 454.5,-576 581.5,-576 581.5,-612"/>
<text text-anchor="middle" x="518" y="-590.3" font-family="Times,serif" font-size="14.00">globalcontext.h</text>
</a>
</g>
</g>
<!-- 2&#45;&gt;3 -->
<g id="edge14" class="edge">
<title>2&#45;&gt;3</title>
<g id="a_edge14"><a xlink:title="include">
<path fill="none" stroke="#1414ce" d="M255.63,-655.41C304.13,-644.25 385.15,-625.59 444.35,-611.96"/>
<polygon fill="#1414ce" stroke="#1414ce" points="445.44,-615.3 454.4,-609.65 443.87,-608.48 445.44,-615.3"/>
</a>
</g>
</g>
<!-- 2&#45;&gt;18 -->
<g id="edge17" class="edge">
<title>2&#45;&gt;18</title>
<g id="a_edge17"><a xlink:title="include">
<path fill="none" stroke="#1414ce" d="M172.29,-651.98C120.24,-632.83 38,-591.71 38,-523 38,-523 38,-523 38,-305 38,-256.85 76.34,-212.85 104.56,-186.98"/>
<polygon fill="#1414ce" stroke="#1414ce" points="107.07,-189.43 112.22,-180.17 102.42,-184.2 107.07,-189.43"/>
</a>
</g>
</g>
<!-- 28 -->
<g id="node28" class="node">
<title>28</title>
<g id="a_node28"><a xlink:title="timer_list.h">
<polygon fill="#ffffff" stroke="black" points="202,-252 104,-252 104,-216 202,-216 202,-252"/>
<text text-anchor="middle" x="153" y="-230.3" font-family="Times,serif" font-size="14.00">timer_list.h</text>
</a>
</g>
</g>
<!-- 2&#45;&gt;28 -->
<g id="edge19" class="edge">
<title>2&#45;&gt;28</title>
<g id="a_edge19"><a xlink:title="include">
<path fill="none" stroke="#1414ce" d="M180.43,-647.83C166.06,-638.93 150.27,-626.8 140,-612 116.65,-578.33 116,-563.97 116,-523 116,-523 116,-523 116,-377 116,-335.71 130.83,-289.77 141.72,-261.63"/>
<polygon fill="#1414ce" stroke="#1414ce" points="145.06,-262.7 145.51,-252.11 138.56,-260.11 145.06,-262.7"/>
</a>
</g>
</g>
<!-- 27 -->
<g id="node29" class="node">
<title>27</title>
<g id="a_node29"><a xlink:title="mailbox.h">
<polygon fill="#ffffff" stroke="black" points="638,-252 552,-252 552,-216 638,-216 638,-252"/>
<text text-anchor="middle" x="595" y="-230.3" font-family="Times,serif" font-size="14.00">mailbox.h</text>
</a>
</g>
</g>
<!-- 2&#45;&gt;27 -->
<g id="edge16" class="edge">
<title>2&#45;&gt;27</title>
<g id="a_edge16"><a xlink:title="include">
<path fill="none" stroke="#1414ce" d="M222.92,-647.76C244.22,-607.48 301.04,-505.1 365,-432 427.25,-360.85 515.52,-292.46 562.55,-258.06"/>
<polygon fill="#1414ce" stroke="#1414ce" points="564.8,-260.74 570.83,-252.03 560.69,-255.08 564.8,-260.74"/>
</a>
</g>
</g>
<!-- 22 -->
<g id="node11" class="node">
<title>22</title>
<g id="a_node11"><a xlink:title="memory.h">
<polygon fill="#ffffff" stroke="black" points="1131,-252 1045,-252 1045,-216 1131,-216 1131,-252"/>
<text text-anchor="middle" x="1088" y="-230.3" font-family="Times,serif" font-size="14.00">memory.h</text>
</a>
</g>
</g>
<!-- 22&#45;&gt;23 -->
<g id="edge24" class="edge">
<title>22&#45;&gt;23</title>
<g id="a_edge24"><a xlink:title="include">
<path fill="none" stroke="#1414ce" d="M1044.91,-220.89C998.58,-207.86 925.48,-187.31 879.98,-174.52"/>
<polygon fill="#1414ce" stroke="#1414ce" points="880.73,-171.1 870.16,-171.76 878.83,-177.83 880.73,-171.1"/>
</a>
</g>
</g>
<!-- 22&#45;&gt;4 -->
<g id="edge20" class="edge">
<title>22&#45;&gt;4</title>
<g id="a_edge20"><a xlink:title="include">
<path fill="none" stroke="#1414ce" d="M1083.03,-215.85C1072.28,-178.75 1046.8,-90.81 1033.85,-46.1"/>
<polygon fill="#1414ce" stroke="#1414ce" points="1037.14,-44.86 1030.99,-36.23 1030.41,-46.81 1037.14,-44.86"/>
</a>
</g>
</g>
<!-- 22&#45;&gt;6 -->
<g id="edge21" class="edge">
<title>22&#45;&gt;6</title>
<g id="a_edge21"><a xlink:title="include">
<path fill="none" stroke="#1414ce" d="M1070.39,-215.87C1044.63,-190.82 996.55,-144.05 967.09,-115.41"/>
<polygon fill="#1414ce" stroke="#1414ce" points="969.28,-112.65 959.67,-108.19 964.4,-117.67 969.28,-112.65"/>
</a>
</g>
</g>
<!-- 9 -->
<g id="node17" class="node">
<title>9</title>
<g id="a_node17"><a xlink:title="erl_nif.h">
<polygon fill="#ffffff" stroke="black" points="1266,-180 1192,-180 1192,-144 1266,-144 1266,-180"/>
<text text-anchor="middle" x="1229" y="-158.3" font-family="Times,serif" font-size="14.00">erl_nif.h</text>
</a>
</g>
</g>
<!-- 22&#45;&gt;9 -->
<g id="edge22" class="edge">
<title>22&#45;&gt;9</title>
<g id="a_edge22"><a xlink:title="include">
<path fill="none" stroke="#1414ce" d="M1122.49,-215.88C1141.44,-206.47 1165.13,-194.71 1185.36,-184.67"/>
<polygon fill="#1414ce" stroke="#1414ce" points="1186.97,-187.77 1194.37,-180.19 1183.86,-181.5 1186.97,-187.77"/>
</a>
</g>
</g>
<!-- 10 -->
<g id="node23" class="node">
<title>10</title>
<g id="a_node23"><a xlink:title="term_typedef.h">
<polygon fill="#ffffff" stroke="black" points="1259.5,-108 1134.5,-108 1134.5,-72 1259.5,-72 1259.5,-108"/>
<text text-anchor="middle" x="1197" y="-86.3" font-family="Times,serif" font-size="14.00">term_typedef.h</text>
</a>
</g>
</g>
<!-- 22&#45;&gt;10 -->
<g id="edge23" class="edge">
<title>22&#45;&gt;10</title>
<g id="a_edge23"><a xlink:title="include">
<path fill="none" stroke="#1414ce" d="M1106.78,-215.71C1117.12,-205.74 1129.88,-192.7 1140,-180 1156.04,-159.87 1171.62,-135.07 1182.42,-116.77"/>
<polygon fill="#1414ce" stroke="#1414ce" points="1185.46,-118.51 1187.47,-108.1 1179.41,-114.98 1185.46,-118.51"/>
</a>
</g>
</g>
<!-- 29 -->
<g id="node12" class="node">
<title>29</title>
<g id="a_node12"><a xlink:title="module.h">
<polygon fill="#ffffff" stroke="black" points="765.5,-756 682.5,-756 682.5,-720 765.5,-720 765.5,-756"/>
<text text-anchor="middle" x="724" y="-734.3" font-family="Times,serif" font-size="14.00">module.h</text>
</a>
</g>
</g>
<!-- 29&#45;&gt;8 -->
<g id="edge25" class="edge">
<title>29&#45;&gt;8</title>
<g id="a_edge25"><a xlink:title="include">
<path fill="none" stroke="#1414ce" d="M682.39,-731.9C576.66,-717.78 306,-673.94 306,-595 306,-595 306,-595 306,-521 306,-420.07 230,-407.93 230,-307 230,-307 230,-307 230,-233 230,-145.48 349.19,-110.86 420.28,-98"/>
<polygon fill="#1414ce" stroke="#1414ce" points="421.14,-101.41 430.4,-96.26 419.95,-94.51 421.14,-101.41"/>
</a>
</g>
</g>
<!-- 29&#45;&gt;5 -->
<g id="edge27" class="edge">
<title>29&#45;&gt;5</title>
<g id="a_edge27"><a xlink:title="include">
<path fill="none" stroke="#1414ce" d="M765.82,-733.49C877.21,-723.14 1176.38,-688.57 1231,-612 1259.17,-572.51 1250.07,-512.57 1241.28,-478.06"/>
<polygon fill="#1414ce" stroke="#1414ce" points="1244.6,-476.94 1238.6,-468.21 1237.85,-478.78 1244.6,-476.94"/>
</a>
</g>
</g>
<!-- 29&#45;&gt;4 -->
<g id="edge26" class="edge">
<title>29&#45;&gt;4</title>
<g id="a_edge26"><a xlink:title="include">
<path fill="none" stroke="#1414ce" d="M682.47,-737.75C528.63,-739.45 0,-735.1 0,-595 0,-595 0,-595 0,-161 0,-68.96 97.9,-95.1 187,-72 338.74,-32.66 826.58,-22.02 979.62,-19.62"/>
<polygon fill="#1414ce" stroke="#1414ce" points="979.69,-23.12 989.63,-19.47 979.58,-16.12 979.69,-23.12"/>
</a>
</g>
</g>
<!-- 29&#45;&gt;2 -->
<g id="edge30" class="edge">
<title>29&#45;&gt;2</title>
<g id="a_edge30"><a xlink:title="include">
<path fill="none" stroke="#1414ce" d="M682.41,-733.19C605.18,-725.83 434.47,-708.21 292,-684 283.36,-682.53 274.24,-680.75 265.39,-678.91"/>
<polygon fill="#1414ce" stroke="#1414ce" points="266.07,-675.47 255.56,-676.8 264.6,-682.32 266.07,-675.47"/>
</a>
</g>
</g>
<!-- 32 -->
<g id="node13" class="node">
<title>32</title>
<g id="a_node13"><a xlink:title="valueshashtable.h">
<polygon fill="#ffffff" stroke="black" points="936,-684 790,-684 790,-648 936,-648 936,-684"/>
<text text-anchor="middle" x="863" y="-662.3" font-family="Times,serif" font-size="14.00">valueshashtable.h</text>
</a>
</g>
</g>
<!-- 29&#45;&gt;32 -->
<g id="edge34" class="edge">
<title>29&#45;&gt;32</title>
<g id="a_edge34"><a xlink:title="include">
<path fill="none" stroke="#1414ce" d="M758,-719.88C776.6,-710.51 799.83,-698.81 819.71,-688.8"/>
<polygon fill="#1414ce" stroke="#1414ce" points="821.51,-691.81 828.87,-684.19 818.36,-685.56 821.51,-691.81"/>
</a>
</g>
</g>
<!-- 29&#45;&gt;19 -->
<g id="edge33" class="edge">
<title>29&#45;&gt;19</title>
<g id="a_edge33"><a xlink:title="include">
<path fill="none" stroke="#1414ce" d="M725.99,-719.84C728.64,-701.34 734.41,-671.39 746,-648 773.38,-592.78 808.34,-596.49 833,-540 841.52,-520.47 844.65,-496.48 845.72,-478.32"/>
<polygon fill="#1414ce" stroke="#1414ce" points="849.22,-478.26 846.14,-468.13 842.23,-477.98 849.22,-478.26"/>
</a>
</g>
</g>
<!-- 31 -->
<g id="node18" class="node">
<title>31</title>
<g id="a_node18"><a xlink:title="exportedfunction.h">
<polygon fill="#ffffff" stroke="black" points="1032,-612 880,-612 880,-576 1032,-576 1032,-612"/>
<text text-anchor="middle" x="956" y="-590.3" font-family="Times,serif" font-size="14.00">exportedfunction.h</text>
</a>
</g>
</g>
<!-- 29&#45;&gt;31 -->
<g id="edge31" class="edge">
<title>29&#45;&gt;31</title>
<g id="a_edge31"><a xlink:title="include">
<path fill="none" stroke="#1414ce" d="M730.55,-719.99C739.15,-699.89 756.12,-666.82 781,-648 795.99,-636.66 834.56,-624.47 871.68,-614.64"/>
<polygon fill="#1414ce" stroke="#1414ce" points="872.79,-617.97 881.58,-612.07 871.02,-611.2 872.79,-617.97"/>
</a>
</g>
</g>
<!-- 7 -->
<g id="node20" class="node">
<title>7</title>
<g id="a_node20"><a xlink:title="atom_table.h">
<polygon fill="#ffffff" stroke="black" points="823.5,-540 714.5,-540 714.5,-504 823.5,-504 823.5,-540"/>
<text text-anchor="middle" x="769" y="-518.3" font-family="Times,serif" font-size="14.00">atom_table.h</text>
</a>
</g>
</g>
<!-- 29&#45;&gt;7 -->
<g id="edge28" class="edge">
<title>29&#45;&gt;7</title>
<g id="a_edge28"><a xlink:title="include">
<path fill="none" stroke="#1414ce" d="M765.54,-733.08C823.24,-726.68 923.07,-711.81 945,-684 954.91,-671.44 953.49,-661.56 945,-648 925.6,-616.99 901.49,-632.2 871,-612 842.29,-592.98 813.02,-566.57 793.25,-547.46"/>
<polygon fill="#1414ce" stroke="#1414ce" points="795.49,-544.77 785.9,-540.28 790.6,-549.77 795.49,-544.77"/>
</a>
</g>
</g>
<!-- 29&#45;&gt;3 -->
<g id="edge32" class="edge">
<title>29&#45;&gt;3</title>
<g id="a_edge32"><a xlink:title="include">
<path fill="none" stroke="#1414ce" d="M699.15,-719.87C662.19,-694.39 592.64,-646.45 551.31,-617.96"/>
<polygon fill="#1414ce" stroke="#1414ce" points="553.16,-614.98 542.94,-612.19 549.18,-620.75 553.16,-614.98"/>
</a>
</g>
</g>
<!-- 30 -->
<g id="node26" class="node">
<title>30</title>
<g id="a_node26"><a xlink:title="atomshashtable.h">
<polygon fill="#ffffff" stroke="black" points="1221.5,-612 1078.5,-612 1078.5,-576 1221.5,-576 1221.5,-612"/>
<text text-anchor="middle" x="1150" y="-590.3" font-family="Times,serif" font-size="14.00">atomshashtable.h</text>
</a>
</g>
</g>
<!-- 29&#45;&gt;30 -->
<g id="edge29" class="edge">
<title>29&#45;&gt;30</title>
<g id="a_edge29"><a xlink:title="include">
<path fill="none" stroke="#1414ce" d="M765.86,-731.82C816.99,-724.7 905.63,-709.73 978,-684 1027.29,-666.47 1080.2,-637.37 1114.13,-617.24"/>
<polygon fill="#1414ce" stroke="#1414ce" points="1115.97,-620.22 1122.75,-612.08 1112.37,-614.22 1115.97,-620.22"/>
</a>
</g>
</g>
<!-- 26&#45;&gt;16 -->
<g id="edge39" class="edge">
<title>26&#45;&gt;16</title>
<g id="a_edge39"><a xlink:title="include">
<path fill="none" stroke="#1414ce" d="M925.87,-300.36C840.35,-292.2 660.86,-274.05 510,-252 496.39,-250.01 481.74,-247.55 468.12,-245.12"/>
<polygon fill="#1414ce" stroke="#1414ce" points="468.4,-241.62 457.94,-243.28 467.16,-248.51 468.4,-241.62"/>
</a>
</g>
</g>
<!-- 26&#45;&gt;15 -->
<g id="edge37" class="edge">
<title>26&#45;&gt;15</title>
<g id="a_edge37"><a xlink:title="include">
<path fill="none" stroke="#1414ce" d="M925.88,-302.43C827.07,-296.8 610.83,-281.43 543,-252 520.14,-242.08 520.18,-230.63 500,-216 484.35,-204.65 466.26,-193.16 450.8,-183.8"/>
<polygon fill="#1414ce" stroke="#1414ce" points="452.42,-180.69 442.04,-178.55 448.82,-186.69 452.42,-180.69"/>
</a>
</g>
</g>
<!-- 26&#45;&gt;6 -->
<g id="edge35" class="edge">
<title>26&#45;&gt;6</title>
<g id="a_edge35"><a xlink:title="include">
<path fill="none" stroke="#1414ce" d="M970.44,-287.98C967.26,-277.67 963.43,-264.19 961,-252 951.71,-205.38 946.41,-150.19 943.88,-118.04"/>
<polygon fill="#1414ce" stroke="#1414ce" points="947.37,-117.77 943.12,-108.06 940.39,-118.3 947.37,-117.77"/>
</a>
</g>
</g>
<!-- 26&#45;&gt;22 -->
<g id="edge38" class="edge">
<title>26&#45;&gt;22</title>
<g id="a_edge38"><a xlink:title="include">
<path fill="none" stroke="#1414ce" d="M1003.4,-287.88C1017.91,-278.81 1035.92,-267.55 1051.59,-257.76"/>
<polygon fill="#1414ce" stroke="#1414ce" points="1053.87,-260.46 1060.5,-252.19 1050.16,-254.52 1053.87,-260.46"/>
</a>
</g>
</g>
<!-- 26&#45;&gt;9 -->
<g id="edge36" class="edge">
<title>26&#45;&gt;9</title>
<g id="a_edge36"><a xlink:title="include">
<path fill="none" stroke="#1414ce" d="M1026.33,-295.25C1060.2,-287.17 1104.9,-273.47 1140,-252 1167.56,-235.14 1192.98,-208.06 1209.53,-188.19"/>
<polygon fill="#1414ce" stroke="#1414ce" points="1212.46,-190.14 1216.06,-180.17 1207.04,-185.72 1212.46,-190.14"/>
</a>
</g>
</g>
<!-- 19&#45;&gt;8 -->
<g id="edge41" class="edge">
<title>19&#45;&gt;8</title>
<g id="a_edge41"><a xlink:title="include">
<path fill="none" stroke="#1414ce" d="M813.2,-448.28C776.16,-445.51 717.25,-434.82 688,-396 639.81,-332.05 700.97,-293.28 680,-216 670.52,-181.08 669.82,-167.13 642,-144 608.43,-116.09 560.16,-102.84 523.63,-96.57"/>
<polygon fill="#1414ce" stroke="#1414ce" points="524.09,-93.1 513.66,-94.99 522.99,-100.02 524.09,-93.1"/>
</a>
</g>
</g>
<!-- 19&#45;&gt;25 -->
<g id="edge47" class="edge">
<title>19&#45;&gt;25</title>
<g id="a_edge47"><a xlink:title="include">
<path fill="none" stroke="#1414ce" d="M824.49,-431.7C813.54,-422.88 800.05,-412.03 788.18,-402.47"/>
<polygon fill="#1414ce" stroke="#1414ce" points="790.24,-399.65 780.26,-396.1 785.86,-405.1 790.24,-399.65"/>
</a>
</g>
</g>
<!-- 19&#45;&gt;23 -->
<g id="edge48" class="edge">
<title>19&#45;&gt;23</title>
<g id="a_edge48"><a xlink:title="include">
<path fill="none" stroke="#1414ce" d="M845.58,-431.97C844.42,-384.29 841.11,-249.18 839.68,-190.63"/>
<polygon fill="#1414ce" stroke="#1414ce" points="843.17,-190.22 839.42,-180.31 836.17,-190.39 843.17,-190.22"/>
</a>
</g>
</g>
<!-- 19&#45;&gt;4 -->
<g id="edge42" class="edge">
<title>19&#45;&gt;4</title>
<g id="a_edge42"><a xlink:title="include">
<path fill="none" stroke="#1414ce" d="M878.75,-446.6C937.66,-441.53 1057.76,-427.51 1083,-396 1093,-383.51 1085.56,-375.79 1083,-360 1077.6,-326.7 1073.52,-318.44 1059,-288 1050.82,-270.86 1041.71,-270.11 1036,-252 1013.43,-180.48 1018.28,-90.48 1022.7,-46.18"/>
<polygon fill="#1414ce" stroke="#1414ce" points="1026.18,-46.5 1023.76,-36.19 1019.22,-45.76 1026.18,-46.5"/>
</a>
</g>
</g>
<!-- 19&#45;&gt;6 -->
<g id="edge44" class="edge">
<title>19&#45;&gt;6</title>
<g id="a_edge44"><a xlink:title="include">
<path fill="none" stroke="#1414ce" d="M878.75,-446.03C934.46,-440.21 1043.91,-425.28 1067,-396 1076.91,-383.44 1070.32,-375.65 1067,-360 1059.73,-325.74 1054.41,-317.15 1035,-288 1022.8,-269.68 1012.58,-270.72 1001,-252 993.7,-240.19 965.71,-160.1 951.06,-117.52"/>
<polygon fill="#1414ce" stroke="#1414ce" points="954.37,-116.37 947.81,-108.05 947.75,-118.64 954.37,-116.37"/>
</a>
</g>
</g>
<!-- 19&#45;&gt;22 -->
<g id="edge46" class="edge">
<title>19&#45;&gt;22</title>
<g id="a_edge46"><a xlink:title="include">
<path fill="none" stroke="#1414ce" d="M878.62,-448.12C947.72,-445.5 1105.23,-435.26 1138,-396 1149.48,-382.25 1138.15,-310.16 1129,-288 1124.87,-278 1118.33,-268.27 1111.68,-259.93"/>
<polygon fill="#1414ce" stroke="#1414ce" points="1114.2,-257.49 1105.07,-252.11 1108.85,-262.01 1114.2,-257.49"/>
</a>
</g>
</g>
<!-- 20 -->
<g id="node21" class="node">
<title>20</title>
<g id="a_node21"><a xlink:title="sys/types.h">
<polygon fill="#ffffff" stroke="black" points="966.5,-396 869.5,-396 869.5,-360 966.5,-360 966.5,-396"/>
<text text-anchor="middle" x="918" y="-374.3" font-family="Times,serif" font-size="14.00">sys/types.h</text>
</a>
</g>
</g>
<!-- 19&#45;&gt;20 -->
<g id="edge40" class="edge">
<title>19&#45;&gt;20</title>
<g id="a_edge40"><a xlink:title="include">
<path fill="none" stroke="#1414ce" d="M863.8,-431.7C872.6,-423.14 883.38,-412.66 893,-403.3"/>
<polygon fill="#1414ce" stroke="#1414ce" points="895.68,-405.58 900.41,-396.1 890.8,-400.57 895.68,-405.58"/>
</a>
</g>
</g>
<!-- 21 -->
<g id="node22" class="node">
<title>21</title>
<g id="a_node22"><a xlink:title="string.h">
<polygon fill="#ffffff" stroke="black" points="1057.5,-396 984.5,-396 984.5,-360 1057.5,-360 1057.5,-396"/>
<text text-anchor="middle" x="1021" y="-374.3" font-family="Times,serif" font-size="14.00">string.h</text>
</a>
</g>
</g>
<!-- 19&#45;&gt;21 -->
<g id="edge45" class="edge">
<title>19&#45;&gt;21</title>
<g id="a_edge45"><a xlink:title="include">
<path fill="none" stroke="#1414ce" d="M878.51,-436C905.62,-425.15 944.58,-409.57 974.92,-397.43"/>
<polygon fill="#1414ce" stroke="#1414ce" points="976.45,-400.59 984.43,-393.63 973.85,-394.09 976.45,-400.59"/>
</a>
</g>
</g>
<!-- 19&#45;&gt;10 -->
<g id="edge49" class="edge">
<title>19&#45;&gt;10</title>
<g id="a_edge49"><a xlink:title="include">
<path fill="none" stroke="#1414ce" d="M878.72,-446.9C948.66,-441.87 1109.97,-427.12 1154,-396 1243.86,-332.49 1247.21,-286.47 1275,-180 1279.04,-164.52 1282.49,-158.14 1275,-144 1268.4,-131.54 1257.42,-121.47 1245.75,-113.59"/>
<polygon fill="#1414ce" stroke="#1414ce" points="1247.52,-110.56 1237.18,-108.23 1243.8,-116.5 1247.52,-110.56"/>
</a>
</g>
</g>
<!-- 19&#45;&gt;17 -->
<g id="edge43" class="edge">
<title>19&#45;&gt;17</title>
<g id="a_edge43"><a xlink:title="include">
<path fill="none" stroke="#1414ce" d="M813.23,-447.83C777.69,-444.6 722.47,-433.43 696,-396 686.76,-382.94 694.3,-375.91 696,-360 697.29,-347.88 733.4,-184.04 747.98,-118.16"/>
<polygon fill="#1414ce" stroke="#1414ce" points="751.46,-118.63 750.21,-108.11 744.63,-117.11 751.46,-118.63"/>
</a>
</g>
</g>
<!-- 9&#45;&gt;10 -->
<g id="edge50" class="edge">
<title>9&#45;&gt;10</title>
<g id="a_edge50"><a xlink:title="include">
<path fill="none" stroke="#1414ce" d="M1221.09,-143.7C1217.45,-135.73 1213.05,-126.1 1209.01,-117.26"/>
<polygon fill="#1414ce" stroke="#1414ce" points="1212.16,-115.74 1204.82,-108.1 1205.79,-118.65 1212.16,-115.74"/>
</a>
</g>
</g>
<!-- 31&#45;&gt;19 -->
<g id="edge51" class="edge">
<title>31&#45;&gt;19</title>
<g id="a_edge51"><a xlink:title="include">
<path fill="none" stroke="#1414ce" d="M942.73,-575.87C923.49,-551.03 887.71,-504.85 865.48,-476.14"/>
<polygon fill="#1414ce" stroke="#1414ce" points="868.21,-473.95 859.32,-468.19 862.67,-478.24 868.21,-473.95"/>
</a>
</g>
</g>
<!-- 12 -->
<g id="node19" class="node">
<title>12</title>
<g id="a_node19"><a xlink:title="limits.h">
<polygon fill="#ffffff" stroke="black" points="1151.5,-36 1080.5,-36 1080.5,0 1151.5,0 1151.5,-36"/>
<text text-anchor="middle" x="1116" y="-14.3" font-family="Times,serif" font-size="14.00">limits.h</text>
</a>
</g>
</g>
<!-- 7&#45;&gt;8 -->
<g id="edge52" class="edge">
<title>7&#45;&gt;8</title>
<g id="a_edge52"><a xlink:title="include">
<path fill="none" stroke="#1414ce" d="M749.29,-503.8C725.28,-481.58 685.65,-440.42 667,-396 635.84,-321.78 687.44,-285.6 647,-216 618.75,-167.38 563.17,-132.7 522.19,-112.39"/>
<polygon fill="#1414ce" stroke="#1414ce" points="523.69,-109.23 513.17,-108.03 520.65,-115.53 523.69,-109.23"/>
</a>
</g>
</g>
<!-- 7&#45;&gt;5 -->
<g id="edge53" class="edge">
<title>7&#45;&gt;5</title>
<g id="a_edge53"><a xlink:title="include">
<path fill="none" stroke="#1414ce" d="M823.59,-512.76C916.84,-498.7 1104.95,-470.32 1189.78,-457.52"/>
<polygon fill="#1414ce" stroke="#1414ce" points="1190.47,-460.96 1199.84,-456 1189.43,-454.03 1190.47,-460.96"/>
</a>
</g>
</g>
<!-- 10&#45;&gt;11 -->
<g id="edge54" class="edge">
<title>10&#45;&gt;11</title>
<g id="a_edge54"><a xlink:title="include">
<path fill="none" stroke="#1414ce" d="M1225.62,-71.88C1240.92,-62.72 1259.94,-51.34 1276.42,-41.48"/>
<polygon fill="#1414ce" stroke="#1414ce" points="1278.48,-44.33 1285.27,-36.19 1274.89,-38.32 1278.48,-44.33"/>
</a>
</g>
</g>
<!-- 10&#45;&gt;4 -->
<g id="edge57" class="edge">
<title>10&#45;&gt;4</title>
<g id="a_edge57"><a xlink:title="include">
<path fill="none" stroke="#1414ce" d="M1155.17,-71.88C1129.81,-61.49 1097.44,-48.24 1071.45,-37.6"/>
<polygon fill="#1414ce" stroke="#1414ce" points="1072.77,-34.36 1062.19,-33.81 1070.11,-40.84 1072.77,-34.36"/>
</a>
</g>
</g>
<!-- 10&#45;&gt;12 -->
<g id="edge55" class="edge">
<title>10&#45;&gt;12</title>
<g id="a_edge55"><a xlink:title="include">
<path fill="none" stroke="#1414ce" d="M1176.98,-71.7C1166.87,-62.97 1154.46,-52.24 1143.48,-42.75"/>
<polygon fill="#1414ce" stroke="#1414ce" points="1145.65,-39.99 1135.79,-36.1 1141.07,-45.29 1145.65,-39.99"/>
</a>
</g>
</g>
<!-- 13 -->
<g id="node32" class="node">
<title>13</title>
<g id="a_node32"><a xlink:title="inttypes.h">
<polygon fill="#ffffff" stroke="black" points="1258.5,-36 1169.5,-36 1169.5,0 1258.5,0 1258.5,-36"/>
<text text-anchor="middle" x="1214" y="-14.3" font-family="Times,serif" font-size="14.00">inttypes.h</text>
</a>
</g>
</g>
<!-- 10&#45;&gt;13 -->
<g id="edge56" class="edge">
<title>10&#45;&gt;13</title>
<g id="a_edge56"><a xlink:title="include">
<path fill="none" stroke="#1414ce" d="M1201.2,-71.7C1203.1,-63.9 1205.38,-54.51 1207.48,-45.83"/>
<polygon fill="#1414ce" stroke="#1414ce" points="1210.89,-46.65 1209.85,-36.1 1204.08,-45 1210.89,-46.65"/>
</a>
</g>
</g>
<!-- 3&#45;&gt;5 -->
<g id="edge59" class="edge">
<title>3&#45;&gt;5</title>
<g id="a_edge59"><a xlink:title="include">
<path fill="none" stroke="#1414ce" d="M581.53,-583.31C645.27,-573.35 746.19,-556.95 833,-540 963.71,-514.48 1117.14,-478.69 1190.17,-461.3"/>
<polygon fill="#1414ce" stroke="#1414ce" points="1191.02,-464.7 1199.93,-458.97 1189.4,-457.89 1191.02,-464.7"/>
</a>
</g>
</g>
<!-- 3&#45;&gt;16 -->
<g id="edge66" class="edge">
<title>3&#45;&gt;16</title>
<g id="a_edge66"><a xlink:title="include">
<path fill="none" stroke="#1414ce" d="M505.28,-575.62C487.66,-549.81 458,-499.17 458,-451 458,-451 458,-451 458,-377 458,-335.29 440.8,-289.54 428.16,-261.54"/>
<polygon fill="#1414ce" stroke="#1414ce" points="431.3,-260.01 423.91,-252.42 424.95,-262.96 431.3,-260.01"/>
</a>
</g>
</g>
<!-- 3&#45;&gt;15 -->
<g id="edge63" class="edge">
<title>3&#45;&gt;15</title>
<g id="a_edge63"><a xlink:title="include">
<path fill="none" stroke="#1414ce" d="M454.31,-586.24C423.28,-579.55 388.19,-566.27 367,-540 321.72,-483.87 315.59,-279.9 349,-216 355.9,-202.8 367.69,-191.74 379.41,-183.2"/>
<polygon fill="#1414ce" stroke="#1414ce" points="381.58,-185.96 387.86,-177.43 377.63,-180.17 381.58,-185.96"/>
</a>
</g>
</g>
<!-- 3&#45;&gt;4 -->
<g id="edge58" class="edge">
<title>3&#45;&gt;4</title>
<g id="a_edge58"><a xlink:title="include">
<path fill="none" stroke="#1414ce" d="M581.65,-589.57C785.35,-577.75 1408,-534.76 1408,-451 1408,-451 1408,-451 1408,-161 1408,-114.73 1392.8,-97.21 1354,-72 1248.05,-3.16 1194.71,-66.09 1072,-36 1071.9,-35.98 1071.8,-35.95 1071.7,-35.93"/>
<polygon fill="#1414ce" stroke="#1414ce" points="1072.75,-32.58 1062.17,-33.23 1070.84,-39.32 1072.75,-32.58"/>
</a>
</g>
</g>
<!-- 3&#45;&gt;19 -->
<g id="edge67" class="edge">
<title>3&#45;&gt;19</title>
<g id="a_edge67"><a xlink:title="include">
<path fill="none" stroke="#1414ce" d="M528.06,-575.95C541.07,-555.51 565.69,-521.76 596,-504 661.36,-465.7 750.74,-454.91 803.03,-451.98"/>
<polygon fill="#1414ce" stroke="#1414ce" points="803.47,-455.46 813.29,-451.47 803.13,-448.47 803.47,-455.46"/>
</a>
</g>
</g>
<!-- 3&#45;&gt;9 -->
<g id="edge61" class="edge">
<title>3&#45;&gt;9</title>
<g id="a_edge61"><a xlink:title="include">
<path fill="none" stroke="#1414ce" d="M547.8,-575.93C583.92,-555.94 647.14,-523.13 705,-504 914.27,-434.83 1038.28,-556.81 1189,-396 1242.36,-339.07 1238.53,-238.19 1233.02,-190.04"/>
<polygon fill="#1414ce" stroke="#1414ce" points="1236.48,-189.54 1231.76,-180.06 1229.54,-190.42 1236.48,-189.54"/>
</a>
</g>
</g>
<!-- 3&#45;&gt;7 -->
<g id="edge60" class="edge">
<title>3&#45;&gt;7</title>
<g id="a_edge60"><a xlink:title="include">
<path fill="none" stroke="#1414ce" d="M579.08,-575.97C617.04,-565.38 665.8,-551.78 704.4,-541.01"/>
<polygon fill="#1414ce" stroke="#1414ce" points="705.8,-544.26 714.5,-538.2 703.92,-537.52 705.8,-544.26"/>
</a>
</g>
</g>
<!-- 3&#45;&gt;18 -->
<g id="edge65" class="edge">
<title>3&#45;&gt;18</title>
<g id="a_edge65"><a xlink:title="include">
<path fill="none" stroke="#1414ce" d="M454.36,-591.28C403.77,-587.11 333.22,-574.82 282,-540 236.96,-509.38 138.53,-400.98 95,-252 90.51,-236.64 90.01,-231.2 95,-216 98.31,-205.91 104.37,-196.15 110.73,-187.82"/>
<polygon fill="#1414ce" stroke="#1414ce" points="113.5,-189.97 117.11,-180.01 108.08,-185.54 113.5,-189.97"/>
</a>
</g>
</g>
<!-- 3&#45;&gt;28 -->
<g id="edge68" class="edge">
<title>3&#45;&gt;28</title>
<g id="a_edge68"><a xlink:title="include">
<path fill="none" stroke="#1414ce" d="M454.18,-585.14C415.7,-578.04 367.1,-564.73 330,-540 262.08,-494.72 256.65,-466.78 216,-396 190.51,-351.61 171.02,-294.91 160.85,-262.01"/>
<polygon fill="#1414ce" stroke="#1414ce" points="164.13,-260.76 157.88,-252.2 157.43,-262.79 164.13,-260.76"/>
</a>
</g>
</g>
<!-- 3&#45;&gt;27 -->
<g id="edge64" class="edge">
<title>3&#45;&gt;27</title>
<g id="a_edge64"><a xlink:title="include">
<path fill="none" stroke="#1414ce" d="M521.24,-575.58C525.91,-548.87 534,-496.15 534,-451 534,-451 534,-451 534,-377 534,-333.61 558.34,-288.37 576.27,-260.94"/>
<polygon fill="#1414ce" stroke="#1414ce" points="579.38,-262.59 582.06,-252.34 573.57,-258.68 579.38,-262.59"/>
</a>
</g>
</g>
<!-- 14 -->
<g id="node31" class="node">
<title>14</title>
<g id="a_node31"><a xlink:title="ets.h">
<polygon fill="#ffffff" stroke="black" points="430,-540 376,-540 376,-504 430,-504 430,-540"/>
<text text-anchor="middle" x="403" y="-518.3" font-family="Times,serif" font-size="14.00">ets.h</text>
</a>
</g>
</g>
<!-- 3&#45;&gt;14 -->
<g id="edge62" class="edge">
<title>3&#45;&gt;14</title>
<g id="a_edge62"><a xlink:title="include">
<path fill="none" stroke="#1414ce" d="M489.87,-575.88C474.49,-566.52 455.29,-554.83 438.86,-544.83"/>
<polygon fill="#1414ce" stroke="#1414ce" points="440.41,-541.67 430.05,-539.47 436.77,-547.65 440.41,-541.67"/>
</a>
</g>
</g>
<!-- 18&#45;&gt;8 -->
<g id="edge69" class="edge">
<title>18&#45;&gt;8</title>
<g id="a_edge69"><a xlink:title="include">
<path fill="none" stroke="#1414ce" d="M164.04,-148.53C168.67,-146.86 173.43,-145.28 178,-144 261.15,-120.67 360.5,-105.27 419.81,-97.35"/>
<polygon fill="#1414ce" stroke="#1414ce" points="420.59,-100.78 430.05,-96.01 419.68,-93.84 420.59,-100.78"/>
</a>
</g>
</g>
<!-- 30&#45;&gt;5 -->
<g id="edge70" class="edge">
<title>30&#45;&gt;5</title>
<g id="a_edge70"><a xlink:title="include">
<path fill="none" stroke="#1414ce" d="M1160.01,-575.87C1174.41,-551.24 1201.06,-505.64 1217.87,-476.88"/>
<polygon fill="#1414ce" stroke="#1414ce" points="1220.93,-478.59 1222.95,-468.19 1214.88,-475.06 1220.93,-478.59"/>
</a>
</g>
</g>
<!-- 1 -->
<g id="node27" class="node">
<title>1</title>
<g id="a_node27"><a xlink:title="/__w/AtomVM/AtomVM/src/libAtomVM/stacktrace.h">
<polygon fill="#bfbfbf" stroke="black" points="838.5,-828 457.5,-828 457.5,-792 838.5,-792 838.5,-828"/>
<text text-anchor="middle" x="648" y="-806.3" font-family="Times,serif" font-size="14.00">/__w/AtomVM/AtomVM/src/libAtomVM/stacktrace.h</text>
</a>
</g>
</g>
<!-- 1&#45;&gt;2 -->
<g id="edge71" class="edge">
<title>1&#45;&gt;2</title>
<g id="a_edge71"><a xlink:title="include">
<path fill="none" stroke="#1414ce" d="M595.65,-791.87C511.81,-764.44 348.42,-710.98 265.27,-683.77"/>
<polygon fill="#1414ce" stroke="#1414ce" points="266.13,-680.37 255.54,-680.59 263.95,-687.03 266.13,-680.37"/>
</a>
</g>
</g>
<!-- 1&#45;&gt;29 -->
<g id="edge72" class="edge">
<title>1&#45;&gt;29</title>
<g id="a_edge72"><a xlink:title="include">
<path fill="none" stroke="#1414ce" d="M666.79,-791.7C676.17,-783.05 687.68,-772.45 697.91,-763.03"/>
<polygon fill="#1414ce" stroke="#1414ce" points="700.45,-765.45 705.43,-756.1 695.7,-760.3 700.45,-765.45"/>
</a>
</g>
</g>
<!-- 1&#45;&gt;19 -->
<g id="edge73" class="edge">
<title>1&#45;&gt;19</title>
<g id="a_edge73"><a xlink:title="include">
<path fill="none" stroke="#1414ce" d="M648,-791.95C648,-765.29 648,-712.11 648,-667 648,-667 648,-667 648,-593 648,-546.03 668.49,-533.55 705,-504 733.67,-480.8 773.56,-467.07 803.59,-459.43"/>
<polygon fill="#1414ce" stroke="#1414ce" points="804.47,-462.81 813.37,-457.06 802.83,-456.01 804.47,-462.81"/>
</a>
</g>
</g>
<!-- 28&#45;&gt;8 -->
<g id="edge74" class="edge">
<title>28&#45;&gt;8</title>
<g id="a_edge74"><a xlink:title="include">
<path fill="none" stroke="#1414ce" d="M160.27,-215.94C169.9,-195.48 188.91,-161.73 216,-144 278.08,-103.37 365.26,-93.02 420.17,-90.84"/>
<polygon fill="#1414ce" stroke="#1414ce" points="420.49,-94.34 430.37,-90.52 420.26,-87.34 420.49,-94.34"/>
</a>
</g>
</g>
<!-- 28&#45;&gt;15 -->
<g id="edge76" class="edge">
<title>28&#45;&gt;15</title>
<g id="a_edge76"><a xlink:title="include">
<path fill="none" stroke="#1414ce" d="M202.28,-219.83C253.41,-206.17 332.19,-185.13 378.16,-172.84"/>
<polygon fill="#1414ce" stroke="#1414ce" points="379.24,-176.18 388,-170.21 377.44,-169.41 379.24,-176.18"/>
</a>
</g>
</g>
<!-- 28&#45;&gt;4 -->
<g id="edge75" class="edge">
<title>28&#45;&gt;4</title>
<g id="a_edge75"><a xlink:title="include">
<path fill="none" stroke="#1414ce" d="M128.57,-215.91C105.19,-197.47 76.06,-167.58 95,-144 151.2,-74.03 799.04,-31.97 979.56,-21.56"/>
<polygon fill="#1414ce" stroke="#1414ce" points="980,-25.04 989.78,-20.97 979.6,-18.05 980,-25.04"/>
</a>
</g>
</g>
<!-- 27&#45;&gt;8 -->
<g id="edge77" class="edge">
<title>27&#45;&gt;8</title>
<g id="a_edge77"><a xlink:title="include">
<path fill="none" stroke="#1414ce" d="M580.16,-215.87C558.55,-190.92 518.3,-144.45 493.46,-115.77"/>
<polygon fill="#1414ce" stroke="#1414ce" points="496.08,-113.46 486.89,-108.19 490.79,-118.04 496.08,-113.46"/>
</a>
</g>
</g>
<!-- 27&#45;&gt;23 -->
<g id="edge80" class="edge">
<title>27&#45;&gt;23</title>
<g id="a_edge80"><a xlink:title="include">
<path fill="none" stroke="#1414ce" d="M638.06,-220.65C683.25,-207.68 753.75,-187.46 798.1,-174.73"/>
<polygon fill="#1414ce" stroke="#1414ce" points="799.32,-178.02 807.97,-171.9 797.39,-171.3 799.32,-178.02"/>
</a>
</g>
</g>
<!-- 27&#45;&gt;15 -->
<g id="edge78" class="edge">
<title>27&#45;&gt;15</title>
<g id="a_edge78"><a xlink:title="include">
<path fill="none" stroke="#1414ce" d="M551.89,-216.23C521.24,-204.31 480.52,-188.48 451.48,-177.19"/>
<polygon fill="#1414ce" stroke="#1414ce" points="452.7,-173.91 442.11,-173.54 450.16,-180.43 452.7,-173.91"/>
</a>
</g>
</g>
<!-- 27&#45;&gt;10 -->
<g id="edge79" class="edge">
<title>27&#45;&gt;10</title>
<g id="a_edge79"><a xlink:title="include">
<path fill="none" stroke="#1414ce" d="M638.07,-226.18C693.92,-217.06 794.24,-199.73 879,-180 967.38,-159.43 1068.04,-130.27 1132,-111.01"/>
<polygon fill="#1414ce" stroke="#1414ce" points="1133.39,-114.25 1141.95,-108.01 1131.36,-107.55 1133.39,-114.25"/>
</a>
</g>
</g>
<!-- 14&#45;&gt;16 -->
<g id="edge82" class="edge">
<title>14&#45;&gt;16</title>
<g id="a_edge82"><a xlink:title="include">
<path fill="none" stroke="#1414ce" d="M403.71,-503.97C405.72,-456.29 411.38,-321.18 413.84,-262.63"/>
<polygon fill="#1414ce" stroke="#1414ce" points="417.35,-262.44 414.27,-252.31 410.36,-262.15 417.35,-262.44"/>
</a>
</g>
</g>
<!-- 14&#45;&gt;15 -->
<g id="edge81" class="edge">
<title>14&#45;&gt;15</title>
<g id="a_edge81"><a xlink:title="include">
<path fill="none" stroke="#1414ce" d="M394.88,-503.7C373.65,-455.91 320.98,-318.83 363,-216 367.49,-205.02 375.47,-195.08 383.85,-186.86"/>
<polygon fill="#1414ce" stroke="#1414ce" points="386.24,-189.42 391.25,-180.09 381.51,-184.26 386.24,-189.42"/>
</a>
</g>
</g>
<!-- 14&#45;&gt;19 -->
<g id="edge83" class="edge">
<title>14&#45;&gt;19</title>
<g id="a_edge83"><a xlink:title="include">
<path fill="none" stroke="#1414ce" d="M430.04,-516.73C504.57,-504.95 713.33,-471.96 803.56,-457.71"/>
<polygon fill="#1414ce" stroke="#1414ce" points="804.12,-461.16 813.45,-456.14 803.03,-454.25 804.12,-461.16"/>
</a>
</g>
</g>
</g>
</svg>
