<?xml version="1.0" encoding="UTF-8" standalone="no"?>
<!DOCTYPE svg PUBLIC "-//W3C//DTD SVG 1.1//EN"
 "http://www.w3.org/Graphics/SVG/1.1/DTD/svg11.dtd">
<!-- Generated by graphviz version 2.43.0 (0)
 -->
<!-- Title: %3 Pages: 1 -->
<svg width="1307pt" height="476pt"
 viewBox="0.00 0.00 1306.50 476.00" xmlns="http://www.w3.org/2000/svg" xmlns:xlink="http://www.w3.org/1999/xlink">
<g id="graph0" class="graph" transform="scale(1 1) rotate(0) translate(4 472)">
<title>%3</title>
<polygon fill="transparent" stroke="transparent" points="-4,4 -4,-472 1302.5,-472 1302.5,4 -4,4"/>
<!-- 22 -->
<g id="node1" class="node">
<title>22</title>
<g id="a_node1"><a xlink:title="SpinLock">
<polygon fill="#ffffff" stroke="black" points="954,-324 872,-324 872,-288 954,-288 954,-324"/>
<text text-anchor="middle" x="913" y="-302.3" font-family="Times,serif" font-size="14.00">SpinLock</text>
</a>
</g>
</g>
<!-- 16 -->
<g id="node2" class="node">
<title>16</title>
<g id="a_node2"><a xlink:title="ResourceType">
<polygon fill="#ffffff" stroke="black" points="507.5,-180 390.5,-180 390.5,-144 507.5,-144 507.5,-180"/>
<text text-anchor="middle" x="449" y="-158.3" font-family="Times,serif" font-size="14.00">ResourceType</text>
</a>
</g>
</g>
<!-- 3 -->
<g id="node4" class="node">
<title>3</title>
<g id="a_node4"><a xlink:title="ListHead">
<polygon fill="#ffffff" stroke="black" points="443.5,-36 362.5,-36 362.5,0 443.5,0 443.5,-36"/>
<text text-anchor="middle" x="403" y="-14.3" font-family="Times,serif" font-size="14.00">ListHead</text>
</a>
</g>
</g>
<!-- 16&#45;&gt;3 -->
<g id="edge3" class="edge">
<title>16&#45;&gt;3</title>
<g id="a_edge3"><a xlink:title="usage">
<path fill="none" stroke="#1414ce" d="M438.81,-143.84C433.17,-133.71 426.42,-120.46 422,-108 414.84,-87.8 409.93,-64.03 406.9,-46.13"/>
<polygon fill="#1414ce" stroke="#1414ce" points="410.33,-45.41 405.29,-36.09 403.42,-46.52 410.33,-45.41"/>
</a>
</g>
</g>
<!-- 4 -->
<g id="node7" class="node">
<title>4</title>
<g id="a_node7"><a xlink:title="GlobalContext">
<polygon fill="#ffffff" stroke="black" points="652.5,-396 533.5,-396 533.5,-360 652.5,-360 652.5,-396"/>
<text text-anchor="middle" x="593" y="-374.3" font-family="Times,serif" font-size="14.00">GlobalContext</text>
</a>
</g>
</g>
<!-- 16&#45;&gt;4 -->
<g id="edge2" class="edge">
<title>16&#45;&gt;4</title>
<g id="a_edge2"><a xlink:title="usage">
<path fill="none" stroke="#1414ce" d="M453.62,-180.04C462.7,-211.19 485.25,-278.33 522,-324 531.23,-335.48 543.49,-345.78 555.22,-354.19"/>
<polygon fill="#1414ce" stroke="#1414ce" points="553.4,-357.18 563.62,-359.96 557.37,-351.41 553.4,-357.18"/>
</a>
</g>
</g>
<!-- 6 -->
<g id="node21" class="node">
<title>6</title>
<g id="a_node21"><a xlink:title="SyncList">
<polygon fill="#ffffff" stroke="black" points="613,-108 535,-108 535,-72 613,-72 613,-108"/>
<text text-anchor="middle" x="574" y="-86.3" font-family="Times,serif" font-size="14.00">SyncList</text>
</a>
</g>
</g>
<!-- 16&#45;&gt;6 -->
<g id="edge1" class="edge">
<title>16&#45;&gt;6</title>
<g id="a_edge1"><a xlink:title="usage">
<path fill="none" stroke="#1414ce" d="M479.58,-143.88C496.07,-134.64 516.62,-123.13 534.34,-113.21"/>
<polygon fill="#1414ce" stroke="#1414ce" points="536.29,-116.13 543.3,-108.19 532.87,-110.02 536.29,-116.13"/>
</a>
</g>
</g>
<!-- 17 -->
<g id="node3" class="node">
<title>17</title>
<g id="a_node3"><a xlink:title="Module">
<polygon fill="#ffffff" stroke="black" points="259,-324 189,-324 189,-288 259,-288 259,-324"/>
<text text-anchor="middle" x="224" y="-302.3" font-family="Times,serif" font-size="14.00">Module</text>
</a>
</g>
</g>
<!-- 17&#45;&gt;3 -->
<g id="edge6" class="edge">
<title>17&#45;&gt;3</title>
<g id="a_edge6"><a xlink:title="usage">
<path fill="none" stroke="#1414ce" d="M259.07,-288.29C274.82,-279.35 292.62,-267.06 305,-252 359.84,-185.33 343.35,-151.07 378,-72 381.86,-63.2 386.27,-53.68 390.31,-45.16"/>
<polygon fill="#1414ce" stroke="#1414ce" points="393.5,-46.61 394.65,-36.08 387.18,-43.59 393.5,-46.61"/>
</a>
</g>
</g>
<!-- 19 -->
<g id="node11" class="node">
<title>19</title>
<g id="a_node11"><a xlink:title="LiteralEntry">
<polygon fill="#ffffff" stroke="black" points="132,-252 28,-252 28,-216 132,-216 132,-252"/>
<text text-anchor="middle" x="80" y="-230.3" font-family="Times,serif" font-size="14.00">LiteralEntry</text>
</a>
</g>
</g>
<!-- 17&#45;&gt;19 -->
<g id="edge5" class="edge">
<title>17&#45;&gt;19</title>
<g id="a_edge5"><a xlink:title="usage">
<path fill="none" stroke="#1414ce" d="M188.77,-287.88C169.42,-278.47 145.23,-266.71 124.57,-256.67"/>
<polygon fill="#1414ce" stroke="#1414ce" points="125.89,-253.41 115.36,-252.19 122.83,-259.71 125.89,-253.41"/>
</a>
</g>
</g>
<!-- 18 -->
<g id="node20" class="node">
<title>18</title>
<g id="a_node20"><a xlink:title="ExportedFunction">
<polygon fill="#ffffff" stroke="black" points="296,-252 150,-252 150,-216 296,-216 296,-252"/>
<text text-anchor="middle" x="223" y="-230.3" font-family="Times,serif" font-size="14.00">ExportedFunction</text>
</a>
</g>
</g>
<!-- 17&#45;&gt;18 -->
<g id="edge4" class="edge">
<title>17&#45;&gt;18</title>
<g id="a_edge4"><a xlink:title="usage">
<path fill="none" stroke="#1414ce" d="M223.75,-287.7C223.64,-279.98 223.51,-270.71 223.39,-262.11"/>
<polygon fill="#1414ce" stroke="#1414ce" points="226.89,-262.05 223.24,-252.1 219.89,-262.15 226.89,-262.05"/>
</a>
</g>
</g>
<!-- 3&#45;&gt;3 -->
<g id="edge7" class="edge">
<title>3&#45;&gt;3</title>
<g id="a_edge7"><a xlink:title="usage">
<path fill="none" stroke="#1414ce" d="M443.73,-31.31C453.9,-30.38 461.5,-25.95 461.5,-18 461.5,-12.91 458.38,-9.26 453.47,-7.05"/>
<polygon fill="#1414ce" stroke="#1414ce" points="454.28,-3.64 443.73,-4.69 452.63,-10.45 454.28,-3.64"/>
</a>
</g>
</g>
<!-- 12 -->
<g id="node5" class="node">
<title>12</title>
<g id="a_node5"><a xlink:title="HeapFragment">
<polygon fill="#ffffff" stroke="black" points="1280.5,-36 1155.5,-36 1155.5,0 1280.5,0 1280.5,-36"/>
<text text-anchor="middle" x="1218" y="-14.3" font-family="Times,serif" font-size="14.00">HeapFragment</text>
</a>
</g>
</g>
<!-- 12&#45;&gt;12 -->
<g id="edge8" class="edge">
<title>12&#45;&gt;12</title>
<g id="a_edge8"><a xlink:title="usage">
<path fill="none" stroke="#1414ce" d="M1280.78,-30.55C1291.26,-28.79 1298.5,-24.61 1298.5,-18 1298.5,-13.77 1295.53,-10.53 1290.64,-8.29"/>
<polygon fill="#1414ce" stroke="#1414ce" points="1291.36,-4.85 1280.78,-5.45 1289.42,-11.58 1291.36,-4.85"/>
</a>
</g>
</g>
<!-- 14 -->
<g id="node6" class="node">
<title>14</title>
<g id="a_node6"><a xlink:title="RefcBinaryQueueItem">
<polygon fill="#ffffff" stroke="black" points="452,-324 278,-324 278,-288 452,-288 452,-324"/>
<text text-anchor="middle" x="365" y="-302.3" font-family="Times,serif" font-size="14.00">RefcBinaryQueueItem</text>
</a>
</g>
</g>
<!-- 14&#45;&gt;14 -->
<g id="edge10" class="edge">
<title>14&#45;&gt;14</title>
<g id="a_edge10"><a xlink:title="usage">
<path fill="none" stroke="#1414ce" d="M452.3,-317.68C462.99,-315.59 470,-311.7 470,-306 470,-302.35 467.12,-299.44 462.25,-297.27"/>
<polygon fill="#1414ce" stroke="#1414ce" points="462.88,-293.81 452.3,-294.32 460.89,-300.52 462.88,-293.81"/>
</a>
</g>
</g>
<!-- 15 -->
<g id="node16" class="node">
<title>15</title>
<g id="a_node16"><a xlink:title="RefcBinary">
<polygon fill="#ffffff" stroke="black" points="447.5,-252 352.5,-252 352.5,-216 447.5,-216 447.5,-252"/>
<text text-anchor="middle" x="400" y="-230.3" font-family="Times,serif" font-size="14.00">RefcBinary</text>
</a>
</g>
</g>
<!-- 14&#45;&gt;15 -->
<g id="edge9" class="edge">
<title>14&#45;&gt;15</title>
<g id="a_edge9"><a xlink:title="usage">
<path fill="none" stroke="#1414ce" d="M373.65,-287.7C377.64,-279.73 382.45,-270.1 386.87,-261.26"/>
<polygon fill="#1414ce" stroke="#1414ce" points="390.11,-262.61 391.45,-252.1 383.85,-259.48 390.11,-262.61"/>
</a>
</g>
</g>
<!-- 4&#45;&gt;22 -->
<g id="edge19" class="edge">
<title>4&#45;&gt;22</title>
<g id="a_edge19"><a xlink:title="usage">
<path fill="none" stroke="#1414ce" d="M652.59,-366.88C706.56,-357.29 788.08,-341.75 858,-324 859.42,-323.64 860.86,-323.26 862.32,-322.88"/>
<polygon fill="#1414ce" stroke="#1414ce" points="863.29,-326.24 871.98,-320.18 861.41,-319.49 863.29,-326.24"/>
</a>
</g>
</g>
<!-- 4&#45;&gt;17 -->
<g id="edge16" class="edge">
<title>4&#45;&gt;17</title>
<g id="a_edge16"><a xlink:title="usage">
<path fill="none" stroke="#1414ce" d="M533.42,-370.86C467.85,-363.27 359.71,-348.29 269,-324 268.9,-323.97 268.8,-323.95 268.7,-323.92"/>
<polygon fill="#1414ce" stroke="#1414ce" points="269.74,-320.58 259.16,-321.04 267.72,-327.28 269.74,-320.58"/>
</a>
</g>
</g>
<!-- 4&#45;&gt;3 -->
<g id="edge20" class="edge">
<title>4&#45;&gt;3</title>
<g id="a_edge20"><a xlink:title="usage">
<path fill="none" stroke="#1414ce" d="M533.43,-375.32C383.05,-369.48 0,-343.91 0,-235 0,-235 0,-235 0,-161 0,-87.16 243.71,-42.29 352.09,-25.99"/>
<polygon fill="#1414ce" stroke="#1414ce" points="352.76,-29.43 362.14,-24.5 351.74,-22.5 352.76,-29.43"/>
</a>
</g>
</g>
<!-- 4&#45;&gt;14 -->
<g id="edge14" class="edge">
<title>4&#45;&gt;14</title>
<g id="a_edge14"><a xlink:title="usage">
<path fill="none" stroke="#1414ce" d="M537.52,-359.97C505.24,-350.06 464.39,-337.51 430.54,-327.12"/>
<polygon fill="#1414ce" stroke="#1414ce" points="431.32,-323.7 420.73,-324.11 429.26,-330.39 431.32,-323.7"/>
</a>
</g>
</g>
<!-- 5 -->
<g id="node8" class="node">
<title>5</title>
<g id="a_node8"><a xlink:title="Ets">
<polygon fill="#ffffff" stroke="black" points="656,-180 602,-180 602,-144 656,-144 656,-180"/>
<text text-anchor="middle" x="629" y="-158.3" font-family="Times,serif" font-size="14.00">Ets</text>
</a>
</g>
</g>
<!-- 4&#45;&gt;5 -->
<g id="edge11" class="edge">
<title>4&#45;&gt;5</title>
<g id="a_edge11"><a xlink:title="usage">
<path fill="none" stroke="#1414ce" d="M595.89,-359.85C602.13,-322.75 616.92,-234.81 624.44,-190.1"/>
<polygon fill="#1414ce" stroke="#1414ce" points="627.89,-190.67 626.1,-180.23 620.99,-189.51 627.89,-190.67"/>
</a>
</g>
</g>
<!-- 21 -->
<g id="node10" class="node">
<title>21</title>
<g id="a_node10"><a xlink:title="TimerList">
<polygon fill="#ffffff" stroke="black" points="517,-108 431,-108 431,-72 517,-72 517,-108"/>
<text text-anchor="middle" x="474" y="-86.3" font-family="Times,serif" font-size="14.00">TimerList</text>
</a>
</g>
</g>
<!-- 4&#45;&gt;21 -->
<g id="edge18" class="edge">
<title>4&#45;&gt;21</title>
<g id="a_edge18"><a xlink:title="usage">
<path fill="none" stroke="#1414ce" d="M589.49,-359.79C580.94,-320.02 556.65,-219.37 516,-144 510.68,-134.13 503.48,-124.25 496.55,-115.74"/>
<polygon fill="#1414ce" stroke="#1414ce" points="499.18,-113.43 490.06,-108.05 493.83,-117.95 499.18,-113.43"/>
</a>
</g>
</g>
<!-- 7 -->
<g id="node14" class="node">
<title>7</title>
<g id="a_node14"><a xlink:title="MessageQueueItem">
<polygon fill="#ffffff" stroke="black" points="798,-324 640,-324 640,-288 798,-288 798,-324"/>
<text text-anchor="middle" x="719" y="-302.3" font-family="Times,serif" font-size="14.00">MessageQueueItem</text>
</a>
</g>
</g>
<!-- 4&#45;&gt;7 -->
<g id="edge12" class="edge">
<title>4&#45;&gt;7</title>
<g id="a_edge12"><a xlink:title="usage">
<path fill="none" stroke="#1414ce" d="M623.82,-359.88C640.45,-350.64 661.16,-339.13 679.02,-329.21"/>
<polygon fill="#1414ce" stroke="#1414ce" points="681.02,-332.11 688.06,-324.19 677.62,-325.99 681.02,-332.11"/>
</a>
</g>
</g>
<!-- 20 -->
<g id="node15" class="node">
<title>20</title>
<g id="a_node15"><a xlink:title="AtomsHashTable">
<polygon fill="#ffffff" stroke="black" points="950.5,-252 813.5,-252 813.5,-216 950.5,-216 950.5,-252"/>
<text text-anchor="middle" x="882" y="-230.3" font-family="Times,serif" font-size="14.00">AtomsHashTable</text>
</a>
</g>
</g>
<!-- 4&#45;&gt;20 -->
<g id="edge17" class="edge">
<title>4&#45;&gt;20</title>
<g id="a_edge17"><a xlink:title="usage">
<path fill="none" stroke="#1414ce" d="M652.81,-375.64C702.9,-371.8 774.14,-359.77 825,-324 846.93,-308.58 862.39,-281.78 871.63,-261.6"/>
<polygon fill="#1414ce" stroke="#1414ce" points="874.89,-262.88 875.66,-252.31 868.47,-260.09 874.89,-262.88"/>
</a>
</g>
</g>
<!-- 9 -->
<g id="node19" class="node">
<title>9</title>
<g id="a_node19"><a xlink:title="AtomTable">
<polygon fill="#ffffff" stroke="black" points="1064,-324 972,-324 972,-288 1064,-288 1064,-324"/>
<text text-anchor="middle" x="1018" y="-302.3" font-family="Times,serif" font-size="14.00">AtomTable</text>
</a>
</g>
</g>
<!-- 4&#45;&gt;9 -->
<g id="edge13" class="edge">
<title>4&#45;&gt;9</title>
<g id="a_edge13"><a xlink:title="usage">
<path fill="none" stroke="#1414ce" d="M652.8,-371.36C724.31,-363.97 847.66,-349.16 961.96,-324.04"/>
<polygon fill="#1414ce" stroke="#1414ce" points="962.93,-327.41 971.93,-321.82 961.41,-320.58 962.93,-327.41"/>
</a>
</g>
</g>
<!-- 4&#45;&gt;6 -->
<g id="edge15" class="edge">
<title>4&#45;&gt;6</title>
<g id="a_edge15"><a xlink:title="usage">
<path fill="none" stroke="#1414ce" d="M591.87,-359.97C588.7,-312.29 579.73,-177.18 575.84,-118.63"/>
<polygon fill="#1414ce" stroke="#1414ce" points="579.3,-118.05 575.15,-108.31 572.32,-118.52 579.3,-118.05"/>
</a>
</g>
</g>
<!-- 5&#45;&gt;6 -->
<g id="edge21" class="edge">
<title>5&#45;&gt;6</title>
<g id="a_edge21"><a xlink:title="usage">
<path fill="none" stroke="#1414ce" d="M615.4,-143.7C608.88,-135.39 600.93,-125.28 593.75,-116.14"/>
<polygon fill="#1414ce" stroke="#1414ce" points="596.37,-113.81 587.44,-108.1 590.87,-118.13 596.37,-113.81"/>
</a>
</g>
</g>
<!-- 13 -->
<g id="node9" class="node">
<title>13</title>
<g id="a_node9"><a xlink:title="HNodeGroup">
<polygon fill="#ffffff" stroke="black" points="1117,-252 1007,-252 1007,-216 1117,-216 1117,-252"/>
<text text-anchor="middle" x="1062" y="-230.3" font-family="Times,serif" font-size="14.00">HNodeGroup</text>
</a>
</g>
</g>
<!-- 13&#45;&gt;13 -->
<g id="edge23" class="edge">
<title>13&#45;&gt;13</title>
<g id="a_edge23"><a xlink:title="usage">
<path fill="none" stroke="#1414ce" d="M1117.07,-246.85C1127.57,-245.32 1135,-241.03 1135,-234 1135,-229.5 1131.95,-226.12 1127,-223.87"/>
<polygon fill="#1414ce" stroke="#1414ce" points="1127.64,-220.42 1117.07,-221.15 1125.79,-227.17 1127.64,-220.42"/>
</a>
</g>
</g>
<!-- 10 -->
<g id="node22" class="node">
<title>10</title>
<g id="a_node22"><a xlink:title="HNode">
<polygon fill="#ffffff" stroke="black" points="1054,-180 988,-180 988,-144 1054,-144 1054,-180"/>
<text text-anchor="middle" x="1021" y="-158.3" font-family="Times,serif" font-size="14.00">HNode</text>
</a>
</g>
</g>
<!-- 13&#45;&gt;10 -->
<g id="edge22" class="edge">
<title>13&#45;&gt;10</title>
<g id="a_edge22"><a xlink:title="usage">
<path fill="none" stroke="#1414ce" d="M1051.87,-215.7C1047.15,-207.64 1041.44,-197.89 1036.22,-188.98"/>
<polygon fill="#1414ce" stroke="#1414ce" points="1039.09,-186.96 1031.02,-180.1 1033.05,-190.5 1039.09,-186.96"/>
</a>
</g>
</g>
<!-- 21&#45;&gt;3 -->
<g id="edge24" class="edge">
<title>21&#45;&gt;3</title>
<g id="a_edge24"><a xlink:title="usage">
<path fill="none" stroke="#1414ce" d="M456.45,-71.7C447.77,-63.14 437.14,-52.66 427.65,-43.3"/>
<polygon fill="#1414ce" stroke="#1414ce" points="429.93,-40.63 420.35,-36.1 425.01,-45.62 429.93,-40.63"/>
</a>
</g>
</g>
<!-- 8 -->
<g id="node12" class="node">
<title>8</title>
<g id="a_node12"><a xlink:title="MailboxMessage">
<polygon fill="#ffffff" stroke="black" points="777.5,-252 640.5,-252 640.5,-216 777.5,-216 777.5,-252"/>
<text text-anchor="middle" x="709" y="-230.3" font-family="Times,serif" font-size="14.00">MailboxMessage</text>
</a>
</g>
</g>
<!-- 8&#45;&gt;8 -->
<g id="edge25" class="edge">
<title>8&#45;&gt;8</title>
<g id="a_edge25"><a xlink:title="usage">
<path fill="none" stroke="#1414ce" d="M777.53,-246.37C788.21,-244.52 795.5,-240.4 795.5,-234 795.5,-229.8 792.36,-226.58 787.18,-224.34"/>
<polygon fill="#1414ce" stroke="#1414ce" points="788.1,-220.96 777.53,-221.63 786.21,-227.7 788.1,-220.96"/>
</a>
</g>
</g>
<!-- 11 -->
<g id="node13" class="node">
<title>11</title>
<g id="a_node13"><a xlink:title="Heap">
<polygon fill="#ffffff" stroke="black" points="1245,-108 1191,-108 1191,-72 1245,-72 1245,-108"/>
<text text-anchor="middle" x="1218" y="-86.3" font-family="Times,serif" font-size="14.00">Heap</text>
</a>
</g>
</g>
<!-- 11&#45;&gt;12 -->
<g id="edge26" class="edge">
<title>11&#45;&gt;12</title>
<g id="a_edge26"><a xlink:title="usage">
<path fill="none" stroke="#1414ce" d="M1218,-71.7C1218,-63.98 1218,-54.71 1218,-46.11"/>
<polygon fill="#1414ce" stroke="#1414ce" points="1221.5,-46.1 1218,-36.1 1214.5,-46.1 1221.5,-46.1"/>
</a>
</g>
</g>
<!-- 7&#45;&gt;8 -->
<g id="edge27" class="edge">
<title>7&#45;&gt;8</title>
<g id="a_edge27"><a xlink:title="usage">
<path fill="none" stroke="#1414ce" d="M716.53,-287.7C715.43,-279.98 714.1,-270.71 712.87,-262.11"/>
<polygon fill="#1414ce" stroke="#1414ce" points="716.32,-261.51 711.44,-252.1 709.39,-262.5 716.32,-261.51"/>
</a>
</g>
</g>
<!-- 7&#45;&gt;7 -->
<g id="edge28" class="edge">
<title>7&#45;&gt;7</title>
<g id="a_edge28"><a xlink:title="usage">
<path fill="none" stroke="#1414ce" d="M798.16,-317.98C808.87,-315.97 816,-311.98 816,-306 816,-302.08 812.93,-299.01 807.79,-296.8"/>
<polygon fill="#1414ce" stroke="#1414ce" points="808.74,-293.43 798.16,-294.02 806.8,-300.15 808.74,-293.43"/>
</a>
</g>
</g>
<!-- 20&#45;&gt;10 -->
<g id="edge29" class="edge">
<title>20&#45;&gt;10</title>
<g id="a_edge29"><a xlink:title="usage">
<path fill="none" stroke="#1414ce" d="M916,-215.88C934.96,-206.33 958.74,-194.36 978.87,-184.22"/>
<polygon fill="#1414ce" stroke="#1414ce" points="980.47,-187.33 987.83,-179.71 977.32,-181.08 980.47,-187.33"/>
</a>
</g>
</g>
<!-- 15&#45;&gt;16 -->
<g id="edge30" class="edge">
<title>15&#45;&gt;16</title>
<g id="a_edge30"><a xlink:title="usage">
<path fill="none" stroke="#1414ce" d="M412.11,-215.7C417.87,-207.47 424.86,-197.48 431.21,-188.42"/>
<polygon fill="#1414ce" stroke="#1414ce" points="434.16,-190.3 437.03,-180.1 428.42,-186.29 434.16,-190.3"/>
</a>
</g>
</g>
<!-- 15&#45;&gt;3 -->
<g id="edge31" class="edge">
<title>15&#45;&gt;3</title>
<g id="a_edge31"><a xlink:title="usage">
<path fill="none" stroke="#1414ce" d="M392.11,-215.75C387.89,-205.58 383.14,-192.33 381,-180 372.88,-133.3 384.9,-78.56 394.11,-46.44"/>
<polygon fill="#1414ce" stroke="#1414ce" points="397.59,-47.04 397.1,-36.46 390.88,-45.03 397.59,-47.04"/>
</a>
</g>
</g>
<!-- 1 -->
<g id="node17" class="node">
<title>1</title>
<g id="a_node17"><a xlink:title="LWIPEvent">
<polygon fill="#bfbfbf" stroke="black" points="712,-468 616,-468 616,-432 712,-432 712,-468"/>
<text text-anchor="middle" x="664" y="-446.3" font-family="Times,serif" font-size="14.00">LWIPEvent</text>
</a>
</g>
</g>
<!-- 1&#45;&gt;4 -->
<g id="edge33" class="edge">
<title>1&#45;&gt;4</title>
<g id="a_edge33"><a xlink:title="usage">
<path fill="none" stroke="#1414ce" d="M646.45,-431.7C637.77,-423.14 627.14,-412.66 617.65,-403.3"/>
<polygon fill="#1414ce" stroke="#1414ce" points="619.93,-400.63 610.35,-396.1 615.01,-405.62 619.93,-400.63"/>
</a>
</g>
</g>
<!-- 2 -->
<g id="node18" class="node">
<title>2</title>
<g id="a_node18"><a xlink:title="SocketResource">
<polygon fill="#ffffff" stroke="black" points="1014.5,-396 883.5,-396 883.5,-360 1014.5,-360 1014.5,-396"/>
<text text-anchor="middle" x="949" y="-374.3" font-family="Times,serif" font-size="14.00">SocketResource</text>
</a>
</g>
</g>
<!-- 1&#45;&gt;2 -->
<g id="edge32" class="edge">
<title>1&#45;&gt;2</title>
<g id="a_edge32"><a xlink:title="usage">
<path fill="none" stroke="#1414ce" d="M712.02,-437.2C756.12,-426.37 822.18,-410.15 873.37,-397.58"/>
<polygon fill="#1414ce" stroke="#1414ce" points="874.52,-400.9 883.39,-395.11 872.85,-394.1 874.52,-400.9"/>
</a>
</g>
</g>
<!-- 2&#45;&gt;3 -->
<g id="edge34" class="edge">
<title>2&#45;&gt;3</title>
<g id="a_edge34"><a xlink:title="usage">
<path fill="none" stroke="#1414ce" d="M1014.66,-362.76C1077.57,-344.79 1163,-307.12 1163,-235 1163,-235 1163,-235 1163,-161 1163,-88.65 623.89,-37.44 453.78,-23.09"/>
<polygon fill="#1414ce" stroke="#1414ce" points="453.85,-19.58 443.59,-22.23 453.27,-26.55 453.85,-19.58"/>
</a>
</g>
</g>
<!-- 9&#45;&gt;13 -->
<g id="edge36" class="edge">
<title>9&#45;&gt;13</title>
<g id="a_edge36"><a xlink:title="usage">
<path fill="none" stroke="#1414ce" d="M1028.88,-287.7C1033.99,-279.56 1040.2,-269.69 1045.84,-260.7"/>
<polygon fill="#1414ce" stroke="#1414ce" points="1048.89,-262.43 1051.25,-252.1 1042.96,-258.71 1048.89,-262.43"/>
</a>
</g>
</g>
<!-- 9&#45;&gt;10 -->
<g id="edge35" class="edge">
<title>9&#45;&gt;10</title>
<g id="a_edge35"><a xlink:title="usage">
<path fill="none" stroke="#1414ce" d="M1009.69,-287.79C1005.26,-277.63 1000.26,-264.38 998,-252 995.13,-236.26 994.75,-231.67 998,-216 999.88,-206.96 1003.37,-197.58 1007.09,-189.26"/>
<polygon fill="#1414ce" stroke="#1414ce" points="1010.32,-190.61 1011.46,-180.07 1004,-187.6 1010.32,-190.61"/>
</a>
</g>
</g>
<!-- 6&#45;&gt;3 -->
<g id="edge37" class="edge">
<title>6&#45;&gt;3</title>
<g id="a_edge37"><a xlink:title="usage">
<path fill="none" stroke="#1414ce" d="M534.77,-72.94C510.44,-62.98 478.97,-50.1 452.88,-39.42"/>
<polygon fill="#1414ce" stroke="#1414ce" points="454.11,-36.14 443.53,-35.59 451.46,-42.62 454.11,-36.14"/>
</a>
</g>
</g>
<!-- 10&#45;&gt;11 -->
<g id="edge39" class="edge">
<title>10&#45;&gt;11</title>
<g id="a_edge39"><a xlink:title="usage">
<path fill="none" stroke="#1414ce" d="M1054.42,-149.13C1089.54,-136.65 1144.64,-117.07 1181.03,-104.13"/>
<polygon fill="#1414ce" stroke="#1414ce" points="1182.52,-107.32 1190.77,-100.67 1180.18,-100.72 1182.52,-107.32"/>
</a>
</g>
</g>
<!-- 10&#45;&gt;10 -->
<g id="edge38" class="edge">
<title>10&#45;&gt;10</title>
<g id="a_edge38"><a xlink:title="usage">
<path fill="none" stroke="#1414ce" d="M1054.35,-175.47C1064.28,-175.07 1072,-170.58 1072,-162 1072,-156.64 1068.98,-152.87 1064.3,-150.71"/>
<polygon fill="#1414ce" stroke="#1414ce" points="1064.87,-147.25 1054.35,-148.53 1063.37,-154.09 1064.87,-147.25"/>
</a>
</g>
</g>
</g>
</svg>
