<?xml version="1.0" encoding="UTF-8" standalone="no"?>
<!DOCTYPE svg PUBLIC "-//W3C//DTD SVG 1.1//EN"
 "http://www.w3.org/Graphics/SVG/1.1/DTD/svg11.dtd">
<!-- Generated by graphviz version 2.43.0 (0)
 -->
<!-- Title: %3 Pages: 1 -->
<svg width="1038pt" height="548pt"
 viewBox="0.00 0.00 1038.49 548.00" xmlns="http://www.w3.org/2000/svg" xmlns:xlink="http://www.w3.org/1999/xlink">
<g id="graph0" class="graph" transform="scale(1 1) rotate(0) translate(4 544)">
<title>%3</title>
<polygon fill="transparent" stroke="transparent" points="-4,4 -4,-544 1034.49,-544 1034.49,4 -4,4"/>
<!-- 4 -->
<g id="node1" class="node">
<title>4</title>
<g id="a_node1"><a xlink:title="stdbool.h">
<polygon fill="#ffffff" stroke="black" points="236.49,-108 153.49,-108 153.49,-72 236.49,-72 236.49,-108"/>
<text text-anchor="middle" x="194.99" y="-86.3" font-family="Times,serif" font-size="14.00">stdbool.h</text>
</a>
</g>
</g>
<!-- 17 -->
<g id="node2" class="node">
<title>17</title>
<g id="a_node2"><a xlink:title="refc_binary.h">
<polygon fill="#ffffff" stroke="black" points="387.99,-396 279.99,-396 279.99,-360 387.99,-360 387.99,-396"/>
<text text-anchor="middle" x="333.99" y="-374.3" font-family="Times,serif" font-size="14.00">refc_binary.h</text>
</a>
</g>
</g>
<!-- 17&#45;&gt;4 -->
<g id="edge1" class="edge">
<title>17&#45;&gt;4</title>
<g id="a_edge1"><a xlink:title="include">
<path fill="none" stroke="#1414ce" d="M325.63,-359.88C308.93,-325.7 270.3,-246.58 237.99,-180 227.75,-158.9 216.19,-134.96 207.64,-117.22"/>
<polygon fill="#1414ce" stroke="#1414ce" points="210.72,-115.56 203.22,-108.07 204.41,-118.6 210.72,-115.56"/>
</a>
</g>
</g>
<!-- 18 -->
<g id="node6" class="node">
<title>18</title>
<g id="a_node6"><a xlink:title="list.h">
<polygon fill="#ffffff" stroke="black" points="333.99,-180 279.99,-180 279.99,-144 333.99,-144 333.99,-180"/>
<text text-anchor="middle" x="306.99" y="-158.3" font-family="Times,serif" font-size="14.00">list.h</text>
</a>
</g>
</g>
<!-- 17&#45;&gt;18 -->
<g id="edge3" class="edge">
<title>17&#45;&gt;18</title>
<g id="a_edge3"><a xlink:title="include">
<path fill="none" stroke="#1414ce" d="M331.83,-359.85C327.16,-322.83 316.1,-235.18 310.45,-190.39"/>
<polygon fill="#1414ce" stroke="#1414ce" points="313.89,-189.72 309.17,-180.23 306.95,-190.59 313.89,-189.72"/>
</a>
</g>
</g>
<!-- 7 -->
<g id="node8" class="node">
<title>7</title>
<g id="a_node8"><a xlink:title="stdlib.h">
<polygon fill="#ffffff" stroke="black" points="631.49,-108 560.49,-108 560.49,-72 631.49,-72 631.49,-108"/>
<text text-anchor="middle" x="595.99" y="-86.3" font-family="Times,serif" font-size="14.00">stdlib.h</text>
</a>
</g>
</g>
<!-- 17&#45;&gt;7 -->
<g id="edge2" class="edge">
<title>17&#45;&gt;7</title>
<g id="a_edge2"><a xlink:title="include">
<path fill="none" stroke="#1414ce" d="M356.45,-359.89C384.11,-337.74 430.87,-296.67 458.99,-252 486.1,-208.94 463.87,-182.63 496.99,-144 511.22,-127.41 531.96,-115.19 550.79,-106.69"/>
<polygon fill="#1414ce" stroke="#1414ce" points="552.31,-109.85 560.12,-102.7 549.55,-103.41 552.31,-109.85"/>
</a>
</g>
</g>
<!-- 19 -->
<g id="node10" class="node">
<title>19</title>
<g id="a_node10"><a xlink:title="resources.h">
<polygon fill="#ffffff" stroke="black" points="570.99,-324 470.99,-324 470.99,-288 570.99,-288 570.99,-324"/>
<text text-anchor="middle" x="520.99" y="-302.3" font-family="Times,serif" font-size="14.00">resources.h</text>
</a>
</g>
</g>
<!-- 17&#45;&gt;19 -->
<g id="edge4" class="edge">
<title>17&#45;&gt;19</title>
<g id="a_edge4"><a xlink:title="include">
<path fill="none" stroke="#1414ce" d="M379.74,-359.88C405.76,-350.14 438.52,-337.87 465.94,-327.61"/>
<polygon fill="#1414ce" stroke="#1414ce" points="467.26,-330.85 475.4,-324.07 464.81,-324.3 467.26,-330.85"/>
</a>
</g>
</g>
<!-- 12 -->
<g id="node3" class="node">
<title>12</title>
<g id="a_node3"><a xlink:title="assert.h">
<polygon fill="#ffffff" stroke="black" points="833.99,-36 759.99,-36 759.99,0 833.99,0 833.99,-36"/>
<text text-anchor="middle" x="796.99" y="-14.3" font-family="Times,serif" font-size="14.00">assert.h</text>
</a>
</g>
</g>
<!-- 15 -->
<g id="node4" class="node">
<title>15</title>
<g id="a_node4"><a xlink:title="utils.h">
<polygon fill="#ffffff" stroke="black" points="567.99,-180 505.99,-180 505.99,-144 567.99,-144 567.99,-180"/>
<text text-anchor="middle" x="536.99" y="-158.3" font-family="Times,serif" font-size="14.00">utils.h</text>
</a>
</g>
</g>
<!-- 15&#45;&gt;7 -->
<g id="edge7" class="edge">
<title>15&#45;&gt;7</title>
<g id="a_edge7"><a xlink:title="include">
<path fill="none" stroke="#1414ce" d="M551.58,-143.7C558.65,-135.3 567.28,-125.07 575.04,-115.86"/>
<polygon fill="#1414ce" stroke="#1414ce" points="577.81,-118.01 581.58,-108.1 572.46,-113.49 577.81,-118.01"/>
</a>
</g>
</g>
<!-- 16 -->
<g id="node12" class="node">
<title>16</title>
<g id="a_node12"><a xlink:title="stddef.h">
<polygon fill="#ffffff" stroke="black" points="349.99,-108 275.99,-108 275.99,-72 349.99,-72 349.99,-108"/>
<text text-anchor="middle" x="312.99" y="-86.3" font-family="Times,serif" font-size="14.00">stddef.h</text>
</a>
</g>
</g>
<!-- 15&#45;&gt;16 -->
<g id="edge5" class="edge">
<title>15&#45;&gt;16</title>
<g id="a_edge5"><a xlink:title="include">
<path fill="none" stroke="#1414ce" d="M505.85,-151.27C467.96,-139.43 403.64,-119.33 359.79,-105.62"/>
<polygon fill="#1414ce" stroke="#1414ce" points="360.8,-102.27 350.21,-102.63 358.71,-108.95 360.8,-102.27"/>
</a>
</g>
</g>
<!-- 6 -->
<g id="node21" class="node">
<title>6</title>
<g id="a_node21"><a xlink:title="stdio.h">
<polygon fill="#ffffff" stroke="black" points="472.49,-108 407.49,-108 407.49,-72 472.49,-72 472.49,-108"/>
<text text-anchor="middle" x="439.99" y="-86.3" font-family="Times,serif" font-size="14.00">stdio.h</text>
</a>
</g>
</g>
<!-- 15&#45;&gt;6 -->
<g id="edge6" class="edge">
<title>15&#45;&gt;6</title>
<g id="a_edge6"><a xlink:title="include">
<path fill="none" stroke="#1414ce" d="M513.02,-143.7C500.68,-134.8 485.48,-123.82 472.14,-114.2"/>
<polygon fill="#1414ce" stroke="#1414ce" points="473.85,-111.12 463.7,-108.1 469.76,-116.79 473.85,-111.12"/>
</a>
</g>
</g>
<!-- 20 -->
<g id="node5" class="node">
<title>20</title>
<g id="a_node5"><a xlink:title="synclist.h">
<polygon fill="#ffffff" stroke="black" points="449.49,-252 364.49,-252 364.49,-216 449.49,-216 449.49,-252"/>
<text text-anchor="middle" x="406.99" y="-230.3" font-family="Times,serif" font-size="14.00">synclist.h</text>
</a>
</g>
</g>
<!-- 20&#45;&gt;18 -->
<g id="edge9" class="edge">
<title>20&#45;&gt;18</title>
<g id="a_edge9"><a xlink:title="include">
<path fill="none" stroke="#1414ce" d="M382.53,-215.88C369.7,-206.89 353.8,-195.76 339.9,-186.03"/>
<polygon fill="#1414ce" stroke="#1414ce" points="341.75,-183.06 331.55,-180.19 337.74,-188.79 341.75,-183.06"/>
</a>
</g>
</g>
<!-- 21 -->
<g id="node19" class="node">
<title>21</title>
<g id="a_node19"><a xlink:title="smp.h">
<polygon fill="#ffffff" stroke="black" points="411.99,-180 351.99,-180 351.99,-144 411.99,-144 411.99,-180"/>
<text text-anchor="middle" x="381.99" y="-158.3" font-family="Times,serif" font-size="14.00">smp.h</text>
</a>
</g>
</g>
<!-- 20&#45;&gt;21 -->
<g id="edge10" class="edge">
<title>20&#45;&gt;21</title>
<g id="a_edge10"><a xlink:title="include">
<path fill="none" stroke="#1414ce" d="M400.81,-215.7C398,-207.81 394.6,-198.3 391.48,-189.55"/>
<polygon fill="#1414ce" stroke="#1414ce" points="394.76,-188.34 388.1,-180.1 388.17,-190.7 394.76,-188.34"/>
</a>
</g>
</g>
<!-- 20&#45;&gt;6 -->
<g id="edge8" class="edge">
<title>20&#45;&gt;6</title>
<g id="a_edge8"><a xlink:title="include">
<path fill="none" stroke="#1414ce" d="M411.74,-215.87C414.56,-205.51 418.12,-192.03 420.99,-180 425.92,-159.38 430.9,-135.93 434.52,-118.28"/>
<polygon fill="#1414ce" stroke="#1414ce" points="438.03,-118.61 436.59,-108.12 431.17,-117.22 438.03,-118.61"/>
</a>
</g>
</g>
<!-- 18&#45;&gt;4 -->
<g id="edge11" class="edge">
<title>18&#45;&gt;4</title>
<g id="a_edge11"><a xlink:title="include">
<path fill="none" stroke="#1414ce" d="M279.88,-144.05C265.13,-134.84 246.7,-123.32 230.79,-113.37"/>
<polygon fill="#1414ce" stroke="#1414ce" points="232.58,-110.36 222.25,-108.03 228.87,-116.3 232.58,-110.36"/>
</a>
</g>
</g>
<!-- 5 -->
<g id="node7" class="node">
<title>5</title>
<g id="a_node7"><a xlink:title="stdint.h">
<polygon fill="#ffffff" stroke="black" points="741.99,-36 669.99,-36 669.99,0 741.99,0 741.99,-36"/>
<text text-anchor="middle" x="705.99" y="-14.3" font-family="Times,serif" font-size="14.00">stdint.h</text>
</a>
</g>
</g>
<!-- 9 -->
<g id="node9" class="node">
<title>9</title>
<g id="a_node9"><a xlink:title="memory.h">
<polygon fill="#ffffff" stroke="black" points="750.99,-252 664.99,-252 664.99,-216 750.99,-216 750.99,-252"/>
<text text-anchor="middle" x="707.99" y="-230.3" font-family="Times,serif" font-size="14.00">memory.h</text>
</a>
</g>
</g>
<!-- 9&#45;&gt;15 -->
<g id="edge16" class="edge">
<title>9&#45;&gt;15</title>
<g id="a_edge16"><a xlink:title="include">
<path fill="none" stroke="#1414ce" d="M666.16,-215.88C639.22,-204.85 604.36,-190.58 577.65,-179.64"/>
<polygon fill="#1414ce" stroke="#1414ce" points="578.79,-176.33 568.2,-175.78 576.13,-182.8 578.79,-176.33"/>
</a>
</g>
</g>
<!-- 9&#45;&gt;5 -->
<g id="edge12" class="edge">
<title>9&#45;&gt;5</title>
<g id="a_edge12"><a xlink:title="include">
<path fill="none" stroke="#1414ce" d="M707.83,-215.85C707.49,-178.83 706.67,-91.18 706.25,-46.39"/>
<polygon fill="#1414ce" stroke="#1414ce" points="709.75,-46.2 706.16,-36.23 702.75,-46.26 709.75,-46.2"/>
</a>
</g>
</g>
<!-- 9&#45;&gt;7 -->
<g id="edge13" class="edge">
<title>9&#45;&gt;7</title>
<g id="a_edge13"><a xlink:title="include">
<path fill="none" stroke="#1414ce" d="M697.8,-215.95C686.51,-197.54 667.32,-167.68 647.99,-144 640.05,-134.27 630.62,-124.26 621.99,-115.61"/>
<polygon fill="#1414ce" stroke="#1414ce" points="624.24,-112.91 614.66,-108.39 619.32,-117.9 624.24,-112.91"/>
</a>
</g>
</g>
<!-- 10 -->
<g id="node13" class="node">
<title>10</title>
<g id="a_node13"><a xlink:title="erl_nif.h">
<polygon fill="#ffffff" stroke="black" points="849.99,-180 775.99,-180 775.99,-144 849.99,-144 849.99,-180"/>
<text text-anchor="middle" x="812.99" y="-158.3" font-family="Times,serif" font-size="14.00">erl_nif.h</text>
</a>
</g>
</g>
<!-- 9&#45;&gt;10 -->
<g id="edge14" class="edge">
<title>9&#45;&gt;10</title>
<g id="a_edge14"><a xlink:title="include">
<path fill="none" stroke="#1414ce" d="M733.68,-215.88C747.28,-206.81 764.17,-195.55 778.86,-185.76"/>
<polygon fill="#1414ce" stroke="#1414ce" points="780.83,-188.65 787.21,-180.19 776.95,-182.82 780.83,-188.65"/>
</a>
</g>
</g>
<!-- 11 -->
<g id="node17" class="node">
<title>11</title>
<g id="a_node17"><a xlink:title="term_typedef.h">
<polygon fill="#ffffff" stroke="black" points="947.49,-108 822.49,-108 822.49,-72 947.49,-72 947.49,-108"/>
<text text-anchor="middle" x="884.99" y="-86.3" font-family="Times,serif" font-size="14.00">term_typedef.h</text>
</a>
</g>
</g>
<!-- 9&#45;&gt;11 -->
<g id="edge15" class="edge">
<title>9&#45;&gt;11</title>
<g id="a_edge15"><a xlink:title="include">
<path fill="none" stroke="#1414ce" d="M715.7,-215.82C725.26,-196.18 743.25,-164.15 766.99,-144 782.74,-130.64 802.4,-120.03 821.13,-111.93"/>
<polygon fill="#1414ce" stroke="#1414ce" points="822.62,-115.1 830.52,-108.04 819.94,-108.64 822.62,-115.1"/>
</a>
</g>
</g>
<!-- 19&#45;&gt;20 -->
<g id="edge21" class="edge">
<title>19&#45;&gt;20</title>
<g id="a_edge21"><a xlink:title="include">
<path fill="none" stroke="#1414ce" d="M493.11,-287.88C478.2,-278.72 459.67,-267.34 443.61,-257.48"/>
<polygon fill="#1414ce" stroke="#1414ce" points="445.34,-254.44 434.99,-252.19 441.68,-260.41 445.34,-254.44"/>
</a>
</g>
</g>
<!-- 19&#45;&gt;18 -->
<g id="edge19" class="edge">
<title>19&#45;&gt;18</title>
<g id="a_edge19"><a xlink:title="include">
<path fill="none" stroke="#1414ce" d="M470.84,-298.85C435.47,-292.31 388.74,-278.98 355.99,-252 336.31,-235.78 323.23,-209.5 315.58,-189.69"/>
<polygon fill="#1414ce" stroke="#1414ce" points="318.86,-188.48 312.15,-180.28 312.28,-190.88 318.86,-188.48"/>
</a>
</g>
</g>
<!-- 19&#45;&gt;7 -->
<g id="edge17" class="edge">
<title>19&#45;&gt;7</title>
<g id="a_edge17"><a xlink:title="include">
<path fill="none" stroke="#1414ce" d="M530.18,-287.66C542.4,-263.95 564,-219.78 576.99,-180 583.65,-159.63 588.58,-135.87 591.76,-118.02"/>
<polygon fill="#1414ce" stroke="#1414ce" points="595.23,-118.46 593.46,-108.01 588.33,-117.28 595.23,-118.46"/>
</a>
</g>
</g>
<!-- 19&#45;&gt;9 -->
<g id="edge20" class="edge">
<title>19&#45;&gt;9</title>
<g id="a_edge20"><a xlink:title="include">
<path fill="none" stroke="#1414ce" d="M566.74,-287.88C593.53,-277.85 627.48,-265.14 655.37,-254.7"/>
<polygon fill="#1414ce" stroke="#1414ce" points="656.83,-257.89 664.97,-251.11 654.38,-251.33 656.83,-257.89"/>
</a>
</g>
</g>
<!-- 19&#45;&gt;10 -->
<g id="edge18" class="edge">
<title>19&#45;&gt;10</title>
<g id="a_edge18"><a xlink:title="include">
<path fill="none" stroke="#1414ce" d="M571.43,-305.13C623.31,-302.85 704.2,-292.34 759.99,-252 781.19,-236.68 795.41,-210.04 803.74,-189.89"/>
<polygon fill="#1414ce" stroke="#1414ce" points="807.1,-190.91 807.46,-180.32 800.57,-188.37 807.1,-190.91"/>
</a>
</g>
</g>
<!-- 2 -->
<g id="node11" class="node">
<title>2</title>
<g id="a_node11"><a xlink:title="term.h">
<polygon fill="#ffffff" stroke="black" points="448.49,-468 383.49,-468 383.49,-432 448.49,-432 448.49,-468"/>
<text text-anchor="middle" x="415.99" y="-446.3" font-family="Times,serif" font-size="14.00">term.h</text>
</a>
</g>
</g>
<!-- 2&#45;&gt;4 -->
<g id="edge23" class="edge">
<title>2&#45;&gt;4</title>
<g id="a_edge23"><a xlink:title="include">
<path fill="none" stroke="#1414ce" d="M383.38,-445.01C317.76,-434.97 175.99,-402.25 175.99,-307 175.99,-307 175.99,-307 175.99,-233 175.99,-192.86 183.55,-146.9 189.13,-118.4"/>
<polygon fill="#1414ce" stroke="#1414ce" points="192.6,-118.88 191.15,-108.39 185.74,-117.5 192.6,-118.88"/>
</a>
</g>
</g>
<!-- 2&#45;&gt;17 -->
<g id="edge29" class="edge">
<title>2&#45;&gt;17</title>
<g id="a_edge29"><a xlink:title="include">
<path fill="none" stroke="#1414ce" d="M395.72,-431.7C385.5,-422.97 372.93,-412.24 361.82,-402.75"/>
<polygon fill="#1414ce" stroke="#1414ce" points="363.91,-399.94 354.03,-396.1 359.36,-405.26 363.91,-399.94"/>
</a>
</g>
</g>
<!-- 2&#45;&gt;15 -->
<g id="edge30" class="edge">
<title>2&#45;&gt;15</title>
<g id="a_edge30"><a xlink:title="include">
<path fill="none" stroke="#1414ce" d="M414.88,-431.78C414.57,-411.8 417.3,-379.15 435.99,-360 482.08,-312.8 539.4,-376 579.99,-324 611.29,-283.91 579.33,-222.96 556.23,-188.71"/>
<polygon fill="#1414ce" stroke="#1414ce" points="558.89,-186.4 550.3,-180.19 553.15,-190.4 558.89,-186.4"/>
</a>
</g>
</g>
<!-- 2&#45;&gt;5 -->
<g id="edge24" class="edge">
<title>2&#45;&gt;5</title>
<g id="a_edge24"><a xlink:title="include">
<path fill="none" stroke="#1414ce" d="M383.47,-447.76C337.53,-444.65 252.5,-433.79 191.99,-396 75.91,-323.49 -42.2,-268.34 14.99,-144 35.54,-99.33 53.66,-91.05 98.99,-72 200.15,-29.49 535.97,-21.07 659.7,-19.41"/>
<polygon fill="#1414ce" stroke="#1414ce" points="660.01,-22.91 669.97,-19.28 659.92,-15.91 660.01,-22.91"/>
</a>
</g>
</g>
<!-- 2&#45;&gt;7 -->
<g id="edge26" class="edge">
<title>2&#45;&gt;7</title>
<g id="a_edge26"><a xlink:title="include">
<path fill="none" stroke="#1414ce" d="M448.57,-446.23C505.24,-440.67 618.21,-426 641.99,-396 676.02,-353.08 626.3,-184.01 604.94,-117.8"/>
<polygon fill="#1414ce" stroke="#1414ce" points="608.2,-116.51 601.78,-108.09 601.55,-118.68 608.2,-116.51"/>
</a>
</g>
</g>
<!-- 2&#45;&gt;9 -->
<g id="edge28" class="edge">
<title>2&#45;&gt;9</title>
<g id="a_edge28"><a xlink:title="include">
<path fill="none" stroke="#1414ce" d="M448.67,-446.72C511.01,-441.68 643.51,-427.48 674.99,-396 710.38,-360.63 712.77,-298.17 710.77,-262.33"/>
<polygon fill="#1414ce" stroke="#1414ce" points="714.24,-261.85 710.04,-252.12 707.26,-262.35 714.24,-261.85"/>
</a>
</g>
</g>
<!-- 3 -->
<g id="node15" class="node">
<title>3</title>
<g id="a_node15"><a xlink:title="sys/types.h">
<polygon fill="#ffffff" stroke="black" points="541.49,-396 444.49,-396 444.49,-360 541.49,-360 541.49,-396"/>
<text text-anchor="middle" x="492.99" y="-374.3" font-family="Times,serif" font-size="14.00">sys/types.h</text>
</a>
</g>
</g>
<!-- 2&#45;&gt;3 -->
<g id="edge22" class="edge">
<title>2&#45;&gt;3</title>
<g id="a_edge22"><a xlink:title="include">
<path fill="none" stroke="#1414ce" d="M435.03,-431.7C444.54,-423.05 456.2,-412.45 466.56,-403.03"/>
<polygon fill="#1414ce" stroke="#1414ce" points="469.13,-405.42 474.18,-396.1 464.43,-400.24 469.13,-405.42"/>
</a>
</g>
</g>
<!-- 8 -->
<g id="node16" class="node">
<title>8</title>
<g id="a_node16"><a xlink:title="string.h">
<polygon fill="#ffffff" stroke="black" points="632.49,-396 559.49,-396 559.49,-360 632.49,-360 632.49,-396"/>
<text text-anchor="middle" x="595.99" y="-374.3" font-family="Times,serif" font-size="14.00">string.h</text>
</a>
</g>
</g>
<!-- 2&#45;&gt;8 -->
<g id="edge27" class="edge">
<title>2&#45;&gt;8</title>
<g id="a_edge27"><a xlink:title="include">
<path fill="none" stroke="#1414ce" d="M448.59,-436.32C476.87,-425.33 518.12,-409.28 549.8,-396.96"/>
<polygon fill="#1414ce" stroke="#1414ce" points="551.25,-400.16 559.3,-393.27 548.71,-393.63 551.25,-400.16"/>
</a>
</g>
</g>
<!-- 2&#45;&gt;11 -->
<g id="edge31" class="edge">
<title>2&#45;&gt;11</title>
<g id="a_edge31"><a xlink:title="include">
<path fill="none" stroke="#1414ce" d="M448.85,-446.07C554.4,-435.78 877.99,-396.89 877.99,-307 877.99,-307 877.99,-307 877.99,-233 877.99,-192.95 880.81,-146.62 882.87,-118.06"/>
<polygon fill="#1414ce" stroke="#1414ce" points="886.36,-118.27 883.61,-108.04 879.38,-117.75 886.36,-118.27"/>
</a>
</g>
</g>
<!-- 2&#45;&gt;6 -->
<g id="edge25" class="edge">
<title>2&#45;&gt;6</title>
<g id="a_edge25"><a xlink:title="include">
<path fill="none" stroke="#1414ce" d="M383.22,-446.07C349.97,-441.29 299.47,-428.78 270.99,-396 244.47,-365.47 251.99,-347.45 251.99,-307 251.99,-307 251.99,-307 251.99,-233 251.99,-192.55 243.76,-173.91 270.99,-144 288.04,-125.28 353.08,-108.71 397.32,-99.28"/>
<polygon fill="#1414ce" stroke="#1414ce" points="398.18,-102.67 407.25,-97.2 396.75,-95.82 398.18,-102.67"/>
</a>
</g>
</g>
<!-- 10&#45;&gt;11 -->
<g id="edge32" class="edge">
<title>10&#45;&gt;11</title>
<g id="a_edge32"><a xlink:title="include">
<path fill="none" stroke="#1414ce" d="M830.79,-143.7C839.6,-135.14 850.38,-124.66 860,-115.3"/>
<polygon fill="#1414ce" stroke="#1414ce" points="862.67,-117.58 867.4,-108.1 857.79,-112.57 862.67,-117.58"/>
</a>
</g>
</g>
<!-- 13 -->
<g id="node14" class="node">
<title>13</title>
<g id="a_node14"><a xlink:title="limits.h">
<polygon fill="#ffffff" stroke="black" points="923.49,-36 852.49,-36 852.49,0 923.49,0 923.49,-36"/>
<text text-anchor="middle" x="887.99" y="-14.3" font-family="Times,serif" font-size="14.00">limits.h</text>
</a>
</g>
</g>
<!-- 11&#45;&gt;12 -->
<g id="edge33" class="edge">
<title>11&#45;&gt;12</title>
<g id="a_edge33"><a xlink:title="include">
<path fill="none" stroke="#1414ce" d="M863.24,-71.7C852.16,-62.88 838.52,-52.03 826.51,-42.47"/>
<polygon fill="#1414ce" stroke="#1414ce" points="828.5,-39.59 818.5,-36.1 824.14,-45.07 828.5,-39.59"/>
</a>
</g>
</g>
<!-- 11&#45;&gt;5 -->
<g id="edge36" class="edge">
<title>11&#45;&gt;5</title>
<g id="a_edge36"><a xlink:title="include">
<path fill="none" stroke="#1414ce" d="M841.21,-71.88C813.99,-61.23 779.06,-47.57 751.52,-36.8"/>
<polygon fill="#1414ce" stroke="#1414ce" points="752.7,-33.51 742.11,-33.12 750.15,-40.02 752.7,-33.51"/>
</a>
</g>
</g>
<!-- 11&#45;&gt;13 -->
<g id="edge34" class="edge">
<title>11&#45;&gt;13</title>
<g id="a_edge34"><a xlink:title="include">
<path fill="none" stroke="#1414ce" d="M885.74,-71.7C886.07,-63.98 886.46,-54.71 886.83,-46.11"/>
<polygon fill="#1414ce" stroke="#1414ce" points="890.33,-46.25 887.26,-36.1 883.34,-45.95 890.33,-46.25"/>
</a>
</g>
</g>
<!-- 14 -->
<g id="node22" class="node">
<title>14</title>
<g id="a_node22"><a xlink:title="inttypes.h">
<polygon fill="#ffffff" stroke="black" points="1030.49,-36 941.49,-36 941.49,0 1030.49,0 1030.49,-36"/>
<text text-anchor="middle" x="985.99" y="-14.3" font-family="Times,serif" font-size="14.00">inttypes.h</text>
</a>
</g>
</g>
<!-- 11&#45;&gt;14 -->
<g id="edge35" class="edge">
<title>11&#45;&gt;14</title>
<g id="a_edge35"><a xlink:title="include">
<path fill="none" stroke="#1414ce" d="M909.7,-71.88C922.66,-62.89 938.72,-51.76 952.76,-42.03"/>
<polygon fill="#1414ce" stroke="#1414ce" points="954.97,-44.76 961.19,-36.19 950.98,-39.01 954.97,-44.76"/>
</a>
</g>
</g>
<!-- 1 -->
<g id="node18" class="node">
<title>1</title>
<g id="a_node18"><a xlink:title="/__w/AtomVM/AtomVM/src/libAtomVM/bitstring.h">
<polygon fill="#bfbfbf" stroke="black" points="442.49,-540 73.49,-540 73.49,-504 442.49,-504 442.49,-540"/>
<text text-anchor="middle" x="257.99" y="-518.3" font-family="Times,serif" font-size="14.00">/__w/AtomVM/AtomVM/src/libAtomVM/bitstring.h</text>
</a>
</g>
</g>
<!-- 1&#45;&gt;4 -->
<g id="edge39" class="edge">
<title>1&#45;&gt;4</title>
<g id="a_edge39"><a xlink:title="include">
<path fill="none" stroke="#1414ce" d="M247.36,-503.77C233.16,-480.17 207.95,-436.14 191.99,-396 167.84,-335.25 166.5,-317.22 161.99,-252 158.66,-203.77 162.11,-190.6 174.99,-144 177.38,-135.37 180.6,-126.18 183.75,-117.92"/>
<polygon fill="#1414ce" stroke="#1414ce" points="187.09,-118.99 187.51,-108.4 180.58,-116.42 187.09,-118.99"/>
</a>
</g>
</g>
<!-- 1&#45;&gt;5 -->
<g id="edge40" class="edge">
<title>1&#45;&gt;5</title>
<g id="a_edge40"><a xlink:title="include">
<path fill="none" stroke="#1414ce" d="M442.6,-516.76C637.24,-507.14 915.99,-476.36 915.99,-379 915.99,-379 915.99,-379 915.99,-233 915.99,-161.3 869.66,-153.2 813.99,-108 786.9,-86 756.21,-60.67 734.49,-42.67"/>
<polygon fill="#1414ce" stroke="#1414ce" points="736.56,-39.84 726.63,-36.15 732.09,-45.23 736.56,-39.84"/>
</a>
</g>
</g>
<!-- 1&#45;&gt;2 -->
<g id="edge37" class="edge">
<title>1&#45;&gt;2</title>
<g id="a_edge37"><a xlink:title="include">
<path fill="none" stroke="#1414ce" d="M296.65,-503.88C320.12,-493.48 350.08,-480.2 374.11,-469.55"/>
<polygon fill="#1414ce" stroke="#1414ce" points="375.62,-472.72 383.34,-465.47 372.78,-466.32 375.62,-472.72"/>
</a>
</g>
</g>
<!-- 22 -->
<g id="node20" class="node">
<title>22</title>
<g id="a_node20"><a xlink:title="unicode.h">
<polygon fill="#ffffff" stroke="black" points="109.99,-180 23.99,-180 23.99,-144 109.99,-144 109.99,-180"/>
<text text-anchor="middle" x="66.99" y="-158.3" font-family="Times,serif" font-size="14.00">unicode.h</text>
</a>
</g>
</g>
<!-- 1&#45;&gt;22 -->
<g id="edge38" class="edge">
<title>1&#45;&gt;22</title>
<g id="a_edge38"><a xlink:title="include">
<path fill="none" stroke="#1414ce" d="M145.15,-503.95C123.2,-496.09 102.05,-484.64 85.99,-468 57.54,-438.52 61.99,-419.97 61.99,-379 61.99,-379 61.99,-379 61.99,-305 61.99,-264.97 64,-218.63 65.47,-190.07"/>
<polygon fill="#1414ce" stroke="#1414ce" points="68.97,-190.21 66.01,-180.04 61.98,-189.84 68.97,-190.21"/>
</a>
</g>
</g>
<!-- 21&#45;&gt;4 -->
<g id="edge41" class="edge">
<title>21&#45;&gt;4</title>
<g id="a_edge41"><a xlink:title="include">
<path fill="none" stroke="#1414ce" d="M351.84,-147.62C348.87,-146.37 345.88,-145.14 342.99,-144 311.22,-131.4 275.12,-118.45 246.52,-108.5"/>
<polygon fill="#1414ce" stroke="#1414ce" points="247.33,-105.08 236.74,-105.11 245.04,-111.69 247.33,-105.08"/>
</a>
</g>
</g>
<!-- 22&#45;&gt;4 -->
<g id="edge42" class="edge">
<title>22&#45;&gt;4</title>
<g id="a_edge42"><a xlink:title="include">
<path fill="none" stroke="#1414ce" d="M98.31,-143.88C115.2,-134.64 136.24,-123.13 154.38,-113.21"/>
<polygon fill="#1414ce" stroke="#1414ce" points="156.47,-116.06 163.56,-108.19 153.11,-109.92 156.47,-116.06"/>
</a>
</g>
</g>
<!-- 22&#45;&gt;5 -->
<g id="edge44" class="edge">
<title>22&#45;&gt;5</title>
<g id="a_edge44"><a xlink:title="include">
<path fill="none" stroke="#1414ce" d="M76.33,-143.74C88.73,-122.74 112.76,-88.1 143.99,-72 233.53,-25.87 541.59,-19.65 659.54,-18.99"/>
<polygon fill="#1414ce" stroke="#1414ce" points="659.71,-22.49 669.69,-18.94 659.68,-15.49 659.71,-22.49"/>
</a>
</g>
</g>
<!-- 22&#45;&gt;16 -->
<g id="edge43" class="edge">
<title>22&#45;&gt;16</title>
<g id="a_edge43"><a xlink:title="include">
<path fill="none" stroke="#1414ce" d="M110.13,-148.73C153.81,-136.3 221.18,-117.13 266.15,-104.33"/>
<polygon fill="#1414ce" stroke="#1414ce" points="267.29,-107.65 275.95,-101.54 265.37,-100.91 267.29,-107.65"/>
</a>
</g>
</g>
</g>
</svg>
