<?xml version="1.0" encoding="UTF-8" standalone="no"?>
<!DOCTYPE svg PUBLIC "-//W3C//DTD SVG 1.1//EN"
 "http://www.w3.org/Graphics/SVG/1.1/DTD/svg11.dtd">
<!-- Generated by graphviz version 2.43.0 (0)
 -->
<!-- Title: %3 Pages: 1 -->
<svg width="1657pt" height="836pt"
 viewBox="0.00 0.00 1657.00 836.00" xmlns="http://www.w3.org/2000/svg" xmlns:xlink="http://www.w3.org/1999/xlink">
<g id="graph0" class="graph" transform="scale(1 1) rotate(0) translate(4 832)">
<title>%3</title>
<polygon fill="transparent" stroke="transparent" points="-4,4 -4,-832 1653,-832 1653,4 -4,4"/>
<!-- 7 -->
<g id="node1" class="node">
<title>7</title>
<g id="a_node1"><a xlink:title="stdbool.h">
<polygon fill="#ffffff" stroke="black" points="727.5,-108 644.5,-108 644.5,-72 727.5,-72 727.5,-108"/>
<text text-anchor="middle" x="686" y="-86.3" font-family="Times,serif" font-size="14.00">stdbool.h</text>
</a>
</g>
</g>
<!-- 24 -->
<g id="node2" class="node">
<title>24</title>
<g id="a_node2"><a xlink:title="refc_binary.h">
<polygon fill="#ffffff" stroke="black" points="1136,-396 1028,-396 1028,-360 1136,-360 1136,-396"/>
<text text-anchor="middle" x="1082" y="-374.3" font-family="Times,serif" font-size="14.00">refc_binary.h</text>
</a>
</g>
</g>
<!-- 24&#45;&gt;7 -->
<g id="edge1" class="edge">
<title>24&#45;&gt;7</title>
<g id="a_edge1"><a xlink:title="include">
<path fill="none" stroke="#1414ce" d="M1058.08,-359.91C1046.38,-350.48 1032.93,-337.88 1024,-324 996.69,-281.57 1019.63,-256.1 989,-216 928.05,-136.21 807.18,-107.03 737.94,-96.6"/>
<polygon fill="#1414ce" stroke="#1414ce" points="738.1,-93.08 727.7,-95.13 737.11,-100.01 738.1,-93.08"/>
</a>
</g>
</g>
<!-- 14 -->
<g id="node8" class="node">
<title>14</title>
<g id="a_node8"><a xlink:title="list.h">
<polygon fill="#ffffff" stroke="black" points="713,-180 659,-180 659,-144 713,-144 713,-180"/>
<text text-anchor="middle" x="686" y="-158.3" font-family="Times,serif" font-size="14.00">list.h</text>
</a>
</g>
</g>
<!-- 24&#45;&gt;14 -->
<g id="edge3" class="edge">
<title>24&#45;&gt;14</title>
<g id="a_edge3"><a xlink:title="include">
<path fill="none" stroke="#1414ce" d="M1035.67,-359.86C979.18,-338.14 881.65,-297.95 804,-252 771.21,-232.59 736.76,-205.76 713.6,-186.64"/>
<polygon fill="#1414ce" stroke="#1414ce" points="715.83,-183.94 705.91,-180.22 711.35,-189.31 715.83,-183.94"/>
</a>
</g>
</g>
<!-- 5 -->
<g id="node10" class="node">
<title>5</title>
<g id="a_node10"><a xlink:title="stdlib.h">
<polygon fill="#ffffff" stroke="black" points="1215.5,-108 1144.5,-108 1144.5,-72 1215.5,-72 1215.5,-108"/>
<text text-anchor="middle" x="1180" y="-86.3" font-family="Times,serif" font-size="14.00">stdlib.h</text>
</a>
</g>
</g>
<!-- 24&#45;&gt;5 -->
<g id="edge2" class="edge">
<title>24&#45;&gt;5</title>
<g id="a_edge2"><a xlink:title="include">
<path fill="none" stroke="#1414ce" d="M1108.6,-359.92C1120.71,-350.74 1134.07,-338.36 1142,-324 1178.97,-257.04 1182.23,-163.89 1181.29,-118.32"/>
<polygon fill="#1414ce" stroke="#1414ce" points="1184.78,-117.95 1180.98,-108.05 1177.78,-118.15 1184.78,-117.95"/>
</a>
</g>
</g>
<!-- 25 -->
<g id="node14" class="node">
<title>25</title>
<g id="a_node14"><a xlink:title="resources.h">
<polygon fill="#ffffff" stroke="black" points="1133,-324 1033,-324 1033,-288 1133,-288 1133,-324"/>
<text text-anchor="middle" x="1083" y="-302.3" font-family="Times,serif" font-size="14.00">resources.h</text>
</a>
</g>
</g>
<!-- 24&#45;&gt;25 -->
<g id="edge4" class="edge">
<title>24&#45;&gt;25</title>
<g id="a_edge4"><a xlink:title="include">
<path fill="none" stroke="#1414ce" d="M1082.25,-359.7C1082.36,-351.98 1082.49,-342.71 1082.61,-334.11"/>
<polygon fill="#1414ce" stroke="#1414ce" points="1086.11,-334.15 1082.76,-324.1 1079.11,-334.05 1086.11,-334.15"/>
</a>
</g>
</g>
<!-- 28 -->
<g id="node3" class="node">
<title>28</title>
<g id="a_node3"><a xlink:title="nifs.h">
<polygon fill="#ffffff" stroke="black" points="382,-756 326,-756 326,-720 382,-720 382,-756"/>
<text text-anchor="middle" x="354" y="-734.3" font-family="Times,serif" font-size="14.00">nifs.h</text>
</a>
</g>
</g>
<!-- 4 -->
<g id="node4" class="node">
<title>4</title>
<g id="a_node4"><a xlink:title="atom.h">
<polygon fill="#ffffff" stroke="black" points="474,-468 408,-468 408,-432 474,-432 474,-468"/>
<text text-anchor="middle" x="441" y="-446.3" font-family="Times,serif" font-size="14.00">atom.h</text>
</a>
</g>
</g>
<!-- 28&#45;&gt;4 -->
<g id="edge5" class="edge">
<title>28&#45;&gt;4</title>
<g id="a_edge5"><a xlink:title="include">
<path fill="none" stroke="#1414ce" d="M359.18,-719.97C373.74,-672.09 415.13,-536.06 432.82,-477.9"/>
<polygon fill="#1414ce" stroke="#1414ce" points="436.17,-478.89 435.74,-468.31 429.48,-476.85 436.17,-478.89"/>
</a>
</g>
</g>
<!-- 29 -->
<g id="node11" class="node">
<title>29</title>
<g id="a_node11"><a xlink:title="context.h">
<polygon fill="#ffffff" stroke="black" points="592.5,-684 509.5,-684 509.5,-648 592.5,-648 592.5,-684"/>
<text text-anchor="middle" x="551" y="-662.3" font-family="Times,serif" font-size="14.00">context.h</text>
</a>
</g>
</g>
<!-- 28&#45;&gt;29 -->
<g id="edge6" class="edge">
<title>28&#45;&gt;29</title>
<g id="a_edge6"><a xlink:title="include">
<path fill="none" stroke="#1414ce" d="M382.23,-726.97C412.79,-716.11 462.2,-698.55 499.68,-685.23"/>
<polygon fill="#1414ce" stroke="#1414ce" points="501.17,-688.42 509.42,-681.77 498.83,-681.82 501.17,-688.42"/>
</a>
</g>
</g>
<!-- 30 -->
<g id="node18" class="node">
<title>30</title>
<g id="a_node18"><a xlink:title="exportedfunction.h">
<polygon fill="#ffffff" stroke="black" points="1379,-612 1227,-612 1227,-576 1379,-576 1379,-612"/>
<text text-anchor="middle" x="1303" y="-590.3" font-family="Times,serif" font-size="14.00">exportedfunction.h</text>
</a>
</g>
</g>
<!-- 28&#45;&gt;30 -->
<g id="edge7" class="edge">
<title>28&#45;&gt;30</title>
<g id="a_edge7"><a xlink:title="include">
<path fill="none" stroke="#1414ce" d="M382.14,-732.79C506.87,-714.13 1012.58,-638.46 1216.82,-607.89"/>
<polygon fill="#1414ce" stroke="#1414ce" points="1217.53,-611.33 1226.9,-606.39 1216.5,-604.4 1217.53,-611.33"/>
</a>
</g>
</g>
<!-- 3 -->
<g id="node9" class="node">
<title>3</title>
<g id="a_node9"><a xlink:title="stdint.h">
<polygon fill="#ffffff" stroke="black" points="730,-36 658,-36 658,0 730,0 730,-36"/>
<text text-anchor="middle" x="694" y="-14.3" font-family="Times,serif" font-size="14.00">stdint.h</text>
</a>
</g>
</g>
<!-- 4&#45;&gt;3 -->
<g id="edge8" class="edge">
<title>4&#45;&gt;3</title>
<g id="a_edge8"><a xlink:title="include">
<path fill="none" stroke="#1414ce" d="M420.19,-431.97C381.87,-398.54 304,-320.14 304,-235 304,-235 304,-235 304,-161 304,-104.74 344.03,-97.84 394,-72 476.16,-29.51 586.07,-20.34 647.47,-18.79"/>
<polygon fill="#1414ce" stroke="#1414ce" points="647.7,-22.29 657.63,-18.6 647.56,-15.29 647.7,-22.29"/>
</a>
</g>
</g>
<!-- 4&#45;&gt;5 -->
<g id="edge9" class="edge">
<title>4&#45;&gt;5</title>
<g id="a_edge9"><a xlink:title="include">
<path fill="none" stroke="#1414ce" d="M471.51,-431.87C542.87,-392.05 726.65,-290.94 885,-216 972.16,-174.75 1076.54,-132.05 1134.86,-108.78"/>
<polygon fill="#1414ce" stroke="#1414ce" points="1136.17,-112.02 1144.16,-105.07 1133.58,-105.52 1136.17,-112.02"/>
</a>
</g>
</g>
<!-- 10 -->
<g id="node5" class="node">
<title>10</title>
<g id="a_node5"><a xlink:title="assert.h">
<polygon fill="#ffffff" stroke="black" points="1649,-36 1575,-36 1575,0 1649,0 1649,-36"/>
<text text-anchor="middle" x="1612" y="-14.3" font-family="Times,serif" font-size="14.00">assert.h</text>
</a>
</g>
</g>
<!-- 22 -->
<g id="node6" class="node">
<title>22</title>
<g id="a_node6"><a xlink:title="utils.h">
<polygon fill="#ffffff" stroke="black" points="1364,-180 1302,-180 1302,-144 1364,-144 1364,-180"/>
<text text-anchor="middle" x="1333" y="-158.3" font-family="Times,serif" font-size="14.00">utils.h</text>
</a>
</g>
</g>
<!-- 22&#45;&gt;5 -->
<g id="edge12" class="edge">
<title>22&#45;&gt;5</title>
<g id="a_edge12"><a xlink:title="include">
<path fill="none" stroke="#1414ce" d="M1301.67,-146.67C1279.5,-136.52 1249.44,-122.77 1224.75,-111.47"/>
<polygon fill="#1414ce" stroke="#1414ce" points="1226.12,-108.25 1215.57,-107.28 1223.21,-114.62 1226.12,-108.25"/>
</a>
</g>
</g>
<!-- 23 -->
<g id="node16" class="node">
<title>23</title>
<g id="a_node16"><a xlink:title="stddef.h">
<polygon fill="#ffffff" stroke="black" points="1348,-108 1274,-108 1274,-72 1348,-72 1348,-108"/>
<text text-anchor="middle" x="1311" y="-86.3" font-family="Times,serif" font-size="14.00">stddef.h</text>
</a>
</g>
</g>
<!-- 22&#45;&gt;23 -->
<g id="edge10" class="edge">
<title>22&#45;&gt;23</title>
<g id="a_edge10"><a xlink:title="include">
<path fill="none" stroke="#1414ce" d="M1327.56,-143.7C1325.11,-135.9 1322.16,-126.51 1319.43,-117.83"/>
<polygon fill="#1414ce" stroke="#1414ce" points="1322.71,-116.59 1316.38,-108.1 1316.04,-118.69 1322.71,-116.59"/>
</a>
</g>
</g>
<!-- 16 -->
<g id="node28" class="node">
<title>16</title>
<g id="a_node28"><a xlink:title="stdio.h">
<polygon fill="#ffffff" stroke="black" points="1431.5,-108 1366.5,-108 1366.5,-72 1431.5,-72 1431.5,-108"/>
<text text-anchor="middle" x="1399" y="-86.3" font-family="Times,serif" font-size="14.00">stdio.h</text>
</a>
</g>
</g>
<!-- 22&#45;&gt;16 -->
<g id="edge11" class="edge">
<title>22&#45;&gt;16</title>
<g id="a_edge11"><a xlink:title="include">
<path fill="none" stroke="#1414ce" d="M1349.31,-143.7C1357.31,-135.22 1367.07,-124.86 1375.82,-115.58"/>
<polygon fill="#1414ce" stroke="#1414ce" points="1378.56,-117.78 1382.87,-108.1 1373.47,-112.98 1378.56,-117.78"/>
</a>
</g>
</g>
<!-- 15 -->
<g id="node7" class="node">
<title>15</title>
<g id="a_node7"><a xlink:title="synclist.h">
<polygon fill="#ffffff" stroke="black" points="647.5,-252 562.5,-252 562.5,-216 647.5,-216 647.5,-252"/>
<text text-anchor="middle" x="605" y="-230.3" font-family="Times,serif" font-size="14.00">synclist.h</text>
</a>
</g>
</g>
<!-- 15&#45;&gt;14 -->
<g id="edge14" class="edge">
<title>15&#45;&gt;14</title>
<g id="a_edge14"><a xlink:title="include">
<path fill="none" stroke="#1414ce" d="M625.02,-215.7C635.13,-206.97 647.54,-196.24 658.52,-186.75"/>
<polygon fill="#1414ce" stroke="#1414ce" points="660.93,-189.29 666.21,-180.1 656.35,-183.99 660.93,-189.29"/>
</a>
</g>
</g>
<!-- 17 -->
<g id="node25" class="node">
<title>17</title>
<g id="a_node25"><a xlink:title="smp.h">
<polygon fill="#ffffff" stroke="black" points="430,-180 370,-180 370,-144 430,-144 430,-180"/>
<text text-anchor="middle" x="400" y="-158.3" font-family="Times,serif" font-size="14.00">smp.h</text>
</a>
</g>
</g>
<!-- 15&#45;&gt;17 -->
<g id="edge15" class="edge">
<title>15&#45;&gt;17</title>
<g id="a_edge15"><a xlink:title="include">
<path fill="none" stroke="#1414ce" d="M562.03,-218.33C526.12,-206.07 475.3,-188.71 440.2,-176.73"/>
<polygon fill="#1414ce" stroke="#1414ce" points="440.88,-173.26 430.29,-173.34 438.62,-179.89 440.88,-173.26"/>
</a>
</g>
</g>
<!-- 15&#45;&gt;16 -->
<g id="edge13" class="edge">
<title>15&#45;&gt;16</title>
<g id="a_edge13"><a xlink:title="include">
<path fill="none" stroke="#1414ce" d="M647.7,-229.22C762.23,-218.39 1085.3,-183.23 1356.6,-107.76"/>
<polygon fill="#1414ce" stroke="#1414ce" points="1357.54,-111.13 1366.22,-105.06 1355.65,-104.39 1357.54,-111.13"/>
</a>
</g>
</g>
<!-- 14&#45;&gt;7 -->
<g id="edge16" class="edge">
<title>14&#45;&gt;7</title>
<g id="a_edge16"><a xlink:title="include">
<path fill="none" stroke="#1414ce" d="M686,-143.7C686,-135.98 686,-126.71 686,-118.11"/>
<polygon fill="#1414ce" stroke="#1414ce" points="689.5,-118.1 686,-108.1 682.5,-118.1 689.5,-118.1"/>
</a>
</g>
</g>
<!-- 29&#45;&gt;14 -->
<g id="edge18" class="edge">
<title>29&#45;&gt;14</title>
<g id="a_edge18"><a xlink:title="include">
<path fill="none" stroke="#1414ce" d="M592.65,-655.49C651.52,-639.3 752,-600.33 752,-523 752,-523 752,-523 752,-377 752,-306.75 719.12,-229.06 699.78,-189.43"/>
<polygon fill="#1414ce" stroke="#1414ce" points="702.77,-187.59 695.18,-180.2 696.5,-190.71 702.77,-187.59"/>
</a>
</g>
</g>
<!-- 18 -->
<g id="node15" class="node">
<title>18</title>
<g id="a_node15"><a xlink:title="term.h">
<polygon fill="#ffffff" stroke="black" points="1174.5,-468 1109.5,-468 1109.5,-432 1174.5,-432 1174.5,-468"/>
<text text-anchor="middle" x="1142" y="-446.3" font-family="Times,serif" font-size="14.00">term.h</text>
</a>
</g>
</g>
<!-- 29&#45;&gt;18 -->
<g id="edge21" class="edge">
<title>29&#45;&gt;18</title>
<g id="a_edge21"><a xlink:title="include">
<path fill="none" stroke="#1414ce" d="M592.56,-660.48C669.53,-651.76 831.22,-631.74 884,-612 974.55,-578.14 1067.56,-510.35 1113.18,-474.49"/>
<polygon fill="#1414ce" stroke="#1414ce" points="1115.48,-477.14 1121.14,-468.18 1111.13,-471.65 1115.48,-477.14"/>
</a>
</g>
</g>
<!-- 2 -->
<g id="node24" class="node">
<title>2</title>
<g id="a_node24"><a xlink:title="globalcontext.h">
<polygon fill="#ffffff" stroke="black" points="614.5,-612 487.5,-612 487.5,-576 614.5,-576 614.5,-612"/>
<text text-anchor="middle" x="551" y="-590.3" font-family="Times,serif" font-size="14.00">globalcontext.h</text>
</a>
</g>
</g>
<!-- 29&#45;&gt;2 -->
<g id="edge17" class="edge">
<title>29&#45;&gt;2</title>
<g id="a_edge17"><a xlink:title="include">
<path fill="none" stroke="#1414ce" d="M551,-647.7C551,-639.98 551,-630.71 551,-622.11"/>
<polygon fill="#1414ce" stroke="#1414ce" points="554.5,-622.1 551,-612.1 547.5,-622.1 554.5,-622.1"/>
</a>
</g>
</g>
<!-- 29&#45;&gt;17 -->
<g id="edge20" class="edge">
<title>29&#45;&gt;17</title>
<g id="a_edge20"><a xlink:title="include">
<path fill="none" stroke="#1414ce" d="M509.43,-655.93C422.2,-635.69 228,-583.8 228,-523 228,-523 228,-523 228,-305 228,-236.79 309.43,-195.22 360.24,-175.92"/>
<polygon fill="#1414ce" stroke="#1414ce" points="361.46,-179.2 369.65,-172.46 359.05,-172.63 361.46,-179.2"/>
</a>
</g>
</g>
<!-- 27 -->
<g id="node26" class="node">
<title>27</title>
<g id="a_node26"><a xlink:title="timer_list.h">
<polygon fill="#ffffff" stroke="black" points="468,-252 370,-252 370,-216 468,-216 468,-252"/>
<text text-anchor="middle" x="419" y="-230.3" font-family="Times,serif" font-size="14.00">timer_list.h</text>
</a>
</g>
</g>
<!-- 29&#45;&gt;27 -->
<g id="edge22" class="edge">
<title>29&#45;&gt;27</title>
<g id="a_edge22"><a xlink:title="include">
<path fill="none" stroke="#1414ce" d="M517.57,-647.92C481.71,-627.58 426.49,-589.98 401,-540 350.11,-440.22 370.56,-396.85 397,-288 399.16,-279.09 402.61,-269.74 406.15,-261.42"/>
<polygon fill="#1414ce" stroke="#1414ce" points="409.38,-262.76 410.26,-252.21 402.99,-259.91 409.38,-262.76"/>
</a>
</g>
</g>
<!-- 26 -->
<g id="node27" class="node">
<title>26</title>
<g id="a_node27"><a xlink:title="mailbox.h">
<polygon fill="#ffffff" stroke="black" points="980,-252 894,-252 894,-216 980,-216 980,-252"/>
<text text-anchor="middle" x="937" y="-230.3" font-family="Times,serif" font-size="14.00">mailbox.h</text>
</a>
</g>
</g>
<!-- 29&#45;&gt;26 -->
<g id="edge19" class="edge">
<title>29&#45;&gt;26</title>
<g id="a_edge19"><a xlink:title="include">
<path fill="none" stroke="#1414ce" d="M592.62,-660.55C637.46,-654.47 709.93,-640.82 766,-612 820.11,-584.19 870,-583.84 870,-523 870,-523 870,-523 870,-377 870,-332.73 896.97,-287.47 916.69,-260.3"/>
<polygon fill="#1414ce" stroke="#1414ce" points="919.6,-262.25 922.79,-252.14 914,-258.05 919.6,-262.25"/>
</a>
</g>
</g>
<!-- 21 -->
<g id="node12" class="node">
<title>21</title>
<g id="a_node12"><a xlink:title="memory.h">
<polygon fill="#ffffff" stroke="black" points="1312,-252 1226,-252 1226,-216 1312,-216 1312,-252"/>
<text text-anchor="middle" x="1269" y="-230.3" font-family="Times,serif" font-size="14.00">memory.h</text>
</a>
</g>
</g>
<!-- 21&#45;&gt;22 -->
<g id="edge27" class="edge">
<title>21&#45;&gt;22</title>
<g id="a_edge27"><a xlink:title="include">
<path fill="none" stroke="#1414ce" d="M1284.82,-215.7C1292.57,-207.22 1302.04,-196.86 1310.52,-187.58"/>
<polygon fill="#1414ce" stroke="#1414ce" points="1313.2,-189.85 1317.36,-180.1 1308.03,-185.12 1313.2,-189.85"/>
</a>
</g>
</g>
<!-- 21&#45;&gt;3 -->
<g id="edge23" class="edge">
<title>21&#45;&gt;3</title>
<g id="a_edge23"><a xlink:title="include">
<path fill="none" stroke="#1414ce" d="M1269.94,-215.88C1270.74,-182.39 1267.21,-108.32 1224,-72 1187.33,-41.18 862.79,-25.53 740.42,-20.68"/>
<polygon fill="#1414ce" stroke="#1414ce" points="740.37,-17.18 730.25,-20.29 740.1,-24.17 740.37,-17.18"/>
</a>
</g>
</g>
<!-- 21&#45;&gt;5 -->
<g id="edge24" class="edge">
<title>21&#45;&gt;5</title>
<g id="a_edge24"><a xlink:title="include">
<path fill="none" stroke="#1414ce" d="M1258.26,-215.87C1242.83,-191.24 1214.24,-145.64 1196.22,-116.88"/>
<polygon fill="#1414ce" stroke="#1414ce" points="1199.05,-114.8 1190.77,-108.19 1193.12,-118.52 1199.05,-114.8"/>
</a>
</g>
</g>
<!-- 8 -->
<g id="node17" class="node">
<title>8</title>
<g id="a_node17"><a xlink:title="erl_nif.h">
<polygon fill="#ffffff" stroke="black" points="1532,-180 1458,-180 1458,-144 1532,-144 1532,-180"/>
<text text-anchor="middle" x="1495" y="-158.3" font-family="Times,serif" font-size="14.00">erl_nif.h</text>
</a>
</g>
</g>
<!-- 21&#45;&gt;8 -->
<g id="edge25" class="edge">
<title>21&#45;&gt;8</title>
<g id="a_edge25"><a xlink:title="include">
<path fill="none" stroke="#1414ce" d="M1312.04,-219.67C1350.88,-207.64 1407.91,-189.97 1447.95,-177.57"/>
<polygon fill="#1414ce" stroke="#1414ce" points="1449.22,-180.84 1457.74,-174.54 1447.15,-174.16 1449.22,-180.84"/>
</a>
</g>
</g>
<!-- 9 -->
<g id="node23" class="node">
<title>9</title>
<g id="a_node23"><a xlink:title="term_typedef.h">
<polygon fill="#ffffff" stroke="black" points="1574.5,-108 1449.5,-108 1449.5,-72 1574.5,-72 1574.5,-108"/>
<text text-anchor="middle" x="1512" y="-86.3" font-family="Times,serif" font-size="14.00">term_typedef.h</text>
</a>
</g>
</g>
<!-- 21&#45;&gt;9 -->
<g id="edge26" class="edge">
<title>21&#45;&gt;9</title>
<g id="a_edge26"><a xlink:title="include">
<path fill="none" stroke="#1414ce" d="M1304.6,-215.94C1324.9,-205.94 1350.67,-192.8 1373,-180 1409.79,-158.91 1450.49,-132.47 1478.29,-113.9"/>
<polygon fill="#1414ce" stroke="#1414ce" points="1480.49,-116.64 1486.84,-108.17 1476.59,-110.83 1480.49,-116.64"/>
</a>
</g>
</g>
<!-- 1 -->
<g id="node13" class="node">
<title>1</title>
<g id="a_node13"><a xlink:title="/__w/AtomVM/AtomVM/src/libAtomVM/otp_net.h">
<polygon fill="#bfbfbf" stroke="black" points="360,-828 0,-828 0,-792 360,-792 360,-828"/>
<text text-anchor="middle" x="180" y="-806.3" font-family="Times,serif" font-size="14.00">/__w/AtomVM/AtomVM/src/libAtomVM/otp_net.h</text>
</a>
</g>
</g>
<!-- 1&#45;&gt;28 -->
<g id="edge29" class="edge">
<title>1&#45;&gt;28</title>
<g id="a_edge29"><a xlink:title="include">
<path fill="none" stroke="#1414ce" d="M222.57,-791.88C251.36,-780.29 289.04,-765.13 316.67,-754.02"/>
<polygon fill="#1414ce" stroke="#1414ce" points="318.02,-757.25 326,-750.27 315.41,-750.75 318.02,-757.25"/>
</a>
</g>
</g>
<!-- 1&#45;&gt;2 -->
<g id="edge28" class="edge">
<title>1&#45;&gt;2</title>
<g id="a_edge28"><a xlink:title="include">
<path fill="none" stroke="#1414ce" d="M204.84,-791.94C231.99,-773.52 276.95,-743.65 317,-720 382.25,-681.47 460.29,-640.83 507.72,-616.71"/>
<polygon fill="#1414ce" stroke="#1414ce" points="509.45,-619.76 516.78,-612.12 506.28,-613.52 509.45,-619.76"/>
</a>
</g>
</g>
<!-- 25&#45;&gt;15 -->
<g id="edge34" class="edge">
<title>25&#45;&gt;15</title>
<g id="a_edge34"><a xlink:title="include">
<path fill="none" stroke="#1414ce" d="M1032.75,-297.64C941.72,-284.31 750.4,-256.29 657.64,-242.71"/>
<polygon fill="#1414ce" stroke="#1414ce" points="658.04,-239.23 647.64,-241.24 657.03,-246.16 658.04,-239.23"/>
</a>
</g>
</g>
<!-- 25&#45;&gt;14 -->
<g id="edge32" class="edge">
<title>25&#45;&gt;14</title>
<g id="a_edge32"><a xlink:title="include">
<path fill="none" stroke="#1414ce" d="M1032.69,-293.87C992.27,-284.37 934.3,-269.5 885,-252 880.88,-250.54 779,-204.8 722.65,-179.48"/>
<polygon fill="#1414ce" stroke="#1414ce" points="723.92,-176.21 713.36,-175.3 721.05,-182.6 723.92,-176.21"/>
</a>
</g>
</g>
<!-- 25&#45;&gt;5 -->
<g id="edge30" class="edge">
<title>25&#45;&gt;5</title>
<g id="a_edge30"><a xlink:title="include">
<path fill="none" stroke="#1414ce" d="M1088.55,-287.6C1098.4,-257.53 1120.36,-194.27 1146,-144 1150.72,-134.75 1156.62,-125.06 1162.17,-116.54"/>
<polygon fill="#1414ce" stroke="#1414ce" points="1165.13,-118.41 1167.77,-108.15 1159.31,-114.53 1165.13,-118.41"/>
</a>
</g>
</g>
<!-- 25&#45;&gt;21 -->
<g id="edge33" class="edge">
<title>25&#45;&gt;21</title>
<g id="a_edge33"><a xlink:title="include">
<path fill="none" stroke="#1414ce" d="M1128.5,-287.88C1155.05,-277.88 1188.67,-265.23 1216.36,-254.81"/>
<polygon fill="#1414ce" stroke="#1414ce" points="1217.76,-258.02 1225.89,-251.23 1215.29,-251.47 1217.76,-258.02"/>
</a>
</g>
</g>
<!-- 25&#45;&gt;8 -->
<g id="edge31" class="edge">
<title>25&#45;&gt;8</title>
<g id="a_edge31"><a xlink:title="include">
<path fill="none" stroke="#1414ce" d="M1133.27,-297.62C1182.17,-289.55 1258.08,-274.68 1321,-252 1370.52,-234.15 1423.92,-205.25 1458.31,-185.25"/>
<polygon fill="#1414ce" stroke="#1414ce" points="1460.21,-188.19 1467.06,-180.11 1456.67,-182.16 1460.21,-188.19"/>
</a>
</g>
</g>
<!-- 18&#45;&gt;7 -->
<g id="edge36" class="edge">
<title>18&#45;&gt;7</title>
<g id="a_edge36"><a xlink:title="include">
<path fill="none" stroke="#1414ce" d="M1109.32,-449.49C1058.87,-448.7 960.89,-440.92 894,-396 893.13,-395.41 753.7,-190.52 703.64,-116.93"/>
<polygon fill="#1414ce" stroke="#1414ce" points="706.24,-114.53 697.72,-108.23 700.45,-118.47 706.24,-114.53"/>
</a>
</g>
</g>
<!-- 18&#45;&gt;24 -->
<g id="edge42" class="edge">
<title>18&#45;&gt;24</title>
<g id="a_edge42"><a xlink:title="include">
<path fill="none" stroke="#1414ce" d="M1127.17,-431.7C1119.98,-423.3 1111.2,-413.07 1103.31,-403.86"/>
<polygon fill="#1414ce" stroke="#1414ce" points="1105.83,-401.42 1096.66,-396.1 1100.51,-405.97 1105.83,-401.42"/>
</a>
</g>
</g>
<!-- 18&#45;&gt;22 -->
<g id="edge43" class="edge">
<title>18&#45;&gt;22</title>
<g id="a_edge43"><a xlink:title="include">
<path fill="none" stroke="#1414ce" d="M1174.75,-449.25C1214.74,-447.6 1281.22,-438.17 1315,-396 1362.98,-336.09 1349.88,-237.47 1339.77,-190.08"/>
<polygon fill="#1414ce" stroke="#1414ce" points="1343.16,-189.23 1337.55,-180.25 1336.33,-190.77 1343.16,-189.23"/>
</a>
</g>
</g>
<!-- 18&#45;&gt;3 -->
<g id="edge37" class="edge">
<title>18&#45;&gt;3</title>
<g id="a_edge37"><a xlink:title="include">
<path fill="none" stroke="#1414ce" d="M1109.27,-445.79C1054.79,-439.7 949.29,-424.45 927,-396 874.82,-329.39 1028.9,-290.62 989,-216 936,-116.87 808.61,-58.95 739.86,-33.87"/>
<polygon fill="#1414ce" stroke="#1414ce" points="740.75,-30.47 730.15,-30.41 738.4,-37.07 740.75,-30.47"/>
</a>
</g>
</g>
<!-- 18&#45;&gt;5 -->
<g id="edge39" class="edge">
<title>18&#45;&gt;5</title>
<g id="a_edge39"><a xlink:title="include">
<path fill="none" stroke="#1414ce" d="M1174.6,-444.23C1202.58,-438.23 1241.27,-424.94 1260,-396 1268.69,-382.57 1263.01,-375.71 1260,-360 1250.27,-309.26 1232.39,-301.32 1217,-252 1202.57,-205.76 1191.08,-150.45 1184.92,-118.17"/>
<polygon fill="#1414ce" stroke="#1414ce" points="1188.33,-117.33 1183.05,-108.15 1181.45,-118.62 1188.33,-117.33"/>
</a>
</g>
</g>
<!-- 18&#45;&gt;21 -->
<g id="edge41" class="edge">
<title>18&#45;&gt;21</title>
<g id="a_edge41"><a xlink:title="include">
<path fill="none" stroke="#1414ce" d="M1174.54,-448.03C1210.52,-445.01 1266.97,-434.05 1294,-396 1322.67,-355.63 1300.45,-295.2 1283.52,-261.01"/>
<polygon fill="#1414ce" stroke="#1414ce" points="1286.62,-259.39 1278.94,-252.1 1280.4,-262.59 1286.62,-259.39"/>
</a>
</g>
</g>
<!-- 19 -->
<g id="node21" class="node">
<title>19</title>
<g id="a_node21"><a xlink:title="sys/types.h">
<polygon fill="#ffffff" stroke="black" points="1251.5,-396 1154.5,-396 1154.5,-360 1251.5,-360 1251.5,-396"/>
<text text-anchor="middle" x="1203" y="-374.3" font-family="Times,serif" font-size="14.00">sys/types.h</text>
</a>
</g>
</g>
<!-- 18&#45;&gt;19 -->
<g id="edge35" class="edge">
<title>18&#45;&gt;19</title>
<g id="a_edge35"><a xlink:title="include">
<path fill="none" stroke="#1414ce" d="M1157.08,-431.7C1164.39,-423.3 1173.31,-413.07 1181.34,-403.86"/>
<polygon fill="#1414ce" stroke="#1414ce" points="1184.16,-405.94 1188.09,-396.1 1178.89,-401.34 1184.16,-405.94"/>
</a>
</g>
</g>
<!-- 20 -->
<g id="node22" class="node">
<title>20</title>
<g id="a_node22"><a xlink:title="string.h">
<polygon fill="#ffffff" stroke="black" points="1009.5,-396 936.5,-396 936.5,-360 1009.5,-360 1009.5,-396"/>
<text text-anchor="middle" x="973" y="-374.3" font-family="Times,serif" font-size="14.00">string.h</text>
</a>
</g>
</g>
<!-- 18&#45;&gt;20 -->
<g id="edge40" class="edge">
<title>18&#45;&gt;20</title>
<g id="a_edge40"><a xlink:title="include">
<path fill="none" stroke="#1414ce" d="M1109.42,-435.5C1083.73,-424.87 1047.61,-409.9 1018.99,-398.05"/>
<polygon fill="#1414ce" stroke="#1414ce" points="1020.17,-394.75 1009.59,-394.16 1017.49,-401.22 1020.17,-394.75"/>
</a>
</g>
</g>
<!-- 18&#45;&gt;9 -->
<g id="edge44" class="edge">
<title>18&#45;&gt;9</title>
<g id="a_edge44"><a xlink:title="include">
<path fill="none" stroke="#1414ce" d="M1174.66,-445.86C1215.78,-440.7 1287.4,-427.64 1340,-396 1452.38,-328.42 1493,-302.04 1541,-180 1549.21,-159.14 1540.15,-134.91 1530.05,-117.01"/>
<polygon fill="#1414ce" stroke="#1414ce" points="1532.93,-115.02 1524.76,-108.28 1526.94,-118.64 1532.93,-115.02"/>
</a>
</g>
</g>
<!-- 18&#45;&gt;16 -->
<g id="edge38" class="edge">
<title>18&#45;&gt;16</title>
<g id="a_edge38"><a xlink:title="include">
<path fill="none" stroke="#1414ce" d="M1174.72,-449.45C1218.26,-448.24 1294.95,-439.5 1340,-396 1417.25,-321.41 1410.03,-178.35 1403,-118.44"/>
<polygon fill="#1414ce" stroke="#1414ce" points="1406.44,-117.74 1401.71,-108.26 1399.49,-118.62 1406.44,-117.74"/>
</a>
</g>
</g>
<!-- 8&#45;&gt;9 -->
<g id="edge45" class="edge">
<title>8&#45;&gt;9</title>
<g id="a_edge45"><a xlink:title="include">
<path fill="none" stroke="#1414ce" d="M1499.2,-143.7C1501.1,-135.9 1503.38,-126.51 1505.48,-117.83"/>
<polygon fill="#1414ce" stroke="#1414ce" points="1508.89,-118.65 1507.85,-108.1 1502.08,-117 1508.89,-118.65"/>
</a>
</g>
</g>
<!-- 30&#45;&gt;18 -->
<g id="edge46" class="edge">
<title>30&#45;&gt;18</title>
<g id="a_edge46"><a xlink:title="include">
<path fill="none" stroke="#1414ce" d="M1283.58,-575.87C1255.05,-550.71 1201.7,-503.65 1169.26,-475.04"/>
<polygon fill="#1414ce" stroke="#1414ce" points="1171.3,-472.18 1161.49,-468.19 1166.67,-477.43 1171.3,-472.18"/>
</a>
</g>
</g>
<!-- 11 -->
<g id="node19" class="node">
<title>11</title>
<g id="a_node19"><a xlink:title="limits.h">
<polygon fill="#ffffff" stroke="black" points="1449.5,-36 1378.5,-36 1378.5,0 1449.5,0 1449.5,-36"/>
<text text-anchor="middle" x="1414" y="-14.3" font-family="Times,serif" font-size="14.00">limits.h</text>
</a>
</g>
</g>
<!-- 6 -->
<g id="node20" class="node">
<title>6</title>
<g id="a_node20"><a xlink:title="atom_table.h">
<polygon fill="#ffffff" stroke="black" points="555.5,-540 446.5,-540 446.5,-504 555.5,-504 555.5,-540"/>
<text text-anchor="middle" x="501" y="-518.3" font-family="Times,serif" font-size="14.00">atom_table.h</text>
</a>
</g>
</g>
<!-- 6&#45;&gt;7 -->
<g id="edge47" class="edge">
<title>6&#45;&gt;7</title>
<g id="a_edge47"><a xlink:title="include">
<path fill="none" stroke="#1414ce" d="M498.4,-503.78C491.9,-455.05 479.16,-313.38 533,-216 558.4,-170.06 608.1,-134.38 643.98,-113.11"/>
<polygon fill="#1414ce" stroke="#1414ce" points="645.88,-116.05 652.78,-108.01 642.37,-109.99 645.88,-116.05"/>
</a>
</g>
</g>
<!-- 6&#45;&gt;4 -->
<g id="edge48" class="edge">
<title>6&#45;&gt;4</title>
<g id="a_edge48"><a xlink:title="include">
<path fill="none" stroke="#1414ce" d="M486.17,-503.7C478.98,-495.3 470.2,-485.07 462.31,-475.86"/>
<polygon fill="#1414ce" stroke="#1414ce" points="464.83,-473.42 455.66,-468.1 459.51,-477.97 464.83,-473.42"/>
</a>
</g>
</g>
<!-- 9&#45;&gt;10 -->
<g id="edge49" class="edge">
<title>9&#45;&gt;10</title>
<g id="a_edge49"><a xlink:title="include">
<path fill="none" stroke="#1414ce" d="M1536.46,-71.88C1549.3,-62.89 1565.2,-51.76 1579.09,-42.03"/>
<polygon fill="#1414ce" stroke="#1414ce" points="1581.26,-44.79 1587.44,-36.19 1577.24,-39.06 1581.26,-44.79"/>
</a>
</g>
</g>
<!-- 9&#45;&gt;3 -->
<g id="edge52" class="edge">
<title>9&#45;&gt;3</title>
<g id="a_edge52"><a xlink:title="include">
<path fill="none" stroke="#1414ce" d="M1449.39,-73.42C1446.56,-72.9 1443.76,-72.42 1441,-72 1178.13,-31.48 858.36,-21.88 740.5,-19.65"/>
<polygon fill="#1414ce" stroke="#1414ce" points="740.44,-16.15 730.38,-19.47 740.32,-23.15 740.44,-16.15"/>
</a>
</g>
</g>
<!-- 9&#45;&gt;11 -->
<g id="edge50" class="edge">
<title>9&#45;&gt;11</title>
<g id="a_edge50"><a xlink:title="include">
<path fill="none" stroke="#1414ce" d="M1488.03,-71.88C1475.45,-62.89 1459.87,-51.76 1446.25,-42.03"/>
<polygon fill="#1414ce" stroke="#1414ce" points="1448.24,-39.15 1438.07,-36.19 1444.17,-44.85 1448.24,-39.15"/>
</a>
</g>
</g>
<!-- 12 -->
<g id="node30" class="node">
<title>12</title>
<g id="a_node30"><a xlink:title="inttypes.h">
<polygon fill="#ffffff" stroke="black" points="1556.5,-36 1467.5,-36 1467.5,0 1556.5,0 1556.5,-36"/>
<text text-anchor="middle" x="1512" y="-14.3" font-family="Times,serif" font-size="14.00">inttypes.h</text>
</a>
</g>
</g>
<!-- 9&#45;&gt;12 -->
<g id="edge51" class="edge">
<title>9&#45;&gt;12</title>
<g id="a_edge51"><a xlink:title="include">
<path fill="none" stroke="#1414ce" d="M1512,-71.7C1512,-63.98 1512,-54.71 1512,-46.11"/>
<polygon fill="#1414ce" stroke="#1414ce" points="1515.5,-46.1 1512,-36.1 1508.5,-46.1 1515.5,-46.1"/>
</a>
</g>
</g>
<!-- 2&#45;&gt;4 -->
<g id="edge54" class="edge">
<title>2&#45;&gt;4</title>
<g id="a_edge54"><a xlink:title="include">
<path fill="none" stroke="#1414ce" d="M487.47,-577.96C467.91,-570.03 448.5,-558.03 437,-540 425.35,-521.74 427.65,-496.82 432.11,-477.99"/>
<polygon fill="#1414ce" stroke="#1414ce" points="435.52,-478.81 434.74,-468.24 428.76,-476.98 435.52,-478.81"/>
</a>
</g>
</g>
<!-- 2&#45;&gt;15 -->
<g id="edge61" class="edge">
<title>2&#45;&gt;15</title>
<g id="a_edge61"><a xlink:title="include">
<path fill="none" stroke="#1414ce" d="M596.55,-575.98C612.25,-567.66 628.11,-555.93 637,-540 688.18,-448.35 641.54,-316.96 617.4,-261.4"/>
<polygon fill="#1414ce" stroke="#1414ce" points="620.59,-259.95 613.33,-252.24 614.2,-262.8 620.59,-259.95"/>
</a>
</g>
</g>
<!-- 2&#45;&gt;14 -->
<g id="edge58" class="edge">
<title>2&#45;&gt;14</title>
<g id="a_edge58"><a xlink:title="include">
<path fill="none" stroke="#1414ce" d="M609.01,-575.96C627.49,-567.84 646.39,-556.25 659,-540 701.08,-485.77 692.42,-268.39 687.84,-190.74"/>
<polygon fill="#1414ce" stroke="#1414ce" points="691.31,-190.1 687.2,-180.34 684.32,-190.53 691.31,-190.1"/>
</a>
</g>
</g>
<!-- 2&#45;&gt;3 -->
<g id="edge53" class="edge">
<title>2&#45;&gt;3</title>
<g id="a_edge53"><a xlink:title="include">
<path fill="none" stroke="#1414ce" d="M487.31,-584.99C451.03,-577.89 406.31,-564.64 373,-540 303.92,-488.91 266,-464.92 266,-379 266,-379 266,-379 266,-161 266,-113.54 284.89,-97.37 325,-72 377.82,-38.59 560.99,-25.42 647.75,-20.97"/>
<polygon fill="#1414ce" stroke="#1414ce" points="648.02,-24.46 657.83,-20.47 647.67,-17.47 648.02,-24.46"/>
</a>
</g>
</g>
<!-- 2&#45;&gt;18 -->
<g id="edge62" class="edge">
<title>2&#45;&gt;18</title>
<g id="a_edge62"><a xlink:title="include">
<path fill="none" stroke="#1414ce" d="M614.62,-580.69C666.12,-570.49 740.44,-555.25 805,-540 911.49,-514.85 1035.68,-480.82 1099.44,-463.01"/>
<polygon fill="#1414ce" stroke="#1414ce" points="1100.45,-466.36 1109.14,-460.29 1098.56,-459.62 1100.45,-466.36"/>
</a>
</g>
</g>
<!-- 2&#45;&gt;8 -->
<g id="edge56" class="edge">
<title>2&#45;&gt;8</title>
<g id="a_edge56"><a xlink:title="include">
<path fill="none" stroke="#1414ce" d="M614.53,-589.9C822.55,-578.91 1470,-537.72 1470,-451 1470,-451 1470,-451 1470,-305 1470,-264.6 1479.94,-218.71 1487.28,-190.3"/>
<polygon fill="#1414ce" stroke="#1414ce" points="1490.75,-190.88 1489.94,-180.32 1483.98,-189.08 1490.75,-190.88"/>
</a>
</g>
</g>
<!-- 2&#45;&gt;6 -->
<g id="edge55" class="edge">
<title>2&#45;&gt;6</title>
<g id="a_edge55"><a xlink:title="include">
<path fill="none" stroke="#1414ce" d="M538.64,-575.7C532.77,-567.47 525.63,-557.48 519.16,-548.42"/>
<polygon fill="#1414ce" stroke="#1414ce" points="521.88,-546.21 513.22,-540.1 516.18,-550.28 521.88,-546.21"/>
</a>
</g>
</g>
<!-- 2&#45;&gt;17 -->
<g id="edge60" class="edge">
<title>2&#45;&gt;17</title>
<g id="a_edge60"><a xlink:title="include">
<path fill="none" stroke="#1414ce" d="M487.22,-577.57C451.75,-567.67 412.48,-554.07 401,-540 319.28,-439.89 369.91,-380.92 361,-252 359.9,-236.04 356.01,-231.2 361,-216 364.31,-205.91 370.37,-196.15 376.73,-187.82"/>
<polygon fill="#1414ce" stroke="#1414ce" points="379.5,-189.97 383.11,-180.01 374.08,-185.54 379.5,-189.97"/>
</a>
</g>
</g>
<!-- 2&#45;&gt;27 -->
<g id="edge63" class="edge">
<title>2&#45;&gt;27</title>
<g id="a_edge63"><a xlink:title="include">
<path fill="none" stroke="#1414ce" d="M487.49,-577.71C465.29,-569.65 441.75,-557.64 425,-540 401.57,-515.33 404.87,-501.51 399,-468 386.07,-394.11 402.22,-305.51 412.21,-261.92"/>
<polygon fill="#1414ce" stroke="#1414ce" points="415.64,-262.63 414.54,-252.09 408.83,-261.01 415.64,-262.63"/>
</a>
</g>
</g>
<!-- 2&#45;&gt;26 -->
<g id="edge59" class="edge">
<title>2&#45;&gt;26</title>
<g id="a_edge59"><a xlink:title="include">
<path fill="none" stroke="#1414ce" d="M614.59,-586.47C651.2,-579.88 696.12,-566.63 728,-540 824.41,-459.47 772.16,-381.55 856,-288 866.67,-276.09 880.6,-265.71 893.89,-257.37"/>
<polygon fill="#1414ce" stroke="#1414ce" points="895.73,-260.35 902.49,-252.19 892.12,-254.35 895.73,-260.35"/>
</a>
</g>
</g>
<!-- 13 -->
<g id="node29" class="node">
<title>13</title>
<g id="a_node29"><a xlink:title="ets.h">
<polygon fill="#ffffff" stroke="black" points="628,-540 574,-540 574,-504 628,-504 628,-540"/>
<text text-anchor="middle" x="601" y="-518.3" font-family="Times,serif" font-size="14.00">ets.h</text>
</a>
</g>
</g>
<!-- 2&#45;&gt;13 -->
<g id="edge57" class="edge">
<title>2&#45;&gt;13</title>
<g id="a_edge57"><a xlink:title="include">
<path fill="none" stroke="#1414ce" d="M563.36,-575.7C569.23,-567.47 576.37,-557.48 582.84,-548.42"/>
<polygon fill="#1414ce" stroke="#1414ce" points="585.82,-550.28 588.78,-540.1 580.12,-546.21 585.82,-550.28"/>
</a>
</g>
</g>
<!-- 17&#45;&gt;7 -->
<g id="edge64" class="edge">
<title>17&#45;&gt;7</title>
<g id="a_edge64"><a xlink:title="include">
<path fill="none" stroke="#1414ce" d="M430.08,-148.68C434.71,-146.99 439.45,-145.37 444,-144 508.6,-124.57 584.88,-109.06 634.28,-99.95"/>
<polygon fill="#1414ce" stroke="#1414ce" points="635.19,-103.34 644.4,-98.11 633.94,-96.46 635.19,-103.34"/>
</a>
</g>
</g>
<!-- 27&#45;&gt;7 -->
<g id="edge65" class="edge">
<title>27&#45;&gt;7</title>
<g id="a_edge65"><a xlink:title="include">
<path fill="none" stroke="#1414ce" d="M426.59,-215.81C436.43,-195.54 455.52,-162.29 482,-144 527.43,-112.62 590.19,-99.82 634.06,-94.6"/>
<polygon fill="#1414ce" stroke="#1414ce" points="634.66,-98.05 644.22,-93.48 633.9,-91.09 634.66,-98.05"/>
</a>
</g>
</g>
<!-- 27&#45;&gt;14 -->
<g id="edge67" class="edge">
<title>27&#45;&gt;14</title>
<g id="a_edge67"><a xlink:title="include">
<path fill="none" stroke="#1414ce" d="M468.28,-220.08C520.5,-206.39 601.78,-185.08 648.86,-172.74"/>
<polygon fill="#1414ce" stroke="#1414ce" points="649.85,-176.09 658.64,-170.17 648.08,-169.32 649.85,-176.09"/>
</a>
</g>
</g>
<!-- 27&#45;&gt;3 -->
<g id="edge66" class="edge">
<title>27&#45;&gt;3</title>
<g id="a_edge66"><a xlink:title="include">
<path fill="none" stroke="#1414ce" d="M391.66,-215.77C379.89,-206.72 367.38,-194.48 361,-180 354.55,-165.36 351.89,-157.15 361,-144 426.49,-49.46 572.94,-26.32 647.88,-20.73"/>
<polygon fill="#1414ce" stroke="#1414ce" points="648.23,-24.21 657.97,-20.05 647.76,-17.23 648.23,-24.21"/>
</a>
</g>
</g>
<!-- 26&#45;&gt;7 -->
<g id="edge68" class="edge">
<title>26&#45;&gt;7</title>
<g id="a_edge68"><a xlink:title="include">
<path fill="none" stroke="#1414ce" d="M922.89,-215.96C905.67,-196.14 874.76,-163.64 842,-144 809.68,-124.62 769.31,-111.15 737.74,-102.64"/>
<polygon fill="#1414ce" stroke="#1414ce" points="738.38,-99.19 727.82,-100.05 736.61,-105.96 738.38,-99.19"/>
</a>
</g>
</g>
<!-- 26&#45;&gt;22 -->
<g id="edge71" class="edge">
<title>26&#45;&gt;22</title>
<g id="a_edge71"><a xlink:title="include">
<path fill="none" stroke="#1414ce" d="M980.13,-225.38C1056.91,-211.8 1216.26,-183.64 1291.7,-170.3"/>
<polygon fill="#1414ce" stroke="#1414ce" points="1292.53,-173.71 1301.77,-168.52 1291.31,-166.81 1292.53,-173.71"/>
</a>
</g>
</g>
<!-- 26&#45;&gt;14 -->
<g id="edge69" class="edge">
<title>26&#45;&gt;14</title>
<g id="a_edge69"><a xlink:title="include">
<path fill="none" stroke="#1414ce" d="M893.77,-219.99C889.13,-218.63 884.47,-217.28 880,-216 825.45,-200.42 762,-183.26 722.92,-172.81"/>
<polygon fill="#1414ce" stroke="#1414ce" points="723.61,-169.38 713.05,-170.18 721.8,-176.14 723.61,-169.38"/>
</a>
</g>
</g>
<!-- 26&#45;&gt;9 -->
<g id="edge70" class="edge">
<title>26&#45;&gt;9</title>
<g id="a_edge70"><a xlink:title="include">
<path fill="none" stroke="#1414ce" d="M980.27,-222.07C1047.25,-205.18 1180.1,-171.77 1293,-144 1341.81,-131.99 1396.79,-118.69 1439.46,-108.41"/>
<polygon fill="#1414ce" stroke="#1414ce" points="1440.29,-111.81 1449.19,-106.07 1438.65,-105 1440.29,-111.81"/>
</a>
</g>
</g>
<!-- 13&#45;&gt;15 -->
<g id="edge73" class="edge">
<title>13&#45;&gt;15</title>
<g id="a_edge73"><a xlink:title="include">
<path fill="none" stroke="#1414ce" d="M601.24,-503.97C601.91,-456.29 603.79,-321.18 604.61,-262.63"/>
<polygon fill="#1414ce" stroke="#1414ce" points="608.12,-262.35 604.76,-252.31 601.12,-262.26 608.12,-262.35"/>
</a>
</g>
</g>
<!-- 13&#45;&gt;14 -->
<g id="edge72" class="edge">
<title>13&#45;&gt;14</title>
<g id="a_edge72"><a xlink:title="include">
<path fill="none" stroke="#1414ce" d="M590.59,-503.67C562.25,-454.03 489.98,-308.95 553,-216 574.24,-184.67 617.28,-171.86 648.66,-166.62"/>
<polygon fill="#1414ce" stroke="#1414ce" points="649.43,-170.05 658.81,-165.12 648.4,-163.12 649.43,-170.05"/>
</a>
</g>
</g>
<!-- 13&#45;&gt;18 -->
<g id="edge74" class="edge">
<title>13&#45;&gt;18</title>
<g id="a_edge74"><a xlink:title="include">
<path fill="none" stroke="#1414ce" d="M628.2,-517.48C716.02,-506.12 992.48,-470.35 1099.29,-456.53"/>
<polygon fill="#1414ce" stroke="#1414ce" points="1099.92,-459.97 1109.39,-455.22 1099.02,-453.03 1099.92,-459.97"/>
</a>
</g>
</g>
</g>
</svg>
