<?xml version="1.0" encoding="UTF-8" standalone="no"?>
<!DOCTYPE svg PUBLIC "-//W3C//DTD SVG 1.1//EN"
 "http://www.w3.org/Graphics/SVG/1.1/DTD/svg11.dtd">
<!-- Generated by graphviz version 2.43.0 (0)
 -->
<!-- Title: %3 Pages: 1 -->
<svg width="1575pt" height="764pt"
 viewBox="0.00 0.00 1575.00 764.00" xmlns="http://www.w3.org/2000/svg" xmlns:xlink="http://www.w3.org/1999/xlink">
<g id="graph0" class="graph" transform="scale(1 1) rotate(0) translate(4 760)">
<title>%3</title>
<polygon fill="transparent" stroke="transparent" points="-4,4 -4,-760 1571,-760 1571,4 -4,4"/>
<!-- 8 -->
<g id="node1" class="node">
<title>8</title>
<g id="a_node1"><a xlink:title="stdbool.h">
<polygon fill="#ffffff" stroke="black" points="875,-108 792,-108 792,-72 875,-72 875,-108"/>
<text text-anchor="middle" x="833.5" y="-86.3" font-family="Times,serif" font-size="14.00">stdbool.h</text>
</a>
</g>
</g>
<!-- 25 -->
<g id="node2" class="node">
<title>25</title>
<g id="a_node2"><a xlink:title="refc_binary.h">
<polygon fill="#ffffff" stroke="black" points="542.5,-396 434.5,-396 434.5,-360 542.5,-360 542.5,-396"/>
<text text-anchor="middle" x="488.5" y="-374.3" font-family="Times,serif" font-size="14.00">refc_binary.h</text>
</a>
</g>
</g>
<!-- 25&#45;&gt;8 -->
<g id="edge1" class="edge">
<title>25&#45;&gt;8</title>
<g id="a_edge1"><a xlink:title="include">
<path fill="none" stroke="#1414ce" d="M491.02,-359.77C498.33,-316.27 523.72,-201.36 594.5,-144 622.75,-121.11 720,-105.14 781.4,-97.07"/>
<polygon fill="#1414ce" stroke="#1414ce" points="782.2,-100.49 791.67,-95.75 781.31,-93.55 782.2,-100.49"/>
</a>
</g>
</g>
<!-- 15 -->
<g id="node8" class="node">
<title>15</title>
<g id="a_node8"><a xlink:title="list.h">
<polygon fill="#ffffff" stroke="black" points="1052.5,-180 998.5,-180 998.5,-144 1052.5,-144 1052.5,-180"/>
<text text-anchor="middle" x="1025.5" y="-158.3" font-family="Times,serif" font-size="14.00">list.h</text>
</a>
</g>
</g>
<!-- 25&#45;&gt;15 -->
<g id="edge3" class="edge">
<title>25&#45;&gt;15</title>
<g id="a_edge3"><a xlink:title="include">
<path fill="none" stroke="#1414ce" d="M542.68,-370.39C629.74,-357.95 804.03,-325.37 932.5,-252 948.02,-243.14 980.44,-210.62 1002.59,-187.45"/>
<polygon fill="#1414ce" stroke="#1414ce" points="1005.32,-189.66 1009.67,-180 1000.24,-184.84 1005.32,-189.66"/>
</a>
</g>
</g>
<!-- 6 -->
<g id="node10" class="node">
<title>6</title>
<g id="a_node10"><a xlink:title="stdlib.h">
<polygon fill="#ffffff" stroke="black" points="414,-108 343,-108 343,-72 414,-72 414,-108"/>
<text text-anchor="middle" x="378.5" y="-86.3" font-family="Times,serif" font-size="14.00">stdlib.h</text>
</a>
</g>
</g>
<!-- 25&#45;&gt;6 -->
<g id="edge2" class="edge">
<title>25&#45;&gt;6</title>
<g id="a_edge2"><a xlink:title="include">
<path fill="none" stroke="#1414ce" d="M481.95,-359.97C463.54,-312.09 411.22,-176.06 388.85,-117.9"/>
<polygon fill="#1414ce" stroke="#1414ce" points="392.01,-116.38 385.16,-108.31 385.48,-118.9 392.01,-116.38"/>
</a>
</g>
</g>
<!-- 26 -->
<g id="node13" class="node">
<title>26</title>
<g id="a_node13"><a xlink:title="resources.h">
<polygon fill="#ffffff" stroke="black" points="428.5,-324 328.5,-324 328.5,-288 428.5,-288 428.5,-324"/>
<text text-anchor="middle" x="378.5" y="-302.3" font-family="Times,serif" font-size="14.00">resources.h</text>
</a>
</g>
</g>
<!-- 25&#45;&gt;26 -->
<g id="edge4" class="edge">
<title>25&#45;&gt;26</title>
<g id="a_edge4"><a xlink:title="include">
<path fill="none" stroke="#1414ce" d="M461.59,-359.88C447.34,-350.81 429.65,-339.55 414.26,-329.76"/>
<polygon fill="#1414ce" stroke="#1414ce" points="415.83,-326.61 405.51,-324.19 412.07,-332.51 415.83,-326.61"/>
</a>
</g>
</g>
<!-- 29 -->
<g id="node3" class="node">
<title>29</title>
<g id="a_node3"><a xlink:title="defaultatoms.h">
<polygon fill="#ffffff" stroke="black" points="1166.5,-684 1042.5,-684 1042.5,-648 1166.5,-648 1166.5,-684"/>
<text text-anchor="middle" x="1104.5" y="-662.3" font-family="Times,serif" font-size="14.00">defaultatoms.h</text>
</a>
</g>
</g>
<!-- 30 -->
<g id="node17" class="node">
<title>30</title>
<g id="a_node17"><a xlink:title="defaultatoms.def">
<polygon fill="#ffffff" stroke="black" points="1567,-612 1430,-612 1430,-576 1567,-576 1567,-612"/>
<text text-anchor="middle" x="1498.5" y="-590.3" font-family="Times,serif" font-size="14.00">defaultatoms.def</text>
</a>
</g>
</g>
<!-- 29&#45;&gt;30 -->
<g id="edge6" class="edge">
<title>29&#45;&gt;30</title>
<g id="a_edge6"><a xlink:title="include">
<path fill="none" stroke="#1414ce" d="M1166.57,-655.05C1229.42,-644.82 1329.37,-628.16 1415.5,-612 1416.8,-611.76 1418.11,-611.51 1419.43,-611.26"/>
<polygon fill="#1414ce" stroke="#1414ce" points="1420.54,-614.61 1429.69,-609.28 1419.21,-607.74 1420.54,-614.61"/>
</a>
</g>
</g>
<!-- 3 -->
<g id="node23" class="node">
<title>3</title>
<g id="a_node23"><a xlink:title="globalcontext.h">
<polygon fill="#ffffff" stroke="black" points="1046,-612 919,-612 919,-576 1046,-576 1046,-612"/>
<text text-anchor="middle" x="982.5" y="-590.3" font-family="Times,serif" font-size="14.00">globalcontext.h</text>
</a>
</g>
</g>
<!-- 29&#45;&gt;3 -->
<g id="edge5" class="edge">
<title>29&#45;&gt;3</title>
<g id="a_edge5"><a xlink:title="include">
<path fill="none" stroke="#1414ce" d="M1074.66,-647.88C1058.56,-638.64 1038.5,-627.13 1021.21,-617.21"/>
<polygon fill="#1414ce" stroke="#1414ce" points="1022.87,-614.13 1012.46,-612.19 1019.39,-620.2 1022.87,-614.13"/>
</a>
</g>
</g>
<!-- 5 -->
<g id="node4" class="node">
<title>5</title>
<g id="a_node4"><a xlink:title="atom.h">
<polygon fill="#ffffff" stroke="black" points="781.5,-180 715.5,-180 715.5,-144 781.5,-144 781.5,-180"/>
<text text-anchor="middle" x="748.5" y="-158.3" font-family="Times,serif" font-size="14.00">atom.h</text>
</a>
</g>
</g>
<!-- 4 -->
<g id="node9" class="node">
<title>4</title>
<g id="a_node9"><a xlink:title="stdint.h">
<polygon fill="#ffffff" stroke="black" points="573.5,-36 501.5,-36 501.5,0 573.5,0 573.5,-36"/>
<text text-anchor="middle" x="537.5" y="-14.3" font-family="Times,serif" font-size="14.00">stdint.h</text>
</a>
</g>
</g>
<!-- 5&#45;&gt;4 -->
<g id="edge7" class="edge">
<title>5&#45;&gt;4</title>
<g id="a_edge7"><a xlink:title="include">
<path fill="none" stroke="#1414ce" d="M723.05,-143.87C685.11,-118.34 613.66,-70.25 571.35,-41.78"/>
<polygon fill="#1414ce" stroke="#1414ce" points="573.29,-38.87 563.04,-36.19 569.38,-44.68 573.29,-38.87"/>
</a>
</g>
</g>
<!-- 5&#45;&gt;6 -->
<g id="edge8" class="edge">
<title>5&#45;&gt;6</title>
<g id="a_edge8"><a xlink:title="include">
<path fill="none" stroke="#1414ce" d="M715.19,-157.49C656.29,-150.85 530.2,-134.67 426.5,-108 425.62,-107.77 424.73,-107.54 423.84,-107.29"/>
<polygon fill="#1414ce" stroke="#1414ce" points="424.78,-103.92 414.19,-104.42 422.78,-110.63 424.78,-103.92"/>
</a>
</g>
</g>
<!-- 11 -->
<g id="node5" class="node">
<title>11</title>
<g id="a_node5"><a xlink:title="assert.h">
<polygon fill="#ffffff" stroke="black" points="270.5,-36 196.5,-36 196.5,0 270.5,0 270.5,-36"/>
<text text-anchor="middle" x="233.5" y="-14.3" font-family="Times,serif" font-size="14.00">assert.h</text>
</a>
</g>
</g>
<!-- 23 -->
<g id="node6" class="node">
<title>23</title>
<g id="a_node6"><a xlink:title="utils.h">
<polygon fill="#ffffff" stroke="black" points="504.5,-180 442.5,-180 442.5,-144 504.5,-144 504.5,-180"/>
<text text-anchor="middle" x="473.5" y="-158.3" font-family="Times,serif" font-size="14.00">utils.h</text>
</a>
</g>
</g>
<!-- 23&#45;&gt;6 -->
<g id="edge11" class="edge">
<title>23&#45;&gt;6</title>
<g id="a_edge11"><a xlink:title="include">
<path fill="none" stroke="#1414ce" d="M450.02,-143.7C437.94,-134.8 423.05,-123.82 409.98,-114.2"/>
<polygon fill="#1414ce" stroke="#1414ce" points="411.84,-111.22 401.71,-108.1 407.69,-116.85 411.84,-111.22"/>
</a>
</g>
</g>
<!-- 24 -->
<g id="node15" class="node">
<title>24</title>
<g id="a_node15"><a xlink:title="stddef.h">
<polygon fill="#ffffff" stroke="black" points="509.5,-108 435.5,-108 435.5,-72 509.5,-72 509.5,-108"/>
<text text-anchor="middle" x="472.5" y="-86.3" font-family="Times,serif" font-size="14.00">stddef.h</text>
</a>
</g>
</g>
<!-- 23&#45;&gt;24 -->
<g id="edge9" class="edge">
<title>23&#45;&gt;24</title>
<g id="a_edge9"><a xlink:title="include">
<path fill="none" stroke="#1414ce" d="M473.25,-143.7C473.14,-135.98 473.01,-126.71 472.89,-118.11"/>
<polygon fill="#1414ce" stroke="#1414ce" points="476.39,-118.05 472.74,-108.1 469.39,-118.15 476.39,-118.05"/>
</a>
</g>
</g>
<!-- 17 -->
<g id="node28" class="node">
<title>17</title>
<g id="a_node28"><a xlink:title="stdio.h">
<polygon fill="#ffffff" stroke="black" points="593,-108 528,-108 528,-72 593,-72 593,-108"/>
<text text-anchor="middle" x="560.5" y="-86.3" font-family="Times,serif" font-size="14.00">stdio.h</text>
</a>
</g>
</g>
<!-- 23&#45;&gt;17 -->
<g id="edge10" class="edge">
<title>23&#45;&gt;17</title>
<g id="a_edge10"><a xlink:title="include">
<path fill="none" stroke="#1414ce" d="M495.01,-143.7C505.96,-134.88 519.45,-124.03 531.32,-114.47"/>
<polygon fill="#1414ce" stroke="#1414ce" points="533.64,-117.1 539.24,-108.1 529.26,-111.65 533.64,-117.1"/>
</a>
</g>
</g>
<!-- 16 -->
<g id="node7" class="node">
<title>16</title>
<g id="a_node7"><a xlink:title="synclist.h">
<polygon fill="#ffffff" stroke="black" points="1068,-252 983,-252 983,-216 1068,-216 1068,-252"/>
<text text-anchor="middle" x="1025.5" y="-230.3" font-family="Times,serif" font-size="14.00">synclist.h</text>
</a>
</g>
</g>
<!-- 16&#45;&gt;15 -->
<g id="edge13" class="edge">
<title>16&#45;&gt;15</title>
<g id="a_edge13"><a xlink:title="include">
<path fill="none" stroke="#1414ce" d="M1025.5,-215.7C1025.5,-207.98 1025.5,-198.71 1025.5,-190.11"/>
<polygon fill="#1414ce" stroke="#1414ce" points="1029,-190.1 1025.5,-180.1 1022,-190.1 1029,-190.1"/>
</a>
</g>
</g>
<!-- 18 -->
<g id="node24" class="node">
<title>18</title>
<g id="a_node24"><a xlink:title="smp.h">
<polygon fill="#ffffff" stroke="black" points="1185.5,-180 1125.5,-180 1125.5,-144 1185.5,-144 1185.5,-180"/>
<text text-anchor="middle" x="1155.5" y="-158.3" font-family="Times,serif" font-size="14.00">smp.h</text>
</a>
</g>
</g>
<!-- 16&#45;&gt;18 -->
<g id="edge14" class="edge">
<title>16&#45;&gt;18</title>
<g id="a_edge14"><a xlink:title="include">
<path fill="none" stroke="#1414ce" d="M1057.3,-215.88C1075.13,-206.28 1097.51,-194.22 1116.41,-184.05"/>
<polygon fill="#1414ce" stroke="#1414ce" points="1118.22,-187.05 1125.37,-179.23 1114.9,-180.89 1118.22,-187.05"/>
</a>
</g>
</g>
<!-- 16&#45;&gt;17 -->
<g id="edge12" class="edge">
<title>16&#45;&gt;17</title>
<g id="a_edge12"><a xlink:title="include">
<path fill="none" stroke="#1414ce" d="M985.32,-215.87C938.99,-196.57 860.22,-165.13 790.5,-144 726.15,-124.5 649.8,-108.22 603.27,-99.05"/>
<polygon fill="#1414ce" stroke="#1414ce" points="603.73,-95.57 593.24,-97.09 602.39,-102.44 603.73,-95.57"/>
</a>
</g>
</g>
<!-- 15&#45;&gt;8 -->
<g id="edge15" class="edge">
<title>15&#45;&gt;8</title>
<g id="a_edge15"><a xlink:title="include">
<path fill="none" stroke="#1414ce" d="M998.4,-151.12C968.98,-140.39 921.33,-123.02 884.79,-109.7"/>
<polygon fill="#1414ce" stroke="#1414ce" points="885.88,-106.37 875.29,-106.23 883.48,-112.95 885.88,-106.37"/>
</a>
</g>
</g>
<!-- 2 -->
<g id="node11" class="node">
<title>2</title>
<g id="a_node11"><a xlink:title="context.h">
<polygon fill="#ffffff" stroke="black" points="1024,-684 941,-684 941,-648 1024,-648 1024,-684"/>
<text text-anchor="middle" x="982.5" y="-662.3" font-family="Times,serif" font-size="14.00">context.h</text>
</a>
</g>
</g>
<!-- 2&#45;&gt;15 -->
<g id="edge17" class="edge">
<title>2&#45;&gt;15</title>
<g id="a_edge17"><a xlink:title="include">
<path fill="none" stroke="#1414ce" d="M1024.05,-648.79C1089.82,-621.83 1210.5,-566.43 1210.5,-523 1210.5,-523 1210.5,-523 1210.5,-449 1210.5,-336.66 1185.8,-301.13 1112.5,-216 1098.77,-200.06 1079.01,-187.48 1061.79,-178.59"/>
<polygon fill="#1414ce" stroke="#1414ce" points="1063.06,-175.32 1052.54,-174.04 1059.97,-181.6 1063.06,-175.32"/>
</a>
</g>
</g>
<!-- 19 -->
<g id="node14" class="node">
<title>19</title>
<g id="a_node14"><a xlink:title="term.h">
<polygon fill="#ffffff" stroke="black" points="527,-468 462,-468 462,-432 527,-432 527,-468"/>
<text text-anchor="middle" x="494.5" y="-446.3" font-family="Times,serif" font-size="14.00">term.h</text>
</a>
</g>
</g>
<!-- 2&#45;&gt;19 -->
<g id="edge20" class="edge">
<title>2&#45;&gt;19</title>
<g id="a_edge20"><a xlink:title="include">
<path fill="none" stroke="#1414ce" d="M940.81,-663.72C852.7,-660.33 651.04,-648.67 594.5,-612 568.94,-595.42 528.04,-518.6 507.36,-477.36"/>
<polygon fill="#1414ce" stroke="#1414ce" points="510.38,-475.57 502.8,-468.17 504.12,-478.68 510.38,-475.57"/>
</a>
</g>
</g>
<!-- 2&#45;&gt;3 -->
<g id="edge16" class="edge">
<title>2&#45;&gt;3</title>
<g id="a_edge16"><a xlink:title="include">
<path fill="none" stroke="#1414ce" d="M982.5,-647.7C982.5,-639.98 982.5,-630.71 982.5,-622.11"/>
<polygon fill="#1414ce" stroke="#1414ce" points="986,-622.1 982.5,-612.1 979,-622.1 986,-622.1"/>
</a>
</g>
</g>
<!-- 2&#45;&gt;18 -->
<g id="edge19" class="edge">
<title>2&#45;&gt;18</title>
<g id="a_edge19"><a xlink:title="include">
<path fill="none" stroke="#1414ce" d="M1024.22,-650.99C1027.36,-649.97 1030.48,-648.96 1033.5,-648 1138.84,-614.52 1248.5,-633.53 1248.5,-523 1248.5,-523 1248.5,-523 1248.5,-305 1248.5,-257.32 1211.35,-213.19 1184.02,-187.17"/>
<polygon fill="#1414ce" stroke="#1414ce" points="1186.32,-184.54 1176.6,-180.32 1181.57,-189.68 1186.32,-184.54"/>
</a>
</g>
</g>
<!-- 28 -->
<g id="node25" class="node">
<title>28</title>
<g id="a_node25"><a xlink:title="timer_list.h">
<polygon fill="#ffffff" stroke="black" points="1374.5,-252 1276.5,-252 1276.5,-216 1374.5,-216 1374.5,-252"/>
<text text-anchor="middle" x="1325.5" y="-230.3" font-family="Times,serif" font-size="14.00">timer_list.h</text>
</a>
</g>
</g>
<!-- 2&#45;&gt;28 -->
<g id="edge21" class="edge">
<title>2&#45;&gt;28</title>
<g id="a_edge21"><a xlink:title="include">
<path fill="none" stroke="#1414ce" d="M1024.08,-650.51C1027.25,-649.6 1030.42,-648.75 1033.5,-648 1201.33,-607.14 1401.5,-695.73 1401.5,-523 1401.5,-523 1401.5,-523 1401.5,-377 1401.5,-331.64 1370.98,-286.75 1348.62,-259.95"/>
<polygon fill="#1414ce" stroke="#1414ce" points="1351.16,-257.53 1341.99,-252.23 1345.86,-262.09 1351.16,-257.53"/>
</a>
</g>
</g>
<!-- 27 -->
<g id="node26" class="node">
<title>27</title>
<g id="a_node26"><a xlink:title="mailbox.h">
<polygon fill="#ffffff" stroke="black" points="722.5,-252 636.5,-252 636.5,-216 722.5,-216 722.5,-252"/>
<text text-anchor="middle" x="679.5" y="-230.3" font-family="Times,serif" font-size="14.00">mailbox.h</text>
</a>
</g>
</g>
<!-- 2&#45;&gt;27 -->
<g id="edge18" class="edge">
<title>2&#45;&gt;27</title>
<g id="a_edge18"><a xlink:title="include">
<path fill="none" stroke="#1414ce" d="M940.88,-657.95C881.3,-645.5 773.02,-613.6 719.5,-540 657.53,-454.79 667.32,-319.78 675.07,-262.33"/>
<polygon fill="#1414ce" stroke="#1414ce" points="678.56,-262.61 676.52,-252.22 671.63,-261.62 678.56,-262.61"/>
</a>
</g>
</g>
<!-- 22 -->
<g id="node12" class="node">
<title>22</title>
<g id="a_node12"><a xlink:title="memory.h">
<polygon fill="#ffffff" stroke="black" points="234.5,-252 148.5,-252 148.5,-216 234.5,-216 234.5,-252"/>
<text text-anchor="middle" x="191.5" y="-230.3" font-family="Times,serif" font-size="14.00">memory.h</text>
</a>
</g>
</g>
<!-- 22&#45;&gt;23 -->
<g id="edge26" class="edge">
<title>22&#45;&gt;23</title>
<g id="a_edge26"><a xlink:title="include">
<path fill="none" stroke="#1414ce" d="M234.64,-222.29C288.41,-208.94 379.66,-186.29 432.45,-173.19"/>
<polygon fill="#1414ce" stroke="#1414ce" points="433.29,-176.59 442.16,-170.78 431.61,-169.79 433.29,-176.59"/>
</a>
</g>
</g>
<!-- 22&#45;&gt;4 -->
<g id="edge22" class="edge">
<title>22&#45;&gt;4</title>
<g id="a_edge22"><a xlink:title="include">
<path fill="none" stroke="#1414ce" d="M192.21,-215.81C194.56,-182.54 204.72,-109.32 248.5,-72 284.39,-41.4 419.21,-27.36 491.32,-21.91"/>
<polygon fill="#1414ce" stroke="#1414ce" points="491.76,-25.39 501.48,-21.17 491.25,-18.41 491.76,-25.39"/>
</a>
</g>
</g>
<!-- 22&#45;&gt;6 -->
<g id="edge23" class="edge">
<title>22&#45;&gt;6</title>
<g id="a_edge23"><a xlink:title="include">
<path fill="none" stroke="#1414ce" d="M214.06,-215.87C247.47,-190.5 310.21,-142.85 347.79,-114.32"/>
<polygon fill="#1414ce" stroke="#1414ce" points="350.02,-117.02 355.86,-108.19 345.78,-111.45 350.02,-117.02"/>
</a>
</g>
</g>
<!-- 9 -->
<g id="node16" class="node">
<title>9</title>
<g id="a_node16"><a xlink:title="erl_nif.h">
<polygon fill="#ffffff" stroke="black" points="120.5,-180 46.5,-180 46.5,-144 120.5,-144 120.5,-180"/>
<text text-anchor="middle" x="83.5" y="-158.3" font-family="Times,serif" font-size="14.00">erl_nif.h</text>
</a>
</g>
</g>
<!-- 22&#45;&gt;9 -->
<g id="edge24" class="edge">
<title>22&#45;&gt;9</title>
<g id="a_edge24"><a xlink:title="include">
<path fill="none" stroke="#1414ce" d="M165.08,-215.88C151.09,-206.81 133.72,-195.55 118.61,-185.76"/>
<polygon fill="#1414ce" stroke="#1414ce" points="120.32,-182.69 110.02,-180.19 116.51,-188.57 120.32,-182.69"/>
</a>
</g>
</g>
<!-- 10 -->
<g id="node22" class="node">
<title>10</title>
<g id="a_node22"><a xlink:title="term_typedef.h">
<polygon fill="#ffffff" stroke="black" points="196,-108 71,-108 71,-72 196,-72 196,-108"/>
<text text-anchor="middle" x="133.5" y="-86.3" font-family="Times,serif" font-size="14.00">term_typedef.h</text>
</a>
</g>
</g>
<!-- 22&#45;&gt;10 -->
<g id="edge25" class="edge">
<title>22&#45;&gt;10</title>
<g id="a_edge25"><a xlink:title="include">
<path fill="none" stroke="#1414ce" d="M184.5,-215.87C174.53,-191.46 156.14,-146.43 144.38,-117.64"/>
<polygon fill="#1414ce" stroke="#1414ce" points="147.54,-116.12 140.52,-108.19 141.06,-118.77 147.54,-116.12"/>
</a>
</g>
</g>
<!-- 26&#45;&gt;16 -->
<g id="edge31" class="edge">
<title>26&#45;&gt;16</title>
<g id="a_edge31"><a xlink:title="include">
<path fill="none" stroke="#1414ce" d="M428.51,-301.57C525.58,-294.6 746.18,-277.3 930.5,-252 944.12,-250.13 958.78,-247.71 972.4,-245.29"/>
<polygon fill="#1414ce" stroke="#1414ce" points="973.37,-248.67 982.58,-243.44 972.12,-241.78 973.37,-248.67"/>
</a>
</g>
</g>
<!-- 26&#45;&gt;15 -->
<g id="edge29" class="edge">
<title>26&#45;&gt;15</title>
<g id="a_edge29"><a xlink:title="include">
<path fill="none" stroke="#1414ce" d="M428.68,-298.58C455.34,-295.26 488.68,-291.23 518.5,-288 686.72,-269.8 741.38,-317.25 897.5,-252 920.5,-242.39 920.32,-230.63 940.5,-216 956.15,-204.65 974.24,-193.16 989.7,-183.8"/>
<polygon fill="#1414ce" stroke="#1414ce" points="991.68,-186.69 998.46,-178.55 988.08,-180.69 991.68,-186.69"/>
</a>
</g>
</g>
<!-- 26&#45;&gt;6 -->
<g id="edge27" class="edge">
<title>26&#45;&gt;6</title>
<g id="a_edge27"><a xlink:title="include">
<path fill="none" stroke="#1414ce" d="M378.5,-287.85C378.5,-250.83 378.5,-163.18 378.5,-118.39"/>
<polygon fill="#1414ce" stroke="#1414ce" points="382,-118.23 378.5,-108.23 375,-118.23 382,-118.23"/>
</a>
</g>
</g>
<!-- 26&#45;&gt;22 -->
<g id="edge30" class="edge">
<title>26&#45;&gt;22</title>
<g id="a_edge30"><a xlink:title="include">
<path fill="none" stroke="#1414ce" d="M332.75,-287.88C305.96,-277.85 272.02,-265.14 244.12,-254.7"/>
<polygon fill="#1414ce" stroke="#1414ce" points="245.12,-251.33 234.53,-251.11 242.67,-257.89 245.12,-251.33"/>
</a>
</g>
</g>
<!-- 26&#45;&gt;9 -->
<g id="edge28" class="edge">
<title>26&#45;&gt;9</title>
<g id="a_edge28"><a xlink:title="include">
<path fill="none" stroke="#1414ce" d="M328.26,-304.85C276.54,-302.34 195.79,-291.65 139.5,-252 117.7,-236.64 102.54,-209.83 93.55,-189.63"/>
<polygon fill="#1414ce" stroke="#1414ce" points="96.73,-188.19 89.62,-180.33 90.28,-190.91 96.73,-188.19"/>
</a>
</g>
</g>
<!-- 19&#45;&gt;8 -->
<g id="edge33" class="edge">
<title>19&#45;&gt;8</title>
<g id="a_edge33"><a xlink:title="include">
<path fill="none" stroke="#1414ce" d="M527.22,-437.86C547.23,-429.4 571.75,-415.81 586.5,-396 635.5,-330.19 592.56,-290.24 627.5,-216 644.76,-179.32 650.62,-167.71 683.5,-144 712.69,-122.96 751.01,-109.61 781.62,-101.57"/>
<polygon fill="#1414ce" stroke="#1414ce" points="782.83,-104.87 791.68,-99.04 781.12,-98.08 782.83,-104.87"/>
</a>
</g>
</g>
<!-- 19&#45;&gt;25 -->
<g id="edge39" class="edge">
<title>19&#45;&gt;25</title>
<g id="a_edge39"><a xlink:title="include">
<path fill="none" stroke="#1414ce" d="M493.02,-431.7C492.36,-423.98 491.56,-414.71 490.82,-406.11"/>
<polygon fill="#1414ce" stroke="#1414ce" points="494.31,-405.77 489.97,-396.1 487.33,-406.37 494.31,-405.77"/>
</a>
</g>
</g>
<!-- 19&#45;&gt;23 -->
<g id="edge40" class="edge">
<title>19&#45;&gt;23</title>
<g id="a_edge40"><a xlink:title="include">
<path fill="none" stroke="#1414ce" d="M521.08,-431.91C532.74,-422.81 545.19,-410.49 551.5,-396 557.89,-381.33 554.5,-375.72 551.5,-360 539.29,-295.98 506.62,-226.22 487.66,-189.33"/>
<polygon fill="#1414ce" stroke="#1414ce" points="490.66,-187.5 482.93,-180.25 484.45,-190.74 490.66,-187.5"/>
</a>
</g>
</g>
<!-- 19&#45;&gt;4 -->
<g id="edge34" class="edge">
<title>19&#45;&gt;4</title>
<g id="a_edge34"><a xlink:title="include">
<path fill="none" stroke="#1414ce" d="M461.52,-436.9C438.31,-427.57 407.12,-413.34 382.5,-396 364,-382.97 363.19,-375.28 346.5,-360 328.11,-343.17 318.64,-343.8 303.5,-324 277.05,-289.4 262.5,-278.55 262.5,-235 262.5,-235 262.5,-235 262.5,-161 262.5,-59.31 412.79,-30.37 491.16,-22.19"/>
<polygon fill="#1414ce" stroke="#1414ce" points="491.65,-25.66 501.27,-21.21 490.97,-18.69 491.65,-25.66"/>
</a>
</g>
</g>
<!-- 19&#45;&gt;6 -->
<g id="edge36" class="edge">
<title>19&#45;&gt;6</title>
<g id="a_edge36"><a xlink:title="include">
<path fill="none" stroke="#1414ce" d="M471.63,-431.81C458.1,-421.55 440.7,-408.19 425.5,-396 406.06,-380.41 402.96,-374.24 382.5,-360 356.03,-341.58 335.69,-351.89 319.5,-324 280.02,-255.96 330.68,-161.78 360.13,-116.86"/>
<polygon fill="#1414ce" stroke="#1414ce" points="363.21,-118.55 365.88,-108.3 357.4,-114.65 363.21,-118.55"/>
</a>
</g>
</g>
<!-- 19&#45;&gt;22 -->
<g id="edge38" class="edge">
<title>19&#45;&gt;22</title>
<g id="a_edge38"><a xlink:title="include">
<path fill="none" stroke="#1414ce" d="M461.75,-439.91C432.5,-431.03 389.04,-415.95 354.5,-396 332.62,-383.36 331.27,-374.39 310.5,-360 284.31,-341.85 271.52,-346.04 248.5,-324 229.56,-305.87 214.01,-280.26 203.96,-261.16"/>
<polygon fill="#1414ce" stroke="#1414ce" points="207.01,-259.43 199.35,-252.11 200.77,-262.61 207.01,-259.43"/>
</a>
</g>
</g>
<!-- 20 -->
<g id="node20" class="node">
<title>20</title>
<g id="a_node20"><a xlink:title="sys/types.h">
<polygon fill="#ffffff" stroke="black" points="211,-396 114,-396 114,-360 211,-360 211,-396"/>
<text text-anchor="middle" x="162.5" y="-374.3" font-family="Times,serif" font-size="14.00">sys/types.h</text>
</a>
</g>
</g>
<!-- 19&#45;&gt;20 -->
<g id="edge32" class="edge">
<title>19&#45;&gt;20</title>
<g id="a_edge32"><a xlink:title="include">
<path fill="none" stroke="#1414ce" d="M461.68,-443.76C411.65,-435.54 313.19,-418.44 220.99,-396.26"/>
<polygon fill="#1414ce" stroke="#1414ce" points="221.77,-392.84 211.23,-393.88 220.12,-399.64 221.77,-392.84"/>
</a>
</g>
</g>
<!-- 21 -->
<g id="node21" class="node">
<title>21</title>
<g id="a_node21"><a xlink:title="string.h">
<polygon fill="#ffffff" stroke="black" points="302,-396 229,-396 229,-360 302,-360 302,-396"/>
<text text-anchor="middle" x="265.5" y="-374.3" font-family="Times,serif" font-size="14.00">string.h</text>
</a>
</g>
</g>
<!-- 19&#45;&gt;21 -->
<g id="edge37" class="edge">
<title>19&#45;&gt;21</title>
<g id="a_edge37"><a xlink:title="include">
<path fill="none" stroke="#1414ce" d="M461.92,-439.64C426.16,-429.29 367.08,-411.96 316.5,-396 315.05,-395.54 313.59,-395.08 312.1,-394.6"/>
<polygon fill="#1414ce" stroke="#1414ce" points="312.82,-391.15 302.22,-391.4 310.66,-397.81 312.82,-391.15"/>
</a>
</g>
</g>
<!-- 19&#45;&gt;10 -->
<g id="edge41" class="edge">
<title>19&#45;&gt;10</title>
<g id="a_edge41"><a xlink:title="include">
<path fill="none" stroke="#1414ce" d="M461.76,-447.11C379.79,-441.97 167.75,-426.08 104.5,-396 52.25,-371.15 9.5,-364.86 9.5,-307 9.5,-307 9.5,-307 9.5,-233 9.5,-191.53 11.25,-176.1 37.5,-144 48.08,-131.06 62.69,-120.77 77.33,-112.82"/>
<polygon fill="#1414ce" stroke="#1414ce" points="79.1,-115.85 86.41,-108.18 75.91,-109.62 79.1,-115.85"/>
</a>
</g>
</g>
<!-- 19&#45;&gt;17 -->
<g id="edge35" class="edge">
<title>19&#45;&gt;17</title>
<g id="a_edge35"><a xlink:title="include">
<path fill="none" stroke="#1414ce" d="M527.13,-433.87C542.02,-425.09 558.17,-412.48 566.5,-396 613.42,-303.2 584.84,-173.33 568.97,-117.85"/>
<polygon fill="#1414ce" stroke="#1414ce" points="572.27,-116.68 566.08,-108.08 565.56,-118.66 572.27,-116.68"/>
</a>
</g>
</g>
<!-- 9&#45;&gt;10 -->
<g id="edge42" class="edge">
<title>9&#45;&gt;10</title>
<g id="a_edge42"><a xlink:title="include">
<path fill="none" stroke="#1414ce" d="M95.86,-143.7C101.73,-135.47 108.87,-125.48 115.34,-116.42"/>
<polygon fill="#1414ce" stroke="#1414ce" points="118.32,-118.28 121.28,-108.1 112.62,-114.21 118.32,-118.28"/>
</a>
</g>
</g>
<!-- 12 -->
<g id="node18" class="node">
<title>12</title>
<g id="a_node18"><a xlink:title="limits.h">
<polygon fill="#ffffff" stroke="black" points="71,-36 0,-36 0,0 71,0 71,-36"/>
<text text-anchor="middle" x="35.5" y="-14.3" font-family="Times,serif" font-size="14.00">limits.h</text>
</a>
</g>
</g>
<!-- 7 -->
<g id="node19" class="node">
<title>7</title>
<g id="a_node19"><a xlink:title="atom_table.h">
<polygon fill="#ffffff" stroke="black" points="888,-252 779,-252 779,-216 888,-216 888,-252"/>
<text text-anchor="middle" x="833.5" y="-230.3" font-family="Times,serif" font-size="14.00">atom_table.h</text>
</a>
</g>
</g>
<!-- 7&#45;&gt;8 -->
<g id="edge43" class="edge">
<title>7&#45;&gt;8</title>
<g id="a_edge43"><a xlink:title="include">
<path fill="none" stroke="#1414ce" d="M833.5,-215.87C833.5,-191.67 833.5,-147.21 833.5,-118.39"/>
<polygon fill="#1414ce" stroke="#1414ce" points="837,-118.19 833.5,-108.19 830,-118.19 837,-118.19"/>
</a>
</g>
</g>
<!-- 7&#45;&gt;5 -->
<g id="edge44" class="edge">
<title>7&#45;&gt;5</title>
<g id="a_edge44"><a xlink:title="include">
<path fill="none" stroke="#1414ce" d="M812.49,-215.7C801.78,-206.88 788.61,-196.03 777,-186.47"/>
<polygon fill="#1414ce" stroke="#1414ce" points="779.21,-183.76 769.27,-180.1 774.76,-189.16 779.21,-183.76"/>
</a>
</g>
</g>
<!-- 10&#45;&gt;11 -->
<g id="edge45" class="edge">
<title>10&#45;&gt;11</title>
<g id="a_edge45"><a xlink:title="include">
<path fill="none" stroke="#1414ce" d="M157.96,-71.88C170.8,-62.89 186.7,-51.76 200.59,-42.03"/>
<polygon fill="#1414ce" stroke="#1414ce" points="202.76,-44.79 208.94,-36.19 198.74,-39.06 202.76,-44.79"/>
</a>
</g>
</g>
<!-- 10&#45;&gt;4 -->
<g id="edge48" class="edge">
<title>10&#45;&gt;4</title>
<g id="a_edge48"><a xlink:title="include">
<path fill="none" stroke="#1414ce" d="M196.05,-74.88C200.94,-73.87 205.79,-72.9 210.5,-72 310.03,-52.96 427.45,-35.03 490.99,-25.69"/>
<polygon fill="#1414ce" stroke="#1414ce" points="491.7,-29.12 501.09,-24.21 490.69,-22.2 491.7,-29.12"/>
</a>
</g>
</g>
<!-- 10&#45;&gt;12 -->
<g id="edge46" class="edge">
<title>10&#45;&gt;12</title>
<g id="a_edge46"><a xlink:title="include">
<path fill="none" stroke="#1414ce" d="M109.53,-71.88C96.95,-62.89 81.37,-51.76 67.75,-42.03"/>
<polygon fill="#1414ce" stroke="#1414ce" points="69.74,-39.15 59.57,-36.19 65.67,-44.85 69.74,-39.15"/>
</a>
</g>
</g>
<!-- 13 -->
<g id="node30" class="node">
<title>13</title>
<g id="a_node30"><a xlink:title="inttypes.h">
<polygon fill="#ffffff" stroke="black" points="178,-36 89,-36 89,0 178,0 178,-36"/>
<text text-anchor="middle" x="133.5" y="-14.3" font-family="Times,serif" font-size="14.00">inttypes.h</text>
</a>
</g>
</g>
<!-- 10&#45;&gt;13 -->
<g id="edge47" class="edge">
<title>10&#45;&gt;13</title>
<g id="a_edge47"><a xlink:title="include">
<path fill="none" stroke="#1414ce" d="M133.5,-71.7C133.5,-63.98 133.5,-54.71 133.5,-46.11"/>
<polygon fill="#1414ce" stroke="#1414ce" points="137,-46.1 133.5,-36.1 130,-46.1 137,-46.1"/>
</a>
</g>
</g>
<!-- 3&#45;&gt;5 -->
<g id="edge50" class="edge">
<title>3&#45;&gt;5</title>
<g id="a_edge50"><a xlink:title="include">
<path fill="none" stroke="#1414ce" d="M918.88,-580.7C853.28,-563.88 760.5,-526.72 760.5,-451 760.5,-451 760.5,-451 760.5,-377 760.5,-309.85 754.54,-231.03 751.02,-190.37"/>
<polygon fill="#1414ce" stroke="#1414ce" points="754.48,-189.83 750.12,-180.18 747.51,-190.45 754.48,-189.83"/>
</a>
</g>
</g>
<!-- 3&#45;&gt;16 -->
<g id="edge57" class="edge">
<title>3&#45;&gt;16</title>
<g id="a_edge57"><a xlink:title="include">
<path fill="none" stroke="#1414ce" d="M998.99,-575.77C1021.34,-550.53 1058.5,-501.05 1058.5,-451 1058.5,-451 1058.5,-451 1058.5,-377 1058.5,-335.97 1045.27,-289.97 1035.56,-261.74"/>
<polygon fill="#1414ce" stroke="#1414ce" points="1038.82,-260.45 1032.18,-252.19 1032.22,-262.78 1038.82,-260.45"/>
</a>
</g>
</g>
<!-- 3&#45;&gt;15 -->
<g id="edge54" class="edge">
<title>3&#45;&gt;15</title>
<g id="a_edge54"><a xlink:title="include">
<path fill="none" stroke="#1414ce" d="M1012.17,-575.91C1025.62,-566.81 1040.67,-554.49 1050.5,-540 1069.22,-512.42 1065.19,-500.73 1071.5,-468 1092.76,-357.64 1141.46,-317.16 1092.5,-216 1085.78,-202.12 1073.46,-190.77 1061.2,-182.18"/>
<polygon fill="#1414ce" stroke="#1414ce" points="1063.08,-179.23 1052.8,-176.68 1059.25,-185.09 1063.08,-179.23"/>
</a>
</g>
</g>
<!-- 3&#45;&gt;4 -->
<g id="edge49" class="edge">
<title>3&#45;&gt;4</title>
<g id="a_edge49"><a xlink:title="include">
<path fill="none" stroke="#1414ce" d="M1046.27,-582.77C1154.73,-563.56 1363.5,-517.88 1363.5,-451 1363.5,-451 1363.5,-451 1363.5,-377 1363.5,-304.89 1417.39,-279.65 1383.5,-216 1311.16,-80.12 1218.85,-105.05 1068.5,-72 892.28,-33.27 676.88,-22.79 583.89,-20"/>
<polygon fill="#1414ce" stroke="#1414ce" points="583.79,-16.49 573.69,-19.71 583.59,-23.49 583.79,-16.49"/>
</a>
</g>
</g>
<!-- 3&#45;&gt;19 -->
<g id="edge58" class="edge">
<title>3&#45;&gt;19</title>
<g id="a_edge58"><a xlink:title="include">
<path fill="none" stroke="#1414ce" d="M918.88,-588.84C861.73,-583.23 776.6,-570.19 708.5,-540 684.12,-529.19 684.2,-516.23 660.5,-504 620.74,-483.49 571.51,-468.99 537.03,-460.4"/>
<polygon fill="#1414ce" stroke="#1414ce" points="537.82,-456.99 527.27,-458.03 536.16,-463.79 537.82,-456.99"/>
</a>
</g>
</g>
<!-- 3&#45;&gt;9 -->
<g id="edge52" class="edge">
<title>3&#45;&gt;9</title>
<g id="a_edge52"><a xlink:title="include">
<path fill="none" stroke="#1414ce" d="M918.97,-592.08C708.53,-587.35 47.5,-558.22 47.5,-379 47.5,-379 47.5,-379 47.5,-305 47.5,-263.78 61.93,-217.83 72.52,-189.66"/>
<polygon fill="#1414ce" stroke="#1414ce" points="75.86,-190.72 76.21,-180.13 69.34,-188.19 75.86,-190.72"/>
</a>
</g>
</g>
<!-- 3&#45;&gt;7 -->
<g id="edge51" class="edge">
<title>3&#45;&gt;7</title>
<g id="a_edge51"><a xlink:title="include">
<path fill="none" stroke="#1414ce" d="M959.1,-575.92C928.99,-551.77 880.5,-504.57 880.5,-451 880.5,-451 880.5,-451 880.5,-377 880.5,-334.96 861.7,-289.29 847.88,-261.41"/>
<polygon fill="#1414ce" stroke="#1414ce" points="850.9,-259.63 843.24,-252.32 844.67,-262.82 850.9,-259.63"/>
</a>
</g>
</g>
<!-- 3&#45;&gt;18 -->
<g id="edge56" class="edge">
<title>3&#45;&gt;18</title>
<g id="a_edge56"><a xlink:title="include">
<path fill="none" stroke="#1414ce" d="M1025.57,-575.85C1042.09,-567.32 1059.76,-555.47 1071.5,-540 1154.05,-431.2 1158.42,-256.91 1156.75,-190.19"/>
<polygon fill="#1414ce" stroke="#1414ce" points="1160.25,-189.96 1156.43,-180.07 1153.25,-190.18 1160.25,-189.96"/>
</a>
</g>
</g>
<!-- 3&#45;&gt;28 -->
<g id="edge59" class="edge">
<title>3&#45;&gt;28</title>
<g id="a_edge59"><a xlink:title="include">
<path fill="none" stroke="#1414ce" d="M1046.07,-584C1079.4,-576.67 1119.26,-563.5 1148.5,-540 1243.71,-463.48 1298.03,-320.97 1317.36,-261.81"/>
<polygon fill="#1414ce" stroke="#1414ce" points="1320.75,-262.68 1320.46,-252.09 1314.09,-260.55 1320.75,-262.68"/>
</a>
</g>
</g>
<!-- 3&#45;&gt;27 -->
<g id="edge55" class="edge">
<title>3&#45;&gt;27</title>
<g id="a_edge55"><a xlink:title="include">
<path fill="none" stroke="#1414ce" d="M918.92,-586.15C857.69,-578.28 770.87,-563.35 746.5,-540 716.92,-511.65 722.5,-491.97 722.5,-451 722.5,-451 722.5,-451 722.5,-377 722.5,-335.29 705.3,-289.54 692.66,-261.54"/>
<polygon fill="#1414ce" stroke="#1414ce" points="695.8,-260.01 688.41,-252.42 689.45,-262.96 695.8,-260.01"/>
</a>
</g>
</g>
<!-- 14 -->
<g id="node29" class="node">
<title>14</title>
<g id="a_node29"><a xlink:title="ets.h">
<polygon fill="#ffffff" stroke="black" points="1009.5,-540 955.5,-540 955.5,-504 1009.5,-504 1009.5,-540"/>
<text text-anchor="middle" x="982.5" y="-518.3" font-family="Times,serif" font-size="14.00">ets.h</text>
</a>
</g>
</g>
<!-- 3&#45;&gt;14 -->
<g id="edge53" class="edge">
<title>3&#45;&gt;14</title>
<g id="a_edge53"><a xlink:title="include">
<path fill="none" stroke="#1414ce" d="M982.5,-575.7C982.5,-567.98 982.5,-558.71 982.5,-550.11"/>
<polygon fill="#1414ce" stroke="#1414ce" points="986,-550.1 982.5,-540.1 979,-550.1 986,-550.1"/>
</a>
</g>
</g>
<!-- 18&#45;&gt;8 -->
<g id="edge60" class="edge">
<title>18&#45;&gt;8</title>
<g id="a_edge60"><a xlink:title="include">
<path fill="none" stroke="#1414ce" d="M1125.5,-154.48C1070.55,-142.53 953.18,-117.02 885.16,-102.23"/>
<polygon fill="#1414ce" stroke="#1414ce" points="885.61,-98.75 875.09,-100.04 884.12,-105.59 885.61,-98.75"/>
</a>
</g>
</g>
<!-- 28&#45;&gt;8 -->
<g id="edge61" class="edge">
<title>28&#45;&gt;8</title>
<g id="a_edge61"><a xlink:title="include">
<path fill="none" stroke="#1414ce" d="M1306.25,-215.72C1282.04,-195.04 1238.31,-161.06 1194.5,-144 1089.85,-103.26 957.02,-93.53 885.22,-91.4"/>
<polygon fill="#1414ce" stroke="#1414ce" points="885.17,-87.89 875.09,-91.13 884.99,-94.89 885.17,-87.89"/>
</a>
</g>
</g>
<!-- 28&#45;&gt;15 -->
<g id="edge63" class="edge">
<title>28&#45;&gt;15</title>
<g id="a_edge63"><a xlink:title="include">
<path fill="none" stroke="#1414ce" d="M1276.3,-221.52C1216.33,-207.53 1116.36,-184.2 1062.53,-171.64"/>
<polygon fill="#1414ce" stroke="#1414ce" points="1063.25,-168.21 1052.72,-169.35 1061.66,-175.03 1063.25,-168.21"/>
</a>
</g>
</g>
<!-- 28&#45;&gt;4 -->
<g id="edge62" class="edge">
<title>28&#45;&gt;4</title>
<g id="a_edge62"><a xlink:title="include">
<path fill="none" stroke="#1414ce" d="M1314.19,-215.92C1299.67,-195.43 1272.49,-161.64 1240.5,-144 1125.84,-80.77 721.72,-36.78 583.93,-23.33"/>
<polygon fill="#1414ce" stroke="#1414ce" points="584,-19.82 573.71,-22.34 583.33,-26.79 584,-19.82"/>
</a>
</g>
</g>
<!-- 27&#45;&gt;8 -->
<g id="edge64" class="edge">
<title>27&#45;&gt;8</title>
<g id="a_edge64"><a xlink:title="include">
<path fill="none" stroke="#1414ce" d="M680.43,-215.81C682.37,-196.16 688.31,-164.12 706.5,-144 726.18,-122.23 756.2,-109.15 782.12,-101.44"/>
<polygon fill="#1414ce" stroke="#1414ce" points="783.13,-104.79 791.82,-98.73 781.25,-98.04 783.13,-104.79"/>
</a>
</g>
</g>
<!-- 27&#45;&gt;23 -->
<g id="edge67" class="edge">
<title>27&#45;&gt;23</title>
<g id="a_edge67"><a xlink:title="include">
<path fill="none" stroke="#1414ce" d="M636.32,-218.33C600.3,-206.09 549.34,-188.77 514.07,-176.79"/>
<polygon fill="#1414ce" stroke="#1414ce" points="515.16,-173.46 504.57,-173.56 512.91,-180.09 515.16,-173.46"/>
</a>
</g>
</g>
<!-- 27&#45;&gt;15 -->
<g id="edge65" class="edge">
<title>27&#45;&gt;15</title>
<g id="a_edge65"><a xlink:title="include">
<path fill="none" stroke="#1414ce" d="M722.62,-224.28C791.09,-210.42 923.52,-183.63 988.17,-170.55"/>
<polygon fill="#1414ce" stroke="#1414ce" points="989.21,-173.91 998.32,-168.5 987.82,-167.05 989.21,-173.91"/>
</a>
</g>
</g>
<!-- 27&#45;&gt;10 -->
<g id="edge66" class="edge">
<title>27&#45;&gt;10</title>
<g id="a_edge66"><a xlink:title="include">
<path fill="none" stroke="#1414ce" d="M636.16,-224.7C586.84,-215.02 503.97,-198.02 433.5,-180 350.86,-158.87 256.74,-130.18 196.31,-111.15"/>
<polygon fill="#1414ce" stroke="#1414ce" points="197.13,-107.74 186.54,-108.07 195.02,-114.42 197.13,-107.74"/>
</a>
</g>
</g>
<!-- 1 -->
<g id="node27" class="node">
<title>1</title>
<g id="a_node27"><a xlink:title="/__w/AtomVM/AtomVM/src/libAtomVM/port.h">
<polygon fill="#bfbfbf" stroke="black" points="1081,-756 744,-756 744,-720 1081,-720 1081,-756"/>
<text text-anchor="middle" x="912.5" y="-734.3" font-family="Times,serif" font-size="14.00">/__w/AtomVM/AtomVM/src/libAtomVM/port.h</text>
</a>
</g>
</g>
<!-- 1&#45;&gt;29 -->
<g id="edge69" class="edge">
<title>1&#45;&gt;29</title>
<g id="a_edge69"><a xlink:title="include">
<path fill="none" stroke="#1414ce" d="M959.47,-719.88C986.18,-710.14 1019.82,-697.87 1047.97,-687.61"/>
<polygon fill="#1414ce" stroke="#1414ce" points="1049.49,-690.78 1057.68,-684.07 1047.09,-684.21 1049.49,-690.78"/>
</a>
</g>
</g>
<!-- 1&#45;&gt;2 -->
<g id="edge68" class="edge">
<title>1&#45;&gt;2</title>
<g id="a_edge68"><a xlink:title="include">
<path fill="none" stroke="#1414ce" d="M929.8,-719.7C938.36,-711.14 948.84,-700.66 958.2,-691.3"/>
<polygon fill="#1414ce" stroke="#1414ce" points="960.8,-693.65 965.4,-684.1 955.85,-688.7 960.8,-693.65"/>
</a>
</g>
</g>
<!-- 1&#45;&gt;22 -->
<g id="edge71" class="edge">
<title>1&#45;&gt;22</title>
<g id="a_edge71"><a xlink:title="include">
<path fill="none" stroke="#1414ce" d="M743.65,-724.76C501.77,-704.91 85.5,-661.15 85.5,-595 85.5,-595 85.5,-595 85.5,-377 85.5,-327.3 127.72,-283.77 158.87,-258.42"/>
<polygon fill="#1414ce" stroke="#1414ce" points="161.23,-261.01 166.92,-252.07 156.9,-255.52 161.23,-261.01"/>
</a>
</g>
</g>
<!-- 1&#45;&gt;19 -->
<g id="edge72" class="edge">
<title>1&#45;&gt;19</title>
<g id="a_edge72"><a xlink:title="include">
<path fill="none" stroke="#1414ce" d="M810.97,-719.95C735.32,-703.04 633.01,-670.85 560.5,-612 519.15,-578.45 503.46,-514.77 497.69,-478.36"/>
<polygon fill="#1414ce" stroke="#1414ce" points="501.08,-477.4 496.2,-468 494.16,-478.4 501.08,-477.4"/>
</a>
</g>
</g>
<!-- 1&#45;&gt;3 -->
<g id="edge70" class="edge">
<title>1&#45;&gt;3</title>
<g id="a_edge70"><a xlink:title="include">
<path fill="none" stroke="#1414ce" d="M913.67,-719.66C915.53,-701.01 920.31,-670.93 932.5,-648 938.05,-637.57 946.2,-627.69 954.32,-619.36"/>
<polygon fill="#1414ce" stroke="#1414ce" points="956.98,-621.65 961.7,-612.16 952.1,-616.64 956.98,-621.65"/>
</a>
</g>
</g>
<!-- 14&#45;&gt;16 -->
<g id="edge74" class="edge">
<title>14&#45;&gt;16</title>
<g id="a_edge74"><a xlink:title="include">
<path fill="none" stroke="#1414ce" d="M985.06,-503.97C992.24,-456.19 1012.63,-320.62 1021.4,-262.27"/>
<polygon fill="#1414ce" stroke="#1414ce" points="1024.87,-262.72 1022.9,-252.31 1017.95,-261.67 1024.87,-262.72"/>
</a>
</g>
</g>
<!-- 14&#45;&gt;15 -->
<g id="edge73" class="edge">
<title>14&#45;&gt;15</title>
<g id="a_edge73"><a xlink:title="include">
<path fill="none" stroke="#1414ce" d="M990.99,-503.95C1011.18,-462.25 1061.6,-351.28 1077.5,-252 1080.03,-236.2 1083.55,-230.81 1077.5,-216 1073.01,-205.02 1065.03,-195.08 1056.65,-186.86"/>
<polygon fill="#1414ce" stroke="#1414ce" points="1058.99,-184.26 1049.25,-180.09 1054.26,-189.42 1058.99,-184.26"/>
</a>
</g>
</g>
<!-- 14&#45;&gt;19 -->
<g id="edge75" class="edge">
<title>14&#45;&gt;19</title>
<g id="a_edge75"><a xlink:title="include">
<path fill="none" stroke="#1414ce" d="M955.22,-517.09C874.36,-505.49 635.55,-471.23 537.38,-457.15"/>
<polygon fill="#1414ce" stroke="#1414ce" points="537.62,-453.65 527.23,-455.69 536.63,-460.58 537.62,-453.65"/>
</a>
</g>
</g>
</g>
</svg>
