<?xml version="1.0" encoding="UTF-8" standalone="no"?>
<!DOCTYPE svg PUBLIC "-//W3C//DTD SVG 1.1//EN"
 "http://www.w3.org/Graphics/SVG/1.1/DTD/svg11.dtd">
<!-- Generated by graphviz version 2.43.0 (0)
 -->
<!-- Title: %3 Pages: 1 -->
<svg width="1308pt" height="404pt"
 viewBox="0.00 0.00 1307.74 404.00" xmlns="http://www.w3.org/2000/svg" xmlns:xlink="http://www.w3.org/1999/xlink">
<g id="graph0" class="graph" transform="scale(1 1) rotate(0) translate(4 400)">
<title>%3</title>
<polygon fill="transparent" stroke="transparent" points="-4,4 -4,-400 1303.74,-400 1303.74,4 -4,4"/>
<!-- 20 -->
<g id="node1" class="node">
<title>20</title>
<g id="a_node1"><a xlink:title="SpinLock">
<polygon fill="#ffffff" stroke="black" points="82,-324 0,-324 0,-288 82,-288 82,-324"/>
<text text-anchor="middle" x="41" y="-302.3" font-family="Times,serif" font-size="14.00">SpinLock</text>
</a>
</g>
</g>
<!-- 2 -->
<g id="node2" class="node">
<title>2</title>
<g id="a_node2"><a xlink:title="ResourceType">
<polygon fill="#ffffff" stroke="black" points="384.5,-180 267.5,-180 267.5,-144 384.5,-144 384.5,-180"/>
<text text-anchor="middle" x="326" y="-158.3" font-family="Times,serif" font-size="14.00">ResourceType</text>
</a>
</g>
</g>
<!-- 4 -->
<g id="node4" class="node">
<title>4</title>
<g id="a_node4"><a xlink:title="ListHead">
<polygon fill="#ffffff" stroke="black" points="305.5,-36 224.5,-36 224.5,0 305.5,0 305.5,-36"/>
<text text-anchor="middle" x="265" y="-14.3" font-family="Times,serif" font-size="14.00">ListHead</text>
</a>
</g>
</g>
<!-- 2&#45;&gt;4 -->
<g id="edge3" class="edge">
<title>2&#45;&gt;4</title>
<g id="a_edge3"><a xlink:title="usage">
<path fill="none" stroke="#1414ce" d="M318.64,-143.87C308.15,-119.46 288.81,-74.43 276.44,-45.64"/>
<polygon fill="#1414ce" stroke="#1414ce" points="279.55,-44 272.38,-36.19 273.12,-46.76 279.55,-44"/>
</a>
</g>
</g>
<!-- 5 -->
<g id="node7" class="node">
<title>5</title>
<g id="a_node7"><a xlink:title="GlobalContext">
<polygon fill="#ffffff" stroke="black" points="497.5,-396 378.5,-396 378.5,-360 497.5,-360 497.5,-396"/>
<text text-anchor="middle" x="438" y="-374.3" font-family="Times,serif" font-size="14.00">GlobalContext</text>
</a>
</g>
</g>
<!-- 2&#45;&gt;5 -->
<g id="edge2" class="edge">
<title>2&#45;&gt;5</title>
<g id="a_edge2"><a xlink:title="usage">
<path fill="none" stroke="#1414ce" d="M335.02,-180.23C354.6,-217.64 401.09,-306.47 424.31,-350.84"/>
<polygon fill="#1414ce" stroke="#1414ce" points="421.29,-352.61 429.02,-359.85 427.49,-349.37 421.29,-352.61"/>
</a>
</g>
</g>
<!-- 3 -->
<g id="node19" class="node">
<title>3</title>
<g id="a_node19"><a xlink:title="SyncList">
<polygon fill="#ffffff" stroke="black" points="451,-108 373,-108 373,-72 451,-72 451,-108"/>
<text text-anchor="middle" x="412" y="-86.3" font-family="Times,serif" font-size="14.00">SyncList</text>
</a>
</g>
</g>
<!-- 2&#45;&gt;3 -->
<g id="edge1" class="edge">
<title>2&#45;&gt;3</title>
<g id="a_edge1"><a xlink:title="usage">
<path fill="none" stroke="#1414ce" d="M347.26,-143.7C358.09,-134.88 371.42,-124.03 383.16,-114.47"/>
<polygon fill="#1414ce" stroke="#1414ce" points="385.44,-117.13 390.99,-108.1 381.02,-111.7 385.44,-117.13"/>
</a>
</g>
</g>
<!-- 15 -->
<g id="node3" class="node">
<title>15</title>
<g id="a_node3"><a xlink:title="Module">
<polygon fill="#ffffff" stroke="black" points="663,-324 593,-324 593,-288 663,-288 663,-324"/>
<text text-anchor="middle" x="628" y="-302.3" font-family="Times,serif" font-size="14.00">Module</text>
</a>
</g>
</g>
<!-- 15&#45;&gt;4 -->
<g id="edge6" class="edge">
<title>15&#45;&gt;4</title>
<g id="a_edge6"><a xlink:title="usage">
<path fill="none" stroke="#1414ce" d="M663.05,-303.91C699.33,-300.68 754.34,-289.44 781,-252 790.28,-238.97 789.7,-229.43 781,-216 677.51,-56.15 424.06,-25.75 315.59,-20.16"/>
<polygon fill="#1414ce" stroke="#1414ce" points="315.71,-16.66 305.56,-19.69 315.38,-23.65 315.71,-16.66"/>
</a>
</g>
</g>
<!-- 17 -->
<g id="node11" class="node">
<title>17</title>
<g id="a_node11"><a xlink:title="LiteralEntry">
<polygon fill="#ffffff" stroke="black" points="608,-252 504,-252 504,-216 608,-216 608,-252"/>
<text text-anchor="middle" x="556" y="-230.3" font-family="Times,serif" font-size="14.00">LiteralEntry</text>
</a>
</g>
</g>
<!-- 15&#45;&gt;17 -->
<g id="edge5" class="edge">
<title>15&#45;&gt;17</title>
<g id="a_edge5"><a xlink:title="usage">
<path fill="none" stroke="#1414ce" d="M610.2,-287.7C601.4,-279.14 590.62,-268.66 581,-259.3"/>
<polygon fill="#1414ce" stroke="#1414ce" points="583.2,-256.57 573.59,-252.1 578.32,-261.58 583.2,-256.57"/>
</a>
</g>
</g>
<!-- 16 -->
<g id="node18" class="node">
<title>16</title>
<g id="a_node18"><a xlink:title="ExportedFunction">
<polygon fill="#ffffff" stroke="black" points="772,-252 626,-252 626,-216 772,-216 772,-252"/>
<text text-anchor="middle" x="699" y="-230.3" font-family="Times,serif" font-size="14.00">ExportedFunction</text>
</a>
</g>
</g>
<!-- 15&#45;&gt;16 -->
<g id="edge4" class="edge">
<title>15&#45;&gt;16</title>
<g id="a_edge4"><a xlink:title="usage">
<path fill="none" stroke="#1414ce" d="M645.55,-287.7C654.23,-279.14 664.86,-268.66 674.35,-259.3"/>
<polygon fill="#1414ce" stroke="#1414ce" points="676.99,-261.62 681.65,-252.1 672.07,-256.63 676.99,-261.62"/>
</a>
</g>
</g>
<!-- 4&#45;&gt;4 -->
<g id="edge7" class="edge">
<title>4&#45;&gt;4</title>
<g id="a_edge7"><a xlink:title="usage">
<path fill="none" stroke="#1414ce" d="M305.73,-31.31C315.9,-30.38 323.5,-25.95 323.5,-18 323.5,-12.91 320.38,-9.26 315.47,-7.05"/>
<polygon fill="#1414ce" stroke="#1414ce" points="316.28,-3.64 305.73,-4.69 314.63,-10.45 316.28,-3.64"/>
</a>
</g>
</g>
<!-- 12 -->
<g id="node5" class="node">
<title>12</title>
<g id="a_node5"><a xlink:title="HeapFragment">
<polygon fill="#ffffff" stroke="black" points="1274.5,-36 1149.5,-36 1149.5,0 1274.5,0 1274.5,-36"/>
<text text-anchor="middle" x="1212" y="-14.3" font-family="Times,serif" font-size="14.00">HeapFragment</text>
</a>
</g>
</g>
<!-- 12&#45;&gt;12 -->
<g id="edge8" class="edge">
<title>12&#45;&gt;12</title>
<g id="a_edge8"><a xlink:title="usage">
<path fill="none" stroke="#1414ce" d="M1274.78,-30.55C1285.26,-28.79 1292.5,-24.61 1292.5,-18 1292.5,-13.77 1289.53,-10.53 1284.64,-8.29"/>
<polygon fill="#1414ce" stroke="#1414ce" points="1285.36,-4.85 1274.78,-5.45 1283.42,-11.58 1285.36,-4.85"/>
</a>
</g>
</g>
<!-- 14 -->
<g id="node6" class="node">
<title>14</title>
<g id="a_node6"><a xlink:title="RefcBinaryQueueItem">
<polygon fill="#ffffff" stroke="black" points="354,-324 180,-324 180,-288 354,-288 354,-324"/>
<text text-anchor="middle" x="267" y="-302.3" font-family="Times,serif" font-size="14.00">RefcBinaryQueueItem</text>
</a>
</g>
</g>
<!-- 14&#45;&gt;14 -->
<g id="edge10" class="edge">
<title>14&#45;&gt;14</title>
<g id="a_edge10"><a xlink:title="usage">
<path fill="none" stroke="#1414ce" d="M354.3,-317.68C364.99,-315.59 372,-311.7 372,-306 372,-302.35 369.12,-299.44 364.25,-297.27"/>
<polygon fill="#1414ce" stroke="#1414ce" points="364.88,-293.81 354.3,-294.32 362.89,-300.52 364.88,-293.81"/>
</a>
</g>
</g>
<!-- 1 -->
<g id="node16" class="node">
<title>1</title>
<g id="a_node16"><a xlink:title="RefcBinary">
<polygon fill="#bfbfbf" stroke="black" points="314.5,-252 219.5,-252 219.5,-216 314.5,-216 314.5,-252"/>
<text text-anchor="middle" x="267" y="-230.3" font-family="Times,serif" font-size="14.00">RefcBinary</text>
</a>
</g>
</g>
<!-- 14&#45;&gt;1 -->
<g id="edge9" class="edge">
<title>14&#45;&gt;1</title>
<g id="a_edge9"><a xlink:title="usage">
<path fill="none" stroke="#1414ce" d="M267,-287.7C267,-279.98 267,-270.71 267,-262.11"/>
<polygon fill="#1414ce" stroke="#1414ce" points="270.5,-262.1 267,-252.1 263.5,-262.1 270.5,-262.1"/>
</a>
</g>
</g>
<!-- 5&#45;&gt;20 -->
<g id="edge19" class="edge">
<title>5&#45;&gt;20</title>
<g id="a_edge19"><a xlink:title="usage">
<path fill="none" stroke="#1414ce" d="M378.49,-370.45C309.87,-362.29 193.92,-346.59 96,-324 94.74,-323.71 93.47,-323.4 92.19,-323.09"/>
<polygon fill="#1414ce" stroke="#1414ce" points="92.83,-319.64 82.27,-320.46 91.04,-326.41 92.83,-319.64"/>
</a>
</g>
</g>
<!-- 5&#45;&gt;15 -->
<g id="edge16" class="edge">
<title>5&#45;&gt;15</title>
<g id="a_edge16"><a xlink:title="usage">
<path fill="none" stroke="#1414ce" d="M484.48,-359.88C514.49,-348.82 553.32,-334.51 583.02,-323.57"/>
<polygon fill="#1414ce" stroke="#1414ce" points="584.55,-326.74 592.72,-320 582.13,-320.17 584.55,-326.74"/>
</a>
</g>
</g>
<!-- 5&#45;&gt;4 -->
<g id="edge20" class="edge">
<title>5&#45;&gt;4</title>
<g id="a_edge20"><a xlink:title="usage">
<path fill="none" stroke="#1414ce" d="M378.19,-372.7C303.91,-366.25 182.74,-351.75 148,-324 114.4,-297.16 110,-278.01 110,-235 110,-235 110,-235 110,-161 110,-120.55 102.8,-102.81 129,-72 150.37,-46.88 185.16,-33.6 214.21,-26.62"/>
<polygon fill="#1414ce" stroke="#1414ce" points="215.2,-29.98 224.21,-24.4 213.69,-23.15 215.2,-29.98"/>
</a>
</g>
</g>
<!-- 5&#45;&gt;14 -->
<g id="edge14" class="edge">
<title>5&#45;&gt;14</title>
<g id="a_edge14"><a xlink:title="usage">
<path fill="none" stroke="#1414ce" d="M396.17,-359.88C372.58,-350.22 342.94,-338.09 318,-327.88"/>
<polygon fill="#1414ce" stroke="#1414ce" points="319.28,-324.62 308.7,-324.07 316.62,-331.1 319.28,-324.62"/>
</a>
</g>
</g>
<!-- 6 -->
<g id="node8" class="node">
<title>6</title>
<g id="a_node8"><a xlink:title="Ets">
<polygon fill="#ffffff" stroke="black" points="457,-180 403,-180 403,-144 457,-144 457,-180"/>
<text text-anchor="middle" x="430" y="-158.3" font-family="Times,serif" font-size="14.00">Ets</text>
</a>
</g>
</g>
<!-- 5&#45;&gt;6 -->
<g id="edge11" class="edge">
<title>5&#45;&gt;6</title>
<g id="a_edge11"><a xlink:title="usage">
<path fill="none" stroke="#1414ce" d="M437.36,-359.85C435.98,-322.83 432.7,-235.18 431.02,-190.39"/>
<polygon fill="#1414ce" stroke="#1414ce" points="434.52,-190.09 430.64,-180.23 427.52,-190.36 434.52,-190.09"/>
</a>
</g>
</g>
<!-- 19 -->
<g id="node10" class="node">
<title>19</title>
<g id="a_node10"><a xlink:title="TimerList">
<polygon fill="#ffffff" stroke="black" points="224,-108 138,-108 138,-72 224,-72 224,-108"/>
<text text-anchor="middle" x="181" y="-86.3" font-family="Times,serif" font-size="14.00">TimerList</text>
</a>
</g>
</g>
<!-- 5&#45;&gt;19 -->
<g id="edge18" class="edge">
<title>5&#45;&gt;19</title>
<g id="a_edge18"><a xlink:title="usage">
<path fill="none" stroke="#1414ce" d="M378.34,-373.73C307.8,-368.46 196.71,-355.32 171,-324 122.17,-264.53 151.36,-164.94 169.63,-117.58"/>
<polygon fill="#1414ce" stroke="#1414ce" points="172.98,-118.62 173.44,-108.03 166.48,-116.02 172.98,-118.62"/>
</a>
</g>
</g>
<!-- 7 -->
<g id="node14" class="node">
<title>7</title>
<g id="a_node14"><a xlink:title="MessageQueueItem">
<polygon fill="#ffffff" stroke="black" points="908,-324 750,-324 750,-288 908,-288 908,-324"/>
<text text-anchor="middle" x="829" y="-302.3" font-family="Times,serif" font-size="14.00">MessageQueueItem</text>
</a>
</g>
</g>
<!-- 5&#45;&gt;7 -->
<g id="edge12" class="edge">
<title>5&#45;&gt;7</title>
<g id="a_edge12"><a xlink:title="usage">
<path fill="none" stroke="#1414ce" d="M497.81,-366.29C562.27,-354.75 665.57,-336.26 739.67,-322.99"/>
<polygon fill="#1414ce" stroke="#1414ce" points="740.7,-326.36 749.92,-321.16 739.46,-319.47 740.7,-326.36"/>
</a>
</g>
</g>
<!-- 18 -->
<g id="node15" class="node">
<title>18</title>
<g id="a_node15"><a xlink:title="AtomsHashTable">
<polygon fill="#ffffff" stroke="black" points="1138.5,-252 1001.5,-252 1001.5,-216 1138.5,-216 1138.5,-252"/>
<text text-anchor="middle" x="1070" y="-230.3" font-family="Times,serif" font-size="14.00">AtomsHashTable</text>
</a>
</g>
</g>
<!-- 5&#45;&gt;18 -->
<g id="edge17" class="edge">
<title>5&#45;&gt;18</title>
<g id="a_edge17"><a xlink:title="usage">
<path fill="none" stroke="#1414ce" d="M497.83,-374.16C611.84,-368.17 855.88,-352.39 935,-324 976.01,-309.28 1016.91,-279.7 1042.77,-258.68"/>
<polygon fill="#1414ce" stroke="#1414ce" points="1045.14,-261.26 1050.61,-252.19 1040.68,-255.87 1045.14,-261.26"/>
</a>
</g>
</g>
<!-- 9 -->
<g id="node17" class="node">
<title>9</title>
<g id="a_node17"><a xlink:title="AtomTable">
<polygon fill="#ffffff" stroke="black" points="1258,-324 1166,-324 1166,-288 1258,-288 1258,-324"/>
<text text-anchor="middle" x="1212" y="-302.3" font-family="Times,serif" font-size="14.00">AtomTable</text>
</a>
</g>
</g>
<!-- 5&#45;&gt;9 -->
<g id="edge13" class="edge">
<title>5&#45;&gt;9</title>
<g id="a_edge13"><a xlink:title="usage">
<path fill="none" stroke="#1414ce" d="M497.68,-371.65C603.92,-362.11 832.82,-341.53 1026,-324 1069.54,-320.05 1118.81,-315.54 1155.7,-312.16"/>
<polygon fill="#1414ce" stroke="#1414ce" points="1156.12,-315.64 1165.76,-311.24 1155.48,-308.67 1156.12,-315.64"/>
</a>
</g>
</g>
<!-- 5&#45;&gt;3 -->
<g id="edge15" class="edge">
<title>5&#45;&gt;3</title>
<g id="a_edge15"><a xlink:title="usage">
<path fill="none" stroke="#1414ce" d="M445.71,-359.81C462.36,-320.08 497.69,-219.51 466,-144 461.36,-132.95 453.17,-123.04 444.54,-114.86"/>
<polygon fill="#1414ce" stroke="#1414ce" points="446.74,-112.14 436.93,-108.14 442.11,-117.38 446.74,-112.14"/>
</a>
</g>
</g>
<!-- 6&#45;&gt;3 -->
<g id="edge21" class="edge">
<title>6&#45;&gt;3</title>
<g id="a_edge21"><a xlink:title="usage">
<path fill="none" stroke="#1414ce" d="M425.55,-143.7C423.55,-135.9 421.13,-126.51 418.9,-117.83"/>
<polygon fill="#1414ce" stroke="#1414ce" points="422.28,-116.92 416.4,-108.1 415.5,-118.66 422.28,-116.92"/>
</a>
</g>
</g>
<!-- 13 -->
<g id="node9" class="node">
<title>13</title>
<g id="a_node9"><a xlink:title="HNodeGroup">
<polygon fill="#ffffff" stroke="black" points="1267,-252 1157,-252 1157,-216 1267,-216 1267,-252"/>
<text text-anchor="middle" x="1212" y="-230.3" font-family="Times,serif" font-size="14.00">HNodeGroup</text>
</a>
</g>
</g>
<!-- 13&#45;&gt;13 -->
<g id="edge23" class="edge">
<title>13&#45;&gt;13</title>
<g id="a_edge23"><a xlink:title="usage">
<path fill="none" stroke="#1414ce" d="M1267.07,-246.85C1277.57,-245.32 1285,-241.03 1285,-234 1285,-229.5 1281.95,-226.12 1277,-223.87"/>
<polygon fill="#1414ce" stroke="#1414ce" points="1277.64,-220.42 1267.07,-221.15 1275.79,-227.17 1277.64,-220.42"/>
</a>
</g>
</g>
<!-- 10 -->
<g id="node20" class="node">
<title>10</title>
<g id="a_node20"><a xlink:title="HNode">
<polygon fill="#ffffff" stroke="black" points="1245,-180 1179,-180 1179,-144 1245,-144 1245,-180"/>
<text text-anchor="middle" x="1212" y="-158.3" font-family="Times,serif" font-size="14.00">HNode</text>
</a>
</g>
</g>
<!-- 13&#45;&gt;10 -->
<g id="edge22" class="edge">
<title>13&#45;&gt;10</title>
<g id="a_edge22"><a xlink:title="usage">
<path fill="none" stroke="#1414ce" d="M1212,-215.7C1212,-207.98 1212,-198.71 1212,-190.11"/>
<polygon fill="#1414ce" stroke="#1414ce" points="1215.5,-190.1 1212,-180.1 1208.5,-190.1 1215.5,-190.1"/>
</a>
</g>
</g>
<!-- 19&#45;&gt;4 -->
<g id="edge24" class="edge">
<title>19&#45;&gt;4</title>
<g id="a_edge24"><a xlink:title="usage">
<path fill="none" stroke="#1414ce" d="M201.76,-71.7C212.24,-62.97 225.11,-52.24 236.5,-42.75"/>
<polygon fill="#1414ce" stroke="#1414ce" points="239.03,-45.19 244.47,-36.1 234.55,-39.82 239.03,-45.19"/>
</a>
</g>
</g>
<!-- 8 -->
<g id="node12" class="node">
<title>8</title>
<g id="a_node12"><a xlink:title="MailboxMessage">
<polygon fill="#ffffff" stroke="black" points="965.5,-252 828.5,-252 828.5,-216 965.5,-216 965.5,-252"/>
<text text-anchor="middle" x="897" y="-230.3" font-family="Times,serif" font-size="14.00">MailboxMessage</text>
</a>
</g>
</g>
<!-- 8&#45;&gt;8 -->
<g id="edge25" class="edge">
<title>8&#45;&gt;8</title>
<g id="a_edge25"><a xlink:title="usage">
<path fill="none" stroke="#1414ce" d="M965.53,-246.37C976.21,-244.52 983.5,-240.4 983.5,-234 983.5,-229.8 980.36,-226.58 975.18,-224.34"/>
<polygon fill="#1414ce" stroke="#1414ce" points="976.1,-220.96 965.53,-221.63 974.21,-227.7 976.1,-220.96"/>
</a>
</g>
</g>
<!-- 11 -->
<g id="node13" class="node">
<title>11</title>
<g id="a_node13"><a xlink:title="Heap">
<polygon fill="#ffffff" stroke="black" points="1239,-108 1185,-108 1185,-72 1239,-72 1239,-108"/>
<text text-anchor="middle" x="1212" y="-86.3" font-family="Times,serif" font-size="14.00">Heap</text>
</a>
</g>
</g>
<!-- 11&#45;&gt;12 -->
<g id="edge26" class="edge">
<title>11&#45;&gt;12</title>
<g id="a_edge26"><a xlink:title="usage">
<path fill="none" stroke="#1414ce" d="M1212,-71.7C1212,-63.98 1212,-54.71 1212,-46.11"/>
<polygon fill="#1414ce" stroke="#1414ce" points="1215.5,-46.1 1212,-36.1 1208.5,-46.1 1215.5,-46.1"/>
</a>
</g>
</g>
<!-- 7&#45;&gt;8 -->
<g id="edge27" class="edge">
<title>7&#45;&gt;8</title>
<g id="a_edge27"><a xlink:title="usage">
<path fill="none" stroke="#1414ce" d="M845.81,-287.7C854.13,-279.14 864.31,-268.66 873.39,-259.3"/>
<polygon fill="#1414ce" stroke="#1414ce" points="875.93,-261.72 880.38,-252.1 870.91,-256.84 875.93,-261.72"/>
</a>
</g>
</g>
<!-- 7&#45;&gt;7 -->
<g id="edge28" class="edge">
<title>7&#45;&gt;7</title>
<g id="a_edge28"><a xlink:title="usage">
<path fill="none" stroke="#1414ce" d="M908.16,-317.98C918.87,-315.97 926,-311.98 926,-306 926,-302.08 922.93,-299.01 917.79,-296.8"/>
<polygon fill="#1414ce" stroke="#1414ce" points="918.74,-293.43 908.16,-294.02 916.8,-300.15 918.74,-293.43"/>
</a>
</g>
</g>
<!-- 18&#45;&gt;10 -->
<g id="edge29" class="edge">
<title>18&#45;&gt;10</title>
<g id="a_edge29"><a xlink:title="usage">
<path fill="none" stroke="#1414ce" d="M1104.74,-215.88C1124.25,-206.26 1148.75,-194.18 1169.41,-184"/>
<polygon fill="#1414ce" stroke="#1414ce" points="1171.18,-187.03 1178.6,-179.47 1168.08,-180.75 1171.18,-187.03"/>
</a>
</g>
</g>
<!-- 1&#45;&gt;2 -->
<g id="edge30" class="edge">
<title>1&#45;&gt;2</title>
<g id="a_edge30"><a xlink:title="usage">
<path fill="none" stroke="#1414ce" d="M281.58,-215.7C288.66,-207.3 297.28,-197.07 305.05,-187.86"/>
<polygon fill="#1414ce" stroke="#1414ce" points="307.81,-190.01 311.58,-180.1 302.46,-185.49 307.81,-190.01"/>
</a>
</g>
</g>
<!-- 1&#45;&gt;4 -->
<g id="edge31" class="edge">
<title>1&#45;&gt;4</title>
<g id="a_edge31"><a xlink:title="usage">
<path fill="none" stroke="#1414ce" d="M263.35,-215.91C261.32,-205.57 259.02,-192.09 258,-180 254.05,-133.16 258.3,-78.46 261.69,-46.39"/>
<polygon fill="#1414ce" stroke="#1414ce" points="265.17,-46.75 262.79,-36.42 258.21,-45.98 265.17,-46.75"/>
</a>
</g>
</g>
<!-- 9&#45;&gt;13 -->
<g id="edge33" class="edge">
<title>9&#45;&gt;13</title>
<g id="a_edge33"><a xlink:title="usage">
<path fill="none" stroke="#1414ce" d="M1212,-287.7C1212,-279.98 1212,-270.71 1212,-262.11"/>
<polygon fill="#1414ce" stroke="#1414ce" points="1215.5,-262.1 1212,-252.1 1208.5,-262.1 1215.5,-262.1"/>
</a>
</g>
</g>
<!-- 9&#45;&gt;10 -->
<g id="edge32" class="edge">
<title>9&#45;&gt;10</title>
<g id="a_edge32"><a xlink:title="usage">
<path fill="none" stroke="#1414ce" d="M1254.62,-287.99C1269.87,-279.58 1285.41,-267.78 1294,-252 1301.65,-237.95 1301.65,-230.05 1294,-216 1285.33,-200.07 1269.58,-188.2 1254.19,-179.77"/>
<polygon fill="#1414ce" stroke="#1414ce" points="1255.72,-176.63 1245.22,-175.21 1252.54,-182.86 1255.72,-176.63"/>
</a>
</g>
</g>
<!-- 3&#45;&gt;4 -->
<g id="edge34" class="edge">
<title>3&#45;&gt;4</title>
<g id="a_edge34"><a xlink:title="usage">
<path fill="none" stroke="#1414ce" d="M376.04,-71.88C356.12,-62.39 331.18,-50.51 309.98,-40.42"/>
<polygon fill="#1414ce" stroke="#1414ce" points="311.38,-37.21 300.84,-36.07 308.37,-43.53 311.38,-37.21"/>
</a>
</g>
</g>
<!-- 10&#45;&gt;11 -->
<g id="edge36" class="edge">
<title>10&#45;&gt;11</title>
<g id="a_edge36"><a xlink:title="usage">
<path fill="none" stroke="#1414ce" d="M1212,-143.7C1212,-135.98 1212,-126.71 1212,-118.11"/>
<polygon fill="#1414ce" stroke="#1414ce" points="1215.5,-118.1 1212,-108.1 1208.5,-118.1 1215.5,-118.1"/>
</a>
</g>
</g>
<!-- 10&#45;&gt;10 -->
<g id="edge35" class="edge">
<title>10&#45;&gt;10</title>
<g id="a_edge35"><a xlink:title="usage">
<path fill="none" stroke="#1414ce" d="M1245.35,-175.47C1255.28,-175.07 1263,-170.58 1263,-162 1263,-156.64 1259.98,-152.87 1255.3,-150.71"/>
<polygon fill="#1414ce" stroke="#1414ce" points="1255.87,-147.25 1245.35,-148.53 1254.37,-154.09 1255.87,-147.25"/>
</a>
</g>
</g>
</g>
</svg>
