<?xml version="1.0" encoding="UTF-8" standalone="no"?>
<!DOCTYPE svg PUBLIC "-//W3C//DTD SVG 1.1//EN"
 "http://www.w3.org/Graphics/SVG/1.1/DTD/svg11.dtd">
<!-- Generated by graphviz version 2.43.0 (0)
 -->
<!-- Title: %3 Pages: 1 -->
<svg width="4825pt" height="188pt"
 viewBox="0.00 0.00 4824.50 188.00" xmlns="http://www.w3.org/2000/svg" xmlns:xlink="http://www.w3.org/1999/xlink">
<g id="graph0" class="graph" transform="scale(1 1) rotate(0) translate(4 184)">
<title>%3</title>
<polygon fill="transparent" stroke="transparent" points="-4,4 -4,-184 4820.5,-184 4820.5,4 -4,4"/>
<!-- 7 -->
<g id="node1" class="node">
<title>7</title>
<g id="a_node1"><a xlink:title="/__w/AtomVM/AtomVM/src/libAtomVM/interop.c">
<polygon fill="#ffffff" stroke="black" points="808.5,-108 451.5,-108 451.5,-72 808.5,-72 808.5,-108"/>
<text text-anchor="middle" x="630" y="-86.3" font-family="Times,serif" font-size="14.00">/__w/AtomVM/AtomVM/src/libAtomVM/interop.c</text>
</a>
</g>
</g>
<!-- 8 -->
<g id="node2" class="node">
<title>8</title>
<g id="a_node2"><a xlink:title="/__w/AtomVM/AtomVM/src/libAtomVM/nifs.c">
<polygon fill="#ffffff" stroke="black" points="332,-36 0,-36 0,0 332,0 332,-36"/>
<text text-anchor="middle" x="166" y="-14.3" font-family="Times,serif" font-size="14.00">/__w/AtomVM/AtomVM/src/libAtomVM/nifs.c</text>
</a>
</g>
</g>
<!-- 1 -->
<g id="node3" class="node">
<title>1</title>
<g id="a_node3"><a xlink:title="/__w/AtomVM/AtomVM/src/libAtomVM/defaultatoms.h">
<polygon fill="#bfbfbf" stroke="black" points="1953.5,-180 1552.5,-180 1552.5,-144 1953.5,-144 1953.5,-180"/>
<text text-anchor="middle" x="1753" y="-158.3" font-family="Times,serif" font-size="14.00">/__w/AtomVM/AtomVM/src/libAtomVM/defaultatoms.h</text>
</a>
</g>
</g>
<!-- 1&#45;&gt;7 -->
<g id="edge6" class="edge">
<title>1&#45;&gt;7</title>
<g id="a_edge6"><a xlink:title="include">
<path fill="none" stroke="#1414ce" d="M1542.39,-150.86C1353.82,-141.33 1069.8,-125.9 823,-108 818.3,-107.66 813.54,-107.31 808.74,-106.94"/>
<polygon fill="#1414ce" stroke="#1414ce" points="1542.26,-154.36 1552.42,-151.36 1542.61,-147.36 1542.26,-154.36"/>
</a>
</g>
</g>
<!-- 1&#45;&gt;8 -->
<g id="edge7" class="edge">
<title>1&#45;&gt;8</title>
<g id="a_edge7"><a xlink:title="include">
<path fill="none" stroke="#1414ce" d="M1542.17,-156.76C1295.22,-150.52 911.89,-136.39 851,-108 831.05,-98.7 836.87,-81.47 817,-72 721.24,-26.36 446.69,-45.13 341,-36 338.11,-35.75 335.2,-35.5 332.26,-35.24"/>
<polygon fill="#1414ce" stroke="#1414ce" points="1542.27,-160.26 1552.36,-157.01 1542.45,-153.26 1542.27,-160.26"/>
</a>
</g>
</g>
<!-- 4 -->
<g id="node4" class="node">
<title>4</title>
<g id="a_node4"><a xlink:title="/__w/AtomVM/AtomVM/src/libAtomVM/dictionary.c">
<polygon fill="#ffffff" stroke="black" points="1748.5,-108 1373.5,-108 1373.5,-72 1748.5,-72 1748.5,-108"/>
<text text-anchor="middle" x="1561" y="-86.3" font-family="Times,serif" font-size="14.00">/__w/AtomVM/AtomVM/src/libAtomVM/dictionary.c</text>
</a>
</g>
</g>
<!-- 1&#45;&gt;4 -->
<g id="edge3" class="edge">
<title>1&#45;&gt;4</title>
<g id="a_edge3"><a xlink:title="include">
<path fill="none" stroke="#1414ce" d="M1696.31,-140.33C1668.14,-130.06 1634.5,-117.8 1607.82,-108.07"/>
<polygon fill="#1414ce" stroke="#1414ce" points="1695.44,-143.74 1706.03,-143.88 1697.84,-137.16 1695.44,-143.74"/>
</a>
</g>
</g>
<!-- 3 -->
<g id="node5" class="node">
<title>3</title>
<g id="a_node5"><a xlink:title="/__w/AtomVM/AtomVM/src/libAtomVM/context.c">
<polygon fill="#ffffff" stroke="black" points="2125.5,-108 1766.5,-108 1766.5,-72 2125.5,-72 2125.5,-108"/>
<text text-anchor="middle" x="1946" y="-86.3" font-family="Times,serif" font-size="14.00">/__w/AtomVM/AtomVM/src/libAtomVM/context.c</text>
</a>
</g>
</g>
<!-- 1&#45;&gt;3 -->
<g id="edge2" class="edge">
<title>1&#45;&gt;3</title>
<g id="a_edge2"><a xlink:title="include">
<path fill="none" stroke="#1414ce" d="M1809.98,-140.33C1838.3,-130.06 1872.11,-117.8 1898.94,-108.07"/>
<polygon fill="#1414ce" stroke="#1414ce" points="1808.42,-137.18 1800.21,-143.88 1810.81,-143.76 1808.42,-137.18"/>
</a>
</g>
</g>
<!-- 2 -->
<g id="node6" class="node">
<title>2</title>
<g id="a_node6"><a xlink:title="/__w/AtomVM/AtomVM/src/libAtomVM/bif.c">
<polygon fill="#ffffff" stroke="black" points="2466.5,-108 2143.5,-108 2143.5,-72 2466.5,-72 2466.5,-108"/>
<text text-anchor="middle" x="2305" y="-86.3" font-family="Times,serif" font-size="14.00">/__w/AtomVM/AtomVM/src/libAtomVM/bif.c</text>
</a>
</g>
</g>
<!-- 1&#45;&gt;2 -->
<g id="edge1" class="edge">
<title>1&#45;&gt;2</title>
<g id="a_edge1"><a xlink:title="include">
<path fill="none" stroke="#1414ce" d="M1897.26,-142.71C1981.77,-131.99 2087.8,-118.54 2170.55,-108.05"/>
<polygon fill="#1414ce" stroke="#1414ce" points="1896.81,-139.24 1887.33,-143.97 1897.69,-146.18 1896.81,-139.24"/>
</a>
</g>
</g>
<!-- 9 -->
<g id="node7" class="node">
<title>9</title>
<g id="a_node7"><a xlink:title="/__w/AtomVM/AtomVM/src/libAtomVM/otp_crypto.c">
<polygon fill="#ffffff" stroke="black" points="2865.5,-108 2484.5,-108 2484.5,-72 2865.5,-72 2865.5,-108"/>
<text text-anchor="middle" x="2675" y="-86.3" font-family="Times,serif" font-size="14.00">/__w/AtomVM/AtomVM/src/libAtomVM/otp_crypto.c</text>
</a>
</g>
</g>
<!-- 1&#45;&gt;9 -->
<g id="edge8" class="edge">
<title>1&#45;&gt;9</title>
<g id="a_edge8"><a xlink:title="include">
<path fill="none" stroke="#1414ce" d="M1963.98,-146.21C2108.2,-135.93 2303.7,-121.67 2476,-108 2478.77,-107.78 2481.55,-107.56 2484.36,-107.33"/>
<polygon fill="#1414ce" stroke="#1414ce" points="1963.41,-142.74 1953.68,-146.94 1963.9,-149.72 1963.41,-142.74"/>
</a>
</g>
</g>
<!-- 10 -->
<g id="node8" class="node">
<title>10</title>
<g id="a_node8"><a xlink:title="/__w/AtomVM/AtomVM/src/libAtomVM/otp_net.c">
<polygon fill="#ffffff" stroke="black" points="709.5,-36 350.5,-36 350.5,0 709.5,0 709.5,-36"/>
<text text-anchor="middle" x="530" y="-14.3" font-family="Times,serif" font-size="14.00">/__w/AtomVM/AtomVM/src/libAtomVM/otp_net.c</text>
</a>
</g>
</g>
<!-- 1&#45;&gt;10 -->
<g id="edge9" class="edge">
<title>1&#45;&gt;10</title>
<g id="a_edge9"><a xlink:title="include">
<path fill="none" stroke="#1414ce" d="M1542.39,-154.87C1307.48,-146.95 952.58,-131.35 894,-108 870.85,-98.77 873.65,-82.4 851,-72 820.2,-57.86 747.74,-45.33 679.45,-36.01"/>
<polygon fill="#1414ce" stroke="#1414ce" points="1542.33,-158.37 1552.44,-155.21 1542.56,-151.38 1542.33,-158.37"/>
</a>
</g>
</g>
<!-- 17 -->
<g id="node9" class="node">
<title>17</title>
<g id="a_node9"><a xlink:title="/__w/AtomVM/AtomVM/src/libAtomVM/resources.c">
<polygon fill="#ffffff" stroke="black" points="3258.5,-108 2883.5,-108 2883.5,-72 3258.5,-72 3258.5,-108"/>
<text text-anchor="middle" x="3071" y="-86.3" font-family="Times,serif" font-size="14.00">/__w/AtomVM/AtomVM/src/libAtomVM/resources.c</text>
</a>
</g>
</g>
<!-- 1&#45;&gt;17 -->
<g id="edge15" class="edge">
<title>1&#45;&gt;17</title>
<g id="a_edge15"><a xlink:title="include">
<path fill="none" stroke="#1414ce" d="M1963.84,-153.52C2189.44,-144.93 2557.74,-129.24 2875,-108 2877.81,-107.81 2880.65,-107.62 2883.5,-107.42"/>
<polygon fill="#1414ce" stroke="#1414ce" points="1963.39,-150.03 1953.53,-153.91 1963.66,-157.02 1963.39,-150.03"/>
</a>
</g>
</g>
<!-- 6 -->
<g id="node11" class="node">
<title>6</title>
<g id="a_node11"><a xlink:title="/__w/AtomVM/AtomVM/src/libAtomVM/globalcontext.c">
<polygon fill="#ffffff" stroke="black" points="3679,-108 3277,-108 3277,-72 3679,-72 3679,-108"/>
<text text-anchor="middle" x="3478" y="-86.3" font-family="Times,serif" font-size="14.00">/__w/AtomVM/AtomVM/src/libAtomVM/globalcontext.c</text>
</a>
</g>
</g>
<!-- 1&#45;&gt;6 -->
<g id="edge5" class="edge">
<title>1&#45;&gt;6</title>
<g id="a_edge5"><a xlink:title="include">
<path fill="none" stroke="#1414ce" d="M1964.09,-156.67C2256.96,-149.96 2803.04,-134.94 3268,-108 3270.92,-107.83 3273.87,-107.66 3276.83,-107.47"/>
<polygon fill="#1414ce" stroke="#1414ce" points="1963.7,-153.17 1953.78,-156.9 1963.86,-160.17 1963.7,-153.17"/>
</a>
</g>
</g>
<!-- 11 -->
<g id="node12" class="node">
<title>11</title>
<g id="a_node12"><a xlink:title="/__w/AtomVM/AtomVM/src/libAtomVM/otp_socket.c">
<polygon fill="#ffffff" stroke="black" points="1459.5,-36 1078.5,-36 1078.5,0 1459.5,0 1459.5,-36"/>
<text text-anchor="middle" x="1269" y="-14.3" font-family="Times,serif" font-size="14.00">/__w/AtomVM/AtomVM/src/libAtomVM/otp_socket.c</text>
</a>
</g>
</g>
<!-- 1&#45;&gt;11 -->
<g id="edge10" class="edge">
<title>1&#45;&gt;11</title>
<g id="a_edge10"><a xlink:title="include">
<path fill="none" stroke="#1414ce" d="M1542.38,-153.08C1450.86,-146.07 1356.12,-132.86 1319,-108 1293.82,-91.13 1279.97,-57.09 1273.55,-36.34"/>
<polygon fill="#1414ce" stroke="#1414ce" points="1542.14,-156.57 1552.37,-153.82 1542.66,-149.59 1542.14,-156.57"/>
</a>
</g>
</g>
<!-- 18 -->
<g id="node13" class="node">
<title>18</title>
<g id="a_node13"><a xlink:title="/__w/AtomVM/AtomVM/src/libAtomVM/stacktrace.c">
<polygon fill="#ffffff" stroke="black" points="4077,-108 3697,-108 3697,-72 4077,-72 4077,-108"/>
<text text-anchor="middle" x="3887" y="-86.3" font-family="Times,serif" font-size="14.00">/__w/AtomVM/AtomVM/src/libAtomVM/stacktrace.c</text>
</a>
</g>
</g>
<!-- 1&#45;&gt;18 -->
<g id="edge16" class="edge">
<title>1&#45;&gt;18</title>
<g id="a_edge16"><a xlink:title="include">
<path fill="none" stroke="#1414ce" d="M1963.88,-159.21C2319.63,-155.31 3061.55,-143.31 3688,-108 3690.94,-107.83 3693.91,-107.66 3696.9,-107.48"/>
<polygon fill="#1414ce" stroke="#1414ce" points="1963.69,-155.72 1953.72,-159.32 1963.76,-162.71 1963.69,-155.72"/>
</a>
</g>
</g>
<!-- 12 -->
<g id="node14" class="node">
<title>12</title>
<g id="a_node14"><a xlink:title="/__w/AtomVM/AtomVM/src/libAtomVM/otp_ssl.c">
<polygon fill="#ffffff" stroke="black" points="1832.5,-36 1477.5,-36 1477.5,0 1832.5,0 1832.5,-36"/>
<text text-anchor="middle" x="1655" y="-14.3" font-family="Times,serif" font-size="14.00">/__w/AtomVM/AtomVM/src/libAtomVM/otp_ssl.c</text>
</a>
</g>
</g>
<!-- 1&#45;&gt;12 -->
<g id="edge11" class="edge">
<title>1&#45;&gt;12</title>
<g id="a_edge11"><a xlink:title="include">
<path fill="none" stroke="#1414ce" d="M1542.15,-146.77C1444.26,-137.96 1346.04,-125.05 1331,-108 1320.41,-96 1320.64,-84.19 1331,-72 1342.44,-58.54 1418.82,-45.68 1494.53,-36"/>
<polygon fill="#1414ce" stroke="#1414ce" points="1541.97,-150.26 1552.24,-147.66 1542.58,-143.29 1541.97,-150.26"/>
</a>
</g>
</g>
<!-- 16 -->
<g id="node15" class="node">
<title>16</title>
<g id="a_node15"><a xlink:title="/__w/AtomVM/AtomVM/src/libAtomVM/posix_nifs.c">
<polygon fill="#ffffff" stroke="black" points="4471,-108 4095,-108 4095,-72 4471,-72 4471,-108"/>
<text text-anchor="middle" x="4283" y="-86.3" font-family="Times,serif" font-size="14.00">/__w/AtomVM/AtomVM/src/libAtomVM/posix_nifs.c</text>
</a>
</g>
</g>
<!-- 1&#45;&gt;16 -->
<g id="edge14" class="edge">
<title>1&#45;&gt;16</title>
<g id="a_edge14"><a xlink:title="include">
<path fill="none" stroke="#1414ce" d="M1963.84,-160.68C2373.22,-159.07 3304.2,-150.57 4086,-108 4088.91,-107.84 4091.85,-107.67 4094.81,-107.5"/>
<polygon fill="#1414ce" stroke="#1414ce" points="1963.66,-157.18 1953.67,-160.72 1963.68,-164.18 1963.66,-157.18"/>
</a>
</g>
</g>
<!-- 13 -->
<g id="node16" class="node">
<title>13</title>
<g id="a_node16"><a xlink:title="/__w/AtomVM/AtomVM/src/libAtomVM/port.c">
<polygon fill="#ffffff" stroke="black" points="2185.5,-36 1850.5,-36 1850.5,0 2185.5,0 2185.5,-36"/>
<text text-anchor="middle" x="2018" y="-14.3" font-family="Times,serif" font-size="14.00">/__w/AtomVM/AtomVM/src/libAtomVM/port.c</text>
</a>
</g>
</g>
<!-- 1&#45;&gt;13 -->
<g id="edge12" class="edge">
<title>1&#45;&gt;13</title>
<g id="a_edge12"><a xlink:title="include">
<path fill="none" stroke="#1414ce" d="M1542.43,-156.45C1464.74,-149.93 1389.6,-136.18 1365,-108 1354.48,-95.94 1354.12,-83.73 1365,-72 1401.14,-33.03 1789.04,-40.56 1842,-36 1844.75,-35.76 1847.53,-35.52 1850.32,-35.28"/>
<polygon fill="#1414ce" stroke="#1414ce" points="1542.16,-159.93 1552.41,-157.24 1542.72,-152.96 1542.16,-159.93"/>
</a>
</g>
</g>
<!-- 14 -->
<g id="node17" class="node">
<title>14</title>
<g id="a_node17"><a xlink:title="/__w/AtomVM/AtomVM/src/libAtomVM/port.h">
<polygon fill="#ffffff" stroke="black" points="1240.5,-108 903.5,-108 903.5,-72 1240.5,-72 1240.5,-108"/>
<text text-anchor="middle" x="1072" y="-86.3" font-family="Times,serif" font-size="14.00">/__w/AtomVM/AtomVM/src/libAtomVM/port.h</text>
</a>
</g>
</g>
<!-- 1&#45;&gt;14 -->
<g id="edge13" class="edge">
<title>1&#45;&gt;14</title>
<g id="a_edge13"><a xlink:title="include">
<path fill="none" stroke="#1414ce" d="M1577.23,-142.93C1472.52,-132.17 1340.43,-118.59 1237.58,-108.02"/>
<polygon fill="#1414ce" stroke="#1414ce" points="1576.97,-146.42 1587.28,-143.97 1577.69,-139.46 1576.97,-146.42"/>
</a>
</g>
</g>
<!-- 5 -->
<g id="node18" class="node">
<title>5</title>
<g id="a_node18"><a xlink:title="/__w/AtomVM/AtomVM/src/libAtomVM/ets.c">
<polygon fill="#ffffff" stroke="black" points="4816.5,-108 4489.5,-108 4489.5,-72 4816.5,-72 4816.5,-108"/>
<text text-anchor="middle" x="4653" y="-86.3" font-family="Times,serif" font-size="14.00">/__w/AtomVM/AtomVM/src/libAtomVM/ets.c</text>
</a>
</g>
</g>
<!-- 1&#45;&gt;5 -->
<g id="edge4" class="edge">
<title>1&#45;&gt;5</title>
<g id="a_edge4"><a xlink:title="include">
<path fill="none" stroke="#1414ce" d="M1963.85,-159.05C2515.36,-153.59 3991.67,-136.69 4480,-108 4483.01,-107.82 4486.05,-107.63 4489.12,-107.43"/>
<polygon fill="#1414ce" stroke="#1414ce" points="1963.76,-155.55 1953.79,-159.15 1963.82,-162.55 1963.76,-155.55"/>
</a>
</g>
</g>
<!-- 15 -->
<g id="node10" class="node">
<title>15</title>
<g id="a_node10"><a xlink:title="/__w/AtomVM/AtomVM/src/libAtomVM/inet.c">
<polygon fill="#ffffff" stroke="black" points="1060.5,-36 727.5,-36 727.5,0 1060.5,0 1060.5,-36"/>
<text text-anchor="middle" x="894" y="-14.3" font-family="Times,serif" font-size="14.00">/__w/AtomVM/AtomVM/src/libAtomVM/inet.c</text>
</a>
</g>
</g>
<!-- 14&#45;&gt;8 -->
<g id="edge18" class="edge">
<title>14&#45;&gt;8</title>
<g id="a_edge18"><a xlink:title="include">
<path fill="none" stroke="#1414ce" d="M893.02,-75.14C878.8,-74.06 864.67,-73.01 851,-72 624.38,-55.29 567.44,-54.99 341,-36 338.11,-35.76 335.19,-35.51 332.26,-35.26"/>
<polygon fill="#1414ce" stroke="#1414ce" points="893.15,-78.66 903.38,-75.92 893.67,-71.68 893.15,-78.66"/>
</a>
</g>
</g>
<!-- 14&#45;&gt;10 -->
<g id="edge19" class="edge">
<title>14&#45;&gt;10</title>
<g id="a_edge19"><a xlink:title="include">
<path fill="none" stroke="#1414ce" d="M930.1,-70.67C847.17,-59.96 743.19,-46.53 662.02,-36.05"/>
<polygon fill="#1414ce" stroke="#1414ce" points="929.74,-74.16 940.1,-71.97 930.64,-67.21 929.74,-74.16"/>
</a>
</g>
</g>
<!-- 14&#45;&gt;15 -->
<g id="edge17" class="edge">
<title>14&#45;&gt;15</title>
<g id="a_edge17"><a xlink:title="include">
<path fill="none" stroke="#1414ce" d="M1019.1,-68.2C993.05,-57.95 962.04,-45.76 937.4,-36.07"/>
<polygon fill="#1414ce" stroke="#1414ce" points="1017.87,-71.47 1028.46,-71.88 1020.43,-64.96 1017.87,-71.47"/>
</a>
</g>
</g>
<!-- 14&#45;&gt;11 -->
<g id="edge20" class="edge">
<title>14&#45;&gt;11</title>
<g id="a_edge20"><a xlink:title="include">
<path fill="none" stroke="#1414ce" d="M1129.53,-68.56C1158.53,-58.25 1193.28,-45.9 1220.85,-36.11"/>
<polygon fill="#1414ce" stroke="#1414ce" points="1128.19,-65.32 1119.94,-71.97 1130.53,-71.92 1128.19,-65.32"/>
</a>
</g>
</g>
<!-- 14&#45;&gt;12 -->
<g id="edge21" class="edge">
<title>14&#45;&gt;12</title>
<g id="a_edge21"><a xlink:title="include">
<path fill="none" stroke="#1414ce" d="M1223.83,-70.77C1313.25,-60.03 1425.64,-46.54 1513.25,-36.02"/>
<polygon fill="#1414ce" stroke="#1414ce" points="1223.38,-67.3 1213.87,-71.97 1224.22,-74.25 1223.38,-67.3"/>
</a>
</g>
</g>
<!-- 14&#45;&gt;13 -->
<g id="edge22" class="edge">
<title>14&#45;&gt;13</title>
<g id="a_edge22"><a xlink:title="include">
<path fill="none" stroke="#1414ce" d="M1250.66,-77.28C1441.49,-64.65 1731.39,-45.15 1842,-36 1844.75,-35.77 1847.53,-35.54 1850.33,-35.3"/>
<polygon fill="#1414ce" stroke="#1414ce" points="1250.27,-73.79 1240.52,-77.95 1250.73,-80.78 1250.27,-73.79"/>
</a>
</g>
</g>
</g>
</svg>
