<?xml version="1.0" encoding="UTF-8" standalone="no"?>
<!DOCTYPE svg PUBLIC "-//W3C//DTD SVG 1.1//EN"
 "http://www.w3.org/Graphics/SVG/1.1/DTD/svg11.dtd">
<!-- Generated by graphviz version 2.43.0 (0)
 -->
<!-- Title: %3 Pages: 1 -->
<svg width="1515pt" height="836pt"
 viewBox="0.00 0.00 1515.00 836.00" xmlns="http://www.w3.org/2000/svg" xmlns:xlink="http://www.w3.org/1999/xlink">
<g id="graph0" class="graph" transform="scale(1 1) rotate(0) translate(4 832)">
<title>%3</title>
<polygon fill="transparent" stroke="transparent" points="-4,4 -4,-832 1511,-832 1511,4 -4,4"/>
<!-- 7 -->
<g id="node1" class="node">
<title>7</title>
<g id="a_node1"><a xlink:title="stdbool.h">
<polygon fill="#ffffff" stroke="black" points="426.5,-108 343.5,-108 343.5,-72 426.5,-72 426.5,-108"/>
<text text-anchor="middle" x="385" y="-86.3" font-family="Times,serif" font-size="14.00">stdbool.h</text>
</a>
</g>
</g>
<!-- 24 -->
<g id="node2" class="node">
<title>24</title>
<g id="a_node2"><a xlink:title="refc_binary.h">
<polygon fill="#ffffff" stroke="black" points="916,-396 808,-396 808,-360 916,-360 916,-396"/>
<text text-anchor="middle" x="862" y="-374.3" font-family="Times,serif" font-size="14.00">refc_binary.h</text>
</a>
</g>
</g>
<!-- 24&#45;&gt;7 -->
<g id="edge1" class="edge">
<title>24&#45;&gt;7</title>
<g id="a_edge1"><a xlink:title="include">
<path fill="none" stroke="#1414ce" d="M854.26,-359.71C832.66,-313.93 766.79,-189.96 668,-144 592.54,-108.89 495.52,-97.03 436.91,-93.03"/>
<polygon fill="#1414ce" stroke="#1414ce" points="436.98,-89.53 426.78,-92.39 436.54,-96.52 436.98,-89.53"/>
</a>
</g>
</g>
<!-- 14 -->
<g id="node7" class="node">
<title>14</title>
<g id="a_node7"><a xlink:title="list.h">
<polygon fill="#ffffff" stroke="black" points="459,-180 405,-180 405,-144 459,-144 459,-180"/>
<text text-anchor="middle" x="432" y="-158.3" font-family="Times,serif" font-size="14.00">list.h</text>
</a>
</g>
</g>
<!-- 24&#45;&gt;14 -->
<g id="edge3" class="edge">
<title>24&#45;&gt;14</title>
<g id="a_edge3"><a xlink:title="include">
<path fill="none" stroke="#1414ce" d="M830.96,-359.87C756.1,-318.55 571.67,-216.78 570,-216 536.38,-200.37 496.76,-185.5 468.61,-175.51"/>
<polygon fill="#1414ce" stroke="#1414ce" points="469.76,-172.21 459.17,-172.19 467.44,-178.81 469.76,-172.21"/>
</a>
</g>
</g>
<!-- 5 -->
<g id="node9" class="node">
<title>5</title>
<g id="a_node9"><a xlink:title="stdlib.h">
<polygon fill="#ffffff" stroke="black" points="1222.5,-108 1151.5,-108 1151.5,-72 1222.5,-72 1222.5,-108"/>
<text text-anchor="middle" x="1187" y="-86.3" font-family="Times,serif" font-size="14.00">stdlib.h</text>
</a>
</g>
</g>
<!-- 24&#45;&gt;5 -->
<g id="edge2" class="edge">
<title>24&#45;&gt;5</title>
<g id="a_edge2"><a xlink:title="include">
<path fill="none" stroke="#1414ce" d="M916.12,-361.11C973.4,-342.25 1064.02,-306.32 1127,-252 1156.12,-226.88 1161.42,-215.98 1175,-180 1182.47,-160.22 1185.39,-136.42 1186.49,-118.41"/>
<polygon fill="#1414ce" stroke="#1414ce" points="1189.99,-118.44 1186.95,-108.29 1183,-118.12 1189.99,-118.44"/>
</a>
</g>
</g>
<!-- 25 -->
<g id="node15" class="node">
<title>25</title>
<g id="a_node15"><a xlink:title="resources.h">
<polygon fill="#ffffff" stroke="black" points="946,-324 846,-324 846,-288 946,-288 946,-324"/>
<text text-anchor="middle" x="896" y="-302.3" font-family="Times,serif" font-size="14.00">resources.h</text>
</a>
</g>
</g>
<!-- 24&#45;&gt;25 -->
<g id="edge4" class="edge">
<title>24&#45;&gt;25</title>
<g id="a_edge4"><a xlink:title="include">
<path fill="none" stroke="#1414ce" d="M870.4,-359.7C874.27,-351.73 878.95,-342.1 883.24,-333.26"/>
<polygon fill="#1414ce" stroke="#1414ce" points="886.47,-334.63 887.69,-324.1 880.17,-331.57 886.47,-334.63"/>
</a>
</g>
</g>
<!-- 4 -->
<g id="node3" class="node">
<title>4</title>
<g id="a_node3"><a xlink:title="atom.h">
<polygon fill="#ffffff" stroke="black" points="1066,-468 1000,-468 1000,-432 1066,-432 1066,-468"/>
<text text-anchor="middle" x="1033" y="-446.3" font-family="Times,serif" font-size="14.00">atom.h</text>
</a>
</g>
</g>
<!-- 3 -->
<g id="node8" class="node">
<title>3</title>
<g id="a_node8"><a xlink:title="stdint.h">
<polygon fill="#ffffff" stroke="black" points="1053,-36 981,-36 981,0 1053,0 1053,-36"/>
<text text-anchor="middle" x="1017" y="-14.3" font-family="Times,serif" font-size="14.00">stdint.h</text>
</a>
</g>
</g>
<!-- 4&#45;&gt;3 -->
<g id="edge5" class="edge">
<title>4&#45;&gt;3</title>
<g id="a_edge5"><a xlink:title="include">
<path fill="none" stroke="#1414ce" d="M1066.18,-447.97C1139.65,-445 1312.93,-434.05 1355,-396 1385.38,-368.52 1379,-347.97 1379,-307 1379,-307 1379,-307 1379,-161 1379,-120.03 1385.49,-99.37 1355,-72 1312.82,-34.14 1145.7,-23.27 1063.35,-20.2"/>
<polygon fill="#1414ce" stroke="#1414ce" points="1063.38,-16.69 1053.27,-19.84 1063.14,-23.69 1063.38,-16.69"/>
</a>
</g>
</g>
<!-- 4&#45;&gt;5 -->
<g id="edge6" class="edge">
<title>4&#45;&gt;5</title>
<g id="a_edge6"><a xlink:title="include">
<path fill="none" stroke="#1414ce" d="M1066.2,-446.09C1126.06,-440.18 1248.67,-424.81 1279,-396 1308.7,-367.78 1303,-347.97 1303,-307 1303,-307 1303,-307 1303,-233 1303,-192.03 1303.98,-176.47 1279,-144 1266.96,-128.34 1248.88,-116.51 1231.92,-108.04"/>
<polygon fill="#1414ce" stroke="#1414ce" points="1233.2,-104.77 1222.67,-103.68 1230.22,-111.11 1233.2,-104.77"/>
</a>
</g>
</g>
<!-- 10 -->
<g id="node4" class="node">
<title>10</title>
<g id="a_node4"><a xlink:title="assert.h">
<polygon fill="#ffffff" stroke="black" points="813,-36 739,-36 739,0 813,0 813,-36"/>
<text text-anchor="middle" x="776" y="-14.3" font-family="Times,serif" font-size="14.00">assert.h</text>
</a>
</g>
</g>
<!-- 22 -->
<g id="node5" class="node">
<title>22</title>
<g id="a_node5"><a xlink:title="utils.h">
<polygon fill="#ffffff" stroke="black" points="1064,-180 1002,-180 1002,-144 1064,-144 1064,-180"/>
<text text-anchor="middle" x="1033" y="-158.3" font-family="Times,serif" font-size="14.00">utils.h</text>
</a>
</g>
</g>
<!-- 22&#45;&gt;5 -->
<g id="edge9" class="edge">
<title>22&#45;&gt;5</title>
<g id="a_edge9"><a xlink:title="include">
<path fill="none" stroke="#1414ce" d="M1064.16,-146.83C1086.53,-136.67 1117.01,-122.81 1142.01,-111.45"/>
<polygon fill="#1414ce" stroke="#1414ce" points="1143.64,-114.55 1151.3,-107.23 1140.75,-108.18 1143.64,-114.55"/>
</a>
</g>
</g>
<!-- 23 -->
<g id="node17" class="node">
<title>23</title>
<g id="a_node17"><a xlink:title="stddef.h">
<polygon fill="#ffffff" stroke="black" points="1064,-108 990,-108 990,-72 1064,-72 1064,-108"/>
<text text-anchor="middle" x="1027" y="-86.3" font-family="Times,serif" font-size="14.00">stddef.h</text>
</a>
</g>
</g>
<!-- 22&#45;&gt;23 -->
<g id="edge7" class="edge">
<title>22&#45;&gt;23</title>
<g id="a_edge7"><a xlink:title="include">
<path fill="none" stroke="#1414ce" d="M1031.52,-143.7C1030.86,-135.98 1030.06,-126.71 1029.32,-118.11"/>
<polygon fill="#1414ce" stroke="#1414ce" points="1032.81,-117.77 1028.47,-108.1 1025.83,-118.37 1032.81,-117.77"/>
</a>
</g>
</g>
<!-- 16 -->
<g id="node31" class="node">
<title>16</title>
<g id="a_node31"><a xlink:title="stdio.h">
<polygon fill="#ffffff" stroke="black" points="971.5,-108 906.5,-108 906.5,-72 971.5,-72 971.5,-108"/>
<text text-anchor="middle" x="939" y="-86.3" font-family="Times,serif" font-size="14.00">stdio.h</text>
</a>
</g>
</g>
<!-- 22&#45;&gt;16 -->
<g id="edge8" class="edge">
<title>22&#45;&gt;16</title>
<g id="a_edge8"><a xlink:title="include">
<path fill="none" stroke="#1414ce" d="M1009.76,-143.7C997.81,-134.8 983.08,-123.82 970.15,-114.2"/>
<polygon fill="#1414ce" stroke="#1414ce" points="972.08,-111.27 961.97,-108.1 967.9,-116.88 972.08,-111.27"/>
</a>
</g>
</g>
<!-- 15 -->
<g id="node6" class="node">
<title>15</title>
<g id="a_node6"><a xlink:title="synclist.h">
<polygon fill="#ffffff" stroke="black" points="561.5,-252 476.5,-252 476.5,-216 561.5,-216 561.5,-252"/>
<text text-anchor="middle" x="519" y="-230.3" font-family="Times,serif" font-size="14.00">synclist.h</text>
</a>
</g>
</g>
<!-- 15&#45;&gt;14 -->
<g id="edge11" class="edge">
<title>15&#45;&gt;14</title>
<g id="a_edge11"><a xlink:title="include">
<path fill="none" stroke="#1414ce" d="M497.49,-215.7C486.54,-206.88 473.05,-196.03 461.18,-186.47"/>
<polygon fill="#1414ce" stroke="#1414ce" points="463.24,-183.65 453.26,-180.1 458.86,-189.1 463.24,-183.65"/>
</a>
</g>
</g>
<!-- 17 -->
<g id="node26" class="node">
<title>17</title>
<g id="a_node26"><a xlink:title="smp.h">
<polygon fill="#ffffff" stroke="black" points="295,-180 235,-180 235,-144 295,-144 295,-180"/>
<text text-anchor="middle" x="265" y="-158.3" font-family="Times,serif" font-size="14.00">smp.h</text>
</a>
</g>
</g>
<!-- 15&#45;&gt;17 -->
<g id="edge12" class="edge">
<title>15&#45;&gt;17</title>
<g id="a_edge12"><a xlink:title="include">
<path fill="none" stroke="#1414ce" d="M476.49,-221.28C428.73,-208.12 351.79,-186.92 305.06,-174.04"/>
<polygon fill="#1414ce" stroke="#1414ce" points="305.85,-170.63 295.28,-171.35 303.99,-177.38 305.85,-170.63"/>
</a>
</g>
</g>
<!-- 15&#45;&gt;16 -->
<g id="edge10" class="edge">
<title>15&#45;&gt;16</title>
<g id="a_edge10"><a xlink:title="include">
<path fill="none" stroke="#1414ce" d="M561.58,-218.6C642.18,-191.35 816.14,-132.54 896.6,-105.34"/>
<polygon fill="#1414ce" stroke="#1414ce" points="898.04,-108.54 906.39,-102.02 895.8,-101.91 898.04,-108.54"/>
</a>
</g>
</g>
<!-- 14&#45;&gt;7 -->
<g id="edge13" class="edge">
<title>14&#45;&gt;7</title>
<g id="a_edge13"><a xlink:title="include">
<path fill="none" stroke="#1414ce" d="M420.38,-143.7C414.86,-135.47 408.15,-125.48 402.07,-116.42"/>
<polygon fill="#1414ce" stroke="#1414ce" points="404.96,-114.46 396.48,-108.1 399.15,-118.36 404.96,-114.46"/>
</a>
</g>
</g>
<!-- 30 -->
<g id="node10" class="node">
<title>30</title>
<g id="a_node10"><a xlink:title="context.h">
<polygon fill="#ffffff" stroke="black" points="375.5,-684 292.5,-684 292.5,-648 375.5,-648 375.5,-684"/>
<text text-anchor="middle" x="334" y="-662.3" font-family="Times,serif" font-size="14.00">context.h</text>
</a>
</g>
</g>
<!-- 30&#45;&gt;14 -->
<g id="edge15" class="edge">
<title>30&#45;&gt;14</title>
<g id="a_edge15"><a xlink:title="include">
<path fill="none" stroke="#1414ce" d="M324.95,-647.95C292.49,-584.21 188.87,-356.35 287,-216 311.15,-181.46 360.33,-169.36 394.69,-165.16"/>
<polygon fill="#1414ce" stroke="#1414ce" points="395.25,-168.62 404.83,-164.09 394.52,-161.66 395.25,-168.62"/>
</a>
</g>
</g>
<!-- 18 -->
<g id="node16" class="node">
<title>18</title>
<g id="a_node16"><a xlink:title="term.h">
<polygon fill="#ffffff" stroke="black" points="954.5,-468 889.5,-468 889.5,-432 954.5,-432 954.5,-468"/>
<text text-anchor="middle" x="922" y="-446.3" font-family="Times,serif" font-size="14.00">term.h</text>
</a>
</g>
</g>
<!-- 30&#45;&gt;18 -->
<g id="edge18" class="edge">
<title>30&#45;&gt;18</title>
<g id="a_edge18"><a xlink:title="include">
<path fill="none" stroke="#1414ce" d="M375.72,-660.21C423.82,-653.64 504.53,-639.41 569,-612 649.31,-577.85 653.59,-540.21 733,-504 780.96,-482.13 839.96,-467.34 879.15,-459.06"/>
<polygon fill="#1414ce" stroke="#1414ce" points="880.08,-462.44 889.16,-456.99 878.66,-455.58 880.08,-462.44"/>
</a>
</g>
</g>
<!-- 2 -->
<g id="node25" class="node">
<title>2</title>
<g id="a_node25"><a xlink:title="globalcontext.h">
<polygon fill="#ffffff" stroke="black" points="560.5,-612 433.5,-612 433.5,-576 560.5,-576 560.5,-612"/>
<text text-anchor="middle" x="497" y="-590.3" font-family="Times,serif" font-size="14.00">globalcontext.h</text>
</a>
</g>
</g>
<!-- 30&#45;&gt;2 -->
<g id="edge14" class="edge">
<title>30&#45;&gt;2</title>
<g id="a_edge14"><a xlink:title="include">
<path fill="none" stroke="#1414ce" d="M373.87,-647.88C396.16,-638.31 424.12,-626.3 447.76,-616.15"/>
<polygon fill="#1414ce" stroke="#1414ce" points="449.45,-619.23 457.26,-612.07 446.69,-612.8 449.45,-619.23"/>
</a>
</g>
</g>
<!-- 30&#45;&gt;17 -->
<g id="edge17" class="edge">
<title>30&#45;&gt;17</title>
<g id="a_edge17"><a xlink:title="include">
<path fill="none" stroke="#1414ce" d="M292.33,-654.38C283.64,-652.22 274.53,-650 266,-648 193.35,-630.95 156.53,-662.94 102,-612 71.89,-583.87 76,-564.21 76,-523 76,-523 76,-523 76,-305 76,-264.55 67.74,-245.88 95,-216 128.04,-179.78 185.38,-168.09 224.24,-164.45"/>
<polygon fill="#1414ce" stroke="#1414ce" points="224.98,-167.9 234.67,-163.62 224.43,-160.92 224.98,-167.9"/>
</a>
</g>
</g>
<!-- 27 -->
<g id="node29" class="node">
<title>27</title>
<g id="a_node29"><a xlink:title="timer_list.h">
<polygon fill="#ffffff" stroke="black" points="202,-252 104,-252 104,-216 202,-216 202,-252"/>
<text text-anchor="middle" x="153" y="-230.3" font-family="Times,serif" font-size="14.00">timer_list.h</text>
</a>
</g>
</g>
<!-- 30&#45;&gt;27 -->
<g id="edge19" class="edge">
<title>30&#45;&gt;27</title>
<g id="a_edge19"><a xlink:title="include">
<path fill="none" stroke="#1414ce" d="M292.25,-652.59C239.08,-633.9 154,-593.05 154,-523 154,-523 154,-523 154,-377 154,-337 153.6,-290.65 153.3,-262.08"/>
<polygon fill="#1414ce" stroke="#1414ce" points="156.8,-262.01 153.2,-252.05 149.8,-262.09 156.8,-262.01"/>
</a>
</g>
</g>
<!-- 26 -->
<g id="node30" class="node">
<title>26</title>
<g id="a_node30"><a xlink:title="mailbox.h">
<polygon fill="#ffffff" stroke="black" points="382,-252 296,-252 296,-216 382,-216 382,-252"/>
<text text-anchor="middle" x="339" y="-230.3" font-family="Times,serif" font-size="14.00">mailbox.h</text>
</a>
</g>
</g>
<!-- 30&#45;&gt;26 -->
<g id="edge16" class="edge">
<title>30&#45;&gt;26</title>
<g id="a_edge16"><a xlink:title="include">
<path fill="none" stroke="#1414ce" d="M334,-647.95C334,-621.29 334,-568.11 334,-523 334,-523 334,-523 334,-377 334,-336.97 336.01,-290.63 337.48,-262.07"/>
<polygon fill="#1414ce" stroke="#1414ce" points="340.98,-262.21 338.01,-252.04 333.99,-261.84 340.98,-262.21"/>
</a>
</g>
</g>
<!-- 21 -->
<g id="node11" class="node">
<title>21</title>
<g id="a_node11"><a xlink:title="memory.h">
<polygon fill="#ffffff" stroke="black" points="1088,-252 1002,-252 1002,-216 1088,-216 1088,-252"/>
<text text-anchor="middle" x="1045" y="-230.3" font-family="Times,serif" font-size="14.00">memory.h</text>
</a>
</g>
</g>
<!-- 21&#45;&gt;22 -->
<g id="edge24" class="edge">
<title>21&#45;&gt;22</title>
<g id="a_edge24"><a xlink:title="include">
<path fill="none" stroke="#1414ce" d="M1042.03,-215.7C1040.71,-207.98 1039.12,-198.71 1037.65,-190.11"/>
<polygon fill="#1414ce" stroke="#1414ce" points="1041.07,-189.37 1035.93,-180.1 1034.17,-190.55 1041.07,-189.37"/>
</a>
</g>
</g>
<!-- 21&#45;&gt;3 -->
<g id="edge20" class="edge">
<title>21&#45;&gt;3</title>
<g id="a_edge20"><a xlink:title="include">
<path fill="none" stroke="#1414ce" d="M1056.89,-215.72C1063.01,-205.76 1069.84,-192.73 1073,-180 1084.55,-133.41 1091.98,-116.09 1073,-72 1068.21,-60.87 1059.81,-50.99 1050.95,-42.86"/>
<polygon fill="#1414ce" stroke="#1414ce" points="1053,-40.01 1043.12,-36.18 1048.46,-45.34 1053,-40.01"/>
</a>
</g>
</g>
<!-- 21&#45;&gt;5 -->
<g id="edge21" class="edge">
<title>21&#45;&gt;5</title>
<g id="a_edge21"><a xlink:title="include">
<path fill="none" stroke="#1414ce" d="M1065.87,-215.91C1077.91,-205.8 1093.16,-192.55 1106,-180 1127.12,-159.36 1149.61,-134.38 1165.52,-116.14"/>
<polygon fill="#1414ce" stroke="#1414ce" points="1168.43,-118.13 1172.34,-108.28 1163.15,-113.54 1168.43,-118.13"/>
</a>
</g>
</g>
<!-- 8 -->
<g id="node18" class="node">
<title>8</title>
<g id="a_node18"><a xlink:title="erl_nif.h">
<polygon fill="#ffffff" stroke="black" points="908,-180 834,-180 834,-144 908,-144 908,-180"/>
<text text-anchor="middle" x="871" y="-158.3" font-family="Times,serif" font-size="14.00">erl_nif.h</text>
</a>
</g>
</g>
<!-- 21&#45;&gt;8 -->
<g id="edge22" class="edge">
<title>21&#45;&gt;8</title>
<g id="a_edge22"><a xlink:title="include">
<path fill="none" stroke="#1414ce" d="M1002.43,-215.88C976.72,-205.53 943.92,-192.34 917.52,-181.72"/>
<polygon fill="#1414ce" stroke="#1414ce" points="918.69,-178.41 908.11,-177.93 916.08,-184.91 918.69,-178.41"/>
</a>
</g>
</g>
<!-- 9 -->
<g id="node24" class="node">
<title>9</title>
<g id="a_node24"><a xlink:title="term_typedef.h">
<polygon fill="#ffffff" stroke="black" points="738.5,-108 613.5,-108 613.5,-72 738.5,-72 738.5,-108"/>
<text text-anchor="middle" x="676" y="-86.3" font-family="Times,serif" font-size="14.00">term_typedef.h</text>
</a>
</g>
</g>
<!-- 21&#45;&gt;9 -->
<g id="edge23" class="edge">
<title>21&#45;&gt;9</title>
<g id="a_edge23"><a xlink:title="include">
<path fill="none" stroke="#1414ce" d="M1025.64,-215.85C1001.77,-195.63 959.16,-162.43 917,-144 863.11,-120.45 797.7,-106.91 748.64,-99.43"/>
<polygon fill="#1414ce" stroke="#1414ce" points="749.14,-95.96 738.74,-97.96 748.12,-102.89 749.14,-95.96"/>
</a>
</g>
</g>
<!-- 1 -->
<g id="node12" class="node">
<title>1</title>
<g id="a_node12"><a xlink:title="/__w/AtomVM/AtomVM/src/libAtomVM/sys.h">
<polygon fill="#bfbfbf" stroke="black" points="1230,-828 900,-828 900,-792 1230,-792 1230,-828"/>
<text text-anchor="middle" x="1065" y="-806.3" font-family="Times,serif" font-size="14.00">/__w/AtomVM/AtomVM/src/libAtomVM/sys.h</text>
</a>
</g>
</g>
<!-- 1&#45;&gt;3 -->
<g id="edge27" class="edge">
<title>1&#45;&gt;3</title>
<g id="a_edge27"><a xlink:title="include">
<path fill="none" stroke="#1414ce" d="M1151.56,-791.97C1255.78,-768.94 1417,-724.08 1417,-667 1417,-667 1417,-667 1417,-161 1417,-118.16 1413.82,-98.29 1380,-72 1331.44,-34.25 1149.52,-23.29 1063.12,-20.19"/>
<polygon fill="#1414ce" stroke="#1414ce" points="1063.18,-16.69 1053.07,-19.85 1062.94,-23.68 1063.18,-16.69"/>
</a>
</g>
</g>
<!-- 28 -->
<g id="node13" class="node">
<title>28</title>
<g id="a_node13"><a xlink:title="module.h">
<polygon fill="#ffffff" stroke="black" points="755.5,-756 672.5,-756 672.5,-720 755.5,-720 755.5,-756"/>
<text text-anchor="middle" x="714" y="-734.3" font-family="Times,serif" font-size="14.00">module.h</text>
</a>
</g>
</g>
<!-- 1&#45;&gt;28 -->
<g id="edge26" class="edge">
<title>1&#45;&gt;28</title>
<g id="a_edge26"><a xlink:title="include">
<path fill="none" stroke="#1414ce" d="M979.58,-791.97C912.72,-778.63 821.93,-760.52 765.69,-749.31"/>
<polygon fill="#1414ce" stroke="#1414ce" points="766.1,-745.82 755.61,-747.3 764.73,-752.69 766.1,-745.82"/>
</a>
</g>
</g>
<!-- 1&#45;&gt;2 -->
<g id="edge25" class="edge">
<title>1&#45;&gt;2</title>
<g id="a_edge25"><a xlink:title="include">
<path fill="none" stroke="#1414ce" d="M899.76,-800.03C630.86,-783.73 122.98,-745.17 69,-684 58.41,-672 58.4,-659.99 69,-648 92.01,-621.96 306.73,-605.82 423.01,-598.91"/>
<polygon fill="#1414ce" stroke="#1414ce" points="423.48,-602.39 433.26,-598.31 423.07,-595.4 423.48,-602.39"/>
</a>
</g>
</g>
<!-- 33 -->
<g id="node28" class="node">
<title>33</title>
<g id="a_node28"><a xlink:title="time.h">
<polygon fill="#ffffff" stroke="black" points="1507,-756 1445,-756 1445,-720 1507,-720 1507,-756"/>
<text text-anchor="middle" x="1476" y="-734.3" font-family="Times,serif" font-size="14.00">time.h</text>
</a>
</g>
</g>
<!-- 1&#45;&gt;33 -->
<g id="edge28" class="edge">
<title>1&#45;&gt;33</title>
<g id="a_edge28"><a xlink:title="include">
<path fill="none" stroke="#1414ce" d="M1230.03,-792.84C1293.47,-784.61 1366.19,-772.72 1431,-756 1432.27,-755.67 1433.56,-755.32 1434.86,-754.95"/>
<polygon fill="#1414ce" stroke="#1414ce" points="1436.34,-758.15 1444.81,-751.78 1434.22,-751.48 1436.34,-758.15"/>
</a>
</g>
</g>
<!-- 28&#45;&gt;7 -->
<g id="edge29" class="edge">
<title>28&#45;&gt;7</title>
<g id="a_edge29"><a xlink:title="include">
<path fill="none" stroke="#1414ce" d="M672.29,-734.51C578.45,-728.5 353.46,-711.59 283,-684 257.5,-674.02 257.96,-659.27 233,-648 167.36,-618.37 130.07,-658.42 75,-612 42.25,-584.39 38,-565.84 38,-523 38,-523 38,-523 38,-233 38,-169.9 237.05,-120.93 333.63,-100.88"/>
<polygon fill="#1414ce" stroke="#1414ce" points="334.39,-104.29 343.49,-98.86 332.99,-97.44 334.39,-104.29"/>
</a>
</g>
</g>
<!-- 28&#45;&gt;4 -->
<g id="edge31" class="edge">
<title>28&#45;&gt;4</title>
<g id="a_edge31"><a xlink:title="include">
<path fill="none" stroke="#1414ce" d="M755.55,-729C787.82,-721.32 832.55,-707.37 866,-684 944.24,-629.33 998.98,-525.8 1021.52,-477.31"/>
<polygon fill="#1414ce" stroke="#1414ce" points="1024.75,-478.65 1025.71,-468.1 1018.38,-475.75 1024.75,-478.65"/>
</a>
</g>
</g>
<!-- 28&#45;&gt;3 -->
<g id="edge30" class="edge">
<title>28&#45;&gt;3</title>
<g id="a_edge30"><a xlink:title="include">
<path fill="none" stroke="#1414ce" d="M672.35,-735.52C538.03,-730.48 121.91,-712.68 69,-684 25,-660.15 0,-645.05 0,-595 0,-595 0,-595 0,-161 0,20 372.82,-69.12 822,-36 872.87,-32.25 931.11,-27.05 970.61,-23.4"/>
<polygon fill="#1414ce" stroke="#1414ce" points="971.09,-26.87 980.72,-22.45 970.44,-19.9 971.09,-26.87"/>
</a>
</g>
</g>
<!-- 28&#45;&gt;30 -->
<g id="edge34" class="edge">
<title>28&#45;&gt;30</title>
<g id="a_edge34"><a xlink:title="include">
<path fill="none" stroke="#1414ce" d="M672.25,-729.31C602.37,-716.44 461.91,-690.56 385.83,-676.55"/>
<polygon fill="#1414ce" stroke="#1414ce" points="386,-673.02 375.53,-674.65 384.73,-679.9 386,-673.02"/>
</a>
</g>
</g>
<!-- 32 -->
<g id="node14" class="node">
<title>32</title>
<g id="a_node14"><a xlink:title="valueshashtable.h">
<polygon fill="#ffffff" stroke="black" points="224,-684 78,-684 78,-648 224,-648 224,-684"/>
<text text-anchor="middle" x="151" y="-662.3" font-family="Times,serif" font-size="14.00">valueshashtable.h</text>
</a>
</g>
</g>
<!-- 28&#45;&gt;32 -->
<g id="edge38" class="edge">
<title>28&#45;&gt;32</title>
<g id="a_edge38"><a xlink:title="include">
<path fill="none" stroke="#1414ce" d="M672.46,-733.53C589.58,-726.35 397.86,-708.48 238,-684 236.72,-683.8 235.42,-683.6 234.12,-683.39"/>
<polygon fill="#1414ce" stroke="#1414ce" points="234.46,-679.9 224.03,-681.72 233.32,-686.81 234.46,-679.9"/>
</a>
</g>
</g>
<!-- 28&#45;&gt;18 -->
<g id="edge37" class="edge">
<title>28&#45;&gt;18</title>
<g id="a_edge37"><a xlink:title="include">
<path fill="none" stroke="#1414ce" d="M755.76,-721.8C800.29,-703.22 868.96,-667.27 903,-612 928.44,-570.7 928.23,-512.03 925.39,-478.11"/>
<polygon fill="#1414ce" stroke="#1414ce" points="928.86,-477.63 924.4,-468.01 921.89,-478.31 928.86,-477.63"/>
</a>
</g>
</g>
<!-- 31 -->
<g id="node19" class="node">
<title>31</title>
<g id="a_node19"><a xlink:title="exportedfunction.h">
<polygon fill="#ffffff" stroke="black" points="894,-612 742,-612 742,-576 894,-576 894,-612"/>
<text text-anchor="middle" x="818" y="-590.3" font-family="Times,serif" font-size="14.00">exportedfunction.h</text>
</a>
</g>
</g>
<!-- 28&#45;&gt;31 -->
<g id="edge35" class="edge">
<title>28&#45;&gt;31</title>
<g id="a_edge35"><a xlink:title="include">
<path fill="none" stroke="#1414ce" d="M726.54,-719.87C744.66,-695.14 778.27,-649.24 799.32,-620.51"/>
<polygon fill="#1414ce" stroke="#1414ce" points="802.33,-622.33 805.41,-612.19 796.68,-618.19 802.33,-622.33"/>
</a>
</g>
</g>
<!-- 6 -->
<g id="node21" class="node">
<title>6</title>
<g id="a_node21"><a xlink:title="atom_table.h">
<polygon fill="#ffffff" stroke="black" points="851.5,-540 742.5,-540 742.5,-504 851.5,-504 851.5,-540"/>
<text text-anchor="middle" x="797" y="-518.3" font-family="Times,serif" font-size="14.00">atom_table.h</text>
</a>
</g>
</g>
<!-- 28&#45;&gt;6 -->
<g id="edge32" class="edge">
<title>28&#45;&gt;6</title>
<g id="a_edge32"><a xlink:title="include">
<path fill="none" stroke="#1414ce" d="M712.04,-719.78C709.36,-688.91 707.44,-622.97 733,-576 739.31,-564.4 749.29,-554.32 759.51,-546.16"/>
<polygon fill="#1414ce" stroke="#1414ce" points="761.79,-548.82 767.69,-540.03 757.59,-543.22 761.79,-548.82"/>
</a>
</g>
</g>
<!-- 28&#45;&gt;2 -->
<g id="edge36" class="edge">
<title>28&#45;&gt;2</title>
<g id="a_edge36"><a xlink:title="include">
<path fill="none" stroke="#1414ce" d="M687.82,-719.87C648.8,-694.34 575.32,-646.25 531.81,-617.78"/>
<polygon fill="#1414ce" stroke="#1414ce" points="533.55,-614.74 523.27,-612.19 529.72,-620.59 533.55,-614.74"/>
</a>
</g>
</g>
<!-- 29 -->
<g id="node27" class="node">
<title>29</title>
<g id="a_node27"><a xlink:title="atomshashtable.h">
<polygon fill="#ffffff" stroke="black" points="1131.5,-612 988.5,-612 988.5,-576 1131.5,-576 1131.5,-612"/>
<text text-anchor="middle" x="1060" y="-590.3" font-family="Times,serif" font-size="14.00">atomshashtable.h</text>
</a>
</g>
</g>
<!-- 28&#45;&gt;29 -->
<g id="edge33" class="edge">
<title>28&#45;&gt;29</title>
<g id="a_edge33"><a xlink:title="include">
<path fill="none" stroke="#1414ce" d="M755.77,-736.01C809.41,-733.12 903.93,-722.45 974,-684 1002.19,-668.54 1026.8,-640.75 1042.39,-620.32"/>
<polygon fill="#1414ce" stroke="#1414ce" points="1045.36,-622.19 1048.51,-612.07 1039.74,-618.02 1045.36,-622.19"/>
</a>
</g>
</g>
<!-- 25&#45;&gt;15 -->
<g id="edge43" class="edge">
<title>25&#45;&gt;15</title>
<g id="a_edge43"><a xlink:title="include">
<path fill="none" stroke="#1414ce" d="M845.94,-295.7C774.58,-282.46 644.25,-258.26 571.55,-244.76"/>
<polygon fill="#1414ce" stroke="#1414ce" points="572.16,-241.31 561.69,-242.93 570.88,-248.19 572.16,-241.31"/>
</a>
</g>
</g>
<!-- 25&#45;&gt;14 -->
<g id="edge41" class="edge">
<title>25&#45;&gt;14</title>
<g id="a_edge41"><a xlink:title="include">
<path fill="none" stroke="#1414ce" d="M850.98,-287.85C800.52,-268.94 716.06,-238.27 642,-216 581.96,-197.94 511.03,-180.92 468.88,-171.25"/>
<polygon fill="#1414ce" stroke="#1414ce" points="469.59,-167.82 459.06,-169.01 468.03,-174.65 469.59,-167.82"/>
</a>
</g>
</g>
<!-- 25&#45;&gt;5 -->
<g id="edge39" class="edge">
<title>25&#45;&gt;5</title>
<g id="a_edge39"><a xlink:title="include">
<path fill="none" stroke="#1414ce" d="M946.24,-302.59C990.09,-298.15 1053.36,-285.83 1097,-252 1141.69,-217.36 1167.55,-153.91 1179.29,-117.88"/>
<polygon fill="#1414ce" stroke="#1414ce" points="1182.72,-118.65 1182.36,-108.06 1176.03,-116.56 1182.72,-118.65"/>
</a>
</g>
</g>
<!-- 25&#45;&gt;21 -->
<g id="edge42" class="edge">
<title>25&#45;&gt;21</title>
<g id="a_edge42"><a xlink:title="include">
<path fill="none" stroke="#1414ce" d="M932.45,-287.88C952.64,-278.39 977.92,-266.51 999.41,-256.42"/>
<polygon fill="#1414ce" stroke="#1414ce" points="1001.11,-259.49 1008.67,-252.07 998.13,-253.15 1001.11,-259.49"/>
</a>
</g>
</g>
<!-- 25&#45;&gt;8 -->
<g id="edge40" class="edge">
<title>25&#45;&gt;8</title>
<g id="a_edge40"><a xlink:title="include">
<path fill="none" stroke="#1414ce" d="M892.98,-287.87C888.72,-263.67 880.9,-219.21 875.82,-190.39"/>
<polygon fill="#1414ce" stroke="#1414ce" points="879.21,-189.43 874.03,-180.19 872.31,-190.64 879.21,-189.43"/>
</a>
</g>
</g>
<!-- 18&#45;&gt;7 -->
<g id="edge45" class="edge">
<title>18&#45;&gt;7</title>
<g id="a_edge45"><a xlink:title="include">
<path fill="none" stroke="#1414ce" d="M889.42,-443.47C857.37,-436.71 808.37,-422.71 774,-396 667.32,-313.1 714.94,-221.11 604,-144 554.02,-109.26 483.9,-97.17 436.58,-93.03"/>
<polygon fill="#1414ce" stroke="#1414ce" points="436.8,-89.54 426.55,-92.24 436.25,-96.52 436.8,-89.54"/>
</a>
</g>
</g>
<!-- 18&#45;&gt;24 -->
<g id="edge51" class="edge">
<title>18&#45;&gt;24</title>
<g id="a_edge51"><a xlink:title="include">
<path fill="none" stroke="#1414ce" d="M907.17,-431.7C899.98,-423.3 891.2,-413.07 883.31,-403.86"/>
<polygon fill="#1414ce" stroke="#1414ce" points="885.83,-401.42 876.66,-396.1 880.51,-405.97 885.83,-401.42"/>
</a>
</g>
</g>
<!-- 18&#45;&gt;22 -->
<g id="edge52" class="edge">
<title>18&#45;&gt;22</title>
<g id="a_edge52"><a xlink:title="include">
<path fill="none" stroke="#1414ce" d="M954.55,-440.54C966.03,-437.68 979.06,-434.55 991,-432 1034.73,-422.65 1160.34,-430.33 1189,-396 1248.88,-324.25 1131.23,-229.09 1068.63,-185.97"/>
<polygon fill="#1414ce" stroke="#1414ce" points="1070.43,-182.96 1060.19,-180.24 1066.5,-188.75 1070.43,-182.96"/>
</a>
</g>
</g>
<!-- 18&#45;&gt;3 -->
<g id="edge46" class="edge">
<title>18&#45;&gt;3</title>
<g id="a_edge46"><a xlink:title="include">
<path fill="none" stroke="#1414ce" d="M954.84,-440.2C966.24,-437.33 979.13,-434.3 991,-432 1153.16,-400.57 1341,-472.18 1341,-307 1341,-307 1341,-307 1341,-161 1341,-41.22 1152.96,-21.53 1063.38,-18.94"/>
<polygon fill="#1414ce" stroke="#1414ce" points="1063.3,-15.44 1053.22,-18.71 1063.14,-22.44 1063.3,-15.44"/>
</a>
</g>
</g>
<!-- 18&#45;&gt;5 -->
<g id="edge48" class="edge">
<title>18&#45;&gt;5</title>
<g id="a_edge48"><a xlink:title="include">
<path fill="none" stroke="#1414ce" d="M954.52,-440.43C966.01,-437.55 979.03,-434.45 991,-432 1087.63,-412.19 1128.04,-450.89 1210,-396 1248.64,-370.13 1265,-353.5 1265,-307 1265,-307 1265,-307 1265,-233 1265,-187.37 1233.68,-142.55 1210.73,-115.84"/>
<polygon fill="#1414ce" stroke="#1414ce" points="1213.17,-113.31 1203.92,-108.15 1207.93,-117.95 1213.17,-113.31"/>
</a>
</g>
</g>
<!-- 18&#45;&gt;21 -->
<g id="edge50" class="edge">
<title>18&#45;&gt;21</title>
<g id="a_edge50"><a xlink:title="include">
<path fill="none" stroke="#1414ce" d="M954.57,-440.67C966.06,-437.81 979.08,-434.67 991,-432 1070.19,-414.29 1118.59,-458.78 1170,-396 1209.76,-347.44 1134.44,-288.89 1084.4,-257.5"/>
<polygon fill="#1414ce" stroke="#1414ce" points="1086.05,-254.4 1075.7,-252.15 1082.38,-260.37 1086.05,-254.4"/>
</a>
</g>
</g>
<!-- 19 -->
<g id="node22" class="node">
<title>19</title>
<g id="a_node22"><a xlink:title="sys/types.h">
<polygon fill="#ffffff" stroke="black" points="1069.5,-396 972.5,-396 972.5,-360 1069.5,-360 1069.5,-396"/>
<text text-anchor="middle" x="1021" y="-374.3" font-family="Times,serif" font-size="14.00">sys/types.h</text>
</a>
</g>
</g>
<!-- 18&#45;&gt;19 -->
<g id="edge44" class="edge">
<title>18&#45;&gt;19</title>
<g id="a_edge44"><a xlink:title="include">
<path fill="none" stroke="#1414ce" d="M946.22,-431.88C958.92,-422.89 974.66,-411.76 988.42,-402.03"/>
<polygon fill="#1414ce" stroke="#1414ce" points="990.54,-404.82 996.69,-396.19 986.5,-399.11 990.54,-404.82"/>
</a>
</g>
</g>
<!-- 20 -->
<g id="node23" class="node">
<title>20</title>
<g id="a_node23"><a xlink:title="string.h">
<polygon fill="#ffffff" stroke="black" points="1160.5,-396 1087.5,-396 1087.5,-360 1160.5,-360 1160.5,-396"/>
<text text-anchor="middle" x="1124" y="-374.3" font-family="Times,serif" font-size="14.00">string.h</text>
</a>
</g>
</g>
<!-- 18&#45;&gt;20 -->
<g id="edge49" class="edge">
<title>18&#45;&gt;20</title>
<g id="a_edge49"><a xlink:title="include">
<path fill="none" stroke="#1414ce" d="M954.59,-438.37C984.44,-428.56 1030.05,-413.35 1077.66,-396.43"/>
<polygon fill="#1414ce" stroke="#1414ce" points="1078.96,-399.68 1087.2,-393.02 1076.61,-393.09 1078.96,-399.68"/>
</a>
</g>
</g>
<!-- 18&#45;&gt;9 -->
<g id="edge53" class="edge">
<title>18&#45;&gt;9</title>
<g id="a_edge53"><a xlink:title="include">
<path fill="none" stroke="#1414ce" d="M889.41,-443.39C861.36,-436.84 821.9,-423.23 799,-396 746.06,-333.05 788.17,-291.7 756,-216 740.22,-178.88 713.83,-140.42 695.7,-116.13"/>
<polygon fill="#1414ce" stroke="#1414ce" points="698.49,-114.02 689.66,-108.16 692.91,-118.25 698.49,-114.02"/>
</a>
</g>
</g>
<!-- 18&#45;&gt;16 -->
<g id="edge47" class="edge">
<title>18&#45;&gt;16</title>
<g id="a_edge47"><a xlink:title="include">
<path fill="none" stroke="#1414ce" d="M928.03,-431.89C936.07,-408.07 949.89,-363.4 955,-324 964.62,-249.86 952.08,-161.66 944.32,-118.1"/>
<polygon fill="#1414ce" stroke="#1414ce" points="947.71,-117.23 942.46,-108.03 940.83,-118.49 947.71,-117.23"/>
</a>
</g>
</g>
<!-- 8&#45;&gt;9 -->
<g id="edge54" class="edge">
<title>8&#45;&gt;9</title>
<g id="a_edge54"><a xlink:title="include">
<path fill="none" stroke="#1414ce" d="M833.86,-147.67C805.42,-137.46 765.68,-123.19 733.19,-111.53"/>
<polygon fill="#1414ce" stroke="#1414ce" points="733.96,-108.09 723.36,-108 731.59,-114.68 733.96,-108.09"/>
</a>
</g>
</g>
<!-- 31&#45;&gt;18 -->
<g id="edge55" class="edge">
<title>31&#45;&gt;18</title>
<g id="a_edge55"><a xlink:title="include">
<path fill="none" stroke="#1414ce" d="M832.28,-575.54C840.53,-565.31 851.03,-552.06 860,-540 875.5,-519.15 892.3,-494.93 904.5,-477.02"/>
<polygon fill="#1414ce" stroke="#1414ce" points="907.71,-478.52 910.42,-468.28 901.91,-474.59 907.71,-478.52"/>
</a>
</g>
</g>
<!-- 11 -->
<g id="node20" class="node">
<title>11</title>
<g id="a_node20"><a xlink:title="limits.h">
<polygon fill="#ffffff" stroke="black" points="613.5,-36 542.5,-36 542.5,0 613.5,0 613.5,-36"/>
<text text-anchor="middle" x="578" y="-14.3" font-family="Times,serif" font-size="14.00">limits.h</text>
</a>
</g>
</g>
<!-- 6&#45;&gt;7 -->
<g id="edge56" class="edge">
<title>6&#45;&gt;7</title>
<g id="a_edge56"><a xlink:title="include">
<path fill="none" stroke="#1414ce" d="M786.84,-503.67C757.57,-454.65 668.77,-312.31 570,-216 530.27,-177.26 514.06,-174.94 468,-144 452.84,-133.82 435.88,-122.9 421.26,-113.64"/>
<polygon fill="#1414ce" stroke="#1414ce" points="422.82,-110.49 412.5,-108.11 419.08,-116.41 422.82,-110.49"/>
</a>
</g>
</g>
<!-- 6&#45;&gt;4 -->
<g id="edge57" class="edge">
<title>6&#45;&gt;4</title>
<g id="a_edge57"><a xlink:title="include">
<path fill="none" stroke="#1414ce" d="M851.74,-504.76C893.73,-492.31 950.91,-475.35 989.74,-463.83"/>
<polygon fill="#1414ce" stroke="#1414ce" points="991.1,-467.08 999.69,-460.88 989.11,-460.37 991.1,-467.08"/>
</a>
</g>
</g>
<!-- 9&#45;&gt;10 -->
<g id="edge58" class="edge">
<title>9&#45;&gt;10</title>
<g id="a_edge58"><a xlink:title="include">
<path fill="none" stroke="#1414ce" d="M700.46,-71.88C713.3,-62.89 729.2,-51.76 743.09,-42.03"/>
<polygon fill="#1414ce" stroke="#1414ce" points="745.26,-44.79 751.44,-36.19 741.24,-39.06 745.26,-44.79"/>
</a>
</g>
</g>
<!-- 9&#45;&gt;3 -->
<g id="edge61" class="edge">
<title>9&#45;&gt;3</title>
<g id="a_edge61"><a xlink:title="include">
<path fill="none" stroke="#1414ce" d="M738.59,-75.08C743.47,-74.02 748.31,-72.99 753,-72 829.12,-55.96 917.83,-38.38 970.6,-28.04"/>
<polygon fill="#1414ce" stroke="#1414ce" points="971.52,-31.42 980.66,-26.07 970.17,-24.55 971.52,-31.42"/>
</a>
</g>
</g>
<!-- 9&#45;&gt;11 -->
<g id="edge59" class="edge">
<title>9&#45;&gt;11</title>
<g id="a_edge59"><a xlink:title="include">
<path fill="none" stroke="#1414ce" d="M652.03,-71.88C639.45,-62.89 623.87,-51.76 610.25,-42.03"/>
<polygon fill="#1414ce" stroke="#1414ce" points="612.24,-39.15 602.07,-36.19 608.17,-44.85 612.24,-39.15"/>
</a>
</g>
</g>
<!-- 12 -->
<g id="node33" class="node">
<title>12</title>
<g id="a_node33"><a xlink:title="inttypes.h">
<polygon fill="#ffffff" stroke="black" points="720.5,-36 631.5,-36 631.5,0 720.5,0 720.5,-36"/>
<text text-anchor="middle" x="676" y="-14.3" font-family="Times,serif" font-size="14.00">inttypes.h</text>
</a>
</g>
</g>
<!-- 9&#45;&gt;12 -->
<g id="edge60" class="edge">
<title>9&#45;&gt;12</title>
<g id="a_edge60"><a xlink:title="include">
<path fill="none" stroke="#1414ce" d="M676,-71.7C676,-63.98 676,-54.71 676,-46.11"/>
<polygon fill="#1414ce" stroke="#1414ce" points="679.5,-46.1 676,-36.1 672.5,-46.1 679.5,-46.1"/>
</a>
</g>
</g>
<!-- 2&#45;&gt;4 -->
<g id="edge63" class="edge">
<title>2&#45;&gt;4</title>
<g id="a_edge63"><a xlink:title="include">
<path fill="none" stroke="#1414ce" d="M550.87,-575.89C580.87,-566.03 618.77,-553.03 652,-540 688.67,-525.61 695.21,-515.14 733,-504 832.24,-474.74 861.53,-488.23 963,-468 971.73,-466.26 981.02,-464.17 989.89,-462.06"/>
<polygon fill="#1414ce" stroke="#1414ce" points="990.76,-465.45 999.66,-459.7 989.11,-458.65 990.76,-465.45"/>
</a>
</g>
</g>
<!-- 2&#45;&gt;15 -->
<g id="edge70" class="edge">
<title>2&#45;&gt;15</title>
<g id="a_edge70"><a xlink:title="include">
<path fill="none" stroke="#1414ce" d="M502.46,-575.71C510.35,-549.18 524,-496.67 524,-451 524,-451 524,-451 524,-377 524,-336.97 521.99,-290.63 520.52,-262.07"/>
<polygon fill="#1414ce" stroke="#1414ce" points="524.01,-261.84 519.99,-252.04 517.02,-262.21 524.01,-261.84"/>
</a>
</g>
</g>
<!-- 2&#45;&gt;14 -->
<g id="edge67" class="edge">
<title>2&#45;&gt;14</title>
<g id="a_edge67"><a xlink:title="include">
<path fill="none" stroke="#1414ce" d="M469.22,-575.93C456.44,-566.75 442.13,-554.37 433,-540 411.09,-505.52 410,-491.86 410,-451 410,-451 410,-451 410,-305 410,-264.74 418.74,-218.81 425.21,-190.36"/>
<polygon fill="#1414ce" stroke="#1414ce" points="428.68,-190.89 427.55,-180.35 421.86,-189.29 428.68,-190.89"/>
</a>
</g>
</g>
<!-- 2&#45;&gt;3 -->
<g id="edge62" class="edge">
<title>2&#45;&gt;3</title>
<g id="a_edge62"><a xlink:title="include">
<path fill="none" stroke="#1414ce" d="M508.03,-575.99C547.81,-515.1 688.75,-303.11 825,-144 854.44,-109.63 859.67,-97.58 897,-72 919.77,-56.4 947.87,-43.69 971.16,-34.64"/>
<polygon fill="#1414ce" stroke="#1414ce" points="972.7,-37.79 980.81,-30.98 970.22,-31.25 972.7,-37.79"/>
</a>
</g>
</g>
<!-- 2&#45;&gt;18 -->
<g id="edge71" class="edge">
<title>2&#45;&gt;18</title>
<g id="a_edge71"><a xlink:title="include">
<path fill="none" stroke="#1414ce" d="M540.64,-575.91C563.15,-566.44 590.68,-553.8 614,-540 636.95,-526.42 637.68,-514.93 662,-504 734.09,-471.61 826.33,-458.83 879.33,-453.92"/>
<polygon fill="#1414ce" stroke="#1414ce" points="879.73,-457.4 889.39,-453.04 879.12,-450.43 879.73,-457.4"/>
</a>
</g>
</g>
<!-- 2&#45;&gt;8 -->
<g id="edge65" class="edge">
<title>2&#45;&gt;8</title>
<g id="a_edge65"><a xlink:title="include">
<path fill="none" stroke="#1414ce" d="M527.14,-575.91C542.61,-566.4 561.24,-553.72 576,-540 640.2,-480.33 798.87,-263.06 852.76,-188.4"/>
<polygon fill="#1414ce" stroke="#1414ce" points="855.79,-190.18 858.79,-180.02 850.11,-186.08 855.79,-190.18"/>
</a>
</g>
</g>
<!-- 2&#45;&gt;6 -->
<g id="edge64" class="edge">
<title>2&#45;&gt;6</title>
<g id="a_edge64"><a xlink:title="include">
<path fill="none" stroke="#1414ce" d="M560.8,-578.65C607.22,-568.14 671.56,-553.43 728,-540 729.46,-539.65 730.94,-539.3 732.43,-538.94"/>
<polygon fill="#1414ce" stroke="#1414ce" points="733.51,-542.28 742.41,-536.54 731.86,-535.48 733.51,-542.28"/>
</a>
</g>
</g>
<!-- 2&#45;&gt;17 -->
<g id="edge69" class="edge">
<title>2&#45;&gt;17</title>
<g id="a_edge69"><a xlink:title="include">
<path fill="none" stroke="#1414ce" d="M433.42,-576.87C411.72,-568.76 388.73,-556.94 372,-540 274.78,-441.59 280.73,-387.72 254,-252 249.96,-231.51 253.18,-208.05 257.15,-190.37"/>
<polygon fill="#1414ce" stroke="#1414ce" points="260.67,-190.72 259.67,-180.18 253.87,-189.05 260.67,-190.72"/>
</a>
</g>
</g>
<!-- 2&#45;&gt;27 -->
<g id="edge72" class="edge">
<title>2&#45;&gt;27</title>
<g id="a_edge72"><a xlink:title="include">
<path fill="none" stroke="#1414ce" d="M433.43,-590.77C344.05,-583.85 192,-556.57 192,-451 192,-451 192,-451 192,-377 192,-335.56 176.36,-289.67 164.89,-261.58"/>
<polygon fill="#1414ce" stroke="#1414ce" points="168,-259.93 160.89,-252.07 161.55,-262.65 168,-259.93"/>
</a>
</g>
</g>
<!-- 2&#45;&gt;26 -->
<g id="edge68" class="edge">
<title>2&#45;&gt;26</title>
<g id="a_edge68"><a xlink:title="include">
<path fill="none" stroke="#1414ce" d="M445.56,-575.89C427.59,-567.61 408.75,-555.92 396,-540 370.38,-508.03 372,-491.97 372,-451 372,-451 372,-451 372,-377 372,-335.97 358.77,-289.97 349.06,-261.74"/>
<polygon fill="#1414ce" stroke="#1414ce" points="352.32,-260.45 345.68,-252.19 345.72,-262.78 352.32,-260.45"/>
</a>
</g>
</g>
<!-- 13 -->
<g id="node32" class="node">
<title>13</title>
<g id="a_node32"><a xlink:title="ets.h">
<polygon fill="#ffffff" stroke="black" points="496,-540 442,-540 442,-504 496,-504 496,-540"/>
<text text-anchor="middle" x="469" y="-518.3" font-family="Times,serif" font-size="14.00">ets.h</text>
</a>
</g>
</g>
<!-- 2&#45;&gt;13 -->
<g id="edge66" class="edge">
<title>2&#45;&gt;13</title>
<g id="a_edge66"><a xlink:title="include">
<path fill="none" stroke="#1414ce" d="M490.08,-575.7C486.93,-567.81 483.12,-558.3 479.62,-549.55"/>
<polygon fill="#1414ce" stroke="#1414ce" points="482.81,-548.09 475.84,-540.1 476.31,-550.69 482.81,-548.09"/>
</a>
</g>
</g>
<!-- 17&#45;&gt;7 -->
<g id="edge73" class="edge">
<title>17&#45;&gt;7</title>
<g id="a_edge73"><a xlink:title="include">
<path fill="none" stroke="#1414ce" d="M294.36,-143.88C310.05,-134.72 329.56,-123.34 346.45,-113.48"/>
<polygon fill="#1414ce" stroke="#1414ce" points="348.66,-116.25 355.53,-108.19 345.13,-110.21 348.66,-116.25"/>
</a>
</g>
</g>
<!-- 29&#45;&gt;4 -->
<g id="edge74" class="edge">
<title>29&#45;&gt;4</title>
<g id="a_edge74"><a xlink:title="include">
<path fill="none" stroke="#1414ce" d="M1056.74,-575.87C1052.14,-551.67 1043.69,-507.21 1038.21,-478.39"/>
<polygon fill="#1414ce" stroke="#1414ce" points="1041.57,-477.36 1036.27,-468.19 1034.7,-478.67 1041.57,-477.36"/>
</a>
</g>
</g>
<!-- 27&#45;&gt;7 -->
<g id="edge75" class="edge">
<title>27&#45;&gt;7</title>
<g id="a_edge75"><a xlink:title="include">
<path fill="none" stroke="#1414ce" d="M162.92,-215.78C175.28,-195.8 198.18,-163.15 226,-144 258.26,-121.8 300.54,-108.29 333.39,-100.48"/>
<polygon fill="#1414ce" stroke="#1414ce" points="334.29,-103.86 343.26,-98.23 332.74,-97.04 334.29,-103.86"/>
</a>
</g>
</g>
<!-- 27&#45;&gt;14 -->
<g id="edge77" class="edge">
<title>27&#45;&gt;14</title>
<g id="a_edge77"><a xlink:title="include">
<path fill="none" stroke="#1414ce" d="M202.24,-220.65C257.3,-206.83 345.23,-184.77 394.83,-172.33"/>
<polygon fill="#1414ce" stroke="#1414ce" points="395.96,-175.65 404.8,-169.82 394.25,-168.86 395.96,-175.65"/>
</a>
</g>
</g>
<!-- 27&#45;&gt;3 -->
<g id="edge76" class="edge">
<title>27&#45;&gt;3</title>
<g id="a_edge76"><a xlink:title="include">
<path fill="none" stroke="#1414ce" d="M155.42,-215.95C159,-196.43 167.4,-164.51 186,-144 235.14,-89.81 263.37,-91.03 334,-72 543.99,-15.42 605.22,-53.44 822,-36 872.84,-31.91 931.09,-26.77 970.59,-23.22"/>
<polygon fill="#1414ce" stroke="#1414ce" points="971.07,-26.69 980.71,-22.31 970.44,-19.72 971.07,-26.69"/>
</a>
</g>
</g>
<!-- 26&#45;&gt;7 -->
<g id="edge78" class="edge">
<title>26&#45;&gt;7</title>
<g id="a_edge78"><a xlink:title="include">
<path fill="none" stroke="#1414ce" d="M342.95,-215.74C347.25,-197.66 354.64,-168.54 363,-144 365.96,-135.32 369.63,-126.04 373.12,-117.7"/>
<polygon fill="#1414ce" stroke="#1414ce" points="376.37,-119.02 377.08,-108.45 369.93,-116.26 376.37,-119.02"/>
</a>
</g>
</g>
<!-- 26&#45;&gt;22 -->
<g id="edge81" class="edge">
<title>26&#45;&gt;22</title>
<g id="a_edge81"><a xlink:title="include">
<path fill="none" stroke="#1414ce" d="M382.18,-226.69C406.97,-223.22 438.69,-219.01 467,-216 666.51,-194.79 717.63,-202.56 917,-180 941.79,-177.19 969.44,-173.18 991.52,-169.75"/>
<polygon fill="#1414ce" stroke="#1414ce" points="992.23,-173.19 1001.56,-168.18 991.14,-166.27 992.23,-173.19"/>
</a>
</g>
</g>
<!-- 26&#45;&gt;14 -->
<g id="edge79" class="edge">
<title>26&#45;&gt;14</title>
<g id="a_edge79"><a xlink:title="include">
<path fill="none" stroke="#1414ce" d="M361.99,-215.7C373.81,-206.8 388.39,-195.82 401.18,-186.2"/>
<polygon fill="#1414ce" stroke="#1414ce" points="403.39,-188.91 409.28,-180.1 399.18,-183.32 403.39,-188.91"/>
</a>
</g>
</g>
<!-- 26&#45;&gt;9 -->
<g id="edge80" class="edge">
<title>26&#45;&gt;9</title>
<g id="a_edge80"><a xlink:title="include">
<path fill="none" stroke="#1414ce" d="M345.08,-215.89C353.3,-195.37 370,-161.56 396,-144 429.07,-121.66 531.64,-106.43 603,-98.22"/>
<polygon fill="#1414ce" stroke="#1414ce" points="603.74,-101.66 613.28,-97.06 602.96,-94.7 603.74,-101.66"/>
</a>
</g>
</g>
<!-- 13&#45;&gt;15 -->
<g id="edge83" class="edge">
<title>13&#45;&gt;15</title>
<g id="a_edge83"><a xlink:title="include">
<path fill="none" stroke="#1414ce" d="M471.98,-503.97C480.33,-456.19 504.03,-320.62 514.23,-262.27"/>
<polygon fill="#1414ce" stroke="#1414ce" points="517.7,-262.76 515.97,-252.31 510.8,-261.55 517.7,-262.76"/>
</a>
</g>
</g>
<!-- 13&#45;&gt;14 -->
<g id="edge82" class="edge">
<title>13&#45;&gt;14</title>
<g id="a_edge82"><a xlink:title="include">
<path fill="none" stroke="#1414ce" d="M464.75,-503.63C458.61,-476.99 448,-424.36 448,-379 448,-379 448,-379 448,-305 448,-264.96 441.64,-218.97 436.94,-190.45"/>
<polygon fill="#1414ce" stroke="#1414ce" points="440.36,-189.69 435.24,-180.42 433.46,-190.86 440.36,-189.69"/>
</a>
</g>
</g>
<!-- 13&#45;&gt;18 -->
<g id="edge84" class="edge">
<title>13&#45;&gt;18</title>
<g id="a_edge84"><a xlink:title="include">
<path fill="none" stroke="#1414ce" d="M496.32,-516.78C572.39,-505.02 787.09,-471.85 879.18,-457.62"/>
<polygon fill="#1414ce" stroke="#1414ce" points="879.92,-461.04 889.27,-456.06 878.85,-454.13 879.92,-461.04"/>
</a>
</g>
</g>
</g>
</svg>
