<?xml version="1.0" encoding="UTF-8" standalone="no"?>
<!DOCTYPE svg PUBLIC "-//W3C//DTD SVG 1.1//EN"
 "http://www.w3.org/Graphics/SVG/1.1/DTD/svg11.dtd">
<!-- Generated by graphviz version 2.43.0 (0)
 -->
<!-- Title: %3 Pages: 1 -->
<svg width="5010pt" height="260pt"
 viewBox="0.00 0.00 5010.19 260.00" xmlns="http://www.w3.org/2000/svg" xmlns:xlink="http://www.w3.org/1999/xlink">
<g id="graph0" class="graph" transform="scale(1 1) rotate(0) translate(4 256)">
<title>%3</title>
<polygon fill="transparent" stroke="transparent" points="-4,4 -4,-256 5006.19,-256 5006.19,4 -4,4"/>
<!-- 5 -->
<g id="node1" class="node">
<title>5</title>
<g id="a_node1"><a xlink:title="/__w/AtomVM/AtomVM/src/libAtomVM/nifs.c">
<polygon fill="#ffffff" stroke="black" points="2219,-36 1887,-36 1887,0 2219,0 2219,-36"/>
<text text-anchor="middle" x="2053" y="-14.3" font-family="Times,serif" font-size="14.00">/__w/AtomVM/AtomVM/src/libAtomVM/nifs.c</text>
</a>
</g>
</g>
<!-- 16 -->
<g id="node2" class="node">
<title>16</title>
<g id="a_node2"><a xlink:title="/__w/AtomVM/AtomVM/src/libAtomVM/nifs.h">
<polygon fill="#ffffff" stroke="black" points="3722.5,-180 3389.5,-180 3389.5,-144 3722.5,-144 3722.5,-180"/>
<text text-anchor="middle" x="3556" y="-158.3" font-family="Times,serif" font-size="14.00">/__w/AtomVM/AtomVM/src/libAtomVM/nifs.h</text>
</a>
</g>
</g>
<!-- 16&#45;&gt;5 -->
<g id="edge2" class="edge">
<title>16&#45;&gt;5</title>
<g id="a_edge2"><a xlink:title="include">
<path fill="none" stroke="#1414ce" d="M3379.01,-158.94C3109.23,-154.73 2607.92,-142.42 2432,-108 2384.82,-98.77 2376.41,-84.55 2330,-72 2275.41,-57.23 2213.69,-45 2162.39,-36.03"/>
<polygon fill="#1414ce" stroke="#1414ce" points="3379.24,-162.44 3389.3,-159.1 3379.35,-155.44 3379.24,-162.44"/>
</a>
</g>
</g>
<!-- 17 -->
<g id="node6" class="node">
<title>17</title>
<g id="a_node6"><a xlink:title="/__w/AtomVM/AtomVM/src/libAtomVM/otp_crypto.c">
<polygon fill="#ffffff" stroke="black" points="4624.5,-36 4243.5,-36 4243.5,0 4624.5,0 4624.5,-36"/>
<text text-anchor="middle" x="4434" y="-14.3" font-family="Times,serif" font-size="14.00">/__w/AtomVM/AtomVM/src/libAtomVM/otp_crypto.c</text>
</a>
</g>
</g>
<!-- 16&#45;&gt;17 -->
<g id="edge3" class="edge">
<title>16&#45;&gt;17</title>
<g id="a_edge3"><a xlink:title="include">
<path fill="none" stroke="#1414ce" d="M3732.72,-158.92C3888.64,-154.74 4102.77,-142.63 4180,-108 4201.23,-98.48 4197.58,-83.14 4218,-72 4248.42,-55.4 4284.06,-43.93 4317.52,-36.02"/>
<polygon fill="#1414ce" stroke="#1414ce" points="3732.44,-155.42 3722.53,-159.18 3732.62,-162.42 3732.44,-155.42"/>
</a>
</g>
</g>
<!-- 18 -->
<g id="node8" class="node">
<title>18</title>
<g id="a_node8"><a xlink:title="/__w/AtomVM/AtomVM/src/libAtomVM/otp_crypto.h">
<polygon fill="#ffffff" stroke="black" points="4609.5,-108 4226.5,-108 4226.5,-72 4609.5,-72 4609.5,-108"/>
<text text-anchor="middle" x="4418" y="-86.3" font-family="Times,serif" font-size="14.00">/__w/AtomVM/AtomVM/src/libAtomVM/otp_crypto.h</text>
</a>
</g>
</g>
<!-- 16&#45;&gt;18 -->
<g id="edge4" class="edge">
<title>16&#45;&gt;18</title>
<g id="a_edge4"><a xlink:title="include">
<path fill="none" stroke="#1414ce" d="M3732.98,-146.83C3865.22,-136.22 4050.43,-121.3 4213,-108 4217.45,-107.64 4221.95,-107.27 4226.49,-106.89"/>
<polygon fill="#1414ce" stroke="#1414ce" points="3732.44,-143.36 3722.75,-147.65 3733,-150.34 3732.44,-143.36"/>
</a>
</g>
</g>
<!-- 24 -->
<g id="node9" class="node">
<title>24</title>
<g id="a_node9"><a xlink:title="/__w/AtomVM/AtomVM/src/libAtomVM/portnifloader.h">
<polygon fill="#ffffff" stroke="black" points="3755,-108 3357,-108 3357,-72 3755,-72 3755,-108"/>
<text text-anchor="middle" x="3556" y="-86.3" font-family="Times,serif" font-size="14.00">/__w/AtomVM/AtomVM/src/libAtomVM/portnifloader.h</text>
</a>
</g>
</g>
<!-- 16&#45;&gt;24 -->
<g id="edge11" class="edge">
<title>16&#45;&gt;24</title>
<g id="a_edge11"><a xlink:title="include">
<path fill="none" stroke="#1414ce" d="M3556,-133.67C3556,-125.05 3556,-115.79 3556,-108.1"/>
<polygon fill="#1414ce" stroke="#1414ce" points="3552.5,-133.7 3556,-143.7 3559.5,-133.7 3552.5,-133.7"/>
</a>
</g>
</g>
<!-- 4 -->
<g id="node11" class="node">
<title>4</title>
<g id="a_node11"><a xlink:title="/__w/AtomVM/AtomVM/src/libAtomVM/module.c">
<polygon fill="#ffffff" stroke="black" points="1098,-36 740,-36 740,0 1098,0 1098,-36"/>
<text text-anchor="middle" x="919" y="-14.3" font-family="Times,serif" font-size="14.00">/__w/AtomVM/AtomVM/src/libAtomVM/module.c</text>
</a>
</g>
</g>
<!-- 16&#45;&gt;4 -->
<g id="edge1" class="edge">
<title>16&#45;&gt;4</title>
<g id="a_edge1"><a xlink:title="include">
<path fill="none" stroke="#1414ce" d="M3378.98,-159.65C2900.31,-155.56 1610.47,-141.48 1525,-108 1502.42,-99.16 1506.27,-81.6 1484,-72 1479.5,-70.06 1261.96,-50.02 1098.17,-35.16"/>
<polygon fill="#1414ce" stroke="#1414ce" points="3379.06,-163.15 3389.09,-159.73 3379.12,-156.15 3379.06,-163.15"/>
</a>
</g>
</g>
<!-- 19 -->
<g id="node13" class="node">
<title>19</title>
<g id="a_node13"><a xlink:title="/__w/AtomVM/AtomVM/src/libAtomVM/otp_net.c">
<polygon fill="#ffffff" stroke="black" points="4225.5,-36 3866.5,-36 3866.5,0 4225.5,0 4225.5,-36"/>
<text text-anchor="middle" x="4046" y="-14.3" font-family="Times,serif" font-size="14.00">/__w/AtomVM/AtomVM/src/libAtomVM/otp_net.c</text>
</a>
</g>
</g>
<!-- 16&#45;&gt;19 -->
<g id="edge5" class="edge">
<title>16&#45;&gt;19</title>
<g id="a_edge5"><a xlink:title="include">
<path fill="none" stroke="#1414ce" d="M3675.46,-141.57C3705.52,-133.76 3736.91,-122.94 3764,-108 3784.37,-96.77 3781.43,-82.87 3802,-72 3833.62,-55.29 3870.2,-43.85 3905.26,-36.01"/>
<polygon fill="#1414ce" stroke="#1414ce" points="3674.61,-138.17 3665.76,-144 3676.31,-144.96 3674.61,-138.17"/>
</a>
</g>
</g>
<!-- 20 -->
<g id="node14" class="node">
<title>20</title>
<g id="a_node14"><a xlink:title="/__w/AtomVM/AtomVM/src/libAtomVM/otp_net.h">
<polygon fill="#ffffff" stroke="black" points="4171,-108 3811,-108 3811,-72 4171,-72 4171,-108"/>
<text text-anchor="middle" x="3991" y="-86.3" font-family="Times,serif" font-size="14.00">/__w/AtomVM/AtomVM/src/libAtomVM/otp_net.h</text>
</a>
</g>
</g>
<!-- 16&#45;&gt;20 -->
<g id="edge6" class="edge">
<title>16&#45;&gt;20</title>
<g id="a_edge6"><a xlink:title="include">
<path fill="none" stroke="#1414ce" d="M3671.92,-142.35C3738.14,-131.69 3820.56,-118.43 3885.05,-108.05"/>
<polygon fill="#1414ce" stroke="#1414ce" points="3671.17,-138.92 3661.86,-143.97 3672.29,-145.83 3671.17,-138.92"/>
</a>
</g>
</g>
<!-- 13 -->
<g id="node20" class="node">
<title>13</title>
<g id="a_node20"><a xlink:title="/__w/AtomVM/AtomVM/src/libAtomVM/otp_socket.c">
<polygon fill="#ffffff" stroke="black" points="3038.5,-36 2657.5,-36 2657.5,0 3038.5,0 3038.5,-36"/>
<text text-anchor="middle" x="2848" y="-14.3" font-family="Times,serif" font-size="14.00">/__w/AtomVM/AtomVM/src/libAtomVM/otp_socket.c</text>
</a>
</g>
</g>
<!-- 16&#45;&gt;13 -->
<g id="edge7" class="edge">
<title>16&#45;&gt;13</title>
<g id="a_edge7"><a xlink:title="include">
<path fill="none" stroke="#1414ce" d="M3378.99,-154.2C3201.79,-146.16 2949.83,-130.91 2910,-108 2881.93,-91.85 2863.59,-57.22 2854.58,-36.24"/>
<polygon fill="#1414ce" stroke="#1414ce" points="3379.07,-157.71 3389.22,-154.66 3379.39,-150.72 3379.07,-157.71"/>
</a>
</g>
</g>
<!-- 21 -->
<g id="node21" class="node">
<title>21</title>
<g id="a_node21"><a xlink:title="/__w/AtomVM/AtomVM/src/libAtomVM/otp_socket.h">
<polygon fill="#ffffff" stroke="black" points="3301.5,-108 2918.5,-108 2918.5,-72 3301.5,-72 3301.5,-108"/>
<text text-anchor="middle" x="3110" y="-86.3" font-family="Times,serif" font-size="14.00">/__w/AtomVM/AtomVM/src/libAtomVM/otp_socket.h</text>
</a>
</g>
</g>
<!-- 16&#45;&gt;21 -->
<g id="edge8" class="edge">
<title>16&#45;&gt;21</title>
<g id="a_edge8"><a xlink:title="include">
<path fill="none" stroke="#1414ce" d="M3437.56,-142.41C3369.6,-131.74 3284.88,-118.45 3218.63,-108.05"/>
<polygon fill="#1414ce" stroke="#1414ce" points="3437.04,-145.87 3447.47,-143.97 3438.13,-138.96 3437.04,-145.87"/>
</a>
</g>
</g>
<!-- 22 -->
<g id="node24" class="node">
<title>22</title>
<g id="a_node24"><a xlink:title="/__w/AtomVM/AtomVM/src/libAtomVM/otp_ssl.c">
<polygon fill="#ffffff" stroke="black" points="4997.5,-36 4642.5,-36 4642.5,0 4997.5,0 4997.5,-36"/>
<text text-anchor="middle" x="4820" y="-14.3" font-family="Times,serif" font-size="14.00">/__w/AtomVM/AtomVM/src/libAtomVM/otp_ssl.c</text>
</a>
</g>
</g>
<!-- 16&#45;&gt;22 -->
<g id="edge9" class="edge">
<title>16&#45;&gt;22</title>
<g id="a_edge9"><a xlink:title="include">
<path fill="none" stroke="#1414ce" d="M3732.87,-160.93C4107.21,-159.91 4948.99,-152.63 4992,-108 5024.96,-73.81 4969.18,-50.25 4912.56,-36"/>
<polygon fill="#1414ce" stroke="#1414ce" points="3732.74,-157.43 3722.75,-160.96 3732.76,-164.43 3732.74,-157.43"/>
</a>
</g>
</g>
<!-- 23 -->
<g id="node25" class="node">
<title>23</title>
<g id="a_node25"><a xlink:title="/__w/AtomVM/AtomVM/src/libAtomVM/otp_ssl.h">
<polygon fill="#ffffff" stroke="black" points="4983,-108 4627,-108 4627,-72 4983,-72 4983,-108"/>
<text text-anchor="middle" x="4805" y="-86.3" font-family="Times,serif" font-size="14.00">/__w/AtomVM/AtomVM/src/libAtomVM/otp_ssl.h</text>
</a>
</g>
</g>
<!-- 16&#45;&gt;23 -->
<g id="edge10" class="edge">
<title>16&#45;&gt;23</title>
<g id="a_edge10"><a xlink:title="include">
<path fill="none" stroke="#1414ce" d="M3733,-154.41C3944.09,-146.04 4307.53,-129.99 4619,-108 4621.59,-107.82 4624.2,-107.63 4626.82,-107.44"/>
<polygon fill="#1414ce" stroke="#1414ce" points="3732.61,-150.93 3722.75,-154.82 3732.88,-157.92 3732.61,-150.93"/>
</a>
</g>
</g>
<!-- 26 -->
<g id="node26" class="node">
<title>26</title>
<g id="a_node26"><a xlink:title="/__w/AtomVM/AtomVM/src/libAtomVM/posix_nifs.c">
<polygon fill="#ffffff" stroke="black" points="3433,-36 3057,-36 3057,0 3433,0 3433,-36"/>
<text text-anchor="middle" x="3245" y="-14.3" font-family="Times,serif" font-size="14.00">/__w/AtomVM/AtomVM/src/libAtomVM/posix_nifs.c</text>
</a>
</g>
</g>
<!-- 16&#45;&gt;26 -->
<g id="edge12" class="edge">
<title>16&#45;&gt;26</title>
<g id="a_edge12"><a xlink:title="include">
<path fill="none" stroke="#1414ce" d="M3435.04,-141.46C3405.4,-133.67 3374.58,-122.89 3348,-108 3327.98,-96.79 3328.19,-87.2 3311,-72 3296.91,-59.54 3280.41,-46.29 3267.43,-36.15"/>
<polygon fill="#1414ce" stroke="#1414ce" points="3434.48,-144.93 3445.03,-143.98 3436.2,-138.14 3434.48,-144.93"/>
</a>
</g>
</g>
<!-- 11 -->
<g id="node3" class="node">
<title>11</title>
<g id="a_node3"><a xlink:title="/__w/AtomVM/AtomVM/src/libAtomVM/context.c">
<polygon fill="#ffffff" stroke="black" points="1475.5,-36 1116.5,-36 1116.5,0 1475.5,0 1475.5,-36"/>
<text text-anchor="middle" x="1296" y="-14.3" font-family="Times,serif" font-size="14.00">/__w/AtomVM/AtomVM/src/libAtomVM/context.c</text>
</a>
</g>
</g>
<!-- 3 -->
<g id="node4" class="node">
<title>3</title>
<g id="a_node4"><a xlink:title="/__w/AtomVM/AtomVM/src/libAtomVM/bif.c">
<polygon fill="#ffffff" stroke="black" points="721.5,-36 398.5,-36 398.5,0 721.5,0 721.5,-36"/>
<text text-anchor="middle" x="560" y="-14.3" font-family="Times,serif" font-size="14.00">/__w/AtomVM/AtomVM/src/libAtomVM/bif.c</text>
</a>
</g>
</g>
<!-- 2 -->
<g id="node5" class="node">
<title>2</title>
<g id="a_node5"><a xlink:title="/__w/AtomVM/AtomVM/src/libAtomVM/bif.h">
<polygon fill="#ffffff" stroke="black" points="1081.5,-108 756.5,-108 756.5,-72 1081.5,-72 1081.5,-108"/>
<text text-anchor="middle" x="919" y="-86.3" font-family="Times,serif" font-size="14.00">/__w/AtomVM/AtomVM/src/libAtomVM/bif.h</text>
</a>
</g>
</g>
<!-- 2&#45;&gt;5 -->
<g id="edge15" class="edge">
<title>2&#45;&gt;5</title>
<g id="a_edge15"><a xlink:title="include">
<path fill="none" stroke="#1414ce" d="M1092.1,-71.95C1441.94,-47.04 1532.07,-60.7 1878,-36 1880.89,-35.79 1883.81,-35.58 1886.75,-35.36"/>
<polygon fill="#1414ce" stroke="#1414ce" points="1091.67,-68.47 1081.94,-72.67 1092.17,-75.45 1091.67,-68.47"/>
</a>
</g>
</g>
<!-- 2&#45;&gt;3 -->
<g id="edge13" class="edge">
<title>2&#45;&gt;3</title>
<g id="a_edge13"><a xlink:title="include">
<path fill="none" stroke="#1414ce" d="M821.64,-70.02C767.29,-59.42 700.11,-46.32 647.44,-36.05"/>
<polygon fill="#1414ce" stroke="#1414ce" points="821.15,-73.49 831.64,-71.97 822.49,-66.62 821.15,-73.49"/>
</a>
</g>
</g>
<!-- 2&#45;&gt;4 -->
<g id="edge14" class="edge">
<title>2&#45;&gt;4</title>
<g id="a_edge14"><a xlink:title="include">
<path fill="none" stroke="#1414ce" d="M919,-61.67C919,-53.05 919,-43.79 919,-36.1"/>
<polygon fill="#1414ce" stroke="#1414ce" points="915.5,-61.7 919,-71.7 922.5,-61.7 915.5,-61.7"/>
</a>
</g>
</g>
<!-- 25 -->
<g id="node7" class="node">
<title>25</title>
<g id="a_node7"><a xlink:title="/__w/AtomVM/AtomVM/src/libAtomVM/portnifloader.c">
<polygon fill="#ffffff" stroke="black" points="3848.5,-36 3451.5,-36 3451.5,0 3848.5,0 3848.5,-36"/>
<text text-anchor="middle" x="3650" y="-14.3" font-family="Times,serif" font-size="14.00">/__w/AtomVM/AtomVM/src/libAtomVM/portnifloader.c</text>
</a>
</g>
</g>
<!-- 18&#45;&gt;17 -->
<g id="edge16" class="edge">
<title>18&#45;&gt;17</title>
<g id="a_edge16"><a xlink:title="include">
<path fill="none" stroke="#1414ce" d="M4424.25,-61.67C4426.22,-53.05 4428.33,-43.79 4430.09,-36.1"/>
<polygon fill="#1414ce" stroke="#1414ce" points="4420.77,-61.17 4421.96,-71.7 4427.6,-62.73 4420.77,-61.17"/>
</a>
</g>
</g>
<!-- 24&#45;&gt;25 -->
<g id="edge17" class="edge">
<title>24&#45;&gt;25</title>
<g id="a_edge17"><a xlink:title="include">
<path fill="none" stroke="#1414ce" d="M3587.44,-65.59C3600.39,-55.94 3615.12,-44.97 3627.03,-36.1"/>
<polygon fill="#1414ce" stroke="#1414ce" points="3585.17,-62.92 3579.24,-71.7 3589.35,-68.53 3585.17,-62.92"/>
</a>
</g>
</g>
<!-- 10 -->
<g id="node10" class="node">
<title>10</title>
<g id="a_node10"><a xlink:title="/__w/AtomVM/AtomVM/src/libAtomVM/sys.h">
<polygon fill="#ffffff" stroke="black" points="1864,-108 1534,-108 1534,-72 1864,-72 1864,-108"/>
<text text-anchor="middle" x="1699" y="-86.3" font-family="Times,serif" font-size="14.00">/__w/AtomVM/AtomVM/src/libAtomVM/sys.h</text>
</a>
</g>
</g>
<!-- 10&#45;&gt;5 -->
<g id="edge21" class="edge">
<title>10&#45;&gt;5</title>
<g id="a_edge21"><a xlink:title="include">
<path fill="none" stroke="#1414ce" d="M1795,-70.02C1848.6,-59.42 1914.84,-46.32 1966.78,-36.05"/>
<polygon fill="#1414ce" stroke="#1414ce" points="1794.28,-66.59 1785.15,-71.97 1795.63,-73.46 1794.28,-66.59"/>
</a>
</g>
</g>
<!-- 10&#45;&gt;11 -->
<g id="edge18" class="edge">
<title>10&#45;&gt;11</title>
<g id="a_edge18"><a xlink:title="include">
<path fill="none" stroke="#1414ce" d="M1590.85,-70.21C1529.63,-59.58 1453.65,-46.38 1394.16,-36.05"/>
<polygon fill="#1414ce" stroke="#1414ce" points="1590.48,-73.7 1600.93,-71.97 1591.68,-66.81 1590.48,-73.7"/>
</a>
</g>
</g>
<!-- 10&#45;&gt;4 -->
<g id="edge20" class="edge">
<title>10&#45;&gt;4</title>
<g id="a_edge20"><a xlink:title="include">
<path fill="none" stroke="#1414ce" d="M1523.39,-72.31C1522.26,-72.21 1521.13,-72.1 1520,-72 1336.95,-55.31 1291.09,-52.23 1108,-36 1104.72,-35.71 1101.4,-35.41 1098.07,-35.12"/>
<polygon fill="#1414ce" stroke="#1414ce" points="1523.41,-75.83 1533.69,-73.25 1524.05,-68.86 1523.41,-75.83"/>
</a>
</g>
</g>
<!-- 14 -->
<g id="node15" class="node">
<title>14</title>
<g id="a_node15"><a xlink:title="/__w/AtomVM/AtomVM/src/libAtomVM/resources.c">
<polygon fill="#ffffff" stroke="black" points="1868.5,-36 1493.5,-36 1493.5,0 1868.5,0 1868.5,-36"/>
<text text-anchor="middle" x="1681" y="-14.3" font-family="Times,serif" font-size="14.00">/__w/AtomVM/AtomVM/src/libAtomVM/resources.c</text>
</a>
</g>
</g>
<!-- 10&#45;&gt;14 -->
<g id="edge23" class="edge">
<title>10&#45;&gt;14</title>
<g id="a_edge23"><a xlink:title="include">
<path fill="none" stroke="#1414ce" d="M1692.04,-61.95C1689.81,-53.26 1687.4,-43.88 1685.4,-36.1"/>
<polygon fill="#1414ce" stroke="#1414ce" points="1688.67,-62.88 1694.55,-71.7 1695.45,-61.14 1688.67,-62.88"/>
</a>
</g>
</g>
<!-- 12 -->
<g id="node18" class="node">
<title>12</title>
<g id="a_node18"><a xlink:title="/__w/AtomVM/AtomVM/src/libAtomVM/globalcontext.c">
<polygon fill="#ffffff" stroke="black" points="2639,-36 2237,-36 2237,0 2639,0 2639,-36"/>
<text text-anchor="middle" x="2438" y="-14.3" font-family="Times,serif" font-size="14.00">/__w/AtomVM/AtomVM/src/libAtomVM/globalcontext.c</text>
</a>
</g>
</g>
<!-- 10&#45;&gt;12 -->
<g id="edge19" class="edge">
<title>10&#45;&gt;12</title>
<g id="a_edge19"><a xlink:title="include">
<path fill="none" stroke="#1414ce" d="M1874.42,-72.38C1990.24,-61.41 2141.59,-47.08 2258.27,-36.02"/>
<polygon fill="#1414ce" stroke="#1414ce" points="1874.01,-68.91 1864.39,-73.33 1874.67,-75.88 1874.01,-68.91"/>
</a>
</g>
</g>
<!-- 10&#45;&gt;13 -->
<g id="edge22" class="edge">
<title>10&#45;&gt;13</title>
<g id="a_edge22"><a xlink:title="include">
<path fill="none" stroke="#1414ce" d="M1874.18,-74.52C1886.64,-73.63 1899.01,-72.77 1911,-72 2238.27,-50.89 2320.79,-57.89 2648,-36 2651.13,-35.79 2654.29,-35.58 2657.46,-35.35"/>
<polygon fill="#1414ce" stroke="#1414ce" points="1873.89,-71.03 1864.17,-75.25 1874.4,-78.02 1873.89,-71.03"/>
</a>
</g>
</g>
<!-- 6 -->
<g id="node12" class="node">
<title>6</title>
<g id="a_node12"><a xlink:title="/__w/AtomVM/AtomVM/src/libAtomVM/module.h">
<polygon fill="#ffffff" stroke="black" points="1763.5,-180 1404.5,-180 1404.5,-144 1763.5,-144 1763.5,-180"/>
<text text-anchor="middle" x="1584" y="-158.3" font-family="Times,serif" font-size="14.00">/__w/AtomVM/AtomVM/src/libAtomVM/module.h</text>
</a>
</g>
</g>
<!-- 6&#45;&gt;5 -->
<g id="edge26" class="edge">
<title>6&#45;&gt;5</title>
<g id="a_edge26"><a xlink:title="include">
<path fill="none" stroke="#1414ce" d="M1773.96,-142.34C1808.08,-134.52 1842.47,-123.5 1873,-108 1893.74,-97.47 1891.26,-84.31 1911,-72 1935.56,-56.68 1965.23,-44.74 1991.08,-36.1"/>
<polygon fill="#1414ce" stroke="#1414ce" points="1772.88,-138.99 1763.86,-144.56 1774.38,-145.83 1772.88,-138.99"/>
</a>
</g>
</g>
<!-- 6&#45;&gt;2 -->
<g id="edge24" class="edge">
<title>6&#45;&gt;2</title>
<g id="a_edge24"><a xlink:title="include">
<path fill="none" stroke="#1414ce" d="M1412.05,-142.9C1309.85,-132.14 1181.03,-118.58 1080.69,-108.02"/>
<polygon fill="#1414ce" stroke="#1414ce" points="1411.86,-146.4 1422.17,-143.97 1412.59,-139.44 1411.86,-146.4"/>
</a>
</g>
</g>
<!-- 6&#45;&gt;10 -->
<g id="edge29" class="edge">
<title>6&#45;&gt;10</title>
<g id="a_edge29"><a xlink:title="include">
<path fill="none" stroke="#1414ce" d="M1620.82,-138.59C1637,-128.74 1655.71,-117.35 1670.76,-108.19"/>
<polygon fill="#1414ce" stroke="#1414ce" points="1618.85,-135.69 1612.13,-143.88 1622.49,-141.67 1618.85,-135.69"/>
</a>
</g>
</g>
<!-- 6&#45;&gt;4 -->
<g id="edge25" class="edge">
<title>6&#45;&gt;4</title>
<g id="a_edge25"><a xlink:title="include">
<path fill="none" stroke="#1414ce" d="M1542.06,-138.87C1526.02,-129.89 1507.79,-119.03 1492,-108 1471.57,-93.72 1471.97,-81.67 1449,-72 1440.76,-68.53 1248.81,-49.89 1098.27,-35.69"/>
<polygon fill="#1414ce" stroke="#1414ce" points="1540.78,-142.16 1551.22,-143.94 1544.16,-136.04 1540.78,-142.16"/>
</a>
</g>
</g>
<!-- 15 -->
<g id="node16" class="node">
<title>15</title>
<g id="a_node16"><a xlink:title="/__w/AtomVM/AtomVM/src/libAtomVM/term.c">
<polygon fill="#ffffff" stroke="black" points="1440,-108 1100,-108 1100,-72 1440,-72 1440,-108"/>
<text text-anchor="middle" x="1270" y="-86.3" font-family="Times,serif" font-size="14.00">/__w/AtomVM/AtomVM/src/libAtomVM/term.c</text>
</a>
</g>
</g>
<!-- 6&#45;&gt;15 -->
<g id="edge30" class="edge">
<title>6&#45;&gt;15</title>
<g id="a_edge30"><a xlink:title="include">
<path fill="none" stroke="#1414ce" d="M1497.66,-141.75C1450.33,-131.2 1392.17,-118.24 1346.48,-108.05"/>
<polygon fill="#1414ce" stroke="#1414ce" points="1497.07,-145.21 1507.59,-143.97 1498.59,-138.37 1497.07,-145.21"/>
</a>
</g>
</g>
<!-- 7 -->
<g id="node19" class="node">
<title>7</title>
<g id="a_node19"><a xlink:title="/__w/AtomVM/AtomVM/src/libAtomVM/platform_nifs.h">
<polygon fill="#ffffff" stroke="black" points="2320.5,-108 1919.5,-108 1919.5,-72 2320.5,-72 2320.5,-108"/>
<text text-anchor="middle" x="2120" y="-86.3" font-family="Times,serif" font-size="14.00">/__w/AtomVM/AtomVM/src/libAtomVM/platform_nifs.h</text>
</a>
</g>
</g>
<!-- 6&#45;&gt;7 -->
<g id="edge27" class="edge">
<title>6&#45;&gt;7</title>
<g id="a_edge27"><a xlink:title="include">
<path fill="none" stroke="#1414ce" d="M1724.58,-142.64C1806.55,-131.94 1909.25,-118.52 1989.45,-108.05"/>
<polygon fill="#1414ce" stroke="#1414ce" points="1723.9,-139.2 1714.43,-143.97 1724.8,-146.14 1723.9,-139.2"/>
</a>
</g>
</g>
<!-- 8 -->
<g id="node23" class="node">
<title>8</title>
<g id="a_node23"><a xlink:title="/__w/AtomVM/AtomVM/src/libAtomVM/stacktrace.h">
<polygon fill="#ffffff" stroke="black" points="559.5,-108 178.5,-108 178.5,-72 559.5,-72 559.5,-108"/>
<text text-anchor="middle" x="369" y="-86.3" font-family="Times,serif" font-size="14.00">/__w/AtomVM/AtomVM/src/libAtomVM/stacktrace.h</text>
</a>
</g>
</g>
<!-- 6&#45;&gt;8 -->
<g id="edge28" class="edge">
<title>6&#45;&gt;8</title>
<g id="a_edge28"><a xlink:title="include">
<path fill="none" stroke="#1414ce" d="M1394.35,-150.07C1166.84,-136.97 787.65,-115.12 559.68,-101.99"/>
<polygon fill="#1414ce" stroke="#1414ce" points="1394.21,-153.57 1404.4,-150.65 1394.61,-146.58 1394.21,-153.57"/>
</a>
</g>
</g>
<!-- 20&#45;&gt;19 -->
<g id="edge31" class="edge">
<title>20&#45;&gt;19</title>
<g id="a_edge31"><a xlink:title="include">
<path fill="none" stroke="#1414ce" d="M4010.93,-63.64C4018.12,-54.49 4026.06,-44.38 4032.56,-36.1"/>
<polygon fill="#1414ce" stroke="#1414ce" points="4008.02,-61.67 4004.6,-71.7 4013.53,-66 4008.02,-61.67"/>
</a>
</g>
</g>
<!-- 1 -->
<g id="node17" class="node">
<title>1</title>
<g id="a_node17"><a xlink:title="/__w/AtomVM/AtomVM/src/libAtomVM/exportedfunction.h">
<polygon fill="#bfbfbf" stroke="black" points="2334.5,-252 1905.5,-252 1905.5,-216 2334.5,-216 2334.5,-252"/>
<text text-anchor="middle" x="2120" y="-230.3" font-family="Times,serif" font-size="14.00">/__w/AtomVM/AtomVM/src/libAtomVM/exportedfunction.h</text>
</a>
</g>
</g>
<!-- 1&#45;&gt;16 -->
<g id="edge34" class="edge">
<title>1&#45;&gt;16</title>
<g id="a_edge34"><a xlink:title="include">
<path fill="none" stroke="#1414ce" d="M2344.81,-222.04C2634.43,-207.92 3131.22,-183.71 3389.34,-171.12"/>
<polygon fill="#1414ce" stroke="#1414ce" points="2344.41,-218.56 2334.6,-222.54 2344.75,-225.55 2344.41,-218.56"/>
</a>
</g>
</g>
<!-- 1&#45;&gt;2 -->
<g id="edge32" class="edge">
<title>1&#45;&gt;2</title>
<g id="a_edge32"><a xlink:title="include">
<path fill="none" stroke="#1414ce" d="M1894.9,-222.99C1751.66,-215.03 1562.46,-201.55 1396,-180 1253.77,-161.58 1089.75,-128.3 995.83,-108.07"/>
<polygon fill="#1414ce" stroke="#1414ce" points="1894.96,-226.5 1905.13,-223.55 1895.34,-219.51 1894.96,-226.5"/>
</a>
</g>
</g>
<!-- 1&#45;&gt;6 -->
<g id="edge33" class="edge">
<title>1&#45;&gt;6</title>
<g id="a_edge33"><a xlink:title="include">
<path fill="none" stroke="#1414ce" d="M1979.42,-214.64C1897.45,-203.94 1794.75,-190.52 1714.55,-180.05"/>
<polygon fill="#1414ce" stroke="#1414ce" points="1979.2,-218.14 1989.57,-215.97 1980.1,-211.2 1979.2,-218.14"/>
</a>
</g>
</g>
<!-- 1&#45;&gt;7 -->
<g id="edge35" class="edge">
<title>1&#45;&gt;7</title>
<g id="a_edge35"><a xlink:title="include">
<path fill="none" stroke="#1414ce" d="M2120,-205.68C2120,-176.89 2120,-132.42 2120,-108.19"/>
<polygon fill="#1414ce" stroke="#1414ce" points="2116.5,-205.87 2120,-215.87 2123.5,-205.87 2116.5,-205.87"/>
</a>
</g>
</g>
<!-- 27 -->
<g id="node27" class="node">
<title>27</title>
<g id="a_node27"><a xlink:title="/__w/AtomVM/AtomVM/src/libAtomVM/posix_nifs.h">
<polygon fill="#ffffff" stroke="black" points="2817.5,-108 2440.5,-108 2440.5,-72 2817.5,-72 2817.5,-108"/>
<text text-anchor="middle" x="2629" y="-86.3" font-family="Times,serif" font-size="14.00">/__w/AtomVM/AtomVM/src/libAtomVM/posix_nifs.h</text>
</a>
</g>
</g>
<!-- 1&#45;&gt;27 -->
<g id="edge36" class="edge">
<title>1&#45;&gt;27</title>
<g id="a_edge36"><a xlink:title="include">
<path fill="none" stroke="#1414ce" d="M2190.89,-213.22C2291.21,-185.24 2472.91,-134.55 2567.71,-108.1"/>
<polygon fill="#1414ce" stroke="#1414ce" points="2189.84,-209.88 2181.14,-215.94 2191.72,-216.63 2189.84,-209.88"/>
</a>
</g>
</g>
<!-- 7&#45;&gt;5 -->
<g id="edge37" class="edge">
<title>7&#45;&gt;5</title>
<g id="a_edge37"><a xlink:title="include">
<path fill="none" stroke="#1414ce" d="M2096.26,-64.2C2087.36,-54.9 2077.46,-44.55 2069.37,-36.1"/>
<polygon fill="#1414ce" stroke="#1414ce" points="2094,-66.89 2103.44,-71.7 2099.05,-62.05 2094,-66.89"/>
</a>
</g>
</g>
<!-- 21&#45;&gt;13 -->
<g id="edge38" class="edge">
<title>21&#45;&gt;13</title>
<g id="a_edge38"><a xlink:title="include">
<path fill="none" stroke="#1414ce" d="M3036.49,-69.36C2997.34,-58.9 2949.66,-46.16 2912.04,-36.11"/>
<polygon fill="#1414ce" stroke="#1414ce" points="3035.68,-72.77 3046.24,-71.97 3037.48,-66 3035.68,-72.77"/>
</a>
</g>
</g>
<!-- 21&#45;&gt;22 -->
<g id="edge39" class="edge">
<title>21&#45;&gt;22</title>
<g id="a_edge39"><a xlink:title="include">
<path fill="none" stroke="#1414ce" d="M3311.85,-73.97C3324.08,-73.25 3336.2,-72.59 3348,-72 3919.07,-43.62 4063.23,-70.04 4634,-36 4636.75,-35.84 4639.53,-35.66 4642.32,-35.48"/>
<polygon fill="#1414ce" stroke="#1414ce" points="3311.33,-70.5 3301.56,-74.59 3311.75,-77.49 3311.33,-70.5"/>
</a>
</g>
</g>
<!-- 9 -->
<g id="node22" class="node">
<title>9</title>
<g id="a_node22"><a xlink:title="/__w/AtomVM/AtomVM/src/libAtomVM/stacktrace.c">
<polygon fill="#ffffff" stroke="black" points="380,-36 0,-36 0,0 380,0 380,-36"/>
<text text-anchor="middle" x="190" y="-14.3" font-family="Times,serif" font-size="14.00">/__w/AtomVM/AtomVM/src/libAtomVM/stacktrace.c</text>
</a>
</g>
</g>
<!-- 8&#45;&gt;9 -->
<g id="edge40" class="edge">
<title>8&#45;&gt;9</title>
<g id="a_edge40"><a xlink:title="include">
<path fill="none" stroke="#1414ce" d="M315.81,-68.2C289.61,-57.95 258.42,-45.76 233.65,-36.07"/>
<polygon fill="#1414ce" stroke="#1414ce" points="314.62,-71.49 325.21,-71.88 317.17,-64.97 314.62,-71.49"/>
</a>
</g>
</g>
<!-- 23&#45;&gt;22 -->
<g id="edge41" class="edge">
<title>23&#45;&gt;22</title>
<g id="a_edge41"><a xlink:title="include">
<path fill="none" stroke="#1414ce" d="M4810.86,-61.67C4812.7,-53.05 4814.69,-43.79 4816.33,-36.1"/>
<polygon fill="#1414ce" stroke="#1414ce" points="4807.38,-61.19 4808.71,-71.7 4814.23,-62.65 4807.38,-61.19"/>
</a>
</g>
</g>
<!-- 27&#45;&gt;5 -->
<g id="edge43" class="edge">
<title>27&#45;&gt;5</title>
<g id="a_edge43"><a xlink:title="include">
<path fill="none" stroke="#1414ce" d="M2478.73,-70.74C2390.51,-60.02 2279.74,-46.55 2193.3,-36.05"/>
<polygon fill="#1414ce" stroke="#1414ce" points="2478.48,-74.23 2488.83,-71.97 2479.33,-67.28 2478.48,-74.23"/>
</a>
</g>
</g>
<!-- 27&#45;&gt;19 -->
<g id="edge44" class="edge">
<title>27&#45;&gt;19</title>
<g id="a_edge44"><a xlink:title="include">
<path fill="none" stroke="#1414ce" d="M2827.69,-76.42C2855.33,-74.84 2883.37,-73.31 2910,-72 3331.13,-51.27 3437.23,-63 3858,-36 3860.78,-35.82 3863.58,-35.64 3866.4,-35.44"/>
<polygon fill="#1414ce" stroke="#1414ce" points="2827.31,-72.94 2817.53,-77.01 2827.72,-79.93 2827.31,-72.94"/>
</a>
</g>
</g>
<!-- 27&#45;&gt;12 -->
<g id="edge42" class="edge">
<title>27&#45;&gt;12</title>
<g id="a_edge42"><a xlink:title="include">
<path fill="none" stroke="#1414ce" d="M2572.61,-68.33C2544.58,-58.06 2511.12,-45.8 2484.57,-36.07"/>
<polygon fill="#1414ce" stroke="#1414ce" points="2571.68,-71.72 2582.28,-71.88 2574.09,-65.15 2571.68,-71.72"/>
</a>
</g>
</g>
<!-- 27&#45;&gt;13 -->
<g id="edge45" class="edge">
<title>27&#45;&gt;13</title>
<g id="a_edge45"><a xlink:title="include">
<path fill="none" stroke="#1414ce" d="M2692.12,-68.83C2724.52,-58.47 2763.56,-45.99 2794.47,-36.11"/>
<polygon fill="#1414ce" stroke="#1414ce" points="2690.75,-65.59 2682.29,-71.97 2692.88,-72.25 2690.75,-65.59"/>
</a>
</g>
</g>
<!-- 27&#45;&gt;26 -->
<g id="edge46" class="edge">
<title>27&#45;&gt;26</title>
<g id="a_edge46"><a xlink:title="include">
<path fill="none" stroke="#1414ce" d="M2788.85,-70.84C2883.43,-60.09 3002.47,-46.56 3095.23,-36.02"/>
<polygon fill="#1414ce" stroke="#1414ce" points="2788.44,-67.36 2778.9,-71.97 2789.23,-74.31 2788.44,-67.36"/>
</a>
</g>
</g>
</g>
</svg>
