<?xml version="1.0" encoding="UTF-8" standalone="no"?>
<!DOCTYPE svg PUBLIC "-//W3C//DTD SVG 1.1//EN"
 "http://www.w3.org/Graphics/SVG/1.1/DTD/svg11.dtd">
<!-- Generated by graphviz version 2.43.0 (0)
 -->
<!-- Title: %3 Pages: 1 -->
<svg width="1477pt" height="764pt"
 viewBox="0.00 0.00 1476.50 764.00" xmlns="http://www.w3.org/2000/svg" xmlns:xlink="http://www.w3.org/1999/xlink">
<g id="graph0" class="graph" transform="scale(1 1) rotate(0) translate(4 760)">
<title>%3</title>
<polygon fill="transparent" stroke="transparent" points="-4,4 -4,-760 1472.5,-760 1472.5,4 -4,4"/>
<!-- 4 -->
<g id="node1" class="node">
<title>4</title>
<g id="a_node1"><a xlink:title="stdbool.h">
<polygon fill="#ffffff" stroke="black" points="941,-108 858,-108 858,-72 941,-72 941,-108"/>
<text text-anchor="middle" x="899.5" y="-86.3" font-family="Times,serif" font-size="14.00">stdbool.h</text>
</a>
</g>
</g>
<!-- 19 -->
<g id="node2" class="node">
<title>19</title>
<g id="a_node2"><a xlink:title="refc_binary.h">
<polygon fill="#ffffff" stroke="black" points="653.5,-396 545.5,-396 545.5,-360 653.5,-360 653.5,-396"/>
<text text-anchor="middle" x="599.5" y="-374.3" font-family="Times,serif" font-size="14.00">refc_binary.h</text>
</a>
</g>
</g>
<!-- 19&#45;&gt;4 -->
<g id="edge1" class="edge">
<title>19&#45;&gt;4</title>
<g id="a_edge1"><a xlink:title="include">
<path fill="none" stroke="#1414ce" d="M607.47,-359.6C622.31,-328.44 656.49,-262.07 698.5,-216 716.47,-196.29 725.6,-196.57 746.5,-180 766.03,-164.52 768.56,-157.51 789.5,-144 808.02,-132.05 829.65,-121.06 848.8,-112.23"/>
<polygon fill="#1414ce" stroke="#1414ce" points="850.31,-115.39 857.97,-108.07 847.42,-109.01 850.31,-115.39"/>
</a>
</g>
</g>
<!-- 3 -->
<g id="node10" class="node">
<title>3</title>
<g id="a_node10"><a xlink:title="list.h">
<polygon fill="#ffffff" stroke="black" points="1085.5,-180 1031.5,-180 1031.5,-144 1085.5,-144 1085.5,-180"/>
<text text-anchor="middle" x="1058.5" y="-158.3" font-family="Times,serif" font-size="14.00">list.h</text>
</a>
</g>
</g>
<!-- 19&#45;&gt;3 -->
<g id="edge3" class="edge">
<title>19&#45;&gt;3</title>
<g id="a_edge3"><a xlink:title="include">
<path fill="none" stroke="#1414ce" d="M653.61,-371.18C735,-360.11 890.67,-329.76 996.5,-252 1018.54,-235.81 1035.53,-209.34 1046.1,-189.47"/>
<polygon fill="#1414ce" stroke="#1414ce" points="1049.34,-190.82 1050.77,-180.32 1043.11,-187.64 1049.34,-190.82"/>
</a>
</g>
</g>
<!-- 9 -->
<g id="node12" class="node">
<title>9</title>
<g id="a_node12"><a xlink:title="stdlib.h">
<polygon fill="#ffffff" stroke="black" points="485,-108 414,-108 414,-72 485,-72 485,-108"/>
<text text-anchor="middle" x="449.5" y="-86.3" font-family="Times,serif" font-size="14.00">stdlib.h</text>
</a>
</g>
</g>
<!-- 19&#45;&gt;9 -->
<g id="edge2" class="edge">
<title>19&#45;&gt;9</title>
<g id="a_edge2"><a xlink:title="include">
<path fill="none" stroke="#1414ce" d="M553.35,-359.93C536.35,-351.51 518.36,-339.73 506.5,-324 459.36,-261.52 450.72,-165.21 449.45,-118.41"/>
<polygon fill="#1414ce" stroke="#1414ce" points="452.94,-118.09 449.27,-108.15 445.95,-118.21 452.94,-118.09"/>
</a>
</g>
</g>
<!-- 20 -->
<g id="node14" class="node">
<title>20</title>
<g id="a_node14"><a xlink:title="resources.h">
<polygon fill="#ffffff" stroke="black" points="615.5,-324 515.5,-324 515.5,-288 615.5,-288 615.5,-324"/>
<text text-anchor="middle" x="565.5" y="-302.3" font-family="Times,serif" font-size="14.00">resources.h</text>
</a>
</g>
</g>
<!-- 19&#45;&gt;20 -->
<g id="edge4" class="edge">
<title>19&#45;&gt;20</title>
<g id="a_edge4"><a xlink:title="include">
<path fill="none" stroke="#1414ce" d="M591.1,-359.7C587.23,-351.73 582.55,-342.1 578.26,-333.26"/>
<polygon fill="#1414ce" stroke="#1414ce" points="581.33,-331.57 573.81,-324.1 575.03,-334.63 581.33,-331.57"/>
</a>
</g>
</g>
<!-- 23 -->
<g id="node3" class="node">
<title>23</title>
<g id="a_node3"><a xlink:title="defaultatoms.h">
<polygon fill="#ffffff" stroke="black" points="1120.5,-684 996.5,-684 996.5,-648 1120.5,-648 1120.5,-684"/>
<text text-anchor="middle" x="1058.5" y="-662.3" font-family="Times,serif" font-size="14.00">defaultatoms.h</text>
</a>
</g>
</g>
<!-- 30 -->
<g id="node18" class="node">
<title>30</title>
<g id="a_node18"><a xlink:title="defaultatoms.def">
<polygon fill="#ffffff" stroke="black" points="1277,-612 1140,-612 1140,-576 1277,-576 1277,-612"/>
<text text-anchor="middle" x="1208.5" y="-590.3" font-family="Times,serif" font-size="14.00">defaultatoms.def</text>
</a>
</g>
</g>
<!-- 23&#45;&gt;30 -->
<g id="edge6" class="edge">
<title>23&#45;&gt;30</title>
<g id="a_edge6"><a xlink:title="include">
<path fill="none" stroke="#1414ce" d="M1095.19,-647.88C1115.52,-638.39 1140.97,-626.51 1162.6,-616.42"/>
<polygon fill="#1414ce" stroke="#1414ce" points="1164.34,-619.47 1171.93,-612.07 1161.38,-613.13 1164.34,-619.47"/>
</a>
</g>
</g>
<!-- 24 -->
<g id="node24" class="node">
<title>24</title>
<g id="a_node24"><a xlink:title="globalcontext.h">
<polygon fill="#ffffff" stroke="black" points="1122,-612 995,-612 995,-576 1122,-576 1122,-612"/>
<text text-anchor="middle" x="1058.5" y="-590.3" font-family="Times,serif" font-size="14.00">globalcontext.h</text>
</a>
</g>
</g>
<!-- 23&#45;&gt;24 -->
<g id="edge5" class="edge">
<title>23&#45;&gt;24</title>
<g id="a_edge5"><a xlink:title="include">
<path fill="none" stroke="#1414ce" d="M1058.5,-647.7C1058.5,-639.98 1058.5,-630.71 1058.5,-622.11"/>
<polygon fill="#1414ce" stroke="#1414ce" points="1062,-622.1 1058.5,-612.1 1055,-622.1 1062,-622.1"/>
</a>
</g>
</g>
<!-- 25 -->
<g id="node4" class="node">
<title>25</title>
<g id="a_node4"><a xlink:title="atom.h">
<polygon fill="#ffffff" stroke="black" points="737.5,-180 671.5,-180 671.5,-144 737.5,-144 737.5,-180"/>
<text text-anchor="middle" x="704.5" y="-158.3" font-family="Times,serif" font-size="14.00">atom.h</text>
</a>
</g>
</g>
<!-- 7 -->
<g id="node11" class="node">
<title>7</title>
<g id="a_node11"><a xlink:title="stdint.h">
<polygon fill="#ffffff" stroke="black" points="402.5,-36 330.5,-36 330.5,0 402.5,0 402.5,-36"/>
<text text-anchor="middle" x="366.5" y="-14.3" font-family="Times,serif" font-size="14.00">stdint.h</text>
</a>
</g>
</g>
<!-- 25&#45;&gt;7 -->
<g id="edge7" class="edge">
<title>25&#45;&gt;7</title>
<g id="a_edge7"><a xlink:title="include">
<path fill="none" stroke="#1414ce" d="M705.87,-143.88C706.46,-123.68 704.06,-90.5 684.5,-72 646.12,-35.7 491.43,-24.12 412.83,-20.54"/>
<polygon fill="#1414ce" stroke="#1414ce" points="412.86,-17.03 402.72,-20.1 412.56,-24.03 412.86,-17.03"/>
</a>
</g>
</g>
<!-- 25&#45;&gt;9 -->
<g id="edge8" class="edge">
<title>25&#45;&gt;9</title>
<g id="a_edge8"><a xlink:title="include">
<path fill="none" stroke="#1414ce" d="M671.35,-152.11C632.52,-141.66 566.29,-123.76 509.5,-108 504.79,-106.69 499.88,-105.32 494.98,-103.94"/>
<polygon fill="#1414ce" stroke="#1414ce" points="495.59,-100.48 485.02,-101.13 493.69,-107.21 495.59,-100.48"/>
</a>
</g>
</g>
<!-- 1 -->
<g id="node5" class="node">
<title>1</title>
<g id="a_node5"><a xlink:title="/__w/AtomVM/AtomVM/src/libAtomVM/dictionary.c">
<polygon fill="#bfbfbf" stroke="black" points="813,-756 438,-756 438,-720 813,-720 813,-756"/>
<text text-anchor="middle" x="625.5" y="-734.3" font-family="Times,serif" font-size="14.00">/__w/AtomVM/AtomVM/src/libAtomVM/dictionary.c</text>
</a>
</g>
</g>
<!-- 1&#45;&gt;23 -->
<g id="edge10" class="edge">
<title>1&#45;&gt;23</title>
<g id="a_edge10"><a xlink:title="include">
<path fill="none" stroke="#1414ce" d="M730.87,-719.97C810.08,-707.16 916.53,-689.95 986.29,-678.67"/>
<polygon fill="#1414ce" stroke="#1414ce" points="986.99,-682.11 996.31,-677.05 985.88,-675.2 986.99,-682.11"/>
</a>
</g>
</g>
<!-- 2 -->
<g id="node7" class="node">
<title>2</title>
<g id="a_node7"><a xlink:title="dictionary.h">
<polygon fill="#ffffff" stroke="black" points="675.5,-540 575.5,-540 575.5,-504 675.5,-504 675.5,-540"/>
<text text-anchor="middle" x="625.5" y="-518.3" font-family="Times,serif" font-size="14.00">dictionary.h</text>
</a>
</g>
</g>
<!-- 1&#45;&gt;2 -->
<g id="edge9" class="edge">
<title>1&#45;&gt;2</title>
<g id="a_edge9"><a xlink:title="include">
<path fill="none" stroke="#1414ce" d="M625.5,-719.85C625.5,-682.83 625.5,-595.18 625.5,-550.39"/>
<polygon fill="#1414ce" stroke="#1414ce" points="629,-550.23 625.5,-540.23 622,-550.23 629,-550.23"/>
</a>
</g>
</g>
<!-- 1&#45;&gt;3 -->
<g id="edge11" class="edge">
<title>1&#45;&gt;3</title>
<g id="a_edge11"><a xlink:title="include">
<path fill="none" stroke="#1414ce" d="M813.12,-729.55C908.88,-722.67 1026.58,-709.43 1129.5,-684 1233.1,-658.4 1352.5,-701.71 1352.5,-595 1352.5,-595 1352.5,-595 1352.5,-377 1352.5,-290.34 1312.73,-266.77 1242.5,-216 1230.46,-207.3 1145.58,-184.92 1095.41,-172.2"/>
<polygon fill="#1414ce" stroke="#1414ce" points="1096.13,-168.77 1085.57,-169.72 1094.41,-175.56 1096.13,-168.77"/>
</a>
</g>
</g>
<!-- 1&#45;&gt;9 -->
<g id="edge13" class="edge">
<title>1&#45;&gt;9</title>
<g id="a_edge13"><a xlink:title="include">
<path fill="none" stroke="#1414ce" d="M437.87,-723.31C280.92,-706.53 82.5,-670.39 82.5,-595 82.5,-595 82.5,-595 82.5,-305 82.5,-219.81 116.1,-191.96 186.5,-144 221.3,-120.29 338.16,-103.63 403.79,-95.89"/>
<polygon fill="#1414ce" stroke="#1414ce" points="404.33,-99.35 413.86,-94.73 403.52,-92.4 404.33,-99.35"/>
</a>
</g>
</g>
<!-- 5 -->
<g id="node15" class="node">
<title>5</title>
<g id="a_node15"><a xlink:title="term.h">
<polygon fill="#ffffff" stroke="black" points="565,-468 500,-468 500,-432 565,-432 565,-468"/>
<text text-anchor="middle" x="532.5" y="-446.3" font-family="Times,serif" font-size="14.00">term.h</text>
</a>
</g>
</g>
<!-- 1&#45;&gt;5 -->
<g id="edge12" class="edge">
<title>1&#45;&gt;5</title>
<g id="a_edge12"><a xlink:title="include">
<path fill="none" stroke="#1414ce" d="M619.96,-719.97C604.39,-672.09 560.16,-536.06 541.25,-477.9"/>
<polygon fill="#1414ce" stroke="#1414ce" points="544.55,-476.73 538.13,-468.31 537.89,-478.9 544.55,-476.73"/>
</a>
</g>
</g>
<!-- 14 -->
<g id="node6" class="node">
<title>14</title>
<g id="a_node6"><a xlink:title="assert.h">
<polygon fill="#ffffff" stroke="black" points="270.5,-36 196.5,-36 196.5,0 270.5,0 270.5,-36"/>
<text text-anchor="middle" x="233.5" y="-14.3" font-family="Times,serif" font-size="14.00">assert.h</text>
</a>
</g>
</g>
<!-- 2&#45;&gt;3 -->
<g id="edge14" class="edge">
<title>2&#45;&gt;3</title>
<g id="a_edge14"><a xlink:title="include">
<path fill="none" stroke="#1414ce" d="M667.28,-503.99C748.38,-468.91 927.86,-380.89 1027.5,-252 1041.45,-233.95 1049.4,-209.17 1053.75,-190.33"/>
<polygon fill="#1414ce" stroke="#1414ce" points="1057.23,-190.8 1055.86,-180.3 1050.38,-189.36 1057.23,-190.8"/>
</a>
</g>
</g>
<!-- 2&#45;&gt;5 -->
<g id="edge15" class="edge">
<title>2&#45;&gt;5</title>
<g id="a_edge15"><a xlink:title="include">
<path fill="none" stroke="#1414ce" d="M602.51,-503.7C590.69,-494.8 576.11,-483.82 563.32,-474.2"/>
<polygon fill="#1414ce" stroke="#1414ce" points="565.32,-471.32 555.22,-468.1 561.11,-476.91 565.32,-471.32"/>
</a>
</g>
</g>
<!-- 17 -->
<g id="node8" class="node">
<title>17</title>
<g id="a_node8"><a xlink:title="utils.h">
<polygon fill="#ffffff" stroke="black" points="615.5,-180 553.5,-180 553.5,-144 615.5,-144 615.5,-180"/>
<text text-anchor="middle" x="584.5" y="-158.3" font-family="Times,serif" font-size="14.00">utils.h</text>
</a>
</g>
</g>
<!-- 17&#45;&gt;9 -->
<g id="edge18" class="edge">
<title>17&#45;&gt;9</title>
<g id="a_edge18"><a xlink:title="include">
<path fill="none" stroke="#1414ce" d="M553.19,-144.76C534.82,-135.24 511.37,-123.08 491.41,-112.73"/>
<polygon fill="#1414ce" stroke="#1414ce" points="493.01,-109.62 482.52,-108.12 489.79,-115.83 493.01,-109.62"/>
</a>
</g>
</g>
<!-- 18 -->
<g id="node16" class="node">
<title>18</title>
<g id="a_node16"><a xlink:title="stddef.h">
<polygon fill="#ffffff" stroke="black" points="592.5,-108 518.5,-108 518.5,-72 592.5,-72 592.5,-108"/>
<text text-anchor="middle" x="555.5" y="-86.3" font-family="Times,serif" font-size="14.00">stddef.h</text>
</a>
</g>
</g>
<!-- 17&#45;&gt;18 -->
<g id="edge16" class="edge">
<title>17&#45;&gt;18</title>
<g id="a_edge16"><a xlink:title="include">
<path fill="none" stroke="#1414ce" d="M577.33,-143.7C574.07,-135.81 570.13,-126.3 566.5,-117.55"/>
<polygon fill="#1414ce" stroke="#1414ce" points="569.65,-116 562.59,-108.1 563.18,-118.68 569.65,-116"/>
</a>
</g>
</g>
<!-- 8 -->
<g id="node28" class="node">
<title>8</title>
<g id="a_node28"><a xlink:title="stdio.h">
<polygon fill="#ffffff" stroke="black" points="676,-108 611,-108 611,-72 676,-72 676,-108"/>
<text text-anchor="middle" x="643.5" y="-86.3" font-family="Times,serif" font-size="14.00">stdio.h</text>
</a>
</g>
</g>
<!-- 17&#45;&gt;8 -->
<g id="edge17" class="edge">
<title>17&#45;&gt;8</title>
<g id="a_edge17"><a xlink:title="include">
<path fill="none" stroke="#1414ce" d="M599.08,-143.7C606.16,-135.3 614.78,-125.07 622.55,-115.86"/>
<polygon fill="#1414ce" stroke="#1414ce" points="625.31,-118.01 629.08,-108.1 619.96,-113.49 625.31,-118.01"/>
</a>
</g>
</g>
<!-- 21 -->
<g id="node9" class="node">
<title>21</title>
<g id="a_node9"><a xlink:title="synclist.h">
<polygon fill="#ffffff" stroke="black" points="1210,-252 1125,-252 1125,-216 1210,-216 1210,-252"/>
<text text-anchor="middle" x="1167.5" y="-230.3" font-family="Times,serif" font-size="14.00">synclist.h</text>
</a>
</g>
</g>
<!-- 21&#45;&gt;3 -->
<g id="edge20" class="edge">
<title>21&#45;&gt;3</title>
<g id="a_edge20"><a xlink:title="include">
<path fill="none" stroke="#1414ce" d="M1140.84,-215.88C1126.72,-206.81 1109.19,-195.55 1093.94,-185.76"/>
<polygon fill="#1414ce" stroke="#1414ce" points="1095.57,-182.65 1085.27,-180.19 1091.79,-188.54 1095.57,-182.65"/>
</a>
</g>
</g>
<!-- 22 -->
<g id="node25" class="node">
<title>22</title>
<g id="a_node25"><a xlink:title="smp.h">
<polygon fill="#ffffff" stroke="black" points="1201.5,-180 1141.5,-180 1141.5,-144 1201.5,-144 1201.5,-180"/>
<text text-anchor="middle" x="1171.5" y="-158.3" font-family="Times,serif" font-size="14.00">smp.h</text>
</a>
</g>
</g>
<!-- 21&#45;&gt;22 -->
<g id="edge21" class="edge">
<title>21&#45;&gt;22</title>
<g id="a_edge21"><a xlink:title="include">
<path fill="none" stroke="#1414ce" d="M1168.49,-215.7C1168.93,-207.98 1169.46,-198.71 1169.95,-190.11"/>
<polygon fill="#1414ce" stroke="#1414ce" points="1173.45,-190.29 1170.52,-180.1 1166.46,-189.89 1173.45,-190.29"/>
</a>
</g>
</g>
<!-- 21&#45;&gt;8 -->
<g id="edge19" class="edge">
<title>21&#45;&gt;8</title>
<g id="a_edge19"><a xlink:title="include">
<path fill="none" stroke="#1414ce" d="M1155.64,-215.62C1139.3,-192.23 1110.11,-152.53 1094.5,-144 1059.1,-124.64 792,-102.36 686.33,-94.2"/>
<polygon fill="#1414ce" stroke="#1414ce" points="686.57,-90.71 676.33,-93.43 686.03,-97.69 686.57,-90.71"/>
</a>
</g>
</g>
<!-- 3&#45;&gt;4 -->
<g id="edge22" class="edge">
<title>3&#45;&gt;4</title>
<g id="a_edge22"><a xlink:title="include">
<path fill="none" stroke="#1414ce" d="M1031.17,-148.97C1008.29,-138.9 975.1,-124.28 947.77,-112.25"/>
<polygon fill="#1414ce" stroke="#1414ce" points="948.93,-108.94 938.37,-108.11 946.11,-115.35 948.93,-108.94"/>
</a>
</g>
</g>
<!-- 11 -->
<g id="node13" class="node">
<title>11</title>
<g id="a_node13"><a xlink:title="memory.h">
<polygon fill="#ffffff" stroke="black" points="378.5,-252 292.5,-252 292.5,-216 378.5,-216 378.5,-252"/>
<text text-anchor="middle" x="335.5" y="-230.3" font-family="Times,serif" font-size="14.00">memory.h</text>
</a>
</g>
</g>
<!-- 11&#45;&gt;17 -->
<g id="edge27" class="edge">
<title>11&#45;&gt;17</title>
<g id="a_edge27"><a xlink:title="include">
<path fill="none" stroke="#1414ce" d="M378.59,-220.89C424.92,-207.86 498.02,-187.31 543.52,-174.52"/>
<polygon fill="#1414ce" stroke="#1414ce" points="544.67,-177.83 553.34,-171.76 542.77,-171.1 544.67,-177.83"/>
</a>
</g>
</g>
<!-- 11&#45;&gt;7 -->
<g id="edge23" class="edge">
<title>11&#45;&gt;7</title>
<g id="a_edge23"><a xlink:title="include">
<path fill="none" stroke="#1414ce" d="M337.98,-215.85C343.35,-178.83 356.04,-91.18 362.53,-46.39"/>
<polygon fill="#1414ce" stroke="#1414ce" points="366.03,-46.63 364,-36.23 359.11,-45.63 366.03,-46.63"/>
</a>
</g>
</g>
<!-- 11&#45;&gt;9 -->
<g id="edge24" class="edge">
<title>11&#45;&gt;9</title>
<g id="a_edge24"><a xlink:title="include">
<path fill="none" stroke="#1414ce" d="M346.13,-215.99C357.89,-197.61 377.79,-167.78 397.5,-144 405.52,-134.33 414.97,-124.34 423.59,-115.68"/>
<polygon fill="#1414ce" stroke="#1414ce" points="426.26,-117.97 430.91,-108.45 421.34,-112.99 426.26,-117.97"/>
</a>
</g>
</g>
<!-- 12 -->
<g id="node17" class="node">
<title>12</title>
<g id="a_node17"><a xlink:title="erl_nif.h">
<polygon fill="#ffffff" stroke="black" points="269.5,-180 195.5,-180 195.5,-144 269.5,-144 269.5,-180"/>
<text text-anchor="middle" x="232.5" y="-158.3" font-family="Times,serif" font-size="14.00">erl_nif.h</text>
</a>
</g>
</g>
<!-- 11&#45;&gt;12 -->
<g id="edge25" class="edge">
<title>11&#45;&gt;12</title>
<g id="a_edge25"><a xlink:title="include">
<path fill="none" stroke="#1414ce" d="M310.3,-215.88C297.09,-206.89 280.71,-195.76 266.39,-186.03"/>
<polygon fill="#1414ce" stroke="#1414ce" points="268.03,-182.92 257.79,-180.19 264.1,-188.71 268.03,-182.92"/>
</a>
</g>
</g>
<!-- 13 -->
<g id="node23" class="node">
<title>13</title>
<g id="a_node23"><a xlink:title="term_typedef.h">
<polygon fill="#ffffff" stroke="black" points="196,-108 71,-108 71,-72 196,-72 196,-108"/>
<text text-anchor="middle" x="133.5" y="-86.3" font-family="Times,serif" font-size="14.00">term_typedef.h</text>
</a>
</g>
</g>
<!-- 11&#45;&gt;13 -->
<g id="edge26" class="edge">
<title>11&#45;&gt;13</title>
<g id="a_edge26"><a xlink:title="include">
<path fill="none" stroke="#1414ce" d="M328.61,-215.87C319.79,-195.97 302.69,-163.4 278.5,-144 257.55,-127.2 230.78,-115.43 205.97,-107.33"/>
<polygon fill="#1414ce" stroke="#1414ce" points="206.79,-103.92 196.2,-104.3 204.71,-110.61 206.79,-103.92"/>
</a>
</g>
</g>
<!-- 20&#45;&gt;21 -->
<g id="edge32" class="edge">
<title>20&#45;&gt;21</title>
<g id="a_edge32"><a xlink:title="include">
<path fill="none" stroke="#1414ce" d="M615.53,-299.18C727.96,-286.11 999.72,-254.51 1114.7,-241.14"/>
<polygon fill="#1414ce" stroke="#1414ce" points="1115.15,-244.61 1124.68,-239.98 1114.34,-237.66 1115.15,-244.61"/>
</a>
</g>
</g>
<!-- 20&#45;&gt;3 -->
<g id="edge30" class="edge">
<title>20&#45;&gt;3</title>
<g id="a_edge30"><a xlink:title="include">
<path fill="none" stroke="#1414ce" d="M615.85,-302.08C708.49,-296.07 902.03,-280.48 962.5,-252 970.97,-248.01 1008.29,-212.3 1033.83,-187.35"/>
<polygon fill="#1414ce" stroke="#1414ce" points="1036.31,-189.81 1041,-180.31 1031.41,-184.81 1036.31,-189.81"/>
</a>
</g>
</g>
<!-- 20&#45;&gt;9 -->
<g id="edge28" class="edge">
<title>20&#45;&gt;9</title>
<g id="a_edge28"><a xlink:title="include">
<path fill="none" stroke="#1414ce" d="M556.2,-287.85C535.97,-250.52 487.82,-161.69 463.73,-117.26"/>
<polygon fill="#1414ce" stroke="#1414ce" points="466.68,-115.36 458.84,-108.23 460.53,-118.69 466.68,-115.36"/>
</a>
</g>
</g>
<!-- 20&#45;&gt;11 -->
<g id="edge31" class="edge">
<title>20&#45;&gt;11</title>
<g id="a_edge31"><a xlink:title="include">
<path fill="none" stroke="#1414ce" d="M515.31,-289.72C477.82,-278.31 426.68,-262.75 388.52,-251.14"/>
<polygon fill="#1414ce" stroke="#1414ce" points="389.21,-247.69 378.62,-248.12 387.17,-254.38 389.21,-247.69"/>
</a>
</g>
</g>
<!-- 20&#45;&gt;12 -->
<g id="edge29" class="edge">
<title>20&#45;&gt;12</title>
<g id="a_edge29"><a xlink:title="include">
<path fill="none" stroke="#1414ce" d="M515.36,-300.63C444.61,-293.63 320.04,-277.98 283.5,-252 262.27,-236.9 248.65,-210 240.87,-189.71"/>
<polygon fill="#1414ce" stroke="#1414ce" points="244.09,-188.32 237.43,-180.08 237.5,-190.68 244.09,-188.32"/>
</a>
</g>
</g>
<!-- 5&#45;&gt;4 -->
<g id="edge34" class="edge">
<title>5&#45;&gt;4</title>
<g id="a_edge34"><a xlink:title="include">
<path fill="none" stroke="#1414ce" d="M565.25,-445.78C598.56,-440.77 649.45,-428.07 679.5,-396 736.44,-335.24 683.21,-283.84 731.5,-216 747.59,-193.4 760.61,-197.05 782.5,-180 801.9,-164.89 805.11,-159.11 824.5,-144 837.71,-133.71 852.7,-122.95 865.78,-113.83"/>
<polygon fill="#1414ce" stroke="#1414ce" points="867.84,-116.66 874.07,-108.09 863.86,-110.9 867.84,-116.66"/>
</a>
</g>
</g>
<!-- 5&#45;&gt;19 -->
<g id="edge40" class="edge">
<title>5&#45;&gt;19</title>
<g id="a_edge40"><a xlink:title="include">
<path fill="none" stroke="#1414ce" d="M549.06,-431.7C557.18,-423.22 567.09,-412.86 575.97,-403.58"/>
<polygon fill="#1414ce" stroke="#1414ce" points="578.74,-405.75 583.13,-396.1 573.69,-400.91 578.74,-405.75"/>
</a>
</g>
</g>
<!-- 5&#45;&gt;17 -->
<g id="edge41" class="edge">
<title>5&#45;&gt;17</title>
<g id="a_edge41"><a xlink:title="include">
<path fill="none" stroke="#1414ce" d="M524.87,-431.79C512.74,-402.01 491.84,-339.17 506.5,-288 517.46,-249.72 543.93,-211.78 562.99,-187.92"/>
<polygon fill="#1414ce" stroke="#1414ce" points="565.77,-190.05 569.39,-180.09 560.35,-185.62 565.77,-190.05"/>
</a>
</g>
</g>
<!-- 5&#45;&gt;7 -->
<g id="edge35" class="edge">
<title>5&#45;&gt;7</title>
<g id="a_edge35"><a xlink:title="include">
<path fill="none" stroke="#1414ce" d="M499.82,-447.5C431.29,-443.67 275.84,-431.24 238.5,-396 155.33,-317.51 133.5,-245.34 186.5,-144 214.67,-90.13 277.8,-54.81 321.27,-35.87"/>
<polygon fill="#1414ce" stroke="#1414ce" points="322.65,-39.09 330.5,-31.97 319.92,-32.64 322.65,-39.09"/>
</a>
</g>
</g>
<!-- 5&#45;&gt;9 -->
<g id="edge37" class="edge">
<title>5&#45;&gt;9</title>
<g id="a_edge37"><a xlink:title="include">
<path fill="none" stroke="#1414ce" d="M520.65,-431.95C514.03,-421.85 506.03,-408.6 500.5,-396 460.78,-305.48 454.99,-278.56 447.5,-180 445.93,-159.33 446.55,-135.88 447.5,-118.24"/>
<polygon fill="#1414ce" stroke="#1414ce" points="451.01,-118.28 448.12,-108.09 444.02,-117.86 451.01,-118.28"/>
</a>
</g>
</g>
<!-- 5&#45;&gt;11 -->
<g id="edge39" class="edge">
<title>5&#45;&gt;11</title>
<g id="a_edge39"><a xlink:title="include">
<path fill="none" stroke="#1414ce" d="M499.81,-447.81C432.99,-444.63 284.47,-433.41 253.5,-396 218.07,-353.21 270.91,-292.57 306.84,-259.26"/>
<polygon fill="#1414ce" stroke="#1414ce" points="309.59,-261.49 314.66,-252.19 304.89,-256.3 309.59,-261.49"/>
</a>
</g>
</g>
<!-- 6 -->
<g id="node21" class="node">
<title>6</title>
<g id="a_node21"><a xlink:title="sys/types.h">
<polygon fill="#ffffff" stroke="black" points="360,-396 263,-396 263,-360 360,-360 360,-396"/>
<text text-anchor="middle" x="311.5" y="-374.3" font-family="Times,serif" font-size="14.00">sys/types.h</text>
</a>
</g>
</g>
<!-- 5&#45;&gt;6 -->
<g id="edge33" class="edge">
<title>5&#45;&gt;6</title>
<g id="a_edge33"><a xlink:title="include">
<path fill="none" stroke="#1414ce" d="M499.89,-438.67C465.77,-427.86 411.48,-410.67 369.92,-397.5"/>
<polygon fill="#1414ce" stroke="#1414ce" points="370.78,-394.11 360.19,-394.42 368.67,-400.78 370.78,-394.11"/>
</a>
</g>
</g>
<!-- 10 -->
<g id="node22" class="node">
<title>10</title>
<g id="a_node22"><a xlink:title="string.h">
<polygon fill="#ffffff" stroke="black" points="451,-396 378,-396 378,-360 451,-360 451,-396"/>
<text text-anchor="middle" x="414.5" y="-374.3" font-family="Times,serif" font-size="14.00">string.h</text>
</a>
</g>
</g>
<!-- 5&#45;&gt;10 -->
<g id="edge38" class="edge">
<title>5&#45;&gt;10</title>
<g id="a_edge38"><a xlink:title="include">
<path fill="none" stroke="#1414ce" d="M503.63,-431.88C488.21,-422.72 469.02,-411.34 452.4,-401.48"/>
<polygon fill="#1414ce" stroke="#1414ce" points="453.86,-398.28 443.48,-396.19 450.29,-404.3 453.86,-398.28"/>
</a>
</g>
</g>
<!-- 5&#45;&gt;13 -->
<g id="edge42" class="edge">
<title>5&#45;&gt;13</title>
<g id="a_edge42"><a xlink:title="include">
<path fill="none" stroke="#1414ce" d="M500,-448.1C422.84,-445.35 231.43,-434.69 182.5,-396 98.17,-329.31 115.87,-180.05 127.51,-118.42"/>
<polygon fill="#1414ce" stroke="#1414ce" points="131.01,-118.79 129.52,-108.3 124.14,-117.43 131.01,-118.79"/>
</a>
</g>
</g>
<!-- 5&#45;&gt;8 -->
<g id="edge36" class="edge">
<title>5&#45;&gt;8</title>
<g id="a_edge36"><a xlink:title="include">
<path fill="none" stroke="#1414ce" d="M565.04,-445.79C595.97,-440.82 640.88,-428.16 662.5,-396 671.43,-382.72 665.32,-375.75 662.5,-360 653.47,-309.62 631.53,-302.38 622.5,-252 619.68,-236.25 621.17,-231.94 622.5,-216 625.33,-182.04 632.42,-143.42 637.58,-118.21"/>
<polygon fill="#1414ce" stroke="#1414ce" points="641.04,-118.78 639.66,-108.28 634.19,-117.35 641.04,-118.78"/>
</a>
</g>
</g>
<!-- 12&#45;&gt;13 -->
<g id="edge43" class="edge">
<title>12&#45;&gt;13</title>
<g id="a_edge43"><a xlink:title="include">
<path fill="none" stroke="#1414ce" d="M208.28,-143.88C195.58,-134.89 179.84,-123.76 166.08,-114.03"/>
<polygon fill="#1414ce" stroke="#1414ce" points="168,-111.11 157.81,-108.19 163.96,-116.82 168,-111.11"/>
</a>
</g>
</g>
<!-- 15 -->
<g id="node19" class="node">
<title>15</title>
<g id="a_node19"><a xlink:title="limits.h">
<polygon fill="#ffffff" stroke="black" points="71,-36 0,-36 0,0 71,0 71,-36"/>
<text text-anchor="middle" x="35.5" y="-14.3" font-family="Times,serif" font-size="14.00">limits.h</text>
</a>
</g>
</g>
<!-- 26 -->
<g id="node20" class="node">
<title>26</title>
<g id="a_node20"><a xlink:title="atom_table.h">
<polygon fill="#ffffff" stroke="black" points="954,-252 845,-252 845,-216 954,-216 954,-252"/>
<text text-anchor="middle" x="899.5" y="-230.3" font-family="Times,serif" font-size="14.00">atom_table.h</text>
</a>
</g>
</g>
<!-- 26&#45;&gt;4 -->
<g id="edge44" class="edge">
<title>26&#45;&gt;4</title>
<g id="a_edge44"><a xlink:title="include">
<path fill="none" stroke="#1414ce" d="M899.5,-215.87C899.5,-191.67 899.5,-147.21 899.5,-118.39"/>
<polygon fill="#1414ce" stroke="#1414ce" points="903,-118.19 899.5,-108.19 896,-118.19 903,-118.19"/>
</a>
</g>
</g>
<!-- 26&#45;&gt;25 -->
<g id="edge45" class="edge">
<title>26&#45;&gt;25</title>
<g id="a_edge45"><a xlink:title="include">
<path fill="none" stroke="#1414ce" d="M851.8,-215.88C819.85,-204.41 778.15,-189.44 747.28,-178.36"/>
<polygon fill="#1414ce" stroke="#1414ce" points="748.26,-174.99 737.66,-174.9 745.89,-181.58 748.26,-174.99"/>
</a>
</g>
</g>
<!-- 13&#45;&gt;14 -->
<g id="edge46" class="edge">
<title>13&#45;&gt;14</title>
<g id="a_edge46"><a xlink:title="include">
<path fill="none" stroke="#1414ce" d="M157.96,-71.88C170.8,-62.89 186.7,-51.76 200.59,-42.03"/>
<polygon fill="#1414ce" stroke="#1414ce" points="202.76,-44.79 208.94,-36.19 198.74,-39.06 202.76,-44.79"/>
</a>
</g>
</g>
<!-- 13&#45;&gt;7 -->
<g id="edge49" class="edge">
<title>13&#45;&gt;7</title>
<g id="a_edge49"><a xlink:title="include">
<path fill="none" stroke="#1414ce" d="M190.2,-71.97C230.26,-59.93 283.27,-44 320.67,-32.77"/>
<polygon fill="#1414ce" stroke="#1414ce" points="321.73,-36.1 330.3,-29.88 319.72,-29.4 321.73,-36.1"/>
</a>
</g>
</g>
<!-- 13&#45;&gt;15 -->
<g id="edge47" class="edge">
<title>13&#45;&gt;15</title>
<g id="a_edge47"><a xlink:title="include">
<path fill="none" stroke="#1414ce" d="M109.53,-71.88C96.95,-62.89 81.37,-51.76 67.75,-42.03"/>
<polygon fill="#1414ce" stroke="#1414ce" points="69.74,-39.15 59.57,-36.19 65.67,-44.85 69.74,-39.15"/>
</a>
</g>
</g>
<!-- 16 -->
<g id="node30" class="node">
<title>16</title>
<g id="a_node30"><a xlink:title="inttypes.h">
<polygon fill="#ffffff" stroke="black" points="178,-36 89,-36 89,0 178,0 178,-36"/>
<text text-anchor="middle" x="133.5" y="-14.3" font-family="Times,serif" font-size="14.00">inttypes.h</text>
</a>
</g>
</g>
<!-- 13&#45;&gt;16 -->
<g id="edge48" class="edge">
<title>13&#45;&gt;16</title>
<g id="a_edge48"><a xlink:title="include">
<path fill="none" stroke="#1414ce" d="M133.5,-71.7C133.5,-63.98 133.5,-54.71 133.5,-46.11"/>
<polygon fill="#1414ce" stroke="#1414ce" points="137,-46.1 133.5,-36.1 130,-46.1 137,-46.1"/>
</a>
</g>
</g>
<!-- 24&#45;&gt;25 -->
<g id="edge51" class="edge">
<title>24&#45;&gt;25</title>
<g id="a_edge51"><a xlink:title="include">
<path fill="none" stroke="#1414ce" d="M1035.47,-575.89C975.72,-530.26 814.64,-399.1 731.5,-252 720.61,-232.73 713.64,-208.57 709.51,-190.29"/>
<polygon fill="#1414ce" stroke="#1414ce" points="712.89,-189.35 707.41,-180.29 706.04,-190.8 712.89,-189.35"/>
</a>
</g>
</g>
<!-- 24&#45;&gt;21 -->
<g id="edge58" class="edge">
<title>24&#45;&gt;21</title>
<g id="a_edge58"><a xlink:title="include">
<path fill="none" stroke="#1414ce" d="M1085.52,-575.96C1119.23,-552.37 1172.5,-506.33 1172.5,-451 1172.5,-451 1172.5,-451 1172.5,-377 1172.5,-336.97 1170.49,-290.63 1169.02,-262.07"/>
<polygon fill="#1414ce" stroke="#1414ce" points="1172.51,-261.84 1168.49,-252.04 1165.52,-262.21 1172.51,-261.84"/>
</a>
</g>
</g>
<!-- 24&#45;&gt;3 -->
<g id="edge55" class="edge">
<title>24&#45;&gt;3</title>
<g id="a_edge55"><a xlink:title="include">
<path fill="none" stroke="#1414ce" d="M1112.99,-575.89C1165.97,-555.46 1238.5,-515.68 1238.5,-451 1238.5,-451 1238.5,-451 1238.5,-305 1238.5,-264.55 1246.52,-246.1 1219.5,-216 1210.98,-206.51 1140.15,-185.56 1095.32,-173.03"/>
<polygon fill="#1414ce" stroke="#1414ce" points="1096.2,-169.64 1085.63,-170.34 1094.33,-176.39 1096.2,-169.64"/>
</a>
</g>
</g>
<!-- 24&#45;&gt;7 -->
<g id="edge50" class="edge">
<title>24&#45;&gt;7</title>
<g id="a_edge50"><a xlink:title="include">
<path fill="none" stroke="#1414ce" d="M1122.17,-578.03C1125.32,-577.33 1128.45,-576.65 1131.5,-576 1287.71,-542.54 1468.5,-610.75 1468.5,-451 1468.5,-451 1468.5,-451 1468.5,-161 1468.5,-52.75 621.31,-25.16 412.56,-20.01"/>
<polygon fill="#1414ce" stroke="#1414ce" points="412.62,-16.51 402.54,-19.76 412.45,-23.5 412.62,-16.51"/>
</a>
</g>
</g>
<!-- 24&#45;&gt;5 -->
<g id="edge59" class="edge">
<title>24&#45;&gt;5</title>
<g id="a_edge59"><a xlink:title="include">
<path fill="none" stroke="#1414ce" d="M995.31,-575.94C886.65,-546.61 667.19,-487.36 574.9,-462.45"/>
<polygon fill="#1414ce" stroke="#1414ce" points="575.64,-459.02 565.07,-459.79 573.82,-465.78 575.64,-459.02"/>
</a>
</g>
</g>
<!-- 24&#45;&gt;12 -->
<g id="edge53" class="edge">
<title>24&#45;&gt;12</title>
<g id="a_edge53"><a xlink:title="include">
<path fill="none" stroke="#1414ce" d="M994.85,-592.32C899.98,-589.93 716.54,-580 566.5,-540 412.66,-498.99 327.27,-528.17 238.5,-396 196.01,-332.74 212.79,-236.45 224.63,-189.97"/>
<polygon fill="#1414ce" stroke="#1414ce" points="228.08,-190.62 227.28,-180.06 221.32,-188.82 228.08,-190.62"/>
</a>
</g>
</g>
<!-- 24&#45;&gt;26 -->
<g id="edge52" class="edge">
<title>24&#45;&gt;26</title>
<g id="a_edge52"><a xlink:title="include">
<path fill="none" stroke="#1414ce" d="M1050.81,-575.91C1039.71,-549.62 1020.5,-497.45 1020.5,-451 1020.5,-451 1020.5,-451 1020.5,-377 1020.5,-336.03 1021.85,-320.19 996.5,-288 986.18,-274.89 971.68,-264.57 957.02,-256.66"/>
<polygon fill="#1414ce" stroke="#1414ce" points="958.42,-253.44 947.92,-252.04 955.26,-259.69 958.42,-253.44"/>
</a>
</g>
</g>
<!-- 24&#45;&gt;22 -->
<g id="edge57" class="edge">
<title>24&#45;&gt;22</title>
<g id="a_edge57"><a xlink:title="include">
<path fill="none" stroke="#1414ce" d="M1122.27,-576.12C1159.14,-565.5 1201.19,-551.65 1216.5,-540 1254.46,-511.11 1276.5,-498.7 1276.5,-451 1276.5,-451 1276.5,-451 1276.5,-305 1276.5,-262.66 1268.03,-249.78 1242.5,-216 1233.69,-204.35 1221.65,-194.05 1209.99,-185.7"/>
<polygon fill="#1414ce" stroke="#1414ce" points="1211.84,-182.73 1201.61,-179.98 1207.89,-188.51 1211.84,-182.73"/>
</a>
</g>
</g>
<!-- 29 -->
<g id="node26" class="node">
<title>29</title>
<g id="a_node26"><a xlink:title="timer_list.h">
<polygon fill="#ffffff" stroke="black" points="1440.5,-252 1342.5,-252 1342.5,-216 1440.5,-216 1440.5,-252"/>
<text text-anchor="middle" x="1391.5" y="-230.3" font-family="Times,serif" font-size="14.00">timer_list.h</text>
</a>
</g>
</g>
<!-- 24&#45;&gt;29 -->
<g id="edge60" class="edge">
<title>24&#45;&gt;29</title>
<g id="a_edge60"><a xlink:title="include">
<path fill="none" stroke="#1414ce" d="M1122.2,-578.14C1125.34,-577.42 1128.46,-576.7 1131.5,-576 1202.12,-559.78 1238.23,-590.18 1290.5,-540 1320.05,-511.63 1314.5,-491.97 1314.5,-451 1314.5,-451 1314.5,-451 1314.5,-377 1314.5,-331.51 1345.42,-286.65 1368.07,-259.89"/>
<polygon fill="#1414ce" stroke="#1414ce" points="1370.86,-262.02 1374.79,-252.19 1365.58,-257.42 1370.86,-262.02"/>
</a>
</g>
</g>
<!-- 28 -->
<g id="node27" class="node">
<title>28</title>
<g id="a_node27"><a xlink:title="mailbox.h">
<polygon fill="#ffffff" stroke="black" points="826.5,-252 740.5,-252 740.5,-216 826.5,-216 826.5,-252"/>
<text text-anchor="middle" x="783.5" y="-230.3" font-family="Times,serif" font-size="14.00">mailbox.h</text>
</a>
</g>
</g>
<!-- 24&#45;&gt;28 -->
<g id="edge56" class="edge">
<title>24&#45;&gt;28</title>
<g id="a_edge56"><a xlink:title="include">
<path fill="none" stroke="#1414ce" d="M1042.01,-575.77C1019.66,-550.53 982.5,-501.05 982.5,-451 982.5,-451 982.5,-451 982.5,-377 982.5,-339.53 887.85,-286.2 829.1,-256.71"/>
<polygon fill="#1414ce" stroke="#1414ce" points="830.51,-253.51 820,-252.19 827.4,-259.78 830.51,-253.51"/>
</a>
</g>
</g>
<!-- 27 -->
<g id="node29" class="node">
<title>27</title>
<g id="a_node29"><a xlink:title="ets.h">
<polygon fill="#ffffff" stroke="black" points="1113.5,-540 1059.5,-540 1059.5,-504 1113.5,-504 1113.5,-540"/>
<text text-anchor="middle" x="1086.5" y="-518.3" font-family="Times,serif" font-size="14.00">ets.h</text>
</a>
</g>
</g>
<!-- 24&#45;&gt;27 -->
<g id="edge54" class="edge">
<title>24&#45;&gt;27</title>
<g id="a_edge54"><a xlink:title="include">
<path fill="none" stroke="#1414ce" d="M1065.42,-575.7C1068.57,-567.81 1072.38,-558.3 1075.88,-549.55"/>
<polygon fill="#1414ce" stroke="#1414ce" points="1079.19,-550.69 1079.66,-540.1 1072.69,-548.09 1079.19,-550.69"/>
</a>
</g>
</g>
<!-- 22&#45;&gt;4 -->
<g id="edge61" class="edge">
<title>22&#45;&gt;4</title>
<g id="a_edge61"><a xlink:title="include">
<path fill="none" stroke="#1414ce" d="M1141.4,-148.73C1136.78,-147.03 1132.04,-145.4 1127.5,-144 1067.79,-125.63 997.58,-110.21 951.01,-100.82"/>
<polygon fill="#1414ce" stroke="#1414ce" points="951.64,-97.38 941.15,-98.85 950.27,-104.24 951.64,-97.38"/>
</a>
</g>
</g>
<!-- 29&#45;&gt;4 -->
<g id="edge62" class="edge">
<title>29&#45;&gt;4</title>
<g id="a_edge62"><a xlink:title="include">
<path fill="none" stroke="#1414ce" d="M1363.43,-216C1328.73,-195.75 1267.31,-162.38 1210.5,-144 1121.89,-115.33 1013.79,-101.37 951.18,-95.22"/>
<polygon fill="#1414ce" stroke="#1414ce" points="951.45,-91.73 941.16,-94.26 950.78,-98.7 951.45,-91.73"/>
</a>
</g>
</g>
<!-- 29&#45;&gt;3 -->
<g id="edge64" class="edge">
<title>29&#45;&gt;3</title>
<g id="a_edge64"><a xlink:title="include">
<path fill="none" stroke="#1414ce" d="M1342.42,-219.34C1337.73,-218.16 1333.03,-217.03 1328.5,-216 1242.12,-196.45 1219.24,-197.92 1132.5,-180 1120.42,-177.5 1107.28,-174.56 1095.47,-171.83"/>
<polygon fill="#1414ce" stroke="#1414ce" points="1096.03,-168.37 1085.5,-169.5 1094.44,-175.19 1096.03,-168.37"/>
</a>
</g>
</g>
<!-- 29&#45;&gt;7 -->
<g id="edge63" class="edge">
<title>29&#45;&gt;7</title>
<g id="a_edge63"><a xlink:title="include">
<path fill="none" stroke="#1414ce" d="M1372.29,-215.91C1348.61,-195.73 1306.33,-162.58 1264.5,-144 1133.25,-85.71 1091.33,-94.55 949.5,-72 751.21,-40.47 511.78,-26.04 412.79,-21.1"/>
<polygon fill="#1414ce" stroke="#1414ce" points="412.69,-17.59 402.53,-20.59 412.35,-24.58 412.69,-17.59"/>
</a>
</g>
</g>
<!-- 28&#45;&gt;4 -->
<g id="edge65" class="edge">
<title>28&#45;&gt;4</title>
<g id="a_edge65"><a xlink:title="include">
<path fill="none" stroke="#1414ce" d="M797.49,-215.87C817.78,-191.03 855.51,-144.85 878.96,-116.14"/>
<polygon fill="#1414ce" stroke="#1414ce" points="881.84,-118.15 885.46,-108.19 876.42,-113.72 881.84,-118.15"/>
</a>
</g>
</g>
<!-- 28&#45;&gt;17 -->
<g id="edge68" class="edge">
<title>28&#45;&gt;17</title>
<g id="a_edge68"><a xlink:title="include">
<path fill="none" stroke="#1414ce" d="M740.32,-217.81C706.09,-205.77 658.6,-189.07 625.07,-177.27"/>
<polygon fill="#1414ce" stroke="#1414ce" points="626.17,-173.95 615.57,-173.93 623.85,-180.55 626.17,-173.95"/>
</a>
</g>
</g>
<!-- 28&#45;&gt;3 -->
<g id="edge66" class="edge">
<title>28&#45;&gt;3</title>
<g id="a_edge66"><a xlink:title="include">
<path fill="none" stroke="#1414ce" d="M826.55,-218.62C829.57,-217.71 832.57,-216.82 835.5,-216 900.35,-197.73 976.96,-180.44 1021.41,-170.83"/>
<polygon fill="#1414ce" stroke="#1414ce" points="1022.15,-174.25 1031.19,-168.73 1020.68,-167.41 1022.15,-174.25"/>
</a>
</g>
</g>
<!-- 28&#45;&gt;13 -->
<g id="edge67" class="edge">
<title>28&#45;&gt;13</title>
<g id="a_edge67"><a xlink:title="include">
<path fill="none" stroke="#1414ce" d="M740.35,-223.57C630.94,-199.67 341.8,-136.5 205.95,-106.83"/>
<polygon fill="#1414ce" stroke="#1414ce" points="206.56,-103.38 196.04,-104.66 205.06,-110.22 206.56,-103.38"/>
</a>
</g>
</g>
<!-- 27&#45;&gt;21 -->
<g id="edge70" class="edge">
<title>27&#45;&gt;21</title>
<g id="a_edge70"><a xlink:title="include">
<path fill="none" stroke="#1414ce" d="M1095.33,-503.67C1100.28,-493.47 1106.28,-480.22 1110.5,-468 1135.62,-395.27 1154.17,-306.15 1162.55,-262.19"/>
<polygon fill="#1414ce" stroke="#1414ce" points="1166.01,-262.74 1164.41,-252.27 1159.13,-261.45 1166.01,-262.74"/>
</a>
</g>
</g>
<!-- 27&#45;&gt;3 -->
<g id="edge69" class="edge">
<title>27&#45;&gt;3</title>
<g id="a_edge69"><a xlink:title="include">
<path fill="none" stroke="#1414ce" d="M1088.48,-503.98C1091.39,-477.36 1096.5,-424.23 1096.5,-379 1096.5,-379 1096.5,-379 1096.5,-305 1096.5,-263.63 1081.27,-217.72 1070.09,-189.61"/>
<polygon fill="#1414ce" stroke="#1414ce" points="1073.22,-188.02 1066.19,-180.09 1066.74,-190.67 1073.22,-188.02"/>
</a>
</g>
</g>
<!-- 27&#45;&gt;5 -->
<g id="edge71" class="edge">
<title>27&#45;&gt;5</title>
<g id="a_edge71"><a xlink:title="include">
<path fill="none" stroke="#1414ce" d="M1059.4,-517.58C970.07,-506.29 684.32,-470.18 575.31,-456.41"/>
<polygon fill="#1414ce" stroke="#1414ce" points="575.69,-452.93 565.33,-455.15 574.81,-459.87 575.69,-452.93"/>
</a>
</g>
</g>
</g>
</svg>
