<?xml version="1.0" encoding="UTF-8" standalone="no"?>
<!DOCTYPE svg PUBLIC "-//W3C//DTD SVG 1.1//EN"
 "http://www.w3.org/Graphics/SVG/1.1/DTD/svg11.dtd">
<!-- Generated by graphviz version 2.43.0 (0)
 -->
<!-- Title: %3 Pages: 1 -->
<svg width="1592pt" height="908pt"
 viewBox="0.00 0.00 1592.00 908.00" xmlns="http://www.w3.org/2000/svg" xmlns:xlink="http://www.w3.org/1999/xlink">
<g id="graph0" class="graph" transform="scale(1 1) rotate(0) translate(4 904)">
<title>%3</title>
<polygon fill="transparent" stroke="transparent" points="-4,4 -4,-904 1588,-904 1588,4 -4,4"/>
<!-- 10 -->
<g id="node1" class="node">
<title>10</title>
<g id="a_node1"><a xlink:title="stdbool.h">
<polygon fill="#ffffff" stroke="black" points="931,-108 848,-108 848,-72 931,-72 931,-108"/>
<text text-anchor="middle" x="889.5" y="-86.3" font-family="Times,serif" font-size="14.00">stdbool.h</text>
</a>
</g>
</g>
<!-- 3 -->
<g id="node2" class="node">
<title>3</title>
<g id="a_node2"><a xlink:title="interop.h">
<polygon fill="#ffffff" stroke="black" points="232.5,-756 150.5,-756 150.5,-720 232.5,-720 232.5,-756"/>
<text text-anchor="middle" x="191.5" y="-734.3" font-family="Times,serif" font-size="14.00">interop.h</text>
</a>
</g>
</g>
<!-- 4 -->
<g id="node12" class="node">
<title>4</title>
<g id="a_node12"><a xlink:title="context.h">
<polygon fill="#ffffff" stroke="black" points="906,-684 823,-684 823,-648 906,-648 906,-684"/>
<text text-anchor="middle" x="864.5" y="-662.3" font-family="Times,serif" font-size="14.00">context.h</text>
</a>
</g>
</g>
<!-- 3&#45;&gt;4 -->
<g id="edge1" class="edge">
<title>3&#45;&gt;4</title>
<g id="a_edge1"><a xlink:title="include">
<path fill="none" stroke="#1414ce" d="M232.59,-732.73C349.43,-720.57 683.46,-685.83 812.63,-672.39"/>
<polygon fill="#1414ce" stroke="#1414ce" points="813.08,-675.87 822.67,-671.35 812.36,-668.9 813.08,-675.87"/>
</a>
</g>
</g>
<!-- 21 -->
<g id="node17" class="node">
<title>21</title>
<g id="a_node17"><a xlink:title="term.h">
<polygon fill="#ffffff" stroke="black" points="495,-468 430,-468 430,-432 495,-432 495,-468"/>
<text text-anchor="middle" x="462.5" y="-446.3" font-family="Times,serif" font-size="14.00">term.h</text>
</a>
</g>
</g>
<!-- 3&#45;&gt;21 -->
<g id="edge2" class="edge">
<title>3&#45;&gt;21</title>
<g id="a_edge2"><a xlink:title="include">
<path fill="none" stroke="#1414ce" d="M185.02,-719.87C179.06,-701.12 172.76,-670.72 184.5,-648 234.37,-551.54 355.67,-492.12 420.31,-466.22"/>
<polygon fill="#1414ce" stroke="#1414ce" points="421.77,-469.41 429.8,-462.49 419.22,-462.89 421.77,-469.41"/>
</a>
</g>
</g>
<!-- 27 -->
<g id="node3" class="node">
<title>27</title>
<g id="a_node3"><a xlink:title="refc_binary.h">
<polygon fill="#ffffff" stroke="black" points="712.5,-396 604.5,-396 604.5,-360 712.5,-360 712.5,-396"/>
<text text-anchor="middle" x="658.5" y="-374.3" font-family="Times,serif" font-size="14.00">refc_binary.h</text>
</a>
</g>
</g>
<!-- 27&#45;&gt;10 -->
<g id="edge3" class="edge">
<title>27&#45;&gt;10</title>
<g id="a_edge3"><a xlink:title="include">
<path fill="none" stroke="#1414ce" d="M683.88,-359.95C695.21,-350.79 707.38,-338.4 713.5,-324 719.76,-309.28 721.53,-301.84 713.5,-288 697.31,-260.11 667.64,-279.31 650.5,-252 624.96,-211.3 615.34,-181.41 645.5,-144 669.14,-114.67 773.17,-100.73 837.52,-94.81"/>
<polygon fill="#1414ce" stroke="#1414ce" points="838.23,-98.26 847.88,-93.89 837.61,-91.29 838.23,-98.26"/>
</a>
</g>
</g>
<!-- 17 -->
<g id="node9" class="node">
<title>17</title>
<g id="a_node9"><a xlink:title="list.h">
<polygon fill="#ffffff" stroke="black" points="1075.5,-180 1021.5,-180 1021.5,-144 1075.5,-144 1075.5,-180"/>
<text text-anchor="middle" x="1048.5" y="-158.3" font-family="Times,serif" font-size="14.00">list.h</text>
</a>
</g>
</g>
<!-- 27&#45;&gt;17 -->
<g id="edge5" class="edge">
<title>27&#45;&gt;17</title>
<g id="a_edge5"><a xlink:title="include">
<path fill="none" stroke="#1414ce" d="M712.78,-366.7C782.14,-351.37 903.18,-317.09 986.5,-252 1008.05,-235.16 1025.1,-208.78 1035.83,-189.11"/>
<polygon fill="#1414ce" stroke="#1414ce" points="1039.03,-190.54 1040.57,-180.06 1032.83,-187.29 1039.03,-190.54"/>
</a>
</g>
</g>
<!-- 8 -->
<g id="node11" class="node">
<title>8</title>
<g id="a_node11"><a xlink:title="stdlib.h">
<polygon fill="#ffffff" stroke="black" points="477,-108 406,-108 406,-72 477,-72 477,-108"/>
<text text-anchor="middle" x="441.5" y="-86.3" font-family="Times,serif" font-size="14.00">stdlib.h</text>
</a>
</g>
</g>
<!-- 27&#45;&gt;8 -->
<g id="edge4" class="edge">
<title>27&#45;&gt;8</title>
<g id="a_edge4"><a xlink:title="include">
<path fill="none" stroke="#1414ce" d="M635.44,-359.85C622.96,-350.03 607.66,-337.09 595.5,-324 533.27,-257 479.16,-162.27 454.97,-117.02"/>
<polygon fill="#1414ce" stroke="#1414ce" points="458.04,-115.35 450.27,-108.15 451.85,-118.62 458.04,-115.35"/>
</a>
</g>
</g>
<!-- 28 -->
<g id="node14" class="node">
<title>28</title>
<g id="a_node14"><a xlink:title="resources.h">
<polygon fill="#ffffff" stroke="black" points="704.5,-324 604.5,-324 604.5,-288 704.5,-288 704.5,-324"/>
<text text-anchor="middle" x="654.5" y="-302.3" font-family="Times,serif" font-size="14.00">resources.h</text>
</a>
</g>
</g>
<!-- 27&#45;&gt;28 -->
<g id="edge6" class="edge">
<title>27&#45;&gt;28</title>
<g id="a_edge6"><a xlink:title="include">
<path fill="none" stroke="#1414ce" d="M657.51,-359.7C657.07,-351.98 656.54,-342.71 656.05,-334.11"/>
<polygon fill="#1414ce" stroke="#1414ce" points="659.54,-333.89 655.48,-324.1 652.55,-334.29 659.54,-333.89"/>
</a>
</g>
</g>
<!-- 32 -->
<g id="node4" class="node">
<title>32</title>
<g id="a_node4"><a xlink:title="defaultatoms.h">
<polygon fill="#ffffff" stroke="black" points="1109.5,-684 985.5,-684 985.5,-648 1109.5,-648 1109.5,-684"/>
<text text-anchor="middle" x="1047.5" y="-662.3" font-family="Times,serif" font-size="14.00">defaultatoms.h</text>
</a>
</g>
</g>
<!-- 33 -->
<g id="node20" class="node">
<title>33</title>
<g id="a_node20"><a xlink:title="defaultatoms.def">
<polygon fill="#ffffff" stroke="black" points="1584,-612 1447,-612 1447,-576 1584,-576 1584,-612"/>
<text text-anchor="middle" x="1515.5" y="-590.3" font-family="Times,serif" font-size="14.00">defaultatoms.def</text>
</a>
</g>
</g>
<!-- 32&#45;&gt;33 -->
<g id="edge8" class="edge">
<title>32&#45;&gt;33</title>
<g id="a_edge8"><a xlink:title="include">
<path fill="none" stroke="#1414ce" d="M1109.7,-657.7C1185.98,-648.47 1319.11,-631.4 1432.5,-612 1433.8,-611.78 1435.12,-611.55 1436.44,-611.32"/>
<polygon fill="#1414ce" stroke="#1414ce" points="1437.51,-614.68 1446.72,-609.45 1436.26,-607.79 1437.51,-614.68"/>
</a>
</g>
</g>
<!-- 5 -->
<g id="node26" class="node">
<title>5</title>
<g id="a_node26"><a xlink:title="globalcontext.h">
<polygon fill="#ffffff" stroke="black" points="1111,-612 984,-612 984,-576 1111,-576 1111,-612"/>
<text text-anchor="middle" x="1047.5" y="-590.3" font-family="Times,serif" font-size="14.00">globalcontext.h</text>
</a>
</g>
</g>
<!-- 32&#45;&gt;5 -->
<g id="edge7" class="edge">
<title>32&#45;&gt;5</title>
<g id="a_edge7"><a xlink:title="include">
<path fill="none" stroke="#1414ce" d="M1047.5,-647.7C1047.5,-639.98 1047.5,-630.71 1047.5,-622.11"/>
<polygon fill="#1414ce" stroke="#1414ce" points="1051,-622.1 1047.5,-612.1 1044,-622.1 1051,-622.1"/>
</a>
</g>
</g>
<!-- 7 -->
<g id="node5" class="node">
<title>7</title>
<g id="a_node5"><a xlink:title="atom.h">
<polygon fill="#ffffff" stroke="black" points="720.5,-180 654.5,-180 654.5,-144 720.5,-144 720.5,-180"/>
<text text-anchor="middle" x="687.5" y="-158.3" font-family="Times,serif" font-size="14.00">atom.h</text>
</a>
</g>
</g>
<!-- 6 -->
<g id="node10" class="node">
<title>6</title>
<g id="a_node10"><a xlink:title="stdint.h">
<polygon fill="#ffffff" stroke="black" points="658.5,-36 586.5,-36 586.5,0 658.5,0 658.5,-36"/>
<text text-anchor="middle" x="622.5" y="-14.3" font-family="Times,serif" font-size="14.00">stdint.h</text>
</a>
</g>
</g>
<!-- 7&#45;&gt;6 -->
<g id="edge9" class="edge">
<title>7&#45;&gt;6</title>
<g id="a_edge9"><a xlink:title="include">
<path fill="none" stroke="#1414ce" d="M679.66,-143.87C668.48,-119.46 647.87,-74.43 634.69,-45.64"/>
<polygon fill="#1414ce" stroke="#1414ce" points="637.71,-43.83 630.37,-36.19 631.35,-46.74 637.71,-43.83"/>
</a>
</g>
</g>
<!-- 7&#45;&gt;8 -->
<g id="edge10" class="edge">
<title>7&#45;&gt;8</title>
<g id="a_edge10"><a xlink:title="include">
<path fill="none" stroke="#1414ce" d="M654.28,-153.49C615.95,-144.57 550.9,-128.61 487.2,-108.4"/>
<polygon fill="#1414ce" stroke="#1414ce" points="487.99,-104.97 477.4,-105.25 485.85,-111.64 487.99,-104.97"/>
</a>
</g>
</g>
<!-- 13 -->
<g id="node6" class="node">
<title>13</title>
<g id="a_node6"><a xlink:title="assert.h">
<polygon fill="#ffffff" stroke="black" points="123.5,-36 49.5,-36 49.5,0 123.5,0 123.5,-36"/>
<text text-anchor="middle" x="86.5" y="-14.3" font-family="Times,serif" font-size="14.00">assert.h</text>
</a>
</g>
</g>
<!-- 25 -->
<g id="node7" class="node">
<title>25</title>
<g id="a_node7"><a xlink:title="utils.h">
<polygon fill="#ffffff" stroke="black" points="446.5,-180 384.5,-180 384.5,-144 446.5,-144 446.5,-180"/>
<text text-anchor="middle" x="415.5" y="-158.3" font-family="Times,serif" font-size="14.00">utils.h</text>
</a>
</g>
</g>
<!-- 25&#45;&gt;8 -->
<g id="edge13" class="edge">
<title>25&#45;&gt;8</title>
<g id="a_edge13"><a xlink:title="include">
<path fill="none" stroke="#1414ce" d="M421.93,-143.7C424.86,-135.81 428.39,-126.3 431.64,-117.55"/>
<polygon fill="#1414ce" stroke="#1414ce" points="434.95,-118.7 435.15,-108.1 428.38,-116.26 434.95,-118.7"/>
</a>
</g>
</g>
<!-- 26 -->
<g id="node18" class="node">
<title>26</title>
<g id="a_node18"><a xlink:title="stddef.h">
<polygon fill="#ffffff" stroke="black" points="387.5,-108 313.5,-108 313.5,-72 387.5,-72 387.5,-108"/>
<text text-anchor="middle" x="350.5" y="-86.3" font-family="Times,serif" font-size="14.00">stddef.h</text>
</a>
</g>
</g>
<!-- 25&#45;&gt;26 -->
<g id="edge11" class="edge">
<title>25&#45;&gt;26</title>
<g id="a_edge11"><a xlink:title="include">
<path fill="none" stroke="#1414ce" d="M399.43,-143.7C391.56,-135.22 381.94,-124.86 373.33,-115.58"/>
<polygon fill="#1414ce" stroke="#1414ce" points="375.75,-113.05 366.38,-108.1 370.62,-117.81 375.75,-113.05"/>
</a>
</g>
</g>
<!-- 19 -->
<g id="node31" class="node">
<title>19</title>
<g id="a_node31"><a xlink:title="stdio.h">
<polygon fill="#ffffff" stroke="black" points="560,-108 495,-108 495,-72 560,-72 560,-108"/>
<text text-anchor="middle" x="527.5" y="-86.3" font-family="Times,serif" font-size="14.00">stdio.h</text>
</a>
</g>
</g>
<!-- 25&#45;&gt;19 -->
<g id="edge12" class="edge">
<title>25&#45;&gt;19</title>
<g id="a_edge12"><a xlink:title="include">
<path fill="none" stroke="#1414ce" d="M442.9,-143.88C457.41,-134.81 475.42,-123.55 491.09,-113.76"/>
<polygon fill="#1414ce" stroke="#1414ce" points="493.37,-116.46 500,-108.19 489.66,-110.52 493.37,-116.46"/>
</a>
</g>
</g>
<!-- 18 -->
<g id="node8" class="node">
<title>18</title>
<g id="a_node8"><a xlink:title="synclist.h">
<polygon fill="#ffffff" stroke="black" points="1200,-252 1115,-252 1115,-216 1200,-216 1200,-252"/>
<text text-anchor="middle" x="1157.5" y="-230.3" font-family="Times,serif" font-size="14.00">synclist.h</text>
</a>
</g>
</g>
<!-- 18&#45;&gt;17 -->
<g id="edge15" class="edge">
<title>18&#45;&gt;17</title>
<g id="a_edge15"><a xlink:title="include">
<path fill="none" stroke="#1414ce" d="M1130.84,-215.88C1116.72,-206.81 1099.19,-195.55 1083.94,-185.76"/>
<polygon fill="#1414ce" stroke="#1414ce" points="1085.57,-182.65 1075.27,-180.19 1081.79,-188.54 1085.57,-182.65"/>
</a>
</g>
</g>
<!-- 20 -->
<g id="node27" class="node">
<title>20</title>
<g id="a_node27"><a xlink:title="smp.h">
<polygon fill="#ffffff" stroke="black" points="1257.5,-180 1197.5,-180 1197.5,-144 1257.5,-144 1257.5,-180"/>
<text text-anchor="middle" x="1227.5" y="-158.3" font-family="Times,serif" font-size="14.00">smp.h</text>
</a>
</g>
</g>
<!-- 18&#45;&gt;20 -->
<g id="edge16" class="edge">
<title>18&#45;&gt;20</title>
<g id="a_edge16"><a xlink:title="include">
<path fill="none" stroke="#1414ce" d="M1174.8,-215.7C1183.36,-207.14 1193.84,-196.66 1203.2,-187.3"/>
<polygon fill="#1414ce" stroke="#1414ce" points="1205.8,-189.65 1210.4,-180.1 1200.85,-184.7 1205.8,-189.65"/>
</a>
</g>
</g>
<!-- 18&#45;&gt;19 -->
<g id="edge14" class="edge">
<title>18&#45;&gt;19</title>
<g id="a_edge14"><a xlink:title="include">
<path fill="none" stroke="#1414ce" d="M1148.88,-215.76C1137.36,-194.78 1114.84,-160.16 1084.5,-144 1039.46,-120.01 693.1,-99.7 570.41,-93.19"/>
<polygon fill="#1414ce" stroke="#1414ce" points="570.43,-89.68 560.26,-92.65 570.07,-96.67 570.43,-89.68"/>
</a>
</g>
</g>
<!-- 17&#45;&gt;10 -->
<g id="edge17" class="edge">
<title>17&#45;&gt;10</title>
<g id="a_edge17"><a xlink:title="include">
<path fill="none" stroke="#1414ce" d="M1021.17,-148.97C998.29,-138.9 965.1,-124.28 937.77,-112.25"/>
<polygon fill="#1414ce" stroke="#1414ce" points="938.93,-108.94 928.37,-108.11 936.11,-115.35 938.93,-108.94"/>
</a>
</g>
</g>
<!-- 4&#45;&gt;17 -->
<g id="edge19" class="edge">
<title>4&#45;&gt;17</title>
<g id="a_edge19"><a xlink:title="include">
<path fill="none" stroke="#1414ce" d="M870.92,-647.71C891.94,-591.02 960.6,-405.65 1016.5,-252 1024.1,-231.1 1032.62,-207.41 1038.95,-189.73"/>
<polygon fill="#1414ce" stroke="#1414ce" points="1042.33,-190.67 1042.4,-180.08 1035.74,-188.31 1042.33,-190.67"/>
</a>
</g>
</g>
<!-- 4&#45;&gt;21 -->
<g id="edge22" class="edge">
<title>4&#45;&gt;21</title>
<g id="a_edge22"><a xlink:title="include">
<path fill="none" stroke="#1414ce" d="M832.28,-647.85C759.86,-609.3 584.28,-515.83 503.91,-473.04"/>
<polygon fill="#1414ce" stroke="#1414ce" points="505.06,-469.69 494.59,-468.08 501.77,-475.87 505.06,-469.69"/>
</a>
</g>
</g>
<!-- 4&#45;&gt;5 -->
<g id="edge18" class="edge">
<title>4&#45;&gt;5</title>
<g id="a_edge18"><a xlink:title="include">
<path fill="none" stroke="#1414ce" d="M906.03,-649.12C931.87,-639.23 965.39,-626.41 993.32,-615.72"/>
<polygon fill="#1414ce" stroke="#1414ce" points="994.85,-618.89 1002.94,-612.04 992.35,-612.35 994.85,-618.89"/>
</a>
</g>
</g>
<!-- 4&#45;&gt;20 -->
<g id="edge21" class="edge">
<title>4&#45;&gt;20</title>
<g id="a_edge21"><a xlink:title="include">
<path fill="none" stroke="#1414ce" d="M906.27,-658.61C957.4,-650.27 1046.34,-634.09 1120.5,-612 1204.27,-587.05 1254.3,-612.24 1303.5,-540 1385.07,-420.26 1325.59,-348.73 1267.5,-216 1263.2,-206.18 1256.75,-196.5 1250.27,-188.15"/>
<polygon fill="#1414ce" stroke="#1414ce" points="1252.9,-185.84 1243.87,-180.3 1247.47,-190.26 1252.9,-185.84"/>
</a>
</g>
</g>
<!-- 30 -->
<g id="node28" class="node">
<title>30</title>
<g id="a_node28"><a xlink:title="timer_list.h">
<polygon fill="#ffffff" stroke="black" points="1430.5,-252 1332.5,-252 1332.5,-216 1430.5,-216 1430.5,-252"/>
<text text-anchor="middle" x="1381.5" y="-230.3" font-family="Times,serif" font-size="14.00">timer_list.h</text>
</a>
</g>
</g>
<!-- 4&#45;&gt;30 -->
<g id="edge23" class="edge">
<title>4&#45;&gt;30</title>
<g id="a_edge23"><a xlink:title="include">
<path fill="none" stroke="#1414ce" d="M906.16,-658.02C927.21,-654.66 953.16,-650.77 976.5,-648 1022.79,-642.5 1358.75,-641.91 1394.5,-612 1425.92,-585.71 1418.5,-563.97 1418.5,-523 1418.5,-523 1418.5,-523 1418.5,-377 1418.5,-335.71 1403.67,-289.77 1392.78,-261.63"/>
<polygon fill="#1414ce" stroke="#1414ce" points="1395.94,-260.11 1388.99,-252.11 1389.44,-262.7 1395.94,-260.11"/>
</a>
</g>
</g>
<!-- 29 -->
<g id="node29" class="node">
<title>29</title>
<g id="a_node29"><a xlink:title="mailbox.h">
<polygon fill="#ffffff" stroke="black" points="778.5,-252 692.5,-252 692.5,-216 778.5,-216 778.5,-252"/>
<text text-anchor="middle" x="735.5" y="-230.3" font-family="Times,serif" font-size="14.00">mailbox.h</text>
</a>
</g>
</g>
<!-- 4&#45;&gt;29 -->
<g id="edge20" class="edge">
<title>4&#45;&gt;29</title>
<g id="a_edge20"><a xlink:title="include">
<path fill="none" stroke="#1414ce" d="M863.12,-647.96C861.08,-621.32 857.5,-568.17 857.5,-523 857.5,-523 857.5,-523 857.5,-377 857.5,-324.79 809.47,-282.2 773.68,-257.71"/>
<polygon fill="#1414ce" stroke="#1414ce" points="775.61,-254.78 765.34,-252.17 771.74,-260.61 775.61,-254.78"/>
</a>
</g>
</g>
<!-- 24 -->
<g id="node13" class="node">
<title>24</title>
<g id="a_node13"><a xlink:title="memory.h">
<polygon fill="#ffffff" stroke="black" points="260.5,-252 174.5,-252 174.5,-216 260.5,-216 260.5,-252"/>
<text text-anchor="middle" x="217.5" y="-230.3" font-family="Times,serif" font-size="14.00">memory.h</text>
</a>
</g>
</g>
<!-- 24&#45;&gt;25 -->
<g id="edge28" class="edge">
<title>24&#45;&gt;25</title>
<g id="a_edge28"><a xlink:title="include">
<path fill="none" stroke="#1414ce" d="M260.95,-217.64C294.79,-205.68 341.43,-189.19 374.6,-177.46"/>
<polygon fill="#1414ce" stroke="#1414ce" points="376.17,-180.62 384.43,-173.98 373.84,-174.02 376.17,-180.62"/>
</a>
</g>
</g>
<!-- 24&#45;&gt;6 -->
<g id="edge24" class="edge">
<title>24&#45;&gt;6</title>
<g id="a_edge24"><a xlink:title="include">
<path fill="none" stroke="#1414ce" d="M221.44,-215.81C230.12,-182.19 254.22,-107.92 304.5,-72 347.29,-41.43 498.6,-27.18 576.06,-21.77"/>
<polygon fill="#1414ce" stroke="#1414ce" points="576.74,-25.23 586.48,-21.06 576.27,-18.24 576.74,-25.23"/>
</a>
</g>
</g>
<!-- 24&#45;&gt;8 -->
<g id="edge25" class="edge">
<title>24&#45;&gt;8</title>
<g id="a_edge25"><a xlink:title="include">
<path fill="none" stroke="#1414ce" d="M243,-215.83C258.08,-205.58 277.5,-192.22 294.5,-180 316.15,-164.44 320.01,-158.33 342.5,-144 359.84,-132.95 379.69,-122.01 397.05,-112.96"/>
<polygon fill="#1414ce" stroke="#1414ce" points="399.12,-115.83 406.4,-108.14 395.91,-109.61 399.12,-115.83"/>
</a>
</g>
</g>
<!-- 11 -->
<g id="node19" class="node">
<title>11</title>
<g id="a_node19"><a xlink:title="erl_nif.h">
<polygon fill="#ffffff" stroke="black" points="214.5,-180 140.5,-180 140.5,-144 214.5,-144 214.5,-180"/>
<text text-anchor="middle" x="177.5" y="-158.3" font-family="Times,serif" font-size="14.00">erl_nif.h</text>
</a>
</g>
</g>
<!-- 24&#45;&gt;11 -->
<g id="edge26" class="edge">
<title>24&#45;&gt;11</title>
<g id="a_edge26"><a xlink:title="include">
<path fill="none" stroke="#1414ce" d="M207.61,-215.7C203.01,-207.64 197.44,-197.89 192.35,-188.98"/>
<polygon fill="#1414ce" stroke="#1414ce" points="195.27,-187.05 187.27,-180.1 189.2,-190.52 195.27,-187.05"/>
</a>
</g>
</g>
<!-- 12 -->
<g id="node25" class="node">
<title>12</title>
<g id="a_node25"><a xlink:title="term_typedef.h">
<polygon fill="#ffffff" stroke="black" points="240,-108 115,-108 115,-72 240,-72 240,-108"/>
<text text-anchor="middle" x="177.5" y="-86.3" font-family="Times,serif" font-size="14.00">term_typedef.h</text>
</a>
</g>
</g>
<!-- 24&#45;&gt;12 -->
<g id="edge27" class="edge">
<title>24&#45;&gt;12</title>
<g id="a_edge27"><a xlink:title="include">
<path fill="none" stroke="#1414ce" d="M174.21,-217.15C157.79,-208.78 140.82,-196.69 131.5,-180 123.7,-166.03 125.9,-158.99 131.5,-144 135.38,-133.62 142.3,-123.93 149.62,-115.74"/>
<polygon fill="#1414ce" stroke="#1414ce" points="152.28,-118.03 156.68,-108.38 147.23,-113.18 152.28,-118.03"/>
</a>
</g>
</g>
<!-- 28&#45;&gt;18 -->
<g id="edge33" class="edge">
<title>28&#45;&gt;18</title>
<g id="a_edge33"><a xlink:title="include">
<path fill="none" stroke="#1414ce" d="M704.57,-298.03C800.09,-284.74 1007.48,-255.88 1104.92,-242.32"/>
<polygon fill="#1414ce" stroke="#1414ce" points="1105.42,-245.78 1114.85,-240.94 1104.46,-238.85 1105.42,-245.78"/>
</a>
</g>
</g>
<!-- 28&#45;&gt;17 -->
<g id="edge31" class="edge">
<title>28&#45;&gt;17</title>
<g id="a_edge31"><a xlink:title="include">
<path fill="none" stroke="#1414ce" d="M704.56,-299.62C777.94,-291.15 910.66,-273.45 953.5,-252 961.79,-247.85 998.46,-212.48 1023.74,-187.6"/>
<polygon fill="#1414ce" stroke="#1414ce" points="1026.51,-189.78 1031.17,-180.26 1021.59,-184.8 1026.51,-189.78"/>
</a>
</g>
</g>
<!-- 28&#45;&gt;8 -->
<g id="edge29" class="edge">
<title>28&#45;&gt;8</title>
<g id="a_edge29"><a xlink:title="include">
<path fill="none" stroke="#1414ce" d="M637.43,-287.85C599.73,-249.97 509.26,-159.08 465.72,-115.33"/>
<polygon fill="#1414ce" stroke="#1414ce" points="468.19,-112.85 458.65,-108.23 463.23,-117.79 468.19,-112.85"/>
</a>
</g>
</g>
<!-- 28&#45;&gt;24 -->
<g id="edge32" class="edge">
<title>28&#45;&gt;24</title>
<g id="a_edge32"><a xlink:title="include">
<path fill="none" stroke="#1414ce" d="M604.42,-297.91C536.88,-288.23 412.93,-270 307.5,-252 295.62,-249.97 282.89,-247.65 270.85,-245.4"/>
<polygon fill="#1414ce" stroke="#1414ce" points="271.41,-241.94 260.93,-243.52 270.11,-248.82 271.41,-241.94"/>
</a>
</g>
</g>
<!-- 28&#45;&gt;11 -->
<g id="edge30" class="edge">
<title>28&#45;&gt;11</title>
<g id="a_edge30"><a xlink:title="include">
<path fill="none" stroke="#1414ce" d="M604.48,-290.96C524.7,-268.42 363.84,-222.4 228.5,-180 227.25,-179.61 225.98,-179.21 224.7,-178.8"/>
<polygon fill="#1414ce" stroke="#1414ce" points="225.36,-175.34 214.77,-175.6 223.22,-182 225.36,-175.34"/>
</a>
</g>
</g>
<!-- 1 -->
<g id="node15" class="node">
<title>1</title>
<g id="a_node15"><a xlink:title="/__w/AtomVM/AtomVM/src/libAtomVM/inet.c">
<polygon fill="#bfbfbf" stroke="black" points="333,-900 0,-900 0,-864 333,-864 333,-900"/>
<text text-anchor="middle" x="166.5" y="-878.3" font-family="Times,serif" font-size="14.00">/__w/AtomVM/AtomVM/src/libAtomVM/inet.c</text>
</a>
</g>
</g>
<!-- 2 -->
<g id="node16" class="node">
<title>2</title>
<g id="a_node16"><a xlink:title="inet.h">
<polygon fill="#ffffff" stroke="black" points="195.5,-828 137.5,-828 137.5,-792 195.5,-792 195.5,-828"/>
<text text-anchor="middle" x="166.5" y="-806.3" font-family="Times,serif" font-size="14.00">inet.h</text>
</a>
</g>
</g>
<!-- 1&#45;&gt;2 -->
<g id="edge34" class="edge">
<title>1&#45;&gt;2</title>
<g id="a_edge34"><a xlink:title="include">
<path fill="none" stroke="#1414ce" d="M166.5,-863.7C166.5,-855.98 166.5,-846.71 166.5,-838.11"/>
<polygon fill="#1414ce" stroke="#1414ce" points="170,-838.1 166.5,-828.1 163,-838.1 170,-838.1"/>
</a>
</g>
</g>
<!-- 1&#45;&gt;21 -->
<g id="edge35" class="edge">
<title>1&#45;&gt;21</title>
<g id="a_edge35"><a xlink:title="include">
<path fill="none" stroke="#1414ce" d="M150.04,-863.92C141.85,-854.22 132.8,-841.37 128.5,-828 123.6,-812.77 127.07,-807.94 128.5,-792 137.59,-690.49 146.13,-658.84 205.5,-576 232.98,-537.65 242.48,-527.3 283.5,-504 326.52,-479.56 381.88,-465.42 419.57,-457.99"/>
<polygon fill="#1414ce" stroke="#1414ce" points="420.53,-461.37 429.7,-456.07 419.23,-454.49 420.53,-461.37"/>
</a>
</g>
</g>
<!-- 31 -->
<g id="node30" class="node">
<title>31</title>
<g id="a_node30"><a xlink:title="port.h">
<polygon fill="#ffffff" stroke="black" points="666.5,-756 606.5,-756 606.5,-720 666.5,-720 666.5,-756"/>
<text text-anchor="middle" x="636.5" y="-734.3" font-family="Times,serif" font-size="14.00">port.h</text>
</a>
</g>
</g>
<!-- 1&#45;&gt;31 -->
<g id="edge36" class="edge">
<title>1&#45;&gt;31</title>
<g id="a_edge36"><a xlink:title="include">
<path fill="none" stroke="#1414ce" d="M223.19,-863.87C319.62,-834.74 513.21,-776.25 596.69,-751.03"/>
<polygon fill="#1414ce" stroke="#1414ce" points="597.75,-754.36 606.31,-748.12 595.73,-747.66 597.75,-754.36"/>
</a>
</g>
</g>
<!-- 2&#45;&gt;3 -->
<g id="edge37" class="edge">
<title>2&#45;&gt;3</title>
<g id="a_edge37"><a xlink:title="include">
<path fill="none" stroke="#1414ce" d="M172.68,-791.7C175.5,-783.81 178.89,-774.3 182.02,-765.55"/>
<polygon fill="#1414ce" stroke="#1414ce" points="185.32,-766.7 185.39,-756.1 178.73,-764.34 185.32,-766.7"/>
</a>
</g>
</g>
<!-- 2&#45;&gt;24 -->
<g id="edge38" class="edge">
<title>2&#45;&gt;24</title>
<g id="a_edge38"><a xlink:title="include">
<path fill="none" stroke="#1414ce" d="M155.69,-791.69C129.64,-748.25 65.5,-630.42 65.5,-523 65.5,-523 65.5,-523 65.5,-449 65.5,-366.63 141.27,-293.89 185.82,-258.25"/>
<polygon fill="#1414ce" stroke="#1414ce" points="188.04,-260.96 193.75,-252.03 183.72,-255.45 188.04,-260.96"/>
</a>
</g>
</g>
<!-- 21&#45;&gt;10 -->
<g id="edge40" class="edge">
<title>21&#45;&gt;10</title>
<g id="a_edge40"><a xlink:title="include">
<path fill="none" stroke="#1414ce" d="M495.44,-446.97C558.22,-442.36 691.49,-428.88 721.5,-396 753.95,-360.45 750.58,-331.27 729.5,-288 718.13,-264.66 694.87,-275.34 683.5,-252 676.49,-237.62 676.01,-230.14 683.5,-216 690.16,-203.42 777.3,-151.34 789.5,-144 807.7,-133.04 828.37,-121.88 846.18,-112.65"/>
<polygon fill="#1414ce" stroke="#1414ce" points="847.91,-115.69 855.2,-108 844.71,-109.47 847.91,-115.69"/>
</a>
</g>
</g>
<!-- 21&#45;&gt;27 -->
<g id="edge46" class="edge">
<title>21&#45;&gt;27</title>
<g id="a_edge46"><a xlink:title="include">
<path fill="none" stroke="#1414ce" d="M495.31,-437.28C524.19,-426.97 566.91,-411.71 601.4,-399.39"/>
<polygon fill="#1414ce" stroke="#1414ce" points="602.65,-402.66 610.89,-396 600.29,-396.07 602.65,-402.66"/>
</a>
</g>
</g>
<!-- 21&#45;&gt;25 -->
<g id="edge47" class="edge">
<title>21&#45;&gt;25</title>
<g id="a_edge47"><a xlink:title="include">
<path fill="none" stroke="#1414ce" d="M468.32,-431.56C471.43,-421.33 474.93,-408.08 476.5,-396 478.56,-380.13 478.89,-375.82 476.5,-360 467.03,-297.39 441.53,-227.26 426.67,-189.88"/>
<polygon fill="#1414ce" stroke="#1414ce" points="429.77,-188.21 422.78,-180.24 423.27,-190.83 429.77,-188.21"/>
</a>
</g>
</g>
<!-- 21&#45;&gt;6 -->
<g id="edge41" class="edge">
<title>21&#45;&gt;6</title>
<g id="a_edge41"><a xlink:title="include">
<path fill="none" stroke="#1414ce" d="M481.61,-431.96C491.46,-422.27 502.95,-409.42 510.5,-396 578.06,-275.89 608.7,-110.85 618.65,-46.37"/>
<polygon fill="#1414ce" stroke="#1414ce" points="622.15,-46.62 620.17,-36.22 615.23,-45.59 622.15,-46.62"/>
</a>
</g>
</g>
<!-- 21&#45;&gt;8 -->
<g id="edge43" class="edge">
<title>21&#45;&gt;8</title>
<g id="a_edge43"><a xlink:title="include">
<path fill="none" stroke="#1414ce" d="M459.35,-431.76C455.87,-413.7 449.8,-384.59 442.5,-360 418.2,-278.17 390.63,-264.01 375.5,-180 372.66,-164.25 368.58,-158.43 375.5,-144 381.17,-132.18 390.89,-122.17 401.16,-114.14"/>
<polygon fill="#1414ce" stroke="#1414ce" points="403.41,-116.83 409.45,-108.12 399.3,-111.16 403.41,-116.83"/>
</a>
</g>
</g>
<!-- 21&#45;&gt;24 -->
<g id="edge45" class="edge">
<title>21&#45;&gt;24</title>
<g id="a_edge45"><a xlink:title="include">
<path fill="none" stroke="#1414ce" d="M429.82,-445.89C373.55,-439.84 261.93,-424.48 236.5,-396 203.71,-359.28 206.86,-297.58 212.14,-262.18"/>
<polygon fill="#1414ce" stroke="#1414ce" points="215.63,-262.53 213.81,-252.09 208.72,-261.38 215.63,-262.53"/>
</a>
</g>
</g>
<!-- 22 -->
<g id="node23" class="node">
<title>22</title>
<g id="a_node23"><a xlink:title="sys/types.h">
<polygon fill="#ffffff" stroke="black" points="343,-396 246,-396 246,-360 343,-360 343,-396"/>
<text text-anchor="middle" x="294.5" y="-374.3" font-family="Times,serif" font-size="14.00">sys/types.h</text>
</a>
</g>
</g>
<!-- 21&#45;&gt;22 -->
<g id="edge39" class="edge">
<title>21&#45;&gt;22</title>
<g id="a_edge39"><a xlink:title="include">
<path fill="none" stroke="#1414ce" d="M429.71,-435.34C405.62,-425.3 372.45,-411.48 344.99,-400.04"/>
<polygon fill="#1414ce" stroke="#1414ce" points="346.12,-396.71 335.54,-396.1 343.42,-403.18 346.12,-396.71"/>
</a>
</g>
</g>
<!-- 23 -->
<g id="node24" class="node">
<title>23</title>
<g id="a_node24"><a xlink:title="string.h">
<polygon fill="#ffffff" stroke="black" points="434,-396 361,-396 361,-360 434,-360 434,-396"/>
<text text-anchor="middle" x="397.5" y="-374.3" font-family="Times,serif" font-size="14.00">string.h</text>
</a>
</g>
</g>
<!-- 21&#45;&gt;23 -->
<g id="edge44" class="edge">
<title>21&#45;&gt;23</title>
<g id="a_edge44"><a xlink:title="include">
<path fill="none" stroke="#1414ce" d="M446.43,-431.7C438.56,-423.22 428.94,-412.86 420.33,-403.58"/>
<polygon fill="#1414ce" stroke="#1414ce" points="422.75,-401.05 413.38,-396.1 417.62,-405.81 422.75,-401.05"/>
</a>
</g>
</g>
<!-- 21&#45;&gt;12 -->
<g id="edge48" class="edge">
<title>21&#45;&gt;12</title>
<g id="a_edge48"><a xlink:title="include">
<path fill="none" stroke="#1414ce" d="M429.6,-445.29C370.18,-438.07 247.92,-420.63 213.5,-396 128.78,-335.38 126.11,-284.11 122.5,-180 121.95,-164.01 116.24,-158.72 122.5,-144 127.23,-132.86 135.58,-122.93 144.37,-114.76"/>
<polygon fill="#1414ce" stroke="#1414ce" points="146.85,-117.24 152.12,-108.05 142.27,-111.95 146.85,-117.24"/>
</a>
</g>
</g>
<!-- 21&#45;&gt;19 -->
<g id="edge42" class="edge">
<title>21&#45;&gt;19</title>
<g id="a_edge42"><a xlink:title="include">
<path fill="none" stroke="#1414ce" d="M474.23,-431.62C480.39,-421.63 487.48,-408.59 491.5,-396 523.06,-297.16 527.44,-172.35 527.73,-118.17"/>
<polygon fill="#1414ce" stroke="#1414ce" points="531.23,-118.01 527.74,-108 524.23,-118 531.23,-118.01"/>
</a>
</g>
</g>
<!-- 11&#45;&gt;12 -->
<g id="edge49" class="edge">
<title>11&#45;&gt;12</title>
<g id="a_edge49"><a xlink:title="include">
<path fill="none" stroke="#1414ce" d="M177.5,-143.7C177.5,-135.98 177.5,-126.71 177.5,-118.11"/>
<polygon fill="#1414ce" stroke="#1414ce" points="181,-118.1 177.5,-108.1 174,-118.1 181,-118.1"/>
</a>
</g>
</g>
<!-- 14 -->
<g id="node21" class="node">
<title>14</title>
<g id="a_node21"><a xlink:title="limits.h">
<polygon fill="#ffffff" stroke="black" points="213,-36 142,-36 142,0 213,0 213,-36"/>
<text text-anchor="middle" x="177.5" y="-14.3" font-family="Times,serif" font-size="14.00">limits.h</text>
</a>
</g>
</g>
<!-- 9 -->
<g id="node22" class="node">
<title>9</title>
<g id="a_node22"><a xlink:title="atom_table.h">
<polygon fill="#ffffff" stroke="black" points="944,-252 835,-252 835,-216 944,-216 944,-252"/>
<text text-anchor="middle" x="889.5" y="-230.3" font-family="Times,serif" font-size="14.00">atom_table.h</text>
</a>
</g>
</g>
<!-- 9&#45;&gt;10 -->
<g id="edge50" class="edge">
<title>9&#45;&gt;10</title>
<g id="a_edge50"><a xlink:title="include">
<path fill="none" stroke="#1414ce" d="M889.5,-215.87C889.5,-191.67 889.5,-147.21 889.5,-118.39"/>
<polygon fill="#1414ce" stroke="#1414ce" points="893,-118.19 889.5,-108.19 886,-118.19 893,-118.19"/>
</a>
</g>
</g>
<!-- 9&#45;&gt;7 -->
<g id="edge51" class="edge">
<title>9&#45;&gt;7</title>
<g id="a_edge51"><a xlink:title="include">
<path fill="none" stroke="#1414ce" d="M840.34,-215.97C806.69,-204.3 762.5,-188.99 730.29,-177.83"/>
<polygon fill="#1414ce" stroke="#1414ce" points="731.3,-174.47 720.71,-174.51 729.01,-181.09 731.3,-174.47"/>
</a>
</g>
</g>
<!-- 12&#45;&gt;13 -->
<g id="edge52" class="edge">
<title>12&#45;&gt;13</title>
<g id="a_edge52"><a xlink:title="include">
<path fill="none" stroke="#1414ce" d="M155.01,-71.7C143.54,-62.88 129.44,-52.03 117.02,-42.47"/>
<polygon fill="#1414ce" stroke="#1414ce" points="118.8,-39.43 108.74,-36.1 114.53,-44.98 118.8,-39.43"/>
</a>
</g>
</g>
<!-- 12&#45;&gt;6 -->
<g id="edge55" class="edge">
<title>12&#45;&gt;6</title>
<g id="a_edge55"><a xlink:title="include">
<path fill="none" stroke="#1414ce" d="M240.17,-76.7C249,-75.06 257.97,-73.45 266.5,-72 377.39,-53.16 508.35,-34.61 576.33,-25.26"/>
<polygon fill="#1414ce" stroke="#1414ce" points="576.86,-28.72 586.29,-23.89 575.91,-21.78 576.86,-28.72"/>
</a>
</g>
</g>
<!-- 12&#45;&gt;14 -->
<g id="edge53" class="edge">
<title>12&#45;&gt;14</title>
<g id="a_edge53"><a xlink:title="include">
<path fill="none" stroke="#1414ce" d="M177.5,-71.7C177.5,-63.98 177.5,-54.71 177.5,-46.11"/>
<polygon fill="#1414ce" stroke="#1414ce" points="181,-46.1 177.5,-36.1 174,-46.1 181,-46.1"/>
</a>
</g>
</g>
<!-- 15 -->
<g id="node33" class="node">
<title>15</title>
<g id="a_node33"><a xlink:title="inttypes.h">
<polygon fill="#ffffff" stroke="black" points="320,-36 231,-36 231,0 320,0 320,-36"/>
<text text-anchor="middle" x="275.5" y="-14.3" font-family="Times,serif" font-size="14.00">inttypes.h</text>
</a>
</g>
</g>
<!-- 12&#45;&gt;15 -->
<g id="edge54" class="edge">
<title>12&#45;&gt;15</title>
<g id="a_edge54"><a xlink:title="include">
<path fill="none" stroke="#1414ce" d="M201.47,-71.88C214.05,-62.89 229.63,-51.76 243.25,-42.03"/>
<polygon fill="#1414ce" stroke="#1414ce" points="245.33,-44.85 251.43,-36.19 241.26,-39.15 245.33,-44.85"/>
</a>
</g>
</g>
<!-- 5&#45;&gt;7 -->
<g id="edge57" class="edge">
<title>5&#45;&gt;7</title>
<g id="a_edge57"><a xlink:title="include">
<path fill="none" stroke="#1414ce" d="M1044.03,-575.78C1032.84,-524.56 992.98,-371.52 901.5,-288 874.19,-263.07 857.09,-272.77 826.5,-252 806.98,-238.75 806.75,-229.64 787.5,-216 769.53,-203.27 748.13,-191.53 729.75,-182.35"/>
<polygon fill="#1414ce" stroke="#1414ce" points="731.24,-179.18 720.72,-177.93 728.16,-185.47 731.24,-179.18"/>
</a>
</g>
</g>
<!-- 5&#45;&gt;18 -->
<g id="edge64" class="edge">
<title>5&#45;&gt;18</title>
<g id="a_edge64"><a xlink:title="include">
<path fill="none" stroke="#1414ce" d="M1092.01,-575.82C1108.76,-567.34 1126.61,-555.53 1138.5,-540 1163.4,-507.47 1162.5,-491.97 1162.5,-451 1162.5,-451 1162.5,-451 1162.5,-377 1162.5,-336.97 1160.49,-290.63 1159.02,-262.07"/>
<polygon fill="#1414ce" stroke="#1414ce" points="1162.51,-261.84 1158.49,-252.04 1155.52,-262.21 1162.51,-261.84"/>
</a>
</g>
</g>
<!-- 5&#45;&gt;17 -->
<g id="edge61" class="edge">
<title>5&#45;&gt;17</title>
<g id="a_edge61"><a xlink:title="include">
<path fill="none" stroke="#1414ce" d="M1102.3,-575.98C1155.57,-555.62 1228.5,-515.9 1228.5,-451 1228.5,-451 1228.5,-451 1228.5,-305 1228.5,-264.55 1236.52,-246.1 1209.5,-216 1178.01,-180.92 1122.89,-168.99 1086.04,-164.97"/>
<polygon fill="#1414ce" stroke="#1414ce" points="1085.99,-161.45 1075.71,-164 1085.33,-168.42 1085.99,-161.45"/>
</a>
</g>
</g>
<!-- 5&#45;&gt;6 -->
<g id="edge56" class="edge">
<title>5&#45;&gt;6</title>
<g id="a_edge56"><a xlink:title="include">
<path fill="none" stroke="#1414ce" d="M1111.01,-577.22C1112.86,-576.8 1114.69,-576.4 1116.5,-576 1199.17,-557.87 1236.63,-591.89 1303.5,-540 1426.88,-444.26 1510.03,-355.34 1439.5,-216 1415.09,-167.78 1389.18,-169.45 1341.5,-144 1258.53,-99.7 1234.2,-92.93 1142.5,-72 970.63,-32.78 760.17,-22.56 668.65,-19.92"/>
<polygon fill="#1414ce" stroke="#1414ce" points="668.7,-16.42 658.61,-19.64 668.51,-23.41 668.7,-16.42"/>
</a>
</g>
</g>
<!-- 5&#45;&gt;21 -->
<g id="edge65" class="edge">
<title>5&#45;&gt;21</title>
<g id="a_edge65"><a xlink:title="include">
<path fill="none" stroke="#1414ce" d="M983.78,-577.53C863.68,-548.38 606.76,-486.02 505.14,-461.35"/>
<polygon fill="#1414ce" stroke="#1414ce" points="505.77,-457.9 495.23,-458.95 504.12,-464.71 505.77,-457.9"/>
</a>
</g>
</g>
<!-- 5&#45;&gt;11 -->
<g id="edge59" class="edge">
<title>5&#45;&gt;11</title>
<g id="a_edge59"><a xlink:title="include">
<path fill="none" stroke="#1414ce" d="M983.9,-586.64C808.32,-567.79 322.59,-506.51 213.5,-396 155.34,-337.08 156.3,-298.28 165.5,-216 166.46,-207.43 168.26,-198.22 170.19,-189.93"/>
<polygon fill="#1414ce" stroke="#1414ce" points="173.63,-190.57 172.63,-180.02 166.84,-188.89 173.63,-190.57"/>
</a>
</g>
</g>
<!-- 5&#45;&gt;9 -->
<g id="edge58" class="edge">
<title>5&#45;&gt;9</title>
<g id="a_edge58"><a xlink:title="include">
<path fill="none" stroke="#1414ce" d="M1047.5,-575.95C1047.5,-549.29 1047.5,-496.11 1047.5,-451 1047.5,-451 1047.5,-451 1047.5,-377 1047.5,-319.21 988.3,-278.96 942.37,-256.43"/>
<polygon fill="#1414ce" stroke="#1414ce" points="943.63,-253.15 933.09,-252.03 940.63,-259.48 943.63,-253.15"/>
</a>
</g>
</g>
<!-- 5&#45;&gt;20 -->
<g id="edge63" class="edge">
<title>5&#45;&gt;20</title>
<g id="a_edge63"><a xlink:title="include">
<path fill="none" stroke="#1414ce" d="M1111.14,-580.19C1175.8,-563.03 1266.5,-525.65 1266.5,-451 1266.5,-451 1266.5,-451 1266.5,-305 1266.5,-263.56 1250.86,-217.67 1239.39,-189.58"/>
<polygon fill="#1414ce" stroke="#1414ce" points="1242.5,-187.93 1235.39,-180.07 1236.05,-190.65 1242.5,-187.93"/>
</a>
</g>
</g>
<!-- 5&#45;&gt;30 -->
<g id="edge66" class="edge">
<title>5&#45;&gt;30</title>
<g id="a_edge66"><a xlink:title="include">
<path fill="none" stroke="#1414ce" d="M1111.14,-585.61C1171.32,-577.39 1255.97,-562.28 1280.5,-540 1301.86,-520.6 1354.65,-333.37 1374.13,-262.24"/>
<polygon fill="#1414ce" stroke="#1414ce" points="1377.6,-262.8 1376.86,-252.24 1370.85,-260.96 1377.6,-262.8"/>
</a>
</g>
</g>
<!-- 5&#45;&gt;29 -->
<g id="edge62" class="edge">
<title>5&#45;&gt;29</title>
<g id="a_edge62"><a xlink:title="include">
<path fill="none" stroke="#1414ce" d="M1027.91,-575.9C1017.43,-566.09 1004.82,-553.15 995.5,-540 923.32,-438.16 963.46,-372.4 871.5,-288 858.77,-276.31 821,-262.04 788.49,-251.25"/>
<polygon fill="#1414ce" stroke="#1414ce" points="789.19,-247.79 778.6,-248.02 787.02,-254.45 789.19,-247.79"/>
</a>
</g>
</g>
<!-- 16 -->
<g id="node32" class="node">
<title>16</title>
<g id="a_node32"><a xlink:title="ets.h">
<polygon fill="#ffffff" stroke="black" points="1129.5,-540 1075.5,-540 1075.5,-504 1129.5,-504 1129.5,-540"/>
<text text-anchor="middle" x="1102.5" y="-518.3" font-family="Times,serif" font-size="14.00">ets.h</text>
</a>
</g>
</g>
<!-- 5&#45;&gt;16 -->
<g id="edge60" class="edge">
<title>5&#45;&gt;16</title>
<g id="a_edge60"><a xlink:title="include">
<path fill="none" stroke="#1414ce" d="M1061.1,-575.7C1067.62,-567.39 1075.57,-557.28 1082.75,-548.14"/>
<polygon fill="#1414ce" stroke="#1414ce" points="1085.63,-550.13 1089.06,-540.1 1080.13,-545.81 1085.63,-550.13"/>
</a>
</g>
</g>
<!-- 20&#45;&gt;10 -->
<g id="edge67" class="edge">
<title>20&#45;&gt;10</title>
<g id="a_edge67"><a xlink:title="include">
<path fill="none" stroke="#1414ce" d="M1197.21,-154.73C1139.37,-142.75 1012.62,-116.5 941.16,-101.7"/>
<polygon fill="#1414ce" stroke="#1414ce" points="941.53,-98.2 931.03,-99.6 940.11,-105.06 941.53,-98.2"/>
</a>
</g>
</g>
<!-- 30&#45;&gt;10 -->
<g id="edge68" class="edge">
<title>30&#45;&gt;10</title>
<g id="a_edge68"><a xlink:title="include">
<path fill="none" stroke="#1414ce" d="M1365.4,-215.99C1344.67,-195.25 1306.51,-160.88 1266.5,-144 1157.3,-97.94 1016.11,-90.4 941.32,-90.02"/>
<polygon fill="#1414ce" stroke="#1414ce" points="941.22,-86.52 931.22,-90.01 941.22,-93.52 941.22,-86.52"/>
</a>
</g>
</g>
<!-- 30&#45;&gt;17 -->
<g id="edge70" class="edge">
<title>30&#45;&gt;17</title>
<g id="a_edge70"><a xlink:title="include">
<path fill="none" stroke="#1414ce" d="M1332.36,-222.67C1265.15,-208.54 1146.02,-183.5 1085.71,-170.82"/>
<polygon fill="#1414ce" stroke="#1414ce" points="1086.36,-167.38 1075.85,-168.75 1084.92,-174.23 1086.36,-167.38"/>
</a>
</g>
</g>
<!-- 30&#45;&gt;6 -->
<g id="edge69" class="edge">
<title>30&#45;&gt;6</title>
<g id="a_edge69"><a xlink:title="include">
<path fill="none" stroke="#1414ce" d="M1372.4,-215.88C1360.55,-195.35 1337.84,-161.53 1308.5,-144 1198.99,-78.57 804.83,-36.15 668.94,-23.2"/>
<polygon fill="#1414ce" stroke="#1414ce" points="669.14,-19.71 658.85,-22.25 668.48,-26.67 669.14,-19.71"/>
</a>
</g>
</g>
<!-- 29&#45;&gt;10 -->
<g id="edge71" class="edge">
<title>29&#45;&gt;10</title>
<g id="a_edge71"><a xlink:title="include">
<path fill="none" stroke="#1414ce" d="M754.08,-215.87C781.36,-190.71 832.4,-143.65 863.43,-115.04"/>
<polygon fill="#1414ce" stroke="#1414ce" points="865.88,-117.54 870.86,-108.19 861.13,-112.4 865.88,-117.54"/>
</a>
</g>
</g>
<!-- 29&#45;&gt;25 -->
<g id="edge74" class="edge">
<title>29&#45;&gt;25</title>
<g id="a_edge74"><a xlink:title="include">
<path fill="none" stroke="#1414ce" d="M692.34,-223.56C630.58,-210.05 517.73,-185.36 456.93,-172.06"/>
<polygon fill="#1414ce" stroke="#1414ce" points="457.44,-168.59 446.92,-169.87 455.94,-175.43 457.44,-168.59"/>
</a>
</g>
</g>
<!-- 29&#45;&gt;17 -->
<g id="edge72" class="edge">
<title>29&#45;&gt;17</title>
<g id="a_edge72"><a xlink:title="include">
<path fill="none" stroke="#1414ce" d="M778.69,-223.34C840.55,-209.51 953.31,-184.29 1011.53,-171.27"/>
<polygon fill="#1414ce" stroke="#1414ce" points="1012.41,-174.66 1021.4,-169.06 1010.88,-167.83 1012.41,-174.66"/>
</a>
</g>
</g>
<!-- 29&#45;&gt;12 -->
<g id="edge73" class="edge">
<title>29&#45;&gt;12</title>
<g id="a_edge73"><a xlink:title="include">
<path fill="none" stroke="#1414ce" d="M692.29,-230.5C623.86,-225.68 486.92,-212.56 375.5,-180 318.4,-163.31 256.44,-133.37 217.32,-112.86"/>
<polygon fill="#1414ce" stroke="#1414ce" points="218.84,-109.7 208.37,-108.12 215.57,-115.89 218.84,-109.7"/>
</a>
</g>
</g>
<!-- 31&#45;&gt;32 -->
<g id="edge76" class="edge">
<title>31&#45;&gt;32</title>
<g id="a_edge76"><a xlink:title="include">
<path fill="none" stroke="#1414ce" d="M666.54,-732.24C723.26,-723.19 850.02,-702.76 956.5,-684 962.63,-682.92 968.98,-681.78 975.36,-680.62"/>
<polygon fill="#1414ce" stroke="#1414ce" points="976.16,-684.03 985.36,-678.78 974.9,-677.14 976.16,-684.03"/>
</a>
</g>
</g>
<!-- 31&#45;&gt;4 -->
<g id="edge75" class="edge">
<title>31&#45;&gt;4</title>
<g id="a_edge75"><a xlink:title="include">
<path fill="none" stroke="#1414ce" d="M666.78,-727.7C704.13,-716.24 768.21,-696.56 813.28,-682.73"/>
<polygon fill="#1414ce" stroke="#1414ce" points="814.34,-686.06 822.87,-679.78 812.29,-679.37 814.34,-686.06"/>
</a>
</g>
</g>
<!-- 31&#45;&gt;24 -->
<g id="edge78" class="edge">
<title>31&#45;&gt;24</title>
<g id="a_edge78"><a xlink:title="include">
<path fill="none" stroke="#1414ce" d="M606.26,-723.12C526,-684.5 307.37,-567.22 213.5,-396 190.46,-353.97 200.07,-296.02 208.94,-262.33"/>
<polygon fill="#1414ce" stroke="#1414ce" points="212.42,-262.87 211.75,-252.3 205.68,-260.98 212.42,-262.87"/>
</a>
</g>
</g>
<!-- 31&#45;&gt;21 -->
<g id="edge79" class="edge">
<title>31&#45;&gt;21</title>
<g id="a_edge79"><a xlink:title="include">
<path fill="none" stroke="#1414ce" d="M626.14,-719.97C596.89,-671.89 513.56,-534.93 478.43,-477.19"/>
<polygon fill="#1414ce" stroke="#1414ce" points="481.22,-475.03 473.03,-468.31 475.24,-478.67 481.22,-475.03"/>
</a>
</g>
</g>
<!-- 31&#45;&gt;5 -->
<g id="edge77" class="edge">
<title>31&#45;&gt;5</title>
<g id="a_edge77"><a xlink:title="include">
<path fill="none" stroke="#1414ce" d="M666.54,-735.27C718.91,-731.39 829.56,-719.37 915.5,-684 936.38,-675.41 984.38,-641.52 1016.38,-618.14"/>
<polygon fill="#1414ce" stroke="#1414ce" points="1018.55,-620.88 1024.54,-612.14 1014.41,-615.24 1018.55,-620.88"/>
</a>
</g>
</g>
<!-- 16&#45;&gt;18 -->
<g id="edge81" class="edge">
<title>16&#45;&gt;18</title>
<g id="a_edge81"><a xlink:title="include">
<path fill="none" stroke="#1414ce" d="M1105.78,-503.97C1114.96,-456.19 1141.03,-320.62 1152.26,-262.27"/>
<polygon fill="#1414ce" stroke="#1414ce" points="1155.72,-262.79 1154.17,-252.31 1148.85,-261.47 1155.72,-262.79"/>
</a>
</g>
</g>
<!-- 16&#45;&gt;17 -->
<g id="edge80" class="edge">
<title>16&#45;&gt;17</title>
<g id="a_edge80"><a xlink:title="include">
<path fill="none" stroke="#1414ce" d="M1099.26,-503.58C1094.59,-476.87 1086.5,-424.15 1086.5,-379 1086.5,-379 1086.5,-379 1086.5,-305 1086.5,-263.63 1071.27,-217.72 1060.09,-189.61"/>
<polygon fill="#1414ce" stroke="#1414ce" points="1063.22,-188.02 1056.19,-180.09 1056.74,-190.67 1063.22,-188.02"/>
</a>
</g>
</g>
<!-- 16&#45;&gt;21 -->
<g id="edge82" class="edge">
<title>16&#45;&gt;21</title>
<g id="a_edge82"><a xlink:title="include">
<path fill="none" stroke="#1414ce" d="M1075.34,-518.02C1044.4,-514.62 992.31,-508.91 947.5,-504 784.02,-486.1 589.55,-464.87 505.12,-455.65"/>
<polygon fill="#1414ce" stroke="#1414ce" points="505.46,-452.17 495.14,-454.56 504.7,-459.13 505.46,-452.17"/>
</a>
</g>
</g>
</g>
</svg>
