<?xml version="1.0" encoding="UTF-8" standalone="no"?>
<!DOCTYPE svg PUBLIC "-//W3C//DTD SVG 1.1//EN"
 "http://www.w3.org/Graphics/SVG/1.1/DTD/svg11.dtd">
<!-- Generated by graphviz version 2.43.0 (0)
 -->
<!-- Title: %3 Pages: 1 -->
<svg width="1420pt" height="404pt"
 viewBox="0.00 0.00 1419.50 404.00" xmlns="http://www.w3.org/2000/svg" xmlns:xlink="http://www.w3.org/1999/xlink">
<g id="graph0" class="graph" transform="scale(1 1) rotate(0) translate(4 400)">
<title>%3</title>
<polygon fill="transparent" stroke="transparent" points="-4,4 -4,-400 1415.5,-400 1415.5,4 -4,4"/>
<!-- 22 -->
<g id="node1" class="node">
<title>22</title>
<g id="a_node1"><a xlink:title="SpinLock">
<polygon fill="#ffffff" stroke="black" points="1282,-324 1200,-324 1200,-288 1282,-288 1282,-324"/>
<text text-anchor="middle" x="1241" y="-302.3" font-family="Times,serif" font-size="14.00">SpinLock</text>
</a>
</g>
</g>
<!-- 3 -->
<g id="node2" class="node">
<title>3</title>
<g id="a_node2"><a xlink:title="ResourceType">
<polygon fill="#ffffff" stroke="black" points="360.5,-180 243.5,-180 243.5,-144 360.5,-144 360.5,-180"/>
<text text-anchor="middle" x="302" y="-158.3" font-family="Times,serif" font-size="14.00">ResourceType</text>
</a>
</g>
</g>
<!-- 5 -->
<g id="node4" class="node">
<title>5</title>
<g id="a_node4"><a xlink:title="ListHead">
<polygon fill="#ffffff" stroke="black" points="519.5,-36 438.5,-36 438.5,0 519.5,0 519.5,-36"/>
<text text-anchor="middle" x="479" y="-14.3" font-family="Times,serif" font-size="14.00">ListHead</text>
</a>
</g>
</g>
<!-- 3&#45;&gt;5 -->
<g id="edge3" class="edge">
<title>3&#45;&gt;5</title>
<g id="a_edge3"><a xlink:title="usage">
<path fill="none" stroke="#1414ce" d="M318.91,-143.67C337.5,-125.02 368.63,-94.96 398,-72 411.82,-61.2 427.83,-50.4 441.95,-41.39"/>
<polygon fill="#1414ce" stroke="#1414ce" points="443.86,-44.32 450.46,-36.03 440.13,-38.4 443.86,-44.32"/>
</a>
</g>
</g>
<!-- 6 -->
<g id="node7" class="node">
<title>6</title>
<g id="a_node7"><a xlink:title="GlobalContext">
<polygon fill="#ffffff" stroke="black" points="838.5,-396 719.5,-396 719.5,-360 838.5,-360 838.5,-396"/>
<text text-anchor="middle" x="779" y="-374.3" font-family="Times,serif" font-size="14.00">GlobalContext</text>
</a>
</g>
</g>
<!-- 3&#45;&gt;6 -->
<g id="edge2" class="edge">
<title>3&#45;&gt;6</title>
<g id="a_edge2"><a xlink:title="usage">
<path fill="none" stroke="#1414ce" d="M289.69,-180.47C281.19,-189.91 270.99,-202.4 266,-216 249.35,-261.33 242.81,-290.92 278,-324 309.02,-353.17 578.52,-368.34 708.96,-374.15"/>
<polygon fill="#1414ce" stroke="#1414ce" points="709.11,-377.65 719.25,-374.6 709.41,-370.66 709.11,-377.65"/>
</a>
</g>
</g>
<!-- 4 -->
<g id="node21" class="node">
<title>4</title>
<g id="a_node21"><a xlink:title="SyncList">
<polygon fill="#ffffff" stroke="black" points="518,-108 440,-108 440,-72 518,-72 518,-108"/>
<text text-anchor="middle" x="479" y="-86.3" font-family="Times,serif" font-size="14.00">SyncList</text>
</a>
</g>
</g>
<!-- 3&#45;&gt;4 -->
<g id="edge1" class="edge">
<title>3&#45;&gt;4</title>
<g id="a_edge1"><a xlink:title="usage">
<path fill="none" stroke="#1414ce" d="M345.3,-143.88C371,-133.71 403.66,-120.79 430.27,-110.27"/>
<polygon fill="#1414ce" stroke="#1414ce" points="431.76,-113.45 439.77,-106.51 429.18,-106.94 431.76,-113.45"/>
</a>
</g>
</g>
<!-- 17 -->
<g id="node3" class="node">
<title>17</title>
<g id="a_node3"><a xlink:title="Module">
<polygon fill="#ffffff" stroke="black" points="713,-324 643,-324 643,-288 713,-288 713,-324"/>
<text text-anchor="middle" x="678" y="-302.3" font-family="Times,serif" font-size="14.00">Module</text>
</a>
</g>
</g>
<!-- 17&#45;&gt;5 -->
<g id="edge6" class="edge">
<title>17&#45;&gt;5</title>
<g id="a_edge6"><a xlink:title="usage">
<path fill="none" stroke="#1414ce" d="M642.9,-301.51C611.56,-296.35 567.28,-283.58 545,-252 538.08,-242.19 542.37,-155.93 541,-144 537.27,-111.61 541.59,-101.15 527,-72 521.81,-61.63 514.02,-51.77 506.21,-43.43"/>
<polygon fill="#1414ce" stroke="#1414ce" points="508.63,-40.9 499.12,-36.23 503.64,-45.81 508.63,-40.9"/>
</a>
</g>
</g>
<!-- 19 -->
<g id="node11" class="node">
<title>19</title>
<g id="a_node11"><a xlink:title="LiteralEntry">
<polygon fill="#ffffff" stroke="black" points="822,-252 718,-252 718,-216 822,-216 822,-252"/>
<text text-anchor="middle" x="770" y="-230.3" font-family="Times,serif" font-size="14.00">LiteralEntry</text>
</a>
</g>
</g>
<!-- 17&#45;&gt;19 -->
<g id="edge5" class="edge">
<title>17&#45;&gt;19</title>
<g id="a_edge5"><a xlink:title="usage">
<path fill="none" stroke="#1414ce" d="M700.74,-287.7C712.44,-278.8 726.86,-267.82 739.51,-258.2"/>
<polygon fill="#1414ce" stroke="#1414ce" points="741.68,-260.94 747.52,-252.1 737.44,-255.37 741.68,-260.94"/>
</a>
</g>
</g>
<!-- 18 -->
<g id="node20" class="node">
<title>18</title>
<g id="a_node20"><a xlink:title="ExportedFunction">
<polygon fill="#ffffff" stroke="black" points="700,-252 554,-252 554,-216 700,-216 700,-252"/>
<text text-anchor="middle" x="627" y="-230.3" font-family="Times,serif" font-size="14.00">ExportedFunction</text>
</a>
</g>
</g>
<!-- 17&#45;&gt;18 -->
<g id="edge4" class="edge">
<title>17&#45;&gt;18</title>
<g id="a_edge4"><a xlink:title="usage">
<path fill="none" stroke="#1414ce" d="M665.39,-287.7C659.4,-279.47 652.12,-269.48 645.52,-260.42"/>
<polygon fill="#1414ce" stroke="#1414ce" points="648.18,-258.13 639.46,-252.1 642.52,-262.25 648.18,-258.13"/>
</a>
</g>
</g>
<!-- 5&#45;&gt;5 -->
<g id="edge7" class="edge">
<title>5&#45;&gt;5</title>
<g id="a_edge7"><a xlink:title="usage">
<path fill="none" stroke="#1414ce" d="M519.73,-31.31C529.9,-30.38 537.5,-25.95 537.5,-18 537.5,-12.91 534.38,-9.26 529.47,-7.05"/>
<polygon fill="#1414ce" stroke="#1414ce" points="530.28,-3.64 519.73,-4.69 528.63,-10.45 530.28,-3.64"/>
</a>
</g>
</g>
<!-- 13 -->
<g id="node5" class="node">
<title>13</title>
<g id="a_node5"><a xlink:title="HeapFragment">
<polygon fill="#ffffff" stroke="black" points="1245.5,-36 1120.5,-36 1120.5,0 1245.5,0 1245.5,-36"/>
<text text-anchor="middle" x="1183" y="-14.3" font-family="Times,serif" font-size="14.00">HeapFragment</text>
</a>
</g>
</g>
<!-- 13&#45;&gt;13 -->
<g id="edge8" class="edge">
<title>13&#45;&gt;13</title>
<g id="a_edge8"><a xlink:title="usage">
<path fill="none" stroke="#1414ce" d="M1245.78,-30.55C1256.26,-28.79 1263.5,-24.61 1263.5,-18 1263.5,-13.77 1260.53,-10.53 1255.64,-8.29"/>
<polygon fill="#1414ce" stroke="#1414ce" points="1256.36,-4.85 1245.78,-5.45 1254.42,-11.58 1256.36,-4.85"/>
</a>
</g>
</g>
<!-- 15 -->
<g id="node6" class="node">
<title>15</title>
<g id="a_node6"><a xlink:title="RefcBinaryQueueItem">
<polygon fill="#ffffff" stroke="black" points="174,-324 0,-324 0,-288 174,-288 174,-324"/>
<text text-anchor="middle" x="87" y="-302.3" font-family="Times,serif" font-size="14.00">RefcBinaryQueueItem</text>
</a>
</g>
</g>
<!-- 15&#45;&gt;15 -->
<g id="edge10" class="edge">
<title>15&#45;&gt;15</title>
<g id="a_edge10"><a xlink:title="usage">
<path fill="none" stroke="#1414ce" d="M174.3,-317.68C184.99,-315.59 192,-311.7 192,-306 192,-302.35 189.12,-299.44 184.25,-297.27"/>
<polygon fill="#1414ce" stroke="#1414ce" points="184.88,-293.81 174.3,-294.32 182.89,-300.52 184.88,-293.81"/>
</a>
</g>
</g>
<!-- 16 -->
<g id="node16" class="node">
<title>16</title>
<g id="a_node16"><a xlink:title="RefcBinary">
<polygon fill="#ffffff" stroke="black" points="191.5,-252 96.5,-252 96.5,-216 191.5,-216 191.5,-252"/>
<text text-anchor="middle" x="144" y="-230.3" font-family="Times,serif" font-size="14.00">RefcBinary</text>
</a>
</g>
</g>
<!-- 15&#45;&gt;16 -->
<g id="edge9" class="edge">
<title>15&#45;&gt;16</title>
<g id="a_edge9"><a xlink:title="usage">
<path fill="none" stroke="#1414ce" d="M101.09,-287.7C107.92,-279.3 116.26,-269.07 123.76,-259.86"/>
<polygon fill="#1414ce" stroke="#1414ce" points="126.47,-262.07 130.07,-252.1 121.04,-257.65 126.47,-262.07"/>
</a>
</g>
</g>
<!-- 6&#45;&gt;22 -->
<g id="edge20" class="edge">
<title>6&#45;&gt;22</title>
<g id="a_edge20"><a xlink:title="usage">
<path fill="none" stroke="#1414ce" d="M838.68,-373.08C917.36,-367.08 1060.05,-353.35 1189.87,-324"/>
<polygon fill="#1414ce" stroke="#1414ce" points="1191.03,-327.32 1199.99,-321.67 1189.46,-320.5 1191.03,-327.32"/>
</a>
</g>
</g>
<!-- 6&#45;&gt;3 -->
<g id="edge11" class="edge">
<title>6&#45;&gt;3</title>
<g id="a_edge11"><a xlink:title="usage">
<path fill="none" stroke="#1414ce" d="M719.33,-374.99C589.88,-369.91 292.67,-354.72 260,-324 224.81,-290.92 231.35,-261.33 248,-216 251.86,-205.5 258.81,-195.66 266.55,-187.38"/>
<polygon fill="#1414ce" stroke="#1414ce" points="269.14,-189.74 273.81,-180.23 264.23,-184.76 269.14,-189.74"/>
</a>
</g>
</g>
<!-- 6&#45;&gt;17 -->
<g id="edge17" class="edge">
<title>6&#45;&gt;17</title>
<g id="a_edge17"><a xlink:title="usage">
<path fill="none" stroke="#1414ce" d="M754.29,-359.88C741.33,-350.89 725.27,-339.76 711.23,-330.03"/>
<polygon fill="#1414ce" stroke="#1414ce" points="713.02,-327.01 702.8,-324.19 709.03,-332.76 713.02,-327.01"/>
</a>
</g>
</g>
<!-- 6&#45;&gt;5 -->
<g id="edge21" class="edge">
<title>6&#45;&gt;5</title>
<g id="a_edge21"><a xlink:title="usage">
<path fill="none" stroke="#1414ce" d="M838.79,-372.53C907.59,-366.13 1014.73,-351.93 1043,-324 1071.77,-295.57 1062,-275.45 1062,-235 1062,-235 1062,-235 1062,-161 1062,-51.87 671.53,-26.26 529.7,-20.55"/>
<polygon fill="#1414ce" stroke="#1414ce" points="529.66,-17.05 519.53,-20.16 529.39,-24.04 529.66,-17.05"/>
</a>
</g>
</g>
<!-- 6&#45;&gt;15 -->
<g id="edge15" class="edge">
<title>6&#45;&gt;15</title>
<g id="a_edge15"><a xlink:title="usage">
<path fill="none" stroke="#1414ce" d="M719.09,-372.44C614.71,-364.29 392.78,-345.97 206,-324 198.88,-323.16 191.52,-322.24 184.12,-321.28"/>
<polygon fill="#1414ce" stroke="#1414ce" points="184.4,-317.78 174.02,-319.94 183.48,-324.72 184.4,-317.78"/>
</a>
</g>
</g>
<!-- 7 -->
<g id="node8" class="node">
<title>7</title>
<g id="a_node8"><a xlink:title="Ets">
<polygon fill="#ffffff" stroke="black" points="532,-180 478,-180 478,-144 532,-144 532,-180"/>
<text text-anchor="middle" x="505" y="-158.3" font-family="Times,serif" font-size="14.00">Ets</text>
</a>
</g>
</g>
<!-- 6&#45;&gt;7 -->
<g id="edge12" class="edge">
<title>6&#45;&gt;7</title>
<g id="a_edge12"><a xlink:title="usage">
<path fill="none" stroke="#1414ce" d="M719.31,-368.12C655.31,-355.05 556.86,-323.86 512,-252 500.56,-233.67 499.5,-208.91 500.91,-190.16"/>
<polygon fill="#1414ce" stroke="#1414ce" points="504.4,-190.48 501.94,-180.17 497.44,-189.77 504.4,-190.48"/>
</a>
</g>
</g>
<!-- 21 -->
<g id="node10" class="node">
<title>21</title>
<g id="a_node10"><a xlink:title="TimerList">
<polygon fill="#ffffff" stroke="black" points="784,-180 698,-180 698,-144 784,-144 784,-180"/>
<text text-anchor="middle" x="741" y="-158.3" font-family="Times,serif" font-size="14.00">TimerList</text>
</a>
</g>
</g>
<!-- 6&#45;&gt;21 -->
<g id="edge19" class="edge">
<title>6&#45;&gt;21</title>
<g id="a_edge19"><a xlink:title="usage">
<path fill="none" stroke="#1414ce" d="M793.48,-359.59C817.08,-328.98 858.55,-264.2 831,-216 822.58,-201.27 808.29,-190.22 793.55,-182.14"/>
<polygon fill="#1414ce" stroke="#1414ce" points="794.86,-178.88 784.36,-177.48 791.69,-185.13 794.86,-178.88"/>
</a>
</g>
</g>
<!-- 8 -->
<g id="node14" class="node">
<title>8</title>
<g id="a_node14"><a xlink:title="MessageQueueItem">
<polygon fill="#ffffff" stroke="black" points="1016,-324 858,-324 858,-288 1016,-288 1016,-324"/>
<text text-anchor="middle" x="937" y="-302.3" font-family="Times,serif" font-size="14.00">MessageQueueItem</text>
</a>
</g>
</g>
<!-- 6&#45;&gt;8 -->
<g id="edge13" class="edge">
<title>6&#45;&gt;8</title>
<g id="a_edge13"><a xlink:title="usage">
<path fill="none" stroke="#1414ce" d="M817.65,-359.88C839.25,-350.31 866.35,-338.3 889.27,-328.15"/>
<polygon fill="#1414ce" stroke="#1414ce" points="890.75,-331.32 898.47,-324.07 887.91,-324.92 890.75,-331.32"/>
</a>
</g>
</g>
<!-- 20 -->
<g id="node15" class="node">
<title>20</title>
<g id="a_node15"><a xlink:title="AtomsHashTable">
<polygon fill="#ffffff" stroke="black" points="1411.5,-252 1274.5,-252 1274.5,-216 1411.5,-216 1411.5,-252"/>
<text text-anchor="middle" x="1343" y="-230.3" font-family="Times,serif" font-size="14.00">AtomsHashTable</text>
</a>
</g>
</g>
<!-- 6&#45;&gt;20 -->
<g id="edge18" class="edge">
<title>6&#45;&gt;20</title>
<g id="a_edge18"><a xlink:title="usage">
<path fill="none" stroke="#1414ce" d="M838.51,-377.45C957.04,-377.29 1217.49,-371.39 1291,-324 1313.23,-309.67 1327.13,-282.22 1334.9,-261.57"/>
<polygon fill="#1414ce" stroke="#1414ce" points="1338.23,-262.67 1338.23,-252.07 1331.62,-260.35 1338.23,-262.67"/>
</a>
</g>
</g>
<!-- 10 -->
<g id="node19" class="node">
<title>10</title>
<g id="a_node19"><a xlink:title="AtomTable">
<polygon fill="#ffffff" stroke="black" points="1182,-324 1090,-324 1090,-288 1182,-288 1182,-324"/>
<text text-anchor="middle" x="1136" y="-302.3" font-family="Times,serif" font-size="14.00">AtomTable</text>
</a>
</g>
</g>
<!-- 6&#45;&gt;10 -->
<g id="edge14" class="edge">
<title>6&#45;&gt;10</title>
<g id="a_edge14"><a xlink:title="usage">
<path fill="none" stroke="#1414ce" d="M838.52,-368.16C898.74,-358.81 994.33,-342.81 1076,-324 1077.28,-323.71 1078.57,-323.4 1079.86,-323.09"/>
<polygon fill="#1414ce" stroke="#1414ce" points="1081.09,-326.39 1089.93,-320.55 1079.38,-319.6 1081.09,-326.39"/>
</a>
</g>
</g>
<!-- 6&#45;&gt;4 -->
<g id="edge16" class="edge">
<title>6&#45;&gt;4</title>
<g id="a_edge16"><a xlink:title="usage">
<path fill="none" stroke="#1414ce" d="M719.41,-376.56C667.77,-373.38 593.32,-361.81 541,-324 483,-282.09 482.62,-250.25 469,-180 465.03,-159.52 467.97,-136.06 471.66,-118.38"/>
<polygon fill="#1414ce" stroke="#1414ce" points="475.18,-118.71 474.01,-108.18 468.35,-117.15 475.18,-118.71"/>
</a>
</g>
</g>
<!-- 7&#45;&gt;4 -->
<g id="edge22" class="edge">
<title>7&#45;&gt;4</title>
<g id="a_edge22"><a xlink:title="usage">
<path fill="none" stroke="#1414ce" d="M498.57,-143.7C495.64,-135.81 492.11,-126.3 488.86,-117.55"/>
<polygon fill="#1414ce" stroke="#1414ce" points="492.12,-116.26 485.35,-108.1 485.55,-118.7 492.12,-116.26"/>
</a>
</g>
</g>
<!-- 14 -->
<g id="node9" class="node">
<title>14</title>
<g id="a_node9"><a xlink:title="HNodeGroup">
<polygon fill="#ffffff" stroke="black" points="1238,-252 1128,-252 1128,-216 1238,-216 1238,-252"/>
<text text-anchor="middle" x="1183" y="-230.3" font-family="Times,serif" font-size="14.00">HNodeGroup</text>
</a>
</g>
</g>
<!-- 14&#45;&gt;14 -->
<g id="edge24" class="edge">
<title>14&#45;&gt;14</title>
<g id="a_edge24"><a xlink:title="usage">
<path fill="none" stroke="#1414ce" d="M1238.07,-246.85C1248.57,-245.32 1256,-241.03 1256,-234 1256,-229.5 1252.95,-226.12 1248,-223.87"/>
<polygon fill="#1414ce" stroke="#1414ce" points="1248.64,-220.42 1238.07,-221.15 1246.79,-227.17 1248.64,-220.42"/>
</a>
</g>
</g>
<!-- 11 -->
<g id="node22" class="node">
<title>11</title>
<g id="a_node22"><a xlink:title="HNode">
<polygon fill="#ffffff" stroke="black" points="1216,-180 1150,-180 1150,-144 1216,-144 1216,-180"/>
<text text-anchor="middle" x="1183" y="-158.3" font-family="Times,serif" font-size="14.00">HNode</text>
</a>
</g>
</g>
<!-- 14&#45;&gt;11 -->
<g id="edge23" class="edge">
<title>14&#45;&gt;11</title>
<g id="a_edge23"><a xlink:title="usage">
<path fill="none" stroke="#1414ce" d="M1183,-215.7C1183,-207.98 1183,-198.71 1183,-190.11"/>
<polygon fill="#1414ce" stroke="#1414ce" points="1186.5,-190.1 1183,-180.1 1179.5,-190.1 1186.5,-190.1"/>
</a>
</g>
</g>
<!-- 21&#45;&gt;5 -->
<g id="edge25" class="edge">
<title>21&#45;&gt;5</title>
<g id="a_edge25"><a xlink:title="usage">
<path fill="none" stroke="#1414ce" d="M709.4,-143.87C661.89,-118.12 572.08,-69.45 519.72,-41.07"/>
<polygon fill="#1414ce" stroke="#1414ce" points="521.17,-37.88 510.72,-36.19 517.84,-44.03 521.17,-37.88"/>
</a>
</g>
</g>
<!-- 9 -->
<g id="node12" class="node">
<title>9</title>
<g id="a_node12"><a xlink:title="MailboxMessage">
<polygon fill="#ffffff" stroke="black" points="1015.5,-252 878.5,-252 878.5,-216 1015.5,-216 1015.5,-252"/>
<text text-anchor="middle" x="947" y="-230.3" font-family="Times,serif" font-size="14.00">MailboxMessage</text>
</a>
</g>
</g>
<!-- 9&#45;&gt;9 -->
<g id="edge26" class="edge">
<title>9&#45;&gt;9</title>
<g id="a_edge26"><a xlink:title="usage">
<path fill="none" stroke="#1414ce" d="M1015.53,-246.37C1026.21,-244.52 1033.5,-240.4 1033.5,-234 1033.5,-229.8 1030.36,-226.58 1025.18,-224.34"/>
<polygon fill="#1414ce" stroke="#1414ce" points="1026.1,-220.96 1015.53,-221.63 1024.21,-227.7 1026.1,-220.96"/>
</a>
</g>
</g>
<!-- 12 -->
<g id="node13" class="node">
<title>12</title>
<g id="a_node13"><a xlink:title="Heap">
<polygon fill="#ffffff" stroke="black" points="1210,-108 1156,-108 1156,-72 1210,-72 1210,-108"/>
<text text-anchor="middle" x="1183" y="-86.3" font-family="Times,serif" font-size="14.00">Heap</text>
</a>
</g>
</g>
<!-- 12&#45;&gt;13 -->
<g id="edge27" class="edge">
<title>12&#45;&gt;13</title>
<g id="a_edge27"><a xlink:title="usage">
<path fill="none" stroke="#1414ce" d="M1183,-71.7C1183,-63.98 1183,-54.71 1183,-46.11"/>
<polygon fill="#1414ce" stroke="#1414ce" points="1186.5,-46.1 1183,-36.1 1179.5,-46.1 1186.5,-46.1"/>
</a>
</g>
</g>
<!-- 8&#45;&gt;9 -->
<g id="edge28" class="edge">
<title>8&#45;&gt;9</title>
<g id="a_edge28"><a xlink:title="usage">
<path fill="none" stroke="#1414ce" d="M939.47,-287.7C940.57,-279.98 941.9,-270.71 943.13,-262.11"/>
<polygon fill="#1414ce" stroke="#1414ce" points="946.61,-262.5 944.56,-252.1 939.68,-261.51 946.61,-262.5"/>
</a>
</g>
</g>
<!-- 8&#45;&gt;8 -->
<g id="edge29" class="edge">
<title>8&#45;&gt;8</title>
<g id="a_edge29"><a xlink:title="usage">
<path fill="none" stroke="#1414ce" d="M1016.16,-317.98C1026.87,-315.97 1034,-311.98 1034,-306 1034,-302.08 1030.93,-299.01 1025.79,-296.8"/>
<polygon fill="#1414ce" stroke="#1414ce" points="1026.74,-293.43 1016.16,-294.02 1024.8,-300.15 1026.74,-293.43"/>
</a>
</g>
</g>
<!-- 20&#45;&gt;11 -->
<g id="edge30" class="edge">
<title>20&#45;&gt;11</title>
<g id="a_edge30"><a xlink:title="usage">
<path fill="none" stroke="#1414ce" d="M1303.86,-215.88C1280.09,-205.48 1249.75,-192.2 1225.41,-181.55"/>
<polygon fill="#1414ce" stroke="#1414ce" points="1226.63,-178.27 1216.07,-177.47 1223.83,-184.68 1226.63,-178.27"/>
</a>
</g>
</g>
<!-- 16&#45;&gt;3 -->
<g id="edge31" class="edge">
<title>16&#45;&gt;3</title>
<g id="a_edge31"><a xlink:title="usage">
<path fill="none" stroke="#1414ce" d="M182.65,-215.88C204.25,-206.31 231.35,-194.3 254.27,-184.15"/>
<polygon fill="#1414ce" stroke="#1414ce" points="255.75,-187.32 263.47,-180.07 252.91,-180.92 255.75,-187.32"/>
</a>
</g>
</g>
<!-- 16&#45;&gt;5 -->
<g id="edge32" class="edge">
<title>16&#45;&gt;5</title>
<g id="a_edge32"><a xlink:title="usage">
<path fill="none" stroke="#1414ce" d="M159.17,-215.69C176.25,-196.78 205.36,-166.23 234,-144 295.08,-96.59 376.91,-59.14 428.8,-38.03"/>
<polygon fill="#1414ce" stroke="#1414ce" points="430.16,-41.25 438.13,-34.28 427.55,-34.76 430.16,-41.25"/>
</a>
</g>
</g>
<!-- 2 -->
<g id="node17" class="node">
<title>2</title>
<g id="a_node17"><a xlink:title="ErlNifMonitor">
<polygon fill="#ffffff" stroke="black" points="383.5,-252 266.5,-252 266.5,-216 383.5,-216 383.5,-252"/>
<text text-anchor="middle" x="325" y="-230.3" font-family="Times,serif" font-size="14.00">ErlNifMonitor</text>
</a>
</g>
</g>
<!-- 2&#45;&gt;3 -->
<g id="edge33" class="edge">
<title>2&#45;&gt;3</title>
<g id="a_edge33"><a xlink:title="usage">
<path fill="none" stroke="#1414ce" d="M319.31,-215.7C316.75,-207.9 313.67,-198.51 310.82,-189.83"/>
<polygon fill="#1414ce" stroke="#1414ce" points="314.07,-188.51 307.62,-180.1 307.42,-190.7 314.07,-188.51"/>
</a>
</g>
</g>
<!-- 1 -->
<g id="node18" class="node">
<title>1</title>
<g id="a_node18"><a xlink:title="SocketResource">
<polygon fill="#bfbfbf" stroke="black" points="409.5,-324 278.5,-324 278.5,-288 409.5,-288 409.5,-324"/>
<text text-anchor="middle" x="344" y="-302.3" font-family="Times,serif" font-size="14.00">SocketResource</text>
</a>
</g>
</g>
<!-- 1&#45;&gt;5 -->
<g id="edge35" class="edge">
<title>1&#45;&gt;5</title>
<g id="a_edge35"><a xlink:title="usage">
<path fill="none" stroke="#1414ce" d="M364,-287.71C373.85,-278.14 385.08,-265.47 392,-252 429.41,-179.19 393.59,-144.81 431,-72 436.3,-61.69 444.12,-51.84 451.92,-43.5"/>
<polygon fill="#1414ce" stroke="#1414ce" points="454.49,-45.88 459,-36.29 449.5,-40.97 454.49,-45.88"/>
</a>
</g>
</g>
<!-- 1&#45;&gt;2 -->
<g id="edge34" class="edge">
<title>1&#45;&gt;2</title>
<g id="a_edge34"><a xlink:title="usage">
<path fill="none" stroke="#1414ce" d="M339.3,-287.7C337.19,-279.9 334.64,-270.51 332.28,-261.83"/>
<polygon fill="#1414ce" stroke="#1414ce" points="335.64,-260.84 329.64,-252.1 328.88,-262.67 335.64,-260.84"/>
</a>
</g>
</g>
<!-- 10&#45;&gt;14 -->
<g id="edge37" class="edge">
<title>10&#45;&gt;14</title>
<g id="a_edge37"><a xlink:title="usage">
<path fill="none" stroke="#1414ce" d="M1147.62,-287.7C1153.14,-279.47 1159.85,-269.48 1165.93,-260.42"/>
<polygon fill="#1414ce" stroke="#1414ce" points="1168.85,-262.36 1171.52,-252.1 1163.04,-258.46 1168.85,-262.36"/>
</a>
</g>
</g>
<!-- 10&#45;&gt;11 -->
<g id="edge36" class="edge">
<title>10&#45;&gt;11</title>
<g id="a_edge36"><a xlink:title="usage">
<path fill="none" stroke="#1414ce" d="M1126.74,-287.82C1118.09,-269.31 1108.02,-239.35 1119,-216 1124.52,-204.26 1134.07,-194.22 1144.12,-186.15"/>
<polygon fill="#1414ce" stroke="#1414ce" points="1146.31,-188.88 1152.23,-180.09 1142.12,-183.27 1146.31,-188.88"/>
</a>
</g>
</g>
<!-- 4&#45;&gt;5 -->
<g id="edge38" class="edge">
<title>4&#45;&gt;5</title>
<g id="a_edge38"><a xlink:title="usage">
<path fill="none" stroke="#1414ce" d="M479,-71.7C479,-63.98 479,-54.71 479,-46.11"/>
<polygon fill="#1414ce" stroke="#1414ce" points="482.5,-46.1 479,-36.1 475.5,-46.1 482.5,-46.1"/>
</a>
</g>
</g>
<!-- 11&#45;&gt;12 -->
<g id="edge40" class="edge">
<title>11&#45;&gt;12</title>
<g id="a_edge40"><a xlink:title="usage">
<path fill="none" stroke="#1414ce" d="M1183,-143.7C1183,-135.98 1183,-126.71 1183,-118.11"/>
<polygon fill="#1414ce" stroke="#1414ce" points="1186.5,-118.1 1183,-108.1 1179.5,-118.1 1186.5,-118.1"/>
</a>
</g>
</g>
<!-- 11&#45;&gt;11 -->
<g id="edge39" class="edge">
<title>11&#45;&gt;11</title>
<g id="a_edge39"><a xlink:title="usage">
<path fill="none" stroke="#1414ce" d="M1216.35,-175.47C1226.28,-175.07 1234,-170.58 1234,-162 1234,-156.64 1230.98,-152.87 1226.3,-150.71"/>
<polygon fill="#1414ce" stroke="#1414ce" points="1226.87,-147.25 1216.35,-148.53 1225.37,-154.09 1226.87,-147.25"/>
</a>
</g>
</g>
</g>
</svg>
