<?xml version="1.0" encoding="UTF-8" standalone="no"?>
<!DOCTYPE svg PUBLIC "-//W3C//DTD SVG 1.1//EN"
 "http://www.w3.org/Graphics/SVG/1.1/DTD/svg11.dtd">
<!-- Generated by graphviz version 2.43.0 (0)
 -->
<!-- Title: %3 Pages: 1 -->
<svg width="1677pt" height="836pt"
 viewBox="0.00 0.00 1676.50 836.00" xmlns="http://www.w3.org/2000/svg" xmlns:xlink="http://www.w3.org/1999/xlink">
<g id="graph0" class="graph" transform="scale(1 1) rotate(0) translate(4 832)">
<title>%3</title>
<polygon fill="transparent" stroke="transparent" points="-4,4 -4,-832 1672.5,-832 1672.5,4 -4,4"/>
<!-- 4 -->
<g id="node1" class="node">
<title>4</title>
<g id="a_node1"><a xlink:title="stdbool.h">
<polygon fill="#ffffff" stroke="black" points="622.5,-108 539.5,-108 539.5,-72 622.5,-72 622.5,-108"/>
<text text-anchor="middle" x="581" y="-86.3" font-family="Times,serif" font-size="14.00">stdbool.h</text>
</a>
</g>
</g>
<!-- 1 -->
<g id="node2" class="node">
<title>1</title>
<g id="a_node2"><a xlink:title="/__w/AtomVM/AtomVM/src/libAtomVM/refc_binary.c">
<polygon fill="#bfbfbf" stroke="black" points="1528.5,-828 1145.5,-828 1145.5,-792 1528.5,-792 1528.5,-828"/>
<text text-anchor="middle" x="1337" y="-806.3" font-family="Times,serif" font-size="14.00">/__w/AtomVM/AtomVM/src/libAtomVM/refc_binary.c</text>
</a>
</g>
</g>
<!-- 30 -->
<g id="node3" class="node">
<title>30</title>
<g id="a_node3"><a xlink:title="erl_nif_priv.h">
<polygon fill="#ffffff" stroke="black" points="1301,-756 1193,-756 1193,-720 1301,-720 1301,-756"/>
<text text-anchor="middle" x="1247" y="-734.3" font-family="Times,serif" font-size="14.00">erl_nif_priv.h</text>
</a>
</g>
</g>
<!-- 1&#45;&gt;30 -->
<g id="edge5" class="edge">
<title>1&#45;&gt;30</title>
<g id="a_edge5"><a xlink:title="include">
<path fill="none" stroke="#1414ce" d="M1314.75,-791.7C1303.42,-782.88 1289.47,-772.03 1277.18,-762.47"/>
<polygon fill="#1414ce" stroke="#1414ce" points="1279.03,-759.48 1268.99,-756.1 1274.74,-765.01 1279.03,-759.48"/>
</a>
</g>
</g>
<!-- 3 -->
<g id="node4" class="node">
<title>3</title>
<g id="a_node4"><a xlink:title="refc_binary.h">
<polygon fill="#ffffff" stroke="black" points="798,-396 690,-396 690,-360 798,-360 798,-396"/>
<text text-anchor="middle" x="744" y="-374.3" font-family="Times,serif" font-size="14.00">refc_binary.h</text>
</a>
</g>
</g>
<!-- 1&#45;&gt;3 -->
<g id="edge2" class="edge">
<title>1&#45;&gt;3</title>
<g id="a_edge2"><a xlink:title="include">
<path fill="none" stroke="#1414ce" d="M1244.42,-791.96C1136.29,-769.35 972,-725.39 972,-667 972,-667 972,-667 972,-521 972,-480.05 864.71,-428.46 797.33,-400.1"/>
<polygon fill="#1414ce" stroke="#1414ce" points="798.27,-396.7 787.69,-396.09 795.58,-403.16 798.27,-396.7"/>
</a>
</g>
</g>
<!-- 29 -->
<g id="node7" class="node">
<title>29</title>
<g id="a_node7"><a xlink:title="dictionary.h">
<polygon fill="#ffffff" stroke="black" points="868,-540 768,-540 768,-504 868,-504 868,-540"/>
<text text-anchor="middle" x="818" y="-518.3" font-family="Times,serif" font-size="14.00">dictionary.h</text>
</a>
</g>
</g>
<!-- 1&#45;&gt;29 -->
<g id="edge4" class="edge">
<title>1&#45;&gt;29</title>
<g id="a_edge4"><a xlink:title="include">
<path fill="none" stroke="#1414ce" d="M1145.43,-797.43C1068.03,-789.66 989.55,-776.87 958,-756 882.3,-705.93 841.33,-599.59 825.63,-549.78"/>
<polygon fill="#1414ce" stroke="#1414ce" points="828.92,-548.6 822.66,-540.06 822.23,-550.64 828.92,-548.6"/>
</a>
</g>
</g>
<!-- 14 -->
<g id="node8" class="node">
<title>14</title>
<g id="a_node8"><a xlink:title="utils.h">
<polygon fill="#ffffff" stroke="black" points="1157,-180 1095,-180 1095,-144 1157,-144 1157,-180"/>
<text text-anchor="middle" x="1126" y="-158.3" font-family="Times,serif" font-size="14.00">utils.h</text>
</a>
</g>
</g>
<!-- 1&#45;&gt;14 -->
<g id="edge8" class="edge">
<title>1&#45;&gt;14</title>
<g id="a_edge8"><a xlink:title="include">
<path fill="none" stroke="#1414ce" d="M1337,-791.95C1337,-765.29 1337,-712.11 1337,-667 1337,-667 1337,-667 1337,-377 1337,-297.48 1264.58,-308.87 1209,-252 1188.26,-230.77 1165.28,-206.04 1148.78,-188.04"/>
<polygon fill="#1414ce" stroke="#1414ce" points="1151.01,-185.3 1141.68,-180.29 1145.85,-190.03 1151.01,-185.3"/>
</a>
</g>
</g>
<!-- 2 -->
<g id="node12" class="node">
<title>2</title>
<g id="a_node12"><a xlink:title="stdlib.h">
<polygon fill="#ffffff" stroke="black" points="1064.5,-108 993.5,-108 993.5,-72 1064.5,-72 1064.5,-108"/>
<text text-anchor="middle" x="1029" y="-86.3" font-family="Times,serif" font-size="14.00">stdlib.h</text>
</a>
</g>
</g>
<!-- 1&#45;&gt;2 -->
<g id="edge1" class="edge">
<title>1&#45;&gt;2</title>
<g id="a_edge1"><a xlink:title="include">
<path fill="none" stroke="#1414ce" d="M1350.22,-791.86C1387.2,-742.15 1489,-592.46 1489,-451 1489,-451 1489,-451 1489,-233 1489,-180.11 1457.02,-168.23 1410,-144 1279.36,-76.69 1222.55,-139.98 1074.49,-107.66"/>
<polygon fill="#1414ce" stroke="#1414ce" points="1075.13,-104.21 1064.6,-105.39 1073.57,-111.04 1075.13,-104.21"/>
</a>
</g>
</g>
<!-- 19 -->
<g id="node13" class="node">
<title>19</title>
<g id="a_node13"><a xlink:title="context.h">
<polygon fill="#ffffff" stroke="black" points="627.5,-684 544.5,-684 544.5,-648 627.5,-648 627.5,-684"/>
<text text-anchor="middle" x="586" y="-662.3" font-family="Times,serif" font-size="14.00">context.h</text>
</a>
</g>
</g>
<!-- 1&#45;&gt;19 -->
<g id="edge3" class="edge">
<title>1&#45;&gt;19</title>
<g id="a_edge3"><a xlink:title="include">
<path fill="none" stroke="#1414ce" d="M1145.34,-798.58C1053.13,-791 941.48,-778.04 843,-756 768.98,-739.44 686.65,-708.61 635.6,-687.95"/>
<polygon fill="#1414ce" stroke="#1414ce" points="636.71,-684.62 626.12,-684.09 634.06,-691.11 636.71,-684.62"/>
</a>
</g>
</g>
<!-- 13 -->
<g id="node14" class="node">
<title>13</title>
<g id="a_node14"><a xlink:title="memory.h">
<polygon fill="#ffffff" stroke="black" points="1304,-252 1218,-252 1218,-216 1304,-216 1304,-252"/>
<text text-anchor="middle" x="1261" y="-230.3" font-family="Times,serif" font-size="14.00">memory.h</text>
</a>
</g>
</g>
<!-- 1&#45;&gt;13 -->
<g id="edge6" class="edge">
<title>1&#45;&gt;13</title>
<g id="a_edge6"><a xlink:title="include">
<path fill="none" stroke="#1414ce" d="M1380.56,-791.96C1397.26,-783.45 1415.13,-771.58 1427,-756 1451.83,-723.41 1451,-707.97 1451,-667 1451,-667 1451,-667 1451,-449 1451,-368.29 1424.56,-344.58 1367,-288 1351.94,-273.19 1331.91,-261.74 1313.32,-253.33"/>
<polygon fill="#1414ce" stroke="#1414ce" points="1314.62,-250.08 1304.05,-249.33 1311.85,-256.51 1314.62,-250.08"/>
</a>
</g>
</g>
<!-- 31 -->
<g id="node27" class="node">
<title>31</title>
<g id="a_node27"><a xlink:title="tempstack.h">
<polygon fill="#ffffff" stroke="black" points="1583,-756 1479,-756 1479,-720 1583,-720 1583,-756"/>
<text text-anchor="middle" x="1531" y="-734.3" font-family="Times,serif" font-size="14.00">tempstack.h</text>
</a>
</g>
</g>
<!-- 1&#45;&gt;31 -->
<g id="edge7" class="edge">
<title>1&#45;&gt;31</title>
<g id="a_edge7"><a xlink:title="include">
<path fill="none" stroke="#1414ce" d="M1384.46,-791.88C1411.57,-782.09 1445.74,-769.77 1474.26,-759.47"/>
<polygon fill="#1414ce" stroke="#1414ce" points="1475.48,-762.75 1483.7,-756.07 1473.1,-756.17 1475.48,-762.75"/>
</a>
</g>
</g>
<!-- 32 -->
<g id="node29" class="node">
<title>32</title>
<g id="a_node29"><a xlink:title="trace.h">
<polygon fill="#ffffff" stroke="black" points="1668.5,-756 1601.5,-756 1601.5,-720 1668.5,-720 1668.5,-756"/>
<text text-anchor="middle" x="1635" y="-734.3" font-family="Times,serif" font-size="14.00">trace.h</text>
</a>
</g>
</g>
<!-- 1&#45;&gt;32 -->
<g id="edge9" class="edge">
<title>1&#45;&gt;32</title>
<g id="a_edge9"><a xlink:title="include">
<path fill="none" stroke="#1414ce" d="M1438.83,-791.98C1483.34,-783.55 1536.15,-772.2 1591.72,-755.81"/>
<polygon fill="#1414ce" stroke="#1414ce" points="1592.81,-759.14 1601.39,-752.92 1590.81,-752.43 1592.81,-759.14"/>
</a>
</g>
</g>
<!-- 30&#45;&gt;19 -->
<g id="edge10" class="edge">
<title>30&#45;&gt;19</title>
<g id="a_edge10"><a xlink:title="include">
<path fill="none" stroke="#1414ce" d="M1192.91,-731.27C1067.97,-718.04 760.68,-685.5 637.91,-672.5"/>
<polygon fill="#1414ce" stroke="#1414ce" points="637.96,-668.98 627.65,-671.41 637.23,-675.94 637.96,-668.98"/>
</a>
</g>
</g>
<!-- 30&#45;&gt;13 -->
<g id="edge11" class="edge">
<title>30&#45;&gt;13</title>
<g id="a_edge11"><a xlink:title="include">
<path fill="none" stroke="#1414ce" d="M1252.91,-719.98C1271.94,-664.13 1331.53,-481.03 1351,-324 1352.97,-308.12 1358.94,-301.89 1351,-288 1342.58,-273.27 1328.29,-262.22 1313.55,-254.14"/>
<polygon fill="#1414ce" stroke="#1414ce" points="1314.86,-250.88 1304.36,-249.48 1311.69,-257.13 1314.86,-250.88"/>
</a>
</g>
</g>
<!-- 6 -->
<g id="node15" class="node">
<title>6</title>
<g id="a_node15"><a xlink:title="resources.h">
<polygon fill="#ffffff" stroke="black" points="1081,-324 981,-324 981,-288 1081,-288 1081,-324"/>
<text text-anchor="middle" x="1031" y="-302.3" font-family="Times,serif" font-size="14.00">resources.h</text>
</a>
</g>
</g>
<!-- 30&#45;&gt;6 -->
<g id="edge12" class="edge">
<title>30&#45;&gt;6</title>
<g id="a_edge12"><a xlink:title="include">
<path fill="none" stroke="#1414ce" d="M1243.76,-719.58C1239.09,-692.87 1231,-640.15 1231,-595 1231,-595 1231,-595 1231,-521 1231,-430.25 1133.82,-362.03 1074.94,-329.03"/>
<polygon fill="#1414ce" stroke="#1414ce" points="1076.29,-325.78 1065.84,-324.04 1072.92,-331.92 1076.29,-325.78"/>
</a>
</g>
</g>
<!-- 3&#45;&gt;4 -->
<g id="edge13" class="edge">
<title>3&#45;&gt;4</title>
<g id="a_edge13"><a xlink:title="include">
<path fill="none" stroke="#1414ce" d="M760.05,-359.88C785.79,-330.23 831.17,-267.59 808,-216 777.14,-147.28 689.53,-114.98 632.62,-100.85"/>
<polygon fill="#1414ce" stroke="#1414ce" points="633.25,-97.41 622.72,-98.5 631.64,-104.22 633.25,-97.41"/>
</a>
</g>
</g>
<!-- 5 -->
<g id="node10" class="node">
<title>5</title>
<g id="a_node10"><a xlink:title="list.h">
<polygon fill="#ffffff" stroke="black" points="480,-180 426,-180 426,-144 480,-144 480,-180"/>
<text text-anchor="middle" x="453" y="-158.3" font-family="Times,serif" font-size="14.00">list.h</text>
</a>
</g>
</g>
<!-- 3&#45;&gt;5 -->
<g id="edge15" class="edge">
<title>3&#45;&gt;5</title>
<g id="a_edge15"><a xlink:title="include">
<path fill="none" stroke="#1414ce" d="M689.78,-363.74C631.88,-346.94 541.05,-312.61 486,-252 470.29,-234.71 461.86,-209.28 457.47,-190.02"/>
<polygon fill="#1414ce" stroke="#1414ce" points="460.86,-189.15 455.42,-180.05 454,-190.55 460.86,-189.15"/>
</a>
</g>
</g>
<!-- 3&#45;&gt;2 -->
<g id="edge14" class="edge">
<title>3&#45;&gt;2</title>
<g id="a_edge14"><a xlink:title="include">
<path fill="none" stroke="#1414ce" d="M767.34,-359.91C780.54,-349.9 797.14,-336.76 811,-324 887.97,-253.16 970,-160.06 1007.75,-116.07"/>
<polygon fill="#1414ce" stroke="#1414ce" points="1010.64,-118.08 1014.48,-108.2 1005.32,-113.53 1010.64,-118.08"/>
</a>
</g>
</g>
<!-- 3&#45;&gt;6 -->
<g id="edge16" class="edge">
<title>3&#45;&gt;6</title>
<g id="a_edge16"><a xlink:title="include">
<path fill="none" stroke="#1414ce" d="M798.26,-362.2C801.21,-361.45 804.14,-360.71 807,-360 877.76,-342.5 896.21,-341.36 967,-324 968.26,-323.69 969.53,-323.38 970.8,-323.06"/>
<polygon fill="#1414ce" stroke="#1414ce" points="971.9,-326.39 980.74,-320.55 970.18,-319.61 971.9,-326.39"/>
</a>
</g>
</g>
<!-- 21 -->
<g id="node5" class="node">
<title>21</title>
<g id="a_node5"><a xlink:title="atom.h">
<polygon fill="#ffffff" stroke="black" points="166,-180 100,-180 100,-144 166,-144 166,-180"/>
<text text-anchor="middle" x="133" y="-158.3" font-family="Times,serif" font-size="14.00">atom.h</text>
</a>
</g>
</g>
<!-- 12 -->
<g id="node11" class="node">
<title>12</title>
<g id="a_node11"><a xlink:title="stdint.h">
<polygon fill="#ffffff" stroke="black" points="774,-36 702,-36 702,0 774,0 774,-36"/>
<text text-anchor="middle" x="738" y="-14.3" font-family="Times,serif" font-size="14.00">stdint.h</text>
</a>
</g>
</g>
<!-- 21&#45;&gt;12 -->
<g id="edge17" class="edge">
<title>21&#45;&gt;12</title>
<g id="a_edge17"><a xlink:title="include">
<path fill="none" stroke="#1414ce" d="M156.24,-143.97C185.89,-123.2 239.52,-88.8 291,-72 431.88,-26.01 609.33,-19.08 691.86,-18.57"/>
<polygon fill="#1414ce" stroke="#1414ce" points="691.93,-22.07 701.92,-18.54 691.91,-15.07 691.93,-22.07"/>
</a>
</g>
</g>
<!-- 21&#45;&gt;2 -->
<g id="edge18" class="edge">
<title>21&#45;&gt;2</title>
<g id="a_edge18"><a xlink:title="include">
<path fill="none" stroke="#1414ce" d="M166.01,-159.03C314.63,-150.12 916.3,-113.86 956,-108 964.89,-106.69 974.29,-104.85 983.28,-102.86"/>
<polygon fill="#1414ce" stroke="#1414ce" points="984.25,-106.23 993.21,-100.57 982.68,-99.41 984.25,-106.23"/>
</a>
</g>
</g>
<!-- 9 -->
<g id="node6" class="node">
<title>9</title>
<g id="a_node6"><a xlink:title="assert.h">
<polygon fill="#ffffff" stroke="black" points="1489,-36 1415,-36 1415,0 1489,0 1489,-36"/>
<text text-anchor="middle" x="1452" y="-14.3" font-family="Times,serif" font-size="14.00">assert.h</text>
</a>
</g>
</g>
<!-- 29&#45;&gt;5 -->
<g id="edge19" class="edge">
<title>29&#45;&gt;5</title>
<g id="a_edge19"><a xlink:title="include">
<path fill="none" stroke="#1414ce" d="M786.87,-503.91C731,-472.44 611.37,-401.42 524,-324 492.39,-295.99 478.67,-290.8 462,-252 453.63,-232.53 451.63,-208.53 451.58,-190.36"/>
<polygon fill="#1414ce" stroke="#1414ce" points="455.08,-190.21 451.76,-180.15 448.09,-190.09 455.08,-190.21"/>
</a>
</g>
</g>
<!-- 24 -->
<g id="node16" class="node">
<title>24</title>
<g id="a_node16"><a xlink:title="term.h">
<polygon fill="#ffffff" stroke="black" points="1065.5,-468 1000.5,-468 1000.5,-432 1065.5,-432 1065.5,-468"/>
<text text-anchor="middle" x="1033" y="-446.3" font-family="Times,serif" font-size="14.00">term.h</text>
</a>
</g>
</g>
<!-- 29&#45;&gt;24 -->
<g id="edge20" class="edge">
<title>29&#45;&gt;24</title>
<g id="a_edge20"><a xlink:title="include">
<path fill="none" stroke="#1414ce" d="M868.14,-504.68C905.18,-492.62 955.07,-476.37 990.24,-464.92"/>
<polygon fill="#1414ce" stroke="#1414ce" points="991.77,-468.1 1000.2,-461.68 989.6,-461.45 991.77,-468.1"/>
</a>
</g>
</g>
<!-- 14&#45;&gt;2 -->
<g id="edge23" class="edge">
<title>14&#45;&gt;2</title>
<g id="a_edge23"><a xlink:title="include">
<path fill="none" stroke="#1414ce" d="M1102.02,-143.7C1089.69,-134.8 1074.48,-123.82 1061.15,-114.2"/>
<polygon fill="#1414ce" stroke="#1414ce" points="1062.86,-111.12 1052.7,-108.1 1058.76,-116.79 1062.86,-111.12"/>
</a>
</g>
</g>
<!-- 15 -->
<g id="node17" class="node">
<title>15</title>
<g id="a_node17"><a xlink:title="stddef.h">
<polygon fill="#ffffff" stroke="black" points="1157,-108 1083,-108 1083,-72 1157,-72 1157,-108"/>
<text text-anchor="middle" x="1120" y="-86.3" font-family="Times,serif" font-size="14.00">stddef.h</text>
</a>
</g>
</g>
<!-- 14&#45;&gt;15 -->
<g id="edge21" class="edge">
<title>14&#45;&gt;15</title>
<g id="a_edge21"><a xlink:title="include">
<path fill="none" stroke="#1414ce" d="M1124.52,-143.7C1123.86,-135.98 1123.06,-126.71 1122.32,-118.11"/>
<polygon fill="#1414ce" stroke="#1414ce" points="1125.81,-117.77 1121.47,-108.1 1118.83,-118.37 1125.81,-117.77"/>
</a>
</g>
</g>
<!-- 16 -->
<g id="node30" class="node">
<title>16</title>
<g id="a_node30"><a xlink:title="stdio.h">
<polygon fill="#ffffff" stroke="black" points="947.5,-108 882.5,-108 882.5,-72 947.5,-72 947.5,-108"/>
<text text-anchor="middle" x="915" y="-86.3" font-family="Times,serif" font-size="14.00">stdio.h</text>
</a>
</g>
</g>
<!-- 14&#45;&gt;16 -->
<g id="edge22" class="edge">
<title>14&#45;&gt;16</title>
<g id="a_edge22"><a xlink:title="include">
<path fill="none" stroke="#1414ce" d="M1094.87,-150.67C1058.44,-138.59 997.93,-118.51 957.28,-105.03"/>
<polygon fill="#1414ce" stroke="#1414ce" points="958.24,-101.66 947.65,-101.83 956.04,-108.3 958.24,-101.66"/>
</a>
</g>
</g>
<!-- 17 -->
<g id="node9" class="node">
<title>17</title>
<g id="a_node9"><a xlink:title="synclist.h">
<polygon fill="#ffffff" stroke="black" points="765.5,-252 680.5,-252 680.5,-216 765.5,-216 765.5,-252"/>
<text text-anchor="middle" x="723" y="-230.3" font-family="Times,serif" font-size="14.00">synclist.h</text>
</a>
</g>
</g>
<!-- 17&#45;&gt;5 -->
<g id="edge25" class="edge">
<title>17&#45;&gt;5</title>
<g id="a_edge25"><a xlink:title="include">
<path fill="none" stroke="#1414ce" d="M680.22,-221.91C627.77,-208.31 539.76,-185.49 490.07,-172.61"/>
<polygon fill="#1414ce" stroke="#1414ce" points="490.93,-169.22 480.37,-170.1 489.17,-175.99 490.93,-169.22"/>
</a>
</g>
</g>
<!-- 18 -->
<g id="node25" class="node">
<title>18</title>
<g id="a_node25"><a xlink:title="smp.h">
<polygon fill="#ffffff" stroke="black" points="718,-180 658,-180 658,-144 718,-144 718,-180"/>
<text text-anchor="middle" x="688" y="-158.3" font-family="Times,serif" font-size="14.00">smp.h</text>
</a>
</g>
</g>
<!-- 17&#45;&gt;18 -->
<g id="edge26" class="edge">
<title>17&#45;&gt;18</title>
<g id="a_edge26"><a xlink:title="include">
<path fill="none" stroke="#1414ce" d="M714.35,-215.7C710.36,-207.73 705.55,-198.1 701.13,-189.26"/>
<polygon fill="#1414ce" stroke="#1414ce" points="704.15,-187.48 696.55,-180.1 697.89,-190.61 704.15,-187.48"/>
</a>
</g>
</g>
<!-- 17&#45;&gt;16 -->
<g id="edge24" class="edge">
<title>17&#45;&gt;16</title>
<g id="a_edge24"><a xlink:title="include">
<path fill="none" stroke="#1414ce" d="M746.16,-215.87C780.47,-190.5 844.89,-142.85 883.47,-114.32"/>
<polygon fill="#1414ce" stroke="#1414ce" points="885.8,-116.95 891.76,-108.19 881.64,-111.32 885.8,-116.95"/>
</a>
</g>
</g>
<!-- 5&#45;&gt;4 -->
<g id="edge27" class="edge">
<title>5&#45;&gt;4</title>
<g id="a_edge27"><a xlink:title="include">
<path fill="none" stroke="#1414ce" d="M480.15,-146.15C497.84,-136.48 521.23,-123.69 541.03,-112.86"/>
<polygon fill="#1414ce" stroke="#1414ce" points="542.75,-115.91 549.84,-108.04 539.39,-109.77 542.75,-115.91"/>
</a>
</g>
</g>
<!-- 19&#45;&gt;5 -->
<g id="edge29" class="edge">
<title>19&#45;&gt;5</title>
<g id="a_edge29"><a xlink:title="include">
<path fill="none" stroke="#1414ce" d="M544.4,-665.34C500.51,-663.36 432.38,-653.19 393,-612 292.36,-506.73 318.89,-431.46 344,-288 349.87,-254.49 348.75,-242.57 370,-216 382.32,-200.6 400.39,-188.31 416.53,-179.47"/>
<polygon fill="#1414ce" stroke="#1414ce" points="418.5,-182.38 425.75,-174.66 415.26,-176.18 418.5,-182.38"/>
</a>
</g>
</g>
<!-- 19&#45;&gt;24 -->
<g id="edge32" class="edge">
<title>19&#45;&gt;24</title>
<g id="a_edge32"><a xlink:title="include">
<path fill="none" stroke="#1414ce" d="M627.6,-653.12C691.31,-634.04 815.88,-593.26 913,-540 946.97,-521.37 982.16,-494.17 1005.57,-474.76"/>
<polygon fill="#1414ce" stroke="#1414ce" points="1007.93,-477.35 1013.34,-468.24 1003.43,-471.98 1007.93,-477.35"/>
</a>
</g>
</g>
<!-- 20 -->
<g id="node24" class="node">
<title>20</title>
<g id="a_node24"><a xlink:title="globalcontext.h">
<polygon fill="#ffffff" stroke="black" points="554.5,-612 427.5,-612 427.5,-576 554.5,-576 554.5,-612"/>
<text text-anchor="middle" x="491" y="-590.3" font-family="Times,serif" font-size="14.00">globalcontext.h</text>
</a>
</g>
</g>
<!-- 19&#45;&gt;20 -->
<g id="edge28" class="edge">
<title>19&#45;&gt;20</title>
<g id="a_edge28"><a xlink:title="include">
<path fill="none" stroke="#1414ce" d="M562.52,-647.7C550.44,-638.8 535.55,-627.82 522.48,-618.2"/>
<polygon fill="#1414ce" stroke="#1414ce" points="524.34,-615.22 514.21,-612.1 520.19,-620.85 524.34,-615.22"/>
</a>
</g>
</g>
<!-- 19&#45;&gt;18 -->
<g id="edge31" class="edge">
<title>19&#45;&gt;18</title>
<g id="a_edge31"><a xlink:title="include">
<path fill="none" stroke="#1414ce" d="M602.49,-647.77C624.84,-622.53 662,-573.05 662,-523 662,-523 662,-523 662,-449 662,-408.55 663.02,-396.23 681,-360 709.16,-303.26 751.96,-311.38 774,-252 779.57,-237 781.8,-229.97 774,-216 763.97,-198.04 745.08,-185.41 727.56,-177"/>
<polygon fill="#1414ce" stroke="#1414ce" points="728.58,-173.63 718.02,-172.75 725.73,-180.02 728.58,-173.63"/>
</a>
</g>
</g>
<!-- 28 -->
<g id="node26" class="node">
<title>28</title>
<g id="a_node26"><a xlink:title="timer_list.h">
<polygon fill="#ffffff" stroke="black" points="292,-252 194,-252 194,-216 292,-216 292,-252"/>
<text text-anchor="middle" x="243" y="-230.3" font-family="Times,serif" font-size="14.00">timer_list.h</text>
</a>
</g>
</g>
<!-- 19&#45;&gt;28 -->
<g id="edge33" class="edge">
<title>19&#45;&gt;28</title>
<g id="a_edge33"><a xlink:title="include">
<path fill="none" stroke="#1414ce" d="M544.48,-662.69C450.52,-657.03 224.29,-640.75 154,-612 93.85,-587.4 38,-587.98 38,-523 38,-523 38,-523 38,-377 38,-338.78 135.51,-285.74 196.03,-256.5"/>
<polygon fill="#1414ce" stroke="#1414ce" points="197.89,-259.49 205.4,-252.01 194.87,-253.17 197.89,-259.49"/>
</a>
</g>
</g>
<!-- 27 -->
<g id="node28" class="node">
<title>27</title>
<g id="a_node28"><a xlink:title="mailbox.h">
<polygon fill="#ffffff" stroke="black" points="624,-252 538,-252 538,-216 624,-216 624,-252"/>
<text text-anchor="middle" x="581" y="-230.3" font-family="Times,serif" font-size="14.00">mailbox.h</text>
</a>
</g>
</g>
<!-- 19&#45;&gt;27 -->
<g id="edge30" class="edge">
<title>19&#45;&gt;27</title>
<g id="a_edge30"><a xlink:title="include">
<path fill="none" stroke="#1414ce" d="M544.3,-664.83C504.6,-662.17 446.75,-651.22 418,-612 329.57,-491.37 420.25,-408.4 509,-288 517.6,-276.34 529.5,-266.13 541.15,-257.88"/>
<polygon fill="#1414ce" stroke="#1414ce" points="543.21,-260.71 549.54,-252.21 539.29,-254.91 543.21,-260.71"/>
</a>
</g>
</g>
<!-- 13&#45;&gt;14 -->
<g id="edge38" class="edge">
<title>13&#45;&gt;14</title>
<g id="a_edge38"><a xlink:title="include">
<path fill="none" stroke="#1414ce" d="M1227.98,-215.88C1209.38,-206.23 1186,-194.11 1166.33,-183.91"/>
<polygon fill="#1414ce" stroke="#1414ce" points="1167.78,-180.72 1157.29,-179.23 1164.56,-186.94 1167.78,-180.72"/>
</a>
</g>
</g>
<!-- 13&#45;&gt;12 -->
<g id="edge34" class="edge">
<title>13&#45;&gt;12</title>
<g id="a_edge34"><a xlink:title="include">
<path fill="none" stroke="#1414ce" d="M1259.96,-215.76C1256.92,-182.07 1245.06,-107.66 1199,-72 1135.1,-22.53 888.26,-18.05 784.43,-18.42"/>
<polygon fill="#1414ce" stroke="#1414ce" points="784.23,-14.92 774.25,-18.48 784.27,-21.92 784.23,-14.92"/>
</a>
</g>
</g>
<!-- 13&#45;&gt;2 -->
<g id="edge35" class="edge">
<title>13&#45;&gt;2</title>
<g id="a_edge35"><a xlink:title="include">
<path fill="none" stroke="#1414ce" d="M1246.44,-215.84C1229.02,-196.22 1198.15,-164.2 1166,-144 1163.89,-142.67 1113.32,-123.22 1074.22,-108.26"/>
<polygon fill="#1414ce" stroke="#1414ce" points="1075.16,-104.87 1064.57,-104.57 1072.66,-111.41 1075.16,-104.87"/>
</a>
</g>
</g>
<!-- 7 -->
<g id="node18" class="node">
<title>7</title>
<g id="a_node18"><a xlink:title="erl_nif.h">
<polygon fill="#ffffff" stroke="black" points="1401,-180 1327,-180 1327,-144 1401,-144 1401,-180"/>
<text text-anchor="middle" x="1364" y="-158.3" font-family="Times,serif" font-size="14.00">erl_nif.h</text>
</a>
</g>
</g>
<!-- 13&#45;&gt;7 -->
<g id="edge36" class="edge">
<title>13&#45;&gt;7</title>
<g id="a_edge36"><a xlink:title="include">
<path fill="none" stroke="#1414ce" d="M1286.2,-215.88C1299.41,-206.89 1315.79,-195.76 1330.11,-186.03"/>
<polygon fill="#1414ce" stroke="#1414ce" points="1332.4,-188.71 1338.71,-180.19 1328.47,-182.92 1332.4,-188.71"/>
</a>
</g>
</g>
<!-- 8 -->
<g id="node23" class="node">
<title>8</title>
<g id="a_node23"><a xlink:title="term_typedef.h">
<polygon fill="#ffffff" stroke="black" points="1414.5,-108 1289.5,-108 1289.5,-72 1414.5,-72 1414.5,-108"/>
<text text-anchor="middle" x="1352" y="-86.3" font-family="Times,serif" font-size="14.00">term_typedef.h</text>
</a>
</g>
</g>
<!-- 13&#45;&gt;8 -->
<g id="edge37" class="edge">
<title>13&#45;&gt;8</title>
<g id="a_edge37"><a xlink:title="include">
<path fill="none" stroke="#1414ce" d="M1271.92,-215.94C1283.39,-198.02 1301.96,-169.03 1318,-144 1323.69,-135.12 1329.92,-125.41 1335.48,-116.75"/>
<polygon fill="#1414ce" stroke="#1414ce" points="1338.52,-118.49 1340.97,-108.18 1332.63,-114.71 1338.52,-118.49"/>
</a>
</g>
</g>
<!-- 6&#45;&gt;17 -->
<g id="edge43" class="edge">
<title>6&#45;&gt;17</title>
<g id="a_edge43"><a xlink:title="include">
<path fill="none" stroke="#1414ce" d="M980.83,-293.6C924.39,-280.77 833.11,-260.03 775.67,-246.97"/>
<polygon fill="#1414ce" stroke="#1414ce" points="776.23,-243.51 765.7,-244.7 774.68,-250.33 776.23,-243.51"/>
</a>
</g>
</g>
<!-- 6&#45;&gt;5 -->
<g id="edge41" class="edge">
<title>6&#45;&gt;5</title>
<g id="a_edge41"><a xlink:title="include">
<path fill="none" stroke="#1414ce" d="M980.99,-304.37C869.98,-302.23 606.64,-292.88 529,-252 502.06,-237.82 480.62,-209.75 467.47,-188.91"/>
<polygon fill="#1414ce" stroke="#1414ce" points="470.37,-186.93 462.19,-180.2 464.38,-190.56 470.37,-186.93"/>
</a>
</g>
</g>
<!-- 6&#45;&gt;2 -->
<g id="edge39" class="edge">
<title>6&#45;&gt;2</title>
<g id="a_edge39"><a xlink:title="include">
<path fill="none" stroke="#1414ce" d="M1026.67,-287.57C1019.89,-257.99 1008.24,-196.09 1015,-144 1016.1,-135.51 1018.16,-126.43 1020.37,-118.24"/>
<polygon fill="#1414ce" stroke="#1414ce" points="1023.78,-119.02 1023.18,-108.44 1017.05,-117.09 1023.78,-119.02"/>
</a>
</g>
</g>
<!-- 6&#45;&gt;13 -->
<g id="edge42" class="edge">
<title>6&#45;&gt;13</title>
<g id="a_edge42"><a xlink:title="include">
<path fill="none" stroke="#1414ce" d="M1081.19,-289.72C1118.68,-278.31 1169.82,-262.75 1207.98,-251.14"/>
<polygon fill="#1414ce" stroke="#1414ce" points="1209.33,-254.38 1217.88,-248.12 1207.29,-247.69 1209.33,-254.38"/>
</a>
</g>
</g>
<!-- 6&#45;&gt;7 -->
<g id="edge40" class="edge">
<title>6&#45;&gt;7</title>
<g id="a_edge40"><a xlink:title="include">
<path fill="none" stroke="#1414ce" d="M1081.14,-300.63C1151.89,-293.63 1276.46,-277.98 1313,-252 1334.23,-236.9 1347.85,-210 1355.63,-189.71"/>
<polygon fill="#1414ce" stroke="#1414ce" points="1359,-190.68 1359.07,-180.08 1352.41,-188.32 1359,-190.68"/>
</a>
</g>
</g>
<!-- 24&#45;&gt;4 -->
<g id="edge45" class="edge">
<title>24&#45;&gt;4</title>
<g id="a_edge45"><a xlink:title="include">
<path fill="none" stroke="#1414ce" d="M1033.23,-431.85C1032.63,-412.52 1028.99,-381.06 1013,-360 992.56,-333.08 972.81,-344.59 946,-324 858.97,-257.16 871.09,-200.47 777,-144 732.42,-117.25 674.14,-103.73 632.75,-97.07"/>
<polygon fill="#1414ce" stroke="#1414ce" points="633.03,-93.57 622.61,-95.53 631.97,-100.49 633.03,-93.57"/>
</a>
</g>
</g>
<!-- 24&#45;&gt;3 -->
<g id="edge51" class="edge">
<title>24&#45;&gt;3</title>
<g id="a_edge51"><a xlink:title="include">
<path fill="none" stroke="#1414ce" d="M1000.33,-436.48C995.56,-434.86 990.68,-433.31 986,-432 910.9,-410.99 887.79,-414.27 808.23,-396.19"/>
<polygon fill="#1414ce" stroke="#1414ce" points="808.77,-392.72 798.24,-393.88 807.19,-399.54 808.77,-392.72"/>
</a>
</g>
</g>
<!-- 24&#45;&gt;14 -->
<g id="edge52" class="edge">
<title>24&#45;&gt;14</title>
<g id="a_edge52"><a xlink:title="include">
<path fill="none" stroke="#1414ce" d="M1065.63,-439.04C1086,-430.96 1110.62,-417.33 1123,-396 1142.8,-361.87 1134.17,-244.48 1128.94,-190.52"/>
<polygon fill="#1414ce" stroke="#1414ce" points="1132.39,-189.92 1127.91,-180.32 1125.43,-190.62 1132.39,-189.92"/>
</a>
</g>
</g>
<!-- 24&#45;&gt;12 -->
<g id="edge46" class="edge">
<title>24&#45;&gt;12</title>
<g id="a_edge46"><a xlink:title="include">
<path fill="none" stroke="#1414ce" d="M1065.69,-441.92C1090.53,-434.74 1123.35,-420.99 1141,-396 1182.66,-337.01 1213.82,-126.11 1166,-72 1140.99,-43.7 889.5,-27.08 784.1,-21.32"/>
<polygon fill="#1414ce" stroke="#1414ce" points="784.24,-17.82 774.07,-20.78 783.86,-24.81 784.24,-17.82"/>
</a>
</g>
</g>
<!-- 24&#45;&gt;2 -->
<g id="edge48" class="edge">
<title>24&#45;&gt;2</title>
<g id="a_edge48"><a xlink:title="include">
<path fill="none" stroke="#1414ce" d="M1056.06,-431.96C1066.83,-422.64 1078.66,-410.11 1085,-396 1098.16,-366.74 1088.89,-356.06 1090,-324 1090.55,-308.01 1092.39,-303.82 1090,-288 1080.53,-225.39 1055.03,-155.26 1040.17,-117.88"/>
<polygon fill="#1414ce" stroke="#1414ce" points="1043.27,-116.21 1036.28,-108.24 1036.77,-118.83 1043.27,-116.21"/>
</a>
</g>
</g>
<!-- 24&#45;&gt;13 -->
<g id="edge50" class="edge">
<title>24&#45;&gt;13</title>
<g id="a_edge50"><a xlink:title="include">
<path fill="none" stroke="#1414ce" d="M1065.58,-446.84C1102.45,-442.73 1162.14,-430.77 1199,-396 1237.11,-360.06 1252.09,-298.07 1257.75,-262.41"/>
<polygon fill="#1414ce" stroke="#1414ce" points="1261.25,-262.65 1259.22,-252.25 1254.33,-261.64 1261.25,-262.65"/>
</a>
</g>
</g>
<!-- 25 -->
<g id="node21" class="node">
<title>25</title>
<g id="a_node21"><a xlink:title="sys/types.h">
<polygon fill="#ffffff" stroke="black" points="913.5,-396 816.5,-396 816.5,-360 913.5,-360 913.5,-396"/>
<text text-anchor="middle" x="865" y="-374.3" font-family="Times,serif" font-size="14.00">sys/types.h</text>
</a>
</g>
</g>
<!-- 24&#45;&gt;25 -->
<g id="edge44" class="edge">
<title>24&#45;&gt;25</title>
<g id="a_edge44"><a xlink:title="include">
<path fill="none" stroke="#1414ce" d="M1000.21,-435.34C976.12,-425.3 942.95,-411.48 915.49,-400.04"/>
<polygon fill="#1414ce" stroke="#1414ce" points="916.62,-396.71 906.04,-396.1 913.92,-403.18 916.62,-396.71"/>
</a>
</g>
</g>
<!-- 26 -->
<g id="node22" class="node">
<title>26</title>
<g id="a_node22"><a xlink:title="string.h">
<polygon fill="#ffffff" stroke="black" points="1004.5,-396 931.5,-396 931.5,-360 1004.5,-360 1004.5,-396"/>
<text text-anchor="middle" x="968" y="-374.3" font-family="Times,serif" font-size="14.00">string.h</text>
</a>
</g>
</g>
<!-- 24&#45;&gt;26 -->
<g id="edge49" class="edge">
<title>24&#45;&gt;26</title>
<g id="a_edge49"><a xlink:title="include">
<path fill="none" stroke="#1414ce" d="M1016.93,-431.7C1009.06,-423.22 999.44,-412.86 990.83,-403.58"/>
<polygon fill="#1414ce" stroke="#1414ce" points="993.25,-401.05 983.88,-396.1 988.12,-405.81 993.25,-401.05"/>
</a>
</g>
</g>
<!-- 24&#45;&gt;8 -->
<g id="edge53" class="edge">
<title>24&#45;&gt;8</title>
<g id="a_edge53"><a xlink:title="include">
<path fill="none" stroke="#1414ce" d="M1065.77,-445.94C1106.19,-440.9 1175.72,-427.99 1226,-396 1332.4,-328.31 1366.43,-298.34 1410,-180 1415.53,-164.99 1416.45,-158.64 1410,-144 1405.01,-132.69 1396.29,-122.74 1387.1,-114.62"/>
<polygon fill="#1414ce" stroke="#1414ce" points="1389.28,-111.88 1379.34,-108.23 1384.83,-117.28 1389.28,-111.88"/>
</a>
</g>
</g>
<!-- 24&#45;&gt;16 -->
<g id="edge47" class="edge">
<title>24&#45;&gt;16</title>
<g id="a_edge47"><a xlink:title="include">
<path fill="none" stroke="#1414ce" d="M1042.1,-431.88C1050.84,-412.87 1060.83,-381.98 1047,-360 1027.31,-328.71 995.3,-352.71 972,-324 922.47,-262.94 914.99,-165.22 914.48,-118.12"/>
<polygon fill="#1414ce" stroke="#1414ce" points="917.98,-118.07 914.47,-108.08 910.98,-118.08 917.98,-118.07"/>
</a>
</g>
</g>
<!-- 7&#45;&gt;8 -->
<g id="edge54" class="edge">
<title>7&#45;&gt;8</title>
<g id="a_edge54"><a xlink:title="include">
<path fill="none" stroke="#1414ce" d="M1361.03,-143.7C1359.71,-135.98 1358.12,-126.71 1356.65,-118.11"/>
<polygon fill="#1414ce" stroke="#1414ce" points="1360.07,-117.37 1354.93,-108.1 1353.17,-118.55 1360.07,-117.37"/>
</a>
</g>
</g>
<!-- 10 -->
<g id="node19" class="node">
<title>10</title>
<g id="a_node19"><a xlink:title="limits.h">
<polygon fill="#ffffff" stroke="black" points="1289.5,-36 1218.5,-36 1218.5,0 1289.5,0 1289.5,-36"/>
<text text-anchor="middle" x="1254" y="-14.3" font-family="Times,serif" font-size="14.00">limits.h</text>
</a>
</g>
</g>
<!-- 22 -->
<g id="node20" class="node">
<title>22</title>
<g id="a_node20"><a xlink:title="atom_table.h">
<polygon fill="#ffffff" stroke="black" points="175.5,-252 66.5,-252 66.5,-216 175.5,-216 175.5,-252"/>
<text text-anchor="middle" x="121" y="-230.3" font-family="Times,serif" font-size="14.00">atom_table.h</text>
</a>
</g>
</g>
<!-- 22&#45;&gt;4 -->
<g id="edge55" class="edge">
<title>22&#45;&gt;4</title>
<g id="a_edge55"><a xlink:title="include">
<path fill="none" stroke="#1414ce" d="M157.68,-215.95C200.8,-196.43 274.89,-164.51 341,-144 404.73,-124.22 480.15,-108.83 529.2,-99.85"/>
<polygon fill="#1414ce" stroke="#1414ce" points="530.04,-103.25 539.26,-98.03 528.79,-96.37 530.04,-103.25"/>
</a>
</g>
</g>
<!-- 22&#45;&gt;21 -->
<g id="edge56" class="edge">
<title>22&#45;&gt;21</title>
<g id="a_edge56"><a xlink:title="include">
<path fill="none" stroke="#1414ce" d="M123.97,-215.7C125.29,-207.98 126.88,-198.71 128.35,-190.11"/>
<polygon fill="#1414ce" stroke="#1414ce" points="131.83,-190.55 130.07,-180.1 124.93,-189.37 131.83,-190.55"/>
</a>
</g>
</g>
<!-- 8&#45;&gt;9 -->
<g id="edge57" class="edge">
<title>8&#45;&gt;9</title>
<g id="a_edge57"><a xlink:title="include">
<path fill="none" stroke="#1414ce" d="M1376.46,-71.88C1389.3,-62.89 1405.2,-51.76 1419.09,-42.03"/>
<polygon fill="#1414ce" stroke="#1414ce" points="1421.26,-44.79 1427.44,-36.19 1417.24,-39.06 1421.26,-44.79"/>
</a>
</g>
</g>
<!-- 8&#45;&gt;12 -->
<g id="edge60" class="edge">
<title>8&#45;&gt;12</title>
<g id="a_edge60"><a xlink:title="include">
<path fill="none" stroke="#1414ce" d="M1289.08,-74.47C1284.33,-73.57 1279.6,-72.73 1275,-72 1094.6,-43.29 877.48,-27.57 784.23,-21.7"/>
<polygon fill="#1414ce" stroke="#1414ce" points="784.21,-18.2 774.01,-21.07 783.77,-25.18 784.21,-18.2"/>
</a>
</g>
</g>
<!-- 8&#45;&gt;10 -->
<g id="edge58" class="edge">
<title>8&#45;&gt;10</title>
<g id="a_edge58"><a xlink:title="include">
<path fill="none" stroke="#1414ce" d="M1328.03,-71.88C1315.45,-62.89 1299.87,-51.76 1286.25,-42.03"/>
<polygon fill="#1414ce" stroke="#1414ce" points="1288.24,-39.15 1278.07,-36.19 1284.17,-44.85 1288.24,-39.15"/>
</a>
</g>
</g>
<!-- 11 -->
<g id="node32" class="node">
<title>11</title>
<g id="a_node32"><a xlink:title="inttypes.h">
<polygon fill="#ffffff" stroke="black" points="1396.5,-36 1307.5,-36 1307.5,0 1396.5,0 1396.5,-36"/>
<text text-anchor="middle" x="1352" y="-14.3" font-family="Times,serif" font-size="14.00">inttypes.h</text>
</a>
</g>
</g>
<!-- 8&#45;&gt;11 -->
<g id="edge59" class="edge">
<title>8&#45;&gt;11</title>
<g id="a_edge59"><a xlink:title="include">
<path fill="none" stroke="#1414ce" d="M1352,-71.7C1352,-63.98 1352,-54.71 1352,-46.11"/>
<polygon fill="#1414ce" stroke="#1414ce" points="1355.5,-46.1 1352,-36.1 1348.5,-46.1 1355.5,-46.1"/>
</a>
</g>
</g>
<!-- 20&#45;&gt;21 -->
<g id="edge62" class="edge">
<title>20&#45;&gt;21</title>
<g id="a_edge62"><a xlink:title="include">
<path fill="none" stroke="#1414ce" d="M427.42,-590.36C378.57,-585.63 311.34,-573.02 262,-540 131.43,-452.61 104.83,-401.66 57,-252 52.13,-236.76 49.6,-230.19 57,-216 64.45,-201.73 77.69,-190.51 91.05,-182.15"/>
<polygon fill="#1414ce" stroke="#1414ce" points="92.91,-185.12 99.79,-177.06 89.39,-179.07 92.91,-185.12"/>
</a>
</g>
</g>
<!-- 20&#45;&gt;17 -->
<g id="edge69" class="edge">
<title>20&#45;&gt;17</title>
<g id="a_edge69"><a xlink:title="include">
<path fill="none" stroke="#1414ce" d="M551.05,-575.98C570.09,-567.89 589.63,-556.3 603,-540 655.29,-476.24 616.44,-436.19 648,-360 663.09,-323.56 687.61,-285.16 704.48,-260.69"/>
<polygon fill="#1414ce" stroke="#1414ce" points="707.46,-262.54 710.32,-252.33 701.72,-258.53 707.46,-262.54"/>
</a>
</g>
</g>
<!-- 20&#45;&gt;5 -->
<g id="edge66" class="edge">
<title>20&#45;&gt;5</title>
<g id="a_edge66"><a xlink:title="include">
<path fill="none" stroke="#1414ce" d="M457.44,-575.93C418.04,-553.23 358,-509.1 358,-451 358,-451 358,-451 358,-305 358,-257.01 395.94,-212.96 423.87,-187.04"/>
<polygon fill="#1414ce" stroke="#1414ce" points="426.35,-189.52 431.44,-180.22 421.67,-184.31 426.35,-189.52"/>
</a>
</g>
</g>
<!-- 20&#45;&gt;12 -->
<g id="edge61" class="edge">
<title>20&#45;&gt;12</title>
<g id="a_edge61"><a xlink:title="include">
<path fill="none" stroke="#1414ce" d="M427.38,-591.29C368.13,-587.39 278.85,-575.47 210,-540 146.39,-507.23 0,-315.41 0,-307 0,-307 0,-307 0,-161 0,-59.22 112.38,-97.15 211,-72 384.52,-27.75 599.01,-20.15 691.73,-19.05"/>
<polygon fill="#1414ce" stroke="#1414ce" points="691.93,-22.55 701.89,-18.95 691.86,-15.55 691.93,-22.55"/>
</a>
</g>
</g>
<!-- 20&#45;&gt;24 -->
<g id="edge70" class="edge">
<title>20&#45;&gt;24</title>
<g id="a_edge70"><a xlink:title="include">
<path fill="none" stroke="#1414ce" d="M554.62,-588.55C648.89,-581.24 820.64,-564.95 877,-540 899.79,-529.91 898.99,-517.4 920,-504 942.28,-489.79 968.98,-477.09 990.82,-467.69"/>
<polygon fill="#1414ce" stroke="#1414ce" points="992.33,-470.85 1000.18,-463.74 989.6,-464.4 992.33,-470.85"/>
</a>
</g>
</g>
<!-- 20&#45;&gt;7 -->
<g id="edge64" class="edge">
<title>20&#45;&gt;7</title>
<g id="a_edge64"><a xlink:title="include">
<path fill="none" stroke="#1414ce" d="M554.54,-590.21C637.99,-585.37 788.53,-572.6 913,-540 1076.91,-497.07 1140.45,-509.78 1266,-396 1327.82,-339.97 1351.87,-238.65 1360.15,-190.22"/>
<polygon fill="#1414ce" stroke="#1414ce" points="1363.64,-190.61 1361.77,-180.18 1356.72,-189.49 1363.64,-190.61"/>
</a>
</g>
</g>
<!-- 20&#45;&gt;22 -->
<g id="edge63" class="edge">
<title>20&#45;&gt;22</title>
<g id="a_edge63"><a xlink:title="include">
<path fill="none" stroke="#1414ce" d="M427.39,-584.41C354.21,-570.53 244,-535.58 244,-451 244,-451 244,-451 244,-377 244,-324.61 195.58,-282.06 159.5,-257.63"/>
<polygon fill="#1414ce" stroke="#1414ce" points="161.37,-254.67 151.09,-252.11 157.53,-260.52 161.37,-254.67"/>
</a>
</g>
</g>
<!-- 20&#45;&gt;18 -->
<g id="edge68" class="edge">
<title>20&#45;&gt;18</title>
<g id="a_edge68"><a xlink:title="include">
<path fill="none" stroke="#1414ce" d="M497.51,-575.83C515.46,-528.91 567.88,-394.98 621,-288 638.19,-253.39 659.48,-214.23 673.39,-189.11"/>
<polygon fill="#1414ce" stroke="#1414ce" points="676.54,-190.65 678.33,-180.21 670.42,-187.26 676.54,-190.65"/>
</a>
</g>
</g>
<!-- 20&#45;&gt;28 -->
<g id="edge71" class="edge">
<title>20&#45;&gt;28</title>
<g id="a_edge71"><a xlink:title="include">
<path fill="none" stroke="#1414ce" d="M427.43,-583.84C398.33,-576.54 365.59,-563.45 344,-540 316.25,-509.86 320,-491.97 320,-451 320,-451 320,-451 320,-377 320,-331.51 289.08,-286.65 266.43,-259.89"/>
<polygon fill="#1414ce" stroke="#1414ce" points="268.92,-257.42 259.71,-252.19 263.64,-262.02 268.92,-257.42"/>
</a>
</g>
</g>
<!-- 20&#45;&gt;27 -->
<g id="edge67" class="edge">
<title>20&#45;&gt;27</title>
<g id="a_edge67"><a xlink:title="include">
<path fill="none" stroke="#1414ce" d="M488.12,-575.79C482.23,-536.43 471.31,-437.27 496,-360 508.36,-321.31 536.84,-283.72 557.43,-260.04"/>
<polygon fill="#1414ce" stroke="#1414ce" points="560.32,-262.06 564.35,-252.26 555.09,-257.41 560.32,-262.06"/>
</a>
</g>
</g>
<!-- 23 -->
<g id="node31" class="node">
<title>23</title>
<g id="a_node31"><a xlink:title="ets.h">
<polygon fill="#ffffff" stroke="black" points="594,-540 540,-540 540,-504 594,-504 594,-540"/>
<text text-anchor="middle" x="567" y="-518.3" font-family="Times,serif" font-size="14.00">ets.h</text>
</a>
</g>
</g>
<!-- 20&#45;&gt;23 -->
<g id="edge65" class="edge">
<title>20&#45;&gt;23</title>
<g id="a_edge65"><a xlink:title="include">
<path fill="none" stroke="#1414ce" d="M509.79,-575.7C519.17,-567.05 530.68,-556.45 540.91,-547.03"/>
<polygon fill="#1414ce" stroke="#1414ce" points="543.45,-549.45 548.43,-540.1 538.7,-544.3 543.45,-549.45"/>
</a>
</g>
</g>
<!-- 18&#45;&gt;4 -->
<g id="edge72" class="edge">
<title>18&#45;&gt;4</title>
<g id="a_edge72"><a xlink:title="include">
<path fill="none" stroke="#1414ce" d="M661.82,-143.88C647.96,-134.81 630.76,-123.55 615.79,-113.76"/>
<polygon fill="#1414ce" stroke="#1414ce" points="617.56,-110.74 607.28,-108.19 613.73,-116.59 617.56,-110.74"/>
</a>
</g>
</g>
<!-- 28&#45;&gt;4 -->
<g id="edge73" class="edge">
<title>28&#45;&gt;4</title>
<g id="a_edge73"><a xlink:title="include">
<path fill="none" stroke="#1414ce" d="M272.79,-215.9C306.9,-196.76 364.81,-165.62 417,-144 453.83,-128.75 496.74,-115.02 529.43,-105.35"/>
<polygon fill="#1414ce" stroke="#1414ce" points="530.61,-108.65 539.23,-102.49 528.64,-101.94 530.61,-108.65"/>
</a>
</g>
</g>
<!-- 28&#45;&gt;5 -->
<g id="edge75" class="edge">
<title>28&#45;&gt;5</title>
<g id="a_edge75"><a xlink:title="include">
<path fill="none" stroke="#1414ce" d="M292.24,-216.59C330.19,-203.94 381.84,-186.72 416.25,-175.25"/>
<polygon fill="#1414ce" stroke="#1414ce" points="417.52,-178.52 425.9,-172.03 415.31,-171.87 417.52,-178.52"/>
</a>
</g>
</g>
<!-- 28&#45;&gt;12 -->
<g id="edge74" class="edge">
<title>28&#45;&gt;12</title>
<g id="a_edge74"><a xlink:title="include">
<path fill="none" stroke="#1414ce" d="M258.11,-215.84C276.17,-196.22 308.1,-164.2 341,-144 456.07,-73.35 614.67,-39.24 691.95,-25.97"/>
<polygon fill="#1414ce" stroke="#1414ce" points="692.57,-29.41 701.85,-24.31 691.41,-22.51 692.57,-29.41"/>
</a>
</g>
</g>
<!-- 27&#45;&gt;4 -->
<g id="edge76" class="edge">
<title>27&#45;&gt;4</title>
<g id="a_edge76"><a xlink:title="include">
<path fill="none" stroke="#1414ce" d="M581,-215.87C581,-191.67 581,-147.21 581,-118.39"/>
<polygon fill="#1414ce" stroke="#1414ce" points="584.5,-118.19 581,-108.19 577.5,-118.19 584.5,-118.19"/>
</a>
</g>
</g>
<!-- 27&#45;&gt;14 -->
<g id="edge79" class="edge">
<title>27&#45;&gt;14</title>
<g id="a_edge79"><a xlink:title="include">
<path fill="none" stroke="#1414ce" d="M624.35,-223.91C639.1,-221.06 655.72,-218.11 671,-216 852.21,-190.99 902.66,-220.7 1081,-180 1082.28,-179.71 1083.58,-179.39 1084.88,-179.04"/>
<polygon fill="#1414ce" stroke="#1414ce" points="1086.31,-182.26 1094.87,-176.01 1084.28,-175.57 1086.31,-182.26"/>
</a>
</g>
</g>
<!-- 27&#45;&gt;5 -->
<g id="edge77" class="edge">
<title>27&#45;&gt;5</title>
<g id="a_edge77"><a xlink:title="include">
<path fill="none" stroke="#1414ce" d="M549.69,-215.88C531.37,-205.86 508.17,-193.17 489.08,-182.73"/>
<polygon fill="#1414ce" stroke="#1414ce" points="490.54,-179.54 480.09,-177.81 487.18,-185.68 490.54,-179.54"/>
</a>
</g>
</g>
<!-- 27&#45;&gt;8 -->
<g id="edge78" class="edge">
<title>27&#45;&gt;8</title>
<g id="a_edge78"><a xlink:title="include">
<path fill="none" stroke="#1414ce" d="M624.02,-224.83C638.9,-222.01 655.68,-218.85 671,-216 892.26,-174.8 1154.16,-127 1278.89,-104.29"/>
<polygon fill="#1414ce" stroke="#1414ce" points="1279.86,-107.67 1289.08,-102.44 1278.61,-100.79 1279.86,-107.67"/>
</a>
</g>
</g>
<!-- 23&#45;&gt;17 -->
<g id="edge81" class="edge">
<title>23&#45;&gt;17</title>
<g id="a_edge81"><a xlink:title="include">
<path fill="none" stroke="#1414ce" d="M568.57,-503.88C573.23,-462.09 590.49,-353.49 648,-288 658.17,-276.42 671.36,-266.02 683.83,-257.57"/>
<polygon fill="#1414ce" stroke="#1414ce" points="685.85,-260.44 692.31,-252.04 682.02,-254.58 685.85,-260.44"/>
</a>
</g>
</g>
<!-- 23&#45;&gt;5 -->
<g id="edge80" class="edge">
<title>23&#45;&gt;5</title>
<g id="a_edge80"><a xlink:title="include">
<path fill="none" stroke="#1414ce" d="M547.82,-503.81C514.15,-472.19 445.55,-400.95 420,-324 404.88,-278.44 406.81,-262.15 420,-216 422.71,-206.51 427.67,-197.06 432.93,-188.83"/>
<polygon fill="#1414ce" stroke="#1414ce" points="435.92,-190.67 438.67,-180.43 430.14,-186.72 435.92,-190.67"/>
</a>
</g>
</g>
<!-- 23&#45;&gt;24 -->
<g id="edge82" class="edge">
<title>23&#45;&gt;24</title>
<g id="a_edge82"><a xlink:title="include">
<path fill="none" stroke="#1414ce" d="M594.07,-516.93C671.77,-505.26 895.97,-471.58 990.34,-457.41"/>
<polygon fill="#1414ce" stroke="#1414ce" points="991.02,-460.85 1000.39,-455.9 989.98,-453.92 991.02,-460.85"/>
</a>
</g>
</g>
</g>
</svg>
