<?xml version="1.0" encoding="UTF-8" standalone="no"?>
<!DOCTYPE svg PUBLIC "-//W3C//DTD SVG 1.1//EN"
 "http://www.w3.org/Graphics/SVG/1.1/DTD/svg11.dtd">
<!-- Generated by graphviz version 2.43.0 (0)
 -->
<!-- Title: %3 Pages: 1 -->
<svg width="1422pt" height="404pt"
 viewBox="0.00 0.00 1421.74 404.00" xmlns="http://www.w3.org/2000/svg" xmlns:xlink="http://www.w3.org/1999/xlink">
<g id="graph0" class="graph" transform="scale(1 1) rotate(0) translate(4 400)">
<title>%3</title>
<polygon fill="transparent" stroke="transparent" points="-4,4 -4,-400 1417.74,-400 1417.74,4 -4,4"/>
<!-- 23 -->
<g id="node1" class="node">
<title>23</title>
<g id="a_node1"><a xlink:title="SpinLock">
<polygon fill="#ffffff" stroke="black" points="1235,-324 1153,-324 1153,-288 1235,-288 1235,-324"/>
<text text-anchor="middle" x="1194" y="-302.3" font-family="Times,serif" font-size="14.00">SpinLock</text>
</a>
</g>
</g>
<!-- 6 -->
<g id="node2" class="node">
<title>6</title>
<g id="a_node2"><a xlink:title="ResourceType">
<polygon fill="#ffffff" stroke="black" points="412.5,-180 295.5,-180 295.5,-144 412.5,-144 412.5,-180"/>
<text text-anchor="middle" x="354" y="-158.3" font-family="Times,serif" font-size="14.00">ResourceType</text>
</a>
</g>
</g>
<!-- 4 -->
<g id="node5" class="node">
<title>4</title>
<g id="a_node5"><a xlink:title="ListHead">
<polygon fill="#ffffff" stroke="black" points="458.5,-36 377.5,-36 377.5,0 458.5,0 458.5,-36"/>
<text text-anchor="middle" x="418" y="-14.3" font-family="Times,serif" font-size="14.00">ListHead</text>
</a>
</g>
</g>
<!-- 6&#45;&gt;4 -->
<g id="edge3" class="edge">
<title>6&#45;&gt;4</title>
<g id="a_edge3"><a xlink:title="usage">
<path fill="none" stroke="#1414ce" d="M354.31,-143.73C355.27,-125.13 358.64,-95.11 370,-72 375.12,-61.59 382.89,-51.73 390.7,-43.39"/>
<polygon fill="#1414ce" stroke="#1414ce" points="393.27,-45.76 397.81,-36.19 388.29,-40.85 393.27,-45.76"/>
</a>
</g>
</g>
<!-- 8 -->
<g id="node8" class="node">
<title>8</title>
<g id="a_node8"><a xlink:title="GlobalContext">
<polygon fill="#ffffff" stroke="black" points="669.5,-396 550.5,-396 550.5,-360 669.5,-360 669.5,-396"/>
<text text-anchor="middle" x="610" y="-374.3" font-family="Times,serif" font-size="14.00">GlobalContext</text>
</a>
</g>
</g>
<!-- 6&#45;&gt;8 -->
<g id="edge2" class="edge">
<title>6&#45;&gt;8</title>
<g id="a_edge2"><a xlink:title="usage">
<path fill="none" stroke="#1414ce" d="M363.77,-180.1C377.48,-212.9 403.39,-284.86 451,-324 476.47,-344.94 510.28,-357.64 540.22,-365.33"/>
<polygon fill="#1414ce" stroke="#1414ce" points="539.67,-368.8 550.21,-367.75 541.32,-362 539.67,-368.8"/>
</a>
</g>
</g>
<!-- 7 -->
<g id="node22" class="node">
<title>7</title>
<g id="a_node22"><a xlink:title="SyncList">
<polygon fill="#ffffff" stroke="black" points="457,-108 379,-108 379,-72 457,-72 457,-108"/>
<text text-anchor="middle" x="418" y="-86.3" font-family="Times,serif" font-size="14.00">SyncList</text>
</a>
</g>
</g>
<!-- 6&#45;&gt;7 -->
<g id="edge1" class="edge">
<title>6&#45;&gt;7</title>
<g id="a_edge1"><a xlink:title="usage">
<path fill="none" stroke="#1414ce" d="M369.82,-143.7C377.57,-135.22 387.04,-124.86 395.52,-115.58"/>
<polygon fill="#1414ce" stroke="#1414ce" points="398.2,-117.85 402.36,-108.1 393.03,-113.12 398.2,-117.85"/>
</a>
</g>
</g>
<!-- 18 -->
<g id="node3" class="node">
<title>18</title>
<g id="a_node3"><a xlink:title="Module">
<polygon fill="#ffffff" stroke="black" points="677,-324 607,-324 607,-288 677,-288 677,-324"/>
<text text-anchor="middle" x="642" y="-302.3" font-family="Times,serif" font-size="14.00">Module</text>
</a>
</g>
</g>
<!-- 18&#45;&gt;4 -->
<g id="edge6" class="edge">
<title>18&#45;&gt;4</title>
<g id="a_edge6"><a xlink:title="usage">
<path fill="none" stroke="#1414ce" d="M628.65,-287.74C621.55,-277.78 613.23,-264.74 608,-252 576.97,-176.35 624.02,-133.38 570,-72 544.48,-43.01 502.22,-29.87 468.72,-23.92"/>
<polygon fill="#1414ce" stroke="#1414ce" points="469.07,-20.43 458.64,-22.3 467.96,-27.34 469.07,-20.43"/>
</a>
</g>
</g>
<!-- 20 -->
<g id="node13" class="node">
<title>20</title>
<g id="a_node13"><a xlink:title="LiteralEntry">
<polygon fill="#ffffff" stroke="black" points="721,-252 617,-252 617,-216 721,-216 721,-252"/>
<text text-anchor="middle" x="669" y="-230.3" font-family="Times,serif" font-size="14.00">LiteralEntry</text>
</a>
</g>
</g>
<!-- 18&#45;&gt;20 -->
<g id="edge5" class="edge">
<title>18&#45;&gt;20</title>
<g id="a_edge5"><a xlink:title="usage">
<path fill="none" stroke="#1414ce" d="M648.67,-287.7C651.71,-279.81 655.38,-270.3 658.76,-261.55"/>
<polygon fill="#1414ce" stroke="#1414ce" points="662.07,-262.69 662.4,-252.1 655.54,-260.17 662.07,-262.69"/>
</a>
</g>
</g>
<!-- 19 -->
<g id="node21" class="node">
<title>19</title>
<g id="a_node21"><a xlink:title="ExportedFunction">
<polygon fill="#ffffff" stroke="black" points="885,-252 739,-252 739,-216 885,-216 885,-252"/>
<text text-anchor="middle" x="812" y="-230.3" font-family="Times,serif" font-size="14.00">ExportedFunction</text>
</a>
</g>
</g>
<!-- 18&#45;&gt;19 -->
<g id="edge4" class="edge">
<title>18&#45;&gt;19</title>
<g id="a_edge4"><a xlink:title="usage">
<path fill="none" stroke="#1414ce" d="M677.22,-290.5C701.5,-280.5 734.13,-267.06 761.2,-255.92"/>
<polygon fill="#1414ce" stroke="#1414ce" points="762.61,-259.12 770.53,-252.08 759.95,-252.65 762.61,-259.12"/>
</a>
</g>
</g>
<!-- 2 -->
<g id="node4" class="node">
<title>2</title>
<g id="a_node4"><a xlink:title="AVMPackData">
<polygon fill="#ffffff" stroke="black" points="148.5,-252 31.5,-252 31.5,-216 148.5,-216 148.5,-252"/>
<text text-anchor="middle" x="90" y="-230.3" font-family="Times,serif" font-size="14.00">AVMPackData</text>
</a>
</g>
</g>
<!-- 2&#45;&gt;4 -->
<g id="edge8" class="edge">
<title>2&#45;&gt;4</title>
<g id="a_edge8"><a xlink:title="usage">
<path fill="none" stroke="#1414ce" d="M89.14,-215.89C89.08,-196.31 91.93,-164.33 109,-144 175,-65.38 297.91,-35.69 367.16,-24.88"/>
<polygon fill="#1414ce" stroke="#1414ce" points="368.01,-28.29 377.39,-23.36 366.98,-21.37 368.01,-28.29"/>
</a>
</g>
</g>
<!-- 3 -->
<g id="node9" class="node">
<title>3</title>
<g id="a_node9"><a xlink:title="AVMPackInfo">
<polygon fill="#ffffff" stroke="black" points="229.5,-180 118.5,-180 118.5,-144 229.5,-144 229.5,-180"/>
<text text-anchor="middle" x="174" y="-158.3" font-family="Times,serif" font-size="14.00">AVMPackInfo</text>
</a>
</g>
</g>
<!-- 2&#45;&gt;3 -->
<g id="edge7" class="edge">
<title>2&#45;&gt;3</title>
<g id="a_edge7"><a xlink:title="usage">
<path fill="none" stroke="#1414ce" d="M110.76,-215.7C121.24,-206.97 134.11,-196.24 145.5,-186.75"/>
<polygon fill="#1414ce" stroke="#1414ce" points="148.03,-189.19 153.47,-180.1 143.55,-183.82 148.03,-189.19"/>
</a>
</g>
</g>
<!-- 4&#45;&gt;4 -->
<g id="edge9" class="edge">
<title>4&#45;&gt;4</title>
<g id="a_edge9"><a xlink:title="usage">
<path fill="none" stroke="#1414ce" d="M458.73,-31.31C468.9,-30.38 476.5,-25.95 476.5,-18 476.5,-12.91 473.38,-9.26 468.47,-7.05"/>
<polygon fill="#1414ce" stroke="#1414ce" points="469.28,-3.64 458.73,-4.69 467.63,-10.45 469.28,-3.64"/>
</a>
</g>
</g>
<!-- 15 -->
<g id="node6" class="node">
<title>15</title>
<g id="a_node6"><a xlink:title="HeapFragment">
<polygon fill="#ffffff" stroke="black" points="1388.5,-36 1263.5,-36 1263.5,0 1388.5,0 1388.5,-36"/>
<text text-anchor="middle" x="1326" y="-14.3" font-family="Times,serif" font-size="14.00">HeapFragment</text>
</a>
</g>
</g>
<!-- 15&#45;&gt;15 -->
<g id="edge10" class="edge">
<title>15&#45;&gt;15</title>
<g id="a_edge10"><a xlink:title="usage">
<path fill="none" stroke="#1414ce" d="M1388.78,-30.55C1399.26,-28.79 1406.5,-24.61 1406.5,-18 1406.5,-13.77 1403.53,-10.53 1398.64,-8.29"/>
<polygon fill="#1414ce" stroke="#1414ce" points="1399.36,-4.85 1388.78,-5.45 1397.42,-11.58 1399.36,-4.85"/>
</a>
</g>
</g>
<!-- 17 -->
<g id="node7" class="node">
<title>17</title>
<g id="a_node7"><a xlink:title="RefcBinaryQueueItem">
<polygon fill="#ffffff" stroke="black" points="354,-324 180,-324 180,-288 354,-288 354,-324"/>
<text text-anchor="middle" x="267" y="-302.3" font-family="Times,serif" font-size="14.00">RefcBinaryQueueItem</text>
</a>
</g>
</g>
<!-- 17&#45;&gt;17 -->
<g id="edge12" class="edge">
<title>17&#45;&gt;17</title>
<g id="a_edge12"><a xlink:title="usage">
<path fill="none" stroke="#1414ce" d="M354.3,-317.68C364.99,-315.59 372,-311.7 372,-306 372,-302.35 369.12,-299.44 364.25,-297.27"/>
<polygon fill="#1414ce" stroke="#1414ce" points="364.88,-293.81 354.3,-294.32 362.89,-300.52 364.88,-293.81"/>
</a>
</g>
</g>
<!-- 5 -->
<g id="node19" class="node">
<title>5</title>
<g id="a_node19"><a xlink:title="RefcBinary">
<polygon fill="#ffffff" stroke="black" points="314.5,-252 219.5,-252 219.5,-216 314.5,-216 314.5,-252"/>
<text text-anchor="middle" x="267" y="-230.3" font-family="Times,serif" font-size="14.00">RefcBinary</text>
</a>
</g>
</g>
<!-- 17&#45;&gt;5 -->
<g id="edge11" class="edge">
<title>17&#45;&gt;5</title>
<g id="a_edge11"><a xlink:title="usage">
<path fill="none" stroke="#1414ce" d="M267,-287.7C267,-279.98 267,-270.71 267,-262.11"/>
<polygon fill="#1414ce" stroke="#1414ce" points="270.5,-262.1 267,-252.1 263.5,-262.1 270.5,-262.1"/>
</a>
</g>
</g>
<!-- 8&#45;&gt;23 -->
<g id="edge22" class="edge">
<title>8&#45;&gt;23</title>
<g id="a_edge22"><a xlink:title="usage">
<path fill="none" stroke="#1414ce" d="M669.68,-374.91C768.27,-370.58 970.96,-358.03 1139,-324 1140.27,-323.74 1141.55,-323.47 1142.83,-323.18"/>
<polygon fill="#1414ce" stroke="#1414ce" points="1143.92,-326.52 1152.79,-320.71 1142.24,-319.72 1143.92,-326.52"/>
</a>
</g>
</g>
<!-- 8&#45;&gt;6 -->
<g id="edge13" class="edge">
<title>8&#45;&gt;6</title>
<g id="a_edge13"><a xlink:title="usage">
<path fill="none" stroke="#1414ce" d="M550.22,-370.9C512.88,-364.4 465.96,-351.09 433,-324 389.85,-288.53 364.52,-226.11 355.74,-190.3"/>
<polygon fill="#1414ce" stroke="#1414ce" points="359.07,-189.14 353.55,-180.1 352.23,-190.62 359.07,-189.14"/>
</a>
</g>
</g>
<!-- 8&#45;&gt;18 -->
<g id="edge19" class="edge">
<title>8&#45;&gt;18</title>
<g id="a_edge19"><a xlink:title="usage">
<path fill="none" stroke="#1414ce" d="M617.91,-359.7C621.55,-351.73 625.95,-342.1 629.99,-333.26"/>
<polygon fill="#1414ce" stroke="#1414ce" points="633.21,-334.65 634.18,-324.1 626.84,-331.74 633.21,-334.65"/>
</a>
</g>
</g>
<!-- 8&#45;&gt;4 -->
<g id="edge23" class="edge">
<title>8&#45;&gt;4</title>
<g id="a_edge23"><a xlink:title="usage">
<path fill="none" stroke="#1414ce" d="M669.77,-372.89C761.64,-365.86 932.73,-349.73 988,-324 1041.64,-299.02 1087,-294.17 1087,-235 1087,-235 1087,-235 1087,-161 1087,-34.78 625.54,-20.27 469.13,-18.98"/>
<polygon fill="#1414ce" stroke="#1414ce" points="468.87,-15.48 458.84,-18.91 468.82,-22.48 468.87,-15.48"/>
</a>
</g>
</g>
<!-- 8&#45;&gt;17 -->
<g id="edge17" class="edge">
<title>8&#45;&gt;17</title>
<g id="a_edge17"><a xlink:title="usage">
<path fill="none" stroke="#1414ce" d="M550.25,-364.81C497.89,-354.12 420.91,-338.41 360.41,-326.06"/>
<polygon fill="#1414ce" stroke="#1414ce" points="360.97,-322.6 350.47,-324.03 359.57,-329.46 360.97,-322.6"/>
</a>
</g>
</g>
<!-- 9 -->
<g id="node10" class="node">
<title>9</title>
<g id="a_node10"><a xlink:title="Ets">
<polygon fill="#ffffff" stroke="black" points="523,-180 469,-180 469,-144 523,-144 523,-180"/>
<text text-anchor="middle" x="496" y="-158.3" font-family="Times,serif" font-size="14.00">Ets</text>
</a>
</g>
</g>
<!-- 8&#45;&gt;9 -->
<g id="edge14" class="edge">
<title>8&#45;&gt;9</title>
<g id="a_edge14"><a xlink:title="usage">
<path fill="none" stroke="#1414ce" d="M576.79,-359.81C562.6,-350.9 547.02,-338.78 537,-324 509.09,-282.86 500.18,-224.14 497.33,-190.16"/>
<polygon fill="#1414ce" stroke="#1414ce" points="500.81,-189.77 496.61,-180.05 493.83,-190.28 500.81,-189.77"/>
</a>
</g>
</g>
<!-- 22 -->
<g id="node12" class="node">
<title>22</title>
<g id="a_node12"><a xlink:title="TimerList">
<polygon fill="#ffffff" stroke="black" points="561,-108 475,-108 475,-72 561,-72 561,-108"/>
<text text-anchor="middle" x="518" y="-86.3" font-family="Times,serif" font-size="14.00">TimerList</text>
</a>
</g>
</g>
<!-- 8&#45;&gt;22 -->
<g id="edge21" class="edge">
<title>8&#45;&gt;22</title>
<g id="a_edge21"><a xlink:title="usage">
<path fill="none" stroke="#1414ce" d="M604.52,-359.97C589.12,-312.09 545.36,-176.06 526.65,-117.9"/>
<polygon fill="#1414ce" stroke="#1414ce" points="529.96,-116.75 523.57,-108.31 523.3,-118.9 529.96,-116.75"/>
</a>
</g>
</g>
<!-- 10 -->
<g id="node17" class="node">
<title>10</title>
<g id="a_node17"><a xlink:title="MessageQueueItem">
<polygon fill="#ffffff" stroke="black" points="961,-324 803,-324 803,-288 961,-288 961,-324"/>
<text text-anchor="middle" x="882" y="-302.3" font-family="Times,serif" font-size="14.00">MessageQueueItem</text>
</a>
</g>
</g>
<!-- 8&#45;&gt;10 -->
<g id="edge15" class="edge">
<title>8&#45;&gt;10</title>
<g id="a_edge15"><a xlink:title="usage">
<path fill="none" stroke="#1414ce" d="M669.69,-361.64C709.73,-351.33 762.83,-337.67 805.9,-326.58"/>
<polygon fill="#1414ce" stroke="#1414ce" points="806.96,-329.93 815.77,-324.04 805.21,-323.15 806.96,-329.93"/>
</a>
</g>
</g>
<!-- 21 -->
<g id="node18" class="node">
<title>21</title>
<g id="a_node18"><a xlink:title="AtomsHashTable">
<polygon fill="#ffffff" stroke="black" points="1252.5,-252 1115.5,-252 1115.5,-216 1252.5,-216 1252.5,-252"/>
<text text-anchor="middle" x="1184" y="-230.3" font-family="Times,serif" font-size="14.00">AtomsHashTable</text>
</a>
</g>
</g>
<!-- 8&#45;&gt;21 -->
<g id="edge20" class="edge">
<title>8&#45;&gt;21</title>
<g id="a_edge20"><a xlink:title="usage">
<path fill="none" stroke="#1414ce" d="M669.8,-375.71C783.63,-372.43 1026.72,-361.16 1101,-324 1116.13,-316.43 1144.8,-283.51 1164.16,-259.92"/>
<polygon fill="#1414ce" stroke="#1414ce" points="1166.99,-261.98 1170.58,-252.02 1161.56,-257.57 1166.99,-261.98"/>
</a>
</g>
</g>
<!-- 12 -->
<g id="node20" class="node">
<title>12</title>
<g id="a_node20"><a xlink:title="AtomTable">
<polygon fill="#ffffff" stroke="black" points="1372,-324 1280,-324 1280,-288 1372,-288 1372,-324"/>
<text text-anchor="middle" x="1326" y="-302.3" font-family="Times,serif" font-size="14.00">AtomTable</text>
</a>
</g>
</g>
<!-- 8&#45;&gt;12 -->
<g id="edge16" class="edge">
<title>8&#45;&gt;12</title>
<g id="a_edge16"><a xlink:title="usage">
<path fill="none" stroke="#1414ce" d="M669.71,-374.42C782.44,-369.02 1034.12,-354.41 1244,-324 1252.38,-322.79 1261.18,-321.25 1269.79,-319.59"/>
<polygon fill="#1414ce" stroke="#1414ce" points="1270.65,-322.99 1279.77,-317.6 1269.28,-316.12 1270.65,-322.99"/>
</a>
</g>
</g>
<!-- 8&#45;&gt;7 -->
<g id="edge18" class="edge">
<title>8&#45;&gt;7</title>
<g id="a_edge18"><a xlink:title="usage">
<path fill="none" stroke="#1414ce" d="M566.53,-359.96C548.99,-351.34 529.71,-339.39 516,-324 461.02,-262.29 433.9,-165.28 423.4,-118.3"/>
<polygon fill="#1414ce" stroke="#1414ce" points="426.77,-117.31 421.24,-108.27 419.92,-118.78 426.77,-117.31"/>
</a>
</g>
</g>
<!-- 9&#45;&gt;7 -->
<g id="edge24" class="edge">
<title>9&#45;&gt;7</title>
<g id="a_edge24"><a xlink:title="usage">
<path fill="none" stroke="#1414ce" d="M476.72,-143.7C467.08,-135.05 455.27,-124.45 444.77,-115.03"/>
<polygon fill="#1414ce" stroke="#1414ce" points="446.84,-112.18 437.06,-108.1 442.16,-117.39 446.84,-112.18"/>
</a>
</g>
</g>
<!-- 16 -->
<g id="node11" class="node">
<title>16</title>
<g id="a_node11"><a xlink:title="HNodeGroup">
<polygon fill="#ffffff" stroke="black" points="1381,-252 1271,-252 1271,-216 1381,-216 1381,-252"/>
<text text-anchor="middle" x="1326" y="-230.3" font-family="Times,serif" font-size="14.00">HNodeGroup</text>
</a>
</g>
</g>
<!-- 16&#45;&gt;16 -->
<g id="edge26" class="edge">
<title>16&#45;&gt;16</title>
<g id="a_edge26"><a xlink:title="usage">
<path fill="none" stroke="#1414ce" d="M1381.07,-246.85C1391.57,-245.32 1399,-241.03 1399,-234 1399,-229.5 1395.95,-226.12 1391,-223.87"/>
<polygon fill="#1414ce" stroke="#1414ce" points="1391.64,-220.42 1381.07,-221.15 1389.79,-227.17 1391.64,-220.42"/>
</a>
</g>
</g>
<!-- 13 -->
<g id="node23" class="node">
<title>13</title>
<g id="a_node23"><a xlink:title="HNode">
<polygon fill="#ffffff" stroke="black" points="1359,-180 1293,-180 1293,-144 1359,-144 1359,-180"/>
<text text-anchor="middle" x="1326" y="-158.3" font-family="Times,serif" font-size="14.00">HNode</text>
</a>
</g>
</g>
<!-- 16&#45;&gt;13 -->
<g id="edge25" class="edge">
<title>16&#45;&gt;13</title>
<g id="a_edge25"><a xlink:title="usage">
<path fill="none" stroke="#1414ce" d="M1326,-215.7C1326,-207.98 1326,-198.71 1326,-190.11"/>
<polygon fill="#1414ce" stroke="#1414ce" points="1329.5,-190.1 1326,-180.1 1322.5,-190.1 1329.5,-190.1"/>
</a>
</g>
</g>
<!-- 22&#45;&gt;4 -->
<g id="edge27" class="edge">
<title>22&#45;&gt;4</title>
<g id="a_edge27"><a xlink:title="usage">
<path fill="none" stroke="#1414ce" d="M493.54,-71.88C480.7,-62.89 464.8,-51.76 450.91,-42.03"/>
<polygon fill="#1414ce" stroke="#1414ce" points="452.76,-39.06 442.56,-36.19 448.74,-44.79 452.76,-39.06"/>
</a>
</g>
</g>
<!-- 11 -->
<g id="node14" class="node">
<title>11</title>
<g id="a_node14"><a xlink:title="MailboxMessage">
<polygon fill="#ffffff" stroke="black" points="1040.5,-252 903.5,-252 903.5,-216 1040.5,-216 1040.5,-252"/>
<text text-anchor="middle" x="972" y="-230.3" font-family="Times,serif" font-size="14.00">MailboxMessage</text>
</a>
</g>
</g>
<!-- 11&#45;&gt;11 -->
<g id="edge28" class="edge">
<title>11&#45;&gt;11</title>
<g id="a_edge28"><a xlink:title="usage">
<path fill="none" stroke="#1414ce" d="M1040.53,-246.37C1051.21,-244.52 1058.5,-240.4 1058.5,-234 1058.5,-229.8 1055.36,-226.58 1050.18,-224.34"/>
<polygon fill="#1414ce" stroke="#1414ce" points="1051.1,-220.96 1040.53,-221.63 1049.21,-227.7 1051.1,-220.96"/>
</a>
</g>
</g>
<!-- 14 -->
<g id="node15" class="node">
<title>14</title>
<g id="a_node15"><a xlink:title="Heap">
<polygon fill="#ffffff" stroke="black" points="1353,-108 1299,-108 1299,-72 1353,-72 1353,-108"/>
<text text-anchor="middle" x="1326" y="-86.3" font-family="Times,serif" font-size="14.00">Heap</text>
</a>
</g>
</g>
<!-- 14&#45;&gt;15 -->
<g id="edge29" class="edge">
<title>14&#45;&gt;15</title>
<g id="a_edge29"><a xlink:title="usage">
<path fill="none" stroke="#1414ce" d="M1326,-71.7C1326,-63.98 1326,-54.71 1326,-46.11"/>
<polygon fill="#1414ce" stroke="#1414ce" points="1329.5,-46.1 1326,-36.1 1322.5,-46.1 1329.5,-46.1"/>
</a>
</g>
</g>
<!-- 1 -->
<g id="node16" class="node">
<title>1</title>
<g id="a_node16"><a xlink:title="RefcBinaryAVMPack">
<polygon fill="#bfbfbf" stroke="black" points="162,-324 0,-324 0,-288 162,-288 162,-324"/>
<text text-anchor="middle" x="81" y="-302.3" font-family="Times,serif" font-size="14.00">RefcBinaryAVMPack</text>
</a>
</g>
</g>
<!-- 1&#45;&gt;2 -->
<g id="edge30" class="edge">
<title>1&#45;&gt;2</title>
<g id="a_edge30"><a xlink:title="usage">
<path fill="none" stroke="#1414ce" d="M83.22,-287.7C84.22,-279.98 85.41,-270.71 86.51,-262.11"/>
<polygon fill="#1414ce" stroke="#1414ce" points="90,-262.47 87.8,-252.1 83.05,-261.58 90,-262.47"/>
</a>
</g>
</g>
<!-- 1&#45;&gt;5 -->
<g id="edge31" class="edge">
<title>1&#45;&gt;5</title>
<g id="a_edge31"><a xlink:title="usage">
<path fill="none" stroke="#1414ce" d="M126.5,-287.88C152.38,-278.14 184.97,-265.87 212.24,-255.61"/>
<polygon fill="#1414ce" stroke="#1414ce" points="213.52,-258.87 221.65,-252.07 211.06,-252.31 213.52,-258.87"/>
</a>
</g>
</g>
<!-- 10&#45;&gt;11 -->
<g id="edge32" class="edge">
<title>10&#45;&gt;11</title>
<g id="a_edge32"><a xlink:title="usage">
<path fill="none" stroke="#1414ce" d="M904.25,-287.7C915.58,-278.88 929.53,-268.03 941.82,-258.47"/>
<polygon fill="#1414ce" stroke="#1414ce" points="944.26,-261.01 950.01,-252.1 939.97,-255.48 944.26,-261.01"/>
</a>
</g>
</g>
<!-- 10&#45;&gt;10 -->
<g id="edge33" class="edge">
<title>10&#45;&gt;10</title>
<g id="a_edge33"><a xlink:title="usage">
<path fill="none" stroke="#1414ce" d="M961.16,-317.98C971.87,-315.97 979,-311.98 979,-306 979,-302.08 975.93,-299.01 970.79,-296.8"/>
<polygon fill="#1414ce" stroke="#1414ce" points="971.74,-293.43 961.16,-294.02 969.8,-300.15 971.74,-293.43"/>
</a>
</g>
</g>
<!-- 21&#45;&gt;13 -->
<g id="edge34" class="edge">
<title>21&#45;&gt;13</title>
<g id="a_edge34"><a xlink:title="usage">
<path fill="none" stroke="#1414ce" d="M1218.74,-215.88C1238.25,-206.26 1262.75,-194.18 1283.41,-184"/>
<polygon fill="#1414ce" stroke="#1414ce" points="1285.18,-187.03 1292.6,-179.47 1282.08,-180.75 1285.18,-187.03"/>
</a>
</g>
</g>
<!-- 5&#45;&gt;6 -->
<g id="edge35" class="edge">
<title>5&#45;&gt;6</title>
<g id="a_edge35"><a xlink:title="usage">
<path fill="none" stroke="#1414ce" d="M288.51,-215.7C299.46,-206.88 312.95,-196.03 324.82,-186.47"/>
<polygon fill="#1414ce" stroke="#1414ce" points="327.14,-189.1 332.74,-180.1 322.76,-183.65 327.14,-189.1"/>
</a>
</g>
</g>
<!-- 5&#45;&gt;4 -->
<g id="edge36" class="edge">
<title>5&#45;&gt;4</title>
<g id="a_edge36"><a xlink:title="usage">
<path fill="none" stroke="#1414ce" d="M267.87,-215.99C269.43,-197.35 273.79,-167.04 286,-144 308.83,-100.92 352.17,-64.31 382.96,-42.06"/>
<polygon fill="#1414ce" stroke="#1414ce" points="385.14,-44.8 391.28,-36.17 381.09,-39.09 385.14,-44.8"/>
</a>
</g>
</g>
<!-- 12&#45;&gt;16 -->
<g id="edge38" class="edge">
<title>12&#45;&gt;16</title>
<g id="a_edge38"><a xlink:title="usage">
<path fill="none" stroke="#1414ce" d="M1326,-287.7C1326,-279.98 1326,-270.71 1326,-262.11"/>
<polygon fill="#1414ce" stroke="#1414ce" points="1329.5,-262.1 1326,-252.1 1322.5,-262.1 1329.5,-262.1"/>
</a>
</g>
</g>
<!-- 12&#45;&gt;13 -->
<g id="edge37" class="edge">
<title>12&#45;&gt;13</title>
<g id="a_edge37"><a xlink:title="usage">
<path fill="none" stroke="#1414ce" d="M1368.62,-287.99C1383.87,-279.58 1399.41,-267.78 1408,-252 1415.65,-237.95 1415.65,-230.05 1408,-216 1399.33,-200.07 1383.58,-188.2 1368.19,-179.77"/>
<polygon fill="#1414ce" stroke="#1414ce" points="1369.72,-176.63 1359.22,-175.21 1366.54,-182.86 1369.72,-176.63"/>
</a>
</g>
</g>
<!-- 7&#45;&gt;4 -->
<g id="edge39" class="edge">
<title>7&#45;&gt;4</title>
<g id="a_edge39"><a xlink:title="usage">
<path fill="none" stroke="#1414ce" d="M418,-71.7C418,-63.98 418,-54.71 418,-46.11"/>
<polygon fill="#1414ce" stroke="#1414ce" points="421.5,-46.1 418,-36.1 414.5,-46.1 421.5,-46.1"/>
</a>
</g>
</g>
<!-- 13&#45;&gt;14 -->
<g id="edge41" class="edge">
<title>13&#45;&gt;14</title>
<g id="a_edge41"><a xlink:title="usage">
<path fill="none" stroke="#1414ce" d="M1326,-143.7C1326,-135.98 1326,-126.71 1326,-118.11"/>
<polygon fill="#1414ce" stroke="#1414ce" points="1329.5,-118.1 1326,-108.1 1322.5,-118.1 1329.5,-118.1"/>
</a>
</g>
</g>
<!-- 13&#45;&gt;13 -->
<g id="edge40" class="edge">
<title>13&#45;&gt;13</title>
<g id="a_edge40"><a xlink:title="usage">
<path fill="none" stroke="#1414ce" d="M1359.35,-175.47C1369.28,-175.07 1377,-170.58 1377,-162 1377,-156.64 1373.98,-152.87 1369.3,-150.71"/>
<polygon fill="#1414ce" stroke="#1414ce" points="1369.87,-147.25 1359.35,-148.53 1368.37,-154.09 1369.87,-147.25"/>
</a>
</g>
</g>
</g>
</svg>
