<?xml version="1.0" encoding="UTF-8" standalone="no"?>
<!DOCTYPE svg PUBLIC "-//W3C//DTD SVG 1.1//EN"
 "http://www.w3.org/Graphics/SVG/1.1/DTD/svg11.dtd">
<!-- Generated by graphviz version 2.43.0 (0)
 -->
<!-- Title: %3 Pages: 1 -->
<svg width="1638pt" height="836pt"
 viewBox="0.00 0.00 1637.50 836.00" xmlns="http://www.w3.org/2000/svg" xmlns:xlink="http://www.w3.org/1999/xlink">
<g id="graph0" class="graph" transform="scale(1 1) rotate(0) translate(4 832)">
<title>%3</title>
<polygon fill="transparent" stroke="transparent" points="-4,4 -4,-832 1633.5,-832 1633.5,4 -4,4"/>
<!-- 4 -->
<g id="node1" class="node">
<title>4</title>
<g id="a_node1"><a xlink:title="stdbool.h">
<polygon fill="#ffffff" stroke="black" points="735.5,-108 652.5,-108 652.5,-72 735.5,-72 735.5,-108"/>
<text text-anchor="middle" x="694" y="-86.3" font-family="Times,serif" font-size="14.00">stdbool.h</text>
</a>
</g>
</g>
<!-- 36 -->
<g id="node2" class="node">
<title>36</title>
<g id="a_node2"><a xlink:title="stdarg.h">
<polygon fill="#ffffff" stroke="black" points="1311.5,-756 1234.5,-756 1234.5,-720 1311.5,-720 1311.5,-756"/>
<text text-anchor="middle" x="1273" y="-734.3" font-family="Times,serif" font-size="14.00">stdarg.h</text>
</a>
</g>
</g>
<!-- 29 -->
<g id="node3" class="node">
<title>29</title>
<g id="a_node3"><a xlink:title="interop.h">
<polygon fill="#ffffff" stroke="black" points="1178,-756 1096,-756 1096,-720 1178,-720 1178,-756"/>
<text text-anchor="middle" x="1137" y="-734.3" font-family="Times,serif" font-size="14.00">interop.h</text>
</a>
</g>
</g>
<!-- 24 -->
<g id="node12" class="node">
<title>24</title>
<g id="a_node12"><a xlink:title="context.h">
<polygon fill="#ffffff" stroke="black" points="919.5,-684 836.5,-684 836.5,-648 919.5,-648 919.5,-684"/>
<text text-anchor="middle" x="878" y="-662.3" font-family="Times,serif" font-size="14.00">context.h</text>
</a>
</g>
</g>
<!-- 29&#45;&gt;24 -->
<g id="edge1" class="edge">
<title>29&#45;&gt;24</title>
<g id="a_edge1"><a xlink:title="include">
<path fill="none" stroke="#1414ce" d="M1095.96,-725.91C1050.86,-713.72 978.33,-694.12 929.45,-680.91"/>
<polygon fill="#1414ce" stroke="#1414ce" points="930.27,-677.5 919.7,-678.27 928.45,-684.26 930.27,-677.5"/>
</a>
</g>
</g>
<!-- 2 -->
<g id="node18" class="node">
<title>2</title>
<g id="a_node18"><a xlink:title="term.h">
<polygon fill="#ffffff" stroke="black" points="1119.5,-468 1054.5,-468 1054.5,-432 1119.5,-432 1119.5,-468"/>
<text text-anchor="middle" x="1087" y="-446.3" font-family="Times,serif" font-size="14.00">term.h</text>
</a>
</g>
</g>
<!-- 29&#45;&gt;2 -->
<g id="edge2" class="edge">
<title>29&#45;&gt;2</title>
<g id="a_edge2"><a xlink:title="include">
<path fill="none" stroke="#1414ce" d="M1141.64,-719.82C1148.92,-690.08 1161.02,-627.3 1149,-576 1140.42,-539.4 1119.46,-501.24 1104.28,-476.86"/>
<polygon fill="#1414ce" stroke="#1414ce" points="1107.11,-474.78 1098.79,-468.23 1101.2,-478.54 1107.11,-474.78"/>
</a>
</g>
</g>
<!-- 17 -->
<g id="node4" class="node">
<title>17</title>
<g id="a_node4"><a xlink:title="refc_binary.h">
<polygon fill="#ffffff" stroke="black" points="1020,-396 912,-396 912,-360 1020,-360 1020,-396"/>
<text text-anchor="middle" x="966" y="-374.3" font-family="Times,serif" font-size="14.00">refc_binary.h</text>
</a>
</g>
</g>
<!-- 17&#45;&gt;4 -->
<g id="edge3" class="edge">
<title>17&#45;&gt;4</title>
<g id="a_edge3"><a xlink:title="include">
<path fill="none" stroke="#1414ce" d="M969.69,-359.7C978.1,-314.99 993.06,-195.5 926,-144 873.73,-103.86 796.53,-93.17 745.75,-90.81"/>
<polygon fill="#1414ce" stroke="#1414ce" points="745.78,-87.3 735.65,-90.43 745.52,-94.3 745.78,-87.3"/>
</a>
</g>
</g>
<!-- 18 -->
<g id="node9" class="node">
<title>18</title>
<g id="a_node9"><a xlink:title="list.h">
<polygon fill="#ffffff" stroke="black" points="645,-180 591,-180 591,-144 645,-144 645,-180"/>
<text text-anchor="middle" x="618" y="-158.3" font-family="Times,serif" font-size="14.00">list.h</text>
</a>
</g>
</g>
<!-- 17&#45;&gt;18 -->
<g id="edge5" class="edge">
<title>17&#45;&gt;18</title>
<g id="a_edge5"><a xlink:title="include">
<path fill="none" stroke="#1414ce" d="M928.83,-359.95C881.3,-337.56 797.12,-295.91 730,-252 699.46,-232.02 667.07,-205.65 645.03,-186.81"/>
<polygon fill="#1414ce" stroke="#1414ce" points="647.26,-184.11 637.4,-180.24 642.69,-189.42 647.26,-184.11"/>
</a>
</g>
</g>
<!-- 7 -->
<g id="node11" class="node">
<title>7</title>
<g id="a_node11"><a xlink:title="stdlib.h">
<polygon fill="#ffffff" stroke="black" points="1118.5,-108 1047.5,-108 1047.5,-72 1118.5,-72 1118.5,-108"/>
<text text-anchor="middle" x="1083" y="-86.3" font-family="Times,serif" font-size="14.00">stdlib.h</text>
</a>
</g>
</g>
<!-- 17&#45;&gt;7 -->
<g id="edge4" class="edge">
<title>17&#45;&gt;7</title>
<g id="a_edge4"><a xlink:title="include">
<path fill="none" stroke="#1414ce" d="M979.55,-359.57C986.89,-349.56 995.71,-336.52 1002,-324 1037.69,-252.97 1064.21,-162.45 1076.09,-118.04"/>
<polygon fill="#1414ce" stroke="#1414ce" points="1079.5,-118.85 1078.67,-108.29 1072.73,-117.06 1079.5,-118.85"/>
</a>
</g>
</g>
<!-- 19 -->
<g id="node16" class="node">
<title>19</title>
<g id="a_node16"><a xlink:title="resources.h">
<polygon fill="#ffffff" stroke="black" points="1154,-324 1054,-324 1054,-288 1154,-288 1154,-324"/>
<text text-anchor="middle" x="1104" y="-302.3" font-family="Times,serif" font-size="14.00">resources.h</text>
</a>
</g>
</g>
<!-- 17&#45;&gt;19 -->
<g id="edge6" class="edge">
<title>17&#45;&gt;19</title>
<g id="a_edge6"><a xlink:title="include">
<path fill="none" stroke="#1414ce" d="M999.76,-359.88C1018.22,-350.51 1041.28,-338.81 1061.02,-328.8"/>
<polygon fill="#1414ce" stroke="#1414ce" points="1062.78,-331.83 1070.11,-324.19 1059.61,-325.59 1062.78,-331.83"/>
</a>
</g>
</g>
<!-- 22 -->
<g id="node5" class="node">
<title>22</title>
<g id="a_node5"><a xlink:title="atom.h">
<polygon fill="#ffffff" stroke="black" points="488,-468 422,-468 422,-432 488,-432 488,-468"/>
<text text-anchor="middle" x="455" y="-446.3" font-family="Times,serif" font-size="14.00">atom.h</text>
</a>
</g>
</g>
<!-- 5 -->
<g id="node10" class="node">
<title>5</title>
<g id="a_node10"><a xlink:title="stdint.h">
<polygon fill="#ffffff" stroke="black" points="283,-36 211,-36 211,0 283,0 283,-36"/>
<text text-anchor="middle" x="247" y="-14.3" font-family="Times,serif" font-size="14.00">stdint.h</text>
</a>
</g>
</g>
<!-- 22&#45;&gt;5 -->
<g id="edge7" class="edge">
<title>22&#45;&gt;5</title>
<g id="a_edge7"><a xlink:title="include">
<path fill="none" stroke="#1414ce" d="M421.84,-432.48C368.95,-404.04 267.37,-340.24 227,-252 195.42,-182.98 220.63,-90.52 236.52,-45.65"/>
<polygon fill="#1414ce" stroke="#1414ce" points="239.88,-46.66 240.04,-36.07 233.31,-44.25 239.88,-46.66"/>
</a>
</g>
</g>
<!-- 22&#45;&gt;7 -->
<g id="edge8" class="edge">
<title>22&#45;&gt;7</title>
<g id="a_edge8"><a xlink:title="include">
<path fill="none" stroke="#1414ce" d="M480.15,-431.95C539.37,-392.09 692.75,-290.55 827,-216 899.25,-175.88 986.25,-134.88 1037.97,-111.24"/>
<polygon fill="#1414ce" stroke="#1414ce" points="1039.55,-114.36 1047.2,-107.03 1036.65,-107.99 1039.55,-114.36"/>
</a>
</g>
</g>
<!-- 12 -->
<g id="node6" class="node">
<title>12</title>
<g id="a_node6"><a xlink:title="assert.h">
<polygon fill="#ffffff" stroke="black" points="1428,-36 1354,-36 1354,0 1428,0 1428,-36"/>
<text text-anchor="middle" x="1391" y="-14.3" font-family="Times,serif" font-size="14.00">assert.h</text>
</a>
</g>
</g>
<!-- 15 -->
<g id="node7" class="node">
<title>15</title>
<g id="a_node7"><a xlink:title="utils.h">
<polygon fill="#ffffff" stroke="black" points="1192,-180 1130,-180 1130,-144 1192,-144 1192,-180"/>
<text text-anchor="middle" x="1161" y="-158.3" font-family="Times,serif" font-size="14.00">utils.h</text>
</a>
</g>
</g>
<!-- 15&#45;&gt;7 -->
<g id="edge11" class="edge">
<title>15&#45;&gt;7</title>
<g id="a_edge11"><a xlink:title="include">
<path fill="none" stroke="#1414ce" d="M1141.72,-143.7C1132.08,-135.05 1120.27,-124.45 1109.77,-115.03"/>
<polygon fill="#1414ce" stroke="#1414ce" points="1111.84,-112.18 1102.06,-108.1 1107.16,-117.39 1111.84,-112.18"/>
</a>
</g>
</g>
<!-- 16 -->
<g id="node19" class="node">
<title>16</title>
<g id="a_node19"><a xlink:title="stddef.h">
<polygon fill="#ffffff" stroke="black" points="1398,-108 1324,-108 1324,-72 1398,-72 1398,-108"/>
<text text-anchor="middle" x="1361" y="-86.3" font-family="Times,serif" font-size="14.00">stddef.h</text>
</a>
</g>
</g>
<!-- 15&#45;&gt;16 -->
<g id="edge9" class="edge">
<title>15&#45;&gt;16</title>
<g id="a_edge9"><a xlink:title="include">
<path fill="none" stroke="#1414ce" d="M1192.25,-150.06C1224.93,-138.63 1276.58,-120.55 1314.14,-107.4"/>
<polygon fill="#1414ce" stroke="#1414ce" points="1315.57,-110.61 1323.85,-104 1313.26,-104 1315.57,-110.61"/>
</a>
</g>
</g>
<!-- 6 -->
<g id="node34" class="node">
<title>6</title>
<g id="a_node34"><a xlink:title="stdio.h">
<polygon fill="#ffffff" stroke="black" points="449.5,-108 384.5,-108 384.5,-72 449.5,-72 449.5,-108"/>
<text text-anchor="middle" x="417" y="-86.3" font-family="Times,serif" font-size="14.00">stdio.h</text>
</a>
</g>
</g>
<!-- 15&#45;&gt;6 -->
<g id="edge10" class="edge">
<title>15&#45;&gt;6</title>
<g id="a_edge10"><a xlink:title="include">
<path fill="none" stroke="#1414ce" d="M1129.98,-158.08C1012.58,-147.04 595.33,-107.78 459.83,-95.03"/>
<polygon fill="#1414ce" stroke="#1414ce" points="460.11,-91.54 449.83,-94.09 459.46,-98.51 460.11,-91.54"/>
</a>
</g>
</g>
<!-- 20 -->
<g id="node8" class="node">
<title>20</title>
<g id="a_node8"><a xlink:title="synclist.h">
<polygon fill="#ffffff" stroke="black" points="475.5,-252 390.5,-252 390.5,-216 475.5,-216 475.5,-252"/>
<text text-anchor="middle" x="433" y="-230.3" font-family="Times,serif" font-size="14.00">synclist.h</text>
</a>
</g>
</g>
<!-- 20&#45;&gt;18 -->
<g id="edge13" class="edge">
<title>20&#45;&gt;18</title>
<g id="a_edge13"><a xlink:title="include">
<path fill="none" stroke="#1414ce" d="M475.91,-216.76C507.88,-204.67 551.09,-188.32 581.43,-176.84"/>
<polygon fill="#1414ce" stroke="#1414ce" points="582.69,-180.1 590.8,-173.29 580.21,-173.56 582.69,-180.1"/>
</a>
</g>
</g>
<!-- 21 -->
<g id="node28" class="node">
<title>21</title>
<g id="a_node28"><a xlink:title="smp.h">
<polygon fill="#ffffff" stroke="black" points="541,-180 481,-180 481,-144 541,-144 541,-180"/>
<text text-anchor="middle" x="511" y="-158.3" font-family="Times,serif" font-size="14.00">smp.h</text>
</a>
</g>
</g>
<!-- 20&#45;&gt;21 -->
<g id="edge14" class="edge">
<title>20&#45;&gt;21</title>
<g id="a_edge14"><a xlink:title="include">
<path fill="none" stroke="#1414ce" d="M452.28,-215.7C461.92,-207.05 473.73,-196.45 484.23,-187.03"/>
<polygon fill="#1414ce" stroke="#1414ce" points="486.84,-189.39 491.94,-180.1 482.16,-184.18 486.84,-189.39"/>
</a>
</g>
</g>
<!-- 20&#45;&gt;6 -->
<g id="edge12" class="edge">
<title>20&#45;&gt;6</title>
<g id="a_edge12"><a xlink:title="include">
<path fill="none" stroke="#1414ce" d="M431.07,-215.87C428.34,-191.67 423.33,-147.21 420.09,-118.39"/>
<polygon fill="#1414ce" stroke="#1414ce" points="423.53,-117.73 418.94,-108.19 416.58,-118.52 423.53,-117.73"/>
</a>
</g>
</g>
<!-- 18&#45;&gt;4 -->
<g id="edge15" class="edge">
<title>18&#45;&gt;4</title>
<g id="a_edge15"><a xlink:title="include">
<path fill="none" stroke="#1414ce" d="M636.79,-143.7C646.17,-135.05 657.68,-124.45 667.91,-115.03"/>
<polygon fill="#1414ce" stroke="#1414ce" points="670.45,-117.45 675.43,-108.1 665.7,-112.3 670.45,-117.45"/>
</a>
</g>
</g>
<!-- 24&#45;&gt;18 -->
<g id="edge17" class="edge">
<title>24&#45;&gt;18</title>
<g id="a_edge17"><a xlink:title="include">
<path fill="none" stroke="#1414ce" d="M861.71,-647.88C817.87,-600.67 696.95,-462.92 642,-324 624.35,-279.38 619.55,-223.12 618.33,-190.29"/>
<polygon fill="#1414ce" stroke="#1414ce" points="621.82,-190 618.03,-180.11 614.82,-190.2 621.82,-190"/>
</a>
</g>
</g>
<!-- 24&#45;&gt;2 -->
<g id="edge20" class="edge">
<title>24&#45;&gt;2</title>
<g id="a_edge20"><a xlink:title="include">
<path fill="none" stroke="#1414ce" d="M889.08,-647.95C909.9,-616.78 957.46,-549.61 1009,-504 1021.47,-492.96 1036.35,-482.33 1049.75,-473.52"/>
<polygon fill="#1414ce" stroke="#1414ce" points="1051.79,-476.37 1058.3,-468.01 1048,-470.49 1051.79,-476.37"/>
</a>
</g>
</g>
<!-- 25 -->
<g id="node27" class="node">
<title>25</title>
<g id="a_node27"><a xlink:title="globalcontext.h">
<polygon fill="#ffffff" stroke="black" points="441.5,-612 314.5,-612 314.5,-576 441.5,-576 441.5,-612"/>
<text text-anchor="middle" x="378" y="-590.3" font-family="Times,serif" font-size="14.00">globalcontext.h</text>
</a>
</g>
</g>
<!-- 24&#45;&gt;25 -->
<g id="edge16" class="edge">
<title>24&#45;&gt;25</title>
<g id="a_edge16"><a xlink:title="include">
<path fill="none" stroke="#1414ce" d="M836.46,-650.34C833.28,-649.47 830.1,-648.67 827,-648 679.37,-615.93 638.82,-631.44 489,-612 476.87,-610.43 464.02,-608.6 451.53,-606.75"/>
<polygon fill="#1414ce" stroke="#1414ce" points="452.03,-603.28 441.62,-605.26 450.98,-610.2 452.03,-603.28"/>
</a>
</g>
</g>
<!-- 24&#45;&gt;21 -->
<g id="edge19" class="edge">
<title>24&#45;&gt;21</title>
<g id="a_edge19"><a xlink:title="include">
<path fill="none" stroke="#1414ce" d="M846.15,-648C830.14,-638.59 811,-625.99 796,-612 655.09,-480.59 554.53,-265.06 522.17,-189.88"/>
<polygon fill="#1414ce" stroke="#1414ce" points="525.2,-188.05 518.06,-180.22 518.76,-190.8 525.2,-188.05"/>
</a>
</g>
</g>
<!-- 28 -->
<g id="node31" class="node">
<title>28</title>
<g id="a_node31"><a xlink:title="timer_list.h">
<polygon fill="#ffffff" stroke="black" points="334,-252 236,-252 236,-216 334,-216 334,-252"/>
<text text-anchor="middle" x="285" y="-230.3" font-family="Times,serif" font-size="14.00">timer_list.h</text>
</a>
</g>
</g>
<!-- 24&#45;&gt;28 -->
<g id="edge21" class="edge">
<title>24&#45;&gt;28</title>
<g id="a_edge21"><a xlink:title="include">
<path fill="none" stroke="#1414ce" d="M836.48,-650.21C833.3,-649.37 830.11,-648.62 827,-648 769.97,-636.72 345.78,-653.43 305,-612 210.54,-516.03 254.82,-331.28 275.98,-262.06"/>
<polygon fill="#1414ce" stroke="#1414ce" points="279.38,-262.94 279.04,-252.35 272.7,-260.84 279.38,-262.94"/>
</a>
</g>
</g>
<!-- 27 -->
<g id="node33" class="node">
<title>27</title>
<g id="a_node33"><a xlink:title="mailbox.h">
<polygon fill="#ffffff" stroke="black" points="922,-252 836,-252 836,-216 922,-216 922,-252"/>
<text text-anchor="middle" x="879" y="-230.3" font-family="Times,serif" font-size="14.00">mailbox.h</text>
</a>
</g>
</g>
<!-- 24&#45;&gt;27 -->
<g id="edge18" class="edge">
<title>24&#45;&gt;27</title>
<g id="a_edge18"><a xlink:title="include">
<path fill="none" stroke="#1414ce" d="M871.52,-647.79C862.17,-621.36 846,-568.99 846,-523 846,-523 846,-523 846,-377 846,-335.97 859.23,-289.97 868.94,-261.74"/>
<polygon fill="#1414ce" stroke="#1414ce" points="872.28,-262.78 872.32,-252.19 865.68,-260.45 872.28,-262.78"/>
</a>
</g>
</g>
<!-- 9 -->
<g id="node13" class="node">
<title>9</title>
<g id="a_node13"><a xlink:title="memory.h">
<polygon fill="#ffffff" stroke="black" points="1303,-252 1217,-252 1217,-216 1303,-216 1303,-252"/>
<text text-anchor="middle" x="1260" y="-230.3" font-family="Times,serif" font-size="14.00">memory.h</text>
</a>
</g>
</g>
<!-- 9&#45;&gt;15 -->
<g id="edge26" class="edge">
<title>9&#45;&gt;15</title>
<g id="a_edge26"><a xlink:title="include">
<path fill="none" stroke="#1414ce" d="M1235.78,-215.88C1223.08,-206.89 1207.34,-195.76 1193.58,-186.03"/>
<polygon fill="#1414ce" stroke="#1414ce" points="1195.5,-183.11 1185.31,-180.19 1191.46,-188.82 1195.5,-183.11"/>
</a>
</g>
</g>
<!-- 9&#45;&gt;5 -->
<g id="edge22" class="edge">
<title>9&#45;&gt;5</title>
<g id="a_edge22"><a xlink:title="include">
<path fill="none" stroke="#1414ce" d="M1257.74,-215.76C1254.52,-196.63 1247.11,-165.64 1231,-144 1197.42,-98.91 1180.13,-90.37 1127,-72 970.92,-18.04 452.7,-17.39 293.76,-18.52"/>
<polygon fill="#1414ce" stroke="#1414ce" points="293.35,-15.02 283.38,-18.6 293.4,-22.02 293.35,-15.02"/>
</a>
</g>
</g>
<!-- 9&#45;&gt;7 -->
<g id="edge23" class="edge">
<title>9&#45;&gt;7</title>
<g id="a_edge23"><a xlink:title="include">
<path fill="none" stroke="#1414ce" d="M1252.3,-215.82C1242.73,-196.18 1224.74,-164.15 1201,-144 1179.95,-126.13 1151.91,-113.21 1128.44,-104.59"/>
<polygon fill="#1414ce" stroke="#1414ce" points="1129.29,-101.18 1118.69,-101.16 1126.97,-107.78 1129.29,-101.18"/>
</a>
</g>
</g>
<!-- 10 -->
<g id="node20" class="node">
<title>10</title>
<g id="a_node20"><a xlink:title="erl_nif.h">
<polygon fill="#ffffff" stroke="black" points="1474,-180 1400,-180 1400,-144 1474,-144 1474,-180"/>
<text text-anchor="middle" x="1437" y="-158.3" font-family="Times,serif" font-size="14.00">erl_nif.h</text>
</a>
</g>
</g>
<!-- 9&#45;&gt;10 -->
<g id="edge24" class="edge">
<title>9&#45;&gt;10</title>
<g id="a_edge24"><a xlink:title="include">
<path fill="none" stroke="#1414ce" d="M1303.3,-215.88C1329.64,-205.46 1363.29,-192.15 1390.24,-181.49"/>
<polygon fill="#1414ce" stroke="#1414ce" points="1391.82,-184.63 1399.84,-177.7 1389.25,-178.12 1391.82,-184.63"/>
</a>
</g>
</g>
<!-- 11 -->
<g id="node26" class="node">
<title>11</title>
<g id="a_node26"><a xlink:title="term_typedef.h">
<polygon fill="#ffffff" stroke="black" points="1541.5,-108 1416.5,-108 1416.5,-72 1541.5,-72 1541.5,-108"/>
<text text-anchor="middle" x="1479" y="-86.3" font-family="Times,serif" font-size="14.00">term_typedef.h</text>
</a>
</g>
</g>
<!-- 9&#45;&gt;11 -->
<g id="edge25" class="edge">
<title>9&#45;&gt;11</title>
<g id="a_edge25"><a xlink:title="include">
<path fill="none" stroke="#1414ce" d="M1290.88,-215.97C1308.1,-206.09 1329.7,-193.05 1348,-180 1368.29,-165.53 1370.71,-158.47 1391,-144 1406.29,-133.09 1423.9,-122.19 1439.33,-113.13"/>
<polygon fill="#1414ce" stroke="#1414ce" points="1441.23,-116.07 1448.12,-108.03 1437.72,-110.02 1441.23,-116.07"/>
</a>
</g>
</g>
<!-- 30 -->
<g id="node14" class="node">
<title>30</title>
<g id="a_node14"><a xlink:title="module.h">
<polygon fill="#ffffff" stroke="black" points="685.5,-756 602.5,-756 602.5,-720 685.5,-720 685.5,-756"/>
<text text-anchor="middle" x="644" y="-734.3" font-family="Times,serif" font-size="14.00">module.h</text>
</a>
</g>
</g>
<!-- 30&#45;&gt;4 -->
<g id="edge27" class="edge">
<title>30&#45;&gt;4</title>
<g id="a_edge27"><a xlink:title="include">
<path fill="none" stroke="#1414ce" d="M646.18,-719.87C650.54,-685.68 660.62,-606.53 669,-540 673.03,-508 675.31,-500.14 678,-468 688.91,-337.44 692.54,-180.79 693.6,-118.49"/>
<polygon fill="#1414ce" stroke="#1414ce" points="697.11,-118.37 693.77,-108.32 690.11,-118.26 697.11,-118.37"/>
</a>
</g>
</g>
<!-- 30&#45;&gt;22 -->
<g id="edge29" class="edge">
<title>30&#45;&gt;22</title>
<g id="a_edge29"><a xlink:title="include">
<path fill="none" stroke="#1414ce" d="M611.45,-719.84C575.61,-699.18 519.09,-661.07 489,-612 463.39,-570.25 456.84,-512.21 455.3,-478.42"/>
<polygon fill="#1414ce" stroke="#1414ce" points="458.79,-478.24 454.96,-468.36 451.8,-478.47 458.79,-478.24"/>
</a>
</g>
</g>
<!-- 30&#45;&gt;5 -->
<g id="edge28" class="edge">
<title>30&#45;&gt;5</title>
<g id="a_edge28"><a xlink:title="include">
<path fill="none" stroke="#1414ce" d="M602.27,-734.49C540.15,-729.78 420.31,-716.92 324,-684 168.86,-630.97 38,-614.95 38,-451 38,-451 38,-451 38,-161 38,-82.88 139.14,-44.73 200.71,-28.74"/>
<polygon fill="#1414ce" stroke="#1414ce" points="201.74,-32.09 210.59,-26.28 200.05,-25.3 201.74,-32.09"/>
</a>
</g>
</g>
<!-- 30&#45;&gt;24 -->
<g id="edge32" class="edge">
<title>30&#45;&gt;24</title>
<g id="a_edge32"><a xlink:title="include">
<path fill="none" stroke="#1414ce" d="M685.57,-725.47C720.65,-715.63 772.41,-700.84 826.52,-684.09"/>
<polygon fill="#1414ce" stroke="#1414ce" points="827.78,-687.36 836.3,-681.05 825.71,-680.68 827.78,-687.36"/>
</a>
</g>
</g>
<!-- 33 -->
<g id="node15" class="node">
<title>33</title>
<g id="a_node15"><a xlink:title="valueshashtable.h">
<polygon fill="#ffffff" stroke="black" points="818,-684 672,-684 672,-648 818,-648 818,-684"/>
<text text-anchor="middle" x="745" y="-662.3" font-family="Times,serif" font-size="14.00">valueshashtable.h</text>
</a>
</g>
</g>
<!-- 30&#45;&gt;33 -->
<g id="edge36" class="edge">
<title>30&#45;&gt;33</title>
<g id="a_edge36"><a xlink:title="include">
<path fill="none" stroke="#1414ce" d="M668.71,-719.88C681.67,-710.89 697.73,-699.76 711.77,-690.03"/>
<polygon fill="#1414ce" stroke="#1414ce" points="713.97,-692.76 720.2,-684.19 709.98,-687.01 713.97,-692.76"/>
</a>
</g>
</g>
<!-- 30&#45;&gt;2 -->
<g id="edge35" class="edge">
<title>30&#45;&gt;2</title>
<g id="a_edge35"><a xlink:title="include">
<path fill="none" stroke="#1414ce" d="M685.57,-733.86C755,-727.88 890.67,-712.8 928,-684 970.03,-651.58 950.05,-620.49 979,-576 992.43,-555.37 1036.41,-506.2 1063.93,-476.04"/>
<polygon fill="#1414ce" stroke="#1414ce" points="1066.71,-478.19 1070.88,-468.45 1061.55,-473.46 1066.71,-478.19"/>
</a>
</g>
</g>
<!-- 32 -->
<g id="node21" class="node">
<title>32</title>
<g id="a_node21"><a xlink:title="exportedfunction.h">
<polygon fill="#ffffff" stroke="black" points="1140,-612 988,-612 988,-576 1140,-576 1140,-612"/>
<text text-anchor="middle" x="1064" y="-590.3" font-family="Times,serif" font-size="14.00">exportedfunction.h</text>
</a>
</g>
</g>
<!-- 30&#45;&gt;32 -->
<g id="edge33" class="edge">
<title>30&#45;&gt;32</title>
<g id="a_edge33"><a xlink:title="include">
<path fill="none" stroke="#1414ce" d="M685.65,-733.5C762.7,-726.5 924.19,-709.27 974,-684 1003.45,-669.06 1029.34,-640.98 1045.7,-620.35"/>
<polygon fill="#1414ce" stroke="#1414ce" points="1048.58,-622.35 1051.91,-612.3 1043.03,-618.08 1048.58,-622.35"/>
</a>
</g>
</g>
<!-- 23 -->
<g id="node23" class="node">
<title>23</title>
<g id="a_node23"><a xlink:title="atom_table.h">
<polygon fill="#ffffff" stroke="black" points="175.5,-540 66.5,-540 66.5,-504 175.5,-504 175.5,-540"/>
<text text-anchor="middle" x="121" y="-518.3" font-family="Times,serif" font-size="14.00">atom_table.h</text>
</a>
</g>
</g>
<!-- 30&#45;&gt;23 -->
<g id="edge30" class="edge">
<title>30&#45;&gt;23</title>
<g id="a_edge30"><a xlink:title="include">
<path fill="none" stroke="#1414ce" d="M602.14,-730.07C555.48,-721.72 478.14,-706.02 414,-684 342.16,-659.34 325.52,-648.67 259,-612 221.83,-591.51 181.22,-564.75 153.74,-545.94"/>
<polygon fill="#1414ce" stroke="#1414ce" points="155.52,-542.92 145.3,-540.13 151.55,-548.69 155.52,-542.92"/>
</a>
</g>
</g>
<!-- 30&#45;&gt;25 -->
<g id="edge34" class="edge">
<title>30&#45;&gt;25</title>
<g id="a_edge34"><a xlink:title="include">
<path fill="none" stroke="#1414ce" d="M602.36,-732.22C562.3,-726.08 501.31,-712.6 456,-684 430.27,-667.76 408.21,-640.53 394.18,-620.46"/>
<polygon fill="#1414ce" stroke="#1414ce" points="397,-618.38 388.49,-612.07 391.21,-622.31 397,-618.38"/>
</a>
</g>
</g>
<!-- 31 -->
<g id="node29" class="node">
<title>31</title>
<g id="a_node29"><a xlink:title="atomshashtable.h">
<polygon fill="#ffffff" stroke="black" points="641.5,-612 498.5,-612 498.5,-576 641.5,-576 641.5,-612"/>
<text text-anchor="middle" x="570" y="-590.3" font-family="Times,serif" font-size="14.00">atomshashtable.h</text>
</a>
</g>
</g>
<!-- 30&#45;&gt;31 -->
<g id="edge31" class="edge">
<title>30&#45;&gt;31</title>
<g id="a_edge31"><a xlink:title="include">
<path fill="none" stroke="#1414ce" d="M635.07,-719.87C622.3,-695.35 598.68,-650.03 583.68,-621.26"/>
<polygon fill="#1414ce" stroke="#1414ce" points="586.68,-619.44 578.96,-612.19 580.48,-622.67 586.68,-619.44"/>
</a>
</g>
</g>
<!-- 19&#45;&gt;20 -->
<g id="edge41" class="edge">
<title>19&#45;&gt;20</title>
<g id="a_edge41"><a xlink:title="include">
<path fill="none" stroke="#1414ce" d="M1053.84,-299.77C930.29,-286.88 612.18,-253.69 485.85,-240.51"/>
<polygon fill="#1414ce" stroke="#1414ce" points="485.97,-237.01 475.66,-239.45 485.24,-243.97 485.97,-237.01"/>
</a>
</g>
</g>
<!-- 19&#45;&gt;18 -->
<g id="edge39" class="edge">
<title>19&#45;&gt;18</title>
<g id="a_edge39"><a xlink:title="include">
<path fill="none" stroke="#1414ce" d="M1053.94,-298.7C997.86,-290.9 904.63,-275.66 827,-252 764.35,-232.91 695.04,-201.13 654.06,-181.17"/>
<polygon fill="#1414ce" stroke="#1414ce" points="655.54,-177.99 645.02,-176.73 652.46,-184.28 655.54,-177.99"/>
</a>
</g>
</g>
<!-- 19&#45;&gt;7 -->
<g id="edge37" class="edge">
<title>19&#45;&gt;7</title>
<g id="a_edge37"><a xlink:title="include">
<path fill="none" stroke="#1414ce" d="M1101.38,-287.65C1097.84,-263.56 1091.55,-218.56 1088,-180 1086.1,-159.33 1084.82,-135.88 1084.03,-118.24"/>
<polygon fill="#1414ce" stroke="#1414ce" points="1087.52,-117.93 1083.6,-108.09 1080.52,-118.23 1087.52,-117.93"/>
</a>
</g>
</g>
<!-- 19&#45;&gt;9 -->
<g id="edge40" class="edge">
<title>19&#45;&gt;9</title>
<g id="a_edge40"><a xlink:title="include">
<path fill="none" stroke="#1414ce" d="M1142.16,-287.88C1163.39,-278.35 1190.01,-266.41 1212.57,-256.28"/>
<polygon fill="#1414ce" stroke="#1414ce" points="1214.27,-259.36 1221.96,-252.07 1211.41,-252.97 1214.27,-259.36"/>
</a>
</g>
</g>
<!-- 19&#45;&gt;10 -->
<g id="edge38" class="edge">
<title>19&#45;&gt;10</title>
<g id="a_edge38"><a xlink:title="include">
<path fill="none" stroke="#1414ce" d="M1154.08,-297.59C1197.34,-289.95 1260.78,-275.75 1312,-252 1348.7,-234.99 1385.84,-206.85 1409.98,-186.76"/>
<polygon fill="#1414ce" stroke="#1414ce" points="1412.27,-189.41 1417.65,-180.29 1407.75,-184.06 1412.27,-189.41"/>
</a>
</g>
</g>
<!-- 1 -->
<g id="node17" class="node">
<title>1</title>
<g id="a_node17"><a xlink:title="/__w/AtomVM/AtomVM/src/libAtomVM/term.c">
<polygon fill="#bfbfbf" stroke="black" points="1341,-828 1001,-828 1001,-792 1341,-792 1341,-828"/>
<text text-anchor="middle" x="1171" y="-806.3" font-family="Times,serif" font-size="14.00">/__w/AtomVM/AtomVM/src/libAtomVM/term.c</text>
</a>
</g>
</g>
<!-- 1&#45;&gt;36 -->
<g id="edge51" class="edge">
<title>1&#45;&gt;36</title>
<g id="a_edge51"><a xlink:title="include">
<path fill="none" stroke="#1414ce" d="M1195.95,-791.88C1209.04,-782.89 1225.26,-771.76 1239.44,-762.03"/>
<polygon fill="#1414ce" stroke="#1414ce" points="1241.69,-764.73 1247.95,-756.19 1237.73,-758.96 1241.69,-764.73"/>
</a>
</g>
</g>
<!-- 1&#45;&gt;29 -->
<g id="edge46" class="edge">
<title>1&#45;&gt;29</title>
<g id="a_edge46"><a xlink:title="include">
<path fill="none" stroke="#1414ce" d="M1162.6,-791.7C1158.73,-783.73 1154.05,-774.1 1149.76,-765.26"/>
<polygon fill="#1414ce" stroke="#1414ce" points="1152.83,-763.57 1145.31,-756.1 1146.53,-766.63 1152.83,-763.57"/>
</a>
</g>
</g>
<!-- 1&#45;&gt;22 -->
<g id="edge43" class="edge">
<title>1&#45;&gt;22</title>
<g id="a_edge43"><a xlink:title="include">
<path fill="none" stroke="#1414ce" d="M1000.69,-806.35C884.43,-801.4 727.69,-788.52 593,-756 509.65,-735.87 489.94,-723.83 414,-684 353.61,-652.32 276.07,-637.76 305,-576 327.14,-528.74 376.9,-493.11 413.05,-472.22"/>
<polygon fill="#1414ce" stroke="#1414ce" points="414.92,-475.18 421.92,-467.23 411.49,-469.08 414.92,-475.18"/>
</a>
</g>
</g>
<!-- 1&#45;&gt;24 -->
<g id="edge45" class="edge">
<title>1&#45;&gt;24</title>
<g id="a_edge45"><a xlink:title="include">
<path fill="none" stroke="#1414ce" d="M1135.66,-791.87C1082.31,-766.02 981.26,-717.04 922.82,-688.72"/>
<polygon fill="#1414ce" stroke="#1414ce" points="923.99,-685.4 913.47,-684.19 920.94,-691.7 923.99,-685.4"/>
</a>
</g>
</g>
<!-- 1&#45;&gt;30 -->
<g id="edge47" class="edge">
<title>1&#45;&gt;30</title>
<g id="a_edge47"><a xlink:title="include">
<path fill="none" stroke="#1414ce" d="M1042.76,-791.97C931.37,-777.17 775.75,-756.5 695.85,-745.89"/>
<polygon fill="#1414ce" stroke="#1414ce" points="695.93,-742.37 685.56,-744.52 695.01,-749.31 695.93,-742.37"/>
</a>
</g>
</g>
<!-- 1&#45;&gt;2 -->
<g id="edge42" class="edge">
<title>1&#45;&gt;2</title>
<g id="a_edge42"><a xlink:title="include">
<path fill="none" stroke="#1414ce" d="M1178.08,-791.85C1188.31,-765.49 1206,-713.21 1206,-667 1206,-667 1206,-667 1206,-593 1206,-541.41 1159.28,-498.72 1124.39,-474.03"/>
<polygon fill="#1414ce" stroke="#1414ce" points="1126.03,-470.92 1115.81,-468.15 1122.08,-476.69 1126.03,-470.92"/>
</a>
</g>
</g>
<!-- 1&#45;&gt;16 -->
<g id="edge52" class="edge">
<title>1&#45;&gt;16</title>
<g id="a_edge52"><a xlink:title="include">
<path fill="none" stroke="#1414ce" d="M1258.11,-791.93C1280.76,-784.06 1303.64,-772.62 1321,-756 1476.42,-607.21 1502,-522.16 1502,-307 1502,-307 1502,-307 1502,-233 1502,-192.55 1508.61,-175.31 1483,-144 1477.73,-137.55 1439.66,-121.54 1407.43,-108.79"/>
<polygon fill="#1414ce" stroke="#1414ce" points="1408.68,-105.52 1398.09,-105.13 1406.12,-112.04 1408.68,-105.52"/>
</a>
</g>
</g>
<!-- 1&#45;&gt;23 -->
<g id="edge44" class="edge">
<title>1&#45;&gt;23</title>
<g id="a_edge44"><a xlink:title="include">
<path fill="none" stroke="#1414ce" d="M1000.98,-805.93C717.34,-800 175.47,-784.95 145,-756 88.7,-702.5 103.05,-599.14 113.96,-550.1"/>
<polygon fill="#1414ce" stroke="#1414ce" points="117.4,-550.76 116.28,-540.22 110.59,-549.16 117.4,-550.76"/>
</a>
</g>
</g>
<!-- 35 -->
<g id="node30" class="node">
<title>35</title>
<g id="a_node30"><a xlink:title="ctype.h">
<polygon fill="#ffffff" stroke="black" points="1437.5,-756 1368.5,-756 1368.5,-720 1437.5,-720 1437.5,-756"/>
<text text-anchor="middle" x="1403" y="-734.3" font-family="Times,serif" font-size="14.00">ctype.h</text>
</a>
</g>
</g>
<!-- 1&#45;&gt;35 -->
<g id="edge49" class="edge">
<title>1&#45;&gt;35</title>
<g id="a_edge49"><a xlink:title="include">
<path fill="none" stroke="#1414ce" d="M1233.08,-791.89C1268.62,-781.87 1313.97,-768.73 1354,-756 1355.45,-755.54 1356.92,-755.07 1358.4,-754.58"/>
<polygon fill="#1414ce" stroke="#1414ce" points="1359.89,-757.78 1368.28,-751.3 1357.68,-751.13 1359.89,-757.78"/>
</a>
</g>
</g>
<!-- 34 -->
<g id="node32" class="node">
<title>34</title>
<g id="a_node32"><a xlink:title="tempstack.h">
<polygon fill="#ffffff" stroke="black" points="1560,-756 1456,-756 1456,-720 1560,-720 1560,-756"/>
<text text-anchor="middle" x="1508" y="-734.3" font-family="Times,serif" font-size="14.00">tempstack.h</text>
</a>
</g>
</g>
<!-- 1&#45;&gt;34 -->
<g id="edge48" class="edge">
<title>1&#45;&gt;34</title>
<g id="a_edge48"><a xlink:title="include">
<path fill="none" stroke="#1414ce" d="M1270.42,-791.95C1320.54,-782.86 1382.43,-770.91 1446.02,-756.14"/>
<polygon fill="#1414ce" stroke="#1414ce" points="1446.89,-759.53 1455.83,-753.84 1445.29,-752.72 1446.89,-759.53"/>
</a>
</g>
</g>
<!-- 1&#45;&gt;6 -->
<g id="edge53" class="edge">
<title>1&#45;&gt;6</title>
<g id="a_edge53"><a xlink:title="include">
<path fill="none" stroke="#1414ce" d="M1000.76,-805.99C723.36,-800.26 196.55,-785.61 116,-756 55.01,-733.58 0,-731.98 0,-667 0,-667 0,-667 0,-377 0,-196.89 267.84,-121.78 374.21,-99.05"/>
<polygon fill="#1414ce" stroke="#1414ce" points="375.2,-102.41 384.28,-96.95 373.78,-95.56 375.2,-102.41"/>
</a>
</g>
</g>
<!-- 14 -->
<g id="node36" class="node">
<title>14</title>
<g id="a_node36"><a xlink:title="inttypes.h">
<polygon fill="#ffffff" stroke="black" points="1629.5,-36 1540.5,-36 1540.5,0 1629.5,0 1629.5,-36"/>
<text text-anchor="middle" x="1585" y="-14.3" font-family="Times,serif" font-size="14.00">inttypes.h</text>
</a>
</g>
</g>
<!-- 1&#45;&gt;14 -->
<g id="edge50" class="edge">
<title>1&#45;&gt;14</title>
<g id="a_edge50"><a xlink:title="include">
<path fill="none" stroke="#1414ce" d="M1341.16,-805.48C1433.62,-799.95 1535.74,-786.77 1569,-756 1598.69,-728.54 1588,-707.45 1588,-667 1588,-667 1588,-667 1588,-161 1588,-120.99 1586.79,-74.65 1585.91,-46.08"/>
<polygon fill="#1414ce" stroke="#1414ce" points="1589.41,-45.93 1585.59,-36.05 1582.41,-46.15 1589.41,-45.93"/>
</a>
</g>
</g>
<!-- 2&#45;&gt;4 -->
<g id="edge55" class="edge">
<title>2&#45;&gt;4</title>
<g id="a_edge55"><a xlink:title="include">
<path fill="none" stroke="#1414ce" d="M1054.32,-444.33C1006.52,-436.76 921.19,-420.17 903,-396 854.31,-331.31 969.8,-287.06 931,-216 893.57,-147.44 803.27,-115.04 745.57,-100.86"/>
<polygon fill="#1414ce" stroke="#1414ce" points="746.08,-97.39 735.55,-98.5 744.48,-104.2 746.08,-97.39"/>
</a>
</g>
</g>
<!-- 2&#45;&gt;17 -->
<g id="edge61" class="edge">
<title>2&#45;&gt;17</title>
<g id="a_edge61"><a xlink:title="include">
<path fill="none" stroke="#1414ce" d="M1057.4,-431.88C1041.43,-422.64 1021.54,-411.13 1004.39,-401.21"/>
<polygon fill="#1414ce" stroke="#1414ce" points="1006.12,-398.17 995.71,-396.19 1002.62,-404.23 1006.12,-398.17"/>
</a>
</g>
</g>
<!-- 2&#45;&gt;15 -->
<g id="edge62" class="edge">
<title>2&#45;&gt;15</title>
<g id="a_edge62"><a xlink:title="include">
<path fill="none" stroke="#1414ce" d="M1119.72,-444.22C1167.08,-436.54 1251.08,-419.89 1269,-396 1310.72,-340.4 1244.12,-311.38 1208,-252 1195.51,-231.47 1182.88,-207.31 1173.86,-189.35"/>
<polygon fill="#1414ce" stroke="#1414ce" points="1176.83,-187.46 1169.24,-180.07 1170.56,-190.58 1176.83,-187.46"/>
</a>
</g>
</g>
<!-- 2&#45;&gt;5 -->
<g id="edge56" class="edge">
<title>2&#45;&gt;5</title>
<g id="a_edge56"><a xlink:title="include">
<path fill="none" stroke="#1414ce" d="M1119.96,-446.75C1179.93,-441.9 1303.11,-428.17 1329,-396 1428.72,-272.08 1323.02,-135.06 1177,-72 1095.52,-36.81 469.97,-23 293.32,-19.78"/>
<polygon fill="#1414ce" stroke="#1414ce" points="293.12,-16.27 283.06,-19.59 293,-23.27 293.12,-16.27"/>
</a>
</g>
</g>
<!-- 2&#45;&gt;7 -->
<g id="edge58" class="edge">
<title>2&#45;&gt;7</title>
<g id="a_edge58"><a xlink:title="include">
<path fill="none" stroke="#1414ce" d="M1119.56,-447.76C1154.87,-444.47 1209.72,-433.24 1236,-396 1245.23,-382.93 1240.49,-375.36 1236,-360 1209.38,-268.88 1165.35,-263.94 1121,-180 1110.26,-159.66 1100.14,-135.63 1093.05,-117.66"/>
<polygon fill="#1414ce" stroke="#1414ce" points="1096.22,-116.17 1089.34,-108.12 1089.7,-118.7 1096.22,-116.17"/>
</a>
</g>
</g>
<!-- 2&#45;&gt;9 -->
<g id="edge60" class="edge">
<title>2&#45;&gt;9</title>
<g id="a_edge60"><a xlink:title="include">
<path fill="none" stroke="#1414ce" d="M1119.6,-446C1175.06,-440.15 1284.03,-425.16 1307,-396 1336.7,-358.29 1324.03,-332.88 1307,-288 1303.03,-277.54 1295.95,-267.83 1288.47,-259.65"/>
<polygon fill="#1414ce" stroke="#1414ce" points="1290.77,-256.99 1281.27,-252.3 1285.77,-261.89 1290.77,-256.99"/>
</a>
</g>
</g>
<!-- 3 -->
<g id="node24" class="node">
<title>3</title>
<g id="a_node24"><a xlink:title="sys/types.h">
<polygon fill="#ffffff" stroke="black" points="1135.5,-396 1038.5,-396 1038.5,-360 1135.5,-360 1135.5,-396"/>
<text text-anchor="middle" x="1087" y="-374.3" font-family="Times,serif" font-size="14.00">sys/types.h</text>
</a>
</g>
</g>
<!-- 2&#45;&gt;3 -->
<g id="edge54" class="edge">
<title>2&#45;&gt;3</title>
<g id="a_edge54"><a xlink:title="include">
<path fill="none" stroke="#1414ce" d="M1087,-431.7C1087,-423.98 1087,-414.71 1087,-406.11"/>
<polygon fill="#1414ce" stroke="#1414ce" points="1090.5,-406.1 1087,-396.1 1083.5,-406.1 1090.5,-406.1"/>
</a>
</g>
</g>
<!-- 8 -->
<g id="node25" class="node">
<title>8</title>
<g id="a_node25"><a xlink:title="string.h">
<polygon fill="#ffffff" stroke="black" points="1226.5,-396 1153.5,-396 1153.5,-360 1226.5,-360 1226.5,-396"/>
<text text-anchor="middle" x="1190" y="-374.3" font-family="Times,serif" font-size="14.00">string.h</text>
</a>
</g>
</g>
<!-- 2&#45;&gt;8 -->
<g id="edge59" class="edge">
<title>2&#45;&gt;8</title>
<g id="a_edge59"><a xlink:title="include">
<path fill="none" stroke="#1414ce" d="M1112.2,-431.88C1125.41,-422.89 1141.79,-411.76 1156.11,-402.03"/>
<polygon fill="#1414ce" stroke="#1414ce" points="1158.4,-404.71 1164.71,-396.19 1154.47,-398.92 1158.4,-404.71"/>
</a>
</g>
</g>
<!-- 2&#45;&gt;11 -->
<g id="edge63" class="edge">
<title>2&#45;&gt;11</title>
<g id="a_edge63"><a xlink:title="include">
<path fill="none" stroke="#1414ce" d="M1119.63,-446.51C1187.35,-440.81 1340.39,-425.03 1383,-396 1476.17,-332.53 1485.28,-288.47 1516,-180 1520.36,-164.61 1520.8,-159.26 1516,-144 1512.9,-134.15 1507.25,-124.53 1501.28,-116.25"/>
<polygon fill="#1414ce" stroke="#1414ce" points="1503.91,-113.94 1495.04,-108.15 1498.37,-118.21 1503.91,-113.94"/>
</a>
</g>
</g>
<!-- 2&#45;&gt;6 -->
<g id="edge57" class="edge">
<title>2&#45;&gt;6</title>
<g id="a_edge57"><a xlink:title="include">
<path fill="none" stroke="#1414ce" d="M1054.35,-446C1012.86,-440.98 940.24,-428.05 887,-396 756.31,-317.34 786.2,-220.09 654,-144 592.59,-108.65 509.68,-96.88 459.96,-92.95"/>
<polygon fill="#1414ce" stroke="#1414ce" points="460.1,-89.45 449.87,-92.23 459.59,-96.44 460.1,-89.45"/>
</a>
</g>
</g>
<!-- 10&#45;&gt;11 -->
<g id="edge64" class="edge">
<title>10&#45;&gt;11</title>
<g id="a_edge64"><a xlink:title="include">
<path fill="none" stroke="#1414ce" d="M1447.38,-143.7C1452.26,-135.56 1458.19,-125.69 1463.58,-116.7"/>
<polygon fill="#1414ce" stroke="#1414ce" points="1466.59,-118.48 1468.74,-108.1 1460.59,-114.88 1466.59,-118.48"/>
</a>
</g>
</g>
<!-- 32&#45;&gt;2 -->
<g id="edge65" class="edge">
<title>32&#45;&gt;2</title>
<g id="a_edge65"><a xlink:title="include">
<path fill="none" stroke="#1414ce" d="M1066.77,-575.87C1070.69,-551.67 1077.9,-507.21 1082.56,-478.39"/>
<polygon fill="#1414ce" stroke="#1414ce" points="1086.07,-478.62 1084.22,-468.19 1079.16,-477.5 1086.07,-478.62"/>
</a>
</g>
</g>
<!-- 13 -->
<g id="node22" class="node">
<title>13</title>
<g id="a_node22"><a xlink:title="limits.h">
<polygon fill="#ffffff" stroke="black" points="1517.5,-36 1446.5,-36 1446.5,0 1517.5,0 1517.5,-36"/>
<text text-anchor="middle" x="1482" y="-14.3" font-family="Times,serif" font-size="14.00">limits.h</text>
</a>
</g>
</g>
<!-- 23&#45;&gt;4 -->
<g id="edge66" class="edge">
<title>23&#45;&gt;4</title>
<g id="a_edge66"><a xlink:title="include">
<path fill="none" stroke="#1414ce" d="M122.32,-503.79C127.08,-453.23 147.53,-303.23 227,-216 278.97,-158.95 311.25,-166.71 385,-144 473.14,-116.86 579.98,-102.43 642.15,-95.77"/>
<polygon fill="#1414ce" stroke="#1414ce" points="642.89,-99.21 652.48,-94.69 642.17,-92.25 642.89,-99.21"/>
</a>
</g>
</g>
<!-- 23&#45;&gt;22 -->
<g id="edge67" class="edge">
<title>23&#45;&gt;22</title>
<g id="a_edge67"><a xlink:title="include">
<path fill="none" stroke="#1414ce" d="M175.78,-509.52C241.73,-495.7 351.15,-472.76 411.58,-460.1"/>
<polygon fill="#1414ce" stroke="#1414ce" points="412.48,-463.49 421.55,-458.01 411.05,-456.64 412.48,-463.49"/>
</a>
</g>
</g>
<!-- 11&#45;&gt;12 -->
<g id="edge68" class="edge">
<title>11&#45;&gt;12</title>
<g id="a_edge68"><a xlink:title="include">
<path fill="none" stroke="#1414ce" d="M1457.25,-71.7C1446.16,-62.88 1432.53,-52.03 1420.51,-42.47"/>
<polygon fill="#1414ce" stroke="#1414ce" points="1422.51,-39.59 1412.5,-36.1 1418.15,-45.07 1422.51,-39.59"/>
</a>
</g>
</g>
<!-- 11&#45;&gt;5 -->
<g id="edge71" class="edge">
<title>11&#45;&gt;5</title>
<g id="a_edge71"><a xlink:title="include">
<path fill="none" stroke="#1414ce" d="M1416.3,-73.47C1413.17,-72.92 1410.05,-72.43 1407,-72 1186.18,-41.16 480.95,-24.05 293.25,-19.96"/>
<polygon fill="#1414ce" stroke="#1414ce" points="293.24,-16.46 283.17,-19.74 293.09,-23.46 293.24,-16.46"/>
</a>
</g>
</g>
<!-- 11&#45;&gt;13 -->
<g id="edge69" class="edge">
<title>11&#45;&gt;13</title>
<g id="a_edge69"><a xlink:title="include">
<path fill="none" stroke="#1414ce" d="M1479.74,-71.7C1480.07,-63.98 1480.47,-54.71 1480.84,-46.11"/>
<polygon fill="#1414ce" stroke="#1414ce" points="1484.34,-46.25 1481.27,-36.1 1477.34,-45.95 1484.34,-46.25"/>
</a>
</g>
</g>
<!-- 11&#45;&gt;14 -->
<g id="edge70" class="edge">
<title>11&#45;&gt;14</title>
<g id="a_edge70"><a xlink:title="include">
<path fill="none" stroke="#1414ce" d="M1504.93,-71.88C1518.66,-62.81 1535.71,-51.55 1550.54,-41.76"/>
<polygon fill="#1414ce" stroke="#1414ce" points="1552.55,-44.62 1558.97,-36.19 1548.7,-38.78 1552.55,-44.62"/>
</a>
</g>
</g>
<!-- 25&#45;&gt;22 -->
<g id="edge73" class="edge">
<title>25&#45;&gt;22</title>
<g id="a_edge73"><a xlink:title="include">
<path fill="none" stroke="#1414ce" d="M387.86,-575.89C393.77,-565.54 401.4,-552.06 408,-540 419.46,-519.05 432.08,-495.09 441.36,-477.32"/>
<polygon fill="#1414ce" stroke="#1414ce" points="444.62,-478.63 446.14,-468.14 438.41,-475.39 444.62,-478.63"/>
</a>
</g>
</g>
<!-- 25&#45;&gt;20 -->
<g id="edge80" class="edge">
<title>25&#45;&gt;20</title>
<g id="a_edge80"><a xlink:title="include">
<path fill="none" stroke="#1414ce" d="M380.65,-575.73C389.49,-518.19 418,-332.66 428.8,-262.35"/>
<polygon fill="#1414ce" stroke="#1414ce" points="432.31,-262.51 430.37,-252.09 425.4,-261.45 432.31,-262.51"/>
</a>
</g>
</g>
<!-- 25&#45;&gt;18 -->
<g id="edge77" class="edge">
<title>25&#45;&gt;18</title>
<g id="a_edge77"><a xlink:title="include">
<path fill="none" stroke="#1414ce" d="M441.75,-581.8C503.43,-570.33 589.02,-552.45 599,-540 604.63,-532.98 602.77,-224.92 604,-216 605.17,-207.51 607.25,-198.45 609.45,-190.25"/>
<polygon fill="#1414ce" stroke="#1414ce" points="612.87,-191.03 612.25,-180.45 606.14,-189.1 612.87,-191.03"/>
</a>
</g>
</g>
<!-- 25&#45;&gt;5 -->
<g id="edge72" class="edge">
<title>25&#45;&gt;5</title>
<g id="a_edge72"><a xlink:title="include">
<path fill="none" stroke="#1414ce" d="M356.68,-575.99C310.07,-537.26 200.05,-437.04 160,-324 123.93,-222.19 194.21,-97.34 229.04,-44.52"/>
<polygon fill="#1414ce" stroke="#1414ce" points="232.03,-46.35 234.71,-36.1 226.22,-42.44 232.03,-46.35"/>
</a>
</g>
</g>
<!-- 25&#45;&gt;2 -->
<g id="edge81" class="edge">
<title>25&#45;&gt;2</title>
<g id="a_edge81"><a xlink:title="include">
<path fill="none" stroke="#1414ce" d="M441.58,-583.04C530.07,-569.14 682.42,-545.05 708,-540 831.08,-515.7 974.93,-479.85 1044.72,-461.97"/>
<polygon fill="#1414ce" stroke="#1414ce" points="1045.66,-465.34 1054.47,-459.47 1043.92,-458.56 1045.66,-465.34"/>
</a>
</g>
</g>
<!-- 25&#45;&gt;10 -->
<g id="edge75" class="edge">
<title>25&#45;&gt;10</title>
<g id="a_edge75"><a xlink:title="include">
<path fill="none" stroke="#1414ce" d="M441.63,-582.84C457.11,-580.48 473.64,-578.06 489,-576 878.19,-523.76 1071.09,-668.32 1354,-396 1412.82,-339.38 1430.05,-238.35 1435.02,-190.1"/>
<polygon fill="#1414ce" stroke="#1414ce" points="1438.51,-190.38 1435.96,-180.1 1431.54,-189.73 1438.51,-190.38"/>
</a>
</g>
</g>
<!-- 25&#45;&gt;23 -->
<g id="edge74" class="edge">
<title>25&#45;&gt;23</title>
<g id="a_edge74"><a xlink:title="include">
<path fill="none" stroke="#1414ce" d="M315.46,-575.97C276.01,-565.22 225.19,-551.38 185.39,-540.54"/>
<polygon fill="#1414ce" stroke="#1414ce" points="186.09,-537.1 175.52,-537.85 184.25,-543.86 186.09,-537.1"/>
</a>
</g>
</g>
<!-- 25&#45;&gt;21 -->
<g id="edge79" class="edge">
<title>25&#45;&gt;21</title>
<g id="a_edge79"><a xlink:title="include">
<path fill="none" stroke="#1414ce" d="M377.61,-575.61C376.04,-503.5 370.81,-231.03 381,-216 391.58,-200.39 436.86,-184.29 471.03,-173.99"/>
<polygon fill="#1414ce" stroke="#1414ce" points="472.18,-177.3 480.78,-171.12 470.2,-170.59 472.18,-177.3"/>
</a>
</g>
</g>
<!-- 25&#45;&gt;28 -->
<g id="edge82" class="edge">
<title>25&#45;&gt;28</title>
<g id="a_edge82"><a xlink:title="include">
<path fill="none" stroke="#1414ce" d="M373.51,-575.73C358.54,-518.08 310.17,-331.89 291.99,-261.92"/>
<polygon fill="#1414ce" stroke="#1414ce" points="295.34,-260.89 289.44,-252.09 288.57,-262.65 295.34,-260.89"/>
</a>
</g>
</g>
<!-- 25&#45;&gt;27 -->
<g id="edge78" class="edge">
<title>25&#45;&gt;27</title>
<g id="a_edge78"><a xlink:title="include">
<path fill="none" stroke="#1414ce" d="M441.81,-582.22C511.76,-570 616.22,-550.43 632,-540 672.22,-513.42 694,-499.21 694,-451 694,-451 694,-451 694,-377 694,-309.97 771.37,-270.25 826.05,-250.55"/>
<polygon fill="#1414ce" stroke="#1414ce" points="827.33,-253.81 835.63,-247.21 825.03,-247.19 827.33,-253.81"/>
</a>
</g>
</g>
<!-- 26 -->
<g id="node35" class="node">
<title>26</title>
<g id="a_node35"><a xlink:title="ets.h">
<polygon fill="#ffffff" stroke="black" points="590,-540 536,-540 536,-504 590,-504 590,-540"/>
<text text-anchor="middle" x="563" y="-518.3" font-family="Times,serif" font-size="14.00">ets.h</text>
</a>
</g>
</g>
<!-- 25&#45;&gt;26 -->
<g id="edge76" class="edge">
<title>25&#45;&gt;26</title>
<g id="a_edge76"><a xlink:title="include">
<path fill="none" stroke="#1414ce" d="M423.26,-575.88C454.97,-563.88 496.82,-548.04 526.42,-536.84"/>
<polygon fill="#1414ce" stroke="#1414ce" points="527.85,-540.04 535.96,-533.23 525.37,-533.5 527.85,-540.04"/>
</a>
</g>
</g>
<!-- 21&#45;&gt;4 -->
<g id="edge83" class="edge">
<title>21&#45;&gt;4</title>
<g id="a_edge83"><a xlink:title="include">
<path fill="none" stroke="#1414ce" d="M541.22,-149.44C568.85,-138.87 610.27,-123.03 643.01,-110.5"/>
<polygon fill="#1414ce" stroke="#1414ce" points="644.35,-113.74 652.44,-106.9 641.84,-107.2 644.35,-113.74"/>
</a>
</g>
</g>
<!-- 31&#45;&gt;22 -->
<g id="edge84" class="edge">
<title>31&#45;&gt;22</title>
<g id="a_edge84"><a xlink:title="include">
<path fill="none" stroke="#1414ce" d="M556.05,-575.82C547.63,-565.45 536.7,-551.97 527,-540 509.58,-518.5 489.82,-494.06 475.41,-476.24"/>
<polygon fill="#1414ce" stroke="#1414ce" points="477.8,-473.64 468.8,-468.07 472.36,-478.04 477.8,-473.64"/>
</a>
</g>
</g>
<!-- 28&#45;&gt;4 -->
<g id="edge85" class="edge">
<title>28&#45;&gt;4</title>
<g id="a_edge85"><a xlink:title="include">
<path fill="none" stroke="#1414ce" d="M315.58,-215.98C351.93,-196.34 414.87,-164.16 472,-144 528.97,-123.89 596.83,-108.94 642.39,-100.13"/>
<polygon fill="#1414ce" stroke="#1414ce" points="643.17,-103.54 652.34,-98.24 641.86,-96.67 643.17,-103.54"/>
</a>
</g>
</g>
<!-- 28&#45;&gt;18 -->
<g id="edge87" class="edge">
<title>28&#45;&gt;18</title>
<g id="a_edge87"><a xlink:title="include">
<path fill="none" stroke="#1414ce" d="M334.48,-223.83C387.82,-213.78 475.16,-196.83 550,-180 560.15,-177.72 571.11,-175.06 581.2,-172.54"/>
<polygon fill="#1414ce" stroke="#1414ce" points="582.1,-175.92 590.94,-170.08 580.38,-169.14 582.1,-175.92"/>
</a>
</g>
</g>
<!-- 28&#45;&gt;5 -->
<g id="edge86" class="edge">
<title>28&#45;&gt;5</title>
<g id="a_edge86"><a xlink:title="include">
<path fill="none" stroke="#1414ce" d="M281.95,-215.85C275.37,-178.75 259.75,-90.81 251.81,-46.1"/>
<polygon fill="#1414ce" stroke="#1414ce" points="255.25,-45.47 250.06,-36.23 248.36,-46.69 255.25,-45.47"/>
</a>
</g>
</g>
<!-- 27&#45;&gt;4 -->
<g id="edge88" class="edge">
<title>27&#45;&gt;4</title>
<g id="a_edge88"><a xlink:title="include">
<path fill="none" stroke="#1414ce" d="M862.84,-215.73C844.69,-196.86 813.85,-166.34 784,-144 769.07,-132.83 751.62,-122.08 736.07,-113.22"/>
<polygon fill="#1414ce" stroke="#1414ce" points="737.61,-110.07 727.18,-108.23 734.19,-116.17 737.61,-110.07"/>
</a>
</g>
</g>
<!-- 27&#45;&gt;15 -->
<g id="edge91" class="edge">
<title>27&#45;&gt;15</title>
<g id="a_edge91"><a xlink:title="include">
<path fill="none" stroke="#1414ce" d="M922.14,-222.29C975.91,-208.94 1067.16,-186.29 1119.95,-173.19"/>
<polygon fill="#1414ce" stroke="#1414ce" points="1120.79,-176.59 1129.66,-170.78 1119.11,-169.79 1120.79,-176.59"/>
</a>
</g>
</g>
<!-- 27&#45;&gt;18 -->
<g id="edge89" class="edge">
<title>27&#45;&gt;18</title>
<g id="a_edge89"><a xlink:title="include">
<path fill="none" stroke="#1414ce" d="M835.9,-221.44C785.45,-207.91 702.75,-185.73 655.06,-172.94"/>
<polygon fill="#1414ce" stroke="#1414ce" points="655.72,-169.49 645.15,-170.28 653.91,-176.25 655.72,-169.49"/>
</a>
</g>
</g>
<!-- 27&#45;&gt;11 -->
<g id="edge90" class="edge">
<title>27&#45;&gt;11</title>
<g id="a_edge90"><a xlink:title="include">
<path fill="none" stroke="#1414ce" d="M922.11,-227.95C984.26,-220.2 1102.41,-203.76 1201,-180 1279.31,-161.13 1367.55,-131.38 1423.2,-111.54"/>
<polygon fill="#1414ce" stroke="#1414ce" points="1424.63,-114.74 1432.86,-108.07 1422.27,-108.15 1424.63,-114.74"/>
</a>
</g>
</g>
<!-- 26&#45;&gt;20 -->
<g id="edge93" class="edge">
<title>26&#45;&gt;20</title>
<g id="a_edge93"><a xlink:title="include">
<path fill="none" stroke="#1414ce" d="M555.26,-503.97C533.45,-455.99 471.41,-319.5 445.07,-261.54"/>
<polygon fill="#1414ce" stroke="#1414ce" points="448.19,-259.96 440.87,-252.31 441.82,-262.86 448.19,-259.96"/>
</a>
</g>
</g>
<!-- 26&#45;&gt;18 -->
<g id="edge92" class="edge">
<title>26&#45;&gt;18</title>
<g id="a_edge92"><a xlink:title="include">
<path fill="none" stroke="#1414ce" d="M558.91,-503.93C548.32,-456.17 523.73,-318 566,-216 570.54,-205.04 578.54,-195.11 586.92,-186.89"/>
<polygon fill="#1414ce" stroke="#1414ce" points="589.3,-189.45 594.31,-180.11 584.57,-184.29 589.3,-189.45"/>
</a>
</g>
</g>
<!-- 26&#45;&gt;2 -->
<g id="edge94" class="edge">
<title>26&#45;&gt;2</title>
<g id="a_edge94"><a xlink:title="include">
<path fill="none" stroke="#1414ce" d="M590.07,-517.38C675.47,-505.98 939.72,-470.67 1044.02,-456.74"/>
<polygon fill="#1414ce" stroke="#1414ce" points="1044.74,-460.18 1054.19,-455.38 1043.82,-453.24 1044.74,-460.18"/>
</a>
</g>
</g>
</g>
</svg>
