<?xml version="1.0" encoding="UTF-8" standalone="no"?>
<!DOCTYPE svg PUBLIC "-//W3C//DTD SVG 1.1//EN"
 "http://www.w3.org/Graphics/SVG/1.1/DTD/svg11.dtd">
<!-- Generated by graphviz version 2.43.0 (0)
 -->
<!-- Title: %3 Pages: 1 -->
<svg width="1504pt" height="548pt"
 viewBox="0.00 0.00 1503.50 548.00" xmlns="http://www.w3.org/2000/svg" xmlns:xlink="http://www.w3.org/1999/xlink">
<g id="graph0" class="graph" transform="scale(1 1) rotate(0) translate(4 544)">
<title>%3</title>
<polygon fill="transparent" stroke="transparent" points="-4,4 -4,-544 1499.5,-544 1499.5,4 -4,4"/>
<!-- 24 -->
<g id="node1" class="node">
<title>24</title>
<g id="a_node1"><a xlink:title="SpinLock">
<polygon fill="#ffffff" stroke="black" points="745.5,-324 663.5,-324 663.5,-288 745.5,-288 745.5,-324"/>
<text text-anchor="middle" x="704.5" y="-302.3" font-family="Times,serif" font-size="14.00">SpinLock</text>
</a>
</g>
</g>
<!-- 13 -->
<g id="node2" class="node">
<title>13</title>
<g id="a_node2"><a xlink:title="ResourceType">
<polygon fill="#ffffff" stroke="black" points="540,-180 423,-180 423,-144 540,-144 540,-180"/>
<text text-anchor="middle" x="481.5" y="-158.3" font-family="Times,serif" font-size="14.00">ResourceType</text>
</a>
</g>
</g>
<!-- 7 -->
<g id="node4" class="node">
<title>7</title>
<g id="a_node4"><a xlink:title="ListHead">
<polygon fill="#ffffff" stroke="black" points="603,-36 522,-36 522,0 603,0 603,-36"/>
<text text-anchor="middle" x="562.5" y="-14.3" font-family="Times,serif" font-size="14.00">ListHead</text>
</a>
</g>
</g>
<!-- 13&#45;&gt;7 -->
<g id="edge3" class="edge">
<title>13&#45;&gt;7</title>
<g id="a_edge3"><a xlink:title="usage">
<path fill="none" stroke="#1414ce" d="M491.27,-143.87C505.32,-119.24 531.33,-73.64 547.73,-44.88"/>
<polygon fill="#1414ce" stroke="#1414ce" points="550.78,-46.61 552.69,-36.19 544.7,-43.14 550.78,-46.61"/>
</a>
</g>
</g>
<!-- 12 -->
<g id="node7" class="node">
<title>12</title>
<g id="a_node7"><a xlink:title="GlobalContext">
<polygon fill="#ffffff" stroke="black" points="476,-396 357,-396 357,-360 476,-360 476,-396"/>
<text text-anchor="middle" x="416.5" y="-374.3" font-family="Times,serif" font-size="14.00">GlobalContext</text>
</a>
</g>
</g>
<!-- 13&#45;&gt;12 -->
<g id="edge2" class="edge">
<title>13&#45;&gt;12</title>
<g id="a_edge2"><a xlink:title="usage">
<path fill="none" stroke="#1414ce" d="M480.15,-180.23C472.38,-217.48 445.83,-305.72 429.26,-350.28"/>
<polygon fill="#1414ce" stroke="#1414ce" points="425.91,-349.26 425.59,-359.85 432.44,-351.77 425.91,-349.26"/>
</a>
</g>
</g>
<!-- 14 -->
<g id="node23" class="node">
<title>14</title>
<g id="a_node23"><a xlink:title="SyncList">
<polygon fill="#ffffff" stroke="black" points="487.5,-108 409.5,-108 409.5,-72 487.5,-72 487.5,-108"/>
<text text-anchor="middle" x="448.5" y="-86.3" font-family="Times,serif" font-size="14.00">SyncList</text>
</a>
</g>
</g>
<!-- 13&#45;&gt;14 -->
<g id="edge1" class="edge">
<title>13&#45;&gt;14</title>
<g id="a_edge1"><a xlink:title="usage">
<path fill="none" stroke="#1414ce" d="M473.34,-143.7C469.59,-135.73 465.05,-126.1 460.88,-117.26"/>
<polygon fill="#1414ce" stroke="#1414ce" points="463.99,-115.66 456.56,-108.1 457.66,-118.64 463.99,-115.66"/>
</a>
</g>
</g>
<!-- 8 -->
<g id="node3" class="node">
<title>8</title>
<g id="a_node3"><a xlink:title="Module">
<polygon fill="#ffffff" stroke="black" points="1206.5,-324 1136.5,-324 1136.5,-288 1206.5,-288 1206.5,-324"/>
<text text-anchor="middle" x="1171.5" y="-302.3" font-family="Times,serif" font-size="14.00">Module</text>
</a>
</g>
</g>
<!-- 8&#45;&gt;7 -->
<g id="edge6" class="edge">
<title>8&#45;&gt;7</title>
<g id="a_edge6"><a xlink:title="usage">
<path fill="none" stroke="#1414ce" d="M1170.5,-287.7C1168.83,-269.08 1164.38,-239.03 1152.5,-216 1132.6,-177.42 1123.72,-166.34 1086.5,-144 931.38,-50.87 711.48,-27.11 613.28,-21.06"/>
<polygon fill="#1414ce" stroke="#1414ce" points="613.22,-17.55 603.04,-20.47 612.82,-24.54 613.22,-17.55"/>
</a>
</g>
</g>
<!-- 9 -->
<g id="node11" class="node">
<title>9</title>
<g id="a_node11"><a xlink:title="LiteralEntry">
<polygon fill="#ffffff" stroke="black" points="1303.5,-252 1199.5,-252 1199.5,-216 1303.5,-216 1303.5,-252"/>
<text text-anchor="middle" x="1251.5" y="-230.3" font-family="Times,serif" font-size="14.00">LiteralEntry</text>
</a>
</g>
</g>
<!-- 8&#45;&gt;9 -->
<g id="edge5" class="edge">
<title>8&#45;&gt;9</title>
<g id="a_edge5"><a xlink:title="usage">
<path fill="none" stroke="#1414ce" d="M1191.28,-287.7C1201.25,-278.97 1213.51,-268.24 1224.36,-258.75"/>
<polygon fill="#1414ce" stroke="#1414ce" points="1226.73,-261.32 1231.95,-252.1 1222.12,-256.06 1226.73,-261.32"/>
</a>
</g>
</g>
<!-- 2 -->
<g id="node21" class="node">
<title>2</title>
<g id="a_node21"><a xlink:title="ExportedFunction">
<polygon fill="#ffffff" stroke="black" points="1467.5,-252 1321.5,-252 1321.5,-216 1467.5,-216 1467.5,-252"/>
<text text-anchor="middle" x="1394.5" y="-230.3" font-family="Times,serif" font-size="14.00">ExportedFunction</text>
</a>
</g>
</g>
<!-- 8&#45;&gt;2 -->
<g id="edge4" class="edge">
<title>8&#45;&gt;2</title>
<g id="a_edge4"><a xlink:title="usage">
<path fill="none" stroke="#1414ce" d="M1206.84,-293.91C1239.96,-283.51 1290.28,-267.72 1330.47,-255.1"/>
<polygon fill="#1414ce" stroke="#1414ce" points="1331.7,-258.38 1340.19,-252.05 1329.6,-251.7 1331.7,-258.38"/>
</a>
</g>
</g>
<!-- 7&#45;&gt;7 -->
<g id="edge7" class="edge">
<title>7&#45;&gt;7</title>
<g id="a_edge7"><a xlink:title="usage">
<path fill="none" stroke="#1414ce" d="M603.23,-31.31C613.4,-30.38 621,-25.95 621,-18 621,-12.91 617.88,-9.26 612.97,-7.05"/>
<polygon fill="#1414ce" stroke="#1414ce" points="613.78,-3.64 603.23,-4.69 612.13,-10.45 613.78,-3.64"/>
</a>
</g>
</g>
<!-- 11 -->
<g id="node5" class="node">
<title>11</title>
<g id="a_node5"><a xlink:title="HeapFragment">
<polygon fill="#ffffff" stroke="black" points="1423,-36 1298,-36 1298,0 1423,0 1423,-36"/>
<text text-anchor="middle" x="1360.5" y="-14.3" font-family="Times,serif" font-size="14.00">HeapFragment</text>
</a>
</g>
</g>
<!-- 11&#45;&gt;11 -->
<g id="edge8" class="edge">
<title>11&#45;&gt;11</title>
<g id="a_edge8"><a xlink:title="usage">
<path fill="none" stroke="#1414ce" d="M1423.28,-30.55C1433.76,-28.79 1441,-24.61 1441,-18 1441,-13.77 1438.03,-10.53 1433.14,-8.29"/>
<polygon fill="#1414ce" stroke="#1414ce" points="1433.86,-4.85 1423.28,-5.45 1431.92,-11.58 1433.86,-4.85"/>
</a>
</g>
</g>
<!-- 20 -->
<g id="node6" class="node">
<title>20</title>
<g id="a_node6"><a xlink:title="RefcBinaryQueueItem">
<polygon fill="#ffffff" stroke="black" points="627.5,-324 453.5,-324 453.5,-288 627.5,-288 627.5,-324"/>
<text text-anchor="middle" x="540.5" y="-302.3" font-family="Times,serif" font-size="14.00">RefcBinaryQueueItem</text>
</a>
</g>
</g>
<!-- 20&#45;&gt;20 -->
<g id="edge10" class="edge">
<title>20&#45;&gt;20</title>
<g id="a_edge10"><a xlink:title="usage">
<path fill="none" stroke="#1414ce" d="M627.8,-317.68C638.49,-315.59 645.5,-311.7 645.5,-306 645.5,-302.35 642.62,-299.44 637.75,-297.27"/>
<polygon fill="#1414ce" stroke="#1414ce" points="638.38,-293.81 627.8,-294.32 636.39,-300.52 638.38,-293.81"/>
</a>
</g>
</g>
<!-- 21 -->
<g id="node18" class="node">
<title>21</title>
<g id="a_node18"><a xlink:title="RefcBinary">
<polygon fill="#ffffff" stroke="black" points="588,-252 493,-252 493,-216 588,-216 588,-252"/>
<text text-anchor="middle" x="540.5" y="-230.3" font-family="Times,serif" font-size="14.00">RefcBinary</text>
</a>
</g>
</g>
<!-- 20&#45;&gt;21 -->
<g id="edge9" class="edge">
<title>20&#45;&gt;21</title>
<g id="a_edge9"><a xlink:title="usage">
<path fill="none" stroke="#1414ce" d="M540.5,-287.7C540.5,-279.98 540.5,-270.71 540.5,-262.11"/>
<polygon fill="#1414ce" stroke="#1414ce" points="544,-262.1 540.5,-252.1 537,-262.1 544,-262.1"/>
</a>
</g>
</g>
<!-- 12&#45;&gt;24 -->
<g id="edge20" class="edge">
<title>12&#45;&gt;24</title>
<g id="a_edge20"><a xlink:title="usage">
<path fill="none" stroke="#1414ce" d="M476.12,-365.59C522.26,-356.34 587.88,-342.26 653.7,-324.08"/>
<polygon fill="#1414ce" stroke="#1414ce" points="654.72,-327.43 663.41,-321.37 652.84,-320.68 654.72,-327.43"/>
</a>
</g>
</g>
<!-- 12&#45;&gt;13 -->
<g id="edge11" class="edge">
<title>12&#45;&gt;13</title>
<g id="a_edge11"><a xlink:title="usage">
<path fill="none" stroke="#1414ce" d="M417.83,-359.85C425.57,-322.68 452.11,-234.44 468.7,-189.82"/>
<polygon fill="#1414ce" stroke="#1414ce" points="472.06,-190.82 472.38,-180.23 465.53,-188.31 472.06,-190.82"/>
</a>
</g>
</g>
<!-- 12&#45;&gt;8 -->
<g id="edge17" class="edge">
<title>12&#45;&gt;8</title>
<g id="a_edge17"><a xlink:title="usage">
<path fill="none" stroke="#1414ce" d="M476.33,-372.66C586.89,-364.46 830.62,-345.57 1035.5,-324 1065.79,-320.81 1099.79,-316.56 1126.22,-313.11"/>
<polygon fill="#1414ce" stroke="#1414ce" points="1126.86,-316.55 1136.32,-311.78 1125.95,-309.61 1126.86,-316.55"/>
</a>
</g>
</g>
<!-- 12&#45;&gt;7 -->
<g id="edge21" class="edge">
<title>12&#45;&gt;7</title>
<g id="a_edge21"><a xlink:title="usage">
<path fill="none" stroke="#1414ce" d="M367.33,-359.98C317.12,-339.1 246.5,-298.45 246.5,-235 246.5,-235 246.5,-235 246.5,-161 246.5,-117.63 252.48,-98.9 286.5,-72 320.67,-44.98 441.48,-29.86 511.42,-23.2"/>
<polygon fill="#1414ce" stroke="#1414ce" points="512.14,-26.64 521.77,-22.23 511.49,-19.67 512.14,-26.64"/>
</a>
</g>
</g>
<!-- 12&#45;&gt;20 -->
<g id="edge15" class="edge">
<title>12&#45;&gt;20</title>
<g id="a_edge15"><a xlink:title="usage">
<path fill="none" stroke="#1414ce" d="M446.83,-359.88C463.2,-350.64 483.58,-339.13 501.15,-329.21"/>
<polygon fill="#1414ce" stroke="#1414ce" points="503.06,-332.15 510.05,-324.19 499.62,-326.06 503.06,-332.15"/>
</a>
</g>
</g>
<!-- 15 -->
<g id="node8" class="node">
<title>15</title>
<g id="a_node8"><a xlink:title="Ets">
<polygon fill="#ffffff" stroke="black" points="366.5,-180 312.5,-180 312.5,-144 366.5,-144 366.5,-180"/>
<text text-anchor="middle" x="339.5" y="-158.3" font-family="Times,serif" font-size="14.00">Ets</text>
</a>
</g>
</g>
<!-- 12&#45;&gt;15 -->
<g id="edge12" class="edge">
<title>12&#45;&gt;15</title>
<g id="a_edge12"><a xlink:title="usage">
<path fill="none" stroke="#1414ce" d="M388.75,-359.99C376.43,-350.9 363.04,-338.58 355.5,-324 333.47,-281.41 333.71,-224.03 336.31,-190.53"/>
<polygon fill="#1414ce" stroke="#1414ce" points="339.83,-190.41 337.25,-180.13 332.86,-189.78 339.83,-190.41"/>
</a>
</g>
</g>
<!-- 23 -->
<g id="node10" class="node">
<title>23</title>
<g id="a_node10"><a xlink:title="TimerList">
<polygon fill="#ffffff" stroke="black" points="381.5,-108 295.5,-108 295.5,-72 381.5,-72 381.5,-108"/>
<text text-anchor="middle" x="338.5" y="-86.3" font-family="Times,serif" font-size="14.00">TimerList</text>
</a>
</g>
</g>
<!-- 12&#45;&gt;23 -->
<g id="edge19" class="edge">
<title>12&#45;&gt;23</title>
<g id="a_edge19"><a xlink:title="usage">
<path fill="none" stroke="#1414ce" d="M380.14,-359.86C365.18,-351.1 348.95,-339.07 338.5,-324 292.07,-257.02 280.05,-222.05 303.5,-144 306.42,-134.28 311.76,-124.7 317.41,-116.41"/>
<polygon fill="#1414ce" stroke="#1414ce" points="320.26,-118.44 323.32,-108.3 314.6,-114.32 320.26,-118.44"/>
</a>
</g>
</g>
<!-- 16 -->
<g id="node16" class="node">
<title>16</title>
<g id="a_node16"><a xlink:title="MessageQueueItem">
<polygon fill="#ffffff" stroke="black" points="200.5,-324 42.5,-324 42.5,-288 200.5,-288 200.5,-324"/>
<text text-anchor="middle" x="121.5" y="-302.3" font-family="Times,serif" font-size="14.00">MessageQueueItem</text>
</a>
</g>
</g>
<!-- 12&#45;&gt;16 -->
<g id="edge13" class="edge">
<title>12&#45;&gt;16</title>
<g id="a_edge13"><a xlink:title="usage">
<path fill="none" stroke="#1414ce" d="M356.8,-362.83C312.62,-352.35 251.92,-337.95 203.23,-326.39"/>
<polygon fill="#1414ce" stroke="#1414ce" points="203.89,-322.95 193.35,-324.05 202.27,-329.76 203.89,-322.95"/>
</a>
</g>
</g>
<!-- 22 -->
<g id="node17" class="node">
<title>22</title>
<g id="a_node17"><a xlink:title="AtomsHashTable">
<polygon fill="#ffffff" stroke="black" points="1143,-252 1006,-252 1006,-216 1143,-216 1143,-252"/>
<text text-anchor="middle" x="1074.5" y="-230.3" font-family="Times,serif" font-size="14.00">AtomsHashTable</text>
</a>
</g>
</g>
<!-- 12&#45;&gt;22 -->
<g id="edge18" class="edge">
<title>12&#45;&gt;22</title>
<g id="a_edge18"><a xlink:title="usage">
<path fill="none" stroke="#1414ce" d="M476.36,-374.56C595.13,-369.14 856.34,-354.1 940.5,-324 981.31,-309.4 1021.89,-279.79 1047.52,-258.74"/>
<polygon fill="#1414ce" stroke="#1414ce" points="1049.87,-261.33 1055.29,-252.23 1045.38,-255.96 1049.87,-261.33"/>
</a>
</g>
</g>
<!-- 17 -->
<g id="node20" class="node">
<title>17</title>
<g id="a_node20"><a xlink:title="AtomTable">
<polygon fill="#ffffff" stroke="black" points="931.5,-324 839.5,-324 839.5,-288 931.5,-288 931.5,-324"/>
<text text-anchor="middle" x="885.5" y="-302.3" font-family="Times,serif" font-size="14.00">AtomTable</text>
</a>
</g>
</g>
<!-- 12&#45;&gt;17 -->
<g id="edge14" class="edge">
<title>12&#45;&gt;17</title>
<g id="a_edge14"><a xlink:title="usage">
<path fill="none" stroke="#1414ce" d="M476.38,-368.06C567.68,-354.44 740.48,-328.64 829.45,-315.37"/>
<polygon fill="#1414ce" stroke="#1414ce" points="829.98,-318.83 839.35,-313.89 828.95,-311.9 829.98,-318.83"/>
</a>
</g>
</g>
<!-- 12&#45;&gt;14 -->
<g id="edge16" class="edge">
<title>12&#45;&gt;14</title>
<g id="a_edge16"><a xlink:title="usage">
<path fill="none" stroke="#1414ce" d="M413.04,-359.87C405.83,-320.67 391.68,-221.83 414.5,-144 417.3,-134.45 422.41,-124.98 427.83,-116.76"/>
<polygon fill="#1414ce" stroke="#1414ce" points="430.85,-118.56 433.75,-108.37 425.12,-114.52 430.85,-118.56"/>
</a>
</g>
</g>
<!-- 15&#45;&gt;14 -->
<g id="edge22" class="edge">
<title>15&#45;&gt;14</title>
<g id="a_edge22"><a xlink:title="usage">
<path fill="none" stroke="#1414ce" d="M366.16,-143.88C380.28,-134.81 397.81,-123.55 413.06,-113.76"/>
<polygon fill="#1414ce" stroke="#1414ce" points="415.21,-116.54 421.73,-108.19 411.43,-110.65 415.21,-116.54"/>
</a>
</g>
</g>
<!-- 19 -->
<g id="node9" class="node">
<title>19</title>
<g id="a_node9"><a xlink:title="HNodeGroup">
<polygon fill="#ffffff" stroke="black" points="931.5,-252 821.5,-252 821.5,-216 931.5,-216 931.5,-252"/>
<text text-anchor="middle" x="876.5" y="-230.3" font-family="Times,serif" font-size="14.00">HNodeGroup</text>
</a>
</g>
</g>
<!-- 19&#45;&gt;19 -->
<g id="edge24" class="edge">
<title>19&#45;&gt;19</title>
<g id="a_edge24"><a xlink:title="usage">
<path fill="none" stroke="#1414ce" d="M931.57,-246.85C942.07,-245.32 949.5,-241.03 949.5,-234 949.5,-229.5 946.45,-226.12 941.5,-223.87"/>
<polygon fill="#1414ce" stroke="#1414ce" points="942.14,-220.42 931.57,-221.15 940.29,-227.17 942.14,-220.42"/>
</a>
</g>
</g>
<!-- 18 -->
<g id="node24" class="node">
<title>18</title>
<g id="a_node24"><a xlink:title="HNode">
<polygon fill="#ffffff" stroke="black" points="1059.5,-180 993.5,-180 993.5,-144 1059.5,-144 1059.5,-180"/>
<text text-anchor="middle" x="1026.5" y="-158.3" font-family="Times,serif" font-size="14.00">HNode</text>
</a>
</g>
</g>
<!-- 19&#45;&gt;18 -->
<g id="edge23" class="edge">
<title>19&#45;&gt;18</title>
<g id="a_edge23"><a xlink:title="usage">
<path fill="none" stroke="#1414ce" d="M913.19,-215.88C934.6,-205.89 961.69,-193.25 984.01,-182.83"/>
<polygon fill="#1414ce" stroke="#1414ce" points="985.67,-185.91 993.26,-178.51 982.71,-179.57 985.67,-185.91"/>
</a>
</g>
</g>
<!-- 23&#45;&gt;7 -->
<g id="edge25" class="edge">
<title>23&#45;&gt;7</title>
<g id="a_edge25"><a xlink:title="usage">
<path fill="none" stroke="#1414ce" d="M381.69,-75.5C418.96,-63.86 472.83,-47.02 512.07,-34.76"/>
<polygon fill="#1414ce" stroke="#1414ce" points="513.21,-38.07 521.71,-31.75 511.12,-31.39 513.21,-38.07"/>
</a>
</g>
</g>
<!-- 5 -->
<g id="node12" class="node">
<title>5</title>
<g id="a_node12"><a xlink:title="MailboxMessage">
<polygon fill="#ffffff" stroke="black" points="137,-252 0,-252 0,-216 137,-216 137,-252"/>
<text text-anchor="middle" x="68.5" y="-230.3" font-family="Times,serif" font-size="14.00">MailboxMessage</text>
</a>
</g>
</g>
<!-- 5&#45;&gt;5 -->
<g id="edge26" class="edge">
<title>5&#45;&gt;5</title>
<g id="a_edge26"><a xlink:title="usage">
<path fill="none" stroke="#1414ce" d="M137.03,-246.37C147.71,-244.52 155,-240.4 155,-234 155,-229.8 151.86,-226.58 146.68,-224.34"/>
<polygon fill="#1414ce" stroke="#1414ce" points="147.6,-220.96 137.03,-221.63 145.71,-227.7 147.6,-220.96"/>
</a>
</g>
</g>
<!-- 10 -->
<g id="node13" class="node">
<title>10</title>
<g id="a_node13"><a xlink:title="Heap">
<polygon fill="#ffffff" stroke="black" points="1387.5,-108 1333.5,-108 1333.5,-72 1387.5,-72 1387.5,-108"/>
<text text-anchor="middle" x="1360.5" y="-86.3" font-family="Times,serif" font-size="14.00">Heap</text>
</a>
</g>
</g>
<!-- 10&#45;&gt;11 -->
<g id="edge27" class="edge">
<title>10&#45;&gt;11</title>
<g id="a_edge27"><a xlink:title="usage">
<path fill="none" stroke="#1414ce" d="M1360.5,-71.7C1360.5,-63.98 1360.5,-54.71 1360.5,-46.11"/>
<polygon fill="#1414ce" stroke="#1414ce" points="1364,-46.1 1360.5,-36.1 1357,-46.1 1364,-46.1"/>
</a>
</g>
</g>
<!-- 1 -->
<g id="node14" class="node">
<title>1</title>
<g id="a_node14"><a xlink:title="Nif">
<polygon fill="#bfbfbf" stroke="black" points="1045.5,-540 991.5,-540 991.5,-504 1045.5,-504 1045.5,-540"/>
<text text-anchor="middle" x="1018.5" y="-518.3" font-family="Times,serif" font-size="14.00">Nif</text>
</a>
</g>
</g>
<!-- 3 -->
<g id="node15" class="node">
<title>3</title>
<g id="a_node15"><a xlink:title="Context">
<polygon fill="#ffffff" stroke="black" points="848,-468 775,-468 775,-432 848,-432 848,-468"/>
<text text-anchor="middle" x="811.5" y="-446.3" font-family="Times,serif" font-size="14.00">Context</text>
</a>
</g>
</g>
<!-- 1&#45;&gt;3 -->
<g id="edge29" class="edge">
<title>1&#45;&gt;3</title>
<g id="a_edge29"><a xlink:title="usage">
<path fill="none" stroke="#1414ce" d="M991.44,-511.85C957.55,-500.39 898.97,-480.58 857.87,-466.68"/>
<polygon fill="#1414ce" stroke="#1414ce" points="858.95,-463.35 848.35,-463.46 856.7,-469.98 858.95,-463.35"/>
</a>
</g>
</g>
<!-- 1&#45;&gt;2 -->
<g id="edge28" class="edge">
<title>1&#45;&gt;2</title>
<g id="a_edge28"><a xlink:title="usage">
<path fill="none" stroke="#1414ce" d="M1040.89,-503.97C1105.14,-455.1 1290.13,-314.39 1363.75,-258.39"/>
<polygon fill="#1414ce" stroke="#1414ce" points="1365.91,-261.15 1371.75,-252.31 1361.67,-255.57 1365.91,-261.15"/>
</a>
</g>
</g>
<!-- 3&#45;&gt;8 -->
<g id="edge33" class="edge">
<title>3&#45;&gt;8</title>
<g id="a_edge33"><a xlink:title="usage">
<path fill="none" stroke="#1414ce" d="M848.33,-434.47C914.83,-408.24 1054.67,-353.08 1126.63,-324.7"/>
<polygon fill="#1414ce" stroke="#1414ce" points="1128.3,-327.8 1136.31,-320.88 1125.73,-321.29 1128.3,-327.8"/>
</a>
</g>
</g>
<!-- 3&#45;&gt;7 -->
<g id="edge36" class="edge">
<title>3&#45;&gt;7</title>
<g id="a_edge36"><a xlink:title="usage">
<path fill="none" stroke="#1414ce" d="M813.1,-431.72C816.78,-382.23 821.22,-237.51 758.5,-144 723.34,-91.59 658,-56.57 612.47,-37.24"/>
<polygon fill="#1414ce" stroke="#1414ce" points="613.65,-33.95 603.07,-33.36 610.98,-40.41 613.65,-33.95"/>
</a>
</g>
</g>
<!-- 3&#45;&gt;12 -->
<g id="edge35" class="edge">
<title>3&#45;&gt;12</title>
<g id="a_edge35"><a xlink:title="usage">
<path fill="none" stroke="#1414ce" d="M774.69,-442.48C708.99,-430.83 570.53,-406.3 486.3,-391.37"/>
<polygon fill="#1414ce" stroke="#1414ce" points="486.77,-387.9 476.31,-389.6 485.54,-394.79 486.77,-387.9"/>
</a>
</g>
</g>
<!-- 3&#45;&gt;10 -->
<g id="edge34" class="edge">
<title>3&#45;&gt;10</title>
<g id="a_edge34"><a xlink:title="usage">
<path fill="none" stroke="#1414ce" d="M848.27,-449.28C990.35,-449.39 1495.5,-440.41 1495.5,-307 1495.5,-307 1495.5,-307 1495.5,-233 1495.5,-175.57 1436.77,-132.12 1396.79,-109.2"/>
<polygon fill="#1414ce" stroke="#1414ce" points="1398.26,-106.01 1387.82,-104.22 1394.86,-112.13 1398.26,-106.01"/>
</a>
</g>
</g>
<!-- 3&#45;&gt;3 -->
<g id="edge30" class="edge">
<title>3&#45;&gt;3</title>
<g id="a_edge30"><a xlink:title="usage">
<path fill="none" stroke="#1414ce" d="M848.18,-463.42C858.28,-462.77 866,-458.3 866,-450 866,-444.81 862.98,-441.12 858.26,-438.93"/>
<polygon fill="#1414ce" stroke="#1414ce" points="858.71,-435.44 848.18,-436.58 857.13,-442.26 858.71,-435.44"/>
</a>
</g>
</g>
<!-- 4 -->
<g id="node19" class="node">
<title>4</title>
<g id="a_node19"><a xlink:title="Mailbox">
<polygon fill="#ffffff" stroke="black" points="191.5,-396 117.5,-396 117.5,-360 191.5,-360 191.5,-396"/>
<text text-anchor="middle" x="154.5" y="-374.3" font-family="Times,serif" font-size="14.00">Mailbox</text>
</a>
</g>
</g>
<!-- 3&#45;&gt;4 -->
<g id="edge31" class="edge">
<title>3&#45;&gt;4</title>
<g id="a_edge31"><a xlink:title="usage">
<path fill="none" stroke="#1414ce" d="M774.77,-445.09C662.93,-433.17 326.61,-397.34 201.8,-384.04"/>
<polygon fill="#1414ce" stroke="#1414ce" points="202.1,-380.55 191.78,-382.97 201.36,-387.51 202.1,-380.55"/>
</a>
</g>
</g>
<!-- 6 -->
<g id="node22" class="node">
<title>6</title>
<g id="a_node22"><a xlink:title="TimerListItem">
<polygon fill="#ffffff" stroke="black" points="749,-180 630,-180 630,-144 749,-144 749,-180"/>
<text text-anchor="middle" x="689.5" y="-158.3" font-family="Times,serif" font-size="14.00">TimerListItem</text>
</a>
</g>
</g>
<!-- 3&#45;&gt;6 -->
<g id="edge32" class="edge">
<title>3&#45;&gt;6</title>
<g id="a_edge32"><a xlink:title="usage">
<path fill="none" stroke="#1414ce" d="M806.27,-431.78C797.04,-401.99 776.71,-339.13 754.5,-288 739.2,-252.79 718.23,-213.77 704.29,-188.85"/>
<polygon fill="#1414ce" stroke="#1414ce" points="707.28,-187.02 699.32,-180.02 701.18,-190.45 707.28,-187.02"/>
</a>
</g>
</g>
<!-- 16&#45;&gt;5 -->
<g id="edge37" class="edge">
<title>16&#45;&gt;5</title>
<g id="a_edge37"><a xlink:title="usage">
<path fill="none" stroke="#1414ce" d="M108.4,-287.7C102.11,-279.39 94.45,-269.28 87.54,-260.14"/>
<polygon fill="#1414ce" stroke="#1414ce" points="90.28,-257.96 81.45,-252.1 84.7,-262.19 90.28,-257.96"/>
</a>
</g>
</g>
<!-- 16&#45;&gt;16 -->
<g id="edge38" class="edge">
<title>16&#45;&gt;16</title>
<g id="a_edge38"><a xlink:title="usage">
<path fill="none" stroke="#1414ce" d="M200.66,-317.98C211.37,-315.97 218.5,-311.98 218.5,-306 218.5,-302.08 215.43,-299.01 210.29,-296.8"/>
<polygon fill="#1414ce" stroke="#1414ce" points="211.24,-293.43 200.66,-294.02 209.3,-300.15 211.24,-293.43"/>
</a>
</g>
</g>
<!-- 22&#45;&gt;18 -->
<g id="edge39" class="edge">
<title>22&#45;&gt;18</title>
<g id="a_edge39"><a xlink:title="usage">
<path fill="none" stroke="#1414ce" d="M1062.63,-215.7C1057,-207.47 1050.15,-197.48 1043.93,-188.42"/>
<polygon fill="#1414ce" stroke="#1414ce" points="1046.77,-186.37 1038.23,-180.1 1041,-190.33 1046.77,-186.37"/>
</a>
</g>
</g>
<!-- 21&#45;&gt;13 -->
<g id="edge40" class="edge">
<title>21&#45;&gt;13</title>
<g id="a_edge40"><a xlink:title="usage">
<path fill="none" stroke="#1414ce" d="M525.92,-215.7C518.84,-207.3 510.22,-197.07 502.45,-187.86"/>
<polygon fill="#1414ce" stroke="#1414ce" points="505.04,-185.49 495.92,-180.1 499.69,-190.01 505.04,-185.49"/>
</a>
</g>
</g>
<!-- 21&#45;&gt;7 -->
<g id="edge41" class="edge">
<title>21&#45;&gt;7</title>
<g id="a_edge41"><a xlink:title="usage">
<path fill="none" stroke="#1414ce" d="M543.8,-215.87C545.7,-205.52 547.99,-192.04 549.5,-180 555.32,-133.45 559.08,-79 561,-46.84"/>
<polygon fill="#1414ce" stroke="#1414ce" points="564.51,-46.63 561.59,-36.44 557.52,-46.23 564.51,-46.63"/>
</a>
</g>
</g>
<!-- 4&#45;&gt;5 -->
<g id="edge42" class="edge">
<title>4&#45;&gt;5</title>
<g id="a_edge42"><a xlink:title="usage">
<path fill="none" stroke="#1414ce" d="M117.4,-371.7C89.11,-365.51 51.95,-352.22 33.5,-324 20.5,-304.11 32.97,-278.65 46.49,-260.06"/>
<polygon fill="#1414ce" stroke="#1414ce" points="49.34,-262.1 52.69,-252.05 43.81,-257.82 49.34,-262.1"/>
</a>
</g>
</g>
<!-- 17&#45;&gt;19 -->
<g id="edge44" class="edge">
<title>17&#45;&gt;19</title>
<g id="a_edge44"><a xlink:title="usage">
<path fill="none" stroke="#1414ce" d="M883.28,-287.7C882.28,-279.98 881.09,-270.71 879.99,-262.11"/>
<polygon fill="#1414ce" stroke="#1414ce" points="883.45,-261.58 878.7,-252.1 876.5,-262.47 883.45,-261.58"/>
</a>
</g>
</g>
<!-- 17&#45;&gt;18 -->
<g id="edge43" class="edge">
<title>17&#45;&gt;18</title>
<g id="a_edge43"><a xlink:title="usage">
<path fill="none" stroke="#1414ce" d="M912.97,-287.84C927.32,-278.21 944.71,-265.45 958.5,-252 978.32,-232.66 997.14,-207.28 1009.93,-188.58"/>
<polygon fill="#1414ce" stroke="#1414ce" points="1012.86,-190.5 1015.54,-180.25 1007.05,-186.59 1012.86,-190.5"/>
</a>
</g>
</g>
<!-- 6&#45;&gt;7 -->
<g id="edge45" class="edge">
<title>6&#45;&gt;7</title>
<g id="a_edge45"><a xlink:title="usage">
<path fill="none" stroke="#1414ce" d="M674.18,-143.87C651.87,-118.92 610.3,-72.45 584.66,-43.77"/>
<polygon fill="#1414ce" stroke="#1414ce" points="587.15,-41.31 577.87,-36.19 581.93,-45.98 587.15,-41.31"/>
</a>
</g>
</g>
<!-- 14&#45;&gt;7 -->
<g id="edge46" class="edge">
<title>14&#45;&gt;7</title>
<g id="a_edge46"><a xlink:title="usage">
<path fill="none" stroke="#1414ce" d="M476.39,-71.88C491.29,-62.72 509.83,-51.34 525.88,-41.48"/>
<polygon fill="#1414ce" stroke="#1414ce" points="527.81,-44.41 534.51,-36.19 524.15,-38.44 527.81,-44.41"/>
</a>
</g>
</g>
<!-- 18&#45;&gt;10 -->
<g id="edge48" class="edge">
<title>18&#45;&gt;10</title>
<g id="a_edge48"><a xlink:title="usage">
<path fill="none" stroke="#1414ce" d="M1059.75,-154.03C1122.4,-140.9 1257.52,-112.58 1323.18,-98.82"/>
<polygon fill="#1414ce" stroke="#1414ce" points="1324.03,-102.22 1333.1,-96.74 1322.59,-95.37 1324.03,-102.22"/>
</a>
</g>
</g>
<!-- 18&#45;&gt;18 -->
<g id="edge47" class="edge">
<title>18&#45;&gt;18</title>
<g id="a_edge47"><a xlink:title="usage">
<path fill="none" stroke="#1414ce" d="M1059.85,-175.47C1069.78,-175.07 1077.5,-170.58 1077.5,-162 1077.5,-156.64 1074.48,-152.87 1069.8,-150.71"/>
<polygon fill="#1414ce" stroke="#1414ce" points="1070.37,-147.25 1059.85,-148.53 1068.87,-154.09 1070.37,-147.25"/>
</a>
</g>
</g>
</g>
</svg>
