<?xml version="1.0" encoding="UTF-8" standalone="no"?>
<!DOCTYPE svg PUBLIC "-//W3C//DTD SVG 1.1//EN"
 "http://www.w3.org/Graphics/SVG/1.1/DTD/svg11.dtd">
<!-- Generated by graphviz version 2.43.0 (0)
 -->
<!-- Title: %3 Pages: 1 -->
<svg width="1802pt" height="836pt"
 viewBox="0.00 0.00 1802.00 836.00" xmlns="http://www.w3.org/2000/svg" xmlns:xlink="http://www.w3.org/1999/xlink">
<g id="graph0" class="graph" transform="scale(1 1) rotate(0) translate(4 832)">
<title>%3</title>
<polygon fill="transparent" stroke="transparent" points="-4,4 -4,-832 1798,-832 1798,4 -4,4"/>
<!-- 9 -->
<g id="node1" class="node">
<title>9</title>
<g id="a_node1"><a xlink:title="stdbool.h">
<polygon fill="#ffffff" stroke="black" points="634.5,-108 551.5,-108 551.5,-72 634.5,-72 634.5,-108"/>
<text text-anchor="middle" x="593" y="-86.3" font-family="Times,serif" font-size="14.00">stdbool.h</text>
</a>
</g>
</g>
<!-- 1 -->
<g id="node2" class="node">
<title>1</title>
<g id="a_node2"><a xlink:title="/__w/AtomVM/AtomVM/src/libAtomVM/interop.c">
<polygon fill="#bfbfbf" stroke="black" points="909.5,-828 552.5,-828 552.5,-792 909.5,-792 909.5,-828"/>
<text text-anchor="middle" x="731" y="-806.3" font-family="Times,serif" font-size="14.00">/__w/AtomVM/AtomVM/src/libAtomVM/interop.c</text>
</a>
</g>
</g>
<!-- 2 -->
<g id="node3" class="node">
<title>2</title>
<g id="a_node3"><a xlink:title="interop.h">
<polygon fill="#ffffff" stroke="black" points="772,-756 690,-756 690,-720 772,-720 772,-756"/>
<text text-anchor="middle" x="731" y="-734.3" font-family="Times,serif" font-size="14.00">interop.h</text>
</a>
</g>
</g>
<!-- 1&#45;&gt;2 -->
<g id="edge1" class="edge">
<title>1&#45;&gt;2</title>
<g id="a_edge1"><a xlink:title="include">
<path fill="none" stroke="#1414ce" d="M731,-791.7C731,-783.98 731,-774.71 731,-766.11"/>
<polygon fill="#1414ce" stroke="#1414ce" points="734.5,-766.1 731,-756.1 727.5,-766.1 734.5,-766.1"/>
</a>
</g>
</g>
<!-- 32 -->
<g id="node5" class="node">
<title>32</title>
<g id="a_node5"><a xlink:title="defaultatoms.h">
<polygon fill="#ffffff" stroke="black" points="648,-756 524,-756 524,-720 648,-720 648,-756"/>
<text text-anchor="middle" x="586" y="-734.3" font-family="Times,serif" font-size="14.00">defaultatoms.h</text>
</a>
</g>
</g>
<!-- 1&#45;&gt;32 -->
<g id="edge4" class="edge">
<title>1&#45;&gt;32</title>
<g id="a_edge4"><a xlink:title="include">
<path fill="none" stroke="#1414ce" d="M695.53,-791.88C675.88,-782.39 651.28,-770.51 630.37,-760.42"/>
<polygon fill="#1414ce" stroke="#1414ce" points="631.88,-757.26 621.36,-756.07 628.84,-763.57 631.88,-757.26"/>
</a>
</g>
</g>
<!-- 5 -->
<g id="node11" class="node">
<title>5</title>
<g id="a_node11"><a xlink:title="stdint.h">
<polygon fill="#ffffff" stroke="black" points="266,-36 194,-36 194,0 266,0 266,-36"/>
<text text-anchor="middle" x="230" y="-14.3" font-family="Times,serif" font-size="14.00">stdint.h</text>
</a>
</g>
</g>
<!-- 1&#45;&gt;5 -->
<g id="edge9" class="edge">
<title>1&#45;&gt;5</title>
<g id="a_edge9"><a xlink:title="include">
<path fill="none" stroke="#1414ce" d="M554.51,-791.99C338.19,-768.69 0,-723.28 0,-667 0,-667 0,-667 0,-161 0,-115.41 15.24,-100.28 51,-72 89.39,-41.64 144.77,-28.66 183.74,-23.11"/>
<polygon fill="#1414ce" stroke="#1414ce" points="184.31,-26.57 193.77,-21.8 183.4,-19.63 184.31,-26.57"/>
</a>
</g>
</g>
<!-- 35 -->
<g id="node15" class="node">
<title>35</title>
<g id="a_node15"><a xlink:title="valueshashtable.h">
<polygon fill="#ffffff" stroke="black" points="1672,-756 1526,-756 1526,-720 1672,-720 1672,-756"/>
<text text-anchor="middle" x="1599" y="-734.3" font-family="Times,serif" font-size="14.00">valueshashtable.h</text>
</a>
</g>
</g>
<!-- 1&#45;&gt;35 -->
<g id="edge8" class="edge">
<title>1&#45;&gt;35</title>
<g id="a_edge8"><a xlink:title="include">
<path fill="none" stroke="#1414ce" d="M909.6,-803.24C1068.3,-796.61 1306.34,-782.96 1512,-756 1513.11,-755.85 1514.22,-755.7 1515.34,-755.55"/>
<polygon fill="#1414ce" stroke="#1414ce" points="1516.16,-758.97 1525.53,-754.03 1515.13,-752.04 1516.16,-758.97"/>
</a>
</g>
</g>
<!-- 20 -->
<g id="node17" class="node">
<title>20</title>
<g id="a_node17"><a xlink:title="term.h">
<polygon fill="#ffffff" stroke="black" points="1023.5,-468 958.5,-468 958.5,-432 1023.5,-432 1023.5,-468"/>
<text text-anchor="middle" x="991" y="-446.3" font-family="Times,serif" font-size="14.00">term.h</text>
</a>
</g>
</g>
<!-- 1&#45;&gt;20 -->
<g id="edge6" class="edge">
<title>1&#45;&gt;20</title>
<g id="a_edge6"><a xlink:title="include">
<path fill="none" stroke="#1414ce" d="M909.79,-808.31C1121.28,-802.55 1445,-775.93 1445,-667 1445,-667 1445,-667 1445,-593 1445,-507.31 1146.67,-467.23 1033.68,-455.13"/>
<polygon fill="#1414ce" stroke="#1414ce" points="1033.96,-451.64 1023.65,-454.08 1033.23,-458.6 1033.96,-451.64"/>
</a>
</g>
</g>
<!-- 8 -->
<g id="node22" class="node">
<title>8</title>
<g id="a_node22"><a xlink:title="atom_table.h">
<polygon fill="#ffffff" stroke="black" points="285.5,-540 176.5,-540 176.5,-504 285.5,-504 285.5,-540"/>
<text text-anchor="middle" x="231" y="-518.3" font-family="Times,serif" font-size="14.00">atom_table.h</text>
</a>
</g>
</g>
<!-- 1&#45;&gt;8 -->
<g id="edge2" class="edge">
<title>1&#45;&gt;8</title>
<g id="a_edge2"><a xlink:title="include">
<path fill="none" stroke="#1414ce" d="M628.99,-791.97C592.09,-783.75 550.74,-772.09 515,-756 401.52,-704.9 296.03,-596.32 252.28,-547.58"/>
<polygon fill="#1414ce" stroke="#1414ce" points="254.82,-545.17 245.56,-540.02 249.59,-549.82 254.82,-545.17"/>
</a>
</g>
</g>
<!-- 11 -->
<g id="node25" class="node">
<title>11</title>
<g id="a_node25"><a xlink:title="term_typedef.h">
<polygon fill="#ffffff" stroke="black" points="1522.5,-108 1397.5,-108 1397.5,-72 1522.5,-72 1522.5,-108"/>
<text text-anchor="middle" x="1460" y="-86.3" font-family="Times,serif" font-size="14.00">term_typedef.h</text>
</a>
</g>
</g>
<!-- 1&#45;&gt;11 -->
<g id="edge7" class="edge">
<title>1&#45;&gt;11</title>
<g id="a_edge7"><a xlink:title="include">
<path fill="none" stroke="#1414ce" d="M909.61,-806.39C1073.83,-801.87 1304.13,-789.54 1388,-756 1446.39,-732.65 1498,-729.89 1498,-667 1498,-667 1498,-667 1498,-233 1498,-191.63 1482.77,-145.72 1471.59,-117.61"/>
<polygon fill="#1414ce" stroke="#1414ce" points="1474.72,-116.02 1467.69,-108.09 1468.24,-118.67 1474.72,-116.02"/>
</a>
</g>
</g>
<!-- 30 -->
<g id="node27" class="node">
<title>30</title>
<g id="a_node27"><a xlink:title="bitstring.h">
<polygon fill="#ffffff" stroke="black" points="158,-540 66,-540 66,-504 158,-504 158,-540"/>
<text text-anchor="middle" x="112" y="-518.3" font-family="Times,serif" font-size="14.00">bitstring.h</text>
</a>
</g>
</g>
<!-- 1&#45;&gt;30 -->
<g id="edge3" class="edge">
<title>1&#45;&gt;30</title>
<g id="a_edge3"><a xlink:title="include">
<path fill="none" stroke="#1414ce" d="M575.57,-791.98C533.14,-784.12 487.9,-772.67 448,-756 319.97,-702.51 191.57,-594.87 138,-546.95"/>
<polygon fill="#1414ce" stroke="#1414ce" points="140.12,-544.15 130.35,-540.06 135.44,-549.35 140.12,-544.15"/>
</a>
</g>
</g>
<!-- 34 -->
<g id="node31" class="node">
<title>34</title>
<g id="a_node31"><a xlink:title="tempstack.h">
<polygon fill="#ffffff" stroke="black" points="1794,-756 1690,-756 1690,-720 1794,-720 1794,-756"/>
<text text-anchor="middle" x="1742" y="-734.3" font-family="Times,serif" font-size="14.00">tempstack.h</text>
</a>
</g>
</g>
<!-- 1&#45;&gt;34 -->
<g id="edge5" class="edge">
<title>1&#45;&gt;34</title>
<g id="a_edge5"><a xlink:title="include">
<path fill="none" stroke="#1414ce" d="M909.82,-803.63C1137.89,-796.01 1520.79,-780.37 1679.78,-755.93"/>
<polygon fill="#1414ce" stroke="#1414ce" points="1680.6,-759.35 1689.92,-754.31 1679.5,-752.43 1680.6,-759.35"/>
</a>
</g>
</g>
<!-- 3 -->
<g id="node13" class="node">
<title>3</title>
<g id="a_node13"><a xlink:title="context.h">
<polygon fill="#ffffff" stroke="black" points="735.5,-684 652.5,-684 652.5,-648 735.5,-648 735.5,-684"/>
<text text-anchor="middle" x="694" y="-662.3" font-family="Times,serif" font-size="14.00">context.h</text>
</a>
</g>
</g>
<!-- 2&#45;&gt;3 -->
<g id="edge10" class="edge">
<title>2&#45;&gt;3</title>
<g id="a_edge10"><a xlink:title="include">
<path fill="none" stroke="#1414ce" d="M721.85,-719.7C717.6,-711.64 712.44,-701.89 707.73,-692.98"/>
<polygon fill="#1414ce" stroke="#1414ce" points="710.81,-691.31 703.04,-684.1 704.62,-694.58 710.81,-691.31"/>
</a>
</g>
</g>
<!-- 2&#45;&gt;20 -->
<g id="edge11" class="edge">
<title>2&#45;&gt;20</title>
<g id="a_edge11"><a xlink:title="include">
<path fill="none" stroke="#1414ce" d="M748.49,-719.85C782.52,-686.25 859.59,-609.01 920,-540 938.24,-519.17 957.77,-494.49 971.73,-476.4"/>
<polygon fill="#1414ce" stroke="#1414ce" points="974.79,-478.17 978.1,-468.1 969.23,-473.91 974.79,-478.17"/>
</a>
</g>
</g>
<!-- 26 -->
<g id="node4" class="node">
<title>26</title>
<g id="a_node4"><a xlink:title="refc_binary.h">
<polygon fill="#ffffff" stroke="black" points="944,-396 836,-396 836,-360 944,-360 944,-396"/>
<text text-anchor="middle" x="890" y="-374.3" font-family="Times,serif" font-size="14.00">refc_binary.h</text>
</a>
</g>
</g>
<!-- 26&#45;&gt;9 -->
<g id="edge12" class="edge">
<title>26&#45;&gt;9</title>
<g id="a_edge12"><a xlink:title="include">
<path fill="none" stroke="#1414ce" d="M905.3,-359.95C924.55,-337.23 956.58,-294.91 969,-252 973.45,-236.63 977.72,-229.42 969,-216 932.97,-160.56 739.01,-117.89 644.64,-100.08"/>
<polygon fill="#1414ce" stroke="#1414ce" points="645.21,-96.63 634.73,-98.23 643.92,-103.51 645.21,-96.63"/>
</a>
</g>
</g>
<!-- 16 -->
<g id="node10" class="node">
<title>16</title>
<g id="a_node10"><a xlink:title="list.h">
<polygon fill="#ffffff" stroke="black" points="620,-180 566,-180 566,-144 620,-144 620,-180"/>
<text text-anchor="middle" x="593" y="-158.3" font-family="Times,serif" font-size="14.00">list.h</text>
</a>
</g>
</g>
<!-- 26&#45;&gt;16 -->
<g id="edge14" class="edge">
<title>26&#45;&gt;16</title>
<g id="a_edge14"><a xlink:title="include">
<path fill="none" stroke="#1414ce" d="M835.82,-362.16C779.36,-344.27 691.4,-309.25 635,-252 617.92,-234.67 606.85,-209.08 600.38,-189.78"/>
<polygon fill="#1414ce" stroke="#1414ce" points="603.67,-188.56 597.34,-180.07 596.99,-190.66 603.67,-188.56"/>
</a>
</g>
</g>
<!-- 7 -->
<g id="node12" class="node">
<title>7</title>
<g id="a_node12"><a xlink:title="stdlib.h">
<polygon fill="#ffffff" stroke="black" points="1109.5,-108 1038.5,-108 1038.5,-72 1109.5,-72 1109.5,-108"/>
<text text-anchor="middle" x="1074" y="-86.3" font-family="Times,serif" font-size="14.00">stdlib.h</text>
</a>
</g>
</g>
<!-- 26&#45;&gt;7 -->
<g id="edge13" class="edge">
<title>26&#45;&gt;7</title>
<g id="a_edge13"><a xlink:title="include">
<path fill="none" stroke="#1414ce" d="M944.06,-367.5C1005.52,-356.15 1098.72,-337.07 1109,-324 1157.16,-262.8 1114.33,-163.76 1089.21,-117.01"/>
<polygon fill="#1414ce" stroke="#1414ce" points="1092.2,-115.19 1084.31,-108.12 1086.07,-118.57 1092.2,-115.19"/>
</a>
</g>
</g>
<!-- 27 -->
<g id="node16" class="node">
<title>27</title>
<g id="a_node16"><a xlink:title="resources.h">
<polygon fill="#ffffff" stroke="black" points="1100,-324 1000,-324 1000,-288 1100,-288 1100,-324"/>
<text text-anchor="middle" x="1050" y="-302.3" font-family="Times,serif" font-size="14.00">resources.h</text>
</a>
</g>
</g>
<!-- 26&#45;&gt;27 -->
<g id="edge15" class="edge">
<title>26&#45;&gt;27</title>
<g id="a_edge15"><a xlink:title="include">
<path fill="none" stroke="#1414ce" d="M929.14,-359.88C951.01,-350.31 978.46,-338.3 1001.66,-328.15"/>
<polygon fill="#1414ce" stroke="#1414ce" points="1003.23,-331.28 1010.99,-324.07 1000.42,-324.87 1003.23,-331.28"/>
</a>
</g>
</g>
<!-- 33 -->
<g id="node20" class="node">
<title>33</title>
<g id="a_node20"><a xlink:title="defaultatoms.def">
<polygon fill="#ffffff" stroke="black" points="557.5,-684 420.5,-684 420.5,-648 557.5,-648 557.5,-684"/>
<text text-anchor="middle" x="489" y="-662.3" font-family="Times,serif" font-size="14.00">defaultatoms.def</text>
</a>
</g>
</g>
<!-- 32&#45;&gt;33 -->
<g id="edge17" class="edge">
<title>32&#45;&gt;33</title>
<g id="a_edge17"><a xlink:title="include">
<path fill="none" stroke="#1414ce" d="M562.02,-719.7C549.69,-710.8 534.48,-699.82 521.15,-690.2"/>
<polygon fill="#1414ce" stroke="#1414ce" points="522.86,-687.12 512.7,-684.1 518.76,-692.79 522.86,-687.12"/>
</a>
</g>
</g>
<!-- 4 -->
<g id="node26" class="node">
<title>4</title>
<g id="a_node26"><a xlink:title="globalcontext.h">
<polygon fill="#ffffff" stroke="black" points="588.5,-612 461.5,-612 461.5,-576 588.5,-576 588.5,-612"/>
<text text-anchor="middle" x="525" y="-590.3" font-family="Times,serif" font-size="14.00">globalcontext.h</text>
</a>
</g>
</g>
<!-- 32&#45;&gt;4 -->
<g id="edge16" class="edge">
<title>32&#45;&gt;4</title>
<g id="a_edge16"><a xlink:title="include">
<path fill="none" stroke="#1414ce" d="M584.39,-719.88C582.15,-701.42 577.06,-671.5 566,-648 561.39,-638.21 554.72,-628.54 548.1,-620.19"/>
<polygon fill="#1414ce" stroke="#1414ce" points="550.65,-617.78 541.56,-612.33 545.26,-622.26 550.65,-617.78"/>
</a>
</g>
</g>
<!-- 6 -->
<g id="node6" class="node">
<title>6</title>
<g id="a_node6"><a xlink:title="atom.h">
<polygon fill="#ffffff" stroke="black" points="362,-324 296,-324 296,-288 362,-288 362,-324"/>
<text text-anchor="middle" x="329" y="-302.3" font-family="Times,serif" font-size="14.00">atom.h</text>
</a>
</g>
</g>
<!-- 6&#45;&gt;5 -->
<g id="edge18" class="edge">
<title>6&#45;&gt;5</title>
<g id="a_edge18"><a xlink:title="include">
<path fill="none" stroke="#1414ce" d="M295.71,-288.83C259.08,-268.95 202.19,-231.43 178,-180 156.52,-134.32 187.31,-77.42 209.87,-44.95"/>
<polygon fill="#1414ce" stroke="#1414ce" points="212.97,-46.63 215.97,-36.47 207.29,-42.54 212.97,-46.63"/>
</a>
</g>
</g>
<!-- 6&#45;&gt;7 -->
<g id="edge19" class="edge">
<title>6&#45;&gt;7</title>
<g id="a_edge19"><a xlink:title="include">
<path fill="none" stroke="#1414ce" d="M362.09,-304.65C434.3,-303.08 610.81,-294.78 751,-252 852.9,-220.91 869.54,-191.29 965,-144 986.16,-133.52 1009.72,-122.04 1029.5,-112.45"/>
<polygon fill="#1414ce" stroke="#1414ce" points="1031.11,-115.56 1038.59,-108.05 1028.06,-109.26 1031.11,-115.56"/>
</a>
</g>
</g>
<!-- 12 -->
<g id="node7" class="node">
<title>12</title>
<g id="a_node7"><a xlink:title="assert.h">
<polygon fill="#ffffff" stroke="black" points="1597,-36 1523,-36 1523,0 1597,0 1597,-36"/>
<text text-anchor="middle" x="1560" y="-14.3" font-family="Times,serif" font-size="14.00">assert.h</text>
</a>
</g>
</g>
<!-- 24 -->
<g id="node8" class="node">
<title>24</title>
<g id="a_node8"><a xlink:title="utils.h">
<polygon fill="#ffffff" stroke="black" points="1036,-180 974,-180 974,-144 1036,-144 1036,-180"/>
<text text-anchor="middle" x="1005" y="-158.3" font-family="Times,serif" font-size="14.00">utils.h</text>
</a>
</g>
</g>
<!-- 24&#45;&gt;7 -->
<g id="edge22" class="edge">
<title>24&#45;&gt;7</title>
<g id="a_edge22"><a xlink:title="include">
<path fill="none" stroke="#1414ce" d="M1022.06,-143.7C1030.5,-135.14 1040.82,-124.66 1050.04,-115.3"/>
<polygon fill="#1414ce" stroke="#1414ce" points="1052.61,-117.68 1057.14,-108.1 1047.63,-112.77 1052.61,-117.68"/>
</a>
</g>
</g>
<!-- 25 -->
<g id="node18" class="node">
<title>25</title>
<g id="a_node18"><a xlink:title="stddef.h">
<polygon fill="#ffffff" stroke="black" points="921,-108 847,-108 847,-72 921,-72 921,-108"/>
<text text-anchor="middle" x="884" y="-86.3" font-family="Times,serif" font-size="14.00">stddef.h</text>
</a>
</g>
</g>
<!-- 24&#45;&gt;25 -->
<g id="edge20" class="edge">
<title>24&#45;&gt;25</title>
<g id="a_edge20"><a xlink:title="include">
<path fill="none" stroke="#1414ce" d="M975.4,-143.88C959.43,-134.64 939.54,-123.13 922.39,-113.21"/>
<polygon fill="#1414ce" stroke="#1414ce" points="924.12,-110.17 913.71,-108.19 920.62,-116.23 924.12,-110.17"/>
</a>
</g>
</g>
<!-- 18 -->
<g id="node33" class="node">
<title>18</title>
<g id="a_node33"><a xlink:title="stdio.h">
<polygon fill="#ffffff" stroke="black" points="1004.5,-108 939.5,-108 939.5,-72 1004.5,-72 1004.5,-108"/>
<text text-anchor="middle" x="972" y="-86.3" font-family="Times,serif" font-size="14.00">stdio.h</text>
</a>
</g>
</g>
<!-- 24&#45;&gt;18 -->
<g id="edge21" class="edge">
<title>24&#45;&gt;18</title>
<g id="a_edge21"><a xlink:title="include">
<path fill="none" stroke="#1414ce" d="M996.84,-143.7C993.09,-135.73 988.55,-126.1 984.38,-117.26"/>
<polygon fill="#1414ce" stroke="#1414ce" points="987.49,-115.66 980.06,-108.1 981.16,-118.64 987.49,-115.66"/>
</a>
</g>
</g>
<!-- 17 -->
<g id="node9" class="node">
<title>17</title>
<g id="a_node9"><a xlink:title="synclist.h">
<polygon fill="#ffffff" stroke="black" points="511.5,-252 426.5,-252 426.5,-216 511.5,-216 511.5,-252"/>
<text text-anchor="middle" x="469" y="-230.3" font-family="Times,serif" font-size="14.00">synclist.h</text>
</a>
</g>
</g>
<!-- 17&#45;&gt;16 -->
<g id="edge24" class="edge">
<title>17&#45;&gt;16</title>
<g id="a_edge24"><a xlink:title="include">
<path fill="none" stroke="#1414ce" d="M499.33,-215.88C516.75,-206.04 538.73,-193.64 557.02,-183.31"/>
<polygon fill="#1414ce" stroke="#1414ce" points="558.95,-186.24 565.93,-178.28 555.5,-180.15 558.95,-186.24"/>
</a>
</g>
</g>
<!-- 19 -->
<g id="node28" class="node">
<title>19</title>
<g id="a_node28"><a xlink:title="smp.h">
<polygon fill="#ffffff" stroke="black" points="443,-180 383,-180 383,-144 443,-144 443,-180"/>
<text text-anchor="middle" x="413" y="-158.3" font-family="Times,serif" font-size="14.00">smp.h</text>
</a>
</g>
</g>
<!-- 17&#45;&gt;19 -->
<g id="edge25" class="edge">
<title>17&#45;&gt;19</title>
<g id="a_edge25"><a xlink:title="include">
<path fill="none" stroke="#1414ce" d="M455.16,-215.7C448.51,-207.39 440.42,-197.28 433.11,-188.14"/>
<polygon fill="#1414ce" stroke="#1414ce" points="435.66,-185.73 426.68,-180.1 430.2,-190.1 435.66,-185.73"/>
</a>
</g>
</g>
<!-- 17&#45;&gt;18 -->
<g id="edge23" class="edge">
<title>17&#45;&gt;18</title>
<g id="a_edge23"><a xlink:title="include">
<path fill="none" stroke="#1414ce" d="M480.3,-215.72C495.12,-194.7 523.24,-160.04 557,-144 704.49,-73.91 765.83,-144.78 929.39,-107.63"/>
<polygon fill="#1414ce" stroke="#1414ce" points="930.36,-111 939.28,-105.28 928.74,-104.19 930.36,-111"/>
</a>
</g>
</g>
<!-- 16&#45;&gt;9 -->
<g id="edge26" class="edge">
<title>16&#45;&gt;9</title>
<g id="a_edge26"><a xlink:title="include">
<path fill="none" stroke="#1414ce" d="M593,-143.7C593,-135.98 593,-126.71 593,-118.11"/>
<polygon fill="#1414ce" stroke="#1414ce" points="596.5,-118.1 593,-108.1 589.5,-118.1 596.5,-118.1"/>
</a>
</g>
</g>
<!-- 3&#45;&gt;16 -->
<g id="edge28" class="edge">
<title>3&#45;&gt;16</title>
<g id="a_edge28"><a xlink:title="include">
<path fill="none" stroke="#1414ce" d="M690.16,-647.74C677.61,-591.14 637.01,-406.03 608,-252 604.11,-231.34 600.18,-207.89 597.32,-190.25"/>
<polygon fill="#1414ce" stroke="#1414ce" points="600.73,-189.41 595.68,-180.1 593.81,-190.53 600.73,-189.41"/>
</a>
</g>
</g>
<!-- 3&#45;&gt;20 -->
<g id="edge31" class="edge">
<title>3&#45;&gt;20</title>
<g id="a_edge31"><a xlink:title="include">
<path fill="none" stroke="#1414ce" d="M725.43,-647.81C743,-637.88 765.1,-624.84 784,-612 850.63,-566.74 924.03,-507.15 963.02,-474.64"/>
<polygon fill="#1414ce" stroke="#1414ce" points="965.38,-477.24 970.8,-468.13 960.88,-471.87 965.38,-477.24"/>
</a>
</g>
</g>
<!-- 3&#45;&gt;4 -->
<g id="edge27" class="edge">
<title>3&#45;&gt;4</title>
<g id="a_edge27"><a xlink:title="include">
<path fill="none" stroke="#1414ce" d="M652.66,-647.88C629.45,-638.26 600.31,-626.19 575.73,-616.01"/>
<polygon fill="#1414ce" stroke="#1414ce" points="576.79,-612.66 566.21,-612.07 574.11,-619.13 576.79,-612.66"/>
</a>
</g>
</g>
<!-- 3&#45;&gt;19 -->
<g id="edge30" class="edge">
<title>3&#45;&gt;19</title>
<g id="a_edge30"><a xlink:title="include">
<path fill="none" stroke="#1414ce" d="M652.29,-658.49C592.7,-648.75 486.58,-629.63 452,-612 398.99,-584.98 352,-582.5 352,-523 352,-523 352,-523 352,-449 352,-398.01 389.56,-250.94 405.73,-189.98"/>
<polygon fill="#1414ce" stroke="#1414ce" points="409.12,-190.86 408.31,-180.29 402.36,-189.06 409.12,-190.86"/>
</a>
</g>
</g>
<!-- 29 -->
<g id="node30" class="node">
<title>29</title>
<g id="a_node30"><a xlink:title="timer_list.h">
<polygon fill="#ffffff" stroke="black" points="742,-252 644,-252 644,-216 742,-216 742,-252"/>
<text text-anchor="middle" x="693" y="-230.3" font-family="Times,serif" font-size="14.00">timer_list.h</text>
</a>
</g>
</g>
<!-- 3&#45;&gt;29 -->
<g id="edge32" class="edge">
<title>3&#45;&gt;29</title>
<g id="a_edge32"><a xlink:title="include">
<path fill="none" stroke="#1414ce" d="M694,-647.95C694,-621.29 694,-568.11 694,-523 694,-523 694,-523 694,-377 694,-337 693.6,-290.65 693.3,-262.08"/>
<polygon fill="#1414ce" stroke="#1414ce" points="696.8,-262.01 693.2,-252.05 689.8,-262.09 696.8,-262.01"/>
</a>
</g>
</g>
<!-- 28 -->
<g id="node32" class="node">
<title>28</title>
<g id="a_node32"><a xlink:title="mailbox.h">
<polygon fill="#ffffff" stroke="black" points="960,-252 874,-252 874,-216 960,-216 960,-252"/>
<text text-anchor="middle" x="917" y="-230.3" font-family="Times,serif" font-size="14.00">mailbox.h</text>
</a>
</g>
</g>
<!-- 3&#45;&gt;28 -->
<g id="edge29" class="edge">
<title>3&#45;&gt;28</title>
<g id="a_edge29"><a xlink:title="include">
<path fill="none" stroke="#1414ce" d="M710.49,-647.77C732.84,-622.53 770,-573.05 770,-523 770,-523 770,-523 770,-449 770,-405.54 853.42,-306.12 894.57,-259.71"/>
<polygon fill="#1414ce" stroke="#1414ce" points="897.22,-262 901.27,-252.21 892,-257.34 897.22,-262"/>
</a>
</g>
</g>
<!-- 23 -->
<g id="node14" class="node">
<title>23</title>
<g id="a_node14"><a xlink:title="memory.h">
<polygon fill="#ffffff" stroke="black" points="1318,-252 1232,-252 1232,-216 1318,-216 1318,-252"/>
<text text-anchor="middle" x="1275" y="-230.3" font-family="Times,serif" font-size="14.00">memory.h</text>
</a>
</g>
</g>
<!-- 23&#45;&gt;24 -->
<g id="edge37" class="edge">
<title>23&#45;&gt;24</title>
<g id="a_edge37"><a xlink:title="include">
<path fill="none" stroke="#1414ce" d="M1231.92,-221.83C1180.8,-208.58 1096.2,-186.64 1046.01,-173.63"/>
<polygon fill="#1414ce" stroke="#1414ce" points="1046.7,-170.2 1036.14,-171.07 1044.95,-176.97 1046.7,-170.2"/>
</a>
</g>
</g>
<!-- 23&#45;&gt;5 -->
<g id="edge33" class="edge">
<title>23&#45;&gt;5</title>
<g id="a_edge33"><a xlink:title="include">
<path fill="none" stroke="#1414ce" d="M1268.19,-215.77C1260.02,-196.66 1244.9,-165.67 1225,-144 1186.47,-102.06 1172.91,-90.35 1119,-72 960.9,-18.18 436.53,-17.45 276.67,-18.54"/>
<polygon fill="#1414ce" stroke="#1414ce" points="276.21,-15.04 266.24,-18.61 276.26,-22.04 276.21,-15.04"/>
</a>
</g>
</g>
<!-- 23&#45;&gt;7 -->
<g id="edge34" class="edge">
<title>23&#45;&gt;7</title>
<g id="a_edge34"><a xlink:title="include">
<path fill="none" stroke="#1414ce" d="M1262.28,-215.65C1247.27,-196.15 1220.69,-164.54 1192,-144 1169.79,-128.1 1142.05,-115.35 1119.05,-106.34"/>
<polygon fill="#1414ce" stroke="#1414ce" points="1120.1,-102.99 1109.51,-102.71 1117.61,-109.54 1120.1,-102.99"/>
</a>
</g>
</g>
<!-- 10 -->
<g id="node19" class="node">
<title>10</title>
<g id="a_node19"><a xlink:title="erl_nif.h">
<polygon fill="#ffffff" stroke="black" points="1394,-180 1320,-180 1320,-144 1394,-144 1394,-180"/>
<text text-anchor="middle" x="1357" y="-158.3" font-family="Times,serif" font-size="14.00">erl_nif.h</text>
</a>
</g>
</g>
<!-- 23&#45;&gt;10 -->
<g id="edge35" class="edge">
<title>23&#45;&gt;10</title>
<g id="a_edge35"><a xlink:title="include">
<path fill="none" stroke="#1414ce" d="M1295.27,-215.7C1305.5,-206.97 1318.06,-196.24 1329.18,-186.75"/>
<polygon fill="#1414ce" stroke="#1414ce" points="1331.63,-189.26 1336.96,-180.1 1327.09,-183.94 1331.63,-189.26"/>
</a>
</g>
</g>
<!-- 23&#45;&gt;11 -->
<g id="edge36" class="edge">
<title>23&#45;&gt;11</title>
<g id="a_edge36"><a xlink:title="include">
<path fill="none" stroke="#1414ce" d="M1277.6,-215.9C1281.49,-196.03 1290.66,-163.49 1311,-144 1331.83,-124.04 1360.67,-111.53 1387.43,-103.73"/>
<polygon fill="#1414ce" stroke="#1414ce" points="1388.46,-107.07 1397.18,-101.06 1386.61,-100.32 1388.46,-107.07"/>
</a>
</g>
</g>
<!-- 27&#45;&gt;17 -->
<g id="edge42" class="edge">
<title>27&#45;&gt;17</title>
<g id="a_edge42"><a xlink:title="include">
<path fill="none" stroke="#1414ce" d="M999.96,-298.97C890.92,-285.83 632.77,-254.73 521.52,-241.33"/>
<polygon fill="#1414ce" stroke="#1414ce" points="521.88,-237.85 511.54,-240.12 521.04,-244.8 521.88,-237.85"/>
</a>
</g>
</g>
<!-- 27&#45;&gt;16 -->
<g id="edge40" class="edge">
<title>27&#45;&gt;16</title>
<g id="a_edge40"><a xlink:title="include">
<path fill="none" stroke="#1414ce" d="M999.99,-291.22C962.68,-280.8 910.52,-265.96 865,-252 780.43,-226.06 681.95,-193.16 629.79,-175.52"/>
<polygon fill="#1414ce" stroke="#1414ce" points="630.9,-172.2 620.3,-172.31 628.65,-178.83 630.9,-172.2"/>
</a>
</g>
</g>
<!-- 27&#45;&gt;7 -->
<g id="edge38" class="edge">
<title>27&#45;&gt;7</title>
<g id="a_edge38"><a xlink:title="include">
<path fill="none" stroke="#1414ce" d="M1051.92,-287.85C1056.07,-250.83 1065.9,-163.18 1070.93,-118.39"/>
<polygon fill="#1414ce" stroke="#1414ce" points="1074.43,-118.56 1072.07,-108.23 1067.47,-117.78 1074.43,-118.56"/>
</a>
</g>
</g>
<!-- 27&#45;&gt;23 -->
<g id="edge41" class="edge">
<title>27&#45;&gt;23</title>
<g id="a_edge41"><a xlink:title="include">
<path fill="none" stroke="#1414ce" d="M1100.21,-289.38C1136.48,-278.1 1185.35,-262.89 1222.19,-251.43"/>
<polygon fill="#1414ce" stroke="#1414ce" points="1223.25,-254.76 1231.76,-248.45 1221.17,-248.08 1223.25,-254.76"/>
</a>
</g>
</g>
<!-- 27&#45;&gt;10 -->
<g id="edge39" class="edge">
<title>27&#45;&gt;10</title>
<g id="a_edge39"><a xlink:title="include">
<path fill="none" stroke="#1414ce" d="M1100.26,-301.39C1170.68,-295.36 1293.84,-280.93 1327,-252 1344.71,-236.55 1351.98,-210.3 1354.96,-190.29"/>
<polygon fill="#1414ce" stroke="#1414ce" points="1358.46,-190.56 1356.19,-180.21 1351.51,-189.72 1358.46,-190.56"/>
</a>
</g>
</g>
<!-- 20&#45;&gt;9 -->
<g id="edge44" class="edge">
<title>20&#45;&gt;9</title>
<g id="a_edge44"><a xlink:title="include">
<path fill="none" stroke="#1414ce" d="M958.35,-446.44C922.05,-441.96 863.73,-429.66 827,-396 762.99,-337.32 803.59,-285.1 751,-216 717.9,-172.51 666.34,-135.54 631.19,-113.33"/>
<polygon fill="#1414ce" stroke="#1414ce" points="632.97,-110.32 622.63,-108.01 629.27,-116.26 632.97,-110.32"/>
</a>
</g>
</g>
<!-- 20&#45;&gt;26 -->
<g id="edge50" class="edge">
<title>20&#45;&gt;26</title>
<g id="a_edge50"><a xlink:title="include">
<path fill="none" stroke="#1414ce" d="M966.29,-431.88C953.33,-422.89 937.27,-411.76 923.23,-402.03"/>
<polygon fill="#1414ce" stroke="#1414ce" points="925.02,-399.01 914.8,-396.19 921.03,-404.76 925.02,-399.01"/>
</a>
</g>
</g>
<!-- 20&#45;&gt;24 -->
<g id="edge51" class="edge">
<title>20&#45;&gt;24</title>
<g id="a_edge51"><a xlink:title="include">
<path fill="none" stroke="#1414ce" d="M994.6,-431.84C999.53,-412.21 1010.11,-380.19 1030,-360 1057.08,-332.52 1088.13,-356.45 1109,-324 1140.58,-274.91 1080.05,-217.5 1038.82,-186.22"/>
<polygon fill="#1414ce" stroke="#1414ce" points="1040.72,-183.28 1030.6,-180.14 1036.56,-188.91 1040.72,-183.28"/>
</a>
</g>
</g>
<!-- 20&#45;&gt;5 -->
<g id="edge45" class="edge">
<title>20&#45;&gt;5</title>
<g id="a_edge45"><a xlink:title="include">
<path fill="none" stroke="#1414ce" d="M1023.72,-446.85C1092.42,-441.75 1248.8,-427 1291,-396 1340.39,-359.72 1439.44,-193.27 1403,-144 1338.05,-56.17 1275.53,-91.22 1168,-72 993.7,-40.85 440.4,-24.41 276.3,-20.14"/>
<polygon fill="#1414ce" stroke="#1414ce" points="276.15,-16.64 266.06,-19.88 275.97,-23.63 276.15,-16.64"/>
</a>
</g>
</g>
<!-- 20&#45;&gt;7 -->
<g id="edge47" class="edge">
<title>20&#45;&gt;7</title>
<g id="a_edge47"><a xlink:title="include">
<path fill="none" stroke="#1414ce" d="M1023.89,-446.85C1084.42,-442.14 1209.7,-428.6 1236,-396 1263.2,-362.28 1229.52,-292.64 1124,-144 1116.86,-133.95 1107.92,-123.87 1099.57,-115.24"/>
<polygon fill="#1414ce" stroke="#1414ce" points="1101.98,-112.7 1092.45,-108.07 1097.01,-117.63 1101.98,-112.7"/>
</a>
</g>
</g>
<!-- 20&#45;&gt;23 -->
<g id="edge49" class="edge">
<title>20&#45;&gt;23</title>
<g id="a_edge49"><a xlink:title="include">
<path fill="none" stroke="#1414ce" d="M1023.72,-447.69C1090.21,-444.28 1237.5,-432.66 1269,-396 1300.88,-358.89 1292,-297.34 1283.17,-262.06"/>
<polygon fill="#1414ce" stroke="#1414ce" points="1286.45,-260.77 1280.48,-252.01 1279.69,-262.58 1286.45,-260.77"/>
</a>
</g>
</g>
<!-- 21 -->
<g id="node23" class="node">
<title>21</title>
<g id="a_node23"><a xlink:title="sys/types.h">
<polygon fill="#ffffff" stroke="black" points="1226.5,-396 1129.5,-396 1129.5,-360 1226.5,-360 1226.5,-396"/>
<text text-anchor="middle" x="1178" y="-374.3" font-family="Times,serif" font-size="14.00">sys/types.h</text>
</a>
</g>
</g>
<!-- 20&#45;&gt;21 -->
<g id="edge43" class="edge">
<title>20&#45;&gt;21</title>
<g id="a_edge43"><a xlink:title="include">
<path fill="none" stroke="#1414ce" d="M1023.57,-436.81C1050.88,-426.58 1090.48,-411.76 1122.74,-399.69"/>
<polygon fill="#1414ce" stroke="#1414ce" points="1124.36,-402.82 1132.49,-396.03 1121.9,-396.26 1124.36,-402.82"/>
</a>
</g>
</g>
<!-- 22 -->
<g id="node24" class="node">
<title>22</title>
<g id="a_node24"><a xlink:title="string.h">
<polygon fill="#ffffff" stroke="black" points="1111.5,-396 1038.5,-396 1038.5,-360 1111.5,-360 1111.5,-396"/>
<text text-anchor="middle" x="1075" y="-374.3" font-family="Times,serif" font-size="14.00">string.h</text>
</a>
</g>
</g>
<!-- 20&#45;&gt;22 -->
<g id="edge48" class="edge">
<title>20&#45;&gt;22</title>
<g id="a_edge48"><a xlink:title="include">
<path fill="none" stroke="#1414ce" d="M1011.76,-431.7C1022.24,-422.97 1035.11,-412.24 1046.5,-402.75"/>
<polygon fill="#1414ce" stroke="#1414ce" points="1049.03,-405.19 1054.47,-396.1 1044.55,-399.82 1049.03,-405.19"/>
</a>
</g>
</g>
<!-- 20&#45;&gt;11 -->
<g id="edge52" class="edge">
<title>20&#45;&gt;11</title>
<g id="a_edge52"><a xlink:title="include">
<path fill="none" stroke="#1414ce" d="M1023.73,-447.54C1101,-443.56 1292.23,-430.41 1345,-396 1440.24,-333.88 1456.82,-181.37 1459.55,-118.64"/>
<polygon fill="#1414ce" stroke="#1414ce" points="1463.05,-118.47 1459.9,-108.35 1456.06,-118.22 1463.05,-118.47"/>
</a>
</g>
</g>
<!-- 20&#45;&gt;18 -->
<g id="edge46" class="edge">
<title>20&#45;&gt;18</title>
<g id="a_edge46"><a xlink:title="include">
<path fill="none" stroke="#1414ce" d="M991.03,-431.84C991.05,-381.52 990.62,-236.59 985,-216 980.18,-198.34 969.59,-197.72 965,-180 959.73,-159.65 962.01,-135.89 965.31,-118.03"/>
<polygon fill="#1414ce" stroke="#1414ce" points="968.79,-118.52 967.39,-108.02 961.93,-117.1 968.79,-118.52"/>
</a>
</g>
</g>
<!-- 10&#45;&gt;11 -->
<g id="edge53" class="edge">
<title>10&#45;&gt;11</title>
<g id="a_edge53"><a xlink:title="include">
<path fill="none" stroke="#1414ce" d="M1382.2,-143.88C1395.41,-134.89 1411.79,-123.76 1426.11,-114.03"/>
<polygon fill="#1414ce" stroke="#1414ce" points="1428.4,-116.71 1434.71,-108.19 1424.47,-110.92 1428.4,-116.71"/>
</a>
</g>
</g>
<!-- 13 -->
<g id="node21" class="node">
<title>13</title>
<g id="a_node21"><a xlink:title="limits.h">
<polygon fill="#ffffff" stroke="black" points="1397.5,-36 1326.5,-36 1326.5,0 1397.5,0 1397.5,-36"/>
<text text-anchor="middle" x="1362" y="-14.3" font-family="Times,serif" font-size="14.00">limits.h</text>
</a>
</g>
</g>
<!-- 8&#45;&gt;9 -->
<g id="edge54" class="edge">
<title>8&#45;&gt;9</title>
<g id="a_edge54"><a xlink:title="include">
<path fill="none" stroke="#1414ce" d="M230.8,-503.95C230.51,-477.29 230,-424.12 230,-379 230,-379 230,-379 230,-305 230,-257 331.9,-167.06 374,-144 426.63,-115.17 494.82,-101.86 541.02,-95.82"/>
<polygon fill="#1414ce" stroke="#1414ce" points="541.62,-99.27 551.11,-94.57 540.76,-92.33 541.62,-99.27"/>
</a>
</g>
</g>
<!-- 8&#45;&gt;6 -->
<g id="edge55" class="edge">
<title>8&#45;&gt;6</title>
<g id="a_edge55"><a xlink:title="include">
<path fill="none" stroke="#1414ce" d="M238.85,-503.85C255.91,-466.6 296.46,-378.07 316.85,-333.54"/>
<polygon fill="#1414ce" stroke="#1414ce" points="320.13,-334.78 321.11,-324.23 313.76,-331.87 320.13,-334.78"/>
</a>
</g>
</g>
<!-- 11&#45;&gt;12 -->
<g id="edge56" class="edge">
<title>11&#45;&gt;12</title>
<g id="a_edge56"><a xlink:title="include">
<path fill="none" stroke="#1414ce" d="M1484.46,-71.88C1497.3,-62.89 1513.2,-51.76 1527.09,-42.03"/>
<polygon fill="#1414ce" stroke="#1414ce" points="1529.26,-44.79 1535.44,-36.19 1525.24,-39.06 1529.26,-44.79"/>
</a>
</g>
</g>
<!-- 11&#45;&gt;5 -->
<g id="edge59" class="edge">
<title>11&#45;&gt;5</title>
<g id="a_edge59"><a xlink:title="include">
<path fill="none" stroke="#1414ce" d="M1397.12,-74.2C1392.36,-73.36 1387.61,-72.61 1383,-72 1163.42,-42.93 463.25,-24.54 276.27,-20.07"/>
<polygon fill="#1414ce" stroke="#1414ce" points="276.31,-16.57 266.23,-19.83 276.14,-23.57 276.31,-16.57"/>
</a>
</g>
</g>
<!-- 11&#45;&gt;13 -->
<g id="edge57" class="edge">
<title>11&#45;&gt;13</title>
<g id="a_edge57"><a xlink:title="include">
<path fill="none" stroke="#1414ce" d="M1436.03,-71.88C1423.45,-62.89 1407.87,-51.76 1394.25,-42.03"/>
<polygon fill="#1414ce" stroke="#1414ce" points="1396.24,-39.15 1386.07,-36.19 1392.17,-44.85 1396.24,-39.15"/>
</a>
</g>
</g>
<!-- 14 -->
<g id="node35" class="node">
<title>14</title>
<g id="a_node35"><a xlink:title="inttypes.h">
<polygon fill="#ffffff" stroke="black" points="1504.5,-36 1415.5,-36 1415.5,0 1504.5,0 1504.5,-36"/>
<text text-anchor="middle" x="1460" y="-14.3" font-family="Times,serif" font-size="14.00">inttypes.h</text>
</a>
</g>
</g>
<!-- 11&#45;&gt;14 -->
<g id="edge58" class="edge">
<title>11&#45;&gt;14</title>
<g id="a_edge58"><a xlink:title="include">
<path fill="none" stroke="#1414ce" d="M1460,-71.7C1460,-63.98 1460,-54.71 1460,-46.11"/>
<polygon fill="#1414ce" stroke="#1414ce" points="1463.5,-46.1 1460,-36.1 1456.5,-46.1 1463.5,-46.1"/>
</a>
</g>
</g>
<!-- 4&#45;&gt;6 -->
<g id="edge61" class="edge">
<title>4&#45;&gt;6</title>
<g id="a_edge61"><a xlink:title="include">
<path fill="none" stroke="#1414ce" d="M495.15,-575.81C480.84,-566.52 464.21,-554.08 452,-540 395.59,-474.93 355.63,-379.56 338.43,-333.64"/>
<polygon fill="#1414ce" stroke="#1414ce" points="341.66,-332.28 334.92,-324.11 335.09,-334.7 341.66,-332.28"/>
</a>
</g>
</g>
<!-- 4&#45;&gt;17 -->
<g id="edge68" class="edge">
<title>4&#45;&gt;17</title>
<g id="a_edge68"><a xlink:title="include">
<path fill="none" stroke="#1414ce" d="M511.05,-575.76C503.59,-565.81 494.78,-552.77 489,-540 472.16,-502.78 466,-491.86 466,-451 466,-451 466,-451 466,-377 466,-336.99 467.21,-290.65 468.09,-262.08"/>
<polygon fill="#1414ce" stroke="#1414ce" points="471.59,-262.15 468.41,-252.05 464.59,-261.93 471.59,-262.15"/>
</a>
</g>
</g>
<!-- 4&#45;&gt;16 -->
<g id="edge65" class="edge">
<title>4&#45;&gt;16</title>
<g id="a_edge65"><a xlink:title="include">
<path fill="none" stroke="#1414ce" d="M501.3,-575.89C490.09,-566.54 477.53,-554.02 470,-540 452.74,-507.86 395.24,-245.28 417,-216 448.78,-173.24 513.97,-163.71 555.48,-162.26"/>
<polygon fill="#1414ce" stroke="#1414ce" points="555.81,-165.75 565.74,-162.04 555.67,-158.75 555.81,-165.75"/>
</a>
</g>
</g>
<!-- 4&#45;&gt;5 -->
<g id="edge60" class="edge">
<title>4&#45;&gt;5</title>
<g id="a_edge60"><a xlink:title="include">
<path fill="none" stroke="#1414ce" d="M461.11,-589.87C339.99,-583.34 86.38,-566.64 57,-540 27.04,-512.83 38,-491.45 38,-451 38,-451 38,-451 38,-161 38,-114.5 57.23,-101.71 93,-72 119.23,-50.21 155.45,-36.72 184.05,-28.81"/>
<polygon fill="#1414ce" stroke="#1414ce" points="185.04,-32.17 193.82,-26.24 183.26,-25.4 185.04,-32.17"/>
</a>
</g>
</g>
<!-- 4&#45;&gt;20 -->
<g id="edge69" class="edge">
<title>4&#45;&gt;20</title>
<g id="a_edge69"><a xlink:title="include">
<path fill="none" stroke="#1414ce" d="M581.21,-575.87C675.65,-547.09 864.1,-489.67 948.46,-463.96"/>
<polygon fill="#1414ce" stroke="#1414ce" points="949.67,-467.25 958.22,-460.99 947.63,-460.56 949.67,-467.25"/>
</a>
</g>
</g>
<!-- 4&#45;&gt;10 -->
<g id="edge63" class="edge">
<title>4&#45;&gt;10</title>
<g id="a_edge63"><a xlink:title="include">
<path fill="none" stroke="#1414ce" d="M588.79,-589.47C791.39,-577.4 1407,-533.93 1407,-451 1407,-451 1407,-451 1407,-377 1407,-308.03 1382.07,-229.76 1367.42,-189.72"/>
<polygon fill="#1414ce" stroke="#1414ce" points="1370.63,-188.3 1363.85,-180.16 1364.07,-190.75 1370.63,-188.3"/>
</a>
</g>
</g>
<!-- 4&#45;&gt;8 -->
<g id="edge62" class="edge">
<title>4&#45;&gt;8</title>
<g id="a_edge62"><a xlink:title="include">
<path fill="none" stroke="#1414ce" d="M461.43,-578.21C416.35,-567.67 354.43,-553.11 300,-540 298.54,-539.65 297.06,-539.29 295.57,-538.93"/>
<polygon fill="#1414ce" stroke="#1414ce" points="296.14,-535.47 285.6,-536.51 294.49,-542.27 296.14,-535.47"/>
</a>
</g>
</g>
<!-- 4&#45;&gt;19 -->
<g id="edge67" class="edge">
<title>4&#45;&gt;19</title>
<g id="a_edge67"><a xlink:title="include">
<path fill="none" stroke="#1414ce" d="M499.65,-575.95C446.34,-538.23 324.45,-441.65 287,-324 268.62,-266.25 330.8,-213.92 374.26,-185.46"/>
<polygon fill="#1414ce" stroke="#1414ce" points="376.4,-188.26 382.95,-179.93 372.63,-182.35 376.4,-188.26"/>
</a>
</g>
</g>
<!-- 4&#45;&gt;29 -->
<g id="edge70" class="edge">
<title>4&#45;&gt;29</title>
<g id="a_edge70"><a xlink:title="include">
<path fill="none" stroke="#1414ce" d="M537.86,-575.86C545.14,-565.73 554.14,-552.48 561,-540 615.31,-441.2 663.62,-315.52 683.44,-261.57"/>
<polygon fill="#1414ce" stroke="#1414ce" points="686.77,-262.65 686.92,-252.05 680.2,-260.25 686.77,-262.65"/>
</a>
</g>
</g>
<!-- 4&#45;&gt;28 -->
<g id="edge66" class="edge">
<title>4&#45;&gt;28</title>
<g id="a_edge66"><a xlink:title="include">
<path fill="none" stroke="#1414ce" d="M544.74,-575.94C556.37,-565.73 571.25,-552.36 584,-540 696.81,-430.61 707.66,-384.09 832,-288 846.13,-277.08 862.6,-266.39 877.26,-257.51"/>
<polygon fill="#1414ce" stroke="#1414ce" points="879.32,-260.35 886.12,-252.22 875.74,-254.34 879.32,-260.35"/>
</a>
</g>
</g>
<!-- 15 -->
<g id="node34" class="node">
<title>15</title>
<g id="a_node34"><a xlink:title="ets.h">
<polygon fill="#ffffff" stroke="black" points="552,-540 498,-540 498,-504 552,-504 552,-540"/>
<text text-anchor="middle" x="525" y="-518.3" font-family="Times,serif" font-size="14.00">ets.h</text>
</a>
</g>
</g>
<!-- 4&#45;&gt;15 -->
<g id="edge64" class="edge">
<title>4&#45;&gt;15</title>
<g id="a_edge64"><a xlink:title="include">
<path fill="none" stroke="#1414ce" d="M525,-575.7C525,-567.98 525,-558.71 525,-550.11"/>
<polygon fill="#1414ce" stroke="#1414ce" points="528.5,-550.1 525,-540.1 521.5,-550.1 528.5,-550.1"/>
</a>
</g>
</g>
<!-- 30&#45;&gt;9 -->
<g id="edge73" class="edge">
<title>30&#45;&gt;9</title>
<g id="a_edge73"><a xlink:title="include">
<path fill="none" stroke="#1414ce" d="M120.5,-503.99C132.77,-477.82 154,-425.79 154,-379 154,-379 154,-379 154,-305 154,-301.78 318.14,-145.49 321,-144 391.51,-107.31 484.3,-95.9 541.24,-92.43"/>
<polygon fill="#1414ce" stroke="#1414ce" points="541.65,-95.91 551.45,-91.87 541.27,-88.92 541.65,-95.91"/>
</a>
</g>
</g>
<!-- 30&#45;&gt;5 -->
<g id="edge74" class="edge">
<title>30&#45;&gt;5</title>
<g id="a_edge74"><a xlink:title="include">
<path fill="none" stroke="#1414ce" d="M105.12,-503.83C95.18,-477.44 78,-425.14 78,-379 78,-379 78,-379 78,-161 78,-102 139.91,-60.47 184.71,-38.14"/>
<polygon fill="#1414ce" stroke="#1414ce" points="186.49,-41.17 193.98,-33.67 183.45,-34.86 186.49,-41.17"/>
</a>
</g>
</g>
<!-- 30&#45;&gt;20 -->
<g id="edge71" class="edge">
<title>30&#45;&gt;20</title>
<g id="a_edge71"><a xlink:title="include">
<path fill="none" stroke="#1414ce" d="M158.02,-505.91C161.04,-505.19 164.05,-504.54 167,-504 319.16,-476 800.52,-457.54 947.78,-452.44"/>
<polygon fill="#1414ce" stroke="#1414ce" points="948.32,-455.92 958.19,-452.08 948.08,-448.92 948.32,-455.92"/>
</a>
</g>
</g>
<!-- 31 -->
<g id="node29" class="node">
<title>31</title>
<g id="a_node29"><a xlink:title="unicode.h">
<polygon fill="#ffffff" stroke="black" points="273,-180 187,-180 187,-144 273,-144 273,-180"/>
<text text-anchor="middle" x="230" y="-158.3" font-family="Times,serif" font-size="14.00">unicode.h</text>
</a>
</g>
</g>
<!-- 30&#45;&gt;31 -->
<g id="edge72" class="edge">
<title>30&#45;&gt;31</title>
<g id="a_edge72"><a xlink:title="include">
<path fill="none" stroke="#1414ce" d="M112.79,-503.96C113.96,-477.3 116,-424.13 116,-379 116,-379 116,-379 116,-305 116,-264.03 115.17,-248.59 140,-216 149.82,-203.1 163.77,-192.75 177.75,-184.74"/>
<polygon fill="#1414ce" stroke="#1414ce" points="179.76,-187.63 186.9,-179.8 176.44,-181.47 179.76,-187.63"/>
</a>
</g>
</g>
<!-- 19&#45;&gt;9 -->
<g id="edge75" class="edge">
<title>19&#45;&gt;9</title>
<g id="a_edge75"><a xlink:title="include">
<path fill="none" stroke="#1414ce" d="M443.13,-149.28C469.97,-138.84 509.83,-123.34 541.69,-110.95"/>
<polygon fill="#1414ce" stroke="#1414ce" points="543.25,-114.1 551.3,-107.22 540.71,-107.58 543.25,-114.1"/>
</a>
</g>
</g>
<!-- 31&#45;&gt;9 -->
<g id="edge76" class="edge">
<title>31&#45;&gt;9</title>
<g id="a_edge76"><a xlink:title="include">
<path fill="none" stroke="#1414ce" d="M273.12,-147.56C277.78,-146.28 282.48,-145.06 287,-144 375.32,-123.26 479.74,-106.89 540.93,-98.1"/>
<polygon fill="#1414ce" stroke="#1414ce" points="541.7,-101.53 551.11,-96.65 540.72,-94.6 541.7,-101.53"/>
</a>
</g>
</g>
<!-- 31&#45;&gt;5 -->
<g id="edge78" class="edge">
<title>31&#45;&gt;5</title>
<g id="a_edge78"><a xlink:title="include">
<path fill="none" stroke="#1414ce" d="M230,-143.87C230,-119.67 230,-75.21 230,-46.39"/>
<polygon fill="#1414ce" stroke="#1414ce" points="233.5,-46.19 230,-36.19 226.5,-46.19 233.5,-46.19"/>
</a>
</g>
</g>
<!-- 31&#45;&gt;25 -->
<g id="edge77" class="edge">
<title>31&#45;&gt;25</title>
<g id="a_edge77"><a xlink:title="include">
<path fill="none" stroke="#1414ce" d="M273.14,-155.75C301.74,-152.3 340.1,-147.76 374,-144 544.21,-125.11 746.62,-104.68 836.7,-95.69"/>
<polygon fill="#1414ce" stroke="#1414ce" points="837.26,-99.15 846.87,-94.68 836.57,-92.19 837.26,-99.15"/>
</a>
</g>
</g>
<!-- 29&#45;&gt;9 -->
<g id="edge79" class="edge">
<title>29&#45;&gt;9</title>
<g id="a_edge79"><a xlink:title="include">
<path fill="none" stroke="#1414ce" d="M680.94,-215.87C663.52,-191.14 631.2,-145.24 610.97,-116.51"/>
<polygon fill="#1414ce" stroke="#1414ce" points="613.72,-114.35 605.11,-108.19 608,-118.38 613.72,-114.35"/>
</a>
</g>
</g>
<!-- 29&#45;&gt;16 -->
<g id="edge81" class="edge">
<title>29&#45;&gt;16</title>
<g id="a_edge81"><a xlink:title="include">
<path fill="none" stroke="#1414ce" d="M668.54,-215.88C655.7,-206.89 639.8,-195.76 625.91,-186.03"/>
<polygon fill="#1414ce" stroke="#1414ce" points="627.76,-183.06 617.56,-180.19 623.74,-188.79 627.76,-183.06"/>
</a>
</g>
</g>
<!-- 29&#45;&gt;5 -->
<g id="edge80" class="edge">
<title>29&#45;&gt;5</title>
<g id="a_edge80"><a xlink:title="include">
<path fill="none" stroke="#1414ce" d="M693.28,-215.93C692.81,-182.53 686.59,-108.61 643,-72 588.38,-26.12 372.53,-19.48 276.5,-18.85"/>
<polygon fill="#1414ce" stroke="#1414ce" points="276.23,-15.35 266.22,-18.8 276.2,-22.35 276.23,-15.35"/>
</a>
</g>
</g>
<!-- 28&#45;&gt;9 -->
<g id="edge82" class="edge">
<title>28&#45;&gt;9</title>
<g id="a_edge82"><a xlink:title="include">
<path fill="none" stroke="#1414ce" d="M890.08,-215.88C858.94,-196.59 805.68,-165.16 757,-144 720.32,-128.05 677.23,-114.31 644.43,-104.82"/>
<polygon fill="#1414ce" stroke="#1414ce" points="645.17,-101.39 634.59,-102.01 643.25,-108.12 645.17,-101.39"/>
</a>
</g>
</g>
<!-- 28&#45;&gt;24 -->
<g id="edge85" class="edge">
<title>28&#45;&gt;24</title>
<g id="a_edge85"><a xlink:title="include">
<path fill="none" stroke="#1414ce" d="M938.75,-215.7C949.84,-206.88 963.47,-196.03 975.49,-186.47"/>
<polygon fill="#1414ce" stroke="#1414ce" points="977.85,-189.07 983.5,-180.1 973.49,-183.59 977.85,-189.07"/>
</a>
</g>
</g>
<!-- 28&#45;&gt;16 -->
<g id="edge83" class="edge">
<title>28&#45;&gt;16</title>
<g id="a_edge83"><a xlink:title="include">
<path fill="none" stroke="#1414ce" d="M873.86,-219.67C869.2,-218.37 864.51,-217.12 860,-216 778.68,-195.85 681.94,-178.19 630.14,-169.24"/>
<polygon fill="#1414ce" stroke="#1414ce" points="630.54,-165.75 620.09,-167.51 629.36,-172.65 630.54,-165.75"/>
</a>
</g>
</g>
<!-- 28&#45;&gt;11 -->
<g id="edge84" class="edge">
<title>28&#45;&gt;11</title>
<g id="a_edge84"><a xlink:title="include">
<path fill="none" stroke="#1414ce" d="M960.06,-221.74C1052.93,-197.45 1272.88,-139.93 1387.58,-109.94"/>
<polygon fill="#1414ce" stroke="#1414ce" points="1388.54,-113.3 1397.33,-107.39 1386.77,-106.53 1388.54,-113.3"/>
</a>
</g>
</g>
<!-- 15&#45;&gt;17 -->
<g id="edge87" class="edge">
<title>15&#45;&gt;17</title>
<g id="a_edge87"><a xlink:title="include">
<path fill="none" stroke="#1414ce" d="M521.75,-503.74C514.46,-465.07 496.14,-368.59 480,-288 478.31,-279.58 476.43,-270.41 474.7,-262.11"/>
<polygon fill="#1414ce" stroke="#1414ce" points="478.1,-261.25 472.63,-252.17 471.25,-262.68 478.1,-261.25"/>
</a>
</g>
</g>
<!-- 15&#45;&gt;16 -->
<g id="edge86" class="edge">
<title>15&#45;&gt;16</title>
<g id="a_edge86"><a xlink:title="include">
<path fill="none" stroke="#1414ce" d="M526.35,-503.85C530.89,-447.78 546.32,-270.45 564,-216 566.97,-206.87 571.52,-197.49 576.14,-189.21"/>
<polygon fill="#1414ce" stroke="#1414ce" points="579.27,-190.79 581.32,-180.4 573.24,-187.25 579.27,-190.79"/>
</a>
</g>
</g>
<!-- 15&#45;&gt;20 -->
<g id="edge88" class="edge">
<title>15&#45;&gt;20</title>
<g id="a_edge88"><a xlink:title="include">
<path fill="none" stroke="#1414ce" d="M552.07,-516.93C629.77,-505.26 853.97,-471.58 948.34,-457.41"/>
<polygon fill="#1414ce" stroke="#1414ce" points="949.02,-460.85 958.39,-455.9 947.98,-453.92 949.02,-460.85"/>
</a>
</g>
</g>
</g>
</svg>
