<?xml version="1.0" encoding="UTF-8" standalone="no"?>
<!DOCTYPE svg PUBLIC "-//W3C//DTD SVG 1.1//EN"
 "http://www.w3.org/Graphics/SVG/1.1/DTD/svg11.dtd">
<!-- Generated by graphviz version 2.43.0 (0)
 -->
<!-- Title: %3 Pages: 1 -->
<svg width="1377pt" height="476pt"
 viewBox="0.00 0.00 1377.00 476.00" xmlns="http://www.w3.org/2000/svg" xmlns:xlink="http://www.w3.org/1999/xlink">
<g id="graph0" class="graph" transform="scale(1 1) rotate(0) translate(4 472)">
<title>%3</title>
<polygon fill="transparent" stroke="transparent" points="-4,4 -4,-472 1373,-472 1373,4 -4,4"/>
<!-- 23 -->
<g id="node1" class="node">
<title>23</title>
<g id="a_node1"><a xlink:title="SpinLock">
<polygon fill="#ffffff" stroke="black" points="1202.5,-324 1120.5,-324 1120.5,-288 1202.5,-288 1202.5,-324"/>
<text text-anchor="middle" x="1161.5" y="-302.3" font-family="Times,serif" font-size="14.00">SpinLock</text>
</a>
</g>
</g>
<!-- 4 -->
<g id="node2" class="node">
<title>4</title>
<g id="a_node2"><a xlink:title="ResourceType">
<polygon fill="#ffffff" stroke="black" points="379,-180 262,-180 262,-144 379,-144 379,-180"/>
<text text-anchor="middle" x="320.5" y="-158.3" font-family="Times,serif" font-size="14.00">ResourceType</text>
</a>
</g>
</g>
<!-- 6 -->
<g id="node4" class="node">
<title>6</title>
<g id="a_node4"><a xlink:title="ListHead">
<polygon fill="#ffffff" stroke="black" points="396,-36 315,-36 315,0 396,0 396,-36"/>
<text text-anchor="middle" x="355.5" y="-14.3" font-family="Times,serif" font-size="14.00">ListHead</text>
</a>
</g>
</g>
<!-- 4&#45;&gt;6 -->
<g id="edge3" class="edge">
<title>4&#45;&gt;6</title>
<g id="a_edge3"><a xlink:title="usage">
<path fill="none" stroke="#1414ce" d="M324.39,-143.91C328.51,-125.96 335.26,-96.95 341.5,-72 343.61,-63.56 346,-54.39 348.2,-46.09"/>
<polygon fill="#1414ce" stroke="#1414ce" points="351.65,-46.72 350.84,-36.16 344.89,-44.92 351.65,-46.72"/>
</a>
</g>
</g>
<!-- 7 -->
<g id="node7" class="node">
<title>7</title>
<g id="a_node7"><a xlink:title="GlobalContext">
<polygon fill="#ffffff" stroke="black" points="562,-396 443,-396 443,-360 562,-360 562,-396"/>
<text text-anchor="middle" x="502.5" y="-374.3" font-family="Times,serif" font-size="14.00">GlobalContext</text>
</a>
</g>
</g>
<!-- 4&#45;&gt;7 -->
<g id="edge2" class="edge">
<title>4&#45;&gt;7</title>
<g id="a_edge2"><a xlink:title="usage">
<path fill="none" stroke="#1414ce" d="M324.2,-180.24C331.89,-212.33 352.4,-281.78 393.5,-324 406.5,-337.36 423.56,-347.82 440.31,-355.79"/>
<polygon fill="#1414ce" stroke="#1414ce" points="439,-359.03 449.55,-359.96 441.88,-352.65 439,-359.03"/>
</a>
</g>
</g>
<!-- 5 -->
<g id="node22" class="node">
<title>5</title>
<g id="a_node22"><a xlink:title="SyncList">
<polygon fill="#ffffff" stroke="black" points="565.5,-108 487.5,-108 487.5,-72 565.5,-72 565.5,-108"/>
<text text-anchor="middle" x="526.5" y="-86.3" font-family="Times,serif" font-size="14.00">SyncList</text>
</a>
</g>
</g>
<!-- 4&#45;&gt;5 -->
<g id="edge1" class="edge">
<title>4&#45;&gt;5</title>
<g id="a_edge1"><a xlink:title="usage">
<path fill="none" stroke="#1414ce" d="M372.16,-143.91C400.83,-134.37 437.34,-122.14 477.93,-108.17"/>
<polygon fill="#1414ce" stroke="#1414ce" points="479.17,-111.45 487.49,-104.88 476.89,-104.83 479.17,-111.45"/>
</a>
</g>
</g>
<!-- 18 -->
<g id="node3" class="node">
<title>18</title>
<g id="a_node3"><a xlink:title="Module">
<polygon fill="#ffffff" stroke="black" points="646.5,-324 576.5,-324 576.5,-288 646.5,-288 646.5,-324"/>
<text text-anchor="middle" x="611.5" y="-302.3" font-family="Times,serif" font-size="14.00">Module</text>
</a>
</g>
</g>
<!-- 18&#45;&gt;6 -->
<g id="edge6" class="edge">
<title>18&#45;&gt;6</title>
<g id="a_edge6"><a xlink:title="usage">
<path fill="none" stroke="#1414ce" d="M597.29,-287.53C590.2,-277.72 582.34,-264.88 578.5,-252 555.65,-175.31 624.68,-134.33 574.5,-72 553.67,-46.13 464.12,-31.26 406.18,-24.18"/>
<polygon fill="#1414ce" stroke="#1414ce" points="406.45,-20.69 396.11,-22.99 405.63,-27.64 406.45,-20.69"/>
</a>
</g>
</g>
<!-- 20 -->
<g id="node11" class="node">
<title>20</title>
<g id="a_node11"><a xlink:title="LiteralEntry">
<polygon fill="#ffffff" stroke="black" points="691.5,-252 587.5,-252 587.5,-216 691.5,-216 691.5,-252"/>
<text text-anchor="middle" x="639.5" y="-230.3" font-family="Times,serif" font-size="14.00">LiteralEntry</text>
</a>
</g>
</g>
<!-- 18&#45;&gt;20 -->
<g id="edge5" class="edge">
<title>18&#45;&gt;20</title>
<g id="a_edge5"><a xlink:title="usage">
<path fill="none" stroke="#1414ce" d="M618.42,-287.7C621.57,-279.81 625.38,-270.3 628.88,-261.55"/>
<polygon fill="#1414ce" stroke="#1414ce" points="632.19,-262.69 632.66,-252.1 625.69,-260.09 632.19,-262.69"/>
</a>
</g>
</g>
<!-- 19 -->
<g id="node21" class="node">
<title>19</title>
<g id="a_node21"><a xlink:title="ExportedFunction">
<polygon fill="#ffffff" stroke="black" points="855.5,-252 709.5,-252 709.5,-216 855.5,-216 855.5,-252"/>
<text text-anchor="middle" x="782.5" y="-230.3" font-family="Times,serif" font-size="14.00">ExportedFunction</text>
</a>
</g>
</g>
<!-- 18&#45;&gt;19 -->
<g id="edge4" class="edge">
<title>18&#45;&gt;19</title>
<g id="a_edge4"><a xlink:title="usage">
<path fill="none" stroke="#1414ce" d="M646.52,-290.67C670.99,-280.65 704.06,-267.11 731.46,-255.89"/>
<polygon fill="#1414ce" stroke="#1414ce" points="732.97,-259.06 740.89,-252.03 730.31,-252.58 732.97,-259.06"/>
</a>
</g>
</g>
<!-- 6&#45;&gt;6 -->
<g id="edge7" class="edge">
<title>6&#45;&gt;6</title>
<g id="a_edge7"><a xlink:title="usage">
<path fill="none" stroke="#1414ce" d="M396.23,-31.31C406.4,-30.38 414,-25.95 414,-18 414,-12.91 410.88,-9.26 405.97,-7.05"/>
<polygon fill="#1414ce" stroke="#1414ce" points="406.78,-3.64 396.23,-4.69 405.13,-10.45 406.78,-3.64"/>
</a>
</g>
</g>
<!-- 14 -->
<g id="node5" class="node">
<title>14</title>
<g id="a_node5"><a xlink:title="HeapFragment">
<polygon fill="#ffffff" stroke="black" points="1203,-36 1078,-36 1078,0 1203,0 1203,-36"/>
<text text-anchor="middle" x="1140.5" y="-14.3" font-family="Times,serif" font-size="14.00">HeapFragment</text>
</a>
</g>
</g>
<!-- 14&#45;&gt;14 -->
<g id="edge8" class="edge">
<title>14&#45;&gt;14</title>
<g id="a_edge8"><a xlink:title="usage">
<path fill="none" stroke="#1414ce" d="M1203.28,-30.55C1213.76,-28.79 1221,-24.61 1221,-18 1221,-13.77 1218.03,-10.53 1213.14,-8.29"/>
<polygon fill="#1414ce" stroke="#1414ce" points="1213.86,-4.85 1203.28,-5.45 1211.92,-11.58 1213.86,-4.85"/>
</a>
</g>
</g>
<!-- 16 -->
<g id="node6" class="node">
<title>16</title>
<g id="a_node6"><a xlink:title="RefcBinaryQueueItem">
<polygon fill="#ffffff" stroke="black" points="323.5,-324 149.5,-324 149.5,-288 323.5,-288 323.5,-324"/>
<text text-anchor="middle" x="236.5" y="-302.3" font-family="Times,serif" font-size="14.00">RefcBinaryQueueItem</text>
</a>
</g>
</g>
<!-- 16&#45;&gt;16 -->
<g id="edge10" class="edge">
<title>16&#45;&gt;16</title>
<g id="a_edge10"><a xlink:title="usage">
<path fill="none" stroke="#1414ce" d="M323.8,-317.68C334.49,-315.59 341.5,-311.7 341.5,-306 341.5,-302.35 338.62,-299.44 333.75,-297.27"/>
<polygon fill="#1414ce" stroke="#1414ce" points="334.38,-293.81 323.8,-294.32 332.39,-300.52 334.38,-293.81"/>
</a>
</g>
</g>
<!-- 17 -->
<g id="node16" class="node">
<title>17</title>
<g id="a_node16"><a xlink:title="RefcBinary">
<polygon fill="#ffffff" stroke="black" points="324,-252 229,-252 229,-216 324,-216 324,-252"/>
<text text-anchor="middle" x="276.5" y="-230.3" font-family="Times,serif" font-size="14.00">RefcBinary</text>
</a>
</g>
</g>
<!-- 16&#45;&gt;17 -->
<g id="edge9" class="edge">
<title>16&#45;&gt;17</title>
<g id="a_edge9"><a xlink:title="usage">
<path fill="none" stroke="#1414ce" d="M246.39,-287.7C250.99,-279.64 256.56,-269.89 261.65,-260.98"/>
<polygon fill="#1414ce" stroke="#1414ce" points="264.8,-262.52 266.73,-252.1 258.73,-259.05 264.8,-262.52"/>
</a>
</g>
</g>
<!-- 7&#45;&gt;23 -->
<g id="edge19" class="edge">
<title>7&#45;&gt;23</title>
<g id="a_edge19"><a xlink:title="usage">
<path fill="none" stroke="#1414ce" d="M562.24,-375.95C671.34,-373.1 909.72,-362.59 1106.5,-324 1107.77,-323.75 1109.05,-323.48 1110.34,-323.2"/>
<polygon fill="#1414ce" stroke="#1414ce" points="1111.42,-326.54 1120.3,-320.76 1109.75,-319.74 1111.42,-326.54"/>
</a>
</g>
</g>
<!-- 7&#45;&gt;18 -->
<g id="edge16" class="edge">
<title>7&#45;&gt;18</title>
<g id="a_edge16"><a xlink:title="usage">
<path fill="none" stroke="#1414ce" d="M529.16,-359.88C543.28,-350.81 560.81,-339.55 576.06,-329.76"/>
<polygon fill="#1414ce" stroke="#1414ce" points="578.21,-332.54 584.73,-324.19 574.43,-326.65 578.21,-332.54"/>
</a>
</g>
</g>
<!-- 7&#45;&gt;6 -->
<g id="edge20" class="edge">
<title>7&#45;&gt;6</title>
<g id="a_edge20"><a xlink:title="usage">
<path fill="none" stroke="#1414ce" d="M492.61,-359.98C468.82,-318.36 407.91,-207.53 374.5,-108 367.68,-87.69 362.75,-63.92 359.63,-46.06"/>
<polygon fill="#1414ce" stroke="#1414ce" points="363.06,-45.32 357.96,-36.04 356.15,-46.48 363.06,-45.32"/>
</a>
</g>
</g>
<!-- 7&#45;&gt;16 -->
<g id="edge14" class="edge">
<title>7&#45;&gt;16</title>
<g id="a_edge14"><a xlink:title="usage">
<path fill="none" stroke="#1414ce" d="M442.8,-361.29C403.81,-351.03 352.58,-337.55 310.93,-326.59"/>
<polygon fill="#1414ce" stroke="#1414ce" points="311.67,-323.16 301.11,-324 309.89,-329.93 311.67,-323.16"/>
</a>
</g>
</g>
<!-- 8 -->
<g id="node8" class="node">
<title>8</title>
<g id="a_node8"><a xlink:title="Ets">
<polygon fill="#ffffff" stroke="black" points="565.5,-180 511.5,-180 511.5,-144 565.5,-144 565.5,-180"/>
<text text-anchor="middle" x="538.5" y="-158.3" font-family="Times,serif" font-size="14.00">Ets</text>
</a>
</g>
</g>
<!-- 7&#45;&gt;8 -->
<g id="edge11" class="edge">
<title>7&#45;&gt;8</title>
<g id="a_edge11"><a xlink:title="usage">
<path fill="none" stroke="#1414ce" d="M505.39,-359.85C511.63,-322.75 526.42,-234.81 533.94,-190.1"/>
<polygon fill="#1414ce" stroke="#1414ce" points="537.39,-190.67 535.6,-180.23 530.49,-189.51 537.39,-190.67"/>
</a>
</g>
</g>
<!-- 22 -->
<g id="node10" class="node">
<title>22</title>
<g id="a_node10"><a xlink:title="TimerList">
<polygon fill="#ffffff" stroke="black" points="469.5,-108 383.5,-108 383.5,-72 469.5,-72 469.5,-108"/>
<text text-anchor="middle" x="426.5" y="-86.3" font-family="Times,serif" font-size="14.00">TimerList</text>
</a>
</g>
</g>
<!-- 7&#45;&gt;22 -->
<g id="edge18" class="edge">
<title>7&#45;&gt;22</title>
<g id="a_edge18"><a xlink:title="usage">
<path fill="none" stroke="#1414ce" d="M497.97,-359.97C485.28,-312.19 449.25,-176.62 433.75,-118.27"/>
<polygon fill="#1414ce" stroke="#1414ce" points="437.05,-117.07 431.1,-108.31 430.28,-118.87 437.05,-117.07"/>
</a>
</g>
</g>
<!-- 9 -->
<g id="node14" class="node">
<title>9</title>
<g id="a_node14"><a xlink:title="MessageQueueItem">
<polygon fill="#ffffff" stroke="black" points="898.5,-324 740.5,-324 740.5,-288 898.5,-288 898.5,-324"/>
<text text-anchor="middle" x="819.5" y="-302.3" font-family="Times,serif" font-size="14.00">MessageQueueItem</text>
</a>
</g>
</g>
<!-- 7&#45;&gt;9 -->
<g id="edge12" class="edge">
<title>7&#45;&gt;9</title>
<g id="a_edge12"><a xlink:title="usage">
<path fill="none" stroke="#1414ce" d="M562.13,-363.83C610.16,-353.23 678.37,-338.16 732.5,-326.21"/>
<polygon fill="#1414ce" stroke="#1414ce" points="733.43,-329.59 742.44,-324.02 731.92,-322.76 733.43,-329.59"/>
</a>
</g>
</g>
<!-- 21 -->
<g id="node15" class="node">
<title>21</title>
<g id="a_node15"><a xlink:title="AtomsHashTable">
<polygon fill="#ffffff" stroke="black" points="1369,-252 1232,-252 1232,-216 1369,-216 1369,-252"/>
<text text-anchor="middle" x="1300.5" y="-230.3" font-family="Times,serif" font-size="14.00">AtomsHashTable</text>
</a>
</g>
</g>
<!-- 7&#45;&gt;21 -->
<g id="edge17" class="edge">
<title>7&#45;&gt;21</title>
<g id="a_edge17"><a xlink:title="usage">
<path fill="none" stroke="#1414ce" d="M562.36,-376.35C689.77,-374.19 983.5,-364.78 1073.5,-324 1094.69,-314.4 1091.26,-299.48 1111.5,-288 1130.68,-277.12 1178.77,-263.7 1221.64,-253.08"/>
<polygon fill="#1414ce" stroke="#1414ce" points="1222.67,-256.43 1231.55,-250.65 1221,-249.63 1222.67,-256.43"/>
</a>
</g>
</g>
<!-- 11 -->
<g id="node20" class="node">
<title>11</title>
<g id="a_node20"><a xlink:title="AtomTable">
<polygon fill="#ffffff" stroke="black" points="1064.5,-324 972.5,-324 972.5,-288 1064.5,-288 1064.5,-324"/>
<text text-anchor="middle" x="1018.5" y="-302.3" font-family="Times,serif" font-size="14.00">AtomTable</text>
</a>
</g>
</g>
<!-- 7&#45;&gt;11 -->
<g id="edge13" class="edge">
<title>7&#45;&gt;11</title>
<g id="a_edge13"><a xlink:title="usage">
<path fill="none" stroke="#1414ce" d="M562.19,-370.59C644.24,-361.54 796.39,-343.87 925.5,-324 937.41,-322.17 950.14,-319.99 962.24,-317.81"/>
<polygon fill="#1414ce" stroke="#1414ce" points="963.02,-321.22 972.23,-315.99 961.76,-314.34 963.02,-321.22"/>
</a>
</g>
</g>
<!-- 7&#45;&gt;5 -->
<g id="edge15" class="edge">
<title>7&#45;&gt;5</title>
<g id="a_edge15"><a xlink:title="usage">
<path fill="none" stroke="#1414ce" d="M500.05,-359.78C495.03,-320.81 485.43,-223.08 502.5,-144 504.46,-134.92 508.11,-125.52 511.99,-117.2"/>
<polygon fill="#1414ce" stroke="#1414ce" points="515.23,-118.53 516.55,-108.02 508.96,-115.42 515.23,-118.53"/>
</a>
</g>
</g>
<!-- 8&#45;&gt;5 -->
<g id="edge21" class="edge">
<title>8&#45;&gt;5</title>
<g id="a_edge21"><a xlink:title="usage">
<path fill="none" stroke="#1414ce" d="M535.53,-143.7C534.21,-135.98 532.62,-126.71 531.15,-118.11"/>
<polygon fill="#1414ce" stroke="#1414ce" points="534.57,-117.37 529.43,-108.1 527.67,-118.55 534.57,-117.37"/>
</a>
</g>
</g>
<!-- 15 -->
<g id="node9" class="node">
<title>15</title>
<g id="a_node9"><a xlink:title="HNodeGroup">
<polygon fill="#ffffff" stroke="black" points="1195.5,-252 1085.5,-252 1085.5,-216 1195.5,-216 1195.5,-252"/>
<text text-anchor="middle" x="1140.5" y="-230.3" font-family="Times,serif" font-size="14.00">HNodeGroup</text>
</a>
</g>
</g>
<!-- 15&#45;&gt;15 -->
<g id="edge23" class="edge">
<title>15&#45;&gt;15</title>
<g id="a_edge23"><a xlink:title="usage">
<path fill="none" stroke="#1414ce" d="M1195.57,-246.85C1206.07,-245.32 1213.5,-241.03 1213.5,-234 1213.5,-229.5 1210.45,-226.12 1205.5,-223.87"/>
<polygon fill="#1414ce" stroke="#1414ce" points="1206.14,-220.42 1195.57,-221.15 1204.29,-227.17 1206.14,-220.42"/>
</a>
</g>
</g>
<!-- 12 -->
<g id="node23" class="node">
<title>12</title>
<g id="a_node23"><a xlink:title="HNode">
<polygon fill="#ffffff" stroke="black" points="1173.5,-180 1107.5,-180 1107.5,-144 1173.5,-144 1173.5,-180"/>
<text text-anchor="middle" x="1140.5" y="-158.3" font-family="Times,serif" font-size="14.00">HNode</text>
</a>
</g>
</g>
<!-- 15&#45;&gt;12 -->
<g id="edge22" class="edge">
<title>15&#45;&gt;12</title>
<g id="a_edge22"><a xlink:title="usage">
<path fill="none" stroke="#1414ce" d="M1140.5,-215.7C1140.5,-207.98 1140.5,-198.71 1140.5,-190.11"/>
<polygon fill="#1414ce" stroke="#1414ce" points="1144,-190.1 1140.5,-180.1 1137,-190.1 1144,-190.1"/>
</a>
</g>
</g>
<!-- 22&#45;&gt;6 -->
<g id="edge24" class="edge">
<title>22&#45;&gt;6</title>
<g id="a_edge24"><a xlink:title="usage">
<path fill="none" stroke="#1414ce" d="M408.95,-71.7C400.27,-63.14 389.64,-52.66 380.15,-43.3"/>
<polygon fill="#1414ce" stroke="#1414ce" points="382.43,-40.63 372.85,-36.1 377.51,-45.62 382.43,-40.63"/>
</a>
</g>
</g>
<!-- 10 -->
<g id="node12" class="node">
<title>10</title>
<g id="a_node12"><a xlink:title="MailboxMessage">
<polygon fill="#ffffff" stroke="black" points="1011,-252 874,-252 874,-216 1011,-216 1011,-252"/>
<text text-anchor="middle" x="942.5" y="-230.3" font-family="Times,serif" font-size="14.00">MailboxMessage</text>
</a>
</g>
</g>
<!-- 10&#45;&gt;10 -->
<g id="edge25" class="edge">
<title>10&#45;&gt;10</title>
<g id="a_edge25"><a xlink:title="usage">
<path fill="none" stroke="#1414ce" d="M1011.03,-246.37C1021.71,-244.52 1029,-240.4 1029,-234 1029,-229.8 1025.86,-226.58 1020.68,-224.34"/>
<polygon fill="#1414ce" stroke="#1414ce" points="1021.6,-220.96 1011.03,-221.63 1019.71,-227.7 1021.6,-220.96"/>
</a>
</g>
</g>
<!-- 13 -->
<g id="node13" class="node">
<title>13</title>
<g id="a_node13"><a xlink:title="Heap">
<polygon fill="#ffffff" stroke="black" points="1167.5,-108 1113.5,-108 1113.5,-72 1167.5,-72 1167.5,-108"/>
<text text-anchor="middle" x="1140.5" y="-86.3" font-family="Times,serif" font-size="14.00">Heap</text>
</a>
</g>
</g>
<!-- 13&#45;&gt;14 -->
<g id="edge26" class="edge">
<title>13&#45;&gt;14</title>
<g id="a_edge26"><a xlink:title="usage">
<path fill="none" stroke="#1414ce" d="M1140.5,-71.7C1140.5,-63.98 1140.5,-54.71 1140.5,-46.11"/>
<polygon fill="#1414ce" stroke="#1414ce" points="1144,-46.1 1140.5,-36.1 1137,-46.1 1144,-46.1"/>
</a>
</g>
</g>
<!-- 9&#45;&gt;10 -->
<g id="edge27" class="edge">
<title>9&#45;&gt;10</title>
<g id="a_edge27"><a xlink:title="usage">
<path fill="none" stroke="#1414ce" d="M849.59,-287.88C865.82,-278.64 886.04,-267.13 903.47,-257.21"/>
<polygon fill="#1414ce" stroke="#1414ce" points="905.34,-260.18 912.3,-252.19 901.87,-254.09 905.34,-260.18"/>
</a>
</g>
</g>
<!-- 9&#45;&gt;9 -->
<g id="edge28" class="edge">
<title>9&#45;&gt;9</title>
<g id="a_edge28"><a xlink:title="usage">
<path fill="none" stroke="#1414ce" d="M898.66,-317.98C909.37,-315.97 916.5,-311.98 916.5,-306 916.5,-302.08 913.43,-299.01 908.29,-296.8"/>
<polygon fill="#1414ce" stroke="#1414ce" points="909.24,-293.43 898.66,-294.02 907.3,-300.15 909.24,-293.43"/>
</a>
</g>
</g>
<!-- 21&#45;&gt;12 -->
<g id="edge29" class="edge">
<title>21&#45;&gt;12</title>
<g id="a_edge29"><a xlink:title="usage">
<path fill="none" stroke="#1414ce" d="M1261.36,-215.88C1237.59,-205.48 1207.25,-192.2 1182.91,-181.55"/>
<polygon fill="#1414ce" stroke="#1414ce" points="1184.13,-178.27 1173.57,-177.47 1181.33,-184.68 1184.13,-178.27"/>
</a>
</g>
</g>
<!-- 17&#45;&gt;4 -->
<g id="edge30" class="edge">
<title>17&#45;&gt;4</title>
<g id="a_edge30"><a xlink:title="usage">
<path fill="none" stroke="#1414ce" d="M287.38,-215.7C292.49,-207.56 298.7,-197.69 304.34,-188.7"/>
<polygon fill="#1414ce" stroke="#1414ce" points="307.39,-190.43 309.75,-180.1 301.46,-186.71 307.39,-190.43"/>
</a>
</g>
</g>
<!-- 17&#45;&gt;6 -->
<g id="edge31" class="edge">
<title>17&#45;&gt;6</title>
<g id="a_edge31"><a xlink:title="usage">
<path fill="none" stroke="#1414ce" d="M265.63,-215.68C255.68,-197.56 243.74,-168.4 252.5,-144 267.16,-103.16 301.57,-66.14 326.59,-43.17"/>
<polygon fill="#1414ce" stroke="#1414ce" points="329.23,-45.5 334.35,-36.22 324.56,-40.29 329.23,-45.5"/>
</a>
</g>
</g>
<!-- 3 -->
<g id="node17" class="node">
<title>3</title>
<g id="a_node17"><a xlink:title="ErlNifMonitor">
<polygon fill="#ffffff" stroke="black" points="211,-252 94,-252 94,-216 211,-216 211,-252"/>
<text text-anchor="middle" x="152.5" y="-230.3" font-family="Times,serif" font-size="14.00">ErlNifMonitor</text>
</a>
</g>
</g>
<!-- 3&#45;&gt;4 -->
<g id="edge32" class="edge">
<title>3&#45;&gt;4</title>
<g id="a_edge32"><a xlink:title="usage">
<path fill="none" stroke="#1414ce" d="M193.6,-215.88C216.67,-206.26 245.64,-194.19 270.07,-184.01"/>
<polygon fill="#1414ce" stroke="#1414ce" points="271.65,-187.15 279.54,-180.07 268.96,-180.68 271.65,-187.15"/>
</a>
</g>
</g>
<!-- 1 -->
<g id="node18" class="node">
<title>1</title>
<g id="a_node18"><a xlink:title="LWIPEvent">
<polygon fill="#bfbfbf" stroke="black" points="341.5,-468 245.5,-468 245.5,-432 341.5,-432 341.5,-468"/>
<text text-anchor="middle" x="293.5" y="-446.3" font-family="Times,serif" font-size="14.00">LWIPEvent</text>
</a>
</g>
</g>
<!-- 1&#45;&gt;7 -->
<g id="edge34" class="edge">
<title>1&#45;&gt;7</title>
<g id="a_edge34"><a xlink:title="usage">
<path fill="none" stroke="#1414ce" d="M341.71,-432.85C371.54,-422.86 410.08,-409.95 441.96,-399.28"/>
<polygon fill="#1414ce" stroke="#1414ce" points="443.24,-402.54 451.62,-396.04 441.02,-395.9 443.24,-402.54"/>
</a>
</g>
</g>
<!-- 2 -->
<g id="node19" class="node">
<title>2</title>
<g id="a_node19"><a xlink:title="SocketResource">
<polygon fill="#ffffff" stroke="black" points="131,-324 0,-324 0,-288 131,-288 131,-324"/>
<text text-anchor="middle" x="65.5" y="-302.3" font-family="Times,serif" font-size="14.00">SocketResource</text>
</a>
</g>
</g>
<!-- 1&#45;&gt;2 -->
<g id="edge33" class="edge">
<title>1&#45;&gt;2</title>
<g id="a_edge33"><a xlink:title="usage">
<path fill="none" stroke="#1414ce" d="M266,-431.87C224.91,-406.28 147.47,-358.05 101.79,-329.6"/>
<polygon fill="#1414ce" stroke="#1414ce" points="103.44,-326.5 93.1,-324.19 99.74,-332.45 103.44,-326.5"/>
</a>
</g>
</g>
<!-- 2&#45;&gt;6 -->
<g id="edge36" class="edge">
<title>2&#45;&gt;6</title>
<g id="a_edge36"><a xlink:title="usage">
<path fill="none" stroke="#1414ce" d="M65.75,-287.99C66.76,-269.07 70.63,-238.26 84.5,-216 137.9,-130.3 243.48,-70.25 305.93,-40.46"/>
<polygon fill="#1414ce" stroke="#1414ce" points="307.63,-43.53 315.19,-36.11 304.65,-37.19 307.63,-43.53"/>
</a>
</g>
</g>
<!-- 2&#45;&gt;3 -->
<g id="edge35" class="edge">
<title>2&#45;&gt;3</title>
<g id="a_edge35"><a xlink:title="usage">
<path fill="none" stroke="#1414ce" d="M87.01,-287.7C97.96,-278.88 111.45,-268.03 123.32,-258.47"/>
<polygon fill="#1414ce" stroke="#1414ce" points="125.64,-261.1 131.24,-252.1 121.26,-255.65 125.64,-261.1"/>
</a>
</g>
</g>
<!-- 11&#45;&gt;15 -->
<g id="edge38" class="edge">
<title>11&#45;&gt;15</title>
<g id="a_edge38"><a xlink:title="usage">
<path fill="none" stroke="#1414ce" d="M1048.34,-287.88C1064.44,-278.64 1084.5,-267.13 1101.79,-257.21"/>
<polygon fill="#1414ce" stroke="#1414ce" points="1103.61,-260.2 1110.54,-252.19 1100.13,-254.13 1103.61,-260.2"/>
</a>
</g>
</g>
<!-- 11&#45;&gt;12 -->
<g id="edge37" class="edge">
<title>11&#45;&gt;12</title>
<g id="a_edge37"><a xlink:title="usage">
<path fill="none" stroke="#1414ce" d="M1027.6,-287.87C1038,-269.12 1056.24,-238.71 1076.5,-216 1085.99,-205.36 1097.69,-195.04 1108.48,-186.37"/>
<polygon fill="#1414ce" stroke="#1414ce" points="1110.78,-189.01 1116.5,-180.09 1106.47,-183.5 1110.78,-189.01"/>
</a>
</g>
</g>
<!-- 5&#45;&gt;6 -->
<g id="edge39" class="edge">
<title>5&#45;&gt;6</title>
<g id="a_edge39"><a xlink:title="usage">
<path fill="none" stroke="#1414ce" d="M487.27,-72.94C462.94,-62.98 431.47,-50.1 405.38,-39.42"/>
<polygon fill="#1414ce" stroke="#1414ce" points="406.61,-36.14 396.03,-35.59 403.96,-42.62 406.61,-36.14"/>
</a>
</g>
</g>
<!-- 12&#45;&gt;13 -->
<g id="edge41" class="edge">
<title>12&#45;&gt;13</title>
<g id="a_edge41"><a xlink:title="usage">
<path fill="none" stroke="#1414ce" d="M1140.5,-143.7C1140.5,-135.98 1140.5,-126.71 1140.5,-118.11"/>
<polygon fill="#1414ce" stroke="#1414ce" points="1144,-118.1 1140.5,-108.1 1137,-118.1 1144,-118.1"/>
</a>
</g>
</g>
<!-- 12&#45;&gt;12 -->
<g id="edge40" class="edge">
<title>12&#45;&gt;12</title>
<g id="a_edge40"><a xlink:title="usage">
<path fill="none" stroke="#1414ce" d="M1173.85,-175.47C1183.78,-175.07 1191.5,-170.58 1191.5,-162 1191.5,-156.64 1188.48,-152.87 1183.8,-150.71"/>
<polygon fill="#1414ce" stroke="#1414ce" points="1184.37,-147.25 1173.85,-148.53 1182.87,-154.09 1184.37,-147.25"/>
</a>
</g>
</g>
</g>
</svg>
