<?xml version="1.0" encoding="UTF-8" standalone="no"?>
<!DOCTYPE svg PUBLIC "-//W3C//DTD SVG 1.1//EN"
 "http://www.w3.org/Graphics/SVG/1.1/DTD/svg11.dtd">
<!-- Generated by graphviz version 2.43.0 (0)
 -->
<!-- Title: %3 Pages: 1 -->
<svg width="394pt" height="116pt"
 viewBox="0.00 0.00 393.50 116.00" xmlns="http://www.w3.org/2000/svg" xmlns:xlink="http://www.w3.org/1999/xlink">
<g id="graph0" class="graph" transform="scale(1 1) rotate(0) translate(4 112)">
<title>%3</title>
<polygon fill="transparent" stroke="transparent" points="-4,4 -4,-112 389.5,-112 389.5,4 -4,4"/>
<!-- 1 -->
<g id="node1" class="node">
<title>1</title>
<g id="a_node1"><a xlink:title="Module">
<polygon fill="#bfbfbf" stroke="black" points="204.5,-108 134.5,-108 134.5,-72 204.5,-72 204.5,-108"/>
<text text-anchor="middle" x="169.5" y="-86.3" font-family="Times,serif" font-size="14.00">Module</text>
</a>
</g>
</g>
<!-- 4 -->
<g id="node2" class="node">
<title>4</title>
<g id="a_node2"><a xlink:title="ListHead">
<polygon fill="#ffffff" stroke="black" points="81,-36 0,-36 0,0 81,0 81,-36"/>
<text text-anchor="middle" x="40.5" y="-14.3" font-family="Times,serif" font-size="14.00">ListHead</text>
</a>
</g>
</g>
<!-- 1&#45;&gt;4 -->
<g id="edge3" class="edge">
<title>1&#45;&gt;4</title>
<g id="a_edge3"><a xlink:title="usage">
<path fill="none" stroke="#1414ce" d="M137.94,-71.88C120.84,-62.6 99.52,-51.03 81.18,-41.08"/>
<polygon fill="#1414ce" stroke="#1414ce" points="82.64,-37.88 72.18,-36.19 79.3,-44.04 82.64,-37.88"/>
</a>
</g>
</g>
<!-- 3 -->
<g id="node3" class="node">
<title>3</title>
<g id="a_node3"><a xlink:title="LiteralEntry">
<polygon fill="#ffffff" stroke="black" points="221.5,-36 117.5,-36 117.5,0 221.5,0 221.5,-36"/>
<text text-anchor="middle" x="169.5" y="-14.3" font-family="Times,serif" font-size="14.00">LiteralEntry</text>
</a>
</g>
</g>
<!-- 1&#45;&gt;3 -->
<g id="edge2" class="edge">
<title>1&#45;&gt;3</title>
<g id="a_edge2"><a xlink:title="usage">
<path fill="none" stroke="#1414ce" d="M169.5,-71.7C169.5,-63.98 169.5,-54.71 169.5,-46.11"/>
<polygon fill="#1414ce" stroke="#1414ce" points="173,-46.1 169.5,-36.1 166,-46.1 173,-46.1"/>
</a>
</g>
</g>
<!-- 2 -->
<g id="node4" class="node">
<title>2</title>
<g id="a_node4"><a xlink:title="ExportedFunction">
<polygon fill="#ffffff" stroke="black" points="385.5,-36 239.5,-36 239.5,0 385.5,0 385.5,-36"/>
<text text-anchor="middle" x="312.5" y="-14.3" font-family="Times,serif" font-size="14.00">ExportedFunction</text>
</a>
</g>
</g>
<!-- 1&#45;&gt;2 -->
<g id="edge1" class="edge">
<title>1&#45;&gt;2</title>
<g id="a_edge1"><a xlink:title="usage">
<path fill="none" stroke="#1414ce" d="M204.48,-71.88C223.7,-62.47 247.73,-50.71 268.24,-40.67"/>
<polygon fill="#1414ce" stroke="#1414ce" points="269.94,-43.73 277.38,-36.19 266.86,-37.44 269.94,-43.73"/>
</a>
</g>
</g>
<!-- 4&#45;&gt;4 -->
<g id="edge4" class="edge">
<title>4&#45;&gt;4</title>
<g id="a_edge4"><a xlink:title="usage">
<path fill="none" stroke="#1414ce" d="M81.23,-31.31C91.4,-30.38 99,-25.95 99,-18 99,-12.91 95.88,-9.26 90.97,-7.05"/>
<polygon fill="#1414ce" stroke="#1414ce" points="91.78,-3.64 81.23,-4.69 90.13,-10.45 91.78,-3.64"/>
</a>
</g>
</g>
</g>
</svg>
