<?xml version="1.0" encoding="UTF-8" standalone="no"?>
<!DOCTYPE svg PUBLIC "-//W3C//DTD SVG 1.1//EN"
 "http://www.w3.org/Graphics/SVG/1.1/DTD/svg11.dtd">
<!-- Generated by graphviz version 2.43.0 (0)
 -->
<!-- Title: %3 Pages: 1 -->
<svg width="1393pt" height="548pt"
 viewBox="0.00 0.00 1393.26 548.00" xmlns="http://www.w3.org/2000/svg" xmlns:xlink="http://www.w3.org/1999/xlink">
<g id="graph0" class="graph" transform="scale(1 1) rotate(0) translate(4 544)">
<title>%3</title>
<polygon fill="transparent" stroke="transparent" points="-4,4 -4,-544 1389.26,-544 1389.26,4 -4,4"/>
<!-- 24 -->
<g id="node1" class="node">
<title>24</title>
<g id="a_node1"><a xlink:title="SpinLock">
<polygon fill="#ffffff" stroke="black" points="791.76,-324 709.76,-324 709.76,-288 791.76,-288 791.76,-324"/>
<text text-anchor="middle" x="750.76" y="-302.3" font-family="Times,serif" font-size="14.00">SpinLock</text>
</a>
</g>
</g>
<!-- 21 -->
<g id="node2" class="node">
<title>21</title>
<g id="a_node2"><a xlink:title="ResourceType">
<polygon fill="#ffffff" stroke="black" points="567.26,-180 450.26,-180 450.26,-144 567.26,-144 567.26,-180"/>
<text text-anchor="middle" x="508.76" y="-158.3" font-family="Times,serif" font-size="14.00">ResourceType</text>
</a>
</g>
</g>
<!-- 6 -->
<g id="node4" class="node">
<title>6</title>
<g id="a_node4"><a xlink:title="ListHead">
<polygon fill="#ffffff" stroke="black" points="614.26,-36 533.26,-36 533.26,0 614.26,0 614.26,-36"/>
<text text-anchor="middle" x="573.76" y="-14.3" font-family="Times,serif" font-size="14.00">ListHead</text>
</a>
</g>
</g>
<!-- 21&#45;&gt;6 -->
<g id="edge3" class="edge">
<title>21&#45;&gt;6</title>
<g id="a_edge3"><a xlink:title="usage">
<path fill="none" stroke="#1414ce" d="M516.61,-143.87C527.78,-119.46 548.39,-74.43 561.57,-45.64"/>
<polygon fill="#1414ce" stroke="#1414ce" points="564.92,-46.74 565.9,-36.19 558.55,-43.83 564.92,-46.74"/>
</a>
</g>
</g>
<!-- 12 -->
<g id="node7" class="node">
<title>12</title>
<g id="a_node7"><a xlink:title="GlobalContext">
<polygon fill="#ffffff" stroke="black" points="589.26,-396 470.26,-396 470.26,-360 589.26,-360 589.26,-396"/>
<text text-anchor="middle" x="529.76" y="-374.3" font-family="Times,serif" font-size="14.00">GlobalContext</text>
</a>
</g>
</g>
<!-- 21&#45;&gt;12 -->
<g id="edge2" class="edge">
<title>21&#45;&gt;12</title>
<g id="a_edge2"><a xlink:title="usage">
<path fill="none" stroke="#1414ce" d="M494.98,-180.15C472.47,-210.36 432.76,-274.55 457.76,-324 463.9,-336.14 474.28,-346.18 485.27,-354.14"/>
<polygon fill="#1414ce" stroke="#1414ce" points="483.48,-357.15 493.74,-359.81 487.38,-351.34 483.48,-357.15"/>
</a>
</g>
</g>
<!-- 14 -->
<g id="node23" class="node">
<title>14</title>
<g id="a_node23"><a xlink:title="SyncList">
<polygon fill="#ffffff" stroke="black" points="489.76,-108 411.76,-108 411.76,-72 489.76,-72 489.76,-108"/>
<text text-anchor="middle" x="450.76" y="-86.3" font-family="Times,serif" font-size="14.00">SyncList</text>
</a>
</g>
</g>
<!-- 21&#45;&gt;14 -->
<g id="edge1" class="edge">
<title>21&#45;&gt;14</title>
<g id="a_edge1"><a xlink:title="usage">
<path fill="none" stroke="#1414ce" d="M494.43,-143.7C487.47,-135.3 478.99,-125.07 471.36,-115.86"/>
<polygon fill="#1414ce" stroke="#1414ce" points="474.01,-113.57 464.94,-108.1 468.62,-118.04 474.01,-113.57"/>
</a>
</g>
</g>
<!-- 7 -->
<g id="node3" class="node">
<title>7</title>
<g id="a_node3"><a xlink:title="Module">
<polygon fill="#ffffff" stroke="black" points="245.76,-324 175.76,-324 175.76,-288 245.76,-288 245.76,-324"/>
<text text-anchor="middle" x="210.76" y="-302.3" font-family="Times,serif" font-size="14.00">Module</text>
</a>
</g>
</g>
<!-- 7&#45;&gt;6 -->
<g id="edge6" class="edge">
<title>7&#45;&gt;6</title>
<g id="a_edge6"><a xlink:title="usage">
<path fill="none" stroke="#1414ce" d="M175.75,-303.33C107.82,-298.62 -31.95,-280.98 6.76,-216 75.57,-100.51 145.81,-116.23 272.76,-72 357.55,-42.46 461.76,-28.82 522.67,-22.96"/>
<polygon fill="#1414ce" stroke="#1414ce" points="523.16,-26.43 532.8,-22.02 522.51,-19.46 523.16,-26.43"/>
</a>
</g>
</g>
<!-- 9 -->
<g id="node11" class="node">
<title>9</title>
<g id="a_node11"><a xlink:title="LiteralEntry">
<polygon fill="#ffffff" stroke="black" points="119.76,-252 15.76,-252 15.76,-216 119.76,-216 119.76,-252"/>
<text text-anchor="middle" x="67.76" y="-230.3" font-family="Times,serif" font-size="14.00">LiteralEntry</text>
</a>
</g>
</g>
<!-- 7&#45;&gt;9 -->
<g id="edge5" class="edge">
<title>7&#45;&gt;9</title>
<g id="a_edge5"><a xlink:title="usage">
<path fill="none" stroke="#1414ce" d="M175.78,-287.88C156.57,-278.47 132.54,-266.71 112.03,-256.67"/>
<polygon fill="#1414ce" stroke="#1414ce" points="113.4,-253.44 102.88,-252.19 110.32,-259.73 113.4,-253.44"/>
</a>
</g>
</g>
<!-- 8 -->
<g id="node21" class="node">
<title>8</title>
<g id="a_node21"><a xlink:title="ExportedFunction">
<polygon fill="#ffffff" stroke="black" points="283.76,-252 137.76,-252 137.76,-216 283.76,-216 283.76,-252"/>
<text text-anchor="middle" x="210.76" y="-230.3" font-family="Times,serif" font-size="14.00">ExportedFunction</text>
</a>
</g>
</g>
<!-- 7&#45;&gt;8 -->
<g id="edge4" class="edge">
<title>7&#45;&gt;8</title>
<g id="a_edge4"><a xlink:title="usage">
<path fill="none" stroke="#1414ce" d="M210.76,-287.7C210.76,-279.98 210.76,-270.71 210.76,-262.11"/>
<polygon fill="#1414ce" stroke="#1414ce" points="214.27,-262.1 210.76,-252.1 207.27,-262.1 214.27,-262.1"/>
</a>
</g>
</g>
<!-- 6&#45;&gt;6 -->
<g id="edge7" class="edge">
<title>6&#45;&gt;6</title>
<g id="a_edge7"><a xlink:title="usage">
<path fill="none" stroke="#1414ce" d="M614.5,-31.31C624.67,-30.38 632.26,-25.95 632.26,-18 632.26,-12.91 629.15,-9.26 624.23,-7.05"/>
<polygon fill="#1414ce" stroke="#1414ce" points="625.04,-3.64 614.5,-4.69 623.39,-10.45 625.04,-3.64"/>
</a>
</g>
</g>
<!-- 11 -->
<g id="node5" class="node">
<title>11</title>
<g id="a_node5"><a xlink:title="HeapFragment">
<polygon fill="#ffffff" stroke="black" points="1317.26,-36 1192.26,-36 1192.26,0 1317.26,0 1317.26,-36"/>
<text text-anchor="middle" x="1254.76" y="-14.3" font-family="Times,serif" font-size="14.00">HeapFragment</text>
</a>
</g>
</g>
<!-- 11&#45;&gt;11 -->
<g id="edge8" class="edge">
<title>11&#45;&gt;11</title>
<g id="a_edge8"><a xlink:title="usage">
<path fill="none" stroke="#1414ce" d="M1317.54,-30.55C1328.03,-28.79 1335.26,-24.61 1335.26,-18 1335.26,-13.77 1332.3,-10.53 1327.4,-8.29"/>
<polygon fill="#1414ce" stroke="#1414ce" points="1328.12,-4.85 1317.54,-5.45 1326.19,-11.58 1328.12,-4.85"/>
</a>
</g>
</g>
<!-- 19 -->
<g id="node6" class="node">
<title>19</title>
<g id="a_node6"><a xlink:title="RefcBinaryQueueItem">
<polygon fill="#ffffff" stroke="black" points="673.76,-324 499.76,-324 499.76,-288 673.76,-288 673.76,-324"/>
<text text-anchor="middle" x="586.76" y="-302.3" font-family="Times,serif" font-size="14.00">RefcBinaryQueueItem</text>
</a>
</g>
</g>
<!-- 19&#45;&gt;19 -->
<g id="edge10" class="edge">
<title>19&#45;&gt;19</title>
<g id="a_edge10"><a xlink:title="usage">
<path fill="none" stroke="#1414ce" d="M674.07,-317.68C684.76,-315.59 691.76,-311.7 691.76,-306 691.76,-302.35 688.89,-299.44 684.01,-297.27"/>
<polygon fill="#1414ce" stroke="#1414ce" points="684.65,-293.81 674.07,-294.32 682.66,-300.52 684.65,-293.81"/>
</a>
</g>
</g>
<!-- 20 -->
<g id="node17" class="node">
<title>20</title>
<g id="a_node17"><a xlink:title="RefcBinary">
<polygon fill="#ffffff" stroke="black" points="634.26,-252 539.26,-252 539.26,-216 634.26,-216 634.26,-252"/>
<text text-anchor="middle" x="586.76" y="-230.3" font-family="Times,serif" font-size="14.00">RefcBinary</text>
</a>
</g>
</g>
<!-- 19&#45;&gt;20 -->
<g id="edge9" class="edge">
<title>19&#45;&gt;20</title>
<g id="a_edge9"><a xlink:title="usage">
<path fill="none" stroke="#1414ce" d="M586.76,-287.7C586.76,-279.98 586.76,-270.71 586.76,-262.11"/>
<polygon fill="#1414ce" stroke="#1414ce" points="590.27,-262.1 586.76,-252.1 583.27,-262.1 590.27,-262.1"/>
</a>
</g>
</g>
<!-- 12&#45;&gt;24 -->
<g id="edge19" class="edge">
<title>12&#45;&gt;24</title>
<g id="a_edge19"><a xlink:title="usage">
<path fill="none" stroke="#1414ce" d="M586.11,-359.96C617.23,-350.45 656.78,-338.2 700.02,-324.21"/>
<polygon fill="#1414ce" stroke="#1414ce" points="701.16,-327.51 709.59,-321.1 699,-320.86 701.16,-327.51"/>
</a>
</g>
</g>
<!-- 12&#45;&gt;7 -->
<g id="edge16" class="edge">
<title>12&#45;&gt;7</title>
<g id="a_edge16"><a xlink:title="usage">
<path fill="none" stroke="#1414ce" d="M470.14,-363.92C408,-350.28 312.03,-329.22 255.91,-316.91"/>
<polygon fill="#1414ce" stroke="#1414ce" points="256.43,-313.44 245.91,-314.71 254.93,-320.27 256.43,-313.44"/>
</a>
</g>
</g>
<!-- 12&#45;&gt;6 -->
<g id="edge20" class="edge">
<title>12&#45;&gt;6</title>
<g id="a_edge20"><a xlink:title="usage">
<path fill="none" stroke="#1414ce" d="M512.88,-359.99C504.47,-350.31 495.18,-337.46 490.76,-324 485.77,-308.8 486.75,-303.49 490.76,-288 499.95,-252.56 506.99,-243.83 530.76,-216 547.63,-196.26 565.39,-203.34 576.76,-180 597.76,-136.91 589.29,-79.33 581.4,-45.99"/>
<polygon fill="#1414ce" stroke="#1414ce" points="584.74,-44.91 578.9,-36.06 577.95,-46.62 584.74,-44.91"/>
</a>
</g>
</g>
<!-- 12&#45;&gt;19 -->
<g id="edge14" class="edge">
<title>12&#45;&gt;19</title>
<g id="a_edge14"><a xlink:title="usage">
<path fill="none" stroke="#1414ce" d="M543.85,-359.7C550.69,-351.3 559.02,-341.07 566.52,-331.86"/>
<polygon fill="#1414ce" stroke="#1414ce" points="569.24,-334.07 572.84,-324.1 563.81,-329.65 569.24,-334.07"/>
</a>
</g>
</g>
<!-- 13 -->
<g id="node8" class="node">
<title>13</title>
<g id="a_node8"><a xlink:title="Ets">
<polygon fill="#ffffff" stroke="black" points="431.76,-180 377.76,-180 377.76,-144 431.76,-144 431.76,-180"/>
<text text-anchor="middle" x="404.76" y="-158.3" font-family="Times,serif" font-size="14.00">Ets</text>
</a>
</g>
</g>
<!-- 12&#45;&gt;13 -->
<g id="edge11" class="edge">
<title>12&#45;&gt;13</title>
<g id="a_edge11"><a xlink:title="usage">
<path fill="none" stroke="#1414ce" d="M489.85,-359.92C474,-351.28 456.92,-339.34 445.76,-324 416.53,-283.79 408.08,-224.75 405.67,-190.46"/>
<polygon fill="#1414ce" stroke="#1414ce" points="409.15,-190.03 405.09,-180.25 402.17,-190.43 409.15,-190.03"/>
</a>
</g>
</g>
<!-- 23 -->
<g id="node10" class="node">
<title>23</title>
<g id="a_node10"><a xlink:title="TimerList">
<polygon fill="#ffffff" stroke="black" points="367.76,-108 281.76,-108 281.76,-72 367.76,-72 367.76,-108"/>
<text text-anchor="middle" x="324.76" y="-86.3" font-family="Times,serif" font-size="14.00">TimerList</text>
</a>
</g>
</g>
<!-- 12&#45;&gt;23 -->
<g id="edge18" class="edge">
<title>12&#45;&gt;23</title>
<g id="a_edge18"><a xlink:title="usage">
<path fill="none" stroke="#1414ce" d="M470.19,-366.76C442.89,-359.22 412.14,-346.23 391.76,-324 337.93,-265.28 327.08,-166.04 325.08,-118.28"/>
<polygon fill="#1414ce" stroke="#1414ce" points="328.57,-117.99 324.75,-108.1 321.57,-118.21 328.57,-117.99"/>
</a>
</g>
</g>
<!-- 15 -->
<g id="node15" class="node">
<title>15</title>
<g id="a_node15"><a xlink:title="MessageQueueItem">
<polygon fill="#ffffff" stroke="black" points="1115.76,-324 957.76,-324 957.76,-288 1115.76,-288 1115.76,-324"/>
<text text-anchor="middle" x="1036.76" y="-302.3" font-family="Times,serif" font-size="14.00">MessageQueueItem</text>
</a>
</g>
</g>
<!-- 12&#45;&gt;15 -->
<g id="edge12" class="edge">
<title>12&#45;&gt;15</title>
<g id="a_edge12"><a xlink:title="usage">
<path fill="none" stroke="#1414ce" d="M589.55,-370.36C670.16,-361.18 818.1,-343.51 943.76,-324 945.04,-323.8 946.33,-323.6 947.62,-323.39"/>
<polygon fill="#1414ce" stroke="#1414ce" points="948.36,-326.82 957.67,-321.76 947.23,-319.91 948.36,-326.82"/>
</a>
</g>
</g>
<!-- 22 -->
<g id="node16" class="node">
<title>22</title>
<g id="a_node16"><a xlink:title="AtomsHashTable">
<polygon fill="#ffffff" stroke="black" points="998.26,-252 861.26,-252 861.26,-216 998.26,-216 998.26,-252"/>
<text text-anchor="middle" x="929.76" y="-230.3" font-family="Times,serif" font-size="14.00">AtomsHashTable</text>
</a>
</g>
</g>
<!-- 12&#45;&gt;22 -->
<g id="edge17" class="edge">
<title>12&#45;&gt;22</title>
<g id="a_edge17"><a xlink:title="usage">
<path fill="none" stroke="#1414ce" d="M589.45,-376.77C684.77,-375.11 865.29,-366.31 910.76,-324 927.43,-308.49 931.36,-282.24 931.6,-262.26"/>
<polygon fill="#1414ce" stroke="#1414ce" points="935.1,-262.13 931.43,-252.19 928.1,-262.25 935.1,-262.13"/>
</a>
</g>
</g>
<!-- 16 -->
<g id="node20" class="node">
<title>16</title>
<g id="a_node20"><a xlink:title="AtomTable">
<polygon fill="#ffffff" stroke="black" points="901.76,-324 809.76,-324 809.76,-288 901.76,-288 901.76,-324"/>
<text text-anchor="middle" x="855.76" y="-302.3" font-family="Times,serif" font-size="14.00">AtomTable</text>
</a>
</g>
</g>
<!-- 12&#45;&gt;16 -->
<g id="edge13" class="edge">
<title>12&#45;&gt;16</title>
<g id="a_edge13"><a xlink:title="usage">
<path fill="none" stroke="#1414ce" d="M589.38,-367.23C642.29,-358.12 721.85,-343.4 799.68,-324.14"/>
<polygon fill="#1414ce" stroke="#1414ce" points="800.8,-327.47 809.65,-321.64 799.1,-320.68 800.8,-327.47"/>
</a>
</g>
</g>
<!-- 12&#45;&gt;14 -->
<g id="edge15" class="edge">
<title>12&#45;&gt;14</title>
<g id="a_edge15"><a xlink:title="usage">
<path fill="none" stroke="#1414ce" d="M476.41,-359.93C457.39,-351.63 437.15,-339.92 422.76,-324 376.94,-273.29 380.96,-247.26 368.76,-180 365.91,-164.26 361.12,-158.05 368.76,-144 376.34,-130.08 389.33,-119.25 402.76,-111.12"/>
<polygon fill="#1414ce" stroke="#1414ce" points="404.59,-114.11 411.59,-106.16 401.16,-108.01 404.59,-114.11"/>
</a>
</g>
</g>
<!-- 13&#45;&gt;14 -->
<g id="edge21" class="edge">
<title>13&#45;&gt;14</title>
<g id="a_edge21"><a xlink:title="usage">
<path fill="none" stroke="#1414ce" d="M416.14,-143.7C421.48,-135.56 427.97,-125.69 433.88,-116.7"/>
<polygon fill="#1414ce" stroke="#1414ce" points="436.96,-118.38 439.52,-108.1 431.11,-114.54 436.96,-118.38"/>
</a>
</g>
</g>
<!-- 18 -->
<g id="node9" class="node">
<title>18</title>
<g id="a_node9"><a xlink:title="HNodeGroup">
<polygon fill="#ffffff" stroke="black" points="824.76,-252 714.76,-252 714.76,-216 824.76,-216 824.76,-252"/>
<text text-anchor="middle" x="769.76" y="-230.3" font-family="Times,serif" font-size="14.00">HNodeGroup</text>
</a>
</g>
</g>
<!-- 18&#45;&gt;18 -->
<g id="edge23" class="edge">
<title>18&#45;&gt;18</title>
<g id="a_edge23"><a xlink:title="usage">
<path fill="none" stroke="#1414ce" d="M824.84,-246.85C835.34,-245.32 842.76,-241.03 842.76,-234 842.76,-229.5 839.72,-226.12 834.77,-223.87"/>
<polygon fill="#1414ce" stroke="#1414ce" points="835.41,-220.42 824.84,-221.15 833.56,-227.17 835.41,-220.42"/>
</a>
</g>
</g>
<!-- 17 -->
<g id="node24" class="node">
<title>17</title>
<g id="a_node24"><a xlink:title="HNode">
<polygon fill="#ffffff" stroke="black" points="882.76,-180 816.76,-180 816.76,-144 882.76,-144 882.76,-180"/>
<text text-anchor="middle" x="849.76" y="-158.3" font-family="Times,serif" font-size="14.00">HNode</text>
</a>
</g>
</g>
<!-- 18&#45;&gt;17 -->
<g id="edge22" class="edge">
<title>18&#45;&gt;17</title>
<g id="a_edge22"><a xlink:title="usage">
<path fill="none" stroke="#1414ce" d="M789.54,-215.7C799.52,-206.97 811.78,-196.24 822.62,-186.75"/>
<polygon fill="#1414ce" stroke="#1414ce" points="825,-189.32 830.22,-180.1 820.39,-184.06 825,-189.32"/>
</a>
</g>
</g>
<!-- 23&#45;&gt;6 -->
<g id="edge24" class="edge">
<title>23&#45;&gt;6</title>
<g id="a_edge24"><a xlink:title="usage">
<path fill="none" stroke="#1414ce" d="M367.85,-76.89C411.17,-64.71 477.89,-45.95 523.57,-33.11"/>
<polygon fill="#1414ce" stroke="#1414ce" points="524.58,-36.46 533.26,-30.39 522.69,-29.72 524.58,-36.46"/>
</a>
</g>
</g>
<!-- 4 -->
<g id="node12" class="node">
<title>4</title>
<g id="a_node12"><a xlink:title="MailboxMessage">
<polygon fill="#ffffff" stroke="black" points="1153.26,-252 1016.26,-252 1016.26,-216 1153.26,-216 1153.26,-252"/>
<text text-anchor="middle" x="1084.76" y="-230.3" font-family="Times,serif" font-size="14.00">MailboxMessage</text>
</a>
</g>
</g>
<!-- 4&#45;&gt;4 -->
<g id="edge25" class="edge">
<title>4&#45;&gt;4</title>
<g id="a_edge25"><a xlink:title="usage">
<path fill="none" stroke="#1414ce" d="M1153.29,-246.37C1163.98,-244.52 1171.26,-240.4 1171.26,-234 1171.26,-229.8 1168.13,-226.58 1162.95,-224.34"/>
<polygon fill="#1414ce" stroke="#1414ce" points="1163.86,-220.96 1153.29,-221.63 1161.97,-227.7 1163.86,-220.96"/>
</a>
</g>
</g>
<!-- 10 -->
<g id="node13" class="node">
<title>10</title>
<g id="a_node13"><a xlink:title="Heap">
<polygon fill="#ffffff" stroke="black" points="1281.76,-108 1227.76,-108 1227.76,-72 1281.76,-72 1281.76,-108"/>
<text text-anchor="middle" x="1254.76" y="-86.3" font-family="Times,serif" font-size="14.00">Heap</text>
</a>
</g>
</g>
<!-- 10&#45;&gt;11 -->
<g id="edge26" class="edge">
<title>10&#45;&gt;11</title>
<g id="a_edge26"><a xlink:title="usage">
<path fill="none" stroke="#1414ce" d="M1254.76,-71.7C1254.76,-63.98 1254.76,-54.71 1254.76,-46.11"/>
<polygon fill="#1414ce" stroke="#1414ce" points="1258.27,-46.1 1254.76,-36.1 1251.27,-46.1 1258.27,-46.1"/>
</a>
</g>
</g>
<!-- 2 -->
<g id="node14" class="node">
<title>2</title>
<g id="a_node14"><a xlink:title="Context">
<polygon fill="#ffffff" stroke="black" points="1203.26,-468 1130.26,-468 1130.26,-432 1203.26,-432 1203.26,-468"/>
<text text-anchor="middle" x="1166.76" y="-446.3" font-family="Times,serif" font-size="14.00">Context</text>
</a>
</g>
</g>
<!-- 2&#45;&gt;7 -->
<g id="edge30" class="edge">
<title>2&#45;&gt;7</title>
<g id="a_edge30"><a xlink:title="usage">
<path fill="none" stroke="#1414ce" d="M1129.96,-449.65C1024.57,-450.77 713.07,-449.01 461.76,-396 387.33,-380.3 304.9,-348.02 255.49,-326.95"/>
<polygon fill="#1414ce" stroke="#1414ce" points="256.63,-323.63 246.06,-322.9 253.87,-330.06 256.63,-323.63"/>
</a>
</g>
</g>
<!-- 2&#45;&gt;6 -->
<g id="edge33" class="edge">
<title>2&#45;&gt;6</title>
<g id="a_edge33"><a xlink:title="usage">
<path fill="none" stroke="#1414ce" d="M1173.44,-431.81C1183.09,-405.4 1199.76,-353.06 1199.76,-307 1199.76,-307 1199.76,-307 1199.76,-161 1199.76,-43.33 773.77,-23.17 624.61,-19.71"/>
<polygon fill="#1414ce" stroke="#1414ce" points="624.43,-16.21 614.36,-19.49 624.28,-23.21 624.43,-16.21"/>
</a>
</g>
</g>
<!-- 2&#45;&gt;12 -->
<g id="edge32" class="edge">
<title>2&#45;&gt;12</title>
<g id="a_edge32"><a xlink:title="usage">
<path fill="none" stroke="#1414ce" d="M1130.23,-444.99C1027.56,-433.7 735.14,-401.57 599.92,-386.71"/>
<polygon fill="#1414ce" stroke="#1414ce" points="600,-383.2 589.68,-385.58 599.23,-390.15 600,-383.2"/>
</a>
</g>
</g>
<!-- 2&#45;&gt;10 -->
<g id="edge31" class="edge">
<title>2&#45;&gt;10</title>
<g id="a_edge31"><a xlink:title="usage">
<path fill="none" stroke="#1414ce" d="M1185.59,-431.96C1195.28,-422.28 1206.53,-409.42 1213.76,-396 1233.21,-359.94 1237.76,-347.97 1237.76,-307 1237.76,-307 1237.76,-307 1237.76,-233 1237.76,-192.93 1244.52,-146.95 1249.51,-118.43"/>
<polygon fill="#1414ce" stroke="#1414ce" points="1252.99,-118.87 1251.32,-108.41 1246.1,-117.63 1252.99,-118.87"/>
</a>
</g>
</g>
<!-- 2&#45;&gt;2 -->
<g id="edge27" class="edge">
<title>2&#45;&gt;2</title>
<g id="a_edge27"><a xlink:title="usage">
<path fill="none" stroke="#1414ce" d="M1203.44,-463.42C1213.55,-462.77 1221.26,-458.3 1221.26,-450 1221.26,-444.81 1218.25,-441.12 1213.52,-438.93"/>
<polygon fill="#1414ce" stroke="#1414ce" points="1213.98,-435.44 1203.44,-436.58 1212.39,-442.26 1213.98,-435.44"/>
</a>
</g>
</g>
<!-- 3 -->
<g id="node19" class="node">
<title>3</title>
<g id="a_node19"><a xlink:title="Mailbox">
<polygon fill="#ffffff" stroke="black" points="1171.76,-396 1097.76,-396 1097.76,-360 1171.76,-360 1171.76,-396"/>
<text text-anchor="middle" x="1134.76" y="-374.3" font-family="Times,serif" font-size="14.00">Mailbox</text>
</a>
</g>
</g>
<!-- 2&#45;&gt;3 -->
<g id="edge28" class="edge">
<title>2&#45;&gt;3</title>
<g id="a_edge28"><a xlink:title="usage">
<path fill="none" stroke="#1414ce" d="M1158.85,-431.7C1155.21,-423.73 1150.81,-414.1 1146.77,-405.26"/>
<polygon fill="#1414ce" stroke="#1414ce" points="1149.92,-403.74 1142.58,-396.1 1143.56,-406.65 1149.92,-403.74"/>
</a>
</g>
</g>
<!-- 5 -->
<g id="node22" class="node">
<title>5</title>
<g id="a_node22"><a xlink:title="TimerListItem">
<polygon fill="#ffffff" stroke="black" points="1385.26,-180 1266.26,-180 1266.26,-144 1385.26,-144 1385.26,-180"/>
<text text-anchor="middle" x="1325.76" y="-158.3" font-family="Times,serif" font-size="14.00">TimerListItem</text>
</a>
</g>
</g>
<!-- 2&#45;&gt;5 -->
<g id="edge29" class="edge">
<title>2&#45;&gt;5</title>
<g id="a_edge29"><a xlink:title="usage">
<path fill="none" stroke="#1414ce" d="M1203.69,-433.3C1220.46,-424.52 1239.28,-412.07 1251.76,-396 1300.69,-333.01 1317.66,-236.93 1323.23,-190.3"/>
<polygon fill="#1414ce" stroke="#1414ce" points="1326.74,-190.4 1324.36,-180.08 1319.78,-189.63 1326.74,-190.4"/>
</a>
</g>
</g>
<!-- 15&#45;&gt;4 -->
<g id="edge34" class="edge">
<title>15&#45;&gt;4</title>
<g id="a_edge34"><a xlink:title="usage">
<path fill="none" stroke="#1414ce" d="M1048.63,-287.7C1054.27,-279.47 1061.12,-269.48 1067.33,-260.42"/>
<polygon fill="#1414ce" stroke="#1414ce" points="1070.27,-262.33 1073.04,-252.1 1064.49,-258.37 1070.27,-262.33"/>
</a>
</g>
</g>
<!-- 15&#45;&gt;15 -->
<g id="edge35" class="edge">
<title>15&#45;&gt;15</title>
<g id="a_edge35"><a xlink:title="usage">
<path fill="none" stroke="#1414ce" d="M1115.93,-317.98C1126.64,-315.97 1133.76,-311.98 1133.76,-306 1133.76,-302.08 1130.69,-299.01 1125.56,-296.8"/>
<polygon fill="#1414ce" stroke="#1414ce" points="1126.51,-293.43 1115.93,-294.02 1124.57,-300.15 1126.51,-293.43"/>
</a>
</g>
</g>
<!-- 22&#45;&gt;17 -->
<g id="edge36" class="edge">
<title>22&#45;&gt;17</title>
<g id="a_edge36"><a xlink:title="usage">
<path fill="none" stroke="#1414ce" d="M909.99,-215.7C900.01,-206.97 887.75,-196.24 876.91,-186.75"/>
<polygon fill="#1414ce" stroke="#1414ce" points="879.14,-184.06 869.31,-180.1 874.53,-189.32 879.14,-184.06"/>
</a>
</g>
</g>
<!-- 20&#45;&gt;21 -->
<g id="edge37" class="edge">
<title>20&#45;&gt;21</title>
<g id="a_edge37"><a xlink:title="usage">
<path fill="none" stroke="#1414ce" d="M567.48,-215.7C557.85,-207.05 546.04,-196.45 535.54,-187.03"/>
<polygon fill="#1414ce" stroke="#1414ce" points="537.6,-184.18 527.82,-180.1 532.93,-189.39 537.6,-184.18"/>
</a>
</g>
</g>
<!-- 20&#45;&gt;6 -->
<g id="edge38" class="edge">
<title>20&#45;&gt;6</title>
<g id="a_edge38"><a xlink:title="usage">
<path fill="none" stroke="#1414ce" d="M596.31,-215.93C601.4,-205.82 607.15,-192.57 609.76,-180 619.52,-133 623.87,-117.88 609.76,-72 606.76,-62.22 601.26,-52.62 595.45,-44.33"/>
<polygon fill="#1414ce" stroke="#1414ce" points="598.17,-42.13 589.37,-36.23 592.57,-46.33 598.17,-42.13"/>
</a>
</g>
</g>
<!-- 1 -->
<g id="node18" class="node">
<title>1</title>
<g id="a_node18"><a xlink:title="ContextAccumulator">
<polygon fill="#bfbfbf" stroke="black" points="1248.26,-540 1085.26,-540 1085.26,-504 1248.26,-504 1248.26,-540"/>
<text text-anchor="middle" x="1166.76" y="-518.3" font-family="Times,serif" font-size="14.00">ContextAccumulator</text>
</a>
</g>
</g>
<!-- 1&#45;&gt;2 -->
<g id="edge39" class="edge">
<title>1&#45;&gt;2</title>
<g id="a_edge39"><a xlink:title="usage">
<path fill="none" stroke="#1414ce" d="M1166.76,-503.7C1166.76,-495.98 1166.76,-486.71 1166.76,-478.11"/>
<polygon fill="#1414ce" stroke="#1414ce" points="1170.27,-478.1 1166.76,-468.1 1163.27,-478.1 1170.27,-478.1"/>
</a>
</g>
</g>
<!-- 3&#45;&gt;4 -->
<g id="edge40" class="edge">
<title>3&#45;&gt;4</title>
<g id="a_edge40"><a xlink:title="usage">
<path fill="none" stroke="#1414ce" d="M1141.1,-359.8C1146.86,-341.26 1153.03,-311.28 1142.76,-288 1137.78,-276.69 1129.05,-266.74 1119.86,-258.62"/>
<polygon fill="#1414ce" stroke="#1414ce" points="1122.05,-255.88 1112.1,-252.23 1117.6,-261.28 1122.05,-255.88"/>
</a>
</g>
</g>
<!-- 16&#45;&gt;18 -->
<g id="edge42" class="edge">
<title>16&#45;&gt;18</title>
<g id="a_edge42"><a xlink:title="usage">
<path fill="none" stroke="#1414ce" d="M834.51,-287.7C823.68,-278.88 810.35,-268.03 798.6,-258.47"/>
<polygon fill="#1414ce" stroke="#1414ce" points="800.74,-255.7 790.78,-252.1 796.33,-261.13 800.74,-255.7"/>
</a>
</g>
</g>
<!-- 16&#45;&gt;17 -->
<g id="edge41" class="edge">
<title>16&#45;&gt;17</title>
<g id="a_edge41"><a xlink:title="usage">
<path fill="none" stroke="#1414ce" d="M809.65,-290.13C766.75,-276.09 708.95,-256.51 705.76,-252 696.53,-238.94 696.61,-229.12 705.76,-216 728.35,-183.63 773.03,-170.97 806.66,-166.06"/>
<polygon fill="#1414ce" stroke="#1414ce" points="807.24,-169.51 816.71,-164.77 806.35,-162.57 807.24,-169.51"/>
</a>
</g>
</g>
<!-- 5&#45;&gt;6 -->
<g id="edge43" class="edge">
<title>5&#45;&gt;6</title>
<g id="a_edge43"><a xlink:title="usage">
<path fill="none" stroke="#1414ce" d="M1324.31,-143.65C1321.56,-122.89 1313.62,-88.84 1290.76,-72 1237.41,-32.69 779.15,-22.13 624.49,-19.67"/>
<polygon fill="#1414ce" stroke="#1414ce" points="624.38,-16.17 614.32,-19.51 624.27,-23.17 624.38,-16.17"/>
</a>
</g>
</g>
<!-- 14&#45;&gt;6 -->
<g id="edge44" class="edge">
<title>14&#45;&gt;6</title>
<g id="a_edge44"><a xlink:title="usage">
<path fill="none" stroke="#1414ce" d="M480.85,-71.88C497.09,-62.64 517.31,-51.13 534.74,-41.21"/>
<polygon fill="#1414ce" stroke="#1414ce" points="536.6,-44.18 543.56,-36.19 533.14,-38.09 536.6,-44.18"/>
</a>
</g>
</g>
<!-- 17&#45;&gt;10 -->
<g id="edge46" class="edge">
<title>17&#45;&gt;10</title>
<g id="a_edge46"><a xlink:title="usage">
<path fill="none" stroke="#1414ce" d="M882.91,-155.27C957.76,-142.33 1139.45,-110.93 1217.8,-97.39"/>
<polygon fill="#1414ce" stroke="#1414ce" points="1218.45,-100.83 1227.71,-95.68 1217.26,-93.93 1218.45,-100.83"/>
</a>
</g>
</g>
<!-- 17&#45;&gt;17 -->
<g id="edge45" class="edge">
<title>17&#45;&gt;17</title>
<g id="a_edge45"><a xlink:title="usage">
<path fill="none" stroke="#1414ce" d="M883.12,-175.47C893.04,-175.07 900.76,-170.58 900.76,-162 900.76,-156.64 897.75,-152.87 893.06,-150.71"/>
<polygon fill="#1414ce" stroke="#1414ce" points="893.64,-147.25 883.12,-148.53 892.14,-154.09 893.64,-147.25"/>
</a>
</g>
</g>
</g>
</svg>
