<?xml version="1.0" encoding="UTF-8" standalone="no"?>
<!DOCTYPE svg PUBLIC "-//W3C//DTD SVG 1.1//EN"
 "http://www.w3.org/Graphics/SVG/1.1/DTD/svg11.dtd">
<!-- Generated by graphviz version 2.43.0 (0)
 -->
<!-- Title: %3 Pages: 1 -->
<svg width="1468pt" height="404pt"
 viewBox="0.00 0.00 1467.50 404.00" xmlns="http://www.w3.org/2000/svg" xmlns:xlink="http://www.w3.org/1999/xlink">
<g id="graph0" class="graph" transform="scale(1 1) rotate(0) translate(4 400)">
<title>%3</title>
<polygon fill="transparent" stroke="transparent" points="-4,4 -4,-400 1463.5,-400 1463.5,4 -4,4"/>
<!-- 22 -->
<g id="node1" class="node">
<title>22</title>
<g id="a_node1"><a xlink:title="SpinLock">
<polygon fill="#ffffff" stroke="black" points="1332,-324 1250,-324 1250,-288 1332,-288 1332,-324"/>
<text text-anchor="middle" x="1291" y="-302.3" font-family="Times,serif" font-size="14.00">SpinLock</text>
</a>
</g>
</g>
<!-- 5 -->
<g id="node2" class="node">
<title>5</title>
<g id="a_node2"><a xlink:title="ResourceType">
<polygon fill="#ffffff" stroke="black" points="947.5,-180 830.5,-180 830.5,-144 947.5,-144 947.5,-180"/>
<text text-anchor="middle" x="889" y="-158.3" font-family="Times,serif" font-size="14.00">ResourceType</text>
</a>
</g>
</g>
<!-- 3 -->
<g id="node4" class="node">
<title>3</title>
<g id="a_node4"><a xlink:title="ListHead">
<polygon fill="#ffffff" stroke="black" points="589.5,-36 508.5,-36 508.5,0 589.5,0 589.5,-36"/>
<text text-anchor="middle" x="549" y="-14.3" font-family="Times,serif" font-size="14.00">ListHead</text>
</a>
</g>
</g>
<!-- 5&#45;&gt;3 -->
<g id="edge3" class="edge">
<title>5&#45;&gt;3</title>
<g id="a_edge3"><a xlink:title="usage">
<path fill="none" stroke="#1414ce" d="M883.12,-143.88C875.13,-123.36 858.82,-89.54 833,-72 795.73,-46.68 670.89,-30.79 599.76,-23.57"/>
<polygon fill="#1414ce" stroke="#1414ce" points="599.96,-20.08 589.67,-22.57 599.27,-27.04 599.96,-20.08"/>
</a>
</g>
</g>
<!-- 6 -->
<g id="node7" class="node">
<title>6</title>
<g id="a_node7"><a xlink:title="GlobalContext">
<polygon fill="#ffffff" stroke="black" points="838.5,-396 719.5,-396 719.5,-360 838.5,-360 838.5,-396"/>
<text text-anchor="middle" x="779" y="-374.3" font-family="Times,serif" font-size="14.00">GlobalContext</text>
</a>
</g>
</g>
<!-- 5&#45;&gt;6 -->
<g id="edge2" class="edge">
<title>5&#45;&gt;6</title>
<g id="a_edge2"><a xlink:title="usage">
<path fill="none" stroke="#1414ce" d="M892.25,-180.3C891.57,-211.3 879.21,-277.43 849,-324 841.7,-335.25 831.34,-345.5 820.76,-353.91"/>
<polygon fill="#1414ce" stroke="#1414ce" points="818.57,-351.18 812.67,-359.98 822.77,-356.78 818.57,-351.18"/>
</a>
</g>
</g>
<!-- 2 -->
<g id="node21" class="node">
<title>2</title>
<g id="a_node21"><a xlink:title="SyncList">
<polygon fill="#ffffff" stroke="black" points="824,-108 746,-108 746,-72 824,-72 824,-108"/>
<text text-anchor="middle" x="785" y="-86.3" font-family="Times,serif" font-size="14.00">SyncList</text>
</a>
</g>
</g>
<!-- 5&#45;&gt;2 -->
<g id="edge1" class="edge">
<title>5&#45;&gt;2</title>
<g id="a_edge1"><a xlink:title="usage">
<path fill="none" stroke="#1414ce" d="M863.56,-143.88C850.21,-134.89 833.68,-123.76 819.22,-114.03"/>
<polygon fill="#1414ce" stroke="#1414ce" points="820.79,-110.87 810.54,-108.19 816.88,-116.68 820.79,-110.87"/>
</a>
</g>
</g>
<!-- 17 -->
<g id="node3" class="node">
<title>17</title>
<g id="a_node3"><a xlink:title="Module">
<polygon fill="#ffffff" stroke="black" points="277,-324 207,-324 207,-288 277,-288 277,-324"/>
<text text-anchor="middle" x="242" y="-302.3" font-family="Times,serif" font-size="14.00">Module</text>
</a>
</g>
</g>
<!-- 17&#45;&gt;3 -->
<g id="edge6" class="edge">
<title>17&#45;&gt;3</title>
<g id="a_edge6"><a xlink:title="usage">
<path fill="none" stroke="#1414ce" d="M232.37,-287.99C223.41,-269.87 212.6,-240.48 221,-216 234.16,-177.65 246.11,-170.26 277,-144 343.63,-87.36 440.18,-51.17 498.53,-33.02"/>
<polygon fill="#1414ce" stroke="#1414ce" points="499.72,-36.32 508.26,-30.05 497.68,-29.63 499.72,-36.32"/>
</a>
</g>
</g>
<!-- 19 -->
<g id="node11" class="node">
<title>19</title>
<g id="a_node11"><a xlink:title="LiteralEntry">
<polygon fill="#ffffff" stroke="black" points="334,-252 230,-252 230,-216 334,-216 334,-252"/>
<text text-anchor="middle" x="282" y="-230.3" font-family="Times,serif" font-size="14.00">LiteralEntry</text>
</a>
</g>
</g>
<!-- 17&#45;&gt;19 -->
<g id="edge5" class="edge">
<title>17&#45;&gt;19</title>
<g id="a_edge5"><a xlink:title="usage">
<path fill="none" stroke="#1414ce" d="M251.89,-287.7C256.49,-279.64 262.06,-269.89 267.15,-260.98"/>
<polygon fill="#1414ce" stroke="#1414ce" points="270.3,-262.52 272.23,-252.1 264.23,-259.05 270.3,-262.52"/>
</a>
</g>
</g>
<!-- 18 -->
<g id="node20" class="node">
<title>18</title>
<g id="a_node20"><a xlink:title="ExportedFunction">
<polygon fill="#ffffff" stroke="black" points="174,-252 28,-252 28,-216 174,-216 174,-252"/>
<text text-anchor="middle" x="101" y="-230.3" font-family="Times,serif" font-size="14.00">ExportedFunction</text>
</a>
</g>
</g>
<!-- 17&#45;&gt;18 -->
<g id="edge4" class="edge">
<title>17&#45;&gt;18</title>
<g id="a_edge4"><a xlink:title="usage">
<path fill="none" stroke="#1414ce" d="M207.51,-287.88C188.56,-278.47 164.87,-266.71 144.64,-256.67"/>
<polygon fill="#1414ce" stroke="#1414ce" points="146.14,-253.5 135.63,-252.19 143.03,-259.77 146.14,-253.5"/>
</a>
</g>
</g>
<!-- 3&#45;&gt;3 -->
<g id="edge7" class="edge">
<title>3&#45;&gt;3</title>
<g id="a_edge7"><a xlink:title="usage">
<path fill="none" stroke="#1414ce" d="M589.73,-31.31C599.9,-30.38 607.5,-25.95 607.5,-18 607.5,-12.91 604.38,-9.26 599.47,-7.05"/>
<polygon fill="#1414ce" stroke="#1414ce" points="600.28,-3.64 589.73,-4.69 598.63,-10.45 600.28,-3.64"/>
</a>
</g>
</g>
<!-- 13 -->
<g id="node5" class="node">
<title>13</title>
<g id="a_node5"><a xlink:title="HeapFragment">
<polygon fill="#ffffff" stroke="black" points="1293.5,-36 1168.5,-36 1168.5,0 1293.5,0 1293.5,-36"/>
<text text-anchor="middle" x="1231" y="-14.3" font-family="Times,serif" font-size="14.00">HeapFragment</text>
</a>
</g>
</g>
<!-- 13&#45;&gt;13 -->
<g id="edge8" class="edge">
<title>13&#45;&gt;13</title>
<g id="a_edge8"><a xlink:title="usage">
<path fill="none" stroke="#1414ce" d="M1293.78,-30.55C1304.26,-28.79 1311.5,-24.61 1311.5,-18 1311.5,-13.77 1308.53,-10.53 1303.64,-8.29"/>
<polygon fill="#1414ce" stroke="#1414ce" points="1304.36,-4.85 1293.78,-5.45 1302.42,-11.58 1304.36,-4.85"/>
</a>
</g>
</g>
<!-- 15 -->
<g id="node6" class="node">
<title>15</title>
<g id="a_node6"><a xlink:title="RefcBinaryQueueItem">
<polygon fill="#ffffff" stroke="black" points="602,-324 428,-324 428,-288 602,-288 602,-324"/>
<text text-anchor="middle" x="515" y="-302.3" font-family="Times,serif" font-size="14.00">RefcBinaryQueueItem</text>
</a>
</g>
</g>
<!-- 15&#45;&gt;15 -->
<g id="edge10" class="edge">
<title>15&#45;&gt;15</title>
<g id="a_edge10"><a xlink:title="usage">
<path fill="none" stroke="#1414ce" d="M602.3,-317.68C612.99,-315.59 620,-311.7 620,-306 620,-302.35 617.12,-299.44 612.25,-297.27"/>
<polygon fill="#1414ce" stroke="#1414ce" points="612.88,-293.81 602.3,-294.32 610.89,-300.52 612.88,-293.81"/>
</a>
</g>
</g>
<!-- 16 -->
<g id="node16" class="node">
<title>16</title>
<g id="a_node16"><a xlink:title="RefcBinary">
<polygon fill="#ffffff" stroke="black" points="596.5,-252 501.5,-252 501.5,-216 596.5,-216 596.5,-252"/>
<text text-anchor="middle" x="549" y="-230.3" font-family="Times,serif" font-size="14.00">RefcBinary</text>
</a>
</g>
</g>
<!-- 15&#45;&gt;16 -->
<g id="edge9" class="edge">
<title>15&#45;&gt;16</title>
<g id="a_edge9"><a xlink:title="usage">
<path fill="none" stroke="#1414ce" d="M523.4,-287.7C527.27,-279.73 531.95,-270.1 536.24,-261.26"/>
<polygon fill="#1414ce" stroke="#1414ce" points="539.47,-262.63 540.69,-252.1 533.17,-259.57 539.47,-262.63"/>
</a>
</g>
</g>
<!-- 6&#45;&gt;22 -->
<g id="edge20" class="edge">
<title>6&#45;&gt;22</title>
<g id="a_edge20"><a xlink:title="usage">
<path fill="none" stroke="#1414ce" d="M838.72,-373.6C926.54,-367.8 1095.32,-353.64 1236,-324 1237.27,-323.73 1238.54,-323.45 1239.83,-323.15"/>
<polygon fill="#1414ce" stroke="#1414ce" points="1240.94,-326.48 1249.77,-320.64 1239.22,-319.7 1240.94,-326.48"/>
</a>
</g>
</g>
<!-- 6&#45;&gt;5 -->
<g id="edge11" class="edge">
<title>6&#45;&gt;5</title>
<g id="a_edge11"><a xlink:title="usage">
<path fill="none" stroke="#1414ce" d="M796.53,-359.98C807.86,-350.65 821.84,-338.12 831,-324 858.26,-281.98 870.98,-224.03 879.12,-190.34"/>
<polygon fill="#1414ce" stroke="#1414ce" points="882.6,-190.85 881.61,-180.3 875.81,-189.16 882.6,-190.85"/>
</a>
</g>
</g>
<!-- 6&#45;&gt;17 -->
<g id="edge17" class="edge">
<title>6&#45;&gt;17</title>
<g id="a_edge17"><a xlink:title="usage">
<path fill="none" stroke="#1414ce" d="M719.3,-370.36C636.02,-360.94 480.31,-342.74 348,-324 328.07,-321.18 306.09,-317.71 287.34,-314.65"/>
<polygon fill="#1414ce" stroke="#1414ce" points="287.72,-311.16 277.28,-312.99 286.58,-318.07 287.72,-311.16"/>
</a>
</g>
</g>
<!-- 6&#45;&gt;3 -->
<g id="edge21" class="edge">
<title>6&#45;&gt;3</title>
<g id="a_edge21"><a xlink:title="usage">
<path fill="none" stroke="#1414ce" d="M719.1,-377.24C612.69,-376.41 384.34,-368.95 198,-324 104.21,-301.38 0,-331.48 0,-235 0,-235 0,-235 0,-161 0,-58.69 361.85,-28.91 498.01,-21.32"/>
<polygon fill="#1414ce" stroke="#1414ce" points="498.39,-24.81 508.18,-20.78 498.01,-17.82 498.39,-24.81"/>
</a>
</g>
</g>
<!-- 6&#45;&gt;15 -->
<g id="edge15" class="edge">
<title>6&#45;&gt;15</title>
<g id="a_edge15"><a xlink:title="usage">
<path fill="none" stroke="#1414ce" d="M719.42,-361.2C680.85,-350.97 630.32,-337.58 589.15,-326.66"/>
<polygon fill="#1414ce" stroke="#1414ce" points="590,-323.27 579.44,-324.09 588.21,-330.03 590,-323.27"/>
</a>
</g>
</g>
<!-- 7 -->
<g id="node8" class="node">
<title>7</title>
<g id="a_node8"><a xlink:title="Ets">
<polygon fill="#ffffff" stroke="black" points="812,-180 758,-180 758,-144 812,-144 812,-180"/>
<text text-anchor="middle" x="785" y="-158.3" font-family="Times,serif" font-size="14.00">Ets</text>
</a>
</g>
</g>
<!-- 6&#45;&gt;7 -->
<g id="edge12" class="edge">
<title>6&#45;&gt;7</title>
<g id="a_edge12"><a xlink:title="usage">
<path fill="none" stroke="#1414ce" d="M798.47,-359.92C807.82,-350.4 818.05,-337.72 823,-324 839.69,-277.78 817.09,-221.42 800.27,-189.12"/>
<polygon fill="#1414ce" stroke="#1414ce" points="803.33,-187.43 795.5,-180.29 797.17,-190.76 803.33,-187.43"/>
</a>
</g>
</g>
<!-- 21 -->
<g id="node10" class="node">
<title>21</title>
<g id="a_node10"><a xlink:title="TimerList">
<polygon fill="#ffffff" stroke="black" points="372,-180 286,-180 286,-144 372,-144 372,-180"/>
<text text-anchor="middle" x="329" y="-158.3" font-family="Times,serif" font-size="14.00">TimerList</text>
</a>
</g>
</g>
<!-- 6&#45;&gt;21 -->
<g id="edge19" class="edge">
<title>6&#45;&gt;21</title>
<g id="a_edge19"><a xlink:title="usage">
<path fill="none" stroke="#1414ce" d="M719.24,-376.36C622.13,-374.14 435.89,-364.54 386,-324 375.24,-315.26 349.78,-233.37 336.84,-189.87"/>
<polygon fill="#1414ce" stroke="#1414ce" points="340.18,-188.81 333.99,-180.21 333.47,-190.79 340.18,-188.81"/>
</a>
</g>
</g>
<!-- 8 -->
<g id="node14" class="node">
<title>8</title>
<g id="a_node14"><a xlink:title="MessageQueueItem">
<polygon fill="#ffffff" stroke="black" points="796,-324 638,-324 638,-288 796,-288 796,-324"/>
<text text-anchor="middle" x="717" y="-302.3" font-family="Times,serif" font-size="14.00">MessageQueueItem</text>
</a>
</g>
</g>
<!-- 6&#45;&gt;8 -->
<g id="edge13" class="edge">
<title>6&#45;&gt;8</title>
<g id="a_edge13"><a xlink:title="usage">
<path fill="none" stroke="#1414ce" d="M763.67,-359.7C756.24,-351.3 747.18,-341.07 739.02,-331.86"/>
<polygon fill="#1414ce" stroke="#1414ce" points="741.4,-329.27 732.15,-324.1 736.16,-333.91 741.4,-329.27"/>
</a>
</g>
</g>
<!-- 20 -->
<g id="node15" class="node">
<title>20</title>
<g id="a_node15"><a xlink:title="AtomsHashTable">
<polygon fill="#ffffff" stroke="black" points="1459.5,-252 1322.5,-252 1322.5,-216 1459.5,-216 1459.5,-252"/>
<text text-anchor="middle" x="1391" y="-230.3" font-family="Times,serif" font-size="14.00">AtomsHashTable</text>
</a>
</g>
</g>
<!-- 6&#45;&gt;20 -->
<g id="edge18" class="edge">
<title>6&#45;&gt;20</title>
<g id="a_edge18"><a xlink:title="usage">
<path fill="none" stroke="#1414ce" d="M838.7,-374.12C939.78,-368.49 1139.78,-353.87 1203,-324 1224.03,-314.06 1221.15,-300.14 1241,-288 1263.46,-274.26 1290,-263.4 1314.46,-255.19"/>
<polygon fill="#1414ce" stroke="#1414ce" points="1315.65,-258.48 1324.08,-252.05 1313.49,-251.82 1315.65,-258.48"/>
</a>
</g>
</g>
<!-- 10 -->
<g id="node19" class="node">
<title>10</title>
<g id="a_node19"><a xlink:title="AtomTable">
<polygon fill="#ffffff" stroke="black" points="1194,-324 1102,-324 1102,-288 1194,-288 1194,-324"/>
<text text-anchor="middle" x="1148" y="-302.3" font-family="Times,serif" font-size="14.00">AtomTable</text>
</a>
</g>
</g>
<!-- 6&#45;&gt;10 -->
<g id="edge14" class="edge">
<title>6&#45;&gt;10</title>
<g id="a_edge14"><a xlink:title="usage">
<path fill="none" stroke="#1414ce" d="M838.5,-369.35C899.83,-360.93 998.31,-345.92 1091.98,-324.08"/>
<polygon fill="#1414ce" stroke="#1414ce" points="1092.98,-327.44 1101.91,-321.73 1091.37,-320.63 1092.98,-327.44"/>
</a>
</g>
</g>
<!-- 6&#45;&gt;2 -->
<g id="edge16" class="edge">
<title>6&#45;&gt;2</title>
<g id="a_edge16"><a xlink:title="usage">
<path fill="none" stroke="#1414ce" d="M719.35,-377.23C627.27,-376.17 457.09,-368.11 419,-324 317.84,-206.86 614.85,-127.66 736.03,-100.96"/>
<polygon fill="#1414ce" stroke="#1414ce" points="736.8,-104.37 745.82,-98.83 735.31,-97.53 736.8,-104.37"/>
</a>
</g>
</g>
<!-- 7&#45;&gt;2 -->
<g id="edge22" class="edge">
<title>7&#45;&gt;2</title>
<g id="a_edge22"><a xlink:title="usage">
<path fill="none" stroke="#1414ce" d="M785,-143.7C785,-135.98 785,-126.71 785,-118.11"/>
<polygon fill="#1414ce" stroke="#1414ce" points="788.5,-118.1 785,-108.1 781.5,-118.1 788.5,-118.1"/>
</a>
</g>
</g>
<!-- 14 -->
<g id="node9" class="node">
<title>14</title>
<g id="a_node9"><a xlink:title="HNodeGroup">
<polygon fill="#ffffff" stroke="black" points="1286,-252 1176,-252 1176,-216 1286,-216 1286,-252"/>
<text text-anchor="middle" x="1231" y="-230.3" font-family="Times,serif" font-size="14.00">HNodeGroup</text>
</a>
</g>
</g>
<!-- 14&#45;&gt;14 -->
<g id="edge24" class="edge">
<title>14&#45;&gt;14</title>
<g id="a_edge24"><a xlink:title="usage">
<path fill="none" stroke="#1414ce" d="M1286.07,-246.85C1296.57,-245.32 1304,-241.03 1304,-234 1304,-229.5 1300.95,-226.12 1296,-223.87"/>
<polygon fill="#1414ce" stroke="#1414ce" points="1296.64,-220.42 1286.07,-221.15 1294.79,-227.17 1296.64,-220.42"/>
</a>
</g>
</g>
<!-- 11 -->
<g id="node22" class="node">
<title>11</title>
<g id="a_node22"><a xlink:title="HNode">
<polygon fill="#ffffff" stroke="black" points="1264,-180 1198,-180 1198,-144 1264,-144 1264,-180"/>
<text text-anchor="middle" x="1231" y="-158.3" font-family="Times,serif" font-size="14.00">HNode</text>
</a>
</g>
</g>
<!-- 14&#45;&gt;11 -->
<g id="edge23" class="edge">
<title>14&#45;&gt;11</title>
<g id="a_edge23"><a xlink:title="usage">
<path fill="none" stroke="#1414ce" d="M1231,-215.7C1231,-207.98 1231,-198.71 1231,-190.11"/>
<polygon fill="#1414ce" stroke="#1414ce" points="1234.5,-190.1 1231,-180.1 1227.5,-190.1 1234.5,-190.1"/>
</a>
</g>
</g>
<!-- 21&#45;&gt;3 -->
<g id="edge25" class="edge">
<title>21&#45;&gt;3</title>
<g id="a_edge25"><a xlink:title="usage">
<path fill="none" stroke="#1414ce" d="M355.54,-143.87C395.1,-118.34 469.59,-70.25 513.71,-41.78"/>
<polygon fill="#1414ce" stroke="#1414ce" points="515.86,-44.55 522.37,-36.19 512.07,-38.67 515.86,-44.55"/>
</a>
</g>
</g>
<!-- 9 -->
<g id="node12" class="node">
<title>9</title>
<g id="a_node12"><a xlink:title="MailboxMessage">
<polygon fill="#ffffff" stroke="black" points="785.5,-252 648.5,-252 648.5,-216 785.5,-216 785.5,-252"/>
<text text-anchor="middle" x="717" y="-230.3" font-family="Times,serif" font-size="14.00">MailboxMessage</text>
</a>
</g>
</g>
<!-- 9&#45;&gt;9 -->
<g id="edge26" class="edge">
<title>9&#45;&gt;9</title>
<g id="a_edge26"><a xlink:title="usage">
<path fill="none" stroke="#1414ce" d="M785.53,-246.37C796.21,-244.52 803.5,-240.4 803.5,-234 803.5,-229.8 800.36,-226.58 795.18,-224.34"/>
<polygon fill="#1414ce" stroke="#1414ce" points="796.1,-220.96 785.53,-221.63 794.21,-227.7 796.1,-220.96"/>
</a>
</g>
</g>
<!-- 12 -->
<g id="node13" class="node">
<title>12</title>
<g id="a_node13"><a xlink:title="Heap">
<polygon fill="#ffffff" stroke="black" points="1258,-108 1204,-108 1204,-72 1258,-72 1258,-108"/>
<text text-anchor="middle" x="1231" y="-86.3" font-family="Times,serif" font-size="14.00">Heap</text>
</a>
</g>
</g>
<!-- 12&#45;&gt;13 -->
<g id="edge27" class="edge">
<title>12&#45;&gt;13</title>
<g id="a_edge27"><a xlink:title="usage">
<path fill="none" stroke="#1414ce" d="M1231,-71.7C1231,-63.98 1231,-54.71 1231,-46.11"/>
<polygon fill="#1414ce" stroke="#1414ce" points="1234.5,-46.1 1231,-36.1 1227.5,-46.1 1234.5,-46.1"/>
</a>
</g>
</g>
<!-- 8&#45;&gt;9 -->
<g id="edge28" class="edge">
<title>8&#45;&gt;9</title>
<g id="a_edge28"><a xlink:title="usage">
<path fill="none" stroke="#1414ce" d="M717,-287.7C717,-279.98 717,-270.71 717,-262.11"/>
<polygon fill="#1414ce" stroke="#1414ce" points="720.5,-262.1 717,-252.1 713.5,-262.1 720.5,-262.1"/>
</a>
</g>
</g>
<!-- 8&#45;&gt;8 -->
<g id="edge29" class="edge">
<title>8&#45;&gt;8</title>
<g id="a_edge29"><a xlink:title="usage">
<path fill="none" stroke="#1414ce" d="M796.16,-317.98C806.87,-315.97 814,-311.98 814,-306 814,-302.08 810.93,-299.01 805.79,-296.8"/>
<polygon fill="#1414ce" stroke="#1414ce" points="806.74,-293.43 796.16,-294.02 804.8,-300.15 806.74,-293.43"/>
</a>
</g>
</g>
<!-- 20&#45;&gt;11 -->
<g id="edge30" class="edge">
<title>20&#45;&gt;11</title>
<g id="a_edge30"><a xlink:title="usage">
<path fill="none" stroke="#1414ce" d="M1351.86,-215.88C1328.09,-205.48 1297.75,-192.2 1273.41,-181.55"/>
<polygon fill="#1414ce" stroke="#1414ce" points="1274.63,-178.27 1264.07,-177.47 1271.83,-184.68 1274.63,-178.27"/>
</a>
</g>
</g>
<!-- 16&#45;&gt;5 -->
<g id="edge31" class="edge">
<title>16&#45;&gt;5</title>
<g id="a_edge31"><a xlink:title="usage">
<path fill="none" stroke="#1414ce" d="M596.61,-224.04C658.73,-212.29 765.08,-191.99 820.4,-180.05"/>
<polygon fill="#1414ce" stroke="#1414ce" points="821.42,-183.41 830.44,-177.85 819.92,-176.57 821.42,-183.41"/>
</a>
</g>
</g>
<!-- 16&#45;&gt;3 -->
<g id="edge32" class="edge">
<title>16&#45;&gt;3</title>
<g id="a_edge32"><a xlink:title="usage">
<path fill="none" stroke="#1414ce" d="M549,-215.85C549,-178.83 549,-91.18 549,-46.39"/>
<polygon fill="#1414ce" stroke="#1414ce" points="552.5,-46.23 549,-36.23 545.5,-46.23 552.5,-46.23"/>
</a>
</g>
</g>
<!-- 1 -->
<g id="node17" class="node">
<title>1</title>
<g id="a_node17"><a xlink:title="DistConnection">
<polygon fill="#bfbfbf" stroke="black" points="1084,-324 958,-324 958,-288 1084,-288 1084,-324"/>
<text text-anchor="middle" x="1021" y="-302.3" font-family="Times,serif" font-size="14.00">DistConnection</text>
</a>
</g>
</g>
<!-- 1&#45;&gt;3 -->
<g id="edge35" class="edge">
<title>1&#45;&gt;3</title>
<g id="a_edge35"><a xlink:title="usage">
<path fill="none" stroke="#1414ce" d="M1034.98,-287.77C1048.01,-269.46 1063.81,-239.91 1052,-216 1005.41,-121.62 960.52,-113.97 864,-72 776.32,-33.88 663.88,-23.06 599.78,-20.07"/>
<polygon fill="#1414ce" stroke="#1414ce" points="599.68,-16.56 589.54,-19.64 599.39,-23.55 599.68,-16.56"/>
</a>
</g>
</g>
<!-- 4 -->
<g id="node18" class="node">
<title>4</title>
<g id="a_node18"><a xlink:title="ErlNifMonitor">
<polygon fill="#ffffff" stroke="black" points="1043.5,-252 926.5,-252 926.5,-216 1043.5,-216 1043.5,-252"/>
<text text-anchor="middle" x="985" y="-230.3" font-family="Times,serif" font-size="14.00">ErlNifMonitor</text>
</a>
</g>
</g>
<!-- 1&#45;&gt;4 -->
<g id="edge34" class="edge">
<title>1&#45;&gt;4</title>
<g id="a_edge34"><a xlink:title="usage">
<path fill="none" stroke="#1414ce" d="M1012.1,-287.7C1008,-279.73 1003.05,-270.1 998.51,-261.26"/>
<polygon fill="#1414ce" stroke="#1414ce" points="1001.48,-259.4 993.8,-252.1 995.26,-262.6 1001.48,-259.4"/>
</a>
</g>
</g>
<!-- 1&#45;&gt;2 -->
<g id="edge33" class="edge">
<title>1&#45;&gt;2</title>
<g id="a_edge33"><a xlink:title="usage">
<path fill="none" stroke="#1414ce" d="M1035.02,-287.74C1048.1,-269.41 1063.93,-239.85 1052,-216 1011.53,-135.07 899.62,-106.3 834.24,-96.25"/>
<polygon fill="#1414ce" stroke="#1414ce" points="834.57,-92.76 824.17,-94.79 833.56,-99.69 834.57,-92.76"/>
</a>
</g>
</g>
<!-- 4&#45;&gt;5 -->
<g id="edge36" class="edge">
<title>4&#45;&gt;5</title>
<g id="a_edge36"><a xlink:title="usage">
<path fill="none" stroke="#1414ce" d="M961.27,-215.7C949.06,-206.8 934.01,-195.82 920.82,-186.2"/>
<polygon fill="#1414ce" stroke="#1414ce" points="922.6,-183.17 912.46,-180.1 918.48,-188.82 922.6,-183.17"/>
</a>
</g>
</g>
<!-- 10&#45;&gt;14 -->
<g id="edge38" class="edge">
<title>10&#45;&gt;14</title>
<g id="a_edge38"><a xlink:title="usage">
<path fill="none" stroke="#1414ce" d="M1168.52,-287.7C1178.87,-278.97 1191.59,-268.24 1202.84,-258.75"/>
<polygon fill="#1414ce" stroke="#1414ce" points="1205.33,-261.23 1210.72,-252.1 1200.82,-255.88 1205.33,-261.23"/>
</a>
</g>
</g>
<!-- 10&#45;&gt;11 -->
<g id="edge37" class="edge">
<title>10&#45;&gt;11</title>
<g id="a_edge37"><a xlink:title="usage">
<path fill="none" stroke="#1414ce" d="M1148.37,-287.71C1149.5,-268.82 1153.49,-238.3 1167,-216 1173.9,-204.61 1184.15,-194.54 1194.43,-186.32"/>
<polygon fill="#1414ce" stroke="#1414ce" points="1196.75,-188.96 1202.62,-180.14 1192.53,-183.37 1196.75,-188.96"/>
</a>
</g>
</g>
<!-- 2&#45;&gt;3 -->
<g id="edge39" class="edge">
<title>2&#45;&gt;3</title>
<g id="a_edge39"><a xlink:title="usage">
<path fill="none" stroke="#1414ce" d="M745.76,-77.36C705.55,-65.44 642.88,-46.85 599.11,-33.86"/>
<polygon fill="#1414ce" stroke="#1414ce" points="600.1,-30.51 589.52,-31.02 598.11,-37.22 600.1,-30.51"/>
</a>
</g>
</g>
<!-- 11&#45;&gt;12 -->
<g id="edge41" class="edge">
<title>11&#45;&gt;12</title>
<g id="a_edge41"><a xlink:title="usage">
<path fill="none" stroke="#1414ce" d="M1231,-143.7C1231,-135.98 1231,-126.71 1231,-118.11"/>
<polygon fill="#1414ce" stroke="#1414ce" points="1234.5,-118.1 1231,-108.1 1227.5,-118.1 1234.5,-118.1"/>
</a>
</g>
</g>
<!-- 11&#45;&gt;11 -->
<g id="edge40" class="edge">
<title>11&#45;&gt;11</title>
<g id="a_edge40"><a xlink:title="usage">
<path fill="none" stroke="#1414ce" d="M1264.35,-175.47C1274.28,-175.07 1282,-170.58 1282,-162 1282,-156.64 1278.98,-152.87 1274.3,-150.71"/>
<polygon fill="#1414ce" stroke="#1414ce" points="1274.87,-147.25 1264.35,-148.53 1273.37,-154.09 1274.87,-147.25"/>
</a>
</g>
</g>
</g>
</svg>
