<?xml version="1.0" encoding="UTF-8" standalone="no"?>
<!DOCTYPE svg PUBLIC "-//W3C//DTD SVG 1.1//EN"
 "http://www.w3.org/Graphics/SVG/1.1/DTD/svg11.dtd">
<!-- Generated by graphviz version 2.43.0 (0)
 -->
<!-- Title: %3 Pages: 1 -->
<svg width="1494pt" height="836pt"
 viewBox="0.00 0.00 1493.90 836.00" xmlns="http://www.w3.org/2000/svg" xmlns:xlink="http://www.w3.org/1999/xlink">
<g id="graph0" class="graph" transform="scale(1 1) rotate(0) translate(4 832)">
<title>%3</title>
<polygon fill="transparent" stroke="transparent" points="-4,4 -4,-832 1489.9,-832 1489.9,4 -4,4"/>
<!-- 3 -->
<g id="node1" class="node">
<title>3</title>
<g id="a_node1"><a xlink:title="stdbool.h">
<polygon fill="#ffffff" stroke="black" points="500.9,-108 417.9,-108 417.9,-72 500.9,-72 500.9,-108"/>
<text text-anchor="middle" x="459.4" y="-86.3" font-family="Times,serif" font-size="14.00">stdbool.h</text>
</a>
</g>
</g>
<!-- 27 -->
<g id="node2" class="node">
<title>27</title>
<g id="a_node2"><a xlink:title="refc_binary.h">
<polygon fill="#ffffff" stroke="black" points="982.4,-396 874.4,-396 874.4,-360 982.4,-360 982.4,-396"/>
<text text-anchor="middle" x="928.4" y="-374.3" font-family="Times,serif" font-size="14.00">refc_binary.h</text>
</a>
</g>
</g>
<!-- 27&#45;&gt;3 -->
<g id="edge1" class="edge">
<title>27&#45;&gt;3</title>
<g id="a_edge1"><a xlink:title="include">
<path fill="none" stroke="#1414ce" d="M885.82,-359.92C864.1,-350.49 837.64,-337.89 815.4,-324 750.53,-283.47 743.26,-261 681.4,-216 634.15,-181.62 622.38,-172.56 571.4,-144 551.15,-132.65 528.07,-121.45 508.15,-112.3"/>
<polygon fill="#1414ce" stroke="#1414ce" points="509.5,-109.06 498.94,-108.11 506.6,-115.43 509.5,-109.06"/>
</a>
</g>
</g>
<!-- 4 -->
<g id="node7" class="node">
<title>4</title>
<g id="a_node7"><a xlink:title="list.h">
<polygon fill="#ffffff" stroke="black" points="562.4,-180 508.4,-180 508.4,-144 562.4,-144 562.4,-180"/>
<text text-anchor="middle" x="535.4" y="-158.3" font-family="Times,serif" font-size="14.00">list.h</text>
</a>
</g>
</g>
<!-- 27&#45;&gt;4 -->
<g id="edge3" class="edge">
<title>27&#45;&gt;4</title>
<g id="a_edge3"><a xlink:title="include">
<path fill="none" stroke="#1414ce" d="M874.32,-362.46C870.97,-361.61 867.64,-360.79 864.4,-360 792.31,-342.47 758.12,-371.83 701.4,-324 661.78,-290.58 693.63,-253.07 657.4,-216 634.36,-192.42 599.08,-178.66 572.37,-171.1"/>
<polygon fill="#1414ce" stroke="#1414ce" points="573.16,-167.69 562.6,-168.49 571.36,-174.45 573.16,-167.69"/>
</a>
</g>
</g>
<!-- 13 -->
<g id="node9" class="node">
<title>13</title>
<g id="a_node9"><a xlink:title="stdlib.h">
<polygon fill="#ffffff" stroke="black" points="883.9,-108 812.9,-108 812.9,-72 883.9,-72 883.9,-108"/>
<text text-anchor="middle" x="848.4" y="-86.3" font-family="Times,serif" font-size="14.00">stdlib.h</text>
</a>
</g>
</g>
<!-- 27&#45;&gt;13 -->
<g id="edge2" class="edge">
<title>27&#45;&gt;13</title>
<g id="a_edge2"><a xlink:title="include">
<path fill="none" stroke="#1414ce" d="M875.72,-359.84C859.22,-351.7 842.87,-340.12 833.4,-324 794.76,-258.19 821.07,-163.17 837.69,-117.48"/>
<polygon fill="#1414ce" stroke="#1414ce" points="841.02,-118.59 841.27,-108 834.46,-116.12 841.02,-118.59"/>
</a>
</g>
</g>
<!-- 28 -->
<g id="node12" class="node">
<title>28</title>
<g id="a_node12"><a xlink:title="resources.h">
<polygon fill="#ffffff" stroke="black" points="942.4,-324 842.4,-324 842.4,-288 942.4,-288 942.4,-324"/>
<text text-anchor="middle" x="892.4" y="-302.3" font-family="Times,serif" font-size="14.00">resources.h</text>
</a>
</g>
</g>
<!-- 27&#45;&gt;28 -->
<g id="edge4" class="edge">
<title>27&#45;&gt;28</title>
<g id="a_edge4"><a xlink:title="include">
<path fill="none" stroke="#1414ce" d="M919.5,-359.7C915.41,-351.73 910.45,-342.1 905.91,-333.26"/>
<polygon fill="#1414ce" stroke="#1414ce" points="908.89,-331.4 901.2,-324.1 902.66,-334.6 908.89,-331.4"/>
</a>
</g>
</g>
<!-- 19 -->
<g id="node3" class="node">
<title>19</title>
<g id="a_node3"><a xlink:title="atom.h">
<polygon fill="#ffffff" stroke="black" points="185.4,-180 119.4,-180 119.4,-144 185.4,-144 185.4,-180"/>
<text text-anchor="middle" x="152.4" y="-158.3" font-family="Times,serif" font-size="14.00">atom.h</text>
</a>
</g>
</g>
<!-- 9 -->
<g id="node8" class="node">
<title>9</title>
<g id="a_node8"><a xlink:title="stdint.h">
<polygon fill="#ffffff" stroke="black" points="279.4,-36 207.4,-36 207.4,0 279.4,0 279.4,-36"/>
<text text-anchor="middle" x="243.4" y="-14.3" font-family="Times,serif" font-size="14.00">stdint.h</text>
</a>
</g>
</g>
<!-- 19&#45;&gt;9 -->
<g id="edge5" class="edge">
<title>19&#45;&gt;9</title>
<g id="a_edge5"><a xlink:title="include">
<path fill="none" stroke="#1414ce" d="M163.38,-143.87C179.16,-119.24 208.39,-73.64 226.82,-44.88"/>
<polygon fill="#1414ce" stroke="#1414ce" points="229.94,-46.5 232.39,-36.19 224.05,-42.72 229.94,-46.5"/>
</a>
</g>
</g>
<!-- 19&#45;&gt;13 -->
<g id="edge6" class="edge">
<title>19&#45;&gt;13</title>
<g id="a_edge6"><a xlink:title="include">
<path fill="none" stroke="#1414ce" d="M185.51,-157.67C298.87,-146.27 671.71,-108.77 802.54,-95.61"/>
<polygon fill="#1414ce" stroke="#1414ce" points="803.02,-99.08 812.62,-94.6 802.32,-92.12 803.02,-99.08"/>
</a>
</g>
</g>
<!-- 6 -->
<g id="node4" class="node">
<title>6</title>
<g id="a_node4"><a xlink:title="assert.h">
<polygon fill="#ffffff" stroke="black" points="1285.4,-36 1211.4,-36 1211.4,0 1285.4,0 1285.4,-36"/>
<text text-anchor="middle" x="1248.4" y="-14.3" font-family="Times,serif" font-size="14.00">assert.h</text>
</a>
</g>
</g>
<!-- 10 -->
<g id="node5" class="node">
<title>10</title>
<g id="a_node5"><a xlink:title="utils.h">
<polygon fill="#ffffff" stroke="black" points="1277.4,-180 1215.4,-180 1215.4,-144 1277.4,-144 1277.4,-180"/>
<text text-anchor="middle" x="1246.4" y="-158.3" font-family="Times,serif" font-size="14.00">utils.h</text>
</a>
</g>
</g>
<!-- 10&#45;&gt;13 -->
<g id="edge9" class="edge">
<title>10&#45;&gt;13</title>
<g id="a_edge9"><a xlink:title="include">
<path fill="none" stroke="#1414ce" d="M1215.23,-146.86C1212.28,-145.8 1209.31,-144.82 1206.4,-144 1096.82,-113.15 963.01,-99.42 894.17,-94.03"/>
<polygon fill="#1414ce" stroke="#1414ce" points="894.33,-90.53 884.09,-93.26 893.8,-97.51 894.33,-90.53"/>
</a>
</g>
</g>
<!-- 11 -->
<g id="node14" class="node">
<title>11</title>
<g id="a_node14"><a xlink:title="stddef.h">
<polygon fill="#ffffff" stroke="black" points="1406.4,-108 1332.4,-108 1332.4,-72 1406.4,-72 1406.4,-108"/>
<text text-anchor="middle" x="1369.4" y="-86.3" font-family="Times,serif" font-size="14.00">stddef.h</text>
</a>
</g>
</g>
<!-- 10&#45;&gt;11 -->
<g id="edge7" class="edge">
<title>10&#45;&gt;11</title>
<g id="a_edge7"><a xlink:title="include">
<path fill="none" stroke="#1414ce" d="M1276.49,-143.88C1292.72,-134.64 1312.95,-123.13 1330.37,-113.21"/>
<polygon fill="#1414ce" stroke="#1414ce" points="1332.24,-116.18 1339.2,-108.19 1328.78,-110.09 1332.24,-116.18"/>
</a>
</g>
</g>
<!-- 12 -->
<g id="node28" class="node">
<title>12</title>
<g id="a_node28"><a xlink:title="stdio.h">
<polygon fill="#ffffff" stroke="black" points="1293.9,-108 1228.9,-108 1228.9,-72 1293.9,-72 1293.9,-108"/>
<text text-anchor="middle" x="1261.4" y="-86.3" font-family="Times,serif" font-size="14.00">stdio.h</text>
</a>
</g>
</g>
<!-- 10&#45;&gt;12 -->
<g id="edge8" class="edge">
<title>10&#45;&gt;12</title>
<g id="a_edge8"><a xlink:title="include">
<path fill="none" stroke="#1414ce" d="M1250.11,-143.7C1251.76,-135.98 1253.75,-126.71 1255.59,-118.11"/>
<polygon fill="#1414ce" stroke="#1414ce" points="1259.07,-118.62 1257.74,-108.1 1252.22,-117.15 1259.07,-118.62"/>
</a>
</g>
</g>
<!-- 22 -->
<g id="node6" class="node">
<title>22</title>
<g id="a_node6"><a xlink:title="synclist.h">
<polygon fill="#ffffff" stroke="black" points="648.9,-252 563.9,-252 563.9,-216 648.9,-216 648.9,-252"/>
<text text-anchor="middle" x="606.4" y="-230.3" font-family="Times,serif" font-size="14.00">synclist.h</text>
</a>
</g>
</g>
<!-- 22&#45;&gt;4 -->
<g id="edge11" class="edge">
<title>22&#45;&gt;4</title>
<g id="a_edge11"><a xlink:title="include">
<path fill="none" stroke="#1414ce" d="M588.85,-215.7C580.17,-207.14 569.54,-196.66 560.06,-187.3"/>
<polygon fill="#1414ce" stroke="#1414ce" points="562.33,-184.63 552.75,-180.1 557.42,-189.62 562.33,-184.63"/>
</a>
</g>
</g>
<!-- 23 -->
<g id="node23" class="node">
<title>23</title>
<g id="a_node23"><a xlink:title="smp.h">
<polygon fill="#ffffff" stroke="black" points="422.4,-180 362.4,-180 362.4,-144 422.4,-144 422.4,-180"/>
<text text-anchor="middle" x="392.4" y="-158.3" font-family="Times,serif" font-size="14.00">smp.h</text>
</a>
</g>
</g>
<!-- 22&#45;&gt;23 -->
<g id="edge12" class="edge">
<title>22&#45;&gt;23</title>
<g id="a_edge12"><a xlink:title="include">
<path fill="none" stroke="#1414ce" d="M563.87,-219.09C525.49,-206.53 469.47,-188.21 432.02,-175.96"/>
<polygon fill="#1414ce" stroke="#1414ce" points="433.04,-172.61 422.45,-172.83 430.87,-179.26 433.04,-172.61"/>
</a>
</g>
</g>
<!-- 22&#45;&gt;12 -->
<g id="edge10" class="edge">
<title>22&#45;&gt;12</title>
<g id="a_edge10"><a xlink:title="include">
<path fill="none" stroke="#1414ce" d="M649.06,-227.06C748.29,-212.66 1002.03,-172.47 1218.94,-107.84"/>
<polygon fill="#1414ce" stroke="#1414ce" points="1220.02,-111.17 1228.59,-104.94 1218.01,-104.47 1220.02,-111.17"/>
</a>
</g>
</g>
<!-- 4&#45;&gt;3 -->
<g id="edge13" class="edge">
<title>4&#45;&gt;3</title>
<g id="a_edge13"><a xlink:title="include">
<path fill="none" stroke="#1414ce" d="M516.62,-143.7C507.23,-135.05 495.72,-124.45 485.49,-115.03"/>
<polygon fill="#1414ce" stroke="#1414ce" points="487.7,-112.3 477.97,-108.1 482.96,-117.45 487.7,-112.3"/>
</a>
</g>
</g>
<!-- 17 -->
<g id="node10" class="node">
<title>17</title>
<g id="a_node10"><a xlink:title="context.h">
<polygon fill="#ffffff" stroke="black" points="560.9,-684 477.9,-684 477.9,-648 560.9,-648 560.9,-684"/>
<text text-anchor="middle" x="519.4" y="-662.3" font-family="Times,serif" font-size="14.00">context.h</text>
</a>
</g>
</g>
<!-- 17&#45;&gt;4 -->
<g id="edge15" class="edge">
<title>17&#45;&gt;4</title>
<g id="a_edge15"><a xlink:title="include">
<path fill="none" stroke="#1414ce" d="M520.59,-647.96C522.34,-621.31 525.4,-568.15 525.4,-523 525.4,-523 525.4,-523 525.4,-377 525.4,-309.88 530.37,-231.05 533.31,-190.37"/>
<polygon fill="#1414ce" stroke="#1414ce" points="536.81,-190.42 534.06,-180.19 529.83,-189.9 536.81,-190.42"/>
</a>
</g>
</g>
<!-- 24 -->
<g id="node13" class="node">
<title>24</title>
<g id="a_node13"><a xlink:title="term.h">
<polygon fill="#ffffff" stroke="black" points="851.9,-468 786.9,-468 786.9,-432 851.9,-432 851.9,-468"/>
<text text-anchor="middle" x="819.4" y="-446.3" font-family="Times,serif" font-size="14.00">term.h</text>
</a>
</g>
</g>
<!-- 17&#45;&gt;24 -->
<g id="edge18" class="edge">
<title>17&#45;&gt;24</title>
<g id="a_edge18"><a xlink:title="include">
<path fill="none" stroke="#1414ce" d="M543.45,-647.85C596.99,-609.66 726.08,-517.57 786.8,-474.26"/>
<polygon fill="#1414ce" stroke="#1414ce" points="789.14,-476.89 795.25,-468.23 785.07,-471.19 789.14,-476.89"/>
</a>
</g>
</g>
<!-- 18 -->
<g id="node21" class="node">
<title>18</title>
<g id="a_node21"><a xlink:title="globalcontext.h">
<polygon fill="#ffffff" stroke="black" points="495.9,-612 368.9,-612 368.9,-576 495.9,-576 495.9,-612"/>
<text text-anchor="middle" x="432.4" y="-590.3" font-family="Times,serif" font-size="14.00">globalcontext.h</text>
</a>
</g>
</g>
<!-- 17&#45;&gt;18 -->
<g id="edge14" class="edge">
<title>17&#45;&gt;18</title>
<g id="a_edge14"><a xlink:title="include">
<path fill="none" stroke="#1414ce" d="M497.9,-647.7C486.94,-638.88 473.46,-628.03 461.58,-618.47"/>
<polygon fill="#1414ce" stroke="#1414ce" points="463.65,-615.65 453.66,-612.1 459.26,-621.1 463.65,-615.65"/>
</a>
</g>
</g>
<!-- 17&#45;&gt;23 -->
<g id="edge17" class="edge">
<title>17&#45;&gt;23</title>
<g id="a_edge17"><a xlink:title="include">
<path fill="none" stroke="#1414ce" d="M477.63,-661.18C404.13,-651.93 259.4,-621.24 259.4,-523 259.4,-523 259.4,-523 259.4,-377 259.4,-355.45 338.24,-240.23 374.52,-188.35"/>
<polygon fill="#1414ce" stroke="#1414ce" points="377.49,-190.21 380.37,-180.01 371.76,-186.19 377.49,-190.21"/>
</a>
</g>
</g>
<!-- 29 -->
<g id="node24" class="node">
<title>29</title>
<g id="a_node24"><a xlink:title="timer_list.h">
<polygon fill="#ffffff" stroke="black" points="317.4,-252 219.4,-252 219.4,-216 317.4,-216 317.4,-252"/>
<text text-anchor="middle" x="268.4" y="-230.3" font-family="Times,serif" font-size="14.00">timer_list.h</text>
</a>
</g>
</g>
<!-- 17&#45;&gt;29 -->
<g id="edge19" class="edge">
<title>17&#45;&gt;29</title>
<g id="a_edge19"><a xlink:title="include">
<path fill="none" stroke="#1414ce" d="M477.81,-663.2C408.57,-659.25 274.39,-647.13 245.4,-612 159.86,-508.33 226.05,-328.98 255.83,-261.6"/>
<polygon fill="#1414ce" stroke="#1414ce" points="259.18,-262.69 260.11,-252.14 252.8,-259.81 259.18,-262.69"/>
</a>
</g>
</g>
<!-- 2 -->
<g id="node26" class="node">
<title>2</title>
<g id="a_node26"><a xlink:title="mailbox.h">
<polygon fill="#ffffff" stroke="black" points="1030.4,-252 944.4,-252 944.4,-216 1030.4,-216 1030.4,-252"/>
<text text-anchor="middle" x="987.4" y="-230.3" font-family="Times,serif" font-size="14.00">mailbox.h</text>
</a>
</g>
</g>
<!-- 17&#45;&gt;2 -->
<g id="edge16" class="edge">
<title>17&#45;&gt;2</title>
<g id="a_edge16"><a xlink:title="include">
<path fill="none" stroke="#1414ce" d="M560.91,-665.7C714.02,-667.18 1238.4,-662.09 1238.4,-523 1238.4,-523 1238.4,-523 1238.4,-449 1238.4,-345.69 1113.76,-281.72 1040.14,-252.94"/>
<polygon fill="#1414ce" stroke="#1414ce" points="1041.14,-249.57 1030.55,-249.27 1038.64,-256.11 1041.14,-249.57"/>
</a>
</g>
</g>
<!-- 14 -->
<g id="node11" class="node">
<title>14</title>
<g id="a_node11"><a xlink:title="memory.h">
<polygon fill="#ffffff" stroke="black" points="1134.4,-252 1048.4,-252 1048.4,-216 1134.4,-216 1134.4,-252"/>
<text text-anchor="middle" x="1091.4" y="-230.3" font-family="Times,serif" font-size="14.00">memory.h</text>
</a>
</g>
</g>
<!-- 14&#45;&gt;10 -->
<g id="edge24" class="edge">
<title>14&#45;&gt;10</title>
<g id="a_edge24"><a xlink:title="include">
<path fill="none" stroke="#1414ce" d="M1129.32,-215.88C1152.56,-205.38 1182.29,-191.96 1205.97,-181.26"/>
<polygon fill="#1414ce" stroke="#1414ce" points="1207.71,-184.31 1215.38,-177.01 1204.83,-177.93 1207.71,-184.31"/>
</a>
</g>
</g>
<!-- 14&#45;&gt;9 -->
<g id="edge20" class="edge">
<title>14&#45;&gt;9</title>
<g id="a_edge20"><a xlink:title="include">
<path fill="none" stroke="#1414ce" d="M1077.1,-215.84C1047.08,-181.24 973.52,-103.72 892.4,-72 782.45,-29 419.86,-20.89 290.1,-19.36"/>
<polygon fill="#1414ce" stroke="#1414ce" points="289.76,-15.85 279.72,-19.24 289.68,-22.85 289.76,-15.85"/>
</a>
</g>
</g>
<!-- 14&#45;&gt;13 -->
<g id="edge21" class="edge">
<title>14&#45;&gt;13</title>
<g id="a_edge21"><a xlink:title="include">
<path fill="none" stroke="#1414ce" d="M1062.09,-215.87C1018.12,-190.18 935.08,-141.65 886.48,-113.25"/>
<polygon fill="#1414ce" stroke="#1414ce" points="888.22,-110.21 877.82,-108.19 884.69,-116.26 888.22,-110.21"/>
</a>
</g>
</g>
<!-- 15 -->
<g id="node15" class="node">
<title>15</title>
<g id="a_node15"><a xlink:title="erl_nif.h">
<polygon fill="#ffffff" stroke="black" points="1197.4,-180 1123.4,-180 1123.4,-144 1197.4,-144 1197.4,-180"/>
<text text-anchor="middle" x="1160.4" y="-158.3" font-family="Times,serif" font-size="14.00">erl_nif.h</text>
</a>
</g>
</g>
<!-- 14&#45;&gt;15 -->
<g id="edge22" class="edge">
<title>14&#45;&gt;15</title>
<g id="a_edge22"><a xlink:title="include">
<path fill="none" stroke="#1414ce" d="M1108.46,-215.7C1116.9,-207.14 1127.23,-196.66 1136.45,-187.3"/>
<polygon fill="#1414ce" stroke="#1414ce" points="1139.02,-189.68 1143.54,-180.1 1134.03,-184.77 1139.02,-189.68"/>
</a>
</g>
</g>
<!-- 5 -->
<g id="node20" class="node">
<title>5</title>
<g id="a_node20"><a xlink:title="term_typedef.h">
<polygon fill="#ffffff" stroke="black" points="1210.9,-108 1085.9,-108 1085.9,-72 1210.9,-72 1210.9,-108"/>
<text text-anchor="middle" x="1148.4" y="-86.3" font-family="Times,serif" font-size="14.00">term_typedef.h</text>
</a>
</g>
</g>
<!-- 14&#45;&gt;5 -->
<g id="edge23" class="edge">
<title>14&#45;&gt;5</title>
<g id="a_edge23"><a xlink:title="include">
<path fill="none" stroke="#1414ce" d="M1094.18,-215.74C1097.52,-197.4 1104,-167.84 1114.4,-144 1118.49,-134.63 1124.13,-125.03 1129.64,-116.63"/>
<polygon fill="#1414ce" stroke="#1414ce" points="1132.54,-118.59 1135.27,-108.36 1126.75,-114.66 1132.54,-118.59"/>
</a>
</g>
</g>
<!-- 28&#45;&gt;22 -->
<g id="edge29" class="edge">
<title>28&#45;&gt;22</title>
<g id="a_edge29"><a xlink:title="include">
<path fill="none" stroke="#1414ce" d="M842.26,-292.73C790.79,-280.13 711.04,-260.61 658.77,-247.82"/>
<polygon fill="#1414ce" stroke="#1414ce" points="659.57,-244.41 649.02,-245.43 657.9,-251.21 659.57,-244.41"/>
</a>
</g>
</g>
<!-- 28&#45;&gt;4 -->
<g id="edge27" class="edge">
<title>28&#45;&gt;4</title>
<g id="a_edge27"><a xlink:title="include">
<path fill="none" stroke="#1414ce" d="M856.5,-287.94C816.61,-269.25 750.06,-238.9 691.4,-216 651.13,-200.28 604.04,-184.65 572.21,-174.48"/>
<polygon fill="#1414ce" stroke="#1414ce" points="573.03,-171.07 562.44,-171.38 570.91,-177.74 573.03,-171.07"/>
</a>
</g>
</g>
<!-- 28&#45;&gt;13 -->
<g id="edge25" class="edge">
<title>28&#45;&gt;13</title>
<g id="a_edge25"><a xlink:title="include">
<path fill="none" stroke="#1414ce" d="M877.05,-287.69C869.37,-277.92 860.78,-265.08 856.4,-252 841.31,-206.94 842.72,-150.82 845.38,-118.14"/>
<polygon fill="#1414ce" stroke="#1414ce" points="848.88,-118.28 846.31,-108.01 841.91,-117.64 848.88,-118.28"/>
</a>
</g>
</g>
<!-- 28&#45;&gt;14 -->
<g id="edge28" class="edge">
<title>28&#45;&gt;14</title>
<g id="a_edge28"><a xlink:title="include">
<path fill="none" stroke="#1414ce" d="M940.83,-287.97C970.42,-277.56 1008.27,-264.24 1038.62,-253.57"/>
<polygon fill="#1414ce" stroke="#1414ce" points="1039.92,-256.82 1048.19,-250.2 1037.6,-250.22 1039.92,-256.82"/>
</a>
</g>
</g>
<!-- 28&#45;&gt;15 -->
<g id="edge26" class="edge">
<title>28&#45;&gt;15</title>
<g id="a_edge26"><a xlink:title="include">
<path fill="none" stroke="#1414ce" d="M896,-287.8C901.15,-267.51 912.65,-234.25 935.4,-216 986.4,-175.09 1063.61,-164.79 1113.02,-162.7"/>
<polygon fill="#1414ce" stroke="#1414ce" points="1113.24,-166.19 1123.12,-162.37 1113.01,-159.2 1113.24,-166.19"/>
</a>
</g>
</g>
<!-- 24&#45;&gt;3 -->
<g id="edge31" class="edge">
<title>24&#45;&gt;3</title>
<g id="a_edge31"><a xlink:title="include">
<path fill="none" stroke="#1414ce" d="M786.79,-444.3C752.23,-438.02 697.36,-424.23 658.4,-396 556.05,-321.82 492.19,-177.47 469.13,-117.81"/>
<polygon fill="#1414ce" stroke="#1414ce" points="472.36,-116.44 465.54,-108.33 465.81,-118.92 472.36,-116.44"/>
</a>
</g>
</g>
<!-- 24&#45;&gt;27 -->
<g id="edge37" class="edge">
<title>24&#45;&gt;27</title>
<g id="a_edge37"><a xlink:title="include">
<path fill="none" stroke="#1414ce" d="M846.07,-431.88C860.19,-422.81 877.72,-411.55 892.96,-401.76"/>
<polygon fill="#1414ce" stroke="#1414ce" points="895.11,-404.54 901.64,-396.19 891.33,-398.65 895.11,-404.54"/>
</a>
</g>
</g>
<!-- 24&#45;&gt;10 -->
<g id="edge38" class="edge">
<title>24&#45;&gt;10</title>
<g id="a_edge38"><a xlink:title="include">
<path fill="none" stroke="#1414ce" d="M851.99,-448.08C899.42,-445.38 988.75,-435.03 1052.4,-396 1138.85,-342.99 1205.06,-237.81 1232.53,-189"/>
<polygon fill="#1414ce" stroke="#1414ce" points="1235.72,-190.47 1237.5,-180.02 1229.59,-187.07 1235.72,-190.47"/>
</a>
</g>
</g>
<!-- 24&#45;&gt;9 -->
<g id="edge32" class="edge">
<title>24&#45;&gt;9</title>
<g id="a_edge32"><a xlink:title="include">
<path fill="none" stroke="#1414ce" d="M786.83,-445.48C655.98,-430.59 171.35,-368.22 82.4,-252 25.18,-177.23 143.65,-83.95 206.99,-41.68"/>
<polygon fill="#1414ce" stroke="#1414ce" points="209.1,-44.48 215.54,-36.07 205.26,-38.63 209.1,-44.48"/>
</a>
</g>
</g>
<!-- 24&#45;&gt;13 -->
<g id="edge34" class="edge">
<title>24&#45;&gt;13</title>
<g id="a_edge34"><a xlink:title="include">
<path fill="none" stroke="#1414ce" d="M852.15,-449.6C892.42,-448.35 959.39,-439.36 991.4,-396 1000.91,-383.13 995.27,-375.52 991.4,-360 989.76,-353.4 898.28,-183.44 862.51,-117.14"/>
<polygon fill="#1414ce" stroke="#1414ce" points="865.49,-115.28 857.66,-108.14 859.33,-118.61 865.49,-115.28"/>
</a>
</g>
</g>
<!-- 24&#45;&gt;14 -->
<g id="edge36" class="edge">
<title>24&#45;&gt;14</title>
<g id="a_edge36"><a xlink:title="include">
<path fill="none" stroke="#1414ce" d="M852.26,-449.14C896.52,-447.6 975.4,-438.52 1024.4,-396 1064.5,-361.2 1081.1,-298.53 1087.58,-262.5"/>
<polygon fill="#1414ce" stroke="#1414ce" points="1091.1,-262.68 1089.28,-252.24 1084.2,-261.53 1091.1,-262.68"/>
</a>
</g>
</g>
<!-- 25 -->
<g id="node18" class="node">
<title>25</title>
<g id="a_node18"><a xlink:title="sys/types.h">
<polygon fill="#ffffff" stroke="black" points="764.9,-396 667.9,-396 667.9,-360 764.9,-360 764.9,-396"/>
<text text-anchor="middle" x="716.4" y="-374.3" font-family="Times,serif" font-size="14.00">sys/types.h</text>
</a>
</g>
</g>
<!-- 24&#45;&gt;25 -->
<g id="edge30" class="edge">
<title>24&#45;&gt;25</title>
<g id="a_edge30"><a xlink:title="include">
<path fill="none" stroke="#1414ce" d="M794.21,-431.88C780.99,-422.89 764.61,-411.76 750.3,-402.03"/>
<polygon fill="#1414ce" stroke="#1414ce" points="751.94,-398.92 741.7,-396.19 748,-404.71 751.94,-398.92"/>
</a>
</g>
</g>
<!-- 26 -->
<g id="node19" class="node">
<title>26</title>
<g id="a_node19"><a xlink:title="string.h">
<polygon fill="#ffffff" stroke="black" points="855.9,-396 782.9,-396 782.9,-360 855.9,-360 855.9,-396"/>
<text text-anchor="middle" x="819.4" y="-374.3" font-family="Times,serif" font-size="14.00">string.h</text>
</a>
</g>
</g>
<!-- 24&#45;&gt;26 -->
<g id="edge35" class="edge">
<title>24&#45;&gt;26</title>
<g id="a_edge35"><a xlink:title="include">
<path fill="none" stroke="#1414ce" d="M819.4,-431.7C819.4,-423.98 819.4,-414.71 819.4,-406.11"/>
<polygon fill="#1414ce" stroke="#1414ce" points="822.9,-406.1 819.4,-396.1 815.9,-406.1 822.9,-406.1"/>
</a>
</g>
</g>
<!-- 24&#45;&gt;5 -->
<g id="edge39" class="edge">
<title>24&#45;&gt;5</title>
<g id="a_edge39"><a xlink:title="include">
<path fill="none" stroke="#1414ce" d="M852.13,-446.89C898.96,-442.72 986.69,-430.59 1052.4,-396 1177.65,-330.07 1229.64,-309.65 1286.4,-180 1292.82,-165.34 1295.47,-157.19 1286.4,-144 1278.11,-131.93 1249.8,-120.09 1220.95,-110.68"/>
<polygon fill="#1414ce" stroke="#1414ce" points="1221.77,-107.26 1211.18,-107.58 1219.66,-113.94 1221.77,-107.26"/>
</a>
</g>
</g>
<!-- 24&#45;&gt;12 -->
<g id="edge33" class="edge">
<title>24&#45;&gt;12</title>
<g id="a_edge33"><a xlink:title="include">
<path fill="none" stroke="#1414ce" d="M852.21,-447.56C904.76,-444.18 1010.05,-432.97 1090.4,-396 1184.11,-352.88 1210.14,-334.23 1272.4,-252 1302.48,-212.28 1318.51,-191.14 1302.4,-144 1298.96,-133.93 1292.74,-124.28 1286.17,-116.05"/>
<polygon fill="#1414ce" stroke="#1414ce" points="1288.73,-113.65 1279.57,-108.32 1283.41,-118.2 1288.73,-113.65"/>
</a>
</g>
</g>
<!-- 15&#45;&gt;5 -->
<g id="edge40" class="edge">
<title>15&#45;&gt;5</title>
<g id="a_edge40"><a xlink:title="include">
<path fill="none" stroke="#1414ce" d="M1157.44,-143.7C1156.12,-135.98 1154.53,-126.71 1153.05,-118.11"/>
<polygon fill="#1414ce" stroke="#1414ce" points="1156.48,-117.37 1151.34,-108.1 1149.58,-118.55 1156.48,-117.37"/>
</a>
</g>
</g>
<!-- 7 -->
<g id="node16" class="node">
<title>7</title>
<g id="a_node16"><a xlink:title="limits.h">
<polygon fill="#ffffff" stroke="black" points="1085.9,-36 1014.9,-36 1014.9,0 1085.9,0 1085.9,-36"/>
<text text-anchor="middle" x="1050.4" y="-14.3" font-family="Times,serif" font-size="14.00">limits.h</text>
</a>
</g>
</g>
<!-- 20 -->
<g id="node17" class="node">
<title>20</title>
<g id="a_node17"><a xlink:title="atom_table.h">
<polygon fill="#ffffff" stroke="black" points="200.9,-252 91.9,-252 91.9,-216 200.9,-216 200.9,-252"/>
<text text-anchor="middle" x="146.4" y="-230.3" font-family="Times,serif" font-size="14.00">atom_table.h</text>
</a>
</g>
</g>
<!-- 20&#45;&gt;3 -->
<g id="edge41" class="edge">
<title>20&#45;&gt;3</title>
<g id="a_edge41"><a xlink:title="include">
<path fill="none" stroke="#1414ce" d="M174.27,-215.99C206.18,-196.94 260.38,-165.88 309.4,-144 341.47,-129.69 378.68,-116.52 408.02,-106.89"/>
<polygon fill="#1414ce" stroke="#1414ce" points="409.21,-110.18 417.64,-103.77 407.05,-103.53 409.21,-110.18"/>
</a>
</g>
</g>
<!-- 20&#45;&gt;19 -->
<g id="edge42" class="edge">
<title>20&#45;&gt;19</title>
<g id="a_edge42"><a xlink:title="include">
<path fill="none" stroke="#1414ce" d="M147.89,-215.7C148.55,-207.98 149.34,-198.71 150.08,-190.11"/>
<polygon fill="#1414ce" stroke="#1414ce" points="153.57,-190.37 150.94,-180.1 146.6,-189.77 153.57,-190.37"/>
</a>
</g>
</g>
<!-- 5&#45;&gt;6 -->
<g id="edge43" class="edge">
<title>5&#45;&gt;6</title>
<g id="a_edge43"><a xlink:title="include">
<path fill="none" stroke="#1414ce" d="M1172.87,-71.88C1185.7,-62.89 1201.6,-51.76 1215.5,-42.03"/>
<polygon fill="#1414ce" stroke="#1414ce" points="1217.66,-44.79 1223.85,-36.19 1213.65,-39.06 1217.66,-44.79"/>
</a>
</g>
</g>
<!-- 5&#45;&gt;9 -->
<g id="edge46" class="edge">
<title>5&#45;&gt;9</title>
<g id="a_edge46"><a xlink:title="include">
<path fill="none" stroke="#1414ce" d="M1085.51,-74.29C1080.76,-73.43 1076.01,-72.65 1071.4,-72 775.58,-30.13 415.57,-21.31 289.58,-19.48"/>
<polygon fill="#1414ce" stroke="#1414ce" points="289.56,-15.98 279.52,-19.34 289.47,-22.98 289.56,-15.98"/>
</a>
</g>
</g>
<!-- 5&#45;&gt;7 -->
<g id="edge44" class="edge">
<title>5&#45;&gt;7</title>
<g id="a_edge44"><a xlink:title="include">
<path fill="none" stroke="#1414ce" d="M1124.43,-71.88C1111.85,-62.89 1096.27,-51.76 1082.65,-42.03"/>
<polygon fill="#1414ce" stroke="#1414ce" points="1084.64,-39.15 1074.47,-36.19 1080.57,-44.85 1084.64,-39.15"/>
</a>
</g>
</g>
<!-- 8 -->
<g id="node30" class="node">
<title>8</title>
<g id="a_node30"><a xlink:title="inttypes.h">
<polygon fill="#ffffff" stroke="black" points="1192.9,-36 1103.9,-36 1103.9,0 1192.9,0 1192.9,-36"/>
<text text-anchor="middle" x="1148.4" y="-14.3" font-family="Times,serif" font-size="14.00">inttypes.h</text>
</a>
</g>
</g>
<!-- 5&#45;&gt;8 -->
<g id="edge45" class="edge">
<title>5&#45;&gt;8</title>
<g id="a_edge45"><a xlink:title="include">
<path fill="none" stroke="#1414ce" d="M1148.4,-71.7C1148.4,-63.98 1148.4,-54.71 1148.4,-46.11"/>
<polygon fill="#1414ce" stroke="#1414ce" points="1151.9,-46.1 1148.4,-36.1 1144.9,-46.1 1151.9,-46.1"/>
</a>
</g>
</g>
<!-- 18&#45;&gt;19 -->
<g id="edge48" class="edge">
<title>18&#45;&gt;19</title>
<g id="a_edge48"><a xlink:title="include">
<path fill="none" stroke="#1414ce" d="M368.8,-590.96C310.61,-586.8 223.6,-574.69 156.4,-540 105.57,-513.76 63.4,-508.21 63.4,-451 63.4,-451 63.4,-451 63.4,-305 63.4,-264.55 60.7,-250.13 82.4,-216 89.9,-204.21 101,-194.07 112.16,-185.91"/>
<polygon fill="#1414ce" stroke="#1414ce" points="114.4,-188.62 120.65,-180.06 110.43,-182.85 114.4,-188.62"/>
</a>
</g>
</g>
<!-- 18&#45;&gt;22 -->
<g id="edge55" class="edge">
<title>18&#45;&gt;22</title>
<g id="a_edge55"><a xlink:title="include">
<path fill="none" stroke="#1414ce" d="M445.13,-575.78C452.37,-565.63 461.37,-552.38 468.4,-540 520.79,-447.88 526.61,-420.95 569.4,-324 578.55,-303.27 588.38,-279.57 595.6,-261.84"/>
<polygon fill="#1414ce" stroke="#1414ce" points="599.01,-262.74 599.53,-252.16 592.53,-260.11 599.01,-262.74"/>
</a>
</g>
</g>
<!-- 18&#45;&gt;4 -->
<g id="edge52" class="edge">
<title>18&#45;&gt;4</title>
<g id="a_edge52"><a xlink:title="include">
<path fill="none" stroke="#1414ce" d="M418.45,-575.76C410.99,-565.81 402.18,-552.77 396.4,-540 379.57,-502.78 373.4,-491.86 373.4,-451 373.4,-451 373.4,-451 373.4,-377 373.4,-293.04 453.66,-221.26 501.19,-186.1"/>
<polygon fill="#1414ce" stroke="#1414ce" points="503.33,-188.87 509.38,-180.17 499.22,-183.2 503.33,-188.87"/>
</a>
</g>
</g>
<!-- 18&#45;&gt;9 -->
<g id="edge47" class="edge">
<title>18&#45;&gt;9</title>
<g id="a_edge47"><a xlink:title="include">
<path fill="none" stroke="#1414ce" d="M368.81,-591.12C280.13,-587.23 125.48,-575.43 83.4,-540 -51.31,-426.56 3.8,-307.43 69.4,-144 84.11,-107.37 90.65,-96.75 121.4,-72 143.78,-54 173.21,-40.98 197.55,-32.35"/>
<polygon fill="#1414ce" stroke="#1414ce" points="198.96,-35.57 207.3,-29.03 196.7,-28.94 198.96,-35.57"/>
</a>
</g>
</g>
<!-- 18&#45;&gt;24 -->
<g id="edge56" class="edge">
<title>18&#45;&gt;24</title>
<g id="a_edge56"><a xlink:title="include">
<path fill="none" stroke="#1414ce" d="M479.09,-575.87C554.93,-548.04 703.77,-493.43 776.86,-466.61"/>
<polygon fill="#1414ce" stroke="#1414ce" points="778.47,-469.75 786.65,-463.02 776.06,-463.18 778.47,-469.75"/>
</a>
</g>
</g>
<!-- 18&#45;&gt;15 -->
<g id="edge50" class="edge">
<title>18&#45;&gt;15</title>
<g id="a_edge50"><a xlink:title="include">
<path fill="none" stroke="#1414ce" d="M496.15,-586.36C562.62,-578.58 669.44,-563.66 759.4,-540 914.56,-499.19 984.83,-516.79 1090.4,-396 1142.88,-335.96 1156.03,-237.75 1159.31,-190.33"/>
<polygon fill="#1414ce" stroke="#1414ce" points="1162.82,-190.4 1159.92,-180.21 1155.83,-189.99 1162.82,-190.4"/>
</a>
</g>
</g>
<!-- 18&#45;&gt;20 -->
<g id="edge49" class="edge">
<title>18&#45;&gt;20</title>
<g id="a_edge49"><a xlink:title="include">
<path fill="none" stroke="#1414ce" d="M368.83,-589.65C282.65,-581.29 139.4,-552.18 139.4,-451 139.4,-451 139.4,-451 139.4,-377 139.4,-336.95 142.22,-290.62 144.28,-262.06"/>
<polygon fill="#1414ce" stroke="#1414ce" points="147.77,-262.27 145.02,-252.04 140.79,-261.75 147.77,-262.27"/>
</a>
</g>
</g>
<!-- 18&#45;&gt;23 -->
<g id="edge54" class="edge">
<title>18&#45;&gt;23</title>
<g id="a_edge54"><a xlink:title="include">
<path fill="none" stroke="#1414ce" d="M399.66,-575.98C385.39,-567.04 369.62,-554.83 359.4,-540 336.17,-506.26 335.4,-491.97 335.4,-451 335.4,-451 335.4,-451 335.4,-377 335.4,-340.12 367.42,-238.33 383.46,-189.63"/>
<polygon fill="#1414ce" stroke="#1414ce" points="386.8,-190.68 386.62,-180.09 380.16,-188.48 386.8,-190.68"/>
</a>
</g>
</g>
<!-- 18&#45;&gt;29 -->
<g id="edge57" class="edge">
<title>18&#45;&gt;29</title>
<g id="a_edge57"><a xlink:title="include">
<path fill="none" stroke="#1414ce" d="M373.63,-575.98C354.6,-567.85 334.93,-556.25 321.4,-540 295.19,-508.52 297.4,-491.97 297.4,-451 297.4,-451 297.4,-451 297.4,-377 297.4,-336.21 285.78,-290.15 277.25,-261.84"/>
<polygon fill="#1414ce" stroke="#1414ce" points="280.58,-260.77 274.27,-252.26 273.89,-262.84 280.58,-260.77"/>
</a>
</g>
</g>
<!-- 18&#45;&gt;2 -->
<g id="edge53" class="edge">
<title>18&#45;&gt;2</title>
<g id="a_edge53"><a xlink:title="include">
<path fill="none" stroke="#1414ce" d="M496.02,-581.51C633.92,-555.09 952.49,-485.38 1008.4,-396 1034.39,-354.46 1015.4,-295.09 1000.53,-261.27"/>
<polygon fill="#1414ce" stroke="#1414ce" points="1003.65,-259.67 996.3,-252.04 997.29,-262.59 1003.65,-259.67"/>
</a>
</g>
</g>
<!-- 21 -->
<g id="node29" class="node">
<title>21</title>
<g id="a_node29"><a xlink:title="ets.h">
<polygon fill="#ffffff" stroke="black" points="459.4,-540 405.4,-540 405.4,-504 459.4,-504 459.4,-540"/>
<text text-anchor="middle" x="432.4" y="-518.3" font-family="Times,serif" font-size="14.00">ets.h</text>
</a>
</g>
</g>
<!-- 18&#45;&gt;21 -->
<g id="edge51" class="edge">
<title>18&#45;&gt;21</title>
<g id="a_edge51"><a xlink:title="include">
<path fill="none" stroke="#1414ce" d="M432.4,-575.7C432.4,-567.98 432.4,-558.71 432.4,-550.11"/>
<polygon fill="#1414ce" stroke="#1414ce" points="435.9,-550.1 432.4,-540.1 428.9,-550.1 435.9,-550.1"/>
</a>
</g>
</g>
<!-- 16 -->
<g id="node22" class="node">
<title>16</title>
<g id="a_node22"><a xlink:title="scheduler.h">
<polygon fill="#ffffff" stroke="black" points="568.4,-756 470.4,-756 470.4,-720 568.4,-720 568.4,-756"/>
<text text-anchor="middle" x="519.4" y="-734.3" font-family="Times,serif" font-size="14.00">scheduler.h</text>
</a>
</g>
</g>
<!-- 16&#45;&gt;17 -->
<g id="edge58" class="edge">
<title>16&#45;&gt;17</title>
<g id="a_edge58"><a xlink:title="include">
<path fill="none" stroke="#1414ce" d="M519.4,-719.7C519.4,-711.98 519.4,-702.71 519.4,-694.11"/>
<polygon fill="#1414ce" stroke="#1414ce" points="522.9,-694.1 519.4,-684.1 515.9,-694.1 522.9,-694.1"/>
</a>
</g>
</g>
<!-- 16&#45;&gt;18 -->
<g id="edge59" class="edge">
<title>16&#45;&gt;18</title>
<g id="a_edge59"><a xlink:title="include">
<path fill="none" stroke="#1414ce" d="M499.58,-719.85C489.25,-710.14 477.02,-697.29 468.4,-684 455.91,-664.74 446.44,-640.44 440.36,-622.1"/>
<polygon fill="#1414ce" stroke="#1414ce" points="443.62,-620.8 437.25,-612.34 436.95,-622.93 443.62,-620.8"/>
</a>
</g>
</g>
<!-- 23&#45;&gt;3 -->
<g id="edge60" class="edge">
<title>23&#45;&gt;3</title>
<g id="a_edge60"><a xlink:title="include">
<path fill="none" stroke="#1414ce" d="M408.97,-143.7C417.08,-135.22 426.99,-124.86 435.87,-115.58"/>
<polygon fill="#1414ce" stroke="#1414ce" points="438.65,-117.75 443.03,-108.1 433.59,-112.91 438.65,-117.75"/>
</a>
</g>
</g>
<!-- 29&#45;&gt;3 -->
<g id="edge61" class="edge">
<title>29&#45;&gt;3</title>
<g id="a_edge61"><a xlink:title="include">
<path fill="none" stroke="#1414ce" d="M281.67,-215.89C297.27,-196.61 324.7,-165.19 353.4,-144 370.18,-131.62 390.28,-120.73 408.45,-112.1"/>
<polygon fill="#1414ce" stroke="#1414ce" points="410.14,-115.17 417.75,-107.79 407.2,-108.82 410.14,-115.17"/>
</a>
</g>
</g>
<!-- 29&#45;&gt;4 -->
<g id="edge63" class="edge">
<title>29&#45;&gt;4</title>
<g id="a_edge63"><a xlink:title="include">
<path fill="none" stroke="#1414ce" d="M317.69,-220.08C369.91,-206.39 451.19,-185.08 498.26,-172.74"/>
<polygon fill="#1414ce" stroke="#1414ce" points="499.26,-176.09 508.04,-170.17 497.48,-169.32 499.26,-176.09"/>
</a>
</g>
</g>
<!-- 29&#45;&gt;9 -->
<g id="edge62" class="edge">
<title>29&#45;&gt;9</title>
<g id="a_edge62"><a xlink:title="include">
<path fill="none" stroke="#1414ce" d="M266.4,-215.85C262.08,-178.83 251.84,-91.18 246.6,-46.39"/>
<polygon fill="#1414ce" stroke="#1414ce" points="250.05,-45.76 245.42,-36.23 243.1,-46.57 250.05,-45.76"/>
</a>
</g>
</g>
<!-- 1 -->
<g id="node25" class="node">
<title>1</title>
<g id="a_node25"><a xlink:title="/__w/AtomVM/AtomVM/src/libAtomVM/mailbox.c">
<polygon fill="#bfbfbf" stroke="black" points="1476.4,-828 1114.4,-828 1114.4,-792 1476.4,-792 1476.4,-828"/>
<text text-anchor="middle" x="1295.4" y="-806.3" font-family="Times,serif" font-size="14.00">/__w/AtomVM/AtomVM/src/libAtomVM/mailbox.c</text>
</a>
</g>
</g>
<!-- 1&#45;&gt;22 -->
<g id="edge68" class="edge">
<title>1&#45;&gt;22</title>
<g id="a_edge68"><a xlink:title="include">
<path fill="none" stroke="#1414ce" d="M1249.2,-791.89C1132.37,-746.28 822.78,-610.44 658.4,-396 627.61,-355.82 614.71,-296.77 609.57,-262.47"/>
<polygon fill="#1414ce" stroke="#1414ce" points="612.99,-261.68 608.16,-252.26 606.06,-262.64 612.99,-261.68"/>
</a>
</g>
</g>
<!-- 1&#45;&gt;14 -->
<g id="edge66" class="edge">
<title>1&#45;&gt;14</title>
<g id="a_edge66"><a xlink:title="include">
<path fill="none" stroke="#1414ce" d="M1299.25,-791.61C1304.8,-764.94 1314.4,-712.27 1314.4,-667 1314.4,-667 1314.4,-667 1314.4,-449 1314.4,-372.32 1310.97,-337.49 1252.4,-288 1248.03,-284.31 1189.51,-265.53 1144.27,-251.36"/>
<polygon fill="#1414ce" stroke="#1414ce" points="1145.14,-247.97 1134.55,-248.33 1143.05,-254.65 1145.14,-247.97"/>
</a>
</g>
</g>
<!-- 1&#45;&gt;11 -->
<g id="edge65" class="edge">
<title>1&#45;&gt;11</title>
<g id="a_edge65"><a xlink:title="include">
<path fill="none" stroke="#1414ce" d="M1316.96,-791.78C1344.99,-767.28 1390.4,-719.5 1390.4,-667 1390.4,-667 1390.4,-667 1390.4,-233 1390.4,-192.78 1382.06,-146.84 1375.89,-118.37"/>
<polygon fill="#1414ce" stroke="#1414ce" points="1379.25,-117.36 1373.65,-108.37 1372.42,-118.89 1379.25,-117.36"/>
</a>
</g>
</g>
<!-- 1&#45;&gt;16 -->
<g id="edge67" class="edge">
<title>1&#45;&gt;16</title>
<g id="a_edge67"><a xlink:title="include">
<path fill="none" stroke="#1414ce" d="M1113.96,-792.63C941.3,-777.06 691.62,-754.54 578.76,-744.35"/>
<polygon fill="#1414ce" stroke="#1414ce" points="578.87,-740.85 568.6,-743.44 578.24,-747.82 578.87,-740.85"/>
</a>
</g>
</g>
<!-- 1&#45;&gt;2 -->
<g id="edge64" class="edge">
<title>1&#45;&gt;2</title>
<g id="a_edge64"><a xlink:title="include">
<path fill="none" stroke="#1414ce" d="M1291.56,-791.61C1286.01,-764.94 1276.4,-712.27 1276.4,-667 1276.4,-667 1276.4,-667 1276.4,-449 1276.4,-359.76 1232.86,-334.03 1156.4,-288 1112.34,-261.47 1093.37,-267.63 1040.11,-252.08"/>
<polygon fill="#1414ce" stroke="#1414ce" points="1041.1,-248.73 1030.52,-249.16 1039.06,-255.42 1041.1,-248.73"/>
</a>
</g>
</g>
<!-- 30 -->
<g id="node27" class="node">
<title>30</title>
<g id="a_node27"><a xlink:title="trace.h">
<polygon fill="#ffffff" stroke="black" points="1485.9,-756 1418.9,-756 1418.9,-720 1485.9,-720 1485.9,-756"/>
<text text-anchor="middle" x="1452.4" y="-734.3" font-family="Times,serif" font-size="14.00">trace.h</text>
</a>
</g>
</g>
<!-- 1&#45;&gt;30 -->
<g id="edge69" class="edge">
<title>1&#45;&gt;30</title>
<g id="a_edge69"><a xlink:title="include">
<path fill="none" stroke="#1414ce" d="M1333.81,-791.88C1356.63,-781.7 1385.63,-768.77 1409.24,-758.25"/>
<polygon fill="#1414ce" stroke="#1414ce" points="1410.95,-761.31 1418.66,-754.05 1408.1,-754.92 1410.95,-761.31"/>
</a>
</g>
</g>
<!-- 2&#45;&gt;3 -->
<g id="edge70" class="edge">
<title>2&#45;&gt;3</title>
<g id="a_edge70"><a xlink:title="include">
<path fill="none" stroke="#1414ce" d="M944.15,-216.02C893.36,-196.56 806.27,-164.7 729.4,-144 654.44,-123.82 565.83,-107.9 511.12,-98.97"/>
<polygon fill="#1414ce" stroke="#1414ce" points="511.41,-95.47 500.98,-97.33 510.29,-102.38 511.41,-95.47"/>
</a>
</g>
</g>
<!-- 2&#45;&gt;10 -->
<g id="edge73" class="edge">
<title>2&#45;&gt;10</title>
<g id="a_edge73"><a xlink:title="include">
<path fill="none" stroke="#1414ce" d="M1030.43,-218.55C1033.46,-217.65 1036.47,-216.79 1039.4,-216 1109.69,-196.99 1132.19,-202.44 1205.48,-179.98"/>
<polygon fill="#1414ce" stroke="#1414ce" points="1206.68,-183.27 1215.17,-176.94 1204.58,-176.59 1206.68,-183.27"/>
</a>
</g>
</g>
<!-- 2&#45;&gt;4 -->
<g id="edge71" class="edge">
<title>2&#45;&gt;4</title>
<g id="a_edge71"><a xlink:title="include">
<path fill="none" stroke="#1414ce" d="M944.06,-226.29C855.6,-212.59 655.59,-181.61 572.59,-168.76"/>
<polygon fill="#1414ce" stroke="#1414ce" points="573.02,-165.28 562.6,-167.21 571.95,-172.2 573.02,-165.28"/>
</a>
</g>
</g>
<!-- 2&#45;&gt;5 -->
<g id="edge72" class="edge">
<title>2&#45;&gt;5</title>
<g id="a_edge72"><a xlink:title="include">
<path fill="none" stroke="#1414ce" d="M1006.82,-215.87C1035.35,-190.71 1088.71,-143.65 1121.15,-115.04"/>
<polygon fill="#1414ce" stroke="#1414ce" points="1123.73,-117.43 1128.91,-108.19 1119.1,-112.18 1123.73,-117.43"/>
</a>
</g>
</g>
<!-- 21&#45;&gt;22 -->
<g id="edge75" class="edge">
<title>21&#45;&gt;22</title>
<g id="a_edge75"><a xlink:title="include">
<path fill="none" stroke="#1414ce" d="M439.32,-503.86C446.9,-485.64 459.8,-456.16 473.4,-432 509.67,-367.58 560.31,-296.86 587.44,-260.19"/>
<polygon fill="#1414ce" stroke="#1414ce" points="590.34,-262.16 593.5,-252.05 584.72,-257.99 590.34,-262.16"/>
</a>
</g>
</g>
<!-- 21&#45;&gt;4 -->
<g id="edge74" class="edge">
<title>21&#45;&gt;4</title>
<g id="a_edge74"><a xlink:title="include">
<path fill="none" stroke="#1414ce" d="M435.58,-503.83C439.03,-485.82 444.91,-456.76 451.4,-432 474.94,-342.28 509.68,-237.91 526.13,-189.8"/>
<polygon fill="#1414ce" stroke="#1414ce" points="529.51,-190.74 529.44,-180.15 522.89,-188.47 529.51,-190.74"/>
</a>
</g>
</g>
<!-- 21&#45;&gt;24 -->
<g id="edge76" class="edge">
<title>21&#45;&gt;24</title>
<g id="a_edge76"><a xlink:title="include">
<path fill="none" stroke="#1414ce" d="M459.62,-516.08C525.97,-504.08 696.52,-473.23 776.63,-458.74"/>
<polygon fill="#1414ce" stroke="#1414ce" points="777.64,-462.11 786.85,-456.89 776.39,-455.22 777.64,-462.11"/>
</a>
</g>
</g>
</g>
</svg>
