<?xml version="1.0" encoding="UTF-8" standalone="no"?>
<!DOCTYPE svg PUBLIC "-//W3C//DTD SVG 1.1//EN"
 "http://www.w3.org/Graphics/SVG/1.1/DTD/svg11.dtd">
<!-- Generated by graphviz version 2.43.0 (0)
 -->
<!-- Title: %3 Pages: 1 -->
<svg width="1542pt" height="548pt"
 viewBox="0.00 0.00 1541.50 548.00" xmlns="http://www.w3.org/2000/svg" xmlns:xlink="http://www.w3.org/1999/xlink">
<g id="graph0" class="graph" transform="scale(1 1) rotate(0) translate(4 544)">
<title>%3</title>
<polygon fill="transparent" stroke="transparent" points="-4,4 -4,-544 1537.5,-544 1537.5,4 -4,4"/>
<!-- 1 -->
<g id="node1" class="node">
<title>1</title>
<g id="a_node1"><a xlink:title="GCBif">
<polygon fill="#bfbfbf" stroke="black" points="1235,-540 1176,-540 1176,-504 1235,-504 1235,-540"/>
<text text-anchor="middle" x="1205.5" y="-518.3" font-family="Times,serif" font-size="14.00">GCBif</text>
</a>
</g>
</g>
<!-- 3 -->
<g id="node15" class="node">
<title>3</title>
<g id="a_node15"><a xlink:title="Context">
<polygon fill="#ffffff" stroke="black" points="1147,-468 1074,-468 1074,-432 1147,-432 1147,-468"/>
<text text-anchor="middle" x="1110.5" y="-446.3" font-family="Times,serif" font-size="14.00">Context</text>
</a>
</g>
</g>
<!-- 1&#45;&gt;3 -->
<g id="edge2" class="edge">
<title>1&#45;&gt;3</title>
<g id="a_edge2"><a xlink:title="usage">
<path fill="none" stroke="#1414ce" d="M1182.02,-503.7C1169.94,-494.8 1155.05,-483.82 1141.98,-474.2"/>
<polygon fill="#1414ce" stroke="#1414ce" points="1143.84,-471.22 1133.71,-468.1 1139.69,-476.85 1143.84,-471.22"/>
</a>
</g>
</g>
<!-- 2 -->
<g id="node21" class="node">
<title>2</title>
<g id="a_node21"><a xlink:title="ExportedFunction">
<polygon fill="#ffffff" stroke="black" points="1533.5,-252 1387.5,-252 1387.5,-216 1533.5,-216 1533.5,-252"/>
<text text-anchor="middle" x="1460.5" y="-230.3" font-family="Times,serif" font-size="14.00">ExportedFunction</text>
</a>
</g>
</g>
<!-- 1&#45;&gt;2 -->
<g id="edge1" class="edge">
<title>1&#45;&gt;2</title>
<g id="a_edge1"><a xlink:title="usage">
<path fill="none" stroke="#1414ce" d="M1220.69,-503.97C1263.9,-455.5 1387.69,-316.67 1438.41,-259.77"/>
<polygon fill="#1414ce" stroke="#1414ce" points="1441.03,-262.1 1445.07,-252.31 1435.8,-257.44 1441.03,-262.1"/>
</a>
</g>
</g>
<!-- 24 -->
<g id="node2" class="node">
<title>24</title>
<g id="a_node2"><a xlink:title="SpinLock">
<polygon fill="#ffffff" stroke="black" points="543.5,-324 461.5,-324 461.5,-288 543.5,-288 543.5,-324"/>
<text text-anchor="middle" x="502.5" y="-302.3" font-family="Times,serif" font-size="14.00">SpinLock</text>
</a>
</g>
</g>
<!-- 21 -->
<g id="node3" class="node">
<title>21</title>
<g id="a_node3"><a xlink:title="ResourceType">
<polygon fill="#ffffff" stroke="black" points="545,-180 428,-180 428,-144 545,-144 545,-180"/>
<text text-anchor="middle" x="486.5" y="-158.3" font-family="Times,serif" font-size="14.00">ResourceType</text>
</a>
</g>
</g>
<!-- 7 -->
<g id="node5" class="node">
<title>7</title>
<g id="a_node5"><a xlink:title="ListHead">
<polygon fill="#ffffff" stroke="black" points="335,-36 254,-36 254,0 335,0 335,-36"/>
<text text-anchor="middle" x="294.5" y="-14.3" font-family="Times,serif" font-size="14.00">ListHead</text>
</a>
</g>
</g>
<!-- 21&#45;&gt;7 -->
<g id="edge5" class="edge">
<title>21&#45;&gt;7</title>
<g id="a_edge5"><a xlink:title="usage">
<path fill="none" stroke="#1414ce" d="M463.34,-143.87C429.03,-118.5 364.61,-70.85 326.03,-42.32"/>
<polygon fill="#1414ce" stroke="#1414ce" points="327.86,-39.32 317.74,-36.19 323.7,-44.95 327.86,-39.32"/>
</a>
</g>
</g>
<!-- 12 -->
<g id="node8" class="node">
<title>12</title>
<g id="a_node8"><a xlink:title="GlobalContext">
<polygon fill="#ffffff" stroke="black" points="688,-396 569,-396 569,-360 688,-360 688,-396"/>
<text text-anchor="middle" x="628.5" y="-374.3" font-family="Times,serif" font-size="14.00">GlobalContext</text>
</a>
</g>
</g>
<!-- 21&#45;&gt;12 -->
<g id="edge4" class="edge">
<title>21&#45;&gt;12</title>
<g id="a_edge4"><a xlink:title="usage">
<path fill="none" stroke="#1414ce" d="M497.93,-180.23C522.86,-217.79 582.19,-307.21 611.51,-351.39"/>
<polygon fill="#1414ce" stroke="#1414ce" points="608.67,-353.45 617.12,-359.85 614.51,-349.58 608.67,-353.45"/>
</a>
</g>
</g>
<!-- 14 -->
<g id="node23" class="node">
<title>14</title>
<g id="a_node23"><a xlink:title="SyncList">
<polygon fill="#ffffff" stroke="black" points="605.5,-108 527.5,-108 527.5,-72 605.5,-72 605.5,-108"/>
<text text-anchor="middle" x="566.5" y="-86.3" font-family="Times,serif" font-size="14.00">SyncList</text>
</a>
</g>
</g>
<!-- 21&#45;&gt;14 -->
<g id="edge3" class="edge">
<title>21&#45;&gt;14</title>
<g id="a_edge3"><a xlink:title="usage">
<path fill="none" stroke="#1414ce" d="M506.28,-143.7C516.25,-134.97 528.51,-124.24 539.36,-114.75"/>
<polygon fill="#1414ce" stroke="#1414ce" points="541.73,-117.32 546.95,-108.1 537.12,-112.06 541.73,-117.32"/>
</a>
</g>
</g>
<!-- 8 -->
<g id="node4" class="node">
<title>8</title>
<g id="a_node4"><a xlink:title="Module">
<polygon fill="#ffffff" stroke="black" points="1297.5,-324 1227.5,-324 1227.5,-288 1297.5,-288 1297.5,-324"/>
<text text-anchor="middle" x="1262.5" y="-302.3" font-family="Times,serif" font-size="14.00">Module</text>
</a>
</g>
</g>
<!-- 8&#45;&gt;7 -->
<g id="edge8" class="edge">
<title>8&#45;&gt;7</title>
<g id="a_edge8"><a xlink:title="usage">
<path fill="none" stroke="#1414ce" d="M1259.08,-287.92C1251.45,-251.19 1232.23,-166.24 1213.5,-144 1167.66,-89.57 1139.13,-90.8 1070.5,-72 933.14,-34.38 495.29,-22.77 345.4,-19.85"/>
<polygon fill="#1414ce" stroke="#1414ce" points="345.18,-16.35 335.11,-19.66 345.04,-23.35 345.18,-16.35"/>
</a>
</g>
</g>
<!-- 9 -->
<g id="node12" class="node">
<title>9</title>
<g id="a_node12"><a xlink:title="LiteralEntry">
<polygon fill="#ffffff" stroke="black" points="1369.5,-252 1265.5,-252 1265.5,-216 1369.5,-216 1369.5,-252"/>
<text text-anchor="middle" x="1317.5" y="-230.3" font-family="Times,serif" font-size="14.00">LiteralEntry</text>
</a>
</g>
</g>
<!-- 8&#45;&gt;9 -->
<g id="edge7" class="edge">
<title>8&#45;&gt;9</title>
<g id="a_edge7"><a xlink:title="usage">
<path fill="none" stroke="#1414ce" d="M1276.1,-287.7C1282.62,-279.39 1290.57,-269.28 1297.75,-260.14"/>
<polygon fill="#1414ce" stroke="#1414ce" points="1300.63,-262.13 1304.06,-252.1 1295.13,-257.81 1300.63,-262.13"/>
</a>
</g>
</g>
<!-- 8&#45;&gt;2 -->
<g id="edge6" class="edge">
<title>8&#45;&gt;2</title>
<g id="a_edge6"><a xlink:title="usage">
<path fill="none" stroke="#1414ce" d="M1297.9,-292.49C1326.95,-282.21 1368.69,-267.46 1402.6,-255.47"/>
<polygon fill="#1414ce" stroke="#1414ce" points="1404.13,-258.64 1412.39,-252.01 1401.8,-252.04 1404.13,-258.64"/>
</a>
</g>
</g>
<!-- 7&#45;&gt;7 -->
<g id="edge9" class="edge">
<title>7&#45;&gt;7</title>
<g id="a_edge9"><a xlink:title="usage">
<path fill="none" stroke="#1414ce" d="M335.23,-31.31C345.4,-30.38 353,-25.95 353,-18 353,-12.91 349.88,-9.26 344.97,-7.05"/>
<polygon fill="#1414ce" stroke="#1414ce" points="345.78,-3.64 335.23,-4.69 344.13,-10.45 345.78,-3.64"/>
</a>
</g>
</g>
<!-- 11 -->
<g id="node6" class="node">
<title>11</title>
<g id="a_node6"><a xlink:title="HeapFragment">
<polygon fill="#ffffff" stroke="black" points="1097,-36 972,-36 972,0 1097,0 1097,-36"/>
<text text-anchor="middle" x="1034.5" y="-14.3" font-family="Times,serif" font-size="14.00">HeapFragment</text>
</a>
</g>
</g>
<!-- 11&#45;&gt;11 -->
<g id="edge10" class="edge">
<title>11&#45;&gt;11</title>
<g id="a_edge10"><a xlink:title="usage">
<path fill="none" stroke="#1414ce" d="M1097.28,-30.55C1107.76,-28.79 1115,-24.61 1115,-18 1115,-13.77 1112.03,-10.53 1107.14,-8.29"/>
<polygon fill="#1414ce" stroke="#1414ce" points="1107.86,-4.85 1097.28,-5.45 1105.92,-11.58 1107.86,-4.85"/>
</a>
</g>
</g>
<!-- 19 -->
<g id="node7" class="node">
<title>19</title>
<g id="a_node7"><a xlink:title="RefcBinaryQueueItem">
<polygon fill="#ffffff" stroke="black" points="425.5,-324 251.5,-324 251.5,-288 425.5,-288 425.5,-324"/>
<text text-anchor="middle" x="338.5" y="-302.3" font-family="Times,serif" font-size="14.00">RefcBinaryQueueItem</text>
</a>
</g>
</g>
<!-- 19&#45;&gt;19 -->
<g id="edge12" class="edge">
<title>19&#45;&gt;19</title>
<g id="a_edge12"><a xlink:title="usage">
<path fill="none" stroke="#1414ce" d="M425.8,-317.68C436.49,-315.59 443.5,-311.7 443.5,-306 443.5,-302.35 440.62,-299.44 435.75,-297.27"/>
<polygon fill="#1414ce" stroke="#1414ce" points="436.38,-293.81 425.8,-294.32 434.39,-300.52 436.38,-293.81"/>
</a>
</g>
</g>
<!-- 20 -->
<g id="node18" class="node">
<title>20</title>
<g id="a_node18"><a xlink:title="RefcBinary">
<polygon fill="#ffffff" stroke="black" points="386,-252 291,-252 291,-216 386,-216 386,-252"/>
<text text-anchor="middle" x="338.5" y="-230.3" font-family="Times,serif" font-size="14.00">RefcBinary</text>
</a>
</g>
</g>
<!-- 19&#45;&gt;20 -->
<g id="edge11" class="edge">
<title>19&#45;&gt;20</title>
<g id="a_edge11"><a xlink:title="usage">
<path fill="none" stroke="#1414ce" d="M338.5,-287.7C338.5,-279.98 338.5,-270.71 338.5,-262.11"/>
<polygon fill="#1414ce" stroke="#1414ce" points="342,-262.1 338.5,-252.1 335,-262.1 342,-262.1"/>
</a>
</g>
</g>
<!-- 12&#45;&gt;24 -->
<g id="edge21" class="edge">
<title>12&#45;&gt;24</title>
<g id="a_edge21"><a xlink:title="usage">
<path fill="none" stroke="#1414ce" d="M597.68,-359.88C581.05,-350.64 560.34,-339.13 542.48,-329.21"/>
<polygon fill="#1414ce" stroke="#1414ce" points="543.88,-325.99 533.44,-324.19 540.48,-332.11 543.88,-325.99"/>
</a>
</g>
</g>
<!-- 12&#45;&gt;8 -->
<g id="edge18" class="edge">
<title>12&#45;&gt;8</title>
<g id="a_edge18"><a xlink:title="usage">
<path fill="none" stroke="#1414ce" d="M688.15,-370.41C814.14,-356.5 1105.01,-324.39 1217.21,-312"/>
<polygon fill="#1414ce" stroke="#1414ce" points="1217.63,-315.48 1227.19,-310.9 1216.86,-308.52 1217.63,-315.48"/>
</a>
</g>
</g>
<!-- 12&#45;&gt;7 -->
<g id="edge22" class="edge">
<title>12&#45;&gt;7</title>
<g id="a_edge22"><a xlink:title="usage">
<path fill="none" stroke="#1414ce" d="M568.85,-376.59C468.68,-374.74 272.43,-365.71 219.5,-324 186.24,-297.79 185.5,-277.34 185.5,-235 185.5,-235 185.5,-235 185.5,-161 185.5,-120.03 185.09,-104.9 209.5,-72 218.85,-59.4 232.17,-49.09 245.5,-41.04"/>
<polygon fill="#1414ce" stroke="#1414ce" points="247.26,-44.06 254.22,-36.06 243.8,-37.98 247.26,-44.06"/>
</a>
</g>
</g>
<!-- 12&#45;&gt;19 -->
<g id="edge16" class="edge">
<title>12&#45;&gt;19</title>
<g id="a_edge16"><a xlink:title="usage">
<path fill="none" stroke="#1414ce" d="M568.76,-362.58C525.5,-352.14 466.52,-337.9 419.09,-326.45"/>
<polygon fill="#1414ce" stroke="#1414ce" points="419.7,-323 409.15,-324.05 418.05,-329.8 419.7,-323"/>
</a>
</g>
</g>
<!-- 13 -->
<g id="node9" class="node">
<title>13</title>
<g id="a_node9"><a xlink:title="Ets">
<polygon fill="#ffffff" stroke="black" points="691.5,-180 637.5,-180 637.5,-144 691.5,-144 691.5,-180"/>
<text text-anchor="middle" x="664.5" y="-158.3" font-family="Times,serif" font-size="14.00">Ets</text>
</a>
</g>
</g>
<!-- 12&#45;&gt;13 -->
<g id="edge13" class="edge">
<title>12&#45;&gt;13</title>
<g id="a_edge13"><a xlink:title="usage">
<path fill="none" stroke="#1414ce" d="M631.39,-359.85C637.63,-322.75 652.42,-234.81 659.94,-190.1"/>
<polygon fill="#1414ce" stroke="#1414ce" points="663.39,-190.67 661.6,-180.23 656.49,-189.51 663.39,-190.67"/>
</a>
</g>
</g>
<!-- 23 -->
<g id="node11" class="node">
<title>23</title>
<g id="a_node11"><a xlink:title="TimerList">
<polygon fill="#ffffff" stroke="black" points="304.5,-108 218.5,-108 218.5,-72 304.5,-72 304.5,-108"/>
<text text-anchor="middle" x="261.5" y="-86.3" font-family="Times,serif" font-size="14.00">TimerList</text>
</a>
</g>
</g>
<!-- 12&#45;&gt;23 -->
<g id="edge20" class="edge">
<title>12&#45;&gt;23</title>
<g id="a_edge20"><a xlink:title="usage">
<path fill="none" stroke="#1414ce" d="M568.94,-377.91C471.37,-377.99 284.12,-371.73 242.5,-324 191.7,-265.74 227,-165.21 248.41,-117.55"/>
<polygon fill="#1414ce" stroke="#1414ce" points="251.71,-118.76 252.73,-108.21 245.35,-115.82 251.71,-118.76"/>
</a>
</g>
</g>
<!-- 15 -->
<g id="node16" class="node">
<title>15</title>
<g id="a_node16"><a xlink:title="MessageQueueItem">
<polygon fill="#ffffff" stroke="black" points="1064.5,-324 906.5,-324 906.5,-288 1064.5,-288 1064.5,-324"/>
<text text-anchor="middle" x="985.5" y="-302.3" font-family="Times,serif" font-size="14.00">MessageQueueItem</text>
</a>
</g>
</g>
<!-- 12&#45;&gt;15 -->
<g id="edge14" class="edge">
<title>12&#45;&gt;15</title>
<g id="a_edge14"><a xlink:title="usage">
<path fill="none" stroke="#1414ce" d="M688.25,-365.28C745.18,-354.12 831.59,-337.18 896.59,-324.43"/>
<polygon fill="#1414ce" stroke="#1414ce" points="897.29,-327.86 906.43,-322.5 895.94,-320.99 897.29,-327.86"/>
</a>
</g>
</g>
<!-- 22 -->
<g id="node17" class="node">
<title>22</title>
<g id="a_node17"><a xlink:title="AtomsHashTable">
<polygon fill="#ffffff" stroke="black" points="813,-252 676,-252 676,-216 813,-216 813,-252"/>
<text text-anchor="middle" x="744.5" y="-230.3" font-family="Times,serif" font-size="14.00">AtomsHashTable</text>
</a>
</g>
</g>
<!-- 12&#45;&gt;22 -->
<g id="edge19" class="edge">
<title>12&#45;&gt;22</title>
<g id="a_edge19"><a xlink:title="usage">
<path fill="none" stroke="#1414ce" d="M642.49,-359.87C662.78,-335.03 700.51,-288.85 723.96,-260.14"/>
<polygon fill="#1414ce" stroke="#1414ce" points="726.84,-262.15 730.46,-252.19 721.42,-257.72 726.84,-262.15"/>
</a>
</g>
</g>
<!-- 16 -->
<g id="node20" class="node">
<title>16</title>
<g id="a_node20"><a xlink:title="AtomTable">
<polygon fill="#ffffff" stroke="black" points="888.5,-324 796.5,-324 796.5,-288 888.5,-288 888.5,-324"/>
<text text-anchor="middle" x="842.5" y="-302.3" font-family="Times,serif" font-size="14.00">AtomTable</text>
</a>
</g>
</g>
<!-- 12&#45;&gt;16 -->
<g id="edge15" class="edge">
<title>12&#45;&gt;16</title>
<g id="a_edge15"><a xlink:title="usage">
<path fill="none" stroke="#1414ce" d="M680.58,-359.97C712.64,-349.48 753.74,-336.03 786.51,-325.32"/>
<polygon fill="#1414ce" stroke="#1414ce" points="787.97,-328.52 796.39,-322.08 785.79,-321.87 787.97,-328.52"/>
</a>
</g>
</g>
<!-- 12&#45;&gt;14 -->
<g id="edge17" class="edge">
<title>12&#45;&gt;14</title>
<g id="a_edge17"><a xlink:title="usage">
<path fill="none" stroke="#1414ce" d="M624.81,-359.97C614.45,-312.19 585.06,-176.62 572.41,-118.27"/>
<polygon fill="#1414ce" stroke="#1414ce" points="575.79,-117.34 570.25,-108.31 568.95,-118.82 575.79,-117.34"/>
</a>
</g>
</g>
<!-- 13&#45;&gt;14 -->
<g id="edge23" class="edge">
<title>13&#45;&gt;14</title>
<g id="a_edge23"><a xlink:title="usage">
<path fill="none" stroke="#1414ce" d="M640.53,-143.88C627.95,-134.89 612.37,-123.76 598.75,-114.03"/>
<polygon fill="#1414ce" stroke="#1414ce" points="600.74,-111.15 590.57,-108.19 596.67,-116.85 600.74,-111.15"/>
</a>
</g>
</g>
<!-- 18 -->
<g id="node10" class="node">
<title>18</title>
<g id="a_node10"><a xlink:title="HNodeGroup">
<polygon fill="#ffffff" stroke="black" points="941.5,-252 831.5,-252 831.5,-216 941.5,-216 941.5,-252"/>
<text text-anchor="middle" x="886.5" y="-230.3" font-family="Times,serif" font-size="14.00">HNodeGroup</text>
</a>
</g>
</g>
<!-- 18&#45;&gt;18 -->
<g id="edge25" class="edge">
<title>18&#45;&gt;18</title>
<g id="a_edge25"><a xlink:title="usage">
<path fill="none" stroke="#1414ce" d="M941.57,-246.85C952.07,-245.32 959.5,-241.03 959.5,-234 959.5,-229.5 956.45,-226.12 951.5,-223.87"/>
<polygon fill="#1414ce" stroke="#1414ce" points="952.14,-220.42 941.57,-221.15 950.29,-227.17 952.14,-220.42"/>
</a>
</g>
</g>
<!-- 17 -->
<g id="node24" class="node">
<title>17</title>
<g id="a_node24"><a xlink:title="HNode">
<polygon fill="#ffffff" stroke="black" points="970.5,-180 904.5,-180 904.5,-144 970.5,-144 970.5,-180"/>
<text text-anchor="middle" x="937.5" y="-158.3" font-family="Times,serif" font-size="14.00">HNode</text>
</a>
</g>
</g>
<!-- 18&#45;&gt;17 -->
<g id="edge24" class="edge">
<title>18&#45;&gt;17</title>
<g id="a_edge24"><a xlink:title="usage">
<path fill="none" stroke="#1414ce" d="M899.11,-215.7C905.1,-207.47 912.38,-197.48 918.98,-188.42"/>
<polygon fill="#1414ce" stroke="#1414ce" points="921.98,-190.25 925.04,-180.1 916.32,-186.13 921.98,-190.25"/>
</a>
</g>
</g>
<!-- 23&#45;&gt;7 -->
<g id="edge26" class="edge">
<title>23&#45;&gt;7</title>
<g id="a_edge26"><a xlink:title="usage">
<path fill="none" stroke="#1414ce" d="M269.66,-71.7C273.41,-63.73 277.95,-54.1 282.12,-45.26"/>
<polygon fill="#1414ce" stroke="#1414ce" points="285.34,-46.64 286.44,-36.1 279.01,-43.66 285.34,-46.64"/>
</a>
</g>
</g>
<!-- 5 -->
<g id="node13" class="node">
<title>5</title>
<g id="a_node13"><a xlink:title="MailboxMessage">
<polygon fill="#ffffff" stroke="black" points="1153,-252 1016,-252 1016,-216 1153,-216 1153,-252"/>
<text text-anchor="middle" x="1084.5" y="-230.3" font-family="Times,serif" font-size="14.00">MailboxMessage</text>
</a>
</g>
</g>
<!-- 5&#45;&gt;5 -->
<g id="edge27" class="edge">
<title>5&#45;&gt;5</title>
<g id="a_edge27"><a xlink:title="usage">
<path fill="none" stroke="#1414ce" d="M1153.03,-246.37C1163.71,-244.52 1171,-240.4 1171,-234 1171,-229.8 1167.86,-226.58 1162.68,-224.34"/>
<polygon fill="#1414ce" stroke="#1414ce" points="1163.6,-220.96 1153.03,-221.63 1161.71,-227.7 1163.6,-220.96"/>
</a>
</g>
</g>
<!-- 10 -->
<g id="node14" class="node">
<title>10</title>
<g id="a_node14"><a xlink:title="Heap">
<polygon fill="#ffffff" stroke="black" points="1061.5,-108 1007.5,-108 1007.5,-72 1061.5,-72 1061.5,-108"/>
<text text-anchor="middle" x="1034.5" y="-86.3" font-family="Times,serif" font-size="14.00">Heap</text>
</a>
</g>
</g>
<!-- 10&#45;&gt;11 -->
<g id="edge28" class="edge">
<title>10&#45;&gt;11</title>
<g id="a_edge28"><a xlink:title="usage">
<path fill="none" stroke="#1414ce" d="M1034.5,-71.7C1034.5,-63.98 1034.5,-54.71 1034.5,-46.11"/>
<polygon fill="#1414ce" stroke="#1414ce" points="1038,-46.1 1034.5,-36.1 1031,-46.1 1038,-46.1"/>
</a>
</g>
</g>
<!-- 3&#45;&gt;8 -->
<g id="edge32" class="edge">
<title>3&#45;&gt;8</title>
<g id="a_edge32"><a xlink:title="usage">
<path fill="none" stroke="#1414ce" d="M1147.17,-436.37C1168.49,-427.61 1194.76,-414.23 1213.5,-396 1231.48,-378.51 1244.61,-352.99 1252.72,-333.76"/>
<polygon fill="#1414ce" stroke="#1414ce" points="1256.02,-334.93 1256.51,-324.35 1249.53,-332.32 1256.02,-334.93"/>
</a>
</g>
</g>
<!-- 3&#45;&gt;7 -->
<g id="edge35" class="edge">
<title>3&#45;&gt;7</title>
<g id="a_edge35"><a xlink:title="usage">
<path fill="none" stroke="#1414ce" d="M1073.93,-447.54C898.02,-440.05 147.5,-402.48 147.5,-307 147.5,-307 147.5,-307 147.5,-161 147.5,-117.81 156.63,-103.19 186.5,-72 202.34,-55.46 224.42,-43.37 244.49,-34.95"/>
<polygon fill="#1414ce" stroke="#1414ce" points="245.85,-38.17 253.84,-31.22 243.26,-31.67 245.85,-38.17"/>
</a>
</g>
</g>
<!-- 3&#45;&gt;12 -->
<g id="edge34" class="edge">
<title>3&#45;&gt;12</title>
<g id="a_edge34"><a xlink:title="usage">
<path fill="none" stroke="#1414ce" d="M1073.88,-443.68C993.83,-432.06 802.15,-404.22 698.27,-389.13"/>
<polygon fill="#1414ce" stroke="#1414ce" points="698.59,-385.64 688.19,-387.67 697.58,-392.57 698.59,-385.64"/>
</a>
</g>
</g>
<!-- 3&#45;&gt;10 -->
<g id="edge33" class="edge">
<title>3&#45;&gt;10</title>
<g id="a_edge33"><a xlink:title="usage">
<path fill="none" stroke="#1414ce" d="M1130.25,-431.91C1156.47,-407.21 1199.5,-358.79 1199.5,-307 1199.5,-307 1199.5,-307 1199.5,-233 1199.5,-199.2 1118.95,-143.31 1070.41,-112.7"/>
<polygon fill="#1414ce" stroke="#1414ce" points="1072.08,-109.62 1061.75,-107.29 1068.37,-115.55 1072.08,-109.62"/>
</a>
</g>
</g>
<!-- 3&#45;&gt;3 -->
<g id="edge29" class="edge">
<title>3&#45;&gt;3</title>
<g id="a_edge29"><a xlink:title="usage">
<path fill="none" stroke="#1414ce" d="M1147.18,-463.42C1157.28,-462.77 1165,-458.3 1165,-450 1165,-444.81 1161.98,-441.12 1157.26,-438.93"/>
<polygon fill="#1414ce" stroke="#1414ce" points="1157.71,-435.44 1147.18,-436.58 1156.13,-442.26 1157.71,-435.44"/>
</a>
</g>
</g>
<!-- 4 -->
<g id="node19" class="node">
<title>4</title>
<g id="a_node19"><a xlink:title="Mailbox">
<polygon fill="#ffffff" stroke="black" points="1147.5,-396 1073.5,-396 1073.5,-360 1147.5,-360 1147.5,-396"/>
<text text-anchor="middle" x="1110.5" y="-374.3" font-family="Times,serif" font-size="14.00">Mailbox</text>
</a>
</g>
</g>
<!-- 3&#45;&gt;4 -->
<g id="edge30" class="edge">
<title>3&#45;&gt;4</title>
<g id="a_edge30"><a xlink:title="usage">
<path fill="none" stroke="#1414ce" d="M1110.5,-431.7C1110.5,-423.98 1110.5,-414.71 1110.5,-406.11"/>
<polygon fill="#1414ce" stroke="#1414ce" points="1114,-406.1 1110.5,-396.1 1107,-406.1 1114,-406.1"/>
</a>
</g>
</g>
<!-- 6 -->
<g id="node22" class="node">
<title>6</title>
<g id="a_node22"><a xlink:title="TimerListItem">
<polygon fill="#ffffff" stroke="black" points="119,-180 0,-180 0,-144 119,-144 119,-180"/>
<text text-anchor="middle" x="59.5" y="-158.3" font-family="Times,serif" font-size="14.00">TimerListItem</text>
</a>
</g>
</g>
<!-- 3&#45;&gt;6 -->
<g id="edge31" class="edge">
<title>3&#45;&gt;6</title>
<g id="a_edge31"><a xlink:title="usage">
<path fill="none" stroke="#1414ce" d="M1073.81,-448.17C900.59,-444.11 171.36,-425.31 133.5,-396 69.09,-346.14 59.66,-240.09 58.98,-190.12"/>
<polygon fill="#1414ce" stroke="#1414ce" points="62.48,-190.06 58.95,-180.07 55.48,-190.08 62.48,-190.06"/>
</a>
</g>
</g>
<!-- 15&#45;&gt;5 -->
<g id="edge36" class="edge">
<title>15&#45;&gt;5</title>
<g id="a_edge36"><a xlink:title="usage">
<path fill="none" stroke="#1414ce" d="M1009.72,-287.88C1022.42,-278.89 1038.16,-267.76 1051.92,-258.03"/>
<polygon fill="#1414ce" stroke="#1414ce" points="1054.04,-260.82 1060.19,-252.19 1050,-255.11 1054.04,-260.82"/>
</a>
</g>
</g>
<!-- 15&#45;&gt;15 -->
<g id="edge37" class="edge">
<title>15&#45;&gt;15</title>
<g id="a_edge37"><a xlink:title="usage">
<path fill="none" stroke="#1414ce" d="M1064.66,-317.98C1075.37,-315.97 1082.5,-311.98 1082.5,-306 1082.5,-302.08 1079.43,-299.01 1074.29,-296.8"/>
<polygon fill="#1414ce" stroke="#1414ce" points="1075.24,-293.43 1064.66,-294.02 1073.3,-300.15 1075.24,-293.43"/>
</a>
</g>
</g>
<!-- 22&#45;&gt;17 -->
<g id="edge38" class="edge">
<title>22&#45;&gt;17</title>
<g id="a_edge38"><a xlink:title="usage">
<path fill="none" stroke="#1414ce" d="M791.71,-215.88C823.23,-204.44 864.34,-189.53 894.87,-178.46"/>
<polygon fill="#1414ce" stroke="#1414ce" points="896.17,-181.71 904.38,-175.01 893.79,-175.13 896.17,-181.71"/>
</a>
</g>
</g>
<!-- 20&#45;&gt;21 -->
<g id="edge39" class="edge">
<title>20&#45;&gt;21</title>
<g id="a_edge39"><a xlink:title="usage">
<path fill="none" stroke="#1414ce" d="M374.7,-215.88C394.76,-206.39 419.87,-194.51 441.21,-184.42"/>
<polygon fill="#1414ce" stroke="#1414ce" points="442.87,-187.51 450.41,-180.07 439.88,-181.18 442.87,-187.51"/>
</a>
</g>
</g>
<!-- 20&#45;&gt;7 -->
<g id="edge40" class="edge">
<title>20&#45;&gt;7</title>
<g id="a_edge40"><a xlink:title="usage">
<path fill="none" stroke="#1414ce" d="M336.92,-215.86C333.95,-186.21 326.61,-123.54 313.5,-72 311.31,-63.38 308.27,-54.19 305.27,-45.93"/>
<polygon fill="#1414ce" stroke="#1414ce" points="308.49,-44.53 301.69,-36.41 301.93,-47 308.49,-44.53"/>
</a>
</g>
</g>
<!-- 4&#45;&gt;5 -->
<g id="edge41" class="edge">
<title>4&#45;&gt;5</title>
<g id="a_edge41"><a xlink:title="usage">
<path fill="none" stroke="#1414ce" d="M1107.36,-359.87C1102.93,-335.67 1094.79,-291.21 1089.52,-262.39"/>
<polygon fill="#1414ce" stroke="#1414ce" points="1092.89,-261.4 1087.65,-252.19 1086.01,-262.66 1092.89,-261.4"/>
</a>
</g>
</g>
<!-- 16&#45;&gt;18 -->
<g id="edge43" class="edge">
<title>16&#45;&gt;18</title>
<g id="a_edge43"><a xlink:title="usage">
<path fill="none" stroke="#1414ce" d="M853.38,-287.7C858.49,-279.56 864.7,-269.69 870.34,-260.7"/>
<polygon fill="#1414ce" stroke="#1414ce" points="873.39,-262.43 875.75,-252.1 867.46,-258.71 873.39,-262.43"/>
</a>
</g>
</g>
<!-- 16&#45;&gt;17 -->
<g id="edge42" class="edge">
<title>16&#45;&gt;17</title>
<g id="a_edge42"><a xlink:title="usage">
<path fill="none" stroke="#1414ce" d="M888.61,-288.44C922.57,-275.77 963.66,-259.29 968.5,-252 981.4,-232.59 970.34,-207.22 958,-188.54"/>
<polygon fill="#1414ce" stroke="#1414ce" points="960.75,-186.37 952.13,-180.22 955.03,-190.41 960.75,-186.37"/>
</a>
</g>
</g>
<!-- 6&#45;&gt;7 -->
<g id="edge44" class="edge">
<title>6&#45;&gt;7</title>
<g id="a_edge44"><a xlink:title="usage">
<path fill="none" stroke="#1414ce" d="M69.6,-143.77C82.17,-123.77 105.43,-91.11 133.5,-72 166.68,-49.42 210.2,-35.85 243.63,-28.11"/>
<polygon fill="#1414ce" stroke="#1414ce" points="244.65,-31.47 253.66,-25.89 243.14,-24.63 244.65,-31.47"/>
</a>
</g>
</g>
<!-- 14&#45;&gt;7 -->
<g id="edge45" class="edge">
<title>14&#45;&gt;7</title>
<g id="a_edge45"><a xlink:title="usage">
<path fill="none" stroke="#1414ce" d="M527.24,-78.9C479.14,-66.52 397.57,-45.53 344.89,-31.97"/>
<polygon fill="#1414ce" stroke="#1414ce" points="345.64,-28.55 335.08,-29.44 343.89,-35.33 345.64,-28.55"/>
</a>
</g>
</g>
<!-- 17&#45;&gt;10 -->
<g id="edge47" class="edge">
<title>17&#45;&gt;10</title>
<g id="a_edge47"><a xlink:title="usage">
<path fill="none" stroke="#1414ce" d="M961.48,-143.7C973.81,-134.8 989.02,-123.82 1002.35,-114.2"/>
<polygon fill="#1414ce" stroke="#1414ce" points="1004.74,-116.79 1010.8,-108.1 1000.64,-111.12 1004.74,-116.79"/>
</a>
</g>
</g>
<!-- 17&#45;&gt;17 -->
<g id="edge46" class="edge">
<title>17&#45;&gt;17</title>
<g id="a_edge46"><a xlink:title="usage">
<path fill="none" stroke="#1414ce" d="M970.85,-175.47C980.78,-175.07 988.5,-170.58 988.5,-162 988.5,-156.64 985.48,-152.87 980.8,-150.71"/>
<polygon fill="#1414ce" stroke="#1414ce" points="981.37,-147.25 970.85,-148.53 979.87,-154.09 981.37,-147.25"/>
</a>
</g>
</g>
</g>
</svg>
