<?xml version="1.0" encoding="UTF-8" standalone="no"?>
<!DOCTYPE svg PUBLIC "-//W3C//DTD SVG 1.1//EN"
 "http://www.w3.org/Graphics/SVG/1.1/DTD/svg11.dtd">
<!-- Generated by graphviz version 2.43.0 (0)
 -->
<!-- Title: %3 Pages: 1 -->
<svg width="1311pt" height="836pt"
 viewBox="0.00 0.00 1311.00 836.00" xmlns="http://www.w3.org/2000/svg" xmlns:xlink="http://www.w3.org/1999/xlink">
<g id="graph0" class="graph" transform="scale(1 1) rotate(0) translate(4 832)">
<title>%3</title>
<polygon fill="transparent" stroke="transparent" points="-4,4 -4,-832 1307,-832 1307,4 -4,4"/>
<!-- 8 -->
<g id="node1" class="node">
<title>8</title>
<g id="a_node1"><a xlink:title="stdbool.h">
<polygon fill="#ffffff" stroke="black" points="412.5,-108 329.5,-108 329.5,-72 412.5,-72 412.5,-108"/>
<text text-anchor="middle" x="371" y="-86.3" font-family="Times,serif" font-size="14.00">stdbool.h</text>
</a>
</g>
</g>
<!-- 25 -->
<g id="node2" class="node">
<title>25</title>
<g id="a_node2"><a xlink:title="refc_binary.h">
<polygon fill="#ffffff" stroke="black" points="1009,-396 901,-396 901,-360 1009,-360 1009,-396"/>
<text text-anchor="middle" x="955" y="-374.3" font-family="Times,serif" font-size="14.00">refc_binary.h</text>
</a>
</g>
</g>
<!-- 25&#45;&gt;8 -->
<g id="edge1" class="edge">
<title>25&#45;&gt;8</title>
<g id="a_edge1"><a xlink:title="include">
<path fill="none" stroke="#1414ce" d="M900.84,-362.3C873.11,-353.47 839.51,-340.68 812,-324 710.03,-262.16 719.03,-198.59 613,-144 552.18,-112.69 473.53,-99.83 422.67,-94.57"/>
<polygon fill="#1414ce" stroke="#1414ce" points="422.87,-91.08 412.57,-93.59 422.19,-98.04 422.87,-91.08"/>
</a>
</g>
</g>
<!-- 15 -->
<g id="node8" class="node">
<title>15</title>
<g id="a_node8"><a xlink:title="list.h">
<polygon fill="#ffffff" stroke="black" points="398,-180 344,-180 344,-144 398,-144 398,-180"/>
<text text-anchor="middle" x="371" y="-158.3" font-family="Times,serif" font-size="14.00">list.h</text>
</a>
</g>
</g>
<!-- 25&#45;&gt;15 -->
<g id="edge3" class="edge">
<title>25&#45;&gt;15</title>
<g id="a_edge3"><a xlink:title="include">
<path fill="none" stroke="#1414ce" d="M900.96,-362.31C897.59,-361.5 894.25,-360.72 891,-360 802.4,-340.33 775.61,-354.12 690,-324 596.18,-290.99 583.14,-260.12 494,-216 465.48,-201.89 432.31,-187.72 407.61,-177.59"/>
<polygon fill="#1414ce" stroke="#1414ce" points="408.83,-174.3 398.25,-173.77 406.19,-180.79 408.83,-174.3"/>
</a>
</g>
</g>
<!-- 6 -->
<g id="node10" class="node">
<title>6</title>
<g id="a_node10"><a xlink:title="stdlib.h">
<polygon fill="#ffffff" stroke="black" points="1129.5,-108 1058.5,-108 1058.5,-72 1129.5,-72 1129.5,-108"/>
<text text-anchor="middle" x="1094" y="-86.3" font-family="Times,serif" font-size="14.00">stdlib.h</text>
</a>
</g>
</g>
<!-- 25&#45;&gt;6 -->
<g id="edge2" class="edge">
<title>25&#45;&gt;6</title>
<g id="a_edge2"><a xlink:title="include">
<path fill="none" stroke="#1414ce" d="M968.23,-359.87C993.01,-326.92 1046.5,-251.63 1075,-180 1082.92,-160.09 1087.78,-136.3 1090.6,-118.32"/>
<polygon fill="#1414ce" stroke="#1414ce" points="1094.1,-118.63 1092.07,-108.23 1087.17,-117.62 1094.1,-118.63"/>
</a>
</g>
</g>
<!-- 26 -->
<g id="node14" class="node">
<title>26</title>
<g id="a_node14"><a xlink:title="resources.h">
<polygon fill="#ffffff" stroke="black" points="921,-324 821,-324 821,-288 921,-288 921,-324"/>
<text text-anchor="middle" x="871" y="-302.3" font-family="Times,serif" font-size="14.00">resources.h</text>
</a>
</g>
</g>
<!-- 25&#45;&gt;26 -->
<g id="edge4" class="edge">
<title>25&#45;&gt;26</title>
<g id="a_edge4"><a xlink:title="include">
<path fill="none" stroke="#1414ce" d="M934.24,-359.7C923.76,-350.97 910.89,-340.24 899.5,-330.75"/>
<polygon fill="#1414ce" stroke="#1414ce" points="901.45,-327.82 891.53,-324.1 896.97,-333.19 901.45,-327.82"/>
</a>
</g>
</g>
<!-- 29 -->
<g id="node3" class="node">
<title>29</title>
<g id="a_node3"><a xlink:title="nifs.h">
<polygon fill="#ffffff" stroke="black" points="590,-756 534,-756 534,-720 590,-720 590,-756"/>
<text text-anchor="middle" x="562" y="-734.3" font-family="Times,serif" font-size="14.00">nifs.h</text>
</a>
</g>
</g>
<!-- 5 -->
<g id="node4" class="node">
<title>5</title>
<g id="a_node4"><a xlink:title="atom.h">
<polygon fill="#ffffff" stroke="black" points="1260,-468 1194,-468 1194,-432 1260,-432 1260,-468"/>
<text text-anchor="middle" x="1227" y="-446.3" font-family="Times,serif" font-size="14.00">atom.h</text>
</a>
</g>
</g>
<!-- 29&#45;&gt;5 -->
<g id="edge5" class="edge">
<title>29&#45;&gt;5</title>
<g id="a_edge5"><a xlink:title="include">
<path fill="none" stroke="#1414ce" d="M590.18,-728.86C651.72,-710.74 802.27,-664.5 923,-612 1022.09,-568.91 1132.96,-506.31 1189.47,-473.3"/>
<polygon fill="#1414ce" stroke="#1414ce" points="1191.53,-476.15 1198.39,-468.07 1187.99,-470.11 1191.53,-476.15"/>
</a>
</g>
</g>
<!-- 2 -->
<g id="node11" class="node">
<title>2</title>
<g id="a_node11"><a xlink:title="context.h">
<polygon fill="#ffffff" stroke="black" points="294.5,-684 211.5,-684 211.5,-648 294.5,-648 294.5,-684"/>
<text text-anchor="middle" x="253" y="-662.3" font-family="Times,serif" font-size="14.00">context.h</text>
</a>
</g>
</g>
<!-- 29&#45;&gt;2 -->
<g id="edge6" class="edge">
<title>29&#45;&gt;2</title>
<g id="a_edge6"><a xlink:title="include">
<path fill="none" stroke="#1414ce" d="M533.76,-730.6C481.86,-718.84 370.61,-693.64 304.8,-678.73"/>
<polygon fill="#1414ce" stroke="#1414ce" points="305.17,-675.23 294.64,-676.43 303.62,-682.06 305.17,-675.23"/>
</a>
</g>
</g>
<!-- 30 -->
<g id="node18" class="node">
<title>30</title>
<g id="a_node18"><a xlink:title="exportedfunction.h">
<polygon fill="#ffffff" stroke="black" points="914,-612 762,-612 762,-576 914,-576 914,-612"/>
<text text-anchor="middle" x="838" y="-590.3" font-family="Times,serif" font-size="14.00">exportedfunction.h</text>
</a>
</g>
</g>
<!-- 29&#45;&gt;30 -->
<g id="edge7" class="edge">
<title>29&#45;&gt;30</title>
<g id="a_edge7"><a xlink:title="include">
<path fill="none" stroke="#1414ce" d="M590.24,-722.47C638.91,-697.43 738.85,-646.01 795.81,-616.71"/>
<polygon fill="#1414ce" stroke="#1414ce" points="797.61,-619.71 804.9,-612.03 794.41,-613.49 797.61,-619.71"/>
</a>
</g>
</g>
<!-- 4 -->
<g id="node9" class="node">
<title>4</title>
<g id="a_node9"><a xlink:title="stdint.h">
<polygon fill="#ffffff" stroke="black" points="1130,-36 1058,-36 1058,0 1130,0 1130,-36"/>
<text text-anchor="middle" x="1094" y="-14.3" font-family="Times,serif" font-size="14.00">stdint.h</text>
</a>
</g>
</g>
<!-- 5&#45;&gt;4 -->
<g id="edge8" class="edge">
<title>5&#45;&gt;4</title>
<g id="a_edge8"><a xlink:title="include">
<path fill="none" stroke="#1414ce" d="M1234.69,-431.91C1245.79,-405.62 1265,-353.45 1265,-307 1265,-307 1265,-307 1265,-161 1265,-95.75 1190.39,-54.74 1139.73,-34.42"/>
<polygon fill="#1414ce" stroke="#1414ce" points="1140.85,-31.1 1130.26,-30.75 1138.32,-37.63 1140.85,-31.1"/>
</a>
</g>
</g>
<!-- 5&#45;&gt;6 -->
<g id="edge9" class="edge">
<title>5&#45;&gt;6</title>
<g id="a_edge9"><a xlink:title="include">
<path fill="none" stroke="#1414ce" d="M1227,-431.95C1227,-405.29 1227,-352.11 1227,-307 1227,-307 1227,-307 1227,-233 1227,-179.21 1175.54,-137.4 1136.64,-113.47"/>
<polygon fill="#1414ce" stroke="#1414ce" points="1137.94,-110.18 1127.56,-108.07 1134.36,-116.19 1137.94,-110.18"/>
</a>
</g>
</g>
<!-- 11 -->
<g id="node5" class="node">
<title>11</title>
<g id="a_node5"><a xlink:title="assert.h">
<polygon fill="#ffffff" stroke="black" points="678,-36 604,-36 604,0 678,0 678,-36"/>
<text text-anchor="middle" x="641" y="-14.3" font-family="Times,serif" font-size="14.00">assert.h</text>
</a>
</g>
</g>
<!-- 23 -->
<g id="node6" class="node">
<title>23</title>
<g id="a_node6"><a xlink:title="utils.h">
<polygon fill="#ffffff" stroke="black" points="971,-180 909,-180 909,-144 971,-144 971,-180"/>
<text text-anchor="middle" x="940" y="-158.3" font-family="Times,serif" font-size="14.00">utils.h</text>
</a>
</g>
</g>
<!-- 23&#45;&gt;6 -->
<g id="edge12" class="edge">
<title>23&#45;&gt;6</title>
<g id="a_edge12"><a xlink:title="include">
<path fill="none" stroke="#1414ce" d="M971.16,-146.83C993.53,-136.67 1024.01,-122.81 1049.01,-111.45"/>
<polygon fill="#1414ce" stroke="#1414ce" points="1050.64,-114.55 1058.3,-107.23 1047.75,-108.18 1050.64,-114.55"/>
</a>
</g>
</g>
<!-- 24 -->
<g id="node16" class="node">
<title>24</title>
<g id="a_node16"><a xlink:title="stddef.h">
<polygon fill="#ffffff" stroke="black" points="971,-108 897,-108 897,-72 971,-72 971,-108"/>
<text text-anchor="middle" x="934" y="-86.3" font-family="Times,serif" font-size="14.00">stddef.h</text>
</a>
</g>
</g>
<!-- 23&#45;&gt;24 -->
<g id="edge10" class="edge">
<title>23&#45;&gt;24</title>
<g id="a_edge10"><a xlink:title="include">
<path fill="none" stroke="#1414ce" d="M938.52,-143.7C937.86,-135.98 937.06,-126.71 936.32,-118.11"/>
<polygon fill="#1414ce" stroke="#1414ce" points="939.81,-117.77 935.47,-108.1 932.83,-118.37 939.81,-117.77"/>
</a>
</g>
</g>
<!-- 17 -->
<g id="node28" class="node">
<title>17</title>
<g id="a_node28"><a xlink:title="stdio.h">
<polygon fill="#ffffff" stroke="black" points="877.5,-108 812.5,-108 812.5,-72 877.5,-72 877.5,-108"/>
<text text-anchor="middle" x="845" y="-86.3" font-family="Times,serif" font-size="14.00">stdio.h</text>
</a>
</g>
</g>
<!-- 23&#45;&gt;17 -->
<g id="edge11" class="edge">
<title>23&#45;&gt;17</title>
<g id="a_edge11"><a xlink:title="include">
<path fill="none" stroke="#1414ce" d="M916.52,-143.7C904.44,-134.8 889.55,-123.82 876.48,-114.2"/>
<polygon fill="#1414ce" stroke="#1414ce" points="878.34,-111.22 868.21,-108.1 874.19,-116.85 878.34,-111.22"/>
</a>
</g>
</g>
<!-- 16 -->
<g id="node7" class="node">
<title>16</title>
<g id="a_node7"><a xlink:title="synclist.h">
<polygon fill="#ffffff" stroke="black" points="485.5,-252 400.5,-252 400.5,-216 485.5,-216 485.5,-252"/>
<text text-anchor="middle" x="443" y="-230.3" font-family="Times,serif" font-size="14.00">synclist.h</text>
</a>
</g>
</g>
<!-- 16&#45;&gt;15 -->
<g id="edge14" class="edge">
<title>16&#45;&gt;15</title>
<g id="a_edge14"><a xlink:title="include">
<path fill="none" stroke="#1414ce" d="M425.2,-215.7C416.4,-207.14 405.62,-196.66 396,-187.3"/>
<polygon fill="#1414ce" stroke="#1414ce" points="398.2,-184.57 388.59,-180.1 393.32,-189.58 398.2,-184.57"/>
</a>
</g>
</g>
<!-- 18 -->
<g id="node25" class="node">
<title>18</title>
<g id="a_node25"><a xlink:title="smp.h">
<polygon fill="#ffffff" stroke="black" points="210,-180 150,-180 150,-144 210,-144 210,-180"/>
<text text-anchor="middle" x="180" y="-158.3" font-family="Times,serif" font-size="14.00">smp.h</text>
</a>
</g>
</g>
<!-- 16&#45;&gt;18 -->
<g id="edge15" class="edge">
<title>16&#45;&gt;18</title>
<g id="a_edge15"><a xlink:title="include">
<path fill="none" stroke="#1414ce" d="M400.45,-221.68C350.64,-208.42 268.77,-186.63 220.06,-173.66"/>
<polygon fill="#1414ce" stroke="#1414ce" points="220.75,-170.23 210.19,-171.04 218.95,-176.99 220.75,-170.23"/>
</a>
</g>
</g>
<!-- 16&#45;&gt;17 -->
<g id="edge13" class="edge">
<title>16&#45;&gt;17</title>
<g id="a_edge13"><a xlink:title="include">
<path fill="none" stroke="#1414ce" d="M485.64,-218.97C551.57,-197.1 682.34,-153.07 802.66,-108.04"/>
<polygon fill="#1414ce" stroke="#1414ce" points="803.91,-111.31 812.05,-104.52 801.45,-104.76 803.91,-111.31"/>
</a>
</g>
</g>
<!-- 15&#45;&gt;8 -->
<g id="edge16" class="edge">
<title>15&#45;&gt;8</title>
<g id="a_edge16"><a xlink:title="include">
<path fill="none" stroke="#1414ce" d="M371,-143.7C371,-135.98 371,-126.71 371,-118.11"/>
<polygon fill="#1414ce" stroke="#1414ce" points="374.5,-118.1 371,-108.1 367.5,-118.1 374.5,-118.1"/>
</a>
</g>
</g>
<!-- 2&#45;&gt;15 -->
<g id="edge18" class="edge">
<title>2&#45;&gt;15</title>
<g id="a_edge18"><a xlink:title="include">
<path fill="none" stroke="#1414ce" d="M255.65,-647.63C263.93,-593.92 290.56,-425.82 320,-288 326.89,-255.74 325.13,-246.37 338,-216 341.91,-206.77 347.31,-197.28 352.61,-188.94"/>
<polygon fill="#1414ce" stroke="#1414ce" points="355.66,-190.67 358.24,-180.39 349.81,-186.82 355.66,-190.67"/>
</a>
</g>
</g>
<!-- 19 -->
<g id="node15" class="node">
<title>19</title>
<g id="a_node15"><a xlink:title="term.h">
<polygon fill="#ffffff" stroke="black" points="871.5,-468 806.5,-468 806.5,-432 871.5,-432 871.5,-468"/>
<text text-anchor="middle" x="839" y="-446.3" font-family="Times,serif" font-size="14.00">term.h</text>
</a>
</g>
</g>
<!-- 2&#45;&gt;19 -->
<g id="edge21" class="edge">
<title>2&#45;&gt;19</title>
<g id="a_edge21"><a xlink:title="include">
<path fill="none" stroke="#1414ce" d="M294.76,-658.04C343.1,-649.47 424.8,-633.38 493,-612 573.25,-586.84 591.73,-575.45 668,-540 713.83,-518.7 765.09,-491.56 799.43,-472.88"/>
<polygon fill="#1414ce" stroke="#1414ce" points="801.11,-475.95 808.21,-468.09 797.76,-469.81 801.11,-475.95"/>
</a>
</g>
</g>
<!-- 3 -->
<g id="node24" class="node">
<title>3</title>
<g id="a_node24"><a xlink:title="globalcontext.h">
<polygon fill="#ffffff" stroke="black" points="484.5,-612 357.5,-612 357.5,-576 484.5,-576 484.5,-612"/>
<text text-anchor="middle" x="421" y="-590.3" font-family="Times,serif" font-size="14.00">globalcontext.h</text>
</a>
</g>
</g>
<!-- 2&#45;&gt;3 -->
<g id="edge17" class="edge">
<title>2&#45;&gt;3</title>
<g id="a_edge17"><a xlink:title="include">
<path fill="none" stroke="#1414ce" d="M294.1,-647.88C317.17,-638.26 346.14,-626.19 370.57,-616.01"/>
<polygon fill="#1414ce" stroke="#1414ce" points="372.15,-619.15 380.04,-612.07 369.46,-612.68 372.15,-619.15"/>
</a>
</g>
</g>
<!-- 2&#45;&gt;18 -->
<g id="edge20" class="edge">
<title>2&#45;&gt;18</title>
<g id="a_edge20"><a xlink:title="include">
<path fill="none" stroke="#1414ce" d="M211.22,-660.63C139.36,-650.57 0,-618.7 0,-523 0,-523 0,-523 0,-305 0,-260.06 14.48,-245.94 48,-216 74,-192.78 111.46,-179.05 139.84,-171.41"/>
<polygon fill="#1414ce" stroke="#1414ce" points="141.02,-174.72 149.85,-168.86 139.29,-167.94 141.02,-174.72"/>
</a>
</g>
</g>
<!-- 28 -->
<g id="node26" class="node">
<title>28</title>
<g id="a_node26"><a xlink:title="timer_list.h">
<polygon fill="#ffffff" stroke="black" points="164,-252 66,-252 66,-216 164,-216 164,-252"/>
<text text-anchor="middle" x="115" y="-230.3" font-family="Times,serif" font-size="14.00">timer_list.h</text>
</a>
</g>
</g>
<!-- 2&#45;&gt;28 -->
<g id="edge22" class="edge">
<title>2&#45;&gt;28</title>
<g id="a_edge22"><a xlink:title="include">
<path fill="none" stroke="#1414ce" d="M211.33,-648.36C195.28,-639.86 178.33,-627.89 168,-612 94.8,-499.41 104.41,-328.05 111.49,-262.14"/>
<polygon fill="#1414ce" stroke="#1414ce" points="114.97,-262.47 112.63,-252.14 108.02,-261.68 114.97,-262.47"/>
</a>
</g>
</g>
<!-- 27 -->
<g id="node27" class="node">
<title>27</title>
<g id="a_node27"><a xlink:title="mailbox.h">
<polygon fill="#ffffff" stroke="black" points="268,-252 182,-252 182,-216 268,-216 268,-252"/>
<text text-anchor="middle" x="225" y="-230.3" font-family="Times,serif" font-size="14.00">mailbox.h</text>
</a>
</g>
</g>
<!-- 2&#45;&gt;27 -->
<g id="edge19" class="edge">
<title>2&#45;&gt;27</title>
<g id="a_edge19"><a xlink:title="include">
<path fill="none" stroke="#1414ce" d="M211.1,-649.5C194.59,-641.08 177.37,-628.88 168,-612 102.62,-494.18 177.25,-325.38 210.57,-261.15"/>
<polygon fill="#1414ce" stroke="#1414ce" points="213.77,-262.59 215.35,-252.11 207.58,-259.32 213.77,-262.59"/>
</a>
</g>
</g>
<!-- 1 -->
<g id="node12" class="node">
<title>1</title>
<g id="a_node12"><a xlink:title="/__w/AtomVM/AtomVM/src/libAtomVM/portnifloader.h">
<polygon fill="#bfbfbf" stroke="black" points="620,-828 222,-828 222,-792 620,-792 620,-828"/>
<text text-anchor="middle" x="421" y="-806.3" font-family="Times,serif" font-size="14.00">/__w/AtomVM/AtomVM/src/libAtomVM/portnifloader.h</text>
</a>
</g>
</g>
<!-- 1&#45;&gt;29 -->
<g id="edge25" class="edge">
<title>1&#45;&gt;29</title>
<g id="a_edge25"><a xlink:title="include">
<path fill="none" stroke="#1414ce" d="M455.49,-791.88C476.37,-781.51 503.01,-768.28 524.43,-757.65"/>
<polygon fill="#1414ce" stroke="#1414ce" points="526.15,-760.7 533.55,-753.12 523.04,-754.43 526.15,-760.7"/>
</a>
</g>
</g>
<!-- 1&#45;&gt;2 -->
<g id="edge23" class="edge">
<title>1&#45;&gt;2</title>
<g id="a_edge23"><a xlink:title="include">
<path fill="none" stroke="#1414ce" d="M400.74,-791.87C370.84,-766.6 314.82,-719.25 281.01,-690.68"/>
<polygon fill="#1414ce" stroke="#1414ce" points="283.23,-687.97 273.34,-684.19 278.71,-693.32 283.23,-687.97"/>
</a>
</g>
</g>
<!-- 1&#45;&gt;3 -->
<g id="edge24" class="edge">
<title>1&#45;&gt;3</title>
<g id="a_edge24"><a xlink:title="include">
<path fill="none" stroke="#1414ce" d="M421,-791.85C421,-754.83 421,-667.18 421,-622.39"/>
<polygon fill="#1414ce" stroke="#1414ce" points="424.5,-622.23 421,-612.23 417.5,-622.23 424.5,-622.23"/>
</a>
</g>
</g>
<!-- 22 -->
<g id="node13" class="node">
<title>22</title>
<g id="a_node13"><a xlink:title="memory.h">
<polygon fill="#ffffff" stroke="black" points="983,-252 897,-252 897,-216 983,-216 983,-252"/>
<text text-anchor="middle" x="940" y="-230.3" font-family="Times,serif" font-size="14.00">memory.h</text>
</a>
</g>
</g>
<!-- 22&#45;&gt;23 -->
<g id="edge30" class="edge">
<title>22&#45;&gt;23</title>
<g id="a_edge30"><a xlink:title="include">
<path fill="none" stroke="#1414ce" d="M940,-215.7C940,-207.98 940,-198.71 940,-190.11"/>
<polygon fill="#1414ce" stroke="#1414ce" points="943.5,-190.1 940,-180.1 936.5,-190.1 943.5,-190.1"/>
</a>
</g>
</g>
<!-- 22&#45;&gt;4 -->
<g id="edge26" class="edge">
<title>22&#45;&gt;4</title>
<g id="a_edge26"><a xlink:title="include">
<path fill="none" stroke="#1414ce" d="M953.65,-215.57C961.54,-205.34 971.54,-192.09 980,-180 1012.81,-133.14 1016.12,-118.09 1050,-72 1056.87,-62.65 1064.85,-52.78 1072.12,-44.12"/>
<polygon fill="#1414ce" stroke="#1414ce" points="1075,-46.14 1078.8,-36.25 1069.66,-41.61 1075,-46.14"/>
</a>
</g>
</g>
<!-- 22&#45;&gt;6 -->
<g id="edge27" class="edge">
<title>22&#45;&gt;6</title>
<g id="a_edge27"><a xlink:title="include">
<path fill="none" stroke="#1414ce" d="M966.32,-215.83C980.67,-206 998.41,-193.06 1013,-180 1035.37,-159.97 1058.16,-134.38 1073.84,-115.78"/>
<polygon fill="#1414ce" stroke="#1414ce" points="1076.59,-117.95 1080.31,-108.03 1071.21,-113.46 1076.59,-117.95"/>
</a>
</g>
</g>
<!-- 9 -->
<g id="node17" class="node">
<title>9</title>
<g id="a_node17"><a xlink:title="erl_nif.h">
<polygon fill="#ffffff" stroke="black" points="815,-180 741,-180 741,-144 815,-144 815,-180"/>
<text text-anchor="middle" x="778" y="-158.3" font-family="Times,serif" font-size="14.00">erl_nif.h</text>
</a>
</g>
</g>
<!-- 22&#45;&gt;9 -->
<g id="edge28" class="edge">
<title>22&#45;&gt;9</title>
<g id="a_edge28"><a xlink:title="include">
<path fill="none" stroke="#1414ce" d="M900.37,-215.88C877.46,-205.98 848.52,-193.47 824.54,-183.11"/>
<polygon fill="#1414ce" stroke="#1414ce" points="825.84,-179.86 815.27,-179.11 823.07,-186.29 825.84,-179.86"/>
</a>
</g>
</g>
<!-- 10 -->
<g id="node23" class="node">
<title>10</title>
<g id="a_node23"><a xlink:title="term_typedef.h">
<polygon fill="#ffffff" stroke="black" points="794.5,-108 669.5,-108 669.5,-72 794.5,-72 794.5,-108"/>
<text text-anchor="middle" x="732" y="-86.3" font-family="Times,serif" font-size="14.00">term_typedef.h</text>
</a>
</g>
</g>
<!-- 22&#45;&gt;10 -->
<g id="edge29" class="edge">
<title>22&#45;&gt;10</title>
<g id="a_edge29"><a xlink:title="include">
<path fill="none" stroke="#1414ce" d="M919.24,-215.73C896.49,-197.14 858.62,-167.11 824,-144 807.85,-133.22 789.42,-122.34 773.31,-113.27"/>
<polygon fill="#1414ce" stroke="#1414ce" points="774.57,-109.96 764.13,-108.15 771.16,-116.07 774.57,-109.96"/>
</a>
</g>
</g>
<!-- 26&#45;&gt;16 -->
<g id="edge35" class="edge">
<title>26&#45;&gt;16</title>
<g id="a_edge35"><a xlink:title="include">
<path fill="none" stroke="#1414ce" d="M820.64,-296.76C739.08,-283.42 578.85,-257.22 495.77,-243.63"/>
<polygon fill="#1414ce" stroke="#1414ce" points="496.22,-240.16 485.79,-242 495.09,-247.07 496.22,-240.16"/>
</a>
</g>
</g>
<!-- 26&#45;&gt;15 -->
<g id="edge33" class="edge">
<title>26&#45;&gt;15</title>
<g id="a_edge33"><a xlink:title="include">
<path fill="none" stroke="#1414ce" d="M820.77,-290.73C720.24,-262.19 496.4,-198.61 407.97,-173.5"/>
<polygon fill="#1414ce" stroke="#1414ce" points="408.69,-170.07 398.12,-170.7 406.78,-176.8 408.69,-170.07"/>
</a>
</g>
</g>
<!-- 26&#45;&gt;6 -->
<g id="edge31" class="edge">
<title>26&#45;&gt;6</title>
<g id="a_edge31"><a xlink:title="include">
<path fill="none" stroke="#1414ce" d="M921.04,-289.8C944.2,-281.16 971.13,-268.69 992,-252 1037.39,-215.7 1068.52,-153.41 1083.58,-117.89"/>
<polygon fill="#1414ce" stroke="#1414ce" points="1087,-118.79 1087.57,-108.21 1080.53,-116.12 1087,-118.79"/>
</a>
</g>
</g>
<!-- 26&#45;&gt;22 -->
<g id="edge34" class="edge">
<title>26&#45;&gt;22</title>
<g id="a_edge34"><a xlink:title="include">
<path fill="none" stroke="#1414ce" d="M888.06,-287.7C896.5,-279.14 906.82,-268.66 916.04,-259.3"/>
<polygon fill="#1414ce" stroke="#1414ce" points="918.61,-261.68 923.14,-252.1 913.63,-256.77 918.61,-261.68"/>
</a>
</g>
</g>
<!-- 26&#45;&gt;9 -->
<g id="edge32" class="edge">
<title>26&#45;&gt;9</title>
<g id="a_edge32"><a xlink:title="include">
<path fill="none" stroke="#1414ce" d="M859.78,-287.87C843.65,-263.24 813.78,-217.64 794.95,-188.88"/>
<polygon fill="#1414ce" stroke="#1414ce" points="797.66,-186.64 789.26,-180.19 791.81,-190.47 797.66,-186.64"/>
</a>
</g>
</g>
<!-- 19&#45;&gt;8 -->
<g id="edge37" class="edge">
<title>19&#45;&gt;8</title>
<g id="a_edge37"><a xlink:title="include">
<path fill="none" stroke="#1414ce" d="M806.22,-447.57C767.33,-444.16 702.77,-432.9 663,-396 575.02,-314.38 655.08,-224.42 566,-144 526.71,-108.52 465.98,-96.46 422.74,-92.53"/>
<polygon fill="#1414ce" stroke="#1414ce" points="422.95,-89.03 412.7,-91.73 422.39,-96.01 422.95,-89.03"/>
</a>
</g>
</g>
<!-- 19&#45;&gt;25 -->
<g id="edge43" class="edge">
<title>19&#45;&gt;25</title>
<g id="a_edge43"><a xlink:title="include">
<path fill="none" stroke="#1414ce" d="M867.38,-431.88C882.54,-422.72 901.41,-411.34 917.74,-401.48"/>
<polygon fill="#1414ce" stroke="#1414ce" points="919.76,-404.35 926.51,-396.19 916.14,-398.36 919.76,-404.35"/>
</a>
</g>
</g>
<!-- 19&#45;&gt;23 -->
<g id="edge44" class="edge">
<title>19&#45;&gt;23</title>
<g id="a_edge44"><a xlink:title="include">
<path fill="none" stroke="#1414ce" d="M871.93,-446.52C930.52,-441.34 1049.06,-427.2 1074,-396 1081.32,-386.84 1086.09,-317.7 1073,-288 1053.43,-243.61 1009.7,-207.6 977.7,-185.83"/>
<polygon fill="#1414ce" stroke="#1414ce" points="979.29,-182.68 969.02,-180.07 975.42,-188.52 979.29,-182.68"/>
</a>
</g>
</g>
<!-- 19&#45;&gt;4 -->
<g id="edge38" class="edge">
<title>19&#45;&gt;4</title>
<g id="a_edge38"><a xlink:title="include">
<path fill="none" stroke="#1414ce" d="M871.52,-446.29C938.21,-440.22 1087.77,-423.84 1130,-396 1169.62,-369.88 1189,-354.46 1189,-307 1189,-307 1189,-307 1189,-161 1189,-113.01 1151.06,-68.96 1123.13,-43.04"/>
<polygon fill="#1414ce" stroke="#1414ce" points="1125.33,-40.31 1115.56,-36.22 1120.65,-45.52 1125.33,-40.31"/>
</a>
</g>
</g>
<!-- 19&#45;&gt;6 -->
<g id="edge40" class="edge">
<title>19&#45;&gt;6</title>
<g id="a_edge40"><a xlink:title="include">
<path fill="none" stroke="#1414ce" d="M871.51,-448.86C951.42,-446.62 1151,-428.85 1151,-307 1151,-307 1151,-307 1151,-233 1151,-189.8 1128,-144.19 1111.22,-116.66"/>
<polygon fill="#1414ce" stroke="#1414ce" points="1114.09,-114.65 1105.81,-108.04 1108.17,-118.37 1114.09,-114.65"/>
</a>
</g>
</g>
<!-- 19&#45;&gt;22 -->
<g id="edge42" class="edge">
<title>19&#45;&gt;22</title>
<g id="a_edge42"><a xlink:title="include">
<path fill="none" stroke="#1414ce" d="M871.71,-445.67C925.56,-439.43 1029.11,-424.03 1051,-396 1080.54,-358.17 1076.61,-328.6 1051,-288 1038.05,-267.47 1014.71,-254.72 992.77,-246.89"/>
<polygon fill="#1414ce" stroke="#1414ce" points="993.75,-243.53 983.16,-243.73 991.56,-250.18 993.75,-243.53"/>
</a>
</g>
</g>
<!-- 20 -->
<g id="node21" class="node">
<title>20</title>
<g id="a_node21"><a xlink:title="sys/types.h">
<polygon fill="#ffffff" stroke="black" points="791.5,-396 694.5,-396 694.5,-360 791.5,-360 791.5,-396"/>
<text text-anchor="middle" x="743" y="-374.3" font-family="Times,serif" font-size="14.00">sys/types.h</text>
</a>
</g>
</g>
<!-- 19&#45;&gt;20 -->
<g id="edge36" class="edge">
<title>19&#45;&gt;20</title>
<g id="a_edge36"><a xlink:title="include">
<path fill="none" stroke="#1414ce" d="M815.27,-431.7C803.06,-422.8 788.01,-411.82 774.82,-402.2"/>
<polygon fill="#1414ce" stroke="#1414ce" points="776.6,-399.17 766.46,-396.1 772.48,-404.82 776.6,-399.17"/>
</a>
</g>
</g>
<!-- 21 -->
<g id="node22" class="node">
<title>21</title>
<g id="a_node22"><a xlink:title="string.h">
<polygon fill="#ffffff" stroke="black" points="882.5,-396 809.5,-396 809.5,-360 882.5,-360 882.5,-396"/>
<text text-anchor="middle" x="846" y="-374.3" font-family="Times,serif" font-size="14.00">string.h</text>
</a>
</g>
</g>
<!-- 19&#45;&gt;21 -->
<g id="edge41" class="edge">
<title>19&#45;&gt;21</title>
<g id="a_edge41"><a xlink:title="include">
<path fill="none" stroke="#1414ce" d="M840.73,-431.7C841.5,-423.98 842.43,-414.71 843.29,-406.11"/>
<polygon fill="#1414ce" stroke="#1414ce" points="846.78,-406.4 844.29,-396.1 839.81,-405.71 846.78,-406.4"/>
</a>
</g>
</g>
<!-- 19&#45;&gt;10 -->
<g id="edge45" class="edge">
<title>19&#45;&gt;10</title>
<g id="a_edge45"><a xlink:title="include">
<path fill="none" stroke="#1414ce" d="M806.37,-448.2C769.95,-445.35 712.51,-434.56 685,-396 623.23,-309.42 685.52,-173.71 716.61,-117.13"/>
<polygon fill="#1414ce" stroke="#1414ce" points="719.82,-118.57 721.66,-108.13 713.72,-115.14 719.82,-118.57"/>
</a>
</g>
</g>
<!-- 19&#45;&gt;17 -->
<g id="edge39" class="edge">
<title>19&#45;&gt;17</title>
<g id="a_edge39"><a xlink:title="include">
<path fill="none" stroke="#1414ce" d="M871.57,-444.07C918.24,-436.26 1000.45,-419.5 1018,-396 1027.57,-383.18 1024.8,-374.48 1018,-360 1010.02,-343 898.12,-267.82 888,-252 861.26,-210.22 851.05,-152.19 847.22,-118.42"/>
<polygon fill="#1414ce" stroke="#1414ce" points="850.69,-117.94 846.19,-108.35 843.73,-118.66 850.69,-117.94"/>
</a>
</g>
</g>
<!-- 9&#45;&gt;10 -->
<g id="edge46" class="edge">
<title>9&#45;&gt;10</title>
<g id="a_edge46"><a xlink:title="include">
<path fill="none" stroke="#1414ce" d="M766.63,-143.7C761.28,-135.56 754.8,-125.69 748.89,-116.7"/>
<polygon fill="#1414ce" stroke="#1414ce" points="751.66,-114.54 743.24,-108.1 745.81,-118.38 751.66,-114.54"/>
</a>
</g>
</g>
<!-- 30&#45;&gt;19 -->
<g id="edge47" class="edge">
<title>30&#45;&gt;19</title>
<g id="a_edge47"><a xlink:title="include">
<path fill="none" stroke="#1414ce" d="M838.12,-575.87C838.29,-551.67 838.6,-507.21 838.81,-478.39"/>
<polygon fill="#1414ce" stroke="#1414ce" points="842.31,-478.21 838.88,-468.19 835.31,-478.16 842.31,-478.21"/>
</a>
</g>
</g>
<!-- 12 -->
<g id="node19" class="node">
<title>12</title>
<g id="a_node19"><a xlink:title="limits.h">
<polygon fill="#ffffff" stroke="black" points="767.5,-36 696.5,-36 696.5,0 767.5,0 767.5,-36"/>
<text text-anchor="middle" x="732" y="-14.3" font-family="Times,serif" font-size="14.00">limits.h</text>
</a>
</g>
</g>
<!-- 7 -->
<g id="node20" class="node">
<title>7</title>
<g id="a_node20"><a xlink:title="atom_table.h">
<polygon fill="#ffffff" stroke="black" points="585.5,-540 476.5,-540 476.5,-504 585.5,-504 585.5,-540"/>
<text text-anchor="middle" x="531" y="-518.3" font-family="Times,serif" font-size="14.00">atom_table.h</text>
</a>
</g>
</g>
<!-- 7&#45;&gt;8 -->
<g id="edge48" class="edge">
<title>7&#45;&gt;8</title>
<g id="a_edge48"><a xlink:title="include">
<path fill="none" stroke="#1414ce" d="M535.25,-503.63C541.39,-476.99 552,-424.36 552,-379 552,-379 552,-379 552,-233 552,-166.64 475.75,-126.6 422.23,-106.67"/>
<polygon fill="#1414ce" stroke="#1414ce" points="423.12,-103.27 412.53,-103.18 420.75,-109.86 423.12,-103.27"/>
</a>
</g>
</g>
<!-- 7&#45;&gt;5 -->
<g id="edge49" class="edge">
<title>7&#45;&gt;5</title>
<g id="a_edge49"><a xlink:title="include">
<path fill="none" stroke="#1414ce" d="M585.82,-514.52C613.96,-511.25 648.8,-507.29 680,-504 867.52,-484.22 1091.52,-463.39 1183.91,-454.92"/>
<polygon fill="#1414ce" stroke="#1414ce" points="1184.35,-458.4 1193.99,-454 1183.72,-451.43 1184.35,-458.4"/>
</a>
</g>
</g>
<!-- 10&#45;&gt;11 -->
<g id="edge50" class="edge">
<title>10&#45;&gt;11</title>
<g id="a_edge50"><a xlink:title="include">
<path fill="none" stroke="#1414ce" d="M709.51,-71.7C698.04,-62.88 683.94,-52.03 671.52,-42.47"/>
<polygon fill="#1414ce" stroke="#1414ce" points="673.3,-39.43 663.24,-36.1 669.03,-44.98 673.3,-39.43"/>
</a>
</g>
</g>
<!-- 10&#45;&gt;4 -->
<g id="edge53" class="edge">
<title>10&#45;&gt;4</title>
<g id="a_edge53"><a xlink:title="include">
<path fill="none" stroke="#1414ce" d="M794.68,-73.8C797.49,-73.18 800.27,-72.57 803,-72 889.04,-53.88 990.16,-36.29 1047.7,-26.63"/>
<polygon fill="#1414ce" stroke="#1414ce" points="1048.3,-30.08 1057.58,-24.97 1047.14,-23.17 1048.3,-30.08"/>
</a>
</g>
</g>
<!-- 10&#45;&gt;12 -->
<g id="edge51" class="edge">
<title>10&#45;&gt;12</title>
<g id="a_edge51"><a xlink:title="include">
<path fill="none" stroke="#1414ce" d="M732,-71.7C732,-63.98 732,-54.71 732,-46.11"/>
<polygon fill="#1414ce" stroke="#1414ce" points="735.5,-46.1 732,-36.1 728.5,-46.1 735.5,-46.1"/>
</a>
</g>
</g>
<!-- 13 -->
<g id="node30" class="node">
<title>13</title>
<g id="a_node30"><a xlink:title="inttypes.h">
<polygon fill="#ffffff" stroke="black" points="874.5,-36 785.5,-36 785.5,0 874.5,0 874.5,-36"/>
<text text-anchor="middle" x="830" y="-14.3" font-family="Times,serif" font-size="14.00">inttypes.h</text>
</a>
</g>
</g>
<!-- 10&#45;&gt;13 -->
<g id="edge52" class="edge">
<title>10&#45;&gt;13</title>
<g id="a_edge52"><a xlink:title="include">
<path fill="none" stroke="#1414ce" d="M755.97,-71.88C768.55,-62.89 784.13,-51.76 797.75,-42.03"/>
<polygon fill="#1414ce" stroke="#1414ce" points="799.83,-44.85 805.93,-36.19 795.76,-39.15 799.83,-44.85"/>
</a>
</g>
</g>
<!-- 3&#45;&gt;5 -->
<g id="edge55" class="edge">
<title>3&#45;&gt;5</title>
<g id="a_edge55"><a xlink:title="include">
<path fill="none" stroke="#1414ce" d="M484.58,-581.8C642.72,-553.94 1050.62,-482.07 1184.05,-458.57"/>
<polygon fill="#1414ce" stroke="#1414ce" points="1184.67,-462.01 1193.91,-456.83 1183.46,-455.12 1184.67,-462.01"/>
</a>
</g>
</g>
<!-- 3&#45;&gt;16 -->
<g id="edge62" class="edge">
<title>3&#45;&gt;16</title>
<g id="a_edge62"><a xlink:title="include">
<path fill="none" stroke="#1414ce" d="M426.46,-575.71C434.35,-549.18 448,-496.67 448,-451 448,-451 448,-451 448,-377 448,-336.97 445.99,-290.63 444.52,-262.07"/>
<polygon fill="#1414ce" stroke="#1414ce" points="448.01,-261.84 443.99,-252.04 441.02,-262.21 448.01,-261.84"/>
</a>
</g>
</g>
<!-- 3&#45;&gt;15 -->
<g id="edge59" class="edge">
<title>3&#45;&gt;15</title>
<g id="a_edge59"><a xlink:title="include">
<path fill="none" stroke="#1414ce" d="M393.22,-575.93C380.44,-566.75 366.13,-554.37 357,-540 335.09,-505.52 334,-491.86 334,-451 334,-451 334,-451 334,-305 334,-263.71 348.83,-217.77 359.72,-189.63"/>
<polygon fill="#1414ce" stroke="#1414ce" points="363.06,-190.7 363.51,-180.11 356.56,-188.11 363.06,-190.7"/>
</a>
</g>
</g>
<!-- 3&#45;&gt;4 -->
<g id="edge54" class="edge">
<title>3&#45;&gt;4</title>
<g id="a_edge54"><a xlink:title="include">
<path fill="none" stroke="#1414ce" d="M484.79,-589.47C687.39,-577.4 1303,-533.93 1303,-451 1303,-451 1303,-451 1303,-161 1303,-82.88 1201.86,-44.73 1140.29,-28.74"/>
<polygon fill="#1414ce" stroke="#1414ce" points="1140.95,-25.3 1130.41,-26.28 1139.26,-32.09 1140.95,-25.3"/>
</a>
</g>
</g>
<!-- 3&#45;&gt;19 -->
<g id="edge63" class="edge">
<title>3&#45;&gt;19</title>
<g id="a_edge63"><a xlink:title="include">
<path fill="none" stroke="#1414ce" d="M484.55,-582.79C526.55,-574.59 582.1,-560.94 628,-540 653.57,-528.33 654.86,-516.57 680,-504 717.74,-485.13 763.73,-470.63 796.53,-461.61"/>
<polygon fill="#1414ce" stroke="#1414ce" points="797.51,-464.97 806.26,-458.99 795.69,-458.21 797.51,-464.97"/>
</a>
</g>
</g>
<!-- 3&#45;&gt;9 -->
<g id="edge57" class="edge">
<title>3&#45;&gt;9</title>
<g id="a_edge57"><a xlink:title="include">
<path fill="none" stroke="#1414ce" d="M484.55,-576.18C530.24,-563.64 585.28,-547.45 594,-540 601.41,-533.67 725.04,-274.42 765.38,-189.57"/>
<polygon fill="#1414ce" stroke="#1414ce" points="768.64,-190.87 769.77,-180.34 762.31,-187.87 768.64,-190.87"/>
</a>
</g>
</g>
<!-- 3&#45;&gt;7 -->
<g id="edge56" class="edge">
<title>3&#45;&gt;7</title>
<g id="a_edge56"><a xlink:title="include">
<path fill="none" stroke="#1414ce" d="M447.91,-575.88C462.16,-566.81 479.85,-555.55 495.24,-545.76"/>
<polygon fill="#1414ce" stroke="#1414ce" points="497.43,-548.51 503.99,-540.19 493.67,-542.61 497.43,-548.51"/>
</a>
</g>
</g>
<!-- 3&#45;&gt;18 -->
<g id="edge61" class="edge">
<title>3&#45;&gt;18</title>
<g id="a_edge61"><a xlink:title="include">
<path fill="none" stroke="#1414ce" d="M357.25,-581.46C325.85,-573.53 288.69,-560.59 260,-540 206.72,-501.75 94.21,-371.47 57,-252 52.24,-236.72 48.21,-229.37 57,-216 75.27,-188.23 111.49,-174.95 139.91,-168.63"/>
<polygon fill="#1414ce" stroke="#1414ce" points="140.87,-172.01 149.98,-166.61 139.49,-165.15 140.87,-172.01"/>
</a>
</g>
</g>
<!-- 3&#45;&gt;28 -->
<g id="edge64" class="edge">
<title>3&#45;&gt;28</title>
<g id="a_edge64"><a xlink:title="include">
<path fill="none" stroke="#1414ce" d="M360.84,-575.96C339,-567.66 315.24,-555.95 297,-540 204.59,-459.22 145.85,-319.67 124.29,-261.57"/>
<polygon fill="#1414ce" stroke="#1414ce" points="127.53,-260.22 120.81,-252.02 120.95,-262.62 127.53,-260.22"/>
</a>
</g>
</g>
<!-- 3&#45;&gt;27 -->
<g id="edge60" class="edge">
<title>3&#45;&gt;27</title>
<g id="a_edge60"><a xlink:title="include">
<path fill="none" stroke="#1414ce" d="M370.67,-575.99C352.51,-567.65 333.25,-555.9 320,-540 283.76,-496.51 244.91,-328.44 230.66,-262.13"/>
<polygon fill="#1414ce" stroke="#1414ce" points="234.01,-261.09 228.51,-252.04 227.17,-262.55 234.01,-261.09"/>
</a>
</g>
</g>
<!-- 14 -->
<g id="node29" class="node">
<title>14</title>
<g id="a_node29"><a xlink:title="ets.h">
<polygon fill="#ffffff" stroke="black" points="420,-540 366,-540 366,-504 420,-504 420,-540"/>
<text text-anchor="middle" x="393" y="-518.3" font-family="Times,serif" font-size="14.00">ets.h</text>
</a>
</g>
</g>
<!-- 3&#45;&gt;14 -->
<g id="edge58" class="edge">
<title>3&#45;&gt;14</title>
<g id="a_edge58"><a xlink:title="include">
<path fill="none" stroke="#1414ce" d="M414.08,-575.7C410.93,-567.81 407.12,-558.3 403.62,-549.55"/>
<polygon fill="#1414ce" stroke="#1414ce" points="406.81,-548.09 399.84,-540.1 400.31,-550.69 406.81,-548.09"/>
</a>
</g>
</g>
<!-- 18&#45;&gt;8 -->
<g id="edge65" class="edge">
<title>18&#45;&gt;8</title>
<g id="a_edge65"><a xlink:title="include">
<path fill="none" stroke="#1414ce" d="M210.48,-149.42C215.33,-147.6 220.3,-145.74 225,-144 256.44,-132.35 291.78,-119.52 319.82,-109.4"/>
<polygon fill="#1414ce" stroke="#1414ce" points="321.19,-112.62 329.41,-105.93 318.82,-106.04 321.19,-112.62"/>
</a>
</g>
</g>
<!-- 28&#45;&gt;8 -->
<g id="edge66" class="edge">
<title>28&#45;&gt;8</title>
<g id="a_edge66"><a xlink:title="include">
<path fill="none" stroke="#1414ce" d="M153.03,-215.8C173.15,-206.16 197.98,-193.4 219,-180 240.89,-166.04 243.06,-157.87 265,-144 283.3,-132.43 304.46,-121.42 323.04,-112.46"/>
<polygon fill="#1414ce" stroke="#1414ce" points="324.69,-115.55 332.22,-108.1 321.68,-109.23 324.69,-115.55"/>
</a>
</g>
</g>
<!-- 28&#45;&gt;15 -->
<g id="edge68" class="edge">
<title>28&#45;&gt;15</title>
<g id="a_edge68"><a xlink:title="include">
<path fill="none" stroke="#1414ce" d="M164.02,-218.54C167.06,-217.67 170.07,-216.82 173,-216 228.95,-200.31 294.08,-183.08 333.92,-172.65"/>
<polygon fill="#1414ce" stroke="#1414ce" points="334.93,-176 343.72,-170.08 333.16,-169.23 334.93,-176"/>
</a>
</g>
</g>
<!-- 28&#45;&gt;4 -->
<g id="edge67" class="edge">
<title>28&#45;&gt;4</title>
<g id="a_edge67"><a xlink:title="include">
<path fill="none" stroke="#1414ce" d="M115.67,-215.78C117.32,-196.11 122.84,-164.04 141,-144 198.59,-80.46 236.38,-90.98 320,-72 564.52,-16.51 632.92,-54.07 883,-36 939.72,-31.9 1004.96,-26.55 1047.7,-22.95"/>
<polygon fill="#1414ce" stroke="#1414ce" points="1048.13,-26.43 1057.8,-22.1 1047.54,-19.45 1048.13,-26.43"/>
</a>
</g>
</g>
<!-- 27&#45;&gt;8 -->
<g id="edge69" class="edge">
<title>27&#45;&gt;8</title>
<g id="a_edge69"><a xlink:title="include">
<path fill="none" stroke="#1414ce" d="M238.24,-215.69C252.88,-197.05 277.63,-166.99 302,-144 313.14,-133.49 326.28,-122.99 338.09,-114.14"/>
<polygon fill="#1414ce" stroke="#1414ce" points="340.43,-116.77 346.4,-108.02 336.27,-111.13 340.43,-116.77"/>
</a>
</g>
</g>
<!-- 27&#45;&gt;23 -->
<g id="edge72" class="edge">
<title>27&#45;&gt;23</title>
<g id="a_edge72"><a xlink:title="include">
<path fill="none" stroke="#1414ce" d="M268.32,-228.34C301.8,-224.78 349.32,-219.87 391,-216 583.28,-198.16 632.15,-202.01 824,-180 848.79,-177.16 876.44,-173.14 898.52,-169.72"/>
<polygon fill="#1414ce" stroke="#1414ce" points="899.22,-173.15 908.56,-168.15 898.14,-166.24 899.22,-173.15"/>
</a>
</g>
</g>
<!-- 27&#45;&gt;15 -->
<g id="edge70" class="edge">
<title>27&#45;&gt;15</title>
<g id="a_edge70"><a xlink:title="include">
<path fill="none" stroke="#1414ce" d="M260.72,-215.88C283.17,-205.11 312.06,-191.26 334.64,-180.43"/>
<polygon fill="#1414ce" stroke="#1414ce" points="336.39,-183.48 343.89,-176 333.36,-177.16 336.39,-183.48"/>
</a>
</g>
</g>
<!-- 27&#45;&gt;10 -->
<g id="edge71" class="edge">
<title>27&#45;&gt;10</title>
<g id="a_edge71"><a xlink:title="include">
<path fill="none" stroke="#1414ce" d="M251.57,-215.98C266.32,-206.1 284.73,-193.05 300,-180 316.96,-165.5 315.07,-154.03 335,-144 390.27,-116.2 560.53,-101.44 659.21,-95.02"/>
<polygon fill="#1414ce" stroke="#1414ce" points="659.65,-98.5 669.41,-94.37 659.21,-91.52 659.65,-98.5"/>
</a>
</g>
</g>
<!-- 14&#45;&gt;16 -->
<g id="edge74" class="edge">
<title>14&#45;&gt;16</title>
<g id="a_edge74"><a xlink:title="include">
<path fill="none" stroke="#1414ce" d="M395.98,-503.97C404.33,-456.19 428.03,-320.62 438.23,-262.27"/>
<polygon fill="#1414ce" stroke="#1414ce" points="441.7,-262.76 439.97,-252.31 434.8,-261.55 441.7,-262.76"/>
</a>
</g>
</g>
<!-- 14&#45;&gt;15 -->
<g id="edge73" class="edge">
<title>14&#45;&gt;15</title>
<g id="a_edge73"><a xlink:title="include">
<path fill="none" stroke="#1414ce" d="M388.75,-503.63C382.61,-476.99 372,-424.36 372,-379 372,-379 372,-379 372,-305 372,-265 371.6,-218.65 371.3,-190.08"/>
<polygon fill="#1414ce" stroke="#1414ce" points="374.8,-190.01 371.2,-180.05 367.8,-190.09 374.8,-190.01"/>
</a>
</g>
</g>
<!-- 14&#45;&gt;19 -->
<g id="edge75" class="edge">
<title>14&#45;&gt;19</title>
<g id="a_edge75"><a xlink:title="include">
<path fill="none" stroke="#1414ce" d="M420.3,-514.15C434.22,-510.8 451.45,-506.89 467,-504 585.35,-482.01 726.36,-464.19 795.88,-455.95"/>
<polygon fill="#1414ce" stroke="#1414ce" points="796.48,-459.4 806.01,-454.75 795.66,-452.45 796.48,-459.4"/>
</a>
</g>
</g>
</g>
</svg>
