<?xml version="1.0" encoding="UTF-8" standalone="no"?>
<!DOCTYPE svg PUBLIC "-//W3C//DTD SVG 1.1//EN"
 "http://www.w3.org/Graphics/SVG/1.1/DTD/svg11.dtd">
<!-- Generated by graphviz version 2.43.0 (0)
 -->
<!-- Title: %3 Pages: 1 -->
<svg width="1386pt" height="692pt"
 viewBox="0.00 0.00 1386.00 692.00" xmlns="http://www.w3.org/2000/svg" xmlns:xlink="http://www.w3.org/1999/xlink">
<g id="graph0" class="graph" transform="scale(1 1) rotate(0) translate(4 688)">
<title>%3</title>
<polygon fill="transparent" stroke="transparent" points="-4,4 -4,-688 1382,-688 1382,4 -4,4"/>
<!-- 7 -->
<g id="node1" class="node">
<title>7</title>
<g id="a_node1"><a xlink:title="stdbool.h">
<polygon fill="#ffffff" stroke="black" points="426.5,-108 343.5,-108 343.5,-72 426.5,-72 426.5,-108"/>
<text text-anchor="middle" x="385" y="-86.3" font-family="Times,serif" font-size="14.00">stdbool.h</text>
</a>
</g>
</g>
<!-- 24 -->
<g id="node2" class="node">
<title>24</title>
<g id="a_node2"><a xlink:title="refc_binary.h">
<polygon fill="#ffffff" stroke="black" points="763,-396 655,-396 655,-360 763,-360 763,-396"/>
<text text-anchor="middle" x="709" y="-374.3" font-family="Times,serif" font-size="14.00">refc_binary.h</text>
</a>
</g>
</g>
<!-- 24&#45;&gt;7 -->
<g id="edge1" class="edge">
<title>24&#45;&gt;7</title>
<g id="a_edge1"><a xlink:title="include">
<path fill="none" stroke="#1414ce" d="M700.91,-359.79C685.5,-328.34 649.4,-260.74 604,-216 555.04,-167.75 483.74,-131.66 435.93,-110.97"/>
<polygon fill="#1414ce" stroke="#1414ce" points="437.27,-107.73 426.7,-107.03 434.53,-114.17 437.27,-107.73"/>
</a>
</g>
</g>
<!-- 14 -->
<g id="node7" class="node">
<title>14</title>
<g id="a_node7"><a xlink:title="list.h">
<polygon fill="#ffffff" stroke="black" points="402,-180 348,-180 348,-144 402,-144 402,-180"/>
<text text-anchor="middle" x="375" y="-158.3" font-family="Times,serif" font-size="14.00">list.h</text>
</a>
</g>
</g>
<!-- 24&#45;&gt;14 -->
<g id="edge3" class="edge">
<title>24&#45;&gt;14</title>
<g id="a_edge3"><a xlink:title="include">
<path fill="none" stroke="#1414ce" d="M654.87,-364.55C592.8,-347.93 491,-313.23 424,-252 405.37,-234.98 392.26,-209.19 384.32,-189.74"/>
<polygon fill="#1414ce" stroke="#1414ce" points="387.51,-188.29 380.64,-180.23 380.98,-190.82 387.51,-188.29"/>
</a>
</g>
</g>
<!-- 5 -->
<g id="node9" class="node">
<title>5</title>
<g id="a_node9"><a xlink:title="stdlib.h">
<polygon fill="#ffffff" stroke="black" points="1165.5,-108 1094.5,-108 1094.5,-72 1165.5,-72 1165.5,-108"/>
<text text-anchor="middle" x="1130" y="-86.3" font-family="Times,serif" font-size="14.00">stdlib.h</text>
</a>
</g>
</g>
<!-- 24&#45;&gt;5 -->
<g id="edge2" class="edge">
<title>24&#45;&gt;5</title>
<g id="a_edge2"><a xlink:title="include">
<path fill="none" stroke="#1414ce" d="M763.29,-367.78C838.49,-353.03 976.27,-318.75 1075,-252 1109.98,-228.35 1122.3,-219.59 1137,-180 1144.35,-160.2 1141.89,-136.27 1137.99,-118.2"/>
<polygon fill="#1414ce" stroke="#1414ce" points="1141.35,-117.21 1135.58,-108.33 1134.55,-118.87 1141.35,-117.21"/>
</a>
</g>
</g>
<!-- 25 -->
<g id="node11" class="node">
<title>25</title>
<g id="a_node11"><a xlink:title="resources.h">
<polygon fill="#ffffff" stroke="black" points="804,-324 704,-324 704,-288 804,-288 804,-324"/>
<text text-anchor="middle" x="754" y="-302.3" font-family="Times,serif" font-size="14.00">resources.h</text>
</a>
</g>
</g>
<!-- 24&#45;&gt;25 -->
<g id="edge4" class="edge">
<title>24&#45;&gt;25</title>
<g id="a_edge4"><a xlink:title="include">
<path fill="none" stroke="#1414ce" d="M720.12,-359.7C725.36,-351.56 731.7,-341.69 737.48,-332.7"/>
<polygon fill="#1414ce" stroke="#1414ce" points="740.54,-334.41 743,-324.1 734.65,-330.62 740.54,-334.41"/>
</a>
</g>
</g>
<!-- 4 -->
<g id="node3" class="node">
<title>4</title>
<g id="a_node3"><a xlink:title="atom.h">
<polygon fill="#ffffff" stroke="black" points="1084,-180 1018,-180 1018,-144 1084,-144 1084,-180"/>
<text text-anchor="middle" x="1051" y="-158.3" font-family="Times,serif" font-size="14.00">atom.h</text>
</a>
</g>
</g>
<!-- 3 -->
<g id="node8" class="node">
<title>3</title>
<g id="a_node8"><a xlink:title="stdint.h">
<polygon fill="#ffffff" stroke="black" points="1087,-36 1015,-36 1015,0 1087,0 1087,-36"/>
<text text-anchor="middle" x="1051" y="-14.3" font-family="Times,serif" font-size="14.00">stdint.h</text>
</a>
</g>
</g>
<!-- 4&#45;&gt;3 -->
<g id="edge5" class="edge">
<title>4&#45;&gt;3</title>
<g id="a_edge5"><a xlink:title="include">
<path fill="none" stroke="#1414ce" d="M1051,-143.87C1051,-119.67 1051,-75.21 1051,-46.39"/>
<polygon fill="#1414ce" stroke="#1414ce" points="1054.5,-46.19 1051,-36.19 1047.5,-46.19 1054.5,-46.19"/>
</a>
</g>
</g>
<!-- 4&#45;&gt;5 -->
<g id="edge6" class="edge">
<title>4&#45;&gt;5</title>
<g id="a_edge6"><a xlink:title="include">
<path fill="none" stroke="#1414ce" d="M1070.53,-143.7C1080.38,-134.97 1092.49,-124.24 1103.2,-114.75"/>
<polygon fill="#1414ce" stroke="#1414ce" points="1105.53,-117.36 1110.7,-108.1 1100.89,-112.12 1105.53,-117.36"/>
</a>
</g>
</g>
<!-- 10 -->
<g id="node4" class="node">
<title>10</title>
<g id="a_node4"><a xlink:title="assert.h">
<polygon fill="#ffffff" stroke="black" points="735,-36 661,-36 661,0 735,0 735,-36"/>
<text text-anchor="middle" x="698" y="-14.3" font-family="Times,serif" font-size="14.00">assert.h</text>
</a>
</g>
</g>
<!-- 22 -->
<g id="node5" class="node">
<title>22</title>
<g id="a_node5"><a xlink:title="utils.h">
<polygon fill="#ffffff" stroke="black" points="1000,-180 938,-180 938,-144 1000,-144 1000,-180"/>
<text text-anchor="middle" x="969" y="-158.3" font-family="Times,serif" font-size="14.00">utils.h</text>
</a>
</g>
</g>
<!-- 22&#45;&gt;5 -->
<g id="edge9" class="edge">
<title>22&#45;&gt;5</title>
<g id="a_edge9"><a xlink:title="include">
<path fill="none" stroke="#1414ce" d="M1000.04,-147.5C1024.16,-137.02 1057.93,-122.33 1085.01,-110.56"/>
<polygon fill="#1414ce" stroke="#1414ce" points="1086.51,-113.73 1094.28,-106.53 1083.72,-107.31 1086.51,-113.73"/>
</a>
</g>
</g>
<!-- 23 -->
<g id="node13" class="node">
<title>23</title>
<g id="a_node13"><a xlink:title="stddef.h">
<polygon fill="#ffffff" stroke="black" points="1266,-108 1192,-108 1192,-72 1266,-72 1266,-108"/>
<text text-anchor="middle" x="1229" y="-86.3" font-family="Times,serif" font-size="14.00">stddef.h</text>
</a>
</g>
</g>
<!-- 22&#45;&gt;23 -->
<g id="edge7" class="edge">
<title>22&#45;&gt;23</title>
<g id="a_edge7"><a xlink:title="include">
<path fill="none" stroke="#1414ce" d="M1000.23,-147.07C1003.17,-145.96 1006.12,-144.91 1009,-144 1080.95,-121.13 1102.03,-127.35 1175,-108 1177.32,-107.38 1179.7,-106.73 1182.09,-106.05"/>
<polygon fill="#1414ce" stroke="#1414ce" points="1183.34,-109.33 1191.95,-103.15 1181.37,-102.62 1183.34,-109.33"/>
</a>
</g>
</g>
<!-- 16 -->
<g id="node25" class="node">
<title>16</title>
<g id="a_node25"><a xlink:title="stdio.h">
<polygon fill="#ffffff" stroke="black" points="866.5,-108 801.5,-108 801.5,-72 866.5,-72 866.5,-108"/>
<text text-anchor="middle" x="834" y="-86.3" font-family="Times,serif" font-size="14.00">stdio.h</text>
</a>
</g>
</g>
<!-- 22&#45;&gt;16 -->
<g id="edge8" class="edge">
<title>22&#45;&gt;16</title>
<g id="a_edge8"><a xlink:title="include">
<path fill="none" stroke="#1414ce" d="M937.69,-144.76C919.18,-135.17 895.52,-122.9 875.47,-112.51"/>
<polygon fill="#1414ce" stroke="#1414ce" points="877.04,-109.37 866.55,-107.88 873.82,-115.59 877.04,-109.37"/>
</a>
</g>
</g>
<!-- 15 -->
<g id="node6" class="node">
<title>15</title>
<g id="a_node6"><a xlink:title="synclist.h">
<polygon fill="#ffffff" stroke="black" points="343.5,-252 258.5,-252 258.5,-216 343.5,-216 343.5,-252"/>
<text text-anchor="middle" x="301" y="-230.3" font-family="Times,serif" font-size="14.00">synclist.h</text>
</a>
</g>
</g>
<!-- 15&#45;&gt;14 -->
<g id="edge11" class="edge">
<title>15&#45;&gt;14</title>
<g id="a_edge11"><a xlink:title="include">
<path fill="none" stroke="#1414ce" d="M319.29,-215.7C328.43,-207.05 339.64,-196.45 349.6,-187.03"/>
<polygon fill="#1414ce" stroke="#1414ce" points="352.06,-189.52 356.92,-180.1 347.25,-184.43 352.06,-189.52"/>
</a>
</g>
</g>
<!-- 17 -->
<g id="node22" class="node">
<title>17</title>
<g id="a_node22"><a xlink:title="smp.h">
<polygon fill="#ffffff" stroke="black" points="292,-180 232,-180 232,-144 292,-144 292,-180"/>
<text text-anchor="middle" x="262" y="-158.3" font-family="Times,serif" font-size="14.00">smp.h</text>
</a>
</g>
</g>
<!-- 15&#45;&gt;17 -->
<g id="edge12" class="edge">
<title>15&#45;&gt;17</title>
<g id="a_edge12"><a xlink:title="include">
<path fill="none" stroke="#1414ce" d="M291.36,-215.7C286.87,-207.64 281.44,-197.89 276.48,-188.98"/>
<polygon fill="#1414ce" stroke="#1414ce" points="279.45,-187.14 271.53,-180.1 273.34,-190.54 279.45,-187.14"/>
</a>
</g>
</g>
<!-- 15&#45;&gt;16 -->
<g id="edge10" class="edge">
<title>15&#45;&gt;16</title>
<g id="a_edge10"><a xlink:title="include">
<path fill="none" stroke="#1414ce" d="M343.59,-226.15C396.26,-217.29 488.45,-200.55 566,-180 609.3,-168.53 727.32,-128.09 791.34,-105.88"/>
<polygon fill="#1414ce" stroke="#1414ce" points="792.83,-109.07 801.13,-102.48 790.54,-102.46 792.83,-109.07"/>
</a>
</g>
</g>
<!-- 14&#45;&gt;7 -->
<g id="edge13" class="edge">
<title>14&#45;&gt;7</title>
<g id="a_edge13"><a xlink:title="include">
<path fill="none" stroke="#1414ce" d="M377.47,-143.7C378.57,-135.98 379.9,-126.71 381.13,-118.11"/>
<polygon fill="#1414ce" stroke="#1414ce" points="384.61,-118.5 382.56,-108.1 377.68,-117.51 384.61,-118.5"/>
</a>
</g>
</g>
<!-- 21 -->
<g id="node10" class="node">
<title>21</title>
<g id="a_node10"><a xlink:title="memory.h">
<polygon fill="#ffffff" stroke="black" points="1022,-252 936,-252 936,-216 1022,-216 1022,-252"/>
<text text-anchor="middle" x="979" y="-230.3" font-family="Times,serif" font-size="14.00">memory.h</text>
</a>
</g>
</g>
<!-- 21&#45;&gt;22 -->
<g id="edge18" class="edge">
<title>21&#45;&gt;22</title>
<g id="a_edge18"><a xlink:title="include">
<path fill="none" stroke="#1414ce" d="M976.53,-215.7C975.43,-207.98 974.1,-198.71 972.87,-190.11"/>
<polygon fill="#1414ce" stroke="#1414ce" points="976.32,-189.51 971.44,-180.1 969.39,-190.5 976.32,-189.51"/>
</a>
</g>
</g>
<!-- 21&#45;&gt;3 -->
<g id="edge14" class="edge">
<title>21&#45;&gt;3</title>
<g id="a_edge14"><a xlink:title="include">
<path fill="none" stroke="#1414ce" d="M956.4,-215.96C945.94,-206.63 934.6,-194.11 929,-180 923.09,-165.13 922.97,-158.82 929,-144 946.59,-100.8 987.08,-64.39 1016.61,-42.2"/>
<polygon fill="#1414ce" stroke="#1414ce" points="1019,-44.79 1025,-36.05 1014.87,-39.14 1019,-44.79"/>
</a>
</g>
</g>
<!-- 21&#45;&gt;5 -->
<g id="edge15" class="edge">
<title>21&#45;&gt;5</title>
<g id="a_edge15"><a xlink:title="include">
<path fill="none" stroke="#1414ce" d="M1022.05,-221.42C1045.6,-213.2 1073.81,-200 1093,-180 1109.5,-162.81 1119.09,-137.2 1124.36,-117.86"/>
<polygon fill="#1414ce" stroke="#1414ce" points="1127.76,-118.68 1126.79,-108.13 1120.97,-116.98 1127.76,-118.68"/>
</a>
</g>
</g>
<!-- 8 -->
<g id="node14" class="node">
<title>8</title>
<g id="a_node14"><a xlink:title="erl_nif.h">
<polygon fill="#ffffff" stroke="black" points="768,-180 694,-180 694,-144 768,-144 768,-180"/>
<text text-anchor="middle" x="731" y="-158.3" font-family="Times,serif" font-size="14.00">erl_nif.h</text>
</a>
</g>
</g>
<!-- 21&#45;&gt;8 -->
<g id="edge16" class="edge">
<title>21&#45;&gt;8</title>
<g id="a_edge16"><a xlink:title="include">
<path fill="none" stroke="#1414ce" d="M935.8,-220.81C891.68,-208.35 823.38,-189.07 777.94,-176.25"/>
<polygon fill="#1414ce" stroke="#1414ce" points="778.62,-172.8 768.04,-173.46 776.72,-179.54 778.62,-172.8"/>
</a>
</g>
</g>
<!-- 9 -->
<g id="node20" class="node">
<title>9</title>
<g id="a_node20"><a xlink:title="term_typedef.h">
<polygon fill="#ffffff" stroke="black" points="660.5,-108 535.5,-108 535.5,-72 660.5,-72 660.5,-108"/>
<text text-anchor="middle" x="598" y="-86.3" font-family="Times,serif" font-size="14.00">term_typedef.h</text>
</a>
</g>
</g>
<!-- 21&#45;&gt;9 -->
<g id="edge17" class="edge">
<title>21&#45;&gt;9</title>
<g id="a_edge17"><a xlink:title="include">
<path fill="none" stroke="#1414ce" d="M951.56,-215.9C918.9,-196.19 862.2,-163.94 810,-144 764.98,-126.8 712.44,-113.62 670.93,-104.71"/>
<polygon fill="#1414ce" stroke="#1414ce" points="671.4,-101.23 660.9,-102.59 669.96,-108.08 671.4,-101.23"/>
</a>
</g>
</g>
<!-- 25&#45;&gt;15 -->
<g id="edge23" class="edge">
<title>25&#45;&gt;15</title>
<g id="a_edge23"><a xlink:title="include">
<path fill="none" stroke="#1414ce" d="M703.79,-297.24C617.48,-283.9 441.8,-256.76 353.76,-243.15"/>
<polygon fill="#1414ce" stroke="#1414ce" points="354.15,-239.67 343.73,-241.6 353.08,-246.59 354.15,-239.67"/>
</a>
</g>
</g>
<!-- 25&#45;&gt;14 -->
<g id="edge21" class="edge">
<title>25&#45;&gt;14</title>
<g id="a_edge21"><a xlink:title="include">
<path fill="none" stroke="#1414ce" d="M703.99,-304.41C644.41,-301.81 543.35,-291.33 467,-252 451.2,-243.86 419.24,-211.16 397.47,-187.76"/>
<polygon fill="#1414ce" stroke="#1414ce" points="399.88,-185.2 390.52,-180.23 394.73,-189.95 399.88,-185.2"/>
</a>
</g>
</g>
<!-- 25&#45;&gt;5 -->
<g id="edge19" class="edge">
<title>25&#45;&gt;5</title>
<g id="a_edge19"><a xlink:title="include">
<path fill="none" stroke="#1414ce" d="M804.2,-291.2C808.85,-290.06 813.51,-288.97 818,-288 911.83,-267.65 943.71,-291.97 1031,-252 1076.63,-231.11 1093.64,-223.88 1118,-180 1128.44,-161.2 1131.11,-136.82 1131.36,-118.33"/>
<polygon fill="#1414ce" stroke="#1414ce" points="1134.86,-118.18 1131.26,-108.22 1127.86,-118.25 1134.86,-118.18"/>
</a>
</g>
</g>
<!-- 25&#45;&gt;21 -->
<g id="edge22" class="edge">
<title>25&#45;&gt;21</title>
<g id="a_edge22"><a xlink:title="include">
<path fill="none" stroke="#1414ce" d="M804.21,-289.38C840.48,-278.1 889.35,-262.89 926.19,-251.43"/>
<polygon fill="#1414ce" stroke="#1414ce" points="927.25,-254.76 935.76,-248.45 925.17,-248.08 927.25,-254.76"/>
</a>
</g>
</g>
<!-- 25&#45;&gt;8 -->
<g id="edge20" class="edge">
<title>25&#45;&gt;8</title>
<g id="a_edge20"><a xlink:title="include">
<path fill="none" stroke="#1414ce" d="M778.93,-287.86C790.06,-278.67 802,-266.29 808,-252 814.19,-237.25 815.44,-230.16 808,-216 801.07,-202.81 789.2,-192.27 776.84,-184.16"/>
<polygon fill="#1414ce" stroke="#1414ce" points="778.61,-181.15 768.25,-178.94 774.98,-187.13 778.61,-181.15"/>
</a>
</g>
</g>
<!-- 18 -->
<g id="node12" class="node">
<title>18</title>
<g id="a_node12"><a xlink:title="term.h">
<polygon fill="#ffffff" stroke="black" points="951.5,-468 886.5,-468 886.5,-432 951.5,-432 951.5,-468"/>
<text text-anchor="middle" x="919" y="-446.3" font-family="Times,serif" font-size="14.00">term.h</text>
</a>
</g>
</g>
<!-- 18&#45;&gt;7 -->
<g id="edge25" class="edge">
<title>18&#45;&gt;7</title>
<g id="a_edge25"><a xlink:title="include">
<path fill="none" stroke="#1414ce" d="M886.1,-446.47C821.79,-440.93 682.49,-425.74 646,-396 578.82,-341.24 629.78,-279.69 571,-216 547.27,-190.29 530.03,-199.52 501,-180 480.6,-166.28 478.35,-159.17 459,-144 446.07,-133.86 431.43,-123.21 418.61,-114.14"/>
<polygon fill="#1414ce" stroke="#1414ce" points="420.26,-111.02 410.06,-108.14 416.23,-116.75 420.26,-111.02"/>
</a>
</g>
</g>
<!-- 18&#45;&gt;24 -->
<g id="edge31" class="edge">
<title>18&#45;&gt;24</title>
<g id="a_edge31"><a xlink:title="include">
<path fill="none" stroke="#1414ce" d="M886.19,-438.06C855.27,-427.76 808.16,-412.05 770.29,-399.43"/>
<polygon fill="#1414ce" stroke="#1414ce" points="770.97,-395.97 760.37,-396.12 768.75,-402.61 770.97,-395.97"/>
</a>
</g>
</g>
<!-- 18&#45;&gt;22 -->
<g id="edge32" class="edge">
<title>18&#45;&gt;22</title>
<g id="a_edge32"><a xlink:title="include">
<path fill="none" stroke="#1414ce" d="M951.56,-447.76C986.87,-444.47 1041.72,-433.24 1068,-396 1115.09,-329.27 1075.76,-284.32 1031,-216 1023.71,-204.88 1013.43,-194.78 1003.33,-186.46"/>
<polygon fill="#1414ce" stroke="#1414ce" points="1005.36,-183.6 995.33,-180.18 1001.03,-189.11 1005.36,-183.6"/>
</a>
</g>
</g>
<!-- 18&#45;&gt;3 -->
<g id="edge26" class="edge">
<title>18&#45;&gt;3</title>
<g id="a_edge26"><a xlink:title="include">
<path fill="none" stroke="#1414ce" d="M951.68,-446.35C1017.91,-440.44 1165.14,-424.43 1206,-396 1274.39,-348.42 1302,-318.31 1302,-235 1302,-235 1302,-235 1302,-161 1302,-119.66 1305.12,-100.31 1275,-72 1249.66,-48.19 1155.23,-32.25 1097.38,-24.5"/>
<polygon fill="#1414ce" stroke="#1414ce" points="1097.74,-21.01 1087.37,-23.19 1096.83,-27.95 1097.74,-21.01"/>
</a>
</g>
</g>
<!-- 18&#45;&gt;5 -->
<g id="edge28" class="edge">
<title>18&#45;&gt;5</title>
<g id="a_edge28"><a xlink:title="include">
<path fill="none" stroke="#1414ce" d="M951.56,-448.64C1030.57,-445.89 1226,-426.94 1226,-307 1226,-307 1226,-307 1226,-233 1226,-184.85 1187.66,-140.85 1159.44,-114.98"/>
<polygon fill="#1414ce" stroke="#1414ce" points="1161.58,-112.2 1151.78,-108.17 1156.93,-117.43 1161.58,-112.2"/>
</a>
</g>
</g>
<!-- 18&#45;&gt;21 -->
<g id="edge30" class="edge">
<title>18&#45;&gt;21</title>
<g id="a_edge30"><a xlink:title="include">
<path fill="none" stroke="#1414ce" d="M951.78,-445.87C982.94,-440.96 1028.19,-428.35 1050,-396 1079.88,-351.68 1035.75,-292.73 1004.82,-259.86"/>
<polygon fill="#1414ce" stroke="#1414ce" points="1007.14,-257.23 997.68,-252.47 1002.11,-262.1 1007.14,-257.23"/>
</a>
</g>
</g>
<!-- 19 -->
<g id="node18" class="node">
<title>19</title>
<g id="a_node18"><a xlink:title="sys/types.h">
<polygon fill="#ffffff" stroke="black" points="916.5,-396 819.5,-396 819.5,-360 916.5,-360 916.5,-396"/>
<text text-anchor="middle" x="868" y="-374.3" font-family="Times,serif" font-size="14.00">sys/types.h</text>
</a>
</g>
</g>
<!-- 18&#45;&gt;19 -->
<g id="edge24" class="edge">
<title>18&#45;&gt;19</title>
<g id="a_edge24"><a xlink:title="include">
<path fill="none" stroke="#1414ce" d="M906.39,-431.7C900.4,-423.47 893.12,-413.48 886.52,-404.42"/>
<polygon fill="#1414ce" stroke="#1414ce" points="889.18,-402.13 880.46,-396.1 883.52,-406.25 889.18,-402.13"/>
</a>
</g>
</g>
<!-- 20 -->
<g id="node19" class="node">
<title>20</title>
<g id="a_node19"><a xlink:title="string.h">
<polygon fill="#ffffff" stroke="black" points="1007.5,-396 934.5,-396 934.5,-360 1007.5,-360 1007.5,-396"/>
<text text-anchor="middle" x="971" y="-374.3" font-family="Times,serif" font-size="14.00">string.h</text>
</a>
</g>
</g>
<!-- 18&#45;&gt;20 -->
<g id="edge29" class="edge">
<title>18&#45;&gt;20</title>
<g id="a_edge29"><a xlink:title="include">
<path fill="none" stroke="#1414ce" d="M931.85,-431.7C938.03,-423.39 945.54,-413.28 952.32,-404.14"/>
<polygon fill="#1414ce" stroke="#1414ce" points="955.14,-406.22 958.29,-396.1 949.52,-402.04 955.14,-406.22"/>
</a>
</g>
</g>
<!-- 18&#45;&gt;9 -->
<g id="edge33" class="edge">
<title>18&#45;&gt;9</title>
<g id="a_edge33"><a xlink:title="include">
<path fill="none" stroke="#1414ce" d="M886.28,-442.67C860.89,-435.85 827.35,-422.23 811,-396 802.54,-382.42 810.04,-375.97 811,-360 814.85,-295.85 842.32,-277.59 824,-216 813.1,-179.37 807.65,-166.83 777,-144 746.25,-121.09 705.68,-108.04 670.95,-100.62"/>
<polygon fill="#1414ce" stroke="#1414ce" points="671.34,-97.13 660.85,-98.59 669.96,-104 671.34,-97.13"/>
</a>
</g>
</g>
<!-- 18&#45;&gt;16 -->
<g id="edge27" class="edge">
<title>18&#45;&gt;16</title>
<g id="a_edge27"><a xlink:title="include">
<path fill="none" stroke="#1414ce" d="M951.63,-440.87C974.32,-433.32 1002.94,-419.59 1017,-396 1025.19,-382.26 1022.45,-375.04 1017,-360 995.73,-301.25 962.76,-303.24 927,-252 895.36,-206.66 864.43,-149.92 847.42,-117.33"/>
<polygon fill="#1414ce" stroke="#1414ce" points="850.31,-115.3 842.6,-108.03 844.09,-118.52 850.31,-115.3"/>
</a>
</g>
</g>
<!-- 8&#45;&gt;9 -->
<g id="edge34" class="edge">
<title>8&#45;&gt;9</title>
<g id="a_edge34"><a xlink:title="include">
<path fill="none" stroke="#1414ce" d="M698.46,-143.88C680.75,-134.55 658.65,-122.92 639.68,-112.94"/>
<polygon fill="#1414ce" stroke="#1414ce" points="641.14,-109.75 630.66,-108.19 637.88,-115.94 641.14,-109.75"/>
</a>
</g>
</g>
<!-- 11 -->
<g id="node15" class="node">
<title>11</title>
<g id="a_node15"><a xlink:title="limits.h">
<polygon fill="#ffffff" stroke="black" points="535.5,-36 464.5,-36 464.5,0 535.5,0 535.5,-36"/>
<text text-anchor="middle" x="500" y="-14.3" font-family="Times,serif" font-size="14.00">limits.h</text>
</a>
</g>
</g>
<!-- 6 -->
<g id="node16" class="node">
<title>6</title>
<g id="a_node16"><a xlink:title="atom_table.h">
<polygon fill="#ffffff" stroke="black" points="765.5,-252 656.5,-252 656.5,-216 765.5,-216 765.5,-252"/>
<text text-anchor="middle" x="711" y="-230.3" font-family="Times,serif" font-size="14.00">atom_table.h</text>
</a>
</g>
</g>
<!-- 6&#45;&gt;7 -->
<g id="edge35" class="edge">
<title>6&#45;&gt;7</title>
<g id="a_edge35"><a xlink:title="include">
<path fill="none" stroke="#1414ce" d="M702.61,-215.93C691.63,-195.45 670.37,-161.68 642,-144 608.33,-123.01 501.5,-106.05 436.66,-97.35"/>
<polygon fill="#1414ce" stroke="#1414ce" points="437,-93.86 426.63,-96.03 436.08,-100.8 437,-93.86"/>
</a>
</g>
</g>
<!-- 6&#45;&gt;4 -->
<g id="edge36" class="edge">
<title>6&#45;&gt;4</title>
<g id="a_edge36"><a xlink:title="include">
<path fill="none" stroke="#1414ce" d="M765.61,-226.76C823.85,-219.34 918.72,-205.04 1008.01,-179.97"/>
<polygon fill="#1414ce" stroke="#1414ce" points="1009.1,-183.3 1017.75,-177.19 1007.17,-176.57 1009.1,-183.3"/>
</a>
</g>
</g>
<!-- 1 -->
<g id="node17" class="node">
<title>1</title>
<g id="a_node17"><a xlink:title="/__w/AtomVM/AtomVM/src/libAtomVM/avmpack.h">
<polygon fill="#bfbfbf" stroke="black" points="603,-684 233,-684 233,-648 603,-648 603,-684"/>
<text text-anchor="middle" x="418" y="-662.3" font-family="Times,serif" font-size="14.00">/__w/AtomVM/AtomVM/src/libAtomVM/avmpack.h</text>
</a>
</g>
</g>
<!-- 1&#45;&gt;7 -->
<g id="edge39" class="edge">
<title>1&#45;&gt;7</title>
<g id="a_edge39"><a xlink:title="include">
<path fill="none" stroke="#1414ce" d="M297.66,-647.99C174.17,-627.07 0,-586.33 0,-523 0,-523 0,-523 0,-233 0,-162.76 228.41,-116.48 333.37,-98.92"/>
<polygon fill="#1414ce" stroke="#1414ce" points="334.13,-102.34 343.43,-97.26 333,-95.43 334.13,-102.34"/>
</a>
</g>
</g>
<!-- 1&#45;&gt;14 -->
<g id="edge38" class="edge">
<title>1&#45;&gt;14</title>
<g id="a_edge38"><a xlink:title="include">
<path fill="none" stroke="#1414ce" d="M381.08,-647.95C341.47,-627.76 279.6,-590.41 245,-540 208.05,-486.18 220.5,-461.13 216,-396 210.47,-316.04 175.61,-277.5 227,-216 258.63,-178.14 285.72,-197.07 332,-180 334.08,-179.23 336.21,-178.43 338.36,-177.62"/>
<polygon fill="#1414ce" stroke="#1414ce" points="339.71,-180.85 347.78,-173.98 337.19,-174.32 339.71,-180.85"/>
</a>
</g>
</g>
<!-- 1&#45;&gt;3 -->
<g id="edge41" class="edge">
<title>1&#45;&gt;3</title>
<g id="a_edge41"><a xlink:title="include">
<path fill="none" stroke="#1414ce" d="M603.19,-656.89C779.92,-648.12 1033.16,-632.58 1130,-612 1244.55,-587.65 1378,-640.1 1378,-523 1378,-523 1378,-523 1378,-161 1378,-115.85 1365.54,-98.53 1329,-72 1292.65,-45.61 1166.38,-29.88 1097.2,-23.04"/>
<polygon fill="#1414ce" stroke="#1414ce" points="1097.31,-19.54 1087.02,-22.06 1096.64,-26.51 1097.31,-19.54"/>
</a>
</g>
</g>
<!-- 1&#45;&gt;23 -->
<g id="edge40" class="edge">
<title>1&#45;&gt;23</title>
<g id="a_edge40"><a xlink:title="include">
<path fill="none" stroke="#1414ce" d="M603.05,-653.55C862.23,-635 1302,-593.17 1302,-523 1302,-523 1302,-523 1302,-449 1302,-323.04 1258.08,-177.08 1238.37,-117.94"/>
<polygon fill="#1414ce" stroke="#1414ce" points="1241.61,-116.61 1235.1,-108.25 1234.98,-118.85 1241.61,-116.61"/>
</a>
</g>
</g>
<!-- 2 -->
<g id="node21" class="node">
<title>2</title>
<g id="a_node21"><a xlink:title="globalcontext.h">
<polygon fill="#ffffff" stroke="black" points="481.5,-612 354.5,-612 354.5,-576 481.5,-576 481.5,-612"/>
<text text-anchor="middle" x="418" y="-590.3" font-family="Times,serif" font-size="14.00">globalcontext.h</text>
</a>
</g>
</g>
<!-- 1&#45;&gt;2 -->
<g id="edge37" class="edge">
<title>1&#45;&gt;2</title>
<g id="a_edge37"><a xlink:title="include">
<path fill="none" stroke="#1414ce" d="M418,-647.7C418,-639.98 418,-630.71 418,-622.11"/>
<polygon fill="#1414ce" stroke="#1414ce" points="421.5,-622.1 418,-612.1 414.5,-622.1 421.5,-622.1"/>
</a>
</g>
</g>
<!-- 9&#45;&gt;10 -->
<g id="edge42" class="edge">
<title>9&#45;&gt;10</title>
<g id="a_edge42"><a xlink:title="include">
<path fill="none" stroke="#1414ce" d="M622.46,-71.88C635.3,-62.89 651.2,-51.76 665.09,-42.03"/>
<polygon fill="#1414ce" stroke="#1414ce" points="667.26,-44.79 673.44,-36.19 663.24,-39.06 667.26,-44.79"/>
</a>
</g>
</g>
<!-- 9&#45;&gt;3 -->
<g id="edge45" class="edge">
<title>9&#45;&gt;3</title>
<g id="a_edge45"><a xlink:title="include">
<path fill="none" stroke="#1414ce" d="M660.53,-74.77C665.42,-73.79 670.28,-72.85 675,-72 793.26,-50.64 933.74,-32.83 1004.84,-24.34"/>
<polygon fill="#1414ce" stroke="#1414ce" points="1005.3,-27.81 1014.82,-23.16 1004.47,-20.86 1005.3,-27.81"/>
</a>
</g>
</g>
<!-- 9&#45;&gt;11 -->
<g id="edge43" class="edge">
<title>9&#45;&gt;11</title>
<g id="a_edge43"><a xlink:title="include">
<path fill="none" stroke="#1414ce" d="M574.03,-71.88C561.45,-62.89 545.87,-51.76 532.25,-42.03"/>
<polygon fill="#1414ce" stroke="#1414ce" points="534.24,-39.15 524.07,-36.19 530.17,-44.85 534.24,-39.15"/>
</a>
</g>
</g>
<!-- 12 -->
<g id="node27" class="node">
<title>12</title>
<g id="a_node27"><a xlink:title="inttypes.h">
<polygon fill="#ffffff" stroke="black" points="642.5,-36 553.5,-36 553.5,0 642.5,0 642.5,-36"/>
<text text-anchor="middle" x="598" y="-14.3" font-family="Times,serif" font-size="14.00">inttypes.h</text>
</a>
</g>
</g>
<!-- 9&#45;&gt;12 -->
<g id="edge44" class="edge">
<title>9&#45;&gt;12</title>
<g id="a_edge44"><a xlink:title="include">
<path fill="none" stroke="#1414ce" d="M598,-71.7C598,-63.98 598,-54.71 598,-46.11"/>
<polygon fill="#1414ce" stroke="#1414ce" points="601.5,-46.1 598,-36.1 594.5,-46.1 601.5,-46.1"/>
</a>
</g>
</g>
<!-- 2&#45;&gt;4 -->
<g id="edge47" class="edge">
<title>2&#45;&gt;4</title>
<g id="a_edge47"><a xlink:title="include">
<path fill="none" stroke="#1414ce" d="M481.67,-587.97C666.15,-572.56 1188,-522.62 1188,-451 1188,-451 1188,-451 1188,-305 1188,-249.59 1133.3,-207.5 1093.02,-184.03"/>
<polygon fill="#1414ce" stroke="#1414ce" points="1094.59,-180.9 1084.16,-179.03 1091.15,-186.99 1094.59,-180.9"/>
</a>
</g>
</g>
<!-- 2&#45;&gt;15 -->
<g id="edge54" class="edge">
<title>2&#45;&gt;15</title>
<g id="a_edge54"><a xlink:title="include">
<path fill="none" stroke="#1414ce" d="M374.98,-575.86C358.05,-567.27 339.67,-555.38 327,-540 300.36,-507.68 296,-492.89 296,-451 296,-451 296,-451 296,-377 296,-336.97 298.01,-290.63 299.48,-262.07"/>
<polygon fill="#1414ce" stroke="#1414ce" points="302.98,-262.21 300.01,-252.04 295.99,-261.84 302.98,-262.21"/>
</a>
</g>
</g>
<!-- 2&#45;&gt;14 -->
<g id="edge51" class="edge">
<title>2&#45;&gt;14</title>
<g id="a_edge51"><a xlink:title="include">
<path fill="none" stroke="#1414ce" d="M359.29,-575.96C304.13,-555.92 230,-516.75 230,-451 230,-451 230,-451 230,-305 230,-264.46 224.02,-247.13 250,-216 253.06,-212.33 302.45,-192.02 338.22,-177.64"/>
<polygon fill="#1414ce" stroke="#1414ce" points="339.91,-180.73 347.89,-173.76 337.31,-174.24 339.91,-180.73"/>
</a>
</g>
</g>
<!-- 2&#45;&gt;3 -->
<g id="edge46" class="edge">
<title>2&#45;&gt;3</title>
<g id="a_edge46"><a xlink:title="include">
<path fill="none" stroke="#1414ce" d="M481.55,-593.03C590.94,-591.81 821.26,-583.7 1010,-540 1097.17,-519.82 1124.5,-519.03 1198,-468 1276.37,-413.59 1340,-402.41 1340,-307 1340,-307 1340,-307 1340,-161 1340,-117.63 1333.75,-99.24 1300,-72 1269.29,-47.22 1160.28,-31.22 1097.14,-23.81"/>
<polygon fill="#1414ce" stroke="#1414ce" points="1097.38,-20.32 1087.04,-22.65 1096.58,-27.27 1097.38,-20.32"/>
</a>
</g>
</g>
<!-- 2&#45;&gt;18 -->
<g id="edge55" class="edge">
<title>2&#45;&gt;18</title>
<g id="a_edge55"><a xlink:title="include">
<path fill="none" stroke="#1414ce" d="M481.77,-579.21C526.55,-569.19 587.71,-554.84 641,-540 725.33,-516.52 822.44,-484.2 876.68,-465.66"/>
<polygon fill="#1414ce" stroke="#1414ce" points="877.97,-468.92 886.29,-462.37 875.7,-462.3 877.97,-468.92"/>
</a>
</g>
</g>
<!-- 2&#45;&gt;8 -->
<g id="edge49" class="edge">
<title>2&#45;&gt;8</title>
<g id="a_edge49"><a xlink:title="include">
<path fill="none" stroke="#1414ce" d="M434.31,-575.91C444.13,-565.57 456.85,-552.09 468,-540 570.17,-429.17 573.22,-376.83 695,-288 726.5,-265.02 753.83,-284.74 775,-252 788.43,-231.23 772.98,-205.78 756.8,-187.42"/>
<polygon fill="#1414ce" stroke="#1414ce" points="759.29,-184.95 749.91,-180.02 754.17,-189.73 759.29,-184.95"/>
</a>
</g>
</g>
<!-- 2&#45;&gt;6 -->
<g id="edge48" class="edge">
<title>2&#45;&gt;6</title>
<g id="a_edge48"><a xlink:title="include">
<path fill="none" stroke="#1414ce" d="M426.16,-575.97C450.49,-526.53 526.92,-380.63 624,-288 636.5,-276.07 652.14,-265.52 666.69,-257.05"/>
<polygon fill="#1414ce" stroke="#1414ce" points="668.58,-260 675.58,-252.04 665.15,-253.9 668.58,-260"/>
</a>
</g>
</g>
<!-- 2&#45;&gt;17 -->
<g id="edge53" class="edge">
<title>2&#45;&gt;17</title>
<g id="a_edge53"><a xlink:title="include">
<path fill="none" stroke="#1414ce" d="M354.4,-582.74C246.22,-563.48 38,-517.73 38,-451 38,-451 38,-451 38,-305 38,-264.55 29.02,-245.2 57,-216 79.47,-192.55 168.61,-176.22 221.66,-168.35"/>
<polygon fill="#1414ce" stroke="#1414ce" points="222.36,-171.79 231.76,-166.89 221.36,-164.86 222.36,-171.79"/>
</a>
</g>
</g>
<!-- 27 -->
<g id="node23" class="node">
<title>27</title>
<g id="a_node23"><a xlink:title="timer_list.h">
<polygon fill="#ffffff" stroke="black" points="164,-252 66,-252 66,-216 164,-216 164,-252"/>
<text text-anchor="middle" x="115" y="-230.3" font-family="Times,serif" font-size="14.00">timer_list.h</text>
</a>
</g>
</g>
<!-- 2&#45;&gt;27 -->
<g id="edge56" class="edge">
<title>2&#45;&gt;27</title>
<g id="a_edge56"><a xlink:title="include">
<path fill="none" stroke="#1414ce" d="M354.43,-591.66C310.36,-587.42 253.14,-574.86 216,-540 135.03,-463.99 118.91,-321.72 115.75,-262.23"/>
<polygon fill="#1414ce" stroke="#1414ce" points="119.24,-261.96 115.3,-252.12 112.25,-262.27 119.24,-261.96"/>
</a>
</g>
</g>
<!-- 26 -->
<g id="node24" class="node">
<title>26</title>
<g id="a_node24"><a xlink:title="mailbox.h">
<polygon fill="#ffffff" stroke="black" points="562,-252 476,-252 476,-216 562,-216 562,-252"/>
<text text-anchor="middle" x="519" y="-230.3" font-family="Times,serif" font-size="14.00">mailbox.h</text>
</a>
</g>
</g>
<!-- 2&#45;&gt;26 -->
<g id="edge52" class="edge">
<title>2&#45;&gt;26</title>
<g id="a_edge52"><a xlink:title="include">
<path fill="none" stroke="#1414ce" d="M418,-575.95C418,-549.29 418,-496.11 418,-451 418,-451 418,-451 418,-377 418,-328.19 458.11,-284.51 487.78,-258.87"/>
<polygon fill="#1414ce" stroke="#1414ce" points="490.41,-261.23 495.83,-252.13 485.91,-255.87 490.41,-261.23"/>
</a>
</g>
</g>
<!-- 13 -->
<g id="node26" class="node">
<title>13</title>
<g id="a_node26"><a xlink:title="ets.h">
<polygon fill="#ffffff" stroke="black" points="390,-540 336,-540 336,-504 390,-504 390,-540"/>
<text text-anchor="middle" x="363" y="-518.3" font-family="Times,serif" font-size="14.00">ets.h</text>
</a>
</g>
</g>
<!-- 2&#45;&gt;13 -->
<g id="edge50" class="edge">
<title>2&#45;&gt;13</title>
<g id="a_edge50"><a xlink:title="include">
<path fill="none" stroke="#1414ce" d="M404.4,-575.7C397.88,-567.39 389.93,-557.28 382.75,-548.14"/>
<polygon fill="#1414ce" stroke="#1414ce" points="385.37,-545.81 376.44,-540.1 379.87,-550.13 385.37,-545.81"/>
</a>
</g>
</g>
<!-- 17&#45;&gt;7 -->
<g id="edge57" class="edge">
<title>17&#45;&gt;7</title>
<g id="a_edge57"><a xlink:title="include">
<path fill="none" stroke="#1414ce" d="M292.09,-143.88C308.32,-134.64 328.54,-123.13 345.97,-113.21"/>
<polygon fill="#1414ce" stroke="#1414ce" points="347.84,-116.18 354.8,-108.19 344.37,-110.09 347.84,-116.18"/>
</a>
</g>
</g>
<!-- 27&#45;&gt;7 -->
<g id="edge58" class="edge">
<title>27&#45;&gt;7</title>
<g id="a_edge58"><a xlink:title="include">
<path fill="none" stroke="#1414ce" d="M164.16,-219.69C217.22,-205.21 294.99,-183.65 301,-180 308.41,-175.5 340.56,-140.51 362.86,-115.78"/>
<polygon fill="#1414ce" stroke="#1414ce" points="365.63,-117.93 369.71,-108.16 360.42,-113.25 365.63,-117.93"/>
</a>
</g>
</g>
<!-- 27&#45;&gt;14 -->
<g id="edge60" class="edge">
<title>27&#45;&gt;14</title>
<g id="a_edge60"><a xlink:title="include">
<path fill="none" stroke="#1414ce" d="M164.14,-219.55C168.82,-218.33 173.49,-217.13 178,-216 247.03,-198.73 266.23,-201.7 334,-180 335.42,-179.54 336.86,-179.06 338.31,-178.56"/>
<polygon fill="#1414ce" stroke="#1414ce" points="339.74,-181.76 347.89,-174.98 337.3,-175.2 339.74,-181.76"/>
</a>
</g>
</g>
<!-- 27&#45;&gt;3 -->
<g id="edge59" class="edge">
<title>27&#45;&gt;3</title>
<g id="a_edge59"><a xlink:title="include">
<path fill="none" stroke="#1414ce" d="M164.26,-225.63C223.23,-216.48 324.85,-199.64 411,-180 527.49,-153.44 555.11,-140.78 670,-108 724.77,-92.37 737.72,-85.74 793,-72 866.64,-53.69 953.21,-36.85 1005.01,-27.27"/>
<polygon fill="#1414ce" stroke="#1414ce" points="1005.69,-30.7 1014.9,-25.45 1004.43,-23.82 1005.69,-30.7"/>
</a>
</g>
</g>
<!-- 26&#45;&gt;7 -->
<g id="edge61" class="edge">
<title>26&#45;&gt;7</title>
<g id="a_edge61"><a xlink:title="include">
<path fill="none" stroke="#1414ce" d="M499.51,-215.84C488.26,-205.7 474.01,-192.45 462,-180 441.95,-159.22 420.56,-134.25 405.43,-116.06"/>
<polygon fill="#1414ce" stroke="#1414ce" points="408.02,-113.69 398.95,-108.21 402.62,-118.15 408.02,-113.69"/>
</a>
</g>
</g>
<!-- 26&#45;&gt;22 -->
<g id="edge64" class="edge">
<title>26&#45;&gt;22</title>
<g id="a_edge64"><a xlink:title="include">
<path fill="none" stroke="#1414ce" d="M562.15,-226.29C648.73,-212.82 842.62,-182.66 927.67,-169.43"/>
<polygon fill="#1414ce" stroke="#1414ce" points="928.39,-172.86 937.73,-167.86 927.31,-165.94 928.39,-172.86"/>
</a>
</g>
</g>
<!-- 26&#45;&gt;14 -->
<g id="edge62" class="edge">
<title>26&#45;&gt;14</title>
<g id="a_edge62"><a xlink:title="include">
<path fill="none" stroke="#1414ce" d="M483.77,-215.88C461.77,-205.18 433.51,-191.44 411.3,-180.65"/>
<polygon fill="#1414ce" stroke="#1414ce" points="412.72,-177.44 402.2,-176.22 409.66,-183.74 412.72,-177.44"/>
</a>
</g>
</g>
<!-- 26&#45;&gt;9 -->
<g id="edge63" class="edge">
<title>26&#45;&gt;9</title>
<g id="a_edge63"><a xlink:title="include">
<path fill="none" stroke="#1414ce" d="M528.53,-215.87C542.17,-191.35 567.38,-146.03 583.39,-117.26"/>
<polygon fill="#1414ce" stroke="#1414ce" points="586.63,-118.63 588.44,-108.19 580.52,-115.23 586.63,-118.63"/>
</a>
</g>
</g>
<!-- 13&#45;&gt;15 -->
<g id="edge66" class="edge">
<title>13&#45;&gt;15</title>
<g id="a_edge66"><a xlink:title="include">
<path fill="none" stroke="#1414ce" d="M359.31,-503.97C348.95,-456.19 319.56,-320.62 306.91,-262.27"/>
<polygon fill="#1414ce" stroke="#1414ce" points="310.29,-261.34 304.75,-252.31 303.45,-262.82 310.29,-261.34"/>
</a>
</g>
</g>
<!-- 13&#45;&gt;14 -->
<g id="edge65" class="edge">
<title>13&#45;&gt;14</title>
<g id="a_edge65"><a xlink:title="include">
<path fill="none" stroke="#1414ce" d="M364.78,-503.97C367.4,-477.34 372,-424.21 372,-379 372,-379 372,-379 372,-305 372,-264.99 373.21,-218.65 374.09,-190.08"/>
<polygon fill="#1414ce" stroke="#1414ce" points="377.59,-190.15 374.41,-180.05 370.59,-189.93 377.59,-190.15"/>
</a>
</g>
</g>
<!-- 13&#45;&gt;18 -->
<g id="edge67" class="edge">
<title>13&#45;&gt;18</title>
<g id="a_edge67"><a xlink:title="include">
<path fill="none" stroke="#1414ce" d="M390.19,-517.58C479.96,-506.28 767.3,-470.1 876.42,-456.36"/>
<polygon fill="#1414ce" stroke="#1414ce" points="876.93,-459.82 886.41,-455.1 876.05,-452.88 876.93,-459.82"/>
</a>
</g>
</g>
</g>
</svg>
