<?xml version="1.0" encoding="UTF-8" standalone="no"?>
<!DOCTYPE svg PUBLIC "-//W3C//DTD SVG 1.1//EN"
 "http://www.w3.org/Graphics/SVG/1.1/DTD/svg11.dtd">
<!-- Generated by graphviz version 2.43.0 (0)
 -->
<!-- Title: %3 Pages: 1 -->
<svg width="1437pt" height="404pt"
 viewBox="0.00 0.00 1437.00 404.00" xmlns="http://www.w3.org/2000/svg" xmlns:xlink="http://www.w3.org/1999/xlink">
<g id="graph0" class="graph" transform="scale(1 1) rotate(0) translate(4 400)">
<title>%3</title>
<polygon fill="transparent" stroke="transparent" points="-4,4 -4,-400 1433,-400 1433,4 -4,4"/>
<!-- 21 -->
<g id="node1" class="node">
<title>21</title>
<g id="a_node1"><a xlink:title="SpinLock">
<polygon fill="#ffffff" stroke="black" points="82,-324 0,-324 0,-288 82,-288 82,-324"/>
<text text-anchor="middle" x="41" y="-302.3" font-family="Times,serif" font-size="14.00">SpinLock</text>
</a>
</g>
</g>
<!-- 2 -->
<g id="node2" class="node">
<title>2</title>
<g id="a_node2"><a xlink:title="ResourceType">
<polygon fill="#ffffff" stroke="black" points="503.5,-180 386.5,-180 386.5,-144 503.5,-144 503.5,-180"/>
<text text-anchor="middle" x="445" y="-158.3" font-family="Times,serif" font-size="14.00">ResourceType</text>
</a>
</g>
</g>
<!-- 4 -->
<g id="node4" class="node">
<title>4</title>
<g id="a_node4"><a xlink:title="ListHead">
<polygon fill="#ffffff" stroke="black" points="548.5,-36 467.5,-36 467.5,0 548.5,0 548.5,-36"/>
<text text-anchor="middle" x="508" y="-14.3" font-family="Times,serif" font-size="14.00">ListHead</text>
</a>
</g>
</g>
<!-- 2&#45;&gt;4 -->
<g id="edge3" class="edge">
<title>2&#45;&gt;4</title>
<g id="a_edge3"><a xlink:title="usage">
<path fill="none" stroke="#1414ce" d="M452.6,-143.87C463.43,-119.46 483.41,-74.43 496.18,-45.64"/>
<polygon fill="#1414ce" stroke="#1414ce" points="499.52,-46.75 500.37,-36.19 493.12,-43.91 499.52,-46.75"/>
</a>
</g>
</g>
<!-- 5 -->
<g id="node7" class="node">
<title>5</title>
<g id="a_node7"><a xlink:title="GlobalContext">
<polygon fill="#ffffff" stroke="black" points="730.5,-396 611.5,-396 611.5,-360 730.5,-360 730.5,-396"/>
<text text-anchor="middle" x="671" y="-374.3" font-family="Times,serif" font-size="14.00">GlobalContext</text>
</a>
</g>
</g>
<!-- 2&#45;&gt;5 -->
<g id="edge2" class="edge">
<title>2&#45;&gt;5</title>
<g id="a_edge2"><a xlink:title="usage">
<path fill="none" stroke="#1414ce" d="M430.92,-180.09C417.33,-198.8 400.75,-229.18 415,-252 455.52,-316.87 540.5,-348.98 601.44,-364.24"/>
<polygon fill="#1414ce" stroke="#1414ce" points="600.84,-367.7 611.38,-366.63 602.48,-360.89 600.84,-367.7"/>
</a>
</g>
</g>
<!-- 3 -->
<g id="node20" class="node">
<title>3</title>
<g id="a_node20"><a xlink:title="SyncList">
<polygon fill="#ffffff" stroke="black" points="425,-108 347,-108 347,-72 425,-72 425,-108"/>
<text text-anchor="middle" x="386" y="-86.3" font-family="Times,serif" font-size="14.00">SyncList</text>
</a>
</g>
</g>
<!-- 2&#45;&gt;3 -->
<g id="edge1" class="edge">
<title>2&#45;&gt;3</title>
<g id="a_edge1"><a xlink:title="usage">
<path fill="none" stroke="#1414ce" d="M430.42,-143.7C423.34,-135.3 414.72,-125.07 406.95,-115.86"/>
<polygon fill="#1414ce" stroke="#1414ce" points="409.54,-113.49 400.42,-108.1 404.19,-118.01 409.54,-113.49"/>
</a>
</g>
</g>
<!-- 16 -->
<g id="node3" class="node">
<title>16</title>
<g id="a_node3"><a xlink:title="Module">
<polygon fill="#ffffff" stroke="black" points="706,-324 636,-324 636,-288 706,-288 706,-324"/>
<text text-anchor="middle" x="671" y="-302.3" font-family="Times,serif" font-size="14.00">Module</text>
</a>
</g>
</g>
<!-- 16&#45;&gt;4 -->
<g id="edge6" class="edge">
<title>16&#45;&gt;4</title>
<g id="a_edge6"><a xlink:title="usage">
<path fill="none" stroke="#1414ce" d="M635.98,-289.11C619.74,-280.22 601.35,-267.73 589,-252 539.18,-188.57 518.83,-92.37 511.54,-45.94"/>
<polygon fill="#1414ce" stroke="#1414ce" points="515,-45.41 510.07,-36.03 508.08,-46.44 515,-45.41"/>
</a>
</g>
</g>
<!-- 18 -->
<g id="node11" class="node">
<title>18</title>
<g id="a_node11"><a xlink:title="LiteralEntry">
<polygon fill="#ffffff" stroke="black" points="866,-252 762,-252 762,-216 866,-216 866,-252"/>
<text text-anchor="middle" x="814" y="-230.3" font-family="Times,serif" font-size="14.00">LiteralEntry</text>
</a>
</g>
</g>
<!-- 16&#45;&gt;18 -->
<g id="edge5" class="edge">
<title>16&#45;&gt;18</title>
<g id="a_edge5"><a xlink:title="usage">
<path fill="none" stroke="#1414ce" d="M705.98,-287.88C725.2,-278.47 749.23,-266.71 769.74,-256.67"/>
<polygon fill="#1414ce" stroke="#1414ce" points="771.44,-259.73 778.88,-252.19 768.36,-253.44 771.44,-259.73"/>
</a>
</g>
</g>
<!-- 17 -->
<g id="node19" class="node">
<title>17</title>
<g id="a_node19"><a xlink:title="ExportedFunction">
<polygon fill="#ffffff" stroke="black" points="744,-252 598,-252 598,-216 744,-216 744,-252"/>
<text text-anchor="middle" x="671" y="-230.3" font-family="Times,serif" font-size="14.00">ExportedFunction</text>
</a>
</g>
</g>
<!-- 16&#45;&gt;17 -->
<g id="edge4" class="edge">
<title>16&#45;&gt;17</title>
<g id="a_edge4"><a xlink:title="usage">
<path fill="none" stroke="#1414ce" d="M671,-287.7C671,-279.98 671,-270.71 671,-262.11"/>
<polygon fill="#1414ce" stroke="#1414ce" points="674.5,-262.1 671,-252.1 667.5,-262.1 674.5,-262.1"/>
</a>
</g>
</g>
<!-- 4&#45;&gt;4 -->
<g id="edge7" class="edge">
<title>4&#45;&gt;4</title>
<g id="a_edge7"><a xlink:title="usage">
<path fill="none" stroke="#1414ce" d="M548.73,-31.31C558.9,-30.38 566.5,-25.95 566.5,-18 566.5,-12.91 563.38,-9.26 558.47,-7.05"/>
<polygon fill="#1414ce" stroke="#1414ce" points="559.28,-3.64 548.73,-4.69 557.63,-10.45 559.28,-3.64"/>
</a>
</g>
</g>
<!-- 12 -->
<g id="node5" class="node">
<title>12</title>
<g id="a_node5"><a xlink:title="HeapFragment">
<polygon fill="#ffffff" stroke="black" points="1335.5,-36 1210.5,-36 1210.5,0 1335.5,0 1335.5,-36"/>
<text text-anchor="middle" x="1273" y="-14.3" font-family="Times,serif" font-size="14.00">HeapFragment</text>
</a>
</g>
</g>
<!-- 12&#45;&gt;12 -->
<g id="edge8" class="edge">
<title>12&#45;&gt;12</title>
<g id="a_edge8"><a xlink:title="usage">
<path fill="none" stroke="#1414ce" d="M1335.78,-30.55C1346.26,-28.79 1353.5,-24.61 1353.5,-18 1353.5,-13.77 1350.53,-10.53 1345.64,-8.29"/>
<polygon fill="#1414ce" stroke="#1414ce" points="1346.36,-4.85 1335.78,-5.45 1344.42,-11.58 1346.36,-4.85"/>
</a>
</g>
</g>
<!-- 14 -->
<g id="node6" class="node">
<title>14</title>
<g id="a_node6"><a xlink:title="RefcBinaryQueueItem">
<polygon fill="#ffffff" stroke="black" points="312,-324 138,-324 138,-288 312,-288 312,-324"/>
<text text-anchor="middle" x="225" y="-302.3" font-family="Times,serif" font-size="14.00">RefcBinaryQueueItem</text>
</a>
</g>
</g>
<!-- 14&#45;&gt;14 -->
<g id="edge10" class="edge">
<title>14&#45;&gt;14</title>
<g id="a_edge10"><a xlink:title="usage">
<path fill="none" stroke="#1414ce" d="M312.3,-317.68C322.99,-315.59 330,-311.7 330,-306 330,-302.35 327.12,-299.44 322.25,-297.27"/>
<polygon fill="#1414ce" stroke="#1414ce" points="322.88,-293.81 312.3,-294.32 320.89,-300.52 322.88,-293.81"/>
</a>
</g>
</g>
<!-- 15 -->
<g id="node16" class="node">
<title>15</title>
<g id="a_node16"><a xlink:title="RefcBinary">
<polygon fill="#ffffff" stroke="black" points="329.5,-252 234.5,-252 234.5,-216 329.5,-216 329.5,-252"/>
<text text-anchor="middle" x="282" y="-230.3" font-family="Times,serif" font-size="14.00">RefcBinary</text>
</a>
</g>
</g>
<!-- 14&#45;&gt;15 -->
<g id="edge9" class="edge">
<title>14&#45;&gt;15</title>
<g id="a_edge9"><a xlink:title="usage">
<path fill="none" stroke="#1414ce" d="M239.09,-287.7C245.92,-279.3 254.26,-269.07 261.76,-259.86"/>
<polygon fill="#1414ce" stroke="#1414ce" points="264.47,-262.07 268.07,-252.1 259.04,-257.65 264.47,-262.07"/>
</a>
</g>
</g>
<!-- 5&#45;&gt;21 -->
<g id="edge19" class="edge">
<title>5&#45;&gt;21</title>
<g id="a_edge19"><a xlink:title="usage">
<path fill="none" stroke="#1414ce" d="M611.23,-375.57C506.09,-372.16 281.6,-360.82 96,-324 94.73,-323.75 93.45,-323.48 92.16,-323.19"/>
<polygon fill="#1414ce" stroke="#1414ce" points="92.75,-319.73 82.21,-320.74 91.08,-326.53 92.75,-319.73"/>
</a>
</g>
</g>
<!-- 5&#45;&gt;16 -->
<g id="edge16" class="edge">
<title>5&#45;&gt;16</title>
<g id="a_edge16"><a xlink:title="usage">
<path fill="none" stroke="#1414ce" d="M671,-359.7C671,-351.98 671,-342.71 671,-334.11"/>
<polygon fill="#1414ce" stroke="#1414ce" points="674.5,-334.1 671,-324.1 667.5,-334.1 674.5,-334.1"/>
</a>
</g>
</g>
<!-- 5&#45;&gt;4 -->
<g id="edge20" class="edge">
<title>5&#45;&gt;4</title>
<g id="a_edge20"><a xlink:title="usage">
<path fill="none" stroke="#1414ce" d="M730.76,-365.82C796.82,-349.61 894,-312.57 894,-235 894,-235 894,-235 894,-161 894,-90.34 663.3,-44.07 558.61,-26.7"/>
<polygon fill="#1414ce" stroke="#1414ce" points="559.01,-23.22 548.58,-25.06 557.88,-30.13 559.01,-23.22"/>
</a>
</g>
</g>
<!-- 5&#45;&gt;14 -->
<g id="edge14" class="edge">
<title>5&#45;&gt;14</title>
<g id="a_edge14"><a xlink:title="usage">
<path fill="none" stroke="#1414ce" d="M611.31,-367.63C537.38,-356.03 410.41,-336.1 322.32,-322.27"/>
<polygon fill="#1414ce" stroke="#1414ce" points="322.73,-318.8 312.31,-320.7 321.64,-325.71 322.73,-318.8"/>
</a>
</g>
</g>
<!-- 6 -->
<g id="node8" class="node">
<title>6</title>
<g id="a_node8"><a xlink:title="Ets">
<polygon fill="#ffffff" stroke="black" points="204,-180 150,-180 150,-144 204,-144 204,-180"/>
<text text-anchor="middle" x="177" y="-158.3" font-family="Times,serif" font-size="14.00">Ets</text>
</a>
</g>
</g>
<!-- 5&#45;&gt;6 -->
<g id="edge11" class="edge">
<title>5&#45;&gt;6</title>
<g id="a_edge11"><a xlink:title="usage">
<path fill="none" stroke="#1414ce" d="M611.12,-375.59C476.84,-371.79 160.92,-359.19 129,-324 94.32,-285.76 130.54,-223.43 156.2,-188.61"/>
<polygon fill="#1414ce" stroke="#1414ce" points="159.19,-190.46 162.45,-180.38 153.61,-186.23 159.19,-190.46"/>
</a>
</g>
</g>
<!-- 20 -->
<g id="node10" class="node">
<title>20</title>
<g id="a_node10"><a xlink:title="TimerList">
<polygon fill="#ffffff" stroke="black" points="1008,-108 922,-108 922,-72 1008,-72 1008,-108"/>
<text text-anchor="middle" x="965" y="-86.3" font-family="Times,serif" font-size="14.00">TimerList</text>
</a>
</g>
</g>
<!-- 5&#45;&gt;20 -->
<g id="edge18" class="edge">
<title>5&#45;&gt;20</title>
<g id="a_edge18"><a xlink:title="usage">
<path fill="none" stroke="#1414ce" d="M730.7,-370.83C792.44,-363.24 883.24,-348.28 908,-324 964.54,-268.58 968.54,-166.96 966.85,-118.34"/>
<polygon fill="#1414ce" stroke="#1414ce" points="970.34,-118.09 966.39,-108.26 963.35,-118.41 970.34,-118.09"/>
</a>
</g>
</g>
<!-- 7 -->
<g id="node14" class="node">
<title>7</title>
<g id="a_node14"><a xlink:title="MessageQueueItem">
<polygon fill="#ffffff" stroke="black" points="1118,-324 960,-324 960,-288 1118,-288 1118,-324"/>
<text text-anchor="middle" x="1039" y="-302.3" font-family="Times,serif" font-size="14.00">MessageQueueItem</text>
</a>
</g>
</g>
<!-- 5&#45;&gt;7 -->
<g id="edge12" class="edge">
<title>5&#45;&gt;7</title>
<g id="a_edge12"><a xlink:title="usage">
<path fill="none" stroke="#1414ce" d="M730.53,-365.68C789.96,-354.37 881.99,-336.87 950.08,-323.91"/>
<polygon fill="#1414ce" stroke="#1414ce" points="950.78,-327.34 959.94,-322.04 949.47,-320.47 950.78,-327.34"/>
</a>
</g>
</g>
<!-- 19 -->
<g id="node15" class="node">
<title>19</title>
<g id="a_node15"><a xlink:title="AtomsHashTable">
<polygon fill="#ffffff" stroke="black" points="1291.5,-324 1154.5,-324 1154.5,-288 1291.5,-288 1291.5,-324"/>
<text text-anchor="middle" x="1223" y="-302.3" font-family="Times,serif" font-size="14.00">AtomsHashTable</text>
</a>
</g>
</g>
<!-- 5&#45;&gt;19 -->
<g id="edge17" class="edge">
<title>5&#45;&gt;19</title>
<g id="a_edge17"><a xlink:title="usage">
<path fill="none" stroke="#1414ce" d="M730.76,-372.31C818.97,-364.95 989.38,-349.05 1144.01,-324.06"/>
<polygon fill="#1414ce" stroke="#1414ce" points="1144.87,-327.47 1154.17,-322.4 1143.74,-320.56 1144.87,-327.47"/>
</a>
</g>
</g>
<!-- 9 -->
<g id="node18" class="node">
<title>9</title>
<g id="a_node18"><a xlink:title="AtomTable">
<polygon fill="#ffffff" stroke="black" points="1402,-324 1310,-324 1310,-288 1402,-288 1402,-324"/>
<text text-anchor="middle" x="1356" y="-302.3" font-family="Times,serif" font-size="14.00">AtomTable</text>
</a>
</g>
</g>
<!-- 5&#45;&gt;9 -->
<g id="edge13" class="edge">
<title>5&#45;&gt;9</title>
<g id="a_edge13"><a xlink:title="usage">
<path fill="none" stroke="#1414ce" d="M730.53,-376.15C841.16,-373.66 1085.8,-363.91 1299.89,-323.74"/>
<polygon fill="#1414ce" stroke="#1414ce" points="1300.57,-327.17 1309.74,-321.86 1299.26,-320.29 1300.57,-327.17"/>
</a>
</g>
</g>
<!-- 5&#45;&gt;3 -->
<g id="edge15" class="edge">
<title>5&#45;&gt;3</title>
<g id="a_edge15"><a xlink:title="usage">
<path fill="none" stroke="#1414ce" d="M611.32,-376.58C561.55,-373.31 491.23,-361.61 443,-324 387.48,-280.71 390.4,-249.12 377,-180 373.04,-159.55 375.7,-136.09 379.13,-118.39"/>
<polygon fill="#1414ce" stroke="#1414ce" points="382.64,-118.71 381.31,-108.2 375.8,-117.24 382.64,-118.71"/>
</a>
</g>
</g>
<!-- 6&#45;&gt;3 -->
<g id="edge21" class="edge">
<title>6&#45;&gt;3</title>
<g id="a_edge21"><a xlink:title="usage">
<path fill="none" stroke="#1414ce" d="M204.32,-151.85C238.02,-140.56 295.92,-121.17 337.3,-107.31"/>
<polygon fill="#1414ce" stroke="#1414ce" points="338.54,-110.59 346.91,-104.09 336.32,-103.95 338.54,-110.59"/>
</a>
</g>
</g>
<!-- 13 -->
<g id="node9" class="node">
<title>13</title>
<g id="a_node9"><a xlink:title="HNodeGroup">
<polygon fill="#ffffff" stroke="black" points="1411,-252 1301,-252 1301,-216 1411,-216 1411,-252"/>
<text text-anchor="middle" x="1356" y="-230.3" font-family="Times,serif" font-size="14.00">HNodeGroup</text>
</a>
</g>
</g>
<!-- 13&#45;&gt;13 -->
<g id="edge23" class="edge">
<title>13&#45;&gt;13</title>
<g id="a_edge23"><a xlink:title="usage">
<path fill="none" stroke="#1414ce" d="M1411.07,-246.85C1421.57,-245.32 1429,-241.03 1429,-234 1429,-229.5 1425.95,-226.12 1421,-223.87"/>
<polygon fill="#1414ce" stroke="#1414ce" points="1421.64,-220.42 1411.07,-221.15 1419.79,-227.17 1421.64,-220.42"/>
</a>
</g>
</g>
<!-- 10 -->
<g id="node21" class="node">
<title>10</title>
<g id="a_node21"><a xlink:title="HNode">
<polygon fill="#ffffff" stroke="black" points="1306,-180 1240,-180 1240,-144 1306,-144 1306,-180"/>
<text text-anchor="middle" x="1273" y="-158.3" font-family="Times,serif" font-size="14.00">HNode</text>
</a>
</g>
</g>
<!-- 13&#45;&gt;10 -->
<g id="edge22" class="edge">
<title>13&#45;&gt;10</title>
<g id="a_edge22"><a xlink:title="usage">
<path fill="none" stroke="#1414ce" d="M1335.48,-215.7C1325.13,-206.97 1312.41,-196.24 1301.16,-186.75"/>
<polygon fill="#1414ce" stroke="#1414ce" points="1303.18,-183.88 1293.28,-180.1 1298.67,-189.23 1303.18,-183.88"/>
</a>
</g>
</g>
<!-- 20&#45;&gt;4 -->
<g id="edge24" class="edge">
<title>20&#45;&gt;4</title>
<g id="a_edge24"><a xlink:title="usage">
<path fill="none" stroke="#1414ce" d="M921.93,-75.37C917.25,-74.13 912.54,-72.97 908,-72 784.02,-45.47 635.42,-29.96 558.97,-23.15"/>
<polygon fill="#1414ce" stroke="#1414ce" points="558.94,-19.64 548.67,-22.25 558.33,-26.61 558.94,-19.64"/>
</a>
</g>
</g>
<!-- 8 -->
<g id="node12" class="node">
<title>8</title>
<g id="a_node12"><a xlink:title="MailboxMessage">
<polygon fill="#ffffff" stroke="black" points="1107.5,-252 970.5,-252 970.5,-216 1107.5,-216 1107.5,-252"/>
<text text-anchor="middle" x="1039" y="-230.3" font-family="Times,serif" font-size="14.00">MailboxMessage</text>
</a>
</g>
</g>
<!-- 8&#45;&gt;8 -->
<g id="edge25" class="edge">
<title>8&#45;&gt;8</title>
<g id="a_edge25"><a xlink:title="usage">
<path fill="none" stroke="#1414ce" d="M1107.53,-246.37C1118.21,-244.52 1125.5,-240.4 1125.5,-234 1125.5,-229.8 1122.36,-226.58 1117.18,-224.34"/>
<polygon fill="#1414ce" stroke="#1414ce" points="1118.1,-220.96 1107.53,-221.63 1116.21,-227.7 1118.1,-220.96"/>
</a>
</g>
</g>
<!-- 11 -->
<g id="node13" class="node">
<title>11</title>
<g id="a_node13"><a xlink:title="Heap">
<polygon fill="#ffffff" stroke="black" points="1300,-108 1246,-108 1246,-72 1300,-72 1300,-108"/>
<text text-anchor="middle" x="1273" y="-86.3" font-family="Times,serif" font-size="14.00">Heap</text>
</a>
</g>
</g>
<!-- 11&#45;&gt;12 -->
<g id="edge26" class="edge">
<title>11&#45;&gt;12</title>
<g id="a_edge26"><a xlink:title="usage">
<path fill="none" stroke="#1414ce" d="M1273,-71.7C1273,-63.98 1273,-54.71 1273,-46.11"/>
<polygon fill="#1414ce" stroke="#1414ce" points="1276.5,-46.1 1273,-36.1 1269.5,-46.1 1276.5,-46.1"/>
</a>
</g>
</g>
<!-- 7&#45;&gt;8 -->
<g id="edge27" class="edge">
<title>7&#45;&gt;8</title>
<g id="a_edge27"><a xlink:title="usage">
<path fill="none" stroke="#1414ce" d="M1039,-287.7C1039,-279.98 1039,-270.71 1039,-262.11"/>
<polygon fill="#1414ce" stroke="#1414ce" points="1042.5,-262.1 1039,-252.1 1035.5,-262.1 1042.5,-262.1"/>
</a>
</g>
</g>
<!-- 7&#45;&gt;7 -->
<g id="edge28" class="edge">
<title>7&#45;&gt;7</title>
<g id="a_edge28"><a xlink:title="usage">
<path fill="none" stroke="#1414ce" d="M1118.16,-317.98C1128.87,-315.97 1136,-311.98 1136,-306 1136,-302.08 1132.93,-299.01 1127.79,-296.8"/>
<polygon fill="#1414ce" stroke="#1414ce" points="1128.74,-293.43 1118.16,-294.02 1126.8,-300.15 1128.74,-293.43"/>
</a>
</g>
</g>
<!-- 19&#45;&gt;10 -->
<g id="edge29" class="edge">
<title>19&#45;&gt;10</title>
<g id="a_edge29"><a xlink:title="usage">
<path fill="none" stroke="#1414ce" d="M1229.03,-287.87C1237.63,-263.46 1253.48,-218.43 1263.62,-189.64"/>
<polygon fill="#1414ce" stroke="#1414ce" points="1266.93,-190.78 1266.95,-180.19 1260.32,-188.46 1266.93,-190.78"/>
</a>
</g>
</g>
<!-- 15&#45;&gt;2 -->
<g id="edge30" class="edge">
<title>15&#45;&gt;2</title>
<g id="a_edge30"><a xlink:title="usage">
<path fill="none" stroke="#1414ce" d="M321.87,-215.88C344.16,-206.31 372.12,-194.3 395.76,-184.15"/>
<polygon fill="#1414ce" stroke="#1414ce" points="397.45,-187.23 405.26,-180.07 394.69,-180.8 397.45,-187.23"/>
</a>
</g>
</g>
<!-- 15&#45;&gt;4 -->
<g id="edge31" class="edge">
<title>15&#45;&gt;4</title>
<g id="a_edge31"><a xlink:title="usage">
<path fill="none" stroke="#1414ce" d="M283.05,-215.77C285.97,-183.06 296.96,-111.73 338,-72 369.98,-41.04 419.75,-28.14 457.19,-22.78"/>
<polygon fill="#1414ce" stroke="#1414ce" points="457.93,-26.22 467.4,-21.46 457.04,-19.27 457.93,-26.22"/>
</a>
</g>
</g>
<!-- 1 -->
<g id="node17" class="node">
<title>1</title>
<g id="a_node17"><a xlink:title="ErlNifMonitor">
<polygon fill="#bfbfbf" stroke="black" points="541.5,-252 424.5,-252 424.5,-216 541.5,-216 541.5,-252"/>
<text text-anchor="middle" x="483" y="-230.3" font-family="Times,serif" font-size="14.00">ErlNifMonitor</text>
</a>
</g>
</g>
<!-- 1&#45;&gt;2 -->
<g id="edge32" class="edge">
<title>1&#45;&gt;2</title>
<g id="a_edge32"><a xlink:title="usage">
<path fill="none" stroke="#1414ce" d="M473.61,-215.7C469.24,-207.64 463.94,-197.89 459.1,-188.98"/>
<polygon fill="#1414ce" stroke="#1414ce" points="462.13,-187.22 454.29,-180.1 455.98,-190.56 462.13,-187.22"/>
</a>
</g>
</g>
<!-- 9&#45;&gt;13 -->
<g id="edge34" class="edge">
<title>9&#45;&gt;13</title>
<g id="a_edge34"><a xlink:title="usage">
<path fill="none" stroke="#1414ce" d="M1356,-287.7C1356,-279.98 1356,-270.71 1356,-262.11"/>
<polygon fill="#1414ce" stroke="#1414ce" points="1359.5,-262.1 1356,-252.1 1352.5,-262.1 1359.5,-262.1"/>
</a>
</g>
</g>
<!-- 9&#45;&gt;10 -->
<g id="edge33" class="edge">
<title>9&#45;&gt;10</title>
<g id="a_edge33"><a xlink:title="usage">
<path fill="none" stroke="#1414ce" d="M1327.62,-287.86C1314.87,-278.75 1300.75,-266.44 1292,-252 1280.71,-233.36 1276.07,-208.97 1274.19,-190.44"/>
<polygon fill="#1414ce" stroke="#1414ce" points="1277.66,-189.98 1273.37,-180.29 1270.69,-190.54 1277.66,-189.98"/>
</a>
</g>
</g>
<!-- 3&#45;&gt;4 -->
<g id="edge35" class="edge">
<title>3&#45;&gt;4</title>
<g id="a_edge35"><a xlink:title="usage">
<path fill="none" stroke="#1414ce" d="M415.84,-71.88C431.94,-62.64 452,-51.13 469.29,-41.21"/>
<polygon fill="#1414ce" stroke="#1414ce" points="471.11,-44.2 478.04,-36.19 467.63,-38.13 471.11,-44.2"/>
</a>
</g>
</g>
<!-- 10&#45;&gt;11 -->
<g id="edge37" class="edge">
<title>10&#45;&gt;11</title>
<g id="a_edge37"><a xlink:title="usage">
<path fill="none" stroke="#1414ce" d="M1273,-143.7C1273,-135.98 1273,-126.71 1273,-118.11"/>
<polygon fill="#1414ce" stroke="#1414ce" points="1276.5,-118.1 1273,-108.1 1269.5,-118.1 1276.5,-118.1"/>
</a>
</g>
</g>
<!-- 10&#45;&gt;10 -->
<g id="edge36" class="edge">
<title>10&#45;&gt;10</title>
<g id="a_edge36"><a xlink:title="usage">
<path fill="none" stroke="#1414ce" d="M1306.35,-175.47C1316.28,-175.07 1324,-170.58 1324,-162 1324,-156.64 1320.98,-152.87 1316.3,-150.71"/>
<polygon fill="#1414ce" stroke="#1414ce" points="1316.87,-147.25 1306.35,-148.53 1315.37,-154.09 1316.87,-147.25"/>
</a>
</g>
</g>
</g>
</svg>
