<?xml version="1.0" encoding="UTF-8" standalone="no"?>
<!DOCTYPE svg PUBLIC "-//W3C//DTD SVG 1.1//EN"
 "http://www.w3.org/Graphics/SVG/1.1/DTD/svg11.dtd">
<!-- Generated by graphviz version 2.43.0 (0)
 -->
<!-- Title: %3 Pages: 1 -->
<svg width="1735pt" height="764pt"
 viewBox="0.00 0.00 1734.50 764.00" xmlns="http://www.w3.org/2000/svg" xmlns:xlink="http://www.w3.org/1999/xlink">
<g id="graph0" class="graph" transform="scale(1 1) rotate(0) translate(4 760)">
<title>%3</title>
<polygon fill="transparent" stroke="transparent" points="-4,4 -4,-760 1730.5,-760 1730.5,4 -4,4"/>
<!-- 4 -->
<g id="node1" class="node">
<title>4</title>
<g id="a_node1"><a xlink:title="stdbool.h">
<polygon fill="#ffffff" stroke="black" points="674,-108 591,-108 591,-72 674,-72 674,-108"/>
<text text-anchor="middle" x="632.5" y="-86.3" font-family="Times,serif" font-size="14.00">stdbool.h</text>
</a>
</g>
</g>
<!-- 21 -->
<g id="node2" class="node">
<title>21</title>
<g id="a_node2"><a xlink:title="refc_binary.h">
<polygon fill="#ffffff" stroke="black" points="1048.5,-396 940.5,-396 940.5,-360 1048.5,-360 1048.5,-396"/>
<text text-anchor="middle" x="994.5" y="-374.3" font-family="Times,serif" font-size="14.00">refc_binary.h</text>
</a>
</g>
</g>
<!-- 21&#45;&gt;4 -->
<g id="edge1" class="edge">
<title>21&#45;&gt;4</title>
<g id="a_edge1"><a xlink:title="include">
<path fill="none" stroke="#1414ce" d="M993.55,-359.64C991.5,-329.65 985.39,-266.48 968.5,-216 957.02,-181.69 959.73,-165.33 930.5,-144 892.09,-115.96 759.05,-101.08 684.37,-94.76"/>
<polygon fill="#1414ce" stroke="#1414ce" points="684.49,-91.26 674.24,-93.93 683.92,-98.24 684.49,-91.26"/>
</a>
</g>
</g>
<!-- 3 -->
<g id="node8" class="node">
<title>3</title>
<g id="a_node8"><a xlink:title="list.h">
<polygon fill="#ffffff" stroke="black" points="659.5,-180 605.5,-180 605.5,-144 659.5,-144 659.5,-180"/>
<text text-anchor="middle" x="632.5" y="-158.3" font-family="Times,serif" font-size="14.00">list.h</text>
</a>
</g>
</g>
<!-- 21&#45;&gt;3 -->
<g id="edge3" class="edge">
<title>21&#45;&gt;3</title>
<g id="a_edge3"><a xlink:title="include">
<path fill="none" stroke="#1414ce" d="M960.22,-359.87C917.79,-337.87 844.3,-297.09 788.5,-252 771.38,-238.17 772.52,-228.64 754.5,-216 728.3,-197.61 694.71,-183.6 669.41,-174.62"/>
<polygon fill="#1414ce" stroke="#1414ce" points="670.4,-171.26 659.81,-171.3 668.12,-177.87 670.4,-171.26"/>
</a>
</g>
</g>
<!-- 11 -->
<g id="node10" class="node">
<title>11</title>
<g id="a_node10"><a xlink:title="stdlib.h">
<polygon fill="#ffffff" stroke="black" points="1166,-108 1095,-108 1095,-72 1166,-72 1166,-108"/>
<text text-anchor="middle" x="1130.5" y="-86.3" font-family="Times,serif" font-size="14.00">stdlib.h</text>
</a>
</g>
</g>
<!-- 21&#45;&gt;11 -->
<g id="edge2" class="edge">
<title>21&#45;&gt;11</title>
<g id="a_edge2"><a xlink:title="include">
<path fill="none" stroke="#1414ce" d="M994.93,-359.76C995.86,-341.44 998.74,-311.9 1007.5,-288 1032.18,-220.71 1081.89,-151.89 1109.97,-116.11"/>
<polygon fill="#1414ce" stroke="#1414ce" points="1112.81,-118.16 1116.28,-108.15 1107.32,-113.81 1112.81,-118.16"/>
</a>
</g>
</g>
<!-- 22 -->
<g id="node14" class="node">
<title>22</title>
<g id="a_node14"><a xlink:title="resources.h">
<polygon fill="#ffffff" stroke="black" points="1116.5,-324 1016.5,-324 1016.5,-288 1116.5,-288 1116.5,-324"/>
<text text-anchor="middle" x="1066.5" y="-302.3" font-family="Times,serif" font-size="14.00">resources.h</text>
</a>
</g>
</g>
<!-- 21&#45;&gt;22 -->
<g id="edge4" class="edge">
<title>21&#45;&gt;22</title>
<g id="a_edge4"><a xlink:title="include">
<path fill="none" stroke="#1414ce" d="M1012.3,-359.7C1021.1,-351.14 1031.88,-340.66 1041.5,-331.3"/>
<polygon fill="#1414ce" stroke="#1414ce" points="1044.18,-333.58 1048.91,-324.1 1039.3,-328.57 1044.18,-333.58"/>
</a>
</g>
</g>
<!-- 29 -->
<g id="node3" class="node">
<title>29</title>
<g id="a_node3"><a xlink:title="defaultatoms.h">
<polygon fill="#ffffff" stroke="black" points="614.5,-684 490.5,-684 490.5,-648 614.5,-648 614.5,-684"/>
<text text-anchor="middle" x="552.5" y="-662.3" font-family="Times,serif" font-size="14.00">defaultatoms.h</text>
</a>
</g>
</g>
<!-- 30 -->
<g id="node18" class="node">
<title>30</title>
<g id="a_node18"><a xlink:title="defaultatoms.def">
<polygon fill="#ffffff" stroke="black" points="189,-612 52,-612 52,-576 189,-576 189,-612"/>
<text text-anchor="middle" x="120.5" y="-590.3" font-family="Times,serif" font-size="14.00">defaultatoms.def</text>
</a>
</g>
</g>
<!-- 29&#45;&gt;30 -->
<g id="edge6" class="edge">
<title>29&#45;&gt;30</title>
<g id="a_edge6"><a xlink:title="include">
<path fill="none" stroke="#1414ce" d="M490.25,-656.53C420.31,-646.78 303.5,-629.82 203.5,-612 202.2,-611.77 200.88,-611.53 199.56,-611.29"/>
<polygon fill="#1414ce" stroke="#1414ce" points="199.76,-607.77 189.29,-609.37 198.48,-614.65 199.76,-607.77"/>
</a>
</g>
</g>
<!-- 24 -->
<g id="node24" class="node">
<title>24</title>
<g id="a_node24"><a xlink:title="globalcontext.h">
<polygon fill="#ffffff" stroke="black" points="677,-612 550,-612 550,-576 677,-576 677,-612"/>
<text text-anchor="middle" x="613.5" y="-590.3" font-family="Times,serif" font-size="14.00">globalcontext.h</text>
</a>
</g>
</g>
<!-- 29&#45;&gt;24 -->
<g id="edge5" class="edge">
<title>29&#45;&gt;24</title>
<g id="a_edge5"><a xlink:title="include">
<path fill="none" stroke="#1414ce" d="M567.58,-647.7C574.89,-639.3 583.81,-629.07 591.84,-619.86"/>
<polygon fill="#1414ce" stroke="#1414ce" points="594.66,-621.94 598.6,-612.1 589.39,-617.34 594.66,-621.94"/>
</a>
</g>
</g>
<!-- 25 -->
<g id="node4" class="node">
<title>25</title>
<g id="a_node4"><a xlink:title="atom.h">
<polygon fill="#ffffff" stroke="black" points="513.5,-180 447.5,-180 447.5,-144 513.5,-144 513.5,-180"/>
<text text-anchor="middle" x="480.5" y="-158.3" font-family="Times,serif" font-size="14.00">atom.h</text>
</a>
</g>
</g>
<!-- 10 -->
<g id="node9" class="node">
<title>10</title>
<g id="a_node9"><a xlink:title="stdint.h">
<polygon fill="#ffffff" stroke="black" points="516.5,-36 444.5,-36 444.5,0 516.5,0 516.5,-36"/>
<text text-anchor="middle" x="480.5" y="-14.3" font-family="Times,serif" font-size="14.00">stdint.h</text>
</a>
</g>
</g>
<!-- 25&#45;&gt;10 -->
<g id="edge7" class="edge">
<title>25&#45;&gt;10</title>
<g id="a_edge7"><a xlink:title="include">
<path fill="none" stroke="#1414ce" d="M480.5,-143.87C480.5,-119.67 480.5,-75.21 480.5,-46.39"/>
<polygon fill="#1414ce" stroke="#1414ce" points="484,-46.19 480.5,-36.19 477,-46.19 484,-46.19"/>
</a>
</g>
</g>
<!-- 25&#45;&gt;11 -->
<g id="edge8" class="edge">
<title>25&#45;&gt;11</title>
<g id="a_edge8"><a xlink:title="include">
<path fill="none" stroke="#1414ce" d="M513.67,-155.51C536.83,-151.83 568.48,-147.11 596.5,-144 806.92,-120.64 863.13,-145.51 1071.5,-108 1075.93,-107.2 1080.5,-106.21 1085.05,-105.1"/>
<polygon fill="#1414ce" stroke="#1414ce" points="1086.11,-108.44 1094.9,-102.53 1084.34,-101.67 1086.11,-108.44"/>
</a>
</g>
</g>
<!-- 16 -->
<g id="node5" class="node">
<title>16</title>
<g id="a_node5"><a xlink:title="assert.h">
<polygon fill="#ffffff" stroke="black" points="1726.5,-36 1652.5,-36 1652.5,0 1726.5,0 1726.5,-36"/>
<text text-anchor="middle" x="1689.5" y="-14.3" font-family="Times,serif" font-size="14.00">assert.h</text>
</a>
</g>
</g>
<!-- 19 -->
<g id="node6" class="node">
<title>19</title>
<g id="a_node6"><a xlink:title="utils.h">
<polygon fill="#ffffff" stroke="black" points="1234.5,-180 1172.5,-180 1172.5,-144 1234.5,-144 1234.5,-180"/>
<text text-anchor="middle" x="1203.5" y="-158.3" font-family="Times,serif" font-size="14.00">utils.h</text>
</a>
</g>
</g>
<!-- 19&#45;&gt;11 -->
<g id="edge11" class="edge">
<title>19&#45;&gt;11</title>
<g id="a_edge11"><a xlink:title="include">
<path fill="none" stroke="#1414ce" d="M1185.46,-143.7C1176.44,-135.05 1165.38,-124.45 1155.56,-115.03"/>
<polygon fill="#1414ce" stroke="#1414ce" points="1157.98,-112.5 1148.34,-108.1 1153.13,-117.55 1157.98,-112.5"/>
</a>
</g>
</g>
<!-- 20 -->
<g id="node16" class="node">
<title>20</title>
<g id="a_node16"><a xlink:title="stddef.h">
<polygon fill="#ffffff" stroke="black" points="1258.5,-108 1184.5,-108 1184.5,-72 1258.5,-72 1258.5,-108"/>
<text text-anchor="middle" x="1221.5" y="-86.3" font-family="Times,serif" font-size="14.00">stddef.h</text>
</a>
</g>
</g>
<!-- 19&#45;&gt;20 -->
<g id="edge9" class="edge">
<title>19&#45;&gt;20</title>
<g id="a_edge9"><a xlink:title="include">
<path fill="none" stroke="#1414ce" d="M1207.95,-143.7C1209.96,-135.9 1212.37,-126.51 1214.6,-117.83"/>
<polygon fill="#1414ce" stroke="#1414ce" points="1218,-118.66 1217.1,-108.1 1211.22,-116.92 1218,-118.66"/>
</a>
</g>
</g>
<!-- 6 -->
<g id="node29" class="node">
<title>6</title>
<g id="a_node29"><a xlink:title="stdio.h">
<polygon fill="#ffffff" stroke="black" points="1063,-108 998,-108 998,-72 1063,-72 1063,-108"/>
<text text-anchor="middle" x="1030.5" y="-86.3" font-family="Times,serif" font-size="14.00">stdio.h</text>
</a>
</g>
</g>
<!-- 19&#45;&gt;6 -->
<g id="edge10" class="edge">
<title>19&#45;&gt;6</title>
<g id="a_edge10"><a xlink:title="include">
<path fill="none" stroke="#1414ce" d="M1172.17,-148.32C1144.32,-137.05 1103.37,-120.48 1072.65,-108.05"/>
<polygon fill="#1414ce" stroke="#1414ce" points="1073.65,-104.68 1063.07,-104.18 1071.02,-111.17 1073.65,-104.68"/>
</a>
</g>
</g>
<!-- 5 -->
<g id="node7" class="node">
<title>5</title>
<g id="a_node7"><a xlink:title="synclist.h">
<polygon fill="#ffffff" stroke="black" points="746,-252 661,-252 661,-216 746,-216 746,-252"/>
<text text-anchor="middle" x="703.5" y="-230.3" font-family="Times,serif" font-size="14.00">synclist.h</text>
</a>
</g>
</g>
<!-- 5&#45;&gt;3 -->
<g id="edge13" class="edge">
<title>5&#45;&gt;3</title>
<g id="a_edge13"><a xlink:title="include">
<path fill="none" stroke="#1414ce" d="M685.95,-215.7C677.27,-207.14 666.64,-196.66 657.15,-187.3"/>
<polygon fill="#1414ce" stroke="#1414ce" points="659.43,-184.63 649.85,-180.1 654.51,-189.62 659.43,-184.63"/>
</a>
</g>
</g>
<!-- 7 -->
<g id="node26" class="node">
<title>7</title>
<g id="a_node26"><a xlink:title="smp.h">
<polygon fill="#ffffff" stroke="black" points="379.5,-180 319.5,-180 319.5,-144 379.5,-144 379.5,-180"/>
<text text-anchor="middle" x="349.5" y="-158.3" font-family="Times,serif" font-size="14.00">smp.h</text>
</a>
</g>
</g>
<!-- 5&#45;&gt;7 -->
<g id="edge14" class="edge">
<title>5&#45;&gt;7</title>
<g id="a_edge14"><a xlink:title="include">
<path fill="none" stroke="#1414ce" d="M660.8,-224.56C591.88,-210.93 457.07,-184.27 389.75,-170.96"/>
<polygon fill="#1414ce" stroke="#1414ce" points="390.43,-167.53 379.94,-169.02 389.07,-174.39 390.43,-167.53"/>
</a>
</g>
</g>
<!-- 5&#45;&gt;6 -->
<g id="edge12" class="edge">
<title>5&#45;&gt;6</title>
<g id="a_edge12"><a xlink:title="include">
<path fill="none" stroke="#1414ce" d="M742.94,-215.87C804.99,-188.93 924.85,-136.88 988.46,-109.25"/>
<polygon fill="#1414ce" stroke="#1414ce" points="990.02,-112.39 997.8,-105.2 987.23,-105.97 990.02,-112.39"/>
</a>
</g>
</g>
<!-- 3&#45;&gt;4 -->
<g id="edge15" class="edge">
<title>3&#45;&gt;4</title>
<g id="a_edge15"><a xlink:title="include">
<path fill="none" stroke="#1414ce" d="M632.5,-143.7C632.5,-135.98 632.5,-126.71 632.5,-118.11"/>
<polygon fill="#1414ce" stroke="#1414ce" points="636,-118.1 632.5,-108.1 629,-118.1 636,-118.1"/>
</a>
</g>
</g>
<!-- 23 -->
<g id="node11" class="node">
<title>23</title>
<g id="a_node11"><a xlink:title="context.h">
<polygon fill="#ffffff" stroke="black" points="716,-684 633,-684 633,-648 716,-648 716,-684"/>
<text text-anchor="middle" x="674.5" y="-662.3" font-family="Times,serif" font-size="14.00">context.h</text>
</a>
</g>
</g>
<!-- 23&#45;&gt;3 -->
<g id="edge17" class="edge">
<title>23&#45;&gt;3</title>
<g id="a_edge17"><a xlink:title="include">
<path fill="none" stroke="#1414ce" d="M632.71,-651.12C595.48,-638.33 546.04,-620.15 540.5,-612 446.97,-474.43 567.56,-262.11 614.92,-188.88"/>
<polygon fill="#1414ce" stroke="#1414ce" points="618.02,-190.54 620.57,-180.26 612.16,-186.7 618.02,-190.54"/>
</a>
</g>
</g>
<!-- 8 -->
<g id="node15" class="node">
<title>8</title>
<g id="a_node15"><a xlink:title="term.h">
<polygon fill="#ffffff" stroke="black" points="1145,-468 1080,-468 1080,-432 1145,-432 1145,-468"/>
<text text-anchor="middle" x="1112.5" y="-446.3" font-family="Times,serif" font-size="14.00">term.h</text>
</a>
</g>
</g>
<!-- 23&#45;&gt;8 -->
<g id="edge20" class="edge">
<title>23&#45;&gt;8</title>
<g id="a_edge20"><a xlink:title="include">
<path fill="none" stroke="#1414ce" d="M716.38,-657.75C757,-649.79 819.77,-634.99 870.5,-612 953.84,-574.23 1040.52,-509.2 1084.01,-474.47"/>
<polygon fill="#1414ce" stroke="#1414ce" points="1086.27,-477.14 1091.86,-468.15 1081.88,-471.69 1086.27,-477.14"/>
</a>
</g>
</g>
<!-- 23&#45;&gt;24 -->
<g id="edge16" class="edge">
<title>23&#45;&gt;24</title>
<g id="a_edge16"><a xlink:title="include">
<path fill="none" stroke="#1414ce" d="M659.42,-647.7C652.11,-639.3 643.19,-629.07 635.17,-619.86"/>
<polygon fill="#1414ce" stroke="#1414ce" points="637.61,-617.34 628.41,-612.1 632.34,-621.94 637.61,-617.34"/>
</a>
</g>
</g>
<!-- 23&#45;&gt;7 -->
<g id="edge19" class="edge">
<title>23&#45;&gt;7</title>
<g id="a_edge19"><a xlink:title="include">
<path fill="none" stroke="#1414ce" d="M632.95,-650.35C629.78,-649.48 626.6,-648.68 623.5,-648 480.24,-616.64 426.06,-678.79 295.5,-612 257.12,-592.36 249.44,-578.73 230.5,-540 166.46,-409.05 93.11,-333.42 179.5,-216 209.08,-175.8 268.96,-165.22 309.16,-162.9"/>
<polygon fill="#1414ce" stroke="#1414ce" points="309.34,-166.39 319.18,-162.46 309.04,-159.4 309.34,-166.39"/>
</a>
</g>
</g>
<!-- 28 -->
<g id="node27" class="node">
<title>28</title>
<g id="a_node27"><a xlink:title="timer_list.h">
<polygon fill="#ffffff" stroke="black" points="286.5,-252 188.5,-252 188.5,-216 286.5,-216 286.5,-252"/>
<text text-anchor="middle" x="237.5" y="-230.3" font-family="Times,serif" font-size="14.00">timer_list.h</text>
</a>
</g>
</g>
<!-- 23&#45;&gt;28 -->
<g id="edge21" class="edge">
<title>23&#45;&gt;28</title>
<g id="a_edge21"><a xlink:title="include">
<path fill="none" stroke="#1414ce" d="M632.85,-650.75C629.7,-649.79 626.56,-648.86 623.5,-648 459.39,-601.95 372.02,-664.41 255.5,-540 227.5,-510.1 231.5,-491.97 231.5,-451 231.5,-451 231.5,-451 231.5,-377 231.5,-336.96 233.91,-290.63 235.68,-262.07"/>
<polygon fill="#1414ce" stroke="#1414ce" points="239.17,-262.24 236.32,-252.04 232.19,-261.8 239.17,-262.24"/>
</a>
</g>
</g>
<!-- 27 -->
<g id="node28" class="node">
<title>27</title>
<g id="a_node28"><a xlink:title="mailbox.h">
<polygon fill="#ffffff" stroke="black" points="926.5,-252 840.5,-252 840.5,-216 926.5,-216 926.5,-252"/>
<text text-anchor="middle" x="883.5" y="-230.3" font-family="Times,serif" font-size="14.00">mailbox.h</text>
</a>
</g>
</g>
<!-- 23&#45;&gt;27 -->
<g id="edge18" class="edge">
<title>23&#45;&gt;27</title>
<g id="a_edge18"><a xlink:title="include">
<path fill="none" stroke="#1414ce" d="M716.26,-652.89C769.99,-634.43 856.5,-593.74 856.5,-523 856.5,-523 856.5,-523 856.5,-377 856.5,-336.5 867.23,-290.63 875.16,-262.26"/>
<polygon fill="#1414ce" stroke="#1414ce" points="878.63,-262.87 878.04,-252.29 871.9,-260.93 878.63,-262.87"/>
</a>
</g>
</g>
<!-- 31 -->
<g id="node12" class="node">
<title>31</title>
<g id="a_node12"><a xlink:title="ets_hashtable.h">
<polygon fill="#ffffff" stroke="black" points="1088.5,-684 960.5,-684 960.5,-648 1088.5,-648 1088.5,-684"/>
<text text-anchor="middle" x="1024.5" y="-662.3" font-family="Times,serif" font-size="14.00">ets_hashtable.h</text>
</a>
</g>
</g>
<!-- 31&#45;&gt;11 -->
<g id="edge24" class="edge">
<title>31&#45;&gt;11</title>
<g id="a_edge24"><a xlink:title="include">
<path fill="none" stroke="#1414ce" d="M1088.51,-659.64C1219.62,-646.89 1506.5,-609.15 1506.5,-523 1506.5,-523 1506.5,-523 1506.5,-233 1506.5,-78.97 1334.72,-145.58 1176.09,-107.73"/>
<polygon fill="#1414ce" stroke="#1414ce" points="1176.7,-104.27 1166.15,-105.21 1174.98,-111.06 1176.7,-104.27"/>
</a>
</g>
</g>
<!-- 31&#45;&gt;8 -->
<g id="edge23" class="edge">
<title>31&#45;&gt;8</title>
<g id="a_edge23"><a xlink:title="include">
<path fill="none" stroke="#1414ce" d="M1031.55,-647.85C1046.87,-610.6 1083.28,-522.07 1101.59,-477.54"/>
<polygon fill="#1414ce" stroke="#1414ce" points="1104.85,-478.81 1105.41,-468.23 1098.37,-476.15 1104.85,-478.81"/>
</a>
</g>
</g>
<!-- 31&#45;&gt;24 -->
<g id="edge22" class="edge">
<title>31&#45;&gt;24</title>
<g id="a_edge22"><a xlink:title="include">
<path fill="none" stroke="#1414ce" d="M960.28,-654.06C886.39,-641.48 765.25,-620.85 687.47,-607.6"/>
<polygon fill="#1414ce" stroke="#1414ce" points="687.71,-604.09 677.27,-605.86 686.54,-610.99 687.71,-604.09"/>
</a>
</g>
</g>
<!-- 13 -->
<g id="node13" class="node">
<title>13</title>
<g id="a_node13"><a xlink:title="memory.h">
<polygon fill="#ffffff" stroke="black" points="1454.5,-252 1368.5,-252 1368.5,-216 1454.5,-216 1454.5,-252"/>
<text text-anchor="middle" x="1411.5" y="-230.3" font-family="Times,serif" font-size="14.00">memory.h</text>
</a>
</g>
</g>
<!-- 13&#45;&gt;19 -->
<g id="edge29" class="edge">
<title>13&#45;&gt;19</title>
<g id="a_edge29"><a xlink:title="include">
<path fill="none" stroke="#1414ce" d="M1368.4,-218.5C1331.97,-206.23 1280.13,-188.79 1244.35,-176.75"/>
<polygon fill="#1414ce" stroke="#1414ce" points="1245.3,-173.37 1234.71,-173.5 1243.07,-180.01 1245.3,-173.37"/>
</a>
</g>
</g>
<!-- 13&#45;&gt;10 -->
<g id="edge25" class="edge">
<title>13&#45;&gt;10</title>
<g id="a_edge25"><a xlink:title="include">
<path fill="none" stroke="#1414ce" d="M1413.51,-215.99C1414.87,-196.79 1414.26,-165.45 1399.5,-144 1361.62,-88.95 1331.66,-90.68 1267.5,-72 1127.06,-31.11 672.99,-21.56 526.51,-19.52"/>
<polygon fill="#1414ce" stroke="#1414ce" points="526.55,-16.02 516.51,-19.38 526.46,-23.01 526.55,-16.02"/>
</a>
</g>
</g>
<!-- 13&#45;&gt;11 -->
<g id="edge26" class="edge">
<title>13&#45;&gt;11</title>
<g id="a_edge26"><a xlink:title="include">
<path fill="none" stroke="#1414ce" d="M1409.07,-215.65C1405.26,-195.22 1395.82,-161.82 1373.5,-144 1306.05,-90.17 1264.67,-128.95 1176.05,-107.71"/>
<polygon fill="#1414ce" stroke="#1414ce" points="1176.73,-104.27 1166.17,-105.14 1174.97,-111.05 1176.73,-104.27"/>
</a>
</g>
</g>
<!-- 14 -->
<g id="node17" class="node">
<title>14</title>
<g id="a_node17"><a xlink:title="erl_nif.h">
<polygon fill="#ffffff" stroke="black" points="1364.5,-180 1290.5,-180 1290.5,-144 1364.5,-144 1364.5,-180"/>
<text text-anchor="middle" x="1327.5" y="-158.3" font-family="Times,serif" font-size="14.00">erl_nif.h</text>
</a>
</g>
</g>
<!-- 13&#45;&gt;14 -->
<g id="edge27" class="edge">
<title>13&#45;&gt;14</title>
<g id="a_edge27"><a xlink:title="include">
<path fill="none" stroke="#1414ce" d="M1390.74,-215.7C1380.26,-206.97 1367.39,-196.24 1356,-186.75"/>
<polygon fill="#1414ce" stroke="#1414ce" points="1357.95,-183.82 1348.03,-180.1 1353.47,-189.19 1357.95,-183.82"/>
</a>
</g>
</g>
<!-- 15 -->
<g id="node23" class="node">
<title>15</title>
<g id="a_node23"><a xlink:title="term_typedef.h">
<polygon fill="#ffffff" stroke="black" points="1652,-108 1527,-108 1527,-72 1652,-72 1652,-108"/>
<text text-anchor="middle" x="1589.5" y="-86.3" font-family="Times,serif" font-size="14.00">term_typedef.h</text>
</a>
</g>
</g>
<!-- 13&#45;&gt;15 -->
<g id="edge28" class="edge">
<title>13&#45;&gt;15</title>
<g id="a_edge28"><a xlink:title="include">
<path fill="none" stroke="#1414ce" d="M1432.97,-215.87C1464.65,-190.6 1524,-143.25 1559.82,-114.68"/>
<polygon fill="#1414ce" stroke="#1414ce" points="1562.32,-117.16 1567.95,-108.19 1557.95,-111.69 1562.32,-117.16"/>
</a>
</g>
</g>
<!-- 22&#45;&gt;5 -->
<g id="edge34" class="edge">
<title>22&#45;&gt;5</title>
<g id="a_edge34"><a xlink:title="include">
<path fill="none" stroke="#1414ce" d="M1016.41,-295.34C947.91,-282.13 825.6,-258.54 755.91,-245.11"/>
<polygon fill="#1414ce" stroke="#1414ce" points="756.51,-241.66 746.02,-243.2 755.18,-248.53 756.51,-241.66"/>
</a>
</g>
</g>
<!-- 22&#45;&gt;3 -->
<g id="edge32" class="edge">
<title>22&#45;&gt;3</title>
<g id="a_edge32"><a xlink:title="include">
<path fill="none" stroke="#1414ce" d="M1016.06,-300.58C966.84,-294.71 890.92,-281.39 831.5,-252 809.16,-240.95 810.23,-228.22 788.5,-216 750.48,-194.62 702.4,-179.9 669.74,-171.5"/>
<polygon fill="#1414ce" stroke="#1414ce" points="670.26,-168.02 659.71,-168.99 668.56,-174.81 670.26,-168.02"/>
</a>
</g>
</g>
<!-- 22&#45;&gt;11 -->
<g id="edge30" class="edge">
<title>22&#45;&gt;11</title>
<g id="a_edge30"><a xlink:title="include">
<path fill="none" stroke="#1414ce" d="M1071.7,-287.82C1074.84,-277.45 1078.91,-263.97 1082.5,-252 1096.58,-205.06 1112.85,-150.39 1122.38,-118.35"/>
<polygon fill="#1414ce" stroke="#1414ce" points="1125.84,-118.98 1125.34,-108.4 1119.13,-116.99 1125.84,-118.98"/>
</a>
</g>
</g>
<!-- 22&#45;&gt;13 -->
<g id="edge33" class="edge">
<title>22&#45;&gt;13</title>
<g id="a_edge33"><a xlink:title="include">
<path fill="none" stroke="#1414ce" d="M1116.67,-294.82C1181.06,-281.76 1292.31,-259.18 1358.19,-245.82"/>
<polygon fill="#1414ce" stroke="#1414ce" points="1359.26,-249.17 1368.36,-243.75 1357.86,-242.31 1359.26,-249.17"/>
</a>
</g>
</g>
<!-- 22&#45;&gt;14 -->
<g id="edge31" class="edge">
<title>22&#45;&gt;14</title>
<g id="a_edge31"><a xlink:title="include">
<path fill="none" stroke="#1414ce" d="M1091.1,-287.73C1118.53,-268.86 1164.56,-238.35 1206.5,-216 1230.41,-203.26 1258.02,-190.99 1280.82,-181.48"/>
<polygon fill="#1414ce" stroke="#1414ce" points="1282.37,-184.62 1290.27,-177.57 1279.69,-178.15 1282.37,-184.62"/>
</a>
</g>
</g>
<!-- 8&#45;&gt;4 -->
<g id="edge36" class="edge">
<title>8&#45;&gt;4</title>
<g id="a_edge36"><a xlink:title="include">
<path fill="none" stroke="#1414ce" d="M1079.96,-444.19C1032.85,-436.48 949.32,-419.78 931.5,-396 883.52,-331.96 979.18,-283.05 935.5,-216 880.14,-131.02 754.99,-103.78 684.07,-95.07"/>
<polygon fill="#1414ce" stroke="#1414ce" points="684.35,-91.58 674.01,-93.92 683.55,-98.53 684.35,-91.58"/>
</a>
</g>
</g>
<!-- 8&#45;&gt;21 -->
<g id="edge42" class="edge">
<title>8&#45;&gt;21</title>
<g id="a_edge42"><a xlink:title="include">
<path fill="none" stroke="#1414ce" d="M1083.63,-431.88C1068.21,-422.72 1049.02,-411.34 1032.4,-401.48"/>
<polygon fill="#1414ce" stroke="#1414ce" points="1033.86,-398.28 1023.48,-396.19 1030.29,-404.3 1033.86,-398.28"/>
</a>
</g>
</g>
<!-- 8&#45;&gt;19 -->
<g id="edge43" class="edge">
<title>8&#45;&gt;19</title>
<g id="a_edge43"><a xlink:title="include">
<path fill="none" stroke="#1414ce" d="M1145.35,-438.19C1164.78,-429.92 1187.8,-416.41 1199.5,-396 1237.2,-330.22 1221.85,-235.89 1210.91,-190.05"/>
<polygon fill="#1414ce" stroke="#1414ce" points="1214.29,-189.12 1208.47,-180.26 1207.5,-190.81 1214.29,-189.12"/>
</a>
</g>
</g>
<!-- 8&#45;&gt;10 -->
<g id="edge37" class="edge">
<title>8&#45;&gt;10</title>
<g id="a_edge37"><a xlink:title="include">
<path fill="none" stroke="#1414ce" d="M1145.08,-446.94C1221.57,-441.67 1410.34,-425.91 1465.5,-396 1511.99,-370.78 1544.5,-359.89 1544.5,-307 1544.5,-307 1544.5,-307 1544.5,-233 1544.5,-192.03 1548,-174.36 1520.5,-144 1459.88,-77.07 1418.78,-91.02 1330.5,-72 1175.08,-38.51 680.93,-23.88 526.84,-20.06"/>
<polygon fill="#1414ce" stroke="#1414ce" points="526.85,-16.56 516.77,-19.82 526.68,-23.56 526.85,-16.56"/>
</a>
</g>
</g>
<!-- 8&#45;&gt;11 -->
<g id="edge39" class="edge">
<title>8&#45;&gt;11</title>
<g id="a_edge39"><a xlink:title="include">
<path fill="none" stroke="#1414ce" d="M1121.08,-431.75C1132.3,-408.12 1151.36,-364.07 1158.5,-324 1171.7,-249.89 1151.26,-161.38 1138.87,-117.87"/>
<polygon fill="#1414ce" stroke="#1414ce" points="1142.16,-116.66 1135.99,-108.05 1135.44,-118.64 1142.16,-116.66"/>
</a>
</g>
</g>
<!-- 8&#45;&gt;13 -->
<g id="edge41" class="edge">
<title>8&#45;&gt;13</title>
<g id="a_edge41"><a xlink:title="include">
<path fill="none" stroke="#1414ce" d="M1145.11,-449C1221.89,-448.23 1410.48,-441.63 1449.5,-396 1466.62,-375.98 1439.69,-301.97 1423.05,-261.64"/>
<polygon fill="#1414ce" stroke="#1414ce" points="1426.17,-260.03 1419.08,-252.16 1419.72,-262.74 1426.17,-260.03"/>
</a>
</g>
</g>
<!-- 9 -->
<g id="node21" class="node">
<title>9</title>
<g id="a_node21"><a xlink:title="sys/types.h">
<polygon fill="#ffffff" stroke="black" points="1349,-396 1252,-396 1252,-360 1349,-360 1349,-396"/>
<text text-anchor="middle" x="1300.5" y="-374.3" font-family="Times,serif" font-size="14.00">sys/types.h</text>
</a>
</g>
</g>
<!-- 8&#45;&gt;9 -->
<g id="edge35" class="edge">
<title>8&#45;&gt;9</title>
<g id="a_edge35"><a xlink:title="include">
<path fill="none" stroke="#1414ce" d="M1145.25,-436.81C1172.82,-426.54 1212.86,-411.63 1245.36,-399.53"/>
<polygon fill="#1414ce" stroke="#1414ce" points="1246.6,-402.8 1254.75,-396.03 1244.16,-396.24 1246.6,-402.8"/>
</a>
</g>
</g>
<!-- 12 -->
<g id="node22" class="node">
<title>12</title>
<g id="a_node22"><a xlink:title="string.h">
<polygon fill="#ffffff" stroke="black" points="1440,-396 1367,-396 1367,-360 1440,-360 1440,-396"/>
<text text-anchor="middle" x="1403.5" y="-374.3" font-family="Times,serif" font-size="14.00">string.h</text>
</a>
</g>
</g>
<!-- 8&#45;&gt;12 -->
<g id="edge40" class="edge">
<title>8&#45;&gt;12</title>
<g id="a_edge40"><a xlink:title="include">
<path fill="none" stroke="#1414ce" d="M1145.12,-443.57C1190.75,-435.63 1276.26,-419.5 1357,-396.24"/>
<polygon fill="#1414ce" stroke="#1414ce" points="1358.2,-399.54 1366.82,-393.37 1356.24,-392.82 1358.2,-399.54"/>
</a>
</g>
</g>
<!-- 8&#45;&gt;15 -->
<g id="edge44" class="edge">
<title>8&#45;&gt;15</title>
<g id="a_edge44"><a xlink:title="include">
<path fill="none" stroke="#1414ce" d="M1145.01,-448.54C1235.58,-446.72 1488.62,-437.92 1558.5,-396 1599.84,-371.2 1620.5,-355.21 1620.5,-307 1620.5,-307 1620.5,-307 1620.5,-233 1620.5,-192.1 1608.07,-146.06 1598.95,-117.79"/>
<polygon fill="#1414ce" stroke="#1414ce" points="1602.25,-116.61 1595.77,-108.22 1595.61,-118.82 1602.25,-116.61"/>
</a>
</g>
</g>
<!-- 8&#45;&gt;6 -->
<g id="edge38" class="edge">
<title>8&#45;&gt;6</title>
<g id="a_edge38"><a xlink:title="include">
<path fill="none" stroke="#1414ce" d="M1117.25,-431.83C1124.73,-402.13 1137.25,-339.39 1125.5,-288 1110.49,-222.31 1070.64,-153.03 1047.6,-116.7"/>
<polygon fill="#1414ce" stroke="#1414ce" points="1050.48,-114.71 1042.13,-108.2 1044.6,-118.5 1050.48,-114.71"/>
</a>
</g>
</g>
<!-- 14&#45;&gt;15 -->
<g id="edge45" class="edge">
<title>14&#45;&gt;15</title>
<g id="a_edge45"><a xlink:title="include">
<path fill="none" stroke="#1414ce" d="M1364.76,-151.05C1404.3,-140.48 1467.75,-123.53 1517.17,-110.33"/>
<polygon fill="#1414ce" stroke="#1414ce" points="1518.1,-113.7 1526.85,-107.74 1516.29,-106.94 1518.1,-113.7"/>
</a>
</g>
</g>
<!-- 17 -->
<g id="node19" class="node">
<title>17</title>
<g id="a_node19"><a xlink:title="limits.h">
<polygon fill="#ffffff" stroke="black" points="1527,-36 1456,-36 1456,0 1527,0 1527,-36"/>
<text text-anchor="middle" x="1491.5" y="-14.3" font-family="Times,serif" font-size="14.00">limits.h</text>
</a>
</g>
</g>
<!-- 26 -->
<g id="node20" class="node">
<title>26</title>
<g id="a_node20"><a xlink:title="atom_table.h">
<polygon fill="#ffffff" stroke="black" points="452,-252 343,-252 343,-216 452,-216 452,-252"/>
<text text-anchor="middle" x="397.5" y="-230.3" font-family="Times,serif" font-size="14.00">atom_table.h</text>
</a>
</g>
</g>
<!-- 26&#45;&gt;4 -->
<g id="edge46" class="edge">
<title>26&#45;&gt;4</title>
<g id="a_edge46"><a xlink:title="include">
<path fill="none" stroke="#1414ce" d="M400.8,-215.95C405.6,-195.81 416.44,-162.7 438.5,-144 478.37,-110.22 537.93,-97.82 580.52,-93.35"/>
<polygon fill="#1414ce" stroke="#1414ce" points="581.07,-96.82 590.7,-92.4 580.41,-89.85 581.07,-96.82"/>
</a>
</g>
</g>
<!-- 26&#45;&gt;25 -->
<g id="edge47" class="edge">
<title>26&#45;&gt;25</title>
<g id="a_edge47"><a xlink:title="include">
<path fill="none" stroke="#1414ce" d="M418.02,-215.7C428.37,-206.97 441.09,-196.24 452.34,-186.75"/>
<polygon fill="#1414ce" stroke="#1414ce" points="454.83,-189.23 460.22,-180.1 450.32,-183.88 454.83,-189.23"/>
</a>
</g>
</g>
<!-- 15&#45;&gt;16 -->
<g id="edge48" class="edge">
<title>15&#45;&gt;16</title>
<g id="a_edge48"><a xlink:title="include">
<path fill="none" stroke="#1414ce" d="M1613.96,-71.88C1626.8,-62.89 1642.7,-51.76 1656.59,-42.03"/>
<polygon fill="#1414ce" stroke="#1414ce" points="1658.76,-44.79 1664.94,-36.19 1654.74,-39.06 1658.76,-44.79"/>
</a>
</g>
</g>
<!-- 15&#45;&gt;10 -->
<g id="edge51" class="edge">
<title>15&#45;&gt;10</title>
<g id="a_edge51"><a xlink:title="include">
<path fill="none" stroke="#1414ce" d="M1526.62,-74.23C1521.86,-73.38 1517.11,-72.62 1512.5,-72 1134.82,-20.97 673.32,-18.14 527.18,-18.65"/>
<polygon fill="#1414ce" stroke="#1414ce" points="526.79,-15.15 516.81,-18.69 526.82,-22.15 526.79,-15.15"/>
</a>
</g>
</g>
<!-- 15&#45;&gt;17 -->
<g id="edge49" class="edge">
<title>15&#45;&gt;17</title>
<g id="a_edge49"><a xlink:title="include">
<path fill="none" stroke="#1414ce" d="M1565.53,-71.88C1552.95,-62.89 1537.37,-51.76 1523.75,-42.03"/>
<polygon fill="#1414ce" stroke="#1414ce" points="1525.74,-39.15 1515.57,-36.19 1521.67,-44.85 1525.74,-39.15"/>
</a>
</g>
</g>
<!-- 18 -->
<g id="node32" class="node">
<title>18</title>
<g id="a_node32"><a xlink:title="inttypes.h">
<polygon fill="#ffffff" stroke="black" points="1634,-36 1545,-36 1545,0 1634,0 1634,-36"/>
<text text-anchor="middle" x="1589.5" y="-14.3" font-family="Times,serif" font-size="14.00">inttypes.h</text>
</a>
</g>
</g>
<!-- 15&#45;&gt;18 -->
<g id="edge50" class="edge">
<title>15&#45;&gt;18</title>
<g id="a_edge50"><a xlink:title="include">
<path fill="none" stroke="#1414ce" d="M1589.5,-71.7C1589.5,-63.98 1589.5,-54.71 1589.5,-46.11"/>
<polygon fill="#1414ce" stroke="#1414ce" points="1593,-46.1 1589.5,-36.1 1586,-46.1 1593,-46.1"/>
</a>
</g>
</g>
<!-- 24&#45;&gt;25 -->
<g id="edge53" class="edge">
<title>24&#45;&gt;25</title>
<g id="a_edge53"><a xlink:title="include">
<path fill="none" stroke="#1414ce" d="M601.69,-575.96C584.99,-550.16 556.5,-499.08 556.5,-451 556.5,-451 556.5,-451 556.5,-377 556.5,-305.76 518.64,-228.48 496.36,-189.17"/>
<polygon fill="#1414ce" stroke="#1414ce" points="499.11,-186.92 491.07,-180.02 493.05,-190.43 499.11,-186.92"/>
</a>
</g>
</g>
<!-- 24&#45;&gt;5 -->
<g id="edge60" class="edge">
<title>24&#45;&gt;5</title>
<g id="a_edge60"><a xlink:title="include">
<path fill="none" stroke="#1414ce" d="M617.84,-575.73C632.34,-518.08 679.14,-331.89 696.73,-261.92"/>
<polygon fill="#1414ce" stroke="#1414ce" points="700.16,-262.65 699.2,-252.09 693.37,-260.94 700.16,-262.65"/>
</a>
</g>
</g>
<!-- 24&#45;&gt;3 -->
<g id="edge57" class="edge">
<title>24&#45;&gt;3</title>
<g id="a_edge57"><a xlink:title="include">
<path fill="none" stroke="#1414ce" d="M609.66,-575.61C604.1,-548.94 594.5,-496.27 594.5,-451 594.5,-451 594.5,-451 594.5,-305 594.5,-263.63 609.74,-217.72 620.91,-189.61"/>
<polygon fill="#1414ce" stroke="#1414ce" points="624.26,-190.67 624.81,-180.09 617.78,-188.02 624.26,-190.67"/>
</a>
</g>
</g>
<!-- 24&#45;&gt;10 -->
<g id="edge52" class="edge">
<title>24&#45;&gt;10</title>
<g id="a_edge52"><a xlink:title="include">
<path fill="none" stroke="#1414ce" d="M549.91,-589.26C470.96,-583.42 342.2,-569.58 305.5,-540 272.28,-513.22 269.5,-493.67 269.5,-451 269.5,-451 269.5,-451 269.5,-377 269.5,-295.02 151.28,-292.97 179.5,-216 208.38,-137.25 231.24,-117.82 301.5,-72 341.95,-45.62 395.95,-32 434.02,-25.21"/>
<polygon fill="#1414ce" stroke="#1414ce" points="435.04,-28.59 444.31,-23.48 433.87,-21.69 435.04,-28.59"/>
</a>
</g>
</g>
<!-- 24&#45;&gt;8 -->
<g id="edge61" class="edge">
<title>24&#45;&gt;8</title>
<g id="a_edge61"><a xlink:title="include">
<path fill="none" stroke="#1414ce" d="M677.05,-577.26C713.32,-567.7 759.41,-554.54 799.5,-540 836.54,-526.57 843.12,-516.45 880.5,-504 945.14,-482.48 1022.77,-466.69 1069.83,-458.18"/>
<polygon fill="#1414ce" stroke="#1414ce" points="1070.45,-461.63 1079.68,-456.43 1069.22,-454.74 1070.45,-461.63"/>
</a>
</g>
</g>
<!-- 24&#45;&gt;14 -->
<g id="edge55" class="edge">
<title>24&#45;&gt;14</title>
<g id="a_edge55"><a xlink:title="include">
<path fill="none" stroke="#1414ce" d="M635.14,-575.95C667.49,-550.5 724.96,-505.35 727.5,-504 863.69,-431.43 923.13,-471.89 1057.5,-396 1161.47,-337.28 1262.01,-234.81 1305.29,-187.82"/>
<polygon fill="#1414ce" stroke="#1414ce" points="1308.06,-189.99 1312.22,-180.25 1302.89,-185.27 1308.06,-189.99"/>
</a>
</g>
</g>
<!-- 24&#45;&gt;26 -->
<g id="edge54" class="edge">
<title>24&#45;&gt;26</title>
<g id="a_edge54"><a xlink:title="include">
<path fill="none" stroke="#1414ce" d="M584.23,-575.87C570.26,-566.6 554.11,-554.16 542.5,-540 469.19,-450.57 422.78,-317.91 405.33,-261.71"/>
<polygon fill="#1414ce" stroke="#1414ce" points="408.67,-260.67 402.41,-252.13 401.98,-262.72 408.67,-260.67"/>
</a>
</g>
</g>
<!-- 24&#45;&gt;7 -->
<g id="edge59" class="edge">
<title>24&#45;&gt;7</title>
<g id="a_edge59"><a xlink:title="include">
<path fill="none" stroke="#1414ce" d="M549.99,-587.02C470.74,-575.67 345.5,-543.15 345.5,-451 345.5,-451 345.5,-451 345.5,-377 345.5,-305.25 323.02,-286.98 333.5,-216 334.78,-207.35 337.17,-198.15 339.72,-189.89"/>
<polygon fill="#1414ce" stroke="#1414ce" points="343.05,-190.96 342.85,-180.37 336.4,-188.78 343.05,-190.96"/>
</a>
</g>
</g>
<!-- 24&#45;&gt;28 -->
<g id="edge62" class="edge">
<title>24&#45;&gt;28</title>
<g id="a_edge62"><a xlink:title="include">
<path fill="none" stroke="#1414ce" d="M549.93,-588.81C476.74,-582.69 362.58,-568.76 331.5,-540 301.43,-512.18 307.5,-491.97 307.5,-451 307.5,-451 307.5,-451 307.5,-377 307.5,-336.03 302.75,-324.17 283.5,-288 278.07,-277.79 270.34,-267.86 262.76,-259.41"/>
<polygon fill="#1414ce" stroke="#1414ce" points="265.31,-257.01 255.92,-252.1 260.2,-261.8 265.31,-257.01"/>
</a>
</g>
</g>
<!-- 24&#45;&gt;27 -->
<g id="edge58" class="edge">
<title>24&#45;&gt;27</title>
<g id="a_edge58"><a xlink:title="include">
<path fill="none" stroke="#1414ce" d="M626.33,-575.74C660.97,-529.15 759.42,-397.01 842.5,-288 849.45,-278.88 857.12,-268.94 863.93,-260.15"/>
<polygon fill="#1414ce" stroke="#1414ce" points="866.78,-262.18 870.14,-252.14 861.25,-257.89 866.78,-262.18"/>
</a>
</g>
</g>
<!-- 2 -->
<g id="node31" class="node">
<title>2</title>
<g id="a_node31"><a xlink:title="ets.h">
<polygon fill="#ffffff" stroke="black" points="790.5,-540 736.5,-540 736.5,-504 790.5,-504 790.5,-540"/>
<text text-anchor="middle" x="763.5" y="-518.3" font-family="Times,serif" font-size="14.00">ets.h</text>
</a>
</g>
</g>
<!-- 24&#45;&gt;2 -->
<g id="edge56" class="edge">
<title>24&#45;&gt;2</title>
<g id="a_edge56"><a xlink:title="include">
<path fill="none" stroke="#1414ce" d="M650.2,-575.88C673.52,-564.99 703.61,-550.95 726.91,-540.07"/>
<polygon fill="#1414ce" stroke="#1414ce" points="728.54,-543.18 736.12,-535.78 725.58,-536.83 728.54,-543.18"/>
</a>
</g>
</g>
<!-- 32 -->
<g id="node25" class="node">
<title>32</title>
<g id="a_node25"><a xlink:title="overflow_helpers.h">
<polygon fill="#ffffff" stroke="black" points="165,-540 14,-540 14,-504 165,-504 165,-540"/>
<text text-anchor="middle" x="89.5" y="-518.3" font-family="Times,serif" font-size="14.00">overflow_helpers.h</text>
</a>
</g>
</g>
<!-- 32&#45;&gt;10 -->
<g id="edge64" class="edge">
<title>32&#45;&gt;10</title>
<g id="a_edge64"><a xlink:title="include">
<path fill="none" stroke="#1414ce" d="M88.51,-503.96C87.06,-477.31 84.5,-424.14 84.5,-379 84.5,-379 84.5,-379 84.5,-161 84.5,-112.79 105.65,-97.6 146.5,-72 193.64,-42.46 353.99,-27.61 434.13,-21.89"/>
<polygon fill="#1414ce" stroke="#1414ce" points="434.69,-25.36 444.42,-21.18 434.2,-18.38 434.69,-25.36"/>
</a>
</g>
</g>
<!-- 32&#45;&gt;8 -->
<g id="edge63" class="edge">
<title>32&#45;&gt;8</title>
<g id="a_edge63"><a xlink:title="include">
<path fill="none" stroke="#1414ce" d="M165.14,-515.82C366.67,-502.03 911.91,-464.73 1069.38,-453.95"/>
<polygon fill="#1414ce" stroke="#1414ce" points="1069.87,-457.43 1079.61,-453.25 1069.39,-450.44 1069.87,-457.43"/>
</a>
</g>
</g>
<!-- 7&#45;&gt;4 -->
<g id="edge65" class="edge">
<title>7&#45;&gt;4</title>
<g id="a_edge65"><a xlink:title="include">
<path fill="none" stroke="#1414ce" d="M379.8,-148.88C384.68,-147.13 389.7,-145.43 394.5,-144 457.74,-125.12 532.23,-109.58 580.81,-100.31"/>
<polygon fill="#1414ce" stroke="#1414ce" points="581.59,-103.72 590.77,-98.43 580.29,-96.85 581.59,-103.72"/>
</a>
</g>
</g>
<!-- 28&#45;&gt;4 -->
<g id="edge66" class="edge">
<title>28&#45;&gt;4</title>
<g id="a_edge66"><a xlink:title="include">
<path fill="none" stroke="#1414ce" d="M246.51,-215.73C258.28,-195.05 280.9,-161.08 310.5,-144 355.52,-118.01 501.46,-102.05 580.5,-95.09"/>
<polygon fill="#1414ce" stroke="#1414ce" points="581.06,-98.56 590.72,-94.21 580.46,-91.58 581.06,-98.56"/>
</a>
</g>
</g>
<!-- 28&#45;&gt;3 -->
<g id="edge68" class="edge">
<title>28&#45;&gt;3</title>
<g id="a_edge68"><a xlink:title="include">
<path fill="none" stroke="#1414ce" d="M286.73,-224.28C366.96,-210.06 524.1,-182.21 595.56,-169.55"/>
<polygon fill="#1414ce" stroke="#1414ce" points="596.22,-172.98 605.46,-167.79 595,-166.09 596.22,-172.98"/>
</a>
</g>
</g>
<!-- 28&#45;&gt;10 -->
<g id="edge67" class="edge">
<title>28&#45;&gt;10</title>
<g id="a_edge67"><a xlink:title="include">
<path fill="none" stroke="#1414ce" d="M239.63,-215.87C242.79,-196.57 250.32,-165.13 267.5,-144 311.78,-89.53 386.54,-53.61 434.69,-34.78"/>
<polygon fill="#1414ce" stroke="#1414ce" points="436.14,-37.97 444.24,-31.14 433.65,-31.43 436.14,-37.97"/>
</a>
</g>
</g>
<!-- 27&#45;&gt;4 -->
<g id="edge69" class="edge">
<title>27&#45;&gt;4</title>
<g id="a_edge69"><a xlink:title="include">
<path fill="none" stroke="#1414ce" d="M853.22,-215.87C807.81,-190.18 722.03,-141.65 671.83,-113.25"/>
<polygon fill="#1414ce" stroke="#1414ce" points="673.31,-110.07 662.88,-108.19 669.87,-116.16 673.31,-110.07"/>
</a>
</g>
</g>
<!-- 27&#45;&gt;19 -->
<g id="edge72" class="edge">
<title>27&#45;&gt;19</title>
<g id="a_edge72"><a xlink:title="include">
<path fill="none" stroke="#1414ce" d="M926.66,-223.56C988.42,-210.05 1101.27,-185.36 1162.07,-172.06"/>
<polygon fill="#1414ce" stroke="#1414ce" points="1163.06,-175.43 1172.08,-169.87 1161.56,-168.59 1163.06,-175.43"/>
</a>
</g>
</g>
<!-- 27&#45;&gt;3 -->
<g id="edge70" class="edge">
<title>27&#45;&gt;3</title>
<g id="a_edge70"><a xlink:title="include">
<path fill="none" stroke="#1414ce" d="M840.27,-219.99C835.63,-218.63 830.97,-217.28 826.5,-216 771.95,-200.42 708.5,-183.26 669.42,-172.81"/>
<polygon fill="#1414ce" stroke="#1414ce" points="670.11,-169.38 659.55,-170.18 668.3,-176.14 670.11,-169.38"/>
</a>
</g>
</g>
<!-- 27&#45;&gt;15 -->
<g id="edge71" class="edge">
<title>27&#45;&gt;15</title>
<g id="a_edge71"><a xlink:title="include">
<path fill="none" stroke="#1414ce" d="M926.6,-229.92C1009.6,-223.45 1188.31,-206.81 1243.5,-180 1264.43,-169.83 1260.7,-154.42 1281.5,-144 1355.98,-106.69 1451.91,-95.07 1516.77,-91.74"/>
<polygon fill="#1414ce" stroke="#1414ce" points="1517.08,-95.23 1526.91,-91.28 1516.76,-88.24 1517.08,-95.23"/>
</a>
</g>
</g>
<!-- 1 -->
<g id="node30" class="node">
<title>1</title>
<g id="a_node30"><a xlink:title="/__w/AtomVM/AtomVM/src/libAtomVM/ets.c">
<polygon fill="#bfbfbf" stroke="black" points="1007,-756 680,-756 680,-720 1007,-720 1007,-756"/>
<text text-anchor="middle" x="843.5" y="-734.3" font-family="Times,serif" font-size="14.00">/__w/AtomVM/AtomVM/src/libAtomVM/ets.c</text>
</a>
</g>
</g>
<!-- 1&#45;&gt;29 -->
<g id="edge75" class="edge">
<title>1&#45;&gt;29</title>
<g id="a_edge75"><a xlink:title="include">
<path fill="none" stroke="#1414ce" d="M772.69,-719.97C727.7,-709.14 669.65,-695.18 624.45,-684.31"/>
<polygon fill="#1414ce" stroke="#1414ce" points="625.26,-680.9 614.72,-681.97 623.62,-687.71 625.26,-680.9"/>
</a>
</g>
</g>
<!-- 1&#45;&gt;3 -->
<g id="edge77" class="edge">
<title>1&#45;&gt;3</title>
<g id="a_edge77"><a xlink:title="include">
<path fill="none" stroke="#1414ce" d="M679.62,-732.47C473.5,-725.7 140.24,-710.78 89.5,-684 23.78,-649.31 18.2,-613.04 4.5,-540 1.55,-524.27 -3.68,-517.75 4.5,-504 13.15,-489.46 463.55,-251.84 596.15,-182.1"/>
<polygon fill="#1414ce" stroke="#1414ce" points="597.91,-185.12 605.13,-177.37 594.65,-178.93 597.91,-185.12"/>
</a>
</g>
</g>
<!-- 1&#45;&gt;23 -->
<g id="edge74" class="edge">
<title>1&#45;&gt;23</title>
<g id="a_edge74"><a xlink:title="include">
<path fill="none" stroke="#1414ce" d="M802.16,-719.88C778.95,-710.26 749.81,-698.19 725.23,-688.01"/>
<polygon fill="#1414ce" stroke="#1414ce" points="726.29,-684.66 715.71,-684.07 723.61,-691.13 726.29,-684.66"/>
</a>
</g>
</g>
<!-- 1&#45;&gt;31 -->
<g id="edge76" class="edge">
<title>1&#45;&gt;31</title>
<g id="a_edge76"><a xlink:title="include">
<path fill="none" stroke="#1414ce" d="M887.78,-719.88C912.85,-710.18 944.4,-697.98 970.87,-687.74"/>
<polygon fill="#1414ce" stroke="#1414ce" points="972.3,-690.94 980.37,-684.07 969.78,-684.41 972.3,-690.94"/>
</a>
</g>
</g>
<!-- 1&#45;&gt;13 -->
<g id="edge78" class="edge">
<title>1&#45;&gt;13</title>
<g id="a_edge78"><a xlink:title="include">
<path fill="none" stroke="#1414ce" d="M1007.05,-721.72C1224.72,-699.14 1582.5,-653.18 1582.5,-595 1582.5,-595 1582.5,-595 1582.5,-449 1582.5,-363.36 1497.88,-292.31 1447.7,-257.7"/>
<polygon fill="#1414ce" stroke="#1414ce" points="1449.6,-254.77 1439.36,-252.07 1445.68,-260.57 1449.6,-254.77"/>
</a>
</g>
</g>
<!-- 1&#45;&gt;8 -->
<g id="edge80" class="edge">
<title>1&#45;&gt;8</title>
<g id="a_edge80"><a xlink:title="include">
<path fill="none" stroke="#1414ce" d="M1000.19,-719.97C1043.86,-711.93 1083.29,-700.37 1097.5,-684 1147.88,-625.93 1131.85,-526.02 1120.15,-478.14"/>
<polygon fill="#1414ce" stroke="#1414ce" points="1123.48,-477.02 1117.6,-468.2 1116.7,-478.76 1123.48,-477.02"/>
</a>
</g>
</g>
<!-- 1&#45;&gt;32 -->
<g id="edge79" class="edge">
<title>1&#45;&gt;32</title>
<g id="a_edge79"><a xlink:title="include">
<path fill="none" stroke="#1414ce" d="M679.87,-735.63C469.73,-729.98 122.51,-706.2 42.5,-612 25.92,-592.48 43.73,-566.15 61.98,-547.19"/>
<polygon fill="#1414ce" stroke="#1414ce" points="64.54,-549.59 69.2,-540.07 59.62,-544.6 64.54,-549.59"/>
</a>
</g>
</g>
<!-- 1&#45;&gt;2 -->
<g id="edge73" class="edge">
<title>1&#45;&gt;2</title>
<g id="a_edge73"><a xlink:title="include">
<path fill="none" stroke="#1414ce" d="M837.09,-719.85C823.19,-682.68 790.21,-594.44 773.53,-549.82"/>
<polygon fill="#1414ce" stroke="#1414ce" points="776.72,-548.37 769.94,-540.23 770.17,-550.82 776.72,-548.37"/>
</a>
</g>
</g>
<!-- 2&#45;&gt;5 -->
<g id="edge82" class="edge">
<title>2&#45;&gt;5</title>
<g id="a_edge82"><a xlink:title="include">
<path fill="none" stroke="#1414ce" d="M759.93,-503.97C749.9,-456.19 721.46,-320.62 709.22,-262.27"/>
<polygon fill="#1414ce" stroke="#1414ce" points="712.61,-261.37 707.13,-252.31 705.76,-262.81 712.61,-261.37"/>
</a>
</g>
</g>
<!-- 2&#45;&gt;3 -->
<g id="edge81" class="edge">
<title>2&#45;&gt;3</title>
<g id="a_edge81"><a xlink:title="include">
<path fill="none" stroke="#1414ce" d="M755.02,-503.79C734.59,-461.74 682.09,-350.03 651.5,-252 645.16,-231.67 640.23,-208.08 636.98,-190.29"/>
<polygon fill="#1414ce" stroke="#1414ce" points="640.4,-189.55 635.22,-180.3 633.51,-190.76 640.4,-189.55"/>
</a>
</g>
</g>
<!-- 2&#45;&gt;8 -->
<g id="edge83" class="edge">
<title>2&#45;&gt;8</title>
<g id="a_edge83"><a xlink:title="include">
<path fill="none" stroke="#1414ce" d="M790.54,-508.8C795.14,-507.01 799.91,-505.33 804.5,-504 896.93,-477.25 1009.12,-462.12 1069.32,-455.36"/>
<polygon fill="#1414ce" stroke="#1414ce" points="1070.03,-458.8 1079.59,-454.23 1069.27,-451.84 1070.03,-458.8"/>
</a>
</g>
</g>
</g>
</svg>
