<?xml version="1.0" encoding="UTF-8" standalone="no"?>
<!DOCTYPE svg PUBLIC "-//W3C//DTD SVG 1.1//EN"
 "http://www.w3.org/Graphics/SVG/1.1/DTD/svg11.dtd">
<!-- Generated by graphviz version 2.43.0 (0)
 -->
<!-- Title: %3 Pages: 1 -->
<svg width="1614pt" height="836pt"
 viewBox="0.00 0.00 1614.49 836.00" xmlns="http://www.w3.org/2000/svg" xmlns:xlink="http://www.w3.org/1999/xlink">
<g id="graph0" class="graph" transform="scale(1 1) rotate(0) translate(4 832)">
<title>%3</title>
<polygon fill="transparent" stroke="transparent" points="-4,4 -4,-832 1610.49,-832 1610.49,4 -4,4"/>
<!-- 8 -->
<g id="node1" class="node">
<title>8</title>
<g id="a_node1"><a xlink:title="stdbool.h">
<polygon fill="#ffffff" stroke="black" points="1015,-108 932,-108 932,-72 1015,-72 1015,-108"/>
<text text-anchor="middle" x="973.5" y="-86.3" font-family="Times,serif" font-size="14.00">stdbool.h</text>
</a>
</g>
</g>
<!-- 32 -->
<g id="node2" class="node">
<title>32</title>
<g id="a_node2"><a xlink:title="interop.h">
<polygon fill="#ffffff" stroke="black" points="870.5,-756 788.5,-756 788.5,-720 870.5,-720 870.5,-756"/>
<text text-anchor="middle" x="829.5" y="-734.3" font-family="Times,serif" font-size="14.00">interop.h</text>
</a>
</g>
</g>
<!-- 31 -->
<g id="node14" class="node">
<title>31</title>
<g id="a_node14"><a xlink:title="context.h">
<polygon fill="#ffffff" stroke="black" points="924,-684 841,-684 841,-648 924,-648 924,-684"/>
<text text-anchor="middle" x="882.5" y="-662.3" font-family="Times,serif" font-size="14.00">context.h</text>
</a>
</g>
</g>
<!-- 32&#45;&gt;31 -->
<g id="edge1" class="edge">
<title>32&#45;&gt;31</title>
<g id="a_edge1"><a xlink:title="include">
<path fill="none" stroke="#1414ce" d="M842.6,-719.7C848.89,-711.39 856.55,-701.28 863.46,-692.14"/>
<polygon fill="#1414ce" stroke="#1414ce" points="866.3,-694.19 869.55,-684.1 860.72,-689.96 866.3,-694.19"/>
</a>
</g>
</g>
<!-- 19 -->
<g id="node17" class="node">
<title>19</title>
<g id="a_node17"><a xlink:title="term.h">
<polygon fill="#ffffff" stroke="black" points="541,-468 476,-468 476,-432 541,-432 541,-468"/>
<text text-anchor="middle" x="508.5" y="-446.3" font-family="Times,serif" font-size="14.00">term.h</text>
</a>
</g>
</g>
<!-- 32&#45;&gt;19 -->
<g id="edge2" class="edge">
<title>32&#45;&gt;19</title>
<g id="a_edge2"><a xlink:title="include">
<path fill="none" stroke="#1414ce" d="M788.47,-722.4C785.45,-721.53 782.44,-720.72 779.5,-720 675.12,-694.61 625.95,-749.1 540.5,-684 477.88,-636.3 491.43,-528.3 501.94,-477.88"/>
<polygon fill="#1414ce" stroke="#1414ce" points="505.37,-478.55 504.1,-468.03 498.54,-477.05 505.37,-478.55"/>
</a>
</g>
</g>
<!-- 30 -->
<g id="node3" class="node">
<title>30</title>
<g id="a_node3"><a xlink:title="erl_nif_priv.h">
<polygon fill="#ffffff" stroke="black" points="770.5,-756 662.5,-756 662.5,-720 770.5,-720 770.5,-756"/>
<text text-anchor="middle" x="716.5" y="-734.3" font-family="Times,serif" font-size="14.00">erl_nif_priv.h</text>
</a>
</g>
</g>
<!-- 30&#45;&gt;31 -->
<g id="edge3" class="edge">
<title>30&#45;&gt;31</title>
<g id="a_edge3"><a xlink:title="include">
<path fill="none" stroke="#1414ce" d="M757.11,-719.88C779.9,-710.26 808.53,-698.19 832.67,-688.01"/>
<polygon fill="#1414ce" stroke="#1414ce" points="834.17,-691.18 842.02,-684.07 831.45,-684.73 834.17,-691.18"/>
</a>
</g>
</g>
<!-- 22 -->
<g id="node15" class="node">
<title>22</title>
<g id="a_node15"><a xlink:title="memory.h">
<polygon fill="#ffffff" stroke="black" points="361.5,-252 275.5,-252 275.5,-216 361.5,-216 361.5,-252"/>
<text text-anchor="middle" x="318.5" y="-230.3" font-family="Times,serif" font-size="14.00">memory.h</text>
</a>
</g>
</g>
<!-- 30&#45;&gt;22 -->
<g id="edge4" class="edge">
<title>30&#45;&gt;22</title>
<g id="a_edge4"><a xlink:title="include">
<path fill="none" stroke="#1414ce" d="M662.47,-732.36C537.98,-720.18 241.5,-682.04 241.5,-595 241.5,-595 241.5,-595 241.5,-449 241.5,-377.35 280.18,-299.76 302.71,-260.64"/>
<polygon fill="#1414ce" stroke="#1414ce" points="305.74,-262.4 307.79,-252 299.71,-258.85 305.74,-262.4"/>
</a>
</g>
</g>
<!-- 26 -->
<g id="node16" class="node">
<title>26</title>
<g id="a_node16"><a xlink:title="resources.h">
<polygon fill="#ffffff" stroke="black" points="632.5,-324 532.5,-324 532.5,-288 632.5,-288 632.5,-324"/>
<text text-anchor="middle" x="582.5" y="-302.3" font-family="Times,serif" font-size="14.00">resources.h</text>
</a>
</g>
</g>
<!-- 30&#45;&gt;26 -->
<g id="edge5" class="edge">
<title>30&#45;&gt;26</title>
<g id="a_edge5"><a xlink:title="include">
<path fill="none" stroke="#1414ce" d="M718.39,-719.93C723.76,-663.48 734.11,-479.68 657.5,-360 649.75,-347.9 638.17,-337.75 626.4,-329.68"/>
<polygon fill="#1414ce" stroke="#1414ce" points="628.16,-326.64 617.86,-324.17 624.37,-332.53 628.16,-326.64"/>
</a>
</g>
</g>
<!-- 25 -->
<g id="node4" class="node">
<title>25</title>
<g id="a_node4"><a xlink:title="refc_binary.h">
<polygon fill="#ffffff" stroke="black" points="812.5,-396 704.5,-396 704.5,-360 812.5,-360 812.5,-396"/>
<text text-anchor="middle" x="758.5" y="-374.3" font-family="Times,serif" font-size="14.00">refc_binary.h</text>
</a>
</g>
</g>
<!-- 25&#45;&gt;8 -->
<g id="edge6" class="edge">
<title>25&#45;&gt;8</title>
<g id="a_edge6"><a xlink:title="include">
<path fill="none" stroke="#1414ce" d="M747.96,-359.78C723.73,-317.77 670.04,-208.7 722.5,-144 747.06,-113.71 855.49,-100.06 921.54,-94.46"/>
<polygon fill="#1414ce" stroke="#1414ce" points="922.07,-97.92 931.75,-93.63 921.5,-90.95 922.07,-97.92"/>
</a>
</g>
</g>
<!-- 15 -->
<g id="node11" class="node">
<title>15</title>
<g id="a_node11"><a xlink:title="list.h">
<polygon fill="#ffffff" stroke="black" points="1000.5,-180 946.5,-180 946.5,-144 1000.5,-144 1000.5,-180"/>
<text text-anchor="middle" x="973.5" y="-158.3" font-family="Times,serif" font-size="14.00">list.h</text>
</a>
</g>
</g>
<!-- 25&#45;&gt;15 -->
<g id="edge8" class="edge">
<title>25&#45;&gt;15</title>
<g id="a_edge8"><a xlink:title="include">
<path fill="none" stroke="#1414ce" d="M778.45,-359.8C805.49,-336.24 854.94,-292.25 894.5,-252 914.97,-231.17 936.92,-206.21 952.47,-188.03"/>
<polygon fill="#1414ce" stroke="#1414ce" points="955.33,-190.08 959.14,-180.19 950,-185.54 955.33,-190.08"/>
</a>
</g>
</g>
<!-- 6 -->
<g id="node13" class="node">
<title>6</title>
<g id="a_node13"><a xlink:title="stdlib.h">
<polygon fill="#ffffff" stroke="black" points="617,-108 546,-108 546,-72 617,-72 617,-108"/>
<text text-anchor="middle" x="581.5" y="-86.3" font-family="Times,serif" font-size="14.00">stdlib.h</text>
</a>
</g>
</g>
<!-- 25&#45;&gt;6 -->
<g id="edge7" class="edge">
<title>25&#45;&gt;6</title>
<g id="a_edge7"><a xlink:title="include">
<path fill="none" stroke="#1414ce" d="M727.06,-359.78C712.62,-350.65 696.17,-338.34 684.5,-324 632.08,-259.54 601.13,-164.21 588.36,-118.03"/>
<polygon fill="#1414ce" stroke="#1414ce" points="591.69,-116.92 585.71,-108.17 584.93,-118.74 591.69,-116.92"/>
</a>
</g>
</g>
<!-- 25&#45;&gt;26 -->
<g id="edge9" class="edge">
<title>25&#45;&gt;26</title>
<g id="a_edge9"><a xlink:title="include">
<path fill="none" stroke="#1414ce" d="M715.45,-359.88C691.17,-350.22 660.66,-338.09 634.99,-327.88"/>
<polygon fill="#1414ce" stroke="#1414ce" points="636,-324.51 625.41,-324.07 633.41,-331.02 636,-324.51"/>
</a>
</g>
</g>
<!-- 33 -->
<g id="node5" class="node">
<title>33</title>
<g id="a_node5"><a xlink:title="nifs.h">
<polygon fill="#ffffff" stroke="black" points="944.5,-756 888.5,-756 888.5,-720 944.5,-720 944.5,-756"/>
<text text-anchor="middle" x="916.5" y="-734.3" font-family="Times,serif" font-size="14.00">nifs.h</text>
</a>
</g>
</g>
<!-- 5 -->
<g id="node7" class="node">
<title>5</title>
<g id="a_node7"><a xlink:title="atom.h">
<polygon fill="#ffffff" stroke="black" points="1358.5,-468 1292.5,-468 1292.5,-432 1358.5,-432 1358.5,-468"/>
<text text-anchor="middle" x="1325.5" y="-446.3" font-family="Times,serif" font-size="14.00">atom.h</text>
</a>
</g>
</g>
<!-- 33&#45;&gt;5 -->
<g id="edge10" class="edge">
<title>33&#45;&gt;5</title>
<g id="a_edge10"><a xlink:title="include">
<path fill="none" stroke="#1414ce" d="M944.66,-734.77C1026.13,-726.57 1261.73,-690.21 1347.5,-540 1358.59,-520.58 1350.88,-495.67 1341.66,-477.14"/>
<polygon fill="#1414ce" stroke="#1414ce" points="1344.62,-475.25 1336.8,-468.1 1338.45,-478.56 1344.62,-475.25"/>
</a>
</g>
</g>
<!-- 33&#45;&gt;31 -->
<g id="edge11" class="edge">
<title>33&#45;&gt;31</title>
<g id="a_edge11"><a xlink:title="include">
<path fill="none" stroke="#1414ce" d="M908.1,-719.7C904.23,-711.73 899.55,-702.1 895.26,-693.26"/>
<polygon fill="#1414ce" stroke="#1414ce" points="898.33,-691.57 890.81,-684.1 892.03,-694.63 898.33,-691.57"/>
</a>
</g>
</g>
<!-- 34 -->
<g id="node20" class="node">
<title>34</title>
<g id="a_node20"><a xlink:title="exportedfunction.h">
<polygon fill="#ffffff" stroke="black" points="688.5,-612 536.5,-612 536.5,-576 688.5,-576 688.5,-612"/>
<text text-anchor="middle" x="612.5" y="-590.3" font-family="Times,serif" font-size="14.00">exportedfunction.h</text>
</a>
</g>
</g>
<!-- 33&#45;&gt;34 -->
<g id="edge12" class="edge">
<title>33&#45;&gt;34</title>
<g id="a_edge12"><a xlink:title="include">
<path fill="none" stroke="#1414ce" d="M888.45,-723.9C836.02,-699.41 722.71,-646.48 658.8,-616.63"/>
<polygon fill="#1414ce" stroke="#1414ce" points="659.9,-613.28 649.36,-612.22 656.94,-619.62 659.9,-613.28"/>
</a>
</g>
</g>
<!-- 2 -->
<g id="node6" class="node">
<title>2</title>
<g id="a_node6"><a xlink:title="defaultatoms.h">
<polygon fill="#ffffff" stroke="black" points="1583.5,-756 1459.5,-756 1459.5,-720 1583.5,-720 1583.5,-756"/>
<text text-anchor="middle" x="1521.5" y="-734.3" font-family="Times,serif" font-size="14.00">defaultatoms.h</text>
</a>
</g>
</g>
<!-- 29 -->
<g id="node21" class="node">
<title>29</title>
<g id="a_node21"><a xlink:title="defaultatoms.def">
<polygon fill="#ffffff" stroke="black" points="1590,-684 1453,-684 1453,-648 1590,-648 1590,-684"/>
<text text-anchor="middle" x="1521.5" y="-662.3" font-family="Times,serif" font-size="14.00">defaultatoms.def</text>
</a>
</g>
</g>
<!-- 2&#45;&gt;29 -->
<g id="edge14" class="edge">
<title>2&#45;&gt;29</title>
<g id="a_edge14"><a xlink:title="include">
<path fill="none" stroke="#1414ce" d="M1521.5,-719.7C1521.5,-711.98 1521.5,-702.71 1521.5,-694.11"/>
<polygon fill="#1414ce" stroke="#1414ce" points="1525,-694.1 1521.5,-684.1 1518,-694.1 1525,-694.1"/>
</a>
</g>
</g>
<!-- 3 -->
<g id="node27" class="node">
<title>3</title>
<g id="a_node27"><a xlink:title="globalcontext.h">
<polygon fill="#ffffff" stroke="black" points="1216,-612 1089,-612 1089,-576 1216,-576 1216,-612"/>
<text text-anchor="middle" x="1152.5" y="-590.3" font-family="Times,serif" font-size="14.00">globalcontext.h</text>
</a>
</g>
</g>
<!-- 2&#45;&gt;3 -->
<g id="edge13" class="edge">
<title>2&#45;&gt;3</title>
<g id="a_edge13"><a xlink:title="include">
<path fill="none" stroke="#1414ce" d="M1561.68,-719.77C1576.33,-711.28 1591.3,-699.48 1599.5,-684 1606.99,-669.86 1610.13,-659.96 1599.5,-648 1575.2,-620.65 1347.2,-604.95 1226.56,-598.49"/>
<polygon fill="#1414ce" stroke="#1414ce" points="1226.47,-594.98 1216.3,-597.95 1226.1,-601.97 1226.47,-594.98"/>
</a>
</g>
</g>
<!-- 4 -->
<g id="node12" class="node">
<title>4</title>
<g id="a_node12"><a xlink:title="stdint.h">
<polygon fill="#ffffff" stroke="black" points="920.5,-36 848.5,-36 848.5,0 920.5,0 920.5,-36"/>
<text text-anchor="middle" x="884.5" y="-14.3" font-family="Times,serif" font-size="14.00">stdint.h</text>
</a>
</g>
</g>
<!-- 5&#45;&gt;4 -->
<g id="edge15" class="edge">
<title>5&#45;&gt;4</title>
<g id="a_edge15"><a xlink:title="include">
<path fill="none" stroke="#1414ce" d="M1358.63,-434.66C1401.71,-413.51 1471.5,-369.58 1471.5,-307 1471.5,-307 1471.5,-307 1471.5,-161 1471.5,-50 1069.95,-25.47 931.08,-20.31"/>
<polygon fill="#1414ce" stroke="#1414ce" points="930.89,-16.8 920.78,-19.95 930.65,-23.8 930.89,-16.8"/>
</a>
</g>
</g>
<!-- 5&#45;&gt;6 -->
<g id="edge16" class="edge">
<title>5&#45;&gt;6</title>
<g id="a_edge16"><a xlink:title="include">
<path fill="none" stroke="#1414ce" d="M1326.68,-431.74C1328.6,-389.15 1327.45,-278 1269.5,-216 1181.64,-122 767.56,-97.96 627.74,-92.48"/>
<polygon fill="#1414ce" stroke="#1414ce" points="627.51,-88.97 617.38,-92.09 627.25,-95.96 627.51,-88.97"/>
</a>
</g>
</g>
<!-- 11 -->
<g id="node8" class="node">
<title>11</title>
<g id="a_node8"><a xlink:title="assert.h">
<polygon fill="#ffffff" stroke="black" points="270.5,-36 196.5,-36 196.5,0 270.5,0 270.5,-36"/>
<text text-anchor="middle" x="233.5" y="-14.3" font-family="Times,serif" font-size="14.00">assert.h</text>
</a>
</g>
</g>
<!-- 23 -->
<g id="node9" class="node">
<title>23</title>
<g id="a_node9"><a xlink:title="utils.h">
<polygon fill="#ffffff" stroke="black" points="491.5,-180 429.5,-180 429.5,-144 491.5,-144 491.5,-180"/>
<text text-anchor="middle" x="460.5" y="-158.3" font-family="Times,serif" font-size="14.00">utils.h</text>
</a>
</g>
</g>
<!-- 23&#45;&gt;6 -->
<g id="edge19" class="edge">
<title>23&#45;&gt;6</title>
<g id="a_edge19"><a xlink:title="include">
<path fill="none" stroke="#1414ce" d="M490.1,-143.88C506.07,-134.64 525.96,-123.13 543.11,-113.21"/>
<polygon fill="#1414ce" stroke="#1414ce" points="544.88,-116.23 551.79,-108.19 541.38,-110.17 544.88,-116.23"/>
</a>
</g>
</g>
<!-- 24 -->
<g id="node18" class="node">
<title>24</title>
<g id="a_node18"><a xlink:title="stddef.h">
<polygon fill="#ffffff" stroke="black" points="526.5,-108 452.5,-108 452.5,-72 526.5,-72 526.5,-108"/>
<text text-anchor="middle" x="489.5" y="-86.3" font-family="Times,serif" font-size="14.00">stddef.h</text>
</a>
</g>
</g>
<!-- 23&#45;&gt;24 -->
<g id="edge17" class="edge">
<title>23&#45;&gt;24</title>
<g id="a_edge17"><a xlink:title="include">
<path fill="none" stroke="#1414ce" d="M467.67,-143.7C470.93,-135.81 474.87,-126.3 478.5,-117.55"/>
<polygon fill="#1414ce" stroke="#1414ce" points="481.82,-118.68 482.41,-108.1 475.35,-116 481.82,-118.68"/>
</a>
</g>
</g>
<!-- 17 -->
<g id="node33" class="node">
<title>17</title>
<g id="a_node33"><a xlink:title="stdio.h">
<polygon fill="#ffffff" stroke="black" points="434,-108 369,-108 369,-72 434,-72 434,-108"/>
<text text-anchor="middle" x="401.5" y="-86.3" font-family="Times,serif" font-size="14.00">stdio.h</text>
</a>
</g>
</g>
<!-- 23&#45;&gt;17 -->
<g id="edge18" class="edge">
<title>23&#45;&gt;17</title>
<g id="a_edge18"><a xlink:title="include">
<path fill="none" stroke="#1414ce" d="M445.92,-143.7C438.84,-135.3 430.22,-125.07 422.45,-115.86"/>
<polygon fill="#1414ce" stroke="#1414ce" points="425.04,-113.49 415.92,-108.1 419.69,-118.01 425.04,-113.49"/>
</a>
</g>
</g>
<!-- 16 -->
<g id="node10" class="node">
<title>16</title>
<g id="a_node10"><a xlink:title="synclist.h">
<polygon fill="#ffffff" stroke="black" points="1106,-252 1021,-252 1021,-216 1106,-216 1106,-252"/>
<text text-anchor="middle" x="1063.5" y="-230.3" font-family="Times,serif" font-size="14.00">synclist.h</text>
</a>
</g>
</g>
<!-- 16&#45;&gt;15 -->
<g id="edge21" class="edge">
<title>16&#45;&gt;15</title>
<g id="a_edge21"><a xlink:title="include">
<path fill="none" stroke="#1414ce" d="M1041.25,-215.7C1029.92,-206.88 1015.97,-196.03 1003.68,-186.47"/>
<polygon fill="#1414ce" stroke="#1414ce" points="1005.53,-183.48 995.49,-180.1 1001.24,-189.01 1005.53,-183.48"/>
</a>
</g>
</g>
<!-- 18 -->
<g id="node28" class="node">
<title>18</title>
<g id="a_node28"><a xlink:title="smp.h">
<polygon fill="#ffffff" stroke="black" points="1405.5,-180 1345.5,-180 1345.5,-144 1405.5,-144 1405.5,-180"/>
<text text-anchor="middle" x="1375.5" y="-158.3" font-family="Times,serif" font-size="14.00">smp.h</text>
</a>
</g>
</g>
<!-- 16&#45;&gt;18 -->
<g id="edge22" class="edge">
<title>16&#45;&gt;18</title>
<g id="a_edge22"><a xlink:title="include">
<path fill="none" stroke="#1414ce" d="M1106.23,-223.41C1166.68,-209.85 1276.39,-185.24 1335.39,-172"/>
<polygon fill="#1414ce" stroke="#1414ce" points="1336.45,-175.35 1345.44,-169.74 1334.92,-168.52 1336.45,-175.35"/>
</a>
</g>
</g>
<!-- 16&#45;&gt;17 -->
<g id="edge20" class="edge">
<title>16&#45;&gt;17</title>
<g id="a_edge20"><a xlink:title="include">
<path fill="none" stroke="#1414ce" d="M1058.46,-215.74C1051.33,-194.74 1036.09,-160.1 1009.5,-144 904.32,-80.31 582.62,-133.28 444.23,-107.48"/>
<polygon fill="#1414ce" stroke="#1414ce" points="444.7,-104 434.19,-105.39 443.27,-110.85 444.7,-104"/>
</a>
</g>
</g>
<!-- 15&#45;&gt;8 -->
<g id="edge23" class="edge">
<title>15&#45;&gt;8</title>
<g id="a_edge23"><a xlink:title="include">
<path fill="none" stroke="#1414ce" d="M973.5,-143.7C973.5,-135.98 973.5,-126.71 973.5,-118.11"/>
<polygon fill="#1414ce" stroke="#1414ce" points="977,-118.1 973.5,-108.1 970,-118.1 977,-118.1"/>
</a>
</g>
</g>
<!-- 31&#45;&gt;15 -->
<g id="edge25" class="edge">
<title>31&#45;&gt;15</title>
<g id="a_edge25"><a xlink:title="include">
<path fill="none" stroke="#1414ce" d="M889.93,-647.97C908.33,-604.22 954.5,-483.96 954.5,-379 954.5,-379 954.5,-379 954.5,-305 954.5,-264.86 962.05,-218.9 967.63,-190.4"/>
<polygon fill="#1414ce" stroke="#1414ce" points="971.11,-190.88 969.66,-180.39 964.24,-189.5 971.11,-190.88"/>
</a>
</g>
</g>
<!-- 31&#45;&gt;19 -->
<g id="edge28" class="edge">
<title>31&#45;&gt;19</title>
<g id="a_edge28"><a xlink:title="include">
<path fill="none" stroke="#1414ce" d="M852.53,-647.85C785.29,-609.38 622.46,-516.21 547.48,-473.3"/>
<polygon fill="#1414ce" stroke="#1414ce" points="548.77,-470.01 538.36,-468.08 545.3,-476.09 548.77,-470.01"/>
</a>
</g>
</g>
<!-- 31&#45;&gt;3 -->
<g id="edge24" class="edge">
<title>31&#45;&gt;3</title>
<g id="a_edge24"><a xlink:title="include">
<path fill="none" stroke="#1414ce" d="M924.1,-654.22C965.35,-643.52 1029.44,-626.9 1079.24,-613.99"/>
<polygon fill="#1414ce" stroke="#1414ce" points="1080.19,-617.36 1089,-611.46 1078.44,-610.59 1080.19,-617.36"/>
</a>
</g>
</g>
<!-- 31&#45;&gt;18 -->
<g id="edge27" class="edge">
<title>31&#45;&gt;18</title>
<g id="a_edge27"><a xlink:title="include">
<path fill="none" stroke="#1414ce" d="M924.03,-662.49C989.42,-657.69 1119.84,-644.58 1225.5,-612 1296.55,-590.09 1327.61,-596.02 1376.5,-540 1450.48,-455.23 1403.62,-400.46 1400.5,-288 1399.61,-255.96 1403.38,-247.3 1396.5,-216 1394.55,-207.11 1391.28,-197.76 1387.91,-189.44"/>
<polygon fill="#1414ce" stroke="#1414ce" points="1391.11,-188.04 1383.96,-180.22 1384.68,-190.79 1391.11,-188.04"/>
</a>
</g>
</g>
<!-- 28 -->
<g id="node29" class="node">
<title>28</title>
<g id="a_node29"><a xlink:title="timer_list.h">
<polygon fill="#ffffff" stroke="black" points="1260.5,-252 1162.5,-252 1162.5,-216 1260.5,-216 1260.5,-252"/>
<text text-anchor="middle" x="1211.5" y="-230.3" font-family="Times,serif" font-size="14.00">timer_list.h</text>
</a>
</g>
</g>
<!-- 31&#45;&gt;28 -->
<g id="edge29" class="edge">
<title>31&#45;&gt;28</title>
<g id="a_edge29"><a xlink:title="include">
<path fill="none" stroke="#1414ce" d="M912.82,-647.99C948.95,-626.54 1009.45,-586.76 1049.5,-540 1126.42,-450.19 1180.97,-317.73 1201.97,-261.65"/>
<polygon fill="#1414ce" stroke="#1414ce" points="1205.32,-262.68 1205.49,-252.09 1198.75,-260.26 1205.32,-262.68"/>
</a>
</g>
</g>
<!-- 27 -->
<g id="node32" class="node">
<title>27</title>
<g id="a_node32"><a xlink:title="mailbox.h">
<polygon fill="#ffffff" stroke="black" points="850.5,-252 764.5,-252 764.5,-216 850.5,-216 850.5,-252"/>
<text text-anchor="middle" x="807.5" y="-230.3" font-family="Times,serif" font-size="14.00">mailbox.h</text>
</a>
</g>
</g>
<!-- 31&#45;&gt;27 -->
<g id="edge26" class="edge">
<title>31&#45;&gt;27</title>
<g id="a_edge26"><a xlink:title="include">
<path fill="none" stroke="#1414ce" d="M877.31,-647.96C874.34,-637.64 870.77,-624.16 868.5,-612 847.83,-501.22 861.16,-470.78 840.5,-360 834.13,-325.83 823.39,-287.25 815.9,-262.11"/>
<polygon fill="#1414ce" stroke="#1414ce" points="819.15,-260.77 812.91,-252.21 812.45,-262.79 819.15,-260.77"/>
</a>
</g>
</g>
<!-- 22&#45;&gt;23 -->
<g id="edge34" class="edge">
<title>22&#45;&gt;23</title>
<g id="a_edge34"><a xlink:title="include">
<path fill="none" stroke="#1414ce" d="M353.24,-215.88C373.41,-205.93 398.91,-193.36 419.99,-182.97"/>
<polygon fill="#1414ce" stroke="#1414ce" points="421.61,-186.08 429.03,-178.51 418.51,-179.8 421.61,-186.08"/>
</a>
</g>
</g>
<!-- 22&#45;&gt;4 -->
<g id="edge30" class="edge">
<title>22&#45;&gt;4</title>
<g id="a_edge30"><a xlink:title="include">
<path fill="none" stroke="#1414ce" d="M317.22,-215.92C315.75,-182.5 317.83,-108.55 360.5,-72 396.43,-41.23 716.76,-25.57 838.15,-20.7"/>
<polygon fill="#1414ce" stroke="#1414ce" points="838.39,-24.19 848.24,-20.3 838.11,-17.2 838.39,-24.19"/>
</a>
</g>
</g>
<!-- 22&#45;&gt;6 -->
<g id="edge31" class="edge">
<title>22&#45;&gt;6</title>
<g id="a_edge31"><a xlink:title="include">
<path fill="none" stroke="#1414ce" d="M333.83,-215.87C352.49,-195.98 385.84,-163.4 420.5,-144 467.23,-117.84 484.81,-125.29 535.5,-108 535.82,-107.89 536.14,-107.78 536.46,-107.67"/>
<polygon fill="#1414ce" stroke="#1414ce" points="537.63,-110.97 545.9,-104.36 535.31,-104.37 537.63,-110.97"/>
</a>
</g>
</g>
<!-- 9 -->
<g id="node19" class="node">
<title>9</title>
<g id="a_node19"><a xlink:title="erl_nif.h">
<polygon fill="#ffffff" stroke="black" points="183.5,-180 109.5,-180 109.5,-144 183.5,-144 183.5,-180"/>
<text text-anchor="middle" x="146.5" y="-158.3" font-family="Times,serif" font-size="14.00">erl_nif.h</text>
</a>
</g>
</g>
<!-- 22&#45;&gt;9 -->
<g id="edge32" class="edge">
<title>22&#45;&gt;9</title>
<g id="a_edge32"><a xlink:title="include">
<path fill="none" stroke="#1414ce" d="M276.42,-215.88C251.18,-205.6 219.03,-192.52 193.03,-181.94"/>
<polygon fill="#1414ce" stroke="#1414ce" points="194.34,-178.69 183.76,-178.16 191.7,-185.17 194.34,-178.69"/>
</a>
</g>
</g>
<!-- 10 -->
<g id="node26" class="node">
<title>10</title>
<g id="a_node26"><a xlink:title="term_typedef.h">
<polygon fill="#ffffff" stroke="black" points="196,-108 71,-108 71,-72 196,-72 196,-108"/>
<text text-anchor="middle" x="133.5" y="-86.3" font-family="Times,serif" font-size="14.00">term_typedef.h</text>
</a>
</g>
</g>
<!-- 22&#45;&gt;10 -->
<g id="edge33" class="edge">
<title>22&#45;&gt;10</title>
<g id="a_edge33"><a xlink:title="include">
<path fill="none" stroke="#1414ce" d="M296.18,-215.87C263.13,-190.5 201.06,-142.85 163.88,-114.32"/>
<polygon fill="#1414ce" stroke="#1414ce" points="165.96,-111.5 155.89,-108.19 161.7,-117.05 165.96,-111.5"/>
</a>
</g>
</g>
<!-- 26&#45;&gt;16 -->
<g id="edge39" class="edge">
<title>26&#45;&gt;16</title>
<g id="a_edge39"><a xlink:title="include">
<path fill="none" stroke="#1414ce" d="M632.61,-297.71C724.11,-284.39 917.36,-256.27 1010.76,-242.68"/>
<polygon fill="#1414ce" stroke="#1414ce" points="1011.44,-246.11 1020.83,-241.21 1010.43,-239.19 1011.44,-246.11"/>
</a>
</g>
</g>
<!-- 26&#45;&gt;15 -->
<g id="edge37" class="edge">
<title>26&#45;&gt;15</title>
<g id="a_edge37"><a xlink:title="include">
<path fill="none" stroke="#1414ce" d="M632.62,-302.96C689.97,-298.96 785.52,-287.1 859.5,-252 882.02,-241.32 882.95,-231.46 902.5,-216 915.15,-206 929.34,-195.3 941.69,-186.16"/>
<polygon fill="#1414ce" stroke="#1414ce" points="943.93,-188.85 949.91,-180.1 939.78,-183.22 943.93,-188.85"/>
</a>
</g>
</g>
<!-- 26&#45;&gt;6 -->
<g id="edge35" class="edge">
<title>26&#45;&gt;6</title>
<g id="a_edge35"><a xlink:title="include">
<path fill="none" stroke="#1414ce" d="M582.42,-287.85C582.25,-250.83 581.84,-163.18 581.63,-118.39"/>
<polygon fill="#1414ce" stroke="#1414ce" points="585.13,-118.22 581.58,-108.23 578.13,-118.25 585.13,-118.22"/>
</a>
</g>
</g>
<!-- 26&#45;&gt;22 -->
<g id="edge38" class="edge">
<title>26&#45;&gt;22</title>
<g id="a_edge38"><a xlink:title="include">
<path fill="none" stroke="#1414ce" d="M532.22,-291.67C486.23,-279.47 418.41,-261.49 371.56,-249.07"/>
<polygon fill="#1414ce" stroke="#1414ce" points="372.17,-245.61 361.6,-246.43 370.37,-252.37 372.17,-245.61"/>
</a>
</g>
</g>
<!-- 26&#45;&gt;9 -->
<g id="edge36" class="edge">
<title>26&#45;&gt;9</title>
<g id="a_edge36"><a xlink:title="include">
<path fill="none" stroke="#1414ce" d="M532.31,-303.78C468.23,-300.63 355.06,-289.67 266.5,-252 229.99,-236.47 194.27,-207.72 171.43,-187.1"/>
<polygon fill="#1414ce" stroke="#1414ce" points="173.63,-184.37 163.9,-180.18 168.89,-189.52 173.63,-184.37"/>
</a>
</g>
</g>
<!-- 19&#45;&gt;8 -->
<g id="edge41" class="edge">
<title>19&#45;&gt;8</title>
<g id="a_edge41"><a xlink:title="include">
<path fill="none" stroke="#1414ce" d="M541.23,-448.56C614.04,-446.81 785.84,-438.2 821.5,-396 876.49,-330.91 714.82,-290.87 755.5,-216 789.55,-153.34 869,-119.73 921.99,-103.63"/>
<polygon fill="#1414ce" stroke="#1414ce" points="923.27,-106.9 931.88,-100.73 921.3,-100.18 923.27,-106.9"/>
</a>
</g>
</g>
<!-- 19&#45;&gt;25 -->
<g id="edge47" class="edge">
<title>19&#45;&gt;25</title>
<g id="a_edge47"><a xlink:title="include">
<path fill="none" stroke="#1414ce" d="M541.18,-439.85C579.94,-429 645.45,-410.65 694.43,-396.94"/>
<polygon fill="#1414ce" stroke="#1414ce" points="695.62,-400.24 704.31,-394.17 693.73,-393.5 695.62,-400.24"/>
</a>
</g>
</g>
<!-- 19&#45;&gt;23 -->
<g id="edge48" class="edge">
<title>19&#45;&gt;23</title>
<g id="a_edge48"><a xlink:title="include">
<path fill="none" stroke="#1414ce" d="M475.88,-439.37C455.17,-431.37 429.98,-417.72 417.5,-396 378.84,-328.75 420.47,-234.14 445.08,-188.97"/>
<polygon fill="#1414ce" stroke="#1414ce" points="448.21,-190.55 450.04,-180.11 442.1,-187.13 448.21,-190.55"/>
</a>
</g>
</g>
<!-- 19&#45;&gt;4 -->
<g id="edge42" class="edge">
<title>19&#45;&gt;4</title>
<g id="a_edge42"><a xlink:title="include">
<path fill="none" stroke="#1414ce" d="M475.95,-448.65C434.25,-446.45 362.17,-436.54 318.5,-396 212.87,-297.96 214.31,-155.87 331.5,-72 372.31,-42.79 712.35,-26.04 838.04,-20.8"/>
<polygon fill="#1414ce" stroke="#1414ce" points="838.27,-24.29 848.12,-20.39 837.98,-17.3 838.27,-24.29"/>
</a>
</g>
</g>
<!-- 19&#45;&gt;6 -->
<g id="edge44" class="edge">
<title>19&#45;&gt;6</title>
<g id="a_edge44"><a xlink:title="include">
<path fill="none" stroke="#1414ce" d="M481.92,-431.91C470.26,-422.81 457.81,-410.49 451.5,-396 445.11,-381.33 447.93,-375.6 451.5,-360 473.42,-264.25 534.05,-162.96 564.12,-116.72"/>
<polygon fill="#1414ce" stroke="#1414ce" points="567.14,-118.5 569.71,-108.22 561.29,-114.66 567.14,-118.5"/>
</a>
</g>
</g>
<!-- 19&#45;&gt;22 -->
<g id="edge46" class="edge">
<title>19&#45;&gt;22</title>
<g id="a_edge46"><a xlink:title="include">
<path fill="none" stroke="#1414ce" d="M475.94,-448.43C437.6,-445.88 374.92,-435.46 341.5,-396 309.75,-358.51 310.53,-297.6 314.29,-262.43"/>
<polygon fill="#1414ce" stroke="#1414ce" points="317.78,-262.75 315.52,-252.4 310.83,-261.9 317.78,-262.75"/>
</a>
</g>
</g>
<!-- 20 -->
<g id="node24" class="node">
<title>20</title>
<g id="a_node24"><a xlink:title="sys/types.h">
<polygon fill="#ffffff" stroke="black" points="557,-396 460,-396 460,-360 557,-360 557,-396"/>
<text text-anchor="middle" x="508.5" y="-374.3" font-family="Times,serif" font-size="14.00">sys/types.h</text>
</a>
</g>
</g>
<!-- 19&#45;&gt;20 -->
<g id="edge40" class="edge">
<title>19&#45;&gt;20</title>
<g id="a_edge40"><a xlink:title="include">
<path fill="none" stroke="#1414ce" d="M508.5,-431.7C508.5,-423.98 508.5,-414.71 508.5,-406.11"/>
<polygon fill="#1414ce" stroke="#1414ce" points="512,-406.1 508.5,-396.1 505,-406.1 512,-406.1"/>
</a>
</g>
</g>
<!-- 21 -->
<g id="node25" class="node">
<title>21</title>
<g id="a_node25"><a xlink:title="string.h">
<polygon fill="#ffffff" stroke="black" points="648,-396 575,-396 575,-360 648,-360 648,-396"/>
<text text-anchor="middle" x="611.5" y="-374.3" font-family="Times,serif" font-size="14.00">string.h</text>
</a>
</g>
</g>
<!-- 19&#45;&gt;21 -->
<g id="edge45" class="edge">
<title>19&#45;&gt;21</title>
<g id="a_edge45"><a xlink:title="include">
<path fill="none" stroke="#1414ce" d="M533.7,-431.88C546.91,-422.89 563.29,-411.76 577.61,-402.03"/>
<polygon fill="#1414ce" stroke="#1414ce" points="579.9,-404.71 586.21,-396.19 575.97,-398.92 579.9,-404.71"/>
</a>
</g>
</g>
<!-- 19&#45;&gt;10 -->
<g id="edge49" class="edge">
<title>19&#45;&gt;10</title>
<g id="a_edge49"><a xlink:title="include">
<path fill="none" stroke="#1414ce" d="M475.74,-447.79C427,-444.73 333.82,-433.96 265.5,-396 159.9,-337.33 135.23,-295.71 100.5,-180 95.9,-164.68 96.1,-159.38 100.5,-144 103.21,-134.51 108.17,-125.06 113.43,-116.83"/>
<polygon fill="#1414ce" stroke="#1414ce" points="116.42,-118.67 119.17,-108.43 110.64,-114.72 116.42,-118.67"/>
</a>
</g>
</g>
<!-- 19&#45;&gt;17 -->
<g id="edge43" class="edge">
<title>19&#45;&gt;17</title>
<g id="a_edge43"><a xlink:title="include">
<path fill="none" stroke="#1414ce" d="M475.94,-442.7C450.41,-435.89 416.44,-422.26 399.5,-396 370.27,-350.69 388.81,-184.44 397.62,-118.35"/>
<polygon fill="#1414ce" stroke="#1414ce" points="401.11,-118.66 398.99,-108.28 394.17,-117.72 401.11,-118.66"/>
</a>
</g>
</g>
<!-- 9&#45;&gt;10 -->
<g id="edge50" class="edge">
<title>9&#45;&gt;10</title>
<g id="a_edge50"><a xlink:title="include">
<path fill="none" stroke="#1414ce" d="M143.29,-143.7C141.85,-135.98 140.13,-126.71 138.54,-118.11"/>
<polygon fill="#1414ce" stroke="#1414ce" points="141.94,-117.3 136.68,-108.1 135.06,-118.58 141.94,-117.3"/>
</a>
</g>
</g>
<!-- 34&#45;&gt;19 -->
<g id="edge51" class="edge">
<title>34&#45;&gt;19</title>
<g id="a_edge51"><a xlink:title="include">
<path fill="none" stroke="#1414ce" d="M599.96,-575.87C581.84,-551.14 548.23,-505.24 527.18,-476.51"/>
<polygon fill="#1414ce" stroke="#1414ce" points="529.82,-474.19 521.09,-468.19 524.17,-478.33 529.82,-474.19"/>
</a>
</g>
</g>
<!-- 12 -->
<g id="node22" class="node">
<title>12</title>
<g id="a_node22"><a xlink:title="limits.h">
<polygon fill="#ffffff" stroke="black" points="71,-36 0,-36 0,0 71,0 71,-36"/>
<text text-anchor="middle" x="35.5" y="-14.3" font-family="Times,serif" font-size="14.00">limits.h</text>
</a>
</g>
</g>
<!-- 7 -->
<g id="node23" class="node">
<title>7</title>
<g id="a_node23"><a xlink:title="atom_table.h">
<polygon fill="#ffffff" stroke="black" points="1320,-540 1211,-540 1211,-504 1320,-504 1320,-540"/>
<text text-anchor="middle" x="1265.5" y="-518.3" font-family="Times,serif" font-size="14.00">atom_table.h</text>
</a>
</g>
</g>
<!-- 7&#45;&gt;8 -->
<g id="edge52" class="edge">
<title>7&#45;&gt;8</title>
<g id="a_edge52"><a xlink:title="include">
<path fill="none" stroke="#1414ce" d="M1268.14,-503.72C1276.52,-446.48 1300.24,-263.91 1269.5,-216 1216.21,-132.93 1095.21,-104.98 1025.53,-95.64"/>
<polygon fill="#1414ce" stroke="#1414ce" points="1025.58,-92.11 1015.22,-94.34 1024.71,-99.06 1025.58,-92.11"/>
</a>
</g>
</g>
<!-- 7&#45;&gt;5 -->
<g id="edge53" class="edge">
<title>7&#45;&gt;5</title>
<g id="a_edge53"><a xlink:title="include">
<path fill="none" stroke="#1414ce" d="M1280.33,-503.7C1287.52,-495.3 1296.3,-485.07 1304.19,-475.86"/>
<polygon fill="#1414ce" stroke="#1414ce" points="1306.99,-477.97 1310.84,-468.1 1301.67,-473.42 1306.99,-477.97"/>
</a>
</g>
</g>
<!-- 10&#45;&gt;11 -->
<g id="edge54" class="edge">
<title>10&#45;&gt;11</title>
<g id="a_edge54"><a xlink:title="include">
<path fill="none" stroke="#1414ce" d="M157.96,-71.88C170.8,-62.89 186.7,-51.76 200.59,-42.03"/>
<polygon fill="#1414ce" stroke="#1414ce" points="202.76,-44.79 208.94,-36.19 198.74,-39.06 202.76,-44.79"/>
</a>
</g>
</g>
<!-- 10&#45;&gt;4 -->
<g id="edge57" class="edge">
<title>10&#45;&gt;4</title>
<g id="a_edge57"><a xlink:title="include">
<path fill="none" stroke="#1414ce" d="M196.4,-74.37C201.16,-73.49 205.9,-72.69 210.5,-72 444.99,-37.07 729.04,-24.26 838.46,-20.42"/>
<polygon fill="#1414ce" stroke="#1414ce" points="838.62,-23.91 848.5,-20.07 838.38,-16.92 838.62,-23.91"/>
</a>
</g>
</g>
<!-- 10&#45;&gt;12 -->
<g id="edge55" class="edge">
<title>10&#45;&gt;12</title>
<g id="a_edge55"><a xlink:title="include">
<path fill="none" stroke="#1414ce" d="M109.53,-71.88C96.95,-62.89 81.37,-51.76 67.75,-42.03"/>
<polygon fill="#1414ce" stroke="#1414ce" points="69.74,-39.15 59.57,-36.19 65.67,-44.85 69.74,-39.15"/>
</a>
</g>
</g>
<!-- 13 -->
<g id="node35" class="node">
<title>13</title>
<g id="a_node35"><a xlink:title="inttypes.h">
<polygon fill="#ffffff" stroke="black" points="178,-36 89,-36 89,0 178,0 178,-36"/>
<text text-anchor="middle" x="133.5" y="-14.3" font-family="Times,serif" font-size="14.00">inttypes.h</text>
</a>
</g>
</g>
<!-- 10&#45;&gt;13 -->
<g id="edge56" class="edge">
<title>10&#45;&gt;13</title>
<g id="a_edge56"><a xlink:title="include">
<path fill="none" stroke="#1414ce" d="M133.5,-71.7C133.5,-63.98 133.5,-54.71 133.5,-46.11"/>
<polygon fill="#1414ce" stroke="#1414ce" points="137,-46.1 133.5,-36.1 130,-46.1 137,-46.1"/>
</a>
</g>
</g>
<!-- 3&#45;&gt;5 -->
<g id="edge59" class="edge">
<title>3&#45;&gt;5</title>
<g id="a_edge59"><a xlink:title="include">
<path fill="none" stroke="#1414ce" d="M1216.11,-582.18C1261.05,-573.08 1315.66,-558.59 1329.5,-540 1342.57,-522.44 1339.97,-497.08 1335.02,-477.93"/>
<polygon fill="#1414ce" stroke="#1414ce" points="1338.37,-476.9 1332.21,-468.28 1331.65,-478.86 1338.37,-476.9"/>
</a>
</g>
</g>
<!-- 3&#45;&gt;16 -->
<g id="edge66" class="edge">
<title>3&#45;&gt;16</title>
<g id="a_edge66"><a xlink:title="include">
<path fill="none" stroke="#1414ce" d="M1144.37,-575.62C1139.83,-565.41 1134.33,-552.16 1130.5,-540 1098.91,-439.61 1076.7,-316.09 1067.81,-262.25"/>
<polygon fill="#1414ce" stroke="#1414ce" points="1071.23,-261.45 1066.17,-252.14 1064.32,-262.57 1071.23,-261.45"/>
</a>
</g>
</g>
<!-- 3&#45;&gt;15 -->
<g id="edge63" class="edge">
<title>3&#45;&gt;15</title>
<g id="a_edge63"><a xlink:title="include">
<path fill="none" stroke="#1414ce" d="M1153.14,-575.68C1155.25,-509.47 1159.51,-273.21 1115.5,-216 1090.67,-183.72 1043.97,-171.1 1010.91,-166.17"/>
<polygon fill="#1414ce" stroke="#1414ce" points="1011.08,-162.66 1000.71,-164.82 1010.16,-169.6 1011.08,-162.66"/>
</a>
</g>
</g>
<!-- 3&#45;&gt;4 -->
<g id="edge58" class="edge">
<title>3&#45;&gt;4</title>
<g id="a_edge58"><a xlink:title="include">
<path fill="none" stroke="#1414ce" d="M1216.15,-591.32C1264.4,-587.1 1330.1,-574.71 1376.5,-540 1471.98,-468.58 1509.5,-426.24 1509.5,-307 1509.5,-307 1509.5,-307 1509.5,-161 1509.5,-101.17 1463.33,-95.93 1408.5,-72 1323.26,-34.79 1042.58,-23.25 930.92,-20.08"/>
<polygon fill="#1414ce" stroke="#1414ce" points="930.75,-16.57 920.65,-19.8 930.55,-23.57 930.75,-16.57"/>
</a>
</g>
</g>
<!-- 3&#45;&gt;19 -->
<g id="edge67" class="edge">
<title>3&#45;&gt;19</title>
<g id="a_edge67"><a xlink:title="include">
<path fill="none" stroke="#1414ce" d="M1088.93,-576.7C1001.95,-554.49 850.28,-516.09 794.5,-504 708.55,-485.37 607.18,-467.56 551.15,-458.07"/>
<polygon fill="#1414ce" stroke="#1414ce" points="551.67,-454.61 541.23,-456.4 550.5,-461.52 551.67,-454.61"/>
</a>
</g>
</g>
<!-- 3&#45;&gt;9 -->
<g id="edge61" class="edge">
<title>3&#45;&gt;9</title>
<g id="a_edge61"><a xlink:title="include">
<path fill="none" stroke="#1414ce" d="M1088.66,-590.98C863.44,-583.03 119.5,-549.32 119.5,-451 119.5,-451 119.5,-451 119.5,-305 119.5,-264.5 130.23,-218.63 138.16,-190.26"/>
<polygon fill="#1414ce" stroke="#1414ce" points="141.63,-190.87 141.04,-180.29 134.9,-188.93 141.63,-190.87"/>
</a>
</g>
</g>
<!-- 3&#45;&gt;7 -->
<g id="edge60" class="edge">
<title>3&#45;&gt;7</title>
<g id="a_edge60"><a xlink:title="include">
<path fill="none" stroke="#1414ce" d="M1180.14,-575.88C1194.92,-566.72 1213.29,-555.34 1229.2,-545.48"/>
<polygon fill="#1414ce" stroke="#1414ce" points="1231.09,-548.43 1237.75,-540.19 1227.41,-542.48 1231.09,-548.43"/>
</a>
</g>
</g>
<!-- 3&#45;&gt;18 -->
<g id="edge65" class="edge">
<title>3&#45;&gt;18</title>
<g id="a_edge65"><a xlink:title="include">
<path fill="none" stroke="#1414ce" d="M1216.14,-589.64C1257.81,-584.36 1311.1,-571.39 1347.5,-540 1380.21,-511.8 1386.5,-494.19 1386.5,-451 1386.5,-451 1386.5,-451 1386.5,-305 1386.5,-264.88 1382.08,-218.57 1378.84,-190.03"/>
<polygon fill="#1414ce" stroke="#1414ce" points="1382.31,-189.54 1377.67,-180.02 1375.36,-190.36 1382.31,-189.54"/>
</a>
</g>
</g>
<!-- 3&#45;&gt;28 -->
<g id="edge68" class="edge">
<title>3&#45;&gt;28</title>
<g id="a_edge68"><a xlink:title="include">
<path fill="none" stroke="#1414ce" d="M1155.55,-575.89C1161.63,-541.72 1175.58,-462.62 1186.5,-396 1194.19,-349.1 1202.55,-294.42 1207.39,-262.37"/>
<polygon fill="#1414ce" stroke="#1414ce" points="1210.87,-262.82 1208.9,-252.41 1203.94,-261.77 1210.87,-262.82"/>
</a>
</g>
</g>
<!-- 3&#45;&gt;27 -->
<g id="edge64" class="edge">
<title>3&#45;&gt;27</title>
<g id="a_edge64"><a xlink:title="include">
<path fill="none" stroke="#1414ce" d="M1088.92,-586.56C1052.7,-580 1008.51,-566.75 977.5,-540 910.51,-482.21 932.05,-439.14 892.5,-360 876.33,-327.63 875.1,-317.75 854.5,-288 847.75,-278.25 839.41,-268.32 831.64,-259.73"/>
<polygon fill="#1414ce" stroke="#1414ce" points="834.09,-257.22 824.73,-252.26 828.95,-261.98 834.09,-257.22"/>
</a>
</g>
</g>
<!-- 14 -->
<g id="node34" class="node">
<title>14</title>
<g id="a_node34"><a xlink:title="ets.h">
<polygon fill="#ffffff" stroke="black" points="1040.5,-540 986.5,-540 986.5,-504 1040.5,-504 1040.5,-540"/>
<text text-anchor="middle" x="1013.5" y="-518.3" font-family="Times,serif" font-size="14.00">ets.h</text>
</a>
</g>
</g>
<!-- 3&#45;&gt;14 -->
<g id="edge62" class="edge">
<title>3&#45;&gt;14</title>
<g id="a_edge62"><a xlink:title="include">
<path fill="none" stroke="#1414ce" d="M1118.5,-575.88C1097.63,-565.37 1070.94,-551.92 1049.68,-541.22"/>
<polygon fill="#1414ce" stroke="#1414ce" points="1051.15,-538.04 1040.64,-536.67 1048,-544.29 1051.15,-538.04"/>
</a>
</g>
</g>
<!-- 18&#45;&gt;8 -->
<g id="edge69" class="edge">
<title>18&#45;&gt;8</title>
<g id="a_edge69"><a xlink:title="include">
<path fill="none" stroke="#1414ce" d="M1345.49,-148.4C1340.86,-146.75 1336.09,-145.21 1331.5,-144 1224.74,-115.85 1095.86,-101.37 1025.53,-95.06"/>
<polygon fill="#1414ce" stroke="#1414ce" points="1025.44,-91.54 1015.17,-94.15 1024.83,-98.51 1025.44,-91.54"/>
</a>
</g>
</g>
<!-- 28&#45;&gt;8 -->
<g id="edge70" class="edge">
<title>28&#45;&gt;8</title>
<g id="a_edge70"><a xlink:title="include">
<path fill="none" stroke="#1414ce" d="M1185.34,-215.99C1157.05,-197.75 1110.49,-168.14 1069.5,-144 1051.78,-133.57 1031.93,-122.5 1014.89,-113.2"/>
<polygon fill="#1414ce" stroke="#1414ce" points="1016.21,-109.93 1005.75,-108.23 1012.86,-116.08 1016.21,-109.93"/>
</a>
</g>
</g>
<!-- 28&#45;&gt;15 -->
<g id="edge72" class="edge">
<title>28&#45;&gt;15</title>
<g id="a_edge72"><a xlink:title="include">
<path fill="none" stroke="#1414ce" d="M1162.47,-218.58C1117.31,-205.3 1051.3,-185.88 1010.44,-173.87"/>
<polygon fill="#1414ce" stroke="#1414ce" points="1011.21,-170.44 1000.62,-170.98 1009.23,-177.16 1011.21,-170.44"/>
</a>
</g>
</g>
<!-- 28&#45;&gt;4 -->
<g id="edge71" class="edge">
<title>28&#45;&gt;4</title>
<g id="a_edge71"><a xlink:title="include">
<path fill="none" stroke="#1414ce" d="M1260.77,-229.05C1334.01,-221.26 1458.51,-199.59 1414.5,-144 1354.12,-67.73 1048.33,-33.31 930.7,-22.74"/>
<polygon fill="#1414ce" stroke="#1414ce" points="930.84,-19.24 920.58,-21.85 930.23,-26.21 930.84,-19.24"/>
</a>
</g>
</g>
<!-- 1 -->
<g id="node30" class="node">
<title>1</title>
<g id="a_node30"><a xlink:title="/__w/AtomVM/AtomVM/src/libAtomVM/posix_nifs.c">
<polygon fill="#bfbfbf" stroke="black" points="1060.5,-828 684.5,-828 684.5,-792 1060.5,-792 1060.5,-828"/>
<text text-anchor="middle" x="872.5" y="-806.3" font-family="Times,serif" font-size="14.00">/__w/AtomVM/AtomVM/src/libAtomVM/posix_nifs.c</text>
</a>
</g>
</g>
<!-- 1&#45;&gt;32 -->
<g id="edge76" class="edge">
<title>1&#45;&gt;32</title>
<g id="a_edge76"><a xlink:title="include">
<path fill="none" stroke="#1414ce" d="M861.87,-791.7C856.87,-783.56 850.81,-773.69 845.29,-764.7"/>
<polygon fill="#1414ce" stroke="#1414ce" points="848.22,-762.79 840.01,-756.1 842.26,-766.46 848.22,-762.79"/>
</a>
</g>
</g>
<!-- 1&#45;&gt;30 -->
<g id="edge74" class="edge">
<title>1&#45;&gt;30</title>
<g id="a_edge74"><a xlink:title="include">
<path fill="none" stroke="#1414ce" d="M834.34,-791.88C813.11,-782.35 786.49,-770.41 763.93,-760.28"/>
<polygon fill="#1414ce" stroke="#1414ce" points="765.09,-756.97 754.54,-756.07 762.23,-763.36 765.09,-756.97"/>
</a>
</g>
</g>
<!-- 1&#45;&gt;33 -->
<g id="edge77" class="edge">
<title>1&#45;&gt;33</title>
<g id="a_edge77"><a xlink:title="include">
<path fill="none" stroke="#1414ce" d="M883.38,-791.7C888.49,-783.56 894.7,-773.69 900.34,-764.7"/>
<polygon fill="#1414ce" stroke="#1414ce" points="903.39,-766.43 905.75,-756.1 897.46,-762.71 903.39,-766.43"/>
</a>
</g>
</g>
<!-- 1&#45;&gt;2 -->
<g id="edge73" class="edge">
<title>1&#45;&gt;2</title>
<g id="a_edge73"><a xlink:title="include">
<path fill="none" stroke="#1414ce" d="M1030.43,-791.97C1163.74,-777.59 1348.51,-757.66 1449.12,-746.81"/>
<polygon fill="#1414ce" stroke="#1414ce" points="1449.62,-750.27 1459.18,-745.72 1448.87,-743.31 1449.62,-750.27"/>
</a>
</g>
</g>
<!-- 1&#45;&gt;3 -->
<g id="edge75" class="edge">
<title>1&#45;&gt;3</title>
<g id="a_edge75"><a xlink:title="include">
<path fill="none" stroke="#1414ce" d="M900.34,-791.77C916.18,-781.71 936.25,-768.57 953.5,-756 1016.6,-710.01 1086.83,-651.3 1124.68,-619"/>
<polygon fill="#1414ce" stroke="#1414ce" points="1127.37,-621.31 1132.69,-612.15 1122.82,-615.99 1127.37,-621.31"/>
</a>
</g>
</g>
<!-- 35 -->
<g id="node31" class="node">
<title>35</title>
<g id="a_node31"><a xlink:title="posix_nifs.h">
<polygon fill="#ffffff" stroke="black" points="650,-684 549,-684 549,-648 650,-648 650,-684"/>
<text text-anchor="middle" x="599.5" y="-662.3" font-family="Times,serif" font-size="14.00">posix_nifs.h</text>
</a>
</g>
</g>
<!-- 1&#45;&gt;35 -->
<g id="edge78" class="edge">
<title>1&#45;&gt;35</title>
<g id="a_edge78"><a xlink:title="include">
<path fill="none" stroke="#1414ce" d="M730.96,-791.99C703.5,-784.09 676.23,-772.63 653.5,-756 632.28,-740.48 617.75,-713.88 609.15,-693.78"/>
<polygon fill="#1414ce" stroke="#1414ce" points="612.28,-692.2 605.29,-684.24 605.79,-694.83 612.28,-692.2"/>
</a>
</g>
</g>
<!-- 35&#45;&gt;19 -->
<g id="edge81" class="edge">
<title>35&#45;&gt;19</title>
<g id="a_edge81"><a xlink:title="include">
<path fill="none" stroke="#1414ce" d="M565.08,-647.82C551.11,-639.05 536.24,-627.03 527.5,-612 503.24,-570.29 502.95,-512.24 505.41,-478.44"/>
<polygon fill="#1414ce" stroke="#1414ce" points="508.9,-478.63 506.28,-468.37 501.93,-478.03 508.9,-478.63"/>
</a>
</g>
</g>
<!-- 35&#45;&gt;34 -->
<g id="edge79" class="edge">
<title>35&#45;&gt;34</title>
<g id="a_edge79"><a xlink:title="include">
<path fill="none" stroke="#1414ce" d="M602.71,-647.7C604.15,-639.98 605.87,-630.71 607.46,-622.11"/>
<polygon fill="#1414ce" stroke="#1414ce" points="610.94,-622.58 609.32,-612.1 604.06,-621.3 610.94,-622.58"/>
</a>
</g>
</g>
<!-- 35&#45;&gt;3 -->
<g id="edge80" class="edge">
<title>35&#45;&gt;3</title>
<g id="a_edge80"><a xlink:title="include">
<path fill="none" stroke="#1414ce" d="M650.04,-658.6C748.13,-646.19 964.68,-618.77 1078.81,-604.33"/>
<polygon fill="#1414ce" stroke="#1414ce" points="1079.37,-607.78 1088.86,-603.06 1078.5,-600.84 1079.37,-607.78"/>
</a>
</g>
</g>
<!-- 27&#45;&gt;8 -->
<g id="edge82" class="edge">
<title>27&#45;&gt;8</title>
<g id="a_edge82"><a xlink:title="include">
<path fill="none" stroke="#1414ce" d="M827.52,-215.87C856.94,-190.71 911.95,-143.65 945.4,-115.04"/>
<polygon fill="#1414ce" stroke="#1414ce" points="948.08,-117.35 953.41,-108.19 943.53,-112.03 948.08,-117.35"/>
</a>
</g>
</g>
<!-- 27&#45;&gt;23 -->
<g id="edge85" class="edge">
<title>27&#45;&gt;23</title>
<g id="a_edge85"><a xlink:title="include">
<path fill="none" stroke="#1414ce" d="M764.25,-224.28C697,-210.71 568.2,-184.73 502.02,-171.38"/>
<polygon fill="#1414ce" stroke="#1414ce" points="502.45,-167.89 491.95,-169.34 501.06,-174.75 502.45,-167.89"/>
</a>
</g>
</g>
<!-- 27&#45;&gt;15 -->
<g id="edge83" class="edge">
<title>27&#45;&gt;15</title>
<g id="a_edge83"><a xlink:title="include">
<path fill="none" stroke="#1414ce" d="M848.11,-215.88C875.29,-204.41 910.77,-189.45 937.05,-178.37"/>
<polygon fill="#1414ce" stroke="#1414ce" points="938.43,-181.59 946.28,-174.48 935.71,-175.14 938.43,-181.59"/>
</a>
</g>
</g>
<!-- 27&#45;&gt;10 -->
<g id="edge84" class="edge">
<title>27&#45;&gt;10</title>
<g id="a_edge84"><a xlink:title="include">
<path fill="none" stroke="#1414ce" d="M764.43,-229.44C692.54,-222.97 543.8,-207.37 420.5,-180 338.9,-161.89 247.01,-131.58 189.68,-111.44"/>
<polygon fill="#1414ce" stroke="#1414ce" points="190.69,-108.09 180.09,-108.05 188.35,-114.69 190.69,-108.09"/>
</a>
</g>
</g>
<!-- 14&#45;&gt;16 -->
<g id="edge87" class="edge">
<title>14&#45;&gt;16</title>
<g id="a_edge87"><a xlink:title="include">
<path fill="none" stroke="#1414ce" d="M1016.48,-503.97C1024.83,-456.19 1048.53,-320.62 1058.73,-262.27"/>
<polygon fill="#1414ce" stroke="#1414ce" points="1062.2,-262.76 1060.47,-252.31 1055.3,-261.55 1062.2,-262.76"/>
</a>
</g>
</g>
<!-- 14&#45;&gt;15 -->
<g id="edge86" class="edge">
<title>14&#45;&gt;15</title>
<g id="a_edge86"><a xlink:title="include">
<path fill="none" stroke="#1414ce" d="M1009.25,-503.63C1003.11,-476.99 992.5,-424.36 992.5,-379 992.5,-379 992.5,-379 992.5,-305 992.5,-264.86 984.95,-218.9 979.37,-190.4"/>
<polygon fill="#1414ce" stroke="#1414ce" points="982.76,-189.5 977.34,-180.39 975.89,-190.88 982.76,-189.5"/>
</a>
</g>
</g>
<!-- 14&#45;&gt;19 -->
<g id="edge88" class="edge">
<title>14&#45;&gt;19</title>
<g id="a_edge88"><a xlink:title="include">
<path fill="none" stroke="#1414ce" d="M986.19,-514.5C971.03,-511.05 951.79,-506.93 934.5,-504 795.19,-480.39 628.59,-462.68 551.51,-455.08"/>
<polygon fill="#1414ce" stroke="#1414ce" points="551.54,-451.57 541.24,-454.08 550.86,-458.54 551.54,-451.57"/>
</a>
</g>
</g>
</g>
</svg>
