<?xml version="1.0" encoding="UTF-8" standalone="no"?>
<!DOCTYPE svg PUBLIC "-//W3C//DTD SVG 1.1//EN"
 "http://www.w3.org/Graphics/SVG/1.1/DTD/svg11.dtd">
<!-- Generated by graphviz version 2.43.0 (0)
 -->
<!-- Title: %3 Pages: 1 -->
<svg width="394pt" height="188pt"
 viewBox="0.00 0.00 393.50 188.00" xmlns="http://www.w3.org/2000/svg" xmlns:xlink="http://www.w3.org/1999/xlink">
<g id="graph0" class="graph" transform="scale(1 1) rotate(0) translate(4 184)">
<title>%3</title>
<polygon fill="transparent" stroke="transparent" points="-4,4 -4,-184 389.5,-184 389.5,4 -4,4"/>
<!-- 3 -->
<g id="node1" class="node">
<title>3</title>
<g id="a_node1"><a xlink:title="Module">
<polygon fill="#ffffff" stroke="black" points="244.5,-108 174.5,-108 174.5,-72 244.5,-72 244.5,-108"/>
<text text-anchor="middle" x="209.5" y="-86.3" font-family="Times,serif" font-size="14.00">Module</text>
</a>
</g>
</g>
<!-- 5 -->
<g id="node3" class="node">
<title>5</title>
<g id="a_node3"><a xlink:title="ListHead">
<polygon fill="#ffffff" stroke="black" points="81,-36 0,-36 0,0 81,0 81,-36"/>
<text text-anchor="middle" x="40.5" y="-14.3" font-family="Times,serif" font-size="14.00">ListHead</text>
</a>
</g>
</g>
<!-- 3&#45;&gt;5 -->
<g id="edge3" class="edge">
<title>3&#45;&gt;5</title>
<g id="a_edge3"><a xlink:title="usage">
<path fill="none" stroke="#1414ce" d="M174.48,-74.5C150.18,-64.43 117.45,-50.87 90.42,-39.68"/>
<polygon fill="#1414ce" stroke="#1414ce" points="91.7,-36.42 81.12,-35.82 89.02,-42.88 91.7,-36.42"/>
</a>
</g>
</g>
<!-- 4 -->
<g id="node4" class="node">
<title>4</title>
<g id="a_node4"><a xlink:title="LiteralEntry">
<polygon fill="#ffffff" stroke="black" points="221.5,-36 117.5,-36 117.5,0 221.5,0 221.5,-36"/>
<text text-anchor="middle" x="169.5" y="-14.3" font-family="Times,serif" font-size="14.00">LiteralEntry</text>
</a>
</g>
</g>
<!-- 3&#45;&gt;4 -->
<g id="edge2" class="edge">
<title>3&#45;&gt;4</title>
<g id="a_edge2"><a xlink:title="usage">
<path fill="none" stroke="#1414ce" d="M199.61,-71.7C195.01,-63.64 189.44,-53.89 184.35,-44.98"/>
<polygon fill="#1414ce" stroke="#1414ce" points="187.27,-43.05 179.27,-36.1 181.2,-46.52 187.27,-43.05"/>
</a>
</g>
</g>
<!-- 2 -->
<g id="node5" class="node">
<title>2</title>
<g id="a_node5"><a xlink:title="ExportedFunction">
<polygon fill="#ffffff" stroke="black" points="385.5,-36 239.5,-36 239.5,0 385.5,0 385.5,-36"/>
<text text-anchor="middle" x="312.5" y="-14.3" font-family="Times,serif" font-size="14.00">ExportedFunction</text>
</a>
</g>
</g>
<!-- 3&#45;&gt;2 -->
<g id="edge1" class="edge">
<title>3&#45;&gt;2</title>
<g id="a_edge1"><a xlink:title="usage">
<path fill="none" stroke="#1414ce" d="M234.7,-71.88C247.91,-62.89 264.29,-51.76 278.61,-42.03"/>
<polygon fill="#1414ce" stroke="#1414ce" points="280.9,-44.71 287.21,-36.19 276.97,-38.92 280.9,-44.71"/>
</a>
</g>
</g>
<!-- 1 -->
<g id="node2" class="node">
<title>1</title>
<g id="a_node2"><a xlink:title="ModuleFunction">
<polygon fill="#bfbfbf" stroke="black" points="307,-180 174,-180 174,-144 307,-144 307,-180"/>
<text text-anchor="middle" x="240.5" y="-158.3" font-family="Times,serif" font-size="14.00">ModuleFunction</text>
</a>
</g>
</g>
<!-- 1&#45;&gt;3 -->
<g id="edge5" class="edge">
<title>1&#45;&gt;3</title>
<g id="a_edge5"><a xlink:title="usage">
<path fill="none" stroke="#1414ce" d="M232.84,-143.7C229.31,-135.73 225.04,-126.1 221.13,-117.26"/>
<polygon fill="#1414ce" stroke="#1414ce" points="224.32,-115.83 217.07,-108.1 217.92,-118.67 224.32,-115.83"/>
</a>
</g>
</g>
<!-- 1&#45;&gt;2 -->
<g id="edge4" class="edge">
<title>1&#45;&gt;2</title>
<g id="a_edge4"><a xlink:title="usage">
<path fill="none" stroke="#1414ce" d="M249.18,-143.87C261.62,-119.35 284.6,-74.03 299.19,-45.26"/>
<polygon fill="#1414ce" stroke="#1414ce" points="302.38,-46.69 303.78,-36.19 296.14,-43.53 302.38,-46.69"/>
</a>
</g>
</g>
<!-- 5&#45;&gt;5 -->
<g id="edge6" class="edge">
<title>5&#45;&gt;5</title>
<g id="a_edge6"><a xlink:title="usage">
<path fill="none" stroke="#1414ce" d="M81.23,-31.31C91.4,-30.38 99,-25.95 99,-18 99,-12.91 95.88,-9.26 90.97,-7.05"/>
<polygon fill="#1414ce" stroke="#1414ce" points="91.78,-3.64 81.23,-4.69 90.13,-10.45 91.78,-3.64"/>
</a>
</g>
</g>
</g>
</svg>
