<?xml version="1.0" encoding="UTF-8" standalone="no"?>
<!DOCTYPE svg PUBLIC "-//W3C//DTD SVG 1.1//EN"
 "http://www.w3.org/Graphics/SVG/1.1/DTD/svg11.dtd">
<!-- Generated by graphviz version 2.43.0 (0)
 -->
<!-- Title: %3 Pages: 1 -->
<svg width="1291pt" height="692pt"
 viewBox="0.00 0.00 1291.00 692.00" xmlns="http://www.w3.org/2000/svg" xmlns:xlink="http://www.w3.org/1999/xlink">
<g id="graph0" class="graph" transform="scale(1 1) rotate(0) translate(4 688)">
<title>%3</title>
<polygon fill="transparent" stroke="transparent" points="-4,4 -4,-688 1287,-688 1287,4 -4,4"/>
<!-- 7 -->
<g id="node1" class="node">
<title>7</title>
<g id="a_node1"><a xlink:title="stdbool.h">
<polygon fill="#ffffff" stroke="black" points="421.5,-108 338.5,-108 338.5,-72 421.5,-72 421.5,-108"/>
<text text-anchor="middle" x="380" y="-86.3" font-family="Times,serif" font-size="14.00">stdbool.h</text>
</a>
</g>
</g>
<!-- 24 -->
<g id="node2" class="node">
<title>24</title>
<g id="a_node2"><a xlink:title="refc_binary.h">
<polygon fill="#ffffff" stroke="black" points="616,-396 508,-396 508,-360 616,-360 616,-396"/>
<text text-anchor="middle" x="562" y="-374.3" font-family="Times,serif" font-size="14.00">refc_binary.h</text>
</a>
</g>
</g>
<!-- 24&#45;&gt;7 -->
<g id="edge1" class="edge">
<title>24&#45;&gt;7</title>
<g id="a_edge1"><a xlink:title="include">
<path fill="none" stroke="#1414ce" d="M552.07,-359.73C529.47,-320.66 472,-222.75 419,-144 412.88,-134.9 405.86,-125.17 399.48,-116.57"/>
<polygon fill="#1414ce" stroke="#1414ce" points="402.17,-114.31 393.38,-108.4 396.56,-118.51 402.17,-114.31"/>
</a>
</g>
</g>
<!-- 14 -->
<g id="node8" class="node">
<title>14</title>
<g id="a_node8"><a xlink:title="list.h">
<polygon fill="#ffffff" stroke="black" points="329,-180 275,-180 275,-144 329,-144 329,-180"/>
<text text-anchor="middle" x="302" y="-158.3" font-family="Times,serif" font-size="14.00">list.h</text>
</a>
</g>
</g>
<!-- 24&#45;&gt;14 -->
<g id="edge3" class="edge">
<title>24&#45;&gt;14</title>
<g id="a_edge3"><a xlink:title="include">
<path fill="none" stroke="#1414ce" d="M507.76,-362.48C453.47,-345.14 371.53,-310.83 325,-252 311.11,-234.44 305.54,-209.41 303.34,-190.36"/>
<polygon fill="#1414ce" stroke="#1414ce" points="306.81,-189.85 302.41,-180.21 299.84,-190.49 306.81,-189.85"/>
</a>
</g>
</g>
<!-- 5 -->
<g id="node10" class="node">
<title>5</title>
<g id="a_node10"><a xlink:title="stdlib.h">
<polygon fill="#ffffff" stroke="black" points="1023.5,-108 952.5,-108 952.5,-72 1023.5,-72 1023.5,-108"/>
<text text-anchor="middle" x="988" y="-86.3" font-family="Times,serif" font-size="14.00">stdlib.h</text>
</a>
</g>
</g>
<!-- 24&#45;&gt;5 -->
<g id="edge2" class="edge">
<title>24&#45;&gt;5</title>
<g id="a_edge2"><a xlink:title="include">
<path fill="none" stroke="#1414ce" d="M616.07,-362.6C697.63,-338.22 852.13,-281.32 942,-180 958.24,-161.69 970.53,-136.62 978.3,-117.75"/>
<polygon fill="#1414ce" stroke="#1414ce" points="981.63,-118.84 982.05,-108.26 975.12,-116.27 981.63,-118.84"/>
</a>
</g>
</g>
<!-- 25 -->
<g id="node12" class="node">
<title>25</title>
<g id="a_node12"><a xlink:title="resources.h">
<polygon fill="#ffffff" stroke="black" points="646,-324 546,-324 546,-288 646,-288 646,-324"/>
<text text-anchor="middle" x="596" y="-302.3" font-family="Times,serif" font-size="14.00">resources.h</text>
</a>
</g>
</g>
<!-- 24&#45;&gt;25 -->
<g id="edge4" class="edge">
<title>24&#45;&gt;25</title>
<g id="a_edge4"><a xlink:title="include">
<path fill="none" stroke="#1414ce" d="M570.4,-359.7C574.27,-351.73 578.95,-342.1 583.24,-333.26"/>
<polygon fill="#1414ce" stroke="#1414ce" points="586.47,-334.63 587.69,-324.1 580.17,-331.57 586.47,-334.63"/>
</a>
</g>
</g>
<!-- 1 -->
<g id="node3" class="node">
<title>1</title>
<g id="a_node3"><a xlink:title="/__w/AtomVM/AtomVM/src/libAtomVM/defaultatoms.h">
<polygon fill="#bfbfbf" stroke="black" points="717.5,-684 316.5,-684 316.5,-648 717.5,-648 717.5,-684"/>
<text text-anchor="middle" x="517" y="-662.3" font-family="Times,serif" font-size="14.00">/__w/AtomVM/AtomVM/src/libAtomVM/defaultatoms.h</text>
</a>
</g>
</g>
<!-- 28 -->
<g id="node16" class="node">
<title>28</title>
<g id="a_node16"><a xlink:title="defaultatoms.def">
<polygon fill="#ffffff" stroke="black" points="660.5,-612 523.5,-612 523.5,-576 660.5,-576 660.5,-612"/>
<text text-anchor="middle" x="592" y="-590.3" font-family="Times,serif" font-size="14.00">defaultatoms.def</text>
</a>
</g>
</g>
<!-- 1&#45;&gt;28 -->
<g id="edge6" class="edge">
<title>1&#45;&gt;28</title>
<g id="a_edge6"><a xlink:title="include">
<path fill="none" stroke="#1414ce" d="M535.54,-647.7C544.8,-639.05 556.16,-628.45 566.26,-619.03"/>
<polygon fill="#1414ce" stroke="#1414ce" points="568.75,-621.49 573.67,-612.1 563.98,-616.37 568.75,-621.49"/>
</a>
</g>
</g>
<!-- 2 -->
<g id="node22" class="node">
<title>2</title>
<g id="a_node22"><a xlink:title="globalcontext.h">
<polygon fill="#ffffff" stroke="black" points="505.5,-612 378.5,-612 378.5,-576 505.5,-576 505.5,-612"/>
<text text-anchor="middle" x="442" y="-590.3" font-family="Times,serif" font-size="14.00">globalcontext.h</text>
</a>
</g>
</g>
<!-- 1&#45;&gt;2 -->
<g id="edge5" class="edge">
<title>1&#45;&gt;2</title>
<g id="a_edge5"><a xlink:title="include">
<path fill="none" stroke="#1414ce" d="M498.46,-647.7C489.2,-639.05 477.84,-628.45 467.74,-619.03"/>
<polygon fill="#1414ce" stroke="#1414ce" points="470.02,-616.37 460.33,-612.1 465.25,-621.49 470.02,-616.37"/>
</a>
</g>
</g>
<!-- 4 -->
<g id="node4" class="node">
<title>4</title>
<g id="a_node4"><a xlink:title="atom.h">
<polygon fill="#ffffff" stroke="black" points="1184,-180 1118,-180 1118,-144 1184,-144 1184,-180"/>
<text text-anchor="middle" x="1151" y="-158.3" font-family="Times,serif" font-size="14.00">atom.h</text>
</a>
</g>
</g>
<!-- 3 -->
<g id="node9" class="node">
<title>3</title>
<g id="a_node9"><a xlink:title="stdint.h">
<polygon fill="#ffffff" stroke="black" points="992,-36 920,-36 920,0 992,0 992,-36"/>
<text text-anchor="middle" x="956" y="-14.3" font-family="Times,serif" font-size="14.00">stdint.h</text>
</a>
</g>
</g>
<!-- 4&#45;&gt;3 -->
<g id="edge7" class="edge">
<title>4&#45;&gt;3</title>
<g id="a_edge7"><a xlink:title="include">
<path fill="none" stroke="#1414ce" d="M1143.85,-143.95C1134.73,-124.13 1117.21,-91.63 1093,-72 1066.51,-50.52 1030.31,-37.02 1001.77,-29.02"/>
<polygon fill="#1414ce" stroke="#1414ce" points="1002.59,-25.62 992.03,-26.42 1000.78,-32.38 1002.59,-25.62"/>
</a>
</g>
</g>
<!-- 4&#45;&gt;5 -->
<g id="edge8" class="edge">
<title>4&#45;&gt;5</title>
<g id="a_edge8"><a xlink:title="include">
<path fill="none" stroke="#1414ce" d="M1117.62,-146.67C1093.23,-136.19 1059.89,-121.87 1033.13,-110.38"/>
<polygon fill="#1414ce" stroke="#1414ce" points="1034.16,-107.02 1023.59,-106.29 1031.4,-113.45 1034.16,-107.02"/>
</a>
</g>
</g>
<!-- 10 -->
<g id="node5" class="node">
<title>10</title>
<g id="a_node5"><a xlink:title="assert.h">
<polygon fill="#ffffff" stroke="black" points="779,-36 705,-36 705,0 779,0 779,-36"/>
<text text-anchor="middle" x="742" y="-14.3" font-family="Times,serif" font-size="14.00">assert.h</text>
</a>
</g>
</g>
<!-- 22 -->
<g id="node6" class="node">
<title>22</title>
<g id="a_node6"><a xlink:title="utils.h">
<polygon fill="#ffffff" stroke="black" points="861,-180 799,-180 799,-144 861,-144 861,-180"/>
<text text-anchor="middle" x="830" y="-158.3" font-family="Times,serif" font-size="14.00">utils.h</text>
</a>
</g>
</g>
<!-- 22&#45;&gt;5 -->
<g id="edge11" class="edge">
<title>22&#45;&gt;5</title>
<g id="a_edge11"><a xlink:title="include">
<path fill="none" stroke="#1414ce" d="M861.22,-147.17C884.6,-136.81 916.94,-122.48 943.11,-110.89"/>
<polygon fill="#1414ce" stroke="#1414ce" points="944.71,-114.01 952.44,-106.76 941.88,-107.61 944.71,-114.01"/>
</a>
</g>
</g>
<!-- 23 -->
<g id="node14" class="node">
<title>23</title>
<g id="a_node14"><a xlink:title="stddef.h">
<polygon fill="#ffffff" stroke="black" points="843,-108 769,-108 769,-72 843,-72 843,-108"/>
<text text-anchor="middle" x="806" y="-86.3" font-family="Times,serif" font-size="14.00">stddef.h</text>
</a>
</g>
</g>
<!-- 22&#45;&gt;23 -->
<g id="edge9" class="edge">
<title>22&#45;&gt;23</title>
<g id="a_edge9"><a xlink:title="include">
<path fill="none" stroke="#1414ce" d="M824.07,-143.7C821.39,-135.9 818.17,-126.51 815.2,-117.83"/>
<polygon fill="#1414ce" stroke="#1414ce" points="818.42,-116.43 811.86,-108.1 811.8,-118.7 818.42,-116.43"/>
</a>
</g>
</g>
<!-- 16 -->
<g id="node26" class="node">
<title>16</title>
<g id="a_node26"><a xlink:title="stdio.h">
<polygon fill="#ffffff" stroke="black" points="926.5,-108 861.5,-108 861.5,-72 926.5,-72 926.5,-108"/>
<text text-anchor="middle" x="894" y="-86.3" font-family="Times,serif" font-size="14.00">stdio.h</text>
</a>
</g>
</g>
<!-- 22&#45;&gt;16 -->
<g id="edge10" class="edge">
<title>22&#45;&gt;16</title>
<g id="a_edge10"><a xlink:title="include">
<path fill="none" stroke="#1414ce" d="M845.82,-143.7C853.57,-135.22 863.04,-124.86 871.52,-115.58"/>
<polygon fill="#1414ce" stroke="#1414ce" points="874.2,-117.85 878.36,-108.1 869.03,-113.12 874.2,-117.85"/>
</a>
</g>
</g>
<!-- 15 -->
<g id="node7" class="node">
<title>15</title>
<g id="a_node7"><a xlink:title="synclist.h">
<polygon fill="#ffffff" stroke="black" points="419.5,-252 334.5,-252 334.5,-216 419.5,-216 419.5,-252"/>
<text text-anchor="middle" x="377" y="-230.3" font-family="Times,serif" font-size="14.00">synclist.h</text>
</a>
</g>
</g>
<!-- 15&#45;&gt;14 -->
<g id="edge13" class="edge">
<title>15&#45;&gt;14</title>
<g id="a_edge13"><a xlink:title="include">
<path fill="none" stroke="#1414ce" d="M358.46,-215.7C349.2,-207.05 337.84,-196.45 327.74,-187.03"/>
<polygon fill="#1414ce" stroke="#1414ce" points="330.02,-184.37 320.33,-180.1 325.25,-189.49 330.02,-184.37"/>
</a>
</g>
</g>
<!-- 17 -->
<g id="node23" class="node">
<title>17</title>
<g id="a_node23"><a xlink:title="smp.h">
<polygon fill="#ffffff" stroke="black" points="410,-180 350,-180 350,-144 410,-144 410,-180"/>
<text text-anchor="middle" x="380" y="-158.3" font-family="Times,serif" font-size="14.00">smp.h</text>
</a>
</g>
</g>
<!-- 15&#45;&gt;17 -->
<g id="edge14" class="edge">
<title>15&#45;&gt;17</title>
<g id="a_edge14"><a xlink:title="include">
<path fill="none" stroke="#1414ce" d="M377.74,-215.7C378.07,-207.98 378.47,-198.71 378.84,-190.11"/>
<polygon fill="#1414ce" stroke="#1414ce" points="382.34,-190.25 379.27,-180.1 375.34,-189.95 382.34,-190.25"/>
</a>
</g>
</g>
<!-- 15&#45;&gt;16 -->
<g id="edge12" class="edge">
<title>15&#45;&gt;16</title>
<g id="a_edge12"><a xlink:title="include">
<path fill="none" stroke="#1414ce" d="M395.71,-215.79C419.72,-194.83 463.58,-160.24 508,-144 649.27,-92.35 700.63,-142.93 851.21,-107.7"/>
<polygon fill="#1414ce" stroke="#1414ce" points="852.39,-111.02 861.28,-105.26 850.73,-104.22 852.39,-111.02"/>
</a>
</g>
</g>
<!-- 14&#45;&gt;7 -->
<g id="edge15" class="edge">
<title>14&#45;&gt;7</title>
<g id="a_edge15"><a xlink:title="include">
<path fill="none" stroke="#1414ce" d="M321.28,-143.7C330.92,-135.05 342.73,-124.45 353.23,-115.03"/>
<polygon fill="#1414ce" stroke="#1414ce" points="355.84,-117.39 360.94,-108.1 351.16,-112.18 355.84,-117.39"/>
</a>
</g>
</g>
<!-- 21 -->
<g id="node11" class="node">
<title>21</title>
<g id="a_node11"><a xlink:title="memory.h">
<polygon fill="#ffffff" stroke="black" points="776,-252 690,-252 690,-216 776,-216 776,-252"/>
<text text-anchor="middle" x="733" y="-230.3" font-family="Times,serif" font-size="14.00">memory.h</text>
</a>
</g>
</g>
<!-- 21&#45;&gt;22 -->
<g id="edge20" class="edge">
<title>21&#45;&gt;22</title>
<g id="a_edge20"><a xlink:title="include">
<path fill="none" stroke="#1414ce" d="M756.98,-215.7C769.31,-206.8 784.52,-195.82 797.85,-186.2"/>
<polygon fill="#1414ce" stroke="#1414ce" points="800.24,-188.79 806.3,-180.1 796.14,-183.12 800.24,-188.79"/>
</a>
</g>
</g>
<!-- 21&#45;&gt;3 -->
<g id="edge16" class="edge">
<title>21&#45;&gt;3</title>
<g id="a_edge16"><a xlink:title="include">
<path fill="none" stroke="#1414ce" d="M730.43,-215.91C726.57,-183.45 723.26,-112.53 760,-72 779.92,-50.03 858.34,-34.04 909.75,-25.66"/>
<polygon fill="#1414ce" stroke="#1414ce" points="910.32,-29.12 919.65,-24.09 909.22,-22.2 910.32,-29.12"/>
</a>
</g>
</g>
<!-- 21&#45;&gt;5 -->
<g id="edge17" class="edge">
<title>21&#45;&gt;5</title>
<g id="a_edge17"><a xlink:title="include">
<path fill="none" stroke="#1414ce" d="M776.03,-219.79C803.73,-210.46 840.03,-196.68 870,-180 903.5,-161.37 938.08,-134.17 961.08,-114.75"/>
<polygon fill="#1414ce" stroke="#1414ce" points="963.38,-117.39 968.71,-108.24 958.83,-112.07 963.38,-117.39"/>
</a>
</g>
</g>
<!-- 8 -->
<g id="node15" class="node">
<title>8</title>
<g id="a_node15"><a xlink:title="erl_nif.h">
<polygon fill="#ffffff" stroke="black" points="591,-180 517,-180 517,-144 591,-144 591,-180"/>
<text text-anchor="middle" x="554" y="-158.3" font-family="Times,serif" font-size="14.00">erl_nif.h</text>
</a>
</g>
</g>
<!-- 21&#45;&gt;8 -->
<g id="edge18" class="edge">
<title>21&#45;&gt;8</title>
<g id="a_edge18"><a xlink:title="include">
<path fill="none" stroke="#1414ce" d="M689.67,-216.05C662.74,-205.52 628.12,-191.99 600.6,-181.22"/>
<polygon fill="#1414ce" stroke="#1414ce" points="601.77,-177.92 591.18,-177.54 599.22,-184.44 601.77,-177.92"/>
</a>
</g>
</g>
<!-- 9 -->
<g id="node21" class="node">
<title>9</title>
<g id="a_node21"><a xlink:title="term_typedef.h">
<polygon fill="#ffffff" stroke="black" points="704.5,-108 579.5,-108 579.5,-72 704.5,-72 704.5,-108"/>
<text text-anchor="middle" x="642" y="-86.3" font-family="Times,serif" font-size="14.00">term_typedef.h</text>
</a>
</g>
</g>
<!-- 21&#45;&gt;9 -->
<g id="edge19" class="edge">
<title>21&#45;&gt;9</title>
<g id="a_edge19"><a xlink:title="include">
<path fill="none" stroke="#1414ce" d="M722.02,-215.87C706.24,-191.24 677.01,-145.64 658.59,-116.88"/>
<polygon fill="#1414ce" stroke="#1414ce" points="661.36,-114.72 653.02,-108.19 655.46,-118.5 661.36,-114.72"/>
</a>
</g>
</g>
<!-- 25&#45;&gt;15 -->
<g id="edge25" class="edge">
<title>25&#45;&gt;15</title>
<g id="a_edge25"><a xlink:title="include">
<path fill="none" stroke="#1414ce" d="M545.76,-288.94C510.9,-277.8 464.57,-262.99 429.28,-251.71"/>
<polygon fill="#1414ce" stroke="#1414ce" points="430.22,-248.34 419.63,-248.63 428.09,-255.01 430.22,-248.34"/>
</a>
</g>
</g>
<!-- 25&#45;&gt;14 -->
<g id="edge23" class="edge">
<title>25&#45;&gt;14</title>
<g id="a_edge23"><a xlink:title="include">
<path fill="none" stroke="#1414ce" d="M565.78,-287.88C532.49,-269.27 477.13,-239.11 428,-216 390.14,-198.19 379.52,-196.36 341,-180 340.17,-179.65 339.32,-179.29 338.48,-178.92"/>
<polygon fill="#1414ce" stroke="#1414ce" points="339.82,-175.69 329.25,-174.95 337.05,-182.12 339.82,-175.69"/>
</a>
</g>
</g>
<!-- 25&#45;&gt;5 -->
<g id="edge21" class="edge">
<title>25&#45;&gt;5</title>
<g id="a_edge21"><a xlink:title="include">
<path fill="none" stroke="#1414ce" d="M646.09,-294.55C684.86,-285.61 739.45,-271.15 785,-252 844.1,-227.15 860.43,-220.66 910,-180 932.87,-161.25 954.68,-135.44 969.4,-116.45"/>
<polygon fill="#1414ce" stroke="#1414ce" points="972.36,-118.32 975.64,-108.25 966.79,-114.08 972.36,-118.32"/>
</a>
</g>
</g>
<!-- 25&#45;&gt;21 -->
<g id="edge24" class="edge">
<title>25&#45;&gt;21</title>
<g id="a_edge24"><a xlink:title="include">
<path fill="none" stroke="#1414ce" d="M629.51,-287.88C647.84,-278.51 670.74,-266.81 690.33,-256.8"/>
<polygon fill="#1414ce" stroke="#1414ce" points="692.04,-259.86 699.36,-252.19 688.86,-253.62 692.04,-259.86"/>
</a>
</g>
</g>
<!-- 25&#45;&gt;8 -->
<g id="edge22" class="edge">
<title>25&#45;&gt;8</title>
<g id="a_edge22"><a xlink:title="include">
<path fill="none" stroke="#1414ce" d="M593.03,-287.7C589.71,-269.6 583.76,-240.45 576,-216 573.23,-207.26 569.61,-197.96 566.11,-189.63"/>
<polygon fill="#1414ce" stroke="#1414ce" points="569.29,-188.17 562.11,-180.38 562.86,-190.95 569.29,-188.17"/>
</a>
</g>
</g>
<!-- 18 -->
<g id="node13" class="node">
<title>18</title>
<g id="a_node13"><a xlink:title="term.h">
<polygon fill="#ffffff" stroke="black" points="888.5,-468 823.5,-468 823.5,-432 888.5,-432 888.5,-468"/>
<text text-anchor="middle" x="856" y="-446.3" font-family="Times,serif" font-size="14.00">term.h</text>
</a>
</g>
</g>
<!-- 18&#45;&gt;7 -->
<g id="edge27" class="edge">
<title>18&#45;&gt;7</title>
<g id="a_edge27"><a xlink:title="include">
<path fill="none" stroke="#1414ce" d="M868.73,-431.85C875.29,-421.92 882.61,-408.88 886,-396 890.08,-380.53 890.1,-375.47 886,-360 865.99,-284.43 851.47,-257.15 785,-216 725.97,-179.46 692.88,-215.14 633,-180 614.28,-169.01 618.7,-155.02 600,-144 547.77,-113.21 478.56,-100.28 431.82,-94.87"/>
<polygon fill="#1414ce" stroke="#1414ce" points="431.94,-91.36 421.62,-93.77 431.19,-98.32 431.94,-91.36"/>
</a>
</g>
</g>
<!-- 18&#45;&gt;24 -->
<g id="edge33" class="edge">
<title>18&#45;&gt;24</title>
<g id="a_edge33"><a xlink:title="include">
<path fill="none" stroke="#1414ce" d="M823.4,-441.51C779.44,-431.38 698.74,-412.65 630,-396 628.74,-395.69 627.46,-395.38 626.17,-395.07"/>
<polygon fill="#1414ce" stroke="#1414ce" points="626.72,-391.6 616.17,-392.62 625.05,-398.4 626.72,-391.6"/>
</a>
</g>
</g>
<!-- 18&#45;&gt;22 -->
<g id="edge34" class="edge">
<title>18&#45;&gt;22</title>
<g id="a_edge34"><a xlink:title="include">
<path fill="none" stroke="#1414ce" d="M868.73,-431.85C875.29,-421.92 882.61,-408.88 886,-396 890.08,-380.53 888.21,-375.85 886,-360 877.3,-297.55 853.78,-227.09 840.15,-189.69"/>
<polygon fill="#1414ce" stroke="#1414ce" points="843.34,-188.21 836.59,-180.05 836.77,-190.64 843.34,-188.21"/>
</a>
</g>
</g>
<!-- 18&#45;&gt;3 -->
<g id="edge28" class="edge">
<title>18&#45;&gt;3</title>
<g id="a_edge28"><a xlink:title="include">
<path fill="none" stroke="#1414ce" d="M888.7,-446.25C926.24,-441.59 987.9,-429.11 1029,-396 1064.33,-367.54 1079,-352.37 1079,-307 1079,-307 1079,-307 1079,-161 1079,-116.47 1062.44,-105.4 1033,-72 1022.71,-60.33 1009.33,-49.97 996.61,-41.57"/>
<polygon fill="#1414ce" stroke="#1414ce" points="998.28,-38.48 987.96,-36.08 994.53,-44.39 998.28,-38.48"/>
</a>
</g>
</g>
<!-- 18&#45;&gt;5 -->
<g id="edge30" class="edge">
<title>18&#45;&gt;5</title>
<g id="a_edge30"><a xlink:title="include">
<path fill="none" stroke="#1414ce" d="M888.65,-444.38C920.57,-438.31 968.79,-424.83 1000,-396 1031.99,-366.45 1041,-350.55 1041,-307 1041,-307 1041,-307 1041,-233 1041,-190.21 1019.61,-144.48 1004.01,-116.82"/>
<polygon fill="#1414ce" stroke="#1414ce" points="1007.03,-115.05 998.98,-108.16 1000.98,-118.56 1007.03,-115.05"/>
</a>
</g>
</g>
<!-- 18&#45;&gt;21 -->
<g id="edge32" class="edge">
<title>18&#45;&gt;21</title>
<g id="a_edge32"><a xlink:title="include">
<path fill="none" stroke="#1414ce" d="M864.14,-431.87C871.7,-413.39 880.36,-383.47 870,-360 850.13,-314.98 805.15,-279.16 772.13,-257.6"/>
<polygon fill="#1414ce" stroke="#1414ce" points="773.91,-254.58 763.59,-252.17 770.15,-260.49 773.91,-254.58"/>
</a>
</g>
</g>
<!-- 19 -->
<g id="node19" class="node">
<title>19</title>
<g id="a_node19"><a xlink:title="sys/types.h">
<polygon fill="#ffffff" stroke="black" points="769.5,-396 672.5,-396 672.5,-360 769.5,-360 769.5,-396"/>
<text text-anchor="middle" x="721" y="-374.3" font-family="Times,serif" font-size="14.00">sys/types.h</text>
</a>
</g>
</g>
<!-- 18&#45;&gt;19 -->
<g id="edge26" class="edge">
<title>18&#45;&gt;19</title>
<g id="a_edge26"><a xlink:title="include">
<path fill="none" stroke="#1414ce" d="M823.32,-432.05C805.13,-422.62 782.3,-410.78 762.82,-400.68"/>
<polygon fill="#1414ce" stroke="#1414ce" points="764.34,-397.53 753.85,-396.03 761.11,-403.74 764.34,-397.53"/>
</a>
</g>
</g>
<!-- 20 -->
<g id="node20" class="node">
<title>20</title>
<g id="a_node20"><a xlink:title="string.h">
<polygon fill="#ffffff" stroke="black" points="860.5,-396 787.5,-396 787.5,-360 860.5,-360 860.5,-396"/>
<text text-anchor="middle" x="824" y="-374.3" font-family="Times,serif" font-size="14.00">string.h</text>
</a>
</g>
</g>
<!-- 18&#45;&gt;20 -->
<g id="edge31" class="edge">
<title>18&#45;&gt;20</title>
<g id="a_edge31"><a xlink:title="include">
<path fill="none" stroke="#1414ce" d="M848.09,-431.7C844.45,-423.73 840.05,-414.1 836.01,-405.26"/>
<polygon fill="#1414ce" stroke="#1414ce" points="839.16,-403.74 831.82,-396.1 832.79,-406.65 839.16,-403.74"/>
</a>
</g>
</g>
<!-- 18&#45;&gt;9 -->
<g id="edge35" class="edge">
<title>18&#45;&gt;9</title>
<g id="a_edge35"><a xlink:title="include">
<path fill="none" stroke="#1414ce" d="M823.36,-444.56C774.04,-437.13 684.12,-420.54 664,-396 661.8,-393.32 648.56,-192.24 643.75,-118.08"/>
<polygon fill="#1414ce" stroke="#1414ce" points="647.24,-117.85 643.1,-108.1 640.26,-118.3 647.24,-117.85"/>
</a>
</g>
</g>
<!-- 18&#45;&gt;16 -->
<g id="edge29" class="edge">
<title>18&#45;&gt;16</title>
<g id="a_edge29"><a xlink:title="include">
<path fill="none" stroke="#1414ce" d="M888.52,-444.93C917.75,-439.35 959.06,-426.3 979,-396 1039.09,-304.68 954.53,-171.19 913.79,-116.15"/>
<polygon fill="#1414ce" stroke="#1414ce" points="916.47,-113.89 907.66,-108.01 910.88,-118.1 916.47,-113.89"/>
</a>
</g>
</g>
<!-- 8&#45;&gt;9 -->
<g id="edge36" class="edge">
<title>8&#45;&gt;9</title>
<g id="a_edge36"><a xlink:title="include">
<path fill="none" stroke="#1414ce" d="M575.75,-143.7C586.84,-134.88 600.47,-124.03 612.49,-114.47"/>
<polygon fill="#1414ce" stroke="#1414ce" points="614.85,-117.07 620.5,-108.1 610.49,-111.59 614.85,-117.07"/>
</a>
</g>
</g>
<!-- 11 -->
<g id="node17" class="node">
<title>11</title>
<g id="a_node17"><a xlink:title="limits.h">
<polygon fill="#ffffff" stroke="black" points="579.5,-36 508.5,-36 508.5,0 579.5,0 579.5,-36"/>
<text text-anchor="middle" x="544" y="-14.3" font-family="Times,serif" font-size="14.00">limits.h</text>
</a>
</g>
</g>
<!-- 6 -->
<g id="node18" class="node">
<title>6</title>
<g id="a_node18"><a xlink:title="atom_table.h">
<polygon fill="#ffffff" stroke="black" points="1216.5,-252 1107.5,-252 1107.5,-216 1216.5,-216 1216.5,-252"/>
<text text-anchor="middle" x="1162" y="-230.3" font-family="Times,serif" font-size="14.00">atom_table.h</text>
</a>
</g>
</g>
<!-- 6&#45;&gt;7 -->
<g id="edge37" class="edge">
<title>6&#45;&gt;7</title>
<g id="a_edge37"><a xlink:title="include">
<path fill="none" stroke="#1414ce" d="M1107.24,-226.66C1034.49,-217.9 902.09,-200.8 790,-180 719.61,-166.94 702.93,-159.34 633,-144 563.34,-128.72 482.68,-111.99 431.51,-101.49"/>
<polygon fill="#1414ce" stroke="#1414ce" points="432.19,-98.06 421.69,-99.48 430.78,-104.92 432.19,-98.06"/>
</a>
</g>
</g>
<!-- 6&#45;&gt;4 -->
<g id="edge38" class="edge">
<title>6&#45;&gt;4</title>
<g id="a_edge38"><a xlink:title="include">
<path fill="none" stroke="#1414ce" d="M1159.28,-215.7C1158.07,-207.98 1156.61,-198.71 1155.26,-190.11"/>
<polygon fill="#1414ce" stroke="#1414ce" points="1158.7,-189.44 1153.69,-180.1 1151.78,-190.53 1158.7,-189.44"/>
</a>
</g>
</g>
<!-- 9&#45;&gt;10 -->
<g id="edge39" class="edge">
<title>9&#45;&gt;10</title>
<g id="a_edge39"><a xlink:title="include">
<path fill="none" stroke="#1414ce" d="M666.46,-71.88C679.3,-62.89 695.2,-51.76 709.09,-42.03"/>
<polygon fill="#1414ce" stroke="#1414ce" points="711.26,-44.79 717.44,-36.19 707.24,-39.06 711.26,-44.79"/>
</a>
</g>
</g>
<!-- 9&#45;&gt;3 -->
<g id="edge42" class="edge">
<title>9&#45;&gt;3</title>
<g id="a_edge42"><a xlink:title="include">
<path fill="none" stroke="#1414ce" d="M704.79,-75C765.32,-61.51 855.49,-41.41 909.74,-29.31"/>
<polygon fill="#1414ce" stroke="#1414ce" points="910.76,-32.67 919.76,-27.08 909.24,-25.84 910.76,-32.67"/>
</a>
</g>
</g>
<!-- 9&#45;&gt;11 -->
<g id="edge40" class="edge">
<title>9&#45;&gt;11</title>
<g id="a_edge40"><a xlink:title="include">
<path fill="none" stroke="#1414ce" d="M618.03,-71.88C605.45,-62.89 589.87,-51.76 576.25,-42.03"/>
<polygon fill="#1414ce" stroke="#1414ce" points="578.24,-39.15 568.07,-36.19 574.17,-44.85 578.24,-39.15"/>
</a>
</g>
</g>
<!-- 12 -->
<g id="node28" class="node">
<title>12</title>
<g id="a_node28"><a xlink:title="inttypes.h">
<polygon fill="#ffffff" stroke="black" points="686.5,-36 597.5,-36 597.5,0 686.5,0 686.5,-36"/>
<text text-anchor="middle" x="642" y="-14.3" font-family="Times,serif" font-size="14.00">inttypes.h</text>
</a>
</g>
</g>
<!-- 9&#45;&gt;12 -->
<g id="edge41" class="edge">
<title>9&#45;&gt;12</title>
<g id="a_edge41"><a xlink:title="include">
<path fill="none" stroke="#1414ce" d="M642,-71.7C642,-63.98 642,-54.71 642,-46.11"/>
<polygon fill="#1414ce" stroke="#1414ce" points="645.5,-46.1 642,-36.1 638.5,-46.1 645.5,-46.1"/>
</a>
</g>
</g>
<!-- 2&#45;&gt;4 -->
<g id="edge44" class="edge">
<title>2&#45;&gt;4</title>
<g id="a_edge44"><a xlink:title="include">
<path fill="none" stroke="#1414ce" d="M505.88,-577.33C508.62,-576.84 511.33,-576.4 514,-576 761.12,-539.16 834.42,-607.41 1075,-540 1157.12,-516.99 1245,-536.28 1245,-451 1245,-451 1245,-451 1245,-305 1245,-264.55 1248.27,-249.77 1226,-216 1217.66,-203.35 1205.17,-192.78 1192.76,-184.5"/>
<polygon fill="#1414ce" stroke="#1414ce" points="1194.57,-181.5 1184.24,-179.13 1190.84,-187.42 1194.57,-181.5"/>
</a>
</g>
</g>
<!-- 2&#45;&gt;15 -->
<g id="edge51" class="edge">
<title>2&#45;&gt;15</title>
<g id="a_edge51"><a xlink:title="include">
<path fill="none" stroke="#1414ce" d="M392.44,-575.85C376.31,-567.64 360.2,-556.01 351,-540 298.89,-449.35 342.24,-317.88 365.09,-261.88"/>
<polygon fill="#1414ce" stroke="#1414ce" points="368.46,-262.91 369.1,-252.33 362,-260.2 368.46,-262.91"/>
</a>
</g>
</g>
<!-- 2&#45;&gt;14 -->
<g id="edge48" class="edge">
<title>2&#45;&gt;14</title>
<g id="a_edge48"><a xlink:title="include">
<path fill="none" stroke="#1414ce" d="M378.39,-578.98C315.95,-561.03 230,-523.21 230,-451 230,-451 230,-451 230,-305 230,-260.35 258.66,-215.52 279.82,-188.51"/>
<polygon fill="#1414ce" stroke="#1414ce" points="282.82,-190.36 286.38,-180.38 277.37,-185.96 282.82,-190.36"/>
</a>
</g>
</g>
<!-- 2&#45;&gt;3 -->
<g id="edge43" class="edge">
<title>2&#45;&gt;3</title>
<g id="a_edge43"><a xlink:title="include">
<path fill="none" stroke="#1414ce" d="M505.88,-577.3C508.61,-576.82 511.33,-576.39 514,-576 656.74,-555.35 1026.27,-588.75 1162,-540 1224.83,-517.43 1283,-517.76 1283,-451 1283,-451 1283,-451 1283,-161 1283,-40.14 1092.75,-21.04 1002.48,-18.78"/>
<polygon fill="#1414ce" stroke="#1414ce" points="1002.31,-15.27 992.24,-18.58 1002.18,-22.27 1002.31,-15.27"/>
</a>
</g>
</g>
<!-- 2&#45;&gt;18 -->
<g id="edge52" class="edge">
<title>2&#45;&gt;18</title>
<g id="a_edge52"><a xlink:title="include">
<path fill="none" stroke="#1414ce" d="M491.94,-575.87C574.16,-547.67 736.6,-491.95 813.6,-465.54"/>
<polygon fill="#1414ce" stroke="#1414ce" points="815.11,-468.72 823.44,-462.17 812.84,-462.1 815.11,-468.72"/>
</a>
</g>
</g>
<!-- 2&#45;&gt;8 -->
<g id="edge46" class="edge">
<title>2&#45;&gt;8</title>
<g id="a_edge46"><a xlink:title="include">
<path fill="none" stroke="#1414ce" d="M446.64,-575.84C449.42,-565.48 452.98,-552 456,-540 476.06,-460.23 478.38,-439.62 499,-360 514.83,-298.89 535.2,-227.64 546.17,-189.82"/>
<polygon fill="#1414ce" stroke="#1414ce" points="549.57,-190.65 549,-180.07 542.85,-188.69 549.57,-190.65"/>
</a>
</g>
</g>
<!-- 2&#45;&gt;6 -->
<g id="edge45" class="edge">
<title>2&#45;&gt;6</title>
<g id="a_edge45"><a xlink:title="include">
<path fill="none" stroke="#1414ce" d="M505.58,-577.86C508.42,-577.22 511.24,-576.6 514,-576 652.61,-545.81 1140,-592.86 1140,-451 1140,-451 1140,-451 1140,-377 1140,-336.74 1148.74,-290.81 1155.21,-262.36"/>
<polygon fill="#1414ce" stroke="#1414ce" points="1158.68,-262.89 1157.55,-252.35 1151.86,-261.29 1158.68,-262.89"/>
</a>
</g>
</g>
<!-- 2&#45;&gt;17 -->
<g id="edge50" class="edge">
<title>2&#45;&gt;17</title>
<g id="a_edge50"><a xlink:title="include">
<path fill="none" stroke="#1414ce" d="M442,-575.95C442,-549.29 442,-496.11 442,-451 442,-451 442,-451 442,-377 442,-305.17 456.72,-281.83 428,-216 423.44,-205.55 415.97,-195.77 408.27,-187.53"/>
<polygon fill="#1414ce" stroke="#1414ce" points="410.73,-185.05 401.2,-180.42 405.77,-189.98 410.73,-185.05"/>
</a>
</g>
</g>
<!-- 27 -->
<g id="node24" class="node">
<title>27</title>
<g id="a_node24"><a xlink:title="timer_list.h">
<polygon fill="#ffffff" stroke="black" points="98,-252 0,-252 0,-216 98,-216 98,-252"/>
<text text-anchor="middle" x="49" y="-230.3" font-family="Times,serif" font-size="14.00">timer_list.h</text>
</a>
</g>
</g>
<!-- 2&#45;&gt;27 -->
<g id="edge53" class="edge">
<title>2&#45;&gt;27</title>
<g id="a_edge53"><a xlink:title="include">
<path fill="none" stroke="#1414ce" d="M378.33,-590.5C323.16,-585.99 242.73,-573.6 181,-540 132.42,-513.55 94,-506.32 94,-451 94,-451 94,-451 94,-377 94,-335.13 76,-289.42 62.77,-261.48"/>
<polygon fill="#1414ce" stroke="#1414ce" points="65.85,-259.82 58.32,-252.37 59.56,-262.89 65.85,-259.82"/>
</a>
</g>
</g>
<!-- 26 -->
<g id="node25" class="node">
<title>26</title>
<g id="a_node25"><a xlink:title="mailbox.h">
<polygon fill="#ffffff" stroke="black" points="202,-252 116,-252 116,-216 202,-216 202,-252"/>
<text text-anchor="middle" x="159" y="-230.3" font-family="Times,serif" font-size="14.00">mailbox.h</text>
</a>
</g>
</g>
<!-- 2&#45;&gt;26 -->
<g id="edge49" class="edge">
<title>2&#45;&gt;26</title>
<g id="a_edge49"><a xlink:title="include">
<path fill="none" stroke="#1414ce" d="M378.33,-592.82C328.99,-589.48 261.56,-577.55 216,-540 182.54,-512.42 176,-494.37 176,-451 176,-451 176,-451 176,-377 176,-336.93 169.24,-290.95 164.25,-262.43"/>
<polygon fill="#1414ce" stroke="#1414ce" points="167.66,-261.63 162.44,-252.41 160.77,-262.87 167.66,-261.63"/>
</a>
</g>
</g>
<!-- 13 -->
<g id="node27" class="node">
<title>13</title>
<g id="a_node27"><a xlink:title="ets.h">
<polygon fill="#ffffff" stroke="black" points="414,-540 360,-540 360,-504 414,-504 414,-540"/>
<text text-anchor="middle" x="387" y="-518.3" font-family="Times,serif" font-size="14.00">ets.h</text>
</a>
</g>
</g>
<!-- 2&#45;&gt;13 -->
<g id="edge47" class="edge">
<title>2&#45;&gt;13</title>
<g id="a_edge47"><a xlink:title="include">
<path fill="none" stroke="#1414ce" d="M428.4,-575.7C421.88,-567.39 413.93,-557.28 406.75,-548.14"/>
<polygon fill="#1414ce" stroke="#1414ce" points="409.37,-545.81 400.44,-540.1 403.87,-550.13 409.37,-545.81"/>
</a>
</g>
</g>
<!-- 17&#45;&gt;7 -->
<g id="edge54" class="edge">
<title>17&#45;&gt;7</title>
<g id="a_edge54"><a xlink:title="include">
<path fill="none" stroke="#1414ce" d="M380,-143.7C380,-135.98 380,-126.71 380,-118.11"/>
<polygon fill="#1414ce" stroke="#1414ce" points="383.5,-118.1 380,-108.1 376.5,-118.1 383.5,-118.1"/>
</a>
</g>
</g>
<!-- 27&#45;&gt;7 -->
<g id="edge55" class="edge">
<title>27&#45;&gt;7</title>
<g id="a_edge55"><a xlink:title="include">
<path fill="none" stroke="#1414ce" d="M71.77,-215.67C98.71,-195.89 145.55,-163.72 190,-144 234.97,-124.05 289.3,-109.8 328.33,-101.14"/>
<polygon fill="#1414ce" stroke="#1414ce" points="329.38,-104.49 338.41,-98.95 327.89,-97.65 329.38,-104.49"/>
</a>
</g>
</g>
<!-- 27&#45;&gt;14 -->
<g id="edge57" class="edge">
<title>27&#45;&gt;14</title>
<g id="a_edge57"><a xlink:title="include">
<path fill="none" stroke="#1414ce" d="M98.03,-218.56C101.06,-217.68 104.07,-216.83 107,-216 161.97,-200.47 225.9,-183.26 265.16,-172.78"/>
<polygon fill="#1414ce" stroke="#1414ce" points="266.06,-176.16 274.82,-170.2 264.26,-169.4 266.06,-176.16"/>
</a>
</g>
</g>
<!-- 27&#45;&gt;3 -->
<g id="edge56" class="edge">
<title>27&#45;&gt;3</title>
<g id="a_edge56"><a xlink:title="include">
<path fill="none" stroke="#1414ce" d="M58.97,-215.85C71.36,-195.92 94.3,-163.33 122,-144 201.88,-88.26 233.66,-91.97 329,-72 529.28,-30.04 584.19,-54.3 788,-36 829.28,-32.29 876.2,-27.5 909.95,-23.94"/>
<polygon fill="#1414ce" stroke="#1414ce" points="910.4,-27.41 919.97,-22.88 909.66,-20.45 910.4,-27.41"/>
</a>
</g>
</g>
<!-- 26&#45;&gt;7 -->
<g id="edge58" class="edge">
<title>26&#45;&gt;7</title>
<g id="a_edge58"><a xlink:title="include">
<path fill="none" stroke="#1414ce" d="M168.2,-215.83C179.7,-195.9 201.17,-163.29 228,-144 257.89,-122.51 297.27,-109.1 328.46,-101.15"/>
<polygon fill="#1414ce" stroke="#1414ce" points="329.39,-104.52 338.27,-98.75 327.73,-97.72 329.39,-104.52"/>
</a>
</g>
</g>
<!-- 26&#45;&gt;22 -->
<g id="edge61" class="edge">
<title>26&#45;&gt;22</title>
<g id="a_edge61"><a xlink:title="include">
<path fill="none" stroke="#1414ce" d="M202.25,-228.49C324.07,-215.78 668.93,-179.8 788.54,-167.33"/>
<polygon fill="#1414ce" stroke="#1414ce" points="789.16,-170.78 798.74,-166.26 788.43,-163.82 789.16,-170.78"/>
</a>
</g>
</g>
<!-- 26&#45;&gt;14 -->
<g id="edge59" class="edge">
<title>26&#45;&gt;14</title>
<g id="a_edge59"><a xlink:title="include">
<path fill="none" stroke="#1414ce" d="M193.98,-215.88C215.83,-205.18 243.9,-191.44 265.95,-180.65"/>
<polygon fill="#1414ce" stroke="#1414ce" points="267.55,-183.76 274.99,-176.22 264.47,-177.47 267.55,-183.76"/>
</a>
</g>
</g>
<!-- 26&#45;&gt;9 -->
<g id="edge60" class="edge">
<title>26&#45;&gt;9</title>
<g id="a_edge60"><a xlink:title="include">
<path fill="none" stroke="#1414ce" d="M180.9,-215.81C193.84,-205.55 210.48,-192.19 225,-180 243.57,-164.4 243.96,-154.12 266,-144 318.53,-119.89 475.52,-103.94 569.22,-96.29"/>
<polygon fill="#1414ce" stroke="#1414ce" points="569.51,-99.77 579.2,-95.48 568.95,-92.8 569.51,-99.77"/>
</a>
</g>
</g>
<!-- 13&#45;&gt;15 -->
<g id="edge63" class="edge">
<title>13&#45;&gt;15</title>
<g id="a_edge63"><a xlink:title="include">
<path fill="none" stroke="#1414ce" d="M386.4,-503.97C384.74,-456.29 380.01,-321.18 377.97,-262.63"/>
<polygon fill="#1414ce" stroke="#1414ce" points="381.45,-262.18 377.61,-252.31 374.46,-262.42 381.45,-262.18"/>
</a>
</g>
</g>
<!-- 13&#45;&gt;14 -->
<g id="edge62" class="edge">
<title>13&#45;&gt;14</title>
<g id="a_edge62"><a xlink:title="include">
<path fill="none" stroke="#1414ce" d="M380,-503.76C363.29,-461.63 321.26,-349.77 305,-252 301.6,-231.54 300.94,-208.08 301.08,-190.39"/>
<polygon fill="#1414ce" stroke="#1414ce" points="304.58,-190.25 301.25,-180.19 297.58,-190.13 304.58,-190.25"/>
</a>
</g>
</g>
<!-- 13&#45;&gt;18 -->
<g id="edge64" class="edge">
<title>13&#45;&gt;18</title>
<g id="a_edge64"><a xlink:title="include">
<path fill="none" stroke="#1414ce" d="M414.24,-516.93C492.54,-505.25 718.63,-471.5 813.4,-457.36"/>
<polygon fill="#1414ce" stroke="#1414ce" points="814.12,-460.79 823.49,-455.85 813.09,-453.87 814.12,-460.79"/>
</a>
</g>
</g>
</g>
</svg>
