<?xml version="1.0" encoding="UTF-8" standalone="no"?>
<!DOCTYPE svg PUBLIC "-//W3C//DTD SVG 1.1//EN"
 "http://www.w3.org/Graphics/SVG/1.1/DTD/svg11.dtd">
<!-- Generated by graphviz version 2.43.0 (0)
 -->
<!-- Title: %3 Pages: 1 -->
<svg width="1655pt" height="836pt"
 viewBox="0.00 0.00 1655.00 836.00" xmlns="http://www.w3.org/2000/svg" xmlns:xlink="http://www.w3.org/1999/xlink">
<g id="graph0" class="graph" transform="scale(1 1) rotate(0) translate(4 832)">
<title>%3</title>
<polygon fill="transparent" stroke="transparent" points="-4,4 -4,-832 1651,-832 1651,4 -4,4"/>
<!-- 7 -->
<g id="node1" class="node">
<title>7</title>
<g id="a_node1"><a xlink:title="stdbool.h">
<polygon fill="#ffffff" stroke="black" points="725.5,-108 642.5,-108 642.5,-72 725.5,-72 725.5,-108"/>
<text text-anchor="middle" x="684" y="-86.3" font-family="Times,serif" font-size="14.00">stdbool.h</text>
</a>
</g>
</g>
<!-- 24 -->
<g id="node2" class="node">
<title>24</title>
<g id="a_node2"><a xlink:title="refc_binary.h">
<polygon fill="#ffffff" stroke="black" points="1134,-396 1026,-396 1026,-360 1134,-360 1134,-396"/>
<text text-anchor="middle" x="1080" y="-374.3" font-family="Times,serif" font-size="14.00">refc_binary.h</text>
</a>
</g>
</g>
<!-- 24&#45;&gt;7 -->
<g id="edge1" class="edge">
<title>24&#45;&gt;7</title>
<g id="a_edge1"><a xlink:title="include">
<path fill="none" stroke="#1414ce" d="M1056.08,-359.91C1044.38,-350.48 1030.93,-337.88 1022,-324 994.69,-281.57 1017.63,-256.1 987,-216 926.05,-136.21 805.18,-107.03 735.94,-96.6"/>
<polygon fill="#1414ce" stroke="#1414ce" points="736.1,-93.08 725.7,-95.13 735.11,-100.01 736.1,-93.08"/>
</a>
</g>
</g>
<!-- 14 -->
<g id="node8" class="node">
<title>14</title>
<g id="a_node8"><a xlink:title="list.h">
<polygon fill="#ffffff" stroke="black" points="711,-180 657,-180 657,-144 711,-144 711,-180"/>
<text text-anchor="middle" x="684" y="-158.3" font-family="Times,serif" font-size="14.00">list.h</text>
</a>
</g>
</g>
<!-- 24&#45;&gt;14 -->
<g id="edge3" class="edge">
<title>24&#45;&gt;14</title>
<g id="a_edge3"><a xlink:title="include">
<path fill="none" stroke="#1414ce" d="M1033.67,-359.86C977.18,-338.14 879.65,-297.95 802,-252 769.21,-232.59 734.76,-205.76 711.6,-186.64"/>
<polygon fill="#1414ce" stroke="#1414ce" points="713.83,-183.94 703.91,-180.22 709.35,-189.31 713.83,-183.94"/>
</a>
</g>
</g>
<!-- 5 -->
<g id="node10" class="node">
<title>5</title>
<g id="a_node10"><a xlink:title="stdlib.h">
<polygon fill="#ffffff" stroke="black" points="1213.5,-108 1142.5,-108 1142.5,-72 1213.5,-72 1213.5,-108"/>
<text text-anchor="middle" x="1178" y="-86.3" font-family="Times,serif" font-size="14.00">stdlib.h</text>
</a>
</g>
</g>
<!-- 24&#45;&gt;5 -->
<g id="edge2" class="edge">
<title>24&#45;&gt;5</title>
<g id="a_edge2"><a xlink:title="include">
<path fill="none" stroke="#1414ce" d="M1106.6,-359.92C1118.71,-350.74 1132.07,-338.36 1140,-324 1176.97,-257.04 1180.23,-163.89 1179.29,-118.32"/>
<polygon fill="#1414ce" stroke="#1414ce" points="1182.78,-117.95 1178.98,-108.05 1175.78,-118.15 1182.78,-117.95"/>
</a>
</g>
</g>
<!-- 25 -->
<g id="node13" class="node">
<title>25</title>
<g id="a_node13"><a xlink:title="resources.h">
<polygon fill="#ffffff" stroke="black" points="1131,-324 1031,-324 1031,-288 1131,-288 1131,-324"/>
<text text-anchor="middle" x="1081" y="-302.3" font-family="Times,serif" font-size="14.00">resources.h</text>
</a>
</g>
</g>
<!-- 24&#45;&gt;25 -->
<g id="edge4" class="edge">
<title>24&#45;&gt;25</title>
<g id="a_edge4"><a xlink:title="include">
<path fill="none" stroke="#1414ce" d="M1080.25,-359.7C1080.36,-351.98 1080.49,-342.71 1080.61,-334.11"/>
<polygon fill="#1414ce" stroke="#1414ce" points="1084.11,-334.15 1080.76,-324.1 1077.11,-334.05 1084.11,-334.15"/>
</a>
</g>
</g>
<!-- 28 -->
<g id="node3" class="node">
<title>28</title>
<g id="a_node3"><a xlink:title="nifs.h">
<polygon fill="#ffffff" stroke="black" points="380,-756 324,-756 324,-720 380,-720 380,-756"/>
<text text-anchor="middle" x="352" y="-734.3" font-family="Times,serif" font-size="14.00">nifs.h</text>
</a>
</g>
</g>
<!-- 4 -->
<g id="node4" class="node">
<title>4</title>
<g id="a_node4"><a xlink:title="atom.h">
<polygon fill="#ffffff" stroke="black" points="472,-468 406,-468 406,-432 472,-432 472,-468"/>
<text text-anchor="middle" x="439" y="-446.3" font-family="Times,serif" font-size="14.00">atom.h</text>
</a>
</g>
</g>
<!-- 28&#45;&gt;4 -->
<g id="edge5" class="edge">
<title>28&#45;&gt;4</title>
<g id="a_edge5"><a xlink:title="include">
<path fill="none" stroke="#1414ce" d="M357.18,-719.97C371.74,-672.09 413.13,-536.06 430.82,-477.9"/>
<polygon fill="#1414ce" stroke="#1414ce" points="434.17,-478.89 433.74,-468.31 427.48,-476.85 434.17,-478.89"/>
</a>
</g>
</g>
<!-- 29 -->
<g id="node11" class="node">
<title>29</title>
<g id="a_node11"><a xlink:title="context.h">
<polygon fill="#ffffff" stroke="black" points="590.5,-684 507.5,-684 507.5,-648 590.5,-648 590.5,-684"/>
<text text-anchor="middle" x="549" y="-662.3" font-family="Times,serif" font-size="14.00">context.h</text>
</a>
</g>
</g>
<!-- 28&#45;&gt;29 -->
<g id="edge6" class="edge">
<title>28&#45;&gt;29</title>
<g id="a_edge6"><a xlink:title="include">
<path fill="none" stroke="#1414ce" d="M380.23,-726.97C410.79,-716.11 460.2,-698.55 497.68,-685.23"/>
<polygon fill="#1414ce" stroke="#1414ce" points="499.17,-688.42 507.42,-681.77 496.83,-681.82 499.17,-688.42"/>
</a>
</g>
</g>
<!-- 30 -->
<g id="node17" class="node">
<title>30</title>
<g id="a_node17"><a xlink:title="exportedfunction.h">
<polygon fill="#ffffff" stroke="black" points="1377,-612 1225,-612 1225,-576 1377,-576 1377,-612"/>
<text text-anchor="middle" x="1301" y="-590.3" font-family="Times,serif" font-size="14.00">exportedfunction.h</text>
</a>
</g>
</g>
<!-- 28&#45;&gt;30 -->
<g id="edge7" class="edge">
<title>28&#45;&gt;30</title>
<g id="a_edge7"><a xlink:title="include">
<path fill="none" stroke="#1414ce" d="M380.14,-732.79C504.87,-714.13 1010.58,-638.46 1214.82,-607.89"/>
<polygon fill="#1414ce" stroke="#1414ce" points="1215.53,-611.33 1224.9,-606.39 1214.5,-604.4 1215.53,-611.33"/>
</a>
</g>
</g>
<!-- 3 -->
<g id="node9" class="node">
<title>3</title>
<g id="a_node9"><a xlink:title="stdint.h">
<polygon fill="#ffffff" stroke="black" points="728,-36 656,-36 656,0 728,0 728,-36"/>
<text text-anchor="middle" x="692" y="-14.3" font-family="Times,serif" font-size="14.00">stdint.h</text>
</a>
</g>
</g>
<!-- 4&#45;&gt;3 -->
<g id="edge8" class="edge">
<title>4&#45;&gt;3</title>
<g id="a_edge8"><a xlink:title="include">
<path fill="none" stroke="#1414ce" d="M418.19,-431.97C379.87,-398.54 302,-320.14 302,-235 302,-235 302,-235 302,-161 302,-104.74 342.03,-97.84 392,-72 474.16,-29.51 584.07,-20.34 645.47,-18.79"/>
<polygon fill="#1414ce" stroke="#1414ce" points="645.7,-22.29 655.63,-18.6 645.56,-15.29 645.7,-22.29"/>
</a>
</g>
</g>
<!-- 4&#45;&gt;5 -->
<g id="edge9" class="edge">
<title>4&#45;&gt;5</title>
<g id="a_edge9"><a xlink:title="include">
<path fill="none" stroke="#1414ce" d="M469.51,-431.87C540.87,-392.05 724.65,-290.94 883,-216 970.16,-174.75 1074.54,-132.05 1132.86,-108.78"/>
<polygon fill="#1414ce" stroke="#1414ce" points="1134.17,-112.02 1142.16,-105.07 1131.58,-105.52 1134.17,-112.02"/>
</a>
</g>
</g>
<!-- 10 -->
<g id="node5" class="node">
<title>10</title>
<g id="a_node5"><a xlink:title="assert.h">
<polygon fill="#ffffff" stroke="black" points="1647,-36 1573,-36 1573,0 1647,0 1647,-36"/>
<text text-anchor="middle" x="1610" y="-14.3" font-family="Times,serif" font-size="14.00">assert.h</text>
</a>
</g>
</g>
<!-- 22 -->
<g id="node6" class="node">
<title>22</title>
<g id="a_node6"><a xlink:title="utils.h">
<polygon fill="#ffffff" stroke="black" points="1362,-180 1300,-180 1300,-144 1362,-144 1362,-180"/>
<text text-anchor="middle" x="1331" y="-158.3" font-family="Times,serif" font-size="14.00">utils.h</text>
</a>
</g>
</g>
<!-- 22&#45;&gt;5 -->
<g id="edge12" class="edge">
<title>22&#45;&gt;5</title>
<g id="a_edge12"><a xlink:title="include">
<path fill="none" stroke="#1414ce" d="M1299.67,-146.67C1277.5,-136.52 1247.44,-122.77 1222.75,-111.47"/>
<polygon fill="#1414ce" stroke="#1414ce" points="1224.12,-108.25 1213.57,-107.28 1221.21,-114.62 1224.12,-108.25"/>
</a>
</g>
</g>
<!-- 23 -->
<g id="node15" class="node">
<title>23</title>
<g id="a_node15"><a xlink:title="stddef.h">
<polygon fill="#ffffff" stroke="black" points="1346,-108 1272,-108 1272,-72 1346,-72 1346,-108"/>
<text text-anchor="middle" x="1309" y="-86.3" font-family="Times,serif" font-size="14.00">stddef.h</text>
</a>
</g>
</g>
<!-- 22&#45;&gt;23 -->
<g id="edge10" class="edge">
<title>22&#45;&gt;23</title>
<g id="a_edge10"><a xlink:title="include">
<path fill="none" stroke="#1414ce" d="M1325.56,-143.7C1323.11,-135.9 1320.16,-126.51 1317.43,-117.83"/>
<polygon fill="#1414ce" stroke="#1414ce" points="1320.71,-116.59 1314.38,-108.1 1314.04,-118.69 1320.71,-116.59"/>
</a>
</g>
</g>
<!-- 16 -->
<g id="node28" class="node">
<title>16</title>
<g id="a_node28"><a xlink:title="stdio.h">
<polygon fill="#ffffff" stroke="black" points="1429.5,-108 1364.5,-108 1364.5,-72 1429.5,-72 1429.5,-108"/>
<text text-anchor="middle" x="1397" y="-86.3" font-family="Times,serif" font-size="14.00">stdio.h</text>
</a>
</g>
</g>
<!-- 22&#45;&gt;16 -->
<g id="edge11" class="edge">
<title>22&#45;&gt;16</title>
<g id="a_edge11"><a xlink:title="include">
<path fill="none" stroke="#1414ce" d="M1347.31,-143.7C1355.31,-135.22 1365.07,-124.86 1373.82,-115.58"/>
<polygon fill="#1414ce" stroke="#1414ce" points="1376.56,-117.78 1380.87,-108.1 1371.47,-112.98 1376.56,-117.78"/>
</a>
</g>
</g>
<!-- 15 -->
<g id="node7" class="node">
<title>15</title>
<g id="a_node7"><a xlink:title="synclist.h">
<polygon fill="#ffffff" stroke="black" points="645.5,-252 560.5,-252 560.5,-216 645.5,-216 645.5,-252"/>
<text text-anchor="middle" x="603" y="-230.3" font-family="Times,serif" font-size="14.00">synclist.h</text>
</a>
</g>
</g>
<!-- 15&#45;&gt;14 -->
<g id="edge14" class="edge">
<title>15&#45;&gt;14</title>
<g id="a_edge14"><a xlink:title="include">
<path fill="none" stroke="#1414ce" d="M623.02,-215.7C633.13,-206.97 645.54,-196.24 656.52,-186.75"/>
<polygon fill="#1414ce" stroke="#1414ce" points="658.93,-189.29 664.21,-180.1 654.35,-183.99 658.93,-189.29"/>
</a>
</g>
</g>
<!-- 17 -->
<g id="node24" class="node">
<title>17</title>
<g id="a_node24"><a xlink:title="smp.h">
<polygon fill="#ffffff" stroke="black" points="428,-180 368,-180 368,-144 428,-144 428,-180"/>
<text text-anchor="middle" x="398" y="-158.3" font-family="Times,serif" font-size="14.00">smp.h</text>
</a>
</g>
</g>
<!-- 15&#45;&gt;17 -->
<g id="edge15" class="edge">
<title>15&#45;&gt;17</title>
<g id="a_edge15"><a xlink:title="include">
<path fill="none" stroke="#1414ce" d="M560.03,-218.33C524.12,-206.07 473.3,-188.71 438.2,-176.73"/>
<polygon fill="#1414ce" stroke="#1414ce" points="438.88,-173.26 428.29,-173.34 436.62,-179.89 438.88,-173.26"/>
</a>
</g>
</g>
<!-- 15&#45;&gt;16 -->
<g id="edge13" class="edge">
<title>15&#45;&gt;16</title>
<g id="a_edge13"><a xlink:title="include">
<path fill="none" stroke="#1414ce" d="M645.7,-229.22C760.23,-218.39 1083.3,-183.23 1354.6,-107.76"/>
<polygon fill="#1414ce" stroke="#1414ce" points="1355.54,-111.13 1364.22,-105.06 1353.65,-104.39 1355.54,-111.13"/>
</a>
</g>
</g>
<!-- 14&#45;&gt;7 -->
<g id="edge16" class="edge">
<title>14&#45;&gt;7</title>
<g id="a_edge16"><a xlink:title="include">
<path fill="none" stroke="#1414ce" d="M684,-143.7C684,-135.98 684,-126.71 684,-118.11"/>
<polygon fill="#1414ce" stroke="#1414ce" points="687.5,-118.1 684,-108.1 680.5,-118.1 687.5,-118.1"/>
</a>
</g>
</g>
<!-- 29&#45;&gt;14 -->
<g id="edge18" class="edge">
<title>29&#45;&gt;14</title>
<g id="a_edge18"><a xlink:title="include">
<path fill="none" stroke="#1414ce" d="M590.65,-655.49C649.52,-639.3 750,-600.33 750,-523 750,-523 750,-523 750,-377 750,-306.75 717.12,-229.06 697.78,-189.43"/>
<polygon fill="#1414ce" stroke="#1414ce" points="700.77,-187.59 693.18,-180.2 694.5,-190.71 700.77,-187.59"/>
</a>
</g>
</g>
<!-- 18 -->
<g id="node14" class="node">
<title>18</title>
<g id="a_node14"><a xlink:title="term.h">
<polygon fill="#ffffff" stroke="black" points="1172.5,-468 1107.5,-468 1107.5,-432 1172.5,-432 1172.5,-468"/>
<text text-anchor="middle" x="1140" y="-446.3" font-family="Times,serif" font-size="14.00">term.h</text>
</a>
</g>
</g>
<!-- 29&#45;&gt;18 -->
<g id="edge21" class="edge">
<title>29&#45;&gt;18</title>
<g id="a_edge21"><a xlink:title="include">
<path fill="none" stroke="#1414ce" d="M590.56,-660.48C667.53,-651.76 829.22,-631.74 882,-612 972.55,-578.14 1065.56,-510.35 1111.18,-474.49"/>
<polygon fill="#1414ce" stroke="#1414ce" points="1113.48,-477.14 1119.14,-468.18 1109.13,-471.65 1113.48,-477.14"/>
</a>
</g>
</g>
<!-- 2 -->
<g id="node23" class="node">
<title>2</title>
<g id="a_node23"><a xlink:title="globalcontext.h">
<polygon fill="#ffffff" stroke="black" points="612.5,-612 485.5,-612 485.5,-576 612.5,-576 612.5,-612"/>
<text text-anchor="middle" x="549" y="-590.3" font-family="Times,serif" font-size="14.00">globalcontext.h</text>
</a>
</g>
</g>
<!-- 29&#45;&gt;2 -->
<g id="edge17" class="edge">
<title>29&#45;&gt;2</title>
<g id="a_edge17"><a xlink:title="include">
<path fill="none" stroke="#1414ce" d="M549,-647.7C549,-639.98 549,-630.71 549,-622.11"/>
<polygon fill="#1414ce" stroke="#1414ce" points="552.5,-622.1 549,-612.1 545.5,-622.1 552.5,-622.1"/>
</a>
</g>
</g>
<!-- 29&#45;&gt;17 -->
<g id="edge20" class="edge">
<title>29&#45;&gt;17</title>
<g id="a_edge20"><a xlink:title="include">
<path fill="none" stroke="#1414ce" d="M507.43,-655.93C420.2,-635.69 226,-583.8 226,-523 226,-523 226,-523 226,-305 226,-236.79 307.43,-195.22 358.24,-175.92"/>
<polygon fill="#1414ce" stroke="#1414ce" points="359.46,-179.2 367.65,-172.46 357.05,-172.63 359.46,-179.2"/>
</a>
</g>
</g>
<!-- 27 -->
<g id="node26" class="node">
<title>27</title>
<g id="a_node26"><a xlink:title="timer_list.h">
<polygon fill="#ffffff" stroke="black" points="466,-252 368,-252 368,-216 466,-216 466,-252"/>
<text text-anchor="middle" x="417" y="-230.3" font-family="Times,serif" font-size="14.00">timer_list.h</text>
</a>
</g>
</g>
<!-- 29&#45;&gt;27 -->
<g id="edge22" class="edge">
<title>29&#45;&gt;27</title>
<g id="a_edge22"><a xlink:title="include">
<path fill="none" stroke="#1414ce" d="M515.57,-647.92C479.71,-627.58 424.49,-589.98 399,-540 348.11,-440.22 368.56,-396.85 395,-288 397.16,-279.09 400.61,-269.74 404.15,-261.42"/>
<polygon fill="#1414ce" stroke="#1414ce" points="407.38,-262.76 408.26,-252.21 400.99,-259.91 407.38,-262.76"/>
</a>
</g>
</g>
<!-- 26 -->
<g id="node27" class="node">
<title>26</title>
<g id="a_node27"><a xlink:title="mailbox.h">
<polygon fill="#ffffff" stroke="black" points="978,-252 892,-252 892,-216 978,-216 978,-252"/>
<text text-anchor="middle" x="935" y="-230.3" font-family="Times,serif" font-size="14.00">mailbox.h</text>
</a>
</g>
</g>
<!-- 29&#45;&gt;26 -->
<g id="edge19" class="edge">
<title>29&#45;&gt;26</title>
<g id="a_edge19"><a xlink:title="include">
<path fill="none" stroke="#1414ce" d="M590.62,-660.55C635.46,-654.47 707.93,-640.82 764,-612 818.11,-584.19 868,-583.84 868,-523 868,-523 868,-523 868,-377 868,-332.73 894.97,-287.47 914.69,-260.3"/>
<polygon fill="#1414ce" stroke="#1414ce" points="917.6,-262.25 920.79,-252.14 912,-258.05 917.6,-262.25"/>
</a>
</g>
</g>
<!-- 21 -->
<g id="node12" class="node">
<title>21</title>
<g id="a_node12"><a xlink:title="memory.h">
<polygon fill="#ffffff" stroke="black" points="1310,-252 1224,-252 1224,-216 1310,-216 1310,-252"/>
<text text-anchor="middle" x="1267" y="-230.3" font-family="Times,serif" font-size="14.00">memory.h</text>
</a>
</g>
</g>
<!-- 21&#45;&gt;22 -->
<g id="edge27" class="edge">
<title>21&#45;&gt;22</title>
<g id="a_edge27"><a xlink:title="include">
<path fill="none" stroke="#1414ce" d="M1282.82,-215.7C1290.57,-207.22 1300.04,-196.86 1308.52,-187.58"/>
<polygon fill="#1414ce" stroke="#1414ce" points="1311.2,-189.85 1315.36,-180.1 1306.03,-185.12 1311.2,-189.85"/>
</a>
</g>
</g>
<!-- 21&#45;&gt;3 -->
<g id="edge23" class="edge">
<title>21&#45;&gt;3</title>
<g id="a_edge23"><a xlink:title="include">
<path fill="none" stroke="#1414ce" d="M1267.94,-215.88C1268.74,-182.39 1265.21,-108.32 1222,-72 1185.33,-41.18 860.79,-25.53 738.42,-20.68"/>
<polygon fill="#1414ce" stroke="#1414ce" points="738.37,-17.18 728.25,-20.29 738.1,-24.17 738.37,-17.18"/>
</a>
</g>
</g>
<!-- 21&#45;&gt;5 -->
<g id="edge24" class="edge">
<title>21&#45;&gt;5</title>
<g id="a_edge24"><a xlink:title="include">
<path fill="none" stroke="#1414ce" d="M1256.26,-215.87C1240.83,-191.24 1212.24,-145.64 1194.22,-116.88"/>
<polygon fill="#1414ce" stroke="#1414ce" points="1197.05,-114.8 1188.77,-108.19 1191.12,-118.52 1197.05,-114.8"/>
</a>
</g>
</g>
<!-- 8 -->
<g id="node16" class="node">
<title>8</title>
<g id="a_node16"><a xlink:title="erl_nif.h">
<polygon fill="#ffffff" stroke="black" points="1530,-180 1456,-180 1456,-144 1530,-144 1530,-180"/>
<text text-anchor="middle" x="1493" y="-158.3" font-family="Times,serif" font-size="14.00">erl_nif.h</text>
</a>
</g>
</g>
<!-- 21&#45;&gt;8 -->
<g id="edge25" class="edge">
<title>21&#45;&gt;8</title>
<g id="a_edge25"><a xlink:title="include">
<path fill="none" stroke="#1414ce" d="M1310.04,-219.67C1348.88,-207.64 1405.91,-189.97 1445.95,-177.57"/>
<polygon fill="#1414ce" stroke="#1414ce" points="1447.22,-180.84 1455.74,-174.54 1445.15,-174.16 1447.22,-180.84"/>
</a>
</g>
</g>
<!-- 9 -->
<g id="node22" class="node">
<title>9</title>
<g id="a_node22"><a xlink:title="term_typedef.h">
<polygon fill="#ffffff" stroke="black" points="1572.5,-108 1447.5,-108 1447.5,-72 1572.5,-72 1572.5,-108"/>
<text text-anchor="middle" x="1510" y="-86.3" font-family="Times,serif" font-size="14.00">term_typedef.h</text>
</a>
</g>
</g>
<!-- 21&#45;&gt;9 -->
<g id="edge26" class="edge">
<title>21&#45;&gt;9</title>
<g id="a_edge26"><a xlink:title="include">
<path fill="none" stroke="#1414ce" d="M1302.6,-215.94C1322.9,-205.94 1348.67,-192.8 1371,-180 1407.79,-158.91 1448.49,-132.47 1476.29,-113.9"/>
<polygon fill="#1414ce" stroke="#1414ce" points="1478.49,-116.64 1484.84,-108.17 1474.59,-110.83 1478.49,-116.64"/>
</a>
</g>
</g>
<!-- 25&#45;&gt;15 -->
<g id="edge32" class="edge">
<title>25&#45;&gt;15</title>
<g id="a_edge32"><a xlink:title="include">
<path fill="none" stroke="#1414ce" d="M1030.75,-297.64C939.72,-284.31 748.4,-256.29 655.64,-242.71"/>
<polygon fill="#1414ce" stroke="#1414ce" points="656.04,-239.23 645.64,-241.24 655.03,-246.16 656.04,-239.23"/>
</a>
</g>
</g>
<!-- 25&#45;&gt;14 -->
<g id="edge30" class="edge">
<title>25&#45;&gt;14</title>
<g id="a_edge30"><a xlink:title="include">
<path fill="none" stroke="#1414ce" d="M1030.69,-293.87C990.27,-284.37 932.3,-269.5 883,-252 878.88,-250.54 777,-204.8 720.65,-179.48"/>
<polygon fill="#1414ce" stroke="#1414ce" points="721.92,-176.21 711.36,-175.3 719.05,-182.6 721.92,-176.21"/>
</a>
</g>
</g>
<!-- 25&#45;&gt;5 -->
<g id="edge28" class="edge">
<title>25&#45;&gt;5</title>
<g id="a_edge28"><a xlink:title="include">
<path fill="none" stroke="#1414ce" d="M1086.55,-287.6C1096.4,-257.53 1118.36,-194.27 1144,-144 1148.72,-134.75 1154.62,-125.06 1160.17,-116.54"/>
<polygon fill="#1414ce" stroke="#1414ce" points="1163.13,-118.41 1165.77,-108.15 1157.31,-114.53 1163.13,-118.41"/>
</a>
</g>
</g>
<!-- 25&#45;&gt;21 -->
<g id="edge31" class="edge">
<title>25&#45;&gt;21</title>
<g id="a_edge31"><a xlink:title="include">
<path fill="none" stroke="#1414ce" d="M1126.5,-287.88C1153.05,-277.88 1186.67,-265.23 1214.36,-254.81"/>
<polygon fill="#1414ce" stroke="#1414ce" points="1215.76,-258.02 1223.89,-251.23 1213.29,-251.47 1215.76,-258.02"/>
</a>
</g>
</g>
<!-- 25&#45;&gt;8 -->
<g id="edge29" class="edge">
<title>25&#45;&gt;8</title>
<g id="a_edge29"><a xlink:title="include">
<path fill="none" stroke="#1414ce" d="M1131.27,-297.62C1180.17,-289.55 1256.08,-274.68 1319,-252 1368.52,-234.15 1421.92,-205.25 1456.31,-185.25"/>
<polygon fill="#1414ce" stroke="#1414ce" points="1458.21,-188.19 1465.06,-180.11 1454.67,-182.16 1458.21,-188.19"/>
</a>
</g>
</g>
<!-- 18&#45;&gt;7 -->
<g id="edge34" class="edge">
<title>18&#45;&gt;7</title>
<g id="a_edge34"><a xlink:title="include">
<path fill="none" stroke="#1414ce" d="M1107.32,-449.49C1056.87,-448.7 958.89,-440.92 892,-396 891.13,-395.41 751.7,-190.52 701.64,-116.93"/>
<polygon fill="#1414ce" stroke="#1414ce" points="704.24,-114.53 695.72,-108.23 698.45,-118.47 704.24,-114.53"/>
</a>
</g>
</g>
<!-- 18&#45;&gt;24 -->
<g id="edge40" class="edge">
<title>18&#45;&gt;24</title>
<g id="a_edge40"><a xlink:title="include">
<path fill="none" stroke="#1414ce" d="M1125.17,-431.7C1117.98,-423.3 1109.2,-413.07 1101.31,-403.86"/>
<polygon fill="#1414ce" stroke="#1414ce" points="1103.83,-401.42 1094.66,-396.1 1098.51,-405.97 1103.83,-401.42"/>
</a>
</g>
</g>
<!-- 18&#45;&gt;22 -->
<g id="edge41" class="edge">
<title>18&#45;&gt;22</title>
<g id="a_edge41"><a xlink:title="include">
<path fill="none" stroke="#1414ce" d="M1172.75,-449.25C1212.74,-447.6 1279.22,-438.17 1313,-396 1360.98,-336.09 1347.88,-237.47 1337.77,-190.08"/>
<polygon fill="#1414ce" stroke="#1414ce" points="1341.16,-189.23 1335.55,-180.25 1334.33,-190.77 1341.16,-189.23"/>
</a>
</g>
</g>
<!-- 18&#45;&gt;3 -->
<g id="edge35" class="edge">
<title>18&#45;&gt;3</title>
<g id="a_edge35"><a xlink:title="include">
<path fill="none" stroke="#1414ce" d="M1107.27,-445.79C1052.79,-439.7 947.29,-424.45 925,-396 872.82,-329.39 1026.9,-290.62 987,-216 934,-116.87 806.61,-58.95 737.86,-33.87"/>
<polygon fill="#1414ce" stroke="#1414ce" points="738.75,-30.47 728.15,-30.41 736.4,-37.07 738.75,-30.47"/>
</a>
</g>
</g>
<!-- 18&#45;&gt;5 -->
<g id="edge37" class="edge">
<title>18&#45;&gt;5</title>
<g id="a_edge37"><a xlink:title="include">
<path fill="none" stroke="#1414ce" d="M1172.6,-444.23C1200.58,-438.23 1239.27,-424.94 1258,-396 1266.69,-382.57 1261.01,-375.71 1258,-360 1248.27,-309.26 1230.39,-301.32 1215,-252 1200.57,-205.76 1189.08,-150.45 1182.92,-118.17"/>
<polygon fill="#1414ce" stroke="#1414ce" points="1186.33,-117.33 1181.05,-108.15 1179.45,-118.62 1186.33,-117.33"/>
</a>
</g>
</g>
<!-- 18&#45;&gt;21 -->
<g id="edge39" class="edge">
<title>18&#45;&gt;21</title>
<g id="a_edge39"><a xlink:title="include">
<path fill="none" stroke="#1414ce" d="M1172.54,-448.03C1208.52,-445.01 1264.97,-434.05 1292,-396 1320.67,-355.63 1298.45,-295.2 1281.52,-261.01"/>
<polygon fill="#1414ce" stroke="#1414ce" points="1284.62,-259.39 1276.94,-252.1 1278.4,-262.59 1284.62,-259.39"/>
</a>
</g>
</g>
<!-- 19 -->
<g id="node20" class="node">
<title>19</title>
<g id="a_node20"><a xlink:title="sys/types.h">
<polygon fill="#ffffff" stroke="black" points="1249.5,-396 1152.5,-396 1152.5,-360 1249.5,-360 1249.5,-396"/>
<text text-anchor="middle" x="1201" y="-374.3" font-family="Times,serif" font-size="14.00">sys/types.h</text>
</a>
</g>
</g>
<!-- 18&#45;&gt;19 -->
<g id="edge33" class="edge">
<title>18&#45;&gt;19</title>
<g id="a_edge33"><a xlink:title="include">
<path fill="none" stroke="#1414ce" d="M1155.08,-431.7C1162.39,-423.3 1171.31,-413.07 1179.34,-403.86"/>
<polygon fill="#1414ce" stroke="#1414ce" points="1182.16,-405.94 1186.09,-396.1 1176.89,-401.34 1182.16,-405.94"/>
</a>
</g>
</g>
<!-- 20 -->
<g id="node21" class="node">
<title>20</title>
<g id="a_node21"><a xlink:title="string.h">
<polygon fill="#ffffff" stroke="black" points="1007.5,-396 934.5,-396 934.5,-360 1007.5,-360 1007.5,-396"/>
<text text-anchor="middle" x="971" y="-374.3" font-family="Times,serif" font-size="14.00">string.h</text>
</a>
</g>
</g>
<!-- 18&#45;&gt;20 -->
<g id="edge38" class="edge">
<title>18&#45;&gt;20</title>
<g id="a_edge38"><a xlink:title="include">
<path fill="none" stroke="#1414ce" d="M1107.42,-435.5C1081.73,-424.87 1045.61,-409.9 1016.99,-398.05"/>
<polygon fill="#1414ce" stroke="#1414ce" points="1018.17,-394.75 1007.59,-394.16 1015.49,-401.22 1018.17,-394.75"/>
</a>
</g>
</g>
<!-- 18&#45;&gt;9 -->
<g id="edge42" class="edge">
<title>18&#45;&gt;9</title>
<g id="a_edge42"><a xlink:title="include">
<path fill="none" stroke="#1414ce" d="M1172.66,-445.86C1213.78,-440.7 1285.4,-427.64 1338,-396 1450.38,-328.42 1491,-302.04 1539,-180 1547.21,-159.14 1538.15,-134.91 1528.05,-117.01"/>
<polygon fill="#1414ce" stroke="#1414ce" points="1530.93,-115.02 1522.76,-108.28 1524.94,-118.64 1530.93,-115.02"/>
</a>
</g>
</g>
<!-- 18&#45;&gt;16 -->
<g id="edge36" class="edge">
<title>18&#45;&gt;16</title>
<g id="a_edge36"><a xlink:title="include">
<path fill="none" stroke="#1414ce" d="M1172.72,-449.45C1216.26,-448.24 1292.95,-439.5 1338,-396 1415.25,-321.41 1408.03,-178.35 1401,-118.44"/>
<polygon fill="#1414ce" stroke="#1414ce" points="1404.44,-117.74 1399.71,-108.26 1397.49,-118.62 1404.44,-117.74"/>
</a>
</g>
</g>
<!-- 8&#45;&gt;9 -->
<g id="edge43" class="edge">
<title>8&#45;&gt;9</title>
<g id="a_edge43"><a xlink:title="include">
<path fill="none" stroke="#1414ce" d="M1497.2,-143.7C1499.1,-135.9 1501.38,-126.51 1503.48,-117.83"/>
<polygon fill="#1414ce" stroke="#1414ce" points="1506.89,-118.65 1505.85,-108.1 1500.08,-117 1506.89,-118.65"/>
</a>
</g>
</g>
<!-- 30&#45;&gt;18 -->
<g id="edge44" class="edge">
<title>30&#45;&gt;18</title>
<g id="a_edge44"><a xlink:title="include">
<path fill="none" stroke="#1414ce" d="M1281.58,-575.87C1253.05,-550.71 1199.7,-503.65 1167.26,-475.04"/>
<polygon fill="#1414ce" stroke="#1414ce" points="1169.3,-472.18 1159.49,-468.19 1164.67,-477.43 1169.3,-472.18"/>
</a>
</g>
</g>
<!-- 11 -->
<g id="node18" class="node">
<title>11</title>
<g id="a_node18"><a xlink:title="limits.h">
<polygon fill="#ffffff" stroke="black" points="1447.5,-36 1376.5,-36 1376.5,0 1447.5,0 1447.5,-36"/>
<text text-anchor="middle" x="1412" y="-14.3" font-family="Times,serif" font-size="14.00">limits.h</text>
</a>
</g>
</g>
<!-- 6 -->
<g id="node19" class="node">
<title>6</title>
<g id="a_node19"><a xlink:title="atom_table.h">
<polygon fill="#ffffff" stroke="black" points="553.5,-540 444.5,-540 444.5,-504 553.5,-504 553.5,-540"/>
<text text-anchor="middle" x="499" y="-518.3" font-family="Times,serif" font-size="14.00">atom_table.h</text>
</a>
</g>
</g>
<!-- 6&#45;&gt;7 -->
<g id="edge45" class="edge">
<title>6&#45;&gt;7</title>
<g id="a_edge45"><a xlink:title="include">
<path fill="none" stroke="#1414ce" d="M496.4,-503.78C489.9,-455.05 477.16,-313.38 531,-216 556.4,-170.06 606.1,-134.38 641.98,-113.11"/>
<polygon fill="#1414ce" stroke="#1414ce" points="643.88,-116.05 650.78,-108.01 640.37,-109.99 643.88,-116.05"/>
</a>
</g>
</g>
<!-- 6&#45;&gt;4 -->
<g id="edge46" class="edge">
<title>6&#45;&gt;4</title>
<g id="a_edge46"><a xlink:title="include">
<path fill="none" stroke="#1414ce" d="M484.17,-503.7C476.98,-495.3 468.2,-485.07 460.31,-475.86"/>
<polygon fill="#1414ce" stroke="#1414ce" points="462.83,-473.42 453.66,-468.1 457.51,-477.97 462.83,-473.42"/>
</a>
</g>
</g>
<!-- 9&#45;&gt;10 -->
<g id="edge47" class="edge">
<title>9&#45;&gt;10</title>
<g id="a_edge47"><a xlink:title="include">
<path fill="none" stroke="#1414ce" d="M1534.46,-71.88C1547.3,-62.89 1563.2,-51.76 1577.09,-42.03"/>
<polygon fill="#1414ce" stroke="#1414ce" points="1579.26,-44.79 1585.44,-36.19 1575.24,-39.06 1579.26,-44.79"/>
</a>
</g>
</g>
<!-- 9&#45;&gt;3 -->
<g id="edge50" class="edge">
<title>9&#45;&gt;3</title>
<g id="a_edge50"><a xlink:title="include">
<path fill="none" stroke="#1414ce" d="M1447.39,-73.42C1444.56,-72.9 1441.76,-72.42 1439,-72 1176.13,-31.48 856.36,-21.88 738.5,-19.65"/>
<polygon fill="#1414ce" stroke="#1414ce" points="738.44,-16.15 728.38,-19.47 738.32,-23.15 738.44,-16.15"/>
</a>
</g>
</g>
<!-- 9&#45;&gt;11 -->
<g id="edge48" class="edge">
<title>9&#45;&gt;11</title>
<g id="a_edge48"><a xlink:title="include">
<path fill="none" stroke="#1414ce" d="M1486.03,-71.88C1473.45,-62.89 1457.87,-51.76 1444.25,-42.03"/>
<polygon fill="#1414ce" stroke="#1414ce" points="1446.24,-39.15 1436.07,-36.19 1442.17,-44.85 1446.24,-39.15"/>
</a>
</g>
</g>
<!-- 12 -->
<g id="node30" class="node">
<title>12</title>
<g id="a_node30"><a xlink:title="inttypes.h">
<polygon fill="#ffffff" stroke="black" points="1554.5,-36 1465.5,-36 1465.5,0 1554.5,0 1554.5,-36"/>
<text text-anchor="middle" x="1510" y="-14.3" font-family="Times,serif" font-size="14.00">inttypes.h</text>
</a>
</g>
</g>
<!-- 9&#45;&gt;12 -->
<g id="edge49" class="edge">
<title>9&#45;&gt;12</title>
<g id="a_edge49"><a xlink:title="include">
<path fill="none" stroke="#1414ce" d="M1510,-71.7C1510,-63.98 1510,-54.71 1510,-46.11"/>
<polygon fill="#1414ce" stroke="#1414ce" points="1513.5,-46.1 1510,-36.1 1506.5,-46.1 1513.5,-46.1"/>
</a>
</g>
</g>
<!-- 2&#45;&gt;4 -->
<g id="edge52" class="edge">
<title>2&#45;&gt;4</title>
<g id="a_edge52"><a xlink:title="include">
<path fill="none" stroke="#1414ce" d="M485.47,-577.96C465.91,-570.03 446.5,-558.03 435,-540 423.35,-521.74 425.65,-496.82 430.11,-477.99"/>
<polygon fill="#1414ce" stroke="#1414ce" points="433.52,-478.81 432.74,-468.24 426.76,-476.98 433.52,-478.81"/>
</a>
</g>
</g>
<!-- 2&#45;&gt;15 -->
<g id="edge59" class="edge">
<title>2&#45;&gt;15</title>
<g id="a_edge59"><a xlink:title="include">
<path fill="none" stroke="#1414ce" d="M594.55,-575.98C610.25,-567.66 626.11,-555.93 635,-540 686.18,-448.35 639.54,-316.96 615.4,-261.4"/>
<polygon fill="#1414ce" stroke="#1414ce" points="618.59,-259.95 611.33,-252.24 612.2,-262.8 618.59,-259.95"/>
</a>
</g>
</g>
<!-- 2&#45;&gt;14 -->
<g id="edge56" class="edge">
<title>2&#45;&gt;14</title>
<g id="a_edge56"><a xlink:title="include">
<path fill="none" stroke="#1414ce" d="M607.01,-575.96C625.49,-567.84 644.39,-556.25 657,-540 699.08,-485.77 690.42,-268.39 685.84,-190.74"/>
<polygon fill="#1414ce" stroke="#1414ce" points="689.31,-190.1 685.2,-180.34 682.32,-190.53 689.31,-190.1"/>
</a>
</g>
</g>
<!-- 2&#45;&gt;3 -->
<g id="edge51" class="edge">
<title>2&#45;&gt;3</title>
<g id="a_edge51"><a xlink:title="include">
<path fill="none" stroke="#1414ce" d="M485.31,-584.99C449.03,-577.89 404.31,-564.64 371,-540 301.92,-488.91 264,-464.92 264,-379 264,-379 264,-379 264,-161 264,-113.54 282.89,-97.37 323,-72 375.82,-38.59 558.99,-25.42 645.75,-20.97"/>
<polygon fill="#1414ce" stroke="#1414ce" points="646.02,-24.46 655.83,-20.47 645.67,-17.47 646.02,-24.46"/>
</a>
</g>
</g>
<!-- 2&#45;&gt;18 -->
<g id="edge60" class="edge">
<title>2&#45;&gt;18</title>
<g id="a_edge60"><a xlink:title="include">
<path fill="none" stroke="#1414ce" d="M612.62,-580.69C664.12,-570.49 738.44,-555.25 803,-540 909.49,-514.85 1033.68,-480.82 1097.44,-463.01"/>
<polygon fill="#1414ce" stroke="#1414ce" points="1098.45,-466.36 1107.14,-460.29 1096.56,-459.62 1098.45,-466.36"/>
</a>
</g>
</g>
<!-- 2&#45;&gt;8 -->
<g id="edge54" class="edge">
<title>2&#45;&gt;8</title>
<g id="a_edge54"><a xlink:title="include">
<path fill="none" stroke="#1414ce" d="M612.53,-589.9C820.55,-578.91 1468,-537.72 1468,-451 1468,-451 1468,-451 1468,-305 1468,-264.6 1477.94,-218.71 1485.28,-190.3"/>
<polygon fill="#1414ce" stroke="#1414ce" points="1488.75,-190.88 1487.94,-180.32 1481.98,-189.08 1488.75,-190.88"/>
</a>
</g>
</g>
<!-- 2&#45;&gt;6 -->
<g id="edge53" class="edge">
<title>2&#45;&gt;6</title>
<g id="a_edge53"><a xlink:title="include">
<path fill="none" stroke="#1414ce" d="M536.64,-575.7C530.77,-567.47 523.63,-557.48 517.16,-548.42"/>
<polygon fill="#1414ce" stroke="#1414ce" points="519.88,-546.21 511.22,-540.1 514.18,-550.28 519.88,-546.21"/>
</a>
</g>
</g>
<!-- 2&#45;&gt;17 -->
<g id="edge58" class="edge">
<title>2&#45;&gt;17</title>
<g id="a_edge58"><a xlink:title="include">
<path fill="none" stroke="#1414ce" d="M485.22,-577.57C449.75,-567.67 410.48,-554.07 399,-540 317.28,-439.89 367.91,-380.92 359,-252 357.9,-236.04 354.01,-231.2 359,-216 362.31,-205.91 368.37,-196.15 374.73,-187.82"/>
<polygon fill="#1414ce" stroke="#1414ce" points="377.5,-189.97 381.11,-180.01 372.08,-185.54 377.5,-189.97"/>
</a>
</g>
</g>
<!-- 2&#45;&gt;27 -->
<g id="edge61" class="edge">
<title>2&#45;&gt;27</title>
<g id="a_edge61"><a xlink:title="include">
<path fill="none" stroke="#1414ce" d="M485.49,-577.71C463.29,-569.65 439.75,-557.64 423,-540 399.57,-515.33 402.87,-501.51 397,-468 384.07,-394.11 400.22,-305.51 410.21,-261.92"/>
<polygon fill="#1414ce" stroke="#1414ce" points="413.64,-262.63 412.54,-252.09 406.83,-261.01 413.64,-262.63"/>
</a>
</g>
</g>
<!-- 2&#45;&gt;26 -->
<g id="edge57" class="edge">
<title>2&#45;&gt;26</title>
<g id="a_edge57"><a xlink:title="include">
<path fill="none" stroke="#1414ce" d="M612.59,-586.47C649.2,-579.88 694.12,-566.63 726,-540 822.41,-459.47 770.16,-381.55 854,-288 864.67,-276.09 878.6,-265.71 891.89,-257.37"/>
<polygon fill="#1414ce" stroke="#1414ce" points="893.73,-260.35 900.49,-252.19 890.12,-254.35 893.73,-260.35"/>
</a>
</g>
</g>
<!-- 13 -->
<g id="node29" class="node">
<title>13</title>
<g id="a_node29"><a xlink:title="ets.h">
<polygon fill="#ffffff" stroke="black" points="626,-540 572,-540 572,-504 626,-504 626,-540"/>
<text text-anchor="middle" x="599" y="-518.3" font-family="Times,serif" font-size="14.00">ets.h</text>
</a>
</g>
</g>
<!-- 2&#45;&gt;13 -->
<g id="edge55" class="edge">
<title>2&#45;&gt;13</title>
<g id="a_edge55"><a xlink:title="include">
<path fill="none" stroke="#1414ce" d="M561.36,-575.7C567.23,-567.47 574.37,-557.48 580.84,-548.42"/>
<polygon fill="#1414ce" stroke="#1414ce" points="583.82,-550.28 586.78,-540.1 578.12,-546.21 583.82,-550.28"/>
</a>
</g>
</g>
<!-- 17&#45;&gt;7 -->
<g id="edge62" class="edge">
<title>17&#45;&gt;7</title>
<g id="a_edge62"><a xlink:title="include">
<path fill="none" stroke="#1414ce" d="M428.08,-148.68C432.71,-146.99 437.45,-145.37 442,-144 506.6,-124.57 582.88,-109.06 632.28,-99.95"/>
<polygon fill="#1414ce" stroke="#1414ce" points="633.19,-103.34 642.4,-98.11 631.94,-96.46 633.19,-103.34"/>
</a>
</g>
</g>
<!-- 1 -->
<g id="node25" class="node">
<title>1</title>
<g id="a_node25"><a xlink:title="/__w/AtomVM/AtomVM/src/libAtomVM/otp_ssl.h">
<polygon fill="#bfbfbf" stroke="black" points="356,-828 0,-828 0,-792 356,-792 356,-828"/>
<text text-anchor="middle" x="178" y="-806.3" font-family="Times,serif" font-size="14.00">/__w/AtomVM/AtomVM/src/libAtomVM/otp_ssl.h</text>
</a>
</g>
</g>
<!-- 1&#45;&gt;28 -->
<g id="edge64" class="edge">
<title>1&#45;&gt;28</title>
<g id="a_edge64"><a xlink:title="include">
<path fill="none" stroke="#1414ce" d="M220.57,-791.88C249.36,-780.29 287.04,-765.13 314.67,-754.02"/>
<polygon fill="#1414ce" stroke="#1414ce" points="316.02,-757.25 324,-750.27 313.41,-750.75 316.02,-757.25"/>
</a>
</g>
</g>
<!-- 1&#45;&gt;2 -->
<g id="edge63" class="edge">
<title>1&#45;&gt;2</title>
<g id="a_edge63"><a xlink:title="include">
<path fill="none" stroke="#1414ce" d="M202.84,-791.94C229.99,-773.52 274.95,-743.65 315,-720 380.25,-681.47 458.29,-640.83 505.72,-616.71"/>
<polygon fill="#1414ce" stroke="#1414ce" points="507.45,-619.76 514.78,-612.12 504.28,-613.52 507.45,-619.76"/>
</a>
</g>
</g>
<!-- 27&#45;&gt;7 -->
<g id="edge65" class="edge">
<title>27&#45;&gt;7</title>
<g id="a_edge65"><a xlink:title="include">
<path fill="none" stroke="#1414ce" d="M424.59,-215.81C434.43,-195.54 453.52,-162.29 480,-144 525.43,-112.62 588.19,-99.82 632.06,-94.6"/>
<polygon fill="#1414ce" stroke="#1414ce" points="632.66,-98.05 642.22,-93.48 631.9,-91.09 632.66,-98.05"/>
</a>
</g>
</g>
<!-- 27&#45;&gt;14 -->
<g id="edge67" class="edge">
<title>27&#45;&gt;14</title>
<g id="a_edge67"><a xlink:title="include">
<path fill="none" stroke="#1414ce" d="M466.28,-220.08C518.5,-206.39 599.78,-185.08 646.86,-172.74"/>
<polygon fill="#1414ce" stroke="#1414ce" points="647.85,-176.09 656.64,-170.17 646.08,-169.32 647.85,-176.09"/>
</a>
</g>
</g>
<!-- 27&#45;&gt;3 -->
<g id="edge66" class="edge">
<title>27&#45;&gt;3</title>
<g id="a_edge66"><a xlink:title="include">
<path fill="none" stroke="#1414ce" d="M389.66,-215.77C377.89,-206.72 365.38,-194.48 359,-180 352.55,-165.36 349.89,-157.15 359,-144 424.49,-49.46 570.94,-26.32 645.88,-20.73"/>
<polygon fill="#1414ce" stroke="#1414ce" points="646.23,-24.21 655.97,-20.05 645.76,-17.23 646.23,-24.21"/>
</a>
</g>
</g>
<!-- 26&#45;&gt;7 -->
<g id="edge68" class="edge">
<title>26&#45;&gt;7</title>
<g id="a_edge68"><a xlink:title="include">
<path fill="none" stroke="#1414ce" d="M920.89,-215.96C903.67,-196.14 872.76,-163.64 840,-144 807.68,-124.62 767.31,-111.15 735.74,-102.64"/>
<polygon fill="#1414ce" stroke="#1414ce" points="736.38,-99.19 725.82,-100.05 734.61,-105.96 736.38,-99.19"/>
</a>
</g>
</g>
<!-- 26&#45;&gt;22 -->
<g id="edge71" class="edge">
<title>26&#45;&gt;22</title>
<g id="a_edge71"><a xlink:title="include">
<path fill="none" stroke="#1414ce" d="M978.13,-225.38C1054.91,-211.8 1214.26,-183.64 1289.7,-170.3"/>
<polygon fill="#1414ce" stroke="#1414ce" points="1290.53,-173.71 1299.77,-168.52 1289.31,-166.81 1290.53,-173.71"/>
</a>
</g>
</g>
<!-- 26&#45;&gt;14 -->
<g id="edge69" class="edge">
<title>26&#45;&gt;14</title>
<g id="a_edge69"><a xlink:title="include">
<path fill="none" stroke="#1414ce" d="M891.77,-219.99C887.13,-218.63 882.47,-217.28 878,-216 823.45,-200.42 760,-183.26 720.92,-172.81"/>
<polygon fill="#1414ce" stroke="#1414ce" points="721.61,-169.38 711.05,-170.18 719.8,-176.14 721.61,-169.38"/>
</a>
</g>
</g>
<!-- 26&#45;&gt;9 -->
<g id="edge70" class="edge">
<title>26&#45;&gt;9</title>
<g id="a_edge70"><a xlink:title="include">
<path fill="none" stroke="#1414ce" d="M978.27,-222.07C1045.25,-205.18 1178.1,-171.77 1291,-144 1339.81,-131.99 1394.79,-118.69 1437.46,-108.41"/>
<polygon fill="#1414ce" stroke="#1414ce" points="1438.29,-111.81 1447.19,-106.07 1436.65,-105 1438.29,-111.81"/>
</a>
</g>
</g>
<!-- 13&#45;&gt;15 -->
<g id="edge73" class="edge">
<title>13&#45;&gt;15</title>
<g id="a_edge73"><a xlink:title="include">
<path fill="none" stroke="#1414ce" d="M599.24,-503.97C599.91,-456.29 601.79,-321.18 602.61,-262.63"/>
<polygon fill="#1414ce" stroke="#1414ce" points="606.12,-262.35 602.76,-252.31 599.12,-262.26 606.12,-262.35"/>
</a>
</g>
</g>
<!-- 13&#45;&gt;14 -->
<g id="edge72" class="edge">
<title>13&#45;&gt;14</title>
<g id="a_edge72"><a xlink:title="include">
<path fill="none" stroke="#1414ce" d="M588.59,-503.67C560.25,-454.03 487.98,-308.95 551,-216 572.24,-184.67 615.28,-171.86 646.66,-166.62"/>
<polygon fill="#1414ce" stroke="#1414ce" points="647.43,-170.05 656.81,-165.12 646.4,-163.12 647.43,-170.05"/>
</a>
</g>
</g>
<!-- 13&#45;&gt;18 -->
<g id="edge74" class="edge">
<title>13&#45;&gt;18</title>
<g id="a_edge74"><a xlink:title="include">
<path fill="none" stroke="#1414ce" d="M626.2,-517.48C714.02,-506.12 990.48,-470.35 1097.29,-456.53"/>
<polygon fill="#1414ce" stroke="#1414ce" points="1097.92,-459.97 1107.39,-455.22 1097.02,-453.03 1097.92,-459.97"/>
</a>
</g>
</g>
</g>
</svg>
