<?xml version="1.0" encoding="UTF-8" standalone="no"?>
<!DOCTYPE svg PUBLIC "-//W3C//DTD SVG 1.1//EN"
 "http://www.w3.org/Graphics/SVG/1.1/DTD/svg11.dtd">
<!-- Generated by graphviz version 2.43.0 (0)
 -->
<!-- Title: %3 Pages: 1 -->
<svg width="1322pt" height="404pt"
 viewBox="0.00 0.00 1321.74 404.00" xmlns="http://www.w3.org/2000/svg" xmlns:xlink="http://www.w3.org/1999/xlink">
<g id="graph0" class="graph" transform="scale(1 1) rotate(0) translate(4 400)">
<title>%3</title>
<polygon fill="transparent" stroke="transparent" points="-4,4 -4,-400 1317.74,-400 1317.74,4 -4,4"/>
<!-- 20 -->
<g id="node1" class="node">
<title>20</title>
<g id="a_node1"><a xlink:title="SpinLock">
<polygon fill="#ffffff" stroke="black" points="82,-324 0,-324 0,-288 82,-288 82,-324"/>
<text text-anchor="middle" x="41" y="-302.3" font-family="Times,serif" font-size="14.00">SpinLock</text>
</a>
</g>
</g>
<!-- 2 -->
<g id="node2" class="node">
<title>2</title>
<g id="a_node2"><a xlink:title="ResourceType">
<polygon fill="#ffffff" stroke="black" points="397.5,-180 280.5,-180 280.5,-144 397.5,-144 397.5,-180"/>
<text text-anchor="middle" x="339" y="-158.3" font-family="Times,serif" font-size="14.00">ResourceType</text>
</a>
</g>
</g>
<!-- 4 -->
<g id="node4" class="node">
<title>4</title>
<g id="a_node4"><a xlink:title="ListHead">
<polygon fill="#ffffff" stroke="black" points="324.5,-36 243.5,-36 243.5,0 324.5,0 324.5,-36"/>
<text text-anchor="middle" x="284" y="-14.3" font-family="Times,serif" font-size="14.00">ListHead</text>
</a>
</g>
</g>
<!-- 2&#45;&gt;4 -->
<g id="edge3" class="edge">
<title>2&#45;&gt;4</title>
<g id="a_edge3"><a xlink:title="usage">
<path fill="none" stroke="#1414ce" d="M332.37,-143.87C322.91,-119.46 305.47,-74.43 294.32,-45.64"/>
<polygon fill="#1414ce" stroke="#1414ce" points="297.53,-44.25 290.66,-36.19 291.01,-46.78 297.53,-44.25"/>
</a>
</g>
</g>
<!-- 5 -->
<g id="node7" class="node">
<title>5</title>
<g id="a_node7"><a xlink:title="GlobalContext">
<polygon fill="#ffffff" stroke="black" points="487.5,-396 368.5,-396 368.5,-360 487.5,-360 487.5,-396"/>
<text text-anchor="middle" x="428" y="-374.3" font-family="Times,serif" font-size="14.00">GlobalContext</text>
</a>
</g>
</g>
<!-- 2&#45;&gt;5 -->
<g id="edge2" class="edge">
<title>2&#45;&gt;5</title>
<g id="a_edge2"><a xlink:title="usage">
<path fill="none" stroke="#1414ce" d="M350.05,-180.23C369.09,-217.48 406.04,-305.72 421.53,-350.28"/>
<polygon fill="#1414ce" stroke="#1414ce" points="418.25,-351.48 424.74,-359.85 424.88,-349.26 418.25,-351.48"/>
</a>
</g>
</g>
<!-- 3 -->
<g id="node19" class="node">
<title>3</title>
<g id="a_node19"><a xlink:title="SyncList">
<polygon fill="#ffffff" stroke="black" points="452,-108 374,-108 374,-72 452,-72 452,-108"/>
<text text-anchor="middle" x="413" y="-86.3" font-family="Times,serif" font-size="14.00">SyncList</text>
</a>
</g>
</g>
<!-- 2&#45;&gt;3 -->
<g id="edge1" class="edge">
<title>2&#45;&gt;3</title>
<g id="a_edge1"><a xlink:title="usage">
<path fill="none" stroke="#1414ce" d="M357.29,-143.7C366.43,-135.05 377.64,-124.45 387.6,-115.03"/>
<polygon fill="#1414ce" stroke="#1414ce" points="390.06,-117.52 394.92,-108.1 385.25,-112.43 390.06,-117.52"/>
</a>
</g>
</g>
<!-- 15 -->
<g id="node3" class="node">
<title>15</title>
<g id="a_node3"><a xlink:title="Module">
<polygon fill="#ffffff" stroke="black" points="657,-324 587,-324 587,-288 657,-288 657,-324"/>
<text text-anchor="middle" x="622" y="-302.3" font-family="Times,serif" font-size="14.00">Module</text>
</a>
</g>
</g>
<!-- 15&#45;&gt;4 -->
<g id="edge6" class="edge">
<title>15&#45;&gt;4</title>
<g id="a_edge6"><a xlink:title="usage">
<path fill="none" stroke="#1414ce" d="M657.31,-299.22C702.96,-290.94 778.56,-274.23 795,-252 804.51,-239.14 803.79,-229.37 795,-216 691.58,-58.79 442.66,-26.92 335.02,-20.54"/>
<polygon fill="#1414ce" stroke="#1414ce" points="334.92,-17.03 324.75,-19.99 334.54,-24.02 334.92,-17.03"/>
</a>
</g>
</g>
<!-- 17 -->
<g id="node11" class="node">
<title>17</title>
<g id="a_node11"><a xlink:title="LiteralEntry">
<polygon fill="#ffffff" stroke="black" points="622,-252 518,-252 518,-216 622,-216 622,-252"/>
<text text-anchor="middle" x="570" y="-230.3" font-family="Times,serif" font-size="14.00">LiteralEntry</text>
</a>
</g>
</g>
<!-- 15&#45;&gt;17 -->
<g id="edge5" class="edge">
<title>15&#45;&gt;17</title>
<g id="a_edge5"><a xlink:title="usage">
<path fill="none" stroke="#1414ce" d="M609.15,-287.7C602.97,-279.39 595.46,-269.28 588.68,-260.14"/>
<polygon fill="#1414ce" stroke="#1414ce" points="591.48,-258.04 582.71,-252.1 585.86,-262.22 591.48,-258.04"/>
</a>
</g>
</g>
<!-- 16 -->
<g id="node18" class="node">
<title>16</title>
<g id="a_node18"><a xlink:title="ExportedFunction">
<polygon fill="#ffffff" stroke="black" points="786,-252 640,-252 640,-216 786,-216 786,-252"/>
<text text-anchor="middle" x="713" y="-230.3" font-family="Times,serif" font-size="14.00">ExportedFunction</text>
</a>
</g>
</g>
<!-- 15&#45;&gt;16 -->
<g id="edge4" class="edge">
<title>15&#45;&gt;16</title>
<g id="a_edge4"><a xlink:title="usage">
<path fill="none" stroke="#1414ce" d="M644.49,-287.7C655.96,-278.88 670.06,-268.03 682.48,-258.47"/>
<polygon fill="#1414ce" stroke="#1414ce" points="684.97,-260.98 690.76,-252.1 680.7,-255.43 684.97,-260.98"/>
</a>
</g>
</g>
<!-- 4&#45;&gt;4 -->
<g id="edge7" class="edge">
<title>4&#45;&gt;4</title>
<g id="a_edge7"><a xlink:title="usage">
<path fill="none" stroke="#1414ce" d="M324.73,-31.31C334.9,-30.38 342.5,-25.95 342.5,-18 342.5,-12.91 339.38,-9.26 334.47,-7.05"/>
<polygon fill="#1414ce" stroke="#1414ce" points="335.28,-3.64 324.73,-4.69 333.63,-10.45 335.28,-3.64"/>
</a>
</g>
</g>
<!-- 12 -->
<g id="node5" class="node">
<title>12</title>
<g id="a_node5"><a xlink:title="HeapFragment">
<polygon fill="#ffffff" stroke="black" points="1288.5,-36 1163.5,-36 1163.5,0 1288.5,0 1288.5,-36"/>
<text text-anchor="middle" x="1226" y="-14.3" font-family="Times,serif" font-size="14.00">HeapFragment</text>
</a>
</g>
</g>
<!-- 12&#45;&gt;12 -->
<g id="edge8" class="edge">
<title>12&#45;&gt;12</title>
<g id="a_edge8"><a xlink:title="usage">
<path fill="none" stroke="#1414ce" d="M1288.78,-30.55C1299.26,-28.79 1306.5,-24.61 1306.5,-18 1306.5,-13.77 1303.53,-10.53 1298.64,-8.29"/>
<polygon fill="#1414ce" stroke="#1414ce" points="1299.36,-4.85 1288.78,-5.45 1297.42,-11.58 1299.36,-4.85"/>
</a>
</g>
</g>
<!-- 14 -->
<g id="node6" class="node">
<title>14</title>
<g id="a_node6"><a xlink:title="RefcBinaryQueueItem">
<polygon fill="#ffffff" stroke="black" points="350,-324 176,-324 176,-288 350,-288 350,-324"/>
<text text-anchor="middle" x="263" y="-302.3" font-family="Times,serif" font-size="14.00">RefcBinaryQueueItem</text>
</a>
</g>
</g>
<!-- 14&#45;&gt;14 -->
<g id="edge10" class="edge">
<title>14&#45;&gt;14</title>
<g id="a_edge10"><a xlink:title="usage">
<path fill="none" stroke="#1414ce" d="M350.3,-317.68C360.99,-315.59 368,-311.7 368,-306 368,-302.35 365.12,-299.44 360.25,-297.27"/>
<polygon fill="#1414ce" stroke="#1414ce" points="360.88,-293.81 350.3,-294.32 358.89,-300.52 360.88,-293.81"/>
</a>
</g>
</g>
<!-- 1 -->
<g id="node16" class="node">
<title>1</title>
<g id="a_node16"><a xlink:title="RefcBinary">
<polygon fill="#bfbfbf" stroke="black" points="310.5,-252 215.5,-252 215.5,-216 310.5,-216 310.5,-252"/>
<text text-anchor="middle" x="263" y="-230.3" font-family="Times,serif" font-size="14.00">RefcBinary</text>
</a>
</g>
</g>
<!-- 14&#45;&gt;1 -->
<g id="edge9" class="edge">
<title>14&#45;&gt;1</title>
<g id="a_edge9"><a xlink:title="usage">
<path fill="none" stroke="#1414ce" d="M263,-287.7C263,-279.98 263,-270.71 263,-262.11"/>
<polygon fill="#1414ce" stroke="#1414ce" points="266.5,-262.1 263,-252.1 259.5,-262.1 266.5,-262.1"/>
</a>
</g>
</g>
<!-- 5&#45;&gt;20 -->
<g id="edge20" class="edge">
<title>5&#45;&gt;20</title>
<g id="a_edge20"><a xlink:title="usage">
<path fill="none" stroke="#1414ce" d="M368.44,-370.07C301.61,-361.71 190.22,-345.97 96,-324 94.74,-323.71 93.47,-323.4 92.19,-323.08"/>
<polygon fill="#1414ce" stroke="#1414ce" points="92.84,-319.63 82.27,-320.44 91.04,-326.4 92.84,-319.63"/>
</a>
</g>
</g>
<!-- 5&#45;&gt;2 -->
<g id="edge11" class="edge">
<title>5&#45;&gt;2</title>
<g id="a_edge11"><a xlink:title="usage">
<path fill="none" stroke="#1414ce" d="M416.99,-359.85C397.98,-322.68 361.02,-234.44 345.5,-189.82"/>
<polygon fill="#1414ce" stroke="#1414ce" points="348.78,-188.6 342.28,-180.23 342.15,-190.83 348.78,-188.6"/>
</a>
</g>
</g>
<!-- 5&#45;&gt;15 -->
<g id="edge17" class="edge">
<title>5&#45;&gt;15</title>
<g id="a_edge17"><a xlink:title="usage">
<path fill="none" stroke="#1414ce" d="M475.46,-359.88C506.53,-348.66 546.88,-334.11 577.37,-323.1"/>
<polygon fill="#1414ce" stroke="#1414ce" points="578.68,-326.35 586.9,-319.67 576.3,-319.77 578.68,-326.35"/>
</a>
</g>
</g>
<!-- 5&#45;&gt;4 -->
<g id="edge21" class="edge">
<title>5&#45;&gt;4</title>
<g id="a_edge21"><a xlink:title="usage">
<path fill="none" stroke="#1414ce" d="M368.37,-372.27C296.49,-365.46 181.21,-350.7 148,-324 114.48,-297.05 110,-278.01 110,-235 110,-235 110,-235 110,-161 110,-96.58 182.47,-56.17 233.87,-35.6"/>
<polygon fill="#1414ce" stroke="#1414ce" points="235.14,-38.87 243.2,-31.99 232.62,-32.34 235.14,-38.87"/>
</a>
</g>
</g>
<!-- 5&#45;&gt;14 -->
<g id="edge15" class="edge">
<title>5&#45;&gt;14</title>
<g id="a_edge15"><a xlink:title="usage">
<path fill="none" stroke="#1414ce" d="M387.64,-359.88C364.98,-350.26 336.53,-338.19 312.53,-328.01"/>
<polygon fill="#1414ce" stroke="#1414ce" points="313.81,-324.75 303.23,-324.07 311.07,-331.2 313.81,-324.75"/>
</a>
</g>
</g>
<!-- 6 -->
<g id="node8" class="node">
<title>6</title>
<g id="a_node8"><a xlink:title="Ets">
<polygon fill="#ffffff" stroke="black" points="470,-180 416,-180 416,-144 470,-144 470,-180"/>
<text text-anchor="middle" x="443" y="-158.3" font-family="Times,serif" font-size="14.00">Ets</text>
</a>
</g>
</g>
<!-- 5&#45;&gt;6 -->
<g id="edge12" class="edge">
<title>5&#45;&gt;6</title>
<g id="a_edge12"><a xlink:title="usage">
<path fill="none" stroke="#1414ce" d="M429.2,-359.85C431.8,-322.83 437.94,-235.18 441.08,-190.39"/>
<polygon fill="#1414ce" stroke="#1414ce" points="444.58,-190.45 441.79,-180.23 437.6,-189.96 444.58,-190.45"/>
</a>
</g>
</g>
<!-- 19 -->
<g id="node10" class="node">
<title>19</title>
<g id="a_node10"><a xlink:title="TimerList">
<polygon fill="#ffffff" stroke="black" points="224,-180 138,-180 138,-144 224,-144 224,-180"/>
<text text-anchor="middle" x="181" y="-158.3" font-family="Times,serif" font-size="14.00">TimerList</text>
</a>
</g>
</g>
<!-- 5&#45;&gt;19 -->
<g id="edge19" class="edge">
<title>5&#45;&gt;19</title>
<g id="a_edge19"><a xlink:title="usage">
<path fill="none" stroke="#1414ce" d="M368.45,-373.43C299.44,-367.9 191.95,-354.52 167,-324 135.97,-286.04 153.83,-224.88 168.29,-189.89"/>
<polygon fill="#1414ce" stroke="#1414ce" points="171.66,-190.9 172.42,-180.34 165.24,-188.12 171.66,-190.9"/>
</a>
</g>
</g>
<!-- 7 -->
<g id="node14" class="node">
<title>7</title>
<g id="a_node14"><a xlink:title="MessageQueueItem">
<polygon fill="#ffffff" stroke="black" points="886,-324 728,-324 728,-288 886,-288 886,-324"/>
<text text-anchor="middle" x="807" y="-302.3" font-family="Times,serif" font-size="14.00">MessageQueueItem</text>
</a>
</g>
</g>
<!-- 5&#45;&gt;7 -->
<g id="edge13" class="edge">
<title>5&#45;&gt;7</title>
<g id="a_edge13"><a xlink:title="usage">
<path fill="none" stroke="#1414ce" d="M487.64,-365.99C549.55,-354.55 647.12,-336.53 718.12,-323.42"/>
<polygon fill="#1414ce" stroke="#1414ce" points="718.76,-326.86 727.96,-321.6 717.49,-319.97 718.76,-326.86"/>
</a>
</g>
</g>
<!-- 18 -->
<g id="node15" class="node">
<title>18</title>
<g id="a_node15"><a xlink:title="AtomsHashTable">
<polygon fill="#ffffff" stroke="black" points="1152.5,-252 1015.5,-252 1015.5,-216 1152.5,-216 1152.5,-252"/>
<text text-anchor="middle" x="1084" y="-230.3" font-family="Times,serif" font-size="14.00">AtomsHashTable</text>
</a>
</g>
</g>
<!-- 5&#45;&gt;18 -->
<g id="edge18" class="edge">
<title>5&#45;&gt;18</title>
<g id="a_edge18"><a xlink:title="usage">
<path fill="none" stroke="#1414ce" d="M487.63,-377.5C580.56,-376.73 764.66,-368.97 913,-324 963.57,-308.67 1016.81,-278.39 1050.19,-257.44"/>
<polygon fill="#1414ce" stroke="#1414ce" points="1052.08,-260.38 1058.64,-252.06 1048.33,-254.48 1052.08,-260.38"/>
</a>
</g>
</g>
<!-- 9 -->
<g id="node17" class="node">
<title>9</title>
<g id="a_node17"><a xlink:title="AtomTable">
<polygon fill="#ffffff" stroke="black" points="1272,-324 1180,-324 1180,-288 1272,-288 1272,-324"/>
<text text-anchor="middle" x="1226" y="-302.3" font-family="Times,serif" font-size="14.00">AtomTable</text>
</a>
</g>
</g>
<!-- 5&#45;&gt;9 -->
<g id="edge14" class="edge">
<title>5&#45;&gt;9</title>
<g id="a_edge14"><a xlink:title="usage">
<path fill="none" stroke="#1414ce" d="M487.65,-371.77C636.77,-358.69 1024.19,-324.7 1169.68,-311.94"/>
<polygon fill="#1414ce" stroke="#1414ce" points="1170.08,-315.42 1179.73,-311.06 1169.46,-308.45 1170.08,-315.42"/>
</a>
</g>
</g>
<!-- 5&#45;&gt;3 -->
<g id="edge16" class="edge">
<title>5&#45;&gt;3</title>
<g id="a_edge16"><a xlink:title="usage">
<path fill="none" stroke="#1414ce" d="M439.03,-359.75C463.02,-319.89 514.99,-219.05 479,-144 473.33,-132.18 463.61,-122.17 453.34,-114.14"/>
<polygon fill="#1414ce" stroke="#1414ce" points="455.2,-111.16 445.05,-108.12 451.09,-116.83 455.2,-111.16"/>
</a>
</g>
</g>
<!-- 6&#45;&gt;3 -->
<g id="edge22" class="edge">
<title>6&#45;&gt;3</title>
<g id="a_edge22"><a xlink:title="usage">
<path fill="none" stroke="#1414ce" d="M435.58,-143.7C432.21,-135.81 428.13,-126.3 424.38,-117.55"/>
<polygon fill="#1414ce" stroke="#1414ce" points="427.49,-115.92 420.33,-108.1 421.05,-118.67 427.49,-115.92"/>
</a>
</g>
</g>
<!-- 13 -->
<g id="node9" class="node">
<title>13</title>
<g id="a_node9"><a xlink:title="HNodeGroup">
<polygon fill="#ffffff" stroke="black" points="1281,-252 1171,-252 1171,-216 1281,-216 1281,-252"/>
<text text-anchor="middle" x="1226" y="-230.3" font-family="Times,serif" font-size="14.00">HNodeGroup</text>
</a>
</g>
</g>
<!-- 13&#45;&gt;13 -->
<g id="edge24" class="edge">
<title>13&#45;&gt;13</title>
<g id="a_edge24"><a xlink:title="usage">
<path fill="none" stroke="#1414ce" d="M1281.07,-246.85C1291.57,-245.32 1299,-241.03 1299,-234 1299,-229.5 1295.95,-226.12 1291,-223.87"/>
<polygon fill="#1414ce" stroke="#1414ce" points="1291.64,-220.42 1281.07,-221.15 1289.79,-227.17 1291.64,-220.42"/>
</a>
</g>
</g>
<!-- 10 -->
<g id="node20" class="node">
<title>10</title>
<g id="a_node20"><a xlink:title="HNode">
<polygon fill="#ffffff" stroke="black" points="1259,-180 1193,-180 1193,-144 1259,-144 1259,-180"/>
<text text-anchor="middle" x="1226" y="-158.3" font-family="Times,serif" font-size="14.00">HNode</text>
</a>
</g>
</g>
<!-- 13&#45;&gt;10 -->
<g id="edge23" class="edge">
<title>13&#45;&gt;10</title>
<g id="a_edge23"><a xlink:title="usage">
<path fill="none" stroke="#1414ce" d="M1226,-215.7C1226,-207.98 1226,-198.71 1226,-190.11"/>
<polygon fill="#1414ce" stroke="#1414ce" points="1229.5,-190.1 1226,-180.1 1222.5,-190.1 1229.5,-190.1"/>
</a>
</g>
</g>
<!-- 19&#45;&gt;4 -->
<g id="edge25" class="edge">
<title>19&#45;&gt;4</title>
<g id="a_edge25"><a xlink:title="usage">
<path fill="none" stroke="#1414ce" d="M191.01,-143.78C201.88,-125.48 220.09,-95.95 238,-72 245.15,-62.44 253.57,-52.43 261.23,-43.72"/>
<polygon fill="#1414ce" stroke="#1414ce" points="263.96,-45.92 268.01,-36.13 258.74,-41.26 263.96,-45.92"/>
</a>
</g>
</g>
<!-- 8 -->
<g id="node12" class="node">
<title>8</title>
<g id="a_node12"><a xlink:title="MailboxMessage">
<polygon fill="#ffffff" stroke="black" points="979.5,-252 842.5,-252 842.5,-216 979.5,-216 979.5,-252"/>
<text text-anchor="middle" x="911" y="-230.3" font-family="Times,serif" font-size="14.00">MailboxMessage</text>
</a>
</g>
</g>
<!-- 8&#45;&gt;8 -->
<g id="edge26" class="edge">
<title>8&#45;&gt;8</title>
<g id="a_edge26"><a xlink:title="usage">
<path fill="none" stroke="#1414ce" d="M979.53,-246.37C990.21,-244.52 997.5,-240.4 997.5,-234 997.5,-229.8 994.36,-226.58 989.18,-224.34"/>
<polygon fill="#1414ce" stroke="#1414ce" points="990.1,-220.96 979.53,-221.63 988.21,-227.7 990.1,-220.96"/>
</a>
</g>
</g>
<!-- 11 -->
<g id="node13" class="node">
<title>11</title>
<g id="a_node13"><a xlink:title="Heap">
<polygon fill="#ffffff" stroke="black" points="1253,-108 1199,-108 1199,-72 1253,-72 1253,-108"/>
<text text-anchor="middle" x="1226" y="-86.3" font-family="Times,serif" font-size="14.00">Heap</text>
</a>
</g>
</g>
<!-- 11&#45;&gt;12 -->
<g id="edge27" class="edge">
<title>11&#45;&gt;12</title>
<g id="a_edge27"><a xlink:title="usage">
<path fill="none" stroke="#1414ce" d="M1226,-71.7C1226,-63.98 1226,-54.71 1226,-46.11"/>
<polygon fill="#1414ce" stroke="#1414ce" points="1229.5,-46.1 1226,-36.1 1222.5,-46.1 1229.5,-46.1"/>
</a>
</g>
</g>
<!-- 7&#45;&gt;8 -->
<g id="edge28" class="edge">
<title>7&#45;&gt;8</title>
<g id="a_edge28"><a xlink:title="usage">
<path fill="none" stroke="#1414ce" d="M832.44,-287.88C845.79,-278.89 862.32,-267.76 876.78,-258.03"/>
<polygon fill="#1414ce" stroke="#1414ce" points="879.12,-260.68 885.46,-252.19 875.21,-254.87 879.12,-260.68"/>
</a>
</g>
</g>
<!-- 7&#45;&gt;7 -->
<g id="edge29" class="edge">
<title>7&#45;&gt;7</title>
<g id="a_edge29"><a xlink:title="usage">
<path fill="none" stroke="#1414ce" d="M886.16,-317.98C896.87,-315.97 904,-311.98 904,-306 904,-302.08 900.93,-299.01 895.79,-296.8"/>
<polygon fill="#1414ce" stroke="#1414ce" points="896.74,-293.43 886.16,-294.02 894.8,-300.15 896.74,-293.43"/>
</a>
</g>
</g>
<!-- 18&#45;&gt;10 -->
<g id="edge30" class="edge">
<title>18&#45;&gt;10</title>
<g id="a_edge30"><a xlink:title="usage">
<path fill="none" stroke="#1414ce" d="M1118.74,-215.88C1138.25,-206.26 1162.75,-194.18 1183.41,-184"/>
<polygon fill="#1414ce" stroke="#1414ce" points="1185.18,-187.03 1192.6,-179.47 1182.08,-180.75 1185.18,-187.03"/>
</a>
</g>
</g>
<!-- 1&#45;&gt;2 -->
<g id="edge31" class="edge">
<title>1&#45;&gt;2</title>
<g id="a_edge31"><a xlink:title="usage">
<path fill="none" stroke="#1414ce" d="M281.79,-215.7C291.17,-207.05 302.68,-196.45 312.91,-187.03"/>
<polygon fill="#1414ce" stroke="#1414ce" points="315.45,-189.45 320.43,-180.1 310.7,-184.3 315.45,-189.45"/>
</a>
</g>
</g>
<!-- 1&#45;&gt;4 -->
<g id="edge32" class="edge">
<title>1&#45;&gt;4</title>
<g id="a_edge32"><a xlink:title="usage">
<path fill="none" stroke="#1414ce" d="M264.46,-215.93C266.02,-198.01 268.58,-169.01 271,-144 274.26,-110.37 278.33,-71.68 281.04,-46.36"/>
<polygon fill="#1414ce" stroke="#1414ce" points="284.53,-46.7 282.11,-36.38 277.57,-45.95 284.53,-46.7"/>
</a>
</g>
</g>
<!-- 9&#45;&gt;13 -->
<g id="edge34" class="edge">
<title>9&#45;&gt;13</title>
<g id="a_edge34"><a xlink:title="usage">
<path fill="none" stroke="#1414ce" d="M1226,-287.7C1226,-279.98 1226,-270.71 1226,-262.11"/>
<polygon fill="#1414ce" stroke="#1414ce" points="1229.5,-262.1 1226,-252.1 1222.5,-262.1 1229.5,-262.1"/>
</a>
</g>
</g>
<!-- 9&#45;&gt;10 -->
<g id="edge33" class="edge">
<title>9&#45;&gt;10</title>
<g id="a_edge33"><a xlink:title="usage">
<path fill="none" stroke="#1414ce" d="M1268.62,-287.99C1283.87,-279.58 1299.41,-267.78 1308,-252 1315.65,-237.95 1315.65,-230.05 1308,-216 1299.33,-200.07 1283.58,-188.2 1268.19,-179.77"/>
<polygon fill="#1414ce" stroke="#1414ce" points="1269.72,-176.63 1259.22,-175.21 1266.54,-182.86 1269.72,-176.63"/>
</a>
</g>
</g>
<!-- 3&#45;&gt;4 -->
<g id="edge35" class="edge">
<title>3&#45;&gt;4</title>
<g id="a_edge35"><a xlink:title="usage">
<path fill="none" stroke="#1414ce" d="M381.44,-71.88C364.34,-62.6 343.02,-51.03 324.68,-41.08"/>
<polygon fill="#1414ce" stroke="#1414ce" points="326.14,-37.88 315.68,-36.19 322.8,-44.04 326.14,-37.88"/>
</a>
</g>
</g>
<!-- 10&#45;&gt;11 -->
<g id="edge37" class="edge">
<title>10&#45;&gt;11</title>
<g id="a_edge37"><a xlink:title="usage">
<path fill="none" stroke="#1414ce" d="M1226,-143.7C1226,-135.98 1226,-126.71 1226,-118.11"/>
<polygon fill="#1414ce" stroke="#1414ce" points="1229.5,-118.1 1226,-108.1 1222.5,-118.1 1229.5,-118.1"/>
</a>
</g>
</g>
<!-- 10&#45;&gt;10 -->
<g id="edge36" class="edge">
<title>10&#45;&gt;10</title>
<g id="a_edge36"><a xlink:title="usage">
<path fill="none" stroke="#1414ce" d="M1259.35,-175.47C1269.28,-175.07 1277,-170.58 1277,-162 1277,-156.64 1273.98,-152.87 1269.3,-150.71"/>
<polygon fill="#1414ce" stroke="#1414ce" points="1269.87,-147.25 1259.35,-148.53 1268.37,-154.09 1269.87,-147.25"/>
</a>
</g>
</g>
</g>
</svg>
