<?xml version="1.0" encoding="UTF-8" standalone="no"?>
<!DOCTYPE svg PUBLIC "-//W3C//DTD SVG 1.1//EN"
 "http://www.w3.org/Graphics/SVG/1.1/DTD/svg11.dtd">
<!-- Generated by graphviz version 2.43.0 (0)
 -->
<!-- Title: %3 Pages: 1 -->
<svg width="1404pt" height="692pt"
 viewBox="0.00 0.00 1403.50 692.00" xmlns="http://www.w3.org/2000/svg" xmlns:xlink="http://www.w3.org/1999/xlink">
<g id="graph0" class="graph" transform="scale(1 1) rotate(0) translate(4 688)">
<title>%3</title>
<polygon fill="transparent" stroke="transparent" points="-4,4 -4,-688 1399.5,-688 1399.5,4 -4,4"/>
<!-- 5 -->
<g id="node1" class="node">
<title>5</title>
<g id="a_node1"><a xlink:title="stdbool.h">
<polygon fill="#ffffff" stroke="black" points="944,-108 861,-108 861,-72 944,-72 944,-108"/>
<text text-anchor="middle" x="902.5" y="-86.3" font-family="Times,serif" font-size="14.00">stdbool.h</text>
</a>
</g>
</g>
<!-- 18 -->
<g id="node2" class="node">
<title>18</title>
<g id="a_node2"><a xlink:title="refc_binary.h">
<polygon fill="#ffffff" stroke="black" points="681.5,-396 573.5,-396 573.5,-360 681.5,-360 681.5,-396"/>
<text text-anchor="middle" x="627.5" y="-374.3" font-family="Times,serif" font-size="14.00">refc_binary.h</text>
</a>
</g>
</g>
<!-- 18&#45;&gt;5 -->
<g id="edge1" class="edge">
<title>18&#45;&gt;5</title>
<g id="a_edge1"><a xlink:title="include">
<path fill="none" stroke="#1414ce" d="M655.3,-359.87C667.27,-350.84 680,-338.59 686.5,-324 693.02,-309.39 690.99,-303.36 686.5,-288 681.18,-269.78 668.82,-270.22 663.5,-252 650.04,-205.93 633.46,-181.44 663.5,-144 686.53,-115.31 787.7,-101.19 850.8,-95.05"/>
<polygon fill="#1414ce" stroke="#1414ce" points="851.34,-98.51 860.97,-94.1 850.68,-91.54 851.34,-98.51"/>
</a>
</g>
</g>
<!-- 19 -->
<g id="node7" class="node">
<title>19</title>
<g id="a_node7"><a xlink:title="list.h">
<polygon fill="#ffffff" stroke="black" points="1050.5,-180 996.5,-180 996.5,-144 1050.5,-144 1050.5,-180"/>
<text text-anchor="middle" x="1023.5" y="-158.3" font-family="Times,serif" font-size="14.00">list.h</text>
</a>
</g>
</g>
<!-- 18&#45;&gt;19 -->
<g id="edge3" class="edge">
<title>18&#45;&gt;19</title>
<g id="a_edge3"><a xlink:title="include">
<path fill="none" stroke="#1414ce" d="M681.77,-373.59C761.52,-365.66 910.13,-339.33 995.5,-252 1011.65,-235.48 1018.49,-209.75 1021.39,-190.2"/>
<polygon fill="#1414ce" stroke="#1414ce" points="1024.89,-190.42 1022.63,-180.07 1017.94,-189.57 1024.89,-190.42"/>
</a>
</g>
</g>
<!-- 8 -->
<g id="node9" class="node">
<title>8</title>
<g id="a_node9"><a xlink:title="stdlib.h">
<polygon fill="#ffffff" stroke="black" points="580,-108 509,-108 509,-72 580,-72 580,-108"/>
<text text-anchor="middle" x="544.5" y="-86.3" font-family="Times,serif" font-size="14.00">stdlib.h</text>
</a>
</g>
</g>
<!-- 18&#45;&gt;8 -->
<g id="edge2" class="edge">
<title>18&#45;&gt;8</title>
<g id="a_edge2"><a xlink:title="include">
<path fill="none" stroke="#1414ce" d="M600.67,-359.79C588.76,-350.66 575.81,-338.36 568.5,-324 550.51,-288.65 546,-171.9 544.87,-118.31"/>
<polygon fill="#1414ce" stroke="#1414ce" points="548.37,-118.12 544.69,-108.19 541.37,-118.25 548.37,-118.12"/>
</a>
</g>
</g>
<!-- 20 -->
<g id="node11" class="node">
<title>20</title>
<g id="a_node11"><a xlink:title="resources.h">
<polygon fill="#ffffff" stroke="black" points="677.5,-324 577.5,-324 577.5,-288 677.5,-288 677.5,-324"/>
<text text-anchor="middle" x="627.5" y="-302.3" font-family="Times,serif" font-size="14.00">resources.h</text>
</a>
</g>
</g>
<!-- 18&#45;&gt;20 -->
<g id="edge4" class="edge">
<title>18&#45;&gt;20</title>
<g id="a_edge4"><a xlink:title="include">
<path fill="none" stroke="#1414ce" d="M627.5,-359.7C627.5,-351.98 627.5,-342.71 627.5,-334.11"/>
<polygon fill="#1414ce" stroke="#1414ce" points="631,-334.1 627.5,-324.1 624,-334.1 631,-334.1"/>
</a>
</g>
</g>
<!-- 24 -->
<g id="node3" class="node">
<title>24</title>
<g id="a_node3"><a xlink:title="atom.h">
<polygon fill="#ffffff" stroke="black" points="788.5,-180 722.5,-180 722.5,-144 788.5,-144 788.5,-180"/>
<text text-anchor="middle" x="755.5" y="-158.3" font-family="Times,serif" font-size="14.00">atom.h</text>
</a>
</g>
</g>
<!-- 6 -->
<g id="node8" class="node">
<title>6</title>
<g id="a_node8"><a xlink:title="stdint.h">
<polygon fill="#ffffff" stroke="black" points="638.5,-36 566.5,-36 566.5,0 638.5,0 638.5,-36"/>
<text text-anchor="middle" x="602.5" y="-14.3" font-family="Times,serif" font-size="14.00">stdint.h</text>
</a>
</g>
</g>
<!-- 24&#45;&gt;6 -->
<g id="edge5" class="edge">
<title>24&#45;&gt;6</title>
<g id="a_edge5"><a xlink:title="include">
<path fill="none" stroke="#1414ce" d="M737.04,-143.87C709.93,-118.71 659.23,-71.65 628.4,-43.04"/>
<polygon fill="#1414ce" stroke="#1414ce" points="630.73,-40.43 621.02,-36.19 625.97,-45.56 630.73,-40.43"/>
</a>
</g>
</g>
<!-- 24&#45;&gt;8 -->
<g id="edge6" class="edge">
<title>24&#45;&gt;8</title>
<g id="a_edge6"><a xlink:title="include">
<path fill="none" stroke="#1414ce" d="M722.07,-149.91C686.39,-138.07 629.66,-119.25 589.95,-106.08"/>
<polygon fill="#1414ce" stroke="#1414ce" points="590.84,-102.69 580.25,-102.86 588.63,-109.33 590.84,-102.69"/>
</a>
</g>
</g>
<!-- 13 -->
<g id="node4" class="node">
<title>13</title>
<g id="a_node4"><a xlink:title="assert.h">
<polygon fill="#ffffff" stroke="black" points="181.5,-36 107.5,-36 107.5,0 181.5,0 181.5,-36"/>
<text text-anchor="middle" x="144.5" y="-14.3" font-family="Times,serif" font-size="14.00">assert.h</text>
</a>
</g>
</g>
<!-- 16 -->
<g id="node5" class="node">
<title>16</title>
<g id="a_node5"><a xlink:title="utils.h">
<polygon fill="#ffffff" stroke="black" points="383.5,-180 321.5,-180 321.5,-144 383.5,-144 383.5,-180"/>
<text text-anchor="middle" x="352.5" y="-158.3" font-family="Times,serif" font-size="14.00">utils.h</text>
</a>
</g>
</g>
<!-- 16&#45;&gt;8 -->
<g id="edge9" class="edge">
<title>16&#45;&gt;8</title>
<g id="a_edge9"><a xlink:title="include">
<path fill="none" stroke="#1414ce" d="M383.78,-149.6C415.15,-138.16 463.78,-120.43 499.34,-107.46"/>
<polygon fill="#1414ce" stroke="#1414ce" points="500.8,-110.66 509,-103.94 498.4,-104.08 500.8,-110.66"/>
</a>
</g>
</g>
<!-- 17 -->
<g id="node13" class="node">
<title>17</title>
<g id="a_node13"><a xlink:title="stddef.h">
<polygon fill="#ffffff" stroke="black" points="299.5,-108 225.5,-108 225.5,-72 299.5,-72 299.5,-108"/>
<text text-anchor="middle" x="262.5" y="-86.3" font-family="Times,serif" font-size="14.00">stddef.h</text>
</a>
</g>
</g>
<!-- 16&#45;&gt;17 -->
<g id="edge7" class="edge">
<title>16&#45;&gt;17</title>
<g id="a_edge7"><a xlink:title="include">
<path fill="none" stroke="#1414ce" d="M330.25,-143.7C318.92,-134.88 304.97,-124.03 292.68,-114.47"/>
<polygon fill="#1414ce" stroke="#1414ce" points="294.53,-111.48 284.49,-108.1 290.24,-117.01 294.53,-111.48"/>
</a>
</g>
</g>
<!-- 7 -->
<g id="node26" class="node">
<title>7</title>
<g id="a_node26"><a xlink:title="stdio.h">
<polygon fill="#ffffff" stroke="black" points="383,-108 318,-108 318,-72 383,-72 383,-108"/>
<text text-anchor="middle" x="350.5" y="-86.3" font-family="Times,serif" font-size="14.00">stdio.h</text>
</a>
</g>
</g>
<!-- 16&#45;&gt;7 -->
<g id="edge8" class="edge">
<title>16&#45;&gt;7</title>
<g id="a_edge8"><a xlink:title="include">
<path fill="none" stroke="#1414ce" d="M352.01,-143.7C351.79,-135.98 351.52,-126.71 351.27,-118.11"/>
<polygon fill="#1414ce" stroke="#1414ce" points="354.77,-118 350.99,-108.1 347.78,-118.2 354.77,-118"/>
</a>
</g>
</g>
<!-- 21 -->
<g id="node6" class="node">
<title>21</title>
<g id="a_node6"><a xlink:title="synclist.h">
<polygon fill="#ffffff" stroke="black" points="1175,-252 1090,-252 1090,-216 1175,-216 1175,-252"/>
<text text-anchor="middle" x="1132.5" y="-230.3" font-family="Times,serif" font-size="14.00">synclist.h</text>
</a>
</g>
</g>
<!-- 21&#45;&gt;19 -->
<g id="edge11" class="edge">
<title>21&#45;&gt;19</title>
<g id="a_edge11"><a xlink:title="include">
<path fill="none" stroke="#1414ce" d="M1105.84,-215.88C1091.72,-206.81 1074.19,-195.55 1058.94,-185.76"/>
<polygon fill="#1414ce" stroke="#1414ce" points="1060.57,-182.65 1050.27,-180.19 1056.79,-188.54 1060.57,-182.65"/>
</a>
</g>
</g>
<!-- 22 -->
<g id="node22" class="node">
<title>22</title>
<g id="a_node22"><a xlink:title="smp.h">
<polygon fill="#ffffff" stroke="black" points="1166.5,-180 1106.5,-180 1106.5,-144 1166.5,-144 1166.5,-180"/>
<text text-anchor="middle" x="1136.5" y="-158.3" font-family="Times,serif" font-size="14.00">smp.h</text>
</a>
</g>
</g>
<!-- 21&#45;&gt;22 -->
<g id="edge12" class="edge">
<title>21&#45;&gt;22</title>
<g id="a_edge12"><a xlink:title="include">
<path fill="none" stroke="#1414ce" d="M1133.49,-215.7C1133.93,-207.98 1134.46,-198.71 1134.95,-190.11"/>
<polygon fill="#1414ce" stroke="#1414ce" points="1138.45,-190.29 1135.52,-180.1 1131.46,-189.89 1138.45,-190.29"/>
</a>
</g>
</g>
<!-- 21&#45;&gt;7 -->
<g id="edge10" class="edge">
<title>21&#45;&gt;7</title>
<g id="a_edge10"><a xlink:title="include">
<path fill="none" stroke="#1414ce" d="M1120.98,-215.9C1104.76,-192.42 1075.41,-152.16 1059.5,-144 948.55,-87.08 623.71,-119.07 499.5,-108 463.54,-104.79 422.83,-100.07 393.06,-96.42"/>
<polygon fill="#1414ce" stroke="#1414ce" points="393.36,-92.93 383.01,-95.18 392.5,-99.88 393.36,-92.93"/>
</a>
</g>
</g>
<!-- 19&#45;&gt;5 -->
<g id="edge13" class="edge">
<title>19&#45;&gt;5</title>
<g id="a_edge13"><a xlink:title="include">
<path fill="none" stroke="#1414ce" d="M996.35,-145.29C980.09,-135.89 959.16,-123.78 941.19,-113.38"/>
<polygon fill="#1414ce" stroke="#1414ce" points="942.51,-110.11 932.11,-108.13 939.01,-116.16 942.51,-110.11"/>
</a>
</g>
</g>
<!-- 10 -->
<g id="node10" class="node">
<title>10</title>
<g id="a_node10"><a xlink:title="memory.h">
<polygon fill="#ffffff" stroke="black" points="445.5,-252 359.5,-252 359.5,-216 445.5,-216 445.5,-252"/>
<text text-anchor="middle" x="402.5" y="-230.3" font-family="Times,serif" font-size="14.00">memory.h</text>
</a>
</g>
</g>
<!-- 10&#45;&gt;16 -->
<g id="edge18" class="edge">
<title>10&#45;&gt;16</title>
<g id="a_edge18"><a xlink:title="include">
<path fill="none" stroke="#1414ce" d="M390.14,-215.7C384.27,-207.47 377.13,-197.48 370.66,-188.42"/>
<polygon fill="#1414ce" stroke="#1414ce" points="373.38,-186.21 364.72,-180.1 367.68,-190.28 373.38,-186.21"/>
</a>
</g>
</g>
<!-- 10&#45;&gt;6 -->
<g id="edge14" class="edge">
<title>10&#45;&gt;6</title>
<g id="a_edge14"><a xlink:title="include">
<path fill="none" stroke="#1414ce" d="M400.82,-215.98C398.61,-183.65 398.66,-112.93 435.5,-72 466,-38.11 518.05,-25.73 555.94,-21.3"/>
<polygon fill="#1414ce" stroke="#1414ce" points="556.64,-24.75 566.23,-20.25 555.92,-17.78 556.64,-24.75"/>
</a>
</g>
</g>
<!-- 10&#45;&gt;8 -->
<g id="edge15" class="edge">
<title>10&#45;&gt;8</title>
<g id="a_edge15"><a xlink:title="include">
<path fill="none" stroke="#1414ce" d="M419.63,-215.87C444.68,-190.82 491.45,-144.05 520.09,-115.41"/>
<polygon fill="#1414ce" stroke="#1414ce" points="522.71,-117.74 527.31,-108.19 517.76,-112.79 522.71,-117.74"/>
</a>
</g>
</g>
<!-- 11 -->
<g id="node14" class="node">
<title>11</title>
<g id="a_node14"><a xlink:title="erl_nif.h">
<polygon fill="#ffffff" stroke="black" points="182.5,-180 108.5,-180 108.5,-144 182.5,-144 182.5,-180"/>
<text text-anchor="middle" x="145.5" y="-158.3" font-family="Times,serif" font-size="14.00">erl_nif.h</text>
</a>
</g>
</g>
<!-- 10&#45;&gt;11 -->
<g id="edge16" class="edge">
<title>10&#45;&gt;11</title>
<g id="a_edge16"><a xlink:title="include">
<path fill="none" stroke="#1414ce" d="M359.4,-222.27C318.4,-211.92 255.06,-195.58 200.5,-180 197.89,-179.25 195.21,-178.47 192.51,-177.68"/>
<polygon fill="#1414ce" stroke="#1414ce" points="193.3,-174.26 182.71,-174.74 191.29,-180.96 193.3,-174.26"/>
</a>
</g>
</g>
<!-- 12 -->
<g id="node20" class="node">
<title>12</title>
<g id="a_node20"><a xlink:title="term_typedef.h">
<polygon fill="#ffffff" stroke="black" points="207,-108 82,-108 82,-72 207,-72 207,-108"/>
<text text-anchor="middle" x="144.5" y="-86.3" font-family="Times,serif" font-size="14.00">term_typedef.h</text>
</a>
</g>
</g>
<!-- 10&#45;&gt;12 -->
<g id="edge17" class="edge">
<title>10&#45;&gt;12</title>
<g id="a_edge17"><a xlink:title="include">
<path fill="none" stroke="#1414ce" d="M359.45,-224.27C325.52,-216.17 277.86,-201.99 240.5,-180 211.28,-162.8 183.51,-135.42 165.43,-115.57"/>
<polygon fill="#1414ce" stroke="#1414ce" points="168.03,-113.23 158.76,-108.1 162.81,-117.89 168.03,-113.23"/>
</a>
</g>
</g>
<!-- 20&#45;&gt;21 -->
<g id="edge23" class="edge">
<title>20&#45;&gt;21</title>
<g id="a_edge23"><a xlink:title="include">
<path fill="none" stroke="#1414ce" d="M677.77,-298.03C773.67,-284.74 981.88,-255.88 1079.71,-242.32"/>
<polygon fill="#1414ce" stroke="#1414ce" points="1080.25,-245.78 1089.68,-240.94 1079.29,-238.84 1080.25,-245.78"/>
</a>
</g>
</g>
<!-- 20&#45;&gt;19 -->
<g id="edge21" class="edge">
<title>20&#45;&gt;19</title>
<g id="a_edge21"><a xlink:title="include">
<path fill="none" stroke="#1414ce" d="M677.55,-299.43C765.72,-289.27 941.72,-267.39 965.5,-252 988.25,-237.27 1004,-210.13 1013.28,-189.67"/>
<polygon fill="#1414ce" stroke="#1414ce" points="1016.59,-190.82 1017.32,-180.25 1010.16,-188.06 1016.59,-190.82"/>
</a>
</g>
</g>
<!-- 20&#45;&gt;8 -->
<g id="edge19" class="edge">
<title>20&#45;&gt;8</title>
<g id="a_edge19"><a xlink:title="include">
<path fill="none" stroke="#1414ce" d="M623.64,-287.55C616.62,-257.41 600.39,-194.04 577.5,-144 573.22,-134.64 567.57,-124.92 562.16,-116.41"/>
<polygon fill="#1414ce" stroke="#1414ce" points="565.08,-114.48 556.67,-108.04 559.22,-118.32 565.08,-114.48"/>
</a>
</g>
</g>
<!-- 20&#45;&gt;10 -->
<g id="edge22" class="edge">
<title>20&#45;&gt;10</title>
<g id="a_edge22"><a xlink:title="include">
<path fill="none" stroke="#1414ce" d="M577.29,-289.38C541.02,-278.1 492.15,-262.89 455.31,-251.43"/>
<polygon fill="#1414ce" stroke="#1414ce" points="456.33,-248.08 445.74,-248.45 454.25,-254.76 456.33,-248.08"/>
</a>
</g>
</g>
<!-- 20&#45;&gt;11 -->
<g id="edge20" class="edge">
<title>20&#45;&gt;11</title>
<g id="a_edge20"><a xlink:title="include">
<path fill="none" stroke="#1414ce" d="M577.41,-298.81C521.3,-291.09 428.05,-275.93 350.5,-252 292.37,-234.06 228.55,-204.71 187.81,-184.66"/>
<polygon fill="#1414ce" stroke="#1414ce" points="189.24,-181.46 178.73,-180.15 186.13,-187.73 189.24,-181.46"/>
</a>
</g>
</g>
<!-- 3 -->
<g id="node12" class="node">
<title>3</title>
<g id="a_node12"><a xlink:title="term.h">
<polygon fill="#ffffff" stroke="black" points="506,-468 441,-468 441,-432 506,-432 506,-468"/>
<text text-anchor="middle" x="473.5" y="-446.3" font-family="Times,serif" font-size="14.00">term.h</text>
</a>
</g>
</g>
<!-- 3&#45;&gt;5 -->
<g id="edge25" class="edge">
<title>3&#45;&gt;5</title>
<g id="a_edge25"><a xlink:title="include">
<path fill="none" stroke="#1414ce" d="M506.01,-445.39C560.2,-438.69 665.52,-422.55 690.5,-396 767.57,-314.09 635.64,-225.16 713.5,-144 748.92,-107.08 807.79,-95.24 850.43,-91.75"/>
<polygon fill="#1414ce" stroke="#1414ce" points="850.89,-95.23 860.62,-91.05 850.41,-88.25 850.89,-95.23"/>
</a>
</g>
</g>
<!-- 3&#45;&gt;18 -->
<g id="edge31" class="edge">
<title>3&#45;&gt;18</title>
<g id="a_edge31"><a xlink:title="include">
<path fill="none" stroke="#1414ce" d="M506.16,-434.15C527.83,-424.31 556.6,-411.23 580.69,-400.28"/>
<polygon fill="#1414ce" stroke="#1414ce" points="582.36,-403.36 590.01,-396.04 579.46,-396.99 582.36,-403.36"/>
</a>
</g>
</g>
<!-- 3&#45;&gt;16 -->
<g id="edge32" class="edge">
<title>3&#45;&gt;16</title>
<g id="a_edge32"><a xlink:title="include">
<path fill="none" stroke="#1414ce" d="M458.06,-431.92C430.05,-399.64 371.77,-326.23 350.5,-252 344.73,-231.85 345.63,-208.07 347.76,-190.16"/>
<polygon fill="#1414ce" stroke="#1414ce" points="351.25,-190.5 349.15,-180.11 344.31,-189.54 351.25,-190.5"/>
</a>
</g>
</g>
<!-- 3&#45;&gt;6 -->
<g id="edge26" class="edge">
<title>3&#45;&gt;6</title>
<g id="a_edge26"><a xlink:title="include">
<path fill="none" stroke="#1414ce" d="M472.52,-431.86C469.1,-366.31 459.91,-132.14 499.5,-72 512.69,-51.97 535.93,-39.1 557.01,-31.07"/>
<polygon fill="#1414ce" stroke="#1414ce" points="558.24,-34.35 566.5,-27.71 555.9,-27.75 558.24,-34.35"/>
</a>
</g>
</g>
<!-- 3&#45;&gt;8 -->
<g id="edge28" class="edge">
<title>3&#45;&gt;8</title>
<g id="a_edge28"><a xlink:title="include">
<path fill="none" stroke="#1414ce" d="M478.36,-431.89C481.21,-421.55 484.78,-408.07 487.5,-396 510.42,-294.23 531.28,-171.89 540.08,-118.35"/>
<polygon fill="#1414ce" stroke="#1414ce" points="543.57,-118.72 541.73,-108.29 536.66,-117.59 543.57,-118.72"/>
</a>
</g>
</g>
<!-- 3&#45;&gt;10 -->
<g id="edge30" class="edge">
<title>3&#45;&gt;10</title>
<g id="a_edge30"><a xlink:title="include">
<path fill="none" stroke="#1414ce" d="M467.81,-431.85C455.48,-394.68 426.2,-306.44 411.4,-261.82"/>
<polygon fill="#1414ce" stroke="#1414ce" points="414.69,-260.62 408.22,-252.23 408.04,-262.83 414.69,-260.62"/>
</a>
</g>
</g>
<!-- 4 -->
<g id="node18" class="node">
<title>4</title>
<g id="a_node18"><a xlink:title="sys/types.h">
<polygon fill="#ffffff" stroke="black" points="196,-396 99,-396 99,-360 196,-360 196,-396"/>
<text text-anchor="middle" x="147.5" y="-374.3" font-family="Times,serif" font-size="14.00">sys/types.h</text>
</a>
</g>
</g>
<!-- 3&#45;&gt;4 -->
<g id="edge24" class="edge">
<title>3&#45;&gt;4</title>
<g id="a_edge24"><a xlink:title="include">
<path fill="none" stroke="#1414ce" d="M440.98,-443.63C391.97,-435.3 296.11,-418.15 206.05,-396.28"/>
<polygon fill="#1414ce" stroke="#1414ce" points="206.78,-392.85 196.23,-393.87 205.11,-399.65 206.78,-392.85"/>
</a>
</g>
</g>
<!-- 9 -->
<g id="node19" class="node">
<title>9</title>
<g id="a_node19"><a xlink:title="string.h">
<polygon fill="#ffffff" stroke="black" points="287,-396 214,-396 214,-360 287,-360 287,-396"/>
<text text-anchor="middle" x="250.5" y="-374.3" font-family="Times,serif" font-size="14.00">string.h</text>
</a>
</g>
</g>
<!-- 3&#45;&gt;9 -->
<g id="edge29" class="edge">
<title>3&#45;&gt;9</title>
<g id="a_edge29"><a xlink:title="include">
<path fill="none" stroke="#1414ce" d="M440.78,-439.16C406.12,-428.68 349.85,-411.51 301.5,-396 300.06,-395.54 298.59,-395.06 297.11,-394.58"/>
<polygon fill="#1414ce" stroke="#1414ce" points="297.83,-391.14 287.24,-391.36 295.66,-397.79 297.83,-391.14"/>
</a>
</g>
</g>
<!-- 3&#45;&gt;12 -->
<g id="edge33" class="edge">
<title>3&#45;&gt;12</title>
<g id="a_edge33"><a xlink:title="include">
<path fill="none" stroke="#1414ce" d="M440.78,-449.12C357.45,-448.74 140.21,-443.13 89.5,-396 59.87,-368.47 70.5,-347.45 70.5,-307 70.5,-307 70.5,-307 70.5,-233 70.5,-191.4 79.21,-180.32 99.5,-144 105.03,-134.1 112.57,-124.32 119.89,-115.92"/>
<polygon fill="#1414ce" stroke="#1414ce" points="122.65,-118.08 126.77,-108.32 117.46,-113.38 122.65,-118.08"/>
</a>
</g>
</g>
<!-- 3&#45;&gt;7 -->
<g id="edge27" class="edge">
<title>3&#45;&gt;7</title>
<g id="a_edge27"><a xlink:title="include">
<path fill="none" stroke="#1414ce" d="M444.13,-431.93C429.78,-422.59 412.96,-410.07 400.5,-396 376.23,-368.6 375.24,-357.51 360.5,-324 327.16,-248.21 287.16,-222.82 312.5,-144 315.69,-134.08 321.5,-124.44 327.63,-116.17"/>
<polygon fill="#1414ce" stroke="#1414ce" points="330.57,-118.09 334.04,-108.08 325.08,-113.74 330.57,-118.09"/>
</a>
</g>
</g>
<!-- 11&#45;&gt;12 -->
<g id="edge34" class="edge">
<title>11&#45;&gt;12</title>
<g id="a_edge34"><a xlink:title="include">
<path fill="none" stroke="#1414ce" d="M145.25,-143.7C145.14,-135.98 145.01,-126.71 144.89,-118.11"/>
<polygon fill="#1414ce" stroke="#1414ce" points="148.39,-118.05 144.74,-108.1 141.39,-118.15 148.39,-118.05"/>
</a>
</g>
</g>
<!-- 2 -->
<g id="node15" class="node">
<title>2</title>
<g id="a_node15"><a xlink:title="exportedfunction.h">
<polygon fill="#ffffff" stroke="black" points="549.5,-540 397.5,-540 397.5,-504 549.5,-504 549.5,-540"/>
<text text-anchor="middle" x="473.5" y="-518.3" font-family="Times,serif" font-size="14.00">exportedfunction.h</text>
</a>
</g>
</g>
<!-- 2&#45;&gt;3 -->
<g id="edge35" class="edge">
<title>2&#45;&gt;3</title>
<g id="a_edge35"><a xlink:title="include">
<path fill="none" stroke="#1414ce" d="M473.5,-503.7C473.5,-495.98 473.5,-486.71 473.5,-478.11"/>
<polygon fill="#1414ce" stroke="#1414ce" points="477,-478.1 473.5,-468.1 470,-478.1 477,-478.1"/>
</a>
</g>
</g>
<!-- 14 -->
<g id="node16" class="node">
<title>14</title>
<g id="a_node16"><a xlink:title="limits.h">
<polygon fill="#ffffff" stroke="black" points="271,-36 200,-36 200,0 271,0 271,-36"/>
<text text-anchor="middle" x="235.5" y="-14.3" font-family="Times,serif" font-size="14.00">limits.h</text>
</a>
</g>
</g>
<!-- 25 -->
<g id="node17" class="node">
<title>25</title>
<g id="a_node17"><a xlink:title="atom_table.h">
<polygon fill="#ffffff" stroke="black" points="957,-252 848,-252 848,-216 957,-216 957,-252"/>
<text text-anchor="middle" x="902.5" y="-230.3" font-family="Times,serif" font-size="14.00">atom_table.h</text>
</a>
</g>
</g>
<!-- 25&#45;&gt;5 -->
<g id="edge36" class="edge">
<title>25&#45;&gt;5</title>
<g id="a_edge36"><a xlink:title="include">
<path fill="none" stroke="#1414ce" d="M902.5,-215.87C902.5,-191.67 902.5,-147.21 902.5,-118.39"/>
<polygon fill="#1414ce" stroke="#1414ce" points="906,-118.19 902.5,-108.19 899,-118.19 906,-118.19"/>
</a>
</g>
</g>
<!-- 25&#45;&gt;24 -->
<g id="edge37" class="edge">
<title>25&#45;&gt;24</title>
<g id="a_edge37"><a xlink:title="include">
<path fill="none" stroke="#1414ce" d="M866.54,-215.88C845.72,-205.96 819.39,-193.43 797.61,-183.05"/>
<polygon fill="#1414ce" stroke="#1414ce" points="799.11,-179.89 788.58,-178.75 796.1,-186.21 799.11,-179.89"/>
</a>
</g>
</g>
<!-- 12&#45;&gt;13 -->
<g id="edge38" class="edge">
<title>12&#45;&gt;13</title>
<g id="a_edge38"><a xlink:title="include">
<path fill="none" stroke="#1414ce" d="M144.5,-71.7C144.5,-63.98 144.5,-54.71 144.5,-46.11"/>
<polygon fill="#1414ce" stroke="#1414ce" points="148,-46.1 144.5,-36.1 141,-46.1 148,-46.1"/>
</a>
</g>
</g>
<!-- 12&#45;&gt;6 -->
<g id="edge41" class="edge">
<title>12&#45;&gt;6</title>
<g id="a_edge41"><a xlink:title="include">
<path fill="none" stroke="#1414ce" d="M207.25,-73.81C210.37,-73.17 213.47,-72.56 216.5,-72 338.35,-49.3 483.53,-31.94 556.21,-23.91"/>
<polygon fill="#1414ce" stroke="#1414ce" points="556.84,-27.36 566.39,-22.79 556.07,-20.4 556.84,-27.36"/>
</a>
</g>
</g>
<!-- 12&#45;&gt;14 -->
<g id="edge39" class="edge">
<title>12&#45;&gt;14</title>
<g id="a_edge39"><a xlink:title="include">
<path fill="none" stroke="#1414ce" d="M166.99,-71.7C178.46,-62.88 192.56,-52.03 204.98,-42.47"/>
<polygon fill="#1414ce" stroke="#1414ce" points="207.47,-44.98 213.26,-36.1 203.2,-39.43 207.47,-44.98"/>
</a>
</g>
</g>
<!-- 15 -->
<g id="node28" class="node">
<title>15</title>
<g id="a_node28"><a xlink:title="inttypes.h">
<polygon fill="#ffffff" stroke="black" points="89,-36 0,-36 0,0 89,0 89,-36"/>
<text text-anchor="middle" x="44.5" y="-14.3" font-family="Times,serif" font-size="14.00">inttypes.h</text>
</a>
</g>
</g>
<!-- 12&#45;&gt;15 -->
<g id="edge40" class="edge">
<title>12&#45;&gt;15</title>
<g id="a_edge40"><a xlink:title="include">
<path fill="none" stroke="#1414ce" d="M120.04,-71.88C107.2,-62.89 91.3,-51.76 77.41,-42.03"/>
<polygon fill="#1414ce" stroke="#1414ce" points="79.26,-39.06 69.06,-36.19 75.24,-44.79 79.26,-39.06"/>
</a>
</g>
</g>
<!-- 23 -->
<g id="node21" class="node">
<title>23</title>
<g id="a_node21"><a xlink:title="globalcontext.h">
<polygon fill="#ffffff" stroke="black" points="1045,-612 918,-612 918,-576 1045,-576 1045,-612"/>
<text text-anchor="middle" x="981.5" y="-590.3" font-family="Times,serif" font-size="14.00">globalcontext.h</text>
</a>
</g>
</g>
<!-- 23&#45;&gt;24 -->
<g id="edge43" class="edge">
<title>23&#45;&gt;24</title>
<g id="a_edge43"><a xlink:title="include">
<path fill="none" stroke="#1414ce" d="M956.68,-575.98C925.07,-552.07 874.5,-505.33 874.5,-451 874.5,-451 874.5,-451 874.5,-377 874.5,-300.01 814.94,-224.84 780.09,-187.46"/>
<polygon fill="#1414ce" stroke="#1414ce" points="782.49,-184.9 773.06,-180.06 777.41,-189.72 782.49,-184.9"/>
</a>
</g>
</g>
<!-- 23&#45;&gt;21 -->
<g id="edge50" class="edge">
<title>23&#45;&gt;21</title>
<g id="a_edge50"><a xlink:title="include">
<path fill="none" stroke="#1414ce" d="M1024.54,-575.82C1070.72,-554.2 1137.5,-512.34 1137.5,-451 1137.5,-451 1137.5,-451 1137.5,-377 1137.5,-336.97 1135.49,-290.63 1134.02,-262.07"/>
<polygon fill="#1414ce" stroke="#1414ce" points="1137.51,-261.84 1133.49,-252.04 1130.52,-262.21 1137.51,-261.84"/>
</a>
</g>
</g>
<!-- 23&#45;&gt;19 -->
<g id="edge47" class="edge">
<title>23&#45;&gt;19</title>
<g id="a_edge47"><a xlink:title="include">
<path fill="none" stroke="#1414ce" d="M1045.12,-580.7C1110.72,-563.88 1203.5,-526.72 1203.5,-451 1203.5,-451 1203.5,-451 1203.5,-305 1203.5,-264.55 1211.52,-246.1 1184.5,-216 1175.98,-206.51 1105.15,-185.56 1060.32,-173.03"/>
<polygon fill="#1414ce" stroke="#1414ce" points="1061.2,-169.64 1050.63,-170.34 1059.33,-176.39 1061.2,-169.64"/>
</a>
</g>
</g>
<!-- 23&#45;&gt;6 -->
<g id="edge42" class="edge">
<title>23&#45;&gt;6</title>
<g id="a_edge42"><a xlink:title="include">
<path fill="none" stroke="#1414ce" d="M1045.06,-591.17C1108.53,-587.26 1207.58,-575.4 1285.5,-540 1342.76,-513.99 1395.5,-513.89 1395.5,-451 1395.5,-451 1395.5,-451 1395.5,-161 1395.5,-84.63 818.2,-35.2 648.73,-22.34"/>
<polygon fill="#1414ce" stroke="#1414ce" points="648.87,-18.84 638.63,-21.58 648.34,-25.82 648.87,-18.84"/>
</a>
</g>
</g>
<!-- 23&#45;&gt;3 -->
<g id="edge51" class="edge">
<title>23&#45;&gt;3</title>
<g id="a_edge51"><a xlink:title="include">
<path fill="none" stroke="#1414ce" d="M920.48,-575.94C816.15,-546.78 606.06,-488.05 516.03,-462.89"/>
<polygon fill="#1414ce" stroke="#1414ce" points="516.74,-459.45 506.17,-460.13 514.86,-466.19 516.74,-459.45"/>
</a>
</g>
</g>
<!-- 23&#45;&gt;11 -->
<g id="edge45" class="edge">
<title>23&#45;&gt;11</title>
<g id="a_edge45"><a xlink:title="include">
<path fill="none" stroke="#1414ce" d="M917.76,-590.2C704.98,-580.02 32.5,-540.75 32.5,-451 32.5,-451 32.5,-451 32.5,-305 32.5,-254.17 77.38,-211.01 110.57,-186.04"/>
<polygon fill="#1414ce" stroke="#1414ce" points="112.71,-188.82 118.72,-180.09 108.58,-183.16 112.71,-188.82"/>
</a>
</g>
</g>
<!-- 23&#45;&gt;25 -->
<g id="edge44" class="edge">
<title>23&#45;&gt;25</title>
<g id="a_edge44"><a xlink:title="include">
<path fill="none" stroke="#1414ce" d="M970.52,-575.84C954.99,-549.89 928.5,-498.63 928.5,-451 928.5,-451 928.5,-451 928.5,-377 928.5,-336.55 918.17,-290.67 910.53,-262.28"/>
<polygon fill="#1414ce" stroke="#1414ce" points="913.81,-261 907.76,-252.3 907.06,-262.87 913.81,-261"/>
</a>
</g>
</g>
<!-- 23&#45;&gt;22 -->
<g id="edge49" class="edge">
<title>23&#45;&gt;22</title>
<g id="a_edge49"><a xlink:title="include">
<path fill="none" stroke="#1414ce" d="M1045.1,-586.07C1122.08,-573.74 1241.5,-540.23 1241.5,-451 1241.5,-451 1241.5,-451 1241.5,-305 1241.5,-262.66 1233.03,-249.78 1207.5,-216 1198.69,-204.35 1186.65,-194.05 1174.99,-185.7"/>
<polygon fill="#1414ce" stroke="#1414ce" points="1176.84,-182.73 1166.61,-179.98 1172.89,-188.51 1176.84,-182.73"/>
</a>
</g>
</g>
<!-- 28 -->
<g id="node23" class="node">
<title>28</title>
<g id="a_node23"><a xlink:title="timer_list.h">
<polygon fill="#ffffff" stroke="black" points="1367.5,-252 1269.5,-252 1269.5,-216 1367.5,-216 1367.5,-252"/>
<text text-anchor="middle" x="1318.5" y="-230.3" font-family="Times,serif" font-size="14.00">timer_list.h</text>
</a>
</g>
</g>
<!-- 23&#45;&gt;28 -->
<g id="edge52" class="edge">
<title>23&#45;&gt;28</title>
<g id="a_edge52"><a xlink:title="include">
<path fill="none" stroke="#1414ce" d="M1045.21,-587.23C1115.57,-579.74 1223.18,-564.64 1255.5,-540 1290.59,-513.25 1299.5,-495.13 1299.5,-451 1299.5,-451 1299.5,-451 1299.5,-377 1299.5,-336.86 1307.05,-290.9 1312.63,-262.4"/>
<polygon fill="#1414ce" stroke="#1414ce" points="1316.11,-262.88 1314.66,-252.39 1309.24,-261.5 1316.11,-262.88"/>
</a>
</g>
</g>
<!-- 27 -->
<g id="node25" class="node">
<title>27</title>
<g id="a_node25"><a xlink:title="mailbox.h">
<polygon fill="#ffffff" stroke="black" points="791.5,-252 705.5,-252 705.5,-216 791.5,-216 791.5,-252"/>
<text text-anchor="middle" x="748.5" y="-230.3" font-family="Times,serif" font-size="14.00">mailbox.h</text>
</a>
</g>
</g>
<!-- 23&#45;&gt;27 -->
<g id="edge48" class="edge">
<title>23&#45;&gt;27</title>
<g id="a_edge48"><a xlink:title="include">
<path fill="none" stroke="#1414ce" d="M917.82,-577.19C896.98,-569.15 875.39,-557.3 860.5,-540 833.77,-508.95 836.5,-491.97 836.5,-451 836.5,-451 836.5,-451 836.5,-377 836.5,-330.01 801.26,-285.63 775.38,-259.37"/>
<polygon fill="#1414ce" stroke="#1414ce" points="777.61,-256.66 768.03,-252.14 772.7,-261.65 777.61,-256.66"/>
</a>
</g>
</g>
<!-- 26 -->
<g id="node27" class="node">
<title>26</title>
<g id="a_node27"><a xlink:title="ets.h">
<polygon fill="#ffffff" stroke="black" points="1062.5,-540 1008.5,-540 1008.5,-504 1062.5,-504 1062.5,-540"/>
<text text-anchor="middle" x="1035.5" y="-518.3" font-family="Times,serif" font-size="14.00">ets.h</text>
</a>
</g>
</g>
<!-- 23&#45;&gt;26 -->
<g id="edge46" class="edge">
<title>23&#45;&gt;26</title>
<g id="a_edge46"><a xlink:title="include">
<path fill="none" stroke="#1414ce" d="M994.85,-575.7C1001.26,-567.39 1009.06,-557.28 1016.11,-548.14"/>
<polygon fill="#1414ce" stroke="#1414ce" points="1018.97,-550.16 1022.31,-540.1 1013.43,-545.88 1018.97,-550.16"/>
</a>
</g>
</g>
<!-- 22&#45;&gt;5 -->
<g id="edge53" class="edge">
<title>22&#45;&gt;5</title>
<g id="a_edge53"><a xlink:title="include">
<path fill="none" stroke="#1414ce" d="M1106.34,-148.91C1101.73,-147.19 1097.01,-145.5 1092.5,-144 1046.25,-128.66 992.72,-114 954.29,-104"/>
<polygon fill="#1414ce" stroke="#1414ce" points="954.92,-100.55 944.36,-101.43 953.17,-107.32 954.92,-100.55"/>
</a>
</g>
</g>
<!-- 28&#45;&gt;5 -->
<g id="edge54" class="edge">
<title>28&#45;&gt;5</title>
<g id="a_edge54"><a xlink:title="include">
<path fill="none" stroke="#1414ce" d="M1296.59,-215.77C1269.65,-195.46 1221.77,-162.17 1175.5,-144 1101.68,-115.01 1010.18,-101.4 954.09,-95.37"/>
<polygon fill="#1414ce" stroke="#1414ce" points="954.35,-91.88 944.05,-94.33 953.63,-98.84 954.35,-91.88"/>
</a>
</g>
</g>
<!-- 28&#45;&gt;19 -->
<g id="edge56" class="edge">
<title>28&#45;&gt;19</title>
<g id="a_edge56"><a xlink:title="include">
<path fill="none" stroke="#1414ce" d="M1269.46,-221.36C1210.63,-207.4 1113.35,-184.32 1060.48,-171.77"/>
<polygon fill="#1414ce" stroke="#1414ce" points="1061.06,-168.32 1050.52,-169.41 1059.44,-175.13 1061.06,-168.32"/>
</a>
</g>
</g>
<!-- 28&#45;&gt;6 -->
<g id="edge55" class="edge">
<title>28&#45;&gt;6</title>
<g id="a_edge55"><a xlink:title="include">
<path fill="none" stroke="#1414ce" d="M1304.55,-215.95C1287.16,-195.81 1255.56,-162.69 1221.5,-144 1028.03,-37.81 756.1,-21.33 648.71,-19.14"/>
<polygon fill="#1414ce" stroke="#1414ce" points="648.6,-15.64 638.54,-18.96 648.48,-22.63 648.6,-15.64"/>
</a>
</g>
</g>
<!-- 1 -->
<g id="node24" class="node">
<title>1</title>
<g id="a_node24"><a xlink:title="/__w/AtomVM/AtomVM/src/libAtomVM/posix_nifs.h">
<polygon fill="#bfbfbf" stroke="black" points="766,-684 389,-684 389,-648 766,-648 766,-684"/>
<text text-anchor="middle" x="577.5" y="-662.3" font-family="Times,serif" font-size="14.00">/__w/AtomVM/AtomVM/src/libAtomVM/posix_nifs.h</text>
</a>
</g>
</g>
<!-- 1&#45;&gt;3 -->
<g id="edge59" class="edge">
<title>1&#45;&gt;3</title>
<g id="a_edge59"><a xlink:title="include">
<path fill="none" stroke="#1414ce" d="M580.02,-647.91C583.7,-616.67 587.3,-549.39 558.5,-504 548.38,-488.04 531.53,-476.08 515.49,-467.6"/>
<polygon fill="#1414ce" stroke="#1414ce" points="516.72,-464.3 506.2,-463.01 513.61,-470.58 516.72,-464.3"/>
</a>
</g>
</g>
<!-- 1&#45;&gt;2 -->
<g id="edge57" class="edge">
<title>1&#45;&gt;2</title>
<g id="a_edge57"><a xlink:title="include">
<path fill="none" stroke="#1414ce" d="M564.96,-647.87C546.84,-623.14 513.23,-577.24 492.18,-548.51"/>
<polygon fill="#1414ce" stroke="#1414ce" points="494.82,-546.19 486.09,-540.19 489.17,-550.33 494.82,-546.19"/>
</a>
</g>
</g>
<!-- 1&#45;&gt;23 -->
<g id="edge58" class="edge">
<title>1&#45;&gt;23</title>
<g id="a_edge58"><a xlink:title="include">
<path fill="none" stroke="#1414ce" d="M675.81,-647.97C747.31,-635.58 842.59,-619.07 907.65,-607.8"/>
<polygon fill="#1414ce" stroke="#1414ce" points="908.57,-611.19 917.83,-606.03 907.38,-604.29 908.57,-611.19"/>
</a>
</g>
</g>
<!-- 27&#45;&gt;5 -->
<g id="edge60" class="edge">
<title>27&#45;&gt;5</title>
<g id="a_edge60"><a xlink:title="include">
<path fill="none" stroke="#1414ce" d="M767.08,-215.87C794.36,-190.71 845.4,-143.65 876.43,-115.04"/>
<polygon fill="#1414ce" stroke="#1414ce" points="878.88,-117.54 883.86,-108.19 874.13,-112.4 878.88,-117.54"/>
</a>
</g>
</g>
<!-- 27&#45;&gt;16 -->
<g id="edge63" class="edge">
<title>27&#45;&gt;16</title>
<g id="a_edge63"><a xlink:title="include">
<path fill="none" stroke="#1414ce" d="M705.37,-225.38C628.59,-211.8 469.24,-183.64 393.8,-170.3"/>
<polygon fill="#1414ce" stroke="#1414ce" points="394.19,-166.81 383.73,-168.52 392.97,-173.71 394.19,-166.81"/>
</a>
</g>
</g>
<!-- 27&#45;&gt;19 -->
<g id="edge61" class="edge">
<title>27&#45;&gt;19</title>
<g id="a_edge61"><a xlink:title="include">
<path fill="none" stroke="#1414ce" d="M791.77,-221.99C845.4,-208.33 935.89,-185.3 986.46,-172.43"/>
<polygon fill="#1414ce" stroke="#1414ce" points="987.49,-175.78 996.32,-169.92 985.76,-168.99 987.49,-175.78"/>
</a>
</g>
</g>
<!-- 27&#45;&gt;12 -->
<g id="edge62" class="edge">
<title>27&#45;&gt;12</title>
<g id="a_edge62"><a xlink:title="include">
<path fill="none" stroke="#1414ce" d="M705.32,-232.92C625.77,-231.65 451.46,-223.61 312.5,-180 286.37,-171.8 223.52,-136.83 182.54,-113.25"/>
<polygon fill="#1414ce" stroke="#1414ce" points="184.05,-110.08 173.64,-108.11 180.55,-116.14 184.05,-110.08"/>
</a>
</g>
</g>
<!-- 26&#45;&gt;21 -->
<g id="edge65" class="edge">
<title>26&#45;&gt;21</title>
<g id="a_edge65"><a xlink:title="include">
<path fill="none" stroke="#1414ce" d="M1051.55,-503.56C1059.79,-493.75 1069.37,-480.91 1075.5,-468 1092.92,-431.31 1116.89,-315.26 1127.31,-262.09"/>
<polygon fill="#1414ce" stroke="#1414ce" points="1130.79,-262.52 1129.26,-252.04 1123.92,-261.18 1130.79,-262.52"/>
</a>
</g>
</g>
<!-- 26&#45;&gt;19 -->
<g id="edge64" class="edge">
<title>26&#45;&gt;19</title>
<g id="a_edge64"><a xlink:title="include">
<path fill="none" stroke="#1414ce" d="M1040.76,-503.7C1048.36,-477.14 1061.5,-424.61 1061.5,-379 1061.5,-379 1061.5,-379 1061.5,-305 1061.5,-263.63 1046.27,-217.72 1035.09,-189.61"/>
<polygon fill="#1414ce" stroke="#1414ce" points="1038.22,-188.02 1031.19,-180.09 1031.74,-190.67 1038.22,-188.02"/>
</a>
</g>
</g>
<!-- 26&#45;&gt;3 -->
<g id="edge66" class="edge">
<title>26&#45;&gt;3</title>
<g id="a_edge66"><a xlink:title="include">
<path fill="none" stroke="#1414ce" d="M1008.39,-517.62C918.01,-506.37 626.46,-470.05 516.24,-456.32"/>
<polygon fill="#1414ce" stroke="#1414ce" points="516.51,-452.83 506.15,-455.07 515.65,-459.78 516.51,-452.83"/>
</a>
</g>
</g>
</g>
</svg>
