<?xml version="1.0" encoding="UTF-8" standalone="no"?>
<!DOCTYPE svg PUBLIC "-//W3C//DTD SVG 1.1//EN"
 "http://www.w3.org/Graphics/SVG/1.1/DTD/svg11.dtd">
<!-- Generated by graphviz version 2.43.0 (0)
 -->
<!-- Title: %3 Pages: 1 -->
<svg width="1478pt" height="548pt"
 viewBox="0.00 0.00 1477.50 548.00" xmlns="http://www.w3.org/2000/svg" xmlns:xlink="http://www.w3.org/1999/xlink">
<g id="graph0" class="graph" transform="scale(1 1) rotate(0) translate(4 544)">
<title>%3</title>
<polygon fill="transparent" stroke="transparent" points="-4,4 -4,-544 1473.5,-544 1473.5,4 -4,4"/>
<!-- 24 -->
<g id="node1" class="node">
<title>24</title>
<g id="a_node1"><a xlink:title="SpinLock">
<polygon fill="#ffffff" stroke="black" points="718.5,-324 636.5,-324 636.5,-288 718.5,-288 718.5,-324"/>
<text text-anchor="middle" x="677.5" y="-302.3" font-family="Times,serif" font-size="14.00">SpinLock</text>
</a>
</g>
</g>
<!-- 21 -->
<g id="node2" class="node">
<title>21</title>
<g id="a_node2"><a xlink:title="ResourceType">
<polygon fill="#ffffff" stroke="black" points="540,-180 423,-180 423,-144 540,-144 540,-180"/>
<text text-anchor="middle" x="481.5" y="-158.3" font-family="Times,serif" font-size="14.00">ResourceType</text>
</a>
</g>
</g>
<!-- 7 -->
<g id="node4" class="node">
<title>7</title>
<g id="a_node4"><a xlink:title="ListHead">
<polygon fill="#ffffff" stroke="black" points="603,-36 522,-36 522,0 603,0 603,-36"/>
<text text-anchor="middle" x="562.5" y="-14.3" font-family="Times,serif" font-size="14.00">ListHead</text>
</a>
</g>
</g>
<!-- 21&#45;&gt;7 -->
<g id="edge3" class="edge">
<title>21&#45;&gt;7</title>
<g id="a_edge3"><a xlink:title="usage">
<path fill="none" stroke="#1414ce" d="M491.27,-143.87C505.32,-119.24 531.33,-73.64 547.73,-44.88"/>
<polygon fill="#1414ce" stroke="#1414ce" points="550.78,-46.61 552.69,-36.19 544.7,-43.14 550.78,-46.61"/>
</a>
</g>
</g>
<!-- 12 -->
<g id="node7" class="node">
<title>12</title>
<g id="a_node7"><a xlink:title="GlobalContext">
<polygon fill="#ffffff" stroke="black" points="516,-396 397,-396 397,-360 516,-360 516,-396"/>
<text text-anchor="middle" x="456.5" y="-374.3" font-family="Times,serif" font-size="14.00">GlobalContext</text>
</a>
</g>
</g>
<!-- 21&#45;&gt;12 -->
<g id="edge2" class="edge">
<title>21&#45;&gt;12</title>
<g id="a_edge2"><a xlink:title="usage">
<path fill="none" stroke="#1414ce" d="M469.34,-180.17C453.74,-203.34 427.5,-246.52 417.5,-288 413.75,-303.55 412.51,-308.8 417.5,-324 420.81,-334.09 426.87,-343.85 433.23,-352.18"/>
<polygon fill="#1414ce" stroke="#1414ce" points="430.58,-354.46 439.61,-359.99 436,-350.03 430.58,-354.46"/>
</a>
</g>
</g>
<!-- 14 -->
<g id="node23" class="node">
<title>14</title>
<g id="a_node23"><a xlink:title="SyncList">
<polygon fill="#ffffff" stroke="black" points="487.5,-108 409.5,-108 409.5,-72 487.5,-72 487.5,-108"/>
<text text-anchor="middle" x="448.5" y="-86.3" font-family="Times,serif" font-size="14.00">SyncList</text>
</a>
</g>
</g>
<!-- 21&#45;&gt;14 -->
<g id="edge1" class="edge">
<title>21&#45;&gt;14</title>
<g id="a_edge1"><a xlink:title="usage">
<path fill="none" stroke="#1414ce" d="M473.34,-143.7C469.59,-135.73 465.05,-126.1 460.88,-117.26"/>
<polygon fill="#1414ce" stroke="#1414ce" points="463.99,-115.66 456.56,-108.1 457.66,-118.64 463.99,-115.66"/>
</a>
</g>
</g>
<!-- 8 -->
<g id="node3" class="node">
<title>8</title>
<g id="a_node3"><a xlink:title="Module">
<polygon fill="#ffffff" stroke="black" points="1180.5,-324 1110.5,-324 1110.5,-288 1180.5,-288 1180.5,-324"/>
<text text-anchor="middle" x="1145.5" y="-302.3" font-family="Times,serif" font-size="14.00">Module</text>
</a>
</g>
</g>
<!-- 8&#45;&gt;7 -->
<g id="edge6" class="edge">
<title>8&#45;&gt;7</title>
<g id="a_edge6"><a xlink:title="usage">
<path fill="none" stroke="#1414ce" d="M1144.5,-287.7C1142.83,-269.08 1138.38,-239.03 1126.5,-216 1106.6,-177.42 1097.72,-166.34 1060.5,-144 914.1,-56.1 707.94,-29.76 613.44,-22.06"/>
<polygon fill="#1414ce" stroke="#1414ce" points="613.53,-18.56 603.29,-21.28 612.99,-25.54 613.53,-18.56"/>
</a>
</g>
</g>
<!-- 9 -->
<g id="node11" class="node">
<title>9</title>
<g id="a_node11"><a xlink:title="LiteralEntry">
<polygon fill="#ffffff" stroke="black" points="1277.5,-252 1173.5,-252 1173.5,-216 1277.5,-216 1277.5,-252"/>
<text text-anchor="middle" x="1225.5" y="-230.3" font-family="Times,serif" font-size="14.00">LiteralEntry</text>
</a>
</g>
</g>
<!-- 8&#45;&gt;9 -->
<g id="edge5" class="edge">
<title>8&#45;&gt;9</title>
<g id="a_edge5"><a xlink:title="usage">
<path fill="none" stroke="#1414ce" d="M1165.28,-287.7C1175.25,-278.97 1187.51,-268.24 1198.36,-258.75"/>
<polygon fill="#1414ce" stroke="#1414ce" points="1200.73,-261.32 1205.95,-252.1 1196.12,-256.06 1200.73,-261.32"/>
</a>
</g>
</g>
<!-- 2 -->
<g id="node21" class="node">
<title>2</title>
<g id="a_node21"><a xlink:title="ExportedFunction">
<polygon fill="#ffffff" stroke="black" points="1441.5,-252 1295.5,-252 1295.5,-216 1441.5,-216 1441.5,-252"/>
<text text-anchor="middle" x="1368.5" y="-230.3" font-family="Times,serif" font-size="14.00">ExportedFunction</text>
</a>
</g>
</g>
<!-- 8&#45;&gt;2 -->
<g id="edge4" class="edge">
<title>8&#45;&gt;2</title>
<g id="a_edge4"><a xlink:title="usage">
<path fill="none" stroke="#1414ce" d="M1180.84,-293.91C1213.96,-283.51 1264.28,-267.72 1304.47,-255.1"/>
<polygon fill="#1414ce" stroke="#1414ce" points="1305.7,-258.38 1314.19,-252.05 1303.6,-251.7 1305.7,-258.38"/>
</a>
</g>
</g>
<!-- 7&#45;&gt;7 -->
<g id="edge7" class="edge">
<title>7&#45;&gt;7</title>
<g id="a_edge7"><a xlink:title="usage">
<path fill="none" stroke="#1414ce" d="M603.23,-31.31C613.4,-30.38 621,-25.95 621,-18 621,-12.91 617.88,-9.26 612.97,-7.05"/>
<polygon fill="#1414ce" stroke="#1414ce" points="613.78,-3.64 603.23,-4.69 612.13,-10.45 613.78,-3.64"/>
</a>
</g>
</g>
<!-- 11 -->
<g id="node5" class="node">
<title>11</title>
<g id="a_node5"><a xlink:title="HeapFragment">
<polygon fill="#ffffff" stroke="black" points="1397,-36 1272,-36 1272,0 1397,0 1397,-36"/>
<text text-anchor="middle" x="1334.5" y="-14.3" font-family="Times,serif" font-size="14.00">HeapFragment</text>
</a>
</g>
</g>
<!-- 11&#45;&gt;11 -->
<g id="edge8" class="edge">
<title>11&#45;&gt;11</title>
<g id="a_edge8"><a xlink:title="usage">
<path fill="none" stroke="#1414ce" d="M1397.28,-30.55C1407.76,-28.79 1415,-24.61 1415,-18 1415,-13.77 1412.03,-10.53 1407.14,-8.29"/>
<polygon fill="#1414ce" stroke="#1414ce" points="1407.86,-4.85 1397.28,-5.45 1405.92,-11.58 1407.86,-4.85"/>
</a>
</g>
</g>
<!-- 19 -->
<g id="node6" class="node">
<title>19</title>
<g id="a_node6"><a xlink:title="RefcBinaryQueueItem">
<polygon fill="#ffffff" stroke="black" points="600.5,-324 426.5,-324 426.5,-288 600.5,-288 600.5,-324"/>
<text text-anchor="middle" x="513.5" y="-302.3" font-family="Times,serif" font-size="14.00">RefcBinaryQueueItem</text>
</a>
</g>
</g>
<!-- 19&#45;&gt;19 -->
<g id="edge10" class="edge">
<title>19&#45;&gt;19</title>
<g id="a_edge10"><a xlink:title="usage">
<path fill="none" stroke="#1414ce" d="M600.8,-317.68C611.49,-315.59 618.5,-311.7 618.5,-306 618.5,-302.35 615.62,-299.44 610.75,-297.27"/>
<polygon fill="#1414ce" stroke="#1414ce" points="611.38,-293.81 600.8,-294.32 609.39,-300.52 611.38,-293.81"/>
</a>
</g>
</g>
<!-- 20 -->
<g id="node18" class="node">
<title>20</title>
<g id="a_node18"><a xlink:title="RefcBinary">
<polygon fill="#ffffff" stroke="black" points="561,-252 466,-252 466,-216 561,-216 561,-252"/>
<text text-anchor="middle" x="513.5" y="-230.3" font-family="Times,serif" font-size="14.00">RefcBinary</text>
</a>
</g>
</g>
<!-- 19&#45;&gt;20 -->
<g id="edge9" class="edge">
<title>19&#45;&gt;20</title>
<g id="a_edge9"><a xlink:title="usage">
<path fill="none" stroke="#1414ce" d="M513.5,-287.7C513.5,-279.98 513.5,-270.71 513.5,-262.11"/>
<polygon fill="#1414ce" stroke="#1414ce" points="517,-262.1 513.5,-252.1 510,-262.1 517,-262.1"/>
</a>
</g>
</g>
<!-- 12&#45;&gt;24 -->
<g id="edge19" class="edge">
<title>12&#45;&gt;24</title>
<g id="a_edge19"><a xlink:title="usage">
<path fill="none" stroke="#1414ce" d="M512.84,-359.96C543.96,-350.45 583.52,-338.2 626.75,-324.21"/>
<polygon fill="#1414ce" stroke="#1414ce" points="627.9,-327.51 636.33,-321.1 625.74,-320.86 627.9,-327.51"/>
</a>
</g>
</g>
<!-- 12&#45;&gt;8 -->
<g id="edge16" class="edge">
<title>12&#45;&gt;8</title>
<g id="a_edge16"><a xlink:title="usage">
<path fill="none" stroke="#1414ce" d="M516.15,-371.7C616.87,-362.63 827.04,-343.28 1004.5,-324 1036.56,-320.52 1072.66,-316.16 1100.31,-312.72"/>
<polygon fill="#1414ce" stroke="#1414ce" points="1100.98,-316.17 1110.47,-311.46 1100.11,-309.22 1100.98,-316.17"/>
</a>
</g>
</g>
<!-- 12&#45;&gt;7 -->
<g id="edge20" class="edge">
<title>12&#45;&gt;7</title>
<g id="a_edge20"><a xlink:title="usage">
<path fill="none" stroke="#1414ce" d="M396.76,-367.5C364.88,-359.99 326.56,-346.82 298.5,-324 262.96,-295.09 246.5,-280.81 246.5,-235 246.5,-235 246.5,-235 246.5,-161 246.5,-117.63 252.48,-98.9 286.5,-72 320.67,-44.98 441.48,-29.86 511.42,-23.2"/>
<polygon fill="#1414ce" stroke="#1414ce" points="512.14,-26.64 521.77,-22.23 511.49,-19.67 512.14,-26.64"/>
</a>
</g>
</g>
<!-- 12&#45;&gt;19 -->
<g id="edge14" class="edge">
<title>12&#45;&gt;19</title>
<g id="a_edge14"><a xlink:title="usage">
<path fill="none" stroke="#1414ce" d="M470.59,-359.7C477.42,-351.3 485.76,-341.07 493.26,-331.86"/>
<polygon fill="#1414ce" stroke="#1414ce" points="495.97,-334.07 499.57,-324.1 490.54,-329.65 495.97,-334.07"/>
</a>
</g>
</g>
<!-- 13 -->
<g id="node8" class="node">
<title>13</title>
<g id="a_node8"><a xlink:title="Ets">
<polygon fill="#ffffff" stroke="black" points="366.5,-180 312.5,-180 312.5,-144 366.5,-144 366.5,-180"/>
<text text-anchor="middle" x="339.5" y="-158.3" font-family="Times,serif" font-size="14.00">Ets</text>
</a>
</g>
</g>
<!-- 12&#45;&gt;13 -->
<g id="edge11" class="edge">
<title>12&#45;&gt;13</title>
<g id="a_edge11"><a xlink:title="usage">
<path fill="none" stroke="#1414ce" d="M396.73,-361.66C377.5,-353.66 358.16,-341.7 346.5,-324 319.97,-283.74 325.99,-224.71 332.76,-190.44"/>
<polygon fill="#1414ce" stroke="#1414ce" points="336.27,-190.75 334.94,-180.24 329.42,-189.28 336.27,-190.75"/>
</a>
</g>
</g>
<!-- 23 -->
<g id="node10" class="node">
<title>23</title>
<g id="a_node10"><a xlink:title="TimerList">
<polygon fill="#ffffff" stroke="black" points="381.5,-108 295.5,-108 295.5,-72 381.5,-72 381.5,-108"/>
<text text-anchor="middle" x="338.5" y="-86.3" font-family="Times,serif" font-size="14.00">TimerList</text>
</a>
</g>
</g>
<!-- 12&#45;&gt;23 -->
<g id="edge18" class="edge">
<title>12&#45;&gt;23</title>
<g id="a_edge18"><a xlink:title="usage">
<path fill="none" stroke="#1414ce" d="M396.68,-365.89C371.69,-358.23 344.56,-345.39 327.5,-324 277.19,-260.89 280.28,-221.3 303.5,-144 306.42,-134.28 311.76,-124.7 317.41,-116.41"/>
<polygon fill="#1414ce" stroke="#1414ce" points="320.26,-118.44 323.32,-108.3 314.6,-114.32 320.26,-118.44"/>
</a>
</g>
</g>
<!-- 15 -->
<g id="node16" class="node">
<title>15</title>
<g id="a_node16"><a xlink:title="MessageQueueItem">
<polygon fill="#ffffff" stroke="black" points="200.5,-324 42.5,-324 42.5,-288 200.5,-288 200.5,-324"/>
<text text-anchor="middle" x="121.5" y="-302.3" font-family="Times,serif" font-size="14.00">MessageQueueItem</text>
</a>
</g>
</g>
<!-- 12&#45;&gt;15 -->
<g id="edge12" class="edge">
<title>12&#45;&gt;15</title>
<g id="a_edge12"><a xlink:title="usage">
<path fill="none" stroke="#1414ce" d="M396.99,-364.57C345.27,-353.76 269.6,-337.95 210.65,-325.63"/>
<polygon fill="#1414ce" stroke="#1414ce" points="211.1,-322.15 200.59,-323.53 209.67,-329 211.1,-322.15"/>
</a>
</g>
</g>
<!-- 22 -->
<g id="node17" class="node">
<title>22</title>
<g id="a_node17"><a xlink:title="AtomsHashTable">
<polygon fill="#ffffff" stroke="black" points="1117,-252 980,-252 980,-216 1117,-216 1117,-252"/>
<text text-anchor="middle" x="1048.5" y="-230.3" font-family="Times,serif" font-size="14.00">AtomsHashTable</text>
</a>
</g>
</g>
<!-- 12&#45;&gt;22 -->
<g id="edge17" class="edge">
<title>12&#45;&gt;22</title>
<g id="a_edge17"><a xlink:title="usage">
<path fill="none" stroke="#1414ce" d="M516.06,-373.53C622.71,-366.75 841.82,-350.1 913.5,-324 954.44,-309.09 995.36,-279.55 1021.24,-258.6"/>
<polygon fill="#1414ce" stroke="#1414ce" points="1023.6,-261.18 1029.09,-252.12 1019.15,-255.78 1023.6,-261.18"/>
</a>
</g>
</g>
<!-- 16 -->
<g id="node20" class="node">
<title>16</title>
<g id="a_node20"><a xlink:title="AtomTable">
<polygon fill="#ffffff" stroke="black" points="904.5,-324 812.5,-324 812.5,-288 904.5,-288 904.5,-324"/>
<text text-anchor="middle" x="858.5" y="-302.3" font-family="Times,serif" font-size="14.00">AtomTable</text>
</a>
</g>
</g>
<!-- 12&#45;&gt;16 -->
<g id="edge13" class="edge">
<title>12&#45;&gt;16</title>
<g id="a_edge13"><a xlink:title="usage">
<path fill="none" stroke="#1414ce" d="M516.25,-366.6C593.33,-353.17 726.45,-329.99 801.95,-316.85"/>
<polygon fill="#1414ce" stroke="#1414ce" points="802.96,-320.22 812.21,-315.06 801.75,-313.33 802.96,-320.22"/>
</a>
</g>
</g>
<!-- 12&#45;&gt;14 -->
<g id="edge15" class="edge">
<title>12&#45;&gt;14</title>
<g id="a_edge15"><a xlink:title="usage">
<path fill="none" stroke="#1414ce" d="M435.23,-359.7C425.39,-350.31 414.74,-337.8 409.5,-324 398.22,-294.28 376.58,-265.49 414.5,-144 417.47,-134.5 422.62,-125.05 428.04,-116.82"/>
<polygon fill="#1414ce" stroke="#1414ce" points="431.05,-118.62 433.92,-108.42 425.32,-114.6 431.05,-118.62"/>
</a>
</g>
</g>
<!-- 13&#45;&gt;14 -->
<g id="edge21" class="edge">
<title>13&#45;&gt;14</title>
<g id="a_edge21"><a xlink:title="usage">
<path fill="none" stroke="#1414ce" d="M366.16,-143.88C380.28,-134.81 397.81,-123.55 413.06,-113.76"/>
<polygon fill="#1414ce" stroke="#1414ce" points="415.21,-116.54 421.73,-108.19 411.43,-110.65 415.21,-116.54"/>
</a>
</g>
</g>
<!-- 18 -->
<g id="node9" class="node">
<title>18</title>
<g id="a_node9"><a xlink:title="HNodeGroup">
<polygon fill="#ffffff" stroke="black" points="905.5,-252 795.5,-252 795.5,-216 905.5,-216 905.5,-252"/>
<text text-anchor="middle" x="850.5" y="-230.3" font-family="Times,serif" font-size="14.00">HNodeGroup</text>
</a>
</g>
</g>
<!-- 18&#45;&gt;18 -->
<g id="edge23" class="edge">
<title>18&#45;&gt;18</title>
<g id="a_edge23"><a xlink:title="usage">
<path fill="none" stroke="#1414ce" d="M905.57,-246.85C916.07,-245.32 923.5,-241.03 923.5,-234 923.5,-229.5 920.45,-226.12 915.5,-223.87"/>
<polygon fill="#1414ce" stroke="#1414ce" points="916.14,-220.42 905.57,-221.15 914.29,-227.17 916.14,-220.42"/>
</a>
</g>
</g>
<!-- 17 -->
<g id="node24" class="node">
<title>17</title>
<g id="a_node24"><a xlink:title="HNode">
<polygon fill="#ffffff" stroke="black" points="1033.5,-180 967.5,-180 967.5,-144 1033.5,-144 1033.5,-180"/>
<text text-anchor="middle" x="1000.5" y="-158.3" font-family="Times,serif" font-size="14.00">HNode</text>
</a>
</g>
</g>
<!-- 18&#45;&gt;17 -->
<g id="edge22" class="edge">
<title>18&#45;&gt;17</title>
<g id="a_edge22"><a xlink:title="usage">
<path fill="none" stroke="#1414ce" d="M887.19,-215.88C908.6,-205.89 935.69,-193.25 958.01,-182.83"/>
<polygon fill="#1414ce" stroke="#1414ce" points="959.67,-185.91 967.26,-178.51 956.71,-179.57 959.67,-185.91"/>
</a>
</g>
</g>
<!-- 23&#45;&gt;7 -->
<g id="edge24" class="edge">
<title>23&#45;&gt;7</title>
<g id="a_edge24"><a xlink:title="usage">
<path fill="none" stroke="#1414ce" d="M381.69,-75.5C418.96,-63.86 472.83,-47.02 512.07,-34.76"/>
<polygon fill="#1414ce" stroke="#1414ce" points="513.21,-38.07 521.71,-31.75 511.12,-31.39 513.21,-38.07"/>
</a>
</g>
</g>
<!-- 5 -->
<g id="node12" class="node">
<title>5</title>
<g id="a_node12"><a xlink:title="MailboxMessage">
<polygon fill="#ffffff" stroke="black" points="137,-252 0,-252 0,-216 137,-216 137,-252"/>
<text text-anchor="middle" x="68.5" y="-230.3" font-family="Times,serif" font-size="14.00">MailboxMessage</text>
</a>
</g>
</g>
<!-- 5&#45;&gt;5 -->
<g id="edge25" class="edge">
<title>5&#45;&gt;5</title>
<g id="a_edge25"><a xlink:title="usage">
<path fill="none" stroke="#1414ce" d="M137.03,-246.37C147.71,-244.52 155,-240.4 155,-234 155,-229.8 151.86,-226.58 146.68,-224.34"/>
<polygon fill="#1414ce" stroke="#1414ce" points="147.6,-220.96 137.03,-221.63 145.71,-227.7 147.6,-220.96"/>
</a>
</g>
</g>
<!-- 1 -->
<g id="node13" class="node">
<title>1</title>
<g id="a_node13"><a xlink:title="Bif">
<polygon fill="#bfbfbf" stroke="black" points="1023.5,-540 969.5,-540 969.5,-504 1023.5,-504 1023.5,-540"/>
<text text-anchor="middle" x="996.5" y="-518.3" font-family="Times,serif" font-size="14.00">Bif</text>
</a>
</g>
</g>
<!-- 3 -->
<g id="node15" class="node">
<title>3</title>
<g id="a_node15"><a xlink:title="Context">
<polygon fill="#ffffff" stroke="black" points="821,-468 748,-468 748,-432 821,-432 821,-468"/>
<text text-anchor="middle" x="784.5" y="-446.3" font-family="Times,serif" font-size="14.00">Context</text>
</a>
</g>
</g>
<!-- 1&#45;&gt;3 -->
<g id="edge27" class="edge">
<title>1&#45;&gt;3</title>
<g id="a_edge27"><a xlink:title="usage">
<path fill="none" stroke="#1414ce" d="M969.22,-511.99C934.25,-500.45 873.11,-480.26 830.8,-466.29"/>
<polygon fill="#1414ce" stroke="#1414ce" points="831.87,-462.96 821.28,-463.14 829.68,-469.6 831.87,-462.96"/>
</a>
</g>
</g>
<!-- 1&#45;&gt;2 -->
<g id="edge26" class="edge">
<title>1&#45;&gt;2</title>
<g id="a_edge26"><a xlink:title="usage">
<path fill="none" stroke="#1414ce" d="M1018.66,-503.97C1082.09,-455.2 1264.5,-314.96 1337.63,-258.73"/>
<polygon fill="#1414ce" stroke="#1414ce" points="1340.19,-261.18 1345.99,-252.31 1335.93,-255.63 1340.19,-261.18"/>
</a>
</g>
</g>
<!-- 10 -->
<g id="node14" class="node">
<title>10</title>
<g id="a_node14"><a xlink:title="Heap">
<polygon fill="#ffffff" stroke="black" points="1361.5,-108 1307.5,-108 1307.5,-72 1361.5,-72 1361.5,-108"/>
<text text-anchor="middle" x="1334.5" y="-86.3" font-family="Times,serif" font-size="14.00">Heap</text>
</a>
</g>
</g>
<!-- 10&#45;&gt;11 -->
<g id="edge28" class="edge">
<title>10&#45;&gt;11</title>
<g id="a_edge28"><a xlink:title="usage">
<path fill="none" stroke="#1414ce" d="M1334.5,-71.7C1334.5,-63.98 1334.5,-54.71 1334.5,-46.11"/>
<polygon fill="#1414ce" stroke="#1414ce" points="1338,-46.1 1334.5,-36.1 1331,-46.1 1338,-46.1"/>
</a>
</g>
</g>
<!-- 3&#45;&gt;8 -->
<g id="edge32" class="edge">
<title>3&#45;&gt;8</title>
<g id="a_edge32"><a xlink:title="usage">
<path fill="none" stroke="#1414ce" d="M821.1,-434.6C887.7,-408.41 1028.46,-353.04 1100.68,-324.63"/>
<polygon fill="#1414ce" stroke="#1414ce" points="1102.38,-327.72 1110.4,-320.81 1099.82,-321.21 1102.38,-327.72"/>
</a>
</g>
</g>
<!-- 3&#45;&gt;7 -->
<g id="edge35" class="edge">
<title>3&#45;&gt;7</title>
<g id="a_edge35"><a xlink:title="usage">
<path fill="none" stroke="#1414ce" d="M786.48,-431.92C791.28,-382.95 799.17,-239.5 740.5,-144 710.55,-95.24 653.68,-60.41 612.26,-40.1"/>
<polygon fill="#1414ce" stroke="#1414ce" points="613.68,-36.9 603.15,-35.74 610.66,-43.21 613.68,-36.9"/>
</a>
</g>
</g>
<!-- 3&#45;&gt;12 -->
<g id="edge34" class="edge">
<title>3&#45;&gt;12</title>
<g id="a_edge34"><a xlink:title="usage">
<path fill="none" stroke="#1414ce" d="M747.83,-441.17C694.4,-429.77 594.16,-408.38 526.37,-393.91"/>
<polygon fill="#1414ce" stroke="#1414ce" points="526.71,-390.4 516.2,-391.74 525.24,-397.25 526.71,-390.4"/>
</a>
</g>
</g>
<!-- 3&#45;&gt;10 -->
<g id="edge33" class="edge">
<title>3&#45;&gt;10</title>
<g id="a_edge33"><a xlink:title="usage">
<path fill="none" stroke="#1414ce" d="M821.33,-449.29C963.61,-449.44 1469.5,-440.6 1469.5,-307 1469.5,-307 1469.5,-307 1469.5,-233 1469.5,-175.57 1410.77,-132.12 1370.79,-109.2"/>
<polygon fill="#1414ce" stroke="#1414ce" points="1372.26,-106.01 1361.82,-104.22 1368.86,-112.13 1372.26,-106.01"/>
</a>
</g>
</g>
<!-- 3&#45;&gt;3 -->
<g id="edge29" class="edge">
<title>3&#45;&gt;3</title>
<g id="a_edge29"><a xlink:title="usage">
<path fill="none" stroke="#1414ce" d="M821.18,-463.42C831.28,-462.77 839,-458.3 839,-450 839,-444.81 835.98,-441.12 831.26,-438.93"/>
<polygon fill="#1414ce" stroke="#1414ce" points="831.71,-435.44 821.18,-436.58 830.13,-442.26 831.71,-435.44"/>
</a>
</g>
</g>
<!-- 4 -->
<g id="node19" class="node">
<title>4</title>
<g id="a_node19"><a xlink:title="Mailbox">
<polygon fill="#ffffff" stroke="black" points="186.5,-396 112.5,-396 112.5,-360 186.5,-360 186.5,-396"/>
<text text-anchor="middle" x="149.5" y="-374.3" font-family="Times,serif" font-size="14.00">Mailbox</text>
</a>
</g>
</g>
<!-- 3&#45;&gt;4 -->
<g id="edge30" class="edge">
<title>3&#45;&gt;4</title>
<g id="a_edge30"><a xlink:title="usage">
<path fill="none" stroke="#1414ce" d="M747.62,-444.93C638.69,-432.93 318.49,-397.63 196.99,-384.24"/>
<polygon fill="#1414ce" stroke="#1414ce" points="197.21,-380.74 186.89,-383.12 196.44,-387.7 197.21,-380.74"/>
</a>
</g>
</g>
<!-- 6 -->
<g id="node22" class="node">
<title>6</title>
<g id="a_node22"><a xlink:title="TimerListItem">
<polygon fill="#ffffff" stroke="black" points="731,-180 612,-180 612,-144 731,-144 731,-180"/>
<text text-anchor="middle" x="671.5" y="-158.3" font-family="Times,serif" font-size="14.00">TimerListItem</text>
</a>
</g>
</g>
<!-- 3&#45;&gt;6 -->
<g id="edge31" class="edge">
<title>3&#45;&gt;6</title>
<g id="a_edge31"><a xlink:title="usage">
<path fill="none" stroke="#1414ce" d="M778.96,-431.91C769.25,-402.32 748.21,-339.75 727.5,-288 713.69,-253.5 695.88,-214.55 684.09,-189.43"/>
<polygon fill="#1414ce" stroke="#1414ce" points="687.17,-187.75 679.74,-180.2 680.84,-190.74 687.17,-187.75"/>
</a>
</g>
</g>
<!-- 15&#45;&gt;5 -->
<g id="edge36" class="edge">
<title>15&#45;&gt;5</title>
<g id="a_edge36"><a xlink:title="usage">
<path fill="none" stroke="#1414ce" d="M108.4,-287.7C102.11,-279.39 94.45,-269.28 87.54,-260.14"/>
<polygon fill="#1414ce" stroke="#1414ce" points="90.28,-257.96 81.45,-252.1 84.7,-262.19 90.28,-257.96"/>
</a>
</g>
</g>
<!-- 15&#45;&gt;15 -->
<g id="edge37" class="edge">
<title>15&#45;&gt;15</title>
<g id="a_edge37"><a xlink:title="usage">
<path fill="none" stroke="#1414ce" d="M200.66,-317.98C211.37,-315.97 218.5,-311.98 218.5,-306 218.5,-302.08 215.43,-299.01 210.29,-296.8"/>
<polygon fill="#1414ce" stroke="#1414ce" points="211.24,-293.43 200.66,-294.02 209.3,-300.15 211.24,-293.43"/>
</a>
</g>
</g>
<!-- 22&#45;&gt;17 -->
<g id="edge38" class="edge">
<title>22&#45;&gt;17</title>
<g id="a_edge38"><a xlink:title="usage">
<path fill="none" stroke="#1414ce" d="M1036.63,-215.7C1031,-207.47 1024.15,-197.48 1017.93,-188.42"/>
<polygon fill="#1414ce" stroke="#1414ce" points="1020.77,-186.37 1012.23,-180.1 1015,-190.33 1020.77,-186.37"/>
</a>
</g>
</g>
<!-- 20&#45;&gt;21 -->
<g id="edge39" class="edge">
<title>20&#45;&gt;21</title>
<g id="a_edge39"><a xlink:title="usage">
<path fill="none" stroke="#1414ce" d="M505.59,-215.7C501.95,-207.73 497.55,-198.1 493.51,-189.26"/>
<polygon fill="#1414ce" stroke="#1414ce" points="496.66,-187.74 489.32,-180.1 490.29,-190.65 496.66,-187.74"/>
</a>
</g>
</g>
<!-- 20&#45;&gt;7 -->
<g id="edge40" class="edge">
<title>20&#45;&gt;7</title>
<g id="a_edge40"><a xlink:title="usage">
<path fill="none" stroke="#1414ce" d="M528.69,-215.63C536.33,-205.85 544.92,-193.01 549.5,-180 565.32,-135.09 565.87,-78.92 564.45,-46.19"/>
<polygon fill="#1414ce" stroke="#1414ce" points="567.94,-45.84 563.91,-36.04 560.95,-46.21 567.94,-45.84"/>
</a>
</g>
</g>
<!-- 4&#45;&gt;5 -->
<g id="edge41" class="edge">
<title>4&#45;&gt;5</title>
<g id="a_edge41"><a xlink:title="usage">
<path fill="none" stroke="#1414ce" d="M112.5,-370.91C85.52,-364.33 50.8,-350.92 33.5,-324 20.66,-304.01 33.11,-278.57 46.58,-260"/>
<polygon fill="#1414ce" stroke="#1414ce" points="49.42,-262.06 52.76,-252.01 43.88,-257.78 49.42,-262.06"/>
</a>
</g>
</g>
<!-- 16&#45;&gt;18 -->
<g id="edge43" class="edge">
<title>16&#45;&gt;18</title>
<g id="a_edge43"><a xlink:title="usage">
<path fill="none" stroke="#1414ce" d="M856.52,-287.7C855.64,-279.98 854.58,-270.71 853.6,-262.11"/>
<polygon fill="#1414ce" stroke="#1414ce" points="857.07,-261.64 852.45,-252.1 850.11,-262.44 857.07,-261.64"/>
</a>
</g>
</g>
<!-- 16&#45;&gt;17 -->
<g id="edge42" class="edge">
<title>16&#45;&gt;17</title>
<g id="a_edge42"><a xlink:title="usage">
<path fill="none" stroke="#1414ce" d="M886.37,-287.9C900.92,-278.29 918.55,-265.53 932.5,-252 952.39,-232.72 971.19,-207.34 983.97,-188.62"/>
<polygon fill="#1414ce" stroke="#1414ce" points="986.9,-190.53 989.56,-180.28 981.09,-186.63 986.9,-190.53"/>
</a>
</g>
</g>
<!-- 6&#45;&gt;7 -->
<g id="edge44" class="edge">
<title>6&#45;&gt;7</title>
<g id="a_edge44"><a xlink:title="usage">
<path fill="none" stroke="#1414ce" d="M658.35,-143.87C639.28,-119.03 603.83,-72.85 581.8,-44.14"/>
<polygon fill="#1414ce" stroke="#1414ce" points="584.56,-41.99 575.69,-36.19 579.01,-46.25 584.56,-41.99"/>
</a>
</g>
</g>
<!-- 14&#45;&gt;7 -->
<g id="edge45" class="edge">
<title>14&#45;&gt;7</title>
<g id="a_edge45"><a xlink:title="usage">
<path fill="none" stroke="#1414ce" d="M476.39,-71.88C491.29,-62.72 509.83,-51.34 525.88,-41.48"/>
<polygon fill="#1414ce" stroke="#1414ce" points="527.81,-44.41 534.51,-36.19 524.15,-38.44 527.81,-44.41"/>
</a>
</g>
</g>
<!-- 17&#45;&gt;10 -->
<g id="edge47" class="edge">
<title>17&#45;&gt;10</title>
<g id="a_edge47"><a xlink:title="usage">
<path fill="none" stroke="#1414ce" d="M1033.75,-154.03C1096.4,-140.9 1231.52,-112.58 1297.18,-98.82"/>
<polygon fill="#1414ce" stroke="#1414ce" points="1298.03,-102.22 1307.1,-96.74 1296.59,-95.37 1298.03,-102.22"/>
</a>
</g>
</g>
<!-- 17&#45;&gt;17 -->
<g id="edge46" class="edge">
<title>17&#45;&gt;17</title>
<g id="a_edge46"><a xlink:title="usage">
<path fill="none" stroke="#1414ce" d="M1033.85,-175.47C1043.78,-175.07 1051.5,-170.58 1051.5,-162 1051.5,-156.64 1048.48,-152.87 1043.8,-150.71"/>
<polygon fill="#1414ce" stroke="#1414ce" points="1044.37,-147.25 1033.85,-148.53 1042.87,-154.09 1044.37,-147.25"/>
</a>
</g>
</g>
</g>
</svg>
