<?xml version="1.0" encoding="UTF-8" standalone="no"?>
<!DOCTYPE svg PUBLIC "-//W3C//DTD SVG 1.1//EN"
 "http://www.w3.org/Graphics/SVG/1.1/DTD/svg11.dtd">
<!-- Generated by graphviz version 2.43.0 (0)
 -->
<!-- Title: %3 Pages: 1 -->
<svg width="1398pt" height="404pt"
 viewBox="0.00 0.00 1398.22 404.00" xmlns="http://www.w3.org/2000/svg" xmlns:xlink="http://www.w3.org/1999/xlink">
<g id="graph0" class="graph" transform="scale(1 1) rotate(0) translate(4 400)">
<title>%3</title>
<polygon fill="transparent" stroke="transparent" points="-4,4 -4,-400 1394.22,-400 1394.22,4 -4,4"/>
<!-- 22 -->
<g id="node1" class="node">
<title>22</title>
<g id="a_node1"><a xlink:title="SpinLock">
<polygon fill="#ffffff" stroke="black" points="1353.22,-324 1271.22,-324 1271.22,-288 1353.22,-288 1353.22,-324"/>
<text text-anchor="middle" x="1312.22" y="-302.3" font-family="Times,serif" font-size="14.00">SpinLock</text>
</a>
</g>
</g>
<!-- 3 -->
<g id="node2" class="node">
<title>3</title>
<g id="a_node2"><a xlink:title="ResourceType">
<polygon fill="#ffffff" stroke="black" points="810.72,-180 693.72,-180 693.72,-144 810.72,-144 810.72,-180"/>
<text text-anchor="middle" x="752.22" y="-158.3" font-family="Times,serif" font-size="14.00">ResourceType</text>
</a>
</g>
</g>
<!-- 5 -->
<g id="node4" class="node">
<title>5</title>
<g id="a_node4"><a xlink:title="ListHead">
<polygon fill="#ffffff" stroke="black" points="638.72,-36 557.72,-36 557.72,0 638.72,0 638.72,-36"/>
<text text-anchor="middle" x="598.22" y="-14.3" font-family="Times,serif" font-size="14.00">ListHead</text>
</a>
</g>
</g>
<!-- 3&#45;&gt;5 -->
<g id="edge3" class="edge">
<title>3&#45;&gt;5</title>
<g id="a_edge3"><a xlink:title="usage">
<path fill="none" stroke="#1414ce" d="M733.65,-143.87C706.36,-118.71 655.32,-71.65 624.29,-43.04"/>
<polygon fill="#1414ce" stroke="#1414ce" points="626.59,-40.4 616.86,-36.19 621.84,-45.54 626.59,-40.4"/>
</a>
</g>
</g>
<!-- 6 -->
<g id="node7" class="node">
<title>6</title>
<g id="a_node7"><a xlink:title="GlobalContext">
<polygon fill="#ffffff" stroke="black" points="831.72,-396 712.72,-396 712.72,-360 831.72,-360 831.72,-396"/>
<text text-anchor="middle" x="772.22" y="-374.3" font-family="Times,serif" font-size="14.00">GlobalContext</text>
</a>
</g>
</g>
<!-- 3&#45;&gt;6 -->
<g id="edge2" class="edge">
<title>3&#45;&gt;6</title>
<g id="a_edge2"><a xlink:title="usage">
<path fill="none" stroke="#1414ce" d="M774.76,-180.2C783.68,-190.13 792.98,-203.17 799.22,-216 813.81,-245.97 815.51,-255 820.22,-288 822.48,-303.84 825.21,-308.8 820.22,-324 816.87,-334.2 810.73,-344.05 803.85,-352.44"/>
<polygon fill="#1414ce" stroke="#1414ce" points="801.15,-350.21 797.09,-359.99 806.36,-354.87 801.15,-350.21"/>
</a>
</g>
</g>
<!-- 4 -->
<g id="node21" class="node">
<title>4</title>
<g id="a_node21"><a xlink:title="SyncList">
<polygon fill="#ffffff" stroke="black" points="637.22,-108 559.22,-108 559.22,-72 637.22,-72 637.22,-108"/>
<text text-anchor="middle" x="598.22" y="-86.3" font-family="Times,serif" font-size="14.00">SyncList</text>
</a>
</g>
</g>
<!-- 3&#45;&gt;4 -->
<g id="edge1" class="edge">
<title>3&#45;&gt;4</title>
<g id="a_edge1"><a xlink:title="usage">
<path fill="none" stroke="#1414ce" d="M714.55,-143.88C693.59,-134.35 667.32,-122.41 645.04,-112.28"/>
<polygon fill="#1414ce" stroke="#1414ce" points="646.32,-109.02 635.77,-108.07 643.43,-115.39 646.32,-109.02"/>
</a>
</g>
</g>
<!-- 17 -->
<g id="node3" class="node">
<title>17</title>
<g id="a_node3"><a xlink:title="Module">
<polygon fill="#ffffff" stroke="black" points="196.22,-324 126.22,-324 126.22,-288 196.22,-288 196.22,-324"/>
<text text-anchor="middle" x="161.22" y="-302.3" font-family="Times,serif" font-size="14.00">Module</text>
</a>
</g>
</g>
<!-- 17&#45;&gt;5 -->
<g id="edge6" class="edge">
<title>17&#45;&gt;5</title>
<g id="a_edge6"><a xlink:title="usage">
<path fill="none" stroke="#1414ce" d="M125.93,-299.24C70.77,-288.67 -26.27,-262.85 7.22,-216 72.06,-125.3 415.77,-52.92 547.13,-28.18"/>
<polygon fill="#1414ce" stroke="#1414ce" points="548.13,-31.55 557.32,-26.27 546.85,-24.67 548.13,-31.55"/>
</a>
</g>
</g>
<!-- 19 -->
<g id="node11" class="node">
<title>19</title>
<g id="a_node11"><a xlink:title="LiteralEntry">
<polygon fill="#ffffff" stroke="black" points="284.22,-252 180.22,-252 180.22,-216 284.22,-216 284.22,-252"/>
<text text-anchor="middle" x="232.22" y="-230.3" font-family="Times,serif" font-size="14.00">LiteralEntry</text>
</a>
</g>
</g>
<!-- 17&#45;&gt;19 -->
<g id="edge5" class="edge">
<title>17&#45;&gt;19</title>
<g id="a_edge5"><a xlink:title="usage">
<path fill="none" stroke="#1414ce" d="M178.77,-287.7C187.46,-279.14 198.08,-268.66 207.57,-259.3"/>
<polygon fill="#1414ce" stroke="#1414ce" points="210.21,-261.62 214.87,-252.1 205.29,-256.63 210.21,-261.62"/>
</a>
</g>
</g>
<!-- 18 -->
<g id="node20" class="node">
<title>18</title>
<g id="a_node20"><a xlink:title="ExportedFunction">
<polygon fill="#ffffff" stroke="black" points="162.22,-252 16.22,-252 16.22,-216 162.22,-216 162.22,-252"/>
<text text-anchor="middle" x="89.22" y="-230.3" font-family="Times,serif" font-size="14.00">ExportedFunction</text>
</a>
</g>
</g>
<!-- 17&#45;&gt;18 -->
<g id="edge4" class="edge">
<title>17&#45;&gt;18</title>
<g id="a_edge4"><a xlink:title="usage">
<path fill="none" stroke="#1414ce" d="M143.42,-287.7C134.62,-279.14 123.84,-268.66 114.22,-259.3"/>
<polygon fill="#1414ce" stroke="#1414ce" points="116.42,-256.57 106.81,-252.1 111.54,-261.58 116.42,-256.57"/>
</a>
</g>
</g>
<!-- 5&#45;&gt;5 -->
<g id="edge7" class="edge">
<title>5&#45;&gt;5</title>
<g id="a_edge7"><a xlink:title="usage">
<path fill="none" stroke="#1414ce" d="M638.96,-31.31C649.12,-30.38 656.72,-25.95 656.72,-18 656.72,-12.91 653.6,-9.26 648.69,-7.05"/>
<polygon fill="#1414ce" stroke="#1414ce" points="649.5,-3.64 638.96,-4.69 647.85,-10.45 649.5,-3.64"/>
</a>
</g>
</g>
<!-- 13 -->
<g id="node5" class="node">
<title>13</title>
<g id="a_node5"><a xlink:title="HeapFragment">
<polygon fill="#ffffff" stroke="black" points="1296.72,-36 1171.72,-36 1171.72,0 1296.72,0 1296.72,-36"/>
<text text-anchor="middle" x="1234.22" y="-14.3" font-family="Times,serif" font-size="14.00">HeapFragment</text>
</a>
</g>
</g>
<!-- 13&#45;&gt;13 -->
<g id="edge8" class="edge">
<title>13&#45;&gt;13</title>
<g id="a_edge8"><a xlink:title="usage">
<path fill="none" stroke="#1414ce" d="M1297,-30.55C1307.49,-28.79 1314.72,-24.61 1314.72,-18 1314.72,-13.77 1311.75,-10.53 1306.86,-8.29"/>
<polygon fill="#1414ce" stroke="#1414ce" points="1307.58,-4.85 1297,-5.45 1305.64,-11.58 1307.58,-4.85"/>
</a>
</g>
</g>
<!-- 15 -->
<g id="node6" class="node">
<title>15</title>
<g id="a_node6"><a xlink:title="RefcBinaryQueueItem">
<polygon fill="#ffffff" stroke="black" points="552.22,-324 378.22,-324 378.22,-288 552.22,-288 552.22,-324"/>
<text text-anchor="middle" x="465.22" y="-302.3" font-family="Times,serif" font-size="14.00">RefcBinaryQueueItem</text>
</a>
</g>
</g>
<!-- 15&#45;&gt;15 -->
<g id="edge10" class="edge">
<title>15&#45;&gt;15</title>
<g id="a_edge10"><a xlink:title="usage">
<path fill="none" stroke="#1414ce" d="M552.52,-317.68C563.21,-315.59 570.22,-311.7 570.22,-306 570.22,-302.35 567.35,-299.44 562.47,-297.27"/>
<polygon fill="#1414ce" stroke="#1414ce" points="563.11,-293.81 552.52,-294.32 561.11,-300.52 563.11,-293.81"/>
</a>
</g>
</g>
<!-- 16 -->
<g id="node17" class="node">
<title>16</title>
<g id="a_node17"><a xlink:title="RefcBinary">
<polygon fill="#ffffff" stroke="black" points="569.72,-252 474.72,-252 474.72,-216 569.72,-216 569.72,-252"/>
<text text-anchor="middle" x="522.22" y="-230.3" font-family="Times,serif" font-size="14.00">RefcBinary</text>
</a>
</g>
</g>
<!-- 15&#45;&gt;16 -->
<g id="edge9" class="edge">
<title>15&#45;&gt;16</title>
<g id="a_edge9"><a xlink:title="usage">
<path fill="none" stroke="#1414ce" d="M479.31,-287.7C486.14,-279.3 494.48,-269.07 501.98,-259.86"/>
<polygon fill="#1414ce" stroke="#1414ce" points="504.69,-262.07 508.29,-252.1 499.27,-257.65 504.69,-262.07"/>
</a>
</g>
</g>
<!-- 6&#45;&gt;22 -->
<g id="edge20" class="edge">
<title>6&#45;&gt;22</title>
<g id="a_edge20"><a xlink:title="usage">
<path fill="none" stroke="#1414ce" d="M831.73,-374.78C922.73,-370.46 1101.8,-358.34 1260.98,-324"/>
<polygon fill="#1414ce" stroke="#1414ce" points="1261.93,-327.37 1270.95,-321.81 1260.43,-320.54 1261.93,-327.37"/>
</a>
</g>
</g>
<!-- 6&#45;&gt;3 -->
<g id="edge11" class="edge">
<title>6&#45;&gt;3</title>
<g id="a_edge11"><a xlink:title="usage">
<path fill="none" stroke="#1414ce" d="M781.13,-359.99C788.51,-350.31 797.8,-337.46 802.22,-324 807.21,-308.8 804.48,-303.84 802.22,-288 797.51,-255 795.81,-245.97 781.22,-216 776.64,-206.58 770.4,-197.05 764.73,-188.71"/>
<polygon fill="#1414ce" stroke="#1414ce" points="767.45,-186.47 758.91,-180.2 761.67,-190.43 767.45,-186.47"/>
</a>
</g>
</g>
<!-- 6&#45;&gt;17 -->
<g id="edge17" class="edge">
<title>6&#45;&gt;17</title>
<g id="a_edge17"><a xlink:title="usage">
<path fill="none" stroke="#1414ce" d="M712.71,-370.58C622.87,-360.83 447.27,-341.58 298.22,-324 267.65,-320.39 233.26,-316.13 206.59,-312.77"/>
<polygon fill="#1414ce" stroke="#1414ce" points="206.76,-309.26 196.4,-311.48 205.89,-316.21 206.76,-309.26"/>
</a>
</g>
</g>
<!-- 6&#45;&gt;5 -->
<g id="edge21" class="edge">
<title>6&#45;&gt;5</title>
<g id="a_edge21"><a xlink:title="usage">
<path fill="none" stroke="#1414ce" d="M831.83,-371.27C895.61,-363.93 991.14,-349.06 1017.22,-324 1046.68,-295.69 1040.22,-275.86 1040.22,-235 1040.22,-235 1040.22,-235 1040.22,-161 1040.22,-79.63 765.28,-38.28 649.09,-24.44"/>
<polygon fill="#1414ce" stroke="#1414ce" points="649.35,-20.95 639.01,-23.26 648.54,-27.9 649.35,-20.95"/>
</a>
</g>
</g>
<!-- 6&#45;&gt;15 -->
<g id="edge15" class="edge">
<title>6&#45;&gt;15</title>
<g id="a_edge15"><a xlink:title="usage">
<path fill="none" stroke="#1414ce" d="M712.66,-363.42C666.31,-352.85 601.37,-338.04 549.65,-326.25"/>
<polygon fill="#1414ce" stroke="#1414ce" points="550.36,-322.82 539.83,-324.01 548.8,-329.65 550.36,-322.82"/>
</a>
</g>
</g>
<!-- 7 -->
<g id="node8" class="node">
<title>7</title>
<g id="a_node8"><a xlink:title="Ets">
<polygon fill="#ffffff" stroke="black" points="482.22,-180 428.22,-180 428.22,-144 482.22,-144 482.22,-180"/>
<text text-anchor="middle" x="455.22" y="-158.3" font-family="Times,serif" font-size="14.00">Ets</text>
</a>
</g>
</g>
<!-- 6&#45;&gt;7 -->
<g id="edge12" class="edge">
<title>6&#45;&gt;7</title>
<g id="a_edge12"><a xlink:title="usage">
<path fill="none" stroke="#1414ce" d="M712.61,-373.44C605.96,-366.46 391.5,-349.4 369.22,-324 331.96,-281.52 388.33,-220.1 425.98,-186.74"/>
<polygon fill="#1414ce" stroke="#1414ce" points="428.42,-189.26 433.68,-180.07 423.83,-183.97 428.42,-189.26"/>
</a>
</g>
</g>
<!-- 21 -->
<g id="node10" class="node">
<title>21</title>
<g id="a_node10"><a xlink:title="TimerList">
<polygon fill="#ffffff" stroke="black" points="372.22,-180 286.22,-180 286.22,-144 372.22,-144 372.22,-180"/>
<text text-anchor="middle" x="329.22" y="-158.3" font-family="Times,serif" font-size="14.00">TimerList</text>
</a>
</g>
</g>
<!-- 6&#45;&gt;21 -->
<g id="edge19" class="edge">
<title>6&#45;&gt;21</title>
<g id="a_edge19"><a xlink:title="usage">
<path fill="none" stroke="#1414ce" d="M712.55,-377.96C609.16,-378.29 402.95,-372.64 353.22,-324 317.7,-289.26 319.65,-226.3 324.36,-190.27"/>
<polygon fill="#1414ce" stroke="#1414ce" points="327.87,-190.41 325.87,-180.01 320.95,-189.39 327.87,-190.41"/>
</a>
</g>
</g>
<!-- 8 -->
<g id="node14" class="node">
<title>8</title>
<g id="a_node14"><a xlink:title="MessageQueueItem">
<polygon fill="#ffffff" stroke="black" points="784.22,-324 626.22,-324 626.22,-288 784.22,-288 784.22,-324"/>
<text text-anchor="middle" x="705.22" y="-302.3" font-family="Times,serif" font-size="14.00">MessageQueueItem</text>
</a>
</g>
</g>
<!-- 6&#45;&gt;8 -->
<g id="edge13" class="edge">
<title>6&#45;&gt;8</title>
<g id="a_edge13"><a xlink:title="usage">
<path fill="none" stroke="#1414ce" d="M755.66,-359.7C747.55,-351.22 737.63,-340.86 728.75,-331.58"/>
<polygon fill="#1414ce" stroke="#1414ce" points="731.04,-328.91 721.59,-324.1 725.98,-333.75 731.04,-328.91"/>
</a>
</g>
</g>
<!-- 20 -->
<g id="node15" class="node">
<title>20</title>
<g id="a_node15"><a xlink:title="AtomsHashTable">
<polygon fill="#ffffff" stroke="black" points="1205.72,-252 1068.72,-252 1068.72,-216 1205.72,-216 1205.72,-252"/>
<text text-anchor="middle" x="1137.22" y="-230.3" font-family="Times,serif" font-size="14.00">AtomsHashTable</text>
</a>
</g>
</g>
<!-- 6&#45;&gt;20 -->
<g id="edge18" class="edge">
<title>6&#45;&gt;20</title>
<g id="a_edge18"><a xlink:title="usage">
<path fill="none" stroke="#1414ce" d="M831.99,-376.44C891.69,-373.52 984.39,-362.42 1054.22,-324 1081.92,-308.76 1105.59,-280.93 1120.48,-260.44"/>
<polygon fill="#1414ce" stroke="#1414ce" points="1123.42,-262.35 1126.32,-252.16 1117.7,-258.32 1123.42,-262.35"/>
</a>
</g>
</g>
<!-- 10 -->
<g id="node19" class="node">
<title>10</title>
<g id="a_node19"><a xlink:title="AtomTable">
<polygon fill="#ffffff" stroke="black" points="1253.22,-324 1161.22,-324 1161.22,-288 1253.22,-288 1253.22,-324"/>
<text text-anchor="middle" x="1207.22" y="-302.3" font-family="Times,serif" font-size="14.00">AtomTable</text>
</a>
</g>
</g>
<!-- 6&#45;&gt;10 -->
<g id="edge14" class="edge">
<title>6&#45;&gt;10</title>
<g id="a_edge14"><a xlink:title="usage">
<path fill="none" stroke="#1414ce" d="M831.94,-368.75C901.54,-358.95 1019.95,-341.69 1121.22,-324 1130.79,-322.33 1140.93,-320.43 1150.77,-318.53"/>
<polygon fill="#1414ce" stroke="#1414ce" points="1151.73,-321.91 1160.87,-316.55 1150.39,-315.04 1151.73,-321.91"/>
</a>
</g>
</g>
<!-- 6&#45;&gt;4 -->
<g id="edge16" class="edge">
<title>6&#45;&gt;4</title>
<g id="a_edge16"><a xlink:title="usage">
<path fill="none" stroke="#1414ce" d="M712.65,-372.26C679.24,-366.29 639.84,-353.06 617.22,-324 570.06,-263.4 582.23,-165.12 591.79,-117.94"/>
<polygon fill="#1414ce" stroke="#1414ce" points="595.22,-118.67 593.89,-108.15 588.37,-117.2 595.22,-118.67"/>
</a>
</g>
</g>
<!-- 7&#45;&gt;4 -->
<g id="edge22" class="edge">
<title>7&#45;&gt;4</title>
<g id="a_edge22"><a xlink:title="usage">
<path fill="none" stroke="#1414ce" d="M482.46,-147.67C502.77,-137.72 530.95,-123.93 554.42,-112.44"/>
<polygon fill="#1414ce" stroke="#1414ce" points="556.05,-115.54 563.49,-108 552.97,-109.26 556.05,-115.54"/>
</a>
</g>
</g>
<!-- 14 -->
<g id="node9" class="node">
<title>14</title>
<g id="a_node9"><a xlink:title="HNodeGroup">
<polygon fill="#ffffff" stroke="black" points="1372.22,-252 1262.22,-252 1262.22,-216 1372.22,-216 1372.22,-252"/>
<text text-anchor="middle" x="1317.22" y="-230.3" font-family="Times,serif" font-size="14.00">HNodeGroup</text>
</a>
</g>
</g>
<!-- 14&#45;&gt;14 -->
<g id="edge24" class="edge">
<title>14&#45;&gt;14</title>
<g id="a_edge24"><a xlink:title="usage">
<path fill="none" stroke="#1414ce" d="M1372.29,-246.85C1382.8,-245.32 1390.22,-241.03 1390.22,-234 1390.22,-229.5 1387.17,-226.12 1382.22,-223.87"/>
<polygon fill="#1414ce" stroke="#1414ce" points="1382.86,-220.42 1372.29,-221.15 1381.01,-227.17 1382.86,-220.42"/>
</a>
</g>
</g>
<!-- 11 -->
<g id="node22" class="node">
<title>11</title>
<g id="a_node22"><a xlink:title="HNode">
<polygon fill="#ffffff" stroke="black" points="1267.22,-180 1201.22,-180 1201.22,-144 1267.22,-144 1267.22,-180"/>
<text text-anchor="middle" x="1234.22" y="-158.3" font-family="Times,serif" font-size="14.00">HNode</text>
</a>
</g>
</g>
<!-- 14&#45;&gt;11 -->
<g id="edge23" class="edge">
<title>14&#45;&gt;11</title>
<g id="a_edge23"><a xlink:title="usage">
<path fill="none" stroke="#1414ce" d="M1296.7,-215.7C1286.35,-206.97 1273.64,-196.24 1262.38,-186.75"/>
<polygon fill="#1414ce" stroke="#1414ce" points="1264.4,-183.88 1254.5,-180.1 1259.89,-189.23 1264.4,-183.88"/>
</a>
</g>
</g>
<!-- 21&#45;&gt;5 -->
<g id="edge25" class="edge">
<title>21&#45;&gt;5</title>
<g id="a_edge25"><a xlink:title="usage">
<path fill="none" stroke="#1414ce" d="M361.67,-143.87C410.54,-118.07 503.04,-69.25 556.74,-40.9"/>
<polygon fill="#1414ce" stroke="#1414ce" points="558.45,-43.95 565.66,-36.19 555.18,-37.76 558.45,-43.95"/>
</a>
</g>
</g>
<!-- 9 -->
<g id="node12" class="node">
<title>9</title>
<g id="a_node12"><a xlink:title="MailboxMessage">
<polygon fill="#ffffff" stroke="black" points="763.72,-252 626.72,-252 626.72,-216 763.72,-216 763.72,-252"/>
<text text-anchor="middle" x="695.22" y="-230.3" font-family="Times,serif" font-size="14.00">MailboxMessage</text>
</a>
</g>
</g>
<!-- 9&#45;&gt;9 -->
<g id="edge26" class="edge">
<title>9&#45;&gt;9</title>
<g id="a_edge26"><a xlink:title="usage">
<path fill="none" stroke="#1414ce" d="M763.75,-246.37C774.43,-244.52 781.72,-240.4 781.72,-234 781.72,-229.8 778.58,-226.58 773.41,-224.34"/>
<polygon fill="#1414ce" stroke="#1414ce" points="774.32,-220.96 763.75,-221.63 772.43,-227.7 774.32,-220.96"/>
</a>
</g>
</g>
<!-- 12 -->
<g id="node13" class="node">
<title>12</title>
<g id="a_node13"><a xlink:title="Heap">
<polygon fill="#ffffff" stroke="black" points="1261.22,-108 1207.22,-108 1207.22,-72 1261.22,-72 1261.22,-108"/>
<text text-anchor="middle" x="1234.22" y="-86.3" font-family="Times,serif" font-size="14.00">Heap</text>
</a>
</g>
</g>
<!-- 12&#45;&gt;13 -->
<g id="edge27" class="edge">
<title>12&#45;&gt;13</title>
<g id="a_edge27"><a xlink:title="usage">
<path fill="none" stroke="#1414ce" d="M1234.22,-71.7C1234.22,-63.98 1234.22,-54.71 1234.22,-46.11"/>
<polygon fill="#1414ce" stroke="#1414ce" points="1237.72,-46.1 1234.22,-36.1 1230.72,-46.1 1237.72,-46.1"/>
</a>
</g>
</g>
<!-- 8&#45;&gt;9 -->
<g id="edge28" class="edge">
<title>8&#45;&gt;9</title>
<g id="a_edge28"><a xlink:title="usage">
<path fill="none" stroke="#1414ce" d="M702.75,-287.7C701.65,-279.98 700.32,-270.71 699.09,-262.11"/>
<polygon fill="#1414ce" stroke="#1414ce" points="702.54,-261.51 697.66,-252.1 695.61,-262.5 702.54,-261.51"/>
</a>
</g>
</g>
<!-- 8&#45;&gt;8 -->
<g id="edge29" class="edge">
<title>8&#45;&gt;8</title>
<g id="a_edge29"><a xlink:title="usage">
<path fill="none" stroke="#1414ce" d="M784.38,-317.98C795.09,-315.97 802.22,-311.98 802.22,-306 802.22,-302.08 799.15,-299.01 794.01,-296.8"/>
<polygon fill="#1414ce" stroke="#1414ce" points="794.96,-293.43 784.38,-294.02 793.02,-300.15 794.96,-293.43"/>
</a>
</g>
</g>
<!-- 20&#45;&gt;11 -->
<g id="edge30" class="edge">
<title>20&#45;&gt;11</title>
<g id="a_edge30"><a xlink:title="usage">
<path fill="none" stroke="#1414ce" d="M1161.2,-215.7C1173.53,-206.8 1188.74,-195.82 1202.07,-186.2"/>
<polygon fill="#1414ce" stroke="#1414ce" points="1204.46,-188.79 1210.52,-180.1 1200.36,-183.12 1204.46,-188.79"/>
</a>
</g>
</g>
<!-- 1 -->
<g id="node16" class="node">
<title>1</title>
<g id="a_node16"><a xlink:title="RemoteMonitor">
<polygon fill="#bfbfbf" stroke="black" points="1008.22,-324 880.22,-324 880.22,-288 1008.22,-288 1008.22,-324"/>
<text text-anchor="middle" x="944.22" y="-302.3" font-family="Times,serif" font-size="14.00">RemoteMonitor</text>
</a>
</g>
</g>
<!-- 1&#45;&gt;5 -->
<g id="edge32" class="edge">
<title>1&#45;&gt;5</title>
<g id="a_edge32"><a xlink:title="usage">
<path fill="none" stroke="#1414ce" d="M960.98,-287.89C976.95,-269.43 996.59,-239.51 982.22,-216 908.58,-95.45 735.13,-45.61 648.83,-27.72"/>
<polygon fill="#1414ce" stroke="#1414ce" points="649.49,-24.28 639,-25.74 648.11,-31.14 649.49,-24.28"/>
</a>
</g>
</g>
<!-- 2 -->
<g id="node18" class="node">
<title>2</title>
<g id="a_node18"><a xlink:title="ErlNifMonitor">
<polygon fill="#ffffff" stroke="black" points="973.72,-252 856.72,-252 856.72,-216 973.72,-216 973.72,-252"/>
<text text-anchor="middle" x="915.22" y="-230.3" font-family="Times,serif" font-size="14.00">ErlNifMonitor</text>
</a>
</g>
</g>
<!-- 1&#45;&gt;2 -->
<g id="edge31" class="edge">
<title>1&#45;&gt;2</title>
<g id="a_edge31"><a xlink:title="usage">
<path fill="none" stroke="#1414ce" d="M937.05,-287.7C933.79,-279.81 929.85,-270.3 926.22,-261.55"/>
<polygon fill="#1414ce" stroke="#1414ce" points="929.37,-260 922.31,-252.1 922.9,-262.68 929.37,-260"/>
</a>
</g>
</g>
<!-- 16&#45;&gt;3 -->
<g id="edge33" class="edge">
<title>16&#45;&gt;3</title>
<g id="a_edge33"><a xlink:title="usage">
<path fill="none" stroke="#1414ce" d="M569.88,-218.5C603.58,-208.24 649.19,-194.36 686.36,-183.04"/>
<polygon fill="#1414ce" stroke="#1414ce" points="687.56,-186.34 696.11,-180.08 685.53,-179.64 687.56,-186.34"/>
</a>
</g>
</g>
<!-- 16&#45;&gt;5 -->
<g id="edge34" class="edge">
<title>16&#45;&gt;5</title>
<g id="a_edge34"><a xlink:title="usage">
<path fill="none" stroke="#1414ce" d="M522.14,-215.59C522.65,-184.98 526.7,-120.19 550.22,-72 555.31,-61.58 563.07,-51.71 570.88,-43.37"/>
<polygon fill="#1414ce" stroke="#1414ce" points="573.46,-45.75 578,-36.17 568.48,-40.83 573.46,-45.75"/>
</a>
</g>
</g>
<!-- 2&#45;&gt;3 -->
<g id="edge35" class="edge">
<title>2&#45;&gt;3</title>
<g id="a_edge35"><a xlink:title="usage">
<path fill="none" stroke="#1414ce" d="M875.35,-215.88C853.06,-206.31 825.11,-194.3 801.47,-184.15"/>
<polygon fill="#1414ce" stroke="#1414ce" points="802.54,-180.8 791.97,-180.07 799.77,-187.23 802.54,-180.8"/>
</a>
</g>
</g>
<!-- 10&#45;&gt;14 -->
<g id="edge37" class="edge">
<title>10&#45;&gt;14</title>
<g id="a_edge37"><a xlink:title="usage">
<path fill="none" stroke="#1414ce" d="M1234.13,-287.88C1248.38,-278.81 1266.07,-267.55 1281.46,-257.76"/>
<polygon fill="#1414ce" stroke="#1414ce" points="1283.65,-260.51 1290.21,-252.19 1279.89,-254.61 1283.65,-260.51"/>
</a>
</g>
</g>
<!-- 10&#45;&gt;11 -->
<g id="edge36" class="edge">
<title>10&#45;&gt;11</title>
<g id="a_edge36"><a xlink:title="usage">
<path fill="none" stroke="#1414ce" d="M1210.48,-287.87C1215.08,-263.67 1223.53,-219.21 1229.01,-190.39"/>
<polygon fill="#1414ce" stroke="#1414ce" points="1232.52,-190.67 1230.95,-180.19 1225.65,-189.36 1232.52,-190.67"/>
</a>
</g>
</g>
<!-- 4&#45;&gt;5 -->
<g id="edge38" class="edge">
<title>4&#45;&gt;5</title>
<g id="a_edge38"><a xlink:title="usage">
<path fill="none" stroke="#1414ce" d="M598.22,-71.7C598.22,-63.98 598.22,-54.71 598.22,-46.11"/>
<polygon fill="#1414ce" stroke="#1414ce" points="601.72,-46.1 598.22,-36.1 594.72,-46.1 601.72,-46.1"/>
</a>
</g>
</g>
<!-- 11&#45;&gt;12 -->
<g id="edge40" class="edge">
<title>11&#45;&gt;12</title>
<g id="a_edge40"><a xlink:title="usage">
<path fill="none" stroke="#1414ce" d="M1234.22,-143.7C1234.22,-135.98 1234.22,-126.71 1234.22,-118.11"/>
<polygon fill="#1414ce" stroke="#1414ce" points="1237.72,-118.1 1234.22,-108.1 1230.72,-118.1 1237.72,-118.1"/>
</a>
</g>
</g>
<!-- 11&#45;&gt;11 -->
<g id="edge39" class="edge">
<title>11&#45;&gt;11</title>
<g id="a_edge39"><a xlink:title="usage">
<path fill="none" stroke="#1414ce" d="M1267.58,-175.47C1277.5,-175.07 1285.22,-170.58 1285.22,-162 1285.22,-156.64 1282.2,-152.87 1277.52,-150.71"/>
<polygon fill="#1414ce" stroke="#1414ce" points="1278.09,-147.25 1267.58,-148.53 1276.6,-154.09 1278.09,-147.25"/>
</a>
</g>
</g>
</g>
</svg>
