<?xml version="1.0" encoding="UTF-8" standalone="no"?>
<!DOCTYPE svg PUBLIC "-//W3C//DTD SVG 1.1//EN"
 "http://www.w3.org/Graphics/SVG/1.1/DTD/svg11.dtd">
<!-- Generated by graphviz version 2.43.0 (0)
 -->
<!-- Title: %3 Pages: 1 -->
<svg width="799pt" height="404pt"
 viewBox="0.00 0.00 798.50 404.00" xmlns="http://www.w3.org/2000/svg" xmlns:xlink="http://www.w3.org/1999/xlink">
<g id="graph0" class="graph" transform="scale(1 1) rotate(0) translate(4 400)">
<title>%3</title>
<polygon fill="transparent" stroke="transparent" points="-4,4 -4,-400 794.5,-400 794.5,4 -4,4"/>
<!-- 2 -->
<g id="node1" class="node">
<title>2</title>
<g id="a_node1"><a xlink:title="stdbool.h">
<polygon fill="#ffffff" stroke="black" points="172,-108 89,-108 89,-72 172,-72 172,-108"/>
<text text-anchor="middle" x="130.5" y="-86.3" font-family="Times,serif" font-size="14.00">stdbool.h</text>
</a>
</g>
</g>
<!-- 1 -->
<g id="node2" class="node">
<title>1</title>
<g id="a_node2"><a xlink:title="/__w/AtomVM/AtomVM/src/libAtomVM/refc_binary.h">
<polygon fill="#bfbfbf" stroke="black" points="385,-396 0,-396 0,-360 385,-360 385,-396"/>
<text text-anchor="middle" x="192.5" y="-374.3" font-family="Times,serif" font-size="14.00">/__w/AtomVM/AtomVM/src/libAtomVM/refc_binary.h</text>
</a>
</g>
</g>
<!-- 1&#45;&gt;2 -->
<g id="edge1" class="edge">
<title>1&#45;&gt;2</title>
<g id="a_edge1"><a xlink:title="include">
<path fill="none" stroke="#1414ce" d="M181.04,-359.78C159.79,-326.68 115.02,-251.13 99.5,-180 96.09,-164.37 95.32,-159.44 99.5,-144 102.08,-134.48 106.84,-124.92 111.88,-116.59"/>
<polygon fill="#1414ce" stroke="#1414ce" points="114.88,-118.39 117.35,-108.09 108.99,-114.6 114.88,-118.39"/>
</a>
</g>
</g>
<!-- 4 -->
<g id="node6" class="node">
<title>4</title>
<g id="a_node6"><a xlink:title="list.h">
<polygon fill="#ffffff" stroke="black" points="162.5,-180 108.5,-180 108.5,-144 162.5,-144 162.5,-180"/>
<text text-anchor="middle" x="135.5" y="-158.3" font-family="Times,serif" font-size="14.00">list.h</text>
</a>
</g>
</g>
<!-- 1&#45;&gt;4 -->
<g id="edge3" class="edge">
<title>1&#45;&gt;4</title>
<g id="a_edge3"><a xlink:title="include">
<path fill="none" stroke="#1414ce" d="M187.93,-359.85C178.05,-322.75 154.63,-234.81 142.72,-190.1"/>
<polygon fill="#1414ce" stroke="#1414ce" points="146.05,-188.99 140.09,-180.23 139.28,-190.8 146.05,-188.99"/>
</a>
</g>
</g>
<!-- 3 -->
<g id="node8" class="node">
<title>3</title>
<g id="a_node8"><a xlink:title="stdlib.h">
<polygon fill="#ffffff" stroke="black" points="437,-108 366,-108 366,-72 437,-72 437,-108"/>
<text text-anchor="middle" x="401.5" y="-86.3" font-family="Times,serif" font-size="14.00">stdlib.h</text>
</a>
</g>
</g>
<!-- 1&#45;&gt;3 -->
<g id="edge2" class="edge">
<title>1&#45;&gt;3</title>
<g id="a_edge2"><a xlink:title="include">
<path fill="none" stroke="#1414ce" d="M330.25,-359.95C434.27,-338.38 566.51,-289.7 611.5,-180 617.57,-165.2 621.33,-156.62 611.5,-144 606.38,-137.43 507.68,-114.55 447.44,-101.1"/>
<polygon fill="#1414ce" stroke="#1414ce" points="447.92,-97.62 437.4,-98.86 446.4,-104.45 447.92,-97.62"/>
</a>
</g>
</g>
<!-- 5 -->
<g id="node10" class="node">
<title>5</title>
<g id="a_node10"><a xlink:title="resources.h">
<polygon fill="#ffffff" stroke="black" points="375.5,-324 275.5,-324 275.5,-288 375.5,-288 375.5,-324"/>
<text text-anchor="middle" x="325.5" y="-302.3" font-family="Times,serif" font-size="14.00">resources.h</text>
</a>
</g>
</g>
<!-- 1&#45;&gt;5 -->
<g id="edge4" class="edge">
<title>1&#45;&gt;5</title>
<g id="a_edge4"><a xlink:title="include">
<path fill="none" stroke="#1414ce" d="M225.04,-359.88C242.75,-350.55 264.85,-338.92 283.82,-328.94"/>
<polygon fill="#1414ce" stroke="#1414ce" points="285.62,-331.94 292.84,-324.19 282.36,-325.75 285.62,-331.94"/>
</a>
</g>
</g>
<!-- 8 -->
<g id="node3" class="node">
<title>8</title>
<g id="a_node3"><a xlink:title="assert.h">
<polygon fill="#ffffff" stroke="black" points="790.5,-36 716.5,-36 716.5,0 790.5,0 790.5,-36"/>
<text text-anchor="middle" x="753.5" y="-14.3" font-family="Times,serif" font-size="14.00">assert.h</text>
</a>
</g>
</g>
<!-- 13 -->
<g id="node4" class="node">
<title>13</title>
<g id="a_node4"><a xlink:title="utils.h">
<polygon fill="#ffffff" stroke="black" points="358.5,-180 296.5,-180 296.5,-144 358.5,-144 358.5,-180"/>
<text text-anchor="middle" x="327.5" y="-158.3" font-family="Times,serif" font-size="14.00">utils.h</text>
</a>
</g>
</g>
<!-- 13&#45;&gt;3 -->
<g id="edge7" class="edge">
<title>13&#45;&gt;3</title>
<g id="a_edge7"><a xlink:title="include">
<path fill="none" stroke="#1414ce" d="M345.79,-143.7C354.93,-135.05 366.14,-124.45 376.1,-115.03"/>
<polygon fill="#1414ce" stroke="#1414ce" points="378.56,-117.52 383.42,-108.1 373.75,-112.43 378.56,-117.52"/>
</a>
</g>
</g>
<!-- 14 -->
<g id="node11" class="node">
<title>14</title>
<g id="a_node11"><a xlink:title="stddef.h">
<polygon fill="#ffffff" stroke="black" points="347.5,-108 273.5,-108 273.5,-72 347.5,-72 347.5,-108"/>
<text text-anchor="middle" x="310.5" y="-86.3" font-family="Times,serif" font-size="14.00">stddef.h</text>
</a>
</g>
</g>
<!-- 13&#45;&gt;14 -->
<g id="edge5" class="edge">
<title>13&#45;&gt;14</title>
<g id="a_edge5"><a xlink:title="include">
<path fill="none" stroke="#1414ce" d="M323.3,-143.7C321.4,-135.9 319.12,-126.51 317.02,-117.83"/>
<polygon fill="#1414ce" stroke="#1414ce" points="320.42,-117 314.65,-108.1 313.61,-118.65 320.42,-117"/>
</a>
</g>
</g>
<!-- 15 -->
<g id="node16" class="node">
<title>15</title>
<g id="a_node16"><a xlink:title="stdio.h">
<polygon fill="#ffffff" stroke="black" points="255,-108 190,-108 190,-72 255,-72 255,-108"/>
<text text-anchor="middle" x="222.5" y="-86.3" font-family="Times,serif" font-size="14.00">stdio.h</text>
</a>
</g>
</g>
<!-- 13&#45;&gt;15 -->
<g id="edge6" class="edge">
<title>13&#45;&gt;15</title>
<g id="a_edge6"><a xlink:title="include">
<path fill="none" stroke="#1414ce" d="M301.81,-143.88C288.21,-134.81 271.33,-123.55 256.64,-113.76"/>
<polygon fill="#1414ce" stroke="#1414ce" points="258.55,-110.82 248.28,-108.19 254.66,-116.65 258.55,-110.82"/>
</a>
</g>
</g>
<!-- 16 -->
<g id="node5" class="node">
<title>16</title>
<g id="a_node5"><a xlink:title="synclist.h">
<polygon fill="#ffffff" stroke="black" points="308,-252 223,-252 223,-216 308,-216 308,-252"/>
<text text-anchor="middle" x="265.5" y="-230.3" font-family="Times,serif" font-size="14.00">synclist.h</text>
</a>
</g>
</g>
<!-- 16&#45;&gt;4 -->
<g id="edge9" class="edge">
<title>16&#45;&gt;4</title>
<g id="a_edge9"><a xlink:title="include">
<path fill="none" stroke="#1414ce" d="M233.7,-215.88C214.88,-205.74 190.99,-192.88 171.48,-182.37"/>
<polygon fill="#1414ce" stroke="#1414ce" points="173.04,-179.24 162.58,-177.58 169.73,-185.4 173.04,-179.24"/>
</a>
</g>
</g>
<!-- 17 -->
<g id="node15" class="node">
<title>17</title>
<g id="a_node15"><a xlink:title="smp.h">
<polygon fill="#ffffff" stroke="black" points="240.5,-180 180.5,-180 180.5,-144 240.5,-144 240.5,-180"/>
<text text-anchor="middle" x="210.5" y="-158.3" font-family="Times,serif" font-size="14.00">smp.h</text>
</a>
</g>
</g>
<!-- 16&#45;&gt;17 -->
<g id="edge10" class="edge">
<title>16&#45;&gt;17</title>
<g id="a_edge10"><a xlink:title="include">
<path fill="none" stroke="#1414ce" d="M251.9,-215.7C245.38,-207.39 237.43,-197.28 230.25,-188.14"/>
<polygon fill="#1414ce" stroke="#1414ce" points="232.87,-185.81 223.94,-180.1 227.37,-190.13 232.87,-185.81"/>
</a>
</g>
</g>
<!-- 16&#45;&gt;15 -->
<g id="edge8" class="edge">
<title>16&#45;&gt;15</title>
<g id="a_edge8"><a xlink:title="include">
<path fill="none" stroke="#1414ce" d="M263.93,-215.9C261.91,-197.7 257.66,-168.25 249.5,-144 246.44,-134.9 242.04,-125.41 237.67,-117.03"/>
<polygon fill="#1414ce" stroke="#1414ce" points="240.68,-115.23 232.84,-108.1 234.53,-118.56 240.68,-115.23"/>
</a>
</g>
</g>
<!-- 4&#45;&gt;2 -->
<g id="edge11" class="edge">
<title>4&#45;&gt;2</title>
<g id="a_edge11"><a xlink:title="include">
<path fill="none" stroke="#1414ce" d="M134.26,-143.7C133.71,-135.98 133.05,-126.71 132.44,-118.11"/>
<polygon fill="#1414ce" stroke="#1414ce" points="135.93,-117.83 131.72,-108.1 128.94,-118.33 135.93,-117.83"/>
</a>
</g>
</g>
<!-- 11 -->
<g id="node7" class="node">
<title>11</title>
<g id="a_node7"><a xlink:title="stdint.h">
<polygon fill="#ffffff" stroke="black" points="501.5,-36 429.5,-36 429.5,0 501.5,0 501.5,-36"/>
<text text-anchor="middle" x="465.5" y="-14.3" font-family="Times,serif" font-size="14.00">stdint.h</text>
</a>
</g>
</g>
<!-- 12 -->
<g id="node9" class="node">
<title>12</title>
<g id="a_node9"><a xlink:title="memory.h">
<polygon fill="#ffffff" stroke="black" points="503.5,-252 417.5,-252 417.5,-216 503.5,-216 503.5,-252"/>
<text text-anchor="middle" x="460.5" y="-230.3" font-family="Times,serif" font-size="14.00">memory.h</text>
</a>
</g>
</g>
<!-- 12&#45;&gt;13 -->
<g id="edge16" class="edge">
<title>12&#45;&gt;13</title>
<g id="a_edge16"><a xlink:title="include">
<path fill="none" stroke="#1414ce" d="M427.96,-215.88C409.77,-206.3 386.95,-194.29 367.65,-184.13"/>
<polygon fill="#1414ce" stroke="#1414ce" points="369.26,-181.03 358.78,-179.47 366,-187.22 369.26,-181.03"/>
</a>
</g>
</g>
<!-- 12&#45;&gt;11 -->
<g id="edge12" class="edge">
<title>12&#45;&gt;11</title>
<g id="a_edge12"><a xlink:title="include">
<path fill="none" stroke="#1414ce" d="M460.9,-215.85C461.77,-178.83 463.81,-91.18 464.86,-46.39"/>
<polygon fill="#1414ce" stroke="#1414ce" points="468.36,-46.31 465.1,-36.23 461.36,-46.15 468.36,-46.31"/>
</a>
</g>
</g>
<!-- 12&#45;&gt;3 -->
<g id="edge13" class="edge">
<title>12&#45;&gt;3</title>
<g id="a_edge13"><a xlink:title="include">
<path fill="none" stroke="#1414ce" d="M453.38,-215.87C443.24,-191.46 424.53,-146.43 412.57,-117.64"/>
<polygon fill="#1414ce" stroke="#1414ce" points="415.71,-116.08 408.64,-108.19 409.25,-118.77 415.71,-116.08"/>
</a>
</g>
</g>
<!-- 6 -->
<g id="node12" class="node">
<title>6</title>
<g id="a_node12"><a xlink:title="erl_nif.h">
<polygon fill="#ffffff" stroke="black" points="602.5,-180 528.5,-180 528.5,-144 602.5,-144 602.5,-180"/>
<text text-anchor="middle" x="565.5" y="-158.3" font-family="Times,serif" font-size="14.00">erl_nif.h</text>
</a>
</g>
</g>
<!-- 12&#45;&gt;6 -->
<g id="edge14" class="edge">
<title>12&#45;&gt;6</title>
<g id="a_edge14"><a xlink:title="include">
<path fill="none" stroke="#1414ce" d="M486.19,-215.88C499.79,-206.81 516.67,-195.55 531.36,-185.76"/>
<polygon fill="#1414ce" stroke="#1414ce" points="533.34,-188.65 539.72,-180.19 529.45,-182.82 533.34,-188.65"/>
</a>
</g>
</g>
<!-- 7 -->
<g id="node14" class="node">
<title>7</title>
<g id="a_node14"><a xlink:title="term_typedef.h">
<polygon fill="#ffffff" stroke="black" points="622,-108 497,-108 497,-72 622,-72 622,-108"/>
<text text-anchor="middle" x="559.5" y="-86.3" font-family="Times,serif" font-size="14.00">term_typedef.h</text>
</a>
</g>
</g>
<!-- 12&#45;&gt;7 -->
<g id="edge15" class="edge">
<title>12&#45;&gt;7</title>
<g id="a_edge15"><a xlink:title="include">
<path fill="none" stroke="#1414ce" d="M471.5,-215.73C483.13,-197.64 502.15,-168.51 519.5,-144 525.89,-134.97 533.12,-125.26 539.65,-116.65"/>
<polygon fill="#1414ce" stroke="#1414ce" points="542.61,-118.54 545.89,-108.47 537.04,-114.29 542.61,-118.54"/>
</a>
</g>
</g>
<!-- 5&#45;&gt;16 -->
<g id="edge21" class="edge">
<title>5&#45;&gt;16</title>
<g id="a_edge21"><a xlink:title="include">
<path fill="none" stroke="#1414ce" d="M310.67,-287.7C303.48,-279.3 294.7,-269.07 286.81,-259.86"/>
<polygon fill="#1414ce" stroke="#1414ce" points="289.33,-257.42 280.16,-252.1 284.01,-261.97 289.33,-257.42"/>
</a>
</g>
</g>
<!-- 5&#45;&gt;4 -->
<g id="edge19" class="edge">
<title>5&#45;&gt;4</title>
<g id="a_edge19"><a xlink:title="include">
<path fill="none" stroke="#1414ce" d="M278.69,-287.92C257.64,-279.01 233.16,-266.84 213.5,-252 189.64,-233.99 167.71,-207.71 153.22,-188.38"/>
<polygon fill="#1414ce" stroke="#1414ce" points="156.03,-186.29 147.3,-180.3 150.39,-190.43 156.03,-186.29"/>
</a>
</g>
</g>
<!-- 5&#45;&gt;3 -->
<g id="edge17" class="edge">
<title>5&#45;&gt;3</title>
<g id="a_edge17"><a xlink:title="include">
<path fill="none" stroke="#1414ce" d="M331.59,-287.85C344.79,-250.68 376.13,-162.44 391.98,-117.82"/>
<polygon fill="#1414ce" stroke="#1414ce" points="395.33,-118.83 395.38,-108.23 388.74,-116.48 395.33,-118.83"/>
</a>
</g>
</g>
<!-- 5&#45;&gt;12 -->
<g id="edge20" class="edge">
<title>5&#45;&gt;12</title>
<g id="a_edge20"><a xlink:title="include">
<path fill="none" stroke="#1414ce" d="M358.52,-287.88C376.58,-278.51 399.15,-266.81 418.45,-256.8"/>
<polygon fill="#1414ce" stroke="#1414ce" points="420.08,-259.9 427.35,-252.19 416.86,-253.69 420.08,-259.9"/>
</a>
</g>
</g>
<!-- 5&#45;&gt;6 -->
<g id="edge18" class="edge">
<title>5&#45;&gt;6</title>
<g id="a_edge18"><a xlink:title="include">
<path fill="none" stroke="#1414ce" d="M375.71,-300.96C416.2,-295.47 472.76,-282.52 512.5,-252 533.24,-236.07 547.52,-209.52 555.99,-189.55"/>
<polygon fill="#1414ce" stroke="#1414ce" points="559.31,-190.66 559.78,-180.08 552.81,-188.06 559.31,-190.66"/>
</a>
</g>
</g>
<!-- 6&#45;&gt;7 -->
<g id="edge22" class="edge">
<title>6&#45;&gt;7</title>
<g id="a_edge22"><a xlink:title="include">
<path fill="none" stroke="#1414ce" d="M564.02,-143.7C563.36,-135.98 562.56,-126.71 561.82,-118.11"/>
<polygon fill="#1414ce" stroke="#1414ce" points="565.31,-117.77 560.97,-108.1 558.33,-118.37 565.31,-117.77"/>
</a>
</g>
</g>
<!-- 9 -->
<g id="node13" class="node">
<title>9</title>
<g id="a_node13"><a xlink:title="limits.h">
<polygon fill="#ffffff" stroke="black" points="591,-36 520,-36 520,0 591,0 591,-36"/>
<text text-anchor="middle" x="555.5" y="-14.3" font-family="Times,serif" font-size="14.00">limits.h</text>
</a>
</g>
</g>
<!-- 7&#45;&gt;8 -->
<g id="edge23" class="edge">
<title>7&#45;&gt;8</title>
<g id="a_edge23"><a xlink:title="include">
<path fill="none" stroke="#1414ce" d="M607.53,-71.94C634.25,-62.42 668.33,-50.22 706.55,-36.33"/>
<polygon fill="#1414ce" stroke="#1414ce" points="708.15,-39.47 716.35,-32.76 705.76,-32.89 708.15,-39.47"/>
</a>
</g>
</g>
<!-- 7&#45;&gt;11 -->
<g id="edge26" class="edge">
<title>7&#45;&gt;11</title>
<g id="a_edge26"><a xlink:title="include">
<path fill="none" stroke="#1414ce" d="M536.26,-71.7C524.31,-62.8 509.58,-51.82 496.65,-42.2"/>
<polygon fill="#1414ce" stroke="#1414ce" points="498.58,-39.27 488.47,-36.1 494.4,-44.88 498.58,-39.27"/>
</a>
</g>
</g>
<!-- 7&#45;&gt;9 -->
<g id="edge24" class="edge">
<title>7&#45;&gt;9</title>
<g id="a_edge24"><a xlink:title="include">
<path fill="none" stroke="#1414ce" d="M558.51,-71.7C558.07,-63.98 557.54,-54.71 557.05,-46.11"/>
<polygon fill="#1414ce" stroke="#1414ce" points="560.54,-45.89 556.48,-36.1 553.55,-46.29 560.54,-45.89"/>
</a>
</g>
</g>
<!-- 10 -->
<g id="node17" class="node">
<title>10</title>
<g id="a_node17"><a xlink:title="inttypes.h">
<polygon fill="#ffffff" stroke="black" points="698,-36 609,-36 609,0 698,0 698,-36"/>
<text text-anchor="middle" x="653.5" y="-14.3" font-family="Times,serif" font-size="14.00">inttypes.h</text>
</a>
</g>
</g>
<!-- 7&#45;&gt;10 -->
<g id="edge25" class="edge">
<title>7&#45;&gt;10</title>
<g id="a_edge25"><a xlink:title="include">
<path fill="none" stroke="#1414ce" d="M582.74,-71.7C594.69,-62.8 609.42,-51.82 622.35,-42.2"/>
<polygon fill="#1414ce" stroke="#1414ce" points="624.6,-44.88 630.53,-36.1 620.42,-39.27 624.6,-44.88"/>
</a>
</g>
</g>
<!-- 17&#45;&gt;2 -->
<g id="edge27" class="edge">
<title>17&#45;&gt;2</title>
<g id="a_edge27"><a xlink:title="include">
<path fill="none" stroke="#1414ce" d="M190.72,-143.7C180.75,-134.97 168.49,-124.24 157.64,-114.75"/>
<polygon fill="#1414ce" stroke="#1414ce" points="159.88,-112.06 150.05,-108.1 155.27,-117.32 159.88,-112.06"/>
</a>
</g>
</g>
</g>
</svg>
