<?xml version="1.0" encoding="UTF-8" standalone="no"?>
<!DOCTYPE svg PUBLIC "-//W3C//DTD SVG 1.1//EN"
 "http://www.w3.org/Graphics/SVG/1.1/DTD/svg11.dtd">
<!-- Generated by graphviz version 2.43.0 (0)
 -->
<!-- Title: %3 Pages: 1 -->
<svg width="1480pt" height="836pt"
 viewBox="0.00 0.00 1480.06 836.00" xmlns="http://www.w3.org/2000/svg" xmlns:xlink="http://www.w3.org/1999/xlink">
<g id="graph0" class="graph" transform="scale(1 1) rotate(0) translate(4 832)">
<title>%3</title>
<polygon fill="transparent" stroke="transparent" points="-4,4 -4,-832 1476.06,-832 1476.06,4 -4,4"/>
<!-- 9 -->
<g id="node1" class="node">
<title>9</title>
<g id="a_node1"><a xlink:title="stdbool.h">
<polygon fill="#ffffff" stroke="black" points="935.5,-108 852.5,-108 852.5,-72 935.5,-72 935.5,-108"/>
<text text-anchor="middle" x="894" y="-86.3" font-family="Times,serif" font-size="14.00">stdbool.h</text>
</a>
</g>
</g>
<!-- 2 -->
<g id="node2" class="node">
<title>2</title>
<g id="a_node2"><a xlink:title="interop.h">
<polygon fill="#ffffff" stroke="black" points="256,-756 174,-756 174,-720 256,-720 256,-756"/>
<text text-anchor="middle" x="215" y="-734.3" font-family="Times,serif" font-size="14.00">interop.h</text>
</a>
</g>
</g>
<!-- 3 -->
<g id="node11" class="node">
<title>3</title>
<g id="a_node11"><a xlink:title="context.h">
<polygon fill="#ffffff" stroke="black" points="1018.5,-684 935.5,-684 935.5,-648 1018.5,-648 1018.5,-684"/>
<text text-anchor="middle" x="977" y="-662.3" font-family="Times,serif" font-size="14.00">context.h</text>
</a>
</g>
</g>
<!-- 2&#45;&gt;3 -->
<g id="edge1" class="edge">
<title>2&#45;&gt;3</title>
<g id="a_edge1"><a xlink:title="include">
<path fill="none" stroke="#1414ce" d="M256.24,-733.21C385.47,-721.34 782.41,-684.88 925.18,-671.76"/>
<polygon fill="#1414ce" stroke="#1414ce" points="925.77,-675.22 935.41,-670.82 925.13,-668.25 925.77,-675.22"/>
</a>
</g>
</g>
<!-- 20 -->
<g id="node15" class="node">
<title>20</title>
<g id="a_node15"><a xlink:title="term.h">
<polygon fill="#ffffff" stroke="black" points="582.5,-468 517.5,-468 517.5,-432 582.5,-432 582.5,-468"/>
<text text-anchor="middle" x="550" y="-446.3" font-family="Times,serif" font-size="14.00">term.h</text>
</a>
</g>
</g>
<!-- 2&#45;&gt;20 -->
<g id="edge2" class="edge">
<title>2&#45;&gt;20</title>
<g id="a_edge2"><a xlink:title="include">
<path fill="none" stroke="#1414ce" d="M234.95,-719.97C291.96,-671.3 455.67,-531.53 521.8,-475.08"/>
<polygon fill="#1414ce" stroke="#1414ce" points="524.4,-477.46 529.73,-468.31 519.85,-472.14 524.4,-477.46"/>
</a>
</g>
</g>
<!-- 26 -->
<g id="node3" class="node">
<title>26</title>
<g id="a_node3"><a xlink:title="refc_binary.h">
<polygon fill="#ffffff" stroke="black" points="358,-396 250,-396 250,-360 358,-360 358,-396"/>
<text text-anchor="middle" x="304" y="-374.3" font-family="Times,serif" font-size="14.00">refc_binary.h</text>
</a>
</g>
</g>
<!-- 26&#45;&gt;9 -->
<g id="edge3" class="edge">
<title>26&#45;&gt;9</title>
<g id="a_edge3"><a xlink:title="include">
<path fill="none" stroke="#1414ce" d="M358.28,-362.3C361.23,-361.52 364.15,-360.75 367,-360 429.56,-343.57 453.77,-359.25 508,-324 593.43,-268.46 563.58,-197.99 650,-144 709.11,-107.07 790.22,-95.62 842.38,-92.22"/>
<polygon fill="#1414ce" stroke="#1414ce" points="842.62,-95.71 852.41,-91.64 842.22,-88.72 842.62,-95.71"/>
</a>
</g>
</g>
<!-- 16 -->
<g id="node8" class="node">
<title>16</title>
<g id="a_node8"><a xlink:title="list.h">
<polygon fill="#ffffff" stroke="black" points="1184,-180 1130,-180 1130,-144 1184,-144 1184,-180"/>
<text text-anchor="middle" x="1157" y="-158.3" font-family="Times,serif" font-size="14.00">list.h</text>
</a>
</g>
</g>
<!-- 26&#45;&gt;16 -->
<g id="edge5" class="edge">
<title>26&#45;&gt;16</title>
<g id="a_edge5"><a xlink:title="include">
<path fill="none" stroke="#1414ce" d="M358.19,-361.92C361.16,-361.23 364.11,-360.59 367,-360 536.51,-325.4 1011.39,-369.91 1138,-252 1154.66,-236.48 1158.59,-210.24 1158.83,-190.25"/>
<polygon fill="#1414ce" stroke="#1414ce" points="1162.33,-190.13 1158.66,-180.19 1155.33,-190.24 1162.33,-190.13"/>
</a>
</g>
</g>
<!-- 7 -->
<g id="node10" class="node">
<title>7</title>
<g id="a_node10"><a xlink:title="stdlib.h">
<polygon fill="#ffffff" stroke="black" points="416.5,-108 345.5,-108 345.5,-72 416.5,-72 416.5,-108"/>
<text text-anchor="middle" x="381" y="-86.3" font-family="Times,serif" font-size="14.00">stdlib.h</text>
</a>
</g>
</g>
<!-- 26&#45;&gt;7 -->
<g id="edge4" class="edge">
<title>26&#45;&gt;7</title>
<g id="a_edge4"><a xlink:title="include">
<path fill="none" stroke="#1414ce" d="M308.59,-359.97C321.45,-312.19 357.95,-176.62 373.66,-118.27"/>
<polygon fill="#1414ce" stroke="#1414ce" points="377.12,-118.87 376.34,-108.31 370.36,-117.05 377.12,-118.87"/>
</a>
</g>
</g>
<!-- 27 -->
<g id="node13" class="node">
<title>27</title>
<g id="a_node13"><a xlink:title="resources.h">
<polygon fill="#ffffff" stroke="black" points="499,-324 399,-324 399,-288 499,-288 499,-324"/>
<text text-anchor="middle" x="449" y="-302.3" font-family="Times,serif" font-size="14.00">resources.h</text>
</a>
</g>
</g>
<!-- 26&#45;&gt;27 -->
<g id="edge6" class="edge">
<title>26&#45;&gt;27</title>
<g id="a_edge6"><a xlink:title="include">
<path fill="none" stroke="#1414ce" d="M339.47,-359.88C359.12,-350.39 383.72,-338.51 404.63,-328.42"/>
<polygon fill="#1414ce" stroke="#1414ce" points="406.16,-331.57 413.64,-324.07 403.12,-325.26 406.16,-331.57"/>
</a>
</g>
</g>
<!-- 6 -->
<g id="node4" class="node">
<title>6</title>
<g id="a_node4"><a xlink:title="atom.h">
<polygon fill="#ffffff" stroke="black" points="725,-180 659,-180 659,-144 725,-144 725,-180"/>
<text text-anchor="middle" x="692" y="-158.3" font-family="Times,serif" font-size="14.00">atom.h</text>
</a>
</g>
</g>
<!-- 5 -->
<g id="node9" class="node">
<title>5</title>
<g id="a_node9"><a xlink:title="stdint.h">
<polygon fill="#ffffff" stroke="black" points="692,-36 620,-36 620,0 692,0 692,-36"/>
<text text-anchor="middle" x="656" y="-14.3" font-family="Times,serif" font-size="14.00">stdint.h</text>
</a>
</g>
</g>
<!-- 6&#45;&gt;5 -->
<g id="edge7" class="edge">
<title>6&#45;&gt;5</title>
<g id="a_edge7"><a xlink:title="include">
<path fill="none" stroke="#1414ce" d="M687.66,-143.87C681.5,-119.56 670.15,-74.82 662.85,-46.01"/>
<polygon fill="#1414ce" stroke="#1414ce" points="666.21,-45.02 660.36,-36.19 659.42,-46.74 666.21,-45.02"/>
</a>
</g>
</g>
<!-- 6&#45;&gt;7 -->
<g id="edge8" class="edge">
<title>6&#45;&gt;7</title>
<g id="a_edge8"><a xlink:title="include">
<path fill="none" stroke="#1414ce" d="M658.63,-155.15C609.54,-146.3 515.12,-128.37 436,-108 432.85,-107.19 429.62,-106.31 426.37,-105.4"/>
<polygon fill="#1414ce" stroke="#1414ce" points="427.24,-102 416.66,-102.56 425.28,-108.72 427.24,-102"/>
</a>
</g>
</g>
<!-- 12 -->
<g id="node5" class="node">
<title>12</title>
<g id="a_node5"><a xlink:title="assert.h">
<polygon fill="#ffffff" stroke="black" points="74,-36 0,-36 0,0 74,0 74,-36"/>
<text text-anchor="middle" x="37" y="-14.3" font-family="Times,serif" font-size="14.00">assert.h</text>
</a>
</g>
</g>
<!-- 24 -->
<g id="node6" class="node">
<title>24</title>
<g id="a_node6"><a xlink:title="utils.h">
<polygon fill="#ffffff" stroke="black" points="520,-180 458,-180 458,-144 520,-144 520,-180"/>
<text text-anchor="middle" x="489" y="-158.3" font-family="Times,serif" font-size="14.00">utils.h</text>
</a>
</g>
</g>
<!-- 24&#45;&gt;7 -->
<g id="edge11" class="edge">
<title>24&#45;&gt;7</title>
<g id="a_edge11"><a xlink:title="include">
<path fill="none" stroke="#1414ce" d="M462.58,-143.88C448.59,-134.81 431.22,-123.55 416.11,-113.76"/>
<polygon fill="#1414ce" stroke="#1414ce" points="417.82,-110.69 407.52,-108.19 414.01,-116.57 417.82,-110.69"/>
</a>
</g>
</g>
<!-- 25 -->
<g id="node16" class="node">
<title>25</title>
<g id="a_node16"><a xlink:title="stddef.h">
<polygon fill="#ffffff" stroke="black" points="519,-108 445,-108 445,-72 519,-72 519,-108"/>
<text text-anchor="middle" x="482" y="-86.3" font-family="Times,serif" font-size="14.00">stddef.h</text>
</a>
</g>
</g>
<!-- 24&#45;&gt;25 -->
<g id="edge9" class="edge">
<title>24&#45;&gt;25</title>
<g id="a_edge9"><a xlink:title="include">
<path fill="none" stroke="#1414ce" d="M487.27,-143.7C486.5,-135.98 485.57,-126.71 484.71,-118.11"/>
<polygon fill="#1414ce" stroke="#1414ce" points="488.19,-117.71 483.71,-108.1 481.22,-118.4 488.19,-117.71"/>
</a>
</g>
</g>
<!-- 18 -->
<g id="node27" class="node">
<title>18</title>
<g id="a_node27"><a xlink:title="stdio.h">
<polygon fill="#ffffff" stroke="black" points="602.5,-108 537.5,-108 537.5,-72 602.5,-72 602.5,-108"/>
<text text-anchor="middle" x="570" y="-86.3" font-family="Times,serif" font-size="14.00">stdio.h</text>
</a>
</g>
</g>
<!-- 24&#45;&gt;18 -->
<g id="edge10" class="edge">
<title>24&#45;&gt;18</title>
<g id="a_edge10"><a xlink:title="include">
<path fill="none" stroke="#1414ce" d="M509.02,-143.7C519.13,-134.97 531.54,-124.24 542.52,-114.75"/>
<polygon fill="#1414ce" stroke="#1414ce" points="544.93,-117.29 550.21,-108.1 540.35,-111.99 544.93,-117.29"/>
</a>
</g>
</g>
<!-- 17 -->
<g id="node7" class="node">
<title>17</title>
<g id="a_node7"><a xlink:title="synclist.h">
<polygon fill="#ffffff" stroke="black" points="1128.5,-252 1043.5,-252 1043.5,-216 1128.5,-216 1128.5,-252"/>
<text text-anchor="middle" x="1086" y="-230.3" font-family="Times,serif" font-size="14.00">synclist.h</text>
</a>
</g>
</g>
<!-- 17&#45;&gt;16 -->
<g id="edge13" class="edge">
<title>17&#45;&gt;16</title>
<g id="a_edge13"><a xlink:title="include">
<path fill="none" stroke="#1414ce" d="M1103.55,-215.7C1112.23,-207.14 1122.86,-196.66 1132.35,-187.3"/>
<polygon fill="#1414ce" stroke="#1414ce" points="1134.99,-189.62 1139.65,-180.1 1130.07,-184.63 1134.99,-189.62"/>
</a>
</g>
</g>
<!-- 19 -->
<g id="node24" class="node">
<title>19</title>
<g id="a_node24"><a xlink:title="smp.h">
<polygon fill="#ffffff" stroke="black" points="1060,-180 1000,-180 1000,-144 1060,-144 1060,-180"/>
<text text-anchor="middle" x="1030" y="-158.3" font-family="Times,serif" font-size="14.00">smp.h</text>
</a>
</g>
</g>
<!-- 17&#45;&gt;19 -->
<g id="edge14" class="edge">
<title>17&#45;&gt;19</title>
<g id="a_edge14"><a xlink:title="include">
<path fill="none" stroke="#1414ce" d="M1072.16,-215.7C1065.51,-207.39 1057.42,-197.28 1050.11,-188.14"/>
<polygon fill="#1414ce" stroke="#1414ce" points="1052.66,-185.73 1043.68,-180.1 1047.2,-190.1 1052.66,-185.73"/>
</a>
</g>
</g>
<!-- 17&#45;&gt;18 -->
<g id="edge12" class="edge">
<title>17&#45;&gt;18</title>
<g id="a_edge12"><a xlink:title="include">
<path fill="none" stroke="#1414ce" d="M1043.33,-221.26C946.2,-194.53 709.52,-129.39 612.52,-102.7"/>
<polygon fill="#1414ce" stroke="#1414ce" points="613.33,-99.3 602.76,-100.02 611.48,-106.04 613.33,-99.3"/>
</a>
</g>
</g>
<!-- 16&#45;&gt;9 -->
<g id="edge15" class="edge">
<title>16&#45;&gt;9</title>
<g id="a_edge15"><a xlink:title="include">
<path fill="none" stroke="#1414ce" d="M1129.84,-153.77C1086.48,-142.23 1000.85,-119.44 945.58,-104.73"/>
<polygon fill="#1414ce" stroke="#1414ce" points="946.19,-101.27 935.63,-102.08 944.39,-108.03 946.19,-101.27"/>
</a>
</g>
</g>
<!-- 3&#45;&gt;16 -->
<g id="edge17" class="edge">
<title>3&#45;&gt;16</title>
<g id="a_edge17"><a xlink:title="include">
<path fill="none" stroke="#1414ce" d="M1018.54,-651.76C1041.39,-643.03 1069.22,-629.88 1090,-612 1145.33,-564.38 1144.3,-536.69 1169,-468 1207.02,-362.27 1219.52,-324.13 1189,-216 1186.3,-206.43 1181.37,-196.85 1176.18,-188.52"/>
<polygon fill="#1414ce" stroke="#1414ce" points="1178.98,-186.42 1170.53,-180.04 1173.15,-190.3 1178.98,-186.42"/>
</a>
</g>
</g>
<!-- 3&#45;&gt;20 -->
<g id="edge20" class="edge">
<title>3&#45;&gt;20</title>
<g id="a_edge20"><a xlink:title="include">
<path fill="none" stroke="#1414ce" d="M935.14,-659.18C891.95,-652.09 823.41,-637.73 769,-612 691.93,-575.56 614.58,-510.37 575.72,-475.16"/>
<polygon fill="#1414ce" stroke="#1414ce" points="577.77,-472.29 568.03,-468.12 573.04,-477.46 577.77,-472.29"/>
</a>
</g>
</g>
<!-- 4 -->
<g id="node23" class="node">
<title>4</title>
<g id="a_node23"><a xlink:title="globalcontext.h">
<polygon fill="#ffffff" stroke="black" points="1040.5,-612 913.5,-612 913.5,-576 1040.5,-576 1040.5,-612"/>
<text text-anchor="middle" x="977" y="-590.3" font-family="Times,serif" font-size="14.00">globalcontext.h</text>
</a>
</g>
</g>
<!-- 3&#45;&gt;4 -->
<g id="edge16" class="edge">
<title>3&#45;&gt;4</title>
<g id="a_edge16"><a xlink:title="include">
<path fill="none" stroke="#1414ce" d="M977,-647.7C977,-639.98 977,-630.71 977,-622.11"/>
<polygon fill="#1414ce" stroke="#1414ce" points="980.5,-622.1 977,-612.1 973.5,-622.1 980.5,-622.1"/>
</a>
</g>
</g>
<!-- 3&#45;&gt;19 -->
<g id="edge19" class="edge">
<title>3&#45;&gt;19</title>
<g id="a_edge19"><a xlink:title="include">
<path fill="none" stroke="#1414ce" d="M1008.73,-647.9C1042.94,-627.42 1095.38,-589.58 1117,-540 1174.67,-407.72 1214.32,-338.47 1138,-216 1123.15,-192.16 1094.1,-178.75 1069.86,-171.38"/>
<polygon fill="#1414ce" stroke="#1414ce" points="1070.75,-167.99 1060.17,-168.66 1068.86,-174.73 1070.75,-167.99"/>
</a>
</g>
</g>
<!-- 29 -->
<g id="node25" class="node">
<title>29</title>
<g id="a_node25"><a xlink:title="timer_list.h">
<polygon fill="#ffffff" stroke="black" points="1435,-252 1337,-252 1337,-216 1435,-216 1435,-252"/>
<text text-anchor="middle" x="1386" y="-230.3" font-family="Times,serif" font-size="14.00">timer_list.h</text>
</a>
</g>
</g>
<!-- 3&#45;&gt;29 -->
<g id="edge21" class="edge">
<title>3&#45;&gt;29</title>
<g id="a_edge21"><a xlink:title="include">
<path fill="none" stroke="#1414ce" d="M1018.83,-664.86C1107.61,-663.7 1310.88,-656.16 1361,-612 1391.74,-584.92 1385,-563.97 1385,-523 1385,-523 1385,-523 1385,-377 1385,-337 1385.4,-290.65 1385.7,-262.08"/>
<polygon fill="#1414ce" stroke="#1414ce" points="1389.2,-262.09 1385.8,-252.05 1382.2,-262.01 1389.2,-262.09"/>
</a>
</g>
</g>
<!-- 28 -->
<g id="node26" class="node">
<title>28</title>
<g id="a_node26"><a xlink:title="mailbox.h">
<polygon fill="#ffffff" stroke="black" points="821,-252 735,-252 735,-216 821,-216 821,-252"/>
<text text-anchor="middle" x="778" y="-230.3" font-family="Times,serif" font-size="14.00">mailbox.h</text>
</a>
</g>
</g>
<!-- 3&#45;&gt;28 -->
<g id="edge18" class="edge">
<title>3&#45;&gt;28</title>
<g id="a_edge18"><a xlink:title="include">
<path fill="none" stroke="#1414ce" d="M935.38,-654.61C878.38,-637.59 783,-597.92 783,-523 783,-523 783,-523 783,-377 783,-336.97 780.99,-290.63 779.52,-262.07"/>
<polygon fill="#1414ce" stroke="#1414ce" points="783.01,-261.84 778.99,-252.04 776.02,-262.21 783.01,-261.84"/>
</a>
</g>
</g>
<!-- 23 -->
<g id="node12" class="node">
<title>23</title>
<g id="a_node12"><a xlink:title="memory.h">
<polygon fill="#ffffff" stroke="black" points="257,-252 171,-252 171,-216 257,-216 257,-252"/>
<text text-anchor="middle" x="214" y="-230.3" font-family="Times,serif" font-size="14.00">memory.h</text>
</a>
</g>
</g>
<!-- 23&#45;&gt;24 -->
<g id="edge26" class="edge">
<title>23&#45;&gt;24</title>
<g id="a_edge26"><a xlink:title="include">
<path fill="none" stroke="#1414ce" d="M257.27,-221.99C309.6,-208.67 397,-186.42 448.2,-173.39"/>
<polygon fill="#1414ce" stroke="#1414ce" points="449.1,-176.77 457.93,-170.91 447.38,-169.98 449.1,-176.77"/>
</a>
</g>
</g>
<!-- 23&#45;&gt;5 -->
<g id="edge22" class="edge">
<title>23&#45;&gt;5</title>
<g id="a_edge22"><a xlink:title="include">
<path fill="none" stroke="#1414ce" d="M221.21,-215.9C236.6,-181.77 276.23,-105.59 336,-72 382.07,-46.11 532.57,-29.7 609.63,-22.78"/>
<polygon fill="#1414ce" stroke="#1414ce" points="610.34,-26.23 619.99,-21.87 609.72,-19.26 610.34,-26.23"/>
</a>
</g>
</g>
<!-- 23&#45;&gt;7 -->
<g id="edge23" class="edge">
<title>23&#45;&gt;7</title>
<g id="a_edge23"><a xlink:title="include">
<path fill="none" stroke="#1414ce" d="M234.14,-215.87C263.86,-190.6 319.55,-143.25 353.15,-114.68"/>
<polygon fill="#1414ce" stroke="#1414ce" points="355.43,-117.33 360.78,-108.19 350.9,-112 355.43,-117.33"/>
</a>
</g>
</g>
<!-- 10 -->
<g id="node17" class="node">
<title>10</title>
<g id="a_node17"><a xlink:title="erl_nif.h">
<polygon fill="#ffffff" stroke="black" points="153,-180 79,-180 79,-144 153,-144 153,-180"/>
<text text-anchor="middle" x="116" y="-158.3" font-family="Times,serif" font-size="14.00">erl_nif.h</text>
</a>
</g>
</g>
<!-- 23&#45;&gt;10 -->
<g id="edge24" class="edge">
<title>23&#45;&gt;10</title>
<g id="a_edge24"><a xlink:title="include">
<path fill="none" stroke="#1414ce" d="M190.03,-215.88C177.45,-206.89 161.87,-195.76 148.25,-186.03"/>
<polygon fill="#1414ce" stroke="#1414ce" points="150.24,-183.15 140.07,-180.19 146.17,-188.85 150.24,-183.15"/>
</a>
</g>
</g>
<!-- 11 -->
<g id="node22" class="node">
<title>11</title>
<g id="a_node22"><a xlink:title="term_typedef.h">
<polygon fill="#ffffff" stroke="black" points="190.5,-108 65.5,-108 65.5,-72 190.5,-72 190.5,-108"/>
<text text-anchor="middle" x="128" y="-86.3" font-family="Times,serif" font-size="14.00">term_typedef.h</text>
</a>
</g>
</g>
<!-- 23&#45;&gt;11 -->
<g id="edge25" class="edge">
<title>23&#45;&gt;11</title>
<g id="a_edge25"><a xlink:title="include">
<path fill="none" stroke="#1414ce" d="M204.24,-215.81C193.94,-197.8 177.14,-168.72 162,-144 156.49,-135.01 150.3,-125.26 144.73,-116.61"/>
<polygon fill="#1414ce" stroke="#1414ce" points="147.58,-114.57 139.21,-108.07 141.7,-118.37 147.58,-114.57"/>
</a>
</g>
</g>
<!-- 27&#45;&gt;17 -->
<g id="edge31" class="edge">
<title>27&#45;&gt;17</title>
<g id="a_edge31"><a xlink:title="include">
<path fill="none" stroke="#1414ce" d="M499.12,-303.77C600.21,-300.54 835.39,-289.33 1029,-252 1030.46,-251.72 1031.93,-251.42 1033.41,-251.09"/>
<polygon fill="#1414ce" stroke="#1414ce" points="1034.36,-254.47 1043.28,-248.73 1032.74,-247.66 1034.36,-254.47"/>
</a>
</g>
</g>
<!-- 27&#45;&gt;16 -->
<g id="edge29" class="edge">
<title>27&#45;&gt;16</title>
<g id="a_edge29"><a xlink:title="include">
<path fill="none" stroke="#1414ce" d="M499.15,-305.26C591.62,-304.53 794.48,-297.35 958,-252 994.4,-241.9 1000.56,-231.53 1035,-216 1063.62,-203.1 1096.25,-188.95 1120.56,-178.52"/>
<polygon fill="#1414ce" stroke="#1414ce" points="1121.96,-181.73 1129.77,-174.58 1119.2,-175.29 1121.96,-181.73"/>
</a>
</g>
</g>
<!-- 27&#45;&gt;7 -->
<g id="edge27" class="edge">
<title>27&#45;&gt;7</title>
<g id="a_edge27"><a xlink:title="include">
<path fill="none" stroke="#1414ce" d="M443.55,-287.85C431.74,-250.68 403.7,-162.44 389.52,-117.82"/>
<polygon fill="#1414ce" stroke="#1414ce" points="392.84,-116.7 386.48,-108.23 386.17,-118.82 392.84,-116.7"/>
</a>
</g>
</g>
<!-- 27&#45;&gt;23 -->
<g id="edge30" class="edge">
<title>27&#45;&gt;23</title>
<g id="a_edge30"><a xlink:title="include">
<path fill="none" stroke="#1414ce" d="M398.87,-290.07C360.1,-278.52 306.55,-262.57 267.06,-250.8"/>
<polygon fill="#1414ce" stroke="#1414ce" points="267.92,-247.41 257.34,-247.91 265.92,-254.12 267.92,-247.41"/>
</a>
</g>
</g>
<!-- 27&#45;&gt;10 -->
<g id="edge28" class="edge">
<title>27&#45;&gt;10</title>
<g id="a_edge28"><a xlink:title="include">
<path fill="none" stroke="#1414ce" d="M398.72,-301.03C326.7,-294.46 198.78,-279.28 162,-252 141.56,-236.84 129.46,-209.95 122.84,-189.68"/>
<polygon fill="#1414ce" stroke="#1414ce" points="126.18,-188.62 119.95,-180.06 119.48,-190.64 126.18,-188.62"/>
</a>
</g>
</g>
<!-- 1 -->
<g id="node14" class="node">
<title>1</title>
<g id="a_node14"><a xlink:title="/__w/AtomVM/AtomVM/src/libAtomVM/inet.h">
<polygon fill="#bfbfbf" stroke="black" points="347.5,-828 12.5,-828 12.5,-792 347.5,-792 347.5,-828"/>
<text text-anchor="middle" x="180" y="-806.3" font-family="Times,serif" font-size="14.00">/__w/AtomVM/AtomVM/src/libAtomVM/inet.h</text>
</a>
</g>
</g>
<!-- 1&#45;&gt;2 -->
<g id="edge32" class="edge">
<title>1&#45;&gt;2</title>
<g id="a_edge32"><a xlink:title="include">
<path fill="none" stroke="#1414ce" d="M188.65,-791.7C192.64,-783.73 197.45,-774.1 201.87,-765.26"/>
<polygon fill="#1414ce" stroke="#1414ce" points="205.11,-766.61 206.45,-756.1 198.85,-763.48 205.11,-766.61"/>
</a>
</g>
</g>
<!-- 1&#45;&gt;23 -->
<g id="edge33" class="edge">
<title>1&#45;&gt;23</title>
<g id="a_edge33"><a xlink:title="include">
<path fill="none" stroke="#1414ce" d="M173.12,-791.83C163.18,-765.44 146,-713.14 146,-667 146,-667 146,-667 146,-377 146,-332.6 173.37,-287.38 193.38,-260.25"/>
<polygon fill="#1414ce" stroke="#1414ce" points="196.31,-262.18 199.58,-252.11 190.74,-257.95 196.31,-262.18"/>
</a>
</g>
</g>
<!-- 20&#45;&gt;9 -->
<g id="edge35" class="edge">
<title>20&#45;&gt;9</title>
<g id="a_edge35"><a xlink:title="include">
<path fill="none" stroke="#1414ce" d="M582.54,-444.65C612.95,-438.85 657.39,-425.61 683,-396 736.8,-333.79 681.57,-285.22 726,-216 756,-169.27 810.01,-133.8 848.7,-112.79"/>
<polygon fill="#1414ce" stroke="#1414ce" points="850.5,-115.8 857.69,-108.02 847.22,-109.62 850.5,-115.8"/>
</a>
</g>
</g>
<!-- 20&#45;&gt;26 -->
<g id="edge41" class="edge">
<title>20&#45;&gt;26</title>
<g id="a_edge41"><a xlink:title="include">
<path fill="none" stroke="#1414ce" d="M517.33,-439.7C479.31,-428.88 415.61,-410.76 367.69,-397.12"/>
<polygon fill="#1414ce" stroke="#1414ce" points="368.6,-393.74 358.03,-394.37 366.69,-400.48 368.6,-393.74"/>
</a>
</g>
</g>
<!-- 20&#45;&gt;24 -->
<g id="edge42" class="edge">
<title>20&#45;&gt;24</title>
<g id="a_edge42"><a xlink:title="include">
<path fill="none" stroke="#1414ce" d="M559.54,-431.93C564.64,-421.82 570.39,-408.57 573,-396 576.25,-380.33 576.2,-375.68 573,-360 559.81,-295.46 524.65,-225.9 504.24,-189.18"/>
<polygon fill="#1414ce" stroke="#1414ce" points="507.11,-187.14 499.15,-180.15 501.01,-190.58 507.11,-187.14"/>
</a>
</g>
</g>
<!-- 20&#45;&gt;5 -->
<g id="edge36" class="edge">
<title>20&#45;&gt;5</title>
<g id="a_edge36"><a xlink:title="include">
<path fill="none" stroke="#1414ce" d="M575.12,-431.96C586.74,-422.72 599.58,-410.26 607,-396 638.8,-334.9 651.32,-122.8 654.86,-46.56"/>
<polygon fill="#1414ce" stroke="#1414ce" points="658.37,-46.48 655.32,-36.33 651.37,-46.17 658.37,-46.48"/>
</a>
</g>
</g>
<!-- 20&#45;&gt;7 -->
<g id="edge38" class="edge">
<title>20&#45;&gt;7</title>
<g id="a_edge38"><a xlink:title="include">
<path fill="none" stroke="#1414ce" d="M517.42,-448.48C445.37,-446.58 276.13,-437.67 241,-396 202.44,-350.27 315.81,-181.67 362.19,-116.73"/>
<polygon fill="#1414ce" stroke="#1414ce" points="365.27,-118.44 368.27,-108.28 359.59,-114.35 365.27,-118.44"/>
</a>
</g>
</g>
<!-- 20&#45;&gt;23 -->
<g id="edge40" class="edge">
<title>20&#45;&gt;23</title>
<g id="a_edge40"><a xlink:title="include">
<path fill="none" stroke="#1414ce" d="M517.48,-449.08C439.95,-448.52 247.73,-442.36 208,-396 176.03,-358.69 190.76,-296.78 203.15,-261.59"/>
<polygon fill="#1414ce" stroke="#1414ce" points="206.51,-262.6 206.71,-252 199.95,-260.16 206.51,-262.6"/>
</a>
</g>
</g>
<!-- 21 -->
<g id="node20" class="node">
<title>21</title>
<g id="a_node20"><a xlink:title="sys/types.h">
<polygon fill="#ffffff" stroke="black" points="473.5,-396 376.5,-396 376.5,-360 473.5,-360 473.5,-396"/>
<text text-anchor="middle" x="425" y="-374.3" font-family="Times,serif" font-size="14.00">sys/types.h</text>
</a>
</g>
</g>
<!-- 20&#45;&gt;21 -->
<g id="edge34" class="edge">
<title>20&#45;&gt;21</title>
<g id="a_edge34"><a xlink:title="include">
<path fill="none" stroke="#1414ce" d="M519.42,-431.88C502.93,-422.64 482.38,-411.13 464.66,-401.21"/>
<polygon fill="#1414ce" stroke="#1414ce" points="466.13,-398.02 455.7,-396.19 462.71,-404.13 466.13,-398.02"/>
</a>
</g>
</g>
<!-- 22 -->
<g id="node21" class="node">
<title>22</title>
<g id="a_node21"><a xlink:title="string.h">
<polygon fill="#ffffff" stroke="black" points="564.5,-396 491.5,-396 491.5,-360 564.5,-360 564.5,-396"/>
<text text-anchor="middle" x="528" y="-374.3" font-family="Times,serif" font-size="14.00">string.h</text>
</a>
</g>
</g>
<!-- 20&#45;&gt;22 -->
<g id="edge39" class="edge">
<title>20&#45;&gt;22</title>
<g id="a_edge39"><a xlink:title="include">
<path fill="none" stroke="#1414ce" d="M544.56,-431.7C542.11,-423.9 539.16,-414.51 536.43,-405.83"/>
<polygon fill="#1414ce" stroke="#1414ce" points="539.71,-404.59 533.38,-396.1 533.04,-406.69 539.71,-404.59"/>
</a>
</g>
</g>
<!-- 20&#45;&gt;11 -->
<g id="edge43" class="edge">
<title>20&#45;&gt;11</title>
<g id="a_edge43"><a xlink:title="include">
<path fill="none" stroke="#1414ce" d="M517.26,-447.89C438.5,-444.63 241.04,-432.92 188,-396 98.22,-333.5 97.06,-285.99 70,-180 66.04,-164.5 63.55,-158.64 70,-144 74.99,-132.69 83.71,-122.74 92.9,-114.62"/>
<polygon fill="#1414ce" stroke="#1414ce" points="95.17,-117.28 100.66,-108.23 90.72,-111.88 95.17,-117.28"/>
</a>
</g>
</g>
<!-- 20&#45;&gt;18 -->
<g id="edge37" class="edge">
<title>20&#45;&gt;18</title>
<g id="a_edge37"><a xlink:title="include">
<path fill="none" stroke="#1414ce" d="M566.89,-431.99C575.29,-422.31 584.58,-409.46 589,-396 621.27,-297.71 593.35,-172.19 578.22,-117.96"/>
<polygon fill="#1414ce" stroke="#1414ce" points="581.51,-116.73 575.38,-108.09 574.78,-118.67 581.51,-116.73"/>
</a>
</g>
</g>
<!-- 10&#45;&gt;11 -->
<g id="edge44" class="edge">
<title>10&#45;&gt;11</title>
<g id="a_edge44"><a xlink:title="include">
<path fill="none" stroke="#1414ce" d="M118.97,-143.7C120.29,-135.98 121.88,-126.71 123.35,-118.11"/>
<polygon fill="#1414ce" stroke="#1414ce" points="126.83,-118.55 125.07,-108.1 119.93,-117.37 126.83,-118.55"/>
</a>
</g>
</g>
<!-- 13 -->
<g id="node18" class="node">
<title>13</title>
<g id="a_node18"><a xlink:title="limits.h">
<polygon fill="#ffffff" stroke="black" points="163.5,-36 92.5,-36 92.5,0 163.5,0 163.5,-36"/>
<text text-anchor="middle" x="128" y="-14.3" font-family="Times,serif" font-size="14.00">limits.h</text>
</a>
</g>
</g>
<!-- 8 -->
<g id="node19" class="node">
<title>8</title>
<g id="a_node19"><a xlink:title="atom_table.h">
<polygon fill="#ffffff" stroke="black" points="948.5,-252 839.5,-252 839.5,-216 948.5,-216 948.5,-252"/>
<text text-anchor="middle" x="894" y="-230.3" font-family="Times,serif" font-size="14.00">atom_table.h</text>
</a>
</g>
</g>
<!-- 8&#45;&gt;9 -->
<g id="edge45" class="edge">
<title>8&#45;&gt;9</title>
<g id="a_edge45"><a xlink:title="include">
<path fill="none" stroke="#1414ce" d="M894,-215.87C894,-191.67 894,-147.21 894,-118.39"/>
<polygon fill="#1414ce" stroke="#1414ce" points="897.5,-118.19 894,-108.19 890.5,-118.19 897.5,-118.19"/>
</a>
</g>
</g>
<!-- 8&#45;&gt;6 -->
<g id="edge46" class="edge">
<title>8&#45;&gt;6</title>
<g id="a_edge46"><a xlink:title="include">
<path fill="none" stroke="#1414ce" d="M844.84,-215.97C811.19,-204.3 767,-188.99 734.79,-177.83"/>
<polygon fill="#1414ce" stroke="#1414ce" points="735.8,-174.47 725.21,-174.51 733.51,-181.09 735.8,-174.47"/>
</a>
</g>
</g>
<!-- 11&#45;&gt;12 -->
<g id="edge47" class="edge">
<title>11&#45;&gt;12</title>
<g id="a_edge47"><a xlink:title="include">
<path fill="none" stroke="#1414ce" d="M105.51,-71.7C94.04,-62.88 79.94,-52.03 67.52,-42.47"/>
<polygon fill="#1414ce" stroke="#1414ce" points="69.3,-39.43 59.24,-36.1 65.03,-44.98 69.3,-39.43"/>
</a>
</g>
</g>
<!-- 11&#45;&gt;5 -->
<g id="edge50" class="edge">
<title>11&#45;&gt;5</title>
<g id="a_edge50"><a xlink:title="include">
<path fill="none" stroke="#1414ce" d="M190.51,-74.65C195.4,-73.69 200.28,-72.8 205,-72 352.05,-47.19 528.03,-30.11 609.89,-22.88"/>
<polygon fill="#1414ce" stroke="#1414ce" points="610.22,-26.36 619.87,-22.01 609.6,-19.39 610.22,-26.36"/>
</a>
</g>
</g>
<!-- 11&#45;&gt;13 -->
<g id="edge48" class="edge">
<title>11&#45;&gt;13</title>
<g id="a_edge48"><a xlink:title="include">
<path fill="none" stroke="#1414ce" d="M128,-71.7C128,-63.98 128,-54.71 128,-46.11"/>
<polygon fill="#1414ce" stroke="#1414ce" points="131.5,-46.1 128,-36.1 124.5,-46.1 131.5,-46.1"/>
</a>
</g>
</g>
<!-- 14 -->
<g id="node29" class="node">
<title>14</title>
<g id="a_node29"><a xlink:title="inttypes.h">
<polygon fill="#ffffff" stroke="black" points="270.5,-36 181.5,-36 181.5,0 270.5,0 270.5,-36"/>
<text text-anchor="middle" x="226" y="-14.3" font-family="Times,serif" font-size="14.00">inttypes.h</text>
</a>
</g>
</g>
<!-- 11&#45;&gt;14 -->
<g id="edge49" class="edge">
<title>11&#45;&gt;14</title>
<g id="a_edge49"><a xlink:title="include">
<path fill="none" stroke="#1414ce" d="M151.97,-71.88C164.55,-62.89 180.13,-51.76 193.75,-42.03"/>
<polygon fill="#1414ce" stroke="#1414ce" points="195.83,-44.85 201.93,-36.19 191.76,-39.15 195.83,-44.85"/>
</a>
</g>
</g>
<!-- 4&#45;&gt;6 -->
<g id="edge52" class="edge">
<title>4&#45;&gt;6</title>
<g id="a_edge52"><a xlink:title="include">
<path fill="none" stroke="#1414ce" d="M928.7,-575.97C909.6,-567.43 888.55,-555.54 873,-540 767.95,-435.02 715.22,-257.1 698.26,-189.83"/>
<polygon fill="#1414ce" stroke="#1414ce" points="701.64,-188.89 695.85,-180.02 694.84,-190.56 701.64,-188.89"/>
</a>
</g>
</g>
<!-- 4&#45;&gt;17 -->
<g id="edge59" class="edge">
<title>4&#45;&gt;17</title>
<g id="a_edge59"><a xlink:title="include">
<path fill="none" stroke="#1414ce" d="M1022.41,-575.9C1039.08,-567.48 1056.63,-555.7 1068,-540 1091.73,-507.24 1087,-491.45 1087,-451 1087,-451 1087,-451 1087,-377 1087,-337 1086.6,-290.65 1086.3,-262.08"/>
<polygon fill="#1414ce" stroke="#1414ce" points="1089.8,-262.01 1086.2,-252.05 1082.8,-262.09 1089.8,-262.01"/>
</a>
</g>
</g>
<!-- 4&#45;&gt;16 -->
<g id="edge56" class="edge">
<title>4&#45;&gt;16</title>
<g id="a_edge56"><a xlink:title="include">
<path fill="none" stroke="#1414ce" d="M1036.48,-575.9C1055.82,-567.77 1075.91,-556.18 1090,-540 1177.65,-439.36 1158.69,-384.46 1175,-252 1176.95,-236.12 1177.61,-231.79 1175,-216 1173.56,-207.28 1170.87,-198.06 1168,-189.8"/>
<polygon fill="#1414ce" stroke="#1414ce" points="1171.23,-188.46 1164.48,-180.3 1164.67,-190.89 1171.23,-188.46"/>
</a>
</g>
</g>
<!-- 4&#45;&gt;5 -->
<g id="edge51" class="edge">
<title>4&#45;&gt;5</title>
<g id="a_edge51"><a xlink:title="include">
<path fill="none" stroke="#1414ce" d="M1040.73,-591.65C1097.08,-587.91 1179.77,-576.02 1242,-540 1388.87,-454.99 1534.19,-359.74 1444,-216 1404.91,-153.7 1362.66,-172.83 1295,-144 1210.39,-107.95 1190.4,-93.59 1101,-72 958.41,-37.57 784.49,-25.1 702.72,-20.93"/>
<polygon fill="#1414ce" stroke="#1414ce" points="702.43,-17.41 692.27,-20.41 702.09,-24.4 702.43,-17.41"/>
</a>
</g>
</g>
<!-- 4&#45;&gt;20 -->
<g id="edge60" class="edge">
<title>4&#45;&gt;20</title>
<g id="a_edge60"><a xlink:title="include">
<path fill="none" stroke="#1414ce" d="M920.58,-575.89C887.42,-565.72 844.74,-552.41 807,-540 731.1,-515.03 643.25,-484.19 592.41,-466.14"/>
<polygon fill="#1414ce" stroke="#1414ce" points="593.34,-462.76 582.75,-462.71 591,-469.35 593.34,-462.76"/>
</a>
</g>
</g>
<!-- 4&#45;&gt;10 -->
<g id="edge54" class="edge">
<title>4&#45;&gt;10</title>
<g id="a_edge54"><a xlink:title="include">
<path fill="none" stroke="#1414ce" d="M913.34,-591.47C771.14,-585.2 421.87,-553.6 188,-396 154.38,-373.34 147.04,-361.65 132,-324 114.31,-279.71 113.05,-223.34 114.2,-190.4"/>
<polygon fill="#1414ce" stroke="#1414ce" points="117.71,-190.33 114.67,-180.18 110.72,-190.01 117.71,-190.33"/>
</a>
</g>
</g>
<!-- 4&#45;&gt;8 -->
<g id="edge53" class="edge">
<title>4&#45;&gt;8</title>
<g id="a_edge53"><a xlink:title="include">
<path fill="none" stroke="#1414ce" d="M969.31,-575.91C958.21,-549.62 939,-497.45 939,-451 939,-451 939,-451 939,-377 939,-335.13 921,-289.42 907.77,-261.48"/>
<polygon fill="#1414ce" stroke="#1414ce" points="910.85,-259.82 903.32,-252.37 904.56,-262.89 910.85,-259.82"/>
</a>
</g>
</g>
<!-- 4&#45;&gt;19 -->
<g id="edge58" class="edge">
<title>4&#45;&gt;19</title>
<g id="a_edge58"><a xlink:title="include">
<path fill="none" stroke="#1414ce" d="M977,-575.95C977,-549.29 977,-496.11 977,-451 977,-451 977,-451 977,-305 977,-262.21 998.39,-216.48 1013.99,-188.82"/>
<polygon fill="#1414ce" stroke="#1414ce" points="1017.02,-190.56 1019.02,-180.16 1010.97,-187.05 1017.02,-190.56"/>
</a>
</g>
</g>
<!-- 4&#45;&gt;29 -->
<g id="edge61" class="edge">
<title>4&#45;&gt;29</title>
<g id="a_edge61"><a xlink:title="include">
<path fill="none" stroke="#1414ce" d="M1040.51,-591.96C1090.62,-588.19 1160.01,-576.08 1209,-540 1307.59,-467.39 1360.16,-322.09 1378.45,-261.98"/>
<polygon fill="#1414ce" stroke="#1414ce" points="1381.89,-262.69 1381.37,-252.11 1375.18,-260.71 1381.89,-262.69"/>
</a>
</g>
</g>
<!-- 4&#45;&gt;28 -->
<g id="edge57" class="edge">
<title>4&#45;&gt;28</title>
<g id="a_edge57"><a xlink:title="include">
<path fill="none" stroke="#1414ce" d="M949.22,-575.88C914.9,-552.35 861,-506.55 861,-451 861,-451 861,-451 861,-377 861,-330.74 827.76,-286.16 803.35,-259.66"/>
<polygon fill="#1414ce" stroke="#1414ce" points="805.84,-257.2 796.42,-252.36 800.76,-262.02 805.84,-257.2"/>
</a>
</g>
</g>
<!-- 15 -->
<g id="node28" class="node">
<title>15</title>
<g id="a_node28"><a xlink:title="ets.h">
<polygon fill="#ffffff" stroke="black" points="1059,-540 1005,-540 1005,-504 1059,-504 1059,-540"/>
<text text-anchor="middle" x="1032" y="-518.3" font-family="Times,serif" font-size="14.00">ets.h</text>
</a>
</g>
</g>
<!-- 4&#45;&gt;15 -->
<g id="edge55" class="edge">
<title>4&#45;&gt;15</title>
<g id="a_edge55"><a xlink:title="include">
<path fill="none" stroke="#1414ce" d="M990.6,-575.7C997.12,-567.39 1005.07,-557.28 1012.25,-548.14"/>
<polygon fill="#1414ce" stroke="#1414ce" points="1015.13,-550.13 1018.56,-540.1 1009.63,-545.81 1015.13,-550.13"/>
</a>
</g>
</g>
<!-- 19&#45;&gt;9 -->
<g id="edge62" class="edge">
<title>19&#45;&gt;9</title>
<g id="a_edge62"><a xlink:title="include">
<path fill="none" stroke="#1414ce" d="M999.82,-145.46C981.22,-135.89 957.1,-123.48 936.58,-112.92"/>
<polygon fill="#1414ce" stroke="#1414ce" points="937.93,-109.68 927.44,-108.21 934.73,-115.9 937.93,-109.68"/>
</a>
</g>
</g>
<!-- 29&#45;&gt;9 -->
<g id="edge63" class="edge">
<title>29&#45;&gt;9</title>
<g id="a_edge63"><a xlink:title="include">
<path fill="none" stroke="#1414ce" d="M1355.56,-215.97C1318.32,-195.85 1252.85,-162.76 1193,-144 1108.59,-117.54 1006.38,-103 945.97,-96.12"/>
<polygon fill="#1414ce" stroke="#1414ce" points="946.24,-92.63 935.91,-95 945.47,-99.58 946.24,-92.63"/>
</a>
</g>
</g>
<!-- 29&#45;&gt;16 -->
<g id="edge65" class="edge">
<title>29&#45;&gt;16</title>
<g id="a_edge65"><a xlink:title="include">
<path fill="none" stroke="#1414ce" d="M1336.87,-217.98C1294.05,-204.89 1232.87,-186.19 1194.05,-174.32"/>
<polygon fill="#1414ce" stroke="#1414ce" points="1194.79,-170.89 1184.21,-171.32 1192.75,-177.59 1194.79,-170.89"/>
</a>
</g>
</g>
<!-- 29&#45;&gt;5 -->
<g id="edge64" class="edge">
<title>29&#45;&gt;5</title>
<g id="a_edge64"><a xlink:title="include">
<path fill="none" stroke="#1414ce" d="M1364.74,-215.67C1339.05,-195.58 1293.82,-162.82 1250,-144 1057.15,-61.18 804.85,-31.57 702.32,-22.5"/>
<polygon fill="#1414ce" stroke="#1414ce" points="702.56,-19.01 692.3,-21.64 701.96,-25.98 702.56,-19.01"/>
</a>
</g>
</g>
<!-- 28&#45;&gt;9 -->
<g id="edge66" class="edge">
<title>28&#45;&gt;9</title>
<g id="a_edge66"><a xlink:title="include">
<path fill="none" stroke="#1414ce" d="M791.99,-215.87C812.28,-191.03 850.01,-144.85 873.46,-116.14"/>
<polygon fill="#1414ce" stroke="#1414ce" points="876.34,-118.15 879.96,-108.19 870.92,-113.72 876.34,-118.15"/>
</a>
</g>
</g>
<!-- 28&#45;&gt;24 -->
<g id="edge69" class="edge">
<title>28&#45;&gt;24</title>
<g id="a_edge69"><a xlink:title="include">
<path fill="none" stroke="#1414ce" d="M734.73,-222.52C679.41,-209.12 584.29,-186.08 530.05,-172.94"/>
<polygon fill="#1414ce" stroke="#1414ce" points="530.64,-169.48 520.1,-170.53 528.99,-176.29 530.64,-169.48"/>
</a>
</g>
</g>
<!-- 28&#45;&gt;16 -->
<g id="edge67" class="edge">
<title>28&#45;&gt;16</title>
<g id="a_edge67"><a xlink:title="include">
<path fill="none" stroke="#1414ce" d="M821.23,-218.51C824.52,-217.6 827.8,-216.75 831,-216 935.16,-191.58 963.57,-198.15 1069,-180 1085.73,-177.12 1104.18,-173.61 1119.85,-170.52"/>
<polygon fill="#1414ce" stroke="#1414ce" points="1120.57,-173.95 1129.7,-168.57 1119.21,-167.08 1120.57,-173.95"/>
</a>
</g>
</g>
<!-- 28&#45;&gt;11 -->
<g id="edge68" class="edge">
<title>28&#45;&gt;11</title>
<g id="a_edge68"><a xlink:title="include">
<path fill="none" stroke="#1414ce" d="M734.86,-227.6C671.72,-219.35 550.6,-202.2 449,-180 358.85,-160.3 256.38,-130.59 191.96,-110.99"/>
<polygon fill="#1414ce" stroke="#1414ce" points="192.94,-107.63 182.35,-108.06 190.89,-114.32 192.94,-107.63"/>
</a>
</g>
</g>
<!-- 15&#45;&gt;17 -->
<g id="edge71" class="edge">
<title>15&#45;&gt;17</title>
<g id="a_edge71"><a xlink:title="include">
<path fill="none" stroke="#1414ce" d="M1034.6,-503.97C1040.58,-465.38 1056.09,-368.39 1073,-288 1074.78,-279.53 1076.95,-270.35 1079,-262.05"/>
<polygon fill="#1414ce" stroke="#1414ce" points="1082.45,-262.67 1081.5,-252.12 1075.66,-260.96 1082.45,-262.67"/>
</a>
</g>
</g>
<!-- 15&#45;&gt;16 -->
<g id="edge70" class="edge">
<title>15&#45;&gt;16</title>
<g id="a_edge70"><a xlink:title="include">
<path fill="none" stroke="#1414ce" d="M1043.61,-503.75C1070.6,-462.48 1136.99,-353.91 1160,-252 1164.59,-231.67 1163.51,-208.08 1161.47,-190.29"/>
<polygon fill="#1414ce" stroke="#1414ce" points="1164.93,-189.76 1160.15,-180.3 1157.99,-190.68 1164.93,-189.76"/>
</a>
</g>
</g>
<!-- 15&#45;&gt;20 -->
<g id="edge72" class="edge">
<title>15&#45;&gt;20</title>
<g id="a_edge72"><a xlink:title="include">
<path fill="none" stroke="#1414ce" d="M1004.7,-517.04C924.58,-505.4 689.6,-471.27 592.61,-457.19"/>
<polygon fill="#1414ce" stroke="#1414ce" points="592.98,-453.7 582.58,-455.73 591.97,-460.63 592.98,-453.7"/>
</a>
</g>
</g>
</g>
</svg>
