<?xml version="1.0" encoding="UTF-8" standalone="no"?>
<!DOCTYPE svg PUBLIC "-//W3C//DTD SVG 1.1//EN"
 "http://www.w3.org/Graphics/SVG/1.1/DTD/svg11.dtd">
<!-- Generated by graphviz version 2.43.0 (0)
 -->
<!-- Title: %3 Pages: 1 -->
<svg width="1410pt" height="404pt"
 viewBox="0.00 0.00 1409.50 404.00" xmlns="http://www.w3.org/2000/svg" xmlns:xlink="http://www.w3.org/1999/xlink">
<g id="graph0" class="graph" transform="scale(1 1) rotate(0) translate(4 400)">
<title>%3</title>
<polygon fill="transparent" stroke="transparent" points="-4,4 -4,-400 1405.5,-400 1405.5,4 -4,4"/>
<!-- 22 -->
<g id="node1" class="node">
<title>22</title>
<g id="a_node1"><a xlink:title="SpinLock">
<polygon fill="#ffffff" stroke="black" points="1272,-324 1190,-324 1190,-288 1272,-288 1272,-324"/>
<text text-anchor="middle" x="1231" y="-302.3" font-family="Times,serif" font-size="14.00">SpinLock</text>
</a>
</g>
</g>
<!-- 3 -->
<g id="node2" class="node">
<title>3</title>
<g id="a_node2"><a xlink:title="ResourceType">
<polygon fill="#ffffff" stroke="black" points="365.5,-180 248.5,-180 248.5,-144 365.5,-144 365.5,-180"/>
<text text-anchor="middle" x="307" y="-158.3" font-family="Times,serif" font-size="14.00">ResourceType</text>
</a>
</g>
</g>
<!-- 5 -->
<g id="node4" class="node">
<title>5</title>
<g id="a_node4"><a xlink:title="ListHead">
<polygon fill="#ffffff" stroke="black" points="501.5,-36 420.5,-36 420.5,0 501.5,0 501.5,-36"/>
<text text-anchor="middle" x="461" y="-14.3" font-family="Times,serif" font-size="14.00">ListHead</text>
</a>
</g>
</g>
<!-- 3&#45;&gt;5 -->
<g id="edge3" class="edge">
<title>3&#45;&gt;5</title>
<g id="a_edge3"><a xlink:title="usage">
<path fill="none" stroke="#1414ce" d="M318.57,-143.95C331.95,-125.01 355.32,-94.16 380,-72 392.51,-60.76 407.62,-50.21 421.39,-41.53"/>
<polygon fill="#1414ce" stroke="#1414ce" points="423.52,-44.33 430.19,-36.1 419.84,-38.37 423.52,-44.33"/>
</a>
</g>
</g>
<!-- 6 -->
<g id="node7" class="node">
<title>6</title>
<g id="a_node7"><a xlink:title="GlobalContext">
<polygon fill="#ffffff" stroke="black" points="879.5,-396 760.5,-396 760.5,-360 879.5,-360 879.5,-396"/>
<text text-anchor="middle" x="820" y="-374.3" font-family="Times,serif" font-size="14.00">GlobalContext</text>
</a>
</g>
</g>
<!-- 3&#45;&gt;6 -->
<g id="edge2" class="edge">
<title>3&#45;&gt;6</title>
<g id="a_edge2"><a xlink:title="usage">
<path fill="none" stroke="#1414ce" d="M273.64,-180.14C260.29,-188.91 246.36,-200.94 239,-216 217.8,-259.4 215.64,-291.11 251,-324 286.89,-357.39 606.48,-370.81 750.35,-375.2"/>
<polygon fill="#1414ce" stroke="#1414ce" points="750.3,-378.7 760.4,-375.5 750.51,-371.7 750.3,-378.7"/>
</a>
</g>
</g>
<!-- 4 -->
<g id="node21" class="node">
<title>4</title>
<g id="a_node21"><a xlink:title="SyncList">
<polygon fill="#ffffff" stroke="black" points="500,-108 422,-108 422,-72 500,-72 500,-108"/>
<text text-anchor="middle" x="461" y="-86.3" font-family="Times,serif" font-size="14.00">SyncList</text>
</a>
</g>
</g>
<!-- 3&#45;&gt;4 -->
<g id="edge1" class="edge">
<title>3&#45;&gt;4</title>
<g id="a_edge1"><a xlink:title="usage">
<path fill="none" stroke="#1414ce" d="M344.67,-143.88C365.63,-134.35 391.9,-122.41 414.18,-112.28"/>
<polygon fill="#1414ce" stroke="#1414ce" points="415.79,-115.39 423.45,-108.07 412.9,-109.02 415.79,-115.39"/>
</a>
</g>
</g>
<!-- 17 -->
<g id="node3" class="node">
<title>17</title>
<g id="a_node3"><a xlink:title="Module">
<polygon fill="#ffffff" stroke="black" points="722,-324 652,-324 652,-288 722,-288 722,-324"/>
<text text-anchor="middle" x="687" y="-302.3" font-family="Times,serif" font-size="14.00">Module</text>
</a>
</g>
</g>
<!-- 17&#45;&gt;5 -->
<g id="edge6" class="edge">
<title>17&#45;&gt;5</title>
<g id="a_edge6"><a xlink:title="usage">
<path fill="none" stroke="#1414ce" d="M651.98,-303.13C616.59,-299.22 563.22,-287.4 535,-252 504.9,-214.23 530.28,-191.74 523,-144 518.08,-111.77 523.59,-101.15 509,-72 503.81,-61.63 496.02,-51.77 488.21,-43.43"/>
<polygon fill="#1414ce" stroke="#1414ce" points="490.63,-40.9 481.12,-36.23 485.64,-45.81 490.63,-40.9"/>
</a>
</g>
</g>
<!-- 19 -->
<g id="node11" class="node">
<title>19</title>
<g id="a_node11"><a xlink:title="LiteralEntry">
<polygon fill="#ffffff" stroke="black" points="812,-252 708,-252 708,-216 812,-216 812,-252"/>
<text text-anchor="middle" x="760" y="-230.3" font-family="Times,serif" font-size="14.00">LiteralEntry</text>
</a>
</g>
</g>
<!-- 17&#45;&gt;19 -->
<g id="edge5" class="edge">
<title>17&#45;&gt;19</title>
<g id="a_edge5"><a xlink:title="usage">
<path fill="none" stroke="#1414ce" d="M705.04,-287.7C714.06,-279.05 725.12,-268.45 734.94,-259.03"/>
<polygon fill="#1414ce" stroke="#1414ce" points="737.37,-261.55 742.16,-252.1 732.52,-256.5 737.37,-261.55"/>
</a>
</g>
</g>
<!-- 18 -->
<g id="node20" class="node">
<title>18</title>
<g id="a_node20"><a xlink:title="ExportedFunction">
<polygon fill="#ffffff" stroke="black" points="690,-252 544,-252 544,-216 690,-216 690,-252"/>
<text text-anchor="middle" x="617" y="-230.3" font-family="Times,serif" font-size="14.00">ExportedFunction</text>
</a>
</g>
</g>
<!-- 17&#45;&gt;18 -->
<g id="edge4" class="edge">
<title>17&#45;&gt;18</title>
<g id="a_edge4"><a xlink:title="usage">
<path fill="none" stroke="#1414ce" d="M669.7,-287.7C661.14,-279.14 650.66,-268.66 641.3,-259.3"/>
<polygon fill="#1414ce" stroke="#1414ce" points="643.65,-256.7 634.1,-252.1 638.7,-261.65 643.65,-256.7"/>
</a>
</g>
</g>
<!-- 5&#45;&gt;5 -->
<g id="edge7" class="edge">
<title>5&#45;&gt;5</title>
<g id="a_edge7"><a xlink:title="usage">
<path fill="none" stroke="#1414ce" d="M501.73,-31.31C511.9,-30.38 519.5,-25.95 519.5,-18 519.5,-12.91 516.38,-9.26 511.47,-7.05"/>
<polygon fill="#1414ce" stroke="#1414ce" points="512.28,-3.64 501.73,-4.69 510.63,-10.45 512.28,-3.64"/>
</a>
</g>
</g>
<!-- 13 -->
<g id="node5" class="node">
<title>13</title>
<g id="a_node5"><a xlink:title="HeapFragment">
<polygon fill="#ffffff" stroke="black" points="1235.5,-36 1110.5,-36 1110.5,0 1235.5,0 1235.5,-36"/>
<text text-anchor="middle" x="1173" y="-14.3" font-family="Times,serif" font-size="14.00">HeapFragment</text>
</a>
</g>
</g>
<!-- 13&#45;&gt;13 -->
<g id="edge8" class="edge">
<title>13&#45;&gt;13</title>
<g id="a_edge8"><a xlink:title="usage">
<path fill="none" stroke="#1414ce" d="M1235.78,-30.55C1246.26,-28.79 1253.5,-24.61 1253.5,-18 1253.5,-13.77 1250.53,-10.53 1245.64,-8.29"/>
<polygon fill="#1414ce" stroke="#1414ce" points="1246.36,-4.85 1235.78,-5.45 1244.42,-11.58 1246.36,-4.85"/>
</a>
</g>
</g>
<!-- 15 -->
<g id="node6" class="node">
<title>15</title>
<g id="a_node6"><a xlink:title="RefcBinaryQueueItem">
<polygon fill="#ffffff" stroke="black" points="174,-324 0,-324 0,-288 174,-288 174,-324"/>
<text text-anchor="middle" x="87" y="-302.3" font-family="Times,serif" font-size="14.00">RefcBinaryQueueItem</text>
</a>
</g>
</g>
<!-- 15&#45;&gt;15 -->
<g id="edge10" class="edge">
<title>15&#45;&gt;15</title>
<g id="a_edge10"><a xlink:title="usage">
<path fill="none" stroke="#1414ce" d="M174.3,-317.68C184.99,-315.59 192,-311.7 192,-306 192,-302.35 189.12,-299.44 184.25,-297.27"/>
<polygon fill="#1414ce" stroke="#1414ce" points="184.88,-293.81 174.3,-294.32 182.89,-300.52 184.88,-293.81"/>
</a>
</g>
</g>
<!-- 16 -->
<g id="node16" class="node">
<title>16</title>
<g id="a_node16"><a xlink:title="RefcBinary">
<polygon fill="#ffffff" stroke="black" points="191.5,-252 96.5,-252 96.5,-216 191.5,-216 191.5,-252"/>
<text text-anchor="middle" x="144" y="-230.3" font-family="Times,serif" font-size="14.00">RefcBinary</text>
</a>
</g>
</g>
<!-- 15&#45;&gt;16 -->
<g id="edge9" class="edge">
<title>15&#45;&gt;16</title>
<g id="a_edge9"><a xlink:title="usage">
<path fill="none" stroke="#1414ce" d="M101.09,-287.7C107.92,-279.3 116.26,-269.07 123.76,-259.86"/>
<polygon fill="#1414ce" stroke="#1414ce" points="126.47,-262.07 130.07,-252.1 121.04,-257.65 126.47,-262.07"/>
</a>
</g>
</g>
<!-- 6&#45;&gt;22 -->
<g id="edge19" class="edge">
<title>6&#45;&gt;22</title>
<g id="a_edge19"><a xlink:title="usage">
<path fill="none" stroke="#1414ce" d="M879.73,-371.59C949.73,-364.51 1069.21,-350.1 1179.97,-324"/>
<polygon fill="#1414ce" stroke="#1414ce" points="1181.06,-327.34 1189.97,-321.61 1179.43,-320.53 1181.06,-327.34"/>
</a>
</g>
</g>
<!-- 6&#45;&gt;17 -->
<g id="edge16" class="edge">
<title>6&#45;&gt;17</title>
<g id="a_edge16"><a xlink:title="usage">
<path fill="none" stroke="#1414ce" d="M787.46,-359.88C769.75,-350.55 747.65,-338.92 728.68,-328.94"/>
<polygon fill="#1414ce" stroke="#1414ce" points="730.14,-325.75 719.66,-324.19 726.88,-331.94 730.14,-325.75"/>
</a>
</g>
</g>
<!-- 6&#45;&gt;5 -->
<g id="edge20" class="edge">
<title>6&#45;&gt;5</title>
<g id="a_edge20"><a xlink:title="usage">
<path fill="none" stroke="#1414ce" d="M879.76,-369.28C935.12,-360.9 1011.97,-345.74 1033,-324 1061.12,-294.92 1052,-275.45 1052,-235 1052,-235 1052,-235 1052,-161 1052,-50.33 655.25,-25.69 511.9,-20.39"/>
<polygon fill="#1414ce" stroke="#1414ce" points="511.74,-16.89 501.62,-20.03 511.49,-23.88 511.74,-16.89"/>
</a>
</g>
</g>
<!-- 6&#45;&gt;15 -->
<g id="edge14" class="edge">
<title>6&#45;&gt;15</title>
<g id="a_edge14"><a xlink:title="usage">
<path fill="none" stroke="#1414ce" d="M760.19,-372.95C650.26,-365.26 408.77,-347.22 206,-324 198.87,-323.18 191.51,-322.28 184.11,-321.33"/>
<polygon fill="#1414ce" stroke="#1414ce" points="184.39,-317.83 174.02,-320 183.48,-324.77 184.39,-317.83"/>
</a>
</g>
</g>
<!-- 7 -->
<g id="node8" class="node">
<title>7</title>
<g id="a_node8"><a xlink:title="Ets">
<polygon fill="#ffffff" stroke="black" points="514,-180 460,-180 460,-144 514,-144 514,-180"/>
<text text-anchor="middle" x="487" y="-158.3" font-family="Times,serif" font-size="14.00">Ets</text>
</a>
</g>
</g>
<!-- 6&#45;&gt;7 -->
<g id="edge11" class="edge">
<title>6&#45;&gt;7</title>
<g id="a_edge11"><a xlink:title="usage">
<path fill="none" stroke="#1414ce" d="M760.21,-372.16C686.22,-362.66 562.61,-334.63 502,-252 489,-234.28 485.74,-209.26 485.46,-190.26"/>
<polygon fill="#1414ce" stroke="#1414ce" points="488.96,-190.18 485.57,-180.14 481.96,-190.1 488.96,-190.18"/>
</a>
</g>
</g>
<!-- 21 -->
<g id="node10" class="node">
<title>21</title>
<g id="a_node10"><a xlink:title="TimerList">
<polygon fill="#ffffff" stroke="black" points="770,-108 684,-108 684,-72 770,-72 770,-108"/>
<text text-anchor="middle" x="727" y="-86.3" font-family="Times,serif" font-size="14.00">TimerList</text>
</a>
</g>
</g>
<!-- 6&#45;&gt;21 -->
<g id="edge18" class="edge">
<title>6&#45;&gt;21</title>
<g id="a_edge18"><a xlink:title="usage">
<path fill="none" stroke="#1414ce" d="M823.61,-359.99C829.22,-329.98 837.74,-266.11 821,-216 807.65,-176.03 775.94,-138.58 753.03,-115.29"/>
<polygon fill="#1414ce" stroke="#1414ce" points="755.5,-112.8 745.94,-108.24 750.56,-117.77 755.5,-112.8"/>
</a>
</g>
</g>
<!-- 8 -->
<g id="node14" class="node">
<title>8</title>
<g id="a_node14"><a xlink:title="MessageQueueItem">
<polygon fill="#ffffff" stroke="black" points="1006,-324 848,-324 848,-288 1006,-288 1006,-324"/>
<text text-anchor="middle" x="927" y="-302.3" font-family="Times,serif" font-size="14.00">MessageQueueItem</text>
</a>
</g>
</g>
<!-- 6&#45;&gt;8 -->
<g id="edge12" class="edge">
<title>6&#45;&gt;8</title>
<g id="a_edge12"><a xlink:title="usage">
<path fill="none" stroke="#1414ce" d="M846.18,-359.88C860.04,-350.81 877.24,-339.55 892.21,-329.76"/>
<polygon fill="#1414ce" stroke="#1414ce" points="894.27,-332.59 900.72,-324.19 890.44,-326.74 894.27,-332.59"/>
</a>
</g>
</g>
<!-- 20 -->
<g id="node15" class="node">
<title>20</title>
<g id="a_node15"><a xlink:title="AtomsHashTable">
<polygon fill="#ffffff" stroke="black" points="1401.5,-252 1264.5,-252 1264.5,-216 1401.5,-216 1401.5,-252"/>
<text text-anchor="middle" x="1333" y="-230.3" font-family="Times,serif" font-size="14.00">AtomsHashTable</text>
</a>
</g>
</g>
<!-- 6&#45;&gt;20 -->
<g id="edge17" class="edge">
<title>6&#45;&gt;20</title>
<g id="a_edge17"><a xlink:title="usage">
<path fill="none" stroke="#1414ce" d="M879.89,-376.64C989.3,-374.95 1216.23,-366.27 1281,-324 1303.15,-309.54 1317.06,-282.11 1324.86,-261.5"/>
<polygon fill="#1414ce" stroke="#1414ce" points="1328.17,-262.62 1328.2,-252.02 1321.57,-260.29 1328.17,-262.62"/>
</a>
</g>
</g>
<!-- 10 -->
<g id="node19" class="node">
<title>10</title>
<g id="a_node19"><a xlink:title="AtomTable">
<polygon fill="#ffffff" stroke="black" points="1172,-324 1080,-324 1080,-288 1172,-288 1172,-324"/>
<text text-anchor="middle" x="1126" y="-302.3" font-family="Times,serif" font-size="14.00">AtomTable</text>
</a>
</g>
</g>
<!-- 6&#45;&gt;10 -->
<g id="edge13" class="edge">
<title>6&#45;&gt;10</title>
<g id="a_edge13"><a xlink:title="usage">
<path fill="none" stroke="#1414ce" d="M879.65,-365.26C929.62,-355.16 1002.73,-339.76 1066,-324 1067.27,-323.68 1068.55,-323.36 1069.85,-323.03"/>
<polygon fill="#1414ce" stroke="#1414ce" points="1071.11,-326.31 1079.89,-320.39 1069.33,-319.55 1071.11,-326.31"/>
</a>
</g>
</g>
<!-- 6&#45;&gt;4 -->
<g id="edge15" class="edge">
<title>6&#45;&gt;4</title>
<g id="a_edge15"><a xlink:title="usage">
<path fill="none" stroke="#1414ce" d="M760.24,-371.31C687.72,-363.48 570.59,-347.63 534,-324 471.95,-283.92 466.75,-252.17 451,-180 446.55,-159.62 449.51,-136.16 453.34,-118.44"/>
<polygon fill="#1414ce" stroke="#1414ce" points="456.86,-118.77 455.77,-108.23 450.05,-117.15 456.86,-118.77"/>
</a>
</g>
</g>
<!-- 7&#45;&gt;4 -->
<g id="edge21" class="edge">
<title>7&#45;&gt;4</title>
<g id="a_edge21"><a xlink:title="usage">
<path fill="none" stroke="#1414ce" d="M480.57,-143.7C477.64,-135.81 474.11,-126.3 470.86,-117.55"/>
<polygon fill="#1414ce" stroke="#1414ce" points="474.12,-116.26 467.35,-108.1 467.55,-118.7 474.12,-116.26"/>
</a>
</g>
</g>
<!-- 14 -->
<g id="node9" class="node">
<title>14</title>
<g id="a_node9"><a xlink:title="HNodeGroup">
<polygon fill="#ffffff" stroke="black" points="1228,-252 1118,-252 1118,-216 1228,-216 1228,-252"/>
<text text-anchor="middle" x="1173" y="-230.3" font-family="Times,serif" font-size="14.00">HNodeGroup</text>
</a>
</g>
</g>
<!-- 14&#45;&gt;14 -->
<g id="edge23" class="edge">
<title>14&#45;&gt;14</title>
<g id="a_edge23"><a xlink:title="usage">
<path fill="none" stroke="#1414ce" d="M1228.07,-246.85C1238.57,-245.32 1246,-241.03 1246,-234 1246,-229.5 1242.95,-226.12 1238,-223.87"/>
<polygon fill="#1414ce" stroke="#1414ce" points="1238.64,-220.42 1228.07,-221.15 1236.79,-227.17 1238.64,-220.42"/>
</a>
</g>
</g>
<!-- 11 -->
<g id="node22" class="node">
<title>11</title>
<g id="a_node22"><a xlink:title="HNode">
<polygon fill="#ffffff" stroke="black" points="1206,-180 1140,-180 1140,-144 1206,-144 1206,-180"/>
<text text-anchor="middle" x="1173" y="-158.3" font-family="Times,serif" font-size="14.00">HNode</text>
</a>
</g>
</g>
<!-- 14&#45;&gt;11 -->
<g id="edge22" class="edge">
<title>14&#45;&gt;11</title>
<g id="a_edge22"><a xlink:title="usage">
<path fill="none" stroke="#1414ce" d="M1173,-215.7C1173,-207.98 1173,-198.71 1173,-190.11"/>
<polygon fill="#1414ce" stroke="#1414ce" points="1176.5,-190.1 1173,-180.1 1169.5,-190.1 1176.5,-190.1"/>
</a>
</g>
</g>
<!-- 21&#45;&gt;5 -->
<g id="edge24" class="edge">
<title>21&#45;&gt;5</title>
<g id="a_edge24"><a xlink:title="usage">
<path fill="none" stroke="#1414ce" d="M683.97,-77.68C636.92,-65.29 561.6,-45.47 511.72,-32.35"/>
<polygon fill="#1414ce" stroke="#1414ce" points="512.35,-28.89 501.79,-29.73 510.57,-35.66 512.35,-28.89"/>
</a>
</g>
</g>
<!-- 9 -->
<g id="node12" class="node">
<title>9</title>
<g id="a_node12"><a xlink:title="MailboxMessage">
<polygon fill="#ffffff" stroke="black" points="1005.5,-252 868.5,-252 868.5,-216 1005.5,-216 1005.5,-252"/>
<text text-anchor="middle" x="937" y="-230.3" font-family="Times,serif" font-size="14.00">MailboxMessage</text>
</a>
</g>
</g>
<!-- 9&#45;&gt;9 -->
<g id="edge25" class="edge">
<title>9&#45;&gt;9</title>
<g id="a_edge25"><a xlink:title="usage">
<path fill="none" stroke="#1414ce" d="M1005.53,-246.37C1016.21,-244.52 1023.5,-240.4 1023.5,-234 1023.5,-229.8 1020.36,-226.58 1015.18,-224.34"/>
<polygon fill="#1414ce" stroke="#1414ce" points="1016.1,-220.96 1005.53,-221.63 1014.21,-227.7 1016.1,-220.96"/>
</a>
</g>
</g>
<!-- 12 -->
<g id="node13" class="node">
<title>12</title>
<g id="a_node13"><a xlink:title="Heap">
<polygon fill="#ffffff" stroke="black" points="1200,-108 1146,-108 1146,-72 1200,-72 1200,-108"/>
<text text-anchor="middle" x="1173" y="-86.3" font-family="Times,serif" font-size="14.00">Heap</text>
</a>
</g>
</g>
<!-- 12&#45;&gt;13 -->
<g id="edge26" class="edge">
<title>12&#45;&gt;13</title>
<g id="a_edge26"><a xlink:title="usage">
<path fill="none" stroke="#1414ce" d="M1173,-71.7C1173,-63.98 1173,-54.71 1173,-46.11"/>
<polygon fill="#1414ce" stroke="#1414ce" points="1176.5,-46.1 1173,-36.1 1169.5,-46.1 1176.5,-46.1"/>
</a>
</g>
</g>
<!-- 8&#45;&gt;9 -->
<g id="edge27" class="edge">
<title>8&#45;&gt;9</title>
<g id="a_edge27"><a xlink:title="usage">
<path fill="none" stroke="#1414ce" d="M929.47,-287.7C930.57,-279.98 931.9,-270.71 933.13,-262.11"/>
<polygon fill="#1414ce" stroke="#1414ce" points="936.61,-262.5 934.56,-252.1 929.68,-261.51 936.61,-262.5"/>
</a>
</g>
</g>
<!-- 8&#45;&gt;8 -->
<g id="edge28" class="edge">
<title>8&#45;&gt;8</title>
<g id="a_edge28"><a xlink:title="usage">
<path fill="none" stroke="#1414ce" d="M1006.16,-317.98C1016.87,-315.97 1024,-311.98 1024,-306 1024,-302.08 1020.93,-299.01 1015.79,-296.8"/>
<polygon fill="#1414ce" stroke="#1414ce" points="1016.74,-293.43 1006.16,-294.02 1014.8,-300.15 1016.74,-293.43"/>
</a>
</g>
</g>
<!-- 20&#45;&gt;11 -->
<g id="edge29" class="edge">
<title>20&#45;&gt;11</title>
<g id="a_edge29"><a xlink:title="usage">
<path fill="none" stroke="#1414ce" d="M1293.86,-215.88C1270.09,-205.48 1239.75,-192.2 1215.41,-181.55"/>
<polygon fill="#1414ce" stroke="#1414ce" points="1216.63,-178.27 1206.07,-177.47 1213.83,-184.68 1216.63,-178.27"/>
</a>
</g>
</g>
<!-- 16&#45;&gt;3 -->
<g id="edge30" class="edge">
<title>16&#45;&gt;3</title>
<g id="a_edge30"><a xlink:title="usage">
<path fill="none" stroke="#1414ce" d="M183.87,-215.88C206.16,-206.31 234.12,-194.3 257.76,-184.15"/>
<polygon fill="#1414ce" stroke="#1414ce" points="259.45,-187.23 267.26,-180.07 256.69,-180.8 259.45,-187.23"/>
</a>
</g>
</g>
<!-- 16&#45;&gt;5 -->
<g id="edge31" class="edge">
<title>16&#45;&gt;5</title>
<g id="a_edge31"><a xlink:title="usage">
<path fill="none" stroke="#1414ce" d="M160.8,-215.77C179.25,-197.21 210.11,-167.22 239,-144 283.11,-108.56 294.71,-99.78 344,-72 365.31,-59.99 389.84,-48.54 410.92,-39.38"/>
<polygon fill="#1414ce" stroke="#1414ce" points="412.53,-42.49 420.34,-35.33 409.77,-36.06 412.53,-42.49"/>
</a>
</g>
</g>
<!-- 2 -->
<g id="node17" class="node">
<title>2</title>
<g id="a_node17"><a xlink:title="ErlNifMonitor">
<polygon fill="#ffffff" stroke="black" points="365.5,-252 248.5,-252 248.5,-216 365.5,-216 365.5,-252"/>
<text text-anchor="middle" x="307" y="-230.3" font-family="Times,serif" font-size="14.00">ErlNifMonitor</text>
</a>
</g>
</g>
<!-- 2&#45;&gt;3 -->
<g id="edge32" class="edge">
<title>2&#45;&gt;3</title>
<g id="a_edge32"><a xlink:title="usage">
<path fill="none" stroke="#1414ce" d="M307,-215.7C307,-207.98 307,-198.71 307,-190.11"/>
<polygon fill="#1414ce" stroke="#1414ce" points="310.5,-190.1 307,-180.1 303.5,-190.1 310.5,-190.1"/>
</a>
</g>
</g>
<!-- 1 -->
<g id="node18" class="node">
<title>1</title>
<g id="a_node18"><a xlink:title="SocketResource">
<polygon fill="#bfbfbf" stroke="black" points="391.5,-324 260.5,-324 260.5,-288 391.5,-288 391.5,-324"/>
<text text-anchor="middle" x="326" y="-302.3" font-family="Times,serif" font-size="14.00">SocketResource</text>
</a>
</g>
</g>
<!-- 1&#45;&gt;5 -->
<g id="edge34" class="edge">
<title>1&#45;&gt;5</title>
<g id="a_edge34"><a xlink:title="usage">
<path fill="none" stroke="#1414ce" d="M346,-287.71C355.85,-278.14 367.08,-265.47 374,-252 411.41,-179.19 375.59,-144.81 413,-72 418.3,-61.69 426.12,-51.84 433.92,-43.5"/>
<polygon fill="#1414ce" stroke="#1414ce" points="436.49,-45.88 441,-36.29 431.5,-40.97 436.49,-45.88"/>
</a>
</g>
</g>
<!-- 1&#45;&gt;2 -->
<g id="edge33" class="edge">
<title>1&#45;&gt;2</title>
<g id="a_edge33"><a xlink:title="usage">
<path fill="none" stroke="#1414ce" d="M321.3,-287.7C319.19,-279.9 316.64,-270.51 314.28,-261.83"/>
<polygon fill="#1414ce" stroke="#1414ce" points="317.64,-260.84 311.64,-252.1 310.88,-262.67 317.64,-260.84"/>
</a>
</g>
</g>
<!-- 10&#45;&gt;14 -->
<g id="edge36" class="edge">
<title>10&#45;&gt;14</title>
<g id="a_edge36"><a xlink:title="usage">
<path fill="none" stroke="#1414ce" d="M1137.62,-287.7C1143.14,-279.47 1149.85,-269.48 1155.93,-260.42"/>
<polygon fill="#1414ce" stroke="#1414ce" points="1158.85,-262.36 1161.52,-252.1 1153.04,-258.46 1158.85,-262.36"/>
</a>
</g>
</g>
<!-- 10&#45;&gt;11 -->
<g id="edge35" class="edge">
<title>10&#45;&gt;11</title>
<g id="a_edge35"><a xlink:title="usage">
<path fill="none" stroke="#1414ce" d="M1116.74,-287.82C1108.09,-269.31 1098.02,-239.35 1109,-216 1114.52,-204.26 1124.07,-194.22 1134.12,-186.15"/>
<polygon fill="#1414ce" stroke="#1414ce" points="1136.31,-188.88 1142.23,-180.09 1132.12,-183.27 1136.31,-188.88"/>
</a>
</g>
</g>
<!-- 4&#45;&gt;5 -->
<g id="edge37" class="edge">
<title>4&#45;&gt;5</title>
<g id="a_edge37"><a xlink:title="usage">
<path fill="none" stroke="#1414ce" d="M461,-71.7C461,-63.98 461,-54.71 461,-46.11"/>
<polygon fill="#1414ce" stroke="#1414ce" points="464.5,-46.1 461,-36.1 457.5,-46.1 464.5,-46.1"/>
</a>
</g>
</g>
<!-- 11&#45;&gt;12 -->
<g id="edge39" class="edge">
<title>11&#45;&gt;12</title>
<g id="a_edge39"><a xlink:title="usage">
<path fill="none" stroke="#1414ce" d="M1173,-143.7C1173,-135.98 1173,-126.71 1173,-118.11"/>
<polygon fill="#1414ce" stroke="#1414ce" points="1176.5,-118.1 1173,-108.1 1169.5,-118.1 1176.5,-118.1"/>
</a>
</g>
</g>
<!-- 11&#45;&gt;11 -->
<g id="edge38" class="edge">
<title>11&#45;&gt;11</title>
<g id="a_edge38"><a xlink:title="usage">
<path fill="none" stroke="#1414ce" d="M1206.35,-175.47C1216.28,-175.07 1224,-170.58 1224,-162 1224,-156.64 1220.98,-152.87 1216.3,-150.71"/>
<polygon fill="#1414ce" stroke="#1414ce" points="1216.87,-147.25 1206.35,-148.53 1215.37,-154.09 1216.87,-147.25"/>
</a>
</g>
</g>
</g>
</svg>
