<?xml version="1.0" encoding="UTF-8" standalone="no"?>
<!DOCTYPE svg PUBLIC "-//W3C//DTD SVG 1.1//EN"
 "http://www.w3.org/Graphics/SVG/1.1/DTD/svg11.dtd">
<!-- Generated by graphviz version 2.43.0 (0)
 -->
<!-- Title: %3 Pages: 1 -->
<svg width="1351pt" height="764pt"
 viewBox="0.00 0.00 1350.75 764.00" xmlns="http://www.w3.org/2000/svg" xmlns:xlink="http://www.w3.org/1999/xlink">
<g id="graph0" class="graph" transform="scale(1 1) rotate(0) translate(4 760)">
<title>%3</title>
<polygon fill="transparent" stroke="transparent" points="-4,4 -4,-760 1346.75,-760 1346.75,4 -4,4"/>
<!-- 8 -->
<g id="node1" class="node">
<title>8</title>
<g id="a_node1"><a xlink:title="stdbool.h">
<polygon fill="#ffffff" stroke="black" points="965,-108 882,-108 882,-72 965,-72 965,-108"/>
<text text-anchor="middle" x="923.5" y="-86.3" font-family="Times,serif" font-size="14.00">stdbool.h</text>
</a>
</g>
</g>
<!-- 25 -->
<g id="node2" class="node">
<title>25</title>
<g id="a_node2"><a xlink:title="refc_binary.h">
<polygon fill="#ffffff" stroke="black" points="608.5,-396 500.5,-396 500.5,-360 608.5,-360 608.5,-396"/>
<text text-anchor="middle" x="554.5" y="-374.3" font-family="Times,serif" font-size="14.00">refc_binary.h</text>
</a>
</g>
</g>
<!-- 25&#45;&gt;8 -->
<g id="edge1" class="edge">
<title>25&#45;&gt;8</title>
<g id="a_edge1"><a xlink:title="include">
<path fill="none" stroke="#1414ce" d="M595.69,-359.86C612.6,-351.16 631.28,-339.18 644.5,-324 678.66,-284.79 655.72,-255.54 689.5,-216 729.16,-169.58 752.58,-172.65 806.5,-144 827.93,-132.61 852.29,-121.33 873.2,-112.12"/>
<polygon fill="#1414ce" stroke="#1414ce" points="874.79,-115.24 882.55,-108.04 871.99,-108.83 874.79,-115.24"/>
</a>
</g>
</g>
<!-- 15 -->
<g id="node7" class="node">
<title>15</title>
<g id="a_node7"><a xlink:title="list.h">
<polygon fill="#ffffff" stroke="black" points="950.5,-180 896.5,-180 896.5,-144 950.5,-144 950.5,-180"/>
<text text-anchor="middle" x="923.5" y="-158.3" font-family="Times,serif" font-size="14.00">list.h</text>
</a>
</g>
</g>
<!-- 25&#45;&gt;15 -->
<g id="edge3" class="edge">
<title>25&#45;&gt;15</title>
<g id="a_edge3"><a xlink:title="include">
<path fill="none" stroke="#1414ce" d="M605.61,-360C662.92,-339.54 757.16,-301.67 828.5,-252 855.56,-233.16 882.63,-206.89 900.91,-187.77"/>
<polygon fill="#1414ce" stroke="#1414ce" points="903.63,-189.99 907.95,-180.32 898.54,-185.19 903.63,-189.99"/>
</a>
</g>
</g>
<!-- 6 -->
<g id="node9" class="node">
<title>6</title>
<g id="a_node9"><a xlink:title="stdlib.h">
<polygon fill="#ffffff" stroke="black" points="523,-108 452,-108 452,-72 523,-72 523,-108"/>
<text text-anchor="middle" x="487.5" y="-86.3" font-family="Times,serif" font-size="14.00">stdlib.h</text>
</a>
</g>
</g>
<!-- 25&#45;&gt;6 -->
<g id="edge2" class="edge">
<title>25&#45;&gt;6</title>
<g id="a_edge2"><a xlink:title="include">
<path fill="none" stroke="#1414ce" d="M561.57,-359.67C565.34,-349.47 569.59,-336.22 571.5,-324 573.97,-308.19 574.64,-303.69 571.5,-288 558.58,-223.41 523.31,-153.87 502.82,-117.16"/>
<polygon fill="#1414ce" stroke="#1414ce" points="505.68,-115.11 497.7,-108.14 499.59,-118.56 505.68,-115.11"/>
</a>
</g>
</g>
<!-- 26 -->
<g id="node12" class="node">
<title>26</title>
<g id="a_node12"><a xlink:title="resources.h">
<polygon fill="#ffffff" stroke="black" points="562.5,-324 462.5,-324 462.5,-288 562.5,-288 562.5,-324"/>
<text text-anchor="middle" x="512.5" y="-302.3" font-family="Times,serif" font-size="14.00">resources.h</text>
</a>
</g>
</g>
<!-- 25&#45;&gt;26 -->
<g id="edge4" class="edge">
<title>25&#45;&gt;26</title>
<g id="a_edge4"><a xlink:title="include">
<path fill="none" stroke="#1414ce" d="M544.12,-359.7C539.24,-351.56 533.31,-341.69 527.92,-332.7"/>
<polygon fill="#1414ce" stroke="#1414ce" points="530.91,-330.88 522.76,-324.1 524.91,-334.48 530.91,-330.88"/>
</a>
</g>
</g>
<!-- 5 -->
<g id="node3" class="node">
<title>5</title>
<g id="a_node3"><a xlink:title="atom.h">
<polygon fill="#ffffff" stroke="black" points="375.5,-180 309.5,-180 309.5,-144 375.5,-144 375.5,-180"/>
<text text-anchor="middle" x="342.5" y="-158.3" font-family="Times,serif" font-size="14.00">atom.h</text>
</a>
</g>
</g>
<!-- 4 -->
<g id="node8" class="node">
<title>4</title>
<g id="a_node8"><a xlink:title="stdint.h">
<polygon fill="#ffffff" stroke="black" points="365.5,-36 293.5,-36 293.5,0 365.5,0 365.5,-36"/>
<text text-anchor="middle" x="329.5" y="-14.3" font-family="Times,serif" font-size="14.00">stdint.h</text>
</a>
</g>
</g>
<!-- 5&#45;&gt;4 -->
<g id="edge5" class="edge">
<title>5&#45;&gt;4</title>
<g id="a_edge5"><a xlink:title="include">
<path fill="none" stroke="#1414ce" d="M340.93,-143.87C338.72,-119.67 334.65,-75.21 332.01,-46.39"/>
<polygon fill="#1414ce" stroke="#1414ce" points="335.47,-45.83 331.07,-36.19 328.5,-46.47 335.47,-45.83"/>
</a>
</g>
</g>
<!-- 5&#45;&gt;6 -->
<g id="edge6" class="edge">
<title>5&#45;&gt;6</title>
<g id="a_edge6"><a xlink:title="include">
<path fill="none" stroke="#1414ce" d="M375.77,-144.94C395.74,-135.3 421.4,-122.91 443.09,-112.44"/>
<polygon fill="#1414ce" stroke="#1414ce" points="444.63,-115.58 452.11,-108.08 441.58,-109.28 444.63,-115.58"/>
</a>
</g>
</g>
<!-- 11 -->
<g id="node4" class="node">
<title>11</title>
<g id="a_node4"><a xlink:title="assert.h">
<polygon fill="#ffffff" stroke="black" points="181.5,-36 107.5,-36 107.5,0 181.5,0 181.5,-36"/>
<text text-anchor="middle" x="144.5" y="-14.3" font-family="Times,serif" font-size="14.00">assert.h</text>
</a>
</g>
</g>
<!-- 23 -->
<g id="node5" class="node">
<title>23</title>
<g id="a_node5"><a xlink:title="utils.h">
<polygon fill="#ffffff" stroke="black" points="646.5,-180 584.5,-180 584.5,-144 646.5,-144 646.5,-180"/>
<text text-anchor="middle" x="615.5" y="-158.3" font-family="Times,serif" font-size="14.00">utils.h</text>
</a>
</g>
</g>
<!-- 23&#45;&gt;6 -->
<g id="edge9" class="edge">
<title>23&#45;&gt;6</title>
<g id="a_edge9"><a xlink:title="include">
<path fill="none" stroke="#1414ce" d="M584.19,-143.88C567.3,-134.64 546.25,-123.13 528.12,-113.21"/>
<polygon fill="#1414ce" stroke="#1414ce" points="529.39,-109.92 518.93,-108.19 526.03,-116.06 529.39,-109.92"/>
</a>
</g>
</g>
<!-- 24 -->
<g id="node14" class="node">
<title>24</title>
<g id="a_node14"><a xlink:title="stddef.h">
<polygon fill="#ffffff" stroke="black" points="637.5,-108 563.5,-108 563.5,-72 637.5,-72 637.5,-108"/>
<text text-anchor="middle" x="600.5" y="-86.3" font-family="Times,serif" font-size="14.00">stddef.h</text>
</a>
</g>
</g>
<!-- 23&#45;&gt;24 -->
<g id="edge7" class="edge">
<title>23&#45;&gt;24</title>
<g id="a_edge7"><a xlink:title="include">
<path fill="none" stroke="#1414ce" d="M611.79,-143.7C610.14,-135.98 608.15,-126.71 606.31,-118.11"/>
<polygon fill="#1414ce" stroke="#1414ce" points="609.68,-117.15 604.17,-108.1 602.84,-118.62 609.68,-117.15"/>
</a>
</g>
</g>
<!-- 17 -->
<g id="node26" class="node">
<title>17</title>
<g id="a_node26"><a xlink:title="stdio.h">
<polygon fill="#ffffff" stroke="black" points="721,-108 656,-108 656,-72 721,-72 721,-108"/>
<text text-anchor="middle" x="688.5" y="-86.3" font-family="Times,serif" font-size="14.00">stdio.h</text>
</a>
</g>
</g>
<!-- 23&#45;&gt;17 -->
<g id="edge8" class="edge">
<title>23&#45;&gt;17</title>
<g id="a_edge8"><a xlink:title="include">
<path fill="none" stroke="#1414ce" d="M633.54,-143.7C642.56,-135.05 653.62,-124.45 663.44,-115.03"/>
<polygon fill="#1414ce" stroke="#1414ce" points="665.87,-117.55 670.66,-108.1 661.02,-112.5 665.87,-117.55"/>
</a>
</g>
</g>
<!-- 16 -->
<g id="node6" class="node">
<title>16</title>
<g id="a_node6"><a xlink:title="synclist.h">
<polygon fill="#ffffff" stroke="black" points="1002,-252 917,-252 917,-216 1002,-216 1002,-252"/>
<text text-anchor="middle" x="959.5" y="-230.3" font-family="Times,serif" font-size="14.00">synclist.h</text>
</a>
</g>
</g>
<!-- 16&#45;&gt;15 -->
<g id="edge11" class="edge">
<title>16&#45;&gt;15</title>
<g id="a_edge11"><a xlink:title="include">
<path fill="none" stroke="#1414ce" d="M950.6,-215.7C946.5,-207.73 941.55,-198.1 937.01,-189.26"/>
<polygon fill="#1414ce" stroke="#1414ce" points="939.98,-187.4 932.3,-180.1 933.76,-190.6 939.98,-187.4"/>
</a>
</g>
</g>
<!-- 18 -->
<g id="node23" class="node">
<title>18</title>
<g id="a_node23"><a xlink:title="smp.h">
<polygon fill="#ffffff" stroke="black" points="1129.5,-180 1069.5,-180 1069.5,-144 1129.5,-144 1129.5,-180"/>
<text text-anchor="middle" x="1099.5" y="-158.3" font-family="Times,serif" font-size="14.00">smp.h</text>
</a>
</g>
</g>
<!-- 16&#45;&gt;18 -->
<g id="edge12" class="edge">
<title>16&#45;&gt;18</title>
<g id="a_edge12"><a xlink:title="include">
<path fill="none" stroke="#1414ce" d="M993.75,-215.88C1013.92,-205.79 1039.5,-193 1060.44,-182.53"/>
<polygon fill="#1414ce" stroke="#1414ce" points="1062.03,-185.65 1069.41,-178.05 1058.9,-179.39 1062.03,-185.65"/>
</a>
</g>
</g>
<!-- 16&#45;&gt;17 -->
<g id="edge10" class="edge">
<title>16&#45;&gt;17</title>
<g id="a_edge10"><a xlink:title="include">
<path fill="none" stroke="#1414ce" d="M926.81,-215.87C877.57,-190.07 784.39,-141.25 730.29,-112.9"/>
<polygon fill="#1414ce" stroke="#1414ce" points="731.79,-109.73 721.3,-108.19 728.54,-115.93 731.79,-109.73"/>
</a>
</g>
</g>
<!-- 15&#45;&gt;8 -->
<g id="edge13" class="edge">
<title>15&#45;&gt;8</title>
<g id="a_edge13"><a xlink:title="include">
<path fill="none" stroke="#1414ce" d="M923.5,-143.7C923.5,-135.98 923.5,-126.71 923.5,-118.11"/>
<polygon fill="#1414ce" stroke="#1414ce" points="927,-118.1 923.5,-108.1 920,-118.1 927,-118.1"/>
</a>
</g>
</g>
<!-- 2 -->
<g id="node10" class="node">
<title>2</title>
<g id="a_node10"><a xlink:title="context.h">
<polygon fill="#ffffff" stroke="black" points="1151,-684 1068,-684 1068,-648 1151,-648 1151,-684"/>
<text text-anchor="middle" x="1109.5" y="-662.3" font-family="Times,serif" font-size="14.00">context.h</text>
</a>
</g>
</g>
<!-- 2&#45;&gt;15 -->
<g id="edge15" class="edge">
<title>2&#45;&gt;15</title>
<g id="a_edge15"><a xlink:title="include">
<path fill="none" stroke="#1414ce" d="M1125.99,-647.77C1148.34,-622.53 1185.5,-573.05 1185.5,-523 1185.5,-523 1185.5,-523 1185.5,-449 1185.5,-325.11 1125.54,-297.8 1032.5,-216 1011.58,-197.6 983.14,-184.06 960.56,-175.27"/>
<polygon fill="#1414ce" stroke="#1414ce" points="961.55,-171.9 950.96,-171.68 959.1,-178.46 961.55,-171.9"/>
</a>
</g>
</g>
<!-- 19 -->
<g id="node13" class="node">
<title>19</title>
<g id="a_node13"><a xlink:title="term.h">
<polygon fill="#ffffff" stroke="black" points="587,-468 522,-468 522,-432 587,-432 587,-468"/>
<text text-anchor="middle" x="554.5" y="-446.3" font-family="Times,serif" font-size="14.00">term.h</text>
</a>
</g>
</g>
<!-- 2&#45;&gt;19 -->
<g id="edge18" class="edge">
<title>2&#45;&gt;19</title>
<g id="a_edge18"><a xlink:title="include">
<path fill="none" stroke="#1414ce" d="M1067.67,-659.28C1016.04,-651.57 925.93,-635.97 851.5,-612 776.89,-587.97 759.29,-577.58 690.5,-540 653.63,-519.86 613.65,-493.04 586.64,-474.13"/>
<polygon fill="#1414ce" stroke="#1414ce" points="588.54,-471.18 578.35,-468.28 584.5,-476.9 588.54,-471.18"/>
</a>
</g>
</g>
<!-- 3 -->
<g id="node21" class="node">
<title>3</title>
<g id="a_node21"><a xlink:title="globalcontext.h">
<polygon fill="#ffffff" stroke="black" points="987,-612 860,-612 860,-576 987,-576 987,-612"/>
<text text-anchor="middle" x="923.5" y="-590.3" font-family="Times,serif" font-size="14.00">globalcontext.h</text>
</a>
</g>
</g>
<!-- 2&#45;&gt;3 -->
<g id="edge14" class="edge">
<title>2&#45;&gt;3</title>
<g id="a_edge14"><a xlink:title="include">
<path fill="none" stroke="#1414ce" d="M1067.76,-649.29C1041.29,-639.33 1006.78,-626.34 978.15,-615.57"/>
<polygon fill="#1414ce" stroke="#1414ce" points="979.27,-612.25 968.68,-612 976.81,-618.8 979.27,-612.25"/>
</a>
</g>
</g>
<!-- 2&#45;&gt;18 -->
<g id="edge17" class="edge">
<title>2&#45;&gt;18</title>
<g id="a_edge17"><a xlink:title="include">
<path fill="none" stroke="#1414ce" d="M1151.21,-648.89C1168.43,-640.32 1187.19,-628.16 1199.5,-612 1224.33,-579.41 1223.5,-563.97 1223.5,-523 1223.5,-523 1223.5,-523 1223.5,-449 1223.5,-341.84 1218.58,-306.69 1161.5,-216 1154.42,-204.75 1144.19,-194.62 1134.08,-186.3"/>
<polygon fill="#1414ce" stroke="#1414ce" points="1136.09,-183.43 1126.05,-180.04 1131.78,-188.95 1136.09,-183.43"/>
</a>
</g>
</g>
<!-- 28 -->
<g id="node24" class="node">
<title>28</title>
<g id="a_node24"><a xlink:title="timer_list.h">
<polygon fill="#ffffff" stroke="black" points="1311.5,-252 1213.5,-252 1213.5,-216 1311.5,-216 1311.5,-252"/>
<text text-anchor="middle" x="1262.5" y="-230.3" font-family="Times,serif" font-size="14.00">timer_list.h</text>
</a>
</g>
</g>
<!-- 2&#45;&gt;28 -->
<g id="edge19" class="edge">
<title>2&#45;&gt;28</title>
<g id="a_edge19"><a xlink:title="include">
<path fill="none" stroke="#1414ce" d="M1151.14,-657.72C1179.34,-650.68 1215.36,-637.21 1237.5,-612 1264.54,-581.22 1261.5,-563.97 1261.5,-523 1261.5,-523 1261.5,-523 1261.5,-377 1261.5,-337 1261.9,-290.65 1262.2,-262.08"/>
<polygon fill="#1414ce" stroke="#1414ce" points="1265.7,-262.09 1262.3,-252.05 1258.7,-262.01 1265.7,-262.09"/>
</a>
</g>
</g>
<!-- 27 -->
<g id="node25" class="node">
<title>27</title>
<g id="a_node25"><a xlink:title="mailbox.h">
<polygon fill="#ffffff" stroke="black" points="784.5,-252 698.5,-252 698.5,-216 784.5,-216 784.5,-252"/>
<text text-anchor="middle" x="741.5" y="-230.3" font-family="Times,serif" font-size="14.00">mailbox.h</text>
</a>
</g>
</g>
<!-- 2&#45;&gt;27 -->
<g id="edge16" class="edge">
<title>2&#45;&gt;27</title>
<g id="a_edge16"><a xlink:title="include">
<path fill="none" stroke="#1414ce" d="M1101,-647.73C1085.68,-617.34 1051.55,-552.88 1014.5,-504 934.18,-398.04 905.55,-377.82 807.5,-288 796.43,-277.86 783.68,-267.36 772.35,-258.42"/>
<polygon fill="#1414ce" stroke="#1414ce" points="774.44,-255.61 764.4,-252.21 770.13,-261.12 774.44,-255.61"/>
</a>
</g>
</g>
<!-- 22 -->
<g id="node11" class="node">
<title>22</title>
<g id="a_node11"><a xlink:title="memory.h">
<polygon fill="#ffffff" stroke="black" points="324.5,-252 238.5,-252 238.5,-216 324.5,-216 324.5,-252"/>
<text text-anchor="middle" x="281.5" y="-230.3" font-family="Times,serif" font-size="14.00">memory.h</text>
</a>
</g>
</g>
<!-- 22&#45;&gt;23 -->
<g id="edge24" class="edge">
<title>22&#45;&gt;23</title>
<g id="a_edge24"><a xlink:title="include">
<path fill="none" stroke="#1414ce" d="M324.5,-218.46C327.54,-217.59 330.56,-216.75 333.5,-216 418.05,-194.33 518.96,-177.5 574.23,-169.03"/>
<polygon fill="#1414ce" stroke="#1414ce" points="574.97,-172.46 584.33,-167.5 573.92,-165.54 574.97,-172.46"/>
</a>
</g>
</g>
<!-- 22&#45;&gt;4 -->
<g id="edge20" class="edge">
<title>22&#45;&gt;4</title>
<g id="a_edge20"><a xlink:title="include">
<path fill="none" stroke="#1414ce" d="M285.05,-215.92C288.81,-197.99 294.94,-168.98 300.5,-144 308,-110.32 317.04,-71.64 323.01,-46.34"/>
<polygon fill="#1414ce" stroke="#1414ce" points="326.47,-46.91 325.37,-36.37 319.66,-45.29 326.47,-46.91"/>
</a>
</g>
</g>
<!-- 22&#45;&gt;6 -->
<g id="edge21" class="edge">
<title>22&#45;&gt;6</title>
<g id="a_edge21"><a xlink:title="include">
<path fill="none" stroke="#1414ce" d="M319.91,-215.92C339.82,-206.41 364.17,-193.73 384.5,-180 413.2,-160.62 442.8,-134.26 462.86,-115.27"/>
<polygon fill="#1414ce" stroke="#1414ce" points="465.51,-117.57 470.32,-108.13 460.67,-112.51 465.51,-117.57"/>
</a>
</g>
</g>
<!-- 9 -->
<g id="node15" class="node">
<title>9</title>
<g id="a_node15"><a xlink:title="erl_nif.h">
<polygon fill="#ffffff" stroke="black" points="169.5,-180 95.5,-180 95.5,-144 169.5,-144 169.5,-180"/>
<text text-anchor="middle" x="132.5" y="-158.3" font-family="Times,serif" font-size="14.00">erl_nif.h</text>
</a>
</g>
</g>
<!-- 22&#45;&gt;9 -->
<g id="edge22" class="edge">
<title>22&#45;&gt;9</title>
<g id="a_edge22"><a xlink:title="include">
<path fill="none" stroke="#1414ce" d="M245.05,-215.88C224.86,-206.39 199.58,-194.51 178.09,-184.42"/>
<polygon fill="#1414ce" stroke="#1414ce" points="179.37,-181.15 168.83,-180.07 176.39,-187.49 179.37,-181.15"/>
</a>
</g>
</g>
<!-- 10 -->
<g id="node20" class="node">
<title>10</title>
<g id="a_node20"><a xlink:title="term_typedef.h">
<polygon fill="#ffffff" stroke="black" points="207,-108 82,-108 82,-72 207,-72 207,-108"/>
<text text-anchor="middle" x="144.5" y="-86.3" font-family="Times,serif" font-size="14.00">term_typedef.h</text>
</a>
</g>
</g>
<!-- 22&#45;&gt;10 -->
<g id="edge23" class="edge">
<title>22&#45;&gt;10</title>
<g id="a_edge23"><a xlink:title="include">
<path fill="none" stroke="#1414ce" d="M264.97,-215.87C240.8,-190.82 195.68,-144.05 168.05,-115.41"/>
<polygon fill="#1414ce" stroke="#1414ce" points="170.55,-112.96 161.08,-108.19 165.51,-117.82 170.55,-112.96"/>
</a>
</g>
</g>
<!-- 26&#45;&gt;16 -->
<g id="edge29" class="edge">
<title>26&#45;&gt;16</title>
<g id="a_edge29"><a xlink:title="include">
<path fill="none" stroke="#1414ce" d="M562.91,-297.11C648.23,-283.74 820.28,-256.8 907,-243.22"/>
<polygon fill="#1414ce" stroke="#1414ce" points="907.55,-246.68 916.89,-241.67 906.47,-239.76 907.55,-246.68"/>
</a>
</g>
</g>
<!-- 26&#45;&gt;15 -->
<g id="edge27" class="edge">
<title>26&#45;&gt;15</title>
<g id="a_edge27"><a xlink:title="include">
<path fill="none" stroke="#1414ce" d="M562.56,-303.16C620.65,-299.34 718.1,-287.65 793.5,-252 816.03,-241.34 816.24,-230.52 836.5,-216 852.6,-204.46 871.27,-192.87 887.17,-183.48"/>
<polygon fill="#1414ce" stroke="#1414ce" points="889.3,-186.29 896.18,-178.23 885.78,-180.24 889.3,-186.29"/>
</a>
</g>
</g>
<!-- 26&#45;&gt;6 -->
<g id="edge25" class="edge">
<title>26&#45;&gt;6</title>
<g id="a_edge25"><a xlink:title="include">
<path fill="none" stroke="#1414ce" d="M510.67,-287.59C507.54,-258.05 500.87,-196.21 494.5,-144 493.47,-135.58 492.29,-126.41 491.19,-118.11"/>
<polygon fill="#1414ce" stroke="#1414ce" points="494.65,-117.62 489.86,-108.17 487.71,-118.55 494.65,-117.62"/>
</a>
</g>
</g>
<!-- 26&#45;&gt;22 -->
<g id="edge28" class="edge">
<title>26&#45;&gt;22</title>
<g id="a_edge28"><a xlink:title="include">
<path fill="none" stroke="#1414ce" d="M462.23,-290.53C428.54,-280.73 382.95,-267.3 334.36,-252.23"/>
<polygon fill="#1414ce" stroke="#1414ce" points="335.19,-248.82 324.6,-249.19 333.11,-255.51 335.19,-248.82"/>
</a>
</g>
</g>
<!-- 26&#45;&gt;9 -->
<g id="edge26" class="edge">
<title>26&#45;&gt;9</title>
<g id="a_edge26"><a xlink:title="include">
<path fill="none" stroke="#1414ce" d="M462.32,-303.86C403.6,-300.72 304.83,-289.68 229.5,-252 198.64,-236.57 170.45,-208.39 152.51,-187.86"/>
<polygon fill="#1414ce" stroke="#1414ce" points="155.07,-185.48 145.92,-180.14 149.75,-190.02 155.07,-185.48"/>
</a>
</g>
</g>
<!-- 19&#45;&gt;8 -->
<g id="edge31" class="edge">
<title>19&#45;&gt;8</title>
<g id="a_edge31"><a xlink:title="include">
<path fill="none" stroke="#1414ce" d="M587.32,-447.88C678.23,-442.73 931.87,-413.82 1011.5,-252 1035.85,-202.52 987.02,-146.33 952.85,-115.14"/>
<polygon fill="#1414ce" stroke="#1414ce" points="954.77,-112.16 944.96,-108.14 950.12,-117.39 954.77,-112.16"/>
</a>
</g>
</g>
<!-- 19&#45;&gt;25 -->
<g id="edge37" class="edge">
<title>19&#45;&gt;25</title>
<g id="a_edge37"><a xlink:title="include">
<path fill="none" stroke="#1414ce" d="M554.5,-431.7C554.5,-423.98 554.5,-414.71 554.5,-406.11"/>
<polygon fill="#1414ce" stroke="#1414ce" points="558,-406.1 554.5,-396.1 551,-406.1 558,-406.1"/>
</a>
</g>
</g>
<!-- 19&#45;&gt;23 -->
<g id="edge38" class="edge">
<title>19&#45;&gt;23</title>
<g id="a_edge38"><a xlink:title="include">
<path fill="none" stroke="#1414ce" d="M521.59,-439.89C499.81,-432.02 472.73,-418.31 458.5,-396 432.66,-355.49 432.31,-331.12 453.5,-288 457.08,-280.72 538,-220.21 584.09,-186.12"/>
<polygon fill="#1414ce" stroke="#1414ce" points="586.3,-188.84 592.26,-180.08 582.14,-183.21 586.3,-188.84"/>
</a>
</g>
</g>
<!-- 19&#45;&gt;4 -->
<g id="edge32" class="edge">
<title>19&#45;&gt;4</title>
<g id="a_edge32"><a xlink:title="include">
<path fill="none" stroke="#1414ce" d="M521.9,-447.1C478.5,-443.22 400.79,-431.48 345.5,-396 276.33,-351.62 256.83,-329.5 229.5,-252 202.13,-174.39 268.07,-85.87 305.63,-43.77"/>
<polygon fill="#1414ce" stroke="#1414ce" points="308.35,-45.97 312.5,-36.22 303.18,-41.26 308.35,-45.97"/>
</a>
</g>
</g>
<!-- 19&#45;&gt;6 -->
<g id="edge34" class="edge">
<title>19&#45;&gt;6</title>
<g id="a_edge34"><a xlink:title="include">
<path fill="none" stroke="#1414ce" d="M522,-444.03C494.33,-437.9 456.19,-424.54 437.5,-396 419.97,-369.22 436.72,-356 436.5,-324 436.39,-308 431.86,-303.31 436.5,-288 442.07,-269.6 453.42,-269.88 460.5,-252 478.22,-207.26 484.31,-151.03 486.41,-118.25"/>
<polygon fill="#1414ce" stroke="#1414ce" points="489.91,-118.26 486.97,-108.08 482.92,-117.87 489.91,-118.26"/>
</a>
</g>
</g>
<!-- 19&#45;&gt;22 -->
<g id="edge36" class="edge">
<title>19&#45;&gt;22</title>
<g id="a_edge36"><a xlink:title="include">
<path fill="none" stroke="#1414ce" d="M521.93,-445.8C484.84,-440.72 424.02,-427.87 382.5,-396 336.4,-360.61 305.93,-297.72 291.4,-261.91"/>
<polygon fill="#1414ce" stroke="#1414ce" points="294.48,-260.18 287.56,-252.15 287.97,-262.74 294.48,-260.18"/>
</a>
</g>
</g>
<!-- 20 -->
<g id="node18" class="node">
<title>20</title>
<g id="a_node18"><a xlink:title="sys/types.h">
<polygon fill="#ffffff" stroke="black" points="724,-396 627,-396 627,-360 724,-360 724,-396"/>
<text text-anchor="middle" x="675.5" y="-374.3" font-family="Times,serif" font-size="14.00">sys/types.h</text>
</a>
</g>
</g>
<!-- 19&#45;&gt;20 -->
<g id="edge30" class="edge">
<title>19&#45;&gt;20</title>
<g id="a_edge30"><a xlink:title="include">
<path fill="none" stroke="#1414ce" d="M584.1,-431.88C600.07,-422.64 619.96,-411.13 637.11,-401.21"/>
<polygon fill="#1414ce" stroke="#1414ce" points="638.88,-404.23 645.79,-396.19 635.38,-398.17 638.88,-404.23"/>
</a>
</g>
</g>
<!-- 21 -->
<g id="node19" class="node">
<title>21</title>
<g id="a_node19"><a xlink:title="string.h">
<polygon fill="#ffffff" stroke="black" points="815,-396 742,-396 742,-360 815,-360 815,-396"/>
<text text-anchor="middle" x="778.5" y="-374.3" font-family="Times,serif" font-size="14.00">string.h</text>
</a>
</g>
</g>
<!-- 19&#45;&gt;21 -->
<g id="edge35" class="edge">
<title>19&#45;&gt;21</title>
<g id="a_edge35"><a xlink:title="include">
<path fill="none" stroke="#1414ce" d="M587.06,-440.13C621.13,-430.69 676.36,-414.9 732.07,-396.38"/>
<polygon fill="#1414ce" stroke="#1414ce" points="733.37,-399.63 741.74,-393.14 731.15,-393 733.37,-399.63"/>
</a>
</g>
</g>
<!-- 19&#45;&gt;10 -->
<g id="edge39" class="edge">
<title>19&#45;&gt;10</title>
<g id="a_edge39"><a xlink:title="include">
<path fill="none" stroke="#1414ce" d="M521.73,-448.74C467.09,-447.07 355.24,-438.25 272.5,-396 159.67,-338.39 127.09,-300.01 86.5,-180 81.37,-164.84 80.05,-158.64 86.5,-144 91.49,-132.69 100.21,-122.74 109.4,-114.62"/>
<polygon fill="#1414ce" stroke="#1414ce" points="111.67,-117.28 117.16,-108.23 107.22,-111.88 111.67,-117.28"/>
</a>
</g>
</g>
<!-- 19&#45;&gt;17 -->
<g id="edge33" class="edge">
<title>19&#45;&gt;17</title>
<g id="a_edge33"><a xlink:title="include">
<path fill="none" stroke="#1414ce" d="M524.2,-431.8C511.62,-422.9 498.38,-410.77 491.5,-396 484.75,-381.49 482.81,-373.44 491.5,-360 512.67,-327.26 542.52,-350.08 571.5,-324 626.57,-274.44 623.84,-246.99 655.5,-180 665.14,-159.6 673.91,-135.57 679.98,-117.62"/>
<polygon fill="#1414ce" stroke="#1414ce" points="683.31,-118.68 683.14,-108.09 676.67,-116.48 683.31,-118.68"/>
</a>
</g>
</g>
<!-- 9&#45;&gt;10 -->
<g id="edge40" class="edge">
<title>9&#45;&gt;10</title>
<g id="a_edge40"><a xlink:title="include">
<path fill="none" stroke="#1414ce" d="M135.47,-143.7C136.79,-135.98 138.38,-126.71 139.85,-118.11"/>
<polygon fill="#1414ce" stroke="#1414ce" points="143.33,-118.55 141.57,-108.1 136.43,-117.37 143.33,-118.55"/>
</a>
</g>
</g>
<!-- 12 -->
<g id="node16" class="node">
<title>12</title>
<g id="a_node16"><a xlink:title="limits.h">
<polygon fill="#ffffff" stroke="black" points="271,-36 200,-36 200,0 271,0 271,-36"/>
<text text-anchor="middle" x="235.5" y="-14.3" font-family="Times,serif" font-size="14.00">limits.h</text>
</a>
</g>
</g>
<!-- 7 -->
<g id="node17" class="node">
<title>7</title>
<g id="a_node17"><a xlink:title="atom_table.h">
<polygon fill="#ffffff" stroke="black" points="452,-252 343,-252 343,-216 452,-216 452,-252"/>
<text text-anchor="middle" x="397.5" y="-230.3" font-family="Times,serif" font-size="14.00">atom_table.h</text>
</a>
</g>
</g>
<!-- 7&#45;&gt;8 -->
<g id="edge41" class="edge">
<title>7&#45;&gt;8</title>
<g id="a_edge41"><a xlink:title="include">
<path fill="none" stroke="#1414ce" d="M452.24,-225.27C505.07,-216.99 586.92,-202 655.5,-180 693.01,-167.97 699.46,-157.41 736.5,-144 781.5,-127.72 834.04,-113.21 871.94,-103.51"/>
<polygon fill="#1414ce" stroke="#1414ce" points="872.91,-106.87 881.74,-101.02 871.19,-100.09 872.91,-106.87"/>
</a>
</g>
</g>
<!-- 7&#45;&gt;5 -->
<g id="edge42" class="edge">
<title>7&#45;&gt;5</title>
<g id="a_edge42"><a xlink:title="include">
<path fill="none" stroke="#1414ce" d="M383.9,-215.7C377.38,-207.39 369.43,-197.28 362.25,-188.14"/>
<polygon fill="#1414ce" stroke="#1414ce" points="364.87,-185.81 355.94,-180.1 359.37,-190.13 364.87,-185.81"/>
</a>
</g>
</g>
<!-- 10&#45;&gt;11 -->
<g id="edge43" class="edge">
<title>10&#45;&gt;11</title>
<g id="a_edge43"><a xlink:title="include">
<path fill="none" stroke="#1414ce" d="M144.5,-71.7C144.5,-63.98 144.5,-54.71 144.5,-46.11"/>
<polygon fill="#1414ce" stroke="#1414ce" points="148,-46.1 144.5,-36.1 141,-46.1 148,-46.1"/>
</a>
</g>
</g>
<!-- 10&#45;&gt;4 -->
<g id="edge46" class="edge">
<title>10&#45;&gt;4</title>
<g id="a_edge46"><a xlink:title="include">
<path fill="none" stroke="#1414ce" d="M189.76,-71.88C218.4,-61.04 255.3,-47.08 283.98,-36.22"/>
<polygon fill="#1414ce" stroke="#1414ce" points="285.26,-39.48 293.38,-32.67 282.78,-32.93 285.26,-39.48"/>
</a>
</g>
</g>
<!-- 10&#45;&gt;12 -->
<g id="edge44" class="edge">
<title>10&#45;&gt;12</title>
<g id="a_edge44"><a xlink:title="include">
<path fill="none" stroke="#1414ce" d="M166.99,-71.7C178.46,-62.88 192.56,-52.03 204.98,-42.47"/>
<polygon fill="#1414ce" stroke="#1414ce" points="207.47,-44.98 213.26,-36.1 203.2,-39.43 207.47,-44.98"/>
</a>
</g>
</g>
<!-- 13 -->
<g id="node28" class="node">
<title>13</title>
<g id="a_node28"><a xlink:title="inttypes.h">
<polygon fill="#ffffff" stroke="black" points="89,-36 0,-36 0,0 89,0 89,-36"/>
<text text-anchor="middle" x="44.5" y="-14.3" font-family="Times,serif" font-size="14.00">inttypes.h</text>
</a>
</g>
</g>
<!-- 10&#45;&gt;13 -->
<g id="edge45" class="edge">
<title>10&#45;&gt;13</title>
<g id="a_edge45"><a xlink:title="include">
<path fill="none" stroke="#1414ce" d="M120.04,-71.88C107.2,-62.89 91.3,-51.76 77.41,-42.03"/>
<polygon fill="#1414ce" stroke="#1414ce" points="79.26,-39.06 69.06,-36.19 75.24,-44.79 79.26,-39.06"/>
</a>
</g>
</g>
<!-- 3&#45;&gt;5 -->
<g id="edge48" class="edge">
<title>3&#45;&gt;5</title>
<g id="a_edge48"><a xlink:title="include">
<path fill="none" stroke="#1414ce" d="M859.94,-591.48C719.55,-587.52 387,-574.69 280.5,-540 208.24,-516.47 134.5,-526.99 134.5,-451 134.5,-451 134.5,-451 134.5,-305 134.5,-225.89 238.39,-187.67 299.33,-172.06"/>
<polygon fill="#1414ce" stroke="#1414ce" points="300.21,-175.45 309.08,-169.66 298.53,-168.65 300.21,-175.45"/>
</a>
</g>
</g>
<!-- 3&#45;&gt;16 -->
<g id="edge55" class="edge">
<title>3&#45;&gt;16</title>
<g id="a_edge55"><a xlink:title="include">
<path fill="none" stroke="#1414ce" d="M925.24,-575.73C931.02,-518.19 949.68,-332.66 956.75,-262.35"/>
<polygon fill="#1414ce" stroke="#1414ce" points="960.26,-262.39 957.78,-252.09 953.3,-261.69 960.26,-262.39"/>
</a>
</g>
</g>
<!-- 3&#45;&gt;15 -->
<g id="edge52" class="edge">
<title>3&#45;&gt;15</title>
<g id="a_edge52"><a xlink:title="include">
<path fill="none" stroke="#1414ce" d="M922.49,-575.98C919.58,-526.17 911.24,-376.41 908.5,-252 908.15,-236 906.3,-231.85 908.5,-216 909.68,-207.48 911.89,-198.39 914.25,-190.2"/>
<polygon fill="#1414ce" stroke="#1414ce" points="917.67,-190.99 917.26,-180.41 910.98,-188.94 917.67,-190.99"/>
</a>
</g>
</g>
<!-- 3&#45;&gt;4 -->
<g id="edge47" class="edge">
<title>3&#45;&gt;4</title>
<g id="a_edge47"><a xlink:title="include">
<path fill="none" stroke="#1414ce" d="M987.17,-578.94C1017.47,-570.51 1053.35,-557.87 1082.5,-540 1234.81,-446.59 1404.13,-373.9 1320.5,-216 1258.31,-98.58 1187.16,-105.19 1058.5,-72 928.57,-38.48 515.78,-24.17 376.17,-20.21"/>
<polygon fill="#1414ce" stroke="#1414ce" points="375.91,-16.7 365.82,-19.92 375.72,-23.7 375.91,-16.7"/>
</a>
</g>
</g>
<!-- 3&#45;&gt;19 -->
<g id="edge56" class="edge">
<title>3&#45;&gt;19</title>
<g id="a_edge56"><a xlink:title="include">
<path fill="none" stroke="#1414ce" d="M878.99,-575.87C807.22,-548.25 666.91,-494.26 596.67,-467.23"/>
<polygon fill="#1414ce" stroke="#1414ce" points="597.83,-463.92 587.24,-463.6 595.31,-470.46 597.83,-463.92"/>
</a>
</g>
</g>
<!-- 3&#45;&gt;9 -->
<g id="edge50" class="edge">
<title>3&#45;&gt;9</title>
<g id="a_edge50"><a xlink:title="include">
<path fill="none" stroke="#1414ce" d="M859.99,-591.79C687.08,-588.04 216.73,-574.75 156.5,-540 115.18,-516.16 96.5,-498.7 96.5,-451 96.5,-451 96.5,-451 96.5,-305 96.5,-263.78 110.93,-217.83 121.52,-189.66"/>
<polygon fill="#1414ce" stroke="#1414ce" points="124.86,-190.72 125.21,-180.13 118.34,-188.19 124.86,-190.72"/>
</a>
</g>
</g>
<!-- 3&#45;&gt;7 -->
<g id="edge49" class="edge">
<title>3&#45;&gt;7</title>
<g id="a_edge49"><a xlink:title="include">
<path fill="none" stroke="#1414ce" d="M860,-593.02C691.97,-591.37 248.5,-575.24 248.5,-451 248.5,-451 248.5,-451 248.5,-377 248.5,-320.62 305.1,-279.8 348.53,-256.77"/>
<polygon fill="#1414ce" stroke="#1414ce" points="350.27,-259.81 357.57,-252.13 347.08,-253.58 350.27,-259.81"/>
</a>
</g>
</g>
<!-- 3&#45;&gt;18 -->
<g id="edge54" class="edge">
<title>3&#45;&gt;18</title>
<g id="a_edge54"><a xlink:title="include">
<path fill="none" stroke="#1414ce" d="M962.34,-575.97C979.71,-567.03 999.59,-554.82 1014.5,-540 1043.96,-510.71 1109.5,-420.54 1109.5,-379 1109.5,-379 1109.5,-379 1109.5,-305 1109.5,-264.9 1105.48,-218.58 1102.54,-190.04"/>
<polygon fill="#1414ce" stroke="#1414ce" points="1106.01,-189.6 1101.48,-180.02 1099.05,-190.34 1106.01,-189.6"/>
</a>
</g>
</g>
<!-- 3&#45;&gt;28 -->
<g id="edge57" class="edge">
<title>3&#45;&gt;28</title>
<g id="a_edge57"><a xlink:title="include">
<path fill="none" stroke="#1414ce" d="M974.43,-575.93C997.69,-566.98 1025,-554.78 1047.5,-540 1156.02,-468.72 1226.39,-322.13 1251.84,-261.82"/>
<polygon fill="#1414ce" stroke="#1414ce" points="1255.21,-262.83 1255.8,-252.25 1248.74,-260.15 1255.21,-262.83"/>
</a>
</g>
</g>
<!-- 3&#45;&gt;27 -->
<g id="edge53" class="edge">
<title>3&#45;&gt;27</title>
<g id="a_edge53"><a xlink:title="include">
<path fill="none" stroke="#1414ce" d="M899.68,-575.8C888.34,-566.43 875.53,-553.91 867.5,-540 826.37,-468.77 857.31,-435.42 824.5,-360 808.23,-322.61 780.82,-284.2 761.98,-260.01"/>
<polygon fill="#1414ce" stroke="#1414ce" points="764.65,-257.74 755.71,-252.07 759.16,-262.08 764.65,-257.74"/>
</a>
</g>
</g>
<!-- 14 -->
<g id="node27" class="node">
<title>14</title>
<g id="a_node27"><a xlink:title="ets.h">
<polygon fill="#ffffff" stroke="black" points="1005.5,-540 951.5,-540 951.5,-504 1005.5,-504 1005.5,-540"/>
<text text-anchor="middle" x="978.5" y="-518.3" font-family="Times,serif" font-size="14.00">ets.h</text>
</a>
</g>
</g>
<!-- 3&#45;&gt;14 -->
<g id="edge51" class="edge">
<title>3&#45;&gt;14</title>
<g id="a_edge51"><a xlink:title="include">
<path fill="none" stroke="#1414ce" d="M937.1,-575.7C943.62,-567.39 951.57,-557.28 958.75,-548.14"/>
<polygon fill="#1414ce" stroke="#1414ce" points="961.63,-550.13 965.06,-540.1 956.13,-545.81 961.63,-550.13"/>
</a>
</g>
</g>
<!-- 1 -->
<g id="node22" class="node">
<title>1</title>
<g id="a_node22"><a xlink:title="/__w/AtomVM/AtomVM/src/libAtomVM/scheduler.h">
<polygon fill="#bfbfbf" stroke="black" points="1204,-756 829,-756 829,-720 1204,-720 1204,-756"/>
<text text-anchor="middle" x="1016.5" y="-734.3" font-family="Times,serif" font-size="14.00">/__w/AtomVM/AtomVM/src/libAtomVM/scheduler.h</text>
</a>
</g>
</g>
<!-- 1&#45;&gt;2 -->
<g id="edge58" class="edge">
<title>1&#45;&gt;2</title>
<g id="a_edge58"><a xlink:title="include">
<path fill="none" stroke="#1414ce" d="M1039.49,-719.7C1051.31,-710.8 1065.89,-699.82 1078.68,-690.2"/>
<polygon fill="#1414ce" stroke="#1414ce" points="1080.89,-692.91 1086.78,-684.1 1076.68,-687.32 1080.89,-692.91"/>
</a>
</g>
</g>
<!-- 1&#45;&gt;3 -->
<g id="edge59" class="edge">
<title>1&#45;&gt;3</title>
<g id="a_edge59"><a xlink:title="include">
<path fill="none" stroke="#1414ce" d="M1005.28,-719.87C989.15,-695.24 959.28,-649.64 940.45,-620.88"/>
<polygon fill="#1414ce" stroke="#1414ce" points="943.16,-618.64 934.76,-612.19 937.31,-622.47 943.16,-618.64"/>
</a>
</g>
</g>
<!-- 18&#45;&gt;8 -->
<g id="edge60" class="edge">
<title>18&#45;&gt;8</title>
<g id="a_edge60"><a xlink:title="include">
<path fill="none" stroke="#1414ce" d="M1069.24,-148.97C1043.35,-138.67 1005.51,-123.62 974.87,-111.43"/>
<polygon fill="#1414ce" stroke="#1414ce" points="975.79,-108.03 965.21,-107.59 973.2,-114.54 975.79,-108.03"/>
</a>
</g>
</g>
<!-- 28&#45;&gt;8 -->
<g id="edge61" class="edge">
<title>28&#45;&gt;8</title>
<g id="a_edge61"><a xlink:title="include">
<path fill="none" stroke="#1414ce" d="M1243.36,-215.65C1220.18,-195.53 1179.17,-162.75 1138.5,-144 1085.55,-119.58 1019.86,-105.49 975.13,-98.06"/>
<polygon fill="#1414ce" stroke="#1414ce" points="975.5,-94.58 965.07,-96.45 974.39,-101.49 975.5,-94.58"/>
</a>
</g>
</g>
<!-- 28&#45;&gt;15 -->
<g id="edge63" class="edge">
<title>28&#45;&gt;15</title>
<g id="a_edge63"><a xlink:title="include">
<path fill="none" stroke="#1414ce" d="M1213.21,-222.82C1144.64,-208.66 1022,-183.34 960.62,-170.67"/>
<polygon fill="#1414ce" stroke="#1414ce" points="961.11,-167.19 950.61,-168.6 959.69,-174.05 961.11,-167.19"/>
</a>
</g>
</g>
<!-- 28&#45;&gt;4 -->
<g id="edge62" class="edge">
<title>28&#45;&gt;4</title>
<g id="a_edge62"><a xlink:title="include">
<path fill="none" stroke="#1414ce" d="M1250.81,-215.9C1236.41,-196.04 1210.18,-163.5 1180.5,-144 1099.44,-90.75 1069.37,-92.13 974.5,-72 753.79,-25.16 482.46,-19.19 375.73,-18.8"/>
<polygon fill="#1414ce" stroke="#1414ce" points="375.63,-15.3 365.62,-18.77 375.62,-22.3 375.63,-15.3"/>
</a>
</g>
</g>
<!-- 27&#45;&gt;8 -->
<g id="edge64" class="edge">
<title>27&#45;&gt;8</title>
<g id="a_edge64"><a xlink:title="include">
<path fill="none" stroke="#1414ce" d="M763.45,-215.87C795.84,-190.6 856.53,-143.25 893.15,-114.68"/>
<polygon fill="#1414ce" stroke="#1414ce" points="895.74,-117.1 901.47,-108.19 891.43,-111.58 895.74,-117.1"/>
</a>
</g>
</g>
<!-- 27&#45;&gt;23 -->
<g id="edge67" class="edge">
<title>27&#45;&gt;23</title>
<g id="a_edge67"><a xlink:title="include">
<path fill="none" stroke="#1414ce" d="M710.68,-215.88C694.05,-206.64 673.34,-195.13 655.48,-185.21"/>
<polygon fill="#1414ce" stroke="#1414ce" points="656.88,-181.99 646.44,-180.19 653.48,-188.11 656.88,-181.99"/>
</a>
</g>
</g>
<!-- 27&#45;&gt;15 -->
<g id="edge65" class="edge">
<title>27&#45;&gt;15</title>
<g id="a_edge65"><a xlink:title="include">
<path fill="none" stroke="#1414ce" d="M784.63,-216.41C815.8,-204.42 857.43,-188.41 886.96,-177.05"/>
<polygon fill="#1414ce" stroke="#1414ce" points="888.41,-180.25 896.48,-173.39 885.89,-173.71 888.41,-180.25"/>
</a>
</g>
</g>
<!-- 27&#45;&gt;10 -->
<g id="edge66" class="edge">
<title>27&#45;&gt;10</title>
<g id="a_edge66"><a xlink:title="include">
<path fill="none" stroke="#1414ce" d="M698.45,-221.87C631.46,-204.64 498.14,-170.71 384.5,-144 328.37,-130.81 264.62,-116.77 216.94,-106.46"/>
<polygon fill="#1414ce" stroke="#1414ce" points="217.53,-103.01 207.01,-104.32 216.05,-109.85 217.53,-103.01"/>
</a>
</g>
</g>
<!-- 14&#45;&gt;16 -->
<g id="edge69" class="edge">
<title>14&#45;&gt;16</title>
<g id="a_edge69"><a xlink:title="include">
<path fill="none" stroke="#1414ce" d="M980.49,-503.87C984.56,-465.08 992.36,-367.71 978.5,-288 976.98,-279.24 974.14,-270.01 971.11,-261.75"/>
<polygon fill="#1414ce" stroke="#1414ce" points="974.29,-260.29 967.39,-252.25 967.78,-262.84 974.29,-260.29"/>
</a>
</g>
</g>
<!-- 14&#45;&gt;15 -->
<g id="edge68" class="edge">
<title>14&#45;&gt;15</title>
<g id="a_edge68"><a xlink:title="include">
<path fill="none" stroke="#1414ce" d="M986.97,-503.73C1009.61,-454.87 1066.26,-312.91 1011.5,-216 1000.47,-196.47 979.04,-183.34 960.09,-175.03"/>
<polygon fill="#1414ce" stroke="#1414ce" points="961.34,-171.77 950.76,-171.23 958.7,-178.25 961.34,-171.77"/>
</a>
</g>
</g>
<!-- 14&#45;&gt;19 -->
<g id="edge70" class="edge">
<title>14&#45;&gt;19</title>
<g id="a_edge70"><a xlink:title="include">
<path fill="none" stroke="#1414ce" d="M951.33,-516.51C879.5,-504.66 684.11,-472.4 597.19,-458.05"/>
<polygon fill="#1414ce" stroke="#1414ce" points="597.58,-454.56 587.14,-456.39 596.44,-461.47 597.58,-454.56"/>
</a>
</g>
</g>
</g>
</svg>
