<?xml version="1.0" encoding="UTF-8" standalone="no"?>
<!DOCTYPE svg PUBLIC "-//W3C//DTD SVG 1.1//EN"
 "http://www.w3.org/Graphics/SVG/1.1/DTD/svg11.dtd">
<!-- Generated by graphviz version 2.43.0 (0)
 -->
<!-- Title: %3 Pages: 1 -->
<svg width="1877pt" height="836pt"
 viewBox="0.00 0.00 1876.77 836.00" xmlns="http://www.w3.org/2000/svg" xmlns:xlink="http://www.w3.org/1999/xlink">
<g id="graph0" class="graph" transform="scale(1 1) rotate(0) translate(4 832)">
<title>%3</title>
<polygon fill="transparent" stroke="transparent" points="-4,4 -4,-832 1872.77,-832 1872.77,4 -4,4"/>
<!-- 2 -->
<g id="node1" class="node">
<title>2</title>
<g id="a_node1"><a xlink:title="stdbool.h">
<polygon fill="#ffffff" stroke="black" points="643.5,-108 560.5,-108 560.5,-72 643.5,-72 643.5,-108"/>
<text text-anchor="middle" x="602" y="-86.3" font-family="Times,serif" font-size="14.00">stdbool.h</text>
</a>
</g>
</g>
<!-- 31 -->
<g id="node2" class="node">
<title>31</title>
<g id="a_node2"><a xlink:title="erl_nif_priv.h">
<polygon fill="#ffffff" stroke="black" points="1226,-756 1118,-756 1118,-720 1226,-720 1226,-756"/>
<text text-anchor="middle" x="1172" y="-734.3" font-family="Times,serif" font-size="14.00">erl_nif_priv.h</text>
</a>
</g>
</g>
<!-- 6 -->
<g id="node12" class="node">
<title>6</title>
<g id="a_node12"><a xlink:title="context.h">
<polygon fill="#ffffff" stroke="black" points="820.5,-684 737.5,-684 737.5,-648 820.5,-648 820.5,-684"/>
<text text-anchor="middle" x="779" y="-662.3" font-family="Times,serif" font-size="14.00">context.h</text>
</a>
</g>
</g>
<!-- 31&#45;&gt;6 -->
<g id="edge1" class="edge">
<title>31&#45;&gt;6</title>
<g id="a_edge1"><a xlink:title="include">
<path fill="none" stroke="#1414ce" d="M1117.77,-727.34C1041.95,-713.84 905.23,-689.48 830.76,-676.22"/>
<polygon fill="#1414ce" stroke="#1414ce" points="831.14,-672.73 820.68,-674.42 829.91,-679.62 831.14,-672.73"/>
</a>
</g>
</g>
<!-- 22 -->
<g id="node14" class="node">
<title>22</title>
<g id="a_node14"><a xlink:title="memory.h">
<polygon fill="#ffffff" stroke="black" points="1417,-252 1331,-252 1331,-216 1417,-216 1417,-252"/>
<text text-anchor="middle" x="1374" y="-230.3" font-family="Times,serif" font-size="14.00">memory.h</text>
</a>
</g>
</g>
<!-- 31&#45;&gt;22 -->
<g id="edge2" class="edge">
<title>31&#45;&gt;22</title>
<g id="a_edge2"><a xlink:title="include">
<path fill="none" stroke="#1414ce" d="M1192.19,-719.67C1244.2,-673.5 1382.13,-541.14 1431,-396 1447.17,-347.97 1416.34,-292.3 1394.06,-260.61"/>
<polygon fill="#1414ce" stroke="#1414ce" points="1396.75,-258.37 1388.05,-252.33 1391.09,-262.48 1396.75,-258.37"/>
</a>
</g>
</g>
<!-- 26 -->
<g id="node15" class="node">
<title>26</title>
<g id="a_node15"><a xlink:title="resources.h">
<polygon fill="#ffffff" stroke="black" points="1185,-324 1085,-324 1085,-288 1185,-288 1185,-324"/>
<text text-anchor="middle" x="1135" y="-302.3" font-family="Times,serif" font-size="14.00">resources.h</text>
</a>
</g>
</g>
<!-- 31&#45;&gt;26 -->
<g id="edge3" class="edge">
<title>31&#45;&gt;26</title>
<g id="a_edge3"><a xlink:title="include">
<path fill="none" stroke="#1414ce" d="M1164.51,-719.89C1153.7,-693.58 1135,-641.37 1135,-595 1135,-595 1135,-595 1135,-449 1135,-409 1135,-362.65 1135,-334.08"/>
<polygon fill="#1414ce" stroke="#1414ce" points="1138.5,-334.05 1135,-324.05 1131.5,-334.05 1138.5,-334.05"/>
</a>
</g>
</g>
<!-- 25 -->
<g id="node3" class="node">
<title>25</title>
<g id="a_node3"><a xlink:title="refc_binary.h">
<polygon fill="#ffffff" stroke="black" points="1107,-396 999,-396 999,-360 1107,-360 1107,-396"/>
<text text-anchor="middle" x="1053" y="-374.3" font-family="Times,serif" font-size="14.00">refc_binary.h</text>
</a>
</g>
</g>
<!-- 25&#45;&gt;2 -->
<g id="edge4" class="edge">
<title>25&#45;&gt;2</title>
<g id="a_edge4"><a xlink:title="include">
<path fill="none" stroke="#1414ce" d="M1045.18,-359.82C1024.25,-315.91 962.38,-199.18 873,-144 805.41,-102.27 711.79,-92.36 654.15,-90.56"/>
<polygon fill="#1414ce" stroke="#1414ce" points="653.9,-87.05 643.82,-90.31 653.73,-94.05 653.9,-87.05"/>
</a>
</g>
</g>
<!-- 17 -->
<g id="node9" class="node">
<title>17</title>
<g id="a_node9"><a xlink:title="list.h">
<polygon fill="#ffffff" stroke="black" points="371,-180 317,-180 317,-144 371,-144 371,-180"/>
<text text-anchor="middle" x="344" y="-158.3" font-family="Times,serif" font-size="14.00">list.h</text>
</a>
</g>
</g>
<!-- 25&#45;&gt;17 -->
<g id="edge6" class="edge">
<title>25&#45;&gt;17</title>
<g id="a_edge6"><a xlink:title="include">
<path fill="none" stroke="#1414ce" d="M998.93,-370.41C866.18,-353.56 527.86,-306.4 429,-252 400.99,-236.59 376.69,-208.79 361.32,-188.35"/>
<polygon fill="#1414ce" stroke="#1414ce" points="364.02,-186.11 355.3,-180.09 358.37,-190.24 364.02,-186.11"/>
</a>
</g>
</g>
<!-- 4 -->
<g id="node11" class="node">
<title>4</title>
<g id="a_node11"><a xlink:title="stdlib.h">
<polygon fill="#ffffff" stroke="black" points="1133.5,-108 1062.5,-108 1062.5,-72 1133.5,-72 1133.5,-108"/>
<text text-anchor="middle" x="1098" y="-86.3" font-family="Times,serif" font-size="14.00">stdlib.h</text>
</a>
</g>
</g>
<!-- 25&#45;&gt;4 -->
<g id="edge5" class="edge">
<title>25&#45;&gt;4</title>
<g id="a_edge5"><a xlink:title="include">
<path fill="none" stroke="#1414ce" d="M1055.68,-359.97C1063.2,-312.19 1084.53,-176.62 1093.71,-118.27"/>
<polygon fill="#1414ce" stroke="#1414ce" points="1097.18,-118.73 1095.28,-108.31 1090.27,-117.64 1097.18,-118.73"/>
</a>
</g>
</g>
<!-- 25&#45;&gt;26 -->
<g id="edge7" class="edge">
<title>25&#45;&gt;26</title>
<g id="a_edge7"><a xlink:title="include">
<path fill="none" stroke="#1414ce" d="M1073.27,-359.7C1083.5,-350.97 1096.06,-340.24 1107.18,-330.75"/>
<polygon fill="#1414ce" stroke="#1414ce" points="1109.63,-333.26 1114.96,-324.1 1105.09,-327.94 1109.63,-333.26"/>
</a>
</g>
</g>
<!-- 9 -->
<g id="node4" class="node">
<title>9</title>
<g id="a_node4"><a xlink:title="atom.h">
<polygon fill="#ffffff" stroke="black" points="839,-180 773,-180 773,-144 839,-144 839,-180"/>
<text text-anchor="middle" x="806" y="-158.3" font-family="Times,serif" font-size="14.00">atom.h</text>
</a>
</g>
</g>
<!-- 8 -->
<g id="node10" class="node">
<title>8</title>
<g id="a_node10"><a xlink:title="stdint.h">
<polygon fill="#ffffff" stroke="black" points="925,-36 853,-36 853,0 925,0 925,-36"/>
<text text-anchor="middle" x="889" y="-14.3" font-family="Times,serif" font-size="14.00">stdint.h</text>
</a>
</g>
</g>
<!-- 9&#45;&gt;8 -->
<g id="edge8" class="edge">
<title>9&#45;&gt;8</title>
<g id="a_edge8"><a xlink:title="include">
<path fill="none" stroke="#1414ce" d="M816.01,-143.87C830.41,-119.24 857.06,-73.64 873.87,-44.88"/>
<polygon fill="#1414ce" stroke="#1414ce" points="876.93,-46.59 878.95,-36.19 870.88,-43.06 876.93,-46.59"/>
</a>
</g>
</g>
<!-- 9&#45;&gt;4 -->
<g id="edge9" class="edge">
<title>9&#45;&gt;4</title>
<g id="a_edge9"><a xlink:title="include">
<path fill="none" stroke="#1414ce" d="M839.21,-153.04C891.49,-140.5 993.11,-116.14 1052.26,-101.96"/>
<polygon fill="#1414ce" stroke="#1414ce" points="1053.18,-105.34 1062.09,-99.61 1051.55,-98.54 1053.18,-105.34"/>
</a>
</g>
</g>
<!-- 13 -->
<g id="node5" class="node">
<title>13</title>
<g id="a_node5"><a xlink:title="assert.h">
<polygon fill="#ffffff" stroke="black" points="1602,-36 1528,-36 1528,0 1602,0 1602,-36"/>
<text text-anchor="middle" x="1565" y="-14.3" font-family="Times,serif" font-size="14.00">assert.h</text>
</a>
</g>
</g>
<!-- 30 -->
<g id="node6" class="node">
<title>30</title>
<g id="a_node6"><a xlink:title="dictionary.h">
<polygon fill="#ffffff" stroke="black" points="961,-540 861,-540 861,-504 961,-504 961,-540"/>
<text text-anchor="middle" x="911" y="-518.3" font-family="Times,serif" font-size="14.00">dictionary.h</text>
</a>
</g>
</g>
<!-- 30&#45;&gt;17 -->
<g id="edge10" class="edge">
<title>30&#45;&gt;17</title>
<g id="a_edge10"><a xlink:title="include">
<path fill="none" stroke="#1414ce" d="M860.76,-508.26C757.34,-479.61 518.85,-400.7 381,-252 364.87,-234.61 355.26,-209.19 349.89,-189.96"/>
<polygon fill="#1414ce" stroke="#1414ce" points="353.22,-188.82 347.34,-180.01 346.44,-190.57 353.22,-188.82"/>
</a>
</g>
</g>
<!-- 20 -->
<g id="node16" class="node">
<title>20</title>
<g id="a_node16"><a xlink:title="term.h">
<polygon fill="#ffffff" stroke="black" points="1021.5,-468 956.5,-468 956.5,-432 1021.5,-432 1021.5,-468"/>
<text text-anchor="middle" x="989" y="-446.3" font-family="Times,serif" font-size="14.00">term.h</text>
</a>
</g>
</g>
<!-- 30&#45;&gt;20 -->
<g id="edge11" class="edge">
<title>30&#45;&gt;20</title>
<g id="a_edge11"><a xlink:title="include">
<path fill="none" stroke="#1414ce" d="M930.28,-503.7C939.92,-495.05 951.73,-484.45 962.23,-475.03"/>
<polygon fill="#1414ce" stroke="#1414ce" points="964.84,-477.39 969.94,-468.1 960.16,-472.18 964.84,-477.39"/>
</a>
</g>
</g>
<!-- 23 -->
<g id="node7" class="node">
<title>23</title>
<g id="a_node7"><a xlink:title="utils.h">
<polygon fill="#ffffff" stroke="black" points="1340,-180 1278,-180 1278,-144 1340,-144 1340,-180"/>
<text text-anchor="middle" x="1309" y="-158.3" font-family="Times,serif" font-size="14.00">utils.h</text>
</a>
</g>
</g>
<!-- 23&#45;&gt;4 -->
<g id="edge14" class="edge">
<title>23&#45;&gt;4</title>
<g id="a_edge14"><a xlink:title="include">
<path fill="none" stroke="#1414ce" d="M1277.87,-150.67C1242.39,-138.9 1184.08,-119.56 1143.51,-106.1"/>
<polygon fill="#1414ce" stroke="#1414ce" points="1144.45,-102.72 1133.86,-102.9 1142.25,-109.37 1144.45,-102.72"/>
</a>
</g>
</g>
<!-- 24 -->
<g id="node17" class="node">
<title>24</title>
<g id="a_node17"><a xlink:title="stddef.h">
<polygon fill="#ffffff" stroke="black" points="1346,-108 1272,-108 1272,-72 1346,-72 1346,-108"/>
<text text-anchor="middle" x="1309" y="-86.3" font-family="Times,serif" font-size="14.00">stddef.h</text>
</a>
</g>
</g>
<!-- 23&#45;&gt;24 -->
<g id="edge12" class="edge">
<title>23&#45;&gt;24</title>
<g id="a_edge12"><a xlink:title="include">
<path fill="none" stroke="#1414ce" d="M1309,-143.7C1309,-135.98 1309,-126.71 1309,-118.11"/>
<polygon fill="#1414ce" stroke="#1414ce" points="1312.5,-118.1 1309,-108.1 1305.5,-118.1 1312.5,-118.1"/>
</a>
</g>
</g>
<!-- 3 -->
<g id="node31" class="node">
<title>3</title>
<g id="a_node31"><a xlink:title="stdio.h">
<polygon fill="#ffffff" stroke="black" points="1253.5,-108 1188.5,-108 1188.5,-72 1253.5,-72 1253.5,-108"/>
<text text-anchor="middle" x="1221" y="-86.3" font-family="Times,serif" font-size="14.00">stdio.h</text>
</a>
</g>
</g>
<!-- 23&#45;&gt;3 -->
<g id="edge13" class="edge">
<title>23&#45;&gt;3</title>
<g id="a_edge13"><a xlink:title="include">
<path fill="none" stroke="#1414ce" d="M1287.25,-143.7C1276.16,-134.88 1262.53,-124.03 1250.51,-114.47"/>
<polygon fill="#1414ce" stroke="#1414ce" points="1252.51,-111.59 1242.5,-108.1 1248.15,-117.07 1252.51,-111.59"/>
</a>
</g>
</g>
<!-- 18 -->
<g id="node8" class="node">
<title>18</title>
<g id="a_node8"><a xlink:title="synclist.h">
<polygon fill="#ffffff" stroke="black" points="609.5,-252 524.5,-252 524.5,-216 609.5,-216 609.5,-252"/>
<text text-anchor="middle" x="567" y="-230.3" font-family="Times,serif" font-size="14.00">synclist.h</text>
</a>
</g>
</g>
<!-- 18&#45;&gt;17 -->
<g id="edge16" class="edge">
<title>18&#45;&gt;17</title>
<g id="a_edge16"><a xlink:title="include">
<path fill="none" stroke="#1414ce" d="M524.27,-219.59C482.73,-206.55 420.31,-186.96 380.89,-174.58"/>
<polygon fill="#1414ce" stroke="#1414ce" points="381.74,-171.18 371.15,-171.52 379.64,-177.86 381.74,-171.18"/>
</a>
</g>
</g>
<!-- 19 -->
<g id="node26" class="node">
<title>19</title>
<g id="a_node26"><a xlink:title="smp.h">
<polygon fill="#ffffff" stroke="black" points="561,-180 501,-180 501,-144 561,-144 561,-180"/>
<text text-anchor="middle" x="531" y="-158.3" font-family="Times,serif" font-size="14.00">smp.h</text>
</a>
</g>
</g>
<!-- 18&#45;&gt;19 -->
<g id="edge17" class="edge">
<title>18&#45;&gt;19</title>
<g id="a_edge17"><a xlink:title="include">
<path fill="none" stroke="#1414ce" d="M558.1,-215.7C554,-207.73 549.05,-198.1 544.51,-189.26"/>
<polygon fill="#1414ce" stroke="#1414ce" points="547.48,-187.4 539.8,-180.1 541.26,-190.6 547.48,-187.4"/>
</a>
</g>
</g>
<!-- 18&#45;&gt;3 -->
<g id="edge15" class="edge">
<title>18&#45;&gt;3</title>
<g id="a_edge15"><a xlink:title="include">
<path fill="none" stroke="#1414ce" d="M609.58,-224.95C624.57,-222.12 641.53,-218.92 657,-216 741.89,-199.98 763.52,-198.03 848,-180 968.14,-154.36 1108.88,-119.44 1178.11,-101.94"/>
<polygon fill="#1414ce" stroke="#1414ce" points="1179.35,-105.24 1188.19,-99.39 1177.64,-98.45 1179.35,-105.24"/>
</a>
</g>
</g>
<!-- 17&#45;&gt;2 -->
<g id="edge18" class="edge">
<title>17&#45;&gt;2</title>
<g id="a_edge18"><a xlink:title="include">
<path fill="none" stroke="#1414ce" d="M371.12,-153.64C413.63,-142.11 496.65,-119.58 550.69,-104.92"/>
<polygon fill="#1414ce" stroke="#1414ce" points="551.69,-108.28 560.43,-102.28 549.86,-101.52 551.69,-108.28"/>
</a>
</g>
</g>
<!-- 6&#45;&gt;17 -->
<g id="edge20" class="edge">
<title>6&#45;&gt;17</title>
<g id="a_edge20"><a xlink:title="include">
<path fill="none" stroke="#1414ce" d="M737.29,-663.18C609.17,-656.46 230,-627.73 230,-523 230,-523 230,-523 230,-305 230,-254 275.27,-210.88 308.76,-185.97"/>
<polygon fill="#1414ce" stroke="#1414ce" points="310.92,-188.73 316.98,-180.04 306.83,-183.05 310.92,-188.73"/>
</a>
</g>
</g>
<!-- 6&#45;&gt;20 -->
<g id="edge23" class="edge">
<title>6&#45;&gt;20</title>
<g id="a_edge23"><a xlink:title="include">
<path fill="none" stroke="#1414ce" d="M820.63,-649.12C864.79,-630.05 933.15,-593.77 970,-540 982.45,-521.83 986.98,-497.06 988.52,-478.26"/>
<polygon fill="#1414ce" stroke="#1414ce" points="992.01,-478.43 989.1,-468.24 985.02,-478.02 992.01,-478.43"/>
</a>
</g>
</g>
<!-- 7 -->
<g id="node25" class="node">
<title>7</title>
<g id="a_node25"><a xlink:title="globalcontext.h">
<polygon fill="#ffffff" stroke="black" points="646.5,-612 519.5,-612 519.5,-576 646.5,-576 646.5,-612"/>
<text text-anchor="middle" x="583" y="-590.3" font-family="Times,serif" font-size="14.00">globalcontext.h</text>
</a>
</g>
</g>
<!-- 6&#45;&gt;7 -->
<g id="edge19" class="edge">
<title>6&#45;&gt;7</title>
<g id="a_edge19"><a xlink:title="include">
<path fill="none" stroke="#1414ce" d="M737.43,-650.15C709.12,-640.04 671.28,-626.53 640.14,-615.41"/>
<polygon fill="#1414ce" stroke="#1414ce" points="641.31,-612.11 630.71,-612.04 638.95,-618.7 641.31,-612.11"/>
</a>
</g>
</g>
<!-- 6&#45;&gt;19 -->
<g id="edge22" class="edge">
<title>6&#45;&gt;19</title>
<g id="a_edge22"><a xlink:title="include">
<path fill="none" stroke="#1414ce" d="M737.19,-661.32C683.2,-655.56 587.02,-641.81 510,-612 452.35,-589.69 423.57,-592.54 391,-540 331.95,-444.75 356.28,-391.19 400,-288 414.36,-254.09 415.15,-242.23 441,-216 455.39,-201.4 474.63,-189.36 491.62,-180.46"/>
<polygon fill="#1414ce" stroke="#1414ce" points="493.42,-183.47 500.78,-175.85 490.28,-177.22 493.42,-183.47"/>
</a>
</g>
</g>
<!-- 28 -->
<g id="node27" class="node">
<title>28</title>
<g id="a_node27"><a xlink:title="timer_list.h">
<polygon fill="#ffffff" stroke="black" points="164,-252 66,-252 66,-216 164,-216 164,-252"/>
<text text-anchor="middle" x="115" y="-230.3" font-family="Times,serif" font-size="14.00">timer_list.h</text>
</a>
</g>
</g>
<!-- 6&#45;&gt;28 -->
<g id="edge24" class="edge">
<title>6&#45;&gt;28</title>
<g id="a_edge24"><a xlink:title="include">
<path fill="none" stroke="#1414ce" d="M737.47,-663.79C614.07,-659.82 255.65,-645.5 216,-612 109.63,-522.14 108.95,-333.6 112.82,-262.73"/>
<polygon fill="#1414ce" stroke="#1414ce" points="116.34,-262.59 113.47,-252.4 109.35,-262.16 116.34,-262.59"/>
</a>
</g>
</g>
<!-- 27 -->
<g id="node29" class="node">
<title>27</title>
<g id="a_node29"><a xlink:title="mailbox.h">
<polygon fill="#ffffff" stroke="black" points="918,-252 832,-252 832,-216 918,-216 918,-252"/>
<text text-anchor="middle" x="875" y="-230.3" font-family="Times,serif" font-size="14.00">mailbox.h</text>
</a>
</g>
</g>
<!-- 6&#45;&gt;27 -->
<g id="edge21" class="edge">
<title>6&#45;&gt;27</title>
<g id="a_edge21"><a xlink:title="include">
<path fill="none" stroke="#1414ce" d="M779,-647.95C779,-621.29 779,-568.11 779,-523 779,-523 779,-523 779,-377 779,-328.85 817.34,-284.85 845.56,-258.98"/>
<polygon fill="#1414ce" stroke="#1414ce" points="848.07,-261.43 853.22,-252.17 843.42,-256.2 848.07,-261.43"/>
</a>
</g>
</g>
<!-- 1 -->
<g id="node13" class="node">
<title>1</title>
<g id="a_node13"><a xlink:title="/__w/AtomVM/AtomVM/src/libAtomVM/memory.c">
<polygon fill="#bfbfbf" stroke="black" points="1312,-828 950,-828 950,-792 1312,-792 1312,-828"/>
<text text-anchor="middle" x="1131" y="-806.3" font-family="Times,serif" font-size="14.00">/__w/AtomVM/AtomVM/src/libAtomVM/memory.c</text>
</a>
</g>
</g>
<!-- 1&#45;&gt;2 -->
<g id="edge25" class="edge">
<title>1&#45;&gt;2</title>
<g id="a_edge25"><a xlink:title="include">
<path fill="none" stroke="#1414ce" d="M949.82,-809.72C707.57,-808.89 291.84,-800.66 147,-756 74.02,-733.49 0,-743.37 0,-667 0,-667 0,-667 0,-305 0,-258.03 21.4,-246.65 57,-216 116.4,-164.86 142.64,-165.57 218,-144 333.86,-110.83 475.53,-98.13 550.21,-93.5"/>
<polygon fill="#1414ce" stroke="#1414ce" points="550.52,-96.98 560.29,-92.89 550.1,-90 550.52,-96.98"/>
</a>
</g>
</g>
<!-- 1&#45;&gt;31 -->
<g id="edge32" class="edge">
<title>1&#45;&gt;31</title>
<g id="a_edge32"><a xlink:title="include">
<path fill="none" stroke="#1414ce" d="M1141.13,-791.7C1145.85,-783.64 1151.56,-773.89 1156.78,-764.98"/>
<polygon fill="#1414ce" stroke="#1414ce" points="1159.95,-766.5 1161.98,-756.1 1153.91,-762.96 1159.95,-766.5"/>
</a>
</g>
</g>
<!-- 1&#45;&gt;25 -->
<g id="edge36" class="edge">
<title>1&#45;&gt;25</title>
<g id="a_edge36"><a xlink:title="include">
<path fill="none" stroke="#1414ce" d="M1113.86,-791.89C1090.62,-766.8 1052,-717.5 1052,-667 1052,-667 1052,-667 1052,-521 1052,-481 1052.4,-434.65 1052.7,-406.08"/>
<polygon fill="#1414ce" stroke="#1414ce" points="1056.2,-406.09 1052.8,-396.05 1049.2,-406.01 1056.2,-406.09"/>
</a>
</g>
</g>
<!-- 1&#45;&gt;30 -->
<g id="edge31" class="edge">
<title>1&#45;&gt;30</title>
<g id="a_edge31"><a xlink:title="include">
<path fill="none" stroke="#1414ce" d="M1090.13,-791.89C1072.55,-783.07 1052.71,-770.99 1038,-756 977.1,-693.94 936.97,-596.75 920.09,-549.96"/>
<polygon fill="#1414ce" stroke="#1414ce" points="923.28,-548.51 916.65,-540.24 916.68,-550.84 923.28,-548.51"/>
</a>
</g>
</g>
<!-- 1&#45;&gt;23 -->
<g id="edge40" class="edge">
<title>1&#45;&gt;23</title>
<g id="a_edge40"><a xlink:title="include">
<path fill="none" stroke="#1414ce" d="M1312.14,-794.46C1375.74,-786.37 1437.68,-774.15 1463,-756 1492.41,-734.93 1490.85,-718.73 1501,-684 1560.1,-481.81 1568.97,-370.71 1426,-216 1405.76,-194.1 1374.73,-180.61 1349.71,-172.73"/>
<polygon fill="#1414ce" stroke="#1414ce" points="1350.69,-169.37 1340.11,-169.88 1348.7,-176.08 1350.69,-169.37"/>
</a>
</g>
</g>
<!-- 1&#45;&gt;17 -->
<g id="edge34" class="edge">
<title>1&#45;&gt;17</title>
<g id="a_edge34"><a xlink:title="include">
<path fill="none" stroke="#1414ce" d="M949.76,-803.16C644.08,-790.88 59,-755.76 59,-667 59,-667 59,-667 59,-377 59,-315.51 230.78,-220.51 307.61,-181.1"/>
<polygon fill="#1414ce" stroke="#1414ce" points="309.61,-184.01 316.93,-176.35 306.43,-177.77 309.61,-184.01"/>
</a>
</g>
</g>
<!-- 1&#45;&gt;4 -->
<g id="edge27" class="edge">
<title>1&#45;&gt;4</title>
<g id="a_edge27"><a xlink:title="include">
<path fill="none" stroke="#1414ce" d="M1277.86,-791.91C1350.57,-774.38 1423,-738.87 1423,-667 1423,-667 1423,-667 1423,-593 1423,-488.85 1445.48,-452.7 1398,-360 1393.85,-351.91 1198.43,-179.41 1125.26,-114.99"/>
<polygon fill="#1414ce" stroke="#1414ce" points="1127.19,-112.01 1117.37,-108.03 1122.56,-117.27 1127.19,-112.01"/>
</a>
</g>
</g>
<!-- 1&#45;&gt;6 -->
<g id="edge29" class="edge">
<title>1&#45;&gt;6</title>
<g id="a_edge29"><a xlink:title="include">
<path fill="none" stroke="#1414ce" d="M949.87,-797.51C885.82,-789.85 823.95,-777.12 801,-756 784.12,-740.47 779.27,-714.22 778.26,-694.25"/>
<polygon fill="#1414ce" stroke="#1414ce" points="781.76,-694.1 778.04,-684.18 774.76,-694.26 781.76,-694.1"/>
</a>
</g>
</g>
<!-- 1&#45;&gt;22 -->
<g id="edge35" class="edge">
<title>1&#45;&gt;22</title>
<g id="a_edge35"><a xlink:title="include">
<path fill="none" stroke="#1414ce" d="M1312.09,-796.88C1367.79,-789.18 1419.18,-776.59 1437,-756 1552.23,-622.89 1463.88,-535.25 1447,-360 1443.87,-327.55 1449.07,-316.36 1433,-288 1426.69,-276.86 1417.18,-266.82 1407.63,-258.56"/>
<polygon fill="#1414ce" stroke="#1414ce" points="1409.62,-255.66 1399.67,-252.04 1405.19,-261.08 1409.62,-255.66"/>
</a>
</g>
</g>
<!-- 1&#45;&gt;20 -->
<g id="edge38" class="edge">
<title>1&#45;&gt;20</title>
<g id="a_edge38"><a xlink:title="include">
<path fill="none" stroke="#1414ce" d="M1122.7,-791.97C1110.72,-765.77 1090,-713.7 1090,-667 1090,-667 1090,-667 1090,-593 1090,-544.19 1049.89,-500.51 1020.22,-474.87"/>
<polygon fill="#1414ce" stroke="#1414ce" points="1022.09,-471.87 1012.17,-468.13 1017.59,-477.23 1022.09,-471.87"/>
</a>
</g>
</g>
<!-- 29 -->
<g id="node19" class="node">
<title>29</title>
<g id="a_node19"><a xlink:title="debug.h">
<polygon fill="#ffffff" stroke="black" points="884,-756 810,-756 810,-720 884,-720 884,-756"/>
<text text-anchor="middle" x="847" y="-734.3" font-family="Times,serif" font-size="14.00">debug.h</text>
</a>
</g>
</g>
<!-- 1&#45;&gt;29 -->
<g id="edge30" class="edge">
<title>1&#45;&gt;29</title>
<g id="a_edge30"><a xlink:title="include">
<path fill="none" stroke="#1414ce" d="M1046.92,-791.96C1002.4,-782.41 946.94,-769.69 898,-756 896.74,-755.65 895.46,-755.28 894.17,-754.9"/>
<polygon fill="#1414ce" stroke="#1414ce" points="894.78,-751.43 884.19,-751.87 892.74,-758.13 894.78,-751.43"/>
</a>
</g>
</g>
<!-- 5 -->
<g id="node23" class="node">
<title>5</title>
<g id="a_node23"><a xlink:title="string.h">
<polygon fill="#ffffff" stroke="black" points="1388.5,-396 1315.5,-396 1315.5,-360 1388.5,-360 1388.5,-396"/>
<text text-anchor="middle" x="1352" y="-374.3" font-family="Times,serif" font-size="14.00">string.h</text>
</a>
</g>
</g>
<!-- 1&#45;&gt;5 -->
<g id="edge28" class="edge">
<title>1&#45;&gt;5</title>
<g id="a_edge28"><a xlink:title="include">
<path fill="none" stroke="#1414ce" d="M1207.46,-791.97C1269.59,-773.1 1347,-735.78 1347,-667 1347,-667 1347,-667 1347,-521 1347,-480.97 1349.01,-434.63 1350.48,-406.07"/>
<polygon fill="#1414ce" stroke="#1414ce" points="1353.98,-406.21 1351.01,-396.04 1346.99,-405.84 1353.98,-406.21"/>
</a>
</g>
</g>
<!-- 1&#45;&gt;7 -->
<g id="edge33" class="edge">
<title>1&#45;&gt;7</title>
<g id="a_edge33"><a xlink:title="include">
<path fill="none" stroke="#1414ce" d="M1029.04,-791.95C997.81,-783.98 964.26,-772.47 936,-756 877.62,-721.97 888.26,-680.46 829,-648 775.66,-618.78 707.58,-605.67 656.57,-599.78"/>
<polygon fill="#1414ce" stroke="#1414ce" points="656.92,-596.3 646.6,-598.7 656.17,-603.26 656.92,-596.3"/>
</a>
</g>
</g>
<!-- 32 -->
<g id="node28" class="node">
<title>32</title>
<g id="a_node28"><a xlink:title="tempstack.h">
<polygon fill="#ffffff" stroke="black" points="1631,-756 1527,-756 1527,-720 1631,-720 1631,-756"/>
<text text-anchor="middle" x="1579" y="-734.3" font-family="Times,serif" font-size="14.00">tempstack.h</text>
</a>
</g>
</g>
<!-- 1&#45;&gt;32 -->
<g id="edge37" class="edge">
<title>1&#45;&gt;32</title>
<g id="a_edge37"><a xlink:title="include">
<path fill="none" stroke="#1414ce" d="M1282.71,-792C1353.07,-783.08 1437.63,-770.89 1513,-756 1514.27,-755.75 1515.56,-755.49 1516.85,-755.22"/>
<polygon fill="#1414ce" stroke="#1414ce" points="1517.87,-758.58 1526.89,-753.01 1516.37,-751.74 1517.87,-758.58"/>
</a>
</g>
</g>
<!-- 33 -->
<g id="node30" class="node">
<title>33</title>
<g id="a_node30"><a xlink:title="trace.h">
<polygon fill="#ffffff" stroke="black" points="1716.5,-756 1649.5,-756 1649.5,-720 1716.5,-720 1716.5,-756"/>
<text text-anchor="middle" x="1683" y="-734.3" font-family="Times,serif" font-size="14.00">trace.h</text>
</a>
</g>
</g>
<!-- 1&#45;&gt;33 -->
<g id="edge39" class="edge">
<title>1&#45;&gt;33</title>
<g id="a_edge39"><a xlink:title="include">
<path fill="none" stroke="#1414ce" d="M1312.08,-802.16C1407.45,-795.64 1526.06,-782.95 1639.57,-755.68"/>
<polygon fill="#1414ce" stroke="#1414ce" points="1640.6,-759.03 1649.48,-753.25 1638.94,-752.23 1640.6,-759.03"/>
</a>
</g>
</g>
<!-- 1&#45;&gt;3 -->
<g id="edge26" class="edge">
<title>1&#45;&gt;3</title>
<g id="a_edge26"><a xlink:title="include">
<path fill="none" stroke="#1414ce" d="M1312.11,-804.99C1476.79,-799.41 1698.26,-786.32 1726,-756 1761.2,-717.53 2105.87,-604.6 1575,-144 1524.39,-100.09 1345.75,-123.21 1263.5,-107.41"/>
<polygon fill="#1414ce" stroke="#1414ce" points="1264.26,-103.99 1253.73,-105.22 1262.73,-110.82 1264.26,-103.99"/>
</a>
</g>
</g>
<!-- 22&#45;&gt;23 -->
<g id="edge45" class="edge">
<title>22&#45;&gt;23</title>
<g id="a_edge45"><a xlink:title="include">
<path fill="none" stroke="#1414ce" d="M1357.93,-215.7C1350.06,-207.22 1340.44,-196.86 1331.83,-187.58"/>
<polygon fill="#1414ce" stroke="#1414ce" points="1334.25,-185.05 1324.88,-180.1 1329.12,-189.81 1334.25,-185.05"/>
</a>
</g>
</g>
<!-- 22&#45;&gt;8 -->
<g id="edge41" class="edge">
<title>22&#45;&gt;8</title>
<g id="a_edge41"><a xlink:title="include">
<path fill="none" stroke="#1414ce" d="M1378.06,-215.77C1384.7,-182.75 1393.59,-110.43 1355,-72 1325.59,-42.71 1047.34,-26.45 935.36,-21.05"/>
<polygon fill="#1414ce" stroke="#1414ce" points="935.21,-17.54 925.05,-20.56 934.87,-24.53 935.21,-17.54"/>
</a>
</g>
</g>
<!-- 22&#45;&gt;4 -->
<g id="edge42" class="edge">
<title>22&#45;&gt;4</title>
<g id="a_edge42"><a xlink:title="include">
<path fill="none" stroke="#1414ce" d="M1339.9,-215.92C1319.33,-205.59 1292.62,-192.11 1269,-180 1224.57,-157.23 1173.86,-130.77 1139.27,-112.66"/>
<polygon fill="#1414ce" stroke="#1414ce" points="1140.88,-109.56 1130.4,-108.02 1137.64,-115.76 1140.88,-109.56"/>
</a>
</g>
</g>
<!-- 11 -->
<g id="node18" class="node">
<title>11</title>
<g id="a_node18"><a xlink:title="erl_nif.h">
<polygon fill="#ffffff" stroke="black" points="1566,-180 1492,-180 1492,-144 1566,-144 1566,-180"/>
<text text-anchor="middle" x="1529" y="-158.3" font-family="Times,serif" font-size="14.00">erl_nif.h</text>
</a>
</g>
</g>
<!-- 22&#45;&gt;11 -->
<g id="edge43" class="edge">
<title>22&#45;&gt;11</title>
<g id="a_edge43"><a xlink:title="include">
<path fill="none" stroke="#1414ce" d="M1411.92,-215.88C1433.17,-206.28 1459.85,-194.23 1482.37,-184.06"/>
<polygon fill="#1414ce" stroke="#1414ce" points="1484.07,-187.13 1491.74,-179.83 1481.19,-180.75 1484.07,-187.13"/>
</a>
</g>
</g>
<!-- 12 -->
<g id="node24" class="node">
<title>12</title>
<g id="a_node24"><a xlink:title="term_typedef.h">
<polygon fill="#ffffff" stroke="black" points="1527.5,-108 1402.5,-108 1402.5,-72 1527.5,-72 1527.5,-108"/>
<text text-anchor="middle" x="1465" y="-86.3" font-family="Times,serif" font-size="14.00">term_typedef.h</text>
</a>
</g>
</g>
<!-- 22&#45;&gt;12 -->
<g id="edge44" class="edge">
<title>22&#45;&gt;12</title>
<g id="a_edge44"><a xlink:title="include">
<path fill="none" stroke="#1414ce" d="M1384.98,-215.87C1400.76,-191.24 1429.99,-145.64 1448.41,-116.88"/>
<polygon fill="#1414ce" stroke="#1414ce" points="1451.54,-118.5 1453.98,-108.19 1445.64,-114.72 1451.54,-118.5"/>
</a>
</g>
</g>
<!-- 26&#45;&gt;18 -->
<g id="edge50" class="edge">
<title>26&#45;&gt;18</title>
<g id="a_edge50"><a xlink:title="include">
<path fill="none" stroke="#1414ce" d="M1084.95,-300.72C997.75,-292.97 812.45,-275.26 657,-252 644.96,-250.2 632.07,-247.95 619.92,-245.69"/>
<polygon fill="#1414ce" stroke="#1414ce" points="620.4,-242.22 609.92,-243.8 619.09,-249.1 620.4,-242.22"/>
</a>
</g>
</g>
<!-- 26&#45;&gt;17 -->
<g id="edge48" class="edge">
<title>26&#45;&gt;17</title>
<g id="a_edge48"><a xlink:title="include">
<path fill="none" stroke="#1414ce" d="M1084.58,-303.24C956.57,-298.36 621.6,-282.95 515,-252 464.11,-237.22 410.75,-206.67 377.45,-185.52"/>
<polygon fill="#1414ce" stroke="#1414ce" points="379.32,-182.56 369.01,-180.09 375.53,-188.45 379.32,-182.56"/>
</a>
</g>
</g>
<!-- 26&#45;&gt;4 -->
<g id="edge46" class="edge">
<title>26&#45;&gt;4</title>
<g id="a_edge46"><a xlink:title="include">
<path fill="none" stroke="#1414ce" d="M1132.03,-287.85C1125.62,-250.75 1110.42,-162.81 1102.69,-118.1"/>
<polygon fill="#1414ce" stroke="#1414ce" points="1106.13,-117.49 1100.98,-108.23 1099.23,-118.68 1106.13,-117.49"/>
</a>
</g>
</g>
<!-- 26&#45;&gt;22 -->
<g id="edge49" class="edge">
<title>26&#45;&gt;22</title>
<g id="a_edge49"><a xlink:title="include">
<path fill="none" stroke="#1414ce" d="M1185.1,-290.33C1224.94,-278.66 1280.51,-262.38 1321.07,-250.5"/>
<polygon fill="#1414ce" stroke="#1414ce" points="1322.16,-253.83 1330.77,-247.66 1320.19,-247.11 1322.16,-253.83"/>
</a>
</g>
</g>
<!-- 26&#45;&gt;11 -->
<g id="edge47" class="edge">
<title>26&#45;&gt;11</title>
<g id="a_edge47"><a xlink:title="include">
<path fill="none" stroke="#1414ce" d="M1185.06,-303.82C1245.07,-300.66 1347.37,-289.63 1426,-252 1458.32,-236.53 1488.49,-208.16 1507.72,-187.6"/>
<polygon fill="#1414ce" stroke="#1414ce" points="1510.37,-189.89 1514.53,-180.15 1505.2,-185.17 1510.37,-189.89"/>
</a>
</g>
</g>
<!-- 20&#45;&gt;2 -->
<g id="edge52" class="edge">
<title>20&#45;&gt;2</title>
<g id="a_edge52"><a xlink:title="include">
<path fill="none" stroke="#1414ce" d="M956.22,-445.19C916.47,-439.43 848.53,-425.83 798,-396 720.87,-350.46 703.97,-328.27 657,-252 630.44,-208.88 614.79,-151.31 607.35,-117.98"/>
<polygon fill="#1414ce" stroke="#1414ce" points="610.74,-117.1 605.21,-108.06 603.89,-118.57 610.74,-117.1"/>
</a>
</g>
</g>
<!-- 20&#45;&gt;25 -->
<g id="edge58" class="edge">
<title>20&#45;&gt;25</title>
<g id="a_edge58"><a xlink:title="include">
<path fill="none" stroke="#1414ce" d="M1004.82,-431.7C1012.57,-423.22 1022.04,-412.86 1030.52,-403.58"/>
<polygon fill="#1414ce" stroke="#1414ce" points="1033.2,-405.85 1037.36,-396.1 1028.03,-401.12 1033.2,-405.85"/>
</a>
</g>
</g>
<!-- 20&#45;&gt;23 -->
<g id="edge59" class="edge">
<title>20&#45;&gt;23</title>
<g id="a_edge59"><a xlink:title="include">
<path fill="none" stroke="#1414ce" d="M1021.54,-447.92C1063.83,-444.95 1138.04,-434.2 1187,-396 1255.75,-342.35 1289.82,-239.07 1302.69,-190.07"/>
<polygon fill="#1414ce" stroke="#1414ce" points="1306.13,-190.75 1305.19,-180.2 1299.34,-189.04 1306.13,-190.75"/>
</a>
</g>
</g>
<!-- 20&#45;&gt;8 -->
<g id="edge53" class="edge">
<title>20&#45;&gt;8</title>
<g id="a_edge53"><a xlink:title="include">
<path fill="none" stroke="#1414ce" d="M985.02,-431.88C969.65,-365.8 914.14,-127.08 895.3,-46.1"/>
<polygon fill="#1414ce" stroke="#1414ce" points="898.67,-45.12 892.99,-36.17 891.85,-46.7 898.67,-45.12"/>
</a>
</g>
</g>
<!-- 20&#45;&gt;4 -->
<g id="edge55" class="edge">
<title>20&#45;&gt;4</title>
<g id="a_edge55"><a xlink:title="include">
<path fill="none" stroke="#1414ce" d="M987.33,-431.74C986.01,-413.67 985.11,-384.55 990,-360 1008.61,-266.5 1058.82,-164.07 1083.67,-117.13"/>
<polygon fill="#1414ce" stroke="#1414ce" points="1086.8,-118.71 1088.43,-108.24 1080.62,-115.41 1086.8,-118.71"/>
</a>
</g>
</g>
<!-- 20&#45;&gt;22 -->
<g id="edge57" class="edge">
<title>20&#45;&gt;22</title>
<g id="a_edge57"><a xlink:title="include">
<path fill="none" stroke="#1414ce" d="M1021.75,-447.01C1069.08,-442.99 1158.25,-431.02 1225,-396 1266.78,-374.08 1270.86,-358.54 1303,-324 1321.98,-303.61 1341.58,-278.69 1355.36,-260.42"/>
<polygon fill="#1414ce" stroke="#1414ce" points="1358.45,-262.13 1361.64,-252.03 1352.85,-257.94 1358.45,-262.13"/>
</a>
</g>
</g>
<!-- 21 -->
<g id="node22" class="node">
<title>21</title>
<g id="a_node22"><a xlink:title="sys/types.h">
<polygon fill="#ffffff" stroke="black" points="904.5,-396 807.5,-396 807.5,-360 904.5,-360 904.5,-396"/>
<text text-anchor="middle" x="856" y="-374.3" font-family="Times,serif" font-size="14.00">sys/types.h</text>
</a>
</g>
</g>
<!-- 20&#45;&gt;21 -->
<g id="edge51" class="edge">
<title>20&#45;&gt;21</title>
<g id="a_edge51"><a xlink:title="include">
<path fill="none" stroke="#1414ce" d="M956.46,-431.88C938.75,-422.55 916.65,-410.92 897.68,-400.94"/>
<polygon fill="#1414ce" stroke="#1414ce" points="899.14,-397.75 888.66,-396.19 895.88,-403.94 899.14,-397.75"/>
</a>
</g>
</g>
<!-- 20&#45;&gt;5 -->
<g id="edge56" class="edge">
<title>20&#45;&gt;5</title>
<g id="a_edge56"><a xlink:title="include">
<path fill="none" stroke="#1414ce" d="M1021.68,-445.13C1078.86,-437.98 1200.53,-421.12 1301,-396 1302.47,-395.63 1303.96,-395.24 1305.46,-394.84"/>
<polygon fill="#1414ce" stroke="#1414ce" points="1306.8,-398.09 1315.43,-391.94 1304.85,-391.37 1306.8,-398.09"/>
</a>
</g>
</g>
<!-- 20&#45;&gt;12 -->
<g id="edge60" class="edge">
<title>20&#45;&gt;12</title>
<g id="a_edge60"><a xlink:title="include">
<path fill="none" stroke="#1414ce" d="M1021.64,-447.68C1074.46,-444.48 1180.93,-433.5 1262,-396 1285.25,-385.25 1285.83,-374.41 1307,-360 1439.98,-269.49 1540.36,-319.18 1621,-180 1629.02,-166.16 1630.32,-157.01 1621,-144 1601.91,-117.35 1568.65,-103.94 1537.73,-97.26"/>
<polygon fill="#1414ce" stroke="#1414ce" points="1538.28,-93.8 1527.8,-95.32 1536.94,-100.67 1538.28,-93.8"/>
</a>
</g>
</g>
<!-- 20&#45;&gt;3 -->
<g id="edge54" class="edge">
<title>20&#45;&gt;3</title>
<g id="a_edge54"><a xlink:title="include">
<path fill="none" stroke="#1414ce" d="M1021.87,-440.66C1070.51,-426.28 1159.62,-391.63 1194,-324 1228.36,-256.43 1227.02,-163.93 1223.74,-118.48"/>
<polygon fill="#1414ce" stroke="#1414ce" points="1227.21,-117.92 1222.91,-108.24 1220.23,-118.49 1227.21,-117.92"/>
</a>
</g>
</g>
<!-- 11&#45;&gt;12 -->
<g id="edge61" class="edge">
<title>11&#45;&gt;12</title>
<g id="a_edge61"><a xlink:title="include">
<path fill="none" stroke="#1414ce" d="M1513.18,-143.7C1505.43,-135.22 1495.96,-124.86 1487.48,-115.58"/>
<polygon fill="#1414ce" stroke="#1414ce" points="1489.97,-113.12 1480.64,-108.1 1484.8,-117.85 1489.97,-113.12"/>
</a>
</g>
</g>
<!-- 29&#45;&gt;6 -->
<g id="edge62" class="edge">
<title>29&#45;&gt;6</title>
<g id="a_edge62"><a xlink:title="include">
<path fill="none" stroke="#1414ce" d="M830.19,-719.7C821.87,-711.14 811.69,-700.66 802.61,-691.3"/>
<polygon fill="#1414ce" stroke="#1414ce" points="805.09,-688.84 795.62,-684.1 800.07,-693.72 805.09,-688.84"/>
</a>
</g>
</g>
<!-- 14 -->
<g id="node20" class="node">
<title>14</title>
<g id="a_node20"><a xlink:title="limits.h">
<polygon fill="#ffffff" stroke="black" points="1402.5,-36 1331.5,-36 1331.5,0 1402.5,0 1402.5,-36"/>
<text text-anchor="middle" x="1367" y="-14.3" font-family="Times,serif" font-size="14.00">limits.h</text>
</a>
</g>
</g>
<!-- 10 -->
<g id="node21" class="node">
<title>10</title>
<g id="a_node21"><a xlink:title="atom_table.h">
<polygon fill="#ffffff" stroke="black" points="775.5,-252 666.5,-252 666.5,-216 775.5,-216 775.5,-252"/>
<text text-anchor="middle" x="721" y="-230.3" font-family="Times,serif" font-size="14.00">atom_table.h</text>
</a>
</g>
</g>
<!-- 10&#45;&gt;2 -->
<g id="edge63" class="edge">
<title>10&#45;&gt;2</title>
<g id="a_edge63"><a xlink:title="include">
<path fill="none" stroke="#1414ce" d="M708.5,-215.88C695.03,-197.67 672.72,-168.21 652,-144 643.86,-134.49 634.53,-124.4 626.16,-115.62"/>
<polygon fill="#1414ce" stroke="#1414ce" points="628.56,-113.06 619.1,-108.27 623.51,-117.91 628.56,-113.06"/>
</a>
</g>
</g>
<!-- 10&#45;&gt;9 -->
<g id="edge64" class="edge">
<title>10&#45;&gt;9</title>
<g id="a_edge64"><a xlink:title="include">
<path fill="none" stroke="#1414ce" d="M742.01,-215.7C752.72,-206.88 765.89,-196.03 777.5,-186.47"/>
<polygon fill="#1414ce" stroke="#1414ce" points="779.74,-189.16 785.23,-180.1 775.29,-183.76 779.74,-189.16"/>
</a>
</g>
</g>
<!-- 12&#45;&gt;13 -->
<g id="edge65" class="edge">
<title>12&#45;&gt;13</title>
<g id="a_edge65"><a xlink:title="include">
<path fill="none" stroke="#1414ce" d="M1489.46,-71.88C1502.3,-62.89 1518.2,-51.76 1532.09,-42.03"/>
<polygon fill="#1414ce" stroke="#1414ce" points="1534.26,-44.79 1540.44,-36.19 1530.24,-39.06 1534.26,-44.79"/>
</a>
</g>
</g>
<!-- 12&#45;&gt;8 -->
<g id="edge68" class="edge">
<title>12&#45;&gt;8</title>
<g id="a_edge68"><a xlink:title="include">
<path fill="none" stroke="#1414ce" d="M1402.5,-74.59C1397.6,-73.65 1392.73,-72.77 1388,-72 1222.54,-45.03 1023.88,-28.66 935.42,-22.19"/>
<polygon fill="#1414ce" stroke="#1414ce" points="935.42,-18.68 925.19,-21.45 934.91,-25.67 935.42,-18.68"/>
</a>
</g>
</g>
<!-- 12&#45;&gt;14 -->
<g id="edge66" class="edge">
<title>12&#45;&gt;14</title>
<g id="a_edge66"><a xlink:title="include">
<path fill="none" stroke="#1414ce" d="M1441.03,-71.88C1428.45,-62.89 1412.87,-51.76 1399.25,-42.03"/>
<polygon fill="#1414ce" stroke="#1414ce" points="1401.24,-39.15 1391.07,-36.19 1397.17,-44.85 1401.24,-39.15"/>
</a>
</g>
</g>
<!-- 15 -->
<g id="node33" class="node">
<title>15</title>
<g id="a_node33"><a xlink:title="inttypes.h">
<polygon fill="#ffffff" stroke="black" points="1509.5,-36 1420.5,-36 1420.5,0 1509.5,0 1509.5,-36"/>
<text text-anchor="middle" x="1465" y="-14.3" font-family="Times,serif" font-size="14.00">inttypes.h</text>
</a>
</g>
</g>
<!-- 12&#45;&gt;15 -->
<g id="edge67" class="edge">
<title>12&#45;&gt;15</title>
<g id="a_edge67"><a xlink:title="include">
<path fill="none" stroke="#1414ce" d="M1465,-71.7C1465,-63.98 1465,-54.71 1465,-46.11"/>
<polygon fill="#1414ce" stroke="#1414ce" points="1468.5,-46.1 1465,-36.1 1461.5,-46.1 1468.5,-46.1"/>
</a>
</g>
</g>
<!-- 7&#45;&gt;9 -->
<g id="edge70" class="edge">
<title>7&#45;&gt;9</title>
<g id="a_edge70"><a xlink:title="include">
<path fill="none" stroke="#1414ce" d="M597.35,-575.82C605.56,-565.68 615.81,-552.43 624,-540 704.58,-417.74 730.41,-388.27 784,-252 791.9,-231.91 797.6,-208.13 801.22,-190.2"/>
<polygon fill="#1414ce" stroke="#1414ce" points="804.71,-190.63 803.16,-180.14 797.83,-189.3 804.71,-190.63"/>
</a>
</g>
</g>
<!-- 7&#45;&gt;18 -->
<g id="edge77" class="edge">
<title>7&#45;&gt;18</title>
<g id="a_edge77"><a xlink:title="include">
<path fill="none" stroke="#1414ce" d="M577.21,-575.56C574.11,-565.33 570.61,-552.08 569,-540 555.46,-438.35 561.26,-315.95 564.89,-262.37"/>
<polygon fill="#1414ce" stroke="#1414ce" points="568.39,-262.52 565.6,-252.3 561.4,-262.03 568.39,-262.52"/>
</a>
</g>
</g>
<!-- 7&#45;&gt;17 -->
<g id="edge74" class="edge">
<title>7&#45;&gt;17</title>
<g id="a_edge74"><a xlink:title="include">
<path fill="none" stroke="#1414ce" d="M519.47,-591.37C477.52,-586.88 424.33,-574.15 391,-540 299.28,-446.02 335.83,-382.87 325,-252 323.68,-236.05 322.26,-231.76 325,-216 326.52,-207.24 329.36,-198.01 332.39,-189.75"/>
<polygon fill="#1414ce" stroke="#1414ce" points="335.72,-190.84 336.11,-180.25 329.21,-188.29 335.72,-190.84"/>
</a>
</g>
</g>
<!-- 7&#45;&gt;8 -->
<g id="edge69" class="edge">
<title>7&#45;&gt;8</title>
<g id="a_edge69"><a xlink:title="include">
<path fill="none" stroke="#1414ce" d="M519.32,-589.3C432.57,-583.24 282.81,-568.89 237,-540 97.66,-452.13 -20.42,-361.41 57,-216 115.82,-105.53 179.06,-107.76 299,-72 400.75,-41.66 722.19,-25.78 842.74,-20.78"/>
<polygon fill="#1414ce" stroke="#1414ce" points="842.91,-24.27 852.75,-20.37 842.62,-17.28 842.91,-24.27"/>
</a>
</g>
</g>
<!-- 7&#45;&gt;20 -->
<g id="edge78" class="edge">
<title>7&#45;&gt;20</title>
<g id="a_edge78"><a xlink:title="include">
<path fill="none" stroke="#1414ce" d="M631.97,-575.87C712.31,-547.77 870.71,-492.37 946.56,-465.84"/>
<polygon fill="#1414ce" stroke="#1414ce" points="947.98,-469.05 956.27,-462.45 945.67,-462.45 947.98,-469.05"/>
</a>
</g>
</g>
<!-- 7&#45;&gt;11 -->
<g id="edge72" class="edge">
<title>7&#45;&gt;11</title>
<g id="a_edge72"><a xlink:title="include">
<path fill="none" stroke="#1414ce" d="M646.68,-587.99C723.93,-581.06 857.76,-566.32 970,-540 1165.4,-494.18 1243.41,-524 1398,-396 1466.1,-339.61 1505.39,-238.1 1521.04,-189.87"/>
<polygon fill="#1414ce" stroke="#1414ce" points="1524.43,-190.74 1524.1,-180.15 1517.76,-188.63 1524.43,-190.74"/>
</a>
</g>
</g>
<!-- 7&#45;&gt;10 -->
<g id="edge71" class="edge">
<title>7&#45;&gt;10</title>
<g id="a_edge71"><a xlink:title="include">
<path fill="none" stroke="#1414ce" d="M583,-575.95C583,-549.29 583,-496.11 583,-451 583,-451 583,-451 583,-377 583,-336.03 580.62,-319.35 607,-288 620.04,-272.5 638.61,-261.27 656.99,-253.26"/>
<polygon fill="#1414ce" stroke="#1414ce" points="658.33,-256.49 666.26,-249.46 655.68,-250.01 658.33,-256.49"/>
</a>
</g>
</g>
<!-- 7&#45;&gt;19 -->
<g id="edge76" class="edge">
<title>7&#45;&gt;19</title>
<g id="a_edge76"><a xlink:title="include">
<path fill="none" stroke="#1414ce" d="M519.17,-587.63C484.2,-581.42 442.67,-568.16 416,-540 387.91,-510.34 393,-491.86 393,-451 393,-451 393,-451 393,-377 393,-297.01 461.94,-223.19 502.36,-186.78"/>
<polygon fill="#1414ce" stroke="#1414ce" points="504.86,-189.24 510.04,-180 500.23,-183.99 504.86,-189.24"/>
</a>
</g>
</g>
<!-- 7&#45;&gt;28 -->
<g id="edge79" class="edge">
<title>7&#45;&gt;28</title>
<g id="a_edge79"><a xlink:title="include">
<path fill="none" stroke="#1414ce" d="M519.31,-583.38C408.51,-564.83 192,-519.79 192,-451 192,-451 192,-451 192,-377 192,-331.51 161.08,-286.65 138.43,-259.89"/>
<polygon fill="#1414ce" stroke="#1414ce" points="140.92,-257.42 131.71,-252.19 135.64,-262.02 140.92,-257.42"/>
</a>
</g>
</g>
<!-- 7&#45;&gt;27 -->
<g id="edge75" class="edge">
<title>7&#45;&gt;27</title>
<g id="a_edge75"><a xlink:title="include">
<path fill="none" stroke="#1414ce" d="M590.69,-575.91C601.79,-549.62 621,-497.45 621,-451 621,-451 621,-451 621,-377 621,-331.31 747.8,-279.3 822.22,-252.7"/>
<polygon fill="#1414ce" stroke="#1414ce" points="823.65,-255.91 831.91,-249.28 821.32,-249.31 823.65,-255.91"/>
</a>
</g>
</g>
<!-- 16 -->
<g id="node32" class="node">
<title>16</title>
<g id="a_node32"><a xlink:title="ets.h">
<polygon fill="#ffffff" stroke="black" points="479,-540 425,-540 425,-504 479,-504 479,-540"/>
<text text-anchor="middle" x="452" y="-518.3" font-family="Times,serif" font-size="14.00">ets.h</text>
</a>
</g>
</g>
<!-- 7&#45;&gt;16 -->
<g id="edge73" class="edge">
<title>7&#45;&gt;16</title>
<g id="a_edge73"><a xlink:title="include">
<path fill="none" stroke="#1414ce" d="M550.95,-575.88C531.99,-565.74 507.91,-552.88 488.26,-542.37"/>
<polygon fill="#1414ce" stroke="#1414ce" points="489.76,-539.21 479.29,-537.58 486.46,-545.38 489.76,-539.21"/>
</a>
</g>
</g>
<!-- 19&#45;&gt;2 -->
<g id="edge80" class="edge">
<title>19&#45;&gt;2</title>
<g id="a_edge80"><a xlink:title="include">
<path fill="none" stroke="#1414ce" d="M548.55,-143.7C557.23,-135.14 567.86,-124.66 577.35,-115.3"/>
<polygon fill="#1414ce" stroke="#1414ce" points="579.99,-117.62 584.65,-108.1 575.07,-112.63 579.99,-117.62"/>
</a>
</g>
</g>
<!-- 28&#45;&gt;2 -->
<g id="edge81" class="edge">
<title>28&#45;&gt;2</title>
<g id="a_edge81"><a xlink:title="include">
<path fill="none" stroke="#1414ce" d="M145.45,-216C182.69,-195.91 248.17,-162.85 308,-144 390.6,-117.98 490.52,-103.35 550.03,-96.33"/>
<polygon fill="#1414ce" stroke="#1414ce" points="550.77,-99.77 560.3,-95.15 549.97,-92.81 550.77,-99.77"/>
</a>
</g>
</g>
<!-- 28&#45;&gt;17 -->
<g id="edge83" class="edge">
<title>28&#45;&gt;17</title>
<g id="a_edge83"><a xlink:title="include">
<path fill="none" stroke="#1414ce" d="M164.13,-217.98C206.95,-204.89 268.13,-186.19 306.95,-174.32"/>
<polygon fill="#1414ce" stroke="#1414ce" points="308.25,-177.59 316.79,-171.32 306.21,-170.89 308.25,-177.59"/>
</a>
</g>
</g>
<!-- 28&#45;&gt;8 -->
<g id="edge82" class="edge">
<title>28&#45;&gt;8</title>
<g id="a_edge82"><a xlink:title="include">
<path fill="none" stroke="#1414ce" d="M129.89,-215.69C148.43,-195.3 182.05,-161.94 218,-144 433.67,-36.4 730.22,-20.87 842.97,-19.04"/>
<polygon fill="#1414ce" stroke="#1414ce" points="843.04,-22.53 852.99,-18.9 842.94,-15.54 843.04,-22.53"/>
</a>
</g>
</g>
<!-- 27&#45;&gt;2 -->
<g id="edge84" class="edge">
<title>27&#45;&gt;2</title>
<g id="a_edge84"><a xlink:title="include">
<path fill="none" stroke="#1414ce" d="M874.74,-215.91C873.47,-195.74 868.19,-162.59 848,-144 820.18,-118.38 717.5,-103.18 653.92,-96.01"/>
<polygon fill="#1414ce" stroke="#1414ce" points="654,-92.5 643.68,-94.89 653.24,-99.46 654,-92.5"/>
</a>
</g>
</g>
<!-- 27&#45;&gt;23 -->
<g id="edge87" class="edge">
<title>27&#45;&gt;23</title>
<g id="a_edge87"><a xlink:title="include">
<path fill="none" stroke="#1414ce" d="M918.2,-226.03C1001.99,-212.52 1185.54,-182.91 1267.75,-169.65"/>
<polygon fill="#1414ce" stroke="#1414ce" points="1268.41,-173.09 1277.73,-168.04 1267.3,-166.18 1268.41,-173.09"/>
</a>
</g>
</g>
<!-- 27&#45;&gt;17 -->
<g id="edge85" class="edge">
<title>27&#45;&gt;17</title>
<g id="a_edge85"><a xlink:title="include">
<path fill="none" stroke="#1414ce" d="M831.59,-224.3C816.55,-221.44 799.57,-218.39 784,-216 744.56,-209.95 480.13,-178.9 381.23,-167.34"/>
<polygon fill="#1414ce" stroke="#1414ce" points="381.44,-163.84 371.1,-166.16 380.62,-170.8 381.44,-163.84"/>
</a>
</g>
</g>
<!-- 27&#45;&gt;12 -->
<g id="edge86" class="edge">
<title>27&#45;&gt;12</title>
<g id="a_edge86"><a xlink:title="include">
<path fill="none" stroke="#1414ce" d="M918.38,-222.56C1018.79,-198.39 1268.03,-138.41 1392.24,-108.51"/>
<polygon fill="#1414ce" stroke="#1414ce" points="1393.15,-111.89 1402.05,-106.15 1391.51,-105.09 1393.15,-111.89"/>
</a>
</g>
</g>
<!-- 16&#45;&gt;18 -->
<g id="edge89" class="edge">
<title>16&#45;&gt;18</title>
<g id="a_edge89"><a xlink:title="include">
<path fill="none" stroke="#1414ce" d="M456.15,-503.71C466,-464.17 492.84,-364.67 531,-288 535.63,-278.69 541.69,-269.11 547.5,-260.7"/>
<polygon fill="#1414ce" stroke="#1414ce" points="550.45,-262.59 553.41,-252.41 544.75,-258.52 550.45,-262.59"/>
</a>
</g>
</g>
<!-- 16&#45;&gt;17 -->
<g id="edge88" class="edge">
<title>16&#45;&gt;17</title>
<g id="a_edge88"><a xlink:title="include">
<path fill="none" stroke="#1414ce" d="M441.12,-503.96C415.51,-462.74 351.94,-353.5 330,-252 325.52,-231.3 329.7,-207.59 334.63,-189.85"/>
<polygon fill="#1414ce" stroke="#1414ce" points="338.01,-190.75 337.56,-180.17 331.31,-188.73 338.01,-190.75"/>
</a>
</g>
</g>
<!-- 16&#45;&gt;20 -->
<g id="edge90" class="edge">
<title>16&#45;&gt;20</title>
<g id="a_edge90"><a xlink:title="include">
<path fill="none" stroke="#1414ce" d="M479.37,-517.43C566.86,-506.03 840.24,-470.39 946.32,-456.56"/>
<polygon fill="#1414ce" stroke="#1414ce" points="946.89,-460.02 956.35,-455.26 945.98,-453.08 946.89,-460.02"/>
</a>
</g>
</g>
</g>
</svg>
