<?xml version="1.0" encoding="UTF-8" standalone="no"?>
<!DOCTYPE svg PUBLIC "-//W3C//DTD SVG 1.1//EN"
 "http://www.w3.org/Graphics/SVG/1.1/DTD/svg11.dtd">
<!-- Generated by graphviz version 2.43.0 (0)
 -->
<!-- Title: %3 Pages: 1 -->
<svg width="1419pt" height="404pt"
 viewBox="0.00 0.00 1418.74 404.00" xmlns="http://www.w3.org/2000/svg" xmlns:xlink="http://www.w3.org/1999/xlink">
<g id="graph0" class="graph" transform="scale(1 1) rotate(0) translate(4 400)">
<title>%3</title>
<polygon fill="transparent" stroke="transparent" points="-4,4 -4,-400 1414.74,-400 1414.74,4 -4,4"/>
<!-- 23 -->
<g id="node1" class="node">
<title>23</title>
<g id="a_node1"><a xlink:title="SpinLock">
<polygon fill="#ffffff" stroke="black" points="1232,-324 1150,-324 1150,-288 1232,-288 1232,-324"/>
<text text-anchor="middle" x="1191" y="-302.3" font-family="Times,serif" font-size="14.00">SpinLock</text>
</a>
</g>
</g>
<!-- 6 -->
<g id="node2" class="node">
<title>6</title>
<g id="a_node2"><a xlink:title="ResourceType">
<polygon fill="#ffffff" stroke="black" points="409.5,-180 292.5,-180 292.5,-144 409.5,-144 409.5,-180"/>
<text text-anchor="middle" x="351" y="-158.3" font-family="Times,serif" font-size="14.00">ResourceType</text>
</a>
</g>
</g>
<!-- 4 -->
<g id="node5" class="node">
<title>4</title>
<g id="a_node5"><a xlink:title="ListHead">
<polygon fill="#ffffff" stroke="black" points="455.5,-36 374.5,-36 374.5,0 455.5,0 455.5,-36"/>
<text text-anchor="middle" x="415" y="-14.3" font-family="Times,serif" font-size="14.00">ListHead</text>
</a>
</g>
</g>
<!-- 6&#45;&gt;4 -->
<g id="edge3" class="edge">
<title>6&#45;&gt;4</title>
<g id="a_edge3"><a xlink:title="usage">
<path fill="none" stroke="#1414ce" d="M351.31,-143.73C352.27,-125.13 355.64,-95.11 367,-72 372.12,-61.59 379.89,-51.73 387.7,-43.39"/>
<polygon fill="#1414ce" stroke="#1414ce" points="390.27,-45.76 394.81,-36.19 385.29,-40.85 390.27,-45.76"/>
</a>
</g>
</g>
<!-- 8 -->
<g id="node8" class="node">
<title>8</title>
<g id="a_node8"><a xlink:title="GlobalContext">
<polygon fill="#ffffff" stroke="black" points="725.5,-396 606.5,-396 606.5,-360 725.5,-360 725.5,-396"/>
<text text-anchor="middle" x="666" y="-374.3" font-family="Times,serif" font-size="14.00">GlobalContext</text>
</a>
</g>
</g>
<!-- 6&#45;&gt;8 -->
<g id="edge2" class="edge">
<title>6&#45;&gt;8</title>
<g id="a_edge2"><a xlink:title="usage">
<path fill="none" stroke="#1414ce" d="M353.63,-180.17C359.66,-213.4 377.72,-286.55 424,-324 450.13,-345.14 534.56,-360.23 596.36,-368.77"/>
<polygon fill="#1414ce" stroke="#1414ce" points="596.08,-372.26 606.46,-370.13 597.02,-365.32 596.08,-372.26"/>
</a>
</g>
</g>
<!-- 7 -->
<g id="node22" class="node">
<title>7</title>
<g id="a_node22"><a xlink:title="SyncList">
<polygon fill="#ffffff" stroke="black" points="454,-108 376,-108 376,-72 454,-72 454,-108"/>
<text text-anchor="middle" x="415" y="-86.3" font-family="Times,serif" font-size="14.00">SyncList</text>
</a>
</g>
</g>
<!-- 6&#45;&gt;7 -->
<g id="edge1" class="edge">
<title>6&#45;&gt;7</title>
<g id="a_edge1"><a xlink:title="usage">
<path fill="none" stroke="#1414ce" d="M366.82,-143.7C374.57,-135.22 384.04,-124.86 392.52,-115.58"/>
<polygon fill="#1414ce" stroke="#1414ce" points="395.2,-117.85 399.36,-108.1 390.03,-113.12 395.2,-117.85"/>
</a>
</g>
</g>
<!-- 18 -->
<g id="node3" class="node">
<title>18</title>
<g id="a_node3"><a xlink:title="Module">
<polygon fill="#ffffff" stroke="black" points="701,-324 631,-324 631,-288 701,-288 701,-324"/>
<text text-anchor="middle" x="666" y="-302.3" font-family="Times,serif" font-size="14.00">Module</text>
</a>
</g>
</g>
<!-- 18&#45;&gt;4 -->
<g id="edge6" class="edge">
<title>18&#45;&gt;4</title>
<g id="a_edge6"><a xlink:title="usage">
<path fill="none" stroke="#1414ce" d="M639.25,-287.84C627.01,-278.64 613.39,-266.27 605,-252 563.54,-181.53 621.02,-133.38 567,-72 541.48,-43.01 499.22,-29.87 465.72,-23.92"/>
<polygon fill="#1414ce" stroke="#1414ce" points="466.07,-20.43 455.64,-22.3 464.96,-27.34 466.07,-20.43"/>
</a>
</g>
</g>
<!-- 20 -->
<g id="node13" class="node">
<title>20</title>
<g id="a_node13"><a xlink:title="LiteralEntry">
<polygon fill="#ffffff" stroke="black" points="718,-252 614,-252 614,-216 718,-216 718,-252"/>
<text text-anchor="middle" x="666" y="-230.3" font-family="Times,serif" font-size="14.00">LiteralEntry</text>
</a>
</g>
</g>
<!-- 18&#45;&gt;20 -->
<g id="edge5" class="edge">
<title>18&#45;&gt;20</title>
<g id="a_edge5"><a xlink:title="usage">
<path fill="none" stroke="#1414ce" d="M666,-287.7C666,-279.98 666,-270.71 666,-262.11"/>
<polygon fill="#1414ce" stroke="#1414ce" points="669.5,-262.1 666,-252.1 662.5,-262.1 669.5,-262.1"/>
</a>
</g>
</g>
<!-- 19 -->
<g id="node21" class="node">
<title>19</title>
<g id="a_node21"><a xlink:title="ExportedFunction">
<polygon fill="#ffffff" stroke="black" points="882,-252 736,-252 736,-216 882,-216 882,-252"/>
<text text-anchor="middle" x="809" y="-230.3" font-family="Times,serif" font-size="14.00">ExportedFunction</text>
</a>
</g>
</g>
<!-- 18&#45;&gt;19 -->
<g id="edge4" class="edge">
<title>18&#45;&gt;19</title>
<g id="a_edge4"><a xlink:title="usage">
<path fill="none" stroke="#1414ce" d="M700.98,-287.88C720.2,-278.47 744.23,-266.71 764.74,-256.67"/>
<polygon fill="#1414ce" stroke="#1414ce" points="766.44,-259.73 773.88,-252.19 763.36,-253.44 766.44,-259.73"/>
</a>
</g>
</g>
<!-- 2 -->
<g id="node4" class="node">
<title>2</title>
<g id="a_node4"><a xlink:title="AVMPackData">
<polygon fill="#ffffff" stroke="black" points="147.5,-252 30.5,-252 30.5,-216 147.5,-216 147.5,-252"/>
<text text-anchor="middle" x="89" y="-230.3" font-family="Times,serif" font-size="14.00">AVMPackData</text>
</a>
</g>
</g>
<!-- 2&#45;&gt;4 -->
<g id="edge8" class="edge">
<title>2&#45;&gt;4</title>
<g id="a_edge8"><a xlink:title="usage">
<path fill="none" stroke="#1414ce" d="M88.15,-215.89C88.1,-196.32 90.96,-164.35 108,-144 173.46,-65.84 295.34,-36 364.2,-25.03"/>
<polygon fill="#1414ce" stroke="#1414ce" points="365.01,-28.44 374.38,-23.48 363.96,-21.52 365.01,-28.44"/>
</a>
</g>
</g>
<!-- 3 -->
<g id="node9" class="node">
<title>3</title>
<g id="a_node9"><a xlink:title="AVMPackInfo">
<polygon fill="#ffffff" stroke="black" points="228.5,-180 117.5,-180 117.5,-144 228.5,-144 228.5,-180"/>
<text text-anchor="middle" x="173" y="-158.3" font-family="Times,serif" font-size="14.00">AVMPackInfo</text>
</a>
</g>
</g>
<!-- 2&#45;&gt;3 -->
<g id="edge7" class="edge">
<title>2&#45;&gt;3</title>
<g id="a_edge7"><a xlink:title="usage">
<path fill="none" stroke="#1414ce" d="M109.76,-215.7C120.24,-206.97 133.11,-196.24 144.5,-186.75"/>
<polygon fill="#1414ce" stroke="#1414ce" points="147.03,-189.19 152.47,-180.1 142.55,-183.82 147.03,-189.19"/>
</a>
</g>
</g>
<!-- 4&#45;&gt;4 -->
<g id="edge9" class="edge">
<title>4&#45;&gt;4</title>
<g id="a_edge9"><a xlink:title="usage">
<path fill="none" stroke="#1414ce" d="M455.73,-31.31C465.9,-30.38 473.5,-25.95 473.5,-18 473.5,-12.91 470.38,-9.26 465.47,-7.05"/>
<polygon fill="#1414ce" stroke="#1414ce" points="466.28,-3.64 455.73,-4.69 464.63,-10.45 466.28,-3.64"/>
</a>
</g>
</g>
<!-- 15 -->
<g id="node6" class="node">
<title>15</title>
<g id="a_node6"><a xlink:title="HeapFragment">
<polygon fill="#ffffff" stroke="black" points="1385.5,-36 1260.5,-36 1260.5,0 1385.5,0 1385.5,-36"/>
<text text-anchor="middle" x="1323" y="-14.3" font-family="Times,serif" font-size="14.00">HeapFragment</text>
</a>
</g>
</g>
<!-- 15&#45;&gt;15 -->
<g id="edge10" class="edge">
<title>15&#45;&gt;15</title>
<g id="a_edge10"><a xlink:title="usage">
<path fill="none" stroke="#1414ce" d="M1385.78,-30.55C1396.26,-28.79 1403.5,-24.61 1403.5,-18 1403.5,-13.77 1400.53,-10.53 1395.64,-8.29"/>
<polygon fill="#1414ce" stroke="#1414ce" points="1396.36,-4.85 1385.78,-5.45 1394.42,-11.58 1396.36,-4.85"/>
</a>
</g>
</g>
<!-- 17 -->
<g id="node7" class="node">
<title>17</title>
<g id="a_node7"><a xlink:title="RefcBinaryQueueItem">
<polygon fill="#ffffff" stroke="black" points="354,-324 180,-324 180,-288 354,-288 354,-324"/>
<text text-anchor="middle" x="267" y="-302.3" font-family="Times,serif" font-size="14.00">RefcBinaryQueueItem</text>
</a>
</g>
</g>
<!-- 17&#45;&gt;17 -->
<g id="edge12" class="edge">
<title>17&#45;&gt;17</title>
<g id="a_edge12"><a xlink:title="usage">
<path fill="none" stroke="#1414ce" d="M354.3,-317.68C364.99,-315.59 372,-311.7 372,-306 372,-302.35 369.12,-299.44 364.25,-297.27"/>
<polygon fill="#1414ce" stroke="#1414ce" points="364.88,-293.81 354.3,-294.32 362.89,-300.52 364.88,-293.81"/>
</a>
</g>
</g>
<!-- 5 -->
<g id="node19" class="node">
<title>5</title>
<g id="a_node19"><a xlink:title="RefcBinary">
<polygon fill="#ffffff" stroke="black" points="312.5,-252 217.5,-252 217.5,-216 312.5,-216 312.5,-252"/>
<text text-anchor="middle" x="265" y="-230.3" font-family="Times,serif" font-size="14.00">RefcBinary</text>
</a>
</g>
</g>
<!-- 17&#45;&gt;5 -->
<g id="edge11" class="edge">
<title>17&#45;&gt;5</title>
<g id="a_edge11"><a xlink:title="usage">
<path fill="none" stroke="#1414ce" d="M266.51,-287.7C266.29,-279.98 266.02,-270.71 265.77,-262.11"/>
<polygon fill="#1414ce" stroke="#1414ce" points="269.27,-262 265.49,-252.1 262.28,-262.2 269.27,-262"/>
</a>
</g>
</g>
<!-- 8&#45;&gt;23 -->
<g id="edge21" class="edge">
<title>8&#45;&gt;23</title>
<g id="a_edge21"><a xlink:title="usage">
<path fill="none" stroke="#1414ce" d="M725.55,-373.87C815.32,-368.35 990.32,-354.45 1136,-324 1137.27,-323.74 1138.54,-323.45 1139.83,-323.16"/>
<polygon fill="#1414ce" stroke="#1414ce" points="1140.93,-326.49 1149.77,-320.65 1139.22,-319.7 1140.93,-326.49"/>
</a>
</g>
</g>
<!-- 8&#45;&gt;18 -->
<g id="edge18" class="edge">
<title>8&#45;&gt;18</title>
<g id="a_edge18"><a xlink:title="usage">
<path fill="none" stroke="#1414ce" d="M666,-359.7C666,-351.98 666,-342.71 666,-334.11"/>
<polygon fill="#1414ce" stroke="#1414ce" points="669.5,-334.1 666,-324.1 662.5,-334.1 669.5,-334.1"/>
</a>
</g>
</g>
<!-- 8&#45;&gt;4 -->
<g id="edge22" class="edge">
<title>8&#45;&gt;4</title>
<g id="a_edge22"><a xlink:title="usage">
<path fill="none" stroke="#1414ce" d="M725.72,-376.93C792.15,-374.66 901.15,-364.35 985,-324 1038.32,-298.35 1084,-294.17 1084,-235 1084,-235 1084,-235 1084,-161 1084,-34.78 622.54,-20.27 466.13,-18.98"/>
<polygon fill="#1414ce" stroke="#1414ce" points="465.87,-15.48 455.84,-18.91 465.82,-22.48 465.87,-15.48"/>
</a>
</g>
</g>
<!-- 8&#45;&gt;17 -->
<g id="edge16" class="edge">
<title>8&#45;&gt;17</title>
<g id="a_edge16"><a xlink:title="usage">
<path fill="none" stroke="#1414ce" d="M606.27,-366.52C542.29,-355.3 439.77,-337.31 364.16,-324.05"/>
<polygon fill="#1414ce" stroke="#1414ce" points="364.6,-320.57 354.14,-322.29 363.39,-327.46 364.6,-320.57"/>
</a>
</g>
</g>
<!-- 9 -->
<g id="node10" class="node">
<title>9</title>
<g id="a_node10"><a xlink:title="Ets">
<polygon fill="#ffffff" stroke="black" points="520,-180 466,-180 466,-144 520,-144 520,-180"/>
<text text-anchor="middle" x="493" y="-158.3" font-family="Times,serif" font-size="14.00">Ets</text>
</a>
</g>
</g>
<!-- 8&#45;&gt;9 -->
<g id="edge13" class="edge">
<title>8&#45;&gt;9</title>
<g id="a_edge13"><a xlink:title="usage">
<path fill="none" stroke="#1414ce" d="M606.33,-365.72C580.75,-358.01 552.55,-345.18 534,-324 500.94,-286.24 493.88,-225.43 492.75,-190.35"/>
<polygon fill="#1414ce" stroke="#1414ce" points="496.25,-190.28 492.57,-180.34 489.25,-190.41 496.25,-190.28"/>
</a>
</g>
</g>
<!-- 22 -->
<g id="node12" class="node">
<title>22</title>
<g id="a_node12"><a xlink:title="TimerList">
<polygon fill="#ffffff" stroke="black" points="558,-108 472,-108 472,-72 558,-72 558,-108"/>
<text text-anchor="middle" x="515" y="-86.3" font-family="Times,serif" font-size="14.00">TimerList</text>
</a>
</g>
</g>
<!-- 8&#45;&gt;22 -->
<g id="edge20" class="edge">
<title>8&#45;&gt;22</title>
<g id="a_edge20"><a xlink:title="usage">
<path fill="none" stroke="#1414ce" d="M650.95,-359.64C642.26,-349.44 631.26,-336.19 622,-324 598.42,-292.98 589.77,-286.67 572,-252 548.93,-207 531.3,-150.5 522.1,-117.8"/>
<polygon fill="#1414ce" stroke="#1414ce" points="525.45,-116.77 519.42,-108.06 518.7,-118.63 525.45,-116.77"/>
</a>
</g>
</g>
<!-- 10 -->
<g id="node17" class="node">
<title>10</title>
<g id="a_node17"><a xlink:title="MessageQueueItem">
<polygon fill="#ffffff" stroke="black" points="958,-324 800,-324 800,-288 958,-288 958,-324"/>
<text text-anchor="middle" x="879" y="-302.3" font-family="Times,serif" font-size="14.00">MessageQueueItem</text>
</a>
</g>
</g>
<!-- 8&#45;&gt;10 -->
<g id="edge14" class="edge">
<title>8&#45;&gt;10</title>
<g id="a_edge14"><a xlink:title="usage">
<path fill="none" stroke="#1414ce" d="M717.83,-359.97C747.85,-350.1 785.82,-337.62 817.37,-327.25"/>
<polygon fill="#1414ce" stroke="#1414ce" points="818.53,-330.56 826.93,-324.11 816.34,-323.91 818.53,-330.56"/>
</a>
</g>
</g>
<!-- 21 -->
<g id="node18" class="node">
<title>21</title>
<g id="a_node18"><a xlink:title="AtomsHashTable">
<polygon fill="#ffffff" stroke="black" points="1249.5,-252 1112.5,-252 1112.5,-216 1249.5,-216 1249.5,-252"/>
<text text-anchor="middle" x="1181" y="-230.3" font-family="Times,serif" font-size="14.00">AtomsHashTable</text>
</a>
</g>
</g>
<!-- 8&#45;&gt;21 -->
<g id="edge19" class="edge">
<title>8&#45;&gt;21</title>
<g id="a_edge19"><a xlink:title="usage">
<path fill="none" stroke="#1414ce" d="M725.8,-374.69C828.69,-369.89 1034.29,-356.46 1098,-324 1112.99,-316.36 1141.44,-283.8 1160.81,-260.27"/>
<polygon fill="#1414ce" stroke="#1414ce" points="1163.64,-262.34 1167.25,-252.37 1158.21,-257.91 1163.64,-262.34"/>
</a>
</g>
</g>
<!-- 12 -->
<g id="node20" class="node">
<title>12</title>
<g id="a_node20"><a xlink:title="AtomTable">
<polygon fill="#ffffff" stroke="black" points="1369,-324 1277,-324 1277,-288 1369,-288 1369,-324"/>
<text text-anchor="middle" x="1323" y="-302.3" font-family="Times,serif" font-size="14.00">AtomTable</text>
</a>
</g>
</g>
<!-- 8&#45;&gt;12 -->
<g id="edge15" class="edge">
<title>8&#45;&gt;12</title>
<g id="a_edge15"><a xlink:title="usage">
<path fill="none" stroke="#1414ce" d="M725.86,-373.71C830.69,-367.45 1054.1,-351.9 1241,-324 1249.37,-322.75 1258.18,-321.19 1266.78,-319.52"/>
<polygon fill="#1414ce" stroke="#1414ce" points="1267.64,-322.92 1276.76,-317.53 1266.27,-316.06 1267.64,-322.92"/>
</a>
</g>
</g>
<!-- 8&#45;&gt;7 -->
<g id="edge17" class="edge">
<title>8&#45;&gt;7</title>
<g id="a_edge17"><a xlink:title="usage">
<path fill="none" stroke="#1414ce" d="M606.44,-369.21C574.11,-362.21 535.47,-348.98 509,-324 448.69,-267.08 426.11,-166.2 418.49,-118.04"/>
<polygon fill="#1414ce" stroke="#1414ce" points="421.94,-117.44 417.01,-108.06 415.01,-118.47 421.94,-117.44"/>
</a>
</g>
</g>
<!-- 9&#45;&gt;7 -->
<g id="edge23" class="edge">
<title>9&#45;&gt;7</title>
<g id="a_edge23"><a xlink:title="usage">
<path fill="none" stroke="#1414ce" d="M473.72,-143.7C464.08,-135.05 452.27,-124.45 441.77,-115.03"/>
<polygon fill="#1414ce" stroke="#1414ce" points="443.84,-112.18 434.06,-108.1 439.16,-117.39 443.84,-112.18"/>
</a>
</g>
</g>
<!-- 16 -->
<g id="node11" class="node">
<title>16</title>
<g id="a_node11"><a xlink:title="HNodeGroup">
<polygon fill="#ffffff" stroke="black" points="1378,-252 1268,-252 1268,-216 1378,-216 1378,-252"/>
<text text-anchor="middle" x="1323" y="-230.3" font-family="Times,serif" font-size="14.00">HNodeGroup</text>
</a>
</g>
</g>
<!-- 16&#45;&gt;16 -->
<g id="edge25" class="edge">
<title>16&#45;&gt;16</title>
<g id="a_edge25"><a xlink:title="usage">
<path fill="none" stroke="#1414ce" d="M1378.07,-246.85C1388.57,-245.32 1396,-241.03 1396,-234 1396,-229.5 1392.95,-226.12 1388,-223.87"/>
<polygon fill="#1414ce" stroke="#1414ce" points="1388.64,-220.42 1378.07,-221.15 1386.79,-227.17 1388.64,-220.42"/>
</a>
</g>
</g>
<!-- 13 -->
<g id="node23" class="node">
<title>13</title>
<g id="a_node23"><a xlink:title="HNode">
<polygon fill="#ffffff" stroke="black" points="1356,-180 1290,-180 1290,-144 1356,-144 1356,-180"/>
<text text-anchor="middle" x="1323" y="-158.3" font-family="Times,serif" font-size="14.00">HNode</text>
</a>
</g>
</g>
<!-- 16&#45;&gt;13 -->
<g id="edge24" class="edge">
<title>16&#45;&gt;13</title>
<g id="a_edge24"><a xlink:title="usage">
<path fill="none" stroke="#1414ce" d="M1323,-215.7C1323,-207.98 1323,-198.71 1323,-190.11"/>
<polygon fill="#1414ce" stroke="#1414ce" points="1326.5,-190.1 1323,-180.1 1319.5,-190.1 1326.5,-190.1"/>
</a>
</g>
</g>
<!-- 22&#45;&gt;4 -->
<g id="edge26" class="edge">
<title>22&#45;&gt;4</title>
<g id="a_edge26"><a xlink:title="usage">
<path fill="none" stroke="#1414ce" d="M490.54,-71.88C477.7,-62.89 461.8,-51.76 447.91,-42.03"/>
<polygon fill="#1414ce" stroke="#1414ce" points="449.76,-39.06 439.56,-36.19 445.74,-44.79 449.76,-39.06"/>
</a>
</g>
</g>
<!-- 11 -->
<g id="node14" class="node">
<title>11</title>
<g id="a_node14"><a xlink:title="MailboxMessage">
<polygon fill="#ffffff" stroke="black" points="1037.5,-252 900.5,-252 900.5,-216 1037.5,-216 1037.5,-252"/>
<text text-anchor="middle" x="969" y="-230.3" font-family="Times,serif" font-size="14.00">MailboxMessage</text>
</a>
</g>
</g>
<!-- 11&#45;&gt;11 -->
<g id="edge27" class="edge">
<title>11&#45;&gt;11</title>
<g id="a_edge27"><a xlink:title="usage">
<path fill="none" stroke="#1414ce" d="M1037.53,-246.37C1048.21,-244.52 1055.5,-240.4 1055.5,-234 1055.5,-229.8 1052.36,-226.58 1047.18,-224.34"/>
<polygon fill="#1414ce" stroke="#1414ce" points="1048.1,-220.96 1037.53,-221.63 1046.21,-227.7 1048.1,-220.96"/>
</a>
</g>
</g>
<!-- 14 -->
<g id="node15" class="node">
<title>14</title>
<g id="a_node15"><a xlink:title="Heap">
<polygon fill="#ffffff" stroke="black" points="1350,-108 1296,-108 1296,-72 1350,-72 1350,-108"/>
<text text-anchor="middle" x="1323" y="-86.3" font-family="Times,serif" font-size="14.00">Heap</text>
</a>
</g>
</g>
<!-- 14&#45;&gt;15 -->
<g id="edge28" class="edge">
<title>14&#45;&gt;15</title>
<g id="a_edge28"><a xlink:title="usage">
<path fill="none" stroke="#1414ce" d="M1323,-71.7C1323,-63.98 1323,-54.71 1323,-46.11"/>
<polygon fill="#1414ce" stroke="#1414ce" points="1326.5,-46.1 1323,-36.1 1319.5,-46.1 1326.5,-46.1"/>
</a>
</g>
</g>
<!-- 1 -->
<g id="node16" class="node">
<title>1</title>
<g id="a_node16"><a xlink:title="RefcBinaryAVMPack">
<polygon fill="#bfbfbf" stroke="black" points="162,-324 0,-324 0,-288 162,-288 162,-324"/>
<text text-anchor="middle" x="81" y="-302.3" font-family="Times,serif" font-size="14.00">RefcBinaryAVMPack</text>
</a>
</g>
</g>
<!-- 1&#45;&gt;2 -->
<g id="edge29" class="edge">
<title>1&#45;&gt;2</title>
<g id="a_edge29"><a xlink:title="usage">
<path fill="none" stroke="#1414ce" d="M82.98,-287.7C83.86,-279.98 84.92,-270.71 85.9,-262.11"/>
<polygon fill="#1414ce" stroke="#1414ce" points="89.39,-262.44 87.05,-252.1 82.43,-261.64 89.39,-262.44"/>
</a>
</g>
</g>
<!-- 1&#45;&gt;5 -->
<g id="edge30" class="edge">
<title>1&#45;&gt;5</title>
<g id="a_edge30"><a xlink:title="usage">
<path fill="none" stroke="#1414ce" d="M126.01,-287.88C151.5,-278.18 183.57,-265.98 210.48,-255.74"/>
<polygon fill="#1414ce" stroke="#1414ce" points="212.03,-258.9 220.13,-252.07 209.54,-252.35 212.03,-258.9"/>
</a>
</g>
</g>
<!-- 10&#45;&gt;11 -->
<g id="edge31" class="edge">
<title>10&#45;&gt;11</title>
<g id="a_edge31"><a xlink:title="usage">
<path fill="none" stroke="#1414ce" d="M901.25,-287.7C912.58,-278.88 926.53,-268.03 938.82,-258.47"/>
<polygon fill="#1414ce" stroke="#1414ce" points="941.26,-261.01 947.01,-252.1 936.97,-255.48 941.26,-261.01"/>
</a>
</g>
</g>
<!-- 10&#45;&gt;10 -->
<g id="edge32" class="edge">
<title>10&#45;&gt;10</title>
<g id="a_edge32"><a xlink:title="usage">
<path fill="none" stroke="#1414ce" d="M958.16,-317.98C968.87,-315.97 976,-311.98 976,-306 976,-302.08 972.93,-299.01 967.79,-296.8"/>
<polygon fill="#1414ce" stroke="#1414ce" points="968.74,-293.43 958.16,-294.02 966.8,-300.15 968.74,-293.43"/>
</a>
</g>
</g>
<!-- 21&#45;&gt;13 -->
<g id="edge33" class="edge">
<title>21&#45;&gt;13</title>
<g id="a_edge33"><a xlink:title="usage">
<path fill="none" stroke="#1414ce" d="M1215.74,-215.88C1235.25,-206.26 1259.75,-194.18 1280.41,-184"/>
<polygon fill="#1414ce" stroke="#1414ce" points="1282.18,-187.03 1289.6,-179.47 1279.08,-180.75 1282.18,-187.03"/>
</a>
</g>
</g>
<!-- 5&#45;&gt;6 -->
<g id="edge34" class="edge">
<title>5&#45;&gt;6</title>
<g id="a_edge34"><a xlink:title="usage">
<path fill="none" stroke="#1414ce" d="M286.26,-215.7C297.09,-206.88 310.42,-196.03 322.16,-186.47"/>
<polygon fill="#1414ce" stroke="#1414ce" points="324.44,-189.13 329.99,-180.1 320.02,-183.7 324.44,-189.13"/>
</a>
</g>
</g>
<!-- 5&#45;&gt;4 -->
<g id="edge35" class="edge">
<title>5&#45;&gt;4</title>
<g id="a_edge35"><a xlink:title="usage">
<path fill="none" stroke="#1414ce" d="M265.64,-215.99C266.95,-197.36 270.95,-167.05 283,-144 305.59,-100.8 348.98,-64.22 379.85,-42"/>
<polygon fill="#1414ce" stroke="#1414ce" points="382.03,-44.74 388.19,-36.12 378,-39.02 382.03,-44.74"/>
</a>
</g>
</g>
<!-- 12&#45;&gt;16 -->
<g id="edge37" class="edge">
<title>12&#45;&gt;16</title>
<g id="a_edge37"><a xlink:title="usage">
<path fill="none" stroke="#1414ce" d="M1323,-287.7C1323,-279.98 1323,-270.71 1323,-262.11"/>
<polygon fill="#1414ce" stroke="#1414ce" points="1326.5,-262.1 1323,-252.1 1319.5,-262.1 1326.5,-262.1"/>
</a>
</g>
</g>
<!-- 12&#45;&gt;13 -->
<g id="edge36" class="edge">
<title>12&#45;&gt;13</title>
<g id="a_edge36"><a xlink:title="usage">
<path fill="none" stroke="#1414ce" d="M1365.62,-287.99C1380.87,-279.58 1396.41,-267.78 1405,-252 1412.65,-237.95 1412.65,-230.05 1405,-216 1396.33,-200.07 1380.58,-188.2 1365.19,-179.77"/>
<polygon fill="#1414ce" stroke="#1414ce" points="1366.72,-176.63 1356.22,-175.21 1363.54,-182.86 1366.72,-176.63"/>
</a>
</g>
</g>
<!-- 7&#45;&gt;4 -->
<g id="edge38" class="edge">
<title>7&#45;&gt;4</title>
<g id="a_edge38"><a xlink:title="usage">
<path fill="none" stroke="#1414ce" d="M415,-71.7C415,-63.98 415,-54.71 415,-46.11"/>
<polygon fill="#1414ce" stroke="#1414ce" points="418.5,-46.1 415,-36.1 411.5,-46.1 418.5,-46.1"/>
</a>
</g>
</g>
<!-- 13&#45;&gt;14 -->
<g id="edge40" class="edge">
<title>13&#45;&gt;14</title>
<g id="a_edge40"><a xlink:title="usage">
<path fill="none" stroke="#1414ce" d="M1323,-143.7C1323,-135.98 1323,-126.71 1323,-118.11"/>
<polygon fill="#1414ce" stroke="#1414ce" points="1326.5,-118.1 1323,-108.1 1319.5,-118.1 1326.5,-118.1"/>
</a>
</g>
</g>
<!-- 13&#45;&gt;13 -->
<g id="edge39" class="edge">
<title>13&#45;&gt;13</title>
<g id="a_edge39"><a xlink:title="usage">
<path fill="none" stroke="#1414ce" d="M1356.35,-175.47C1366.28,-175.07 1374,-170.58 1374,-162 1374,-156.64 1370.98,-152.87 1366.3,-150.71"/>
<polygon fill="#1414ce" stroke="#1414ce" points="1366.87,-147.25 1356.35,-148.53 1365.37,-154.09 1366.87,-147.25"/>
</a>
</g>
</g>
</g>
</svg>
