<?xml version="1.0" encoding="UTF-8" standalone="no"?>
<!DOCTYPE svg PUBLIC "-//W3C//DTD SVG 1.1//EN"
 "http://www.w3.org/Graphics/SVG/1.1/DTD/svg11.dtd">
<!-- Generated by graphviz version 9.0.0 (0)
 -->
<!-- Title: g Pages: 1 -->
<svg width="394pt" height="304pt"
 viewBox="0.00 0.00 394.25 303.50" xmlns="http://www.w3.org/2000/svg" xmlns:xlink="http://www.w3.org/1999/xlink">
<g id="graph0" class="graph" transform="scale(1 1) rotate(0) translate(4 299.5)">
<title>g</title>
<polygon fill="white" stroke="none" points="-4,4 -4,-299.5 390.25,-299.5 390.25,4 -4,4"/>
<!-- GlobalContext -->
<g id="node1" class="node">
<title>GlobalContext</title>
<path fill="none" stroke="black" d="M12,-147.5C12,-147.5 140.5,-147.5 140.5,-147.5 146.5,-147.5 152.5,-153.5 152.5,-159.5 152.5,-159.5 152.5,-273 152.5,-273 152.5,-279 146.5,-285 140.5,-285 140.5,-285 12,-285 12,-285 6,-285 0,-279 0,-273 0,-273 0,-159.5 0,-159.5 0,-153.5 6,-147.5 12,-147.5"/>
<text text-anchor="middle" x="76.25" y="-265.8" font-family="Courier,monospace" font-size="16.00">GlobalContext</text>
<polyline fill="none" stroke="black" points="0,-257.5 152.5,-257.5"/>
<text text-anchor="middle" x="76.25" y="-238.3" font-family="Courier,monospace" font-size="16.00">...</text>
<polyline fill="none" stroke="black" points="0,-230 152.5,-230"/>
<text text-anchor="middle" x="76.25" y="-210.8" font-family="Courier,monospace" font-size="16.00">atoms_table</text>
<polyline fill="none" stroke="black" points="0,-202.5 152.5,-202.5"/>
<text text-anchor="middle" x="76.25" y="-183.3" font-family="Courier,monospace" font-size="16.00">atoms_id_table</text>
<polyline fill="none" stroke="black" points="0,-175 152.5,-175"/>
<text text-anchor="middle" x="76.25" y="-155.8" font-family="Courier,monospace" font-size="16.00">...</text>
</g>
<!-- AtomsTable -->
<g id="node2" class="node">
<title>AtomsTable</title>
<path fill="none" stroke="black" d="M200.5,-157.5C200.5,-157.5 374.25,-157.5 374.25,-157.5 380.25,-157.5 386.25,-163.5 386.25,-169.5 386.25,-169.5 386.25,-283 386.25,-283 386.25,-289 380.25,-295 374.25,-295 374.25,-295 200.5,-295 200.5,-295 194.5,-295 188.5,-289 188.5,-283 188.5,-283 188.5,-169.5 188.5,-169.5 188.5,-163.5 194.5,-157.5 200.5,-157.5"/>
<text text-anchor="middle" x="287.38" y="-275.8" font-family="Courier,monospace" font-size="16.00">AtomsHashtable</text>
<polyline fill="none" stroke="black" points="188.5,-267.5 386.25,-267.5"/>
<text text-anchor="middle" x="245.25" y="-248.3" font-family="Courier,monospace" font-size="16.00">AtomString</text>
<polyline fill="none" stroke="black" points="188.5,-240 302,-240"/>
<text text-anchor="middle" x="245.25" y="-220.8" font-family="Courier,monospace" font-size="16.00">\x2ok</text>
<polyline fill="none" stroke="black" points="188.5,-212.5 302,-212.5"/>
<text text-anchor="middle" x="245.25" y="-193.3" font-family="Courier,monospace" font-size="16.00">\x5error</text>
<polyline fill="none" stroke="black" points="188.5,-185 302,-185"/>
<text text-anchor="middle" x="245.25" y="-165.8" font-family="Courier,monospace" font-size="16.00">...</text>
<polyline fill="none" stroke="black" points="302,-157.5 302,-267.5"/>
<text text-anchor="middle" x="344.12" y="-248.3" font-family="Courier,monospace" font-size="16.00">atom_id</text>
<polyline fill="none" stroke="black" points="302,-240 386.25,-240"/>
<text text-anchor="middle" x="344.12" y="-220.8" font-family="Courier,monospace" font-size="16.00">0</text>
<polyline fill="none" stroke="black" points="302,-212.5 386.25,-212.5"/>
<text text-anchor="middle" x="344.12" y="-193.3" font-family="Courier,monospace" font-size="16.00">1</text>
<polyline fill="none" stroke="black" points="302,-185 386.25,-185"/>
<text text-anchor="middle" x="344.12" y="-165.8" font-family="Courier,monospace" font-size="16.00">...</text>
</g>
<!-- GlobalContext&#45;&gt;AtomsTable -->
<g id="edge1" class="edge">
<title>GlobalContext:at&#45;&gt;AtomsTable:f0</title>
<path fill="none" stroke="black" d="M152.5,-216.25C180.88,-216.25 162.68,-264.25 177.96,-277.76"/>
<polygon fill="black" stroke="black" points="176.47,-280.95 187.06,-280.77 178.67,-274.3 176.47,-280.95"/>
</g>
<!-- AtomsIDTable -->
<g id="node3" class="node">
<title>AtomsIDTable</title>
<path fill="none" stroke="black" d="M200.5,-0.5C200.5,-0.5 374.25,-0.5 374.25,-0.5 380.25,-0.5 386.25,-6.5 386.25,-12.5 386.25,-12.5 386.25,-126 386.25,-126 386.25,-132 380.25,-138 374.25,-138 374.25,-138 200.5,-138 200.5,-138 194.5,-138 188.5,-132 188.5,-126 188.5,-126 188.5,-12.5 188.5,-12.5 188.5,-6.5 194.5,-0.5 200.5,-0.5"/>
<text text-anchor="middle" x="287.38" y="-118.8" font-family="Courier,monospace" font-size="16.00">ValuesHashtable</text>
<polyline fill="none" stroke="black" points="188.5,-110.5 386.25,-110.5"/>
<text text-anchor="middle" x="230.62" y="-91.3" font-family="Courier,monospace" font-size="16.00">atom_id</text>
<polyline fill="none" stroke="black" points="188.5,-83 272.75,-83"/>
<text text-anchor="middle" x="230.62" y="-63.8" font-family="Courier,monospace" font-size="16.00">0</text>
<polyline fill="none" stroke="black" points="188.5,-55.5 272.75,-55.5"/>
<text text-anchor="middle" x="230.62" y="-36.3" font-family="Courier,monospace" font-size="16.00">1</text>
<polyline fill="none" stroke="black" points="188.5,-28 272.75,-28"/>
<text text-anchor="middle" x="230.62" y="-8.8" font-family="Courier,monospace" font-size="16.00">...</text>
<polyline fill="none" stroke="black" points="272.75,-0.5 272.75,-110.5"/>
<text text-anchor="middle" x="329.5" y="-91.3" font-family="Courier,monospace" font-size="16.00">AtomString</text>
<polyline fill="none" stroke="black" points="272.75,-83 386.25,-83"/>
<text text-anchor="middle" x="329.5" y="-63.8" font-family="Courier,monospace" font-size="16.00">\x2ok</text>
<polyline fill="none" stroke="black" points="272.75,-55.5 386.25,-55.5"/>
<text text-anchor="middle" x="329.5" y="-36.3" font-family="Courier,monospace" font-size="16.00">\x5error</text>
<polyline fill="none" stroke="black" points="272.75,-28 386.25,-28"/>
<text text-anchor="middle" x="329.5" y="-8.8" font-family="Courier,monospace" font-size="16.00">...</text>
</g>
<!-- GlobalContext&#45;&gt;AtomsIDTable -->
<g id="edge2" class="edge">
<title>GlobalContext:ait&#45;&gt;AtomsIDTable:f0</title>
<path fill="none" stroke="black" d="M152.5,-188.25C180.29,-188.25 163.19,-141.84 177.65,-128.06"/>
<polygon fill="black" stroke="black" points="178.8,-131.37 187.07,-124.75 176.48,-124.77 178.8,-131.37"/>
</g>
</g>
</svg>
