<?xml version="1.0" encoding="UTF-8" standalone="no"?>
<!DOCTYPE svg PUBLIC "-//W3C//DTD SVG 1.1//EN"
 "http://www.w3.org/Graphics/SVG/1.1/DTD/svg11.dtd">
<!-- Generated by graphviz version 9.0.0 (0)
 -->
<!-- Title: g Pages: 1 -->
<svg width="534pt" height="480pt"
 viewBox="0.00 0.00 534.00 480.25" xmlns="http://www.w3.org/2000/svg" xmlns:xlink="http://www.w3.org/1999/xlink">
<g id="graph0" class="graph" transform="scale(1 1) rotate(0) translate(4 476.25)">
<title>g</title>
<polygon fill="white" stroke="none" points="-4,4 -4,-476.25 530,-476.25 530,4 -4,4"/>
<!-- GlobalContext -->
<g id="node1" class="node">
<title>GlobalContext</title>
<path fill="none" stroke="black" d="M12,-232.25C12,-232.25 160,-232.25 160,-232.25 166,-232.25 172,-238.25 172,-244.25 172,-244.25 172,-357.75 172,-357.75 172,-363.75 166,-369.75 160,-369.75 160,-369.75 12,-369.75 12,-369.75 6,-369.75 0,-363.75 0,-357.75 0,-357.75 0,-244.25 0,-244.25 0,-238.25 6,-232.25 12,-232.25"/>
<text text-anchor="middle" x="86" y="-350.55" font-family="Courier,monospace" font-size="16.00">GlobalContext</text>
<polyline fill="none" stroke="black" points="0,-342.25 172,-342.25"/>
<text text-anchor="middle" x="86" y="-323.05" font-family="Courier,monospace" font-size="16.00">...</text>
<polyline fill="none" stroke="black" points="0,-314.75 172,-314.75"/>
<text text-anchor="middle" x="86" y="-295.55" font-family="Courier,monospace" font-size="16.00">modules_table</text>
<polyline fill="none" stroke="black" points="0,-287.25 172,-287.25"/>
<text text-anchor="middle" x="86" y="-268.05" font-family="Courier,monospace" font-size="16.00">modules_by_index</text>
<polyline fill="none" stroke="black" points="0,-259.75 172,-259.75"/>
<text text-anchor="middle" x="86" y="-240.55" font-family="Courier,monospace" font-size="16.00">...</text>
</g>
<!-- AtomsTable -->
<g id="node2" class="node">
<title>AtomsTable</title>
<path fill="none" stroke="black" d="M224.88,-334.25C224.88,-334.25 398.62,-334.25 398.62,-334.25 404.62,-334.25 410.62,-340.25 410.62,-346.25 410.62,-346.25 410.62,-459.75 410.62,-459.75 410.62,-465.75 404.62,-471.75 398.62,-471.75 398.62,-471.75 224.88,-471.75 224.88,-471.75 218.88,-471.75 212.88,-465.75 212.88,-459.75 212.88,-459.75 212.88,-346.25 212.88,-346.25 212.88,-340.25 218.88,-334.25 224.88,-334.25"/>
<text text-anchor="middle" x="311.75" y="-452.55" font-family="Courier,monospace" font-size="16.00">AtomsHashtable</text>
<polyline fill="none" stroke="black" points="212.88,-444.25 410.62,-444.25"/>
<text text-anchor="middle" x="269.62" y="-425.05" font-family="Courier,monospace" font-size="16.00">AtomString</text>
<polyline fill="none" stroke="black" points="212.88,-416.75 326.38,-416.75"/>
<text text-anchor="middle" x="269.62" y="-397.55" font-family="Courier,monospace" font-size="16.00">\x2ok</text>
<polyline fill="none" stroke="black" points="212.88,-389.25 326.38,-389.25"/>
<text text-anchor="middle" x="269.62" y="-370.05" font-family="Courier,monospace" font-size="16.00">\x5error</text>
<polyline fill="none" stroke="black" points="212.88,-361.75 326.38,-361.75"/>
<text text-anchor="middle" x="269.62" y="-342.55" font-family="Courier,monospace" font-size="16.00">...</text>
<polyline fill="none" stroke="black" points="326.38,-334.25 326.38,-444.25"/>
<text text-anchor="middle" x="368.5" y="-425.05" font-family="Courier,monospace" font-size="16.00">atom_id</text>
<polyline fill="none" stroke="black" points="326.38,-416.75 410.62,-416.75"/>
<text text-anchor="middle" x="368.5" y="-397.55" font-family="Courier,monospace" font-size="16.00">0</text>
<polyline fill="none" stroke="black" points="326.38,-389.25 410.62,-389.25"/>
<text text-anchor="middle" x="368.5" y="-370.05" font-family="Courier,monospace" font-size="16.00">1</text>
<polyline fill="none" stroke="black" points="326.38,-361.75 410.62,-361.75"/>
<text text-anchor="middle" x="368.5" y="-342.55" font-family="Courier,monospace" font-size="16.00">...</text>
</g>
<!-- GlobalContext&#45;&gt;AtomsTable -->
<g id="edge1" class="edge">
<title>GlobalContext:at&#45;&gt;AtomsTable:f0</title>
<path fill="none" stroke="black" d="M172.29,-315.01C217.74,-356.23 155.24,-445.11 200.4,-456.74"/>
<polygon fill="black" stroke="black" points="199.92,-460.21 210.25,-457.83 200.69,-453.25 199.92,-460.21"/>
</g>
<!-- ModulesTable -->
<g id="node3" class="node">
<title>ModulesTable</title>
<path fill="none" stroke="black" d="M220,-177.25C220,-177.25 403.5,-177.25 403.5,-177.25 409.5,-177.25 415.5,-183.25 415.5,-189.25 415.5,-189.25 415.5,-302.75 415.5,-302.75 415.5,-308.75 409.5,-314.75 403.5,-314.75 403.5,-314.75 220,-314.75 220,-314.75 214,-314.75 208,-308.75 208,-302.75 208,-302.75 208,-189.25 208,-189.25 208,-183.25 214,-177.25 220,-177.25"/>
<text text-anchor="middle" x="311.75" y="-295.55" font-family="Courier,monospace" font-size="16.00">AtomsHashtable</text>
<polyline fill="none" stroke="black" points="208,-287.25 415.5,-287.25"/>
<text text-anchor="middle" x="264.75" y="-268.05" font-family="Courier,monospace" font-size="16.00">AtomString</text>
<polyline fill="none" stroke="black" points="208,-259.75 321.5,-259.75"/>
<text text-anchor="middle" x="264.75" y="-240.55" font-family="Courier,monospace" font-size="16.00">\x6my_app</text>
<polyline fill="none" stroke="black" points="208,-232.25 321.5,-232.25"/>
<text text-anchor="middle" x="264.75" y="-213.05" font-family="Courier,monospace" font-size="16.00">\x7gen_tcp</text>
<polyline fill="none" stroke="black" points="208,-204.75 321.5,-204.75"/>
<text text-anchor="middle" x="264.75" y="-185.55" font-family="Courier,monospace" font-size="16.00">...</text>
<polyline fill="none" stroke="black" points="321.5,-177.25 321.5,-287.25"/>
<text text-anchor="middle" x="368.5" y="-268.05" font-family="Courier,monospace" font-size="16.00">Module *</text>
<polyline fill="none" stroke="black" points="321.5,-259.75 415.5,-259.75"/>
<text text-anchor="middle" x="368.5" y="-240.55" font-family="Courier,monospace" font-size="16.00"> </text>
<polyline fill="none" stroke="black" points="321.5,-232.25 415.5,-232.25"/>
<text text-anchor="middle" x="368.5" y="-213.05" font-family="Courier,monospace" font-size="16.00"> </text>
<polyline fill="none" stroke="black" points="321.5,-204.75 415.5,-204.75"/>
<text text-anchor="middle" x="368.5" y="-185.55" font-family="Courier,monospace" font-size="16.00">...</text>
</g>
<!-- GlobalContext&#45;&gt;ModulesTable -->
<g id="edge2" class="edge">
<title>GlobalContext:mt&#45;&gt;ModulesTable:f0</title>
<path fill="none" stroke="black" d="M172,-301C183.38,-301 188.68,-301 196.55,-301"/>
<polygon fill="black" stroke="black" points="196.49,-304.5 206.49,-301 196.49,-297.5 196.49,-304.5"/>
</g>
<!-- ModuleArray -->
<g id="node4" class="node">
<title>ModuleArray</title>
<polygon fill="none" stroke="black" points="250.5,-122 250.5,-158 373,-158 373,-122 250.5,-122"/>
<text text-anchor="middle" x="263.38" y="-134.8" font-family="Courier,monospace" font-size="16.00">0</text>
<polyline fill="none" stroke="black" points="276.25,-122.5 276.25,-158"/>
<text text-anchor="middle" x="289.12" y="-134.8" font-family="Courier,monospace" font-size="16.00">1</text>
<polyline fill="none" stroke="black" points="302,-122.5 302,-158"/>
<text text-anchor="middle" x="324.62" y="-134.8" font-family="Courier,monospace" font-size="16.00">...</text>
<polyline fill="none" stroke="black" points="347.25,-122.5 347.25,-158"/>
<text text-anchor="middle" x="360.12" y="-134.8" font-family="Courier,monospace" font-size="16.00">m</text>
</g>
<!-- GlobalContext&#45;&gt;ModuleArray -->
<g id="edge3" class="edge">
<title>GlobalContext:mbi&#45;&gt;ModuleArray:f0</title>
<path fill="none" stroke="black" d="M172,-273C221.33,-273 170.28,-199.79 208,-168 214.82,-162.25 240.12,-166.47 254.18,-164.88"/>
<polygon fill="black" stroke="black" points="255.77,-168.01 262.46,-159.79 252.11,-162.04 255.77,-168.01"/>
</g>
<!-- Module0 -->
<g id="node5" class="node">
<title>Module0</title>
<path fill="none" stroke="black" d="M463.5,-0.5C463.5,-0.5 514,-0.5 514,-0.5 520,-0.5 526,-6.5 526,-12.5 526,-12.5 526,-119.5 526,-119.5 526,-125.5 520,-131.5 514,-131.5 514,-131.5 463.5,-131.5 463.5,-131.5 457.5,-131.5 451.5,-125.5 451.5,-119.5 451.5,-119.5 451.5,-12.5 451.5,-12.5 451.5,-6.5 457.5,-0.5 463.5,-0.5"/>
<text text-anchor="middle" x="488.75" y="-112.3" font-family="Courier,monospace" font-size="16.00">Module</text>
<polyline fill="none" stroke="black" points="451.5,-104 526,-104"/>
<text text-anchor="middle" x="488.75" y="-46.8" font-family="Courier,monospace" font-size="16.00">...</text>
</g>
<!-- ModulesTable&#45;&gt;Module0 -->
<g id="edge7" class="edge">
<title>ModulesTable:m1&#45;&gt;Module0:f0</title>
<path fill="none" stroke="black" d="M415.5,-218C458.12,-218 414.68,-136.58 440.49,-120.67"/>
<polygon fill="black" stroke="black" points="441.14,-124.12 450.03,-118.36 439.49,-117.32 441.14,-124.12"/>
</g>
<!-- Module1 -->
<g id="node6" class="node">
<title>Module1</title>
<path fill="none" stroke="black" d="M463.5,-150.5C463.5,-150.5 514,-150.5 514,-150.5 520,-150.5 526,-156.5 526,-162.5 526,-162.5 526,-269.5 526,-269.5 526,-275.5 520,-281.5 514,-281.5 514,-281.5 463.5,-281.5 463.5,-281.5 457.5,-281.5 451.5,-275.5 451.5,-269.5 451.5,-269.5 451.5,-162.5 451.5,-162.5 451.5,-156.5 457.5,-150.5 463.5,-150.5"/>
<text text-anchor="middle" x="488.75" y="-262.3" font-family="Courier,monospace" font-size="16.00">Module</text>
<polyline fill="none" stroke="black" points="451.5,-254 526,-254"/>
<text text-anchor="middle" x="488.75" y="-196.8" font-family="Courier,monospace" font-size="16.00">...</text>
</g>
<!-- ModulesTable&#45;&gt;Module1 -->
<g id="edge6" class="edge">
<title>ModulesTable:m0&#45;&gt;Module1:f0</title>
<path fill="none" stroke="black" d="M415.5,-246C429.56,-246 432.23,-258.38 440.6,-264.56"/>
<polygon fill="black" stroke="black" points="439.47,-267.87 450.06,-267.54 441.57,-261.2 439.47,-267.87"/>
</g>
<!-- ModuleArray&#45;&gt;Module0 -->
<g id="edge4" class="edge">
<title>ModuleArray:f0&#45;&gt;Module0:f0</title>
<path fill="none" stroke="black" d="M263.75,-121C263.75,-41.29 358.89,-111.1 440.14,-117.54"/>
<polygon fill="black" stroke="black" points="439.85,-121.03 449.99,-117.94 440.14,-114.03 439.85,-121.03"/>
</g>
<!-- ModuleArray&#45;&gt;Module1 -->
<g id="edge5" class="edge">
<title>ModuleArray:f1&#45;&gt;Module1:f0</title>
<path fill="none" stroke="black" d="M288.75,-159C288.75,-173.12 404.24,-159.48 415.5,-168 449.48,-193.73 412.99,-254.45 440.24,-266.06"/>
<polygon fill="black" stroke="black" points="439.56,-269.5 450.01,-267.74 440.75,-262.6 439.56,-269.5"/>
</g>
</g>
</svg>
