<?xml version="1.0" encoding="UTF-8" standalone="no"?>
<!DOCTYPE svg PUBLIC "-//W3C//DTD SVG 1.1//EN"
 "http://www.w3.org/Graphics/SVG/1.1/DTD/svg11.dtd">
<!-- Generated by graphviz version 9.0.0 (0)
 -->
<!-- Title: g Pages: 1 -->
<svg width="773pt" height="326pt"
 viewBox="0.00 0.00 772.75 325.50" xmlns="http://www.w3.org/2000/svg" xmlns:xlink="http://www.w3.org/1999/xlink">
<g id="graph0" class="graph" transform="scale(1 1) rotate(0) translate(4 321.5)">
<title>g</title>
<polygon fill="white" stroke="none" points="-4,4 -4,-321.5 768.75,-321.5 768.75,4 -4,4"/>
<!-- GlobalContext -->
<g id="node1" class="node">
<title>GlobalContext</title>
<path fill="none" stroke="black" d="M12,-69.5C12,-69.5 224.75,-69.5 224.75,-69.5 230.75,-69.5 236.75,-75.5 236.75,-81.5 236.75,-81.5 236.75,-305 236.75,-305 236.75,-311 230.75,-317 224.75,-317 224.75,-317 12,-317 12,-317 6,-317 0,-311 0,-305 0,-305 0,-81.5 0,-81.5 0,-75.5 6,-69.5 12,-69.5"/>
<text text-anchor="middle" x="118.38" y="-297.8" font-family="Courier,monospace" font-size="16.00">GlobalContext</text>
<polyline fill="none" stroke="black" points="0,-289.5 236.75,-289.5"/>
<text text-anchor="middle" x="118.38" y="-270.3" font-family="Courier,monospace" font-size="16.00">...</text>
<polyline fill="none" stroke="black" points="0,-262 236.75,-262"/>
<text text-anchor="middle" x="90.88" y="-229.3" font-family="Courier,monospace" font-size="16.00">processes_table</text>
<polyline fill="none" stroke="black" points="0,-207.5 181.75,-207.5"/>
<text text-anchor="middle" x="90.88" y="-174.3" font-family="Courier,monospace" font-size="16.00">waiting_processes</text>
<polyline fill="none" stroke="black" points="0,-152 181.75,-152"/>
<text text-anchor="middle" x="90.88" y="-119.3" font-family="Courier,monospace" font-size="16.00">ready_processes</text>
<polyline fill="none" stroke="black" points="181.75,-97 181.75,-262"/>
<text text-anchor="middle" x="209.25" y="-242.8" font-family="Courier,monospace" font-size="16.00">prev</text>
<polyline fill="none" stroke="black" points="181.75,-234.5 236.75,-234.5"/>
<text text-anchor="middle" x="209.25" y="-215.3" font-family="Courier,monospace" font-size="16.00">next</text>
<polyline fill="none" stroke="black" points="181.75,-207 236.75,-207"/>
<text text-anchor="middle" x="209.25" y="-187.8" font-family="Courier,monospace" font-size="16.00">prev</text>
<polyline fill="none" stroke="black" points="181.75,-179.5 236.75,-179.5"/>
<text text-anchor="middle" x="209.25" y="-160.3" font-family="Courier,monospace" font-size="16.00">next</text>
<polyline fill="none" stroke="black" points="181.75,-152 236.75,-152"/>
<text text-anchor="middle" x="209.25" y="-132.8" font-family="Courier,monospace" font-size="16.00">prev</text>
<polyline fill="none" stroke="black" points="181.75,-124.5 236.75,-124.5"/>
<text text-anchor="middle" x="209.25" y="-105.3" font-family="Courier,monospace" font-size="16.00">next</text>
<polyline fill="none" stroke="black" points="0,-97 236.75,-97"/>
<text text-anchor="middle" x="118.38" y="-77.8" font-family="Courier,monospace" font-size="16.00">...</text>
</g>
<!-- Context0 -->
<g id="node2" class="node">
<title>Context0</title>
<path fill="none" stroke="black" d="M284.75,-97.5C284.75,-97.5 370.75,-97.5 370.75,-97.5 376.75,-97.5 382.75,-103.5 382.75,-109.5 382.75,-109.5 382.75,-223 382.75,-223 382.75,-229 376.75,-235 370.75,-235 370.75,-235 284.75,-235 284.75,-235 278.75,-235 272.75,-229 272.75,-223 272.75,-223 272.75,-109.5 272.75,-109.5 272.75,-103.5 278.75,-97.5 284.75,-97.5"/>
<text text-anchor="middle" x="327.75" y="-215.8" font-family="Courier,monospace" font-size="16.00">Context</text>
<polyline fill="none" stroke="black" points="272.75,-207.5 382.75,-207.5"/>
<text text-anchor="middle" x="300.25" y="-188.3" font-family="Courier,monospace" font-size="16.00">prev</text>
<polyline fill="none" stroke="black" points="327.75,-180 327.75,-207.5"/>
<text text-anchor="middle" x="355.25" y="-188.3" font-family="Courier,monospace" font-size="16.00">next</text>
<polyline fill="none" stroke="black" points="272.75,-180 382.75,-180"/>
<text text-anchor="middle" x="300.25" y="-160.8" font-family="Courier,monospace" font-size="16.00">prev</text>
<polyline fill="none" stroke="black" points="327.75,-152.5 327.75,-180"/>
<text text-anchor="middle" x="355.25" y="-160.8" font-family="Courier,monospace" font-size="16.00">next</text>
<polyline fill="none" stroke="black" points="272.75,-152.5 382.75,-152.5"/>
<text text-anchor="middle" x="327.75" y="-133.3" font-family="Courier,monospace" font-size="16.00">id = 0</text>
<polyline fill="none" stroke="black" points="272.75,-125 382.75,-125"/>
<text text-anchor="middle" x="327.75" y="-105.8" font-family="Courier,monospace" font-size="16.00">...</text>
</g>
<!-- GlobalContext&#45;&gt;Context0 -->
<g id="edge1" class="edge">
<title>GlobalContext:pt_next&#45;&gt;Context0:f0</title>
<path fill="none" stroke="black" d="M236.75,-221.25C248.12,-221.25 253.43,-221.25 261.3,-221.25"/>
<polygon fill="black" stroke="black" points="261.24,-224.75 271.24,-221.25 261.24,-217.75 261.24,-224.75"/>
</g>
<!-- GlobalContext&#45;&gt;Context0 -->
<g id="edge2" class="edge">
<title>GlobalContext:wp_next&#45;&gt;Context0:wp_prev</title>
<path fill="none" stroke="black" d="M236.75,-165.25C244.59,-165.25 252.81,-165.29 260.97,-165.35"/>
<polygon fill="black" stroke="black" points="260.87,-168.85 270.9,-165.43 260.93,-161.85 260.87,-168.85"/>
</g>
<!-- Context1 -->
<g id="node3" class="node">
<title>Context1</title>
<path fill="none" stroke="black" d="M430.75,-0.5C430.75,-0.5 516.75,-0.5 516.75,-0.5 522.75,-0.5 528.75,-6.5 528.75,-12.5 528.75,-12.5 528.75,-126 528.75,-126 528.75,-132 522.75,-138 516.75,-138 516.75,-138 430.75,-138 430.75,-138 424.75,-138 418.75,-132 418.75,-126 418.75,-126 418.75,-12.5 418.75,-12.5 418.75,-6.5 424.75,-0.5 430.75,-0.5"/>
<text text-anchor="middle" x="473.75" y="-118.8" font-family="Courier,monospace" font-size="16.00">Context</text>
<polyline fill="none" stroke="black" points="418.75,-110.5 528.75,-110.5"/>
<text text-anchor="middle" x="446.25" y="-91.3" font-family="Courier,monospace" font-size="16.00">prev</text>
<polyline fill="none" stroke="black" points="473.75,-83 473.75,-110.5"/>
<text text-anchor="middle" x="501.25" y="-91.3" font-family="Courier,monospace" font-size="16.00">next</text>
<polyline fill="none" stroke="black" points="418.75,-83 528.75,-83"/>
<text text-anchor="middle" x="446.25" y="-63.8" font-family="Courier,monospace" font-size="16.00">prev</text>
<polyline fill="none" stroke="black" points="473.75,-55.5 473.75,-83"/>
<text text-anchor="middle" x="501.25" y="-63.8" font-family="Courier,monospace" font-size="16.00">next</text>
<polyline fill="none" stroke="black" points="418.75,-55.5 528.75,-55.5"/>
<text text-anchor="middle" x="473.75" y="-36.3" font-family="Courier,monospace" font-size="16.00">id = 1</text>
<polyline fill="none" stroke="black" points="418.75,-28 528.75,-28"/>
<text text-anchor="middle" x="473.75" y="-8.8" font-family="Courier,monospace" font-size="16.00">...</text>
</g>
<!-- GlobalContext&#45;&gt;Context1 -->
<g id="edge3" class="edge">
<title>GlobalContext:rp_next&#45;&gt;Context1:rp_prev</title>
<path fill="none" stroke="black" d="M236.75,-110.25C255.5,-110.25 254.96,-94.17 272.75,-88.25 316.03,-73.84 367.26,-69.17 407.17,-68.06"/>
<polygon fill="black" stroke="black" points="407.19,-71.56 417.12,-67.86 407.05,-64.56 407.19,-71.56"/>
</g>
<!-- Context0&#45;&gt;Context1 -->
<g id="edge4" class="edge">
<title>Context0:next0&#45;&gt;Context1:f0</title>
<path fill="none" stroke="black" d="M382.75,-194.25C413.09,-194.25 391.57,-141.61 408.14,-127.63"/>
<polygon fill="black" stroke="black" points="408.84,-131.08 417.31,-124.71 406.72,-124.41 408.84,-131.08"/>
</g>
<!-- ContextN -->
<g id="node5" class="node">
<title>ContextN</title>
<path fill="none" stroke="black" d="M666.75,-13.5C666.75,-13.5 752.75,-13.5 752.75,-13.5 758.75,-13.5 764.75,-19.5 764.75,-25.5 764.75,-25.5 764.75,-139 764.75,-139 764.75,-145 758.75,-151 752.75,-151 752.75,-151 666.75,-151 666.75,-151 660.75,-151 654.75,-145 654.75,-139 654.75,-139 654.75,-25.5 654.75,-25.5 654.75,-19.5 660.75,-13.5 666.75,-13.5"/>
<text text-anchor="middle" x="709.75" y="-131.8" font-family="Courier,monospace" font-size="16.00">Context</text>
<polyline fill="none" stroke="black" points="654.75,-123.5 764.75,-123.5"/>
<text text-anchor="middle" x="682.25" y="-104.3" font-family="Courier,monospace" font-size="16.00">prev</text>
<polyline fill="none" stroke="black" points="709.75,-96 709.75,-123.5"/>
<text text-anchor="middle" x="737.25" y="-104.3" font-family="Courier,monospace" font-size="16.00">next</text>
<polyline fill="none" stroke="black" points="654.75,-96 764.75,-96"/>
<text text-anchor="middle" x="682.25" y="-76.8" font-family="Courier,monospace" font-size="16.00">prev</text>
<polyline fill="none" stroke="black" points="709.75,-68.5 709.75,-96"/>
<text text-anchor="middle" x="737.25" y="-76.8" font-family="Courier,monospace" font-size="16.00">next</text>
<polyline fill="none" stroke="black" points="654.75,-68.5 764.75,-68.5"/>
<text text-anchor="middle" x="709.75" y="-49.3" font-family="Courier,monospace" font-size="16.00">id = n</text>
<polyline fill="none" stroke="black" points="654.75,-41 764.75,-41"/>
<text text-anchor="middle" x="709.75" y="-21.8" font-family="Courier,monospace" font-size="16.00">...</text>
</g>
<!-- Context0&#45;&gt;ContextN -->
<g id="edge7" class="edge">
<title>Context0:next1&#45;&gt;ContextN:f0</title>
<path fill="none" stroke="black" d="M382.75,-166.25C500.41,-166.25 531.22,-139.09 643.28,-137.34"/>
<polygon fill="black" stroke="black" points="643.26,-140.84 653.24,-137.26 643.21,-133.84 643.26,-140.84"/>
</g>
<!-- ContextEllipsis -->
<g id="node4" class="node">
<title>ContextEllipsis</title>
<text text-anchor="middle" x="591.75" y="-102.8" font-family="Courier,monospace" font-size="16.00">...</text>
</g>
<!-- Context1&#45;&gt;ContextEllipsis -->
<g id="edge5" class="edge">
<title>Context1:next0&#45;&gt;ContextEllipsis</title>
<path fill="none" stroke="black" d="M528.75,-97.25C536.92,-97.25 545.61,-98.19 553.82,-99.52"/>
<polygon fill="black" stroke="black" points="553.03,-102.93 563.5,-101.32 554.31,-96.05 553.03,-102.93"/>
</g>
<!-- ContextEllipsis&#45;&gt;ContextN -->
<g id="edge6" class="edge">
<title>ContextEllipsis&#45;&gt;ContextN:f0</title>
<path fill="none" stroke="black" d="M618.09,-126.12C625.67,-130.32 634.37,-134.11 643.33,-136"/>
<polygon fill="black" stroke="black" points="642.92,-139.48 653.25,-137.09 643.69,-132.52 642.92,-139.48"/>
</g>
</g>
</svg>
